# Exported from Wings 3D 1.5.4
mtllib Ara_SensorAccelerometer_1.mtl
o Ara_SensorAccelerometer_1
#76 vertices, 61 faces
v 3.1250000e-2 1.7791107e-17 2.2500000e-2
v 2.2097087e-2 -2.2097087e-2 2.2500000e-2
v -5.1862917e-17 -3.1250000e-2 2.2500000e-2
v -2.2097087e-2 -2.2097087e-2 2.2500000e-2
v -3.1250000e-2 1.3964086e-17 2.2500000e-2
v -2.2097087e-2 2.2097087e-2 2.2500000e-2
v -5.9516960e-17 3.1250000e-2 2.2500000e-2
v 2.2097087e-2 2.2097087e-2 2.2500000e-2
v 3.1250000e-2 1.3964086e-17 -2.2500000e-2
v 2.2097087e-2 -2.2097087e-2 -2.2500000e-2
v -5.1862917e-17 -3.1250000e-2 -2.2500000e-2
v -2.2097087e-2 -2.2097087e-2 -2.2500000e-2
v -3.1250000e-2 1.0137064e-17 -2.2500000e-2
v -2.2097087e-2 2.2097087e-2 -2.2500000e-2
v -5.9516960e-17 3.1250000e-2 -2.2500000e-2
v 2.2097087e-2 2.2097087e-2 -2.2500000e-2
v -8.7500000e-2 -1.0000000e-1 -0.17250000
v -0.10000000 -8.7500000e-2 -0.17250000
v -8.7500000e-2 -1.0000000e-1 -2.2500000e-2
v -0.10000000 -8.7500000e-2 -2.2500000e-2
v -0.10000000 8.7500000e-2 -0.17250000
v -8.7500000e-2 0.10000000 -0.17250000
v -0.10000000 8.7500000e-2 -2.2500000e-2
v -8.7500000e-2 0.10000000 -2.2500000e-2
v 8.7500000e-2 -1.0000000e-1 -0.17250000
v 1.0000000e-1 -8.7500000e-2 -0.17250000
v 8.7500000e-2 -1.0000000e-1 -2.2500000e-2
v 1.0000000e-1 -8.7500000e-2 -2.2500000e-2
v 1.0000000e-1 8.7500000e-2 -0.17250000
v 8.7500000e-2 0.10000000 -0.17250000
v 1.0000000e-1 8.7500000e-2 -2.2500000e-2
v 8.7500000e-2 0.10000000 -2.2500000e-2
v 6.2500000e-2 6.2500000e-2 -0.17250000
v -6.2500000e-2 6.2500000e-2 -0.17250000
v -5.4126588e-2 6.2500000e-2 -0.20375000
v -3.1250000e-2 6.2500000e-2 -0.22662659
v -5.7327327e-17 6.2500000e-2 -0.23500000
v 3.1250000e-2 6.2500000e-2 -0.22662659
v 5.4126588e-2 6.2500000e-2 -0.20375000
v 6.2500000e-2 -6.2500000e-2 -0.17250000
v -6.2500000e-2 -6.2500000e-2 -0.17250000
v -5.4126588e-2 -6.2500000e-2 -0.20375000
v -3.1250000e-2 -6.2500000e-2 -0.22662659
v -4.1477741e-17 -6.2500000e-2 -0.23500000
v 3.1250000e-2 -6.2500000e-2 -0.22662659
v 5.4126588e-2 -6.2500000e-2 -0.20375000
v 5.0000000e-2 -6.2500000e-2 -0.17250000
v -5.0000000e-2 -6.2500000e-2 -0.17250000
v -4.3301270e-2 -6.2500000e-2 -0.19750000
v -2.5000000e-2 -6.2500000e-2 -0.21580127
v -4.1691672e-17 -6.2500000e-2 -0.22250000
v 2.5000000e-2 -6.2500000e-2 -0.21580127
v 4.3301270e-2 -6.2500000e-2 -0.19750000
v 5.0000000e-2 6.2500000e-2 -0.17250000
v 4.3301270e-2 6.2500000e-2 -0.19750000
v 2.5000000e-2 6.2500000e-2 -0.21580127
v -5.7541259e-17 6.2500000e-2 -0.22250000
v -2.5000000e-2 6.2500000e-2 -0.21580127
v -4.3301270e-2 6.2500000e-2 -0.19750000
v -5.0000000e-2 6.2500000e-2 -0.17250000
v 5.0000000e-2 -5.0000000e-2 -0.17250000
v -5.0000000e-2 -5.0000000e-2 -0.17250000
v -4.3301270e-2 -5.0000000e-2 -0.19750000
v -2.5000000e-2 -5.0000000e-2 -0.21580127
v -4.0106714e-17 -5.0000000e-2 -0.22250000
v 2.5000000e-2 -5.0000000e-2 -0.21580127
v 4.3301270e-2 -5.0000000e-2 -0.19750000
v 5.0000000e-2 5.0000000e-2 -0.17250000
v 4.3301270e-2 5.0000000e-2 -0.19750000
v 2.5000000e-2 5.0000000e-2 -0.21580127
v -5.9126217e-17 5.0000000e-2 -0.22250000
v -2.5000000e-2 5.0000000e-2 -0.21580127
v -4.3301270e-2 5.0000000e-2 -0.19750000
v -5.0000000e-2 5.0000000e-2 -0.17250000
v -5.4550927e-17 5.0000000e-2 -0.17250000
v -3.4664062e-17 -5.0000000e-2 -0.17250000
vt 0.18240336 0.54871255
vt 0.18240336 0.55118874
vt 0.18240336 0.58585541
vt 0.18240336 0.58833160
vt 0.21211764 0.54871255
vt 0.21211764 0.55118874
vt 0.21211764 0.58585541
vt 0.21211764 0.58833160
vt 0.22158001 0.55118874
vt 0.22158001 0.58585541
vt 0.22405620 0.54871255
vt 0.22405620 0.58833160
vt 0.25222602 0.50784589
vt 0.25222602 0.51033613
vt 0.25222602 0.51361925
vt 0.25222602 0.51740850
vt 0.25222602 0.52119774
vt 0.25222602 0.52448086
vt 0.25222602 0.52697110
vt 0.25222602 0.50784589
vt 0.25222602 0.51033613
vt 0.25222602 0.51361925
vt 0.25222602 0.51740850
vt 0.25222602 0.52119774
vt 0.25222602 0.52448086
vt 0.25222602 0.52697110
vt 0.25449194 0.50784589
vt 0.25449194 0.51033613
vt 0.25449194 0.51361925
vt 0.25449194 0.51740850
vt 0.25449194 0.52119774
vt 0.25449194 0.52448086
vt 0.25449194 0.52697110
vt 0.25449194 0.50784589
vt 0.25449194 0.51033613
vt 0.25449194 0.51361925
vt 0.25449194 0.51740850
vt 0.25449194 0.52119774
vt 0.25449194 0.52448086
vt 0.25449194 0.52697110
vt 0.25872287 0.54871255
vt 0.25872287 0.58833160
vt 0.25982293 0.60622455
vt 0.25982293 0.62747479
vt 0.26119906 0.55118874
vt 0.26119906 0.58585541
vt 0.26532290 0.60622455
vt 0.26532290 0.62747479
vt 0.26853121 0.50896404
vt 0.26853121 0.50896404
vt 0.26853121 0.51178002
vt 0.26853121 0.51178002
vt 0.26853121 0.51459601
vt 0.26853121 0.51459601
vt 0.26853121 0.51741199
vt 0.26853121 0.52022797
vt 0.26853121 0.52022797
vt 0.26853121 0.52304396
vt 0.26853121 0.52304396
vt 0.26853121 0.52585994
vt 0.26853121 0.52585994
vt 0.26853121 0.51741199
vt 0.27028777 0.54871255
vt 0.27028777 0.55118874
vt 0.27028777 0.58585541
vt 0.27028777 0.58833160
vt 0.27065624 0.50896404
vt 0.27065624 0.51178002
vt 0.27065624 0.51459601
vt 0.27065624 0.51741199
vt 0.27065624 0.52022797
vt 0.27065624 0.52304396
vt 0.27065624 0.52585994
vt 0.27065624 0.50896404
vt 0.27065624 0.51178002
vt 0.27065624 0.51459601
vt 0.27065624 0.51741199
vt 0.27065624 0.52022797
vt 0.27065624 0.52304396
vt 0.27065624 0.52585994
vt 0.27082287 0.60622455
vt 0.27082287 0.62747479
vt 0.27632284 0.60622455
vt 0.27632284 0.62747479
vt 0.28182280 0.60622455
vt 0.28182280 0.62747479
vt 0.28475511 0.51746010
vt 0.28475511 0.51746010
vt 0.28589391 0.51321005
vt 0.28589391 0.52171015
vt 0.28589391 0.51321005
vt 0.28589391 0.52171015
vt 0.28732277 0.60622455
vt 0.28732277 0.62747479
vt 0.28900516 0.51009880
vt 0.28900516 0.52482140
vt 0.28900516 0.51009880
vt 0.28900516 0.52482140
vt 0.29282274 0.60622455
vt 0.29282274 0.62747479
vt 0.29325521 0.50896001
vt 0.29325521 0.51746010
vt 0.29325521 0.52596020
vt 0.29325521 0.50896001
vt 0.29325521 0.51746010
vt 0.29325521 0.52596020
vt 0.30000206 0.54871255
vt 0.30000206 0.55118874
vt 0.30000206 0.58585541
vt 0.30000206 0.58833160
vt 0.30953787 0.55118874
vt 0.30953787 0.58585541
vt 0.31189087 0.50854984
vt 0.31189087 0.53826412
vt 0.31189087 0.59733724
vt 0.31189087 0.62705153
vt 0.31201406 0.54871255
vt 0.31201406 0.58833160
vt 0.34655754 0.50854984
vt 0.34655754 0.53826412
vt 0.34655754 0.59733724
vt 0.34655754 0.62705153
vt 0.34668072 0.54871255
vt 0.34668072 0.58833160
vt 0.34915691 0.55118874
vt 0.34915691 0.58585541
vt 0.83657164 0.55222779
vt 0.83825339 0.52786877
vt 0.83825339 0.53641877
vt 0.83825339 0.52786877
vt 0.83825339 0.53641877
vt 0.83825339 0.52786877
vt 0.83825339 0.53641877
vt 0.83831069 0.54802935
vt 0.83831069 0.55642624
vt 0.84245183 0.52786877
vt 0.84245183 0.53641877
vt 0.84245183 0.52786877
vt 0.84245183 0.53641877
vt 0.84245183 0.52786877
vt 0.84245183 0.53641877
vt 0.84245183 0.52786877
vt 0.84245183 0.53641877
vt 0.84250914 0.54629029
vt 0.84250914 0.55816529
vt 0.84665028 0.52786877
vt 0.84665028 0.53641877
vt 0.84665028 0.52786877
vt 0.84665028 0.53641877
vt 0.84665028 0.52786877
vt 0.84665028 0.53641877
vt 0.84665028 0.52786877
vt 0.84665028 0.53641877
vt 0.84670759 0.54802935
vt 0.84670759 0.55642624
vt 0.84844664 0.55222779
vn -4.9303807e-32 1.00000000 3.0357661e-16
vn 8.2173011e-33 -1.00000000 2.4575249e-16
vn -3.9252311e-17 2.7755576e-17 1.00000000
vn 1.00000000 3.0042419e-17 1.6676892e-32
vn 1.00000000 3.0042419e-17 1.6676892e-32
vn -3.9252311e-17 2.7755576e-17 1.00000000
vn 0.70710678 -0.70710678 8.1775649e-17
vn 0.70710678 -0.70710678 8.1775649e-17
vn -3.9252311e-17 2.7755576e-17 1.00000000
vn 6.0084837e-17 -1.00000000 1.0903420e-16
vn 6.0084837e-17 -1.00000000 1.0903420e-16
vn -3.9252311e-17 2.7755576e-17 1.00000000
vn -0.70710678 -0.70710678 7.4961011e-17
vn -0.70710678 -0.70710678 7.4961011e-17
vn -3.9252311e-17 2.7755576e-17 1.00000000
vn -1.00000000 -1.8025451e-16 3.3353785e-33
vn -1.00000000 -1.8025451e-16 3.3353785e-33
vn -3.9252311e-17 2.7755576e-17 1.00000000
vn -0.70710678 0.70710678 -5.4517099e-17
vn -0.70710678 0.70710678 -5.4517099e-17
vn -3.9252311e-17 2.7755576e-17 1.00000000
vn -1.5021209e-16 1.00000000 -7.4961011e-17
vn -1.5021209e-16 1.00000000 -7.4961011e-17
vn -3.9252311e-17 2.7755576e-17 1.00000000
vn 0.70710678 0.70710678 -6.8146374e-17
vn 0.70710678 0.70710678 -6.8146374e-17
vn 1.00000000 3.0042419e-17 1.6676892e-32
vn 1.00000000 3.0042419e-17 1.6676892e-32
vn 0.70710678 -0.70710678 8.1775649e-17
vn 0.70710678 -0.70710678 8.1775649e-17
vn 6.0084837e-17 -1.00000000 1.0903420e-16
vn 6.0084837e-17 -1.00000000 1.0903420e-16
vn -0.70710678 -0.70710678 7.4961011e-17
vn -0.70710678 -0.70710678 7.4961011e-17
vn -1.00000000 -1.8025451e-16 3.3353785e-33
vn -1.00000000 -1.8025451e-16 3.3353785e-33
vn -0.70710678 0.70710678 -5.4517099e-17
vn -0.70710678 0.70710678 -5.4517099e-17
vn -1.5021209e-16 1.00000000 -7.4961011e-17
vn -1.5021209e-16 1.00000000 -7.4961011e-17
vn 0.70710678 0.70710678 -6.8146374e-17
vn 0.70710678 0.70710678 -6.8146374e-17
vn -0.38268343 -0.92387953 0.0000000e+0
vn 6.5564352e-17 0.0000000e+0 -1.00000000
vn -0.38268343 -0.92387953 0.0000000e+0
vn 6.5564352e-17 0.0000000e+0 -1.00000000
vn -0.92387953 -0.38268343 0.0000000e+0
vn -0.92387953 -0.38268343 0.0000000e+0
vn -0.38268343 -0.92387953 0.0000000e+0
vn 6.9662124e-17 0.0000000e+0 1.00000000
vn -0.38268343 -0.92387953 0.0000000e+0
vn 6.9662124e-17 0.0000000e+0 1.00000000
vn -0.92387953 -0.38268343 0.0000000e+0
vn -0.92387953 -0.38268343 0.0000000e+0
vn 6.5564352e-17 0.0000000e+0 -1.00000000
vn -0.92387953 0.38268343 0.0000000e+0
vn -0.92387953 0.38268343 0.0000000e+0
vn 6.5564352e-17 0.0000000e+0 -1.00000000
vn -0.38268343 0.92387953 0.0000000e+0
vn -0.38268343 0.92387953 0.0000000e+0
vn 6.9662124e-17 0.0000000e+0 1.00000000
vn -0.92387953 0.38268343 0.0000000e+0
vn -0.92387953 0.38268343 0.0000000e+0
vn 6.9662124e-17 0.0000000e+0 1.00000000
vn -0.38268343 0.92387953 0.0000000e+0
vn -0.38268343 0.92387953 0.0000000e+0
vn 0.38268343 -0.92387953 0.0000000e+0
vn 6.5564352e-17 0.0000000e+0 -1.00000000
vn 0.38268343 -0.92387953 0.0000000e+0
vn 6.5564352e-17 0.0000000e+0 -1.00000000
vn 0.92387953 -0.38268343 0.0000000e+0
vn 0.92387953 -0.38268343 0.0000000e+0
vn 0.38268343 -0.92387953 0.0000000e+0
vn 6.9662124e-17 0.0000000e+0 1.00000000
vn 0.38268343 -0.92387953 0.0000000e+0
vn 6.9662124e-17 0.0000000e+0 1.00000000
vn 0.92387953 -0.38268343 0.0000000e+0
vn 0.92387953 -0.38268343 0.0000000e+0
vn 6.5564352e-17 0.0000000e+0 -1.00000000
vn 0.92387953 0.38268343 0.0000000e+0
vn 0.92387953 0.38268343 0.0000000e+0
vn 6.5564352e-17 0.0000000e+0 -1.00000000
vn 0.38268343 0.92387953 0.0000000e+0
vn 0.38268343 0.92387953 0.0000000e+0
vn 6.9662124e-17 0.0000000e+0 1.00000000
vn 0.92387953 0.38268343 0.0000000e+0
vn 0.92387953 0.38268343 0.0000000e+0
vn 6.9662124e-17 0.0000000e+0 1.00000000
vn 0.38268343 0.92387953 0.0000000e+0
vn 0.38268343 0.92387953 0.0000000e+0
vn 0.96592583 1.0723931e-16 -0.25881905
vn -6.1679057e-16 1.00000000 -8.1447693e-17
vn -0.96592583 -1.6085896e-16 -0.25881905
vn 0.0000000e+0 1.00000000 0.0000000e+0
vn -0.86602540 -1.2490009e-16 -0.50000000
vn -0.86602540 -1.2490009e-16 -0.50000000
vn 0.0000000e+0 1.00000000 0.0000000e+0
vn 0.0000000e+0 1.00000000 0.0000000e+0
vn -0.50000000 -5.8980598e-17 -0.86602540
vn -0.50000000 -5.8980598e-17 -0.86602540
vn 0.0000000e+0 1.00000000 0.0000000e+0
vn 0.0000000e+0 1.00000000 0.0000000e+0
vn -2.2987749e-16 2.8711719e-32 -1.00000000
vn -2.2987749e-16 2.8711719e-32 -1.00000000
vn 0.0000000e+0 1.00000000 0.0000000e+0
vn 0.0000000e+0 1.00000000 0.0000000e+0
vn 0.50000000 5.8980598e-17 -0.86602540
vn 0.50000000 5.8980598e-17 -0.86602540
vn 0.0000000e+0 1.00000000 0.0000000e+0
vn 0.0000000e+0 1.00000000 0.0000000e+0
vn 0.86602540 9.7144515e-17 -0.50000000
vn 0.86602540 9.7144515e-17 -0.50000000
vn -3.0839528e-16 1.00000000 -4.0723846e-17
vn -3.0839528e-16 1.00000000 -4.0723846e-17
vn 0.96592583 1.0723931e-16 -0.25881905
vn 0.0000000e+0 -1.00000000 0.0000000e+0
vn -0.96592583 -1.6085896e-16 -0.25881905
vn 6.1679057e-16 -1.00000000 -8.1447693e-17
vn -0.86602540 -1.2490009e-16 -0.50000000
vn -0.86602540 -1.2490009e-16 -0.50000000
vn 3.0839528e-16 -1.00000000 -4.0723846e-17
vn 3.0839528e-16 -1.00000000 -4.0723846e-17
vn -0.50000000 -5.8980598e-17 -0.86602540
vn -0.50000000 -5.8980598e-17 -0.86602540
vn 0.0000000e+0 -1.00000000 0.0000000e+0
vn 0.0000000e+0 -1.00000000 0.0000000e+0
vn -2.2987749e-16 2.8711719e-32 -1.00000000
vn -2.2987749e-16 2.8711719e-32 -1.00000000
vn 9.4732764e-17 -1.00000000 -1.2335811e-16
vn 9.4732764e-17 -1.00000000 -1.2335811e-16
vn 0.50000000 5.8980598e-17 -0.86602540
vn 0.50000000 5.8980598e-17 -0.86602540
vn 2.3845280e-16 -1.00000000 -1.8282299e-16
vn 2.3845280e-16 -1.00000000 -1.8282299e-16
vn 0.86602540 9.7144515e-17 -0.50000000
vn 0.86602540 9.7144515e-17 -0.50000000
vn 1.4372004e-16 -1.00000000 -5.9464878e-17
vn 1.4372004e-16 -1.00000000 -5.9464878e-17
vn 0.0000000e+0 -1.00000000 0.0000000e+0
vn -0.96592583 5.4457462e-16 0.25881905
vn 6.1679057e-16 -1.00000000 -8.1447693e-17
vn 0.96592583 2.5134213e-16 0.25881905
vn 3.0839528e-16 -1.00000000 -4.0723846e-17
vn 3.0839528e-16 -1.00000000 -4.0723846e-17
vn 0.86602540 2.1684043e-16 0.50000000
vn 0.86602540 2.1684043e-16 0.50000000
vn 0.0000000e+0 -1.00000000 0.0000000e+0
vn 0.0000000e+0 -1.00000000 0.0000000e+0
vn 0.50000000 8.6736174e-17 0.86602540
vn 0.50000000 8.6736174e-17 0.86602540
vn 9.4732764e-17 -1.00000000 -1.2335811e-16
vn 9.4732764e-17 -1.00000000 -1.2335811e-16
vn 3.4481624e-16 4.3368087e-17 1.00000000
vn 3.4481624e-16 4.3368087e-17 1.00000000
vn 2.3845280e-16 -1.00000000 -1.8282299e-16
vn 2.3845280e-16 -1.00000000 -1.8282299e-16
vn -0.50000000 2.6020852e-16 0.86602540
vn -0.50000000 2.6020852e-16 0.86602540
vn 1.4372004e-16 -1.00000000 -5.9464878e-17
vn 1.4372004e-16 -1.00000000 -5.9464878e-17
vn -0.86602540 4.9873300e-16 0.50000000
vn -0.86602540 4.9873300e-16 0.50000000
vn -6.1679057e-16 1.00000000 -8.1447693e-17
vn -0.96592583 -5.4457462e-16 0.25881905
vn -3.0839528e-16 1.00000000 -4.0723846e-17
vn -3.0839528e-16 1.00000000 -4.0723846e-17
vn -0.86602540 -4.1199683e-16 0.50000000
vn -0.86602540 -4.1199683e-16 0.50000000
vn 0.0000000e+0 1.00000000 0.0000000e+0
vn 0.0000000e+0 1.00000000 0.0000000e+0
vn -0.50000000 -1.3010426e-16 0.86602540
vn -0.50000000 -1.3010426e-16 0.86602540
vn 0.0000000e+0 1.00000000 0.0000000e+0
vn 0.0000000e+0 1.00000000 0.0000000e+0
vn 3.4481624e-16 -2.1684043e-17 1.00000000
vn 3.4481624e-16 -2.1684043e-17 1.00000000
vn 0.0000000e+0 1.00000000 0.0000000e+0
vn 0.0000000e+0 1.00000000 0.0000000e+0
vn 0.50000000 -1.9515639e-16 0.86602540
vn 0.50000000 -1.9515639e-16 0.86602540
vn 0.0000000e+0 1.00000000 0.0000000e+0
vn 0.0000000e+0 1.00000000 0.0000000e+0
vn 0.86602540 -4.5536491e-16 0.50000000
vn 0.86602540 -4.5536491e-16 0.50000000
vn 0.0000000e+0 1.00000000 0.0000000e+0
vn 0.96592583 -5.4457462e-16 0.25881905
vn -0.96592583 5.4457462e-16 0.25881905
vn -2.7755576e-16 -1.00000000 5.2041704e-16
vn 0.96592583 2.5134213e-16 0.25881905
vn 2.7755576e-16 -1.00000000 8.6736174e-17
vn 0.86602540 2.1684043e-16 0.50000000
vn 0.86602540 2.1684043e-16 0.50000000
vn 2.4037034e-16 -1.00000000 4.3368087e-17
vn 2.4037034e-16 -1.00000000 4.3368087e-17
vn 0.50000000 8.6736174e-17 0.86602540
vn 0.50000000 8.6736174e-17 0.86602540
vn 1.3877788e-16 -1.00000000 1.7347235e-16
vn 1.3877788e-16 -1.00000000 1.7347235e-16
vn 3.4481624e-16 4.3368087e-17 1.00000000
vn 3.4481624e-16 4.3368087e-17 1.00000000
vn 2.5884498e-31 -1.00000000 3.4694470e-16
vn 2.5884498e-31 -1.00000000 3.4694470e-16
vn -0.50000000 2.6020852e-16 0.86602540
vn -0.50000000 2.6020852e-16 0.86602540
vn -1.3877788e-16 -1.00000000 2.6020852e-16
vn -1.3877788e-16 -1.00000000 2.6020852e-16
vn -0.86602540 4.9873300e-16 0.50000000
vn -0.86602540 4.9873300e-16 0.50000000
vn -2.4037034e-16 -1.00000000 3.4694470e-16
vn -2.4037034e-16 -1.00000000 3.4694470e-16
vn -0.96592583 -5.4457462e-16 0.25881905
vn -2.7755576e-16 1.00000000 8.6736174e-17
vn -0.86602540 -4.1199683e-16 0.50000000
vn -0.86602540 -4.1199683e-16 0.50000000
vn -2.4037034e-16 1.00000000 2.1684043e-16
vn -2.4037034e-16 1.00000000 2.1684043e-16
vn -0.50000000 -1.3010426e-16 0.86602540
vn -0.50000000 -1.3010426e-16 0.86602540
vn -1.3877788e-16 1.00000000 3.4694470e-16
vn -1.3877788e-16 1.00000000 3.4694470e-16
vn 3.4481624e-16 -2.1684043e-17 1.00000000
vn 3.4481624e-16 -2.1684043e-17 1.00000000
vn 2.5884498e-31 1.00000000 3.4694470e-16
vn 2.5884498e-31 1.00000000 3.4694470e-16
vn 0.50000000 -1.9515639e-16 0.86602540
vn 0.50000000 -1.9515639e-16 0.86602540
vn 1.3877788e-16 1.00000000 3.4694470e-16
vn 1.3877788e-16 1.00000000 3.4694470e-16
vn 0.86602540 -4.5536491e-16 0.50000000
vn 0.86602540 -4.5536491e-16 0.50000000
vn 2.4037034e-16 1.00000000 3.4694470e-16
vn 2.4037034e-16 1.00000000 3.4694470e-16
vn 0.96592583 -5.4457462e-16 0.25881905
vn 2.7755576e-16 1.00000000 3.4694470e-16
g Ara_SensorAccelerometer_1_Ara_SensorAccelerometer_1_auv
usemtl Ara_SensorAccelerometer_1_auv
s 1
f 1/156/3 8/155/24 7/145/21 6/135/18 5/127/15 4/134/12 3/144/9 2/154/6
f 17/123/44 18/125/46 21/126/55 22/124/58 30/118/82 29/112/79 26/111/70 25/117/68
f 27/41/74 28/45/76 31/46/85 32/42/88 24/12/64 23/10/61 20/9/52 19/11/50
f 33/44/91 40/43/115 46/47/135 39/48/111
f 34/33/94 60/19/185 59/18/182 35/32/98
f 35/94/96 42/93/120 41/99/117 34/100/93
f 35/32/97 59/18/181 58/17/178 36/31/102
f 36/86/100 43/85/124 42/93/119 35/94/95
f 36/31/101 58/17/177 57/16/174 37/30/106
f 37/84/104 44/83/128 43/85/123 36/86/99
f 37/30/105 57/16/173 56/15/170 38/29/110
f 38/82/108 45/81/132 44/83/127 37/84/103
f 38/29/109 56/15/169 55/14/166 39/28/114
f 39/48/112 46/47/136 45/81/131 38/82/107
f 39/28/113 55/14/165 54/13/163 33/27/92
f 40/40/116 47/26/139 53/25/160 46/39/138
f 42/35/121 49/21/143 48/20/141 41/34/118
f 43/36/125 50/22/147 49/21/144 42/35/122
f 44/37/129 51/23/151 50/22/148 43/36/126
f 45/38/133 52/24/155 51/23/152 44/37/130
f 46/39/137 53/25/159 52/24/156 45/38/134
f 47/80/140 61/61/187 67/59/208 53/79/162
f 49/75/145 63/52/191 62/50/189 48/74/142
f 50/76/149 64/54/195 63/52/192 49/75/146
f 51/77/153 65/62/199 64/54/196 50/76/150
f 52/78/157 66/57/203 65/62/200 51/77/154
f 53/79/161 67/59/207 66/57/204 52/78/158
f 55/58/167 69/72/213 68/73/211 54/60/164
f 56/56/171 70/71/217 69/72/214 55/58/168
f 57/55/175 71/70/221 70/71/218 56/56/172
f 58/53/179 72/69/225 71/70/222 57/55/176
f 59/51/183 73/68/229 72/69/226 58/53/180
f 60/49/186 74/67/233 73/68/230 59/51/184
f 61/104/188 76/105/2 67/97/210
f 63/98/193 76/105/2 62/106/190
f 64/92/197 76/105/2 63/98/194
f 65/88/201 76/105/2 64/92/198
f 66/91/205 76/105/2 65/88/202
f 67/97/209 76/105/2 66/91/206
f 69/96/215 75/102/1 68/103/212
f 70/90/219 75/102/1 69/96/216
f 71/87/223 75/102/1 70/90/220
f 72/89/227 75/102/1 71/87/224
f 73/95/231 75/102/1 72/89/228
f 74/101/234 75/102/1 73/95/232
s 2
f 1/131/4 9/130/27 16/140/41 8/141/25
f 2/139/8 10/138/30 9/148/28 1/149/5
f 3/129/11 11/128/32 10/138/29 2/139/7
f 4/143/14 12/142/34 11/152/31 3/153/10
f 5/133/17 13/132/36 12/142/33 4/143/13
f 6/137/20 14/136/38 13/146/35 5/147/16
f 7/129/23 15/128/40 14/136/37 6/137/19
f 8/141/26 16/140/42 15/150/39 7/151/22
f 18/2/48 20/6/54 23/7/62 21/3/56
f 19/5/51 20/6/53 18/2/47 17/1/45
f 21/3/57 23/7/63 24/8/66 22/4/60
f 22/121/59 24/122/65 32/116/90 30/115/84
f 25/114/67 27/113/73 19/119/49 17/120/43
f 27/63/75 25/107/69 26/108/72 28/64/78
f 29/109/80 31/65/86 28/64/77 26/108/71
f 31/65/87 29/109/81 30/110/83 32/66/89
