# Exported from Wings 3D 1.5.4
mtllib Tantares_DockingMechanism_1_Collider.mtl
o Tantares_DockingMechanism_1_Collider
#32 vertices, 18 faces
v 0.40312500 0.12000000 -8.0186548e-2
v 0.40312500 0.12000000 8.0186548e-2
v 0.34175287 0.12000000 0.22835197
v 0.22835197 0.12000000 0.34175287
v 8.0186548e-2 0.12000000 0.40312500
v -8.0186548e-2 0.12000000 0.40312500
v -0.22835197 0.12000000 0.34175287
v -0.34175287 0.12000000 0.22835197
v -0.40312500 0.12000000 8.0186548e-2
v -0.40312500 0.12000000 -8.0186548e-2
v -0.34175287 0.12000000 -0.22835197
v -0.22835197 0.12000000 -0.34175287
v -8.0186548e-2 0.12000000 -0.40312500
v 8.0186548e-2 0.12000000 -0.40312500
v 0.22835197 0.12000000 -0.34175287
v 0.34175287 0.12000000 -0.22835197
v 0.40312500 -0.12000000 -8.0186548e-2
v 0.40312500 -0.12000000 8.0186548e-2
v 0.34175287 -0.12000000 0.22835197
v 0.22835197 -0.12000000 0.34175287
v 8.0186548e-2 -0.12000000 0.40312500
v -8.0186548e-2 -0.12000000 0.40312500
v -0.22835197 -0.12000000 0.34175287
v -0.34175287 -0.12000000 0.22835197
v -0.40312500 -0.12000000 8.0186548e-2
v -0.40312500 -0.12000000 -8.0186548e-2
v -0.34175287 -0.12000000 -0.22835197
v -0.22835197 -0.12000000 -0.34175287
v -8.0186548e-2 -0.12000000 -0.40312500
v 8.0186548e-2 -0.12000000 -0.40312500
v 0.22835197 -0.12000000 -0.34175287
v 0.34175287 -0.12000000 -0.22835197
vn 0.87379058 0.45418155 -0.17380775
vn 0.87379058 0.45418155 0.17380775
vn 0.74076389 0.45418155 0.49496261
vn 0.49496261 0.45418155 0.74076389
vn 0.17380775 0.45418155 0.87379058
vn -0.17380775 0.45418155 0.87379058
vn -0.49496261 0.45418155 0.74076389
vn -0.74076389 0.45418155 0.49496261
vn -0.87379058 0.45418155 0.17380775
vn -0.87379058 0.45418155 -0.17380775
vn -0.74076389 0.45418155 -0.49496261
vn -0.49496261 0.45418155 -0.74076389
vn -0.17380775 0.45418155 -0.87379058
vn 0.17380775 0.45418155 -0.87379058
vn 0.49496261 0.45418155 -0.74076389
vn 0.74076389 0.45418155 -0.49496261
vn 0.87379058 -0.45418155 -0.17380775
vn 0.87379058 -0.45418155 0.17380775
vn 0.74076389 -0.45418155 0.49496261
vn 0.49496261 -0.45418155 0.74076389
vn 0.17380775 -0.45418155 0.87379058
vn -0.17380775 -0.45418155 0.87379058
vn -0.49496261 -0.45418155 0.74076389
vn -0.74076389 -0.45418155 0.49496261
vn -0.87379058 -0.45418155 0.17380775
vn -0.87379058 -0.45418155 -0.17380775
vn -0.74076389 -0.45418155 -0.49496261
vn -0.49496261 -0.45418155 -0.74076389
vn -0.17380775 -0.45418155 -0.87379058
vn 0.17380775 -0.45418155 -0.87379058
vn 0.49496261 -0.45418155 -0.74076389
vn 0.74076389 -0.45418155 -0.49496261
g Tantares_DockingMechanism_1_Collider_default
usemtl default
s 1
f 1//1 16//16 15//15 14//14 13//13 12//12 11//11 10//10 9//9 8//8 7//7 6//6 5//5 4//4 3//3 2//2
f 1//1 17//17 32//32 16//16
f 2//2 18//18 17//17 1//1
f 3//3 19//19 18//18 2//2
f 4//4 20//20 19//19 3//3
f 5//5 21//21 20//20 4//4
f 6//6 22//22 21//21 5//5
f 7//7 23//23 22//22 6//6
f 8//8 24//24 23//23 7//7
f 9//9 25//25 24//24 8//8
f 10//10 26//26 25//25 9//9
f 11//11 27//27 26//26 10//10
f 12//12 28//28 27//27 11//11
f 13//13 29//29 28//28 12//12
f 14//14 30//30 29//29 13//13
f 15//15 31//31 30//30 14//14
f 16//16 32//32 31//31 15//15
f 18//18 19//19 20//20 21//21 22//22 23//23 24//24 25//25 26//26 27//27 28//28 29//29 30//30 31//31 32//32 17//17
