# Exported from Wings 3D 1.5.4
mtllib Tantares_DockingMechanism_1_Probe.mtl
o Tantares_DockingMechanism_1_Probe
#73 vertices, 72 faces
v 1.1958857e-2 0.25637124 4.5659144e-17
v 1.0356674e-2 0.25637124 5.9794286e-3
v 5.9794286e-3 0.25637124 1.0356674e-2
v 7.4769406e-18 0.25637124 1.1958857e-2
v -5.9794286e-3 0.25637124 1.0356674e-2
v -1.0356674e-2 0.25637124 5.9794286e-3
v -1.1958857e-2 0.25637124 5.9515547e-17
v -1.0356674e-2 0.25637124 -5.9794286e-3
v -5.9794286e-3 0.25637124 -1.0356674e-2
v -7.8440001e-18 0.25637124 -1.1958857e-2
v 5.9794286e-3 0.25637124 -1.0356674e-2
v 1.0356674e-2 0.25637124 -5.9794286e-3
v 2.2097087e-2 0.24959709 3.6896772e-17
v 1.9136639e-2 0.24959709 1.1048543e-2
v 1.1048543e-2 0.24959709 1.9136639e-2
v 1.3350386e-17 0.24959709 2.2097087e-2
v -1.1048543e-2 0.24959709 1.9136639e-2
v -1.9136639e-2 0.24959709 1.1048543e-2
v -2.2097087e-2 0.24959709 6.2500067e-17
v -1.9136639e-2 0.24959709 -1.1048543e-2
v -1.1048543e-2 0.24959709 -1.9136639e-2
v -1.4959021e-17 0.24959709 -2.2097087e-2
v 1.1048543e-2 0.24959709 -1.9136639e-2
v 1.9136639e-2 0.24959709 -1.1048543e-2
v 2.8871235e-2 0.23945886 2.8134400e-17
v 2.5003223e-2 0.23945886 1.4435618e-2
v 1.4435618e-2 0.23945886 2.5003223e-2
v 1.7274897e-17 0.23945886 2.8871235e-2
v -1.4435618e-2 0.23945886 2.5003223e-2
v -2.5003223e-2 0.23945886 1.4435618e-2
v -2.8871235e-2 0.23945886 6.1586716e-17
v -2.5003223e-2 0.23945886 -1.4435618e-2
v -1.4435618e-2 0.23945886 -2.5003223e-2
v -1.9713126e-17 0.23945886 -2.8871235e-2
v 1.4435618e-2 0.23945886 -2.5003223e-2
v 2.5003223e-2 0.23945886 -1.4435618e-2
v 5.4873906e-19 0.25875000 5.3087525e-17
v 2.0000000e-2 0.21500000 3.5975274e-17
v 1.7320508e-2 0.21500000 1.0000000e-2
v 1.0000000e-2 0.21500000 1.7320508e-2
v 1.6294156e-18 0.21500000 2.0000000e-2
v -1.0000000e-2 0.21500000 1.7320508e-2
v -1.7320508e-2 0.21500000 1.0000000e-2
v -2.0000000e-2 0.21500000 3.8424567e-17
v -1.7320508e-2 0.21500000 -1.0000000e-2
v -1.0000000e-2 0.21500000 -1.7320508e-2
v -3.2691716e-18 0.21500000 -2.0000000e-2
v 1.0000000e-2 0.21500000 -1.7320508e-2
v 1.7320508e-2 0.21500000 -1.0000000e-2
v 2.2500000e-2 -3.4694470e-18 4.2765270e-17
v 1.9485572e-2 -3.4694470e-18 1.1250000e-2
v 1.1250000e-2 -3.4694470e-18 1.9485572e-2
v 4.4424058e-18 -3.4694470e-18 2.2500000e-2
v -1.1250000e-2 -3.4694470e-18 1.9485572e-2
v -1.9485572e-2 -3.4694470e-18 1.1250000e-2
v -2.2500000e-2 -3.4694470e-18 4.5520726e-17
v -1.9485572e-2 -3.4694470e-18 -1.1250000e-2
v -1.1250000e-2 -3.4694470e-18 -1.9485572e-2
v -1.0685048e-18 -3.4694470e-18 -2.2500000e-2
v 1.1250000e-2 -3.4694470e-18 -1.9485572e-2
v 1.9485572e-2 -3.4694470e-18 -1.1250000e-2
v 3.1250000e-2 0.22750000 5.0115674e-18
v 2.7063294e-2 0.22750000 1.5625000e-2
v 1.5625000e-2 0.22750000 2.7063294e-2
v 3.3468920e-17 0.22750000 3.1250000e-2
v -1.5625000e-2 0.22750000 2.7063294e-2
v -2.7063294e-2 0.22750000 1.5625000e-2
v -3.1250000e-2 0.22750000 7.0475482e-17
v -2.7063294e-2 0.22750000 -1.5625000e-2
v -1.5625000e-2 0.22750000 -2.7063294e-2
v -3.5822016e-17 0.22750000 -3.1250000e-2
v 1.5625000e-2 0.22750000 -2.7063294e-2
v 2.7063294e-2 0.22750000 -1.5625000e-2
vt 0.26968599 0.60343010
vt 0.26968599 0.60343010
vt 0.27096951 0.55207547
vt 0.27096951 0.59110326
vt 0.27096951 0.55207547
vt 0.27096951 0.59110326
vt 0.27112995 0.60060937
vt 0.27112995 0.60060937
vt 0.27222886 0.60343010
vt 0.27222886 0.61298552
vt 0.27222886 0.61298552
vt 0.27222886 0.60343010
vt 0.27222886 0.61298552
vt 0.27234061 0.61504388
vt 0.27234061 0.61504388
vt 0.27234061 0.61504388
vt 0.27234061 0.61504388
vt 0.27265886 0.61723402
vt 0.27265886 0.61723402
vt 0.27265886 0.61723402
vt 0.27265886 0.61723402
vt 0.27265886 0.61723402
vt 0.27269866 0.55207547
vt 0.27269866 0.59110326
vt 0.27275738 0.60060937
vt 0.27275738 0.60060937
vt 0.27275738 0.60060937
vt 0.27313516 0.61922252
vt 0.27313516 0.61922252
vt 0.27313516 0.61922252
vt 0.27313516 0.61922252
vt 0.27313516 0.61922252
vt 0.27369698 0.62070663
vt 0.27369698 0.62070663
vt 0.27369698 0.62070663
vt 0.27369698 0.62070663
vt 0.27425881 0.61922252
vt 0.27425881 0.61922252
vt 0.27425881 0.61922252
vt 0.27425881 0.61922252
vt 0.27463658 0.60060937
vt 0.27463658 0.60060937
vt 0.27469531 0.55207547
vt 0.27469531 0.59110326
vt 0.27469531 0.55207547
vt 0.27469531 0.59110326
vt 0.27473510 0.61723402
vt 0.27473510 0.61723402
vt 0.27473510 0.61723402
vt 0.27473510 0.61723402
vt 0.27505335 0.61504388
vt 0.27505335 0.61504388
vt 0.27505335 0.61504388
vt 0.27505335 0.61504388
vt 0.27516511 0.60343010
vt 0.27516511 0.60343010
vt 0.27516511 0.61298552
vt 0.27626402 0.60060937
vt 0.27626402 0.60060937
vt 0.27642446 0.55207547
vt 0.27642446 0.59110326
vt 0.27642446 0.55207547
vt 0.27642446 0.59110326
vt 0.27770797 0.60343010
vt 0.27770797 0.60343010
vt 0.27770797 0.60343010
vn 0.38180163 0.92424429 -2.4701121e-15
vn 0.33064991 0.92424429 0.19090082
vn 0.19090082 0.92424429 0.33064991
vn 1.1389566e-16 0.92424429 0.38180163
vn -0.19090082 0.92424429 0.33064991
vn -0.33064991 0.92424429 0.19090082
vn -0.38180163 0.92424429 2.8972208e-15
vn -0.33064991 0.92424429 -0.19090082
vn -0.19090082 0.92424429 -0.33064991
vn -3.5592393e-16 0.92424429 -0.38180163
vn 0.19090082 0.92424429 -0.33064991
vn 0.33064991 0.92424429 -0.19090082
vn 0.70617349 0.70803885 -5.1841596e-16
vn 0.61156418 0.70803885 0.35308674
vn 0.35308674 0.70803885 0.61156418
vn 3.4561064e-16 0.70803885 0.70617349
vn -0.35308674 0.70803885 0.61156418
vn -0.61156418 0.70803885 0.35308674
vn -0.70617349 0.70803885 5.6161728e-16
vn -0.61156418 0.70803885 -0.35308674
vn -0.35308674 0.70803885 -0.61156418
vn -7.2722238e-16 0.70803885 -0.70617349
vn 0.35308674 0.70803885 -0.61156418
vn 0.61156418 0.70803885 -0.35308674
vn 0.92353014 0.38352586 -6.6990007e-16
vn 0.79980056 0.38352586 0.46176507
vn 0.46176507 0.38352586 0.79980056
vn 6.5533702e-16 0.38352586 0.92353014
vn -0.46176507 0.38352586 0.79980056
vn -0.79980056 0.38352586 0.46176507
vn -0.92353014 0.38352586 9.4659792e-16
vn -0.79980056 0.38352586 -0.46176507
vn -0.46176507 0.38352586 -0.79980056
vn -1.0485392e-15 0.38352586 -0.92353014
vn 0.46176507 0.38352586 -0.79980056
vn 0.79980056 0.38352586 -0.46176507
vn -5.6675957e-17 1.00000000 1.2043641e-16
vn 0.99993240 1.1627121e-2 -1.7240734e-16
vn 0.86596686 1.1627121e-2 0.49996620
vn 0.49996620 1.1627121e-2 0.86596686
vn 2.8734556e-17 1.1627121e-2 0.99993240
vn -0.49996620 1.1627121e-2 0.86596686
vn -0.86596686 1.1627121e-2 0.49996620
vn -0.99993240 1.1627121e-2 1.7240734e-16
vn -0.86596686 1.1627121e-2 -0.49996620
vn -0.49996620 1.1627121e-2 -0.86596686
vn -4.8848746e-16 1.1627121e-2 -0.99993240
vn 0.49996620 1.1627121e-2 -0.86596686
vn 0.86596686 1.1627121e-2 -0.49996620
vn 0.99993240 1.1627121e-2 -1.7240734e-16
vn 0.99993240 1.1627121e-2 -1.7240734e-16
vn 0.74329415 -0.66896473 -1.3867347e-15
vn 0.74329415 -0.66896473 -1.3867347e-15
vn 0.86596686 1.1627121e-2 0.49996620
vn 0.86596686 1.1627121e-2 0.49996620
vn 0.64371161 -0.66896473 0.37164707
vn 0.64371161 -0.66896473 0.37164707
vn 0.49996620 1.1627121e-2 0.86596686
vn 0.49996620 1.1627121e-2 0.86596686
vn 0.37164707 -0.66896473 0.64371161
vn 0.37164707 -0.66896473 0.64371161
vn 2.8734556e-17 1.1627121e-2 0.99993240
vn 2.8734556e-17 1.1627121e-2 0.99993240
vn 4.5281134e-16 -0.66896473 0.74329415
vn 4.5281134e-16 -0.66896473 0.74329415
vn -0.49996620 1.1627121e-2 0.86596686
vn -0.49996620 1.1627121e-2 0.86596686
vn -0.37164707 -0.66896473 0.64371161
vn -0.37164707 -0.66896473 0.64371161
vn -0.86596686 1.1627121e-2 0.49996620
vn -0.86596686 1.1627121e-2 0.49996620
vn -0.64371161 -0.66896473 0.37164707
vn -0.64371161 -0.66896473 0.37164707
vn -0.99993240 1.1627121e-2 1.7240734e-16
vn -0.99993240 1.1627121e-2 1.7240734e-16
vn -0.74329415 -0.66896473 -5.6601417e-17
vn -0.74329415 -0.66896473 -5.6601417e-17
vn -0.86596686 1.1627121e-2 -0.49996620
vn -0.86596686 1.1627121e-2 -0.49996620
vn -0.64371161 -0.66896473 -0.37164707
vn -0.64371161 -0.66896473 -0.37164707
vn -0.49996620 1.1627121e-2 -0.86596686
vn -0.49996620 1.1627121e-2 -0.86596686
vn -0.37164707 -0.66896473 -0.64371161
vn -0.37164707 -0.66896473 -0.64371161
vn -4.8848746e-16 1.1627121e-2 -0.99993240
vn -4.8848746e-16 1.1627121e-2 -0.99993240
vn -7.3581842e-16 -0.66896473 -0.74329415
vn -7.3581842e-16 -0.66896473 -0.74329415
vn 0.49996620 1.1627121e-2 -0.86596686
vn 0.49996620 1.1627121e-2 -0.86596686
vn 0.37164707 -0.66896473 -0.64371161
vn 0.37164707 -0.66896473 -0.64371161
vn 0.86596686 1.1627121e-2 -0.49996620
vn 0.86596686 1.1627121e-2 -0.49996620
vn 0.64371161 -0.66896473 -0.37164707
vn 0.64371161 -0.66896473 -0.37164707
vn 0.98078528 0.19509032 -7.1745082e-16
vn 0.98078528 0.19509032 -7.1745082e-16
vn 0.74329415 -0.66896473 -1.3867347e-15
vn 0.74329415 -0.66896473 -1.3867347e-15
vn 0.84938497 0.19509032 0.49039264
vn 0.84938497 0.19509032 0.49039264
vn 0.64371161 -0.66896473 0.37164707
vn 0.64371161 -0.66896473 0.37164707
vn 0.49039264 0.19509032 0.84938497
vn 0.49039264 0.19509032 0.84938497
vn 0.37164707 -0.66896473 0.64371161
vn 0.37164707 -0.66896473 0.64371161
vn 8.0354491e-16 0.19509032 0.98078528
vn 8.0354491e-16 0.19509032 0.98078528
vn 4.5281134e-16 -0.66896473 0.74329415
vn 4.5281134e-16 -0.66896473 0.74329415
vn -0.49039264 0.19509032 0.84938497
vn -0.49039264 0.19509032 0.84938497
vn -0.37164707 -0.66896473 0.64371161
vn -0.37164707 -0.66896473 0.64371161
vn -0.84938497 0.19509032 0.49039264
vn -0.84938497 0.19509032 0.49039264
vn -0.64371161 -0.66896473 0.37164707
vn -0.64371161 -0.66896473 0.37164707
vn -0.98078528 0.19509032 1.2340154e-15
vn -0.98078528 0.19509032 1.2340154e-15
vn -0.74329415 -0.66896473 -5.6601417e-17
vn -0.74329415 -0.66896473 -5.6601417e-17
vn -0.84938497 0.19509032 -0.49039264
vn -0.84938497 0.19509032 -0.49039264
vn -0.64371161 -0.66896473 -0.37164707
vn -0.64371161 -0.66896473 -0.37164707
vn -0.49039264 0.19509032 -0.84938497
vn -0.49039264 0.19509032 -0.84938497
vn -0.37164707 -0.66896473 -0.64371161
vn -0.37164707 -0.66896473 -0.64371161
vn -1.1766193e-15 0.19509032 -0.98078528
vn -1.1766193e-15 0.19509032 -0.98078528
vn -7.3581842e-16 -0.66896473 -0.74329415
vn -7.3581842e-16 -0.66896473 -0.74329415
vn 0.49039264 0.19509032 -0.84938497
vn 0.49039264 0.19509032 -0.84938497
vn 0.37164707 -0.66896473 -0.64371161
vn 0.37164707 -0.66896473 -0.64371161
vn 0.84938497 0.19509032 -0.49039264
vn 0.84938497 0.19509032 -0.49039264
vn 0.64371161 -0.66896473 -0.37164707
vn 0.64371161 -0.66896473 -0.37164707
g Tantares_DockingMechanism_1_Probe_Tantares_DockingMechanism_1_Probe_auv
usemtl Tantares_DockingMechanism_1_Probe_auv
s 1
f 62/65/101 38/59/53 49/41/97 73/55/145
f 63/12/104 39/26/56 38/7/52 62/1/100
f 64/56/108 40/42/60 39/26/57 63/12/105
f 65/66/112 41/58/64 40/42/61 64/56/109
f 66/12/116 42/26/68 41/8/65 65/2/113
f 67/56/120 43/42/72 42/26/69 66/12/117
f 68/64/124 44/58/76 43/42/73 67/56/121
f 69/9/128 45/27/80 44/8/77 68/1/125
f 70/56/132 46/42/84 45/27/81 69/9/129
f 71/66/136 47/58/88 46/42/85 70/56/133
f 72/9/140 48/25/92 47/7/89 71/2/137
f 73/55/144 49/41/96 48/25/93 72/9/141
s 2
f 1/30/1 13/21/13 24/50/24 12/38/12
f 1/39/1 37/35/37 2/31/2
f 2/31/2 14/20/14 13/50/13 1/39/1
f 2/38/2 37/33/37 3/30/3
f 3/30/3 15/19/15 14/47/14 2/38/2
f 3/40/3 37/36/37 4/32/4
f 4/32/4 16/22/16 15/49/15 3/40/3
f 4/38/4 37/36/37 5/30/5
f 5/30/5 17/19/17 16/50/16 4/38/4
f 5/37/5 37/34/37 6/28/6
f 6/28/6 18/20/18 17/48/17 5/37/5
f 6/40/6 37/36/37 7/32/7
f 7/32/7 19/22/19 18/49/18 6/40/6
f 7/39/7 37/35/37 8/31/8
f 8/31/8 20/20/20 19/50/19 7/39/7
f 8/39/8 37/33/37 9/29/9
f 9/29/9 21/18/21 20/48/20 8/39/8
f 9/40/9 37/36/37 10/30/10
f 10/30/10 22/21/22 21/49/21 9/40/9
f 10/38/10 37/36/37 11/30/11
f 11/30/11 23/19/23 22/50/22 10/38/10
f 11/38/11 37/34/37 12/30/12
f 12/30/12 24/21/24 23/47/23 11/38/11
f 12/38/12 37/34/37 1/30/1
f 13/21/13 25/16/25 36/53/36 24/50/24
f 14/20/14 26/15/26 25/54/25 13/50/13
f 15/19/15 27/14/27 26/53/26 14/47/14
f 16/22/16 28/17/28 27/54/27 15/49/15
f 17/19/17 29/14/29 28/54/28 16/50/16
f 18/20/18 30/14/30 29/51/29 17/48/17
f 19/22/19 31/16/31 30/53/30 18/49/18
f 20/20/20 32/15/32 31/52/31 19/50/19
f 21/18/21 33/14/33 32/54/32 20/48/20
f 22/21/22 34/16/34 33/53/33 21/49/21
f 23/19/23 35/14/35 34/53/34 22/50/22
f 24/21/24 36/14/36 35/53/35 23/47/23
f 25/16/25 62/13/99 73/57/143 36/53/36
f 26/15/26 63/11/102 62/57/98 25/54/25
f 27/14/27 64/10/106 63/57/103 26/53/26
f 28/17/28 65/10/110 64/57/107 27/54/27
f 29/14/29 66/10/114 65/57/111 28/54/28
f 30/14/30 67/10/118 66/57/115 29/51/29
f 31/16/31 68/10/122 67/57/119 30/53/30
f 32/15/32 69/11/126 68/57/123 31/52/31
f 33/14/33 70/10/130 69/57/127 32/54/32
f 34/16/34 71/10/134 70/57/131 33/53/33
f 35/14/35 72/10/138 71/57/135 34/53/34
f 36/14/36 73/10/142 72/57/139 35/53/35
f 38/6/50 50/5/38 61/23/49 49/24/94
f 39/24/55 51/23/39 50/3/38 38/4/51
f 40/44/59 52/43/40 51/23/39 39/24/54
f 41/63/63 53/62/41 52/43/40 40/44/58
f 42/44/67 54/43/42 53/62/41 41/63/62
f 43/24/71 55/23/43 54/43/42 42/44/66
f 44/4/75 56/3/44 55/23/43 43/24/70
f 45/24/79 57/23/45 56/3/44 44/4/74
f 46/46/83 58/45/46 57/23/45 45/24/78
f 47/61/87 59/60/47 58/45/46 46/46/82
f 48/44/91 60/43/48 59/62/47 47/63/86
f 49/24/95 61/23/49 60/43/48 48/44/90
