# Exported from Wings 3D 1.5.4
mtllib Tantares_DockingMechanism_1_Probe.mtl
o Tantares_DockingMechanism_1_Probe
#48 vertices, 37 faces
v 2.0000000e-2 0.21500000 3.5975274e-17
v 1.7320508e-2 0.21500000 1.0000000e-2
v 1.0000000e-2 0.21500000 1.7320508e-2
v 1.6294156e-18 0.21500000 2.0000000e-2
v -1.0000000e-2 0.21500000 1.7320508e-2
v -1.7320508e-2 0.21500000 1.0000000e-2
v -2.0000000e-2 0.21500000 3.8424567e-17
v -1.7320508e-2 0.21500000 -1.0000000e-2
v -1.0000000e-2 0.21500000 -1.7320508e-2
v -3.2691716e-18 0.21500000 -2.0000000e-2
v 1.0000000e-2 0.21500000 -1.7320508e-2
v 1.7320508e-2 0.21500000 -1.0000000e-2
v 2.5000000e-2 -3.4694470e-18 4.2847670e-17
v 2.1650635e-2 -3.4694470e-18 1.2500000e-2
v 1.2500000e-2 -3.4694470e-18 2.1650635e-2
v 4.7111349e-18 -3.4694470e-18 2.5000000e-2
v -1.2500000e-2 -3.4694470e-18 2.1650635e-2
v -2.1650635e-2 -3.4694470e-18 1.2500000e-2
v -2.5000000e-2 -3.4694470e-18 4.5909287e-17
v -2.1650635e-2 -3.4694470e-18 -1.2500000e-2
v -1.2500000e-2 -3.4694470e-18 -2.1650635e-2
v -1.4120991e-18 -3.4694470e-18 -2.5000000e-2
v 1.2500000e-2 -3.4694470e-18 -2.1650635e-2
v 2.1650635e-2 -3.4694470e-18 -1.2500000e-2
v 3.1826434e-2 0.25000000 1.8375000e-2
v 3.6750000e-2 0.25000000 3.9907551e-17
v 3.1826434e-2 0.25000000 -1.8375000e-2
v 1.8375000e-2 0.25000000 -3.1826434e-2
v -4.0483109e-18 0.25000000 -3.6750000e-2
v -1.8375000e-2 0.25000000 -3.1826434e-2
v -3.1826434e-2 0.25000000 -1.8375000e-2
v -3.6750000e-2 0.25000000 4.4408128e-17
v -3.1826434e-2 0.25000000 1.8375000e-2
v -1.8375000e-2 0.25000000 3.1826434e-2
v 4.9528431e-18 0.25000000 3.6750000e-2
v 1.8375000e-2 0.25000000 3.1826434e-2
v 2.1650635e-2 0.28500000 1.2500000e-2
v 2.5000000e-2 0.28500000 3.9932547e-17
v 2.1650635e-2 0.28500000 -1.2500000e-2
v 1.2500000e-2 0.28500000 -2.1650635e-2
v -2.9152311e-18 0.28500000 -2.5000000e-2
v -1.2500000e-2 0.28500000 -2.1650635e-2
v -2.1650635e-2 0.28500000 -1.2500000e-2
v -2.5000000e-2 0.28500000 4.2994164e-17
v -2.1650635e-2 0.28500000 1.2500000e-2
v -1.2500000e-2 0.28500000 2.1650635e-2
v 3.2080029e-18 0.28500000 2.5000000e-2
v 1.2500000e-2 0.28500000 2.1650635e-2
vt 0.98260020 0.47595552
vt 0.98260020 0.47596437
vt 0.98260020 0.47595552
vt 0.98326108 0.47595552
vt 0.98326108 0.47596437
vt 0.98417738 0.44276833
vt 0.98417738 0.48075375
vt 0.98417738 0.49451049
vt 0.98462696 0.49618835
vt 0.98462696 0.44276833
vt 0.98462696 0.48075375
vt 0.98462696 0.49283264
vt 0.98484852 0.47221802
vt 0.98484852 0.47216741
vt 0.98506664 0.47595552
vt 0.98506664 0.47596437
vt 0.98520819 0.47216741
vt 0.98520819 0.47221802
vt 0.98585523 0.44276833
vt 0.98585523 0.48075375
vt 0.98585523 0.49160437
vt 0.98585523 0.49741662
vt 0.98619081 0.47221802
vt 0.98619081 0.47216741
vt 0.98619081 0.47221802
vt 0.98753309 0.49115479
vt 0.98753309 0.49786620
vt 0.98753309 0.44276833
vt 0.98753309 0.47216741
vt 0.98753309 0.47221802
vt 0.98753309 0.47595552
vt 0.98753309 0.47596437
vt 0.98753309 0.48075375
vt 0.98887537 0.47216741
vt 0.98887537 0.47221802
vt 0.98921094 0.44276833
vt 0.98921094 0.48075375
vt 0.98921094 0.49160437
vt 0.98921094 0.49741662
vt 0.98985799 0.47216741
vt 0.98985799 0.47221802
vt 0.98999953 0.47595552
vt 0.98999953 0.47596437
vt 0.99021765 0.47216741
vt 0.99021765 0.47221802
vt 0.99043921 0.44276833
vt 0.99043921 0.48075375
vt 0.99043921 0.49283264
vt 0.99043921 0.49618835
vt 0.99088879 0.49451049
vt 0.99088879 0.44276833
vt 0.99088879 0.48075375
vt 0.99180509 0.47595552
vt 0.99180509 0.47596437
vt 0.99246597 0.47595552
vt 0.99246597 0.47596437
vn 0.99972969 2.3249528e-2 -2.2987333e-16
vn 0.86579131 2.3249528e-2 0.49986485
vn 0.49986485 2.3249528e-2 0.86579131
vn 2.8734166e-17 2.3249528e-2 0.99972969
vn -0.49986485 2.3249528e-2 0.86579131
vn -0.86579131 2.3249528e-2 0.49986485
vn -0.99972969 2.3249528e-2 2.0113916e-16
vn -0.86579131 2.3249528e-2 -0.49986485
vn -0.49986485 2.3249528e-2 -0.86579131
vn -4.5974666e-16 2.3249528e-2 -0.99972969
vn 0.49986485 2.3249528e-2 -0.86579131
vn 0.86579131 2.3249528e-2 -0.49986485
vn 0.99972969 2.3249528e-2 -2.2987333e-16
vn 0.99972969 2.3249528e-2 -2.2987333e-16
vn 0.90202516 -0.43168347 -8.5664321e-17
vn 0.90202516 -0.43168347 -8.5664321e-17
vn 0.86579131 2.3249528e-2 0.49986485
vn 0.86579131 2.3249528e-2 0.49986485
vn 0.78117670 -0.43168347 0.45101258
vn 0.78117670 -0.43168347 0.45101258
vn 0.49986485 2.3249528e-2 0.86579131
vn 0.49986485 2.3249528e-2 0.86579131
vn 0.45101258 -0.43168347 0.78117670
vn 0.45101258 -0.43168347 0.78117670
vn 2.8734166e-17 2.3249528e-2 0.99972969
vn 2.8734166e-17 2.3249528e-2 0.99972969
vn -7.1386934e-17 -0.43168347 0.90202516
vn -7.1386934e-17 -0.43168347 0.90202516
vn -0.49986485 2.3249528e-2 0.86579131
vn -0.49986485 2.3249528e-2 0.86579131
vn -0.45101258 -0.43168347 0.78117670
vn -0.45101258 -0.43168347 0.78117670
vn -0.86579131 2.3249528e-2 0.49986485
vn -0.86579131 2.3249528e-2 0.49986485
vn -0.78117670 -0.43168347 0.45101258
vn -0.78117670 -0.43168347 0.45101258
vn -0.99972969 2.3249528e-2 2.0113916e-16
vn -0.99972969 2.3249528e-2 2.0113916e-16
vn -0.90202516 -0.43168347 1.5705126e-16
vn -0.90202516 -0.43168347 1.5705126e-16
vn -0.86579131 2.3249528e-2 -0.49986485
vn -0.86579131 2.3249528e-2 -0.49986485
vn -0.78117670 -0.43168347 -0.45101258
vn -0.78117670 -0.43168347 -0.45101258
vn -0.49986485 2.3249528e-2 -0.86579131
vn -0.49986485 2.3249528e-2 -0.86579131
vn -0.45101258 -0.43168347 -0.78117670
vn -0.45101258 -0.43168347 -0.78117670
vn -4.5974666e-16 2.3249528e-2 -0.99972969
vn -4.5974666e-16 2.3249528e-2 -0.99972969
vn -3.4265728e-16 -0.43168347 -0.90202516
vn -3.4265728e-16 -0.43168347 -0.90202516
vn 0.49986485 2.3249528e-2 -0.86579131
vn 0.49986485 2.3249528e-2 -0.86579131
vn 0.45101258 -0.43168347 -0.78117670
vn 0.45101258 -0.43168347 -0.78117670
vn 0.86579131 2.3249528e-2 -0.49986485
vn 0.86579131 2.3249528e-2 -0.49986485
vn 0.78117670 -0.43168347 -0.45101258
vn 0.78117670 -0.43168347 -0.45101258
vn 0.78117670 -0.43168347 0.45101258
vn 0.78117670 -0.43168347 0.45101258
vn 0.82099553 0.31825848 0.47400199
vn 0.82099553 0.31825848 0.47400199
vn 0.90202516 -0.43168347 -8.5664321e-17
vn 0.90202516 -0.43168347 -8.5664321e-17
vn 0.94800398 0.31825848 -1.4318519e-17
vn 0.94800398 0.31825848 -1.4318519e-17
vn 0.78117670 -0.43168347 -0.45101258
vn 0.78117670 -0.43168347 -0.45101258
vn 0.82099553 0.31825848 -0.47400199
vn 0.82099553 0.31825848 -0.47400199
vn 0.45101258 -0.43168347 -0.78117670
vn 0.45101258 -0.43168347 -0.78117670
vn 0.47400199 0.31825848 -0.82099553
vn 0.47400199 0.31825848 -0.82099553
vn -3.4265728e-16 -0.43168347 -0.90202516
vn -3.4265728e-16 -0.43168347 -0.90202516
vn -2.8637037e-16 0.31825848 -0.94800398
vn -2.8637037e-16 0.31825848 -0.94800398
vn -0.45101258 -0.43168347 -0.78117670
vn -0.45101258 -0.43168347 -0.78117670
vn -0.47400199 0.31825848 -0.82099553
vn -0.47400199 0.31825848 -0.82099553
vn -0.78117670 -0.43168347 -0.45101258
vn -0.78117670 -0.43168347 -0.45101258
vn -0.82099553 0.31825848 -0.47400199
vn -0.82099553 0.31825848 -0.47400199
vn -0.90202516 -0.43168347 1.5705126e-16
vn -0.90202516 -0.43168347 1.5705126e-16
vn -0.94800398 0.31825848 1.7182222e-16
vn -0.94800398 0.31825848 1.7182222e-16
vn -0.78117670 -0.43168347 0.45101258
vn -0.78117670 -0.43168347 0.45101258
vn -0.82099553 0.31825848 0.47400199
vn -0.82099553 0.31825848 0.47400199
vn -0.45101258 -0.43168347 0.78117670
vn -0.45101258 -0.43168347 0.78117670
vn -0.47400199 0.31825848 0.82099553
vn -0.47400199 0.31825848 0.82099553
vn -7.1386934e-17 -0.43168347 0.90202516
vn -7.1386934e-17 -0.43168347 0.90202516
vn -1.0022963e-16 0.31825848 0.94800398
vn -1.0022963e-16 0.31825848 0.94800398
vn 0.45101258 -0.43168347 0.78117670
vn 0.45101258 -0.43168347 0.78117670
vn 0.47400199 0.31825848 0.82099553
vn 0.47400199 0.31825848 0.82099553
vn 0.0000000e+0 1.00000000 4.6259293e-16
vn 0.82099553 0.31825848 0.47400199
vn 0.82099553 0.31825848 0.47400199
vn 0.0000000e+0 1.00000000 4.6259293e-16
vn 0.94800398 0.31825848 -1.4318519e-17
vn 0.94800398 0.31825848 -1.4318519e-17
vn 0.0000000e+0 1.00000000 4.6259293e-16
vn 0.82099553 0.31825848 -0.47400199
vn 0.82099553 0.31825848 -0.47400199
vn 0.0000000e+0 1.00000000 4.6259293e-16
vn 0.47400199 0.31825848 -0.82099553
vn 0.47400199 0.31825848 -0.82099553
vn 0.0000000e+0 1.00000000 4.6259293e-16
vn -2.8637037e-16 0.31825848 -0.94800398
vn -2.8637037e-16 0.31825848 -0.94800398
vn 0.0000000e+0 1.00000000 4.6259293e-16
vn -0.47400199 0.31825848 -0.82099553
vn -0.47400199 0.31825848 -0.82099553
vn 0.0000000e+0 1.00000000 4.6259293e-16
vn -0.82099553 0.31825848 -0.47400199
vn -0.82099553 0.31825848 -0.47400199
vn 0.0000000e+0 1.00000000 4.6259293e-16
vn -0.94800398 0.31825848 1.7182222e-16
vn -0.94800398 0.31825848 1.7182222e-16
vn 0.0000000e+0 1.00000000 4.6259293e-16
vn -0.82099553 0.31825848 0.47400199
vn -0.82099553 0.31825848 0.47400199
vn 0.0000000e+0 1.00000000 4.6259293e-16
vn -0.47400199 0.31825848 0.82099553
vn -0.47400199 0.31825848 0.82099553
vn 0.0000000e+0 1.00000000 4.6259293e-16
vn -1.0022963e-16 0.31825848 0.94800398
vn -1.0022963e-16 0.31825848 0.94800398
vn 0.0000000e+0 1.00000000 4.6259293e-16
vn 0.47400199 0.31825848 0.82099553
vn 0.47400199 0.31825848 0.82099553
g Tantares_DockingMechanism_1_Probe_Tantares_DockingMechanism_1_Probe_auv
usemtl Tantares_DockingMechanism_1_Probe_auv
s 1
f 1/14/13 13/6/1 24/10/12 12/17/57
f 2/40/18 14/46/2 13/51/1 1/44/14
f 3/34/22 15/36/3 14/46/2 2/40/17
f 4/29/26 16/28/4 15/36/3 3/34/21
f 5/24/30 17/19/5 16/28/4 4/29/25
f 6/17/34 18/10/6 17/19/5 5/24/29
f 7/14/38 19/6/7 18/10/6 6/17/33
f 8/40/42 20/46/8 19/51/7 7/44/37
f 9/34/46 21/36/9 20/46/8 8/40/41
f 10/29/50 22/28/10 21/36/9 9/34/45
f 11/24/54 23/19/11 22/28/10 10/29/49
f 12/17/58 24/10/12 23/19/11 11/24/53
f 38/50/112 39/49/115 40/39/118 41/27/121 42/22/124 43/9/127 44/8/130 45/12/133 46/21/136 47/26/139 48/38/142 37/48/109
s 2
f 25/53/64 37/47/111 48/37/144 36/42/108
f 26/55/67 38/52/113 37/47/110 25/53/63
f 27/4/71 39/11/116 38/7/114 26/3/68
f 28/15/75 40/20/119 39/11/117 27/4/72
f 29/31/79 41/33/122 40/20/120 28/15/76
f 30/42/83 42/37/125 41/33/123 29/31/80
f 31/53/87 43/47/128 42/37/126 30/42/84
f 32/55/91 44/52/131 43/47/129 31/53/88
f 33/4/95 45/11/134 44/7/132 32/1/92
f 34/15/99 46/20/137 45/11/135 33/4/96
f 35/31/103 47/33/140 46/20/138 34/15/100
f 36/42/107 48/37/143 47/33/141 35/31/104
s 3
f 1/45/15 26/56/65 25/54/61 2/41/19
f 2/41/20 25/54/62 36/43/106 3/35/24
f 3/35/23 36/43/105 35/32/102 4/30/28
f 4/30/27 35/32/101 34/16/98 5/23/32
f 5/23/31 34/16/97 33/5/94 6/18/36
f 6/18/35 33/5/93 32/2/90 7/13/40
f 7/45/39 32/56/89 31/54/86 8/41/44
f 8/41/43 31/54/85 30/43/82 9/35/48
f 9/35/47 30/43/81 29/32/78 10/30/52
f 10/30/51 29/32/77 28/16/74 11/25/56
f 11/25/55 28/16/73 27/5/70 12/18/60
f 12/18/59 27/5/69 26/2/66 1/13/16
