# Exported from Wings 3D 1.5.4
mtllib Tantares_Antenna_1_Base.mtl
o Tantares_Antenna_1_Base
#48 vertices, 36 faces
v -1.7500000e-2 -1.5000000e-2 -5.7500000e-2
v -1.7500000e-2 -1.5000000e-2 -4.7500000e-2
v -1.7500000e-2 1.5000000e-2 -5.7500000e-2
v -1.7500000e-2 1.5000000e-2 -4.7500000e-2
v 1.7500000e-2 -1.5000000e-2 -5.7500000e-2
v 1.7500000e-2 -1.5000000e-2 -4.7500000e-2
v 1.7500000e-2 1.5000000e-2 -5.7500000e-2
v 1.7500000e-2 1.5000000e-2 -4.7500000e-2
v -1.2500000e-2 1.5000000e-2 -5.7500000e-2
v -1.2500000e-2 -1.5000000e-2 -5.7500000e-2
v 1.2500000e-2 -1.5000000e-2 -5.7500000e-2
v 1.2500000e-2 1.5000000e-2 -5.7500000e-2
v 1.2500000e-2 6.4644661e-3 -8.2500000e-2
v 1.2500000e-2 1.2500000e-2 -8.0000000e-2
v 1.2500000e-2 1.5000000e-2 -7.3964466e-2
v 1.7500000e-2 6.4644661e-3 -8.2500000e-2
v 1.7500000e-2 1.5000000e-2 -7.3964466e-2
v 1.7500000e-2 1.2500000e-2 -8.0000000e-2
v 1.7500000e-2 -6.4644661e-3 -8.2500000e-2
v 1.7500000e-2 -1.2500000e-2 -8.0000000e-2
v 1.7500000e-2 -1.5000000e-2 -7.3964466e-2
v 1.2500000e-2 -6.4644661e-3 -8.2500000e-2
v 1.2500000e-2 -1.5000000e-2 -7.3964466e-2
v 1.2500000e-2 -1.2500000e-2 -8.0000000e-2
v -1.2500000e-2 -6.4644661e-3 -8.2500000e-2
v -1.2500000e-2 -1.2500000e-2 -8.0000000e-2
v -1.2500000e-2 -1.5000000e-2 -7.3964466e-2
v -1.7500000e-2 -6.4644661e-3 -8.2500000e-2
v -1.7500000e-2 -1.5000000e-2 -7.3964466e-2
v -1.7500000e-2 -1.2500000e-2 -8.0000000e-2
v -1.7500000e-2 6.4644661e-3 -8.2500000e-2
v -1.7500000e-2 1.2500000e-2 -8.0000000e-2
v -1.7500000e-2 1.5000000e-2 -7.3964466e-2
v -1.2500000e-2 6.4644661e-3 -8.2500000e-2
v -1.2500000e-2 1.5000000e-2 -7.3964466e-2
v -1.2500000e-2 1.2500000e-2 -8.0000000e-2
v -2.1000000e-2 1.8000000e-2 -3.7500000e-2
v -2.1000000e-2 -1.8000000e-2 -3.7500000e-2
v 2.1000000e-2 -1.8000000e-2 -3.7500000e-2
v 2.1000000e-2 1.8000000e-2 -3.7500000e-2
v -2.1000000e-2 1.8000000e-2 2.0000000e-2
v -2.1000000e-2 -1.8000000e-2 2.0000000e-2
v 2.1000000e-2 -1.8000000e-2 2.0000000e-2
v 2.1000000e-2 1.8000000e-2 2.0000000e-2
v -1.7500000e-2 0.0000000e+0 -8.2500000e-2
v -1.2500000e-2 0.0000000e+0 -8.2500000e-2
v 1.7500000e-2 0.0000000e+0 -8.2500000e-2
v 1.2500000e-2 0.0000000e+0 -8.2500000e-2
vt 0.70705606 0.83155589
vt 0.70705606 0.83155589
vt 0.70705606 0.85161859
vt 0.70705606 0.85161859
vt 0.70705606 0.88465074
vt 0.70705606 0.88465074
vt 0.71207174 0.89675965
vt 0.71207174 0.89675965
vt 0.71801291 0.74028370
vt 0.71801291 0.78021970
vt 0.72418064 0.90177533
vt 0.73715011 0.90177533
vt 0.74039352 0.24385915
vt 0.74039352 0.27621025
vt 0.74451377 0.79487760
vt 0.74451377 0.79487760
vt 0.75011957 0.90177533
vt 0.75011957 0.90177533
vt 0.75050414 0.81766727
vt 0.75050414 0.81766727
vt 0.75050414 0.81766727
vt 0.75050414 0.81766727
vt 0.76222848 0.89675965
vt 0.76222848 0.89675965
vt 0.76724415 0.83155589
vt 0.76724415 0.85161859
vt 0.76724415 0.88465074
vt 0.76724415 0.83155589
vt 0.76724415 0.85161859
vt 0.76724415 0.88465074
vt 0.76735221 0.24385915
vt 0.76735221 0.27621025
vt 0.76735221 0.24385915
vt 0.76735221 0.27621025
vt 0.76735277 0.24385915
vt 0.76735277 0.27621025
vt 0.77059322 0.74028370
vt 0.77059322 0.78021970
vt 0.77083490 0.74028370
vt 0.77083490 0.78021970
vt 0.77083490 0.74028370
vt 0.77083490 0.78021970
vt 0.77083490 0.74028370
vt 0.77083490 0.78021970
vt 0.77083490 0.74028370
vt 0.77083490 0.78021970
vt 0.78510699 0.24385915
vt 0.78510699 0.27621025
vt 0.78510699 0.24385915
vt 0.78510699 0.27621025
vt 0.79161553 0.24655507
vt 0.79161553 0.27351432
vt 0.79161553 0.24655507
vt 0.79161553 0.27351432
vt 0.79242600 0.83160496
vt 0.79242600 0.84947262
vt 0.79242600 0.87889075
vt 0.79242600 0.89079156
vt 0.79242600 0.89795450
vt 0.79242600 0.90177533
vt 0.79242600 0.84947262
vt 0.79242600 0.87889075
vt 0.79242600 0.89079156
vt 0.79242600 0.89795450
vt 0.79242600 0.90177533
vt 0.79431146 0.25306361
vt 0.79431146 0.26003470
vt 0.79431146 0.26700578
vt 0.79431146 0.25306361
vt 0.79431146 0.26003470
vt 0.79431146 0.26700578
vt 0.80163477 0.84947262
vt 0.80163477 0.87889075
vt 0.80163477 0.89079156
vt 0.80163477 0.89795450
vt 0.80163477 0.90177533
vt 0.81040785 0.81766727
vt 0.81040785 0.81766727
vt 0.81040785 0.81766727
vt 0.81040785 0.81766727
vt 0.81639823 0.79487760
vt 0.81639823 0.79487760
vt 0.81639823 0.79487760
vt 0.84281985 0.74028370
vt 0.84281985 0.78021970
vt 0.84281985 0.74028370
vt 0.84281985 0.78021970
vt 0.84281985 0.74028370
vt 0.84281985 0.78021970
vt 0.84767866 0.84947262
vt 0.84767866 0.87889075
vt 0.84767866 0.89079156
vt 0.84767866 0.89795450
vt 0.84767866 0.90177533
vt 0.85688744 0.83160496
vt 0.85688744 0.84947262
vt 0.85688744 0.87889075
vt 0.85688744 0.89079156
vt 0.85688744 0.89795450
vt 0.85688744 0.90177533
vn 0.0000000e+0 -1.00000000 0.0000000e+0
vn 0.0000000e+0 -1.00000000 0.0000000e+0
vn -1.00000000 -5.3816050e-17 0.0000000e+0
vn 0.0000000e+0 -1.00000000 0.0000000e+0
vn -1.00000000 -5.3816050e-17 0.0000000e+0
vn -0.94385836 0.0000000e+0 -0.33035042
vn 0.0000000e+0 -0.95782629 -0.28734789
vn 0.0000000e+0 -1.00000000 0.0000000e+0
vn -1.00000000 -5.3816050e-17 0.0000000e+0
vn 0.0000000e+0 1.00000000 0.0000000e+0
vn 0.0000000e+0 1.00000000 0.0000000e+0
vn 0.0000000e+0 1.00000000 0.0000000e+0
vn -1.00000000 -5.3816050e-17 0.0000000e+0
vn -0.94385836 0.0000000e+0 -0.33035042
vn 0.0000000e+0 0.95782629 -0.28734789
vn 0.0000000e+0 1.00000000 0.0000000e+0
vn 1.00000000 0.0000000e+0 0.0000000e+0
vn 0.0000000e+0 -1.00000000 0.0000000e+0
vn 0.0000000e+0 -1.00000000 0.0000000e+0
vn 1.00000000 0.0000000e+0 0.0000000e+0
vn 0.0000000e+0 -0.95782629 -0.28734789
vn 0.94385836 0.0000000e+0 -0.33035042
vn 0.0000000e+0 -1.00000000 0.0000000e+0
vn 0.0000000e+0 -1.00000000 0.0000000e+0
vn 1.00000000 0.0000000e+0 0.0000000e+0
vn 0.0000000e+0 1.00000000 0.0000000e+0
vn 0.0000000e+0 1.00000000 0.0000000e+0
vn 0.0000000e+0 1.00000000 0.0000000e+0
vn 1.00000000 0.0000000e+0 0.0000000e+0
vn 0.94385836 0.0000000e+0 -0.33035042
vn 0.0000000e+0 0.95782629 -0.28734789
vn 0.0000000e+0 1.00000000 0.0000000e+0
vn 0.0000000e+0 1.00000000 0.0000000e+0
vn 0.0000000e+0 0.0000000e+0 -1.00000000
vn 0.0000000e+0 1.00000000 0.0000000e+0
vn 1.00000000 3.8320654e-17 7.3575656e-17
vn 0.0000000e+0 1.00000000 0.0000000e+0
vn 0.0000000e+0 -1.00000000 0.0000000e+0
vn 0.0000000e+0 0.0000000e+0 -1.00000000
vn 0.0000000e+0 -1.00000000 0.0000000e+0
vn 1.00000000 3.8320654e-17 7.3575656e-17
vn 0.0000000e+0 -1.00000000 0.0000000e+0
vn 0.0000000e+0 0.0000000e+0 -1.00000000
vn 0.0000000e+0 -1.00000000 0.0000000e+0
vn -1.00000000 -3.8320654e-17 7.3575656e-17
vn 0.0000000e+0 -1.00000000 0.0000000e+0
vn 0.0000000e+0 -1.00000000 0.0000000e+0
vn 0.0000000e+0 1.00000000 0.0000000e+0
vn 0.0000000e+0 0.0000000e+0 -1.00000000
vn 0.0000000e+0 1.00000000 0.0000000e+0
vn -1.00000000 -3.8320654e-17 7.3575656e-17
vn 0.0000000e+0 1.00000000 0.0000000e+0
vn -1.00000000 -3.8320654e-17 7.3575656e-17
vn 0.0000000e+0 0.19509032 -0.98078528
vn 0.0000000e+0 0.19509032 -0.98078528
vn -1.00000000 -3.8320654e-17 7.3575656e-17
vn 0.0000000e+0 0.70710678 -0.70710678
vn 0.0000000e+0 0.70710678 -0.70710678
vn 0.0000000e+0 0.98078528 -0.19509032
vn -1.00000000 -3.8320654e-17 7.3575656e-17
vn 0.0000000e+0 0.98078528 -0.19509032
vn 1.00000000 0.0000000e+0 0.0000000e+0
vn 0.0000000e+0 0.19509032 -0.98078528
vn 0.0000000e+0 0.19509032 -0.98078528
vn 1.00000000 0.0000000e+0 0.0000000e+0
vn 0.0000000e+0 0.98078528 -0.19509032
vn 0.0000000e+0 0.98078528 -0.19509032
vn 1.00000000 0.0000000e+0 0.0000000e+0
vn 0.0000000e+0 0.70710678 -0.70710678
vn 0.0000000e+0 0.70710678 -0.70710678
vn 1.00000000 0.0000000e+0 0.0000000e+0
vn 0.0000000e+0 -0.19509032 -0.98078528
vn 0.0000000e+0 -0.19509032 -0.98078528
vn 1.00000000 0.0000000e+0 0.0000000e+0
vn 0.0000000e+0 -0.70710678 -0.70710678
vn 0.0000000e+0 -0.70710678 -0.70710678
vn 1.00000000 0.0000000e+0 0.0000000e+0
vn 0.0000000e+0 -0.98078528 -0.19509032
vn 0.0000000e+0 -0.98078528 -0.19509032
vn -1.00000000 -3.8320654e-17 7.3575656e-17
vn 0.0000000e+0 -0.19509032 -0.98078528
vn 0.0000000e+0 -0.19509032 -0.98078528
vn 0.0000000e+0 -0.98078528 -0.19509032
vn -1.00000000 -3.8320654e-17 7.3575656e-17
vn 0.0000000e+0 -0.98078528 -0.19509032
vn -1.00000000 -3.8320654e-17 7.3575656e-17
vn 0.0000000e+0 -0.70710678 -0.70710678
vn 0.0000000e+0 -0.70710678 -0.70710678
vn 1.00000000 3.8320654e-17 7.3575656e-17
vn 0.0000000e+0 -0.19509032 -0.98078528
vn 0.0000000e+0 -0.19509032 -0.98078528
vn 1.00000000 3.8320654e-17 7.3575656e-17
vn 0.0000000e+0 -0.70710678 -0.70710678
vn 0.0000000e+0 -0.70710678 -0.70710678
vn 0.0000000e+0 -0.98078528 -0.19509032
vn 1.00000000 3.8320654e-17 7.3575656e-17
vn 0.0000000e+0 -0.98078528 -0.19509032
vn -1.00000000 -5.3816050e-17 0.0000000e+0
vn 0.0000000e+0 -0.19509032 -0.98078528
vn 0.0000000e+0 -0.19509032 -0.98078528
vn 0.0000000e+0 -0.98078528 -0.19509032
vn -1.00000000 -5.3816050e-17 0.0000000e+0
vn 0.0000000e+0 -0.98078528 -0.19509032
vn -1.00000000 -5.3816050e-17 0.0000000e+0
vn 0.0000000e+0 -0.70710678 -0.70710678
vn 0.0000000e+0 -0.70710678 -0.70710678
vn -1.00000000 -5.3816050e-17 0.0000000e+0
vn 0.0000000e+0 0.19509032 -0.98078528
vn 0.0000000e+0 0.19509032 -0.98078528
vn -1.00000000 -5.3816050e-17 0.0000000e+0
vn 0.0000000e+0 0.70710678 -0.70710678
vn 0.0000000e+0 0.70710678 -0.70710678
vn -1.00000000 -5.3816050e-17 0.0000000e+0
vn 0.0000000e+0 0.98078528 -0.19509032
vn 0.0000000e+0 0.98078528 -0.19509032
vn 1.00000000 3.8320654e-17 7.3575656e-17
vn 0.0000000e+0 0.19509032 -0.98078528
vn 0.0000000e+0 0.19509032 -0.98078528
vn 0.0000000e+0 0.98078528 -0.19509032
vn 1.00000000 3.8320654e-17 7.3575656e-17
vn 0.0000000e+0 0.98078528 -0.19509032
vn 1.00000000 3.8320654e-17 7.3575656e-17
vn 0.0000000e+0 0.70710678 -0.70710678
vn 0.0000000e+0 0.70710678 -0.70710678
vn -0.94385836 0.0000000e+0 -0.33035042
vn 0.0000000e+0 0.95782629 -0.28734789
vn -1.00000000 0.0000000e+0 0.0000000e+0
vn 0.0000000e+0 1.00000000 0.0000000e+0
vn -0.94385836 0.0000000e+0 -0.33035042
vn 0.0000000e+0 -0.95782629 -0.28734789
vn -1.00000000 0.0000000e+0 0.0000000e+0
vn 0.0000000e+0 -1.00000000 0.0000000e+0
vn 0.0000000e+0 -0.95782629 -0.28734789
vn 0.94385836 0.0000000e+0 -0.33035042
vn 0.0000000e+0 -1.00000000 0.0000000e+0
vn 1.00000000 0.0000000e+0 0.0000000e+0
vn 0.94385836 0.0000000e+0 -0.33035042
vn 0.0000000e+0 0.95782629 -0.28734789
vn 1.00000000 0.0000000e+0 0.0000000e+0
vn 0.0000000e+0 1.00000000 0.0000000e+0
vn 0.0000000e+0 0.0000000e+0 1.00000000
vn -1.00000000 0.0000000e+0 0.0000000e+0
vn 0.0000000e+0 1.00000000 0.0000000e+0
vn 0.0000000e+0 0.0000000e+0 1.00000000
vn -1.00000000 0.0000000e+0 0.0000000e+0
vn 0.0000000e+0 -1.00000000 0.0000000e+0
vn 0.0000000e+0 0.0000000e+0 1.00000000
vn 0.0000000e+0 -1.00000000 0.0000000e+0
vn 1.00000000 0.0000000e+0 0.0000000e+0
vn 0.0000000e+0 0.0000000e+0 1.00000000
vn 1.00000000 0.0000000e+0 0.0000000e+0
vn 0.0000000e+0 1.00000000 0.0000000e+0
vn -1.00000000 -5.3816050e-17 0.0000000e+0
vn 0.0000000e+0 0.0000000e+0 -1.00000000
vn 0.0000000e+0 0.0000000e+0 -1.00000000
vn 1.00000000 3.8320654e-17 7.3575656e-17
vn 0.0000000e+0 0.0000000e+0 -1.00000000
vn 0.0000000e+0 0.0000000e+0 -1.00000000
vn 1.00000000 0.0000000e+0 0.0000000e+0
vn 0.0000000e+0 0.0000000e+0 -1.00000000
vn 0.0000000e+0 0.0000000e+0 -1.00000000
vn -1.00000000 -3.8320654e-17 7.3575656e-17
vn 0.0000000e+0 0.0000000e+0 -1.00000000
vn 0.0000000e+0 0.0000000e+0 -1.00000000
g Tantares_Antenna_1_Base_Tantares_Antenna_1_Base_auv
usemtl Tantares_Antenna_1_Base_auv
s 1
f 2/2/5 4/25/13 3/26/9 33/27/113 32/23/110 31/17/107 45/12/153 28/11/98 30/7/104 29/6/102 1/4/3
f 8/22/30 40/16/137 39/82/134 6/80/22
f 12/14/49 11/13/43 10/35/39 9/36/34
f 42/9/144 43/37/147 44/38/150 41/10/141
s 2
f 2/19/6 38/15/129 37/81/125 4/77/14
f 5/29/17 21/30/77 20/24/74 19/18/71 47/12/159 16/11/62 18/8/68 17/5/65 7/3/25 8/1/29 6/28/20
f 10/33/41 27/49/96 26/53/92 25/69/89 46/70/156 34/71/116 36/54/122 35/50/120 9/34/36
f 12/31/51 15/47/60 14/51/56 13/66/53 48/67/162 22/68/80 24/52/86 23/48/84 11/32/45
f 37/45/128 41/88/143 44/89/152 40/46/140
f 39/43/135 43/86/148 42/89/146 38/44/132
s 3
f 4/20/15 37/15/126 40/81/138 8/78/31
f 6/21/21 39/16/133 38/83/130 2/79/7
f 38/39/131 42/84/145 41/85/142 37/40/127
f 40/87/139 44/42/151 43/41/149 39/86/136
s 4
f 1/96/1 10/90/38 2/95/4
f 1/96/2 29/97/101 27/91/95 10/90/40
f 2/95/8 10/90/42 11/72/46 6/55/23
f 4/55/16 9/72/37 3/56/11
f 6/55/24 11/72/47 5/61/19
f 7/96/27 12/90/52 8/95/32
f 7/96/26 17/97/66 15/91/59 12/90/50
f 8/95/28 12/90/48 9/72/33 4/55/12
f 9/72/35 35/73/119 33/57/114 3/56/10
f 11/72/44 23/73/83 21/62/78 5/61/18
f 13/93/55 16/99/64 47/100/161 48/94/164
f 16/99/63 13/93/54 14/92/58 18/98/70
f 17/97/67 18/98/69 14/92/57 15/91/61
f 19/64/73 22/75/82 48/76/163 47/65/160
f 22/75/81 19/64/72 20/63/75 24/74/87
f 23/73/85 24/74/88 20/63/76 21/62/79
f 25/93/91 28/99/100 45/100/155 46/94/158
f 30/98/105 26/92/93 27/91/97 29/97/103
f 30/98/106 28/99/99 25/93/90 26/92/94
f 31/59/109 34/75/118 46/76/157 45/60/154
f 33/57/115 35/73/121 36/74/124 32/58/112
f 34/75/117 31/59/108 32/58/111 36/74/123
