# Exported from Wings 3D 1.5.4
mtllib lepus_ladder_srf_1_2.mtl
o lepus_ladder_srf_1_2
#48 vertices, 28 faces
v -0.16250000 -0.21250000 1.2500000e-2
v -0.17500000 -0.20000000 2.5000000e-2
v -0.16250000 -0.18750000 1.2500000e-2
v 0.16250000 -0.18750000 1.2500000e-2
v 0.17500000 -0.20000000 2.5000000e-2
v 0.16250000 -0.21250000 1.2500000e-2
v -0.17500000 -0.20000000 0.0000000e+0
v 0.17500000 -0.20000000 0.0000000e+0
v -0.16250000 0.0000000e+0 1.2500000e-2
v -0.17500000 0.0000000e+0 2.5000000e-2
v -0.18750000 0.0000000e+0 1.2500000e-2
v -0.17500000 0.0000000e+0 0.0000000e+0
v -0.16250000 -0.37500000 1.2500000e-2
v -0.17500000 -0.37500000 2.5000000e-2
v -0.18750000 -0.37500000 1.2500000e-2
v -0.17500000 -0.37500000 0.0000000e+0
v 0.18750000 0.0000000e+0 1.2500000e-2
v 0.17500000 0.0000000e+0 2.5000000e-2
v 0.16250000 0.0000000e+0 1.2500000e-2
v 0.17500000 0.0000000e+0 0.0000000e+0
v 0.18750000 -0.37500000 1.2500000e-2
v 0.17500000 -0.37500000 2.5000000e-2
v 0.16250000 -0.37500000 1.2500000e-2
v 0.17500000 -0.37500000 0.0000000e+0
v -0.16250000 -2.5000000e-2 1.2500000e-2
v -0.17500000 -1.2500000e-2 2.5000000e-2
v -0.16250000 0.0000000e+0 1.2500000e-2
v 0.16250000 0.0000000e+0 1.2500000e-2
v 0.17500000 -1.2500000e-2 2.5000000e-2
v 0.16250000 -2.5000000e-2 1.2500000e-2
v -0.17500000 -1.2500000e-2 0.0000000e+0
v 0.17500000 -1.2500000e-2 0.0000000e+0
v -0.16250000 -0.30625000 1.2500000e-2
v -0.17500000 -0.29375000 2.5000000e-2
v -0.16250000 -0.28125000 1.2500000e-2
v 0.16250000 -0.28125000 1.2500000e-2
v 0.17500000 -0.29375000 2.5000000e-2
v 0.16250000 -0.30625000 1.2500000e-2
v -0.17500000 -0.29375000 0.0000000e+0
v 0.17500000 -0.29375000 0.0000000e+0
v -0.16250000 -0.11875000 1.2500000e-2
v -0.17500000 -0.10625000 2.5000000e-2
v -0.16250000 -9.3750000e-2 1.2500000e-2
v 0.16250000 -9.3750000e-2 1.2500000e-2
v 0.17500000 -0.10625000 2.5000000e-2
v 0.16250000 -0.11875000 1.2500000e-2
v -0.17500000 -0.10625000 0.0000000e+0
v 0.17500000 -0.10625000 0.0000000e+0
vt 0.73359370 0.50000000
vt 0.73915911 0.25298047
vt 0.73915911 0.23397896
vt 0.73915911 0.23397896
vt 0.73915911 0.25298047
vt 0.73915911 0.25298047
vt 0.73915911 0.25298047
vt 0.73915911 0.74701953
vt 0.73915911 0.76602104
vt 0.73915911 0.21497746
vt 0.73915911 0.21497746
vt 0.73915911 0.23397896
vt 0.73915911 0.23397896
vt 0.73915911 0.25298047
vt 0.73915911 0.74701953
vt 0.73915911 0.74701953
vt 0.73915911 0.76602104
vt 0.73915911 0.76602104
vt 0.73915911 0.78502254
vt 0.75259520 0.48099850
vt 0.75259520 0.51900150
vt 0.76603129 0.21497746
vt 0.76603129 0.21497746
vt 0.76603129 0.23397896
vt 0.76603129 0.23397896
vt 0.76603129 0.25298047
vt 0.76603129 0.25298047
vt 0.76603129 0.25298047
vt 0.76603129 0.74701953
vt 0.76603129 0.76602104
vt 0.76603129 0.78502254
vt 0.76603129 0.21497746
vt 0.76603129 0.21497746
vt 0.76603129 0.23397896
vt 0.76603129 0.25298047
vt 0.76603129 0.25298047
vt 0.76603129 0.74701953
vt 0.76603129 0.76602104
vt 0.76603129 0.78502254
vt 0.76603129 0.74701953
vt 0.76603129 0.76602104
vt 0.77159670 0.50000000
vn 0.0000000e+0 -1.00000000 0.0000000e+0
vn 0.0000000e+0 0.0000000e+0 1.00000000
vn 0.0000000e+0 1.00000000 0.0000000e+0
vn 0.0000000e+0 1.00000000 0.0000000e+0
vn 0.0000000e+0 0.0000000e+0 1.00000000
vn 0.0000000e+0 -1.00000000 0.0000000e+0
vn 0.0000000e+0 0.0000000e+0 -1.00000000
vn 0.0000000e+0 0.0000000e+0 -1.00000000
vn 0.0000000e+0 -1.00000000 0.0000000e+0
vn 0.0000000e+0 0.0000000e+0 1.00000000
vn 0.0000000e+0 1.00000000 0.0000000e+0
vn 0.0000000e+0 1.00000000 0.0000000e+0
vn 0.0000000e+0 0.0000000e+0 1.00000000
vn 0.0000000e+0 -1.00000000 0.0000000e+0
vn 0.0000000e+0 0.0000000e+0 -1.00000000
vn 0.0000000e+0 0.0000000e+0 -1.00000000
vn 0.0000000e+0 -1.00000000 0.0000000e+0
vn 0.0000000e+0 -2.1981294e-15 1.00000000
vn 0.0000000e+0 1.00000000 0.0000000e+0
vn 0.0000000e+0 1.00000000 0.0000000e+0
vn 0.0000000e+0 -2.1981294e-15 1.00000000
vn 0.0000000e+0 -1.00000000 0.0000000e+0
vn 0.0000000e+0 -2.1981294e-15 -1.00000000
vn 0.0000000e+0 -2.1981294e-15 -1.00000000
vn 0.0000000e+0 -1.00000000 0.0000000e+0
vn 0.0000000e+0 0.0000000e+0 1.00000000
vn 0.0000000e+0 1.00000000 0.0000000e+0
vn 0.0000000e+0 1.00000000 0.0000000e+0
vn 0.0000000e+0 0.0000000e+0 1.00000000
vn 0.0000000e+0 -1.00000000 0.0000000e+0
vn 0.0000000e+0 0.0000000e+0 -1.00000000
vn 0.0000000e+0 0.0000000e+0 -1.00000000
vn 1.00000000 0.0000000e+0 0.0000000e+0
vn 1.00000000 0.0000000e+0 0.0000000e+0
vn 0.0000000e+0 1.00000000 0.0000000e+0
vn 0.0000000e+0 0.0000000e+0 1.00000000
vn 0.0000000e+0 0.0000000e+0 1.00000000
vn 0.0000000e+0 1.00000000 0.0000000e+0
vn -1.00000000 0.0000000e+0 0.0000000e+0
vn -1.00000000 0.0000000e+0 0.0000000e+0
vn 0.0000000e+0 1.00000000 0.0000000e+0
vn 0.0000000e+0 0.0000000e+0 -1.00000000
vn 0.0000000e+0 0.0000000e+0 -1.00000000
vn 0.0000000e+0 1.00000000 0.0000000e+0
vn 1.00000000 0.0000000e+0 0.0000000e+0
vn 1.00000000 0.0000000e+0 0.0000000e+0
vn 0.0000000e+0 -1.00000000 0.0000000e+0
vn 0.0000000e+0 0.0000000e+0 1.00000000
vn 0.0000000e+0 0.0000000e+0 1.00000000
vn 0.0000000e+0 -1.00000000 0.0000000e+0
vn -1.00000000 0.0000000e+0 0.0000000e+0
vn -1.00000000 0.0000000e+0 0.0000000e+0
vn 0.0000000e+0 -1.00000000 0.0000000e+0
vn 0.0000000e+0 0.0000000e+0 -1.00000000
vn 0.0000000e+0 0.0000000e+0 -1.00000000
vn 0.0000000e+0 -1.00000000 0.0000000e+0
vn 1.00000000 0.0000000e+0 0.0000000e+0
vn 1.00000000 0.0000000e+0 0.0000000e+0
vn 0.0000000e+0 1.00000000 0.0000000e+0
vn 0.0000000e+0 0.0000000e+0 1.00000000
vn 0.0000000e+0 0.0000000e+0 1.00000000
vn 0.0000000e+0 1.00000000 0.0000000e+0
vn -1.00000000 0.0000000e+0 0.0000000e+0
vn -1.00000000 0.0000000e+0 0.0000000e+0
vn 0.0000000e+0 1.00000000 0.0000000e+0
vn 0.0000000e+0 0.0000000e+0 -1.00000000
vn 0.0000000e+0 0.0000000e+0 -1.00000000
vn 0.0000000e+0 1.00000000 0.0000000e+0
vn 1.00000000 0.0000000e+0 0.0000000e+0
vn 1.00000000 0.0000000e+0 0.0000000e+0
vn 0.0000000e+0 -1.00000000 0.0000000e+0
vn 0.0000000e+0 0.0000000e+0 1.00000000
vn 0.0000000e+0 0.0000000e+0 1.00000000
vn 0.0000000e+0 -1.00000000 0.0000000e+0
vn -1.00000000 0.0000000e+0 0.0000000e+0
vn -1.00000000 0.0000000e+0 0.0000000e+0
vn 0.0000000e+0 -1.00000000 0.0000000e+0
vn 0.0000000e+0 0.0000000e+0 -1.00000000
vn 0.0000000e+0 0.0000000e+0 -1.00000000
vn 0.0000000e+0 -1.00000000 0.0000000e+0
g lepus_ladder_srf_1_2_lepus_ladder_srf_1_2_auv
usemtl lepus_ladder_srf_1_2_auv
s 1
f 1/29/1 7/9/7 8/12/8 6/35/6
f 4/5/4 8/24/8 7/38/7 3/15/3
f 5/30/5 4/16/4 3/14/3 2/25/2
f 6/37/6 5/9/5 2/4/2 1/27/1
f 9/42/35 12/21/44 11/1/41 10/20/38
f 14/20/50 15/42/53 16/21/56 13/1/47
f 17/42/59 20/21/68 19/1/65 18/20/62
f 22/20/74 23/42/77 24/21/80 21/1/71
f 25/29/9 31/9/15 32/12/16 30/36/14
f 28/5/12 32/24/16 31/38/15 27/15/11
f 29/30/13 28/16/12 27/14/11 26/25/10
f 30/29/14 29/17/13 26/13/10 25/28/9
f 33/40/17 39/18/23 40/3/24 38/26/22
f 36/2/20 40/24/24 39/41/23 35/16/19
f 37/41/21 36/8/20 35/6/19 34/34/18
f 38/6/22 37/25/21 34/41/18 33/8/17
f 41/29/25 47/9/31 48/12/32 46/35/30
f 44/7/28 48/25/32 47/41/31 43/16/27
f 45/30/29 44/16/28 43/14/27 42/25/26
f 46/29/30 45/17/29 42/13/26 41/28/25
s 2
f 9/19/33 13/10/45 16/32/54 12/39/42
f 10/19/37 14/11/49 13/23/46 9/31/34
f 11/19/40 15/11/52 14/33/48 10/39/36
f 12/19/43 16/10/55 15/22/51 11/31/39
f 17/19/57 21/10/69 24/32/78 20/39/66
f 18/19/61 22/11/73 21/23/70 17/31/58
f 19/19/64 23/11/76 22/23/72 18/31/60
f 20/19/67 24/10/79 23/22/75 19/31/63
