# Exported from Wings 3D 1.5.4
mtllib Eridani_NodeSupport_1_Collider.mtl
o Eridani_NodeSupport_1_Collider1
#32 vertices, 18 faces
v 0.62500000 -3.7500000e-2 0.12432023
v 0.62500000 -3.7500000e-2 -0.12432023
v 0.52984942 -3.7500000e-2 -0.35403406
v 0.35403406 -3.7500000e-2 -0.52984942
v 0.12432023 -3.7500000e-2 -0.62500000
v -0.12432023 -3.7500000e-2 -0.62500000
v -0.35403406 -3.7500000e-2 -0.52984942
v -0.52984942 -3.7500000e-2 -0.35403406
v -0.62500000 -3.7500000e-2 -0.12432023
v -0.62500000 -3.7500000e-2 0.12432023
v -0.52984942 -3.7500000e-2 0.35403406
v -0.35403406 -3.7500000e-2 0.52984942
v -0.12432023 -3.7500000e-2 0.62500000
v 0.12432023 -3.7500000e-2 0.62500000
v 0.35403406 -3.7500000e-2 0.52984942
v 0.52984942 -3.7500000e-2 0.35403406
v 0.46875000 0.35000000 9.3240172e-2
v 0.46875000 0.35000000 -9.3240172e-2
v 0.39738706 0.35000000 -0.26552555
v 0.26552555 0.35000000 -0.39738706
v 9.3240172e-2 0.35000000 -0.46875000
v -9.3240172e-2 0.35000000 -0.46875000
v -0.26552555 0.35000000 -0.39738706
v -0.39738706 0.35000000 -0.26552555
v -0.46875000 0.35000000 -9.3240172e-2
v -0.46875000 0.35000000 9.3240172e-2
v -0.39738706 0.35000000 0.26552555
v -0.26552555 0.35000000 0.39738706
v -9.3240172e-2 0.35000000 0.46875000
v 9.3240172e-2 0.35000000 0.46875000
v 0.26552555 0.35000000 0.39738706
v 0.39738706 0.35000000 0.26552555
vn 0.92744147 0.37396834 0.0000000e+0
vn 0.85684419 0.37396834 0.35491649
vn 0.0000000e+0 -1.00000000 -2.4418923e-18
vn 0.92744147 0.37396834 0.0000000e+0
vn 0.85684419 0.37396834 -0.35491649
vn 0.0000000e+0 -1.00000000 -2.4418923e-18
vn 0.85684419 0.37396834 -0.35491649
vn 0.65580015 0.37396834 -0.65580015
vn 0.0000000e+0 -1.00000000 -2.4418923e-18
vn 0.65580015 0.37396834 -0.65580015
vn 0.35491649 0.37396834 -0.85684419
vn 0.0000000e+0 -1.00000000 -2.4418923e-18
vn 0.35491649 0.37396834 -0.85684419
vn 4.9617920e-16 0.37396834 -0.92744147
vn 0.0000000e+0 -1.00000000 -2.4418923e-18
vn 4.9617920e-16 0.37396834 -0.92744147
vn -0.35491649 0.37396834 -0.85684419
vn 0.0000000e+0 -1.00000000 -2.4418923e-18
vn -0.35491649 0.37396834 -0.85684419
vn -0.65580015 0.37396834 -0.65580015
vn 0.0000000e+0 -1.00000000 -2.4418923e-18
vn -0.65580015 0.37396834 -0.65580015
vn -0.85684419 0.37396834 -0.35491649
vn 0.0000000e+0 -1.00000000 -2.4418923e-18
vn -0.85684419 0.37396834 -0.35491649
vn -0.92744147 0.37396834 0.0000000e+0
vn 0.0000000e+0 -1.00000000 -2.4418923e-18
vn -0.92744147 0.37396834 0.0000000e+0
vn -0.85684419 0.37396834 0.35491649
vn 0.0000000e+0 -1.00000000 -2.4418923e-18
vn -0.85684419 0.37396834 0.35491649
vn -0.65580015 0.37396834 0.65580015
vn 0.0000000e+0 -1.00000000 -2.4418923e-18
vn -0.65580015 0.37396834 0.65580015
vn -0.35491649 0.37396834 0.85684419
vn 0.0000000e+0 -1.00000000 -2.4418923e-18
vn -0.35491649 0.37396834 0.85684419
vn -4.9617920e-16 0.37396834 0.92744147
vn 0.0000000e+0 -1.00000000 -2.4418923e-18
vn -4.9617920e-16 0.37396834 0.92744147
vn 0.35491649 0.37396834 0.85684419
vn 0.0000000e+0 -1.00000000 -2.4418923e-18
vn 0.35491649 0.37396834 0.85684419
vn 0.65580015 0.37396834 0.65580015
vn 0.0000000e+0 -1.00000000 -2.4418923e-18
vn 0.65580015 0.37396834 0.65580015
vn 0.85684419 0.37396834 0.35491649
vn 0.0000000e+0 -1.00000000 -2.4418923e-18
vn 0.0000000e+0 1.00000000 2.9767830e-17
vn 0.92744147 0.37396834 0.0000000e+0
vn 0.85684419 0.37396834 0.35491649
vn 0.0000000e+0 1.00000000 2.9767830e-17
vn 0.92744147 0.37396834 0.0000000e+0
vn 0.85684419 0.37396834 -0.35491649
vn 0.0000000e+0 1.00000000 2.9767830e-17
vn 0.85684419 0.37396834 -0.35491649
vn 0.65580015 0.37396834 -0.65580015
vn 0.0000000e+0 1.00000000 2.9767830e-17
vn 0.65580015 0.37396834 -0.65580015
vn 0.35491649 0.37396834 -0.85684419
vn 0.0000000e+0 1.00000000 2.9767830e-17
vn 0.35491649 0.37396834 -0.85684419
vn 4.9617920e-16 0.37396834 -0.92744147
vn 0.0000000e+0 1.00000000 2.9767830e-17
vn 4.9617920e-16 0.37396834 -0.92744147
vn -0.35491649 0.37396834 -0.85684419
vn 0.0000000e+0 1.00000000 2.9767830e-17
vn -0.35491649 0.37396834 -0.85684419
vn -0.65580015 0.37396834 -0.65580015
vn 0.0000000e+0 1.00000000 2.9767830e-17
vn -0.65580015 0.37396834 -0.65580015
vn -0.85684419 0.37396834 -0.35491649
vn 0.0000000e+0 1.00000000 2.9767830e-17
vn -0.85684419 0.37396834 -0.35491649
vn -0.92744147 0.37396834 0.0000000e+0
vn 0.0000000e+0 1.00000000 2.9767830e-17
vn -0.92744147 0.37396834 0.0000000e+0
vn -0.85684419 0.37396834 0.35491649
vn 0.0000000e+0 1.00000000 2.9767830e-17
vn -0.85684419 0.37396834 0.35491649
vn -0.65580015 0.37396834 0.65580015
vn 0.0000000e+0 1.00000000 2.9767830e-17
vn -0.65580015 0.37396834 0.65580015
vn -0.35491649 0.37396834 0.85684419
vn 0.0000000e+0 1.00000000 2.9767830e-17
vn -0.35491649 0.37396834 0.85684419
vn -4.9617920e-16 0.37396834 0.92744147
vn 0.0000000e+0 1.00000000 2.9767830e-17
vn -4.9617920e-16 0.37396834 0.92744147
vn 0.35491649 0.37396834 0.85684419
vn 0.0000000e+0 1.00000000 2.9767830e-17
vn 0.35491649 0.37396834 0.85684419
vn 0.65580015 0.37396834 0.65580015
vn 0.0000000e+0 1.00000000 2.9767830e-17
vn 0.65580015 0.37396834 0.65580015
vn 0.85684419 0.37396834 0.35491649
g Eridani_NodeSupport_1_Collider1_default
usemtl default
s 1
f 1//2 17//51 32//96 16//47
f 3//7 19//56 18//54 2//5
f 6//16 22//65 21//63 5//14
f 8//22 24//71 23//69 7//20
f 10//28 26//77 25//75 9//26
f 13//37 29//86 28//84 12//35
f 15//43 31//92 30//90 14//41
s 2
f 2//4 18//53 17//50 1//1
f 5//13 21//62 20//60 4//11
f 7//19 23//68 22//66 6//17
f 9//25 25//74 24//72 8//23
f 11//31 27//80 26//78 10//29
f 14//40 30//89 29//87 13//38
f 16//46 32//95 31//93 15//44
s 3
f 1//3 16//48 15//45 14//42 13//39 12//36 11//33 10//30 9//27 8//24 7//21 6//18 5//15 4//12 3//9 2//6
f 18//52 19//55 20//58 21//61 22//64 23//67 24//70 25//73 26//76 27//79 28//82 29//85 30//88 31//91 32//94 17//49
s 4
f 4//10 20//59 19//57 3//8
f 12//34 28//83 27//81 11//32
o Eridani_NodeSupport_1_Collider2
#48 vertices, 34 faces
v 0.93750000 -0.35000000 -0.18648034
v 0.93750000 -0.35000000 0.18648034
v 0.79477412 -0.35000000 0.53105109
v 0.53105109 -0.35000000 0.79477412
v 0.18648034 -0.35000000 0.93750000
v -0.18648034 -0.35000000 0.93750000
v -0.53105109 -0.35000000 0.79477412
v -0.79477412 -0.35000000 0.53105109
v -0.93750000 -0.35000000 0.18648034
v -0.93750000 -0.35000000 -0.18648034
v -0.79477412 -0.35000000 -0.53105109
v -0.53105109 -0.35000000 -0.79477412
v -0.18648034 -0.35000000 -0.93750000
v 0.18648034 -0.35000000 -0.93750000
v 0.53105109 -0.35000000 -0.79477412
v 0.79477412 -0.35000000 -0.53105109
v 0.93750000 -0.22500000 0.18648034
v 0.93750000 -0.22500000 -0.18648034
v 0.79477412 -0.22500000 -0.53105109
v 0.53105109 -0.22500000 -0.79477412
v 0.18648034 -0.22500000 -0.93750000
v -0.18648034 -0.22500000 -0.93750000
v -0.53105109 -0.22500000 -0.79477412
v -0.79477412 -0.22500000 -0.53105109
v -0.93750000 -0.22500000 -0.18648034
v -0.93750000 -0.22500000 0.18648034
v -0.79477412 -0.22500000 0.53105109
v -0.53105109 -0.22500000 0.79477412
v -0.18648034 -0.22500000 0.93750000
v 0.18648034 -0.22500000 0.93750000
v 0.53105109 -0.22500000 0.79477412
v 0.79477412 -0.22500000 0.53105109
v 0.62500000 -3.7500000e-2 0.12432023
v 0.62500000 -3.7500000e-2 -0.12432023
v 0.52984942 -3.7500000e-2 -0.35403406
v 0.35403406 -3.7500000e-2 -0.52984942
v 0.12432023 -3.7500000e-2 -0.62500000
v -0.12432023 -3.7500000e-2 -0.62500000
v -0.35403406 -3.7500000e-2 -0.52984942
v -0.52984942 -3.7500000e-2 -0.35403406
v -0.62500000 -3.7500000e-2 -0.12432023
v -0.62500000 -3.7500000e-2 0.12432023
v -0.52984942 -3.7500000e-2 0.35403406
v -0.35403406 -3.7500000e-2 0.52984942
v -0.12432023 -3.7500000e-2 0.62500000
v 0.12432023 -3.7500000e-2 0.62500000
v 0.35403406 -3.7500000e-2 0.52984942
v 0.52984942 -3.7500000e-2 0.35403406
vn 0.0000000e+0 -1.00000000 -2.4806525e-18
vn 1.00000000 0.0000000e+0 0.0000000e+0
vn 0.92387953 0.0000000e+0 -0.38268343
vn 0.0000000e+0 -1.00000000 -2.4806525e-18
vn 1.00000000 0.0000000e+0 0.0000000e+0
vn 0.92387953 0.0000000e+0 0.38268343
vn 0.0000000e+0 -1.00000000 -2.4806525e-18
vn 0.70710678 0.0000000e+0 0.70710678
vn 0.92387953 0.0000000e+0 0.38268343
vn 0.0000000e+0 -1.00000000 -2.4806525e-18
vn 0.38268343 0.0000000e+0 0.92387953
vn 0.70710678 0.0000000e+0 0.70710678
vn 0.0000000e+0 -1.00000000 -2.4806525e-18
vn -2.9767830e-16 0.0000000e+0 1.00000000
vn 0.38268343 0.0000000e+0 0.92387953
vn 0.0000000e+0 -1.00000000 -2.4806525e-18
vn -0.38268343 0.0000000e+0 0.92387953
vn -2.9767830e-16 0.0000000e+0 1.00000000
vn 0.0000000e+0 -1.00000000 -2.4806525e-18
vn -0.70710678 0.0000000e+0 0.70710678
vn -0.38268343 0.0000000e+0 0.92387953
vn 0.0000000e+0 -1.00000000 -2.4806525e-18
vn -0.92387953 0.0000000e+0 0.38268343
vn -0.70710678 0.0000000e+0 0.70710678
vn 0.0000000e+0 -1.00000000 -2.4806525e-18
vn -1.00000000 0.0000000e+0 0.0000000e+0
vn -0.92387953 0.0000000e+0 0.38268343
vn 0.0000000e+0 -1.00000000 -2.4806525e-18
vn -0.92387953 0.0000000e+0 -0.38268343
vn -1.00000000 0.0000000e+0 0.0000000e+0
vn 0.0000000e+0 -1.00000000 -2.4806525e-18
vn -0.70710678 0.0000000e+0 -0.70710678
vn -0.92387953 0.0000000e+0 -0.38268343
vn 0.0000000e+0 -1.00000000 -2.4806525e-18
vn -0.38268343 0.0000000e+0 -0.92387953
vn -0.70710678 0.0000000e+0 -0.70710678
vn 0.0000000e+0 -1.00000000 -2.4806525e-18
vn 2.9767830e-16 0.0000000e+0 -1.00000000
vn -0.38268343 0.0000000e+0 -0.92387953
vn 0.0000000e+0 -1.00000000 -2.4806525e-18
vn 0.38268343 0.0000000e+0 -0.92387953
vn 2.9767830e-16 0.0000000e+0 -1.00000000
vn 0.0000000e+0 -1.00000000 -2.4806525e-18
vn 0.70710678 0.0000000e+0 -0.70710678
vn 0.38268343 0.0000000e+0 -0.92387953
vn 0.0000000e+0 -1.00000000 -2.4806525e-18
vn 0.92387953 0.0000000e+0 -0.38268343
vn 0.70710678 0.0000000e+0 -0.70710678
vn 1.00000000 0.0000000e+0 0.0000000e+0
vn 0.92387953 0.0000000e+0 0.38268343
vn 0.51449576 0.85749293 0.0000000e+0
vn 0.47533210 0.85749293 0.19688900
vn 1.00000000 0.0000000e+0 0.0000000e+0
vn 0.92387953 0.0000000e+0 -0.38268343
vn 0.51449576 0.85749293 0.0000000e+0
vn 0.47533210 0.85749293 -0.19688900
vn 0.92387953 0.0000000e+0 -0.38268343
vn 0.70710678 0.0000000e+0 -0.70710678
vn 0.47533210 0.85749293 -0.19688900
vn 0.36380344 0.85749293 -0.36380344
vn 0.70710678 0.0000000e+0 -0.70710678
vn 0.38268343 0.0000000e+0 -0.92387953
vn 0.36380344 0.85749293 -0.36380344
vn 0.19688900 0.85749293 -0.47533210
vn 0.38268343 0.0000000e+0 -0.92387953
vn 2.9767830e-16 0.0000000e+0 -1.00000000
vn 0.19688900 0.85749293 -0.47533210
vn 1.8378506e-16 0.85749293 -0.51449576
vn 2.9767830e-16 0.0000000e+0 -1.00000000
vn -0.38268343 0.0000000e+0 -0.92387953
vn 1.8378506e-16 0.85749293 -0.51449576
vn -0.19688900 0.85749293 -0.47533210
vn -0.38268343 0.0000000e+0 -0.92387953
vn -0.70710678 0.0000000e+0 -0.70710678
vn -0.19688900 0.85749293 -0.47533210
vn -0.36380344 0.85749293 -0.36380344
vn -0.70710678 0.0000000e+0 -0.70710678
vn -0.92387953 0.0000000e+0 -0.38268343
vn -0.36380344 0.85749293 -0.36380344
vn -0.47533210 0.85749293 -0.19688900
vn -0.92387953 0.0000000e+0 -0.38268343
vn -1.00000000 0.0000000e+0 0.0000000e+0
vn -0.47533210 0.85749293 -0.19688900
vn -0.51449576 0.85749293 0.0000000e+0
vn -1.00000000 0.0000000e+0 0.0000000e+0
vn -0.92387953 0.0000000e+0 0.38268343
vn -0.51449576 0.85749293 0.0000000e+0
vn -0.47533210 0.85749293 0.19688900
vn -0.92387953 0.0000000e+0 0.38268343
vn -0.70710678 0.0000000e+0 0.70710678
vn -0.47533210 0.85749293 0.19688900
vn -0.36380344 0.85749293 0.36380344
vn -0.70710678 0.0000000e+0 0.70710678
vn -0.38268343 0.0000000e+0 0.92387953
vn -0.36380344 0.85749293 0.36380344
vn -0.19688900 0.85749293 0.47533210
vn -0.38268343 0.0000000e+0 0.92387953
vn -2.9767830e-16 0.0000000e+0 1.00000000
vn -0.19688900 0.85749293 0.47533210
vn -1.8378506e-16 0.85749293 0.51449576
vn -2.9767830e-16 0.0000000e+0 1.00000000
vn 0.38268343 0.0000000e+0 0.92387953
vn -1.8378506e-16 0.85749293 0.51449576
vn 0.19688900 0.85749293 0.47533210
vn 0.38268343 0.0000000e+0 0.92387953
vn 0.70710678 0.0000000e+0 0.70710678
vn 0.19688900 0.85749293 0.47533210
vn 0.36380344 0.85749293 0.36380344
vn 0.70710678 0.0000000e+0 0.70710678
vn 0.92387953 0.0000000e+0 0.38268343
vn 0.36380344 0.85749293 0.36380344
vn 0.47533210 0.85749293 0.19688900
vn 0.51449576 0.85749293 0.0000000e+0
vn 0.47533210 0.85749293 0.19688900
vn 0.0000000e+0 1.00000000 -2.0930505e-18
vn 0.51449576 0.85749293 0.0000000e+0
vn 0.47533210 0.85749293 -0.19688900
vn 0.0000000e+0 1.00000000 -2.0930505e-18
vn 0.47533210 0.85749293 -0.19688900
vn 0.36380344 0.85749293 -0.36380344
vn 0.0000000e+0 1.00000000 -2.0930505e-18
vn 0.36380344 0.85749293 -0.36380344
vn 0.19688900 0.85749293 -0.47533210
vn 0.0000000e+0 1.00000000 -2.0930505e-18
vn 0.19688900 0.85749293 -0.47533210
vn 1.8378506e-16 0.85749293 -0.51449576
vn 0.0000000e+0 1.00000000 -2.0930505e-18
vn 1.8378506e-16 0.85749293 -0.51449576
vn -0.19688900 0.85749293 -0.47533210
vn 0.0000000e+0 1.00000000 -2.0930505e-18
vn -0.19688900 0.85749293 -0.47533210
vn -0.36380344 0.85749293 -0.36380344
vn 0.0000000e+0 1.00000000 -2.0930505e-18
vn -0.36380344 0.85749293 -0.36380344
vn -0.47533210 0.85749293 -0.19688900
vn 0.0000000e+0 1.00000000 -2.0930505e-18
vn -0.47533210 0.85749293 -0.19688900
vn -0.51449576 0.85749293 0.0000000e+0
vn 0.0000000e+0 1.00000000 -2.0930505e-18
vn -0.51449576 0.85749293 0.0000000e+0
vn -0.47533210 0.85749293 0.19688900
vn 0.0000000e+0 1.00000000 -2.0930505e-18
vn -0.47533210 0.85749293 0.19688900
vn -0.36380344 0.85749293 0.36380344
vn 0.0000000e+0 1.00000000 -2.0930505e-18
vn -0.36380344 0.85749293 0.36380344
vn -0.19688900 0.85749293 0.47533210
vn 0.0000000e+0 1.00000000 -2.0930505e-18
vn -0.19688900 0.85749293 0.47533210
vn -1.8378506e-16 0.85749293 0.51449576
vn 0.0000000e+0 1.00000000 -2.0930505e-18
vn -1.8378506e-16 0.85749293 0.51449576
vn 0.19688900 0.85749293 0.47533210
vn 0.0000000e+0 1.00000000 -2.0930505e-18
vn 0.19688900 0.85749293 0.47533210
vn 0.36380344 0.85749293 0.36380344
vn 0.0000000e+0 1.00000000 -2.0930505e-18
vn 0.36380344 0.85749293 0.36380344
vn 0.47533210 0.85749293 0.19688900
vn 0.0000000e+0 1.00000000 -2.0930505e-18
g Eridani_NodeSupport_1_Collider2_default
usemtl default
s 1
f 34//102 49//146 64//206 35//105
f 38//113 61//193 60//190 39//117
f 40//119 59//185 58//182 41//123
f 43//128 56//173 55//170 44//132
f 45//134 54//165 53//162 46//138
f 48//143 51//153 50//150 33//99
f 50//151 66//212 65//209 49//147
f 52//159 68//218 67//216 51//156
f 55//171 71//227 70//225 54//168
f 57//179 73//233 72//231 56//176
f 60//191 76//242 75//240 59//188
f 63//203 79//251 78//249 62//200
s 2
f 33//98 50//149 49//145 34//101
f 36//107 63//201 62//198 37//111
f 39//116 60//189 59//186 40//120
f 41//122 58//181 57//178 42//126
f 44//131 55//169 54//166 45//135
f 46//137 53//161 52//158 47//141
f 51//155 67//215 66//213 50//152
f 54//167 70//224 69//222 53//164
f 56//175 72//230 71//228 55//172
f 59//187 75//239 74//237 58//184
f 62//199 78//248 77//246 61//196
f 64//207 80//254 79//252 63//204
s 3
f 34//100 35//103 36//106 37//109 38//112 39//115 40//118 41//121 42//124 43//127 44//130 45//133 46//136 47//139 48//142 33//97
f 66//214 67//217 68//220 69//223 70//226 71//229 72//232 73//235 74//238 75//241 76//244 77//247 78//250 79//253 80//256 65//211
s 4
f 35//104 64//205 63//202 36//108
f 37//110 62//197 61//194 38//114
f 42//125 57//177 56//174 43//129
f 47//140 52//157 51//154 48//144
f 49//148 65//210 80//255 64//208
f 53//163 69//221 68//219 52//160
f 58//183 74//236 73//234 57//180
f 61//195 77//245 76//243 60//192
