# Exported from Wings 3D 1.5.4
mtllib Andromeda_Parachute_1_Cap.mtl
o Andromeda_Parachute_1_Cap
#33 vertices, 32 faces
v 8.7500000e-2 6.8750000e-2 -4.0155319e-18
v 8.0839459e-2 6.8750000e-2 3.3484800e-2
v 6.1871843e-2 6.8750000e-2 6.1871843e-2
v 3.3484800e-2 6.8750000e-2 8.0839459e-2
v 1.1812618e-17 6.8750000e-2 8.7500000e-2
v -3.3484800e-2 6.8750000e-2 8.0839459e-2
v -6.1871843e-2 6.8750000e-2 6.1871843e-2
v -8.0839459e-2 6.8750000e-2 3.3484800e-2
v -8.7500000e-2 6.8750000e-2 6.7001276e-18
v -8.0839459e-2 6.8750000e-2 -3.3484800e-2
v -6.1871843e-2 6.8750000e-2 -6.1871843e-2
v -3.3484800e-2 6.8750000e-2 -8.0839459e-2
v -9.6187005e-18 6.8750000e-2 -8.7500000e-2
v 3.3484800e-2 6.8750000e-2 -8.0839459e-2
v 6.1871843e-2 6.8750000e-2 -6.1871843e-2
v 8.0839459e-2 6.8750000e-2 -3.3484800e-2
v 0.10750000 6.2500000e-3 -4.7661528e-18
v 9.9317050e-2 6.2500000e-3 4.1138469e-2
v 7.6013979e-2 6.2500000e-3 7.6013979e-2
v 4.1138469e-2 6.2500000e-3 9.9317050e-2
v 1.8139530e-17 6.2500000e-3 0.10750000
v -4.1138469e-2 6.2500000e-3 9.9317050e-2
v -7.6013979e-2 6.2500000e-3 7.6013979e-2
v -9.9317050e-2 6.2500000e-3 4.1138469e-2
v -0.10750000 6.2500000e-3 8.3988003e-18
v -9.9317050e-2 6.2500000e-3 -4.1138469e-2
v -7.6013979e-2 6.2500000e-3 -7.6013979e-2
v -4.1138469e-2 6.2500000e-3 -9.9317050e-2
v -8.1903766e-18 6.2500000e-3 -0.10750000
v 4.1138469e-2 6.2500000e-3 -9.9317050e-2
v 7.6013979e-2 6.2500000e-3 -7.6013979e-2
v 9.9317050e-2 6.2500000e-3 -4.1138469e-2
v 1.9898299e-18 6.8750000e-2 -1.7791058e-18
vt 0.49627530 0.69409484
vt 0.49754380 0.68771765
vt 0.49754380 0.70047202
vt 0.50115618 0.68231133
vt 0.50115618 0.70587834
vt 0.50656250 0.70949072
vt 0.50656250 0.67869895
vt 0.51293969 0.67743045
vt 0.51293969 0.69409484
vt 0.51293969 0.71075923
vt 0.51931687 0.67869895
vt 0.51931687 0.70949072
vt 0.52472319 0.68231133
vt 0.52472319 0.70587834
vt 0.52833557 0.68771765
vt 0.52833557 0.70047202
vt 0.52960408 0.69409484
vt 0.54866365 0.68129405
vt 0.54866365 0.68769288
vt 0.54866365 0.69418350
vt 0.54866365 0.70067412
vt 0.54866365 0.70707295
vt 0.54866365 0.68129405
vt 0.54866365 0.68769288
vt 0.54866365 0.69418350
vt 0.54866365 0.70067412
vt 0.54866365 0.70707295
vt 0.54866365 0.68129405
vt 0.54866365 0.68769288
vt 0.54866365 0.69418350
vt 0.54866365 0.70067412
vt 0.54866365 0.70707295
vt 0.56098514 0.67834789
vt 0.56098514 0.67834789
vt 0.56098514 0.68620931
vt 0.56098514 0.68620931
vt 0.56098514 0.69418350
vt 0.56098514 0.69418350
vt 0.56098514 0.70215769
vt 0.56098514 0.70215769
vt 0.56098514 0.71001911
vt 0.56098514 0.67834789
vt 0.56098514 0.68620931
vt 0.56098514 0.69418350
vt 0.56098514 0.70215769
vt 0.56098514 0.71001911
vn 0.0000000e+0 1.00000000 6.9383432e-18
vn 0.95242415 0.30477573 -2.6836808e-16
vn 0.95242415 0.30477573 -2.6836808e-16
vn 0.0000000e+0 1.00000000 5.5506746e-17
vn 0.0000000e+0 1.00000000 5.5506746e-17
vn 0.87992518 0.30477573 0.36447694
vn 0.87992518 0.30477573 0.36447694
vn 0.0000000e+0 1.00000000 1.8502249e-16
vn 0.0000000e+0 1.00000000 1.8502249e-16
vn 0.67346557 0.30477573 0.67346557
vn 0.67346557 0.30477573 0.67346557
vn 0.0000000e+0 1.00000000 7.4008994e-17
vn 0.0000000e+0 1.00000000 7.4008994e-17
vn 0.36447694 0.30477573 0.87992518
vn 0.36447694 0.30477573 0.87992518
vn 0.0000000e+0 1.00000000 -1.4801799e-16
vn 0.0000000e+0 1.00000000 -1.4801799e-16
vn 0.0000000e+0 0.30477573 0.95242415
vn 0.0000000e+0 0.30477573 0.95242415
vn 0.0000000e+0 1.00000000 0.0000000e+0
vn 0.0000000e+0 1.00000000 0.0000000e+0
vn -0.36447694 0.30477573 0.87992518
vn -0.36447694 0.30477573 0.87992518
vn 0.0000000e+0 1.00000000 0.0000000e+0
vn 0.0000000e+0 1.00000000 0.0000000e+0
vn -0.67346557 0.30477573 0.67346557
vn -0.67346557 0.30477573 0.67346557
vn 0.0000000e+0 1.00000000 7.4008994e-17
vn 0.0000000e+0 1.00000000 7.4008994e-17
vn -0.87992518 0.30477573 0.36447694
vn -0.87992518 0.30477573 0.36447694
vn 0.0000000e+0 1.00000000 3.7004497e-17
vn 0.0000000e+0 1.00000000 3.7004497e-17
vn -0.95242415 0.30477573 0.0000000e+0
vn -0.95242415 0.30477573 0.0000000e+0
vn 0.0000000e+0 1.00000000 1.2325952e-32
vn 0.0000000e+0 1.00000000 1.2325952e-32
vn -0.87992518 0.30477573 -0.36447694
vn -0.87992518 0.30477573 -0.36447694
vn 0.0000000e+0 1.00000000 -1.8502249e-16
vn 0.0000000e+0 1.00000000 -1.8502249e-16
vn -0.67346557 0.30477573 -0.67346557
vn -0.67346557 0.30477573 -0.67346557
vn 0.0000000e+0 1.00000000 2.4651903e-31
vn 0.0000000e+0 1.00000000 2.4651903e-31
vn -0.36447694 0.30477573 -0.87992518
vn -0.36447694 0.30477573 -0.87992518
vn 0.0000000e+0 1.00000000 3.7004497e-16
vn 0.0000000e+0 1.00000000 3.7004497e-16
vn -8.4747814e-17 0.30477573 -0.95242415
vn -8.4747814e-17 0.30477573 -0.95242415
vn 0.0000000e+0 1.00000000 0.0000000e+0
vn 0.0000000e+0 1.00000000 0.0000000e+0
vn 0.36447694 0.30477573 -0.87992518
vn 0.36447694 0.30477573 -0.87992518
vn 0.0000000e+0 1.00000000 -2.2202698e-16
vn 0.0000000e+0 1.00000000 -2.2202698e-16
vn 0.67346557 0.30477573 -0.67346557
vn 0.67346557 0.30477573 -0.67346557
vn 0.0000000e+0 1.00000000 -1.4801799e-16
vn 0.0000000e+0 1.00000000 -1.4801799e-16
vn 0.87992518 0.30477573 -0.36447694
vn 0.87992518 0.30477573 -0.36447694
vn 0.0000000e+0 1.00000000 1.8502249e-17
vn 0.0000000e+0 1.00000000 1.8502249e-17
vn 0.95242415 0.30477573 -2.6836808e-16
vn 0.95242415 0.30477573 -2.6836808e-16
vn 0.87992518 0.30477573 0.36447694
vn 0.87992518 0.30477573 0.36447694
vn 0.67346557 0.30477573 0.67346557
vn 0.67346557 0.30477573 0.67346557
vn 0.36447694 0.30477573 0.87992518
vn 0.36447694 0.30477573 0.87992518
vn 0.0000000e+0 0.30477573 0.95242415
vn 0.0000000e+0 0.30477573 0.95242415
vn -0.36447694 0.30477573 0.87992518
vn -0.36447694 0.30477573 0.87992518
vn -0.67346557 0.30477573 0.67346557
vn -0.67346557 0.30477573 0.67346557
vn -0.87992518 0.30477573 0.36447694
vn -0.87992518 0.30477573 0.36447694
vn -0.95242415 0.30477573 0.0000000e+0
vn -0.95242415 0.30477573 0.0000000e+0
vn -0.87992518 0.30477573 -0.36447694
vn -0.87992518 0.30477573 -0.36447694
vn -0.67346557 0.30477573 -0.67346557
vn -0.67346557 0.30477573 -0.67346557
vn -0.36447694 0.30477573 -0.87992518
vn -0.36447694 0.30477573 -0.87992518
vn -8.4747814e-17 0.30477573 -0.95242415
vn -8.4747814e-17 0.30477573 -0.95242415
vn 0.36447694 0.30477573 -0.87992518
vn 0.36447694 0.30477573 -0.87992518
vn 0.67346557 0.30477573 -0.67346557
vn 0.67346557 0.30477573 -0.67346557
vn 0.87992518 0.30477573 -0.36447694
vn 0.87992518 0.30477573 -0.36447694
g Andromeda_Parachute_1_Cap_Andromeda_Parachute_1_Cap_auv
usemtl Andromeda_Parachute_1_Cap_auv
s 1
f 1/17/4 33/9/1 2/15/8
f 2/15/9 33/9/1 3/13/13
f 3/13/12 33/9/1 4/11/17
f 4/11/16 33/9/1 5/8/21
f 5/8/20 33/9/1 6/7/25
f 6/7/24 33/9/1 7/4/29
f 7/4/28 33/9/1 8/2/33
f 8/2/32 33/9/1 9/1/37
f 9/1/36 33/9/1 10/3/41
f 10/3/40 33/9/1 11/5/45
f 11/5/44 33/9/1 12/6/49
f 12/6/48 33/9/1 13/10/53
f 13/10/52 33/9/1 14/12/57
f 14/12/56 33/9/1 15/14/61
f 15/14/60 33/9/1 16/16/65
f 16/16/64 33/9/1 1/17/5
s 2
f 1/25/2 17/38/66 32/40/96 16/26/62
f 2/24/7 18/36/69 17/38/67 1/25/3
f 3/23/11 19/34/71 18/36/68 2/24/6
f 4/21/15 20/39/73 19/41/70 3/22/10
f 5/20/19 21/37/75 20/39/72 4/21/14
f 6/19/23 22/35/77 21/37/74 5/20/18
f 7/18/27 23/33/79 22/35/76 6/19/22
f 8/26/31 24/40/81 23/41/78 7/27/26
f 9/25/35 25/38/83 24/40/80 8/26/30
f 10/24/39 26/36/85 25/38/82 9/25/34
f 11/23/43 27/34/87 26/36/84 10/24/38
f 12/31/47 28/45/89 27/46/86 11/32/42
f 13/30/51 29/44/91 28/45/88 12/31/46
f 14/29/55 30/43/93 29/44/90 13/30/50
f 15/28/59 31/42/95 30/43/92 14/29/54
f 16/26/63 32/40/97 31/41/94 15/27/58
