# Exported from Wings 3D 1.5.4
mtllib vega_solar_srf_1_pivot.mtl
o vega_solar_srf_1_pivot
#32 vertices, 17 faces
v 1.2500000e-2 1.7218911e-17 1.7347235e-18
v 8.8388348e-3 -8.8388348e-3 1.7347235e-18
v 2.1098149e-18 -1.2500000e-2 1.7347235e-18
v -8.8388348e-3 -8.8388348e-3 1.7347235e-18
v -1.2500000e-2 1.5688103e-17 1.7347235e-18
v -8.8388348e-3 8.8388348e-3 1.7347235e-18
v -9.5180205e-19 1.2500000e-2 0.0000000e+0
v 8.8388348e-3 8.8388348e-3 1.7347235e-18
v 1.2500000e-2 1.5688103e-17 -2.0000000e-2
v 8.8388348e-3 -8.8388348e-3 -2.0000000e-2
v 2.3266554e-18 -1.2500000e-2 -2.0000000e-2
v -8.8388348e-3 -8.8388348e-3 -2.0000000e-2
v -1.2500000e-2 1.4157294e-17 -2.0000000e-2
v -8.8388348e-3 8.8388348e-3 -2.0000000e-2
v -7.3496162e-19 1.2500000e-2 -2.0000000e-2
v 8.8388348e-3 8.8388348e-3 -2.0000000e-2
v -0.37500000 5.0000000e-3 -1.2500000e-2
v -0.37500000 7.9652298e-19 -7.5000000e-3
v -0.37500000 -5.0000000e-3 -1.2500000e-2
v -0.37500000 -4.2812382e-19 -1.7500000e-2
v 0.37500000 5.0000000e-3 -1.2500000e-2
v 0.37500000 1.8419958e-19 -7.5000000e-3
v 0.37500000 -5.0000000e-3 -1.2500000e-2
v 0.37500000 -1.0404472e-18 -1.7500000e-2
v -1.2500000e-2 -7.2816229e-19 -1.7500000e-2
v -1.2500000e-2 4.9648451e-19 -7.5000000e-3
v -1.0428932e-2 5.0000000e-3 -1.2500000e-2
v -1.0428932e-2 -5.0000000e-3 -1.2500000e-2
v 1.0428932e-2 5.0000000e-3 -1.2500000e-2
v 1.2500000e-2 4.8423804e-19 -7.5000000e-3
v 1.2500000e-2 -7.4040876e-19 -1.7500000e-2
v 1.0428932e-2 -5.0000000e-3 -1.2500000e-2
vt 0.75878263 0.73789692
vt 0.75878263 0.73990540
vt 0.75878263 0.74475429
vt 0.75878263 0.74960319
vt 0.75878263 0.75161167
vt 0.75878263 0.73789692
vt 0.75878263 0.73990540
vt 0.75878263 0.74475429
vt 0.75878263 0.74960319
vt 0.75878263 0.75161167
vt 0.75883018 0.78940631
vt 0.75883018 0.78940631
vt 0.75883018 0.79214926
vt 0.75883018 0.79489221
vt 0.76975442 0.73789692
vt 0.76975442 0.73990540
vt 0.76975442 0.74475429
vt 0.76975442 0.74960319
vt 0.76975442 0.75161167
vt 0.76975442 0.73789692
vt 0.76975442 0.73990540
vt 0.76975442 0.74475429
vt 0.76975442 0.74960319
vt 0.76975442 0.75161167
vt 0.80728200 0.74475429
vt 0.80929047 0.73990540
vt 0.80929047 0.74960319
vt 0.81413937 0.73789692
vt 0.81413937 0.75161167
vt 0.81898827 0.73990540
vt 0.81898827 0.74960319
vt 0.82099674 0.74475429
vt 0.95807273 0.78940631
vt 0.95807273 0.79214926
vt 0.95807273 0.79489221
vn 9.3199467e-19 1.00000000 7.8504623e-17
vn 0.0000000e+0 0.0000000e+0 1.00000000
vn -4.6599733e-19 -1.00000000 1.5700925e-16
vn 4.6599733e-19 -1.5700925e-16 -1.00000000
vn 2.3299867e-18 1.00000000 -7.8504623e-17
vn 4.6599733e-19 7.8504623e-17 1.00000000
vn -1.3979920e-18 -1.00000000 1.5700925e-16
vn 4.6599733e-19 -7.8504623e-17 -1.00000000
vn 4.6599733e-19 -1.5700925e-16 -1.00000000
vn 0.0000000e+0 0.0000000e+0 1.00000000
vn 9.3199467e-19 1.00000000 7.8504623e-17
vn -4.6599733e-19 -1.00000000 1.5700925e-16
vn 2.3299867e-18 1.00000000 -7.8504623e-17
vn 4.6599733e-19 7.8504623e-17 1.00000000
vn 4.6599733e-19 -7.8504623e-17 -1.00000000
vn -1.3979920e-18 -1.00000000 1.5700925e-16
vn 1.00000000 1.2016967e-16 9.5830839e-18
vn 1.00000000 1.2016967e-16 9.5830839e-18
vn 0.70710678 -0.70710678 9.5830839e-17
vn 0.70710678 -0.70710678 9.5830839e-17
vn 6.0084837e-17 -1.00000000 1.1499701e-16
vn 6.0084837e-17 -1.00000000 1.1499701e-16
vn -0.70710678 -0.70710678 6.7081587e-17
vn -0.70710678 -0.70710678 6.7081587e-17
vn -1.00000000 -1.8025451e-16 -9.5830839e-18
vn -1.00000000 -1.8025451e-16 -9.5830839e-18
vn -0.70710678 0.70710678 -1.0541392e-16
vn -0.70710678 0.70710678 -1.0541392e-16
vn -9.0127256e-17 1.00000000 -1.1499701e-16
vn -9.0127256e-17 1.00000000 -1.1499701e-16
vn 0.70710678 0.70710678 -5.7498503e-17
vn 0.70710678 0.70710678 -5.7498503e-17
vn 6.1331737e-17 -6.9388939e-17 -1.00000000
vn 1.00000000 1.2016967e-16 9.5830839e-18
vn 1.00000000 1.2016967e-16 9.5830839e-18
vn 6.1331737e-17 -6.9388939e-17 -1.00000000
vn 0.70710678 -0.70710678 9.5830839e-17
vn 0.70710678 -0.70710678 9.5830839e-17
vn 6.1331737e-17 -6.9388939e-17 -1.00000000
vn 6.0084837e-17 -1.00000000 1.1499701e-16
vn 6.0084837e-17 -1.00000000 1.1499701e-16
vn 6.1331737e-17 -6.9388939e-17 -1.00000000
vn -0.70710678 -0.70710678 6.7081587e-17
vn -0.70710678 -0.70710678 6.7081587e-17
vn 6.1331737e-17 -6.9388939e-17 -1.00000000
vn -1.00000000 -1.8025451e-16 -9.5830839e-18
vn -1.00000000 -1.8025451e-16 -9.5830839e-18
vn 6.1331737e-17 -6.9388939e-17 -1.00000000
vn -0.70710678 0.70710678 -1.0541392e-16
vn -0.70710678 0.70710678 -1.0541392e-16
vn 6.1331737e-17 -6.9388939e-17 -1.00000000
vn -9.0127256e-17 1.00000000 -1.1499701e-16
vn -9.0127256e-17 1.00000000 -1.1499701e-16
vn 6.1331737e-17 -6.9388939e-17 -1.00000000
vn 0.70710678 0.70710678 -5.7498503e-17
vn 0.70710678 0.70710678 -5.7498503e-17
g vega_solar_srf_1_pivot_vega_solar_srf_1_pivot_auv
usemtl vega_solar_srf_1_pivot_auv
s 1
f 10/26/36 11/28/39 12/30/42 13/32/45 14/31/48 15/29/51 16/27/54 9/25/33
f 17/13/1 27/34/11 25/35/9 20/14/4
f 18/11/2 26/33/10 27/34/11 17/13/1
f 19/13/3 28/34/12 26/35/10 18/14/2
f 20/12/4 25/33/9 28/34/12 19/13/3
f 21/13/5 29/34/13 30/35/14 22/14/6
f 22/11/6 30/33/14 32/34/16 23/13/7
f 23/13/7 32/34/16 31/35/15 24/14/8
f 24/12/8 31/33/15 29/34/13 21/13/5
s 2
f 1/3/17 9/17/34 16/18/55 8/4/31
f 2/2/20 10/16/38 9/17/35 1/3/18
f 3/1/22 11/15/41 10/16/37 2/2/19
f 4/9/24 12/23/44 11/24/40 3/10/21
f 5/8/26 13/22/47 12/23/43 4/9/23
f 6/7/28 14/21/50 13/22/46 5/8/25
f 7/6/30 15/20/53 14/21/49 6/7/27
f 8/4/32 16/18/56 15/19/52 7/5/29
