# Exported from Wings 3D 1.5.4
mtllib vega_solar_srf_1_panel_3.mtl
o vega_solar_srf_1_panel_3
#28 vertices, 22 faces
v -2.5000000e-2 -6.2500000e-3 6.2500000e-3
v -2.5000000e-2 -6.2500000e-3 -6.2500000e-3
v -2.5000000e-2 3.4375000e-2 6.2500000e-3
v -2.5000000e-2 3.4375000e-2 -6.2500000e-3
v -1.2500000e-2 -6.2500000e-3 6.2500000e-3
v -1.2500000e-2 -6.2500000e-3 -6.2500000e-3
v -1.2500000e-2 3.4375000e-2 6.2500000e-3
v -1.2500000e-2 3.4375000e-2 -6.2500000e-3
v -1.2500000e-2 2.1875000e-2 -6.2500000e-3
v -2.5000000e-2 2.1875000e-2 -6.2500000e-3
v 1.2500000e-2 -6.2500000e-3 6.2500000e-3
v 1.2500000e-2 -6.2500000e-3 -6.2500000e-3
v 1.2500000e-2 3.4375000e-2 6.2500000e-3
v 1.2500000e-2 3.4375000e-2 -6.2500000e-3
v 2.5000000e-2 -6.2500000e-3 6.2500000e-3
v 2.5000000e-2 -6.2500000e-3 -6.2500000e-3
v 2.5000000e-2 3.4375000e-2 6.2500000e-3
v 2.5000000e-2 3.4375000e-2 -6.2500000e-3
v 2.5000000e-2 2.1875000e-2 -6.2500000e-3
v 1.2500000e-2 2.1875000e-2 -6.2500000e-3
v -0.37500000 2.1875000e-2 -0.50625000
v -0.37500000 2.1875000e-2 -6.2500000e-3
v -0.37500000 3.4375000e-2 -0.50625000
v -0.37500000 3.4375000e-2 -6.2500000e-3
v 0.37500000 2.1875000e-2 -0.50625000
v 0.37500000 2.1875000e-2 -6.2500000e-3
v 0.37500000 3.4375000e-2 -0.50625000
v 0.37500000 3.4375000e-2 -6.2500000e-3
vt 3.8039640e-2 0.67665260
vt 3.8039640e-2 0.96154667
vt 0.22937601 0.67665260
vt 0.22937601 0.96154667
vt 0.26452519 0.67665260
vt 0.26452519 0.96154667
vt 0.45744191 0.67665260
vt 0.45744191 0.96154667
vt 0.49282777 0.67665260
vt 0.49282777 0.96154667
vt 0.50312816 0.67665260
vt 0.50312816 0.96154667
vt 0.53952874 0.67665260
vt 0.53952874 0.96154667
vt 0.54983350 0.67665260
vt 0.54983350 0.96154667
vt 0.58873726 0.77280036
vt 0.58873726 0.96154667
vt 0.59846405 0.77280036
vt 0.59846405 0.96154667
vt 0.63534323 0.77280036
vt 0.63534323 0.96154667
vt 0.64562609 0.77280036
vt 0.64562609 0.96154667
vt 0.86903801 0.84159772
vt 0.86904370 0.87296045
vt 0.86905362 0.86251366
vt 0.87426622 0.84159417
vt 0.87427009 0.83636769
vt 0.87427622 0.87820517
vt 0.87428029 0.87296421
vt 0.87949492 0.84158425
vt 0.87950476 0.83635881
vt 0.87950977 0.87296421
vt 0.87951635 0.87820357
vt 0.88471808 0.84157166
vt 0.88473181 0.87298498
vt 0.88474726 0.86250371
vt 0.92565692 0.84701999
vt 0.92565692 0.86793998
vt 0.93088692 0.84701999
vt 0.93088692 0.86793998
vn 0.0000000e+0 -1.00000000 0.0000000e+0
vn 0.0000000e+0 0.0000000e+0 1.00000000
vn -1.00000000 0.0000000e+0 0.0000000e+0
vn 0.0000000e+0 -1.00000000 0.0000000e+0
vn -1.00000000 0.0000000e+0 0.0000000e+0
vn 0.0000000e+0 0.0000000e+0 -1.00000000
vn 0.0000000e+0 1.00000000 0.0000000e+0
vn 0.0000000e+0 0.0000000e+0 1.00000000
vn -1.00000000 0.0000000e+0 0.0000000e+0
vn -1.00000000 0.0000000e+0 0.0000000e+0
vn 0.0000000e+0 1.00000000 0.0000000e+0
vn -1.00000000 0.0000000e+0 0.0000000e+0
vn 0.0000000e+0 -1.00000000 0.0000000e+0
vn 0.0000000e+0 0.0000000e+0 1.00000000
vn 1.00000000 0.0000000e+0 0.0000000e+0
vn 0.0000000e+0 -1.00000000 0.0000000e+0
vn 0.0000000e+0 0.0000000e+0 -1.00000000
vn 1.00000000 0.0000000e+0 0.0000000e+0
vn 0.0000000e+0 1.00000000 0.0000000e+0
vn 0.0000000e+0 0.0000000e+0 1.00000000
vn 1.00000000 0.0000000e+0 0.0000000e+0
vn 1.00000000 0.0000000e+0 0.0000000e+0
vn 0.0000000e+0 1.00000000 0.0000000e+0
vn 1.00000000 0.0000000e+0 0.0000000e+0
vn 1.00000000 0.0000000e+0 0.0000000e+0
vn 0.0000000e+0 0.0000000e+0 -1.00000000
vn 1.00000000 0.0000000e+0 0.0000000e+0
vn -1.00000000 0.0000000e+0 0.0000000e+0
vn 0.0000000e+0 0.0000000e+0 -1.00000000
vn -1.00000000 0.0000000e+0 0.0000000e+0
vn 0.0000000e+0 -1.00000000 0.0000000e+0
vn 0.0000000e+0 0.0000000e+0 1.00000000
vn -1.00000000 0.0000000e+0 0.0000000e+0
vn 0.0000000e+0 -1.00000000 0.0000000e+0
vn -1.00000000 0.0000000e+0 0.0000000e+0
vn 0.0000000e+0 0.0000000e+0 -1.00000000
vn 0.0000000e+0 1.00000000 0.0000000e+0
vn 0.0000000e+0 0.0000000e+0 1.00000000
vn -1.00000000 0.0000000e+0 0.0000000e+0
vn -1.00000000 0.0000000e+0 0.0000000e+0
vn 0.0000000e+0 1.00000000 0.0000000e+0
vn -1.00000000 0.0000000e+0 0.0000000e+0
vn 0.0000000e+0 -1.00000000 0.0000000e+0
vn 0.0000000e+0 0.0000000e+0 1.00000000
vn 1.00000000 0.0000000e+0 0.0000000e+0
vn 0.0000000e+0 -1.00000000 0.0000000e+0
vn 0.0000000e+0 0.0000000e+0 -1.00000000
vn 1.00000000 0.0000000e+0 0.0000000e+0
vn 0.0000000e+0 1.00000000 0.0000000e+0
vn 0.0000000e+0 0.0000000e+0 1.00000000
vn 1.00000000 0.0000000e+0 0.0000000e+0
vn 1.00000000 0.0000000e+0 0.0000000e+0
vn 0.0000000e+0 1.00000000 0.0000000e+0
vn 1.00000000 0.0000000e+0 0.0000000e+0
vn 1.00000000 0.0000000e+0 0.0000000e+0
vn 0.0000000e+0 0.0000000e+0 -1.00000000
vn 1.00000000 0.0000000e+0 0.0000000e+0
vn -1.00000000 0.0000000e+0 0.0000000e+0
vn 0.0000000e+0 0.0000000e+0 -1.00000000
vn -1.00000000 0.0000000e+0 0.0000000e+0
vn 0.0000000e+0 -1.00000000 0.0000000e+0
vn 0.0000000e+0 0.0000000e+0 -1.00000000
vn -1.00000000 0.0000000e+0 0.0000000e+0
vn 0.0000000e+0 -1.00000000 0.0000000e+0
vn 0.0000000e+0 0.0000000e+0 1.00000000
vn -1.00000000 0.0000000e+0 0.0000000e+0
vn 0.0000000e+0 1.00000000 0.0000000e+0
vn 0.0000000e+0 0.0000000e+0 -1.00000000
vn -1.00000000 0.0000000e+0 0.0000000e+0
vn 0.0000000e+0 1.00000000 0.0000000e+0
vn 0.0000000e+0 0.0000000e+0 1.00000000
vn -1.00000000 0.0000000e+0 0.0000000e+0
vn 0.0000000e+0 -1.00000000 0.0000000e+0
vn 0.0000000e+0 0.0000000e+0 -1.00000000
vn 1.00000000 0.0000000e+0 0.0000000e+0
vn 0.0000000e+0 -1.00000000 0.0000000e+0
vn 0.0000000e+0 0.0000000e+0 1.00000000
vn 1.00000000 0.0000000e+0 0.0000000e+0
vn 0.0000000e+0 1.00000000 0.0000000e+0
vn 0.0000000e+0 0.0000000e+0 -1.00000000
vn 1.00000000 0.0000000e+0 0.0000000e+0
vn 0.0000000e+0 1.00000000 0.0000000e+0
vn 0.0000000e+0 0.0000000e+0 1.00000000
vn 1.00000000 0.0000000e+0 0.0000000e+0
g vega_solar_srf_1_panel_3_vega_solar_srf_1_panel_3_auv
usemtl vega_solar_srf_1_panel_3_auv
s 1
f 2/29/4 6/33/16 5/32/13 1/28/1
f 3/31/7 7/34/19 8/35/23 4/30/11
f 12/29/34 16/33/46 15/32/43 11/28/31
f 13/31/37 17/34/49 18/35/53 14/30/41
f 22/24/66 24/22/72 23/21/69 21/23/63
f 25/20/75 27/18/81 28/17/84 26/19/78
s 2
f 1/28/2 5/32/14 7/34/20 3/31/8
f 10/42/29 9/40/26 6/39/17 2/41/6
f 11/28/32 15/32/44 17/34/50 13/31/38
f 20/42/59 19/40/56 16/39/47 12/41/36
f 21/7/61 25/8/73 26/6/76 22/5/64
f 24/2/70 28/1/82 27/3/79 23/4/67
s 3
f 1/28/3 3/31/9 10/27/28 2/25/5
f 4/26/12 10/27/30 3/31/10
f 6/36/18 9/38/27 7/34/22 5/32/15
f 7/34/21 9/38/25 8/37/24
f 11/28/33 13/31/39 20/27/58 12/25/35
f 14/26/42 20/27/60 13/31/40
f 16/36/48 19/38/57 17/34/52 15/32/45
f 17/34/51 19/38/55 18/37/54
f 22/11/65 26/12/77 28/10/83 24/9/71
f 23/14/68 27/13/80 25/15/74 21/16/62
