# Exported from Wings 3D 1.5.4
mtllib vega_solar_srf_1_panel_2.mtl
o vega_solar_srf_1_panel_2
#18 vertices, 14 faces
v -0.37500000 -6.2500000e-3 -0.49375000
v -0.37500000 -6.2500000e-3 6.2500000e-3
v -0.37500000 6.2500000e-3 -0.49375000
v -0.37500000 6.2500000e-3 6.2500000e-3
v 0.37500000 -6.2500000e-3 -0.49375000
v 0.37500000 -6.2500000e-3 6.2500000e-3
v 0.37500000 6.2500000e-3 -0.49375000
v 0.37500000 6.2500000e-3 6.2500000e-3
v -1.2500000e-2 -3.4375000e-2 -0.50625000
v -1.2500000e-2 -3.4375000e-2 -0.49375000
v -1.2500000e-2 6.2500000e-3 -0.50625000
v -1.2500000e-2 6.2500000e-3 -0.49375000
v 1.2500000e-2 -3.4375000e-2 -0.50625000
v 1.2500000e-2 -3.4375000e-2 -0.49375000
v 1.2500000e-2 6.2500000e-3 -0.50625000
v 1.2500000e-2 6.2500000e-3 -0.49375000
v 1.2500000e-2 -6.2500000e-3 -0.49375000
v -1.2500000e-2 -6.2500000e-3 -0.49375000
vt 3.8039640e-2 0.67665260
vt 3.8039640e-2 0.96154667
vt 0.22937601 0.67665260
vt 0.22937601 0.96154667
vt 0.26452519 0.67665260
vt 0.26452519 0.96154667
vt 0.45744191 0.67665260
vt 0.45744191 0.96154667
vt 0.49282777 0.67665260
vt 0.49282777 0.96154667
vt 0.50312816 0.67665260
vt 0.50312816 0.96154667
vt 0.53952874 0.67665260
vt 0.53952874 0.96154667
vt 0.54983350 0.67665260
vt 0.54983350 0.96154667
vt 0.58873726 0.77280036
vt 0.58873726 0.96154667
vt 0.59846405 0.77280036
vt 0.59846405 0.96154667
vt 0.63534323 0.77280036
vt 0.63534323 0.96154667
vt 0.64562609 0.77280036
vt 0.64562609 0.96154667
vt 0.75949340 0.84126581
vt 0.75949891 0.86331248
vt 0.75950047 0.87432706
vt 0.76498981 0.87984707
vt 0.76500552 0.84126008
vt 0.76500649 0.87433177
vt 0.76502305 0.83574504
vt 0.77601927 0.87985459
vt 0.77602959 0.87433177
vt 0.77603070 0.84125720
vt 0.77603276 0.83574998
vt 0.78153891 0.84125792
vt 0.78154510 0.87432500
vt 0.78154758 0.86330181
vt 0.81916280 0.84677591
vt 0.81916280 0.86882372
vt 0.83018670 0.84677591
vt 0.83018670 0.86882372
vn 0.0000000e+0 -1.00000000 0.0000000e+0
vn 0.0000000e+0 0.0000000e+0 -1.00000000
vn -1.00000000 0.0000000e+0 0.0000000e+0
vn 0.0000000e+0 -1.00000000 0.0000000e+0
vn 0.0000000e+0 0.0000000e+0 1.00000000
vn -1.00000000 0.0000000e+0 0.0000000e+0
vn 0.0000000e+0 1.00000000 0.0000000e+0
vn 0.0000000e+0 0.0000000e+0 -1.00000000
vn -1.00000000 0.0000000e+0 0.0000000e+0
vn 0.0000000e+0 1.00000000 0.0000000e+0
vn 0.0000000e+0 0.0000000e+0 1.00000000
vn -1.00000000 0.0000000e+0 0.0000000e+0
vn 0.0000000e+0 -1.00000000 0.0000000e+0
vn 0.0000000e+0 0.0000000e+0 -1.00000000
vn 1.00000000 0.0000000e+0 0.0000000e+0
vn 0.0000000e+0 -1.00000000 0.0000000e+0
vn 0.0000000e+0 0.0000000e+0 1.00000000
vn 1.00000000 0.0000000e+0 0.0000000e+0
vn 0.0000000e+0 1.00000000 0.0000000e+0
vn 0.0000000e+0 0.0000000e+0 -1.00000000
vn 1.00000000 0.0000000e+0 0.0000000e+0
vn 0.0000000e+0 1.00000000 0.0000000e+0
vn 0.0000000e+0 0.0000000e+0 1.00000000
vn 1.00000000 0.0000000e+0 0.0000000e+0
vn 0.0000000e+0 -1.00000000 0.0000000e+0
vn 0.0000000e+0 0.0000000e+0 -1.00000000
vn -1.00000000 0.0000000e+0 0.0000000e+0
vn 0.0000000e+0 -1.00000000 0.0000000e+0
vn -1.00000000 0.0000000e+0 0.0000000e+0
vn 0.0000000e+0 0.0000000e+0 1.00000000
vn 0.0000000e+0 1.00000000 0.0000000e+0
vn 0.0000000e+0 0.0000000e+0 -1.00000000
vn -1.00000000 0.0000000e+0 0.0000000e+0
vn -1.00000000 0.0000000e+0 0.0000000e+0
vn 0.0000000e+0 1.00000000 0.0000000e+0
vn -1.00000000 0.0000000e+0 0.0000000e+0
vn 0.0000000e+0 -1.00000000 0.0000000e+0
vn 0.0000000e+0 0.0000000e+0 -1.00000000
vn 1.00000000 0.0000000e+0 0.0000000e+0
vn 0.0000000e+0 -1.00000000 0.0000000e+0
vn 0.0000000e+0 0.0000000e+0 1.00000000
vn 1.00000000 0.0000000e+0 0.0000000e+0
vn 0.0000000e+0 1.00000000 0.0000000e+0
vn 0.0000000e+0 0.0000000e+0 -1.00000000
vn 1.00000000 0.0000000e+0 0.0000000e+0
vn 1.00000000 0.0000000e+0 0.0000000e+0
vn 0.0000000e+0 1.00000000 0.0000000e+0
vn 1.00000000 0.0000000e+0 0.0000000e+0
vn 1.00000000 0.0000000e+0 0.0000000e+0
vn 0.0000000e+0 0.0000000e+0 1.00000000
vn 1.00000000 0.0000000e+0 0.0000000e+0
vn -1.00000000 0.0000000e+0 0.0000000e+0
vn 0.0000000e+0 0.0000000e+0 1.00000000
vn -1.00000000 0.0000000e+0 0.0000000e+0
g vega_solar_srf_1_panel_2_vega_solar_srf_1_panel_2_auv
usemtl vega_solar_srf_1_panel_2_auv
s 1
f 2/24/6 4/22/12 3/21/9 1/23/3
f 5/20/15 7/18/21 8/17/24 6/19/18
f 10/39/30 14/41/41 17/42/50 18/40/53
f 11/33/32 15/30/44 13/29/38 9/34/26
s 2
f 1/7/1 5/8/13 6/6/16 2/5/4
f 4/2/10 8/1/22 7/3/19 3/4/7
f 9/34/25 13/29/37 14/31/40 10/35/28
f 12/32/35 16/28/47 15/30/43 11/33/31
s 3
f 2/11/5 6/12/17 8/10/23 4/9/11
f 3/14/8 7/13/20 5/15/14 1/16/2
f 10/36/29 18/38/52 11/33/33 9/34/27
f 11/33/34 18/38/54 12/37/36
f 13/29/39 15/30/46 17/26/51 14/25/42
f 16/27/48 17/26/49 15/30/45
