# Exported from Wings 3D 1.5.4
mtllib vega_solar_srf_1_panel_4.mtl
o vega_solar_srf_1_panel_4
#18 vertices, 14 faces
v -0.37500000 -6.2500000e-3 -0.48750000
v -0.37500000 -6.2500000e-3 1.2500000e-2
v -0.37500000 6.2500000e-3 -0.48750000
v -0.37500000 6.2500000e-3 1.2500000e-2
v 0.37500000 -6.2500000e-3 -0.48750000
v 0.37500000 -6.2500000e-3 1.2500000e-2
v 0.37500000 6.2500000e-3 -0.48750000
v 0.37500000 6.2500000e-3 1.2500000e-2
v 1.2500000e-2 3.4375000e-2 -0.50000000
v 1.2500000e-2 3.4375000e-2 -0.48750000
v 1.2500000e-2 -6.2500000e-3 -0.50000000
v 1.2500000e-2 -6.2500000e-3 -0.48750000
v -1.2500000e-2 3.4375000e-2 -0.50000000
v -1.2500000e-2 3.4375000e-2 -0.48750000
v -1.2500000e-2 -6.2500000e-3 -0.50000000
v -1.2500000e-2 -6.2500000e-3 -0.48750000
v -1.2500000e-2 6.2500000e-3 -0.48750000
v 1.2500000e-2 6.2500000e-3 -0.48750000
vt 3.8039640e-2 0.67665260
vt 3.8039640e-2 0.96154667
vt 0.22937601 0.67665260
vt 0.22937601 0.96154667
vt 0.26452519 0.67665260
vt 0.26452519 0.96154667
vt 0.45744191 0.67665260
vt 0.45744191 0.96154667
vt 0.49282777 0.67665260
vt 0.49282777 0.96154667
vt 0.50312816 0.67665260
vt 0.50312816 0.96154667
vt 0.53952874 0.67665260
vt 0.53952874 0.96154667
vt 0.54983350 0.67665260
vt 0.54983350 0.96154667
vt 0.58873726 0.77280036
vt 0.58873726 0.96154667
vt 0.59846405 0.77280036
vt 0.59846405 0.96154667
vt 0.63534323 0.77280036
vt 0.63534323 0.96154667
vt 0.64562609 0.77280036
vt 0.64562609 0.96154667
vt 0.76023567 0.84098598
vt 0.76023794 0.86237703
vt 0.76025044 0.87308079
vt 0.76558786 0.84098636
vt 0.76559355 0.87307287
vt 0.76559694 0.83564442
vt 0.76560306 0.87842839
vt 0.77628044 0.83564961
vt 0.77628364 0.84098289
vt 0.77628896 0.87307287
vt 0.77628995 0.87841982
vt 0.78163509 0.86237502
vt 0.78163557 0.84098339
vt 0.78163908 0.87306707
vt 0.81919071 0.84638302
vt 0.81919071 0.86777533
vt 0.82988687 0.84638302
vt 0.82988687 0.86777533
vn 0.0000000e+0 -1.00000000 0.0000000e+0
vn 0.0000000e+0 0.0000000e+0 -1.00000000
vn -1.00000000 0.0000000e+0 0.0000000e+0
vn 0.0000000e+0 -1.00000000 0.0000000e+0
vn 0.0000000e+0 0.0000000e+0 1.00000000
vn -1.00000000 0.0000000e+0 0.0000000e+0
vn 0.0000000e+0 1.00000000 0.0000000e+0
vn 0.0000000e+0 0.0000000e+0 -1.00000000
vn -1.00000000 0.0000000e+0 0.0000000e+0
vn 0.0000000e+0 1.00000000 0.0000000e+0
vn 0.0000000e+0 0.0000000e+0 1.00000000
vn -1.00000000 0.0000000e+0 0.0000000e+0
vn 0.0000000e+0 -1.00000000 0.0000000e+0
vn 0.0000000e+0 0.0000000e+0 -1.00000000
vn 1.00000000 0.0000000e+0 0.0000000e+0
vn 0.0000000e+0 -1.00000000 0.0000000e+0
vn 0.0000000e+0 0.0000000e+0 1.00000000
vn 1.00000000 0.0000000e+0 0.0000000e+0
vn 0.0000000e+0 1.00000000 0.0000000e+0
vn 0.0000000e+0 0.0000000e+0 -1.00000000
vn 1.00000000 0.0000000e+0 0.0000000e+0
vn 0.0000000e+0 1.00000000 0.0000000e+0
vn 0.0000000e+0 0.0000000e+0 1.00000000
vn 1.00000000 0.0000000e+0 0.0000000e+0
vn 0.0000000e+0 1.00000000 0.0000000e+0
vn 0.0000000e+0 0.0000000e+0 -1.00000000
vn 1.00000000 -2.0185873e-16 -3.7848512e-17
vn 0.0000000e+0 1.00000000 0.0000000e+0
vn 1.00000000 -2.0185873e-16 -3.7848512e-17
vn 0.0000000e+0 0.0000000e+0 1.00000000
vn -6.9388939e-17 -1.00000000 0.0000000e+0
vn 0.0000000e+0 0.0000000e+0 -1.00000000
vn 1.00000000 -2.7440171e-16 -1.8924256e-17
vn 1.00000000 -2.7440171e-16 -1.8924256e-17
vn -6.9388939e-17 -1.00000000 0.0000000e+0
vn 1.00000000 -3.4694470e-16 0.0000000e+0
vn 0.0000000e+0 1.00000000 0.0000000e+0
vn 0.0000000e+0 0.0000000e+0 -1.00000000
vn -1.00000000 2.0185873e-16 3.7848512e-17
vn 0.0000000e+0 1.00000000 0.0000000e+0
vn 0.0000000e+0 0.0000000e+0 1.00000000
vn -1.00000000 2.0185873e-16 3.7848512e-17
vn -6.9388939e-17 -1.00000000 0.0000000e+0
vn 0.0000000e+0 0.0000000e+0 -1.00000000
vn -1.00000000 2.7440171e-16 1.8924256e-17
vn -1.00000000 2.7440171e-16 1.8924256e-17
vn -6.9388939e-17 -1.00000000 0.0000000e+0
vn -1.00000000 3.4694470e-16 0.0000000e+0
vn -1.00000000 2.7440171e-16 1.8924256e-17
vn 0.0000000e+0 0.0000000e+0 1.00000000
vn -1.00000000 2.7440171e-16 1.8924256e-17
vn 1.00000000 -2.7440171e-16 -1.8924256e-17
vn 0.0000000e+0 0.0000000e+0 1.00000000
vn 1.00000000 -2.7440171e-16 -1.8924256e-17
g vega_solar_srf_1_panel_4_vega_solar_srf_1_panel_4_auv
usemtl vega_solar_srf_1_panel_4_auv
s 1
f 2/24/6 4/22/12 3/21/9 1/23/3
f 5/20/15 7/18/21 8/17/24 6/19/18
f 10/39/30 14/41/41 17/42/50 18/40/53
f 11/34/32 15/29/44 13/28/38 9/33/26
s 2
f 1/7/1 5/8/13 6/6/16 2/5/4
f 4/2/10 8/1/22 7/3/19 3/4/7
f 9/33/25 13/28/37 14/30/40 10/32/28
f 12/35/35 16/31/47 15/29/43 11/34/31
s 3
f 2/11/5 6/12/17 8/10/23 4/9/11
f 3/14/8 7/13/20 5/15/14 1/16/2
f 10/37/29 18/36/52 11/34/33 9/33/27
f 11/34/34 18/36/54 12/38/36
f 13/28/39 15/29/46 17/26/51 14/25/42
f 16/27/48 17/26/49 15/29/45
