# Exported from Wings 3D 1.5.4
mtllib rotanev_battery_s2_2.mtl
o rotanev_battery_s2_2
#104 vertices, 70 faces
v 0.99474461 9.3750000e-2 -0.84207391
v 0.94516003 6.2500000e-2 -0.80402632
v 0.99474461 0.53125000 -0.84207391
v 0.94516003 0.56250000 -0.80402632
v 1.07083979 9.3750000e-2 -0.74290474
v 1.02125520 6.2500000e-2 -0.70485715
v 1.07083979 0.53125000 -0.74290474
v 1.02125520 0.56250000 -0.70485715
v -0.99474461 9.3750000e-2 0.84207391
v -0.94516003 6.2500000e-2 0.80402632
v -0.99474461 0.53125000 0.84207391
v -0.94516003 0.56250000 0.80402632
v -1.07083979 9.3750000e-2 0.74290474
v -1.02125520 6.2500000e-2 0.70485715
v -1.07083979 0.53125000 0.74290474
v -1.02125520 0.56250000 0.70485715
v -0.99474461 9.3750000e-2 -0.84207391
v -0.94516003 6.2500000e-2 -0.80402632
v -0.99474461 0.53125000 -0.84207391
v -0.94516003 0.56250000 -0.80402632
v -1.07083979 9.3750000e-2 -0.74290474
v -1.02125520 6.2500000e-2 -0.70485715
v -1.07083979 0.53125000 -0.74290474
v -1.02125520 0.56250000 -0.70485715
v 1.25000000 0.62500000 8.3844968e-18
v 1.20740728 0.62500000 0.32352381
v 1.08253175 0.62500000 0.62500000
v 0.88388348 0.62500000 0.88388348
v 0.62500000 0.62500000 1.08253175
v 0.32352381 0.62500000 1.20740728
v 3.0616170e-16 0.62500000 1.25000000
v -0.32352381 0.62500000 1.20740728
v -0.62500000 0.62500000 1.08253175
v -0.88388348 0.62500000 0.88388348
v -1.08253175 0.62500000 0.62500000
v -1.20740728 0.62500000 0.32352381
v -1.25000000 0.62500000 1.6146535e-16
v -1.20740728 0.62500000 -0.32352381
v -1.08253175 0.62500000 -0.62500000
v -0.88388348 0.62500000 -0.88388348
v -0.62500000 0.62500000 -1.08253175
v -0.32352381 0.62500000 -1.20740728
v 0.0000000e+0 0.62500000 -1.25000000
v 0.32352381 0.62500000 -1.20740728
v 0.62500000 0.62500000 -1.08253175
v 0.88388348 0.62500000 -0.88388348
v 1.08253175 0.62500000 -0.62500000
v 1.20740728 0.62500000 -0.32352381
v 1.20740728 -0.62500000 -0.32352381
v 1.08253175 -0.62500000 -0.62500000
v 0.88388348 -0.62500000 -0.88388348
v 0.62500000 -0.62500000 -1.08253175
v 0.32352381 -0.62500000 -1.20740728
v 0.0000000e+0 -0.62500000 -1.25000000
v -0.32352381 -0.62500000 -1.20740728
v -0.62500000 -0.62500000 -1.08253175
v -0.88388348 -0.62500000 -0.88388348
v -1.08253175 -0.62500000 -0.62500000
v -1.20740728 -0.62500000 -0.32352381
v -1.25000000 -0.62500000 1.6146535e-16
v -1.20740728 -0.62500000 0.32352381
v -1.08253175 -0.62500000 0.62500000
v -0.88388348 -0.62500000 0.88388348
v -0.62500000 -0.62500000 1.08253175
v -0.32352381 -0.62500000 1.20740728
v 3.0616170e-16 -0.62500000 1.25000000
v 0.32352381 -0.62500000 1.20740728
v 0.62500000 -0.62500000 1.08253175
v 0.88388348 -0.62500000 0.88388348
v 1.08253175 -0.62500000 0.62500000
v 1.20740728 -0.62500000 0.32352381
v 1.25000000 -0.62500000 8.3844968e-18
v 1.20740728 0.0000000e+0 -0.32352381
v 1.08253175 0.0000000e+0 -0.62500000
v 0.88388348 0.0000000e+0 -0.88388348
v 0.62500000 0.0000000e+0 -1.08253175
v 0.32352381 0.0000000e+0 -1.20740728
v 0.0000000e+0 0.0000000e+0 -1.25000000
v -0.32352381 0.0000000e+0 -1.20740728
v -0.62500000 0.0000000e+0 -1.08253175
v -0.88388348 0.0000000e+0 -0.88388348
v -1.08253175 0.0000000e+0 -0.62500000
v -1.20740728 0.0000000e+0 -0.32352381
v -1.25000000 0.0000000e+0 1.6146535e-16
v -1.20740728 0.0000000e+0 0.32352381
v -1.08253175 0.0000000e+0 0.62500000
v -0.88388348 0.0000000e+0 0.88388348
v -0.62500000 0.0000000e+0 1.08253175
v -0.32352381 0.0000000e+0 1.20740728
v 3.0616170e-16 0.0000000e+0 1.25000000
v 0.32352381 0.0000000e+0 1.20740728
v 0.62500000 0.0000000e+0 1.08253175
v 0.88388348 0.0000000e+0 0.88388348
v 1.08253175 0.0000000e+0 0.62500000
v 1.20740728 0.0000000e+0 0.32352381
v 1.25000000 0.0000000e+0 8.3844968e-18
v 0.99474461 9.3750000e-2 0.84207391
v 0.94516003 6.2500000e-2 0.80402632
v 0.99474461 0.53125000 0.84207391
v 0.94516003 0.56250000 0.80402632
v 1.07083979 9.3750000e-2 0.74290474
v 1.02125520 6.2500000e-2 0.70485715
v 1.07083979 0.53125000 0.74290474
v 1.02125520 0.56250000 0.70485715
vt 9.5059375e-3 2.8078561e-2
vt 9.5059375e-3 8.9129756e-2
vt 4.1241746e-2 2.8078561e-2
vt 4.1241746e-2 8.9129756e-2
vt 7.3108492e-2 8.9129756e-2
vt 7.3108492e-2 2.8078561e-2
vt 0.10497524 2.8078561e-2
vt 0.10497524 8.9129756e-2
vt 0.13684198 2.8078561e-2
vt 0.13684198 8.9129756e-2
vt 0.16870873 2.8078561e-2
vt 0.16870873 8.9129756e-2
vt 0.20057548 2.8078561e-2
vt 0.20057548 8.9129756e-2
vt 0.23244222 2.8078561e-2
vt 0.23244222 8.9129756e-2
vt 0.26430897 2.8078561e-2
vt 0.26430897 8.9129756e-2
vt 0.29617572 2.8078561e-2
vt 0.29617572 8.9129756e-2
vt 0.32804246 2.8078561e-2
vt 0.32804246 8.9129756e-2
vt 0.35990921 2.8078561e-2
vt 0.35990921 8.9129756e-2
vt 0.39177595 2.8078561e-2
vt 0.39177595 8.9129756e-2
vt 0.42364270 2.8078561e-2
vt 0.42364270 8.9129756e-2
vt 0.45550945 8.9129756e-2
vt 0.45550945 2.8078561e-2
vt 0.48737619 8.9129756e-2
vt 0.48737619 2.8078561e-2
vt 0.51924294 2.8078561e-2
vt 0.51924294 8.9129756e-2
vt 0.55110968 2.8078561e-2
vt 0.55110968 8.9129756e-2
vt 0.58297643 2.8078561e-2
vt 0.58297643 8.9129756e-2
vt 0.61484318 2.8078561e-2
vt 0.61484318 8.9129756e-2
vt 0.64670992 2.8078561e-2
vt 0.64670992 8.9129756e-2
vt 0.67857667 2.8078561e-2
vt 0.67857667 8.9129756e-2
vt 0.71044342 2.8078561e-2
vt 0.71044342 8.9129756e-2
vt 0.74231016 2.8078561e-2
vt 0.74231016 8.9129756e-2
vt 0.77413112 2.8078561e-2
vt 0.77413112 8.9129756e-2
vt 0.78358840 0.69879140
vt 0.78358840 0.71113967
vt 0.78740423 0.69261726
vt 0.78740423 0.71731380
vt 0.79049129 0.69879140
vt 0.79049129 0.71113967
vt 0.79106694 0.79666348
vt 0.79106694 0.85719203
vt 0.79106694 0.72681337
vt 0.79106694 0.78737759
vt 0.79106694 0.79666348
vt 0.79106694 0.85719203
vt 0.82278480 0.72681337
vt 0.82278480 0.72681337
vt 0.82278480 0.78737759
vt 0.82278480 0.79666348
vt 0.82278480 0.85719203
vt 0.83371024 0.69879140
vt 0.83371024 0.71113967
vt 0.83679730 0.69261726
vt 0.83679730 0.71731380
vt 0.84061313 0.69879140
vt 0.84061313 0.71113967
vt 0.85080020 0.69879140
vt 0.85080020 0.71113967
vt 0.85450267 0.72681337
vt 0.85450267 0.78737759
vt 0.85450267 0.79666348
vt 0.85450267 0.85719203
vt 0.85450267 0.72681337
vt 0.85450267 0.78737759
vt 0.85450267 0.79666348
vt 0.85450267 0.85719203
vt 0.85461603 0.69261726
vt 0.85461603 0.71731380
vt 0.85770309 0.69879140
vt 0.85770309 0.71113967
vt 0.88622053 0.78737759
vt 0.88622053 0.79666348
vt 0.88622053 0.85719203
vt 0.88622053 0.72681337
vt 0.88622053 0.72681337
vt 0.88622053 0.78737759
vt 0.88622053 0.79666348
vt 0.88622053 0.85719203
vt 0.90092204 0.69879140
vt 0.90092204 0.71113967
vt 0.90400910 0.69261726
vt 0.90400910 0.71731380
vt 0.90782493 0.69879140
vt 0.90782493 0.71113967
vt 0.91793840 0.72681337
vt 0.91793840 0.78737759
vt 0.91793840 0.79666348
vt 0.91793840 0.85719203
vt 0.91793840 0.72681337
vt 0.91793840 0.78737759
vt 0.91793840 0.79666348
vt 0.91793840 0.85719203
vt 0.94965626 0.79666348
vt 0.94965626 0.85719203
vt 0.94965626 0.72681337
vt 0.94965626 0.72681337
vt 0.94965626 0.78737759
vt 0.94965626 0.79666348
vt 0.94965626 0.85719203
vt 0.98137413 0.78737759
vt 0.98137413 0.79666348
vt 0.98137413 0.85719203
vt 0.98137413 0.72681337
vt 0.98137413 0.78737759
vt 0.98137413 0.85719203
vt 0.98137413 0.72681337
vn 0.96592583 0.0000000e+0 -0.25881905
vn 0.86602540 0.0000000e+0 -0.50000000
vn 0.70710678 0.0000000e+0 -0.70710678
vn 0.50000000 0.0000000e+0 -0.86602540
vn 0.25881905 0.0000000e+0 -0.96592583
vn -4.7591632e-16 0.0000000e+0 -1.00000000
vn -0.25881905 0.0000000e+0 -0.96592583
vn -0.50000000 0.0000000e+0 -0.86602540
vn -0.70710678 0.0000000e+0 -0.70710678
vn -0.86602540 0.0000000e+0 -0.50000000
vn -0.96592583 0.0000000e+0 -0.25881905
vn -1.00000000 0.0000000e+0 5.7389909e-16
vn -0.96592583 0.0000000e+0 0.25881905
vn -0.86602540 0.0000000e+0 0.50000000
vn -0.70710678 0.0000000e+0 0.70710678
vn -0.50000000 0.0000000e+0 0.86602540
vn -0.25881905 0.0000000e+0 0.96592583
vn 2.9394831e-16 0.0000000e+0 1.00000000
vn 0.25881905 0.0000000e+0 0.96592583
vn 0.50000000 0.0000000e+0 0.86602540
vn 0.70710678 0.0000000e+0 0.70710678
vn 0.86602540 0.0000000e+0 0.50000000
vn 0.96592583 0.0000000e+0 0.25881905
vn 1.00000000 0.0000000e+0 -1.2597785e-16
vn 0.35479840 -0.89442719 -0.27224639
vn 0.79335334 -1.9825411e-16 -0.60876143
vn -0.60876143 4.4778995e-16 -0.79335334
vn 0.35479840 -0.89442719 -0.27224639
vn -0.60876143 4.4778995e-16 -0.79335334
vn 0.35479840 0.89442719 -0.27224639
vn 0.79335334 -1.9825411e-16 -0.60876143
vn -0.60876143 4.4778995e-16 -0.79335334
vn 0.35479840 0.89442719 -0.27224639
vn -0.60876143 4.4778995e-16 -0.79335334
vn 0.35479840 -0.89442719 -0.27224639
vn 0.79335334 -1.9825411e-16 -0.60876143
vn 0.60876143 -6.6613381e-16 0.79335334
vn 0.35479840 -0.89442719 -0.27224639
vn 0.60876143 -6.6613381e-16 0.79335334
vn 0.35479840 0.89442719 -0.27224639
vn 0.79335334 -1.9825411e-16 -0.60876143
vn 0.60876143 -6.6613381e-16 0.79335334
vn 0.35479840 0.89442719 -0.27224639
vn 0.60876143 -6.6613381e-16 0.79335334
vn -0.35479840 -0.89442719 0.27224639
vn -0.79335334 -1.9825411e-16 0.60876143
vn 0.60876143 5.2180482e-16 0.79335334
vn -0.35479840 -0.89442719 0.27224639
vn 0.60876143 5.2180482e-16 0.79335334
vn -0.35479840 0.89442719 0.27224639
vn -0.79335334 -1.9825411e-16 0.60876143
vn 0.60876143 5.2180482e-16 0.79335334
vn -0.35479840 0.89442719 0.27224639
vn 0.60876143 5.2180482e-16 0.79335334
vn -0.35479840 -0.89442719 0.27224639
vn -0.79335334 -1.9825411e-16 0.60876143
vn -0.60876143 -6.6613381e-16 -0.79335334
vn -0.35479840 -0.89442719 0.27224639
vn -0.60876143 -6.6613381e-16 -0.79335334
vn -0.35479840 0.89442719 0.27224639
vn -0.79335334 -1.9825411e-16 0.60876143
vn -0.60876143 -6.6613381e-16 -0.79335334
vn -0.35479840 0.89442719 0.27224639
vn -0.60876143 -6.6613381e-16 -0.79335334
vn -0.35479840 -0.89442719 -0.27224639
vn -0.79335334 -1.9825411e-16 -0.60876143
vn 0.60876143 4.4778995e-16 -0.79335334
vn -0.35479840 -0.89442719 -0.27224639
vn 0.60876143 4.4778995e-16 -0.79335334
vn -0.35479840 0.89442719 -0.27224639
vn -0.79335334 -1.9825411e-16 -0.60876143
vn 0.60876143 4.4778995e-16 -0.79335334
vn -0.35479840 0.89442719 -0.27224639
vn 0.60876143 4.4778995e-16 -0.79335334
vn -0.35479840 -0.89442719 -0.27224639
vn -0.79335334 -1.9825411e-16 -0.60876143
vn -0.60876143 -6.6613381e-16 0.79335334
vn -0.35479840 -0.89442719 -0.27224639
vn -0.60876143 -6.6613381e-16 0.79335334
vn -0.35479840 0.89442719 -0.27224639
vn -0.79335334 -1.9825411e-16 -0.60876143
vn -0.60876143 -6.6613381e-16 0.79335334
vn -0.35479840 0.89442719 -0.27224639
vn -0.60876143 -6.6613381e-16 0.79335334
vn 0.0000000e+0 1.00000000 -9.1510877e-17
vn 1.00000000 0.0000000e+0 -1.2597785e-16
vn 1.00000000 0.0000000e+0 -1.2597785e-16
vn 0.0000000e+0 1.00000000 -9.1510877e-17
vn 0.96592583 0.0000000e+0 0.25881905
vn 0.96592583 0.0000000e+0 0.25881905
vn 0.0000000e+0 1.00000000 -9.1510877e-17
vn 0.86602540 0.0000000e+0 0.50000000
vn 0.86602540 0.0000000e+0 0.50000000
vn 0.0000000e+0 1.00000000 -9.1510877e-17
vn 0.70710678 0.0000000e+0 0.70710678
vn 0.70710678 0.0000000e+0 0.70710678
vn 0.0000000e+0 1.00000000 -9.1510877e-17
vn 0.50000000 0.0000000e+0 0.86602540
vn 0.50000000 0.0000000e+0 0.86602540
vn 0.0000000e+0 1.00000000 -9.1510877e-17
vn 0.25881905 0.0000000e+0 0.96592583
vn 0.25881905 0.0000000e+0 0.96592583
vn 0.0000000e+0 1.00000000 -9.1510877e-17
vn 2.9394831e-16 0.0000000e+0 1.00000000
vn 2.9394831e-16 0.0000000e+0 1.00000000
vn 0.0000000e+0 1.00000000 -9.1510877e-17
vn -0.25881905 0.0000000e+0 0.96592583
vn -0.25881905 0.0000000e+0 0.96592583
vn 0.0000000e+0 1.00000000 -9.1510877e-17
vn -0.50000000 0.0000000e+0 0.86602540
vn -0.50000000 0.0000000e+0 0.86602540
vn 0.0000000e+0 1.00000000 -9.1510877e-17
vn -0.70710678 0.0000000e+0 0.70710678
vn -0.70710678 0.0000000e+0 0.70710678
vn 0.0000000e+0 1.00000000 -9.1510877e-17
vn -0.86602540 0.0000000e+0 0.50000000
vn -0.86602540 0.0000000e+0 0.50000000
vn 0.0000000e+0 1.00000000 -9.1510877e-17
vn -0.96592583 0.0000000e+0 0.25881905
vn -0.96592583 0.0000000e+0 0.25881905
vn 0.0000000e+0 1.00000000 -9.1510877e-17
vn -1.00000000 0.0000000e+0 5.7389909e-16
vn -1.00000000 0.0000000e+0 5.7389909e-16
vn 0.0000000e+0 1.00000000 -9.1510877e-17
vn -0.96592583 0.0000000e+0 -0.25881905
vn -0.96592583 0.0000000e+0 -0.25881905
vn 0.0000000e+0 1.00000000 -9.1510877e-17
vn -0.86602540 0.0000000e+0 -0.50000000
vn -0.86602540 0.0000000e+0 -0.50000000
vn 0.0000000e+0 1.00000000 -9.1510877e-17
vn -0.70710678 0.0000000e+0 -0.70710678
vn -0.70710678 0.0000000e+0 -0.70710678
vn 0.0000000e+0 1.00000000 -9.1510877e-17
vn -0.50000000 0.0000000e+0 -0.86602540
vn -0.50000000 0.0000000e+0 -0.86602540
vn 0.0000000e+0 1.00000000 -9.1510877e-17
vn -0.25881905 0.0000000e+0 -0.96592583
vn -0.25881905 0.0000000e+0 -0.96592583
vn 0.0000000e+0 1.00000000 -9.1510877e-17
vn -4.7591632e-16 0.0000000e+0 -1.00000000
vn -4.7591632e-16 0.0000000e+0 -1.00000000
vn 0.0000000e+0 1.00000000 -9.1510877e-17
vn 0.25881905 0.0000000e+0 -0.96592583
vn 0.25881905 0.0000000e+0 -0.96592583
vn 0.0000000e+0 1.00000000 -9.1510877e-17
vn 0.50000000 0.0000000e+0 -0.86602540
vn 0.50000000 0.0000000e+0 -0.86602540
vn 0.0000000e+0 1.00000000 -9.1510877e-17
vn 0.70710678 0.0000000e+0 -0.70710678
vn 0.70710678 0.0000000e+0 -0.70710678
vn 0.0000000e+0 1.00000000 -9.1510877e-17
vn 0.86602540 0.0000000e+0 -0.50000000
vn 0.86602540 0.0000000e+0 -0.50000000
vn 0.0000000e+0 1.00000000 -9.1510877e-17
vn 0.96592583 0.0000000e+0 -0.25881905
vn 0.96592583 0.0000000e+0 -0.25881905
vn 0.0000000e+0 -1.00000000 -1.1438860e-17
vn 0.96592583 0.0000000e+0 -0.25881905
vn 0.96592583 0.0000000e+0 -0.25881905
vn 0.0000000e+0 -1.00000000 -1.1438860e-17
vn 0.86602540 0.0000000e+0 -0.50000000
vn 0.86602540 0.0000000e+0 -0.50000000
vn 0.0000000e+0 -1.00000000 -1.1438860e-17
vn 0.70710678 0.0000000e+0 -0.70710678
vn 0.70710678 0.0000000e+0 -0.70710678
vn 0.0000000e+0 -1.00000000 -1.1438860e-17
vn 0.50000000 0.0000000e+0 -0.86602540
vn 0.50000000 0.0000000e+0 -0.86602540
vn 0.0000000e+0 -1.00000000 -1.1438860e-17
vn 0.25881905 0.0000000e+0 -0.96592583
vn 0.25881905 0.0000000e+0 -0.96592583
vn 0.0000000e+0 -1.00000000 -1.1438860e-17
vn -4.7591632e-16 0.0000000e+0 -1.00000000
vn -4.7591632e-16 0.0000000e+0 -1.00000000
vn 0.0000000e+0 -1.00000000 -1.1438860e-17
vn -0.25881905 0.0000000e+0 -0.96592583
vn -0.25881905 0.0000000e+0 -0.96592583
vn 0.0000000e+0 -1.00000000 -1.1438860e-17
vn -0.50000000 0.0000000e+0 -0.86602540
vn -0.50000000 0.0000000e+0 -0.86602540
vn 0.0000000e+0 -1.00000000 -1.1438860e-17
vn -0.70710678 0.0000000e+0 -0.70710678
vn -0.70710678 0.0000000e+0 -0.70710678
vn 0.0000000e+0 -1.00000000 -1.1438860e-17
vn -0.86602540 0.0000000e+0 -0.50000000
vn -0.86602540 0.0000000e+0 -0.50000000
vn 0.0000000e+0 -1.00000000 -1.1438860e-17
vn -0.96592583 0.0000000e+0 -0.25881905
vn -0.96592583 0.0000000e+0 -0.25881905
vn 0.0000000e+0 -1.00000000 -1.1438860e-17
vn -1.00000000 0.0000000e+0 5.7389909e-16
vn -1.00000000 0.0000000e+0 5.7389909e-16
vn 0.0000000e+0 -1.00000000 -1.1438860e-17
vn -0.96592583 0.0000000e+0 0.25881905
vn -0.96592583 0.0000000e+0 0.25881905
vn 0.0000000e+0 -1.00000000 -1.1438860e-17
vn -0.86602540 0.0000000e+0 0.50000000
vn -0.86602540 0.0000000e+0 0.50000000
vn 0.0000000e+0 -1.00000000 -1.1438860e-17
vn -0.70710678 0.0000000e+0 0.70710678
vn -0.70710678 0.0000000e+0 0.70710678
vn 0.0000000e+0 -1.00000000 -1.1438860e-17
vn -0.50000000 0.0000000e+0 0.86602540
vn -0.50000000 0.0000000e+0 0.86602540
vn 0.0000000e+0 -1.00000000 -1.1438860e-17
vn -0.25881905 0.0000000e+0 0.96592583
vn -0.25881905 0.0000000e+0 0.96592583
vn 0.0000000e+0 -1.00000000 -1.1438860e-17
vn 2.9394831e-16 0.0000000e+0 1.00000000
vn 2.9394831e-16 0.0000000e+0 1.00000000
vn 0.0000000e+0 -1.00000000 -1.1438860e-17
vn 0.25881905 0.0000000e+0 0.96592583
vn 0.25881905 0.0000000e+0 0.96592583
vn 0.0000000e+0 -1.00000000 -1.1438860e-17
vn 0.50000000 0.0000000e+0 0.86602540
vn 0.50000000 0.0000000e+0 0.86602540
vn 0.0000000e+0 -1.00000000 -1.1438860e-17
vn 0.70710678 0.0000000e+0 0.70710678
vn 0.70710678 0.0000000e+0 0.70710678
vn 0.0000000e+0 -1.00000000 -1.1438860e-17
vn 0.86602540 0.0000000e+0 0.50000000
vn 0.86602540 0.0000000e+0 0.50000000
vn 0.0000000e+0 -1.00000000 -1.1438860e-17
vn 0.96592583 0.0000000e+0 0.25881905
vn 0.96592583 0.0000000e+0 0.25881905
vn 0.0000000e+0 -1.00000000 -1.1438860e-17
vn 1.00000000 0.0000000e+0 -1.2597785e-16
vn 1.00000000 0.0000000e+0 -1.2597785e-16
vn 0.35479840 -0.89442719 0.27224639
vn 0.79335334 -1.9825411e-16 0.60876143
vn -0.60876143 5.2180482e-16 0.79335334
vn 0.35479840 -0.89442719 0.27224639
vn -0.60876143 5.2180482e-16 0.79335334
vn 0.35479840 0.89442719 0.27224639
vn 0.79335334 -1.9825411e-16 0.60876143
vn -0.60876143 5.2180482e-16 0.79335334
vn 0.35479840 0.89442719 0.27224639
vn -0.60876143 5.2180482e-16 0.79335334
vn 0.35479840 -0.89442719 0.27224639
vn 0.79335334 -1.9825411e-16 0.60876143
vn 0.60876143 -6.6613381e-16 -0.79335334
vn 0.35479840 -0.89442719 0.27224639
vn 0.60876143 -6.6613381e-16 -0.79335334
vn 0.35479840 0.89442719 0.27224639
vn 0.79335334 -1.9825411e-16 0.60876143
vn 0.60876143 -6.6613381e-16 -0.79335334
vn 0.35479840 0.89442719 0.27224639
vn 0.60876143 -6.6613381e-16 -0.79335334
g rotanev_battery_s2_2_rotanev_battery_s2_2_auv
usemtl rotanev_battery_s2_2_auv
s 1
f 1/55/25 5/56/35 6/52/38 2/51/28
f 4/72/33 8/73/43 7/69/40 3/68/30
f 9/86/45 13/87/55 14/75/58 10/74/48
f 12/100/53 16/101/63 15/97/60 11/96/50
f 17/55/66 21/56/76 23/69/81 19/68/71
f 25//85 48//154 47//151 46//148 45//145 44//142 43//139 42//136 41//133 40//130 39//127 38//124 37//121 36//118 35//115 34//112 33//109 32//106 31//103 30//100 29//97 28//94 27//91 26//88
f 72//226 71//223 70//220 69//217 68//214 67//211 66//208 65//205 64//202 63//199 62//196 61//193 60//190 59//187 58//184 57//181 56//178 55//175 54//172 53//169 52//166 51//163 50//160 49//157
f 98/74/232 102/75/242 101/87/239 97/86/229
f 99/96/234 103/97/244 104/101/247 100/100/237
s 2
f 3/68/31 7/69/41 5/56/36 1/55/26
f 10/84/49 12/98/54 11/96/52 9/86/47
f 13/87/57 15/97/62 16/99/64 14/85/59
f 17/55/67 19/68/72 20/70/74 18/53/69
f 22/54/79 24/71/84 23/69/82 21/56/77
f 25/8/86 96/7/24 73/9/1 48/10/155
f 26/5/90 95/6/23 96/7/24 25/8/87
f 27/4/93 94/3/22 95/6/23 26/5/89
f 28/2/96 93/1/21 94/3/22 27/4/92
f 29/48/99 92/47/20 93/49/21 28/50/95
f 30/46/102 91/45/19 92/47/20 29/48/98
f 31/44/105 90/43/18 91/45/19 30/46/101
f 32/42/108 89/41/17 90/43/18 31/44/104
f 33/40/111 88/39/16 89/41/17 32/42/107
f 34/38/114 87/37/15 88/39/16 33/40/110
f 35/36/117 86/35/14 87/37/15 34/38/113
f 36/34/120 85/33/13 86/35/14 35/36/116
f 37/31/123 84/32/12 85/33/13 36/34/119
f 38/29/126 83/30/11 84/32/12 37/31/122
f 39/28/129 82/27/10 83/30/11 38/29/125
f 40/26/132 81/25/9 82/27/10 39/28/128
f 41/24/135 80/23/8 81/25/9 40/26/131
f 42/22/138 79/21/7 80/23/8 41/24/134
f 43/20/141 78/19/6 79/21/7 42/22/137
f 44/18/144 77/17/5 78/19/6 43/20/140
f 45/16/147 76/15/4 77/17/5 44/18/143
f 46/14/150 75/13/3 76/15/4 45/16/146
f 47/12/153 74/11/2 75/13/3 46/14/149
f 48/10/156 73/9/1 74/11/2 47/12/152
f 49/106/158 73/107/1 96/88/24 72/92/227
f 50/113/161 74/114/2 73/107/1 49/106/159
f 51/123/164 75/117/3 74/114/2 50/113/162
f 52/66/167 76/67/4 75/58/3 51/57/165
f 53/78/170 77/79/5 76/67/4 52/66/168
f 54/89/173 78/90/6 77/79/5 53/78/171
f 55/104/176 79/105/7 78/90/6 54/89/174
f 56/110/179 80/111/8 79/105/7 55/104/177
f 57/118/182 81/119/9 80/111/8 56/110/180
f 58/63/185 82/65/10 81/60/9 57/59/183
f 59/80/188 83/81/11 82/65/10 58/63/186
f 60/91/191 84/93/12 83/81/11 59/80/189
f 61/102/194 85/103/13 84/93/12 60/91/192
f 62/112/197 86/114/14 85/103/13 61/102/195
f 63/120/200 87/121/15 86/114/14 62/112/198
f 64/66/203 88/67/16 87/62/15 63/61/201
f 65/82/206 89/83/17 88/67/16 64/66/204
f 66/94/209 90/95/18 89/83/17 65/82/207
f 67/108/212 91/109/19 90/95/18 66/94/210
f 68/115/215 92/116/20 91/109/19 67/108/213
f 69/118/218 93/122/21 92/116/20 68/115/216
f 70/64/221 94/65/22 93/60/21 69/59/219
f 71/76/224 95/77/23 94/65/22 70/64/222
f 72/92/228 96/88/24 95/77/23 71/76/225
f 97/86/230 101/87/240 103/97/245 99/96/235
s 3
f 2/53/29 4/70/34 3/68/32 1/55/27
f 5/56/37 7/69/42 8/71/44 6/54/39
f 11/96/51 15/97/61 13/87/56 9/86/46
f 18/51/68 22/52/78 21/56/75 17/55/65
f 19/68/70 23/69/80 24/73/83 20/72/73
f 97/86/231 99/96/236 100/98/238 98/84/233
f 102/85/243 104/99/248 103/97/246 101/87/241
