# Exported from Wings 3D 1.5.4
mtllib rotanev_battery_s2_2.mtl
o rotanev_battery_s2_2
#88 vertices, 60 faces
v 1.25000000 0.62500000 8.3844968e-18
v 1.20740728 0.62500000 0.32352381
v 1.08253175 0.62500000 0.62500000
v 0.88388348 0.62500000 0.88388348
v 0.62500000 0.62500000 1.08253175
v 0.32352381 0.62500000 1.20740728
v 3.0616170e-16 0.62500000 1.25000000
v -0.32352381 0.62500000 1.20740728
v -0.62500000 0.62500000 1.08253175
v -0.88388348 0.62500000 0.88388348
v -1.08253175 0.62500000 0.62500000
v -1.20740728 0.62500000 0.32352381
v -1.25000000 0.62500000 1.6146535e-16
v -1.20740728 0.62500000 -0.32352381
v -1.08253175 0.62500000 -0.62500000
v -0.88388348 0.62500000 -0.88388348
v -0.62500000 0.62500000 -1.08253175
v -0.32352381 0.62500000 -1.20740728
v 0.0000000e+0 0.62500000 -1.25000000
v 0.32352381 0.62500000 -1.20740728
v 0.62500000 0.62500000 -1.08253175
v 0.88388348 0.62500000 -0.88388348
v 1.08253175 0.62500000 -0.62500000
v 1.20740728 0.62500000 -0.32352381
v 1.20740728 -0.62500000 -0.32352381
v 1.08253175 -0.62500000 -0.62500000
v 0.88388348 -0.62500000 -0.88388348
v 0.62500000 -0.62500000 -1.08253175
v 0.32352381 -0.62500000 -1.20740728
v 0.0000000e+0 -0.62500000 -1.25000000
v -0.32352381 -0.62500000 -1.20740728
v -0.62500000 -0.62500000 -1.08253175
v -0.88388348 -0.62500000 -0.88388348
v -1.08253175 -0.62500000 -0.62500000
v -1.20740728 -0.62500000 -0.32352381
v -1.25000000 -0.62500000 1.6146535e-16
v -1.20740728 -0.62500000 0.32352381
v -1.08253175 -0.62500000 0.62500000
v -0.88388348 -0.62500000 0.88388348
v -0.62500000 -0.62500000 1.08253175
v -0.32352381 -0.62500000 1.20740728
v 3.0616170e-16 -0.62500000 1.25000000
v 0.32352381 -0.62500000 1.20740728
v 0.62500000 -0.62500000 1.08253175
v 0.88388348 -0.62500000 0.88388348
v 1.08253175 -0.62500000 0.62500000
v 1.20740728 -0.62500000 0.32352381
v 1.25000000 -0.62500000 8.3844968e-18
v 1.20740728 0.0000000e+0 -0.32352381
v 1.08253175 0.0000000e+0 -0.62500000
v 0.88388348 0.0000000e+0 -0.88388348
v 0.62500000 0.0000000e+0 -1.08253175
v 0.32352381 0.0000000e+0 -1.20740728
v 0.0000000e+0 0.0000000e+0 -1.25000000
v -0.32352381 0.0000000e+0 -1.20740728
v -0.62500000 0.0000000e+0 -1.08253175
v -0.88388348 0.0000000e+0 -0.88388348
v -1.08253175 0.0000000e+0 -0.62500000
v -1.20740728 0.0000000e+0 -0.32352381
v -1.25000000 0.0000000e+0 1.6146535e-16
v -1.20740728 0.0000000e+0 0.32352381
v -1.08253175 0.0000000e+0 0.62500000
v -0.88388348 0.0000000e+0 0.88388348
v -0.62500000 0.0000000e+0 1.08253175
v -0.32352381 0.0000000e+0 1.20740728
v 3.0616170e-16 0.0000000e+0 1.25000000
v 0.32352381 0.0000000e+0 1.20740728
v 0.62500000 0.0000000e+0 1.08253175
v 0.88388348 0.0000000e+0 0.88388348
v 1.08253175 0.0000000e+0 0.62500000
v 1.20740728 0.0000000e+0 0.32352381
v 1.25000000 0.0000000e+0 8.3844968e-18
v 0.84207391 9.3750000e-2 -0.99474461
v 0.80402632 6.2500000e-2 -0.94516003
v 0.84207391 0.53125000 -0.99474461
v 0.80402632 0.56250000 -0.94516003
v 0.74290474 9.3750000e-2 -1.07083979
v 0.70485715 6.2500000e-2 -1.02125520
v 0.74290474 0.53125000 -1.07083979
v 0.70485715 0.56250000 -1.02125520
v -0.84207391 9.3750000e-2 -0.99474461
v -0.80402632 6.2500000e-2 -0.94516003
v -0.84207391 0.53125000 -0.99474461
v -0.80402632 0.56250000 -0.94516003
v -0.74290474 9.3750000e-2 -1.07083979
v -0.70485715 6.2500000e-2 -1.02125520
v -0.74290474 0.53125000 -1.07083979
v -0.70485715 0.56250000 -1.02125520
vt 9.5059375e-3 2.8078561e-2
vt 9.5059375e-3 8.9129756e-2
vt 4.1241746e-2 2.8078561e-2
vt 4.1241746e-2 8.9129756e-2
vt 7.3108492e-2 8.9129756e-2
vt 7.3108492e-2 2.8078561e-2
vt 0.10497524 2.8078561e-2
vt 0.10497524 8.9129756e-2
vt 0.13684198 2.8078561e-2
vt 0.13684198 8.9129756e-2
vt 0.16870873 2.8078561e-2
vt 0.16870873 8.9129756e-2
vt 0.20057548 2.8078561e-2
vt 0.20057548 8.9129756e-2
vt 0.23244222 2.8078561e-2
vt 0.23244222 8.9129756e-2
vt 0.26430897 2.8078561e-2
vt 0.26430897 8.9129756e-2
vt 0.29617572 2.8078561e-2
vt 0.29617572 8.9129756e-2
vt 0.32804246 2.8078561e-2
vt 0.32804246 8.9129756e-2
vt 0.35990921 2.8078561e-2
vt 0.35990921 8.9129756e-2
vt 0.39177595 2.8078561e-2
vt 0.39177595 8.9129756e-2
vt 0.42364270 2.8078561e-2
vt 0.42364270 8.9129756e-2
vt 0.45550945 8.9129756e-2
vt 0.45550945 2.8078561e-2
vt 0.48737619 8.9129756e-2
vt 0.48737619 2.8078561e-2
vt 0.51924294 2.8078561e-2
vt 0.51924294 8.9129756e-2
vt 0.55110968 2.8078561e-2
vt 0.55110968 8.9129756e-2
vt 0.58297643 2.8078561e-2
vt 0.58297643 8.9129756e-2
vt 0.61484318 2.8078561e-2
vt 0.61484318 8.9129756e-2
vt 0.64670992 2.8078561e-2
vt 0.64670992 8.9129756e-2
vt 0.67857667 2.8078561e-2
vt 0.67857667 8.9129756e-2
vt 0.71044342 2.8078561e-2
vt 0.71044342 8.9129756e-2
vt 0.74231016 2.8078561e-2
vt 0.74231016 8.9129756e-2
vt 0.77413112 2.8078561e-2
vt 0.77413112 8.9129756e-2
vt 0.78358840 0.69879140
vt 0.78358840 0.71113967
vt 0.78740423 0.69261726
vt 0.78740423 0.71731380
vt 0.79049129 0.69879140
vt 0.79049129 0.71113967
vt 0.79106694 0.79666348
vt 0.79106694 0.85719203
vt 0.79106694 0.72681337
vt 0.79106694 0.78737759
vt 0.79106694 0.79666348
vt 0.79106694 0.85719203
vt 0.82278480 0.72681337
vt 0.82278480 0.72681337
vt 0.82278480 0.78737759
vt 0.82278480 0.79666348
vt 0.82278480 0.85719203
vt 0.83371024 0.69879140
vt 0.83371024 0.71113967
vt 0.83679730 0.69261726
vt 0.83679730 0.71731380
vt 0.84061313 0.69879140
vt 0.84061313 0.71113967
vt 0.85450267 0.72681337
vt 0.85450267 0.78737759
vt 0.85450267 0.79666348
vt 0.85450267 0.85719203
vt 0.85450267 0.72681337
vt 0.85450267 0.78737759
vt 0.85450267 0.79666348
vt 0.85450267 0.85719203
vt 0.88622053 0.78737759
vt 0.88622053 0.79666348
vt 0.88622053 0.85719203
vt 0.88622053 0.72681337
vt 0.88622053 0.72681337
vt 0.88622053 0.78737759
vt 0.88622053 0.79666348
vt 0.88622053 0.85719203
vt 0.91793840 0.72681337
vt 0.91793840 0.78737759
vt 0.91793840 0.79666348
vt 0.91793840 0.85719203
vt 0.91793840 0.72681337
vt 0.91793840 0.78737759
vt 0.91793840 0.79666348
vt 0.91793840 0.85719203
vt 0.94965626 0.79666348
vt 0.94965626 0.85719203
vt 0.94965626 0.72681337
vt 0.94965626 0.72681337
vt 0.94965626 0.78737759
vt 0.94965626 0.79666348
vt 0.94965626 0.85719203
vt 0.98137413 0.78737759
vt 0.98137413 0.79666348
vt 0.98137413 0.85719203
vt 0.98137413 0.72681337
vt 0.98137413 0.78737759
vt 0.98137413 0.85719203
vt 0.98137413 0.72681337
vn 0.96592583 0.0000000e+0 -0.25881905
vn 0.86602540 0.0000000e+0 -0.50000000
vn 0.70710678 0.0000000e+0 -0.70710678
vn 0.50000000 0.0000000e+0 -0.86602540
vn 0.25881905 0.0000000e+0 -0.96592583
vn -4.7591632e-16 0.0000000e+0 -1.00000000
vn -0.25881905 0.0000000e+0 -0.96592583
vn -0.50000000 0.0000000e+0 -0.86602540
vn -0.70710678 0.0000000e+0 -0.70710678
vn -0.86602540 0.0000000e+0 -0.50000000
vn -0.96592583 0.0000000e+0 -0.25881905
vn -1.00000000 0.0000000e+0 5.7389909e-16
vn -0.96592583 0.0000000e+0 0.25881905
vn -0.86602540 0.0000000e+0 0.50000000
vn -0.70710678 0.0000000e+0 0.70710678
vn -0.50000000 0.0000000e+0 0.86602540
vn -0.25881905 0.0000000e+0 0.96592583
vn 2.9394831e-16 0.0000000e+0 1.00000000
vn 0.25881905 0.0000000e+0 0.96592583
vn 0.50000000 0.0000000e+0 0.86602540
vn 0.70710678 0.0000000e+0 0.70710678
vn 0.86602540 0.0000000e+0 0.50000000
vn 0.96592583 0.0000000e+0 0.25881905
vn 1.00000000 0.0000000e+0 -1.2597785e-16
vn 0.0000000e+0 1.00000000 -9.1510877e-17
vn 1.00000000 0.0000000e+0 -1.2597785e-16
vn 1.00000000 0.0000000e+0 -1.2597785e-16
vn 0.0000000e+0 1.00000000 -9.1510877e-17
vn 0.96592583 0.0000000e+0 0.25881905
vn 0.96592583 0.0000000e+0 0.25881905
vn 0.0000000e+0 1.00000000 -9.1510877e-17
vn 0.86602540 0.0000000e+0 0.50000000
vn 0.86602540 0.0000000e+0 0.50000000
vn 0.0000000e+0 1.00000000 -9.1510877e-17
vn 0.70710678 0.0000000e+0 0.70710678
vn 0.70710678 0.0000000e+0 0.70710678
vn 0.0000000e+0 1.00000000 -9.1510877e-17
vn 0.50000000 0.0000000e+0 0.86602540
vn 0.50000000 0.0000000e+0 0.86602540
vn 0.0000000e+0 1.00000000 -9.1510877e-17
vn 0.25881905 0.0000000e+0 0.96592583
vn 0.25881905 0.0000000e+0 0.96592583
vn 0.0000000e+0 1.00000000 -9.1510877e-17
vn 2.9394831e-16 0.0000000e+0 1.00000000
vn 2.9394831e-16 0.0000000e+0 1.00000000
vn 0.0000000e+0 1.00000000 -9.1510877e-17
vn -0.25881905 0.0000000e+0 0.96592583
vn -0.25881905 0.0000000e+0 0.96592583
vn 0.0000000e+0 1.00000000 -9.1510877e-17
vn -0.50000000 0.0000000e+0 0.86602540
vn -0.50000000 0.0000000e+0 0.86602540
vn 0.0000000e+0 1.00000000 -9.1510877e-17
vn -0.70710678 0.0000000e+0 0.70710678
vn -0.70710678 0.0000000e+0 0.70710678
vn 0.0000000e+0 1.00000000 -9.1510877e-17
vn -0.86602540 0.0000000e+0 0.50000000
vn -0.86602540 0.0000000e+0 0.50000000
vn 0.0000000e+0 1.00000000 -9.1510877e-17
vn -0.96592583 0.0000000e+0 0.25881905
vn -0.96592583 0.0000000e+0 0.25881905
vn 0.0000000e+0 1.00000000 -9.1510877e-17
vn -1.00000000 0.0000000e+0 5.7389909e-16
vn -1.00000000 0.0000000e+0 5.7389909e-16
vn 0.0000000e+0 1.00000000 -9.1510877e-17
vn -0.96592583 0.0000000e+0 -0.25881905
vn -0.96592583 0.0000000e+0 -0.25881905
vn 0.0000000e+0 1.00000000 -9.1510877e-17
vn -0.86602540 0.0000000e+0 -0.50000000
vn -0.86602540 0.0000000e+0 -0.50000000
vn 0.0000000e+0 1.00000000 -9.1510877e-17
vn -0.70710678 0.0000000e+0 -0.70710678
vn -0.70710678 0.0000000e+0 -0.70710678
vn 0.0000000e+0 1.00000000 -9.1510877e-17
vn -0.50000000 0.0000000e+0 -0.86602540
vn -0.50000000 0.0000000e+0 -0.86602540
vn 0.0000000e+0 1.00000000 -9.1510877e-17
vn -0.25881905 0.0000000e+0 -0.96592583
vn -0.25881905 0.0000000e+0 -0.96592583
vn 0.0000000e+0 1.00000000 -9.1510877e-17
vn -4.7591632e-16 0.0000000e+0 -1.00000000
vn -4.7591632e-16 0.0000000e+0 -1.00000000
vn 0.0000000e+0 1.00000000 -9.1510877e-17
vn 0.25881905 0.0000000e+0 -0.96592583
vn 0.25881905 0.0000000e+0 -0.96592583
vn 0.0000000e+0 1.00000000 -9.1510877e-17
vn 0.50000000 0.0000000e+0 -0.86602540
vn 0.50000000 0.0000000e+0 -0.86602540
vn 0.0000000e+0 1.00000000 -9.1510877e-17
vn 0.70710678 0.0000000e+0 -0.70710678
vn 0.70710678 0.0000000e+0 -0.70710678
vn 0.0000000e+0 1.00000000 -9.1510877e-17
vn 0.86602540 0.0000000e+0 -0.50000000
vn 0.86602540 0.0000000e+0 -0.50000000
vn 0.0000000e+0 1.00000000 -9.1510877e-17
vn 0.96592583 0.0000000e+0 -0.25881905
vn 0.96592583 0.0000000e+0 -0.25881905
vn 0.0000000e+0 -1.00000000 -1.1438860e-17
vn 0.96592583 0.0000000e+0 -0.25881905
vn 0.96592583 0.0000000e+0 -0.25881905
vn 0.0000000e+0 -1.00000000 -1.1438860e-17
vn 0.86602540 0.0000000e+0 -0.50000000
vn 0.86602540 0.0000000e+0 -0.50000000
vn 0.0000000e+0 -1.00000000 -1.1438860e-17
vn 0.70710678 0.0000000e+0 -0.70710678
vn 0.70710678 0.0000000e+0 -0.70710678
vn 0.0000000e+0 -1.00000000 -1.1438860e-17
vn 0.50000000 0.0000000e+0 -0.86602540
vn 0.50000000 0.0000000e+0 -0.86602540
vn 0.0000000e+0 -1.00000000 -1.1438860e-17
vn 0.25881905 0.0000000e+0 -0.96592583
vn 0.25881905 0.0000000e+0 -0.96592583
vn 0.0000000e+0 -1.00000000 -1.1438860e-17
vn -4.7591632e-16 0.0000000e+0 -1.00000000
vn -4.7591632e-16 0.0000000e+0 -1.00000000
vn 0.0000000e+0 -1.00000000 -1.1438860e-17
vn -0.25881905 0.0000000e+0 -0.96592583
vn -0.25881905 0.0000000e+0 -0.96592583
vn 0.0000000e+0 -1.00000000 -1.1438860e-17
vn -0.50000000 0.0000000e+0 -0.86602540
vn -0.50000000 0.0000000e+0 -0.86602540
vn 0.0000000e+0 -1.00000000 -1.1438860e-17
vn -0.70710678 0.0000000e+0 -0.70710678
vn -0.70710678 0.0000000e+0 -0.70710678
vn 0.0000000e+0 -1.00000000 -1.1438860e-17
vn -0.86602540 0.0000000e+0 -0.50000000
vn -0.86602540 0.0000000e+0 -0.50000000
vn 0.0000000e+0 -1.00000000 -1.1438860e-17
vn -0.96592583 0.0000000e+0 -0.25881905
vn -0.96592583 0.0000000e+0 -0.25881905
vn 0.0000000e+0 -1.00000000 -1.1438860e-17
vn -1.00000000 0.0000000e+0 5.7389909e-16
vn -1.00000000 0.0000000e+0 5.7389909e-16
vn 0.0000000e+0 -1.00000000 -1.1438860e-17
vn -0.96592583 0.0000000e+0 0.25881905
vn -0.96592583 0.0000000e+0 0.25881905
vn 0.0000000e+0 -1.00000000 -1.1438860e-17
vn -0.86602540 0.0000000e+0 0.50000000
vn -0.86602540 0.0000000e+0 0.50000000
vn 0.0000000e+0 -1.00000000 -1.1438860e-17
vn -0.70710678 0.0000000e+0 0.70710678
vn -0.70710678 0.0000000e+0 0.70710678
vn 0.0000000e+0 -1.00000000 -1.1438860e-17
vn -0.50000000 0.0000000e+0 0.86602540
vn -0.50000000 0.0000000e+0 0.86602540
vn 0.0000000e+0 -1.00000000 -1.1438860e-17
vn -0.25881905 0.0000000e+0 0.96592583
vn -0.25881905 0.0000000e+0 0.96592583
vn 0.0000000e+0 -1.00000000 -1.1438860e-17
vn 2.9394831e-16 0.0000000e+0 1.00000000
vn 2.9394831e-16 0.0000000e+0 1.00000000
vn 0.0000000e+0 -1.00000000 -1.1438860e-17
vn 0.25881905 0.0000000e+0 0.96592583
vn 0.25881905 0.0000000e+0 0.96592583
vn 0.0000000e+0 -1.00000000 -1.1438860e-17
vn 0.50000000 0.0000000e+0 0.86602540
vn 0.50000000 0.0000000e+0 0.86602540
vn 0.0000000e+0 -1.00000000 -1.1438860e-17
vn 0.70710678 0.0000000e+0 0.70710678
vn 0.70710678 0.0000000e+0 0.70710678
vn 0.0000000e+0 -1.00000000 -1.1438860e-17
vn 0.86602540 0.0000000e+0 0.50000000
vn 0.86602540 0.0000000e+0 0.50000000
vn 0.0000000e+0 -1.00000000 -1.1438860e-17
vn 0.96592583 0.0000000e+0 0.25881905
vn 0.96592583 0.0000000e+0 0.25881905
vn 0.0000000e+0 -1.00000000 -1.1438860e-17
vn 1.00000000 0.0000000e+0 -1.2597785e-16
vn 1.00000000 0.0000000e+0 -1.2597785e-16
vn 0.27224639 -0.89442719 -0.35479840
vn 0.60876143 -1.9825411e-16 -0.79335334
vn 0.79335334 5.2180482e-16 0.60876143
vn 0.27224639 -0.89442719 -0.35479840
vn 0.79335334 5.2180482e-16 0.60876143
vn 0.27224639 0.89442719 -0.35479840
vn 0.60876143 -1.9825411e-16 -0.79335334
vn 0.79335334 5.2180482e-16 0.60876143
vn 0.27224639 0.89442719 -0.35479840
vn 0.79335334 5.2180482e-16 0.60876143
vn 0.27224639 -0.89442719 -0.35479840
vn 0.60876143 -1.9825411e-16 -0.79335334
vn -0.79335334 -6.6613381e-16 -0.60876143
vn 0.27224639 -0.89442719 -0.35479840
vn -0.79335334 -6.6613381e-16 -0.60876143
vn 0.27224639 0.89442719 -0.35479840
vn 0.60876143 -1.9825411e-16 -0.79335334
vn -0.79335334 -6.6613381e-16 -0.60876143
vn 0.27224639 0.89442719 -0.35479840
vn -0.79335334 -6.6613381e-16 -0.60876143
vn -0.27224639 -0.89442719 -0.35479840
vn -0.60876143 -1.9825411e-16 -0.79335334
vn -0.79335334 5.2180482e-16 0.60876143
vn -0.27224639 -0.89442719 -0.35479840
vn -0.79335334 5.2180482e-16 0.60876143
vn -0.27224639 0.89442719 -0.35479840
vn -0.60876143 -1.9825411e-16 -0.79335334
vn -0.79335334 5.2180482e-16 0.60876143
vn -0.27224639 0.89442719 -0.35479840
vn -0.79335334 5.2180482e-16 0.60876143
vn -0.27224639 -0.89442719 -0.35479840
vn -0.60876143 -1.9825411e-16 -0.79335334
vn 0.79335334 -6.6613381e-16 -0.60876143
vn -0.27224639 -0.89442719 -0.35479840
vn 0.79335334 -6.6613381e-16 -0.60876143
vn -0.27224639 0.89442719 -0.35479840
vn -0.60876143 -1.9825411e-16 -0.79335334
vn 0.79335334 -6.6613381e-16 -0.60876143
vn -0.27224639 0.89442719 -0.35479840
vn 0.79335334 -6.6613381e-16 -0.60876143
g rotanev_battery_s2_2_rotanev_battery_s2_2_auv
usemtl rotanev_battery_s2_2_auv
s 1
f 1//25 24//94 23//91 22//88 21//85 20//82 19//79 18//76 17//73 16//70 15//67 14//64 13//61 12//58 11//55 10//52 9//49 8//46 7//43 6//40 5//37 4//34 3//31 2//28
f 48//166 47//163 46//160 45//157 44//154 43//151 42//148 41//145 40//142 39//139 38//136 37//133 36//130 35//127 34//124 33//121 32//118 31//115 30//112 29//109 28//106 27//103 26//100 25//97
f 74/51/172 78/52/182 77/56/179 73/55/169
f 75/68/174 79/69/184 80/73/187 76/72/177
f 83/68/195 87/69/205 85/56/200 81/55/190
s 2
f 1/8/26 72/7/24 49/9/1 24/10/95
f 2/5/30 71/6/23 72/7/24 1/8/27
f 3/4/33 70/3/22 71/6/23 2/5/29
f 4/2/36 69/1/21 70/3/22 3/4/32
f 5/48/39 68/47/20 69/49/21 4/50/35
f 6/46/42 67/45/19 68/47/20 5/48/38
f 7/44/45 66/43/18 67/45/19 6/46/41
f 8/42/48 65/41/17 66/43/18 7/44/44
f 9/40/51 64/39/16 65/41/17 8/42/47
f 10/38/54 63/37/15 64/39/16 9/40/50
f 11/36/57 62/35/14 63/37/15 10/38/53
f 12/34/60 61/33/13 62/35/14 11/36/56
f 13/31/63 60/32/12 61/33/13 12/34/59
f 14/29/66 59/30/11 60/32/12 13/31/62
f 15/28/69 58/27/10 59/30/11 14/29/65
f 16/26/72 57/25/9 58/27/10 15/28/68
f 17/24/75 56/23/8 57/25/9 16/26/71
f 18/22/78 55/21/7 56/23/8 17/24/74
f 19/20/81 54/19/6 55/21/7 18/22/77
f 20/18/84 53/17/5 54/19/6 19/20/80
f 21/16/87 52/15/4 53/17/5 20/18/83
f 22/14/90 51/13/3 52/15/4 21/16/86
f 23/12/93 50/11/2 51/13/3 22/14/89
f 24/10/96 49/9/1 50/11/2 23/12/92
f 25/94/98 49/95/1 72/82/24 48/86/167
f 26/101/101 50/102/2 49/95/1 25/94/99
f 27/111/104 51/105/3 50/102/2 26/101/102
f 28/66/107 52/67/4 51/58/3 27/57/105
f 29/76/110 53/77/5 52/67/4 28/66/108
f 30/83/113 54/84/6 53/77/5 29/76/111
f 31/92/116 55/93/7 54/84/6 30/83/114
f 32/98/119 56/99/8 55/93/7 31/92/117
f 33/106/122 57/107/9 56/99/8 32/98/120
f 34/63/125 58/65/10 57/60/9 33/59/123
f 35/78/128 59/79/11 58/65/10 34/63/126
f 36/85/131 60/87/12 59/79/11 35/78/129
f 37/90/134 61/91/13 60/87/12 36/85/132
f 38/100/137 62/102/14 61/91/13 37/90/135
f 39/108/140 63/109/15 62/102/14 38/100/138
f 40/66/143 64/67/16 63/62/15 39/61/141
f 41/80/146 65/81/17 64/67/16 40/66/144
f 42/88/149 66/89/18 65/81/17 41/80/147
f 43/96/152 67/97/19 66/89/18 42/88/150
f 44/103/155 68/104/20 67/97/19 43/96/153
f 45/106/158 69/110/21 68/104/20 44/103/156
f 46/64/161 70/65/22 69/60/21 45/59/159
f 47/74/164 71/75/23 70/65/22 46/64/162
f 48/86/168 72/82/24 71/75/23 47/74/165
f 73/55/170 77/56/180 79/69/185 75/68/175
f 82/53/193 84/70/198 83/68/196 81/55/191
f 85/56/201 87/69/206 88/71/208 86/54/203
s 3
f 73/55/171 75/68/176 76/70/178 74/53/173
f 78/54/183 80/71/188 79/69/186 77/56/181
f 81/55/189 85/56/199 86/52/202 82/51/192
f 84/72/197 88/73/207 87/69/204 83/68/194
