# Exported from Wings 3D 1.5.4
mtllib 1to0.mtl
o 1
#97 vertices, 96 faces
v 0.31250000 0.12500000 -1.9244589e-18
v 0.30185182 0.12500000 8.0880952e-2
v 0.27063294 0.12500000 0.15625000
v 0.22097087 0.12500000 0.22097087
v 0.15625000 0.12500000 0.27063294
v 8.0880952e-2 0.12500000 0.30185182
v 0.0000000e+0 0.12500000 0.31250000
v -8.0880952e-2 0.12500000 0.30185182
v -0.15625000 0.12500000 0.27063294
v -0.22097087 0.12500000 0.22097087
v -0.27063294 0.12500000 0.15625000
v -0.30185182 0.12500000 8.0880952e-2
v -0.31250000 0.12500000 3.6345754e-17
v -0.30185182 0.12500000 -8.0880952e-2
v -0.27063294 0.12500000 -0.15625000
v -0.22097087 0.12500000 -0.22097087
v -0.15625000 0.12500000 -0.27063294
v -8.0880952e-2 0.12500000 -0.30185182
v -2.2204460e-16 0.12500000 -0.31250000
v 8.0880952e-2 0.12500000 -0.30185182
v 0.15625000 0.12500000 -0.27063294
v 0.22097087 0.12500000 -0.22097087
v 0.27063294 0.12500000 -0.15625000
v 0.30185182 0.12500000 -8.0880952e-2
v 0.62500000 -0.12500000 -1.2576745e-17
v 0.60370364 -0.12500000 0.16176190
v 0.54126588 -0.12500000 0.31250000
v 0.44194174 -0.12500000 0.44194174
v 0.31250000 -0.12500000 0.54126588
v 0.16176190 -0.12500000 0.60370364
v 0.0000000e+0 -0.12500000 0.62500000
v -0.16176190 -0.12500000 0.60370364
v -0.31250000 -0.12500000 0.54126588
v -0.44194174 -0.12500000 0.44194174
v -0.54126588 -0.12500000 0.31250000
v -0.60370364 -0.12500000 0.16176190
v -0.62500000 -0.12500000 6.3963680e-17
v -0.60370364 -0.12500000 -0.16176190
v -0.54126588 -0.12500000 -0.31250000
v -0.44194174 -0.12500000 -0.44194174
v -0.31250000 -0.12500000 -0.54126588
v -0.16176190 -0.12500000 -0.60370364
v -2.2204460e-16 -0.12500000 -0.62500000
v 0.16176190 -0.12500000 -0.60370364
v 0.31250000 -0.12500000 -0.54126588
v 0.44194174 -0.12500000 -0.44194174
v 0.54126588 -0.12500000 -0.31250000
v 0.60370364 -0.12500000 -0.16176190
v 0.0000000e+0 0.15000000 -6.5842694e-19
v 0.18085357 0.13956309 0.10441586
v 0.14766632 0.13956309 0.14766632
v 0.10441586 0.13956309 0.18085357
v 5.4049625e-2 0.13956309 0.20171595
v 0.0000000e+0 0.13956309 0.20883171
v -5.4049625e-2 0.13956309 0.20171595
v -0.10441586 0.13956309 0.18085357
v -0.14766632 0.13956309 0.14766632
v -0.18085357 0.13956309 0.10441586
v -0.20171595 0.13956309 5.4049625e-2
v -0.20883171 0.13956309 2.4217025e-17
v -0.20171595 0.13956309 -5.4049625e-2
v -0.18085357 0.13956309 -0.10441586
v -0.14766632 0.13956309 -0.14766632
v -0.10441586 0.13956309 -0.18085357
v -5.4049625e-2 0.13956309 -0.20171595
v -2.2204460e-16 0.13956309 -0.20883171
v 5.4049625e-2 0.13956309 -0.20171595
v 0.10441586 0.13956309 -0.18085357
v 0.14766632 0.13956309 -0.14766632
v 0.18085357 0.13956309 -0.10441586
v 0.20171595 0.13956309 -5.4049625e-2
v 0.20883171 0.13956309 -1.6325525e-18
v 0.20171595 0.13956309 5.4049625e-2
v 0.10109867 0.14789642 2.7089307e-2
v 0.10466505 0.14789642 -2.5332685e-18
v 0.10109867 0.14789642 -2.7089307e-2
v 9.0642589e-2 0.14789642 -5.2332523e-2
v 7.4009364e-2 0.14789642 -7.4009364e-2
v 5.2332523e-2 0.14789642 -9.0642589e-2
v 2.7089307e-2 0.14789642 -0.10109867
v -2.2204460e-16 0.14789642 -0.10466505
v -2.7089307e-2 0.14789642 -0.10109867
v -5.2332523e-2 0.14789642 -9.0642589e-2
v -7.4009364e-2 0.14789642 -7.4009364e-2
v -9.0642589e-2 0.14789642 -5.2332523e-2
v -0.10109867 0.14789642 -2.7089307e-2
v -0.10466505 0.14789642 1.1481144e-17
v -0.10109867 0.14789642 2.7089307e-2
v -9.0642589e-2 0.14789642 5.2332523e-2
v -7.4009364e-2 0.14789642 7.4009364e-2
v -5.2332523e-2 0.14789642 9.0642589e-2
v -2.7089307e-2 0.14789642 0.10109867
v 0.0000000e+0 0.14789642 0.10466505
v 2.7089307e-2 0.14789642 0.10109867
v 5.2332523e-2 0.14789642 9.0642589e-2
v 7.4009364e-2 0.14789642 7.4009364e-2
v 9.0642589e-2 0.14789642 5.2332523e-2
vt 0.89374515 0.51541909
vt 0.89374515 0.51541909
vt 0.89374515 0.51541909
vt 0.89374515 0.51541909
vt 0.89374515 0.51541909
vt 0.89374515 0.51541909
vt 0.89374515 0.51541909
vt 0.89374515 0.51541909
vt 0.90553928 0.47638054
vt 0.90553928 0.47638054
vt 0.90553928 0.47638054
vt 0.90553928 0.47638054
vt 0.90553928 0.47638054
vt 0.90553928 0.47638054
vt 0.90553928 0.47638054
vt 0.90553928 0.47638054
vt 0.90972028 0.51541909
vt 0.90972028 0.51541909
vt 0.90972028 0.51541909
vt 0.90972028 0.51541909
vt 0.90972028 0.51541909
vt 0.90972028 0.51541909
vt 0.90972028 0.51541909
vt 0.90972028 0.51541909
vt 0.91379363 0.47638054
vt 0.91379363 0.47638054
vt 0.91379363 0.47638054
vt 0.91379363 0.47638054
vt 0.91379363 0.47638054
vt 0.91379363 0.47638054
vt 0.91379363 0.47638054
vt 0.91379363 0.47638054
vt 0.92194033 0.47638054
vt 0.92194033 0.47638054
vt 0.92194033 0.47638054
vt 0.92194033 0.47638054
vt 0.92194033 0.47638054
vt 0.92194033 0.47638054
vt 0.92194033 0.47638054
vt 0.92194033 0.47638054
vt 0.92601368 0.51541909
vt 0.92601368 0.51541909
vt 0.92601368 0.51541909
vt 0.92601368 0.51541909
vt 0.92601368 0.51541909
vt 0.92601368 0.51541909
vt 0.92601368 0.51541909
vt 0.92601368 0.51541909
vt 0.92991776 0.47638054
vt 0.92991776 0.47638054
vt 0.92991776 0.47638054
vt 0.92991776 0.47638054
vt 0.92991776 0.47638054
vt 0.92991776 0.47638054
vt 0.92991776 0.47638054
vt 0.92991776 0.47638054
vt 0.94236028 0.51541909
vt 0.94236028 0.51541909
vt 0.94236028 0.51541909
vt 0.94236028 0.51541909
vt 0.94236028 0.51541909
vt 0.94236028 0.51541909
vt 0.94236028 0.51541909
vt 0.94236028 0.51541909
vt 0.96418552 0.48467323
vt 0.96423395 0.48474514
vt 0.96517654 0.49283089
vt 0.96522497 0.49283089
vt 0.96549807 0.47682219
vt 0.96554650 0.47682219
vt 0.96848126 0.46934390
vt 0.96851501 0.46939013
vt 0.96854679 0.49997951
vt 0.96859522 0.49997951
vt 0.97331927 0.50636096
vt 0.97336770 0.50636096
vt 0.97337991 0.46309676
vt 0.97341366 0.46314813
vt 0.97458206 0.48472072
vt 0.97463049 0.48472072
vt 0.97527696 0.47944244
vt 0.97527696 0.48999900
vt 0.97532539 0.47944244
vt 0.97532539 0.48999900
vt 0.97731430 0.47452386
vt 0.97731430 0.49491758
vt 0.97736273 0.47452386
vt 0.97736273 0.49491758
vt 0.97968851 0.51120670
vt 0.97973694 0.51120670
vt 0.97976543 0.45829172
vt 0.97981459 0.45835850
vt 0.98055525 0.47030018
vt 0.98055525 0.49914126
vt 0.98060368 0.47030018
vt 0.98060368 0.49914126
vt 0.98475459 0.48472072
vt 0.98477892 0.46705924
vt 0.98477892 0.50238220
vt 0.98480302 0.48472072
vt 0.98482735 0.46705924
vt 0.98482735 0.50238220
vt 0.98510287 0.48207528
vt 0.98510287 0.48736616
vt 0.98515130 0.48207528
vt 0.98515130 0.48736616
vt 0.98612397 0.47961012
vt 0.98612397 0.48983132
vt 0.98617240 0.47961012
vt 0.98617240 0.48983132
vt 0.98707725 0.51419844
vt 0.98712569 0.51419844
vt 0.98714150 0.45521578
vt 0.98717452 0.45519009
vt 0.98774831 0.47749324
vt 0.98774831 0.49194820
vt 0.98779674 0.47749324
vt 0.98779674 0.49194820
vt 0.98969750 0.46502190
vt 0.98969750 0.50441954
vt 0.98974593 0.46502190
vt 0.98974593 0.50441954
vt 0.98986519 0.47586891
vt 0.98986519 0.49357254
vt 0.98991362 0.47586891
vt 0.98991362 0.49357254
vt 0.99233034 0.47484780
vt 0.99233034 0.49459364
vt 0.99237878 0.47484780
vt 0.99237878 0.49459364
vt 0.99500000 0.45428861
vt 0.99500000 0.45428861
vt 0.99500000 0.46432700
vt 0.99500000 0.46432700
vt 0.99500000 0.47449952
vt 0.99500000 0.47449952
vt 0.99500000 0.48472072
vt 0.99500000 0.48472072
vt 0.99500000 0.49494192
vt 0.99500000 0.49494192
vt 0.99500000 0.50511444
vt 0.99500000 0.50511444
vt 0.99502442 0.51533598
vt 0.99502442 0.51533598
vn 5.4944196e-18 1.00000000 3.4087090e-17
vn 9.4808716e-2 0.99398948 5.4737838e-2
vn 7.7410992e-2 0.99398948 7.7410992e-2
vn 5.4737838e-2 0.99398948 9.4808716e-2
vn 2.8334390e-2 0.99398948 0.10574538
vn 2.4299672e-17 0.99398948 0.10947568
vn -2.8334390e-2 0.99398948 0.10574538
vn -5.4737838e-2 0.99398948 9.4808716e-2
vn -7.7410992e-2 0.99398948 7.7410992e-2
vn -9.4808716e-2 0.99398948 5.4737838e-2
vn -0.10574538 0.99398948 2.8334390e-2
vn -0.10947568 0.99398948 5.0335034e-17
vn -0.10574538 0.99398948 -2.8334390e-2
vn -9.4808716e-2 0.99398948 -5.4737838e-2
vn -7.7410992e-2 0.99398948 -7.7410992e-2
vn -5.4737838e-2 0.99398948 -9.4808716e-2
vn -2.8334390e-2 0.99398948 -0.10574538
vn -5.4240338e-17 0.99398948 -0.10947568
vn 2.8334390e-2 0.99398948 -0.10574538
vn 5.4737838e-2 0.99398948 -9.4808716e-2
vn 7.7410992e-2 0.99398948 -7.7410992e-2
vn 9.4808716e-2 0.99398948 -5.4737838e-2
vn 0.10574538 0.99398948 -2.8334390e-2
vn 0.10947568 0.99398948 -9.8934377e-17
vn 0.10574538 0.99398948 2.8334390e-2
vn 4.8239491e-2 0.99875216 1.2925733e-2
vn 4.9941196e-2 0.99875216 1.0521762e-17
vn 4.8239491e-2 0.99875216 -1.2925733e-2
vn 4.3250344e-2 0.99875216 -2.4970598e-2
vn 3.5313758e-2 0.99875216 -3.5313758e-2
vn 2.4970598e-2 0.99875216 -4.3250344e-2
vn 1.2925733e-2 0.99875216 -4.8239491e-2
vn -3.0589040e-17 0.99875216 -4.9941196e-2
vn -1.2925733e-2 0.99875216 -4.8239491e-2
vn -2.4970598e-2 0.99875216 -4.3250344e-2
vn -3.5313758e-2 0.99875216 -3.5313758e-2
vn -4.3250344e-2 0.99875216 -2.4970598e-2
vn -4.8239491e-2 0.99875216 -1.2925733e-2
vn -4.9941196e-2 0.99875216 -5.7490039e-18
vn -4.8239491e-2 0.99875216 1.2925733e-2
vn -4.3250344e-2 0.99875216 2.4970598e-2
vn -3.5313758e-2 0.99875216 3.5313758e-2
vn -2.4970598e-2 0.99875216 4.3250344e-2
vn -1.2925733e-2 0.99875216 4.8239491e-2
vn 1.9524919e-18 0.99875216 4.9941196e-2
vn 1.2925733e-2 0.99875216 4.8239491e-2
vn 2.4970598e-2 0.99875216 4.3250344e-2
vn 3.5313758e-2 0.99875216 3.5313758e-2
vn 4.3250344e-2 0.99875216 2.4970598e-2
vn 0.62469505 0.78086881 -4.0381463e-16
vn 0.62469505 0.78086881 -4.0381463e-16
vn 0.13911182 0.99027668 -2.1514178e-16
vn 0.13911182 0.99027668 -2.1514178e-16
vn 0.60340908 0.78086881 0.16168298
vn 0.60340908 0.78086881 0.16168298
vn 0.13437170 0.99027668 3.6004788e-2
vn 0.13437170 0.99027668 3.6004788e-2
vn 0.54100178 0.78086881 0.31234752
vn 0.54100178 0.78086881 0.31234752
vn 0.12047437 0.99027668 6.9555910e-2
vn 0.12047437 0.99027668 6.9555910e-2
vn 0.44172610 0.78086881 0.44172610
vn 0.44172610 0.78086881 0.44172610
vn 9.8366911e-2 0.99027668 9.8366911e-2
vn 9.8366911e-2 0.99027668 9.8366911e-2
vn 0.31234752 0.78086881 0.54100178
vn 0.31234752 0.78086881 0.54100178
vn 6.9555910e-2 0.99027668 0.12047437
vn 6.9555910e-2 0.99027668 0.12047437
vn 0.16168298 0.78086881 0.60340908
vn 0.16168298 0.78086881 0.60340908
vn 3.6004788e-2 0.99027668 0.13437170
vn 3.6004788e-2 0.99027668 0.13437170
vn 2.1583196e-16 0.78086881 0.62469505
vn 2.1583196e-16 0.78086881 0.62469505
vn 3.9905331e-17 0.99027668 0.13911182
vn 3.9905331e-17 0.99027668 0.13911182
vn -0.16168298 0.78086881 0.60340908
vn -0.16168298 0.78086881 0.60340908
vn -3.6004788e-2 0.99027668 0.13437170
vn -3.6004788e-2 0.99027668 0.13437170
vn -0.31234752 0.78086881 0.54100178
vn -0.31234752 0.78086881 0.54100178
vn -6.9555910e-2 0.99027668 0.12047437
vn -6.9555910e-2 0.99027668 0.12047437
vn -0.44172610 0.78086881 0.44172610
vn -0.44172610 0.78086881 0.44172610
vn -9.8366911e-2 0.99027668 9.8366911e-2
vn -9.8366911e-2 0.99027668 9.8366911e-2
vn -0.54100178 0.78086881 0.31234752
vn -0.54100178 0.78086881 0.31234752
vn -0.12047437 0.99027668 6.9555910e-2
vn -0.12047437 0.99027668 6.9555910e-2
vn -0.60340908 0.78086881 0.16168298
vn -0.60340908 0.78086881 0.16168298
vn -0.13437170 0.99027668 3.6004788e-2
vn -0.13437170 0.99027668 3.6004788e-2
vn -0.62469505 0.78086881 4.9432480e-16
vn -0.62469505 0.78086881 4.9432480e-16
vn -0.13911182 0.99027668 1.0930591e-16
vn -0.13911182 0.99027668 1.0930591e-16
vn -0.60340908 0.78086881 -0.16168298
vn -0.60340908 0.78086881 -0.16168298
vn -0.13437170 0.99027668 -3.6004788e-2
vn -0.13437170 0.99027668 -3.6004788e-2
vn -0.54100178 0.78086881 -0.31234752
vn -0.54100178 0.78086881 -0.31234752
vn -0.12047437 0.99027668 -6.9555910e-2
vn -0.12047437 0.99027668 -6.9555910e-2
vn -0.44172610 0.78086881 -0.44172610
vn -0.44172610 0.78086881 -0.44172610
vn -9.8366911e-2 0.99027668 -9.8366911e-2
vn -9.8366911e-2 0.99027668 -9.8366911e-2
vn -0.31234752 0.78086881 -0.54100178
vn -0.31234752 0.78086881 -0.54100178
vn -6.9555910e-2 0.99027668 -0.12047437
vn -6.9555910e-2 0.99027668 -0.12047437
vn -0.16168298 0.78086881 -0.60340908
vn -0.16168298 0.78086881 -0.60340908
vn -3.6004788e-2 0.99027668 -0.13437170
vn -3.6004788e-2 0.99027668 -0.13437170
vn -2.7153053e-16 0.78086881 -0.62469505
vn -2.7153053e-16 0.78086881 -0.62469505
vn -6.2460518e-17 0.99027668 -0.13911182
vn -6.2460518e-17 0.99027668 -0.13911182
vn 0.16168298 0.78086881 -0.60340908
vn 0.16168298 0.78086881 -0.60340908
vn 3.6004788e-2 0.99027668 -0.13437170
vn 3.6004788e-2 0.99027668 -0.13437170
vn 0.31234752 0.78086881 -0.54100178
vn 0.31234752 0.78086881 -0.54100178
vn 6.9555910e-2 0.99027668 -0.12047437
vn 6.9555910e-2 0.99027668 -0.12047437
vn 0.44172610 0.78086881 -0.44172610
vn 0.44172610 0.78086881 -0.44172610
vn 9.8366911e-2 0.99027668 -9.8366911e-2
vn 9.8366911e-2 0.99027668 -9.8366911e-2
vn 0.54100178 0.78086881 -0.31234752
vn 0.54100178 0.78086881 -0.31234752
vn 0.12047437 0.99027668 -6.9555910e-2
vn 0.12047437 0.99027668 -6.9555910e-2
vn 0.60340908 0.78086881 -0.16168298
vn 0.60340908 0.78086881 -0.16168298
vn 0.13437170 0.99027668 -3.6004788e-2
vn 0.13437170 0.99027668 -3.6004788e-2
vn 0.62469505 0.78086881 -4.0381463e-16
vn 0.62469505 0.78086881 -4.0381463e-16
vn 0.60340908 0.78086881 0.16168298
vn 0.60340908 0.78086881 0.16168298
vn 0.54100178 0.78086881 0.31234752
vn 0.54100178 0.78086881 0.31234752
vn 0.44172610 0.78086881 0.44172610
vn 0.44172610 0.78086881 0.44172610
vn 0.31234752 0.78086881 0.54100178
vn 0.31234752 0.78086881 0.54100178
vn 0.16168298 0.78086881 0.60340908
vn 0.16168298 0.78086881 0.60340908
vn 2.1583196e-16 0.78086881 0.62469505
vn 2.1583196e-16 0.78086881 0.62469505
vn -0.16168298 0.78086881 0.60340908
vn -0.16168298 0.78086881 0.60340908
vn -0.31234752 0.78086881 0.54100178
vn -0.31234752 0.78086881 0.54100178
vn -0.44172610 0.78086881 0.44172610
vn -0.44172610 0.78086881 0.44172610
vn -0.54100178 0.78086881 0.31234752
vn -0.54100178 0.78086881 0.31234752
vn -0.60340908 0.78086881 0.16168298
vn -0.60340908 0.78086881 0.16168298
vn -0.62469505 0.78086881 4.9432480e-16
vn -0.62469505 0.78086881 4.9432480e-16
vn -0.60340908 0.78086881 -0.16168298
vn -0.60340908 0.78086881 -0.16168298
vn -0.54100178 0.78086881 -0.31234752
vn -0.54100178 0.78086881 -0.31234752
vn -0.44172610 0.78086881 -0.44172610
vn -0.44172610 0.78086881 -0.44172610
vn -0.31234752 0.78086881 -0.54100178
vn -0.31234752 0.78086881 -0.54100178
vn -0.16168298 0.78086881 -0.60340908
vn -0.16168298 0.78086881 -0.60340908
vn -2.7153053e-16 0.78086881 -0.62469505
vn -2.7153053e-16 0.78086881 -0.62469505
vn 0.16168298 0.78086881 -0.60340908
vn 0.16168298 0.78086881 -0.60340908
vn 0.31234752 0.78086881 -0.54100178
vn 0.31234752 0.78086881 -0.54100178
vn 0.44172610 0.78086881 -0.44172610
vn 0.44172610 0.78086881 -0.44172610
vn 0.54100178 0.78086881 -0.31234752
vn 0.54100178 0.78086881 -0.31234752
vn 0.60340908 0.78086881 -0.16168298
vn 0.60340908 0.78086881 -0.16168298
g 1_1_auv
usemtl 1_auv
s 1
f 1/66/52 72/80/24 73/83/25 2/70/56
f 2/70/57 73/83/25 50/87/2 3/71/61
f 3/71/60 50/87/2 51/95/3 4/77/65
f 4/77/64 51/95/3 52/101/4 5/91/69
f 5/91/68 52/101/4 53/121/5 6/114/73
f 6/114/72 53/121/5 54/133/6 7/131/77
f 7/132/76 54/134/6 55/119/7 8/113/81
f 8/113/80 55/119/7 56/98/8 9/92/85
f 9/92/84 56/98/8 57/93/9 10/78/89
f 10/78/88 57/93/9 58/85/10 11/72/93
f 11/72/92 58/85/10 59/81/11 12/69/97
f 12/69/96 59/81/11 60/79/12 13/65/101
f 13/65/100 60/79/12 61/82/13 14/67/105
f 14/67/104 61/82/13 62/86/14 15/73/109
f 15/73/108 62/86/14 63/94/15 16/75/113
f 16/75/112 63/94/15 64/99/16 17/89/117
f 17/89/116 64/99/16 65/120/17 18/111/121
f 18/111/120 65/120/17 66/142/18 19/144/125
f 19/143/124 66/141/18 67/122/19 20/112/129
f 20/112/128 67/122/19 68/102/20 21/90/133
f 21/90/132 68/102/20 69/96/21 22/76/137
f 22/76/136 69/96/21 70/88/22 23/74/141
f 23/74/140 70/88/22 71/84/23 24/68/145
f 24/68/144 71/84/23 72/80/24 1/66/53
f 49/137/1 97/109/49 74/105/26
f 50/87/2 73/83/25 74/105/26 97/109/49
f 74/105/26 75/100/27 49/137/1
f 75/100/27 74/105/26 73/83/25 72/80/24
f 75/100/27 76/106/28 49/137/1
f 76/106/28 75/100/27 72/80/24 71/84/23
f 76/106/28 77/110/29 49/137/1
f 77/110/29 76/106/28 71/84/23 70/88/22
f 77/110/29 78/118/30 49/137/1
f 78/118/30 77/110/29 70/88/22 69/96/21
f 78/118/30 79/126/31 49/137/1
f 79/126/31 78/118/30 69/96/21 68/102/20
f 79/126/31 80/130/32 49/137/1
f 80/130/32 79/126/31 68/102/20 67/122/19
f 80/130/32 81/139/33 49/137/1
f 81/139/33 80/130/32 67/122/19 66/141/18
f 81/140/33 82/128/34 49/138/1
f 82/128/34 81/140/33 66/142/18 65/120/17
f 82/128/34 83/124/35 49/138/1
f 83/124/35 82/128/34 65/120/17 64/99/16
f 83/124/35 84/116/36 49/138/1
f 84/116/36 83/124/35 64/99/16 63/94/15
f 84/116/36 85/108/37 49/138/1
f 85/108/37 84/116/36 63/94/15 62/86/14
f 85/108/37 86/104/38 49/138/1
f 86/104/38 85/108/37 62/86/14 61/82/13
f 86/104/38 87/97/39 49/138/1
f 87/97/39 86/104/38 61/82/13 60/79/12
f 87/97/39 88/103/40 49/138/1
f 88/103/40 87/97/39 60/79/12 59/81/11
f 88/103/40 89/107/41 49/138/1
f 89/107/41 88/103/40 59/81/11 58/85/10
f 89/107/41 90/115/42 49/138/1
f 90/115/42 89/107/41 58/85/10 57/93/9
f 90/115/42 91/123/43 49/138/1
f 91/123/43 90/115/42 57/93/9 56/98/8
f 91/123/43 92/127/44 49/138/1
f 92/127/44 91/123/43 56/98/8 55/119/7
f 92/127/44 93/136/45 49/138/1
f 93/136/45 92/127/44 55/119/7 54/134/6
f 93/135/45 94/129/46 49/137/1
f 94/129/46 93/135/45 54/133/6 53/121/5
f 94/129/46 95/125/47 49/137/1
f 95/125/47 94/129/46 53/121/5 52/101/4
f 95/125/47 96/117/48 49/137/1
f 96/117/48 95/125/47 52/101/4 51/95/3
f 96/117/48 97/109/49 49/137/1
f 97/109/49 96/117/48 51/95/3 50/87/2
s 2
f 1/55/50 25/63/146 48/47/192 24/39/142
f 2/26/55 26/18/149 25/2/147 1/10/51
f 3/34/59 27/41/151 26/18/148 2/26/54
f 4/50/63 28/57/153 27/41/150 3/34/58
f 5/27/67 29/19/155 28/3/152 4/11/62
f 6/35/71 30/43/157 29/19/154 5/27/66
f 7/51/75 31/59/159 30/43/156 6/35/70
f 8/29/79 32/20/161 31/4/158 7/12/74
f 9/37/83 33/44/163 32/20/160 8/29/78
f 10/54/87 34/60/165 33/44/162 9/37/82
f 11/25/91 35/17/167 34/1/164 10/9/86
f 12/33/95 36/42/169 35/17/166 11/25/90
f 13/49/99 37/58/171 36/42/168 12/33/94
f 14/30/103 38/21/173 37/5/170 13/14/98
f 15/38/107 39/46/175 38/21/172 14/30/102
f 16/52/111 40/62/177 39/46/174 15/38/106
f 17/28/115 41/22/179 40/6/176 16/13/110
f 18/36/119 42/45/181 41/22/178 17/28/114
f 19/53/123 43/61/183 42/45/180 18/36/118
f 20/32/127 44/24/185 43/8/182 19/16/122
f 21/40/131 45/48/187 44/24/184 20/32/126
f 22/56/135 46/64/189 45/48/186 21/40/130
f 23/31/139 47/23/191 46/7/188 22/15/134
f 24/39/143 48/47/193 47/23/190 23/31/138
