# Exported from Wings 3D 1.5.4
mtllib 1to0.mtl
o 1_copy2
#97 vertices, 96 faces
v 0.31250000 0.12500000 -1.9244589e-18
v 0.30185182 0.12500000 8.0880952e-2
v 0.27063294 0.12500000 0.15625000
v 0.22097087 0.12500000 0.22097087
v 0.15625000 0.12500000 0.27063294
v 8.0880952e-2 0.12500000 0.30185182
v 0.0000000e+0 0.12500000 0.31250000
v -8.0880952e-2 0.12500000 0.30185182
v -0.15625000 0.12500000 0.27063294
v -0.22097087 0.12500000 0.22097087
v -0.27063294 0.12500000 0.15625000
v -0.30185182 0.12500000 8.0880952e-2
v -0.31250000 0.12500000 3.6345754e-17
v -0.30185182 0.12500000 -8.0880952e-2
v -0.27063294 0.12500000 -0.15625000
v -0.22097087 0.12500000 -0.22097087
v -0.15625000 0.12500000 -0.27063294
v -8.0880952e-2 0.12500000 -0.30185182
v -2.2204460e-16 0.12500000 -0.31250000
v 8.0880952e-2 0.12500000 -0.30185182
v 0.15625000 0.12500000 -0.27063294
v 0.22097087 0.12500000 -0.22097087
v 0.27063294 0.12500000 -0.15625000
v 0.30185182 0.12500000 -8.0880952e-2
v 0.62500000 -0.12500000 -1.2576745e-17
v 0.60370364 -0.12500000 0.16176190
v 0.54126588 -0.12500000 0.31250000
v 0.44194174 -0.12500000 0.44194174
v 0.31250000 -0.12500000 0.54126588
v 0.16176190 -0.12500000 0.60370364
v 0.0000000e+0 -0.12500000 0.62500000
v -0.16176190 -0.12500000 0.60370364
v -0.31250000 -0.12500000 0.54126588
v -0.44194174 -0.12500000 0.44194174
v -0.54126588 -0.12500000 0.31250000
v -0.60370364 -0.12500000 0.16176190
v -0.62500000 -0.12500000 6.3963680e-17
v -0.60370364 -0.12500000 -0.16176190
v -0.54126588 -0.12500000 -0.31250000
v -0.44194174 -0.12500000 -0.44194174
v -0.31250000 -0.12500000 -0.54126588
v -0.16176190 -0.12500000 -0.60370364
v -2.2204460e-16 -0.12500000 -0.62500000
v 0.16176190 -0.12500000 -0.60370364
v 0.31250000 -0.12500000 -0.54126588
v 0.44194174 -0.12500000 -0.44194174
v 0.54126588 -0.12500000 -0.31250000
v 0.60370364 -0.12500000 -0.16176190
v 0.0000000e+0 0.15000000 -6.5842694e-19
v 0.18085357 0.13956309 0.10441586
v 0.14766632 0.13956309 0.14766632
v 0.10441586 0.13956309 0.18085357
v 5.4049625e-2 0.13956309 0.20171595
v 0.0000000e+0 0.13956309 0.20883171
v -5.4049625e-2 0.13956309 0.20171595
v -0.10441586 0.13956309 0.18085357
v -0.14766632 0.13956309 0.14766632
v -0.18085357 0.13956309 0.10441586
v -0.20171595 0.13956309 5.4049625e-2
v -0.20883171 0.13956309 2.4217025e-17
v -0.20171595 0.13956309 -5.4049625e-2
v -0.18085357 0.13956309 -0.10441586
v -0.14766632 0.13956309 -0.14766632
v -0.10441586 0.13956309 -0.18085357
v -5.4049625e-2 0.13956309 -0.20171595
v -2.2204460e-16 0.13956309 -0.20883171
v 5.4049625e-2 0.13956309 -0.20171595
v 0.10441586 0.13956309 -0.18085357
v 0.14766632 0.13956309 -0.14766632
v 0.18085357 0.13956309 -0.10441586
v 0.20171595 0.13956309 -5.4049625e-2
v 0.20883171 0.13956309 -1.6325525e-18
v 0.20171595 0.13956309 5.4049625e-2
v 0.10109867 0.14789642 2.7089307e-2
v 0.10466505 0.14789642 -2.5332685e-18
v 0.10109867 0.14789642 -2.7089307e-2
v 9.0642589e-2 0.14789642 -5.2332523e-2
v 7.4009364e-2 0.14789642 -7.4009364e-2
v 5.2332523e-2 0.14789642 -9.0642589e-2
v 2.7089307e-2 0.14789642 -0.10109867
v -2.2204460e-16 0.14789642 -0.10466505
v -2.7089307e-2 0.14789642 -0.10109867
v -5.2332523e-2 0.14789642 -9.0642589e-2
v -7.4009364e-2 0.14789642 -7.4009364e-2
v -9.0642589e-2 0.14789642 -5.2332523e-2
v -0.10109867 0.14789642 -2.7089307e-2
v -0.10466505 0.14789642 1.1481144e-17
v -0.10109867 0.14789642 2.7089307e-2
v -9.0642589e-2 0.14789642 5.2332523e-2
v -7.4009364e-2 0.14789642 7.4009364e-2
v -5.2332523e-2 0.14789642 9.0642589e-2
v -2.7089307e-2 0.14789642 0.10109867
v 0.0000000e+0 0.14789642 0.10466505
v 2.7089307e-2 0.14789642 0.10109867
v 5.2332523e-2 0.14789642 9.0642589e-2
v 7.4009364e-2 0.14789642 7.4009364e-2
v 9.0642589e-2 0.14789642 5.2332523e-2
vt 0.89394528 0.45440367
vt 0.89394528 0.45440367
vt 0.89394528 0.45440367
vt 0.89588118 0.47018276
vt 0.89588118 0.47018276
vt 0.89588118 0.47018276
vt 0.89588118 0.47018276
vt 0.90200430 0.48491868
vt 0.90200430 0.48491868
vt 0.90200430 0.48491868
vt 0.91167824 0.49754407
vt 0.91167824 0.49754407
vt 0.91167824 0.49754407
vt 0.92399542 0.45440367
vt 0.92399542 0.45440367
vt 0.92399542 0.45440367
vt 0.92404198 0.45445735
vt 0.92431903 0.50724369
vt 0.92431903 0.50724369
vt 0.92503529 0.46246401
vt 0.92503529 0.46246401
vt 0.92503529 0.46246401
vt 0.92508184 0.44663073
vt 0.92508184 0.46242779
vt 0.92808400 0.46982427
vt 0.92808400 0.46982427
vt 0.92808400 0.46982427
vt 0.92808400 0.46982427
vt 0.92813056 0.46978805
vt 0.92821274 0.43931670
vt 0.93293382 0.47614466
vt 0.93293382 0.47614466
vt 0.93293382 0.47614466
vt 0.93298037 0.47610844
vt 0.93306256 0.43300144
vt 0.93416583 0.45452926
vt 0.93486073 0.44925097
vt 0.93486073 0.45980754
vt 0.93689807 0.44433240
vt 0.93689807 0.46472612
vt 0.93902928 0.51334113
vt 0.93902928 0.51334113
vt 0.93902928 0.51334113
vt 0.93925421 0.48099447
vt 0.93925421 0.48099447
vt 0.93925421 0.48099447
vt 0.93930077 0.48095826
vt 0.93939836 0.42816704
vt 0.94013902 0.44010872
vt 0.94013902 0.46894980
vt 0.94433836 0.45452926
vt 0.94436269 0.43686778
vt 0.94436269 0.47219074
vt 0.94468664 0.45188382
vt 0.94468664 0.45717470
vt 0.94570774 0.44941866
vt 0.94570774 0.45963986
vt 0.94661447 0.48404319
vt 0.94661447 0.48404319
vt 0.94661447 0.48404319
vt 0.94666103 0.48400698
vt 0.94667644 0.42507722
vt 0.94733208 0.44730178
vt 0.94733208 0.46175674
vt 0.94928127 0.43483044
vt 0.94928127 0.47422808
vt 0.94944896 0.44567744
vt 0.94944896 0.46338107
vt 0.95191412 0.44465634
vt 0.95191412 0.46440218
vt 0.95455956 0.42401168
vt 0.95455956 0.43413554
vt 0.95455956 0.44430806
vt 0.95455956 0.45452926
vt 0.95455956 0.46475045
vt 0.95455956 0.47492298
vt 0.95472906 0.48504684
vt 0.95482377 0.51533866
vt 0.95482377 0.51533866
vt 0.95484432 0.48508305
vt 0.95484432 0.48508305
vt 0.95484432 0.48508305
vt 0.95720500 0.44465634
vt 0.95720500 0.46440218
vt 0.95967015 0.44567744
vt 0.95967015 0.46338107
vt 0.95983784 0.43483044
vt 0.95983784 0.47422808
vt 0.96178703 0.44730178
vt 0.96178703 0.46175674
vt 0.96245809 0.42505154
vt 0.96245809 0.48400698
vt 0.96341137 0.44941866
vt 0.96341137 0.45963986
vt 0.96443247 0.45188382
vt 0.96443247 0.45717470
vt 0.96475642 0.43686778
vt 0.96475642 0.47219074
vt 0.96478075 0.45452926
vt 0.96898009 0.44010872
vt 0.96898009 0.46894980
vt 0.96981834 0.42810026
vt 0.96981834 0.48095826
vt 0.97222104 0.44433240
vt 0.97222104 0.46472612
vt 0.97425838 0.44925097
vt 0.97425838 0.45980754
vt 0.97495328 0.45452926
vt 0.97613874 0.43295007
vt 0.97613874 0.47610844
vt 0.98098855 0.43927047
vt 0.98098855 0.46978805
vt 0.98403727 0.44663073
vt 0.98403727 0.46242779
vt 0.98507713 0.45452926
vn 5.4944196e-18 1.00000000 3.4087090e-17
vn 9.4808716e-2 0.99398948 5.4737838e-2
vn 7.7410992e-2 0.99398948 7.7410992e-2
vn 5.4737838e-2 0.99398948 9.4808716e-2
vn 2.8334390e-2 0.99398948 0.10574538
vn 2.4299672e-17 0.99398948 0.10947568
vn -2.8334390e-2 0.99398948 0.10574538
vn -5.4737838e-2 0.99398948 9.4808716e-2
vn -7.7410992e-2 0.99398948 7.7410992e-2
vn -9.4808716e-2 0.99398948 5.4737838e-2
vn -0.10574538 0.99398948 2.8334390e-2
vn -0.10947568 0.99398948 5.0335034e-17
vn -0.10574538 0.99398948 -2.8334390e-2
vn -9.4808716e-2 0.99398948 -5.4737838e-2
vn -7.7410992e-2 0.99398948 -7.7410992e-2
vn -5.4737838e-2 0.99398948 -9.4808716e-2
vn -2.8334390e-2 0.99398948 -0.10574538
vn -5.4240338e-17 0.99398948 -0.10947568
vn 2.8334390e-2 0.99398948 -0.10574538
vn 5.4737838e-2 0.99398948 -9.4808716e-2
vn 7.7410992e-2 0.99398948 -7.7410992e-2
vn 9.4808716e-2 0.99398948 -5.4737838e-2
vn 0.10574538 0.99398948 -2.8334390e-2
vn 0.10947568 0.99398948 -9.8934377e-17
vn 0.10574538 0.99398948 2.8334390e-2
vn 4.8239491e-2 0.99875216 1.2925733e-2
vn 4.9941196e-2 0.99875216 1.0521762e-17
vn 4.8239491e-2 0.99875216 -1.2925733e-2
vn 4.3250344e-2 0.99875216 -2.4970598e-2
vn 3.5313758e-2 0.99875216 -3.5313758e-2
vn 2.4970598e-2 0.99875216 -4.3250344e-2
vn 1.2925733e-2 0.99875216 -4.8239491e-2
vn -3.0589040e-17 0.99875216 -4.9941196e-2
vn -1.2925733e-2 0.99875216 -4.8239491e-2
vn -2.4970598e-2 0.99875216 -4.3250344e-2
vn -3.5313758e-2 0.99875216 -3.5313758e-2
vn -4.3250344e-2 0.99875216 -2.4970598e-2
vn -4.8239491e-2 0.99875216 -1.2925733e-2
vn -4.9941196e-2 0.99875216 -5.7490039e-18
vn -4.8239491e-2 0.99875216 1.2925733e-2
vn -4.3250344e-2 0.99875216 2.4970598e-2
vn -3.5313758e-2 0.99875216 3.5313758e-2
vn -2.4970598e-2 0.99875216 4.3250344e-2
vn -1.2925733e-2 0.99875216 4.8239491e-2
vn 1.9524919e-18 0.99875216 4.9941196e-2
vn 1.2925733e-2 0.99875216 4.8239491e-2
vn 2.4970598e-2 0.99875216 4.3250344e-2
vn 3.5313758e-2 0.99875216 3.5313758e-2
vn 4.3250344e-2 0.99875216 2.4970598e-2
vn 0.62469505 0.78086881 -4.0381463e-16
vn 0.62469505 0.78086881 -4.0381463e-16
vn 0.13911182 0.99027668 -2.1514178e-16
vn 0.13911182 0.99027668 -2.1514178e-16
vn 0.60340908 0.78086881 0.16168298
vn 0.60340908 0.78086881 0.16168298
vn 0.13437170 0.99027668 3.6004788e-2
vn 0.13437170 0.99027668 3.6004788e-2
vn 0.54100178 0.78086881 0.31234752
vn 0.54100178 0.78086881 0.31234752
vn 0.12047437 0.99027668 6.9555910e-2
vn 0.12047437 0.99027668 6.9555910e-2
vn 0.44172610 0.78086881 0.44172610
vn 0.44172610 0.78086881 0.44172610
vn 9.8366911e-2 0.99027668 9.8366911e-2
vn 9.8366911e-2 0.99027668 9.8366911e-2
vn 0.31234752 0.78086881 0.54100178
vn 0.31234752 0.78086881 0.54100178
vn 6.9555910e-2 0.99027668 0.12047437
vn 6.9555910e-2 0.99027668 0.12047437
vn 0.16168298 0.78086881 0.60340908
vn 0.16168298 0.78086881 0.60340908
vn 3.6004788e-2 0.99027668 0.13437170
vn 3.6004788e-2 0.99027668 0.13437170
vn 2.1583196e-16 0.78086881 0.62469505
vn 2.1583196e-16 0.78086881 0.62469505
vn 3.9905331e-17 0.99027668 0.13911182
vn 3.9905331e-17 0.99027668 0.13911182
vn -0.16168298 0.78086881 0.60340908
vn -0.16168298 0.78086881 0.60340908
vn -3.6004788e-2 0.99027668 0.13437170
vn -3.6004788e-2 0.99027668 0.13437170
vn -0.31234752 0.78086881 0.54100178
vn -0.31234752 0.78086881 0.54100178
vn -6.9555910e-2 0.99027668 0.12047437
vn -6.9555910e-2 0.99027668 0.12047437
vn -0.44172610 0.78086881 0.44172610
vn -0.44172610 0.78086881 0.44172610
vn -9.8366911e-2 0.99027668 9.8366911e-2
vn -9.8366911e-2 0.99027668 9.8366911e-2
vn -0.54100178 0.78086881 0.31234752
vn -0.54100178 0.78086881 0.31234752
vn -0.12047437 0.99027668 6.9555910e-2
vn -0.12047437 0.99027668 6.9555910e-2
vn -0.60340908 0.78086881 0.16168298
vn -0.60340908 0.78086881 0.16168298
vn -0.13437170 0.99027668 3.6004788e-2
vn -0.13437170 0.99027668 3.6004788e-2
vn -0.62469505 0.78086881 4.9432480e-16
vn -0.62469505 0.78086881 4.9432480e-16
vn -0.13911182 0.99027668 1.0930591e-16
vn -0.13911182 0.99027668 1.0930591e-16
vn -0.60340908 0.78086881 -0.16168298
vn -0.60340908 0.78086881 -0.16168298
vn -0.13437170 0.99027668 -3.6004788e-2
vn -0.13437170 0.99027668 -3.6004788e-2
vn -0.54100178 0.78086881 -0.31234752
vn -0.54100178 0.78086881 -0.31234752
vn -0.12047437 0.99027668 -6.9555910e-2
vn -0.12047437 0.99027668 -6.9555910e-2
vn -0.44172610 0.78086881 -0.44172610
vn -0.44172610 0.78086881 -0.44172610
vn -9.8366911e-2 0.99027668 -9.8366911e-2
vn -9.8366911e-2 0.99027668 -9.8366911e-2
vn -0.31234752 0.78086881 -0.54100178
vn -0.31234752 0.78086881 -0.54100178
vn -6.9555910e-2 0.99027668 -0.12047437
vn -6.9555910e-2 0.99027668 -0.12047437
vn -0.16168298 0.78086881 -0.60340908
vn -0.16168298 0.78086881 -0.60340908
vn -3.6004788e-2 0.99027668 -0.13437170
vn -3.6004788e-2 0.99027668 -0.13437170
vn -2.7153053e-16 0.78086881 -0.62469505
vn -2.7153053e-16 0.78086881 -0.62469505
vn -6.2460518e-17 0.99027668 -0.13911182
vn -6.2460518e-17 0.99027668 -0.13911182
vn 0.16168298 0.78086881 -0.60340908
vn 0.16168298 0.78086881 -0.60340908
vn 3.6004788e-2 0.99027668 -0.13437170
vn 3.6004788e-2 0.99027668 -0.13437170
vn 0.31234752 0.78086881 -0.54100178
vn 0.31234752 0.78086881 -0.54100178
vn 6.9555910e-2 0.99027668 -0.12047437
vn 6.9555910e-2 0.99027668 -0.12047437
vn 0.44172610 0.78086881 -0.44172610
vn 0.44172610 0.78086881 -0.44172610
vn 9.8366911e-2 0.99027668 -9.8366911e-2
vn 9.8366911e-2 0.99027668 -9.8366911e-2
vn 0.54100178 0.78086881 -0.31234752
vn 0.54100178 0.78086881 -0.31234752
vn 0.12047437 0.99027668 -6.9555910e-2
vn 0.12047437 0.99027668 -6.9555910e-2
vn 0.60340908 0.78086881 -0.16168298
vn 0.60340908 0.78086881 -0.16168298
vn 0.13437170 0.99027668 -3.6004788e-2
vn 0.13437170 0.99027668 -3.6004788e-2
vn 0.62469505 0.78086881 -4.0381463e-16
vn 0.62469505 0.78086881 -4.0381463e-16
vn 0.60340908 0.78086881 0.16168298
vn 0.60340908 0.78086881 0.16168298
vn 0.54100178 0.78086881 0.31234752
vn 0.54100178 0.78086881 0.31234752
vn 0.44172610 0.78086881 0.44172610
vn 0.44172610 0.78086881 0.44172610
vn 0.31234752 0.78086881 0.54100178
vn 0.31234752 0.78086881 0.54100178
vn 0.16168298 0.78086881 0.60340908
vn 0.16168298 0.78086881 0.60340908
vn 2.1583196e-16 0.78086881 0.62469505
vn 2.1583196e-16 0.78086881 0.62469505
vn -0.16168298 0.78086881 0.60340908
vn -0.16168298 0.78086881 0.60340908
vn -0.31234752 0.78086881 0.54100178
vn -0.31234752 0.78086881 0.54100178
vn -0.44172610 0.78086881 0.44172610
vn -0.44172610 0.78086881 0.44172610
vn -0.54100178 0.78086881 0.31234752
vn -0.54100178 0.78086881 0.31234752
vn -0.60340908 0.78086881 0.16168298
vn -0.60340908 0.78086881 0.16168298
vn -0.62469505 0.78086881 4.9432480e-16
vn -0.62469505 0.78086881 4.9432480e-16
vn -0.60340908 0.78086881 -0.16168298
vn -0.60340908 0.78086881 -0.16168298
vn -0.54100178 0.78086881 -0.31234752
vn -0.54100178 0.78086881 -0.31234752
vn -0.44172610 0.78086881 -0.44172610
vn -0.44172610 0.78086881 -0.44172610
vn -0.31234752 0.78086881 -0.54100178
vn -0.31234752 0.78086881 -0.54100178
vn -0.16168298 0.78086881 -0.60340908
vn -0.16168298 0.78086881 -0.60340908
vn -2.7153053e-16 0.78086881 -0.62469505
vn -2.7153053e-16 0.78086881 -0.62469505
vn 0.16168298 0.78086881 -0.60340908
vn 0.16168298 0.78086881 -0.60340908
vn 0.31234752 0.78086881 -0.54100178
vn 0.31234752 0.78086881 -0.54100178
vn 0.44172610 0.78086881 -0.44172610
vn 0.44172610 0.78086881 -0.44172610
vn 0.54100178 0.78086881 -0.31234752
vn 0.54100178 0.78086881 -0.31234752
vn 0.60340908 0.78086881 -0.16168298
vn 0.60340908 0.78086881 -0.16168298
g 1_copy2_1_auv
usemtl 1_auv
s 1
f 1/115/52 72/108/24 73/106/25 2/113/56
f 2/113/57 73/106/25 50/104/2 3/111/61
f 3/111/60 50/104/2 51/100/3 4/109/65
f 4/109/64 51/100/3 52/97/4 5/102/69
f 5/102/68 52/97/4 53/87/5 6/91/73
f 6/91/72 53/87/5 54/72/6 7/71/77
f 7/71/76 54/72/6 55/65/7 8/62/81
f 8/62/80 55/65/7 56/52/8 9/48/85
f 9/48/84 56/52/8 57/49/9 10/35/89
f 10/35/88 57/49/9 58/39/10 11/30/93
f 11/30/92 58/39/10 59/37/11 12/23/97
f 12/23/96 59/37/11 60/36/12 13/17/101
f 13/17/100 60/36/12 61/38/13 14/24/105
f 14/24/104 61/38/13 62/40/14 15/29/109
f 15/29/108 62/40/14 63/50/15 16/34/113
f 16/34/112 63/50/15 64/53/16 17/47/117
f 17/47/116 64/53/16 65/66/17 18/61/121
f 18/61/120 65/66/17 66/76/18 19/77/125
f 19/77/124 66/76/18 67/88/19 20/92/129
f 20/92/128 67/88/19 68/98/20 21/103/133
f 21/103/132 68/98/20 69/101/21 22/110/137
f 22/110/136 69/101/21 70/105/22 23/112/141
f 23/112/140 70/105/22 71/107/23 24/114/145
f 24/114/144 71/107/23 72/108/24 1/115/53
f 49/74/1 97/93/49 74/95/26
f 50/104/2 73/106/25 74/95/26 97/93/49
f 74/95/26 75/99/27 49/74/1
f 75/99/27 74/95/26 73/106/25 72/108/24
f 75/99/27 76/96/28 49/74/1
f 76/96/28 75/99/27 72/108/24 71/107/23
f 76/96/28 77/94/29 49/74/1
f 77/94/29 76/96/28 71/107/23 70/105/22
f 77/94/29 78/90/30 49/74/1
f 78/90/30 77/94/29 70/105/22 69/101/21
f 78/90/30 79/86/31 49/74/1
f 79/86/31 78/90/30 69/101/21 68/98/20
f 79/86/31 80/84/32 49/74/1
f 80/84/32 79/86/31 68/98/20 67/88/19
f 80/84/32 81/75/33 49/74/1
f 81/75/33 80/84/32 67/88/19 66/76/18
f 81/75/33 82/70/34 49/74/1
f 82/70/34 81/75/33 66/76/18 65/66/17
f 82/70/34 83/68/35 49/74/1
f 83/68/35 82/70/34 65/66/17 64/53/16
f 83/68/35 84/64/36 49/74/1
f 84/64/36 83/68/35 64/53/16 63/50/15
f 84/64/36 85/57/37 49/74/1
f 85/57/37 84/64/36 63/50/15 62/40/14
f 85/57/37 86/55/38 49/74/1
f 86/55/38 85/57/37 62/40/14 61/38/13
f 86/55/38 87/51/39 49/74/1
f 87/51/39 86/55/38 61/38/13 60/36/12
f 87/51/39 88/54/40 49/74/1
f 88/54/40 87/51/39 60/36/12 59/37/11
f 88/54/40 89/56/41 49/74/1
f 89/56/41 88/54/40 59/37/11 58/39/10
f 89/56/41 90/63/42 49/74/1
f 90/63/42 89/56/41 58/39/10 57/49/9
f 90/63/42 91/67/43 49/74/1
f 91/67/43 90/63/42 57/49/9 56/52/8
f 91/67/43 92/69/44 49/74/1
f 92/69/44 91/67/43 56/52/8 55/65/7
f 92/69/44 93/73/45 49/74/1
f 93/73/45 92/69/44 55/65/7 54/72/6
f 93/73/45 94/83/46 49/74/1
f 94/83/46 93/73/45 54/72/6 53/87/5
f 94/83/46 95/85/47 49/74/1
f 95/85/47 94/83/46 53/87/5 52/97/4
f 95/85/47 96/89/48 49/74/1
f 96/89/48 95/85/47 52/97/4 51/100/3
f 96/89/48 97/93/49 49/74/1
f 97/93/49 96/89/48 51/100/3 50/104/2
s 2
f 1/80/50 25/78/146 48/41/192 24/58/142
f 2/20/55 26/4/149 25/1/147 1/15/51
f 3/26/59 27/8/151 26/4/148 2/20/54
f 4/31/63 28/11/153 27/8/150 3/26/58
f 5/46/67 29/19/155 28/11/152 4/31/62
f 6/59/71 30/42/157 29/19/154 5/46/66
f 7/82/75 31/79/159 30/42/156 6/59/70
f 8/21/79 32/5/161 31/3/158 7/16/74
f 9/27/83 33/10/163 32/5/160 8/21/78
f 10/32/87 34/13/165 33/10/162 9/27/82
f 11/45/91 35/19/167 34/13/164 10/32/86
f 12/59/95 36/43/169 35/19/166 11/45/90
f 13/80/99 37/78/171 36/43/168 12/59/94
f 14/22/103 38/7/173 37/3/170 13/16/98
f 15/28/107 39/10/175 38/7/172 14/22/102
f 16/33/111 40/13/177 39/10/174 15/28/106
f 17/46/115 41/19/179 40/13/176 16/33/110
f 18/60/119 42/43/181 41/19/178 17/46/114
f 19/81/123 43/78/183 42/43/180 18/60/118
f 20/20/127 44/6/185 43/2/182 19/14/122
f 21/25/131 45/9/187 44/6/184 20/20/126
f 22/31/135 46/12/189 45/9/186 21/25/130
f 23/44/139 47/18/191 46/12/188 22/31/134
f 24/58/143 48/41/193 47/18/190 23/44/138
