# Exported from Wings 3D 1.5.4
mtllib 1to0p5.mtl
o 1
#97 vertices, 96 faces
v 0.46875000 0.12500000 -3.6339338e-18
v 0.45277773 0.12500000 0.12132143
v 0.40594941 0.12500000 0.23437500
v 0.33145630 0.12500000 0.33145630
v 0.23437500 0.12500000 0.40594941
v 0.12132143 0.12500000 0.45277773
v -3.1953254e-17 0.12500000 0.46875000
v -0.12132143 0.12500000 0.45277773
v -0.23437500 0.12500000 0.40594941
v -0.33145630 0.12500000 0.33145630
v -0.40594941 0.12500000 0.23437500
v -0.45277773 0.12500000 0.12132143
v -0.46875000 0.12500000 5.3771385e-17
v -0.45277773 0.12500000 -0.12132143
v -0.40594941 0.12500000 -0.23437500
v -0.33145630 0.12500000 -0.33145630
v -0.23437500 0.12500000 -0.40594941
v -0.12132143 0.12500000 -0.45277773
v -1.4676389e-16 0.12500000 -0.46875000
v 0.12132143 0.12500000 -0.45277773
v 0.23437500 0.12500000 -0.40594941
v 0.33145630 0.12500000 -0.33145630
v 0.40594941 0.12500000 -0.23437500
v 0.45277773 0.12500000 -0.12132143
v 0.62500000 -0.12500000 -1.2576745e-17
v 0.60370364 -0.12500000 0.16176190
v 0.54126588 -0.12500000 0.31250000
v 0.44194174 -0.12500000 0.44194174
v 0.31250000 -0.12500000 0.54126588
v 0.16176190 -0.12500000 0.60370364
v -1.3771492e-17 -0.12500000 0.62500000
v -0.16176190 -0.12500000 0.60370364
v -0.31250000 -0.12500000 0.54126588
v -0.44194174 -0.12500000 0.44194174
v -0.54126588 -0.12500000 0.31250000
v -0.60370364 -0.12500000 0.16176190
v -0.62500000 -0.12500000 6.3963680e-17
v -0.60370364 -0.12500000 -0.16176190
v -0.54126588 -0.12500000 -0.31250000
v -0.44194174 -0.12500000 -0.44194174
v -0.31250000 -0.12500000 -0.54126588
v -0.16176190 -0.12500000 -0.60370364
v -1.6685234e-16 -0.12500000 -0.62500000
v 0.16176190 -0.12500000 -0.60370364
v 0.31250000 -0.12500000 -0.54126588
v 0.44194174 -0.12500000 -0.44194174
v 0.54126588 -0.12500000 -0.31250000
v 0.60370364 -0.12500000 -0.16176190
v -1.0836081e-16 0.15000000 -1.7348859e-18
v 0.27128035 0.13956309 0.15662379
v 0.22149948 0.13956309 0.22149948
v 0.15662379 0.13956309 0.27128035
v 8.1074437e-2 0.13956309 0.30257392
v -5.7389913e-17 0.13956309 0.31324757
v -8.1074437e-2 0.13956309 0.30257392
v -0.15662379 0.13956309 0.27128035
v -0.22149948 0.13956309 0.22149948
v -0.27128035 0.13956309 0.15662379
v -0.30257392 0.13956309 8.1074437e-2
v -0.31324757 0.13956309 3.5578292e-17
v -0.30257392 0.13956309 -8.1074437e-2
v -0.27128035 0.13956309 -0.15662379
v -0.22149948 0.13956309 -0.22149948
v -0.15662379 0.13956309 -0.27128035
v -8.1074437e-2 0.13956309 -0.30257392
v -1.3417428e-16 0.13956309 -0.31324757
v 8.1074437e-2 0.13956309 -0.30257392
v 0.15662379 0.13956309 -0.27128035
v 0.22149948 0.13956309 -0.22149948
v 0.27128035 0.13956309 -0.15662379
v 0.30257392 0.13956309 -8.1074437e-2
v 0.31324757 0.13956309 -3.1960742e-18
v 0.30257392 0.13956309 8.1074437e-2
v 0.15164801 0.14789642 4.0633961e-2
v 0.15699757 0.14789642 -4.5471482e-18
v 0.15164801 0.14789642 -4.0633961e-2
v 0.13596388 0.14789642 -7.8498785e-2
v 0.11101405 0.14789642 -0.11101405
v 7.8498785e-2 0.14789642 -0.13596388
v 4.0633961e-2 0.14789642 -0.15164801
v -1.2121876e-16 0.14789642 -0.15699757
v -4.0633961e-2 0.14789642 -0.15164801
v -7.8498785e-2 0.14789642 -0.13596388
v -0.11101405 0.14789642 -0.11101405
v -0.13596388 0.14789642 -7.8498785e-2
v -0.15164801 0.14789642 -4.0633961e-2
v -0.15699757 0.14789642 1.6474470e-17
v -0.15164801 0.14789642 4.0633961e-2
v -0.13596388 0.14789642 7.8498785e-2
v -0.11101405 0.14789642 0.11101405
v -7.8498785e-2 0.14789642 0.13596388
v -4.0633961e-2 0.14789642 0.15164801
v -8.3037991e-17 0.14789642 0.15699757
v 4.0633961e-2 0.14789642 0.15164801
v 7.8498785e-2 0.14789642 0.13596388
v 0.11101405 0.14789642 0.11101405
v 0.13596388 0.14789642 7.8498785e-2
vt 0.89432721 0.35213419
vt 0.89558788 0.34025120
vt 0.89561134 0.36405237
vt 0.89675165 0.39524169
vt 0.89675165 0.39524169
vt 0.89675165 0.39523741
vt 0.89675165 0.39524169
vt 0.90033105 0.37501651
vt 0.90039556 0.32938091
vt 0.90756471 0.38436412
vt 0.90756471 0.38436412
vt 0.90756471 0.38436412
vt 0.90756471 0.38435984
vt 0.90756471 0.38437394
vt 0.90762336 0.31981233
vt 0.90931944 0.35214592
vt 0.90939245 0.40499410
vt 0.90939245 0.40499410
vt 0.90939245 0.40498982
vt 0.90939245 0.40499410
vt 0.91036179 0.36006335
vt 0.91036179 0.34422850
vt 0.91341780 0.33685063
vt 0.91341780 0.36744121
vt 0.91692213 0.31229128
vt 0.91702184 0.39177532
vt 0.91702184 0.39177960
vt 0.91702184 0.39177960
vt 0.91702184 0.39177960
vt 0.91702184 0.39178942
vt 0.91827922 0.33051511
vt 0.91827922 0.37377673
vt 0.92411297 0.41108726
vt 0.92411297 0.41109154
vt 0.92411297 0.41109154
vt 0.92411297 0.41109154
vt 0.92457823 0.35214592
vt 0.92461473 0.32565370
vt 0.92461473 0.37863814
vt 0.92510065 0.35611408
vt 0.92510065 0.34817776
vt 0.92663230 0.34448003
vt 0.92663230 0.35981182
vt 0.92806223 0.39635268
vt 0.92806223 0.30792935
vt 0.92806223 0.39635268
vt 0.92806223 0.39634840
vt 0.92806223 0.39635268
vt 0.92806223 0.39636250
vt 0.92906881 0.34130471
vt 0.92906881 0.36298714
vt 0.93199260 0.38169416
vt 0.93199260 0.32259769
vt 0.93224413 0.33886820
vt 0.93224413 0.36542365
vt 0.93594187 0.33733655
vt 0.93594187 0.36695530
vt 0.93991003 0.39791247
vt 0.93991003 0.41317126
vt 0.93991003 0.33681413
vt 0.93991003 0.41316698
vt 0.93991003 0.32155534
vt 0.93991003 0.35214592
vt 0.93991003 0.36747772
vt 0.93991003 0.38273651
vt 0.93991003 0.39790819
vt 0.93991003 0.39791247
vt 0.93991003 0.39791247
vt 0.93991003 0.39792229
vt 0.93991003 0.41317126
vt 0.93991003 0.41317126
vt 0.93993935 0.30628744
vt 0.94387819 0.33733655
vt 0.94387819 0.36695530
vt 0.94757592 0.33886820
vt 0.94757592 0.36542365
vt 0.94782745 0.32259769
vt 0.94782745 0.38169416
vt 0.95075124 0.34130471
vt 0.95075124 0.36298714
vt 0.95178128 0.30799386
vt 0.95181647 0.39625884
vt 0.95181647 0.39625884
vt 0.95181647 0.39625455
vt 0.95181647 0.39625884
vt 0.95181647 0.39626865
vt 0.95318775 0.35981182
vt 0.95318775 0.34448003
vt 0.95471940 0.34817776
vt 0.95471940 0.35611408
vt 0.95520532 0.32565370
vt 0.95520532 0.37863814
vt 0.95524182 0.35214592
vt 0.95587131 0.41128509
vt 0.95587131 0.41128509
vt 0.95587131 0.41128509
vt 0.95587131 0.41128081
vt 0.96154083 0.37377673
vt 0.96154083 0.33051511
vt 0.96272196 0.31264906
vt 0.96285686 0.39168576
vt 0.96285686 0.39168148
vt 0.96285686 0.39168576
vt 0.96285686 0.39168576
vt 0.96285686 0.39169558
vt 0.96640225 0.33685063
vt 0.96640225 0.36744121
vt 0.96945826 0.34422850
vt 0.96945826 0.36006335
vt 0.97042760 0.40499410
vt 0.97042760 0.40499410
vt 0.97042760 0.40498982
vt 0.97042760 0.40499410
vt 0.97050061 0.35214592
vt 0.97205006 0.32001175
vt 0.97227881 0.38450488
vt 0.97227881 0.38450060
vt 0.97227881 0.38450488
vt 0.97227881 0.38450488
vt 0.97227881 0.38451470
vt 0.97955352 0.37503411
vt 0.97955352 0.32925774
vt 0.98340243 0.39509776
vt 0.98340243 0.39509348
vt 0.98340243 0.39509776
vt 0.98340243 0.39509776
vt 0.98412074 0.34035678
vt 0.98417939 0.36406410
vt 0.98568639 0.35214592
vn -2.7468963e-18 1.00000000 8.8587406e-17
vn 6.3449300e-2 0.99731251 3.6632471e-2
vn 5.1806137e-2 0.99731251 5.1806137e-2
vn 3.6632471e-2 0.99731251 6.3449300e-2
vn 1.8962362e-2 0.99731251 7.0768499e-2
vn 5.2054765e-18 0.99731251 7.3264941e-2
vn -1.8962362e-2 0.99731251 7.0768499e-2
vn -3.6632471e-2 0.99731251 6.3449300e-2
vn -5.1806137e-2 0.99731251 5.1806137e-2
vn -6.3449300e-2 0.99731251 3.6632471e-2
vn -7.0768499e-2 0.99731251 1.8962362e-2
vn -7.3264941e-2 0.99731251 1.5833324e-17
vn -7.0768499e-2 0.99731251 -1.8962362e-2
vn -6.3449300e-2 0.99731251 -3.6632471e-2
vn -5.1806137e-2 0.99731251 -5.1806137e-2
vn -3.6632471e-2 0.99731251 -6.3449300e-2
vn -1.8962362e-2 0.99731251 -7.0768499e-2
vn -2.6894962e-17 0.99731251 -7.3264941e-2
vn 1.8962362e-2 0.99731251 -7.0768499e-2
vn 3.6632471e-2 0.99731251 -6.3449300e-2
vn 5.1806137e-2 0.99731251 -5.1806137e-2
vn 6.3449300e-2 0.99731251 -3.6632471e-2
vn 7.0768499e-2 0.99731251 -1.8962362e-2
vn 7.3264941e-2 0.99731251 -2.3858434e-17
vn 7.0768499e-2 0.99731251 1.8962362e-2
vn 3.2198196e-2 0.99944427 8.6274807e-3
vn 3.3334026e-2 0.99944427 -1.0139439e-17
vn 3.2198196e-2 0.99944427 -8.6274807e-3
vn 2.8868113e-2 0.99944427 -1.6667013e-2
vn 2.3570716e-2 0.99944427 -2.3570716e-2
vn 1.6667013e-2 0.99944427 -2.8868113e-2
vn 8.6274807e-3 0.99944427 -3.2198196e-2
vn -8.1332398e-18 0.99944427 -3.3334026e-2
vn -8.6274807e-3 0.99944427 -3.2198196e-2
vn -1.6667013e-2 0.99944427 -2.8868113e-2
vn -2.3570716e-2 0.99944427 -2.3570716e-2
vn -2.8868113e-2 0.99944427 -1.6667013e-2
vn -3.2198196e-2 0.99944427 -8.6274807e-3
vn -3.3334026e-2 0.99944427 4.0666199e-18
vn -3.2198196e-2 0.99944427 8.6274807e-3
vn -2.8868113e-2 0.99944427 1.6667013e-2
vn -2.3570716e-2 0.99944427 2.3570716e-2
vn -1.6667013e-2 0.99944427 2.8868113e-2
vn -8.6274807e-3 0.99944427 3.2198196e-2
vn -5.7474895e-18 0.99944427 3.3334026e-2
vn 8.6274807e-3 0.99944427 3.2198196e-2
vn 1.6667013e-2 0.99944427 2.8868113e-2
vn 2.3570716e-2 0.99944427 2.3570716e-2
vn 2.8868113e-2 0.99944427 1.6667013e-2
vn 0.84799830 0.52999894 -1.4662205e-16
vn 0.84799830 0.52999894 -1.4662205e-16
vn 9.3243807e-2 0.99564331 -2.5155386e-17
vn 9.3243807e-2 0.99564331 -2.5155386e-17
vn 0.81910346 0.52999894 0.21947811
vn 0.81910346 0.52999894 0.21947811
vn 9.0066602e-2 0.99564331 2.4133273e-2
vn 9.0066602e-2 0.99564331 2.4133273e-2
vn 0.73438807 0.52999894 0.42399915
vn 0.73438807 0.52999894 0.42399915
vn 8.0751506e-2 0.99564331 4.6621904e-2
vn 8.0751506e-2 0.99564331 4.6621904e-2
vn 0.59962535 0.52999894 0.59962535
vn 0.59962535 0.52999894 0.59962535
vn 6.5933328e-2 0.99564331 6.5933328e-2
vn 6.5933328e-2 0.99564331 6.5933328e-2
vn 0.42399915 0.52999894 0.73438807
vn 0.42399915 0.52999894 0.73438807
vn 4.6621904e-2 0.99564331 8.0751506e-2
vn 4.6621904e-2 0.99564331 8.0751506e-2
vn 0.21947811 0.52999894 0.81910346
vn 0.21947811 0.52999894 0.81910346
vn 2.4133273e-2 0.99564331 9.0066602e-2
vn 2.4133273e-2 0.99564331 9.0066602e-2
vn 3.0022610e-16 0.52999894 0.84799830
vn 3.0022610e-16 0.52999894 0.84799830
vn 1.7348542e-17 0.99564331 9.3243807e-2
vn 1.7348542e-17 0.99564331 9.3243807e-2
vn -0.21947811 0.52999894 0.81910346
vn -0.21947811 0.52999894 0.81910346
vn -2.4133273e-2 0.99564331 9.0066602e-2
vn -2.4133273e-2 0.99564331 9.0066602e-2
vn -0.42399915 0.52999894 0.73438807
vn -0.42399915 0.52999894 0.73438807
vn -4.6621904e-2 0.99564331 8.0751506e-2
vn -4.6621904e-2 0.99564331 8.0751506e-2
vn -0.59962535 0.52999894 0.59962535
vn -0.59962535 0.52999894 0.59962535
vn -6.5933328e-2 0.99564331 6.5933328e-2
vn -6.5933328e-2 0.99564331 6.5933328e-2
vn -0.73438807 0.52999894 0.42399915
vn -0.73438807 0.52999894 0.42399915
vn -8.0751506e-2 0.99564331 4.6621904e-2
vn -8.0751506e-2 0.99564331 4.6621904e-2
vn -0.81910346 0.52999894 0.21947811
vn -0.81910346 0.52999894 0.21947811
vn -9.0066602e-2 0.99564331 2.4133273e-2
vn -9.0066602e-2 0.99564331 2.4133273e-2
vn -0.84799830 0.52999894 4.0495613e-16
vn -0.84799830 0.52999894 4.0495613e-16
vn -9.3243807e-2 0.99564331 2.1685677e-17
vn -9.3243807e-2 0.99564331 2.1685677e-17
vn -0.81910346 0.52999894 -0.21947811
vn -0.81910346 0.52999894 -0.21947811
vn -9.0066602e-2 0.99564331 -2.4133273e-2
vn -9.0066602e-2 0.99564331 -2.4133273e-2
vn -0.73438807 0.52999894 -0.42399915
vn -0.73438807 0.52999894 -0.42399915
vn -8.0751506e-2 0.99564331 -4.6621904e-2
vn -8.0751506e-2 0.99564331 -4.6621904e-2
vn -0.59962535 0.52999894 -0.59962535
vn -0.59962535 0.52999894 -0.59962535
vn -6.5933328e-2 0.99564331 -6.5933328e-2
vn -6.5933328e-2 0.99564331 -6.5933328e-2
vn -0.42399915 0.52999894 -0.73438807
vn -0.42399915 0.52999894 -0.73438807
vn -4.6621904e-2 0.99564331 -8.0751506e-2
vn -4.6621904e-2 0.99564331 -8.0751506e-2
vn -0.21947811 0.52999894 -0.81910346
vn -0.21947811 0.52999894 -0.81910346
vn -2.4133273e-2 0.99564331 -9.0066602e-2
vn -2.4133273e-2 0.99564331 -9.0066602e-2
vn -3.7702812e-16 0.52999894 -0.84799830
vn -3.7702812e-16 0.52999894 -0.84799830
vn -3.8166792e-17 0.99564331 -9.3243807e-2
vn -3.8166792e-17 0.99564331 -9.3243807e-2
vn 0.21947811 0.52999894 -0.81910346
vn 0.21947811 0.52999894 -0.81910346
vn 2.4133273e-2 0.99564331 -9.0066602e-2
vn 2.4133273e-2 0.99564331 -9.0066602e-2
vn 0.42399915 0.52999894 -0.73438807
vn 0.42399915 0.52999894 -0.73438807
vn 4.6621904e-2 0.99564331 -8.0751506e-2
vn 4.6621904e-2 0.99564331 -8.0751506e-2
vn 0.59962535 0.52999894 -0.59962535
vn 0.59962535 0.52999894 -0.59962535
vn 6.5933328e-2 0.99564331 -6.5933328e-2
vn 6.5933328e-2 0.99564331 -6.5933328e-2
vn 0.73438807 0.52999894 -0.42399915
vn 0.73438807 0.52999894 -0.42399915
vn 8.0751506e-2 0.99564331 -4.6621904e-2
vn 8.0751506e-2 0.99564331 -4.6621904e-2
vn 0.81910346 0.52999894 -0.21947811
vn 0.81910346 0.52999894 -0.21947811
vn 9.0066602e-2 0.99564331 -2.4133273e-2
vn 9.0066602e-2 0.99564331 -2.4133273e-2
vn 0.84799830 0.52999894 -1.4662205e-16
vn 0.84799830 0.52999894 -1.4662205e-16
vn 0.81910346 0.52999894 0.21947811
vn 0.81910346 0.52999894 0.21947811
vn 0.73438807 0.52999894 0.42399915
vn 0.73438807 0.52999894 0.42399915
vn 0.59962535 0.52999894 0.59962535
vn 0.59962535 0.52999894 0.59962535
vn 0.42399915 0.52999894 0.73438807
vn 0.42399915 0.52999894 0.73438807
vn 0.21947811 0.52999894 0.81910346
vn 0.21947811 0.52999894 0.81910346
vn 3.0022610e-16 0.52999894 0.84799830
vn 3.0022610e-16 0.52999894 0.84799830
vn -0.21947811 0.52999894 0.81910346
vn -0.21947811 0.52999894 0.81910346
vn -0.42399915 0.52999894 0.73438807
vn -0.42399915 0.52999894 0.73438807
vn -0.59962535 0.52999894 0.59962535
vn -0.59962535 0.52999894 0.59962535
vn -0.73438807 0.52999894 0.42399915
vn -0.73438807 0.52999894 0.42399915
vn -0.81910346 0.52999894 0.21947811
vn -0.81910346 0.52999894 0.21947811
vn -0.84799830 0.52999894 4.0495613e-16
vn -0.84799830 0.52999894 4.0495613e-16
vn -0.81910346 0.52999894 -0.21947811
vn -0.81910346 0.52999894 -0.21947811
vn -0.73438807 0.52999894 -0.42399915
vn -0.73438807 0.52999894 -0.42399915
vn -0.59962535 0.52999894 -0.59962535
vn -0.59962535 0.52999894 -0.59962535
vn -0.42399915 0.52999894 -0.73438807
vn -0.42399915 0.52999894 -0.73438807
vn -0.21947811 0.52999894 -0.81910346
vn -0.21947811 0.52999894 -0.81910346
vn -3.7702812e-16 0.52999894 -0.84799830
vn -3.7702812e-16 0.52999894 -0.84799830
vn 0.21947811 0.52999894 -0.81910346
vn 0.21947811 0.52999894 -0.81910346
vn 0.42399915 0.52999894 -0.73438807
vn 0.42399915 0.52999894 -0.73438807
vn 0.59962535 0.52999894 -0.59962535
vn 0.59962535 0.52999894 -0.59962535
vn 0.73438807 0.52999894 -0.42399915
vn 0.73438807 0.52999894 -0.42399915
vn 0.81910346 0.52999894 -0.21947811
vn 0.81910346 0.52999894 -0.21947811
g 1_1_auv
usemtl 1_auv
s 1
f 1/115/52 72/99/24 73/91/25 2/100/56
f 2/100/57 73/91/25 50/77/2 3/81/61
f 3/81/60 50/77/2 51/62/3 4/72/65
f 4/72/64 51/62/3 52/53/4 5/45/69
f 5/45/68 52/53/4 53/38/5 6/25/73
f 6/25/72 53/38/5 54/31/6 7/15/77
f 7/15/76 54/31/6 55/23/7 8/9/81
f 8/9/80 55/23/7 56/22/8 9/2/85
f 9/2/84 56/22/8 57/16/9 10/1/89
f 10/1/88 57/16/9 58/21/10 11/3/93
f 11/3/92 58/21/10 59/24/11 12/8/97
f 12/8/96 59/24/11 60/32/12 13/14/101
f 13/14/100 60/32/12 61/39/13 14/30/105
f 14/30/104 61/39/13 62/52/14 15/49/109
f 15/49/108 62/52/14 63/65/15 16/69/113
f 16/69/112 63/65/15 64/78/16 17/86/117
f 17/86/116 64/78/16 65/92/17 18/105/121
f 18/105/120 65/92/17 66/98/18 19/120/125
f 19/120/124 66/98/18 67/107/19 20/121/129
f 20/121/128 67/107/19 68/109/20 21/128/133
f 21/128/132 68/109/20 69/114/21 22/129/137
f 22/129/136 69/114/21 70/108/22 23/127/141
f 23/127/140 70/108/22 71/106/23 24/122/145
f 24/122/144 71/106/23 72/99/24 1/115/53
f 49/63/1 97/73/49 74/75/26
f 50/77/2 73/91/25 74/75/26 97/73/49
f 74/75/26 75/79/27 49/63/1
f 75/79/27 74/75/26 73/91/25 72/99/24
f 75/79/27 76/88/28 49/63/1
f 76/88/28 75/79/27 72/99/24 71/106/23
f 76/88/28 77/89/29 49/63/1
f 77/89/29 76/88/28 71/106/23 70/108/22
f 77/89/29 78/93/30 49/63/1
f 78/93/30 77/89/29 70/108/22 69/114/21
f 78/93/30 79/90/31 49/63/1
f 79/90/31 78/93/30 69/114/21 68/109/20
f 79/90/31 80/87/32 49/63/1
f 80/87/32 79/90/31 68/109/20 67/107/19
f 80/87/32 81/80/33 49/63/1
f 81/80/33 80/87/32 67/107/19 66/98/18
f 81/80/33 82/76/34 49/63/1
f 82/76/34 81/80/33 66/98/18 65/92/17
f 82/76/34 83/74/35 49/63/1
f 83/74/35 82/76/34 65/92/17 64/78/16
f 83/74/35 84/64/36 49/63/1
f 84/64/36 83/74/35 64/78/16 63/65/15
f 84/64/36 85/57/37 49/63/1
f 85/57/37 84/64/36 63/65/15 62/52/14
f 85/57/37 86/55/38 49/63/1
f 86/55/38 85/57/37 62/52/14 61/39/13
f 86/55/38 87/51/39 49/63/1
f 87/51/39 86/55/38 61/39/13 60/32/12
f 87/51/39 88/43/40 49/63/1
f 88/43/40 87/51/39 60/32/12 59/24/11
f 88/43/40 89/40/41 49/63/1
f 89/40/41 88/43/40 59/24/11 58/21/10
f 89/40/41 90/37/42 49/63/1
f 90/37/42 89/40/41 58/21/10 57/16/9
f 90/37/42 91/41/43 49/63/1
f 91/41/43 90/37/42 57/16/9 56/22/8
f 91/41/43 92/42/44 49/63/1
f 92/42/44 91/41/43 56/22/8 55/23/7
f 92/42/44 93/50/45 49/63/1
f 93/50/45 92/42/44 55/23/7 54/31/6
f 93/50/45 94/54/46 49/63/1
f 94/54/46 93/50/45 54/31/6 53/38/5
f 94/54/46 95/56/47 49/63/1
f 95/56/47 94/54/46 53/38/5 52/53/4
f 95/56/47 96/60/48 49/63/1
f 96/60/48 95/56/47 52/53/4 51/62/3
f 96/60/48 97/73/49 49/63/1
f 97/73/49 96/60/48 51/62/3 50/77/2
s 2
f 1/118/50 25/125/146 48/111/192 24/103/142
f 2/29/55 26/20/149 25/5/147 1/12/51
f 3/48/59 27/36/151 26/20/148 2/29/54
f 4/68/63 28/71/153 27/36/150 3/48/58
f 5/85/67 29/96/155 28/71/152 4/68/62
f 6/104/71 30/113/157 29/96/154 5/85/66
f 7/119/75 31/126/159 30/113/156 6/104/70
f 8/27/79 32/17/161 31/7/158 7/11/74
f 9/44/83 33/34/163 32/17/160 8/27/78
f 10/58/87 34/59/165 33/34/162 9/44/82
f 11/82/91 35/94/167 34/59/164 10/58/86
f 12/101/95 36/110/169 35/94/166 11/82/90
f 13/116/99 37/123/171 36/110/168 12/101/94
f 14/26/103 38/19/173 37/6/170 13/13/98
f 15/47/107 39/33/175 38/19/172 14/26/102
f 16/66/111 40/61/177 39/33/174 15/47/106
f 17/84/115 41/97/179 40/61/176 16/66/110
f 18/102/119 42/112/181 41/97/178 17/84/114
f 19/117/123 43/124/183 42/112/180 18/102/118
f 20/28/127 44/18/185 43/4/182 19/10/122
f 21/46/131 45/35/187 44/18/184 20/28/126
f 22/67/135 46/70/189 45/35/186 21/46/130
f 23/83/139 47/95/191 46/70/188 22/67/134
f 24/103/143 48/111/193 47/95/190 23/83/138
