# Exported from Wings 3D 1.5.4
mtllib vega_adapter_s1p5_1.mtl
o 1
#96 vertices, 72 faces
v 0.93750000 6.2500000e-2 -2.0961242e-18
v 0.90555546 6.2500000e-2 0.24264285
v 0.81189882 6.2500000e-2 0.46875000
v 0.66291261 6.2500000e-2 0.66291261
v 0.46875000 6.2500000e-2 0.81189882
v 0.24264285 6.2500000e-2 0.90555546
v 2.2962127e-16 6.2500000e-2 0.93750000
v -0.24264285 6.2500000e-2 0.90555546
v -0.46875000 6.2500000e-2 0.81189882
v -0.66291261 6.2500000e-2 0.66291261
v -0.81189882 6.2500000e-2 0.46875000
v -0.90555546 6.2500000e-2 0.24264285
v -0.93750000 6.2500000e-2 1.1271451e-16
v -0.90555546 6.2500000e-2 -0.24264285
v -0.81189882 6.2500000e-2 -0.46875000
v -0.66291261 6.2500000e-2 -0.66291261
v -0.46875000 6.2500000e-2 -0.81189882
v -0.24264285 6.2500000e-2 -0.90555546
v 0.0000000e+0 6.2500000e-2 -0.93750000
v 0.24264285 6.2500000e-2 -0.90555546
v 0.46875000 6.2500000e-2 -0.81189882
v 0.66291261 6.2500000e-2 -0.66291261
v 0.81189882 6.2500000e-2 -0.46875000
v 0.90555546 6.2500000e-2 -0.24264285
v 0.93750000 -0.18750000 -2.0961242e-18
v 0.90555546 -0.18750000 0.24264285
v 0.81189882 -0.18750000 0.46875000
v 0.66291261 -0.18750000 0.66291261
v 0.46875000 -0.18750000 0.81189882
v 0.24264285 -0.18750000 0.90555546
v 2.2962127e-16 -0.18750000 0.93750000
v -0.24264285 -0.18750000 0.90555546
v -0.46875000 -0.18750000 0.81189882
v -0.66291261 -0.18750000 0.66291261
v -0.81189882 -0.18750000 0.46875000
v -0.90555546 -0.18750000 0.24264285
v -0.93750000 -0.18750000 1.1271451e-16
v -0.90555546 -0.18750000 -0.24264285
v -0.81189882 -0.18750000 -0.46875000
v -0.66291261 -0.18750000 -0.66291261
v -0.46875000 -0.18750000 -0.81189882
v -0.24264285 -0.18750000 -0.90555546
v 0.0000000e+0 -0.18750000 -0.93750000
v 0.24264285 -0.18750000 -0.90555546
v 0.46875000 -0.18750000 -0.81189882
v 0.66291261 -0.18750000 -0.66291261
v 0.81189882 -0.18750000 -0.46875000
v 0.90555546 -0.18750000 -0.24264285
v 0.84518510 0.18750000 0.22646666
v 0.87500000 0.18750000 -3.1899637e-18
v 0.84518510 0.18750000 -0.22646666
v 0.75777223 0.18750000 -0.43750000
v 0.61871843 0.18750000 -0.61871843
v 0.43750000 0.18750000 -0.75777223
v 0.22646666 0.18750000 -0.84518510
v 8.9753521e-18 0.18750000 -0.87500000
v -0.22646666 0.18750000 -0.84518510
v -0.43750000 0.18750000 -0.75777223
v -0.61871843 0.18750000 -0.61871843
v -0.75777223 0.18750000 -0.43750000
v -0.84518510 0.18750000 -0.22646666
v -0.87500000 0.18750000 1.0396663e-16
v -0.84518510 0.18750000 0.22646666
v -0.75777223 0.18750000 0.43750000
v -0.61871843 0.18750000 0.61871843
v -0.43750000 0.18750000 0.75777223
v -0.22646666 0.18750000 0.84518510
v 2.2328854e-16 0.18750000 0.87500000
v 0.22646666 0.18750000 0.84518510
v 0.43750000 0.18750000 0.75777223
v 0.61871843 0.18750000 0.61871843
v 0.75777223 0.18750000 0.43750000
v 0.54126588 0.18750000 0.31250000
v 0.60370364 0.18750000 0.16176190
v 0.62500000 0.18750000 1.8031777e-17
v 0.60370364 0.18750000 -0.16176190
v 0.54126588 0.18750000 -0.31250000
v 0.44194174 0.18750000 -0.44194174
v 0.31250000 0.18750000 -0.54126588
v 0.16176190 0.18750000 -0.60370364
v 6.6749873e-17 0.18750000 -0.62500000
v -0.16176190 0.18750000 -0.60370364
v -0.31250000 0.18750000 -0.54126588
v -0.44194174 0.18750000 -0.44194174
v -0.54126588 0.18750000 -0.31250000
v -0.60370364 0.18750000 -0.16176190
v -0.62500000 0.18750000 5.4055581e-17
v -0.60370364 0.18750000 0.16176190
v -0.54126588 0.18750000 0.31250000
v -0.44194174 0.18750000 0.44194174
v -0.31250000 0.18750000 0.54126588
v -0.16176190 0.18750000 0.60370364
v 1.8646287e-16 0.18750000 0.62500000
v 0.16176190 0.18750000 0.60370364
v 0.31250000 0.18750000 0.54126588
v 0.44194174 0.18750000 0.44194174
vt 0.85131043 0.81768818
vt 0.85131043 0.84155533
vt 0.85131043 0.81768818
vt 0.85131043 0.81768818
vt 0.85131043 0.84155533
vt 0.85131043 0.84155533
vt 0.85131043 0.81768818
vt 0.85131043 0.84155533
vt 0.85285155 0.85528653
vt 0.85285155 0.85528653
vt 0.85285155 0.85528653
vt 0.85285155 0.85528653
vt 0.86221382 0.86498252
vt 0.86221382 0.86498252
vt 0.87495579 0.81768818
vt 0.87495579 0.84155533
vt 0.87495579 0.85528653
vt 0.87495579 0.81768818
vt 0.87495579 0.84155533
vt 0.87495579 0.85528653
vt 0.87495579 0.81768818
vt 0.87495579 0.84155533
vt 0.87495579 0.85528653
vt 0.87495579 0.81768818
vt 0.87495579 0.84155533
vt 0.87495579 0.85528653
vt 0.87936383 0.88646711
vt 0.87936383 0.88646711
vt 0.87979474 0.86498252
vt 0.87979474 0.86498252
vt 0.89192163 0.88646711
vt 0.89192163 0.88646711
vt 0.89192163 0.88646711
vt 0.89765115 0.85528653
vt 0.89765115 0.85528653
vt 0.89765115 0.85528653
vt 0.89765115 0.85528653
vt 0.89867190 0.81768818
vt 0.89867190 0.84155533
vt 0.89867190 0.81768818
vt 0.89867190 0.84155533
vt 0.89867190 0.81768818
vt 0.89867190 0.84155533
vt 0.89867190 0.81768818
vt 0.89867190 0.84155533
vt 0.89979664 0.85528653
vt 0.89979664 0.85528653
vt 0.89979664 0.85528653
vt 0.89979664 0.85528653
vt 0.90026816 0.86498252
vt 0.90026816 0.86498252
vt 0.90026816 0.86498252
vt 0.90654550 0.88646711
vt 0.90654550 0.88646711
vt 0.90654550 0.88646711
vt 0.92223884 0.85528653
vt 0.92223884 0.81768818
vt 0.92223884 0.84155533
vt 0.92223884 0.85528653
vt 0.92223884 0.81768818
vt 0.92223884 0.84155533
vt 0.92223884 0.85528653
vt 0.92223884 0.86498252
vt 0.92223884 0.88646711
vt 0.92223884 0.86498252
vt 0.92223884 0.88646711
vt 0.92223884 0.81768818
vt 0.92223884 0.84155533
vt 0.92223884 0.84155533
vt 0.92223884 0.81768818
vt 0.92223884 0.85528653
vt 0.93793219 0.88646711
vt 0.93793219 0.88646711
vt 0.94420952 0.86498252
vt 0.94420952 0.86498252
vt 0.94442929 0.85528653
vt 0.94442929 0.85528653
vt 0.94442929 0.85528653
vt 0.94442929 0.85528653
vt 0.94604712 0.84155533
vt 0.94604712 0.84155533
vt 0.94604712 0.84155533
vt 0.94604712 0.84155533
vt 0.94629892 0.81768818
vt 0.94629892 0.81768818
vt 0.94629892 0.81768818
vt 0.94629892 0.81768818
vt 0.94690737 0.85528653
vt 0.94690737 0.85528653
vt 0.94690737 0.85528653
vt 0.94690737 0.85528653
vt 0.95255605 0.88646711
vt 0.95255605 0.88646711
vt 0.96468294 0.86498252
vt 0.96511386 0.88646711
vt 0.96511386 0.88646711
vt 0.96952190 0.81768818
vt 0.96952190 0.84155533
vt 0.96952190 0.85528653
vt 0.96952190 0.81768818
vt 0.96952190 0.84155533
vt 0.96952190 0.85528653
vt 0.96952190 0.81768818
vt 0.96952190 0.84155533
vt 0.96952190 0.85528653
vt 0.96952190 0.81768818
vt 0.96952190 0.84155533
vt 0.96952190 0.85528653
vt 0.98226386 0.86498252
vt 0.98226386 0.86498252
vt 0.99148986 0.85528653
vt 0.99148986 0.85528653
vt 0.99148986 0.85528653
vt 0.99148986 0.85528653
vt 0.99341208 0.81768818
vt 0.99341208 0.84155533
vt 0.99341208 0.81768818
vt 0.99341208 0.84155533
vt 0.99341208 0.81768818
vt 0.99341208 0.84155533
vt 0.99341208 0.81768818
vt 0.99341208 0.84155533
vn 0.0000000e+0 1.00000000 0.0000000e+0
vn 0.0000000e+0 1.00000000 0.0000000e+0
vn 0.0000000e+0 1.00000000 0.0000000e+0
vn 0.0000000e+0 1.00000000 0.0000000e+0
vn 0.0000000e+0 1.00000000 0.0000000e+0
vn 0.0000000e+0 1.00000000 0.0000000e+0
vn 0.0000000e+0 1.00000000 0.0000000e+0
vn 0.0000000e+0 1.00000000 0.0000000e+0
vn 0.0000000e+0 1.00000000 0.0000000e+0
vn 0.0000000e+0 1.00000000 0.0000000e+0
vn 0.0000000e+0 1.00000000 0.0000000e+0
vn 0.0000000e+0 1.00000000 0.0000000e+0
vn 0.0000000e+0 1.00000000 0.0000000e+0
vn 0.0000000e+0 1.00000000 0.0000000e+0
vn 0.0000000e+0 1.00000000 0.0000000e+0
vn 0.0000000e+0 1.00000000 0.0000000e+0
vn 0.0000000e+0 1.00000000 0.0000000e+0
vn 0.0000000e+0 1.00000000 0.0000000e+0
vn 0.0000000e+0 1.00000000 0.0000000e+0
vn 0.0000000e+0 1.00000000 0.0000000e+0
vn 0.0000000e+0 1.00000000 0.0000000e+0
vn 0.0000000e+0 1.00000000 0.0000000e+0
vn 0.0000000e+0 1.00000000 0.0000000e+0
vn 0.0000000e+0 1.00000000 0.0000000e+0
vn 1.00000000 0.0000000e+0 -2.3795816e-16
vn 1.00000000 0.0000000e+0 -2.3795816e-16
vn 0.89442719 0.44721360 -2.3755240e-16
vn 0.89442719 0.44721360 -2.3755240e-16
vn 0.96592583 0.0000000e+0 0.25881905
vn 0.96592583 0.0000000e+0 0.25881905
vn 0.86395032 0.44721360 0.23149479
vn 0.86395032 0.44721360 0.23149479
vn 0.86602540 0.0000000e+0 0.50000000
vn 0.86602540 0.0000000e+0 0.50000000
vn 0.77459667 0.44721360 0.44721360
vn 0.77459667 0.44721360 0.44721360
vn 0.70710678 0.0000000e+0 0.70710678
vn 0.70710678 0.0000000e+0 0.70710678
vn 0.63245553 0.44721360 0.63245553
vn 0.63245553 0.44721360 0.63245553
vn 0.50000000 0.0000000e+0 0.86602540
vn 0.50000000 0.0000000e+0 0.86602540
vn 0.44721360 0.44721360 0.77459667
vn 0.44721360 0.44721360 0.77459667
vn 0.25881905 0.0000000e+0 0.96592583
vn 0.25881905 0.0000000e+0 0.96592583
vn 0.23149479 0.44721360 0.86395032
vn 0.23149479 0.44721360 0.86395032
vn 1.5397293e-16 0.0000000e+0 1.00000000
vn 1.5397293e-16 0.0000000e+0 1.00000000
vn 1.3973671e-16 0.44721360 0.89442719
vn 1.3973671e-16 0.44721360 0.89442719
vn -0.25881905 0.0000000e+0 0.96592583
vn -0.25881905 0.0000000e+0 0.96592583
vn -0.23149479 0.44721360 0.86395032
vn -0.23149479 0.44721360 0.86395032
vn -0.50000000 0.0000000e+0 0.86602540
vn -0.50000000 0.0000000e+0 0.86602540
vn -0.44721360 0.44721360 0.77459667
vn -0.44721360 0.44721360 0.77459667
vn -0.70710678 0.0000000e+0 0.70710678
vn -0.70710678 0.0000000e+0 0.70710678
vn -0.63245553 0.44721360 0.63245553
vn -0.63245553 0.44721360 0.63245553
vn -0.86602540 0.0000000e+0 0.50000000
vn -0.86602540 0.0000000e+0 0.50000000
vn -0.77459667 0.44721360 0.44721360
vn -0.77459667 0.44721360 0.44721360
vn -0.96592583 0.0000000e+0 0.25881905
vn -0.96592583 0.0000000e+0 0.25881905
vn -0.86395032 0.44721360 0.23149479
vn -0.86395032 0.44721360 0.23149479
vn -1.00000000 0.0000000e+0 3.4993847e-16
vn -1.00000000 0.0000000e+0 3.4993847e-16
vn -0.89442719 0.44721360 3.1440759e-16
vn -0.89442719 0.44721360 3.1440759e-16
vn -0.96592583 0.0000000e+0 -0.25881905
vn -0.96592583 0.0000000e+0 -0.25881905
vn -0.86395032 0.44721360 -0.23149479
vn -0.86395032 0.44721360 -0.23149479
vn -0.86602540 0.0000000e+0 -0.50000000
vn -0.86602540 0.0000000e+0 -0.50000000
vn -0.77459667 0.44721360 -0.44721360
vn -0.77459667 0.44721360 -0.44721360
vn -0.70710678 0.0000000e+0 -0.70710678
vn -0.70710678 0.0000000e+0 -0.70710678
vn -0.63245553 0.44721360 -0.63245553
vn -0.63245553 0.44721360 -0.63245553
vn -0.50000000 0.0000000e+0 -0.86602540
vn -0.50000000 0.0000000e+0 -0.86602540
vn -0.44721360 0.44721360 -0.77459667
vn -0.44721360 0.44721360 -0.77459667
vn -0.25881905 0.0000000e+0 -0.96592583
vn -0.25881905 0.0000000e+0 -0.96592583
vn -0.23149479 0.44721360 -0.86395032
vn -0.23149479 0.44721360 -0.86395032
vn -4.7591632e-16 0.0000000e+0 -1.00000000
vn -4.7591632e-16 0.0000000e+0 -1.00000000
vn -4.6811797e-16 0.44721360 -0.89442719
vn -4.6811797e-16 0.44721360 -0.89442719
vn 0.25881905 0.0000000e+0 -0.96592583
vn 0.25881905 0.0000000e+0 -0.96592583
vn 0.23149479 0.44721360 -0.86395032
vn 0.23149479 0.44721360 -0.86395032
vn 0.50000000 0.0000000e+0 -0.86602540
vn 0.50000000 0.0000000e+0 -0.86602540
vn 0.44721360 0.44721360 -0.77459667
vn 0.44721360 0.44721360 -0.77459667
vn 0.70710678 0.0000000e+0 -0.70710678
vn 0.70710678 0.0000000e+0 -0.70710678
vn 0.63245553 0.44721360 -0.63245553
vn 0.63245553 0.44721360 -0.63245553
vn 0.86602540 0.0000000e+0 -0.50000000
vn 0.86602540 0.0000000e+0 -0.50000000
vn 0.77459667 0.44721360 -0.44721360
vn 0.77459667 0.44721360 -0.44721360
vn 0.96592583 0.0000000e+0 -0.25881905
vn 0.96592583 0.0000000e+0 -0.25881905
vn 0.86395032 0.44721360 -0.23149479
vn 0.86395032 0.44721360 -0.23149479
vn 1.00000000 0.0000000e+0 -2.3795816e-16
vn 1.00000000 0.0000000e+0 -2.3795816e-16
vn 0.96592583 0.0000000e+0 0.25881905
vn 0.96592583 0.0000000e+0 0.25881905
vn 0.86602540 0.0000000e+0 0.50000000
vn 0.86602540 0.0000000e+0 0.50000000
vn 0.70710678 0.0000000e+0 0.70710678
vn 0.70710678 0.0000000e+0 0.70710678
vn 0.50000000 0.0000000e+0 0.86602540
vn 0.50000000 0.0000000e+0 0.86602540
vn 0.25881905 0.0000000e+0 0.96592583
vn 0.25881905 0.0000000e+0 0.96592583
vn 1.5397293e-16 0.0000000e+0 1.00000000
vn 1.5397293e-16 0.0000000e+0 1.00000000
vn -0.25881905 0.0000000e+0 0.96592583
vn -0.25881905 0.0000000e+0 0.96592583
vn -0.50000000 0.0000000e+0 0.86602540
vn -0.50000000 0.0000000e+0 0.86602540
vn -0.70710678 0.0000000e+0 0.70710678
vn -0.70710678 0.0000000e+0 0.70710678
vn -0.86602540 0.0000000e+0 0.50000000
vn -0.86602540 0.0000000e+0 0.50000000
vn -0.96592583 0.0000000e+0 0.25881905
vn -0.96592583 0.0000000e+0 0.25881905
vn -1.00000000 0.0000000e+0 3.4993847e-16
vn -1.00000000 0.0000000e+0 3.4993847e-16
vn -0.96592583 0.0000000e+0 -0.25881905
vn -0.96592583 0.0000000e+0 -0.25881905
vn -0.86602540 0.0000000e+0 -0.50000000
vn -0.86602540 0.0000000e+0 -0.50000000
vn -0.70710678 0.0000000e+0 -0.70710678
vn -0.70710678 0.0000000e+0 -0.70710678
vn -0.50000000 0.0000000e+0 -0.86602540
vn -0.50000000 0.0000000e+0 -0.86602540
vn -0.25881905 0.0000000e+0 -0.96592583
vn -0.25881905 0.0000000e+0 -0.96592583
vn -4.7591632e-16 0.0000000e+0 -1.00000000
vn -4.7591632e-16 0.0000000e+0 -1.00000000
vn 0.25881905 0.0000000e+0 -0.96592583
vn 0.25881905 0.0000000e+0 -0.96592583
vn 0.50000000 0.0000000e+0 -0.86602540
vn 0.50000000 0.0000000e+0 -0.86602540
vn 0.70710678 0.0000000e+0 -0.70710678
vn 0.70710678 0.0000000e+0 -0.70710678
vn 0.86602540 0.0000000e+0 -0.50000000
vn 0.86602540 0.0000000e+0 -0.50000000
vn 0.96592583 0.0000000e+0 -0.25881905
vn 0.96592583 0.0000000e+0 -0.25881905
vn 0.86395032 0.44721360 0.23149479
vn 0.86395032 0.44721360 0.23149479
vn 0.0000000e+0 1.00000000 0.0000000e+0
vn 0.0000000e+0 1.00000000 0.0000000e+0
vn 0.89442719 0.44721360 -2.3755240e-16
vn 0.89442719 0.44721360 -2.3755240e-16
vn 0.0000000e+0 1.00000000 0.0000000e+0
vn 0.0000000e+0 1.00000000 0.0000000e+0
vn 0.86395032 0.44721360 -0.23149479
vn 0.86395032 0.44721360 -0.23149479
vn 0.0000000e+0 1.00000000 0.0000000e+0
vn 0.0000000e+0 1.00000000 0.0000000e+0
vn 0.77459667 0.44721360 -0.44721360
vn 0.77459667 0.44721360 -0.44721360
vn 0.0000000e+0 1.00000000 0.0000000e+0
vn 0.0000000e+0 1.00000000 0.0000000e+0
vn 0.63245553 0.44721360 -0.63245553
vn 0.63245553 0.44721360 -0.63245553
vn 0.0000000e+0 1.00000000 0.0000000e+0
vn 0.0000000e+0 1.00000000 0.0000000e+0
vn 0.44721360 0.44721360 -0.77459667
vn 0.44721360 0.44721360 -0.77459667
vn 0.0000000e+0 1.00000000 0.0000000e+0
vn 0.0000000e+0 1.00000000 0.0000000e+0
vn 0.23149479 0.44721360 -0.86395032
vn 0.23149479 0.44721360 -0.86395032
vn 0.0000000e+0 1.00000000 0.0000000e+0
vn 0.0000000e+0 1.00000000 0.0000000e+0
vn -4.6811797e-16 0.44721360 -0.89442719
vn -4.6811797e-16 0.44721360 -0.89442719
vn 0.0000000e+0 1.00000000 0.0000000e+0
vn 0.0000000e+0 1.00000000 0.0000000e+0
vn -0.23149479 0.44721360 -0.86395032
vn -0.23149479 0.44721360 -0.86395032
vn 0.0000000e+0 1.00000000 0.0000000e+0
vn 0.0000000e+0 1.00000000 0.0000000e+0
vn -0.44721360 0.44721360 -0.77459667
vn -0.44721360 0.44721360 -0.77459667
vn 0.0000000e+0 1.00000000 0.0000000e+0
vn 0.0000000e+0 1.00000000 0.0000000e+0
vn -0.63245553 0.44721360 -0.63245553
vn -0.63245553 0.44721360 -0.63245553
vn 0.0000000e+0 1.00000000 0.0000000e+0
vn 0.0000000e+0 1.00000000 0.0000000e+0
vn -0.77459667 0.44721360 -0.44721360
vn -0.77459667 0.44721360 -0.44721360
vn 0.0000000e+0 1.00000000 0.0000000e+0
vn 0.0000000e+0 1.00000000 0.0000000e+0
vn -0.86395032 0.44721360 -0.23149479
vn -0.86395032 0.44721360 -0.23149479
vn 0.0000000e+0 1.00000000 0.0000000e+0
vn 0.0000000e+0 1.00000000 0.0000000e+0
vn -0.89442719 0.44721360 3.1440759e-16
vn -0.89442719 0.44721360 3.1440759e-16
vn 0.0000000e+0 1.00000000 0.0000000e+0
vn 0.0000000e+0 1.00000000 0.0000000e+0
vn -0.86395032 0.44721360 0.23149479
vn -0.86395032 0.44721360 0.23149479
vn 0.0000000e+0 1.00000000 0.0000000e+0
vn 0.0000000e+0 1.00000000 0.0000000e+0
vn -0.77459667 0.44721360 0.44721360
vn -0.77459667 0.44721360 0.44721360
vn 0.0000000e+0 1.00000000 0.0000000e+0
vn 0.0000000e+0 1.00000000 0.0000000e+0
vn -0.63245553 0.44721360 0.63245553
vn -0.63245553 0.44721360 0.63245553
vn 0.0000000e+0 1.00000000 0.0000000e+0
vn 0.0000000e+0 1.00000000 0.0000000e+0
vn -0.44721360 0.44721360 0.77459667
vn -0.44721360 0.44721360 0.77459667
vn 0.0000000e+0 1.00000000 0.0000000e+0
vn 0.0000000e+0 1.00000000 0.0000000e+0
vn -0.23149479 0.44721360 0.86395032
vn -0.23149479 0.44721360 0.86395032
vn 0.0000000e+0 1.00000000 0.0000000e+0
vn 0.0000000e+0 1.00000000 0.0000000e+0
vn 1.3973671e-16 0.44721360 0.89442719
vn 1.3973671e-16 0.44721360 0.89442719
vn 0.0000000e+0 1.00000000 0.0000000e+0
vn 0.0000000e+0 1.00000000 0.0000000e+0
vn 0.23149479 0.44721360 0.86395032
vn 0.23149479 0.44721360 0.86395032
vn 0.0000000e+0 1.00000000 0.0000000e+0
vn 0.0000000e+0 1.00000000 0.0000000e+0
vn 0.44721360 0.44721360 0.77459667
vn 0.44721360 0.44721360 0.77459667
vn 0.0000000e+0 1.00000000 0.0000000e+0
vn 0.0000000e+0 1.00000000 0.0000000e+0
vn 0.63245553 0.44721360 0.63245553
vn 0.63245553 0.44721360 0.63245553
vn 0.0000000e+0 1.00000000 0.0000000e+0
vn 0.0000000e+0 1.00000000 0.0000000e+0
vn 0.77459667 0.44721360 0.44721360
vn 0.77459667 0.44721360 0.44721360
vn 0.0000000e+0 1.00000000 0.0000000e+0
vn 0.0000000e+0 1.00000000 0.0000000e+0
g 1_1_auv
usemtl 1_auv
s 1
f 49/50/171 74/53/2 73/31/1 72/29/263
f 50/63/175 75/64/3 74/53/2 49/50/172
f 51/75/179 76/73/4 75/64/3 50/63/176
f 52/94/183 77/93/5 76/73/4 51/75/180
f 53/110/187 78/96/6 77/93/5 52/94/184
f 54/29/191 79/32/7 78/27/6 53/13/188
f 55/51/195 80/54/8 79/32/7 54/29/192
f 56/65/199 81/66/9 80/54/8 55/51/196
f 57/75/203 82/73/10 81/66/9 56/65/200
f 58/94/207 83/92/11 82/73/10 57/75/204
f 59/110/211 84/96/12 83/92/11 58/94/208
f 60/30/215 85/33/13 84/28/12 59/14/212
f 61/52/219 86/55/14 85/33/13 60/30/216
f 62/65/223 87/66/15 86/55/14 61/52/220
f 63/75/227 88/73/16 87/66/15 62/65/224
f 64/94/231 89/93/17 88/73/16 63/75/228
f 65/110/235 90/96/18 89/93/17 64/94/232
f 66/30/239 91/32/19 90/28/18 65/14/236
f 67/50/243 92/53/20 91/32/19 66/30/240
f 68/65/247 93/66/21 92/53/20 67/50/244
f 69/74/251 94/72/22 93/66/21 68/65/248
f 70/94/255 95/92/23 94/72/22 69/74/252
f 71/109/259 96/95/24 95/92/23 70/94/256
f 72/29/264 73/31/1 96/27/24 71/13/260
s 2
f 1/61/27 50/59/173 49/47/169 2/41/31
f 2/41/32 49/36/170 72/20/262 3/19/36
f 3/19/35 72/20/261 71/10/258 4/6/40
f 4/120/39 71/111/257 70/105/254 5/104/44
f 5/104/43 70/105/253 69/89/250 6/82/48
f 6/82/47 69/78/249 68/62/246 7/68/52
f 7/68/51 68/62/245 67/48/242 8/45/56
f 8/45/55 67/34/241 66/23/238 9/22/60
f 9/22/59 66/23/237 65/11/234 10/5/64
f 10/116/63 65/112/233 64/99/230 11/98/68
f 11/98/67 64/99/229 63/88/226 12/80/72
f 12/80/71 63/76/225 62/56/222 13/58/76
f 13/58/75 62/56/221 61/46/218 14/39/80
f 14/39/79 61/35/217 60/17/214 15/16/84
f 15/16/83 60/17/213 59/9/210 16/2/88
f 16/122/87 59/114/209 58/108/206 17/107/92
f 17/107/91 58/108/205 57/91/202 18/83/96
f 18/83/95 57/79/201 56/71/198 19/69/100
f 19/69/99 56/71/197 55/49/194 20/43/104
f 20/43/103 55/37/193 54/26/190 21/25/108
f 21/25/107 54/26/189 53/12/186 22/8/112
f 22/118/111 53/113/185 52/102/182 23/101/116
f 23/101/115 52/102/181 51/90/178 24/81/120
f 24/81/119 51/77/177 50/59/174 1/61/28
s 3
f 1/61/25 25/60/121 48/85/167 24/81/117
f 2/41/30 26/40/124 25/60/122 1/61/26
f 3/19/34 27/18/126 26/40/123 2/41/29
f 4/6/38 28/4/128 27/18/125 3/19/33
f 5/104/42 29/103/130 28/119/127 4/120/37
f 6/82/46 30/87/132 29/103/129 5/104/41
f 7/68/50 31/70/134 30/87/131 6/82/45
f 8/45/54 32/44/136 31/70/133 7/68/49
f 9/22/58 33/21/138 32/44/135 8/45/53
f 10/5/62 34/3/140 33/21/137 9/22/57
f 11/98/66 35/97/142 34/115/139 10/116/61
f 12/80/70 36/84/144 35/97/141 11/98/65
f 13/58/74 37/57/146 36/84/143 12/80/69
f 14/39/78 38/38/148 37/57/145 13/58/73
f 15/16/82 39/15/150 38/38/147 14/39/77
f 16/2/86 40/1/152 39/15/149 15/16/81
f 17/107/90 41/106/154 40/121/151 16/122/85
f 18/83/94 42/86/156 41/106/153 17/107/89
f 19/69/98 43/67/158 42/86/155 18/83/93
f 20/43/102 44/42/160 43/67/157 19/69/97
f 21/25/106 45/24/162 44/42/159 20/43/101
f 22/8/110 46/7/164 45/24/161 21/25/105
f 23/101/114 47/100/166 46/117/163 22/118/109
f 24/81/118 48/85/168 47/100/165 23/101/113
