# Exported from Wings 3D 1.5.4
mtllib Eridani_Crew_1_Collider.mtl
o Eridani_Crew_1_Collider1
#32 vertices, 18 faces
v 0.93750000 -0.67937500 -0.18648034
v 0.93750000 -0.67937500 0.18648034
v 0.79477412 -0.67937500 0.53105109
v 0.53105109 -0.67937500 0.79477412
v 0.18648034 -0.67937500 0.93750000
v -0.18648034 -0.67937500 0.93750000
v -0.53105109 -0.67937500 0.79477412
v -0.79477412 -0.67937500 0.53105109
v -0.93750000 -0.67937500 0.18648034
v -0.93750000 -0.67937500 -0.18648034
v -0.79477412 -0.67937500 -0.53105109
v -0.53105109 -0.67937500 -0.79477412
v -0.18648034 -0.67937500 -0.93750000
v 0.18648034 -0.67937500 -0.93750000
v 0.53105109 -0.67937500 -0.79477412
v 0.79477412 -0.67937500 -0.53105109
v 0.93750000 1.35562500 0.18648034
v 0.93750000 1.35562500 -0.18648034
v 0.79477412 1.35562500 -0.53105109
v 0.53105109 1.35562500 -0.79477412
v 0.18648034 1.35562500 -0.93750000
v -0.18648034 1.35562500 -0.93750000
v -0.53105109 1.35562500 -0.79477412
v -0.79477412 1.35562500 -0.53105109
v -0.93750000 1.35562500 -0.18648034
v -0.93750000 1.35562500 0.18648034
v -0.79477412 1.35562500 0.53105109
v -0.53105109 1.35562500 0.79477412
v -0.18648034 1.35562500 0.93750000
v 0.18648034 1.35562500 0.93750000
v 0.53105109 1.35562500 0.79477412
v 0.79477412 1.35562500 0.53105109
vn 0.0000000e+0 -1.00000000 -4.4651744e-17
vn 1.00000000 0.0000000e+0 0.0000000e+0
vn 0.92387953 5.9425950e-17 -0.38268343
vn 0.0000000e+0 -1.00000000 -4.4651744e-17
vn 1.00000000 0.0000000e+0 0.0000000e+0
vn 0.92387953 -5.4854723e-17 0.38268343
vn 0.0000000e+0 -1.00000000 -4.4651744e-17
vn 0.70710678 -1.1885190e-16 0.70710678
vn 0.92387953 -5.4854723e-17 0.38268343
vn 0.0000000e+0 -1.00000000 -4.4651744e-17
vn 0.38268343 -1.5085049e-16 0.92387953
vn 0.70710678 -1.1885190e-16 0.70710678
vn 0.0000000e+0 -1.00000000 -4.4651744e-17
vn 0.0000000e+0 -1.6366924e-16 1.00000000
vn 0.38268343 -1.5085049e-16 0.92387953
vn 0.0000000e+0 -1.00000000 -4.4651744e-17
vn -0.38268343 -1.5085049e-16 0.92387953
vn 0.0000000e+0 -1.6366924e-16 1.00000000
vn 0.0000000e+0 -1.00000000 -4.4651744e-17
vn -0.70710678 -1.1885190e-16 0.70710678
vn -0.38268343 -1.5085049e-16 0.92387953
vn 0.0000000e+0 -1.00000000 -4.4651744e-17
vn -0.92387953 -5.9425950e-17 0.38268343
vn -0.70710678 -1.1885190e-16 0.70710678
vn 0.0000000e+0 -1.00000000 -4.4651744e-17
vn -1.00000000 0.0000000e+0 0.0000000e+0
vn -0.92387953 -5.9425950e-17 0.38268343
vn 0.0000000e+0 -1.00000000 -4.4651744e-17
vn -0.92387953 5.0283496e-17 -0.38268343
vn -1.00000000 0.0000000e+0 0.0000000e+0
vn 0.0000000e+0 -1.00000000 -4.4651744e-17
vn -0.70710678 1.1885190e-16 -0.70710678
vn -0.92387953 5.0283496e-17 -0.38268343
vn 0.0000000e+0 -1.00000000 -4.4651744e-17
vn -0.38268343 1.5085049e-16 -0.92387953
vn -0.70710678 1.1885190e-16 -0.70710678
vn 0.0000000e+0 -1.00000000 -4.4651744e-17
vn 0.0000000e+0 1.6366924e-16 -1.00000000
vn -0.38268343 1.5085049e-16 -0.92387953
vn 0.0000000e+0 -1.00000000 -4.4651744e-17
vn 0.38268343 1.5085049e-16 -0.92387953
vn 0.0000000e+0 1.6366924e-16 -1.00000000
vn 0.0000000e+0 -1.00000000 -4.4651744e-17
vn 0.70710678 1.1885190e-16 -0.70710678
vn 0.38268343 1.5085049e-16 -0.92387953
vn 0.0000000e+0 -1.00000000 -4.4651744e-17
vn 0.92387953 5.9425950e-17 -0.38268343
vn 0.70710678 1.1885190e-16 -0.70710678
vn 0.0000000e+0 1.00000000 -2.0837481e-16
vn 1.00000000 0.0000000e+0 0.0000000e+0
vn 0.92387953 -5.4854723e-17 0.38268343
vn 0.0000000e+0 1.00000000 -2.0837481e-16
vn 1.00000000 0.0000000e+0 0.0000000e+0
vn 0.92387953 5.9425950e-17 -0.38268343
vn 0.0000000e+0 1.00000000 -2.0837481e-16
vn 0.92387953 5.9425950e-17 -0.38268343
vn 0.70710678 1.1885190e-16 -0.70710678
vn 0.0000000e+0 1.00000000 -2.0837481e-16
vn 0.70710678 1.1885190e-16 -0.70710678
vn 0.38268343 1.5085049e-16 -0.92387953
vn 0.0000000e+0 1.00000000 -2.0837481e-16
vn 0.38268343 1.5085049e-16 -0.92387953
vn 0.0000000e+0 1.6366924e-16 -1.00000000
vn 0.0000000e+0 1.00000000 -2.0837481e-16
vn 0.0000000e+0 1.6366924e-16 -1.00000000
vn -0.38268343 1.5085049e-16 -0.92387953
vn 0.0000000e+0 1.00000000 -2.0837481e-16
vn -0.38268343 1.5085049e-16 -0.92387953
vn -0.70710678 1.1885190e-16 -0.70710678
vn 0.0000000e+0 1.00000000 -2.0837481e-16
vn -0.70710678 1.1885190e-16 -0.70710678
vn -0.92387953 5.0283496e-17 -0.38268343
vn 0.0000000e+0 1.00000000 -2.0837481e-16
vn -0.92387953 5.0283496e-17 -0.38268343
vn -1.00000000 0.0000000e+0 0.0000000e+0
vn 0.0000000e+0 1.00000000 -2.0837481e-16
vn -1.00000000 0.0000000e+0 0.0000000e+0
vn -0.92387953 -5.9425950e-17 0.38268343
vn 0.0000000e+0 1.00000000 -2.0837481e-16
vn -0.92387953 -5.9425950e-17 0.38268343
vn -0.70710678 -1.1885190e-16 0.70710678
vn 0.0000000e+0 1.00000000 -2.0837481e-16
vn -0.70710678 -1.1885190e-16 0.70710678
vn -0.38268343 -1.5085049e-16 0.92387953
vn 0.0000000e+0 1.00000000 -2.0837481e-16
vn -0.38268343 -1.5085049e-16 0.92387953
vn 0.0000000e+0 -1.6366924e-16 1.00000000
vn 0.0000000e+0 1.00000000 -2.0837481e-16
vn 0.0000000e+0 -1.6366924e-16 1.00000000
vn 0.38268343 -1.5085049e-16 0.92387953
vn 0.0000000e+0 1.00000000 -2.0837481e-16
vn 0.38268343 -1.5085049e-16 0.92387953
vn 0.70710678 -1.1885190e-16 0.70710678
vn 0.0000000e+0 1.00000000 -2.0837481e-16
vn 0.70710678 -1.1885190e-16 0.70710678
vn 0.92387953 -5.4854723e-17 0.38268343
g Eridani_Crew_1_Collider1_default
usemtl default
s 1
f 1//2 18//53 17//50 2//5
f 3//8 32//95 31//93 4//12
f 5//14 30//89 29//87 6//18
f 7//20 28//83 27//81 8//24
f 9//26 26//77 25//75 10//30
f 12//35 23//68 22//66 13//39
f 14//41 21//62 20//60 15//45
s 2
f 2//6 17//51 32//96 3//9
f 4//11 31//92 30//90 5//15
f 6//17 29//86 28//84 7//21
f 8//23 27//80 26//78 9//27
f 10//29 25//74 24//72 11//33
f 13//38 22//65 21//63 14//42
f 15//44 20//59 19//57 16//48
s 3
f 2//4 3//7 4//10 5//13 6//16 7//19 8//22 9//25 10//28 11//31 12//34 13//37 14//40 15//43 16//46 1//1
f 18//52 19//55 20//58 21//61 22//64 23//67 24//70 25//73 26//76 27//79 28//82 29//85 30//88 31//91 32//94 17//49
s 4
f 11//32 24//71 23//69 12//36
f 16//47 19//56 18//54 1//3
o Eridani_Crew_1_Collider2
#32 vertices, 18 faces
v 0.93750000 -0.67937500 -0.18648034
v 0.93750000 -0.67937500 0.18648034
v 0.79477412 -0.67937500 0.53105109
v 0.53105109 -0.67937500 0.79477412
v 0.18648034 -0.67937500 0.93750000
v -0.18648034 -0.67937500 0.93750000
v -0.53105109 -0.67937500 0.79477412
v -0.79477412 -0.67937500 0.53105109
v -0.93750000 -0.67937500 0.18648034
v -0.93750000 -0.67937500 -0.18648034
v -0.79477412 -0.67937500 -0.53105109
v -0.53105109 -0.67937500 -0.79477412
v -0.18648034 -0.67937500 -0.93750000
v 0.18648034 -0.67937500 -0.93750000
v 0.53105109 -0.67937500 -0.79477412
v 0.79477412 -0.67937500 -0.53105109
v 1.25000000 -1.35562500 -0.24864046
v 1.25000000 -1.35562500 0.24864046
v 1.05969883 -1.35562500 0.70806812
v 0.70806812 -1.35562500 1.05969883
v 0.24864046 -1.35562500 1.25000000
v -0.24864046 -1.35562500 1.25000000
v -0.70806812 -1.35562500 1.05969883
v -1.05969883 -1.35562500 0.70806812
v -1.25000000 -1.35562500 0.24864046
v -1.25000000 -1.35562500 -0.24864046
v -1.05969883 -1.35562500 -0.70806812
v -0.70806812 -1.35562500 -1.05969883
v -0.24864046 -1.35562500 -1.25000000
v 0.24864046 -1.35562500 -1.25000000
v 0.70806812 -1.35562500 -1.05969883
v 1.05969883 -1.35562500 -0.70806812
vn 0.0000000e+0 1.00000000 1.3395523e-16
vn 0.83866351 0.41948375 -0.34738580
vn 0.90776284 0.41948375 0.0000000e+0
vn 0.0000000e+0 1.00000000 1.3395523e-16
vn 0.83866351 0.41948375 0.34738580
vn 0.90776284 0.41948375 0.0000000e+0
vn 0.0000000e+0 1.00000000 1.3395523e-16
vn 0.64188526 0.41948375 0.64188526
vn 0.83866351 0.41948375 0.34738580
vn 0.0000000e+0 1.00000000 1.3395523e-16
vn 0.34738580 0.41948375 0.83866351
vn 0.64188526 0.41948375 0.64188526
vn 0.0000000e+0 1.00000000 1.3395523e-16
vn 0.0000000e+0 0.41948375 0.90776284
vn 0.34738580 0.41948375 0.83866351
vn 0.0000000e+0 1.00000000 1.3395523e-16
vn -0.34738580 0.41948375 0.83866351
vn 0.0000000e+0 0.41948375 0.90776284
vn 0.0000000e+0 1.00000000 1.3395523e-16
vn -0.64188526 0.41948375 0.64188526
vn -0.34738580 0.41948375 0.83866351
vn 0.0000000e+0 1.00000000 1.3395523e-16
vn -0.83866351 0.41948375 0.34738580
vn -0.64188526 0.41948375 0.64188526
vn 0.0000000e+0 1.00000000 1.3395523e-16
vn -0.90776284 0.41948375 0.0000000e+0
vn -0.83866351 0.41948375 0.34738580
vn 0.0000000e+0 1.00000000 1.3395523e-16
vn -0.83866351 0.41948375 -0.34738580
vn -0.90776284 0.41948375 0.0000000e+0
vn 0.0000000e+0 1.00000000 1.3395523e-16
vn -0.64188526 0.41948375 -0.64188526
vn -0.83866351 0.41948375 -0.34738580
vn 0.0000000e+0 1.00000000 1.3395523e-16
vn -0.34738580 0.41948375 -0.83866351
vn -0.64188526 0.41948375 -0.64188526
vn 0.0000000e+0 1.00000000 1.3395523e-16
vn 0.0000000e+0 0.41948375 -0.90776284
vn -0.34738580 0.41948375 -0.83866351
vn 0.0000000e+0 1.00000000 1.3395523e-16
vn 0.34738580 0.41948375 -0.83866351
vn 0.0000000e+0 0.41948375 -0.90776284
vn 0.0000000e+0 1.00000000 1.3395523e-16
vn 0.64188526 0.41948375 -0.64188526
vn 0.34738580 0.41948375 -0.83866351
vn 0.0000000e+0 1.00000000 1.3395523e-16
vn 0.83866351 0.41948375 -0.34738580
vn 0.64188526 0.41948375 -0.64188526
vn 0.0000000e+0 -1.00000000 -2.2325872e-17
vn 0.83866351 0.41948375 -0.34738580
vn 0.90776284 0.41948375 0.0000000e+0
vn 0.0000000e+0 -1.00000000 -2.2325872e-17
vn 0.83866351 0.41948375 0.34738580
vn 0.90776284 0.41948375 0.0000000e+0
vn 0.0000000e+0 -1.00000000 -2.2325872e-17
vn 0.64188526 0.41948375 0.64188526
vn 0.83866351 0.41948375 0.34738580
vn 0.0000000e+0 -1.00000000 -2.2325872e-17
vn 0.34738580 0.41948375 0.83866351
vn 0.64188526 0.41948375 0.64188526
vn 0.0000000e+0 -1.00000000 -2.2325872e-17
vn 0.0000000e+0 0.41948375 0.90776284
vn 0.34738580 0.41948375 0.83866351
vn 0.0000000e+0 -1.00000000 -2.2325872e-17
vn -0.34738580 0.41948375 0.83866351
vn 0.0000000e+0 0.41948375 0.90776284
vn 0.0000000e+0 -1.00000000 -2.2325872e-17
vn -0.64188526 0.41948375 0.64188526
vn -0.34738580 0.41948375 0.83866351
vn 0.0000000e+0 -1.00000000 -2.2325872e-17
vn -0.83866351 0.41948375 0.34738580
vn -0.64188526 0.41948375 0.64188526
vn 0.0000000e+0 -1.00000000 -2.2325872e-17
vn -0.90776284 0.41948375 0.0000000e+0
vn -0.83866351 0.41948375 0.34738580
vn 0.0000000e+0 -1.00000000 -2.2325872e-17
vn -0.83866351 0.41948375 -0.34738580
vn -0.90776284 0.41948375 0.0000000e+0
vn 0.0000000e+0 -1.00000000 -2.2325872e-17
vn -0.64188526 0.41948375 -0.64188526
vn -0.83866351 0.41948375 -0.34738580
vn 0.0000000e+0 -1.00000000 -2.2325872e-17
vn -0.34738580 0.41948375 -0.83866351
vn -0.64188526 0.41948375 -0.64188526
vn 0.0000000e+0 -1.00000000 -2.2325872e-17
vn 0.0000000e+0 0.41948375 -0.90776284
vn -0.34738580 0.41948375 -0.83866351
vn 0.0000000e+0 -1.00000000 -2.2325872e-17
vn 0.34738580 0.41948375 -0.83866351
vn 0.0000000e+0 0.41948375 -0.90776284
vn 0.0000000e+0 -1.00000000 -2.2325872e-17
vn 0.64188526 0.41948375 -0.64188526
vn 0.34738580 0.41948375 -0.83866351
vn 0.0000000e+0 -1.00000000 -2.2325872e-17
vn 0.83866351 0.41948375 -0.34738580
vn 0.64188526 0.41948375 -0.64188526
g Eridani_Crew_1_Collider2_default
usemtl default
s 1
f 33//98 49//146 64//191 48//143
f 35//105 51//153 50//149 34//101
f 37//111 53//159 52//155 36//107
f 39//117 55//165 54//161 38//113
f 41//123 57//171 56//167 40//119
f 44//132 60//180 59//176 43//128
f 46//138 62//186 61//182 45//134
s 2
f 34//102 50//150 49//147 33//99
f 36//108 52//156 51//152 35//104
f 38//114 54//162 53//158 37//110
f 40//120 56//168 55//164 39//116
f 42//126 58//174 57//170 41//122
f 45//135 61//183 60//179 44//131
f 47//141 63//189 62//185 46//137
s 3
f 33//97 48//142 47//139 46//136 45//133 44//130 43//127 42//124 41//121 40//118 39//115 38//112 37//109 36//106 35//103 34//100
f 50//148 51//151 52//154 53//157 54//160 55//163 56//166 57//169 58//172 59//175 60//178 61//181 62//184 63//187 64//190 49//145
s 4
f 43//129 59//177 58//173 42//125
f 48//144 64//192 63//188 47//140
