# Exported from Wings 3D 1.5.4
mtllib Alnair_Parachute_1_Cap.mtl
o Alnair_Parachute_1_Cap
#73 vertices, 72 faces
v 0.42259227 1.8750000e-2 0.11323333
v 0.43749973 1.8750000e-2 1.7523880e-18
v 0.42259227 1.8750000e-2 -0.11323333
v 0.37888584 1.8750000e-2 -0.21875000
v 0.30935894 1.8750000e-2 -0.30935922
v 0.21874973 1.8750000e-2 -0.37888611
v 0.11323306 1.8750000e-2 -0.42259255
v -2.7450073e-7 1.8750000e-2 -0.43750000
v -0.11323361 1.8750000e-2 -0.42259255
v -0.21875027 1.8750000e-2 -0.37888611
v -0.30935949 1.8750000e-2 -0.30935922
v -0.37888639 1.8750000e-2 -0.21875000
v -0.42259282 1.8750000e-2 -0.11323333
v -0.43750027 1.8750000e-2 1.2078970e-17
v -0.42259282 1.8750000e-2 0.11323333
v -0.37888639 1.8750000e-2 0.21875000
v -0.30935949 1.8750000e-2 0.30935922
v -0.21875027 1.8750000e-2 0.37888611
v -0.11323361 1.8750000e-2 0.42259255
v -2.7450073e-7 1.8750000e-2 0.43750000
v 0.11323306 1.8750000e-2 0.42259255
v 0.21874973 1.8750000e-2 0.37888611
v 0.30935894 1.8750000e-2 0.30935922
v 0.37888584 1.8750000e-2 0.21875000
v -2.7450073e-7 5.0000000e-2 -4.1015770e-17
v 0.28172809 3.4375000e-2 7.5488888e-2
v 0.25259047 3.4375000e-2 0.14583333
v 0.20623920 3.4375000e-2 0.20623948
v 0.14583306 3.4375000e-2 0.25259074
v 7.5488614e-2 3.4375000e-2 0.28172837
v -2.7450073e-7 3.4375000e-2 0.29166667
v -7.5489163e-2 3.4375000e-2 0.28172837
v -0.14583361 3.4375000e-2 0.25259074
v -0.20623975 3.4375000e-2 0.20623948
v -0.25259102 3.4375000e-2 0.14583333
v -0.28172864 3.4375000e-2 7.5488888e-2
v -0.29166694 3.4375000e-2 -5.6192764e-18
v -0.28172864 3.4375000e-2 -7.5488888e-2
v -0.25259102 3.4375000e-2 -0.14583333
v -0.20623975 3.4375000e-2 -0.20623948
v -0.14583361 3.4375000e-2 -0.25259074
v -7.5489163e-2 3.4375000e-2 -0.28172837
v -2.7450073e-7 3.4375000e-2 -0.29166667
v 7.5488614e-2 3.4375000e-2 -0.28172837
v 0.14583306 3.4375000e-2 -0.25259074
v 0.20623920 3.4375000e-2 -0.20623948
v 0.25259047 3.4375000e-2 -0.14583333
v 0.28172809 3.4375000e-2 -7.5488888e-2
v 0.29166639 3.4375000e-2 -1.2503665e-17
v 0.14583306 4.4791667e-2 -2.6759717e-17
v 0.14086391 4.4791667e-2 -3.7744444e-2
v 0.12629510 4.4791667e-2 -7.2916667e-2
v 0.10311946 4.4791667e-2 -0.10311974
v 7.2916392e-2 4.4791667e-2 -0.12629537
v 3.7744170e-2 4.4791667e-2 -0.14086418
v -2.7450073e-7 4.4791667e-2 -0.14583333
v -3.7744719e-2 4.4791667e-2 -0.14086418
v -7.2916941e-2 4.4791667e-2 -0.12629537
v -0.10312001 4.4791667e-2 -0.10311974
v -0.12629565 4.4791667e-2 -7.2916667e-2
v -0.14086446 4.4791667e-2 -3.7744444e-2
v -0.14583361 4.4791667e-2 -2.3317523e-17
v -0.14086446 4.4791667e-2 3.7744444e-2
v -0.12629565 4.4791667e-2 7.2916667e-2
v -0.10312001 4.4791667e-2 0.10311974
v -7.2916941e-2 4.4791667e-2 0.12629537
v -3.7744719e-2 4.4791667e-2 0.14086418
v -2.7450073e-7 4.4791667e-2 0.14583333
v 3.7744170e-2 4.4791667e-2 0.14086418
v 7.2916392e-2 4.4791667e-2 0.12629537
v 0.10311946 4.4791667e-2 0.10311974
v 0.12629510 4.4791667e-2 7.2916667e-2
v 0.14086391 4.4791667e-2 3.7744444e-2
vt 0.73781009 0.38715448
vt 0.73781009 0.38715448
vt 0.73781009 0.38715448
vt 0.74053603 0.36644896
vt 0.74053603 0.36644896
vt 0.74053603 0.36644896
vt 0.74053603 0.36644896
vt 0.74852806 0.34715448
vt 0.74852806 0.34715448
vt 0.74852806 0.34715448
vt 0.74852806 0.34715448
vt 0.76124155 0.33058594
vt 0.76124155 0.33058594
vt 0.76124155 0.33058594
vt 0.76124155 0.33058594
vt 0.76447676 0.38715448
vt 0.76447676 0.38715448
vt 0.76447676 0.38715448
vt 0.76629405 0.37335080
vt 0.76629405 0.37335080
vt 0.76629405 0.37335080
vt 0.76629405 0.37335080
vt 0.77162207 0.36048782
vt 0.77162207 0.36048782
vt 0.77162207 0.36048782
vt 0.77781009 0.31787245
vt 0.77781009 0.31787245
vt 0.77781009 0.31787245
vt 0.78009773 0.34944212
vt 0.78009773 0.34944212
vt 0.78009773 0.34944212
vt 0.78009773 0.34944212
vt 0.79114343 0.34096646
vt 0.79114343 0.38715448
vt 0.79114343 0.34096646
vt 0.79114343 0.38715448
vt 0.79114343 0.38715448
vt 0.79114343 0.34096646
vt 0.79114343 0.38715448
vt 0.79205207 0.38025264
vt 0.79205207 0.38025264
vt 0.79205207 0.38025264
vt 0.79471608 0.37382115
vt 0.79471608 0.37382115
vt 0.79471608 0.37382115
vt 0.79710457 0.30988042
vt 0.79710457 0.30988042
vt 0.79710457 0.30988042
vt 0.79710457 0.30988042
vt 0.79895391 0.36829830
vt 0.79895391 0.36829830
vt 0.79895391 0.36829830
vt 0.79895391 0.36829830
vt 0.80400641 0.33563844
vt 0.80400641 0.33563844
vt 0.80400641 0.33563844
vt 0.80400641 0.33563844
vt 0.80447676 0.36406047
vt 0.80447676 0.36406047
vt 0.80447676 0.36406047
vt 0.80447676 0.36406047
vt 0.81090825 0.36139646
vt 0.81090825 0.36139646
vt 0.81090825 0.36139646
vt 0.81090825 0.36139646
vt 0.81781009 0.30715448
vt 0.81781009 0.33382115
vt 0.81781009 0.36048782
vt 0.81781009 0.38715448
vt 0.81781009 0.30715448
vt 0.81781009 0.33382115
vt 0.81781009 0.36048782
vt 0.81781009 0.38715448
vt 0.81781009 0.30715448
vt 0.81781009 0.33382115
vt 0.81781009 0.36048782
vt 0.81781009 0.38715448
vt 0.81781009 0.38715448
vn -4.9182377e-18 1.00000000 3.6886783e-18
vn 8.5874240e-2 0.99604024 2.3009933e-2
vn 7.6992737e-2 0.99604024 4.4451778e-2
vn 6.2864307e-2 0.99604024 6.2864307e-2
vn 4.4451778e-2 0.99604024 7.6992737e-2
vn 2.3009933e-2 0.99604024 8.5874240e-2
vn -1.7351192e-18 0.99604024 8.8903555e-2
vn -2.3009933e-2 0.99604024 8.5874240e-2
vn -4.4451778e-2 0.99604024 7.6992737e-2
vn -6.2864307e-2 0.99604024 6.2864307e-2
vn -7.6992737e-2 0.99604024 4.4451778e-2
vn -8.5874240e-2 0.99604024 2.3009933e-2
vn -8.8903555e-2 0.99604024 6.0295391e-17
vn -8.5874240e-2 0.99604024 -2.3009933e-2
vn -7.6992737e-2 0.99604024 -4.4451778e-2
vn -6.2864307e-2 0.99604024 -6.2864307e-2
vn -4.4451778e-2 0.99604024 -7.6992737e-2
vn -2.3009933e-2 0.99604024 -8.5874240e-2
vn -8.3719499e-17 0.99604024 -8.8903555e-2
vn 2.3009933e-2 0.99604024 -8.5874240e-2
vn 4.4451778e-2 0.99604024 -7.6992737e-2
vn 6.2864307e-2 0.99604024 -6.2864307e-2
vn 7.6992737e-2 0.99604024 -4.4451778e-2
vn 8.5874240e-2 0.99604024 -2.3009933e-2
vn 8.8903555e-2 0.99604024 -2.6894347e-17
vn 5.3477473e-2 0.99856906 -4.5544963e-18
vn 5.1655272e-2 0.99856906 -1.3840989e-2
vn 4.6312850e-2 0.99856906 -2.6738737e-2
vn 3.7814284e-2 0.99856906 -3.7814284e-2
vn 2.6738737e-2 0.99856906 -4.6312850e-2
vn 1.3840989e-2 0.99856906 -5.1655272e-2
vn -6.0075974e-17 0.99856906 -5.3477473e-2
vn -1.3840989e-2 0.99856906 -5.1655272e-2
vn -2.6738737e-2 0.99856906 -4.6312850e-2
vn -3.7814284e-2 0.99856906 -3.7814284e-2
vn -4.6312850e-2 0.99856906 -2.6738737e-2
vn -5.1655272e-2 0.99856906 -1.3840989e-2
vn -5.3477473e-2 0.99856906 2.3423124e-17
vn -5.1655272e-2 0.99856906 1.3840989e-2
vn -4.6312850e-2 0.99856906 2.6738737e-2
vn -3.7814284e-2 0.99856906 3.7814284e-2
vn -2.6738737e-2 0.99856906 4.6312850e-2
vn -1.3840989e-2 0.99856906 5.1655272e-2
vn 5.6389001e-18 0.99856906 5.3477473e-2
vn 1.3840989e-2 0.99856906 5.1655272e-2
vn 2.6738737e-2 0.99856906 4.6312850e-2
vn 3.7814284e-2 0.99856906 3.7814284e-2
vn 4.6312850e-2 0.99856906 2.6738737e-2
vn 5.1655272e-2 0.99856906 1.3840989e-2
vn 0.10290310 0.99430915 2.7572801e-2
vn 0.10290310 0.99430915 2.7572801e-2
vn 0.10653312 0.99430915 -3.4697882e-17
vn 0.10653312 0.99430915 -3.4697882e-17
vn 0.10290310 0.99430915 -2.7572801e-2
vn 0.10290310 0.99430915 -2.7572801e-2
vn 9.2260391e-2 0.99430915 -5.3266562e-2
vn 9.2260391e-2 0.99430915 -5.3266562e-2
vn 7.5330294e-2 0.99430915 -7.5330294e-2
vn 7.5330294e-2 0.99430915 -7.5330294e-2
vn 5.3266562e-2 0.99430915 -9.2260391e-2
vn 5.3266562e-2 0.99430915 -9.2260391e-2
vn 2.7572801e-2 0.99430915 -0.10290310
vn 2.7572801e-2 0.99430915 -0.10290310
vn -9.6286622e-17 0.99430915 -0.10653312
vn -9.6286622e-17 0.99430915 -0.10653312
vn -2.7572801e-2 0.99430915 -0.10290310
vn -2.7572801e-2 0.99430915 -0.10290310
vn -5.3266562e-2 0.99430915 -9.2260391e-2
vn -5.3266562e-2 0.99430915 -9.2260391e-2
vn -7.5330294e-2 0.99430915 -7.5330294e-2
vn -7.5330294e-2 0.99430915 -7.5330294e-2
vn -9.2260391e-2 0.99430915 -5.3266562e-2
vn -9.2260391e-2 0.99430915 -5.3266562e-2
vn -0.10290310 0.99430915 -2.7572801e-2
vn -0.10290310 0.99430915 -2.7572801e-2
vn -0.10653312 0.99430915 6.9395763e-17
vn -0.10653312 0.99430915 6.9395763e-17
vn -0.10290310 0.99430915 2.7572801e-2
vn -0.10290310 0.99430915 2.7572801e-2
vn -9.2260391e-2 0.99430915 5.3266562e-2
vn -9.2260391e-2 0.99430915 5.3266562e-2
vn -7.5330294e-2 0.99430915 7.5330294e-2
vn -7.5330294e-2 0.99430915 7.5330294e-2
vn -5.3266562e-2 0.99430915 9.2260391e-2
vn -5.3266562e-2 0.99430915 9.2260391e-2
vn -2.7572801e-2 0.99430915 0.10290310
vn -2.7572801e-2 0.99430915 0.10290310
vn -5.2046823e-18 0.99430915 0.10653312
vn -5.2046823e-18 0.99430915 0.10653312
vn 2.7572801e-2 0.99430915 0.10290310
vn 2.7572801e-2 0.99430915 0.10290310
vn 5.3266562e-2 0.99430915 9.2260391e-2
vn 5.3266562e-2 0.99430915 9.2260391e-2
vn 7.5330294e-2 0.99430915 7.5330294e-2
vn 7.5330294e-2 0.99430915 7.5330294e-2
vn 9.2260391e-2 0.99430915 5.3266562e-2
vn 9.2260391e-2 0.99430915 5.3266562e-2
g Alnair_Parachute_1_Cap_Alnair_Parachute_1_Cap_auv
usemtl Alnair_Parachute_1_Cap_auv
s 2
f 1/7/51 26/21/2 27/25/3 24/11/97
f 2/3/52 49/18/25 26/21/2 1/7/50
f 3/6/54 48/22/24 49/17/25 2/2/53
f 4/10/56 47/25/23 48/22/24 3/6/55
f 5/14/58 46/31/22 47/25/23 4/10/57
f 6/28/60 45/38/21 46/31/22 5/14/59
f 7/48/62 44/56/20 45/38/21 6/28/61
f 8/74/64 43/75/19 44/56/20 7/48/63
f 9/46/66 42/55/18 43/67/19 8/66/65
f 10/26/68 41/33/17 42/55/18 9/46/67
f 11/12/70 40/30/16 41/33/17 10/26/69
f 12/9/72 39/24/15 40/30/16 11/12/71
f 13/4/74 38/19/14 39/24/15 12/9/73
f 14/1/76 37/16/13 38/19/14 13/4/75
f 15/5/78 36/20/12 37/16/13 14/1/77
f 16/8/80 35/23/11 36/20/12 15/5/79
f 17/13/82 34/29/10 35/23/11 16/8/81
f 18/27/84 33/35/9 34/29/10 17/13/83
f 19/47/86 32/54/8 33/35/9 18/27/85
f 20/70/88 31/71/7 32/54/8 19/47/87
f 21/49/90 30/57/6 31/75/7 20/74/89
f 22/27/92 29/38/5 30/57/6 21/49/91
f 23/15/94 28/32/4 29/38/5 22/27/93
f 24/11/96 27/25/3 28/32/4 23/15/95
f 25/78/1 73/42/49 50/39/26
f 26/21/2 49/18/25 50/39/26 73/42/49
f 50/36/26 51/42/27 25/77/1
f 51/42/27 50/36/26 49/17/25 48/22/24
f 51/42/27 52/45/28 25/77/1
f 52/45/28 51/42/27 48/22/24 47/25/23
f 52/45/28 53/52/29 25/77/1
f 53/52/29 52/45/28 47/25/23 46/31/22
f 53/52/29 54/60/30 25/77/1
f 54/60/30 53/52/29 46/31/22 45/38/21
f 54/60/30 55/64/31 25/77/1
f 55/64/31 54/60/30 45/38/21 44/56/20
f 55/64/31 56/76/32 25/77/1
f 56/76/32 55/64/31 44/56/20 43/75/19
f 56/68/32 57/63/33 25/69/1
f 57/63/33 56/68/32 43/67/19 42/55/18
f 57/63/33 58/59/34 25/69/1
f 58/59/34 57/63/33 42/55/18 41/33/17
f 58/59/34 59/51/35 25/69/1
f 59/51/35 58/59/34 41/33/17 40/30/16
f 59/51/35 60/43/36 25/69/1
f 60/43/36 59/51/35 40/30/16 39/24/15
f 60/43/36 61/40/37 25/69/1
f 61/40/37 60/43/36 39/24/15 38/19/14
f 61/40/37 62/34/38 25/69/1
f 62/34/38 61/40/37 38/19/14 37/16/13
f 62/37/38 63/41/39 25/73/1
f 63/41/39 62/37/38 37/16/13 36/20/12
f 63/41/39 64/44/40 25/73/1
f 64/44/40 63/41/39 36/20/12 35/23/11
f 64/44/40 65/50/41 25/73/1
f 65/50/41 64/44/40 35/23/11 34/29/10
f 65/50/41 66/58/42 25/73/1
f 66/58/42 65/50/41 34/29/10 33/35/9
f 66/58/42 67/62/43 25/73/1
f 67/62/43 66/58/42 33/35/9 32/54/8
f 67/62/43 68/72/44 25/73/1
f 68/72/44 67/62/43 32/54/8 31/71/7
f 68/76/44 69/65/45 25/78/1
f 69/65/45 68/76/44 31/75/7 30/57/6
f 69/65/45 70/61/46 25/78/1
f 70/61/46 69/65/45 30/57/6 29/38/5
f 70/61/46 71/53/47 25/78/1
f 71/53/47 70/61/46 29/38/5 28/32/4
f 71/53/47 72/45/48 25/78/1
f 72/45/48 71/53/47 28/32/4 27/25/3
f 72/45/48 73/42/49 25/78/1
f 73/42/49 72/45/48 27/25/3 26/21/2
