# Exported from Wings 3D 1.5.4
mtllib ./probe.mtl
o probe
#123 vertices, 124 faces
v 3.7500000e-2 0.51250000 -4.1386030e-17
v 3.4645482e-2 0.51250000 1.4350629e-2
v 2.6516504e-2 0.51250000 2.6516504e-2
v 1.4350629e-2 0.51250000 3.4645482e-2
v -4.4942476e-17 0.51250000 3.7500000e-2
v -1.4350629e-2 0.51250000 3.4645482e-2
v -2.6516504e-2 0.51250000 2.6516504e-2
v -3.4645482e-2 0.51250000 1.4350629e-2
v -3.7500000e-2 0.51250000 -3.6793604e-17
v -3.4645482e-2 0.51250000 -1.4350629e-2
v -2.6516504e-2 0.51250000 -2.6516504e-2
v -1.4350629e-2 0.51250000 -3.4645482e-2
v -5.4127327e-17 0.51250000 -3.7500000e-2
v 1.4350629e-2 0.51250000 -3.4645482e-2
v 2.6516504e-2 0.51250000 -2.6516504e-2
v 3.4645482e-2 0.51250000 -1.4350629e-2
v 5.0000000e-2 0.35000000 -4.1561719e-17
v 4.6193977e-2 0.35000000 1.9134172e-2
v 3.5355339e-2 0.35000000 3.5355339e-2
v 1.9134172e-2 0.35000000 4.6193977e-2
v -4.2865187e-17 0.35000000 5.0000000e-2
v -1.9134172e-2 0.35000000 4.6193977e-2
v -3.5355339e-2 0.35000000 3.5355339e-2
v -4.6193977e-2 0.35000000 1.9134172e-2
v -5.0000000e-2 0.35000000 -3.5438485e-17
v -4.6193977e-2 0.35000000 -1.9134172e-2
v -3.5355339e-2 0.35000000 -3.5355339e-2
v -1.9134172e-2 0.35000000 -4.6193977e-2
v -5.5111655e-17 0.35000000 -5.0000000e-2
v 1.9134172e-2 0.35000000 -4.6193977e-2
v 3.5355339e-2 0.35000000 -3.5355339e-2
v 4.6193977e-2 0.35000000 -1.9134172e-2
v -5.1174343e-17 0.51250000 -4.1796026e-17
v 3.1250000e-2 0.81750000 -1.4094628e-18
v 2.7063294e-2 0.81750000 1.5625000e-2
v 1.5625000e-2 0.81750000 2.7063294e-2
v 3.9562758e-19 0.81750000 3.1250000e-2
v -1.5625000e-2 0.81750000 2.7063294e-2
v -2.7063294e-2 0.81750000 1.5625000e-2
v -3.1250000e-2 0.81750000 2.4175584e-18
v -2.7063294e-2 0.81750000 -1.5625000e-2
v -1.5625000e-2 0.81750000 -2.7063294e-2
v -7.2584149e-18 0.81750000 -3.1250000e-2
v 1.5625000e-2 0.81750000 -2.7063294e-2
v 2.7063294e-2 0.81750000 -1.5625000e-2
v 2.8750000e-2 0.81250000 -1.1350451e-18
v 2.4898230e-2 0.81250000 1.4375000e-2
v 1.4375000e-2 0.81250000 2.4898230e-2
v -4.7858827e-20 0.81250000 2.8750000e-2
v -1.4375000e-2 0.81250000 2.4898230e-2
v -2.4898230e-2 0.81250000 1.4375000e-2
v -2.8750000e-2 0.81250000 2.3858145e-18
v -2.4898230e-2 0.81250000 -1.4375000e-2
v -1.4375000e-2 0.81250000 -2.4898230e-2
v -7.0895779e-18 0.81250000 -2.8750000e-2
v 1.4375000e-2 0.81250000 -2.4898230e-2
v 2.4898230e-2 0.81250000 -1.4375000e-2
v 2.7063294e-2 0.84250000 1.5625000e-2
v 3.1250000e-2 0.84250000 -1.6212436e-17
v 2.7063294e-2 0.84250000 -1.5625000e-2
v 1.5625000e-2 0.84250000 -2.7063294e-2
v -7.2584149e-18 0.84250000 -3.1250000e-2
v -1.5625000e-2 0.84250000 -2.7063294e-2
v -2.7063294e-2 0.84250000 -1.5625000e-2
v -3.1250000e-2 0.84250000 -1.2385415e-17
v -2.7063294e-2 0.84250000 1.5625000e-2
v -1.5625000e-2 0.84250000 2.7063294e-2
v 3.9562758e-19 0.84250000 3.1250000e-2
v 1.5625000e-2 0.84250000 2.7063294e-2
v 2.4898230e-2 0.84750000 1.4375000e-2
v 2.8750000e-2 0.84750000 -1.3244541e-17
v 2.4898230e-2 0.84750000 -1.4375000e-2
v 1.4375000e-2 0.84750000 -2.4898230e-2
v -7.0009143e-18 0.84750000 -2.8750000e-2
v -1.4375000e-2 0.84750000 -2.4898230e-2
v -2.4898230e-2 0.84750000 -1.4375000e-2
v -2.8750000e-2 0.84750000 -9.7236813e-18
v -2.4898230e-2 0.84750000 1.4375000e-2
v -1.4375000e-2 0.84750000 2.4898230e-2
v 4.0804817e-20 0.84750000 2.8750000e-2
v 1.4375000e-2 0.84750000 2.4898230e-2
v -1.7347235e-18 0.85250000 -1.2375463e-17
v -2.6020852e-18 0.81250000 -1.4456029e-19
v 1.0444058e-2 0.85026648 1.8089640e-2
v -5.5103795e-19 0.85026648 2.0888117e-2
v -1.0444058e-2 0.85026648 1.8089640e-2
v -1.8089640e-2 0.85026648 1.0444058e-2
v -2.0888117e-2 0.85026648 -1.0009129e-17
v -1.8089640e-2 0.85026648 -1.0444058e-2
v -1.0444058e-2 0.85026648 -1.8089640e-2
v -6.0781846e-18 0.85026648 -2.0888117e-2
v 1.0444058e-2 0.85026648 -1.8089640e-2
v 1.8089640e-2 0.85026648 -1.0444058e-2
v 2.0888117e-2 0.85026648 -1.3605369e-17
v 1.8089640e-2 0.85026648 1.0444058e-2
v 9.7902298e-3 0.85193315 5.6523918e-3
v 1.1304784e-2 0.85193315 -1.2951385e-17
v 9.7902298e-3 0.85193315 -5.6523918e-3
v 5.6523918e-3 0.85193315 -9.7902298e-3
v -5.9621014e-18 0.85193315 -1.1304784e-2
v -5.6523918e-3 0.85193315 -9.7902298e-3
v -9.7902298e-3 0.85193315 -5.6523918e-3
v -1.1304784e-2 0.85193315 -1.1231327e-17
v -9.7902298e-3 0.85193315 5.6523918e-3
v -5.6523918e-3 0.85193315 9.7902298e-3
v -1.1168599e-18 0.85193315 1.1304784e-2
v 5.6523918e-3 0.85193315 9.7902298e-3
v 1.8750000e-2 0.82500000 -2.4325539e-17
v 1.3258252e-2 0.82500000 1.3258252e-2
v -4.8670983e-17 0.82500000 1.8750000e-2
v -1.3258252e-2 0.82500000 1.3258252e-2
v -1.8750000e-2 0.82500000 -2.2029326e-17
v -1.3258252e-2 0.82500000 -1.3258252e-2
v -5.3263409e-17 0.82500000 -1.8750000e-2
v 1.3258252e-2 0.82500000 -1.3258252e-2
v 1.8750000e-2 0.50000000 -4.6132379e-17
v 1.3258252e-2 0.50000000 1.3258252e-2
v -4.8670983e-17 0.50000000 1.8750000e-2
v -1.3258252e-2 0.50000000 1.3258252e-2
v -1.8750000e-2 0.50000000 -4.3836166e-17
v -1.3258252e-2 0.50000000 -1.3258252e-2
v -5.3263409e-17 0.50000000 -1.8750000e-2
v 1.3258252e-2 0.50000000 -1.3258252e-2
vt 0.63797214 0.51629257
vt 0.63802999 0.33775056
vt 0.63802999 0.34334520
vt 0.63802999 0.34893984
vt 0.63802999 0.35453448
vt 0.63802999 0.36012911
vt 0.63802999 0.36572375
vt 0.63802999 0.37131839
vt 0.63802999 0.37691303
vt 0.63802999 0.38250767
vt 0.64538703 0.51629257
vt 0.65284924 0.51629257
vt 0.65303912 0.45343494
vt 0.65860029 0.45343494
vt 0.66035211 0.51629257
vt 0.66419695 0.45343494
vt 0.66788890 0.51629257
vt 0.66982410 0.45343494
vt 0.67545288 0.51629257
vt 0.67547670 0.45343494
vt 0.68114968 0.45343494
vt 0.68303726 0.51629257
vt 0.68351827 0.43802534
vt 0.68463112 0.43243070
vt 0.68463112 0.44361998
vt 0.68683797 0.45343494
vt 0.68780023 0.42768779
vt 0.68780023 0.44836288
vt 0.69063526 0.51629257
vt 0.69253646 0.45343494
vt 0.69254313 0.45153199
vt 0.69254313 0.42451868
vt 0.69813777 0.45264483
vt 0.69813777 0.42340584
vt 0.69813777 0.43802534
vt 0.69824007 0.45343494
vt 0.69824007 0.51629257
vt 0.70373241 0.45153199
vt 0.70373241 0.42451868
vt 0.70394368 0.45343494
vt 0.70584488 0.51629257
vt 0.70847532 0.44836288
vt 0.70847532 0.42768779
vt 0.70964217 0.45343494
vt 0.71164443 0.43243070
vt 0.71164443 0.44361998
vt 0.71275727 0.43802534
vt 0.71344288 0.51629257
vt 0.71533046 0.45343494
vt 0.72100344 0.45343494
vt 0.72102726 0.51629257
vt 0.72665604 0.45343494
vt 0.72859123 0.51629257
vt 0.73228319 0.45343494
vt 0.73612803 0.51629257
vt 0.73787985 0.45343494
vt 0.74344102 0.45343494
vt 0.74363090 0.51629257
vt 0.75109311 0.51629257
vt 0.75850800 0.51629257
vt 0.76473229 0.33775056
vt 0.76473229 0.34334520
vt 0.76473229 0.34893984
vt 0.76473229 0.35453448
vt 0.76473229 0.36012911
vt 0.76473229 0.36572375
vt 0.76473229 0.37131839
vt 0.76473229 0.37691303
vt 0.76473229 0.38250767
vt 0.80543038 0.47779820
vt 0.80543038 0.48050104
vt 0.80543038 0.49015352
vt 0.80543038 0.49308033
vt 0.80543038 0.47779820
vt 0.80543038 0.48050104
vt 0.80543038 0.49015352
vt 0.80543038 0.49308033
vt 0.81145125 0.47779820
vt 0.81145125 0.48050104
vt 0.81145125 0.49015352
vt 0.81145125 0.49308033
vt 0.81259989 0.50478395
vt 0.81280193 0.46598482
vt 0.81412652 0.49908041
vt 0.81412826 0.51048891
vt 0.81430356 0.46038068
vt 0.81430356 0.47158896
vt 0.81587578 0.50478396
vt 0.81696441 0.50071848
vt 0.81696508 0.50885116
vt 0.81748264 0.47779820
vt 0.81748264 0.48050104
vt 0.81748264 0.49015352
vt 0.81748264 0.49308033
vt 0.81748264 0.47779820
vt 0.81748264 0.48050104
vt 0.81748264 0.49015352
vt 0.81748264 0.49308033
vt 0.81830325 0.49489860
vt 0.81830453 0.51466519
vt 0.81840607 0.45627817
vt 0.81840607 0.47569148
vt 0.81964783 0.50478231
vt 0.81994252 0.49773804
vt 0.81994259 0.51182826
vt 0.82023136 0.50260142
vt 0.82023237 0.50696489
vt 0.82182787 0.50100373
vt 0.82183019 0.50856248
vt 0.82357313 0.47779820
vt 0.82357313 0.48050104
vt 0.82357313 0.49015352
vt 0.82357313 0.49308033
vt 0.82400718 0.51619512
vt 0.82400766 0.51291840
vt 0.82400979 0.50042006
vt 0.82401022 0.45477654
vt 0.82401022 0.46598482
vt 0.82401022 0.47719310
vt 0.82401022 0.50478386
vt 0.82401064 0.50914767
vt 0.82401277 0.49664933
vt 0.82401325 0.49337261
vt 0.82619024 0.50100525
vt 0.82619256 0.50856399
vt 0.82778806 0.50260284
vt 0.82778907 0.50696630
vt 0.82807784 0.49773947
vt 0.82807791 0.51182968
vt 0.82837260 0.50478541
vt 0.82961436 0.45627817
vt 0.82961436 0.47569148
vt 0.82971590 0.49490254
vt 0.82971718 0.51466913
vt 0.82975792 0.47779820
vt 0.82975792 0.48050104
vt 0.82975792 0.49015352
vt 0.82975792 0.49308033
vt 0.82975792 0.47779820
vt 0.82975792 0.48050104
vt 0.82975792 0.49015352
vt 0.82975792 0.49308033
vt 0.83105535 0.50071657
vt 0.83105602 0.50884924
vt 0.83214465 0.50478377
vt 0.83371687 0.46038068
vt 0.83371687 0.47158896
vt 0.83389217 0.49907881
vt 0.83389391 0.51048731
vt 0.83521850 0.46598482
vt 0.83542054 0.50478378
vt 0.83607851 0.47779820
vt 0.83607851 0.48050104
vt 0.83607851 0.49015352
vt 0.83607851 0.49308033
vt 0.84259005 0.47779820
vt 0.84259005 0.48050104
vt 0.84259005 0.49015352
vt 0.84259005 0.49308033
vt 0.84259005 0.47779820
vt 0.84259005 0.48050104
vt 0.84259005 0.49015352
vt 0.84259005 0.49308033
vn 0.99705449 7.6696499e-2 -2.8296171e-17
vn 0.92115823 7.6696499e-2 0.38155623
vn 0.70502399 7.6696499e-2 0.70502399
vn 0.38155623 7.6696499e-2 0.92115823
vn -2.8296171e-17 7.6696499e-2 0.99705449
vn -0.38155623 7.6696499e-2 0.92115823
vn -0.70502399 7.6696499e-2 0.70502399
vn -0.92115823 7.6696499e-2 0.38155623
vn -0.99705449 7.6696499e-2 1.6977703e-16
vn -0.92115823 7.6696499e-2 -0.38155623
vn -0.70502399 7.6696499e-2 -0.70502399
vn -0.38155623 7.6696499e-2 -0.92115823
vn -1.4148086e-17 7.6696499e-2 -0.99705449
vn 0.38155623 7.6696499e-2 -0.92115823
vn 0.70502399 7.6696499e-2 -0.70502399
vn 0.92115823 7.6696499e-2 -0.38155623
vn 9.8607613e-32 1.00000000 3.9443045e-31
vn 0.97306579 -0.23052757 -2.3539945e-16
vn 0.84269970 -0.23052757 0.48653290
vn 0.48653290 -0.23052757 0.84269970
vn 4.4137396e-17 -0.23052757 0.97306579
vn -0.48653290 -0.23052757 0.84269970
vn -0.84269970 -0.23052757 0.48653290
vn -0.97306579 -0.23052757 2.2068698e-16
vn -0.84269970 -0.23052757 -0.48653290
vn -0.48653290 -0.23052757 -0.84269970
vn -4.2666150e-16 -0.23052757 -0.97306579
vn 0.48653290 -0.23052757 -0.84269970
vn 0.84269970 -0.23052757 -0.48653290
vn 0.84269970 0.23052757 0.48653290
vn 0.97306579 0.23052757 -1.9861828e-16
vn 0.84269970 0.23052757 -0.48653290
vn 0.48653290 0.23052757 -0.84269970
vn -4.2666150e-16 0.23052757 -0.97306579
vn -0.48653290 0.23052757 -0.84269970
vn -0.84269970 0.23052757 -0.48653290
vn -0.97306579 0.23052757 2.2068698e-16
vn -0.84269970 0.23052757 0.48653290
vn -0.48653290 0.23052757 0.84269970
vn 5.8849862e-17 0.23052757 0.97306579
vn 0.48653290 0.23052757 0.84269970
vn -1.1001375e-17 1.00000000 3.4764346e-15
vn -1.8406754e-30 -1.00000000 -1.7749370e-30
vn 0.12619623 0.96762495 0.21857827
vn 2.2685996e-17 0.96762495 0.25239245
vn -0.12619623 0.96762495 0.21857827
vn -0.21857827 0.96762495 0.12619623
vn -0.25239245 0.96762495 8.3763678e-17
vn -0.21857827 0.96762495 -0.12619623
vn -0.12619623 0.96762495 -0.21857827
vn -1.3786105e-16 0.96762495 -0.25239245
vn 0.12619623 0.96762495 -0.21857827
vn 0.21857827 0.96762495 -0.12619623
vn 0.25239245 0.96762495 -7.6783372e-17
vn 0.21857827 0.96762495 0.12619623
vn 9.6031640e-2 0.99383293 5.5443893e-2
vn 0.11088779 0.99383293 -2.9996955e-17
vn 9.6031640e-2 0.99383293 -5.5443893e-2
vn 5.5443893e-2 0.99383293 -9.6031640e-2
vn -9.5207726e-17 0.99383293 -0.11088779
vn -5.5443893e-2 0.99383293 -9.6031640e-2
vn -9.6031640e-2 0.99383293 -5.5443893e-2
vn -0.11088779 0.99383293 1.3624704e-14
vn -9.6031640e-2 0.99383293 5.5443893e-2
vn -5.5443893e-2 0.99383293 9.6031640e-2
vn 5.9993909e-17 0.99383293 0.11088779
vn 5.5443893e-2 0.99383293 9.6031640e-2
vn 1.00000000 7.8630432e-19 -2.1029693e-16
vn 0.70710678 -4.7964563e-17 0.70710678
vn 6.0084837e-17 -6.7622171e-17 1.00000000
vn -0.70710678 -4.7964563e-17 0.70710678
vn -1.00000000 -7.8630432e-19 6.0084837e-17
vn -0.70710678 4.6391955e-17 -0.70710678
vn -1.8025451e-16 6.6835867e-17 -1.00000000
vn 0.70710678 4.8750868e-17 -0.70710678
vn 1.00000000 7.8630432e-19 -2.1029693e-16
vn 0.70710678 -4.7964563e-17 0.70710678
vn 6.0084837e-17 -6.7622171e-17 1.00000000
vn -0.70710678 -4.7964563e-17 0.70710678
vn -1.00000000 -7.8630432e-19 6.0084837e-17
vn -0.70710678 4.6391955e-17 -0.70710678
vn -1.8025451e-16 6.6835867e-17 -1.00000000
vn 0.70710678 4.8750868e-17 -0.70710678
vn 0.99705449 7.6696499e-2 -2.8296171e-17
vn 0.99705449 7.6696499e-2 -2.8296171e-17
vn 2.9605947e-15 1.00000000 -5.9164568e-31
vn 2.9605947e-15 1.00000000 -5.9164568e-31
vn 0.92115823 7.6696499e-2 0.38155623
vn 0.92115823 7.6696499e-2 0.38155623
vn 2.7352329e-15 1.00000000 -6.8499436e-15
vn 2.7352329e-15 1.00000000 -6.8499436e-15
vn 0.70502399 7.6696499e-2 0.70502399
vn 0.70502399 7.6696499e-2 0.70502399
vn 2.0934566e-15 1.00000000 -4.8352543e-15
vn 2.0934566e-15 1.00000000 -4.8352543e-15
vn 0.38155623 7.6696499e-2 0.92115823
vn 0.38155623 7.6696499e-2 0.92115823
vn 1.1329706e-15 1.00000000 1.6117514e-15
vn 1.1329706e-15 1.00000000 1.6117514e-15
vn -2.8296171e-17 7.6696499e-2 0.99705449
vn -2.8296171e-17 7.6696499e-2 0.99705449
vn -4.9303807e-32 1.00000000 0.0000000e+0
vn -4.9303807e-32 1.00000000 0.0000000e+0
vn -0.38155623 7.6696499e-2 0.92115823
vn -0.38155623 7.6696499e-2 0.92115823
vn -1.1329706e-15 1.00000000 -1.6117514e-15
vn -1.1329706e-15 1.00000000 -1.6117514e-15
vn -0.70502399 7.6696499e-2 0.70502399
vn -0.70502399 7.6696499e-2 0.70502399
vn -2.0934566e-15 1.00000000 1.6117514e-15
vn -2.0934566e-15 1.00000000 1.6117514e-15
vn -0.92115823 7.6696499e-2 0.38155623
vn -0.92115823 7.6696499e-2 0.38155623
vn -2.7352329e-15 1.00000000 2.8205650e-15
vn -2.7352329e-15 1.00000000 2.8205650e-15
vn -0.99705449 7.6696499e-2 1.6977703e-16
vn -0.99705449 7.6696499e-2 1.6977703e-16
vn -2.9605947e-15 1.00000000 1.4791142e-31
vn -2.9605947e-15 1.00000000 1.4791142e-31
vn -0.92115823 7.6696499e-2 -0.38155623
vn -0.92115823 7.6696499e-2 -0.38155623
vn -2.7352329e-15 1.00000000 -2.8205650e-15
vn -2.7352329e-15 1.00000000 -2.8205650e-15
vn -0.70502399 7.6696499e-2 -0.70502399
vn -0.70502399 7.6696499e-2 -0.70502399
vn -2.0934566e-15 1.00000000 -1.6117514e-15
vn -2.0934566e-15 1.00000000 -1.6117514e-15
vn -0.38155623 7.6696499e-2 -0.92115823
vn -0.38155623 7.6696499e-2 -0.92115823
vn -1.1329706e-15 1.00000000 3.2235029e-15
vn -1.1329706e-15 1.00000000 3.2235029e-15
vn -1.4148086e-17 7.6696499e-2 -0.99705449
vn -1.4148086e-17 7.6696499e-2 -0.99705449
vn 0.0000000e+0 1.00000000 1.6117514e-15
vn 0.0000000e+0 1.00000000 1.6117514e-15
vn 0.38155623 7.6696499e-2 -0.92115823
vn 0.38155623 7.6696499e-2 -0.92115823
vn 1.1329706e-15 1.00000000 0.0000000e+0
vn 1.1329706e-15 1.00000000 0.0000000e+0
vn 0.70502399 7.6696499e-2 -0.70502399
vn 0.70502399 7.6696499e-2 -0.70502399
vn 2.0934566e-15 1.00000000 3.2235029e-15
vn 2.0934566e-15 1.00000000 3.2235029e-15
vn 0.92115823 7.6696499e-2 -0.38155623
vn 0.92115823 7.6696499e-2 -0.38155623
vn 2.7352329e-15 1.00000000 3.6264407e-15
vn 2.7352329e-15 1.00000000 3.6264407e-15
vn 0.89442719 -0.44721360 -2.1406164e-16
vn 0.89442719 -0.44721360 -2.1406164e-16
vn 1.1584936e-14 -1.00000000 4.1974405e-15
vn 1.1584936e-14 -1.00000000 4.1974405e-15
vn 0.77459667 -0.44721360 0.44721360
vn 0.77459667 -0.44721360 0.44721360
vn 1.0032849e-14 -1.00000000 7.3455210e-15
vn 1.0032849e-14 -1.00000000 7.3455210e-15
vn 0.44721360 -0.44721360 0.77459667
vn 0.44721360 -0.44721360 0.77459667
vn 5.7924680e-15 -1.00000000 8.3948811e-15
vn 5.7924680e-15 -1.00000000 8.3948811e-15
vn 2.8541551e-17 -0.44721360 0.89442719
vn 2.8541551e-17 -0.44721360 0.89442719
vn -7.8886091e-31 -1.00000000 1.6789762e-14
vn -7.8886091e-31 -1.00000000 1.6789762e-14
vn -0.44721360 -0.44721360 0.77459667
vn -0.44721360 -0.44721360 0.77459667
vn -5.7924680e-15 -1.00000000 1.2592322e-14
vn -5.7924680e-15 -1.00000000 1.2592322e-14
vn -0.77459667 -0.44721360 0.44721360
vn -0.77459667 -0.44721360 0.44721360
vn -1.0032849e-14 -1.00000000 1.0493601e-14
vn -1.0032849e-14 -1.00000000 1.0493601e-14
vn -0.89442719 -0.44721360 2.1406164e-16
vn -0.89442719 -0.44721360 2.1406164e-16
vn -1.1584936e-14 -1.00000000 4.1974405e-15
vn -1.1584936e-14 -1.00000000 4.1974405e-15
vn -0.77459667 -0.44721360 -0.44721360
vn -0.77459667 -0.44721360 -0.44721360
vn -1.0032849e-14 -1.00000000 -1.0493601e-14
vn -1.0032849e-14 -1.00000000 -1.0493601e-14
vn -0.44721360 -0.44721360 -0.77459667
vn -0.44721360 -0.44721360 -0.77459667
vn -5.7924680e-15 -1.00000000 -1.6789762e-14
vn -5.7924680e-15 -1.00000000 -1.6789762e-14
vn -3.9958172e-16 -0.44721360 -0.89442719
vn -3.9958172e-16 -0.44721360 -0.89442719
vn -6.7053177e-30 -1.00000000 -1.6789762e-14
vn -6.7053177e-30 -1.00000000 -1.6789762e-14
vn 0.44721360 -0.44721360 -0.77459667
vn 0.44721360 -0.44721360 -0.77459667
vn 5.7924680e-15 -1.00000000 -1.2592322e-14
vn 5.7924680e-15 -1.00000000 -1.2592322e-14
vn 0.77459667 -0.44721360 -0.44721360
vn 0.77459667 -0.44721360 -0.44721360
vn 1.0032849e-14 -1.00000000 -7.3455210e-15
vn 1.0032849e-14 -1.00000000 -7.3455210e-15
vn 0.77459667 0.44721360 0.44721360
vn 0.77459667 0.44721360 0.44721360
vn 0.28746363 0.94330247 0.16596720
vn 0.28746363 0.94330247 0.16596720
vn 0.89442719 0.44721360 -1.5697853e-16
vn 0.89442719 0.44721360 -1.5697853e-16
vn 0.33193440 0.94330247 -9.0561708e-17
vn 0.33193440 0.94330247 -9.0561708e-17
vn 0.77459667 0.44721360 -0.44721360
vn 0.77459667 0.44721360 -0.44721360
vn 0.28746363 0.94330247 -0.16596720
vn 0.28746363 0.94330247 -0.16596720
vn 0.44721360 0.44721360 -0.77459667
vn 0.44721360 0.44721360 -0.77459667
vn 0.16596720 0.94330247 -0.28746363
vn 0.16596720 0.94330247 -0.28746363
vn -3.9958172e-16 0.44721360 -0.89442719
vn -3.9958172e-16 0.44721360 -0.89442719
vn -1.6022456e-16 0.94330247 -0.33193440
vn -1.6022456e-16 0.94330247 -0.33193440
vn -0.44721360 0.44721360 -0.77459667
vn -0.44721360 0.44721360 -0.77459667
vn -0.16596720 0.94330247 -0.28746363
vn -0.16596720 0.94330247 -0.28746363
vn -0.77459667 0.44721360 -0.44721360
vn -0.77459667 0.44721360 -0.44721360
vn -0.28746363 0.94330247 -0.16596720
vn -0.28746363 0.94330247 -0.16596720
vn -0.89442719 0.44721360 2.2833241e-16
vn -0.89442719 0.44721360 2.2833241e-16
vn -0.33193440 0.94330247 8.3595423e-17
vn -0.33193440 0.94330247 8.3595423e-17
vn -0.77459667 0.44721360 0.44721360
vn -0.77459667 0.44721360 0.44721360
vn -0.28746363 0.94330247 0.16596720
vn -0.28746363 0.94330247 0.16596720
vn -0.44721360 0.44721360 0.77459667
vn -0.44721360 0.44721360 0.77459667
vn -0.16596720 0.94330247 0.28746363
vn -0.16596720 0.94330247 0.28746363
vn 5.7083103e-17 0.44721360 0.89442719
vn 5.7083103e-17 0.44721360 0.89442719
vn -6.9662852e-18 0.94330247 0.33193440
vn -6.9662852e-18 0.94330247 0.33193440
vn 0.44721360 0.44721360 0.77459667
vn 0.44721360 0.44721360 0.77459667
vn 0.16596720 0.94330247 0.28746363
vn 0.16596720 0.94330247 0.28746363
g probe_1_auv
usemtl 1_auv
s 1
f 1/47/86 33/35/17 2/45/90
f 2/45/91 33/35/17 3/43/95
f 3/43/94 33/35/17 4/39/99
f 4/39/98 33/35/17 5/34/103
f 5/34/102 33/35/17 6/32/107
f 6/32/106 33/35/17 7/27/111
f 7/27/110 33/35/17 8/24/115
f 8/24/114 33/35/17 9/23/119
f 9/23/118 33/35/17 10/25/123
f 10/25/122 33/35/17 11/28/127
f 11/28/126 33/35/17 12/31/131
f 12/31/130 33/35/17 13/33/135
f 13/33/134 33/35/17 14/38/139
f 14/38/138 33/35/17 15/42/143
f 15/42/142 33/35/17 16/46/147
f 16/46/146 33/35/17 1/47/87
f 46/83/151 83/118/43 57/87/195
f 47/86/154 83/118/43 46/83/150
f 48/101/158 83/118/43 47/86/155
f 49/117/162 83/118/43 48/101/159
f 50/131/166 83/118/43 49/117/163
f 51/146/170 83/118/43 50/131/167
f 52/150/174 83/118/43 51/146/171
f 53/147/178 83/118/43 52/150/175
f 54/132/182 83/118/43 53/147/179
f 55/119/186 83/118/43 54/132/183
f 56/102/190 83/118/43 55/119/187
f 57/87/194 83/118/43 56/102/191
f 70/148/199 95/143/55 84/128/44 81/133/243
f 71/151/202 94/145/54 95/143/55 70/148/198
f 72/149/206 93/144/53 94/145/54 71/151/203
f 73/134/210 92/129/52 93/144/53 72/149/207
f 74/114/214 91/115/51 92/129/52 73/134/211
f 75/100/218 90/105/50 91/115/51 74/114/215
f 76/85/222 89/90/49 90/105/50 75/100/219
f 77/82/226 88/88/48 89/90/49 76/85/223
f 78/84/230 87/89/47 88/88/48 77/82/227
f 79/99/234 86/104/46 87/89/47 78/84/231
f 80/123/238 85/122/45 86/104/46 79/99/235
f 81/133/242 84/128/44 85/122/45 80/123/239
f 82/120/42 107/124/67 96/126/56
f 84/128/44 95/143/55 96/126/56 107/124/67
f 96/126/56 97/130/57 82/120/42
f 97/130/57 96/126/56 95/143/55 94/145/54
f 97/130/57 98/127/58 82/120/42
f 98/127/58 97/130/57 94/145/54 93/144/53
f 98/127/58 99/125/59 82/120/42
f 99/125/59 98/127/58 93/144/53 92/129/52
f 99/125/59 100/121/60 82/120/42
f 100/121/60 99/125/59 92/129/52 91/115/51
f 100/121/60 101/109/61 82/120/42
f 101/109/61 100/121/60 91/115/51 90/105/50
f 101/109/61 102/107/62 82/120/42
f 102/107/62 101/109/61 90/105/50 89/90/49
f 102/107/62 103/103/63 82/120/42
f 103/103/63 102/107/62 89/90/49 88/88/48
f 103/103/63 104/106/64 82/120/42
f 104/106/64 103/103/63 88/88/48 87/89/47
f 104/106/64 105/108/65 82/120/42
f 105/108/65 104/106/64 87/89/47 86/104/46
f 105/108/65 106/116/66 82/120/42
f 106/116/66 105/108/65 86/104/46 85/122/45
f 106/116/66 107/124/67 82/120/42
f 107/124/67 106/116/66 85/122/45 84/128/44
f 108/4/68 116/63/76 123/64/83 115/5/75
f 109/3/69 117/62/77 116/63/76 108/4/68
f 110/2/70 118/61/78 117/62/77 109/3/69
f 111/9/71 119/68/79 118/69/78 110/10/70
f 112/8/72 120/67/80 119/68/79 111/9/71
f 113/7/73 121/66/81 120/67/80 112/8/72
f 114/6/74 122/65/82 121/66/81 113/7/73
f 115/5/75 123/64/83 122/65/82 114/6/74
s 2
f 1/50/84 17/53/1 32/51/16 16/49/144
f 2/52/89 18/55/2 17/53/1 1/50/85
f 3/54/93 19/58/3 18/55/2 2/52/88
f 4/56/97 20/59/4 19/58/3 3/54/92
f 5/57/101 21/60/5 20/59/4 4/56/96
f 6/14/105 22/11/6 21/1/5 5/13/100
f 7/16/109 23/12/7 22/11/6 6/14/104
f 8/18/113 24/15/8 23/12/7 7/16/108
f 9/20/117 25/17/9 24/15/8 8/18/112
f 10/21/121 26/19/10 25/17/9 9/20/116
f 11/26/125 27/22/11 26/19/10 10/21/120
f 12/30/129 28/29/12 27/22/11 11/26/124
f 13/36/133 29/37/13 28/29/12 12/30/128
f 14/40/137 30/41/14 29/37/13 13/36/132
f 15/44/141 31/48/15 30/41/14 14/40/136
f 16/49/145 32/51/16 31/48/15 15/44/140
f 34/111/18 46/110/148 57/139/192 45/140/29
f 34/111/18 59/112/31 58/97/30 35/96/19
f 35/96/19 47/95/153 46/110/149 34/111/18
f 35/96/19 58/97/30 69/80/41 36/79/20
f 36/79/20 48/78/157 47/95/152 35/96/19
f 36/79/20 69/80/41 68/76/40 37/75/21
f 37/75/21 49/74/161 48/78/156 36/79/20
f 37/71/21 68/72/40 67/80/39 38/79/22
f 38/79/22 50/78/165 49/70/160 37/71/21
f 38/79/22 67/80/39 66/93/38 39/92/23
f 39/92/23 51/91/169 50/78/164 38/79/22
f 39/92/23 66/93/38 65/112/37 40/111/24
f 40/111/24 52/110/173 51/91/168 39/92/23
f 40/111/24 65/112/37 64/137/36 41/136/25
f 41/136/25 53/135/177 52/110/172 40/111/24
f 41/136/25 64/137/36 63/154/35 42/153/26
f 42/153/26 54/152/181 53/135/176 41/136/25
f 42/153/26 63/154/35 62/162/34 43/161/27
f 43/161/27 55/160/185 54/152/180 42/153/26
f 43/157/27 62/158/34 61/154/33 44/153/28
f 44/153/28 56/152/189 55/156/184 43/157/27
f 44/153/28 61/154/33 60/141/32 45/140/29
f 45/140/29 57/139/193 56/152/188 44/153/28
f 45/140/29 60/141/32 59/112/31 34/111/18
f 58/97/30 70/98/197 81/81/241 69/80/41
f 59/112/31 71/113/200 70/98/196 58/97/30
f 60/141/32 72/142/204 71/113/201 59/112/31
f 61/154/33 73/155/208 72/142/205 60/141/32
f 62/158/34 74/159/212 73/155/209 61/154/33
f 63/154/35 75/155/216 74/163/213 62/162/34
f 64/137/36 76/138/220 75/155/217 63/154/35
f 65/112/37 77/113/224 76/138/221 64/137/36
f 66/93/38 78/94/228 77/113/225 65/112/37
f 67/80/39 79/81/232 78/94/229 66/93/38
f 68/72/40 80/73/236 79/81/233 67/80/39
f 69/80/41 81/81/240 80/77/237 68/76/40
