# Exported from Wings 3D 1.5.4
mtllib Eridani_Antenna_2_Base.mtl
o Eridani_Antenna_2_Base
#18 vertices, 24 faces
v 3.1250000e-2 1.7791107e-17 2.2500000e-2
v 2.2097087e-2 -2.2097087e-2 2.2500000e-2
v -5.1862917e-17 -3.1250000e-2 2.2500000e-2
v -2.2097087e-2 -2.2097087e-2 2.2500000e-2
v -3.1250000e-2 1.3964086e-17 2.2500000e-2
v -2.2097087e-2 2.2097087e-2 2.2500000e-2
v -5.9516960e-17 3.1250000e-2 2.2500000e-2
v 2.2097087e-2 2.2097087e-2 2.2500000e-2
v 3.1250000e-2 -2.6393317e-18 -6.7500000e-2
v 2.2097087e-2 -2.2097087e-2 -6.7500000e-2
v 4.0344692e-18 -3.1250000e-2 -6.7500000e-2
v -2.2097087e-2 -2.2097087e-2 -6.7500000e-2
v -3.1250000e-2 -6.4663529e-18 -6.7500000e-2
v -2.2097087e-2 2.2097087e-2 -6.7500000e-2
v -3.6195733e-18 3.1250000e-2 -6.7500000e-2
v 2.2097087e-2 2.2097087e-2 -6.7500000e-2
v -5.5294311e-17 1.8211404e-17 2.2500000e-2
v 1.0842022e-18 -3.2526065e-18 -6.7500000e-2
vt 7.0918375e-2 0.18888641
vt 7.0918375e-2 0.81115916
vt 0.10071856 0.35348837
vt 0.10071856 0.35348837
vt 0.10071856 0.11694240
vt 0.10071856 0.26083041
vt 0.10071856 0.64651163
vt 0.10071856 0.64651163
vt 0.10071856 0.73921516
vt 0.10071856 0.88310316
vt 0.10071856 0.35348837
vt 0.10071856 0.64651163
vt 0.10071856 0.35348837
vt 0.17266256 0.35348837
vt 0.17266256 0.35348837
vt 0.17266256 0.64651163
vt 0.17266256 0.64651163
vt 0.17266256 8.7142221e-2
vt 0.17266256 0.18888641
vt 0.17266256 0.29063059
vt 0.17266256 0.35348837
vt 0.17266256 0.64651163
vt 0.17266256 0.70941497
vt 0.17266256 0.81115916
vt 0.17266256 0.91290335
vt 0.17266256 0.35348837
vt 0.24460656 0.35348837
vt 0.24460656 0.35348837
vt 0.24460656 0.64651163
vt 0.24460656 0.64651163
vt 0.24460656 0.11694240
vt 0.24460656 0.26083041
vt 0.24460656 0.35348837
vt 0.24460656 0.64651163
vt 0.24460656 0.88310316
vt 0.24460656 0.73921516
vt 0.24460656 0.35348837
vt 0.27440675 0.18888641
vt 0.27440675 0.81115916
vn -9.8130779e-18 2.7755576e-17 1.00000000
vn 3.9252311e-17 0.0000000e+0 -1.00000000
vn 1.00000000 6.0084837e-17 6.2013200e-16
vn 1.00000000 6.0084837e-17 6.2013200e-16
vn 0.0000000e+0 -6.1629758e-33 1.00000000
vn 0.0000000e+0 -6.1629758e-33 1.00000000
vn 0.70710678 -0.70710678 6.1331737e-16
vn 0.70710678 -0.70710678 6.1331737e-16
vn -3.9252311e-17 7.8504623e-17 1.00000000
vn -3.9252311e-17 7.8504623e-17 1.00000000
vn 6.0084837e-17 -1.00000000 2.5214158e-16
vn 6.0084837e-17 -1.00000000 2.5214158e-16
vn 3.9252311e-17 1.1102230e-16 1.00000000
vn 3.9252311e-17 1.1102230e-16 1.00000000
vn -0.70710678 -0.70710678 -2.6577086e-16
vn -0.70710678 -0.70710678 -2.6577086e-16
vn 7.8504623e-17 7.8504623e-17 1.00000000
vn 7.8504623e-17 7.8504623e-17 1.00000000
vn -1.00000000 -1.5021209e-16 -6.3376128e-16
vn -1.00000000 -1.5021209e-16 -6.3376128e-16
vn 0.0000000e+0 2.4651903e-32 1.00000000
vn 0.0000000e+0 2.4651903e-32 1.00000000
vn -0.70710678 0.70710678 -6.0991005e-16
vn -0.70710678 0.70710678 -6.0991005e-16
vn 1.5700925e-16 -2.2993472e-17 1.00000000
vn 1.5700925e-16 -2.2993472e-17 1.00000000
vn -1.8025451e-16 1.00000000 -2.2829035e-16
vn -1.8025451e-16 1.00000000 -2.2829035e-16
vn -7.8504623e-17 0.0000000e+0 1.00000000
vn -7.8504623e-17 0.0000000e+0 1.00000000
vn 0.70710678 0.70710678 2.7258550e-16
vn 0.70710678 0.70710678 2.7258550e-16
vn -2.3551387e-16 -2.2993472e-17 1.00000000
vn -2.3551387e-16 -2.2993472e-17 1.00000000
vn 1.00000000 6.0084837e-17 6.2013200e-16
vn 1.00000000 6.0084837e-17 6.2013200e-16
vn 0.0000000e+0 0.0000000e+0 -1.00000000
vn 0.0000000e+0 0.0000000e+0 -1.00000000
vn 0.70710678 -0.70710678 6.1331737e-16
vn 0.70710678 -0.70710678 6.1331737e-16
vn -1.5700925e-16 0.0000000e+0 -1.00000000
vn -1.5700925e-16 0.0000000e+0 -1.00000000
vn 6.0084837e-17 -1.00000000 2.5214158e-16
vn 6.0084837e-17 -1.00000000 2.5214158e-16
vn -2.4651903e-32 0.0000000e+0 -1.00000000
vn -2.4651903e-32 0.0000000e+0 -1.00000000
vn -0.70710678 -0.70710678 -2.6577086e-16
vn -0.70710678 -0.70710678 -2.6577086e-16
vn 1.5700925e-16 0.0000000e+0 -1.00000000
vn 1.5700925e-16 0.0000000e+0 -1.00000000
vn -1.00000000 -1.5021209e-16 -6.3376128e-16
vn -1.00000000 -1.5021209e-16 -6.3376128e-16
vn 0.0000000e+0 0.0000000e+0 -1.00000000
vn 0.0000000e+0 0.0000000e+0 -1.00000000
vn -0.70710678 0.70710678 -6.0991005e-16
vn -0.70710678 0.70710678 -6.0991005e-16
vn 0.0000000e+0 0.0000000e+0 -1.00000000
vn 0.0000000e+0 0.0000000e+0 -1.00000000
vn -1.8025451e-16 1.00000000 -2.2829035e-16
vn -1.8025451e-16 1.00000000 -2.2829035e-16
vn 1.5700925e-16 0.0000000e+0 -1.00000000
vn 1.5700925e-16 0.0000000e+0 -1.00000000
vn 0.70710678 0.70710678 2.7258550e-16
vn 0.70710678 0.70710678 2.7258550e-16
vn 1.5700925e-16 0.0000000e+0 -1.00000000
vn 1.5700925e-16 0.0000000e+0 -1.00000000
g Eridani_Antenna_2_Base_Eridani_Antenna_2_Base_auv
usemtl Eridani_Antenna_2_Base_auv
s 1
f 1/17/3 9/14/35 16/27/63 8/30/31
f 2/8/8 10/3/40 9/14/36 1/17/4
f 3/16/12 11/26/44 10/37/39 2/29/7
f 4/7/16 12/13/48 11/26/43 3/16/11
f 5/22/20 13/21/52 12/33/47 4/34/15
f 6/12/24 14/11/56 13/21/51 5/22/19
f 7/16/28 15/15/60 14/28/55 6/29/23
f 8/7/32 16/4/64 15/15/59 7/16/27
s 2
f 1/39/5 17/24/1 2/36/9
f 2/36/10 17/24/1 3/23/14
f 3/23/13 17/24/1 4/9/18
f 4/9/17 17/24/1 5/2/22
f 5/2/21 17/24/1 6/10/26
f 6/10/25 17/24/1 7/25/30
f 7/25/29 17/24/1 8/35/34
f 8/35/33 17/24/1 1/39/6
f 9/1/38 18/19/2 16/6/66
f 10/5/41 18/19/2 9/1/37
f 11/18/45 18/19/2 10/5/42
f 12/31/49 18/19/2 11/18/46
f 13/38/53 18/19/2 12/31/50
f 14/32/57 18/19/2 13/38/54
f 15/20/61 18/19/2 14/32/58
f 16/6/65 18/19/2 15/20/62
