# Exported from Wings 3D 1.5.4
mtllib Tantares_SolarStandard_1.mtl
o Tantares_SolarStandard_1
#8 vertices, 6 faces
v 0.44000000 -5.0000000e-3 5.0000000e-3
v 0.44000000 5.0000000e-3 5.0000000e-3
v -0.44000000 -5.0000000e-3 5.0000000e-3
v -0.44000000 5.0000000e-3 5.0000000e-3
v 0.44000000 -5.0000000e-3 -0.54500000
v 0.44000000 5.0000000e-3 -0.54500000
v -0.44000000 -5.0000000e-3 -0.54500000
v -0.44000000 5.0000000e-3 -0.54500000
vt 1.8750000e-2 0.51119511
vt 1.8750000e-2 0.51119511
vt 1.8750000e-2 0.51891440
vt 1.8750000e-2 0.51891440
vt 1.8750000e-2 0.53784551
vt 1.8750000e-2 0.75012622
vt 1.8750000e-2 0.76896930
vt 1.8750000e-2 0.98125000
vt 0.35839912 0.76896930
vt 0.35839912 0.98125000
vt 0.35839912 0.51119511
vt 0.35839912 0.51119511
vt 0.35839912 0.51891440
vt 0.35839912 0.53784551
vt 0.35839912 0.75012622
vt 0.37741939 0.76896930
vt 0.37741939 0.98125000
vt 0.37741939 0.76896930
vt 0.37741939 0.98125000
vt 0.38513869 0.76896930
vt 0.38513869 0.98125000
vt 0.38513869 0.76896930
vt 0.38513869 0.98125000
vn 1.00000000 0.0000000e+0 0.0000000e+0
vn 0.0000000e+0 -1.00000000 0.0000000e+0
vn 0.0000000e+0 0.0000000e+0 1.00000000
vn 1.00000000 0.0000000e+0 0.0000000e+0
vn 0.0000000e+0 1.00000000 0.0000000e+0
vn 0.0000000e+0 0.0000000e+0 1.00000000
vn -1.00000000 0.0000000e+0 0.0000000e+0
vn 0.0000000e+0 -1.00000000 0.0000000e+0
vn 0.0000000e+0 0.0000000e+0 1.00000000
vn -1.00000000 0.0000000e+0 0.0000000e+0
vn 0.0000000e+0 1.00000000 0.0000000e+0
vn 0.0000000e+0 0.0000000e+0 1.00000000
vn 1.00000000 0.0000000e+0 0.0000000e+0
vn 0.0000000e+0 -1.00000000 0.0000000e+0
vn 0.0000000e+0 0.0000000e+0 -1.00000000
vn 1.00000000 0.0000000e+0 0.0000000e+0
vn 0.0000000e+0 1.00000000 0.0000000e+0
vn 0.0000000e+0 0.0000000e+0 -1.00000000
vn -1.00000000 0.0000000e+0 0.0000000e+0
vn 0.0000000e+0 -1.00000000 0.0000000e+0
vn 0.0000000e+0 0.0000000e+0 -1.00000000
vn -1.00000000 0.0000000e+0 0.0000000e+0
vn 0.0000000e+0 1.00000000 0.0000000e+0
vn 0.0000000e+0 0.0000000e+0 -1.00000000
g Tantares_SolarStandard_1_Tantares_SolarStandard_1_auv
usemtl Tantares_SolarStandard_1_auv
s 1
f 2/13/6 4/4/12 3/2/9 1/12/3
f 5/1/15 7/11/21 8/13/24 6/3/18
s 2
f 2/9/5 6/10/17 8/8/23 4/7/11
f 3/14/8 7/15/20 5/6/14 1/5/2
s 3
f 1/20/1 5/21/13 6/19/16 2/18/4
f 4/17/10 8/16/22 7/22/19 3/23/7
