# Exported from Wings 3D 1.5.4
mtllib Tantares_SolarStandard_1_Pivot.mtl
o Tantares_SolarStandard_1_Pivot
#40 vertices, 29 faces
v 2.0000254e-2 5.4134315e-18 0.0000000e+0
v 1.7320762e-2 -1.0000000e-2 0.0000000e+0
v 1.0000254e-2 -1.5000000e-2 0.0000000e+0
v 2.5403784e-7 -1.5000000e-2 0.0000000e+0
v -9.9997460e-3 -1.5000000e-2 0.0000000e+0
v -1.7320254e-2 -1.0000000e-2 0.0000000e+0
v -1.9999746e-2 2.9641379e-18 0.0000000e+0
v -1.7320254e-2 1.0000000e-2 0.0000000e+0
v -9.9997460e-3 1.5000000e-2 0.0000000e+0
v 2.5403784e-7 1.5000000e-2 -1.7347235e-18
v 1.0000254e-2 1.5000000e-2 0.0000000e+0
v 1.7320762e-2 1.0000000e-2 0.0000000e+0
v 2.0000254e-2 2.9641379e-18 -2.5000000e-2
v 1.7320762e-2 -1.0000000e-2 -2.5000000e-2
v 1.0000254e-2 -1.5000000e-2 -2.5000000e-2
v 2.5403784e-7 -1.5000000e-2 -2.5000000e-2
v -9.9997460e-3 -1.5000000e-2 -2.5000000e-2
v -1.7320254e-2 -1.0000000e-2 -2.5000000e-2
v -1.9999746e-2 5.1484433e-19 -2.5000000e-2
v -1.7320254e-2 1.0000000e-2 -2.5000000e-2
v -9.9997460e-3 1.5000000e-2 -2.5000000e-2
v 2.5403784e-7 1.5000000e-2 -2.5000000e-2
v 1.0000254e-2 1.5000000e-2 -2.5000000e-2
v 1.7320762e-2 1.0000000e-2 -2.5000000e-2
v -0.43999975 5.0000000e-3 -1.2500000e-2
v -0.43999975 7.9652298e-19 -7.5000000e-3
v -0.43999975 -5.0000000e-3 -1.2500000e-2
v -0.43999975 -4.2812382e-19 -1.7500000e-2
v 0.44000025 5.0000000e-3 -1.2500000e-2
v 0.44000025 1.8419958e-19 -7.5000000e-3
v 0.44000025 -5.0000000e-3 -1.2500000e-2
v 0.44000025 -1.0404472e-18 -1.7500000e-2
v 2.0000254e-2 -7.4653199e-19 -1.7500000e-2
v 2.0000254e-2 4.7811481e-19 -7.5000000e-3
v 1.8660508e-2 5.0000000e-3 -1.2500000e-2
v 1.8660508e-2 -5.0000000e-3 -1.2500000e-2
v -1.9999746e-2 -7.2203905e-19 -1.7500000e-2
v -1.9999746e-2 5.0260774e-19 -7.5000000e-3
v -1.8660000e-2 5.0000000e-3 -1.2500000e-2
v -1.8660000e-2 -5.0000000e-3 -1.2500000e-2
vt 0.18911451 0.45933098
vt 0.19038640 0.45458421
vt 0.19038640 0.46407774
vt 0.19386127 0.45110934
vt 0.19386127 0.46755261
vt 0.19860803 0.44983745
vt 0.19860803 0.46882450
vt 0.20335479 0.45110934
vt 0.20335479 0.46755261
vt 0.20682967 0.45458421
vt 0.20682967 0.46407774
vt 0.20810156 0.45933098
vt 0.22719207 0.45339752
vt 0.22719207 0.46526443
vt 0.22719207 0.45339752
vt 0.22719207 0.46526443
vt 0.22846396 0.45339752
vt 0.22846396 0.46526443
vt 0.22846396 0.45339752
vt 0.22846396 0.46526443
vt 0.23193883 0.45339752
vt 0.23193883 0.46526443
vt 0.23193883 0.45339752
vt 0.23193883 0.46526443
vt 0.23431221 0.45933098
vt 0.23431221 0.45933098
vt 0.23668559 0.45339752
vt 0.23668559 0.45695759
vt 0.23668559 0.46170436
vt 0.23668559 0.46526443
vt 0.23668559 0.45339752
vt 0.23668559 0.45695759
vt 0.23668559 0.46170436
vt 0.23668559 0.46526443
vt 0.23905898 0.45933098
vt 0.23905898 0.45933098
vt 0.24143236 0.45339752
vt 0.24143236 0.46526443
vt 0.24143236 0.45339752
vt 0.24143236 0.46526443
vt 0.24490723 0.45339752
vt 0.24490723 0.46526443
vt 0.24490723 0.45339752
vt 0.24490723 0.46526443
vt 0.24617912 0.45339752
vt 0.24617912 0.46526443
vt 0.24617912 0.45339752
vt 0.24617912 0.46526443
vt 0.39806186 0.52436717
vt 0.39806186 0.72366472
vt 0.39806186 0.52436717
vt 0.39806186 0.72366472
vt 0.39806186 0.72366472
vt 0.39806186 0.72366472
vt 0.39806186 0.52436717
vt 0.40141833 0.52436717
vt 0.40141833 0.52436717
vt 0.40141833 0.72366472
vt 0.40141833 0.52436717
vt 0.40141833 0.72366472
vt 0.40141833 0.72366472
vt 0.40141833 0.72366472
vt 0.40141833 0.52436717
vt 0.40477480 0.72366472
vt 0.40477480 0.52436717
vt 0.40477480 0.72366472
vt 0.40477480 0.52436717
vt 0.40477480 0.72366472
vt 0.40477480 0.72366472
vt 0.40477480 0.52436717
vn 1.00000000 1.2355915e-15 1.0425021e-17
vn 1.00000000 1.2355915e-15 1.0425021e-17
vn 0.88054759 -0.47395774 6.3605425e-16
vn 0.88054759 -0.47395774 6.3605425e-16
vn 0.88054759 -0.47395774 6.3605425e-16
vn 0.29515423 -0.95544962 1.6000343e-17
vn 0.29515423 -0.95544962 1.6000343e-17
vn 0.0000000e+0 -1.00000000 0.0000000e+0
vn 0.0000000e+0 -1.00000000 0.0000000e+0
vn -0.29515423 -0.95544962 3.2000686e-17
vn -0.29515423 -0.95544962 3.2000686e-17
vn -0.88054759 -0.47395774 8.0528963e-16
vn -0.88054759 -0.47395774 8.0528963e-16
vn -0.88054759 -0.47395774 8.0528963e-16
vn -1.00000000 -2.2987749e-16 2.1319168e-15
vn -1.00000000 -2.2987749e-16 2.1319168e-15
vn -0.88054759 0.47395774 6.5853323e-16
vn -0.88054759 0.47395774 6.5853323e-16
vn -0.88054759 0.47395774 6.5853323e-16
vn -0.29515423 0.95544962 -1.6000343e-17
vn -0.29515423 0.95544962 -1.6000343e-17
vn 0.0000000e+0 1.00000000 0.0000000e+0
vn 0.0000000e+0 1.00000000 0.0000000e+0
vn 0.29515423 0.95544962 -3.2000686e-17
vn 0.29515423 0.95544962 -3.2000686e-17
vn 0.88054759 0.47395774 -6.5820971e-16
vn 0.88054759 0.47395774 -6.5820971e-16
vn 0.88054759 0.47395774 -6.5820971e-16
vn 5.3167221e-17 0.0000000e+0 -1.00000000
vn 1.00000000 1.2068568e-15 -1.5637531e-17
vn 1.00000000 1.2068568e-15 -1.5637531e-17
vn 5.3167221e-17 0.0000000e+0 -1.00000000
vn 0.88054759 -0.47395774 -5.9671704e-16
vn 0.88054759 -0.47395774 -5.9671704e-16
vn 0.88054759 -0.47395774 -5.9671704e-16
vn 5.3167221e-17 0.0000000e+0 -1.00000000
vn 0.29515423 -0.95544962 1.6000343e-17
vn 0.29515423 -0.95544962 1.6000343e-17
vn 5.3167221e-17 0.0000000e+0 -1.00000000
vn 0.0000000e+0 -1.00000000 0.0000000e+0
vn 0.0000000e+0 -1.00000000 0.0000000e+0
vn 5.3167221e-17 0.0000000e+0 -1.00000000
vn -0.29515423 -0.95544962 3.2000686e-17
vn -0.29515423 -0.95544962 3.2000686e-17
vn 5.3167221e-17 0.0000000e+0 -1.00000000
vn -0.88054759 -0.47395774 -7.2235202e-16
vn -0.88054759 -0.47395774 -7.2235202e-16
vn -0.88054759 -0.47395774 -7.2235202e-16
vn 5.3167221e-17 0.0000000e+0 -1.00000000
vn -1.00000000 -1.4367343e-16 -2.1214918e-15
vn -1.00000000 -1.4367343e-16 -2.1214918e-15
vn 5.3167221e-17 0.0000000e+0 -1.00000000
vn -0.88054759 0.47395774 -7.1279160e-16
vn -0.88054759 0.47395774 -7.1279160e-16
vn -0.88054759 0.47395774 -7.1279160e-16
vn 5.3167221e-17 0.0000000e+0 -1.00000000
vn -0.29515423 0.95544962 -1.6000343e-17
vn -0.29515423 0.95544962 -1.6000343e-17
vn 5.3167221e-17 0.0000000e+0 -1.00000000
vn 0.0000000e+0 1.00000000 0.0000000e+0
vn 0.0000000e+0 1.00000000 0.0000000e+0
vn 5.3167221e-17 0.0000000e+0 -1.00000000
vn 0.29515423 0.95544962 -3.2000686e-17
vn 0.29515423 0.95544962 -3.2000686e-17
vn 5.3167221e-17 0.0000000e+0 -1.00000000
vn 0.88054759 0.47395774 5.5679830e-16
vn 0.88054759 0.47395774 5.5679830e-16
vn 0.88054759 0.47395774 5.5679830e-16
vn 2.0135337e-18 1.00000000 7.8504623e-17
vn 2.0135337e-18 1.00000000 7.8504623e-17
vn 4.0270673e-19 0.0000000e+0 1.00000000
vn 4.0270673e-19 0.0000000e+0 1.00000000
vn -1.2081202e-18 -1.00000000 1.5700925e-16
vn -1.2081202e-18 -1.00000000 1.5700925e-16
vn 4.0270673e-19 0.0000000e+0 -1.00000000
vn 4.0270673e-19 0.0000000e+0 -1.00000000
vn 8.0541346e-19 1.00000000 -1.5700925e-16
vn 8.0541346e-19 1.00000000 -1.5700925e-16
vn 4.0270673e-19 1.5700925e-16 1.00000000
vn 4.0270673e-19 1.5700925e-16 1.00000000
vn -4.0270673e-19 -1.00000000 1.5700925e-16
vn -4.0270673e-19 -1.00000000 1.5700925e-16
vn 0.0000000e+0 -7.8504623e-17 -1.00000000
vn 0.0000000e+0 -7.8504623e-17 -1.00000000
vn 0.0000000e+0 -7.8504623e-17 -1.00000000
vn 0.0000000e+0 -7.8504623e-17 -1.00000000
vn 1.00000000 1.2068568e-15 -1.5637531e-17
vn 1.00000000 1.2068568e-15 -1.5637531e-17
vn 4.0270673e-19 1.5700925e-16 1.00000000
vn 4.0270673e-19 1.5700925e-16 1.00000000
vn 1.00000000 1.2355915e-15 1.0425021e-17
vn 1.00000000 1.2355915e-15 1.0425021e-17
vn 8.0541346e-19 1.00000000 -1.5700925e-16
vn 8.0541346e-19 1.00000000 -1.5700925e-16
vn 0.96592583 0.25881905 -3.7593908e-17
vn 0.96592583 0.25881905 -3.7593908e-17
vn 0.96592583 0.25881905 -3.7593908e-17
vn -4.0270673e-19 -1.00000000 1.5700925e-16
vn -4.0270673e-19 -1.00000000 1.5700925e-16
vn 0.96592583 -0.25881905 1.6782995e-17
vn 0.96592583 -0.25881905 1.6782995e-17
vn 0.96592583 -0.25881905 1.6782995e-17
vn 4.0270673e-19 0.0000000e+0 -1.00000000
vn 4.0270673e-19 0.0000000e+0 -1.00000000
vn -1.00000000 -1.4367343e-16 -2.1214918e-15
vn -1.00000000 -1.4367343e-16 -2.1214918e-15
vn 4.0270673e-19 0.0000000e+0 1.00000000
vn 4.0270673e-19 0.0000000e+0 1.00000000
vn -1.00000000 -2.2987749e-16 2.1319168e-15
vn -1.00000000 -2.2987749e-16 2.1319168e-15
vn 2.0135337e-18 1.00000000 7.8504623e-17
vn 2.0135337e-18 1.00000000 7.8504623e-17
vn -0.96592583 0.25881905 -2.2153553e-17
vn -0.96592583 0.25881905 -2.2153553e-17
vn -0.96592583 0.25881905 -2.2153553e-17
vn -1.2081202e-18 -1.00000000 1.5700925e-16
vn -1.2081202e-18 -1.00000000 1.5700925e-16
vn -0.96592583 -0.25881905 2.8866751e-17
vn -0.96592583 -0.25881905 2.8866751e-17
vn -0.96592583 -0.25881905 2.8866751e-17
g Tantares_SolarStandard_1_Pivot_Tantares_SolarStandard_1_Pivot_auv
usemtl Tantares_SolarStandard_1_Pivot_auv
s 1
f 14/2/32 15/4/36 16/6/39 17/8/42 18/10/45 19/12/49 20/11/52 21/9/56 22/7/59 23/5/62 24/3/65 13/1/29
f 29/70/78 35/64/94 34/58/89 30/63/79
f 30/63/80 34/58/90 36/50/99 31/55/82
f 31/67/81 36/66/98 33/60/86 32/59/84
f 32/59/83 33/60/85 35/52/93 29/51/77
s 2
f 1/30/2 34/29/92 35/35/97 12/38/28
f 2/24/4 36/25/100 34/29/91 1/30/1
f 3/20/7 15/19/38 14/23/33 2/24/3
f 4/16/9 16/15/41 15/19/37 3/20/6
f 5/44/11 17/43/44 16/47/40 4/48/8
f 6/40/12 18/39/46 17/43/43 5/44/10
f 6/40/14 40/36/120 18/39/48
f 7/34/15 38/33/109 40/36/118 6/40/13
f 8/22/18 39/26/113 38/33/110 7/34/16
f 9/18/21 21/17/58 20/21/53 8/22/17
f 10/14/23 22/13/61 21/17/57 9/18/20
f 11/42/25 23/41/64 22/45/60 10/46/22
f 12/38/26 24/37/66 23/41/63 11/42/24
f 12/38/27 35/35/96 24/37/68
f 13/27/31 33/28/88 36/25/102 14/23/35
f 14/23/34 36/25/101 2/24/5
f 18/39/47 40/36/119 37/32/106 19/31/51
f 19/31/50 37/32/105 39/26/114 20/21/54
f 20/21/55 39/26/115 8/22/19
f 24/37/67 35/35/95 33/28/87 13/27/30
s 3
f 25/65/69 39/69/111 37/62/103 28/56/75
f 26/57/72 38/61/108 39/53/112 25/49/70
f 27/65/74 40/68/117 38/61/107 26/57/71
f 28/56/76 37/62/104 40/54/116 27/51/73
