# Exported from Wings 3D 1.5.4
mtllib Tantares_Antenna_2_1_Side.mtl
o Tantares_Antenna_2_1_Side
#72 vertices, 56 faces
v -1.2500000e-2 0.11250000 -0.71250000
v 3.4694470e-17 0.10000000 -0.71250000
v 1.2500000e-2 0.11250000 -0.71250000
v 3.4694470e-17 0.12500000 -0.71250000
v -1.2500000e-2 3.7500000e-2 -0.53750000
v 6.9388939e-18 2.5000000e-2 -0.53750000
v 1.2500000e-2 3.7500000e-2 -0.53750000
v 6.9388939e-18 5.0000000e-2 -0.53750000
v 1.2500000e-2 3.7500000e-2 -0.18750000
v -2.7755576e-17 5.0000000e-2 -0.18750000
v -1.2500000e-2 3.7500000e-2 -0.18750000
v -2.0816682e-17 2.5000000e-2 -0.18750000
v 1.2500000e-2 0.11250000 -2.5000000e-2
v -6.2450045e-17 0.12500000 -2.5000000e-2
v -1.2500000e-2 0.11250000 -2.5000000e-2
v -5.5511151e-17 1.0000000e-1 -2.5000000e-2
v -1.2500000e-2 0.11250000 -0.36250000
v -1.3877788e-17 0.10000000 -0.36250000
v 1.2500000e-2 0.11250000 -0.36250000
v -1.3877788e-17 0.12500000 -0.36250000
v -1.2500000e-2 3.7500000e-2 -0.18750000
v -3.4694470e-17 2.5000000e-2 -0.18750000
v 1.2500000e-2 3.7500000e-2 -0.18750000
v -3.4694470e-17 5.0000000e-2 -0.18750000
v 1.2500000e-2 3.7500000e-2 -0.53750000
v 1.3877788e-17 5.0000000e-2 -0.53750000
v -1.2500000e-2 3.7500000e-2 -0.53750000
v 2.0816682e-17 2.5000000e-2 -0.53750000
v 1.2500000e-2 0.11250000 -0.36250000
v -2.0816682e-17 0.12500000 -0.36250000
v -1.2500000e-2 0.11250000 -0.36250000
v -1.3877788e-17 0.10000000 -0.36250000
v -1.5625000e-2 0.0000000e+0 -0.37812500
v -1.1048543e-2 -1.1048543e-2 -0.37812500
v 0.0000000e+0 -1.5625000e-2 -0.37812500
v 1.1048543e-2 -1.1048543e-2 -0.37812500
v 1.5625000e-2 0.0000000e+0 -0.37812500
v -1.5625000e-2 0.0000000e+0 -0.34687500
v -1.1048543e-2 -1.1048543e-2 -0.34687500
v -6.9388939e-18 -1.5625000e-2 -0.34687500
v 1.1048543e-2 -1.1048543e-2 -0.34687500
v 1.5625000e-2 0.0000000e+0 -0.34687500
v -1.5625000e-2 3.7500000e-2 -0.37812500
v 1.5625000e-2 3.7500000e-2 -0.37812500
v 1.1048543e-2 4.8548543e-2 -0.37812500
v 0.0000000e+0 5.3125000e-2 -0.37812500
v -1.1048543e-2 4.8548543e-2 -0.37812500
v -1.5625000e-2 3.7500000e-2 -0.34687500
v 1.5625000e-2 3.7500000e-2 -0.34687500
v 1.1048543e-2 4.8548543e-2 -0.34687500
v -6.9388939e-18 5.3125000e-2 -0.34687500
v -1.1048543e-2 4.8548543e-2 -0.34687500
v -1.2500000e-2 0.11250000 -0.71250000
v 2.7755576e-17 0.10000000 -0.71250000
v 1.2500000e-2 0.11250000 -0.71250000
v 3.4694470e-17 0.12500000 -0.71250000
v -1.2500000e-2 0.11250000 -2.5000000e-2
v -6.2450045e-17 1.0000000e-1 -2.5000000e-2
v 1.2500000e-2 0.11250000 -2.5000000e-2
v -5.5511151e-17 0.12500000 -2.5000000e-2
v -1.2500000e-2 3.7500000e-2 -0.74375000
v 2.7755576e-17 2.5000000e-2 -0.74375000
v 1.2500000e-2 3.7500000e-2 -0.74375000
v 3.4694470e-17 5.0000000e-2 -0.74375000
v -1.2500000e-2 3.7500000e-2 -2.5000000e-2
v -6.2450045e-17 2.5000000e-2 -2.5000000e-2
v 1.2500000e-2 3.7500000e-2 -2.5000000e-2
v -5.5511151e-17 5.0000000e-2 -2.5000000e-2
v -6.2450045e-17 0.11250000 -1.8750000e-2
v -6.2450045e-17 3.7500000e-2 -1.8750000e-2
v 2.7755576e-17 0.11250000 -0.71875000
v 2.7755576e-17 3.7500000e-2 -0.75000000
vn 3.3993499e-17 -1.6996749e-17 1.00000000
vn 1.6996749e-17 -2.2095774e-16 1.00000000
vn 2.8894474e-16 -2.3795449e-16 -1.00000000
vn -1.3597400e-16 0.0000000e+0 -1.00000000
vn -1.00000000 -8.2030259e-17 -1.2304539e-16
vn -1.00000000 -8.2030259e-17 -1.2304539e-16
vn 6.0318164e-16 -0.91914503 -0.39391930
vn 6.0318164e-16 -0.91914503 -0.39391930
vn 1.00000000 -1.6406052e-16 1.2304539e-16
vn 1.00000000 -1.6406052e-16 1.2304539e-16
vn 5.2778393e-16 0.91914503 0.39391930
vn 5.2778393e-16 0.91914503 0.39391930
vn -1.00000000 -8.2030259e-17 -1.2304539e-16
vn -1.00000000 -8.2030259e-17 -1.2304539e-16
vn 6.0318164e-16 -0.91914503 -0.39391930
vn 6.0318164e-16 -0.91914503 -0.39391930
vn 1.00000000 -1.6406052e-16 1.2304539e-16
vn 1.00000000 -1.6406052e-16 1.2304539e-16
vn 5.2778393e-16 0.91914503 0.39391930
vn 5.2778393e-16 0.91914503 0.39391930
vn 1.00000000 3.3031833e-16 8.2579583e-17
vn 1.00000000 3.3031833e-16 8.2579583e-17
vn -9.7472579e-16 0.90795938 -0.41905818
vn -9.7472579e-16 0.90795938 -0.41905818
vn -1.00000000 -4.1289791e-16 0.0000000e+0
vn -1.00000000 -4.1289791e-16 0.0000000e+0
vn -3.7489453e-16 -0.90795938 0.41905818
vn -3.7489453e-16 -0.90795938 0.41905818
vn 1.00000000 3.3031833e-16 8.2579583e-17
vn 1.00000000 3.3031833e-16 8.2579583e-17
vn -9.7472579e-16 0.90795938 -0.41905818
vn -9.7472579e-16 0.90795938 -0.41905818
vn -1.00000000 -4.1289791e-16 0.0000000e+0
vn -1.00000000 -4.1289791e-16 0.0000000e+0
vn -3.7489453e-16 -0.90795938 0.41905818
vn -3.7489453e-16 -0.90795938 0.41905818
vn -1.00000000 0.0000000e+0 -1.2304539e-16
vn -1.00000000 0.0000000e+0 -1.2304539e-16
vn 6.0318164e-16 -0.91914503 -0.39391930
vn 6.0318164e-16 -0.91914503 -0.39391930
vn 1.00000000 0.0000000e+0 1.2304539e-16
vn 1.00000000 0.0000000e+0 1.2304539e-16
vn 6.0318164e-16 0.91914503 0.39391930
vn 6.0318164e-16 0.91914503 0.39391930
vn -1.00000000 0.0000000e+0 -1.2304539e-16
vn -1.00000000 0.0000000e+0 -1.2304539e-16
vn 6.0318164e-16 -0.91914503 -0.39391930
vn 6.0318164e-16 -0.91914503 -0.39391930
vn 1.00000000 0.0000000e+0 1.2304539e-16
vn 1.00000000 0.0000000e+0 1.2304539e-16
vn 6.0318164e-16 0.91914503 0.39391930
vn 6.0318164e-16 0.91914503 0.39391930
vn 1.00000000 4.1015130e-16 0.0000000e+0
vn 1.00000000 4.1015130e-16 0.0000000e+0
vn -9.0477246e-16 0.91914503 -0.39391930
vn -9.0477246e-16 0.91914503 -0.39391930
vn -1.00000000 -2.4609078e-16 -8.2030259e-17
vn -1.00000000 -2.4609078e-16 -8.2030259e-17
vn -4.5238623e-16 -0.91914503 0.39391930
vn -4.5238623e-16 -0.91914503 0.39391930
vn 1.00000000 4.1015130e-16 0.0000000e+0
vn 1.00000000 4.1015130e-16 0.0000000e+0
vn -9.0477246e-16 0.91914503 -0.39391930
vn -9.0477246e-16 0.91914503 -0.39391930
vn -1.00000000 -2.4609078e-16 -8.2030259e-17
vn -1.00000000 -2.4609078e-16 -8.2030259e-17
vn -4.5238623e-16 -0.91914503 0.39391930
vn -4.5238623e-16 -0.91914503 0.39391930
vn 0.0000000e+0 0.0000000e+0 -1.00000000
vn -0.98078528 -0.19509032 0.0000000e+0
vn -0.98078528 -0.19509032 0.0000000e+0
vn 0.0000000e+0 0.0000000e+0 -1.00000000
vn 0.0000000e+0 0.0000000e+0 -1.00000000
vn -0.70710678 -0.70710678 -2.4532695e-17
vn -0.70710678 -0.70710678 -2.4532695e-17
vn 0.0000000e+0 0.0000000e+0 -1.00000000
vn 6.0084837e-17 -1.00000000 2.4532695e-17
vn 6.0084837e-17 -1.00000000 2.4532695e-17
vn 0.0000000e+0 0.0000000e+0 -1.00000000
vn 0.70710678 -0.70710678 1.5700925e-16
vn 0.70710678 -0.70710678 1.5700925e-16
vn 0.0000000e+0 0.0000000e+0 -1.00000000
vn 0.98078528 -0.19509032 2.1487825e-16
vn 0.0000000e+0 0.0000000e+0 -1.00000000
vn 0.98078528 -0.19509032 2.1487825e-16
vn 0.0000000e+0 0.0000000e+0 1.00000000
vn -0.98078528 -0.19509032 0.0000000e+0
vn -0.98078528 -0.19509032 0.0000000e+0
vn 0.0000000e+0 0.0000000e+0 1.00000000
vn 0.0000000e+0 0.0000000e+0 1.00000000
vn -0.70710678 -0.70710678 -2.4532695e-17
vn -0.70710678 -0.70710678 -2.4532695e-17
vn 0.0000000e+0 0.0000000e+0 1.00000000
vn 6.0084837e-17 -1.00000000 2.4532695e-17
vn 6.0084837e-17 -1.00000000 2.4532695e-17
vn 0.0000000e+0 0.0000000e+0 1.00000000
vn 0.70710678 -0.70710678 1.5700925e-16
vn 0.70710678 -0.70710678 1.5700925e-16
vn 0.0000000e+0 0.0000000e+0 1.00000000
vn 0.98078528 -0.19509032 2.1487825e-16
vn 0.98078528 -0.19509032 2.1487825e-16
vn 0.0000000e+0 0.0000000e+0 1.00000000
vn 0.0000000e+0 0.0000000e+0 -1.00000000
vn -0.98078528 0.19509032 2.3109293e-17
vn -0.98078528 0.19509032 2.3109293e-17
vn 0.0000000e+0 0.0000000e+0 -1.00000000
vn 0.0000000e+0 0.0000000e+0 -1.00000000
vn 0.98078528 0.19509032 2.4260940e-16
vn 0.0000000e+0 0.0000000e+0 -1.00000000
vn 0.98078528 0.19509032 2.4260940e-16
vn 0.0000000e+0 0.0000000e+0 -1.00000000
vn 0.70710678 0.70710678 2.3551387e-16
vn 0.70710678 0.70710678 2.3551387e-16
vn 0.0000000e+0 0.0000000e+0 -1.00000000
vn 6.0084837e-17 1.00000000 1.3247655e-16
vn 6.0084837e-17 1.00000000 1.3247655e-16
vn 0.0000000e+0 0.0000000e+0 -1.00000000
vn -0.70710678 0.70710678 5.8878467e-17
vn -0.70710678 0.70710678 5.8878467e-17
vn 0.0000000e+0 0.0000000e+0 1.00000000
vn -0.98078528 0.19509032 2.3109293e-17
vn -0.98078528 0.19509032 2.3109293e-17
vn 0.0000000e+0 0.0000000e+0 1.00000000
vn 0.0000000e+0 0.0000000e+0 1.00000000
vn 0.98078528 0.19509032 2.4260940e-16
vn 0.98078528 0.19509032 2.4260940e-16
vn 0.0000000e+0 0.0000000e+0 1.00000000
vn 0.0000000e+0 0.0000000e+0 1.00000000
vn 0.70710678 0.70710678 2.3551387e-16
vn 0.70710678 0.70710678 2.3551387e-16
vn 0.0000000e+0 0.0000000e+0 1.00000000
vn 6.0084837e-17 1.00000000 1.3247655e-16
vn 6.0084837e-17 1.00000000 1.3247655e-16
vn 0.0000000e+0 0.0000000e+0 1.00000000
vn -0.70710678 0.70710678 5.8878467e-17
vn -0.70710678 0.70710678 5.8878467e-17
vn -1.00000000 7.8504623e-17 -1.2221915e-16
vn -1.00000000 7.8504623e-17 -1.2221915e-16
vn -0.44721360 9.1214129e-17 -0.89442719
vn -0.44721360 9.1214129e-17 -0.89442719
vn 0.0000000e+0 -1.00000000 -5.9138300e-17
vn 0.0000000e+0 -1.00000000 -5.9138300e-17
vn 4.2566594e-16 -0.44721360 -0.89442719
vn 4.2566594e-16 -0.44721360 -0.89442719
vn 1.00000000 -1.5700925e-16 1.3562384e-16
vn 1.00000000 -1.5700925e-16 1.3562384e-16
vn 0.44721360 -5.1688007e-16 -0.89442719
vn 0.44721360 -5.1688007e-16 -0.89442719
vn 2.3551387e-16 1.00000000 7.2542982e-17
vn 2.3551387e-16 1.00000000 7.2542982e-17
vn 6.0809419e-17 0.44721360 -0.89442719
vn 6.0809419e-17 0.44721360 -0.89442719
vn -1.00000000 7.8504623e-17 -1.2221915e-16
vn -1.00000000 7.8504623e-17 -1.2221915e-16
vn -0.44721360 1.2161884e-16 0.89442719
vn -0.44721360 1.2161884e-16 0.89442719
vn 0.0000000e+0 -1.00000000 -5.9138300e-17
vn 0.0000000e+0 -1.00000000 -5.9138300e-17
vn 0.0000000e+0 -0.44721360 0.89442719
vn 0.0000000e+0 -0.44721360 0.89442719
vn 1.00000000 -1.5700925e-16 1.3562384e-16
vn 1.00000000 -1.5700925e-16 1.3562384e-16
vn 0.44721360 -1.2161884e-16 0.89442719
vn 0.44721360 -1.2161884e-16 0.89442719
vn 2.3551387e-16 1.00000000 7.2542982e-17
vn 2.3551387e-16 1.00000000 7.2542982e-17
vn 6.0809419e-17 0.44721360 0.89442719
vn 6.0809419e-17 0.44721360 0.89442719
vn -1.00000000 7.8504623e-17 -1.3123560e-16
vn -1.00000000 7.8504623e-17 -1.3123560e-16
vn -0.44721360 1.2161884e-16 -0.89442719
vn -0.44721360 1.2161884e-16 -0.89442719
vn 0.0000000e+0 -1.00000000 -6.7880484e-17
vn 0.0000000e+0 -1.00000000 -6.7880484e-17
vn -1.2161884e-16 -0.44721360 -0.89442719
vn -1.2161884e-16 -0.44721360 -0.89442719
vn 1.00000000 -3.1401849e-16 1.2444755e-16
vn 1.00000000 -3.1401849e-16 1.2444755e-16
vn 0.44721360 -1.2161884e-16 -0.89442719
vn 0.44721360 -1.2161884e-16 -0.89442719
vn 3.1401849e-16 1.00000000 6.1092435e-17
vn 3.1401849e-16 1.00000000 6.1092435e-17
vn -1.2161884e-16 0.44721360 -0.89442719
vn -1.2161884e-16 0.44721360 -0.89442719
vn -1.00000000 7.8504623e-17 -1.3123560e-16
vn -1.00000000 7.8504623e-17 -1.3123560e-16
vn -0.44721360 -6.0809419e-17 0.89442719
vn -0.44721360 -6.0809419e-17 0.89442719
vn 0.0000000e+0 -1.00000000 -6.7880484e-17
vn 0.0000000e+0 -1.00000000 -6.7880484e-17
vn 0.0000000e+0 -0.44721360 0.89442719
vn 0.0000000e+0 -0.44721360 0.89442719
vn 1.00000000 -3.1401849e-16 1.2444755e-16
vn 1.00000000 -3.1401849e-16 1.2444755e-16
vn 0.44721360 -3.3445181e-16 0.89442719
vn 0.44721360 -3.3445181e-16 0.89442719
vn 3.1401849e-16 1.00000000 6.1092435e-17
vn 3.1401849e-16 1.00000000 6.1092435e-17
vn 3.0404710e-17 0.44721360 0.89442719
vn 3.0404710e-17 0.44721360 0.89442719
g Tantares_Antenna_2_1_Side_default
usemtl default
s 1
f 34//75 39//92 38//87 33//70
f 35//78 40//95 39//91 34//74
f 36//81 41//98 40//94 35//77
f 37//83 42//100 41//97 36//80
f 37//85 44//110 49//126 42//101
f 38//88 48//122 43//105 33//71
f 43//104 48//121 52//135 47//118
f 45//113 50//130 49//125 44//108
f 46//116 51//133 50//129 45//112
f 47//119 52//136 51//132 46//115
f 53//137 57//153 60//165 56//149
f 54//142 58//158 57//154 53//138
f 55//146 59//162 58//157 54//141
f 56//150 60//166 59//161 55//145
f 61//171 72//4 62//175
f 62//176 72//4 63//180
f 63//179 72//4 64//184
f 64//183 72//4 61//172
f 65//188 70//2 68//200
f 66//191 70//2 65//187
f 67//195 70//2 66//192
f 68//199 70//2 67//196
s 2
f 1//5 5//13 8//19 4//11
f 2//8 6//16 5//14 1//6
f 3//10 7//18 6//15 2//7
f 4//12 8//20 7//17 3//9
f 9//21 13//29 16//35 12//27
f 10//24 14//32 13//30 9//22
f 11//26 15//34 14//31 10//23
f 12//28 16//36 15//33 11//25
f 17//37 21//45 24//51 20//43
f 18//40 22//48 21//46 17//38
f 19//42 23//50 22//47 18//39
f 20//44 24//52 23//49 19//41
f 25//53 29//61 32//67 28//59
f 26//56 30//64 29//62 25//54
f 27//58 31//66 30//63 26//55
f 28//60 32//68 31//65 27//57
f 33//69 37//82 36//79 35//76 34//73
f 33//72 43//106 44//109 37//84
f 39//90 40//93 41//96 42//99 38//86
f 42//102 49//127 48//123 38//89
f 47//117 46//114 45//111 44//107 43//103
f 48//120 49//124 50//128 51//131 52//134
f 53//139 71//3 54//143
f 54//144 71//3 55//148
f 55//147 71//3 56//152
f 56//151 71//3 53//140
f 57//156 69//1 60//168
f 58//159 69//1 57//155
f 59//163 69//1 58//160
f 60//167 69//1 59//164
f 61//169 65//185 68//197 64//181
f 62//174 66//190 65//186 61//170
f 63//178 67//194 66//189 62//173
f 64//182 68//198 67//193 63//177
