# Exported from Wings 3D 1.5.4
mtllib Tantares_Antenna_2_1_Base.mtl
o Tantares_Antenna_2_1_Base
#14 vertices, 11 faces
v -4.0625000e-2 1.5625000e-2 -6.2500000e-2
v -4.0625000e-2 -1.5625000e-2 -6.2500000e-2
v -4.0625000e-2 -1.1048543e-2 -7.3548543e-2
v -4.0625000e-2 -1.3877788e-17 -7.8125000e-2
v -4.0625000e-2 1.1048543e-2 -7.3548543e-2
v -4.0625000e-2 -1.5625000e-2 2.2500000e-2
v -4.0625000e-2 1.5625000e-2 2.2500000e-2
v 4.0625000e-2 -1.5625000e-2 -6.2500000e-2
v 4.0625000e-2 -1.1048543e-2 -7.3548543e-2
v 4.0625000e-2 -1.3877788e-17 -7.8125000e-2
v 4.0625000e-2 1.1048543e-2 -7.3548543e-2
v 4.0625000e-2 1.5625000e-2 -6.2500000e-2
v 4.0625000e-2 1.5625000e-2 2.2500000e-2
v 4.0625000e-2 -1.5625000e-2 2.2500000e-2
vt 0.89393937 0.88608393
vt 0.89393937 0.89966527
vt 0.89398812 0.93700134
vt 0.89398812 0.97350511
vt 0.89398812 0.97855516
vt 0.89398812 0.98125733
vt 0.89398812 0.93700134
vt 0.89398812 0.97350511
vt 0.89398812 0.97855516
vt 0.89398812 0.98125733
vt 0.92925084 0.88608393
vt 0.92925084 0.89966527
vt 0.92929959 0.93700134
vt 0.92929959 0.97350511
vt 0.92929959 0.97855516
vt 0.92929959 0.98125733
vt 0.92929959 0.93700134
vt 0.92929959 0.97350511
vt 0.92929959 0.97855516
vt 0.92929959 0.98125733
vt 0.96677682 0.93726338
vt 0.96677682 0.97420462
vt 0.96876576 0.97900635
vt 0.97356749 0.98099529
vt 0.97836922 0.97900635
vt 0.98035816 0.93726338
vt 0.98035816 0.97420462
vn -3.3775121e-17 0.98078528 -0.19509032
vn -3.3775121e-17 0.98078528 -0.19509032
vn -1.00000000 7.8504623e-17 0.0000000e+0
vn -1.00000000 7.8504623e-17 0.0000000e+0
vn -3.3775121e-17 -0.98078528 -0.19509032
vn -3.3775121e-17 -0.98078528 -0.19509032
vn -1.00000000 7.8504623e-17 0.0000000e+0
vn -1.00000000 7.8504623e-17 0.0000000e+0
vn -1.2077634e-16 -0.70710678 -0.70710678
vn -1.2077634e-16 -0.70710678 -0.70710678
vn -1.00000000 1.5700925e-16 0.0000000e+0
vn -1.6984173e-16 -2.4033935e-16 -1.00000000
vn -1.6984173e-16 -2.4033935e-16 -1.00000000
vn -1.00000000 1.5700925e-16 0.0000000e+0
vn -1.2077634e-16 0.70710678 -0.70710678
vn -1.2077634e-16 0.70710678 -0.70710678
vn -1.00000000 1.5700925e-16 0.0000000e+0
vn 0.0000000e+0 -1.00000000 0.0000000e+0
vn -4.2700886e-17 0.0000000e+0 1.00000000
vn -1.00000000 0.0000000e+0 0.0000000e+0
vn 0.0000000e+0 1.00000000 0.0000000e+0
vn -4.2700886e-17 0.0000000e+0 1.00000000
vn -1.00000000 0.0000000e+0 0.0000000e+0
vn 1.00000000 0.0000000e+0 0.0000000e+0
vn -3.3775121e-17 -0.98078528 -0.19509032
vn -3.3775121e-17 -0.98078528 -0.19509032
vn 1.00000000 0.0000000e+0 0.0000000e+0
vn -1.2077634e-16 -0.70710678 -0.70710678
vn -1.2077634e-16 -0.70710678 -0.70710678
vn 1.00000000 0.0000000e+0 0.0000000e+0
vn -1.6984173e-16 -2.4033935e-16 -1.00000000
vn -1.6984173e-16 -2.4033935e-16 -1.00000000
vn 1.00000000 0.0000000e+0 0.0000000e+0
vn -1.2077634e-16 0.70710678 -0.70710678
vn -1.2077634e-16 0.70710678 -0.70710678
vn 1.00000000 0.0000000e+0 0.0000000e+0
vn 1.00000000 0.0000000e+0 0.0000000e+0
vn -3.3775121e-17 0.98078528 -0.19509032
vn -3.3775121e-17 0.98078528 -0.19509032
vn 1.00000000 0.0000000e+0 0.0000000e+0
vn 1.00000000 0.0000000e+0 0.0000000e+0
vn 0.0000000e+0 1.00000000 0.0000000e+0
vn -4.2700886e-17 0.0000000e+0 1.00000000
vn 1.00000000 0.0000000e+0 0.0000000e+0
vn 0.0000000e+0 -1.00000000 0.0000000e+0
vn -4.2700886e-17 0.0000000e+0 1.00000000
g Tantares_Antenna_2_1_Base_Tantares_Antenna_2_1_Base_auv
usemtl Tantares_Antenna_2_1_Base_auv
s 1
f 1/27/3 2/22/7 6/21/20 7/26/23
f 2/22/8 1/27/4 5/25/17 4/24/14 3/23/11
f 8/27/24 12/22/37 13/21/41 14/26/44
f 9/25/30 10/24/33 11/23/36 12/22/40 8/27/27
s 2
f 6/1/19 14/11/46 13/12/43 7/2/22
s 3
f 1/8/1 12/14/38 11/15/35 5/9/16
f 2/18/5 8/4/25 14/3/45 6/17/18
f 3/19/9 9/5/28 8/4/26 2/18/6
f 4/20/12 10/6/31 9/5/29 3/19/10
f 5/9/15 11/15/34 10/16/32 4/10/13
f 7/7/21 13/13/42 12/14/39 1/8/2
