# Exported from Wings 3D 1.5.4
mtllib ./short lab interior windows.mtl
o iw1
#48 vertices, 3 faces
v 0.46250000 0.10393645 -0.70596449
v 0.46250000 0.11250000 -0.66291261
v 0.46250000 0.10393645 -0.61986072
v 0.46250000 7.9549513e-2 -0.58336309
v 0.46250000 4.3051886e-2 -0.55897616
v 0.46250000 0.0000000e+0 -0.55041261
v 0.46250000 -4.3051886e-2 -0.55897616
v 0.46250000 -7.9549513e-2 -0.58336309
v 0.46250000 -0.10393645 -0.61986072
v 0.46250000 -0.11250000 -0.66291261
v 0.46250000 -0.10393645 -0.70596449
v 0.46250000 -7.9549513e-2 -0.74246212
v 0.46250000 -4.3051886e-2 -0.76684905
v 0.46250000 0.0000000e+0 -0.77541261
v 0.46250000 4.3051886e-2 -0.76684905
v 0.46250000 7.9549513e-2 -0.74246212
v 0.10393645 -0.33194811 -0.90000000
v 0.11250000 -0.37500000 -0.90000000
v 0.10393645 -0.41805189 -0.90000000
v 7.9549513e-2 -0.45454951 -0.90000000
v 4.3051886e-2 -0.47893645 -0.90000000
v 0.0000000e+0 -0.48750000 -0.90000000
v -4.3051886e-2 -0.47893645 -0.90000000
v -7.9549513e-2 -0.45454951 -0.90000000
v -0.10393645 -0.41805189 -0.90000000
v -0.11250000 -0.37500000 -0.90000000
v -0.10393645 -0.33194811 -0.90000000
v -7.9549513e-2 -0.29545049 -0.90000000
v -4.3051886e-2 -0.27106355 -0.90000000
v 0.0000000e+0 -0.26250000 -0.90000000
v 4.3051886e-2 -0.27106355 -0.90000000
v 7.9549513e-2 -0.29545049 -0.90000000
v 5.0000000e-2 0.37500000 -0.90000000
v 4.6193977e-2 0.35586583 -0.90000000
v 3.5355339e-2 0.33964466 -0.90000000
v 1.9134172e-2 0.32880602 -0.90000000
v 0.0000000e+0 0.32500000 -0.90000000
v -1.9134172e-2 0.32880602 -0.90000000
v -3.5355339e-2 0.33964466 -0.90000000
v -4.6193977e-2 0.35586583 -0.90000000
v -5.0000000e-2 0.37500000 -0.90000000
v -4.6193977e-2 0.39413417 -0.90000000
v -3.5355339e-2 0.41035534 -0.90000000
v -1.9134172e-2 0.42119398 -0.90000000
v 0.0000000e+0 0.42500000 -0.90000000
v 1.9134172e-2 0.42119398 -0.90000000
v 3.5355339e-2 0.41035534 -0.90000000
v 4.6193977e-2 0.39413417 -0.90000000
vt 0.0000000e+0 0.50000000
vt 0.0000000e+0 0.50000000
vt 1.1102230e-16 0.50000000
vt 3.8060234e-2 0.30865828
vt 3.8060234e-2 0.69134172
vt 3.8060234e-2 0.30865828
vt 3.8060234e-2 0.69134172
vt 3.8060234e-2 0.69134172
vt 3.8060234e-2 0.30865828
vt 0.14644661 0.14644661
vt 0.14644661 0.85355339
vt 0.14644661 0.85355339
vt 0.14644661 0.14644661
vt 0.14644661 0.14644661
vt 0.14644661 0.85355339
vt 0.30865828 3.8060234e-2
vt 0.30865828 0.96193977
vt 0.30865828 0.96193977
vt 0.30865828 3.8060234e-2
vt 0.30865828 0.96193977
vt 0.30865828 3.8060234e-2
vt 0.50000000 1.00000000
vt 0.50000000 0.0000000e+0
vt 0.50000000 0.0000000e+0
vt 0.50000000 0.0000000e+0
vt 0.50000000 1.00000000
vt 0.69134172 3.8060234e-2
vt 0.69134172 0.96193977
vt 0.69134172 3.8060234e-2
vt 0.69134172 3.8060234e-2
vt 0.69134172 0.96193977
vt 0.69134172 0.96193977
vt 0.85355339 0.14644661
vt 0.85355339 0.14644661
vt 0.85355339 0.85355339
vt 0.85355339 0.85355339
vt 0.85355339 0.85355339
vt 0.85355339 0.14644661
vt 0.96193977 0.30865828
vt 0.96193977 0.69134172
vt 0.96193977 0.30865828
vt 0.96193977 0.69134172
vt 0.96193977 0.30865828
vt 0.96193977 0.69134172
vt 1.00000000 0.50000000
vt 1.00000000 0.50000000
vt 1.00000000 0.50000000
vn -1.00000000 8.9541746e-17 0.0000000e+0
vn -1.00000000 8.9541746e-17 0.0000000e+0
vn -1.00000000 8.9541746e-17 0.0000000e+0
vn -1.00000000 8.9541746e-17 0.0000000e+0
vn -1.00000000 8.9541746e-17 0.0000000e+0
vn -1.00000000 8.9541746e-17 0.0000000e+0
vn -1.00000000 8.9541746e-17 0.0000000e+0
vn -1.00000000 8.9541746e-17 0.0000000e+0
vn -1.00000000 8.9541746e-17 0.0000000e+0
vn -1.00000000 8.9541746e-17 0.0000000e+0
vn -1.00000000 8.9541746e-17 0.0000000e+0
vn -1.00000000 8.9541746e-17 0.0000000e+0
vn -1.00000000 8.9541746e-17 0.0000000e+0
vn -1.00000000 8.9541746e-17 0.0000000e+0
vn -1.00000000 8.9541746e-17 0.0000000e+0
vn -1.00000000 8.9541746e-17 0.0000000e+0
vn 1.0745010e-15 0.0000000e+0 1.00000000
vn 1.0745010e-15 0.0000000e+0 1.00000000
vn 1.0745010e-15 0.0000000e+0 1.00000000
vn 1.0745010e-15 0.0000000e+0 1.00000000
vn 1.0745010e-15 0.0000000e+0 1.00000000
vn 1.0745010e-15 0.0000000e+0 1.00000000
vn 1.0745010e-15 0.0000000e+0 1.00000000
vn 1.0745010e-15 0.0000000e+0 1.00000000
vn 1.0745010e-15 0.0000000e+0 1.00000000
vn 1.0745010e-15 0.0000000e+0 1.00000000
vn 1.0745010e-15 0.0000000e+0 1.00000000
vn 1.0745010e-15 0.0000000e+0 1.00000000
vn 1.0745010e-15 0.0000000e+0 1.00000000
vn 1.0745010e-15 0.0000000e+0 1.00000000
vn 1.0745010e-15 0.0000000e+0 1.00000000
vn 1.0745010e-15 0.0000000e+0 1.00000000
vn 1.3599153e-15 0.0000000e+0 1.00000000
vn 1.3599153e-15 0.0000000e+0 1.00000000
vn 1.3599153e-15 0.0000000e+0 1.00000000
vn 1.3599153e-15 0.0000000e+0 1.00000000
vn 1.3599153e-15 0.0000000e+0 1.00000000
vn 1.3599153e-15 0.0000000e+0 1.00000000
vn 1.3599153e-15 0.0000000e+0 1.00000000
vn 1.3599153e-15 0.0000000e+0 1.00000000
vn 1.3599153e-15 0.0000000e+0 1.00000000
vn 1.3599153e-15 0.0000000e+0 1.00000000
vn 1.3599153e-15 0.0000000e+0 1.00000000
vn 1.3599153e-15 0.0000000e+0 1.00000000
vn 1.3599153e-15 0.0000000e+0 1.00000000
vn 1.3599153e-15 0.0000000e+0 1.00000000
vn 1.3599153e-15 0.0000000e+0 1.00000000
vn 1.3599153e-15 0.0000000e+0 1.00000000
g iw1_iw1_auv
usemtl iw1_auv
s 1
f 17/44/17 32/36/32 31/32/31 30/26/30 29/17/29 28/11/28 27/5/27 26/1/26 25/4/25 24/10/24 23/16/23 22/23/22 21/30/21 20/33/20 19/43/19 18/45/18
f 33/46/33 48/40/48 47/37/47 46/31/46 45/26/45 44/20/44 43/12/43 42/8/42 41/2/41 40/9/40 39/13/39 38/19/38 37/25/37 36/29/36 35/38/35 34/39/34
s 2
f 1/18/1 16/15/16 15/7/15 14/3/14 13/6/13 12/14/12 11/21/11 10/24/10 9/27/9 8/34/8 7/41/7 6/47/6 5/42/5 4/35/4 3/28/3 2/22/2
