# Exported from Wings 3D 1.5.4
mtllib Hamal_Control_1_Collider.mtl
o Hamal_Control_1_Collider
#48 vertices, 34 faces
v 0.46875000 0.53750000 -9.3240172e-2
v 0.46875000 0.53750000 9.3240172e-2
v 0.39738706 0.53750000 0.26552555
v 0.26552555 0.53750000 0.39738706
v 9.3240172e-2 0.53750000 0.46875000
v -9.3240172e-2 0.53750000 0.46875000
v -0.26552555 0.53750000 0.39738706
v -0.39738706 0.53750000 0.26552555
v -0.46875000 0.53750000 9.3240172e-2
v -0.46875000 0.53750000 -9.3240172e-2
v -0.39738706 0.53750000 -0.26552555
v -0.26552555 0.53750000 -0.39738706
v -9.3240172e-2 0.53750000 -0.46875000
v 9.3240172e-2 0.53750000 -0.46875000
v 0.26552555 0.53750000 -0.39738706
v 0.39738706 0.53750000 -0.26552555
v 0.62500000 -0.53750000 -0.12432023
v 0.62500000 -0.53750000 0.12432023
v 0.52984942 -0.53750000 0.35403406
v 0.35403406 -0.53750000 0.52984942
v 0.12432023 -0.53750000 0.62500000
v -0.12432023 -0.53750000 0.62500000
v -0.35403406 -0.53750000 0.52984942
v -0.52984942 -0.53750000 0.35403406
v -0.62500000 -0.53750000 0.12432023
v -0.62500000 -0.53750000 -0.12432023
v -0.52984942 -0.53750000 -0.35403406
v -0.35403406 -0.53750000 -0.52984942
v -0.12432023 -0.53750000 -0.62500000
v 0.12432023 -0.53750000 -0.62500000
v 0.35403406 -0.53750000 -0.52984942
v 0.52984942 -0.53750000 -0.35403406
v 0.56587918 -0.14000000 -0.37810838
v 0.37810838 -0.14000000 -0.56587918
v 0.13277401 -0.14000000 -0.66750000
v -0.13277401 -0.14000000 -0.66750000
v -0.37810838 -0.14000000 -0.56587918
v -0.56587918 -0.14000000 -0.37810838
v -0.66750000 -0.14000000 -0.13277401
v -0.66750000 -0.14000000 0.13277401
v -0.56587918 -0.14000000 0.37810838
v -0.37810838 -0.14000000 0.56587918
v -0.13277401 -0.14000000 0.66750000
v 0.13277401 -0.14000000 0.66750000
v 0.37810838 -0.14000000 0.56587918
v 0.56587918 -0.14000000 0.37810838
v 0.66750000 -0.14000000 0.13277401
v 0.66750000 -0.14000000 -0.13277401
vn 0.0000000e+0 1.00000000 0.0000000e+0
vn 0.88652025 0.28149530 -0.36720871
vn 0.95956261 0.28149530 -2.6089745e-16
vn 0.0000000e+0 1.00000000 0.0000000e+0
vn 0.88652025 0.28149530 0.36720871
vn 0.95956261 0.28149530 -2.6089745e-16
vn 0.0000000e+0 1.00000000 0.0000000e+0
vn 0.67851323 0.28149530 0.67851323
vn 0.88652025 0.28149530 0.36720871
vn 0.0000000e+0 1.00000000 0.0000000e+0
vn 0.36720871 0.28149530 0.88652025
vn 0.67851323 0.28149530 0.67851323
vn 0.0000000e+0 1.00000000 0.0000000e+0
vn 2.6089745e-16 0.28149530 0.95956261
vn 0.36720871 0.28149530 0.88652025
vn 0.0000000e+0 1.00000000 0.0000000e+0
vn -0.36720871 0.28149530 0.88652025
vn 2.6089745e-16 0.28149530 0.95956261
vn 0.0000000e+0 1.00000000 0.0000000e+0
vn -0.67851323 0.28149530 0.67851323
vn -0.36720871 0.28149530 0.88652025
vn 0.0000000e+0 1.00000000 0.0000000e+0
vn -0.88652025 0.28149530 0.36720871
vn -0.67851323 0.28149530 0.67851323
vn 0.0000000e+0 1.00000000 0.0000000e+0
vn -0.95956261 0.28149530 2.6089745e-16
vn -0.88652025 0.28149530 0.36720871
vn 0.0000000e+0 1.00000000 0.0000000e+0
vn -0.88652025 0.28149530 -0.36720871
vn -0.95956261 0.28149530 2.6089745e-16
vn 0.0000000e+0 1.00000000 0.0000000e+0
vn -0.67851323 0.28149530 -0.67851323
vn -0.88652025 0.28149530 -0.36720871
vn 0.0000000e+0 1.00000000 0.0000000e+0
vn -0.36720871 0.28149530 -0.88652025
vn -0.67851323 0.28149530 -0.67851323
vn 0.0000000e+0 1.00000000 0.0000000e+0
vn 4.3482908e-16 0.28149530 -0.95956261
vn -0.36720871 0.28149530 -0.88652025
vn 0.0000000e+0 1.00000000 0.0000000e+0
vn 0.36720871 0.28149530 -0.88652025
vn 4.3482908e-16 0.28149530 -0.95956261
vn 0.0000000e+0 1.00000000 0.0000000e+0
vn 0.67851323 0.28149530 -0.67851323
vn 0.36720871 0.28149530 -0.88652025
vn 0.0000000e+0 1.00000000 0.0000000e+0
vn 0.88652025 0.28149530 -0.36720871
vn 0.67851323 0.28149530 -0.67851323
vn 0.0000000e+0 -1.00000000 -2.7907340e-17
vn 0.91864371 -0.10631231 -0.38051468
vn 0.99433279 -0.10631231 -2.1941984e-16
vn 0.0000000e+0 -1.00000000 -2.7907340e-17
vn 0.91864371 -0.10631231 0.38051468
vn 0.99433279 -0.10631231 -2.1941984e-16
vn 0.0000000e+0 -1.00000000 -2.7907340e-17
vn 0.70309946 -0.10631231 0.70309946
vn 0.91864371 -0.10631231 0.38051468
vn 0.0000000e+0 -1.00000000 -2.7907340e-17
vn 0.38051468 -0.10631231 0.91864371
vn 0.70309946 -0.10631231 0.70309946
vn 0.0000000e+0 -1.00000000 -2.7907340e-17
vn 2.1941984e-16 -0.10631231 0.99433279
vn 0.38051468 -0.10631231 0.91864371
vn 0.0000000e+0 -1.00000000 -2.7907340e-17
vn -0.38051468 -0.10631231 0.91864371
vn 2.1941984e-16 -0.10631231 0.99433279
vn 0.0000000e+0 -1.00000000 -2.7907340e-17
vn -0.70309946 -0.10631231 0.70309946
vn -0.38051468 -0.10631231 0.91864371
vn 0.0000000e+0 -1.00000000 -2.7907340e-17
vn -0.91864371 -0.10631231 0.38051468
vn -0.70309946 -0.10631231 0.70309946
vn 0.0000000e+0 -1.00000000 -2.7907340e-17
vn -0.99433279 -0.10631231 2.1941984e-16
vn -0.91864371 -0.10631231 0.38051468
vn 0.0000000e+0 -1.00000000 -2.7907340e-17
vn -0.91864371 -0.10631231 -0.38051468
vn -0.99433279 -0.10631231 2.1941984e-16
vn 0.0000000e+0 -1.00000000 -2.7907340e-17
vn -0.70309946 -0.10631231 -0.70309946
vn -0.91864371 -0.10631231 -0.38051468
vn 0.0000000e+0 -1.00000000 -2.7907340e-17
vn -0.38051468 -0.10631231 -0.91864371
vn -0.70309946 -0.10631231 -0.70309946
vn 0.0000000e+0 -1.00000000 -2.7907340e-17
vn 4.3883968e-16 -0.10631231 -0.99433279
vn -0.38051468 -0.10631231 -0.91864371
vn 0.0000000e+0 -1.00000000 -2.7907340e-17
vn 0.38051468 -0.10631231 -0.91864371
vn 4.3883968e-16 -0.10631231 -0.99433279
vn 0.0000000e+0 -1.00000000 -2.7907340e-17
vn 0.70309946 -0.10631231 -0.70309946
vn 0.38051468 -0.10631231 -0.91864371
vn 0.0000000e+0 -1.00000000 -2.7907340e-17
vn 0.91864371 -0.10631231 -0.38051468
vn 0.70309946 -0.10631231 -0.70309946
vn 0.88652025 0.28149530 -0.36720871
vn 0.67851323 0.28149530 -0.67851323
vn 0.91864371 -0.10631231 -0.38051468
vn 0.70309946 -0.10631231 -0.70309946
vn 0.67851323 0.28149530 -0.67851323
vn 0.36720871 0.28149530 -0.88652025
vn 0.70309946 -0.10631231 -0.70309946
vn 0.38051468 -0.10631231 -0.91864371
vn 0.36720871 0.28149530 -0.88652025
vn 4.3482908e-16 0.28149530 -0.95956261
vn 0.38051468 -0.10631231 -0.91864371
vn 4.3883968e-16 -0.10631231 -0.99433279
vn 4.3482908e-16 0.28149530 -0.95956261
vn -0.36720871 0.28149530 -0.88652025
vn 4.3883968e-16 -0.10631231 -0.99433279
vn -0.38051468 -0.10631231 -0.91864371
vn -0.36720871 0.28149530 -0.88652025
vn -0.67851323 0.28149530 -0.67851323
vn -0.38051468 -0.10631231 -0.91864371
vn -0.70309946 -0.10631231 -0.70309946
vn -0.67851323 0.28149530 -0.67851323
vn -0.88652025 0.28149530 -0.36720871
vn -0.70309946 -0.10631231 -0.70309946
vn -0.91864371 -0.10631231 -0.38051468
vn -0.88652025 0.28149530 -0.36720871
vn -0.95956261 0.28149530 2.6089745e-16
vn -0.91864371 -0.10631231 -0.38051468
vn -0.99433279 -0.10631231 2.1941984e-16
vn -0.95956261 0.28149530 2.6089745e-16
vn -0.88652025 0.28149530 0.36720871
vn -0.99433279 -0.10631231 2.1941984e-16
vn -0.91864371 -0.10631231 0.38051468
vn -0.88652025 0.28149530 0.36720871
vn -0.67851323 0.28149530 0.67851323
vn -0.91864371 -0.10631231 0.38051468
vn -0.70309946 -0.10631231 0.70309946
vn -0.67851323 0.28149530 0.67851323
vn -0.36720871 0.28149530 0.88652025
vn -0.70309946 -0.10631231 0.70309946
vn -0.38051468 -0.10631231 0.91864371
vn -0.36720871 0.28149530 0.88652025
vn 2.6089745e-16 0.28149530 0.95956261
vn -0.38051468 -0.10631231 0.91864371
vn 2.1941984e-16 -0.10631231 0.99433279
vn 2.6089745e-16 0.28149530 0.95956261
vn 0.36720871 0.28149530 0.88652025
vn 2.1941984e-16 -0.10631231 0.99433279
vn 0.38051468 -0.10631231 0.91864371
vn 0.36720871 0.28149530 0.88652025
vn 0.67851323 0.28149530 0.67851323
vn 0.38051468 -0.10631231 0.91864371
vn 0.70309946 -0.10631231 0.70309946
vn 0.67851323 0.28149530 0.67851323
vn 0.88652025 0.28149530 0.36720871
vn 0.70309946 -0.10631231 0.70309946
vn 0.91864371 -0.10631231 0.38051468
vn 0.88652025 0.28149530 0.36720871
vn 0.95956261 0.28149530 -2.6089745e-16
vn 0.91864371 -0.10631231 0.38051468
vn 0.99433279 -0.10631231 -2.1941984e-16
vn 0.88652025 0.28149530 -0.36720871
vn 0.95956261 0.28149530 -2.6089745e-16
vn 0.91864371 -0.10631231 -0.38051468
vn 0.99433279 -0.10631231 -2.1941984e-16
g Hamal_Control_1_Collider_default
usemtl default
s 1
f 1//2 48//157 33//97 16//47
f 3//9 46//150 47//153 2//5
f 7//21 42//134 43//137 6//17
f 9//27 40//126 41//129 8//23
f 12//36 37//114 38//117 11//32
f 14//42 35//106 36//109 13//38
f 17//51 48//160 47//156 18//54
f 20//59 45//147 44//144 21//63
f 23//68 42//135 41//132 24//72
f 26//77 39//123 38//120 27//81
f 28//83 37//115 36//112 29//87
f 31//92 34//103 33//100 32//96
s 2
f 2//6 47//154 48//158 1//3
f 5//15 44//142 45//145 4//11
f 8//24 41//130 42//133 7//20
f 10//30 39//122 40//125 9//26
f 13//39 36//110 37//113 12//35
f 15//45 34//102 35//105 14//41
f 19//56 46//151 45//148 20//60
f 21//62 44//143 43//140 22//66
f 24//71 41//131 40//128 25//75
f 27//80 38//119 37//116 28//84
f 29//86 36//111 35//108 30//90
f 32//95 33//99 48//159 17//50
s 3
f 1//1 16//46 15//43 14//40 13//37 12//34 11//31 10//28 9//25 8//22 7//19 6//16 5//13 4//10 3//7 2//4
f 18//53 47//155 46//152 19//57
f 22//65 43//139 42//136 23//69
f 25//74 40//127 39//124 26//78
f 30//89 35//107 34//104 31//93
s 4
f 4//12 45//146 46//149 3//8
f 6//18 43//138 44//141 5//14
f 11//33 38//118 39//121 10//29
f 16//48 33//98 34//101 15//44
f 18//52 19//55 20//58 21//61 22//64 23//67 24//70 25//73 26//76 27//79 28//82 29//85 30//88 31//91 32//94 17//49
