# Blender v2.92.0 OBJ File: 'monitor1.blend'
# www.blender.org
mtllib monitor1.mtl
v -0.063911 -0.168305 -0.058779
v -0.053911 -0.168305 -0.068779
v -0.053911 -0.168305 0.059043
v -0.063911 -0.168305 0.049043
v -0.053911 -0.150000 -0.068779
v -0.063911 -0.150000 -0.058779
v -0.063911 -0.150000 0.049043
v -0.053911 -0.150000 0.059043
v 0.053911 -0.168305 -0.068779
v 0.063911 -0.168305 -0.058779
v 0.063911 -0.168305 0.049043
v 0.053911 -0.168305 0.059043
v 0.063911 -0.150000 -0.058779
v 0.053911 -0.150000 -0.068779
v 0.053911 -0.150000 0.059043
v 0.063911 -0.150000 0.049043
v -0.129168 -0.120557 -0.150000
v -0.120557 -0.129168 -0.150000
v -0.120557 0.129168 -0.150000
v -0.129168 0.120557 -0.150000
v 0.129168 0.120557 -0.150000
v 0.120557 0.129168 -0.150000
v 0.120557 -0.129168 -0.150000
v 0.129168 -0.120557 -0.150000
v -0.116202 -0.108455 -0.176426
v -0.108455 -0.116202 -0.176426
v -0.108455 0.116202 -0.176426
v -0.116202 0.108455 -0.176426
v 0.116202 0.108455 -0.176426
v 0.108455 0.116202 -0.176426
v 0.108455 -0.116202 -0.176426
v 0.116202 -0.108455 -0.176426
v -0.137000 -0.150000 -0.150000
v -0.142121 -0.147879 -0.150000
v -0.147879 -0.142121 -0.150000
v -0.150000 -0.137000 -0.150000
v -0.150000 0.137000 -0.150000
v -0.147879 0.142121 -0.150000
v -0.142121 0.147879 -0.150000
v -0.137000 0.150000 -0.150000
v 0.150000 -0.137000 -0.150000
v 0.147879 -0.142121 -0.150000
v 0.142121 -0.147879 -0.150000
v 0.137000 -0.150000 -0.150000
v 0.137000 0.150000 -0.150000
v 0.142121 0.147879 -0.150000
v 0.147879 0.142121 -0.150000
v 0.150000 0.137000 -0.150000
v -0.142284 -0.126531 0.150000
v -0.140677 -0.130410 0.150000
v 0.132437 -0.136378 0.150000
v 0.136317 -0.134771 0.150000
v 0.140677 -0.130410 0.150000
v 0.142284 -0.126531 0.150000
v -0.090423 -0.093840 0.150000
v -0.103385 -0.088472 0.150000
v -0.112821 -0.079035 0.150000
v -0.118190 -0.066074 0.150000
v -0.118190 0.089495 0.150000
v -0.112821 0.102456 0.150000
v -0.103385 0.111893 0.150000
v -0.090423 0.117262 0.150000
v 0.090423 0.117262 0.150000
v 0.103384 0.111893 0.150000
v 0.112821 0.102456 0.150000
v 0.118190 0.089495 0.150000
v 0.118190 -0.066074 0.150000
v 0.112821 -0.079035 0.150000
v 0.103384 -0.088472 0.150000
v 0.090423 -0.093840 0.150000
v -0.118190 -0.066074 0.133109
v -0.112821 -0.079035 0.133109
v -0.103385 -0.088472 0.133109
v -0.090423 -0.093840 0.133109
v -0.090423 0.117262 0.133109
v -0.103385 0.111893 0.133109
v -0.112821 0.102456 0.133109
v -0.118190 0.089495 0.133109
v 0.118190 0.089495 0.133109
v 0.112821 0.102456 0.133109
v 0.103384 0.111893 0.133109
v 0.090423 0.117262 0.133109
v 0.090423 -0.093840 0.133109
v 0.103384 -0.088472 0.133109
v 0.112821 -0.079035 0.133109
v 0.118190 -0.066074 0.133109
v -0.150000 -0.137000 0.140265
v -0.147879 -0.142121 0.140265
v -0.142121 -0.147879 0.140265
v -0.137000 -0.150000 0.140265
v -0.137000 0.150000 0.140265
v -0.142121 0.147879 0.140265
v -0.147879 0.142121 0.140265
v -0.150000 0.137000 0.140265
v 0.137000 -0.150000 0.140265
v 0.142121 -0.147879 0.140265
v 0.147879 -0.142121 0.140265
v 0.150000 -0.137000 0.140265
v 0.150000 0.137000 0.140265
v 0.147879 0.142121 0.140265
v 0.142121 0.147879 0.140265
v 0.137000 0.150000 0.140265
v -0.136317 -0.134771 0.150000
v -0.132437 -0.136378 0.150000
v -0.132437 0.142059 0.150000
v -0.136317 0.140452 0.150000
v -0.140677 0.136091 0.150000
v -0.142284 0.132212 0.150000
v 0.142284 0.132212 0.150000
v 0.140677 0.136091 0.150000
v 0.136317 0.140452 0.150000
v 0.132437 0.142059 0.150000
v -0.126217 -0.129872 0.149034
v -0.128134 -0.127955 0.149034
v -0.128134 -0.127955 0.161312
v -0.126217 -0.129872 0.161312
v -0.126217 -0.104872 0.161312
v -0.128134 -0.106789 0.161312
v -0.128134 -0.106789 0.149034
v -0.126217 -0.104872 0.149034
v -0.105051 -0.104872 0.149034
v -0.103134 -0.106789 0.149034
v -0.103134 -0.106789 0.161312
v -0.105051 -0.104872 0.161312
v -0.105051 -0.129872 0.161312
v -0.103134 -0.127955 0.161312
v -0.103134 -0.127955 0.149034
v -0.105051 -0.129872 0.149034
v -0.150000 -0.137000 -0.004868
v -0.147879 -0.142121 -0.004868
v -0.150000 0.137000 -0.004868
v -0.142121 -0.147879 -0.004868
v -0.137000 -0.150000 -0.004868
v 0.137000 -0.150000 -0.004868
v -0.137000 0.150000 -0.004868
v -0.142121 0.147879 -0.004868
v 0.137000 0.150000 -0.004868
v -0.147879 0.142121 -0.004868
v 0.142121 -0.147879 -0.004868
v 0.147879 -0.142121 -0.004868
v 0.150000 -0.137000 -0.004868
v 0.150000 0.137000 -0.004868
v 0.147879 0.142121 -0.004868
v 0.142121 0.147879 -0.004868
v -0.142284 -0.126531 0.150000
v -0.140677 -0.130410 0.150000
v 0.132437 -0.136378 0.150000
v 0.136317 -0.134771 0.150000
v 0.140677 -0.130410 0.150000
v 0.142284 -0.126531 0.150000
v -0.150000 -0.137000 0.140265
v -0.147879 -0.142121 0.140265
v -0.136317 -0.134771 0.150000
v -0.142121 -0.147879 0.140265
v -0.137000 -0.150000 0.140265
v -0.132437 -0.136378 0.150000
v -0.132437 0.142059 0.150000
v -0.137000 0.150000 0.140265
v -0.142121 0.147879 0.140265
v -0.136317 0.140452 0.150000
v -0.140677 0.136091 0.150000
v -0.147879 0.142121 0.140265
v -0.150000 0.137000 0.140265
v -0.142284 0.132212 0.150000
v 0.137000 -0.150000 0.140265
v 0.142121 -0.147879 0.140265
v 0.147879 -0.142121 0.140265
v 0.150000 -0.137000 0.140265
v 0.142284 0.132212 0.150000
v 0.150000 0.137000 0.140265
v 0.147879 0.142121 0.140265
v 0.140677 0.136091 0.150000
v 0.136317 0.140452 0.150000
v 0.142121 0.147879 0.140265
v 0.137000 0.150000 0.140265
v 0.132437 0.142059 0.150000
vt 0.050108 0.436338
vt 0.017559 0.462031
vt 0.017559 0.033906
vt 0.050109 0.059598
vt 0.440304 0.449794
vt 0.465996 0.482343
vt 0.037871 0.482343
vt 0.063564 0.449794
vt 0.029869 0.479029
vt 0.020873 0.470033
vt 0.063564 0.046143
vt 0.037872 0.013593
vt 0.465996 0.013594
vt 0.440304 0.046143
vt 0.453759 0.059598
vt 0.486309 0.033907
vt 0.486308 0.462031
vt 0.453758 0.436339
vt 0.959243 0.981852
vt 0.959243 0.755082
vt 0.971965 0.755082
vt 0.971965 0.981852
vt 0.984943 0.246905
vt 0.984943 0.020136
vt 0.556818 0.020136
vt 0.556818 0.246905
vt 0.732258 0.693849
vt 0.642942 0.693849
vt 0.642942 0.667457
vt 0.732258 0.667457
vt 0.473998 0.016909
vt 0.482994 0.025905
vt 0.492411 0.981852
vt 0.492411 0.755082
vt 0.501073 0.755082
vt 0.501073 0.981852
vt 0.482993 0.470033
vt 0.473997 0.479029
vt 0.972946 0.693850
vt 0.883630 0.693849
vt 0.883630 0.667458
vt 0.972946 0.667458
vt 0.320885 0.849646
vt 0.323880 0.846651
vt 0.356952 0.846651
vt 0.359947 0.849646
vt 0.359947 0.882718
vt 0.356952 0.885714
vt 0.323880 0.885714
vt 0.320885 0.882718
vt 0.334609 0.782073
vt 0.353794 0.782073
vt 0.353794 0.815145
vt 0.334609 0.815145
vt 0.334609 0.707458
vt 0.353794 0.707458
vt 0.353794 0.740529
vt 0.334609 0.740529
vt 0.353794 0.670150
vt 0.353794 0.703222
vt 0.334609 0.703222
vt 0.334609 0.670150
vt 0.492411 0.981852
vt 0.492411 0.755082
vt 0.501073 0.755082
vt 0.501073 0.981852
vt 0.619171 0.693849
vt 0.515341 0.693849
vt 0.515341 0.667457
vt 0.619171 0.667457
vt 0.971965 0.981852
vt 0.971965 0.755082
vt 0.959243 0.755082
vt 0.959243 0.981852
vt 0.272056 0.680569
vt 0.287681 0.696194
vt 0.287681 0.864666
vt 0.272056 0.880291
vt 0.103584 0.880291
vt 0.087959 0.864665
vt 0.087959 0.696194
vt 0.103584 0.680569
vt 0.853623 0.710293
vt 0.960725 0.710293
vt 0.960725 0.738895
vt 0.853623 0.738895
vt 0.597275 0.738895
vt 0.490173 0.738895
vt 0.490173 0.710293
vt 0.597275 0.710293
vt 0.732473 0.710293
vt 0.839575 0.710293
vt 0.839575 0.738895
vt 0.732473 0.738895
vt 0.611323 0.710293
vt 0.611323 0.738895
vt 0.974773 0.710293
vt 0.974773 0.738895
vt 0.718425 0.738895
vt 0.718425 0.710293
vt 0.964485 0.580765
vt 0.587744 0.580765
vt 0.606653 0.535151
vt 0.945576 0.535151
vt 0.513795 0.755082
vt 0.513795 0.981852
vt 0.513795 0.755082
vt 0.513795 0.981852
vt 0.430371 0.413316
vt 0.418266 0.425421
vt 0.079343 0.425421
vt 0.067239 0.413316
vt 0.067239 0.074394
vt 0.079345 0.062288
vt 0.418265 0.062289
vt 0.430371 0.074394
vt 0.981942 0.580765
vt 0.964485 0.580765
vt 0.945576 0.535151
vt 0.961281 0.535151
vt 0.981942 0.580765
vt 0.961280 0.535151
vt 0.585791 0.599605
vt 0.962532 0.599605
vt 0.943623 0.645598
vt 0.604700 0.645598
vt 0.585791 0.599605
vt 0.962532 0.599605
vt 0.943623 0.645598
vt 0.604700 0.645598
vt 0.587744 0.580765
vt 0.570287 0.580765
vt 0.590948 0.535151
vt 0.606653 0.535151
vt 0.570287 0.580765
vt 0.590948 0.535151
vt 0.020874 0.025904
vt 0.029870 0.016908
vt 0.980626 0.981852
vt 0.980626 0.755082
vt 0.522456 0.981852
vt 0.522456 0.755082
vt 0.513795 0.755082
vt 0.522456 0.981852
vt 0.522456 0.755082
vt 0.513795 0.755082
vt 0.950581 0.981852
vt 0.950581 0.755082
vt 0.980626 0.981852
vt 0.980626 0.755082
vt 0.971964 0.755082
vt 0.950581 0.981852
vt 0.950581 0.755082
vt 0.557230 0.505493
vt 0.557230 0.278724
vt 0.985355 0.278723
vt 0.985355 0.505493
vt 0.867913 0.693849
vt 0.867913 0.667457
vt 0.875575 0.667458
vt 0.875575 0.693849
vt 0.507287 0.667457
vt 0.507287 0.693849
vt 0.499625 0.693849
vt 0.499625 0.667457
vt 0.627225 0.693849
vt 0.627225 0.667457
vt 0.634887 0.667457
vt 0.634887 0.693849
vt 0.747975 0.667457
vt 0.747975 0.693849
vt 0.740313 0.693849
vt 0.740313 0.667457
vt 0.950581 0.755082
vt 0.859859 0.693849
vt 0.756029 0.693849
vt 0.756029 0.667457
vt 0.859859 0.667458
vt 0.491570 0.693850
vt 0.491570 0.667457
vt 0.950581 0.755082
vt 0.959243 0.755082
vt 0.334609 0.665914
vt 0.353794 0.665914
vt 0.353794 0.744765
vt 0.334609 0.744765
vt 0.334609 0.777837
vt 0.353794 0.777837
vt 0.959243 0.755082
vt 0.557230 0.278723
vt 0.985355 0.278723
vt 0.522456 0.755082
vt 0.980626 0.755082
vt 0.522456 0.755082
vt 0.980626 0.755082
vt 0.971965 0.755082
vt 0.501073 0.755082
vt 0.501073 0.755082
vt 0.492412 0.755082
vt 0.492412 0.755082
vt 0.984943 0.020136
vt 0.556818 0.020136
vt 0.011699 0.569029
vt 0.049346 0.663494
vt 0.049346 0.906570
vt 0.011699 0.973316
vt 0.057735 0.926822
vt 0.014210 0.979377
vt 0.072480 0.941567
vt 0.021023 0.986191
vt 0.092732 0.949955
vt 0.027085 0.988702
vt 0.375304 0.949955
vt 0.440951 0.988702
vt 0.395556 0.941567
vt 0.447013 0.986191
vt 0.410301 0.926822
vt 0.453826 0.979377
vt 0.418690 0.906570
vt 0.456337 0.973316
vt 0.418689 0.663494
vt 0.456337 0.569030
vt 0.410301 0.643242
vt 0.453826 0.562969
vt 0.395556 0.628498
vt 0.447013 0.556155
vt 0.375305 0.620109
vt 0.440952 0.553644
vt 0.092732 0.620109
vt 0.027085 0.553644
vt 0.072480 0.628498
vt 0.021024 0.556154
vt 0.057735 0.643242
vt 0.014210 0.562968
vt 0.012845 0.508300
vt 0.017849 0.508300
vt 0.029433 0.530360
vt 0.025643 0.530360
vt 0.028006 0.508300
vt 0.036218 0.508300
vt 0.043347 0.530360
vt 0.037127 0.530360
vt 0.464340 0.508300
vt 0.472710 0.508300
vt 0.463550 0.530360
vt 0.457210 0.530360
vt 0.483673 0.508300
vt 0.489689 0.508300
vt 0.476412 0.530360
vt 0.471855 0.530360
vt 0.464344 0.508300
vt 0.472555 0.508300
vt 0.463435 0.530360
vt 0.457215 0.530360
vt 0.482713 0.508300
vt 0.487716 0.508300
vt 0.474918 0.530360
vt 0.471128 0.530360
vt 0.010872 0.508300
vt 0.016887 0.508300
vt 0.028706 0.530360
vt 0.024149 0.530360
vt 0.027851 0.508300
vt 0.036220 0.508300
vt 0.043349 0.530360
vt 0.037010 0.530360
vt 0.527457 0.438462
vt 0.527457 0.034182
vt 0.508048 0.026701
vt 0.508047 0.454820
vt 0.527457 0.034181
vt 0.527457 0.438464
vt 0.508047 0.454821
vt 0.508047 0.026700
vn 0.0000 0.0000 -1.0000
vn 0.8315 0.5556 0.0000
vn 0.5556 0.8315 0.0000
vn 0.1951 -0.9808 0.0000
vn -0.1951 -0.9808 0.0000
vn -0.9808 0.1951 0.0000
vn -0.9808 -0.1951 0.0000
vn 0.5556 -0.8315 0.0000
vn 0.9808 -0.1951 0.0000
vn 0.9808 0.1951 0.0000
vn 0.0000 0.0000 1.0000
vn -0.9239 -0.3827 -0.0000
vn -0.9239 0.3827 0.0000
vn 0.9239 0.3827 0.0000
vn 0.9239 -0.3827 -0.0000
vn -0.3827 0.9239 0.0000
vn 0.3827 0.9239 0.0000
vn -0.1951 0.9808 0.0000
vn -0.5556 0.8315 0.0000
vn -0.5556 -0.8315 0.0000
vn -0.8315 -0.5556 0.0000
vn 0.0000 -1.0000 0.0000
vn 0.3827 0.0000 0.9239
vn -0.3827 0.0000 0.9239
vn -0.9239 0.0000 -0.3827
vn -0.9239 0.0000 0.3827
vn 0.9239 0.0000 -0.3827
vn 0.9239 0.0000 0.3827
vn -0.3827 0.0000 -0.9239
vn 0.3827 0.0000 -0.9239
vn -0.7654 -0.3538 -0.5376
vn -0.7654 0.3538 -0.5376
vn -0.8054 0.2791 -0.5230
vn -0.8054 -0.2791 -0.5230
vn -0.8315 0.5556 0.0000
vn 0.8315 -0.5556 0.0000
vn 0.3538 0.7654 -0.5376
vn 0.7654 0.3538 -0.5376
vn 0.8054 0.2791 -0.5230
vn 0.2791 0.8054 -0.5230
vn -0.3538 -0.7654 -0.5376
vn -0.2791 -0.8054 -0.5230
vn 0.3538 -0.7654 -0.5376
vn 0.2791 -0.8054 -0.5230
vn -0.3538 0.7654 -0.5376
vn -0.2791 0.8054 -0.5230
vn 0.7654 -0.3538 -0.5376
vn 0.8054 -0.2791 -0.5230
vn 0.1951 0.9808 0.0000
vn 0.3827 -0.9239 -0.0000
vn -0.3827 -0.9239 -0.0000
vn -0.6694 -0.1775 0.7214
vn -0.4927 -0.3568 0.7937
vn -0.5356 -0.3202 0.7814
vn -0.7341 -0.0855 0.6737
vn -0.3075 -0.4759 0.8240
vn -0.1162 -0.5515 0.8261
vn -0.1017 -0.5557 0.8252
vn -0.3259 -0.4664 0.8223
vn -0.1629 0.7258 0.6684
vn -0.4030 0.5957 0.6947
vn -0.3954 0.6012 0.6944
vn -0.1233 0.7399 0.6613
vn -0.5965 0.4057 0.6925
vn -0.7315 0.1660 0.6614
vn -0.7476 0.1224 0.6527
vn -0.6047 0.3948 0.6918
vn 0.1162 -0.5515 0.8261
vn 0.3075 -0.4759 0.8240
vn 0.3259 -0.4664 0.8223
vn 0.1017 -0.5557 0.8252
vn 0.4927 -0.3568 0.7937
vn 0.6694 -0.1775 0.7214
vn 0.7341 -0.0855 0.6737
vn 0.5356 -0.3202 0.7814
vn 0.7315 0.1660 0.6614
vn 0.5965 0.4057 0.6925
vn 0.6047 0.3948 0.6918
vn 0.7476 0.1224 0.6527
vn 0.4030 0.5957 0.6947
vn 0.1629 0.7258 0.6684
vn 0.1233 0.7399 0.6613
vn 0.3954 0.6012 0.6944
g monitor1_Cube_None
usemtl None
s 1
f 23/1/1 44/2/1 33/3/1 18/4/1
f 21/5/1 48/6/1 41/7/1 24/8/1
f 24/8/1 42/9/1 43/10/1 23/1/1
f 17/11/1 36/12/1 37/13/1 20/14/1
f 19/15/1 40/16/1 45/17/1 22/18/1
f 143/19/2 47/20/2 46/21/3 144/22/3
f 134/23/4 95/24/4 90/25/5 133/26/5
f 67/27/6 66/28/7 79/29/7 86/30/6
f 20/14/1 38/31/1 39/32/1 19/15/1
f 134/33/4 44/34/4 43/35/8 139/36/8
f 22/18/1 46/37/1 47/38/1 21/5/1
f 59/39/9 58/40/10 71/41/10 78/42/9
f 115/43/11 116/44/11 125/45/11 126/46/11 123/47/11 124/48/11 117/49/11 118/50/11
f 114/51/12 115/52/12 118/53/13 119/54/13
f 122/55/14 123/56/14 126/57/15 127/58/15
f 117/59/16 124/60/17 121/61/17 120/62/16
f 135/63/18 40/64/18 39/65/19 136/66/19
f 63/67/5 62/68/4 75/69/4 82/70/5
f 132/71/20 89/72/20 88/73/21 130/74/21
f 9/75/22 10/76/22 11/77/22 12/78/22 3/79/22 4/80/22 1/81/22 2/82/22
f 15/83/23 8/84/24 3/85/24 12/86/23
f 1/87/25 4/88/26 7/89/26 6/90/25
f 13/91/27 16/92/28 11/93/28 10/94/27
f 5/95/29 2/96/29 1/87/25 6/90/25
f 3/85/24 8/84/24 7/97/26 4/98/26
f 9/99/30 14/100/30 13/91/27 10/94/27
f 15/83/23 12/86/23 11/93/28 16/92/28
f 5/95/29 14/100/30 9/99/30 2/96/29
f 17/101/31 20/102/32 28/103/33 25/104/34
f 136/66/19 39/65/19 38/105/35 138/106/35
f 139/36/8 43/35/8 42/107/36 140/108/36
f 28/109/1 27/110/1 30/111/1 29/112/1 32/113/1 31/114/1 26/115/1 25/116/1
f 22/117/37 21/118/38 29/119/39 30/120/40
f 18/121/41 17/101/31 25/104/34 26/122/42
f 23/123/43 18/124/41 26/125/42 31/126/44
f 19/127/45 22/128/37 30/129/40 27/130/46
f 24/131/47 23/132/43 31/133/44 32/134/48
f 20/102/32 19/135/45 27/136/46 28/103/33
f 21/118/38 24/131/47 32/134/48 29/119/39
f 33/3/1 34/137/1 18/4/1
f 35/138/1 36/12/1 17/11/1
f 133/139/5 90/140/5 89/72/20 132/71/20
f 37/13/1 38/31/1 20/14/1
f 39/32/1 40/16/1 19/15/1
f 131/141/6 94/142/6 93/143/35 138/106/35
f 41/7/1 42/9/1 24/8/1
f 43/10/1 44/2/1 23/1/1
f 141/144/9 98/145/9 97/146/36 140/108/36
f 45/17/1 46/37/1 22/18/1
f 47/38/1 48/6/1 21/5/1
f 142/147/10 99/148/10 98/145/9 141/144/9
f 137/149/49 102/150/49 101/151/3 144/22/3
f 129/152/7 87/153/7 94/142/6 131/141/6
f 135/154/18 91/155/18 102/156/49 137/157/49
f 18/4/1 34/137/1 35/138/1 17/11/1
f 56/158/3 73/159/3 72/160/2 57/161/2
f 76/162/8 61/163/8 60/164/36 77/165/36
f 64/166/20 81/167/20 80/168/21 65/169/21
f 84/170/19 69/171/19 68/172/35 85/173/35
f 142/147/10 48/174/10 47/20/2 143/19/2
f 55/175/49 70/176/18 83/177/18 74/178/49
f 83/177/18 70/176/18 69/171/19 84/170/19
f 67/27/6 86/30/6 85/173/35 68/172/35
f 75/69/4 62/68/4 61/163/8 76/162/8
f 59/179/9 78/180/9 77/165/36 60/164/36
f 63/67/5 82/70/5 81/167/20 64/166/20
f 79/29/7 66/28/7 65/169/21 80/168/21
f 55/175/49 74/178/49 73/159/3 56/158/3
f 71/41/10 58/40/10 57/161/2 72/160/2
f 129/152/7 36/181/7 35/182/21 130/74/21
f 117/59/16 120/62/16 119/183/13 118/184/13
f 125/185/50 128/186/50 127/58/15 126/57/15
f 113/187/51 116/188/51 115/52/12 114/51/12
f 121/61/17 124/60/17 123/56/14 122/55/14
f 113/187/51 128/186/50 125/185/50 116/188/51
f 87/153/7 129/152/7 130/74/21 88/73/21
f 99/148/10 142/147/10 143/19/2 100/189/2
f 40/190/18 135/154/18 137/157/49 45/191/49
f 36/181/7 129/152/7 131/141/6 37/192/6
f 45/193/49 137/149/49 144/22/3 46/21/3
f 48/174/10 142/147/10 141/144/9 41/194/9
f 41/194/9 141/144/9 140/108/36 42/107/36
f 37/192/6 131/141/6 138/106/35 38/105/35
f 33/195/5 133/139/5 132/71/20 34/196/20
f 96/197/8 139/36/8 140/108/36 97/146/36
f 92/198/19 136/66/19 138/106/35 93/143/35
f 34/196/20 132/71/20 130/74/21 35/182/21
f 91/199/18 135/63/18 136/66/19 92/198/19
f 95/200/4 134/33/4 139/36/8 96/197/8
f 44/201/4 134/23/4 133/26/5 33/202/5
f 100/189/2 143/19/2 144/22/3 101/151/3
f 49/203/11 58/204/11 59/205/11 108/206/11
f 108/206/11 59/205/11 60/207/11 107/208/11
f 107/208/11 60/207/11 61/209/11 106/210/11
f 106/210/11 61/209/11 62/211/11 105/212/11
f 105/212/11 62/211/11 63/213/11 112/214/11
f 112/214/11 63/213/11 64/215/11 111/216/11
f 111/216/11 64/215/11 65/217/11 110/218/11
f 110/218/11 65/217/11 66/219/11 109/220/11
f 109/220/11 66/219/11 67/221/11 54/222/11
f 54/222/11 67/221/11 68/223/11 53/224/11
f 53/224/11 68/223/11 69/225/11 52/226/11
f 52/226/11 69/225/11 70/227/11 51/228/11
f 51/228/11 70/227/11 55/229/11 104/230/11
f 104/230/11 55/229/11 56/231/11 103/232/11
f 103/232/11 56/231/11 57/233/11 50/234/11
f 50/234/11 57/233/11 58/204/11 49/203/11
f 151/235/52 152/236/53 146/237/54 145/238/55
f 154/239/56 155/240/57 156/241/58 153/242/59
f 158/243/60 159/244/61 160/245/62 157/246/63
f 162/247/64 163/248/65 164/249/66 161/250/67
f 165/251/68 166/252/69 148/253/70 147/254/71
f 167/255/72 168/256/73 150/257/74 149/258/75
f 170/259/76 171/260/77 172/261/78 169/262/79
f 174/263/80 175/264/81 176/265/82 173/266/83
f 153/242/59 146/237/54 152/236/53 154/239/56
f 147/254/71 156/241/58 155/240/57 165/251/68
f 145/267/55 164/268/66 163/269/65 151/270/52
f 161/250/67 160/245/62 159/244/61 162/247/64
f 157/246/63 176/265/82 175/264/81 158/243/60
f 149/258/75 148/253/70 166/252/69 167/255/72
f 169/271/79 150/272/74 168/273/73 170/274/76
f 173/266/83 172/261/78 171/260/77 174/263/80
v -0.118190 -0.066074 0.133109
v -0.112821 -0.079035 0.133109
v -0.103385 -0.088472 0.133109
v -0.090423 -0.093840 0.133109
v -0.090423 0.117262 0.133109
v -0.103385 0.111893 0.133109
v -0.112821 0.102456 0.133109
v -0.118190 0.089495 0.133109
v 0.118190 0.089495 0.133109
v 0.112821 0.102456 0.133109
v 0.103384 0.111893 0.133109
v 0.090423 0.117262 0.133109
v 0.090423 -0.093840 0.133109
v 0.103384 -0.088472 0.133109
v 0.112821 -0.079035 0.133109
v 0.118190 -0.066074 0.133109
vn 0.0000 0.0000 1.0000
g flat_screen_Cube.002_None
usemtl None
s 1
f 190//84 191//84 192//84 185//84 186//84 187//84 188//84 181//84 182//84 183//84 184//84 177//84 178//84 179//84 180//84 189//84
v -0.118190 -0.066074 0.133109
v -0.112821 -0.079035 0.133109
v -0.103385 -0.088472 0.133109
v -0.090423 -0.093840 0.133109
v -0.090423 0.117262 0.133109
v -0.103385 0.111893 0.133109
v -0.112821 0.102456 0.133109
v -0.118190 0.089495 0.133109
v 0.118190 0.089495 0.133109
v 0.112821 0.102456 0.133109
v 0.103384 0.111893 0.133109
v 0.090423 0.117262 0.133109
v 0.090423 -0.093840 0.133109
v 0.103384 -0.088472 0.133109
v 0.112821 -0.079035 0.133109
v 0.118190 -0.066074 0.133109
v 0.088798 -0.074337 0.145350
v 0.072149 -0.056114 0.150523
v 0.065177 -0.059002 0.150523
v 0.077665 -0.078948 0.145350
v 0.101514 -0.055099 0.145350
v 0.080017 -0.044162 0.150523
v 0.077129 -0.051134 0.150523
v 0.096903 -0.066231 0.145350
v -0.088798 0.097758 0.145350
v -0.072149 0.079536 0.150523
v -0.065177 0.082424 0.150523
v -0.077665 0.102369 0.145350
v -0.101514 0.078520 0.145350
v -0.080017 0.067583 0.150523
v -0.077129 0.074555 0.150523
v -0.096903 0.089653 0.145350
v 0.077665 0.102369 0.145350
v 0.065177 0.082424 0.150523
v 0.072149 0.079536 0.150523
v 0.088798 0.097758 0.145350
v 0.096903 0.089653 0.145350
v 0.077129 0.074555 0.150523
v 0.080017 0.067583 0.150523
v 0.101514 0.078520 0.145350
v -0.077665 -0.078948 0.145350
v -0.065177 -0.059002 0.150523
v -0.072149 -0.056114 0.150523
v -0.088798 -0.074337 0.145350
v -0.096903 -0.066231 0.145350
v -0.077129 -0.051134 0.150523
v -0.080017 -0.044162 0.150523
v -0.101514 -0.055099 0.145350
vt 0.080580 0.925102
vt 0.064372 0.908804
vt 0.094700 0.884956
vt 0.107308 0.897556
vt 0.411625 0.600970
vt 0.427752 0.617176
vt 0.397550 0.640949
vt 0.384994 0.628422
vt 0.389410 0.934537
vt 0.102659 0.934537
vt 0.124390 0.904791
vt 0.367732 0.904754
vt 0.437094 0.639151
vt 0.404856 0.658010
vt 0.358770 0.657268
vt 0.366358 0.664840
vt 0.370702 0.675521
vt 0.370663 0.850219
vt 0.366212 0.860953
vt 0.358548 0.868592
vt 0.347785 0.873013
vt 0.144359 0.873125
vt 0.133633 0.868662
vt 0.126001 0.860987
vt 0.121583 0.850224
vt 0.121898 0.675181
vt 0.126272 0.664489
vt 0.133891 0.656924
vt 0.144629 0.652602
vt 0.348057 0.652928
vt 0.081151 0.600280
vt 0.103224 0.590995
vt 0.124804 0.620804
vt 0.107710 0.627929
vt 0.055015 0.886708
vt 0.087362 0.867815
vt 0.389661 0.591565
vt 0.367965 0.621240
vt 0.055357 0.638461
vt 0.087675 0.657518
vt 0.411490 0.925170
vt 0.384833 0.897563
vt 0.437173 0.886879
vt 0.404851 0.867887
vt 0.064867 0.616441
vt 0.095067 0.640435
vt 0.427737 0.908937
vt 0.397472 0.885004
vn -0.2991 0.4293 0.8522
vn -0.4260 0.2897 0.8571
vn -0.3198 0.2105 0.9238
vn -0.2117 0.3285 0.9205
vn 0.2991 -0.4293 0.8522
vn 0.4260 -0.2897 0.8571
vn 0.3198 -0.2105 0.9238
vn 0.2117 -0.3285 0.9205
vn 0.1377 0.5559 0.8198
vn -0.1377 0.5559 0.8198
vn -0.0690 0.4350 0.8978
vn 0.0690 0.4350 0.8978
vn 0.5321 -0.1255 0.8373
vn 0.4083 -0.0686 0.9102
vn 0.0631 -0.0992 0.9931
vn 0.0964 -0.0631 0.9933
vn 0.1228 -0.0193 0.9922
vn 0.1228 0.0193 0.9922
vn 0.0964 0.0631 0.9933
vn 0.0631 0.0992 0.9931
vn 0.0188 0.1308 0.9912
vn -0.0188 0.1308 0.9912
vn -0.0631 0.0992 0.9931
vn -0.0964 0.0631 0.9933
vn -0.1228 0.0193 0.9922
vn -0.1228 -0.0193 0.9922
vn -0.0964 -0.0631 0.9933
vn -0.0631 -0.0992 0.9931
vn -0.0188 -0.1308 0.9912
vn 0.0188 -0.1308 0.9912
vn -0.2991 -0.4293 0.8522
vn -0.1377 -0.5559 0.8198
vn -0.0690 -0.4350 0.8978
vn -0.2117 -0.3285 0.9205
vn -0.5321 0.1255 0.8373
vn -0.4083 0.0686 0.9102
vn 0.1377 -0.5559 0.8198
vn 0.0690 -0.4350 0.8978
vn -0.5321 -0.1255 0.8373
vn -0.4083 -0.0686 0.9102
vn 0.2991 0.4293 0.8522
vn 0.2117 0.3285 0.9205
vn 0.5321 0.1255 0.8373
vn 0.4083 0.0686 0.9102
vn -0.4260 -0.2897 0.8571
vn -0.3198 -0.2105 0.9238
vn 0.4260 0.2897 0.8571
vn 0.3198 0.2105 0.9238
g translucent_screen_Cube.001_None
usemtl None
s 1
f 198/275/85 199/276/86 224/277/87 217/278/88
f 206/279/89 207/280/90 216/281/91 209/282/92
f 204/283/93 197/284/94 220/285/95 225/286/96
f 207/280/90 208/287/97 213/288/98 216/281/91
f 210/289/99 215/290/100 214/291/101 231/292/102 230/293/103 227/294/104 226/295/105 219/296/106 218/297/107 223/298/108 222/299/109 239/300/110 238/301/111 235/302/112 234/303/113 211/304/114
f 195/305/115 196/306/116 233/307/117 236/308/118
f 197/284/94 198/275/85 217/278/88 220/285/95
f 199/276/86 200/309/119 221/310/120 224/277/87
f 196/306/116 205/311/121 212/312/122 233/307/117
f 200/309/119 193/313/123 240/314/124 221/310/120
f 203/315/125 204/283/93 225/286/96 228/316/126
f 208/287/97 201/317/127 232/318/128 213/288/98
f 194/319/129 195/305/115 236/308/118 237/320/130
f 193/313/123 194/319/129 237/320/130 240/314/124
f 201/317/127 202/321/131 229/322/132 232/318/128
f 202/321/131 203/315/125 228/316/126 229/322/132
f 210/289/99 211/304/114 212/312/122 209/282/92
f 214/291/101 215/290/100 216/281/91 213/288/98
f 218/297/107 219/296/106 220/285/95 217/278/88
f 222/299/109 223/298/108 224/277/87 221/310/120
f 226/295/105 227/294/104 228/316/126 225/286/96
f 230/293/103 231/292/102 232/318/128 229/322/132
f 234/303/113 235/302/112 236/308/118 233/307/117
f 238/301/111 239/300/110 240/314/124 237/320/130
f 235/302/112 238/301/111 237/320/130 236/308/118
f 211/304/114 234/303/113 233/307/117 212/312/122
f 239/300/110 222/299/109 221/310/120 240/314/124
f 223/298/108 218/297/107 217/278/88 224/277/87
f 219/296/106 226/295/105 225/286/96 220/285/95
f 227/294/104 230/293/103 229/322/132 228/316/126
f 231/292/102 214/291/101 213/288/98 232/318/128
f 215/290/100 210/289/99 209/282/92 216/281/91
f 205/311/121 206/279/89 209/282/92 212/312/122
