# Exported from Wings 3D 1.5.4
mtllib ./monitor1_screen.mtl
o flat_screen_Cube.002_None
#16 vertices, 1 faces
v -0.11819000 -6.6074000e-2 0.13310900
v -0.11282100 -7.9035000e-2 0.13310900
v -0.10338500 -8.8472000e-2 0.13310900
v -9.0423000e-2 -9.3840000e-2 0.13310900
v -9.0423000e-2 0.11726200 0.13310900
v -0.10338500 0.11189300 0.13310900
v -0.11282100 0.10245600 0.13310900
v -0.11819000 8.9495000e-2 0.13310900
v 0.11819000 8.9495000e-2 0.13310900
v 0.11282100 0.10245600 0.13310900
v 0.10338400 0.11189300 0.13310900
v 9.0423000e-2 0.11726200 0.13310900
v 9.0423000e-2 -9.3840000e-2 0.13310900
v 0.10338400 -8.8472000e-2 0.13310900
v 0.11282100 -7.9035000e-2 0.13310900
v 0.11819000 -6.6074000e-2 0.13310900
vt 0.0000000e+0 0.13152883
vt 0.0000000e+0 0.86846643
vt 2.2713428e-2 7.0131974e-2
vt 2.2713428e-2 0.92986329
vt 6.2632202e-2 2.5428466e-2
vt 6.2632202e-2 0.97456680
vt 0.11746764 0.0000000e+0
vt 0.11746764 1.00000000
vt 0.88253236 0.0000000e+0
vt 0.88253236 1.00000000
vt 0.93736357 2.5428466e-2
vt 0.93736357 0.97456680
vt 0.97728657 7.0131974e-2
vt 0.97728657 0.92986329
vt 1.00000000 0.13152883
vt 1.00000000 0.86846643
vn -2.2161291e-17 0.0000000e+0 1.00000000
vn -2.2161291e-17 0.0000000e+0 1.00000000
vn -2.2161291e-17 0.0000000e+0 1.00000000
vn -2.2161291e-17 0.0000000e+0 1.00000000
vn -2.2161291e-17 0.0000000e+0 1.00000000
vn -2.2161291e-17 0.0000000e+0 1.00000000
vn -2.2161291e-17 0.0000000e+0 1.00000000
vn -2.2161291e-17 0.0000000e+0 1.00000000
vn -2.2161291e-17 0.0000000e+0 1.00000000
vn -2.2161291e-17 0.0000000e+0 1.00000000
vn -2.2161291e-17 0.0000000e+0 1.00000000
vn -2.2161291e-17 0.0000000e+0 1.00000000
vn -2.2161291e-17 0.0000000e+0 1.00000000
vn -2.2161291e-17 0.0000000e+0 1.00000000
vn -2.2161291e-17 0.0000000e+0 1.00000000
vn -2.2161291e-17 0.0000000e+0 1.00000000
g flat_screen_Cube.002_None_flat_screen_Cube.002_None_auv
usemtl flat_screen_Cube.002_None_auv
s 1
f 2/3/2 3/5/3 4/7/4 13/9/13 14/11/14 15/13/15 16/15/16 9/16/9 10/14/10 11/12/11 12/10/12 5/8/5 6/6/6 7/4/7 8/2/8 1/1/1
