# Exported from Wings 3D 1.5.4
mtllib mira_crew_s1_1_collider.mtl
o collider
#112 vertices, 82 faces
v 0.75000000 0.78750000 -0.14918428
v 0.75000000 0.78750000 0.14918428
v 0.63581930 0.78750000 0.42484087
v 0.42484087 0.78750000 0.63581930
v 0.14918428 0.78750000 0.75000000
v -0.14918428 0.78750000 0.75000000
v -0.42484087 0.78750000 0.63581930
v -0.63581930 0.78750000 0.42484087
v -0.75000000 0.78750000 0.14918428
v -0.75000000 0.78750000 -0.14918428
v -0.63581930 0.78750000 -0.42484087
v -0.42484087 0.78750000 -0.63581930
v -0.14918428 0.78750000 -0.75000000
v 0.14918428 0.78750000 -0.75000000
v 0.42484087 0.78750000 -0.63581930
v 0.63581930 0.78750000 -0.42484087
v 0.75000000 -2.2204460e-16 -0.14918428
v 0.75000000 -2.2204460e-16 0.14918428
v 0.63581930 -2.2204460e-16 0.42484087
v 0.42484087 -2.2204460e-16 0.63581930
v 0.14918428 -2.2204460e-16 0.75000000
v -0.14918428 -2.2204460e-16 0.75000000
v -0.42484087 -2.2204460e-16 0.63581930
v -0.63581930 -2.2204460e-16 0.42484087
v -0.75000000 -2.2204460e-16 0.14918428
v -0.75000000 -2.2204460e-16 -0.14918428
v -0.63581930 -2.2204460e-16 -0.42484087
v -0.42484087 -2.2204460e-16 -0.63581930
v -0.14918428 -2.2204460e-16 -0.75000000
v 0.14918428 -2.2204460e-16 -0.75000000
v 0.42484087 -2.2204460e-16 -0.63581930
v 0.63581930 -2.2204460e-16 -0.42484087
v 0.46875000 1.37500000 9.3240172e-2
v 0.46875000 1.37500000 -9.3240172e-2
v 0.39738706 1.37500000 -0.26552555
v 0.26552555 1.37500000 -0.39738706
v 9.3240172e-2 1.37500000 -0.46875000
v -9.3240172e-2 1.37500000 -0.46875000
v -0.26552555 1.37500000 -0.39738706
v -0.39738706 1.37500000 -0.26552555
v -0.46875000 1.37500000 -9.3240172e-2
v -0.46875000 1.37500000 9.3240172e-2
v -0.39738706 1.37500000 0.26552555
v -0.26552555 1.37500000 0.39738706
v -9.3240172e-2 1.37500000 0.46875000
v 9.3240172e-2 1.37500000 0.46875000
v 0.26552555 1.37500000 0.39738706
v 0.39738706 1.37500000 0.26552555
v 0.57544732 1.11579360 0.38450161
v 0.38450161 1.11579360 0.57544732
v 0.13501901 1.11579360 0.67878640
v -0.13501901 1.11579360 0.67878640
v -0.38450161 1.11579360 0.57544732
v -0.57544732 1.11579360 0.38450161
v -0.67878640 1.11579360 0.13501901
v -0.67878640 1.11579360 -0.13501901
v -0.57544732 1.11579360 -0.38450161
v -0.38450161 1.11579360 -0.57544732
v -0.13501901 1.11579360 -0.67878640
v 0.13501901 1.11579360 -0.67878640
v 0.38450161 1.11579360 -0.57544732
v 0.57544732 1.11579360 -0.38450161
v 0.67878640 1.11579360 -0.13501901
v 0.67878640 1.11579360 0.13501901
v 0.75000000 -0.78750000 -0.14918428
v 0.75000000 -0.78750000 0.14918428
v 0.63581930 -0.78750000 0.42484087
v 0.42484087 -0.78750000 0.63581930
v 0.14918428 -0.78750000 0.75000000
v -0.14918428 -0.78750000 0.75000000
v -0.42484087 -0.78750000 0.63581930
v -0.63581930 -0.78750000 0.42484087
v -0.75000000 -0.78750000 0.14918428
v -0.75000000 -0.78750000 -0.14918428
v -0.63581930 -0.78750000 -0.42484087
v -0.42484087 -0.78750000 -0.63581930
v -0.14918428 -0.78750000 -0.75000000
v 0.14918428 -0.78750000 -0.75000000
v 0.42484087 -0.78750000 -0.63581930
v 0.63581930 -0.78750000 -0.42484087
v 0.46875000 -1.37500000 9.3240172e-2
v 0.46875000 -1.37500000 -9.3240172e-2
v 0.39738706 -1.37500000 -0.26552555
v 0.26552555 -1.37500000 -0.39738706
v 9.3240172e-2 -1.37500000 -0.46875000
v -9.3240172e-2 -1.37500000 -0.46875000
v -0.26552555 -1.37500000 -0.39738706
v -0.39738706 -1.37500000 -0.26552555
v -0.46875000 -1.37500000 -9.3240172e-2
v -0.46875000 -1.37500000 9.3240172e-2
v -0.39738706 -1.37500000 0.26552555
v -0.26552555 -1.37500000 0.39738706
v -9.3240172e-2 -1.37500000 0.46875000
v 9.3240172e-2 -1.37500000 0.46875000
v 0.26552555 -1.37500000 0.39738706
v 0.39738706 -1.37500000 0.26552555
v 0.57544732 -1.11579360 0.38450161
v 0.38450161 -1.11579360 0.57544732
v 0.13501901 -1.11579360 0.67878640
v -0.13501901 -1.11579360 0.67878640
v -0.38450161 -1.11579360 0.57544732
v -0.57544732 -1.11579360 0.38450161
v -0.67878640 -1.11579360 0.13501901
v -0.67878640 -1.11579360 -0.13501901
v -0.57544732 -1.11579360 -0.38450161
v -0.38450161 -1.11579360 -0.57544732
v -0.13501901 -1.11579360 -0.67878640
v 0.13501901 -1.11579360 -0.67878640
v 0.38450161 -1.11579360 -0.57544732
v 0.57544732 -1.11579360 -0.38450161
v 0.67878640 -1.11579360 -0.13501901
v 0.67878640 -1.11579360 0.13501901
vn 0.92387953 0.0000000e+0 -0.38268343
vn 0.97727178 0.21199024 0.0000000e+0
vn 0.90288140 0.21199024 -0.37398572
vn 1.00000000 0.0000000e+0 0.0000000e+0
vn 0.97727178 0.21199024 0.0000000e+0
vn 0.90288140 0.21199024 0.37398572
vn 0.92387953 0.0000000e+0 0.38268343
vn 1.00000000 0.0000000e+0 0.0000000e+0
vn 0.69103550 0.21199024 0.69103550
vn 0.90288140 0.21199024 0.37398572
vn 0.70710678 0.0000000e+0 0.70710678
vn 0.92387953 0.0000000e+0 0.38268343
vn 0.37398572 0.21199024 0.90288140
vn 0.69103550 0.21199024 0.69103550
vn 0.38268343 0.0000000e+0 0.92387953
vn 0.70710678 0.0000000e+0 0.70710678
vn -3.8156928e-16 0.21199024 0.97727178
vn 0.37398572 0.21199024 0.90288140
vn 0.0000000e+0 0.0000000e+0 1.00000000
vn 0.38268343 0.0000000e+0 0.92387953
vn -0.37398572 0.21199024 0.90288140
vn -3.8156928e-16 0.21199024 0.97727178
vn -0.38268343 0.0000000e+0 0.92387953
vn 0.0000000e+0 0.0000000e+0 1.00000000
vn -0.69103550 0.21199024 0.69103550
vn -0.37398572 0.21199024 0.90288140
vn -0.70710678 0.0000000e+0 0.70710678
vn -0.38268343 0.0000000e+0 0.92387953
vn -0.90288140 0.21199024 0.37398572
vn -0.69103550 0.21199024 0.69103550
vn -0.92387953 0.0000000e+0 0.38268343
vn -0.70710678 0.0000000e+0 0.70710678
vn -0.97727178 0.21199024 0.0000000e+0
vn -0.90288140 0.21199024 0.37398572
vn -1.00000000 0.0000000e+0 0.0000000e+0
vn -0.92387953 0.0000000e+0 0.38268343
vn -0.90288140 0.21199024 -0.37398572
vn -0.97727178 0.21199024 0.0000000e+0
vn -0.92387953 0.0000000e+0 -0.38268343
vn -1.00000000 0.0000000e+0 0.0000000e+0
vn -0.69103550 0.21199024 -0.69103550
vn -0.90288140 0.21199024 -0.37398572
vn -0.70710678 0.0000000e+0 -0.70710678
vn -0.92387953 0.0000000e+0 -0.38268343
vn -0.37398572 0.21199024 -0.90288140
vn -0.69103550 0.21199024 -0.69103550
vn -0.38268343 0.0000000e+0 -0.92387953
vn -0.70710678 0.0000000e+0 -0.70710678
vn 3.8156928e-16 0.21199024 -0.97727178
vn -0.37398572 0.21199024 -0.90288140
vn 0.0000000e+0 0.0000000e+0 -1.00000000
vn -0.38268343 0.0000000e+0 -0.92387953
vn 0.37398572 0.21199024 -0.90288140
vn 3.8156928e-16 0.21199024 -0.97727178
vn 0.38268343 0.0000000e+0 -0.92387953
vn 0.0000000e+0 0.0000000e+0 -1.00000000
vn 0.69103550 0.21199024 -0.69103550
vn 0.37398572 0.21199024 -0.90288140
vn 0.70710678 0.0000000e+0 -0.70710678
vn 0.38268343 0.0000000e+0 -0.92387953
vn 0.92387953 0.0000000e+0 -0.38268343
vn 0.90288140 0.21199024 -0.37398572
vn 0.69103550 0.21199024 -0.69103550
vn 0.70710678 0.0000000e+0 -0.70710678
vn 0.92387953 0.0000000e+0 -0.38268343
vn 1.00000000 0.0000000e+0 0.0000000e+0
vn 0.92387953 0.0000000e+0 0.38268343
vn 1.00000000 0.0000000e+0 0.0000000e+0
vn 0.70710678 0.0000000e+0 0.70710678
vn 0.92387953 0.0000000e+0 0.38268343
vn 0.38268343 0.0000000e+0 0.92387953
vn 0.70710678 0.0000000e+0 0.70710678
vn 0.0000000e+0 0.0000000e+0 1.00000000
vn 0.38268343 0.0000000e+0 0.92387953
vn -0.38268343 0.0000000e+0 0.92387953
vn 0.0000000e+0 0.0000000e+0 1.00000000
vn -0.70710678 0.0000000e+0 0.70710678
vn -0.38268343 0.0000000e+0 0.92387953
vn -0.92387953 0.0000000e+0 0.38268343
vn -0.70710678 0.0000000e+0 0.70710678
vn -1.00000000 0.0000000e+0 0.0000000e+0
vn -0.92387953 0.0000000e+0 0.38268343
vn -0.92387953 0.0000000e+0 -0.38268343
vn -1.00000000 0.0000000e+0 0.0000000e+0
vn -0.70710678 0.0000000e+0 -0.70710678
vn -0.92387953 0.0000000e+0 -0.38268343
vn -0.38268343 0.0000000e+0 -0.92387953
vn -0.70710678 0.0000000e+0 -0.70710678
vn 0.0000000e+0 0.0000000e+0 -1.00000000
vn -0.38268343 0.0000000e+0 -0.92387953
vn 0.38268343 0.0000000e+0 -0.92387953
vn 0.0000000e+0 0.0000000e+0 -1.00000000
vn 0.70710678 0.0000000e+0 -0.70710678
vn 0.38268343 0.0000000e+0 -0.92387953
vn 0.92387953 0.0000000e+0 -0.38268343
vn 0.70710678 0.0000000e+0 -0.70710678
vn 0.0000000e+0 1.00000000 5.1597571e-16
vn 0.77694773 0.62956511 0.0000000e+0
vn 0.71780611 0.62956511 0.29732502
vn 0.0000000e+0 1.00000000 5.1597571e-16
vn 0.77694773 0.62956511 0.0000000e+0
vn 0.71780611 0.62956511 -0.29732502
vn 0.0000000e+0 1.00000000 5.1597571e-16
vn 0.71780611 0.62956511 -0.29732502
vn 0.54938501 0.62956511 -0.54938501
vn 0.0000000e+0 1.00000000 5.1597571e-16
vn 0.54938501 0.62956511 -0.54938501
vn 0.29732502 0.62956511 -0.71780611
vn 0.0000000e+0 1.00000000 5.1597571e-16
vn 0.29732502 0.62956511 -0.71780611
vn 3.1891586e-16 0.62956511 -0.77694773
vn 0.0000000e+0 1.00000000 5.1597571e-16
vn 3.1891586e-16 0.62956511 -0.77694773
vn -0.29732502 0.62956511 -0.71780611
vn 0.0000000e+0 1.00000000 5.1597571e-16
vn -0.29732502 0.62956511 -0.71780611
vn -0.54938501 0.62956511 -0.54938501
vn 0.0000000e+0 1.00000000 5.1597571e-16
vn -0.54938501 0.62956511 -0.54938501
vn -0.71780611 0.62956511 -0.29732502
vn 0.0000000e+0 1.00000000 5.1597571e-16
vn -0.71780611 0.62956511 -0.29732502
vn -0.77694773 0.62956511 0.0000000e+0
vn 0.0000000e+0 1.00000000 5.1597571e-16
vn -0.77694773 0.62956511 0.0000000e+0
vn -0.71780611 0.62956511 0.29732502
vn 0.0000000e+0 1.00000000 5.1597571e-16
vn -0.71780611 0.62956511 0.29732502
vn -0.54938501 0.62956511 0.54938501
vn 0.0000000e+0 1.00000000 5.1597571e-16
vn -0.54938501 0.62956511 0.54938501
vn -0.29732502 0.62956511 0.71780611
vn 0.0000000e+0 1.00000000 5.1597571e-16
vn -0.29732502 0.62956511 0.71780611
vn -3.1891586e-16 0.62956511 0.77694773
vn 0.0000000e+0 1.00000000 5.1597571e-16
vn -3.1891586e-16 0.62956511 0.77694773
vn 0.29732502 0.62956511 0.71780611
vn 0.0000000e+0 1.00000000 5.1597571e-16
vn 0.29732502 0.62956511 0.71780611
vn 0.54938501 0.62956511 0.54938501
vn 0.0000000e+0 1.00000000 5.1597571e-16
vn 0.54938501 0.62956511 0.54938501
vn 0.71780611 0.62956511 0.29732502
vn 0.54938501 0.62956511 0.54938501
vn 0.71780611 0.62956511 0.29732502
vn 0.69103550 0.21199024 0.69103550
vn 0.90288140 0.21199024 0.37398572
vn 0.29732502 0.62956511 0.71780611
vn 0.54938501 0.62956511 0.54938501
vn 0.37398572 0.21199024 0.90288140
vn 0.69103550 0.21199024 0.69103550
vn -3.1891586e-16 0.62956511 0.77694773
vn 0.29732502 0.62956511 0.71780611
vn -3.8156928e-16 0.21199024 0.97727178
vn 0.37398572 0.21199024 0.90288140
vn -0.29732502 0.62956511 0.71780611
vn -3.1891586e-16 0.62956511 0.77694773
vn -0.37398572 0.21199024 0.90288140
vn -3.8156928e-16 0.21199024 0.97727178
vn -0.54938501 0.62956511 0.54938501
vn -0.29732502 0.62956511 0.71780611
vn -0.69103550 0.21199024 0.69103550
vn -0.37398572 0.21199024 0.90288140
vn -0.71780611 0.62956511 0.29732502
vn -0.54938501 0.62956511 0.54938501
vn -0.90288140 0.21199024 0.37398572
vn -0.69103550 0.21199024 0.69103550
vn -0.77694773 0.62956511 0.0000000e+0
vn -0.71780611 0.62956511 0.29732502
vn -0.97727178 0.21199024 0.0000000e+0
vn -0.90288140 0.21199024 0.37398572
vn -0.71780611 0.62956511 -0.29732502
vn -0.77694773 0.62956511 0.0000000e+0
vn -0.90288140 0.21199024 -0.37398572
vn -0.97727178 0.21199024 0.0000000e+0
vn -0.54938501 0.62956511 -0.54938501
vn -0.71780611 0.62956511 -0.29732502
vn -0.69103550 0.21199024 -0.69103550
vn -0.90288140 0.21199024 -0.37398572
vn -0.29732502 0.62956511 -0.71780611
vn -0.54938501 0.62956511 -0.54938501
vn -0.37398572 0.21199024 -0.90288140
vn -0.69103550 0.21199024 -0.69103550
vn 3.1891586e-16 0.62956511 -0.77694773
vn -0.29732502 0.62956511 -0.71780611
vn 3.8156928e-16 0.21199024 -0.97727178
vn -0.37398572 0.21199024 -0.90288140
vn 0.29732502 0.62956511 -0.71780611
vn 3.1891586e-16 0.62956511 -0.77694773
vn 0.37398572 0.21199024 -0.90288140
vn 3.8156928e-16 0.21199024 -0.97727178
vn 0.54938501 0.62956511 -0.54938501
vn 0.29732502 0.62956511 -0.71780611
vn 0.69103550 0.21199024 -0.69103550
vn 0.37398572 0.21199024 -0.90288140
vn 0.71780611 0.62956511 -0.29732502
vn 0.54938501 0.62956511 -0.54938501
vn 0.90288140 0.21199024 -0.37398572
vn 0.69103550 0.21199024 -0.69103550
vn 0.77694773 0.62956511 0.0000000e+0
vn 0.71780611 0.62956511 -0.29732502
vn 0.97727178 0.21199024 0.0000000e+0
vn 0.90288140 0.21199024 -0.37398572
vn 0.77694773 0.62956511 0.0000000e+0
vn 0.71780611 0.62956511 0.29732502
vn 0.97727178 0.21199024 0.0000000e+0
vn 0.90288140 0.21199024 0.37398572
vn 0.92387953 0.0000000e+0 -0.38268343
vn 1.00000000 0.0000000e+0 0.0000000e+0
vn 0.97727178 -0.21199024 0.0000000e+0
vn 0.90288140 -0.21199024 -0.37398572
vn 0.92387953 0.0000000e+0 0.38268343
vn 1.00000000 0.0000000e+0 0.0000000e+0
vn 0.97727178 -0.21199024 0.0000000e+0
vn 0.90288140 -0.21199024 0.37398572
vn 0.70710678 0.0000000e+0 0.70710678
vn 0.92387953 0.0000000e+0 0.38268343
vn 0.69103550 -0.21199024 0.69103550
vn 0.90288140 -0.21199024 0.37398572
vn 0.38268343 0.0000000e+0 0.92387953
vn 0.70710678 0.0000000e+0 0.70710678
vn 0.37398572 -0.21199024 0.90288140
vn 0.69103550 -0.21199024 0.69103550
vn 0.0000000e+0 0.0000000e+0 1.00000000
vn 0.38268343 0.0000000e+0 0.92387953
vn -3.8156928e-16 -0.21199024 0.97727178
vn 0.37398572 -0.21199024 0.90288140
vn -0.38268343 0.0000000e+0 0.92387953
vn 0.0000000e+0 0.0000000e+0 1.00000000
vn -0.37398572 -0.21199024 0.90288140
vn -3.8156928e-16 -0.21199024 0.97727178
vn -0.70710678 0.0000000e+0 0.70710678
vn -0.38268343 0.0000000e+0 0.92387953
vn -0.69103550 -0.21199024 0.69103550
vn -0.37398572 -0.21199024 0.90288140
vn -0.92387953 0.0000000e+0 0.38268343
vn -0.70710678 0.0000000e+0 0.70710678
vn -0.90288140 -0.21199024 0.37398572
vn -0.69103550 -0.21199024 0.69103550
vn -1.00000000 0.0000000e+0 0.0000000e+0
vn -0.92387953 0.0000000e+0 0.38268343
vn -0.97727178 -0.21199024 0.0000000e+0
vn -0.90288140 -0.21199024 0.37398572
vn -0.92387953 0.0000000e+0 -0.38268343
vn -1.00000000 0.0000000e+0 0.0000000e+0
vn -0.90288140 -0.21199024 -0.37398572
vn -0.97727178 -0.21199024 0.0000000e+0
vn -0.70710678 0.0000000e+0 -0.70710678
vn -0.92387953 0.0000000e+0 -0.38268343
vn -0.69103550 -0.21199024 -0.69103550
vn -0.90288140 -0.21199024 -0.37398572
vn -0.38268343 0.0000000e+0 -0.92387953
vn -0.70710678 0.0000000e+0 -0.70710678
vn -0.37398572 -0.21199024 -0.90288140
vn -0.69103550 -0.21199024 -0.69103550
vn 0.0000000e+0 0.0000000e+0 -1.00000000
vn -0.38268343 0.0000000e+0 -0.92387953
vn 3.8156928e-16 -0.21199024 -0.97727178
vn -0.37398572 -0.21199024 -0.90288140
vn 0.38268343 0.0000000e+0 -0.92387953
vn 0.0000000e+0 0.0000000e+0 -1.00000000
vn 0.37398572 -0.21199024 -0.90288140
vn 3.8156928e-16 -0.21199024 -0.97727178
vn 0.70710678 0.0000000e+0 -0.70710678
vn 0.38268343 0.0000000e+0 -0.92387953
vn 0.69103550 -0.21199024 -0.69103550
vn 0.37398572 -0.21199024 -0.90288140
vn 0.92387953 0.0000000e+0 -0.38268343
vn 0.70710678 0.0000000e+0 -0.70710678
vn 0.90288140 -0.21199024 -0.37398572
vn 0.69103550 -0.21199024 -0.69103550
vn 0.0000000e+0 -1.00000000 7.9380879e-17
vn 0.77694773 -0.62956511 0.0000000e+0
vn 0.71780611 -0.62956511 0.29732502
vn 0.0000000e+0 -1.00000000 7.9380879e-17
vn 0.77694773 -0.62956511 0.0000000e+0
vn 0.71780611 -0.62956511 -0.29732502
vn 0.0000000e+0 -1.00000000 7.9380879e-17
vn 0.71780611 -0.62956511 -0.29732502
vn 0.54938501 -0.62956511 -0.54938501
vn 0.0000000e+0 -1.00000000 7.9380879e-17
vn 0.54938501 -0.62956511 -0.54938501
vn 0.29732502 -0.62956511 -0.71780611
vn 0.0000000e+0 -1.00000000 7.9380879e-17
vn 0.29732502 -0.62956511 -0.71780611
vn 3.1891586e-16 -0.62956511 -0.77694773
vn 0.0000000e+0 -1.00000000 7.9380879e-17
vn 3.1891586e-16 -0.62956511 -0.77694773
vn -0.29732502 -0.62956511 -0.71780611
vn 0.0000000e+0 -1.00000000 7.9380879e-17
vn -0.29732502 -0.62956511 -0.71780611
vn -0.54938501 -0.62956511 -0.54938501
vn 0.0000000e+0 -1.00000000 7.9380879e-17
vn -0.54938501 -0.62956511 -0.54938501
vn -0.71780611 -0.62956511 -0.29732502
vn 0.0000000e+0 -1.00000000 7.9380879e-17
vn -0.71780611 -0.62956511 -0.29732502
vn -0.77694773 -0.62956511 0.0000000e+0
vn 0.0000000e+0 -1.00000000 7.9380879e-17
vn -0.77694773 -0.62956511 0.0000000e+0
vn -0.71780611 -0.62956511 0.29732502
vn 0.0000000e+0 -1.00000000 7.9380879e-17
vn -0.71780611 -0.62956511 0.29732502
vn -0.54938501 -0.62956511 0.54938501
vn 0.0000000e+0 -1.00000000 7.9380879e-17
vn -0.54938501 -0.62956511 0.54938501
vn -0.29732502 -0.62956511 0.71780611
vn 0.0000000e+0 -1.00000000 7.9380879e-17
vn -0.29732502 -0.62956511 0.71780611
vn -3.1891586e-16 -0.62956511 0.77694773
vn 0.0000000e+0 -1.00000000 7.9380879e-17
vn -3.1891586e-16 -0.62956511 0.77694773
vn 0.29732502 -0.62956511 0.71780611
vn 0.0000000e+0 -1.00000000 7.9380879e-17
vn 0.29732502 -0.62956511 0.71780611
vn 0.54938501 -0.62956511 0.54938501
vn 0.0000000e+0 -1.00000000 7.9380879e-17
vn 0.54938501 -0.62956511 0.54938501
vn 0.71780611 -0.62956511 0.29732502
vn 0.54938501 -0.62956511 0.54938501
vn 0.71780611 -0.62956511 0.29732502
vn 0.69103550 -0.21199024 0.69103550
vn 0.90288140 -0.21199024 0.37398572
vn 0.29732502 -0.62956511 0.71780611
vn 0.54938501 -0.62956511 0.54938501
vn 0.37398572 -0.21199024 0.90288140
vn 0.69103550 -0.21199024 0.69103550
vn -3.1891586e-16 -0.62956511 0.77694773
vn 0.29732502 -0.62956511 0.71780611
vn -3.8156928e-16 -0.21199024 0.97727178
vn 0.37398572 -0.21199024 0.90288140
vn -0.29732502 -0.62956511 0.71780611
vn -3.1891586e-16 -0.62956511 0.77694773
vn -0.37398572 -0.21199024 0.90288140
vn -3.8156928e-16 -0.21199024 0.97727178
vn -0.54938501 -0.62956511 0.54938501
vn -0.29732502 -0.62956511 0.71780611
vn -0.69103550 -0.21199024 0.69103550
vn -0.37398572 -0.21199024 0.90288140
vn -0.71780611 -0.62956511 0.29732502
vn -0.54938501 -0.62956511 0.54938501
vn -0.90288140 -0.21199024 0.37398572
vn -0.69103550 -0.21199024 0.69103550
vn -0.77694773 -0.62956511 0.0000000e+0
vn -0.71780611 -0.62956511 0.29732502
vn -0.97727178 -0.21199024 0.0000000e+0
vn -0.90288140 -0.21199024 0.37398572
vn -0.71780611 -0.62956511 -0.29732502
vn -0.77694773 -0.62956511 0.0000000e+0
vn -0.90288140 -0.21199024 -0.37398572
vn -0.97727178 -0.21199024 0.0000000e+0
vn -0.54938501 -0.62956511 -0.54938501
vn -0.71780611 -0.62956511 -0.29732502
vn -0.69103550 -0.21199024 -0.69103550
vn -0.90288140 -0.21199024 -0.37398572
vn -0.29732502 -0.62956511 -0.71780611
vn -0.54938501 -0.62956511 -0.54938501
vn -0.37398572 -0.21199024 -0.90288140
vn -0.69103550 -0.21199024 -0.69103550
vn 3.1891586e-16 -0.62956511 -0.77694773
vn -0.29732502 -0.62956511 -0.71780611
vn 3.8156928e-16 -0.21199024 -0.97727178
vn -0.37398572 -0.21199024 -0.90288140
vn 0.29732502 -0.62956511 -0.71780611
vn 3.1891586e-16 -0.62956511 -0.77694773
vn 0.37398572 -0.21199024 -0.90288140
vn 3.8156928e-16 -0.21199024 -0.97727178
vn 0.54938501 -0.62956511 -0.54938501
vn 0.29732502 -0.62956511 -0.71780611
vn 0.69103550 -0.21199024 -0.69103550
vn 0.37398572 -0.21199024 -0.90288140
vn 0.71780611 -0.62956511 -0.29732502
vn 0.54938501 -0.62956511 -0.54938501
vn 0.90288140 -0.21199024 -0.37398572
vn 0.69103550 -0.21199024 -0.69103550
vn 0.77694773 -0.62956511 0.0000000e+0
vn 0.71780611 -0.62956511 -0.29732502
vn 0.97727178 -0.21199024 0.0000000e+0
vn 0.90288140 -0.21199024 -0.37398572
vn 0.77694773 -0.62956511 0.0000000e+0
vn 0.71780611 -0.62956511 0.29732502
vn 0.97727178 -0.21199024 0.0000000e+0
vn 0.90288140 -0.21199024 0.37398572
g collider_default
usemtl default
s 1
f 3//12 19//70 67//218 66//213 18//67 2//7
f 3//9 49//147 50//152 4//14
f 5//17 51//155 52//160 6//22
f 8//32 24//80 72//238 71//233 23//77 7//27
f 8//29 54//167 55//172 9//34
f 10//40 26//84 74//246 73//241 25//81 9//35
f 12//48 28//88 76//254 75//249 27//85 11//43
f 14//56 30//92 78//262 77//257 29//89 13//51
f 16//64 32//96 80//270 79//265 31//93 15//59
f 16//62 62//199 63//204 1//3
f 33//98 64//205 63//201 34//101
f 36//108 61//194 60//189 37//110
f 38//114 59//186 58//181 39//116
f 40//120 57//178 56//173 41//122
f 43//129 54//166 53//161 44//131
f 46//138 51//154 50//149 47//140
f 66//215 112//383 111//379 65//211
f 69//228 99//332 98//327 68//223
f 71//236 101//340 100//335 70//231
f 75//252 105//356 104//351 74//247
f 77//260 107//364 106//359 76//255
f 81//275 112//382 97//322 96//320
f 83//280 110//373 111//378 82//278
f 85//286 108//365 109//370 84//284
f 88//295 105//353 106//358 87//293
f 91//304 102//341 103//346 90//302
f 94//313 99//329 100//334 93//311
s 2
f 1//2 63//203 64//207 2//5
f 4//16 20//72 68//222 67//217 19//69 3//11
f 4//13 50//151 51//156 5//18
f 6//21 52//159 53//164 7//26
f 9//36 25//82 73//242 72//237 24//79 8//31
f 11//44 27//86 75//250 74//245 26//83 10//39
f 11//41 57//179 58//184 12//46
f 13//52 29//90 77//258 76//253 28//87 12//47
f 14//53 60//191 61//196 15//58
f 35//105 62//198 61//193 36//107
f 37//111 60//190 59//185 38//113
f 41//123 56//174 55//169 42//125
f 45//135 52//158 51//153 46//137
f 48//144 49//146 64//206 33//99
f 65//212 111//380 110//375 80//271
f 67//220 97//324 112//384 66//216
f 70//232 100//336 99//331 69//227
f 72//240 102//344 101//339 71//235
f 76//256 106//360 105//355 75//251
f 79//268 109//372 108//367 78//263
f 82//277 111//377 112//381 81//274
f 84//283 109//369 110//374 83//281
f 87//292 106//357 107//362 86//290
f 90//301 103//345 104//350 89//299
f 93//310 100//333 101//338 92//308
f 96//319 97//321 98//326 95//317
s 3
f 2//8 18//68 66//214 65//210 17//66 1//4
f 2//6 64//208 49//148 3//10
f 5//20 21//74 69//226 68//221 20//71 4//15
f 7//28 23//78 71//234 70//229 22//75 6//23
f 7//25 53//163 54//168 8//30
f 9//33 55//171 56//176 10//38
f 13//49 59//187 60//192 14//54
f 15//60 31//94 79//266 78//261 30//91 14//55
f 15//57 61//195 62//200 16//63
f 34//100 35//103 36//106 37//109 38//112 39//115 40//118 41//121 42//124 43//127 44//130 45//133 46//136 47//139 48//142 33//97
f 68//224 98//328 97//323 67//219
f 73//244 103//348 102//343 72//239
f 78//264 108//368 107//363 77//259
f 80//272 110//376 109//371 79//267
f 81//273 96//318 95//315 94//312 93//309 92//306 91//303 90//300 89//297 88//294 87//291 86//288 85//285 84//282 83//279 82//276
s 4
f 1//1 17//65 65//209 80//269 32//95 16//61
f 6//24 22//76 70//230 69//225 21//73 5//19
f 10//37 56//175 57//180 11//42
f 12//45 58//183 59//188 13//50
f 34//102 63//202 62//197 35//104
f 39//117 58//182 57//177 40//119
f 42//126 55//170 54//165 43//128
f 44//132 53//162 52//157 45//134
f 47//141 50//150 49//145 48//143
f 74//248 104//352 103//347 73//243
f 86//289 107//361 108//366 85//287
f 89//298 104//349 105//354 88//296
f 92//307 101//337 102//342 91//305
f 95//316 98//325 99//330 94//314
