# Exported from Wings 3D 1.5.4
mtllib light.mtl
o 1
#98 vertices, 112 faces
v 3.7500000e-2 3.7500000e-2 -4.1802286e-17
v 3.4645482e-2 3.7500000e-2 1.4350629e-2
v 2.6516504e-2 3.7500000e-2 2.6516504e-2
v 1.4350629e-2 3.7500000e-2 3.4645482e-2
v -4.4578494e-17 3.7500000e-2 3.7500000e-2
v -1.4350629e-2 3.7500000e-2 3.4645482e-2
v -2.6516504e-2 3.7500000e-2 2.6516504e-2
v -3.4645482e-2 3.7500000e-2 1.4350629e-2
v -3.7500000e-2 3.7500000e-2 -3.7209860e-17
v -3.4645482e-2 3.7500000e-2 -1.4350629e-2
v -2.6516504e-2 3.7500000e-2 -2.6516504e-2
v -1.4350629e-2 3.7500000e-2 -3.4645482e-2
v -5.3763345e-17 3.7500000e-2 -3.7500000e-2
v 1.4350629e-2 3.7500000e-2 -3.4645482e-2
v 2.6516504e-2 3.7500000e-2 -2.6516504e-2
v 3.4645482e-2 3.7500000e-2 -1.4350629e-2
v 4.3750000e-2 0.0000000e+0 -4.1470733e-17
v 4.0419730e-2 0.0000000e+0 1.6742400e-2
v 3.0935922e-2 0.0000000e+0 3.0935922e-2
v 1.6742400e-2 0.0000000e+0 4.0419730e-2
v -4.3768306e-17 0.0000000e+0 4.3750000e-2
v -1.6742400e-2 0.0000000e+0 4.0419730e-2
v -3.0935922e-2 0.0000000e+0 3.0935922e-2
v -4.0419730e-2 0.0000000e+0 1.6742400e-2
v -4.3750000e-2 0.0000000e+0 -3.6112903e-17
v -4.0419730e-2 0.0000000e+0 -1.6742400e-2
v -3.0935922e-2 0.0000000e+0 -3.0935922e-2
v -1.6742400e-2 0.0000000e+0 -4.0419730e-2
v -5.4483966e-17 0.0000000e+0 -4.3750000e-2
v 1.6742400e-2 0.0000000e+0 -4.0419730e-2
v 3.0935922e-2 0.0000000e+0 -3.0935922e-2
v 4.0419730e-2 0.0000000e+0 -1.6742400e-2
v 3.1250000e-2 3.7500000e-2 -4.7293586e-17
v 2.8871235e-2 3.7500000e-2 1.1958857e-2
v 2.2097087e-2 3.7500000e-2 2.2097087e-2
v 1.1958857e-2 3.7500000e-2 2.8871235e-2
v -4.1684604e-17 3.7500000e-2 3.1250000e-2
v -1.1958857e-2 3.7500000e-2 2.8871235e-2
v -2.2097087e-2 3.7500000e-2 2.2097087e-2
v -2.8871235e-2 3.7500000e-2 1.1958857e-2
v -3.1250000e-2 3.7500000e-2 -4.0023492e-17
v -2.8871235e-2 3.7500000e-2 -1.1958857e-2
v -2.2097087e-2 3.7500000e-2 -2.2097087e-2
v -1.1958857e-2 3.7500000e-2 -2.8871235e-2
v -5.2781719e-17 3.7500000e-2 -3.1250000e-2
v 1.1958857e-2 3.7500000e-2 -2.8871235e-2
v 2.2097087e-2 3.7500000e-2 -2.2097087e-2
v 2.8871235e-2 3.7500000e-2 -1.1958857e-2
v -4.6403853e-17 3.7500000e-2 -4.4361101e-17
v -4.9873300e-17 0.0000000e+0 -4.2175465e-17
v 3.1250000e-2 2.5000000e-2 -4.7293586e-17
v 2.8871235e-2 2.5000000e-2 1.1958857e-2
v 2.2097087e-2 2.5000000e-2 2.2097087e-2
v 1.1958857e-2 2.5000000e-2 2.8871235e-2
v -4.1684604e-17 2.5000000e-2 3.1250000e-2
v -1.1958857e-2 2.5000000e-2 2.8871235e-2
v -2.2097087e-2 2.5000000e-2 2.2097087e-2
v -2.8871235e-2 2.5000000e-2 1.1958857e-2
v -3.1250000e-2 2.5000000e-2 -4.0023492e-17
v -2.8871235e-2 2.5000000e-2 -1.1958857e-2
v -2.2097087e-2 2.5000000e-2 -2.2097087e-2
v -1.1958857e-2 2.5000000e-2 -2.8871235e-2
v -5.2781719e-17 2.5000000e-2 -3.1250000e-2
v 1.1958857e-2 2.5000000e-2 -2.8871235e-2
v 2.2097087e-2 2.5000000e-2 -2.2097087e-2
v 2.8871235e-2 2.5000000e-2 -1.1958857e-2
v 1.5549826e-2 3.2060271e-2 1.5549826e-2
v 8.4155053e-3 3.2060271e-2 2.0316827e-2
v -4.3301055e-17 3.2060271e-2 2.1990775e-2
v -8.4155053e-3 3.2060271e-2 2.0316827e-2
v -1.5549826e-2 3.2060271e-2 1.5549826e-2
v -2.0316827e-2 3.2060271e-2 8.4155053e-3
v -2.1990775e-2 3.2060271e-2 -4.0862209e-17
v -2.0316827e-2 3.2060271e-2 -8.4155053e-3
v -1.5549826e-2 3.2060271e-2 -1.5549826e-2
v -8.4155053e-3 3.2060271e-2 -2.0316827e-2
v -5.1002708e-17 3.2060271e-2 -2.1990775e-2
v 8.4155053e-3 3.2060271e-2 -2.0316827e-2
v 1.5549826e-2 3.2060271e-2 -1.5549826e-2
v 2.0316827e-2 3.2060271e-2 8.4155053e-3
v 2.0316827e-2 3.2060271e-2 -8.4155053e-3
v 2.1990775e-2 3.2060271e-2 -4.6489564e-17
v 1.0693082e-2 3.6226938e-2 4.4292196e-3
v 8.1841306e-3 3.6226938e-2 -8.1841306e-3
v 4.4292196e-3 3.6226938e-2 -1.0693082e-2
v -4.8811701e-17 3.6226938e-2 -1.1574109e-2
v -4.4292196e-3 3.6226938e-2 -1.0693082e-2
v -8.1841306e-3 3.6226938e-2 -8.1841306e-3
v -1.0693082e-2 3.6226938e-2 -4.4292196e-3
v -1.1574109e-2 3.6226938e-2 -4.2936916e-17
v -1.0693082e-2 3.6226938e-2 4.4292196e-3
v -8.1841306e-3 3.6226938e-2 8.1841306e-3
v -4.4292196e-3 3.6226938e-2 1.0693082e-2
v -4.4852454e-17 3.6226938e-2 1.1574109e-2
v 4.4292196e-3 3.6226938e-2 1.0693082e-2
v 8.1841306e-3 3.6226938e-2 8.1841306e-3
v 1.0693082e-2 3.6226938e-2 -4.4292196e-3
v 1.1574109e-2 3.6226938e-2 -4.6878163e-17
vt 0.14566768 0.72021756
vt 0.14807285 0.11233751
vt 0.14807285 0.20337360
vt 0.14807285 0.11233751
vt 0.14807285 0.20337360
vt 0.14807285 0.11233751
vt 0.14807285 0.20337360
vt 0.14807285 0.11233751
vt 0.14807285 0.11233751
vt 0.14807285 0.11233751
vt 0.14807285 0.11233751
vt 0.14807285 0.20337360
vt 0.14807285 0.20337360
vt 0.14807285 0.11233751
vt 0.14807285 0.11233751
vt 0.14807285 0.20337360
vt 0.14807285 0.11233751
vt 0.14807285 0.11233751
vt 0.14807285 0.20337360
vt 0.14807285 0.20337360
vt 0.14807285 0.11233751
vt 0.15711621 0.66266194
vt 0.15792258 0.77760690
vt 0.18954860 0.61390245
vt 0.19103587 0.82590656
vt 0.19588957 0.71986524
vt 0.19851817 0.11992385
vt 0.19851817 0.11992385
vt 0.19851817 0.19578726
vt 0.19851817 0.19578726
vt 0.19851817 0.11992385
vt 0.19851817 0.19578726
vt 0.19851817 0.11992385
vt 0.19851817 0.11992385
vt 0.19851817 0.11992385
vt 0.19851817 0.19578726
vt 0.19851817 0.19578726
vt 0.19851817 0.19578726
vt 0.19851817 0.11992385
vt 0.19851817 0.11992385
vt 0.19851817 0.19578726
vt 0.19851817 0.19578726
vt 0.19851817 0.11992385
vt 0.19851817 0.11992385
vt 0.19851817 0.19578726
vt 0.19851817 0.19578726
vt 0.19851817 0.11992385
vt 0.19851817 0.11992385
vt 0.19851817 0.19578726
vt 0.20352192 0.68149482
vt 0.20405950 0.75812480
vt 0.22514351 0.64898850
vt 0.22613503 0.79032457
vt 0.23803827 0.58121425
vt 0.23997939 0.85791124
vt 0.24611145 0.71951292
vt 0.24992762 0.70032771
vt 0.25019642 0.73864270
vt 0.25746996 0.62719637
vt 0.25876404 0.81166102
vt 0.26073842 0.68407455
vt 0.26123418 0.75474258
vt 0.27629077 0.11992385
vt 0.27629077 0.19578726
vt 0.27629077 0.11992385
vt 0.27629077 0.19578726
vt 0.27629077 0.11992385
vt 0.27629077 0.19578726
vt 0.27629077 0.11992385
vt 0.27629077 0.19578726
vt 0.27629077 0.19578726
vt 0.27629077 0.11992385
vt 0.27629077 0.11992385
vt 0.27629077 0.19578726
vt 0.27629077 0.11992385
vt 0.27629077 0.11992385
vt 0.27629077 0.11992385
vt 0.27629077 0.19578726
vt 0.27629077 0.19578726
vt 0.27629077 0.19578726
vt 0.27629077 0.19578726
vt 0.27629077 0.19578726
vt 0.27629077 0.11992385
vt 0.27629077 0.11992385
vt 0.27629077 0.11992385
vt 0.27629077 0.11992385
vt 0.27629077 0.19578726
vt 0.27690165 0.67317848
vt 0.27754869 0.76541081
vt 0.29528319 0.56946706
vt 0.29563324 0.61936491
vt 0.29598328 0.66926275
vt 0.29633333 0.71916060
vt 0.29668338 0.76905844
vt 0.29703343 0.81895629
vt 0.29738348 0.86885413
vt 0.31511798 0.67291038
vt 0.31576502 0.76514271
vt 0.33143249 0.68357861
vt 0.33192825 0.75424664
vt 0.33390263 0.62666017
vt 0.33519671 0.81112482
vt 0.34247025 0.69967849
vt 0.34273904 0.73799348
vt 0.34655522 0.71880827
vt 0.35268728 0.58040996
vt 0.35462839 0.85710694
vt 0.36653164 0.64799662
vt 0.36752316 0.78933269
vt 0.38860717 0.68019639
vt 0.38914475 0.75682637
vt 0.39677710 0.71845595
vt 0.40163079 0.61241463
vt 0.40311807 0.82441874
vt 0.43474408 0.66071429
vt 0.43555046 0.77565925
vt 0.44699898 0.71810363
vt 0.57347228 0.21087122
vt 0.57347228 0.10483990
vt 0.57347228 0.21087122
vt 0.57347228 0.21087122
vt 0.57347228 0.10483990
vt 0.57347228 0.21087122
vt 0.57347228 0.21087122
vt 0.57347228 0.10483990
vt 0.57347228 0.10483990
vt 0.57347228 0.10483990
vt 0.57347228 0.10483990
vt 0.57347228 0.10483990
vt 0.57347228 0.10483990
vt 0.57347228 0.10483990
vt 0.57347228 0.21087122
vt 0.57347228 0.21087122
vt 0.57347228 0.21087122
vt 0.57347228 0.21087122
vt 0.57347228 0.10483990
vt 0.61652739 0.62766972
vt 0.61652739 0.71850695
vt 0.61652739 0.80934418
vt 0.61652739 0.62766972
vt 0.61652739 0.71850695
vt 0.61652739 0.80934418
vt 0.61652739 0.62766972
vt 0.61652739 0.62766972
vt 0.61652739 0.62766972
vt 0.61652739 0.71850695
vt 0.61652739 0.71850695
vt 0.61652739 0.80934418
vt 0.61652739 0.80934418
vt 0.84000000 0.15785556
vt 0.84000000 0.15785556
vt 0.84000000 0.15785556
vt 0.84000000 0.15785556
vt 0.84000000 0.15785556
vt 0.84000000 0.15785556
vt 0.84000000 0.15785556
vt 0.84000000 0.15785556
vt 0.84000000 0.15785556
vt 0.86000000 0.61253018
vt 0.86000000 0.61253018
vt 0.86000000 0.61253018
vt 0.86000000 0.61253018
vt 0.86000000 0.71850695
vt 0.86000000 0.71850695
vt 0.86000000 0.71850695
vt 0.86000000 0.82448372
vt 0.86000000 0.82448372
vt 0.86000000 0.82448372
vt 0.86000000 0.82448372
vn 0.0000000e+0 1.00000000 2.7558631e-16
vn 0.0000000e+0 -1.00000000 0.0000000e+0
vn 0.34869124 0.86995910 0.34869124
vn 0.18871034 0.86995910 0.45558706
vn -1.4075890e-17 0.86995910 0.49312389
vn -0.18871034 0.86995910 0.45558706
vn -0.34869124 0.86995910 0.34869124
vn -0.45558706 0.86995910 0.18871034
vn -0.49312389 0.86995910 1.9002451e-16
vn -0.45558706 0.86995910 -0.18871034
vn -0.34869124 0.86995910 -0.34869124
vn -0.18871034 0.86995910 -0.45558706
vn -1.1964506e-16 0.86995910 -0.49312389
vn 0.18871034 0.86995910 -0.45558706
vn 0.34869124 0.86995910 -0.34869124
vn 0.45558706 0.86995910 0.18871034
vn 0.45558706 0.86995910 -0.18871034
vn 0.49312389 0.86995910 -4.5746642e-17
vn 0.22396712 0.97017133 9.2770220e-2
vn 0.17141701 0.97017133 -0.17141701
vn 9.2770220e-2 0.97017133 -0.22396712
vn -6.9257540e-17 0.97017133 -0.24242027
vn -9.2770220e-2 0.97017133 -0.22396712
vn -0.17141701 0.97017133 -0.17141701
vn -0.22396712 0.97017133 -9.2770220e-2
vn -0.24242027 0.97017133 7.4517606e-17
vn -0.22396712 0.97017133 9.2770220e-2
vn -0.17141701 0.97017133 0.17141701
vn -9.2770220e-2 0.97017133 0.22396712
vn -3.5067109e-18 0.97017133 0.24242027
vn 9.2770220e-2 0.97017133 0.22396712
vn 0.17141701 0.97017133 0.17141701
vn 0.22396712 0.97017133 -9.2770220e-2
vn 0.24242027 0.97017133 -3.1560398e-17
vn 0.98639392 0.16439899 -7.0711952e-17
vn 0.98639392 0.16439899 -7.0711952e-17
vn -2.2204460e-15 1.00000000 2.7117094e-31
vn -2.2204460e-15 1.00000000 2.7117094e-31
vn 0.91130916 0.16439899 0.37747661
vn 0.91130916 0.16439899 0.37747661
vn -2.0514247e-15 1.00000000 -8.4972792e-16
vn -2.0514247e-15 1.00000000 -8.4972792e-16
vn 0.69748583 0.16439899 0.69748583
vn 0.69748583 0.16439899 0.69748583
vn -1.5700925e-15 1.00000000 -1.5700925e-15
vn -1.5700925e-15 1.00000000 -1.5700925e-15
vn 0.37747661 0.16439899 0.91130916
vn 0.37747661 0.16439899 0.91130916
vn -8.4972792e-16 1.00000000 -2.0514247e-15
vn -8.4972792e-16 1.00000000 -2.0514247e-15
vn 0.0000000e+0 0.16439899 0.98639392
vn 0.0000000e+0 0.16439899 0.98639392
vn -2.4651903e-32 1.00000000 -2.2204460e-15
vn -2.4651903e-32 1.00000000 -2.2204460e-15
vn -0.37747661 0.16439899 0.91130916
vn -0.37747661 0.16439899 0.91130916
vn 8.4972792e-16 1.00000000 -2.0514247e-15
vn 8.4972792e-16 1.00000000 -2.0514247e-15
vn -0.69748583 0.16439899 0.69748583
vn -0.69748583 0.16439899 0.69748583
vn 1.5700925e-15 1.00000000 -1.5700925e-15
vn 1.5700925e-15 1.00000000 -1.5700925e-15
vn -0.91130916 0.16439899 0.37747661
vn -0.91130916 0.16439899 0.37747661
vn 2.0514247e-15 1.00000000 -8.4972792e-16
vn 2.0514247e-15 1.00000000 -8.4972792e-16
vn -0.98639392 0.16439899 2.1213585e-16
vn -0.98639392 0.16439899 2.1213585e-16
vn 2.2204460e-15 1.00000000 -6.1629758e-31
vn 2.2204460e-15 1.00000000 -6.1629758e-31
vn -0.91130916 0.16439899 -0.37747661
vn -0.91130916 0.16439899 -0.37747661
vn 2.0514247e-15 1.00000000 8.4972792e-16
vn 2.0514247e-15 1.00000000 8.4972792e-16
vn -0.69748583 0.16439899 -0.69748583
vn -0.69748583 0.16439899 -0.69748583
vn 1.5700925e-15 1.00000000 1.5700925e-15
vn 1.5700925e-15 1.00000000 1.5700925e-15
vn -0.37747661 0.16439899 -0.91130916
vn -0.37747661 0.16439899 -0.91130916
vn 8.4972792e-16 1.00000000 2.0514247e-15
vn 8.4972792e-16 1.00000000 2.0514247e-15
vn -2.2627824e-16 0.16439899 -0.98639392
vn -2.2627824e-16 0.16439899 -0.98639392
vn 6.1629758e-31 1.00000000 2.2204460e-15
vn 6.1629758e-31 1.00000000 2.2204460e-15
vn 0.37747661 0.16439899 -0.91130916
vn 0.37747661 0.16439899 -0.91130916
vn -8.4972792e-16 1.00000000 2.0514247e-15
vn -8.4972792e-16 1.00000000 2.0514247e-15
vn 0.69748583 0.16439899 -0.69748583
vn 0.69748583 0.16439899 -0.69748583
vn -1.5700925e-15 1.00000000 1.5700925e-15
vn -1.5700925e-15 1.00000000 1.5700925e-15
vn 0.91130916 0.16439899 -0.37747661
vn 0.91130916 0.16439899 -0.37747661
vn -2.0514247e-15 1.00000000 8.4972792e-16
vn -2.0514247e-15 1.00000000 8.4972792e-16
vn 0.98639392 0.16439899 -7.0711952e-17
vn 0.98639392 0.16439899 -7.0711952e-17
vn 0.0000000e+0 -1.00000000 0.0000000e+0
vn 0.0000000e+0 -1.00000000 0.0000000e+0
vn 0.91130916 0.16439899 0.37747661
vn 0.91130916 0.16439899 0.37747661
vn 0.0000000e+0 -1.00000000 0.0000000e+0
vn 0.0000000e+0 -1.00000000 0.0000000e+0
vn 0.69748583 0.16439899 0.69748583
vn 0.69748583 0.16439899 0.69748583
vn 0.0000000e+0 -1.00000000 0.0000000e+0
vn 0.0000000e+0 -1.00000000 0.0000000e+0
vn 0.37747661 0.16439899 0.91130916
vn 0.37747661 0.16439899 0.91130916
vn 0.0000000e+0 -1.00000000 0.0000000e+0
vn 0.0000000e+0 -1.00000000 0.0000000e+0
vn 0.0000000e+0 0.16439899 0.98639392
vn 0.0000000e+0 0.16439899 0.98639392
vn 0.0000000e+0 -1.00000000 0.0000000e+0
vn 0.0000000e+0 -1.00000000 0.0000000e+0
vn -0.37747661 0.16439899 0.91130916
vn -0.37747661 0.16439899 0.91130916
vn 0.0000000e+0 -1.00000000 0.0000000e+0
vn 0.0000000e+0 -1.00000000 0.0000000e+0
vn -0.69748583 0.16439899 0.69748583
vn -0.69748583 0.16439899 0.69748583
vn 0.0000000e+0 -1.00000000 0.0000000e+0
vn 0.0000000e+0 -1.00000000 0.0000000e+0
vn -0.91130916 0.16439899 0.37747661
vn -0.91130916 0.16439899 0.37747661
vn 0.0000000e+0 -1.00000000 0.0000000e+0
vn 0.0000000e+0 -1.00000000 0.0000000e+0
vn -0.98639392 0.16439899 2.1213585e-16
vn -0.98639392 0.16439899 2.1213585e-16
vn 0.0000000e+0 -1.00000000 0.0000000e+0
vn 0.0000000e+0 -1.00000000 0.0000000e+0
vn -0.91130916 0.16439899 -0.37747661
vn -0.91130916 0.16439899 -0.37747661
vn 0.0000000e+0 -1.00000000 0.0000000e+0
vn 0.0000000e+0 -1.00000000 0.0000000e+0
vn -0.69748583 0.16439899 -0.69748583
vn -0.69748583 0.16439899 -0.69748583
vn 0.0000000e+0 -1.00000000 0.0000000e+0
vn 0.0000000e+0 -1.00000000 0.0000000e+0
vn -0.37747661 0.16439899 -0.91130916
vn -0.37747661 0.16439899 -0.91130916
vn 0.0000000e+0 -1.00000000 0.0000000e+0
vn 0.0000000e+0 -1.00000000 0.0000000e+0
vn -2.2627824e-16 0.16439899 -0.98639392
vn -2.2627824e-16 0.16439899 -0.98639392
vn 0.0000000e+0 -1.00000000 0.0000000e+0
vn 0.0000000e+0 -1.00000000 0.0000000e+0
vn 0.37747661 0.16439899 -0.91130916
vn 0.37747661 0.16439899 -0.91130916
vn 0.0000000e+0 -1.00000000 0.0000000e+0
vn 0.0000000e+0 -1.00000000 0.0000000e+0
vn 0.69748583 0.16439899 -0.69748583
vn 0.69748583 0.16439899 -0.69748583
vn 0.0000000e+0 -1.00000000 0.0000000e+0
vn 0.0000000e+0 -1.00000000 0.0000000e+0
vn 0.91130916 0.16439899 -0.37747661
vn 0.91130916 0.16439899 -0.37747661
vn 0.0000000e+0 -1.00000000 0.0000000e+0
vn 0.0000000e+0 -1.00000000 0.0000000e+0
vn -2.2204460e-15 1.00000000 2.7117094e-31
vn -2.2204460e-15 1.00000000 2.7117094e-31
vn -1.00000000 0.0000000e+0 1.4149670e-16
vn -1.00000000 0.0000000e+0 1.4149670e-16
vn -2.0514247e-15 1.00000000 -8.4972792e-16
vn -2.0514247e-15 1.00000000 -8.4972792e-16
vn -0.92387953 0.0000000e+0 -0.38268343
vn -0.92387953 0.0000000e+0 -0.38268343
vn -1.5700925e-15 1.00000000 -1.5700925e-15
vn -1.5700925e-15 1.00000000 -1.5700925e-15
vn -0.70710678 0.0000000e+0 -0.70710678
vn -0.70710678 0.0000000e+0 -0.70710678
vn -8.4972792e-16 1.00000000 -2.0514247e-15
vn -8.4972792e-16 1.00000000 -2.0514247e-15
vn -0.38268343 0.0000000e+0 -0.92387953
vn -0.38268343 0.0000000e+0 -0.92387953
vn -2.4651903e-32 1.00000000 -2.2204460e-15
vn -2.4651903e-32 1.00000000 -2.2204460e-15
vn 1.4149670e-17 0.0000000e+0 -1.00000000
vn 1.4149670e-17 0.0000000e+0 -1.00000000
vn 8.4972792e-16 1.00000000 -2.0514247e-15
vn 8.4972792e-16 1.00000000 -2.0514247e-15
vn 0.38268343 0.0000000e+0 -0.92387953
vn 0.38268343 0.0000000e+0 -0.92387953
vn 1.5700925e-15 1.00000000 -1.5700925e-15
vn 1.5700925e-15 1.00000000 -1.5700925e-15
vn 0.70710678 0.0000000e+0 -0.70710678
vn 0.70710678 0.0000000e+0 -0.70710678
vn 2.0514247e-15 1.00000000 -8.4972792e-16
vn 2.0514247e-15 1.00000000 -8.4972792e-16
vn 0.92387953 0.0000000e+0 -0.38268343
vn 0.92387953 0.0000000e+0 -0.38268343
vn 2.2204460e-15 1.00000000 -6.1629758e-31
vn 2.2204460e-15 1.00000000 -6.1629758e-31
vn 1.00000000 0.0000000e+0 -3.8204108e-16
vn 1.00000000 0.0000000e+0 -3.8204108e-16
vn 2.0514247e-15 1.00000000 8.4972792e-16
vn 2.0514247e-15 1.00000000 8.4972792e-16
vn 0.92387953 0.0000000e+0 0.38268343
vn 0.92387953 0.0000000e+0 0.38268343
vn 1.5700925e-15 1.00000000 1.5700925e-15
vn 1.5700925e-15 1.00000000 1.5700925e-15
vn 0.70710678 0.0000000e+0 0.70710678
vn 0.70710678 0.0000000e+0 0.70710678
vn 8.4972792e-16 1.00000000 2.0514247e-15
vn 8.4972792e-16 1.00000000 2.0514247e-15
vn 0.38268343 0.0000000e+0 0.92387953
vn 0.38268343 0.0000000e+0 0.92387953
vn 6.1629758e-31 1.00000000 2.2204460e-15
vn 6.1629758e-31 1.00000000 2.2204460e-15
vn 2.8299339e-16 0.0000000e+0 1.00000000
vn 2.8299339e-16 0.0000000e+0 1.00000000
vn -8.4972792e-16 1.00000000 2.0514247e-15
vn -8.4972792e-16 1.00000000 2.0514247e-15
vn -0.38268343 0.0000000e+0 0.92387953
vn -0.38268343 0.0000000e+0 0.92387953
vn -1.5700925e-15 1.00000000 1.5700925e-15
vn -1.5700925e-15 1.00000000 1.5700925e-15
vn -0.70710678 0.0000000e+0 0.70710678
vn -0.70710678 0.0000000e+0 0.70710678
vn -2.0514247e-15 1.00000000 8.4972792e-16
vn -2.0514247e-15 1.00000000 8.4972792e-16
vn -0.92387953 0.0000000e+0 0.38268343
vn -0.92387953 0.0000000e+0 0.38268343
vn 0.60634876 0.79519883 -2.7956725e-17
vn -1.00000000 0.0000000e+0 1.4149670e-16
vn -1.00000000 0.0000000e+0 1.4149670e-16
vn 0.60634876 0.79519883 -2.7956725e-17
vn -0.92387953 0.0000000e+0 -0.38268343
vn -0.92387953 0.0000000e+0 -0.38268343
vn 0.56019321 0.79519883 0.23203962
vn 0.56019321 0.79519883 0.23203962
vn 0.42875332 0.79519883 0.42875332
vn -0.70710678 0.0000000e+0 -0.70710678
vn -0.70710678 0.0000000e+0 -0.70710678
vn 0.42875332 0.79519883 0.42875332
vn 0.23203962 0.79519883 0.56019321
vn 0.23203962 0.79519883 0.56019321
vn -0.38268343 0.0000000e+0 -0.92387953
vn -0.38268343 0.0000000e+0 -0.92387953
vn -2.0967543e-17 0.79519883 0.60634876
vn -2.0967543e-17 0.79519883 0.60634876
vn 1.4149670e-17 0.0000000e+0 -1.00000000
vn 1.4149670e-17 0.0000000e+0 -1.00000000
vn -0.23203962 0.79519883 0.56019321
vn -0.23203962 0.79519883 0.56019321
vn 0.38268343 0.0000000e+0 -0.92387953
vn 0.38268343 0.0000000e+0 -0.92387953
vn -0.42875332 0.79519883 0.42875332
vn -0.42875332 0.79519883 0.42875332
vn 0.70710678 0.0000000e+0 -0.70710678
vn 0.70710678 0.0000000e+0 -0.70710678
vn -0.56019321 0.79519883 0.23203962
vn -0.56019321 0.79519883 0.23203962
vn 0.92387953 0.0000000e+0 -0.38268343
vn 0.92387953 0.0000000e+0 -0.38268343
vn -0.60634876 0.79519883 2.2365380e-16
vn -0.60634876 0.79519883 2.2365380e-16
vn 1.00000000 0.0000000e+0 -3.8204108e-16
vn 1.00000000 0.0000000e+0 -3.8204108e-16
vn -0.56019321 0.79519883 -0.23203962
vn -0.56019321 0.79519883 -0.23203962
vn 0.92387953 0.0000000e+0 0.38268343
vn 0.92387953 0.0000000e+0 0.38268343
vn -0.42875332 0.79519883 -0.42875332
vn -0.42875332 0.79519883 -0.42875332
vn 0.70710678 0.0000000e+0 0.70710678
vn 0.70710678 0.0000000e+0 0.70710678
vn -0.23203962 0.79519883 -0.56019321
vn -0.23203962 0.79519883 -0.56019321
vn 0.38268343 0.0000000e+0 0.92387953
vn 0.38268343 0.0000000e+0 0.92387953
vn -1.3279444e-16 0.79519883 -0.60634876
vn -1.3279444e-16 0.79519883 -0.60634876
vn 2.8299339e-16 0.0000000e+0 1.00000000
vn 2.8299339e-16 0.0000000e+0 1.00000000
vn 0.23203962 0.79519883 -0.56019321
vn 0.23203962 0.79519883 -0.56019321
vn -0.38268343 0.0000000e+0 0.92387953
vn -0.38268343 0.0000000e+0 0.92387953
vn 0.42875332 0.79519883 -0.42875332
vn 0.42875332 0.79519883 -0.42875332
vn -0.70710678 0.0000000e+0 0.70710678
vn -0.70710678 0.0000000e+0 0.70710678
vn 0.56019321 0.79519883 -0.23203962
vn 0.56019321 0.79519883 -0.23203962
vn -0.92387953 0.0000000e+0 0.38268343
vn -0.92387953 0.0000000e+0 0.38268343
g 1_1_auv
usemtl 1_auv
s 1
f 1/9/38 33/33/164 34/37/167 2/13/41
f 2/18/42 34/43/168 35/45/171 3/19/45
f 3/21/46 35/47/172 36/49/175 4/16/49
f 4/6/50 36/31/176 37/32/179 5/7/53
f 5/4/54 37/28/180 38/29/183 6/5/57
f 6/2/58 38/27/184 39/30/187 7/3/61
f 7/10/62 39/34/188 40/36/191 8/12/65
f 8/11/66 40/35/192 41/37/195 9/12/69
f 9/17/70 41/44/196 42/46/199 10/20/73
f 10/14/74 42/39/200 43/42/203 11/16/77
f 11/15/78 43/48/204 44/49/207 12/16/81
f 12/14/82 44/39/208 45/41/211 13/16/85
f 13/9/86 45/33/212 46/36/215 14/13/89
f 14/8/90 46/40/216 47/41/219 15/16/93
f 15/6/94 47/31/220 48/32/224 16/7/98
f 16/10/97 48/34/223 33/38/163 1/12/37
f 17/122/102 50/156/2 32/120/162
f 18/120/105 50/156/2 17/128/101
f 19/136/109 50/154/2 18/135/106
f 20/132/113 50/150/2 19/131/110
f 21/126/117 50/155/2 20/123/114
f 22/121/121 50/152/2 21/127/118
f 23/122/125 50/158/2 22/120/122
f 24/118/129 50/154/2 23/128/126
f 25/119/133 50/153/2 24/120/130
f 26/120/137 50/153/2 25/119/134
f 27/136/141 50/154/2 26/135/138
f 28/135/145 50/153/2 27/136/142
f 29/126/149 50/157/2 28/123/146
f 30/124/153 50/153/2 29/125/150
f 31/129/157 50/151/2 30/134/154
f 32/133/161 50/156/2 31/130/158
f 49/93/1 83/103/19 98/105/34
f 49/93/1 96/99/32 83/103/19
f 52/115/234 51/117/230 82/112/18 80/110/16
f 54/106/240 53/113/235 67/108/3 68/101/4
f 55/90/244 54/106/239 68/101/4 69/91/5
f 56/54/248 55/90/243 69/91/5 70/59/6
f 57/24/252 56/54/247 70/59/6 71/52/7
f 58/22/256 57/24/251 71/52/7 72/50/8
f 59/1/260 58/22/255 72/50/8 73/26/9
f 60/23/264 59/1/259 73/26/9 74/51/10
f 61/25/268 60/23/263 74/51/10 75/53/11
f 62/55/272 61/25/267 75/53/11 76/60/12
f 63/96/276 62/55/271 76/60/12 77/95/13
f 64/107/280 63/96/275 77/95/13 78/102/14
f 65/114/284 64/107/279 78/102/14 79/109/15
f 66/116/288 81/111/17 82/112/18 51/117/227
f 67/108/3 80/110/16 83/103/19 96/99/32
f 79/109/15 81/111/17 66/116/287 65/114/283
f 80/110/16 67/108/3 53/113/238 52/115/233
f 80/110/16 82/112/18 98/105/34 83/103/19
f 81/111/17 97/104/33 98/105/34 82/112/18
f 84/100/20 85/98/21 49/93/1
f 84/100/20 97/104/33 81/111/17 79/109/15
f 85/98/21 84/100/20 79/109/15 78/102/14
f 85/98/21 86/94/22 49/93/1
f 86/94/22 85/98/21 78/102/14 77/95/13
f 86/94/22 87/89/23 49/93/1
f 87/89/23 86/94/22 77/95/13 76/60/12
f 87/89/23 88/62/24 49/93/1
f 88/62/24 87/89/23 76/60/12 75/53/11
f 88/62/24 89/58/25 49/93/1
f 89/58/25 88/62/24 75/53/11 74/51/10
f 89/58/25 90/56/26 49/93/1
f 90/56/26 89/58/25 74/51/10 73/26/9
f 90/56/26 91/57/27 49/93/1
f 91/57/27 90/56/26 73/26/9 72/50/8
f 91/57/27 92/61/28 49/93/1
f 92/61/28 91/57/27 72/50/8 71/52/7
f 92/61/28 93/88/29 49/93/1
f 93/88/29 92/61/28 71/52/7 70/59/6
f 93/88/29 94/92/30 49/93/1
f 94/92/30 93/88/29 70/59/6 69/91/5
f 94/92/30 95/97/31 49/93/1
f 95/97/31 94/92/30 69/91/5 68/101/4
f 95/97/31 96/99/32 49/93/1
f 96/99/32 95/97/31 68/101/4 67/108/3
f 97/104/33 84/100/20 49/93/1
f 98/105/34 97/104/33 49/93/1
s 2
f 1/146/35 17/164/99 32/167/159 16/149/95
f 2/143/40 18/159/104 17/164/100 1/146/36
f 3/138/44 19/163/108 18/160/103 2/137/39
f 4/139/48 20/166/112 19/163/107 3/138/43
f 5/146/52 21/163/116 20/166/111 4/149/47
f 6/145/56 22/160/120 21/163/115 5/146/51
f 7/141/60 23/163/124 22/160/119 6/140/55
f 8/142/64 24/168/128 23/163/123 7/141/59
f 9/146/68 25/164/132 24/167/127 8/149/63
f 10/143/72 26/161/136 25/164/131 9/146/67
f 11/141/76 27/165/140 26/160/135 10/140/71
f 12/142/80 28/166/144 27/165/139 11/141/75
f 13/146/84 29/164/148 28/169/143 12/149/79
f 14/143/88 30/159/152 29/164/147 13/146/83
f 15/147/92 31/165/156 30/162/151 14/144/87
f 16/148/96 32/166/160 31/165/155 15/147/91
f 33/33/165 51/77/228 52/71/232 34/37/170
f 34/43/169 52/83/231 53/78/236 35/45/173
f 35/47/174 53/85/237 54/81/241 36/49/177
f 36/31/178 54/67/242 55/68/246 37/32/182
f 37/28/181 55/65/245 56/66/250 38/29/186
f 38/27/185 56/63/249 57/64/253 39/30/189
f 39/34/190 57/76/254 58/70/258 40/36/194
f 40/35/193 58/69/257 59/79/262 41/37/198
f 41/44/197 59/84/261 60/80/265 42/46/201
f 42/39/202 60/72/266 61/74/270 43/42/206
f 43/48/205 61/86/269 62/87/274 44/49/210
f 44/39/209 62/72/273 63/74/278 45/41/214
f 45/33/213 63/75/277 64/70/281 46/36/217
f 46/40/218 64/73/282 65/82/285 47/41/221
f 47/31/222 65/67/286 66/68/290 48/32/226
f 48/34/225 66/76/289 51/70/229 33/38/166
