# Exported from Wings 3D 1.5.4
mtllib vega_adapter_s1_s0_1.mtl
o mesh1
#48 vertices, 24 faces
v 0.31250000 0.12500000 -3.7779552e-18
v 0.30185182 0.12500000 8.0880952e-2
v 0.27063294 0.12500000 0.15625000
v 0.22097087 0.12500000 0.22097087
v 0.15625000 0.12500000 0.27063294
v 8.0880952e-2 0.12500000 0.30185182
v -5.5458003e-17 0.12500000 0.31250000
v -8.0880952e-2 0.12500000 0.30185182
v -0.15625000 0.12500000 0.27063294
v -0.22097087 0.12500000 0.22097087
v -0.27063294 0.12500000 0.15625000
v -0.30185182 0.12500000 8.0880952e-2
v -0.31250000 0.12500000 3.4492257e-17
v -0.30185182 0.12500000 -8.0880952e-2
v -0.27063294 0.12500000 -0.15625000
v -0.22097087 0.12500000 -0.22097087
v -0.15625000 0.12500000 -0.27063294
v -8.0880952e-2 0.12500000 -0.30185182
v -1.3199843e-16 0.12500000 -0.31250000
v 8.0880952e-2 0.12500000 -0.30185182
v 0.15625000 0.12500000 -0.27063294
v 0.22097087 0.12500000 -0.22097087
v 0.27063294 0.12500000 -0.15625000
v 0.30185182 0.12500000 -8.0880952e-2
v 0.62500000 -0.12500000 -1.2576745e-17
v 0.60370364 -0.12500000 0.16176190
v 0.54126588 -0.12500000 0.31250000
v 0.44194174 -0.12500000 0.44194174
v 0.31250000 -0.12500000 0.54126588
v 0.16176190 -0.12500000 0.60370364
v -1.3771492e-17 -0.12500000 0.62500000
v -0.16176190 -0.12500000 0.60370364
v -0.31250000 -0.12500000 0.54126588
v -0.44194174 -0.12500000 0.44194174
v -0.54126588 -0.12500000 0.31250000
v -0.60370364 -0.12500000 0.16176190
v -0.62500000 -0.12500000 6.3963680e-17
v -0.60370364 -0.12500000 -0.16176190
v -0.54126588 -0.12500000 -0.31250000
v -0.44194174 -0.12500000 -0.44194174
v -0.31250000 -0.12500000 -0.54126588
v -0.16176190 -0.12500000 -0.60370364
v -1.6685234e-16 -0.12500000 -0.62500000
v 0.16176190 -0.12500000 -0.60370364
v 0.31250000 -0.12500000 -0.54126588
v 0.44194174 -0.12500000 -0.44194174
v 0.54126588 -0.12500000 -0.31250000
v 0.60370364 -0.12500000 -0.16176190
vt 0.61861956 0.17459108
vt 0.61861956 0.17459108
vt 0.63356968 0.17459108
vt 0.63356968 0.17459108
vt 0.64278610 0.21311884
vt 0.64278610 0.21311884
vt 0.64278610 0.21311884
vt 0.64990700 0.17459108
vt 0.64990700 0.17459108
vt 0.65026116 0.21311884
vt 0.65026116 0.21311884
vt 0.65026116 0.21311884
vt 0.65842982 0.21311884
vt 0.65842982 0.21311884
vt 0.65842982 0.21311884
vt 0.66695264 0.17459108
vt 0.66695264 0.21311884
vt 0.66695264 0.17459108
vt 0.66695264 0.21311884
vt 0.66695264 0.17459108
vt 0.66695264 0.21311884
vt 0.67547545 0.21311884
vt 0.67547545 0.21311884
vt 0.68364411 0.21311884
vt 0.68364411 0.21311884
vt 0.68364411 0.21311884
vt 0.68399827 0.17459108
vt 0.68399827 0.17459108
vt 0.68399827 0.17459108
vt 0.69111918 0.21311884
vt 0.69111918 0.21311884
vt 0.69111918 0.21311884
vt 0.70033559 0.17459108
vt 0.70033559 0.17459108
vt 0.71528572 0.17459108
vt 0.71528572 0.17459108
vn 0.62469505 0.78086881 -8.3547854e-17
vn 0.62469505 0.78086881 -8.3547854e-17
vn 0.60340908 0.78086881 0.16168298
vn 0.60340908 0.78086881 0.16168298
vn 0.54100178 0.78086881 0.31234752
vn 0.54100178 0.78086881 0.31234752
vn 0.44172610 0.78086881 0.44172610
vn 0.44172610 0.78086881 0.44172610
vn 0.31234752 0.78086881 0.54100178
vn 0.31234752 0.78086881 0.54100178
vn 0.16168298 0.78086881 0.60340908
vn 0.16168298 0.78086881 0.60340908
vn 1.8798267e-16 0.78086881 0.62469505
vn 1.8798267e-16 0.78086881 0.62469505
vn -0.16168298 0.78086881 0.60340908
vn -0.16168298 0.78086881 0.60340908
vn -0.31234752 0.78086881 0.54100178
vn -0.31234752 0.78086881 0.54100178
vn -0.44172610 0.78086881 0.44172610
vn -0.44172610 0.78086881 0.44172610
vn -0.54100178 0.78086881 0.31234752
vn -0.54100178 0.78086881 0.31234752
vn -0.60340908 0.78086881 0.16168298
vn -0.60340908 0.78086881 0.16168298
vn -0.62469505 0.78086881 3.5507838e-16
vn -0.62469505 0.78086881 3.5507838e-16
vn -0.60340908 0.78086881 -0.16168298
vn -0.60340908 0.78086881 -0.16168298
vn -0.54100178 0.78086881 -0.31234752
vn -0.54100178 0.78086881 -0.31234752
vn -0.44172610 0.78086881 -0.44172610
vn -0.44172610 0.78086881 -0.44172610
vn -0.31234752 0.78086881 -0.54100178
vn -0.31234752 0.78086881 -0.54100178
vn -0.16168298 0.78086881 -0.60340908
vn -0.16168298 0.78086881 -0.60340908
vn -2.8545517e-16 0.78086881 -0.62469505
vn -2.8545517e-16 0.78086881 -0.62469505
vn 0.16168298 0.78086881 -0.60340908
vn 0.16168298 0.78086881 -0.60340908
vn 0.31234752 0.78086881 -0.54100178
vn 0.31234752 0.78086881 -0.54100178
vn 0.44172610 0.78086881 -0.44172610
vn 0.44172610 0.78086881 -0.44172610
vn 0.54100178 0.78086881 -0.31234752
vn 0.54100178 0.78086881 -0.31234752
vn 0.60340908 0.78086881 -0.16168298
vn 0.60340908 0.78086881 -0.16168298
vn 0.62469505 0.78086881 -8.3547854e-17
vn 0.62469505 0.78086881 -8.3547854e-17
vn 0.60340908 0.78086881 0.16168298
vn 0.60340908 0.78086881 0.16168298
vn 0.54100178 0.78086881 0.31234752
vn 0.54100178 0.78086881 0.31234752
vn 0.44172610 0.78086881 0.44172610
vn 0.44172610 0.78086881 0.44172610
vn 0.31234752 0.78086881 0.54100178
vn 0.31234752 0.78086881 0.54100178
vn 0.16168298 0.78086881 0.60340908
vn 0.16168298 0.78086881 0.60340908
vn 1.8798267e-16 0.78086881 0.62469505
vn 1.8798267e-16 0.78086881 0.62469505
vn -0.16168298 0.78086881 0.60340908
vn -0.16168298 0.78086881 0.60340908
vn -0.31234752 0.78086881 0.54100178
vn -0.31234752 0.78086881 0.54100178
vn -0.44172610 0.78086881 0.44172610
vn -0.44172610 0.78086881 0.44172610
vn -0.54100178 0.78086881 0.31234752
vn -0.54100178 0.78086881 0.31234752
vn -0.60340908 0.78086881 0.16168298
vn -0.60340908 0.78086881 0.16168298
vn -0.62469505 0.78086881 3.5507838e-16
vn -0.62469505 0.78086881 3.5507838e-16
vn -0.60340908 0.78086881 -0.16168298
vn -0.60340908 0.78086881 -0.16168298
vn -0.54100178 0.78086881 -0.31234752
vn -0.54100178 0.78086881 -0.31234752
vn -0.44172610 0.78086881 -0.44172610
vn -0.44172610 0.78086881 -0.44172610
vn -0.31234752 0.78086881 -0.54100178
vn -0.31234752 0.78086881 -0.54100178
vn -0.16168298 0.78086881 -0.60340908
vn -0.16168298 0.78086881 -0.60340908
vn -2.8545517e-16 0.78086881 -0.62469505
vn -2.8545517e-16 0.78086881 -0.62469505
vn 0.16168298 0.78086881 -0.60340908
vn 0.16168298 0.78086881 -0.60340908
vn 0.31234752 0.78086881 -0.54100178
vn 0.31234752 0.78086881 -0.54100178
vn 0.44172610 0.78086881 -0.44172610
vn 0.44172610 0.78086881 -0.44172610
vn 0.54100178 0.78086881 -0.31234752
vn 0.54100178 0.78086881 -0.31234752
vn 0.60340908 0.78086881 -0.16168298
vn 0.60340908 0.78086881 -0.16168298
g mesh1_vega_adapter_s1_s0_1_auv
usemtl vega_adapter_s1_s0_1_auv
s 2
f 1/7/1 25/2/49 48/4/95 24/12/47
f 2/11/4 26/3/52 25/1/50 1/5/2
f 3/14/6 27/8/54 26/3/51 2/11/3
f 4/19/8 28/18/56 27/8/53 3/14/5
f 5/22/10 29/27/58 28/18/55 4/19/7
f 6/24/12 30/33/60 29/27/57 5/22/9
f 7/31/14 31/35/62 30/33/59 6/24/11
f 8/24/16 32/33/64 31/35/61 7/30/13
f 9/22/18 33/28/66 32/33/63 8/24/15
f 10/17/20 34/16/68 33/28/65 9/22/17
f 11/13/22 35/8/70 34/16/67 10/17/19
f 12/10/24 36/3/72 35/8/69 11/13/21
f 13/5/26 37/1/74 36/3/71 12/10/23
f 14/11/28 38/3/76 37/1/73 13/6/25
f 15/14/30 39/8/78 38/3/75 14/11/27
f 16/17/32 40/16/80 39/8/77 15/14/29
f 17/22/34 41/27/82 40/16/79 16/17/31
f 18/25/36 42/33/84 41/27/81 17/22/33
f 19/31/38 43/35/86 42/33/83 18/25/35
f 20/26/40 44/34/88 43/36/85 19/32/37
f 21/23/42 45/29/90 44/34/87 20/26/39
f 22/21/44 46/20/92 45/29/89 21/23/41
f 23/15/46 47/9/94 46/20/91 22/21/43
f 24/12/48 48/4/96 47/9/93 23/15/45
