# Exported from Wings 3D 1.5.4
mtllib octans_rcs_linear_srf_1.mtl
o mesh
#61 vertices, 54 faces
v 1.8750000e-2 0.0000000e+0 -1.0000000e-1
v 1.6237976e-2 -9.3750000e-3 -1.0000000e-1
v 9.3750000e-3 -1.6237976e-2 -1.0000000e-1
v 1.1102230e-16 -1.8750000e-2 -1.0000000e-1
v -9.3750000e-3 -1.6237976e-2 -1.0000000e-1
v -1.6237976e-2 -9.3750000e-3 -1.0000000e-1
v -1.8750000e-2 0.0000000e+0 -1.0000000e-1
v -1.6237976e-2 9.3750000e-3 -1.0000000e-1
v -9.3750000e-3 1.6237976e-2 -1.0000000e-1
v 1.1102230e-16 1.8750000e-2 -1.0000000e-1
v 9.3750000e-3 1.6237976e-2 -1.0000000e-1
v 1.6237976e-2 9.3750000e-3 -1.0000000e-1
v 2.5000000e-2 0.0000000e+0 -0.13750000
v 2.1650635e-2 -1.2500000e-2 -0.13750000
v 1.2500000e-2 -2.1650635e-2 -0.13750000
v 1.1102230e-16 -2.5000000e-2 -0.13750000
v -1.2500000e-2 -2.1650635e-2 -0.13750000
v -2.1650635e-2 -1.2500000e-2 -0.13750000
v -2.5000000e-2 0.0000000e+0 -0.13750000
v -2.1650635e-2 1.2500000e-2 -0.13750000
v -1.2500000e-2 2.1650635e-2 -0.13750000
v 1.1102230e-16 2.5000000e-2 -0.13750000
v 1.2500000e-2 2.1650635e-2 -0.13750000
v 2.1650635e-2 1.2500000e-2 -0.13750000
v 1.8750000e-2 0.0000000e+0 -0.13750000
v 1.6237976e-2 -9.3750000e-3 -0.13750000
v 9.3750000e-3 -1.6237976e-2 -0.13750000
v 1.1102230e-16 -1.8750000e-2 -0.13750000
v -9.3750000e-3 -1.6237976e-2 -0.13750000
v -1.6237976e-2 -9.3750000e-3 -0.13750000
v -1.8750000e-2 0.0000000e+0 -0.13750000
v -1.6237976e-2 9.3750000e-3 -0.13750000
v -9.3750000e-3 1.6237976e-2 -0.13750000
v 1.1102230e-16 1.8750000e-2 -0.13750000
v 9.3750000e-3 1.6237976e-2 -0.13750000
v 1.6237976e-2 9.3750000e-3 -0.13750000
v 1.1102230e-16 0.0000000e+0 -0.11250000
v -3.7500000e-2 -3.0000000e-2 -2.5000000e-2
v -3.0000000e-2 -3.7500000e-2 -2.5000000e-2
v -3.0000000e-2 -3.7500000e-2 2.5000000e-2
v -3.7500000e-2 -3.0000000e-2 2.5000000e-2
v -3.7500000e-2 3.0000000e-2 -2.5000000e-2
v -3.0000000e-2 3.7500000e-2 -2.5000000e-2
v -3.7500000e-2 3.0000000e-2 2.5000000e-2
v -3.0000000e-2 3.7500000e-2 2.5000000e-2
v 3.0000000e-2 -3.7500000e-2 -2.5000000e-2
v 3.7500000e-2 -3.0000000e-2 -2.5000000e-2
v 3.0000000e-2 -3.7500000e-2 2.5000000e-2
v 3.7500000e-2 -3.0000000e-2 2.5000000e-2
v 3.7500000e-2 3.0000000e-2 -2.5000000e-2
v 3.0000000e-2 3.7500000e-2 -2.5000000e-2
v 3.7500000e-2 3.0000000e-2 2.5000000e-2
v 3.0000000e-2 3.7500000e-2 2.5000000e-2
v -3.1250000e-2 -2.3750000e-2 -0.10000000
v -2.3750000e-2 -3.1250000e-2 -0.10000000
v -2.3750000e-2 3.1250000e-2 -0.10000000
v -3.1250000e-2 2.3750000e-2 -0.10000000
v 3.1250000e-2 2.3750000e-2 -0.10000000
v 2.3750000e-2 3.1250000e-2 -0.10000000
v 2.3750000e-2 -3.1250000e-2 -0.10000000
v 3.1250000e-2 -2.3750000e-2 -0.10000000
vt 0.42900931 0.61973635
vt 0.42900931 0.67349618
vt 0.43572929 0.61301637
vt 0.43572929 0.68021615
vt 0.48948912 0.61301637
vt 0.48948912 0.68021615
vt 0.49620910 0.61973635
vt 0.49620910 0.67349618
vt 0.57424997 0.76346034
vt 0.57445557 0.76346034
vt 0.57453913 0.71872751
vt 0.57460553 0.71879617
vt 0.57460553 0.76350712
vt 0.57460553 0.76350712
vt 0.57474472 0.71872751
vt 0.57570331 0.87541509
vt 0.57570331 0.91797496
vt 0.58095232 0.83100753
vt 0.58095232 0.83100753
vt 0.58114927 0.83086579
vt 0.58135486 0.83086579
vt 0.58242328 0.86869511
vt 0.58242328 0.92469493
vt 0.60326277 0.24278720
vt 0.60581024 0.30332602
vt 0.60881831 0.29209976
vt 0.60881831 0.31455228
vt 0.60951277 0.21349033
vt 0.60951277 0.21349033
vt 0.61142337 0.30332602
vt 0.61149483 0.24278720
vt 0.61367942 0.29490632
vt 0.61367942 0.31174572
vt 0.61568682 0.21349033
vt 0.61703650 0.28388156
vt 0.61703650 0.32277047
vt 0.61984307 0.28874268
vt 0.61984307 0.31790936
vt 0.61984833 0.24278720
vt 0.61984833 0.24278720
vt 0.62118726 0.83086579
vt 0.62137683 0.83100753
vt 0.62137683 0.83100753
vt 0.62139286 0.83086579
vt 0.62195194 0.21349033
vt 0.62274315 0.86869511
vt 0.62274315 0.92469493
vt 0.62763397 0.76346034
vt 0.62783956 0.76346034
vt 0.62792312 0.71872751
vt 0.62799713 0.71879617
vt 0.62799713 0.71879617
vt 0.62799713 0.76350712
vt 0.62799713 0.76350712
vt 0.62812872 0.71872751
vt 0.62826277 0.24278720
vt 0.62826277 0.28087349
vt 0.62826277 0.28648663
vt 0.62826277 0.30332602
vt 0.62826277 0.32016541
vt 0.62826277 0.32577854
vt 0.62826277 0.21349033
vt 0.62826277 0.21349033
vt 0.62826277 0.24278720
vt 0.62865229 0.83086579
vt 0.62883595 0.83100753
vt 0.62885789 0.83086579
vt 0.62946313 0.87541509
vt 0.62946313 0.91797496
vt 0.63457359 0.21349033
vt 0.63509899 0.76346034
vt 0.63530459 0.76346034
vt 0.63538815 0.71872751
vt 0.63545625 0.71879617
vt 0.63545625 0.76350712
vt 0.63545625 0.76350712
vt 0.63559375 0.71872751
vt 0.63667720 0.24278720
vt 0.63667720 0.24278720
vt 0.63668246 0.28874268
vt 0.63668246 0.31790936
vt 0.63948903 0.28388156
vt 0.63948903 0.32277047
vt 0.64083872 0.21349033
vt 0.64083872 0.21349033
vt 0.64284611 0.29490632
vt 0.64284611 0.31174572
vt 0.64503070 0.24278720
vt 0.64503070 0.24278720
vt 0.64510216 0.30332602
vt 0.64701277 0.21349033
vt 0.64701277 0.21349033
vt 0.64770722 0.29209976
vt 0.64770722 0.31455228
vt 0.65071529 0.30332602
vt 0.65326277 0.24278720
vn 0.98639392 2.8708663e-16 0.16439899
vn 0.85424220 -0.49319696 0.16439899
vn 0.49319696 -0.85424220 0.16439899
vn 2.4976537e-15 -0.98639392 0.16439899
vn -0.49319696 -0.85424220 0.16439899
vn -0.85424220 -0.49319696 0.16439899
vn -0.98639392 2.8708663e-16 0.16439899
vn -0.85424220 0.49319696 0.16439899
vn -0.49319696 0.85424220 0.16439899
vn 1.7225198e-16 0.98639392 0.16439899
vn 0.49319696 0.85424220 0.16439899
vn 0.85424220 0.49319696 0.16439899
vn -1.3877648e-15 3.8636632e-16 -1.00000000
vn -0.92265692 -0.38179340 -5.4203395e-2
vn -0.38179340 -0.92265692 -5.4203395e-2
vn -0.92265692 0.38179340 -5.4203395e-2
vn -0.38179340 0.92265692 -5.4203395e-2
vn 0.38179340 -0.92265692 -5.4203395e-2
vn 0.92265692 -0.38179340 -5.4203395e-2
vn 0.92265692 0.38179340 -5.4203395e-2
vn 0.38179340 0.92265692 -5.4203395e-2
vn 0.98639392 2.8708663e-16 0.16439899
vn 0.98639392 2.8708663e-16 0.16439899
vn 0.0000000e+0 0.0000000e+0 -1.00000000
vn 0.0000000e+0 0.0000000e+0 -1.00000000
vn 0.85424220 -0.49319696 0.16439899
vn 0.85424220 -0.49319696 0.16439899
vn 0.0000000e+0 0.0000000e+0 -1.00000000
vn 0.0000000e+0 0.0000000e+0 -1.00000000
vn 0.49319696 -0.85424220 0.16439899
vn 0.49319696 -0.85424220 0.16439899
vn 0.0000000e+0 0.0000000e+0 -1.00000000
vn 0.0000000e+0 0.0000000e+0 -1.00000000
vn 2.4976537e-15 -0.98639392 0.16439899
vn 2.4976537e-15 -0.98639392 0.16439899
vn 0.0000000e+0 0.0000000e+0 -1.00000000
vn 0.0000000e+0 0.0000000e+0 -1.00000000
vn -0.49319696 -0.85424220 0.16439899
vn -0.49319696 -0.85424220 0.16439899
vn 0.0000000e+0 0.0000000e+0 -1.00000000
vn 0.0000000e+0 0.0000000e+0 -1.00000000
vn -0.85424220 -0.49319696 0.16439899
vn -0.85424220 -0.49319696 0.16439899
vn 0.0000000e+0 0.0000000e+0 -1.00000000
vn 0.0000000e+0 0.0000000e+0 -1.00000000
vn -0.98639392 2.8708663e-16 0.16439899
vn -0.98639392 2.8708663e-16 0.16439899
vn 0.0000000e+0 0.0000000e+0 -1.00000000
vn 0.0000000e+0 0.0000000e+0 -1.00000000
vn -0.85424220 0.49319696 0.16439899
vn -0.85424220 0.49319696 0.16439899
vn 0.0000000e+0 0.0000000e+0 -1.00000000
vn 0.0000000e+0 0.0000000e+0 -1.00000000
vn -0.49319696 0.85424220 0.16439899
vn -0.49319696 0.85424220 0.16439899
vn 0.0000000e+0 0.0000000e+0 -1.00000000
vn 0.0000000e+0 0.0000000e+0 -1.00000000
vn 1.7225198e-16 0.98639392 0.16439899
vn 1.7225198e-16 0.98639392 0.16439899
vn 0.0000000e+0 0.0000000e+0 -1.00000000
vn 0.0000000e+0 0.0000000e+0 -1.00000000
vn 0.49319696 0.85424220 0.16439899
vn 0.49319696 0.85424220 0.16439899
vn 0.0000000e+0 0.0000000e+0 -1.00000000
vn 0.0000000e+0 0.0000000e+0 -1.00000000
vn 0.85424220 0.49319696 0.16439899
vn 0.85424220 0.49319696 0.16439899
vn 0.0000000e+0 0.0000000e+0 -1.00000000
vn 0.0000000e+0 0.0000000e+0 -1.00000000
vn 0.0000000e+0 0.0000000e+0 -1.00000000
vn 0.0000000e+0 0.0000000e+0 -1.00000000
vn -0.80000000 0.0000000e+0 -0.60000000
vn -0.80000000 0.0000000e+0 -0.60000000
vn 0.0000000e+0 0.0000000e+0 -1.00000000
vn 0.0000000e+0 0.0000000e+0 -1.00000000
vn -0.69282032 0.40000000 -0.60000000
vn -0.69282032 0.40000000 -0.60000000
vn 0.0000000e+0 0.0000000e+0 -1.00000000
vn 0.0000000e+0 0.0000000e+0 -1.00000000
vn -0.40000000 0.69282032 -0.60000000
vn -0.40000000 0.69282032 -0.60000000
vn 0.0000000e+0 0.0000000e+0 -1.00000000
vn 0.0000000e+0 0.0000000e+0 -1.00000000
vn -1.2206022e-15 0.80000000 -0.60000000
vn -1.2206022e-15 0.80000000 -0.60000000
vn 0.0000000e+0 0.0000000e+0 -1.00000000
vn 0.0000000e+0 0.0000000e+0 -1.00000000
vn 0.40000000 0.69282032 -0.60000000
vn 0.40000000 0.69282032 -0.60000000
vn 0.0000000e+0 0.0000000e+0 -1.00000000
vn 0.0000000e+0 0.0000000e+0 -1.00000000
vn 0.69282032 0.40000000 -0.60000000
vn 0.69282032 0.40000000 -0.60000000
vn 0.0000000e+0 0.0000000e+0 -1.00000000
vn 0.0000000e+0 0.0000000e+0 -1.00000000
vn 0.80000000 0.0000000e+0 -0.60000000
vn 0.80000000 0.0000000e+0 -0.60000000
vn 0.0000000e+0 0.0000000e+0 -1.00000000
vn 0.0000000e+0 0.0000000e+0 -1.00000000
vn 0.69282032 -0.40000000 -0.60000000
vn 0.69282032 -0.40000000 -0.60000000
vn 0.0000000e+0 0.0000000e+0 -1.00000000
vn 0.0000000e+0 0.0000000e+0 -1.00000000
vn 0.40000000 -0.69282032 -0.60000000
vn 0.40000000 -0.69282032 -0.60000000
vn 0.0000000e+0 0.0000000e+0 -1.00000000
vn 0.0000000e+0 0.0000000e+0 -1.00000000
vn -1.2206022e-15 -0.80000000 -0.60000000
vn -1.2206022e-15 -0.80000000 -0.60000000
vn 0.0000000e+0 0.0000000e+0 -1.00000000
vn 0.0000000e+0 0.0000000e+0 -1.00000000
vn -0.40000000 -0.69282032 -0.60000000
vn -0.40000000 -0.69282032 -0.60000000
vn 0.0000000e+0 0.0000000e+0 -1.00000000
vn 0.0000000e+0 0.0000000e+0 -1.00000000
vn -0.69282032 -0.40000000 -0.60000000
vn -0.69282032 -0.40000000 -0.60000000
vn -0.38268343 -0.92387953 0.0000000e+0
vn 9.8340333e-18 0.0000000e+0 1.00000000
vn -0.38268343 -0.92387953 0.0000000e+0
vn 9.8340333e-18 0.0000000e+0 1.00000000
vn -0.92387953 -0.38268343 0.0000000e+0
vn -0.92387953 -0.38268343 0.0000000e+0
vn 9.8340333e-18 0.0000000e+0 1.00000000
vn -0.92387953 0.38268343 0.0000000e+0
vn -0.92387953 0.38268343 0.0000000e+0
vn -0.38268343 0.92387953 0.0000000e+0
vn 9.8340333e-18 0.0000000e+0 1.00000000
vn -0.38268343 0.92387953 0.0000000e+0
vn 0.38268343 -0.92387953 0.0000000e+0
vn 9.8340333e-18 0.0000000e+0 1.00000000
vn 0.38268343 -0.92387953 0.0000000e+0
vn 9.8340333e-18 0.0000000e+0 1.00000000
vn 0.92387953 -0.38268343 0.0000000e+0
vn 0.92387953 -0.38268343 0.0000000e+0
vn 9.8340333e-18 0.0000000e+0 1.00000000
vn 0.92387953 0.38268343 0.0000000e+0
vn 0.92387953 0.38268343 0.0000000e+0
vn 0.38268343 0.92387953 0.0000000e+0
vn 9.8340333e-18 0.0000000e+0 1.00000000
vn 0.38268343 0.92387953 0.0000000e+0
vn 8.5735921e-17 0.0000000e+0 -1.00000000
vn -0.91872520 -0.37978261 -0.10820898
vn -0.91872520 -0.37978261 -0.10820898
vn 8.5735921e-17 0.0000000e+0 -1.00000000
vn -0.37978261 -0.91872520 -0.10820898
vn -0.37978261 -0.91872520 -0.10820898
vn 8.5735921e-17 0.0000000e+0 -1.00000000
vn -0.37978261 0.91872520 -0.10820898
vn -0.37978261 0.91872520 -0.10820898
vn 8.5735921e-17 0.0000000e+0 -1.00000000
vn -0.91872520 0.37978261 -0.10820898
vn -0.91872520 0.37978261 -0.10820898
vn 8.5735921e-17 0.0000000e+0 -1.00000000
vn 0.91872520 0.37978261 -0.10820898
vn 0.91872520 0.37978261 -0.10820898
vn 8.5735921e-17 0.0000000e+0 -1.00000000
vn 0.37978261 0.91872520 -0.10820898
vn 0.37978261 0.91872520 -0.10820898
vn 8.5735921e-17 0.0000000e+0 -1.00000000
vn 0.37978261 -0.91872520 -0.10820898
vn 0.37978261 -0.91872520 -0.10820898
vn 8.5735921e-17 0.0000000e+0 -1.00000000
vn 0.91872520 -0.37978261 -0.10820898
vn 0.91872520 -0.37978261 -0.10820898
g mesh_mesh_auv
usemtl mesh_auv
s 1
f 1/91/1 13/96/22 24/88/66 12/84/12
f 2/34/2 14/31/27 13/24/23 1/29/1
f 3/45/3 15/39/31 14/31/26 2/34/2
f 4/63/4 16/64/35 15/39/30 3/45/3
f 5/70/5 17/79/39 16/64/34 4/63/4
f 6/85/6 18/89/43 17/79/38 5/70/5
f 7/92/7 19/96/47 18/89/42 6/85/6
f 8/34/8 20/31/51 19/24/46 7/28/7
f 9/45/9 21/40/55 20/31/50 8/34/8
f 10/62/10 22/56/59 21/40/54 9/45/9
f 11/70/11 23/78/63 22/56/58 10/62/10
f 12/84/12 24/88/67 23/78/62 11/70/11
f 25/30/73 37/59/13 36/33/117
f 26/32/76 37/59/13 25/30/72
f 27/37/80 37/59/13 26/32/77
f 28/58/84 37/59/13 27/37/81
f 29/80/88 37/59/13 28/58/85
f 30/86/92 37/59/13 29/80/89
f 31/90/96 37/59/13 30/86/93
f 32/87/100 37/59/13 31/90/97
f 33/81/104 37/59/13 32/87/101
f 34/60/108 37/59/13 33/81/105
f 35/38/112 37/59/13 34/60/109
f 36/33/116 37/59/13 35/38/113
f 48/5/131 49/7/133 52/8/136 53/6/140 45/4/128 44/2/124 41/1/121 40/3/119
f 55/46/145 54/68/142 57/69/151 56/47/148 59/23/157 58/17/154 61/16/163 60/22/160
s 2
f 13/25/25 25/30/71 36/33/115 24/27/69
f 14/26/28 26/32/74 25/30/70 13/25/24
f 15/35/32 27/37/78 26/32/75 14/26/29
f 16/57/36 28/58/82 27/37/79 15/35/33
f 17/82/40 29/80/86 28/58/83 16/57/37
f 18/93/44 30/86/90 29/80/87 17/82/41
f 19/95/48 31/90/94 30/86/91 18/93/45
f 20/94/52 32/87/98 31/90/95 19/95/49
f 21/83/56 33/81/102 32/87/99 20/94/53
f 22/61/60 34/60/106 33/81/103 21/83/57
f 23/36/64 35/38/110 34/60/107 22/61/61
f 24/27/68 36/33/114 35/38/111 23/36/65
f 38/13/14 41/12/122 44/51/125 42/53/16
f 38/71/14 54/65/144 55/41/147 39/48/15
f 39/48/15 40/50/120 41/73/123 38/71/14
f 39/48/15 55/41/146 60/20/161 46/9/18
f 42/53/16 44/51/126 45/74/129 43/75/17
f 42/53/16 57/42/152 54/18/143 38/13/14
f 43/10/17 45/15/127 53/55/139 51/49/21
f 43/75/17 56/66/150 57/42/153 42/53/16
f 46/9/18 48/11/130 40/50/118 39/48/15
f 46/76/18 60/66/162 61/43/165 47/54/19
f 47/54/19 49/52/135 48/74/132 46/76/18
f 47/54/19 61/43/164 58/19/155 50/14/20
f 50/14/20 52/12/137 49/52/134 47/54/19
f 50/72/20 58/67/156 59/44/159 51/49/21
f 51/49/21 53/55/141 52/77/138 50/72/20
f 51/49/21 59/44/158 56/21/149 43/10/17
