# Exported from Wings 3D 1.5.4
mtllib octans_rcs_srf_1.mtl
o mesh
#61 vertices, 54 faces
v -1.1102230e-16 -6.3750000e-2 -3.7500000e-2
v 1.2500000e-2 -6.3750000e-2 -4.0849365e-2
v 2.1650635e-2 -6.3750000e-2 -5.0000000e-2
v 2.5000000e-2 -6.3750000e-2 -6.2500000e-2
v 2.1650635e-2 -6.3750000e-2 -7.5000000e-2
v 1.2500000e-2 -6.3750000e-2 -8.4150635e-2
v -1.1102230e-16 -6.3750000e-2 -8.7500000e-2
v -1.2500000e-2 -6.3750000e-2 -8.4150635e-2
v -2.1650635e-2 -6.3750000e-2 -7.5000000e-2
v -2.5000000e-2 -6.3750000e-2 -6.2500000e-2
v -2.1650635e-2 -6.3750000e-2 -5.0000000e-2
v -1.2500000e-2 -6.3750000e-2 -4.0849365e-2
v -1.1102230e-16 -6.3750000e-2 -4.3750000e-2
v 9.3750000e-3 -6.3750000e-2 -4.6262024e-2
v 1.6237976e-2 -6.3750000e-2 -5.3125000e-2
v 1.8750000e-2 -6.3750000e-2 -6.2500000e-2
v 1.6237976e-2 -6.3750000e-2 -7.1875000e-2
v 9.3750000e-3 -6.3750000e-2 -7.8737976e-2
v -1.1102230e-16 -6.3750000e-2 -8.1250000e-2
v -9.3750000e-3 -6.3750000e-2 -7.8737976e-2
v -1.6237976e-2 -6.3750000e-2 -7.1875000e-2
v -1.8750000e-2 -6.3750000e-2 -6.2500000e-2
v -1.6237976e-2 -6.3750000e-2 -5.3125000e-2
v -9.3750000e-3 -6.3750000e-2 -4.6262024e-2
v -1.1102230e-16 -3.8750000e-2 -6.2500000e-2
v -1.0252144e-2 -3.6775723e-2 -4.4742766e-2
v -1.7647997e-2 -3.6018908e-2 -5.2310924e-2
v -2.0208333e-2 -3.5000000e-2 -6.2500000e-2
v -1.7356294e-2 -3.3997934e-2 -7.2520661e-2
v -9.9604007e-3 -3.3274808e-2 -7.9751920e-2
v -1.1102230e-16 -3.3012295e-2 -8.2377049e-2
v 9.9604007e-3 -3.3274808e-2 -7.9751920e-2
v 1.7356294e-2 -3.3997934e-2 -7.2520661e-2
v 2.0208333e-2 -3.5000000e-2 -6.2500000e-2
v 1.7647997e-2 -3.6018908e-2 -5.2310924e-2
v 1.0252144e-2 -3.6775723e-2 -4.4742766e-2
v -1.1102230e-16 -3.7055085e-2 -4.1949153e-2
v -3.7500000e-2 -3.0000000e-2 -2.5000000e-2
v -3.0000000e-2 -3.7500000e-2 -2.5000000e-2
v -3.0000000e-2 -3.7500000e-2 2.5000000e-2
v -3.7500000e-2 -3.0000000e-2 2.5000000e-2
v -3.7500000e-2 3.0000000e-2 -2.5000000e-2
v -3.0000000e-2 3.7500000e-2 -2.5000000e-2
v -3.7500000e-2 3.0000000e-2 2.5000000e-2
v -3.0000000e-2 3.7500000e-2 2.5000000e-2
v 3.0000000e-2 -3.7500000e-2 -2.5000000e-2
v 3.7500000e-2 -3.0000000e-2 -2.5000000e-2
v 3.0000000e-2 -3.7500000e-2 2.5000000e-2
v 3.7500000e-2 -3.0000000e-2 2.5000000e-2
v 3.7500000e-2 3.0000000e-2 -2.5000000e-2
v 3.0000000e-2 3.7500000e-2 -2.5000000e-2
v 3.7500000e-2 3.0000000e-2 2.5000000e-2
v 3.0000000e-2 3.7500000e-2 2.5000000e-2
v -3.1250000e-2 -2.3750000e-2 -0.10000000
v -2.3750000e-2 -3.1250000e-2 -0.10000000
v -2.3750000e-2 3.1250000e-2 -0.10000000
v -3.1250000e-2 2.3750000e-2 -0.10000000
v 3.1250000e-2 2.3750000e-2 -0.10000000
v 2.3750000e-2 3.1250000e-2 -0.10000000
v 2.3750000e-2 -3.1250000e-2 -0.10000000
v 3.1250000e-2 -2.3750000e-2 -0.10000000
vt 0.42900931 0.61973635
vt 0.42900931 0.67349618
vt 0.43116668 0.76346034
vt 0.43145583 0.71872751
vt 0.43572929 0.87541509
vt 0.43572929 0.91797496
vt 0.43572929 0.61301637
vt 0.43572929 0.68021615
vt 0.43806597 0.83086579
vt 0.44244927 0.86869511
vt 0.44244927 0.92469493
vt 0.47810397 0.83086579
vt 0.48276914 0.86869511
vt 0.48276914 0.92469493
vt 0.48455067 0.76346034
vt 0.48483983 0.71872751
vt 0.48556900 0.83086579
vt 0.48948912 0.61301637
vt 0.48948912 0.68021615
vt 0.48948912 0.87541509
vt 0.48948912 0.91797496
vt 0.49201570 0.76346034
vt 0.49230486 0.71872751
vt 0.49620910 0.61973635
vt 0.49620910 0.67349618
vt 0.57387779 0.76346034
vt 0.57402775 0.71879617
vt 0.57402775 0.76350712
vt 0.57402775 0.76350712
vt 0.57416695 0.71872751
vt 0.58037455 0.83100753
vt 0.58037455 0.83100753
vt 0.58077709 0.83086579
vt 0.60326277 0.24278720
vt 0.60581024 0.30332602
vt 0.60771192 0.21349033
vt 0.60838572 0.21349033
vt 0.60881831 0.29209976
vt 0.60881831 0.31455228
vt 0.61142337 0.30332602
vt 0.61149483 0.24278720
vt 0.61149483 0.24278720
vt 0.61367942 0.29490632
vt 0.61367942 0.31174572
vt 0.61451019 0.21349033
vt 0.61490154 0.21349033
vt 0.61703650 0.28388156
vt 0.61703650 0.32277047
vt 0.61984307 0.28874268
vt 0.61984307 0.31790936
vt 0.61984833 0.24278720
vt 0.61984833 0.24278720
vt 0.62079905 0.83100753
vt 0.62079905 0.83100753
vt 0.62081508 0.83086579
vt 0.62140394 0.21349033
vt 0.62151731 0.21349033
vt 0.62726179 0.76346034
vt 0.62741935 0.71879617
vt 0.62741935 0.71879617
vt 0.62741935 0.76350712
vt 0.62741935 0.76350712
vt 0.62755094 0.71872751
vt 0.62825817 0.83100753
vt 0.62826277 0.21349033
vt 0.62826277 0.24278720
vt 0.62826277 0.28087349
vt 0.62826277 0.28648663
vt 0.62826277 0.30332602
vt 0.62826277 0.32016541
vt 0.62826277 0.32577854
vt 0.62826277 0.21349033
vt 0.62826277 0.24278720
vt 0.62828011 0.83086579
vt 0.63472681 0.76346034
vt 0.63487848 0.71879617
vt 0.63487848 0.76350712
vt 0.63487848 0.76350712
vt 0.63500822 0.21349033
vt 0.63501597 0.71872751
vt 0.63512159 0.21349033
vt 0.63667720 0.24278720
vt 0.63668246 0.28874268
vt 0.63668246 0.31790936
vt 0.63948903 0.28388156
vt 0.63948903 0.32277047
vt 0.64162399 0.21349033
vt 0.64201535 0.21349033
vt 0.64284611 0.29490632
vt 0.64284611 0.31174572
vt 0.64503070 0.24278720
vt 0.64510216 0.30332602
vt 0.64770722 0.29209976
vt 0.64770722 0.31455228
vt 0.64813982 0.21349033
vt 0.64881361 0.21349033
vt 0.65071529 0.30332602
vt 0.65326277 0.24278720
vn 7.2936500e-16 -1.00000000 -1.5770054e-17
vn -0.49319696 0.16439899 0.85424220
vn -0.85424220 0.16439899 0.49319696
vn -0.98639392 0.16439899 9.1867721e-16
vn -0.85424220 0.16439899 -0.49319696
vn -0.49319696 0.16439899 -0.85424220
vn -6.3159058e-16 0.16439899 -0.98639392
vn 0.49319696 0.16439899 -0.85424220
vn 0.85424220 0.16439899 -0.49319696
vn 0.98639392 0.16439899 4.3062994e-16
vn 0.85424220 0.16439899 0.49319696
vn 0.49319696 0.16439899 0.85424220
vn -1.4641418e-15 0.16439899 0.98639392
vn -0.92265692 -0.38179340 -5.4203395e-2
vn -0.38179340 -0.92265692 -5.4203395e-2
vn -0.92265692 0.38179340 -5.4203395e-2
vn -0.38179340 0.92265692 -5.4203395e-2
vn 0.38179340 -0.92265692 -5.4203395e-2
vn 0.92265692 -0.38179340 -5.4203395e-2
vn 0.92265692 0.38179340 -5.4203395e-2
vn 0.38179340 0.92265692 -5.4203395e-2
vn 0.0000000e+0 -1.00000000 0.0000000e+0
vn 0.0000000e+0 -1.00000000 0.0000000e+0
vn -1.4641418e-15 0.16439899 0.98639392
vn -1.4641418e-15 0.16439899 0.98639392
vn 0.0000000e+0 -1.00000000 0.0000000e+0
vn 0.0000000e+0 -1.00000000 0.0000000e+0
vn 0.49319696 0.16439899 0.85424220
vn 0.49319696 0.16439899 0.85424220
vn 0.0000000e+0 -1.00000000 0.0000000e+0
vn 0.0000000e+0 -1.00000000 0.0000000e+0
vn 0.85424220 0.16439899 0.49319696
vn 0.85424220 0.16439899 0.49319696
vn 0.0000000e+0 -1.00000000 0.0000000e+0
vn 0.0000000e+0 -1.00000000 0.0000000e+0
vn 0.98639392 0.16439899 4.3062994e-16
vn 0.98639392 0.16439899 4.3062994e-16
vn 0.0000000e+0 -1.00000000 0.0000000e+0
vn 0.0000000e+0 -1.00000000 0.0000000e+0
vn 0.85424220 0.16439899 -0.49319696
vn 0.85424220 0.16439899 -0.49319696
vn 0.0000000e+0 -1.00000000 0.0000000e+0
vn 0.0000000e+0 -1.00000000 0.0000000e+0
vn 0.49319696 0.16439899 -0.85424220
vn 0.49319696 0.16439899 -0.85424220
vn 0.0000000e+0 -1.00000000 0.0000000e+0
vn 0.0000000e+0 -1.00000000 0.0000000e+0
vn -6.3159058e-16 0.16439899 -0.98639392
vn -6.3159058e-16 0.16439899 -0.98639392
vn 0.0000000e+0 -1.00000000 0.0000000e+0
vn 0.0000000e+0 -1.00000000 0.0000000e+0
vn -0.49319696 0.16439899 -0.85424220
vn -0.49319696 0.16439899 -0.85424220
vn 0.0000000e+0 -1.00000000 0.0000000e+0
vn 0.0000000e+0 -1.00000000 0.0000000e+0
vn -0.85424220 0.16439899 -0.49319696
vn -0.85424220 0.16439899 -0.49319696
vn 0.0000000e+0 -1.00000000 0.0000000e+0
vn 0.0000000e+0 -1.00000000 0.0000000e+0
vn -0.98639392 0.16439899 9.1867721e-16
vn -0.98639392 0.16439899 9.1867721e-16
vn 0.0000000e+0 -1.00000000 0.0000000e+0
vn 0.0000000e+0 -1.00000000 0.0000000e+0
vn -0.85424220 0.16439899 0.49319696
vn -0.85424220 0.16439899 0.49319696
vn 0.0000000e+0 -1.00000000 0.0000000e+0
vn 0.0000000e+0 -1.00000000 0.0000000e+0
vn -0.49319696 0.16439899 0.85424220
vn -0.49319696 0.16439899 0.85424220
vn 0.0000000e+0 -1.00000000 0.0000000e+0
vn 0.0000000e+0 -1.00000000 0.0000000e+0
vn 0.0000000e+0 -0.60000000 -0.80000000
vn 0.0000000e+0 -0.60000000 -0.80000000
vn 0.0000000e+0 -1.00000000 0.0000000e+0
vn 0.0000000e+0 -1.00000000 0.0000000e+0
vn -0.40000000 -0.60000000 -0.69282032
vn -0.40000000 -0.60000000 -0.69282032
vn 0.0000000e+0 -1.00000000 0.0000000e+0
vn 0.0000000e+0 -1.00000000 0.0000000e+0
vn -0.69282032 -0.60000000 -0.40000000
vn -0.69282032 -0.60000000 -0.40000000
vn 0.0000000e+0 -1.00000000 0.0000000e+0
vn 0.0000000e+0 -1.00000000 0.0000000e+0
vn -0.80000000 -0.60000000 -7.0965243e-17
vn -0.80000000 -0.60000000 -7.0965243e-17
vn 0.0000000e+0 -1.00000000 0.0000000e+0
vn 0.0000000e+0 -1.00000000 0.0000000e+0
vn -0.69282032 -0.60000000 0.40000000
vn -0.69282032 -0.60000000 0.40000000
vn 0.0000000e+0 -1.00000000 0.0000000e+0
vn 0.0000000e+0 -1.00000000 0.0000000e+0
vn -0.40000000 -0.60000000 0.69282032
vn -0.40000000 -0.60000000 0.69282032
vn 0.0000000e+0 -1.00000000 0.0000000e+0
vn 0.0000000e+0 -1.00000000 0.0000000e+0
vn -1.4334979e-15 -0.60000000 0.80000000
vn -1.4334979e-15 -0.60000000 0.80000000
vn 0.0000000e+0 -1.00000000 0.0000000e+0
vn 0.0000000e+0 -1.00000000 0.0000000e+0
vn 0.40000000 -0.60000000 0.69282032
vn 0.40000000 -0.60000000 0.69282032
vn 0.0000000e+0 -1.00000000 0.0000000e+0
vn 0.0000000e+0 -1.00000000 0.0000000e+0
vn 0.69282032 -0.60000000 0.40000000
vn 0.69282032 -0.60000000 0.40000000
vn 0.0000000e+0 -1.00000000 0.0000000e+0
vn 0.0000000e+0 -1.00000000 0.0000000e+0
vn 0.80000000 -0.60000000 -5.6772195e-16
vn 0.80000000 -0.60000000 -5.6772195e-16
vn 0.0000000e+0 -1.00000000 0.0000000e+0
vn 0.0000000e+0 -1.00000000 0.0000000e+0
vn 0.69282032 -0.60000000 -0.40000000
vn 0.69282032 -0.60000000 -0.40000000
vn 0.0000000e+0 -1.00000000 0.0000000e+0
vn 0.0000000e+0 -1.00000000 0.0000000e+0
vn 0.40000000 -0.60000000 -0.69282032
vn 0.40000000 -0.60000000 -0.69282032
vn -0.38268343 -0.92387953 0.0000000e+0
vn 9.8340333e-18 0.0000000e+0 1.00000000
vn -0.38268343 -0.92387953 0.0000000e+0
vn 9.8340333e-18 0.0000000e+0 1.00000000
vn -0.92387953 -0.38268343 0.0000000e+0
vn -0.92387953 -0.38268343 0.0000000e+0
vn 9.8340333e-18 0.0000000e+0 1.00000000
vn -0.92387953 0.38268343 0.0000000e+0
vn -0.92387953 0.38268343 0.0000000e+0
vn -0.38268343 0.92387953 0.0000000e+0
vn 9.8340333e-18 0.0000000e+0 1.00000000
vn -0.38268343 0.92387953 0.0000000e+0
vn 0.38268343 -0.92387953 0.0000000e+0
vn 9.8340333e-18 0.0000000e+0 1.00000000
vn 0.38268343 -0.92387953 0.0000000e+0
vn 9.8340333e-18 0.0000000e+0 1.00000000
vn 0.92387953 -0.38268343 0.0000000e+0
vn 0.92387953 -0.38268343 0.0000000e+0
vn 9.8340333e-18 0.0000000e+0 1.00000000
vn 0.92387953 0.38268343 0.0000000e+0
vn 0.92387953 0.38268343 0.0000000e+0
vn 0.38268343 0.92387953 0.0000000e+0
vn 9.8340333e-18 0.0000000e+0 1.00000000
vn 0.38268343 0.92387953 0.0000000e+0
vn 8.5735921e-17 0.0000000e+0 -1.00000000
vn -0.91872520 -0.37978261 -0.10820898
vn -0.91872520 -0.37978261 -0.10820898
vn 8.5735921e-17 0.0000000e+0 -1.00000000
vn -0.37978261 -0.91872520 -0.10820898
vn -0.37978261 -0.91872520 -0.10820898
vn 8.5735921e-17 0.0000000e+0 -1.00000000
vn -0.37978261 0.91872520 -0.10820898
vn -0.37978261 0.91872520 -0.10820898
vn 8.5735921e-17 0.0000000e+0 -1.00000000
vn -0.91872520 0.37978261 -0.10820898
vn -0.91872520 0.37978261 -0.10820898
vn 8.5735921e-17 0.0000000e+0 -1.00000000
vn 0.91872520 0.37978261 -0.10820898
vn 0.91872520 0.37978261 -0.10820898
vn 8.5735921e-17 0.0000000e+0 -1.00000000
vn 0.37978261 0.91872520 -0.10820898
vn 0.37978261 0.91872520 -0.10820898
vn 8.5735921e-17 0.0000000e+0 -1.00000000
vn 0.37978261 -0.91872520 -0.10820898
vn 0.37978261 -0.91872520 -0.10820898
vn 8.5735921e-17 0.0000000e+0 -1.00000000
vn 0.91872520 -0.37978261 -0.10820898
vn 0.91872520 -0.37978261 -0.10820898
g mesh_mesh_auv
usemtl mesh_auv
s 1
f 1/97/22 13/92/70 14/89/74 2/93/26
f 2/93/27 14/89/75 15/83/78 3/85/30
f 3/85/31 15/83/79 16/68/82 4/67/34
f 4/67/35 16/68/83 17/49/86 5/47/38
f 5/47/39 17/49/87 18/43/90 6/38/42
f 6/38/43 18/43/91 19/40/94 7/35/46
f 7/35/47 19/40/95 20/44/98 8/39/50
f 8/39/51 20/44/99 21/50/102 9/48/54
f 9/48/55 21/50/103 22/70/106 10/71/58
f 10/71/59 22/70/107 23/84/110 11/86/62
f 11/86/63 23/84/111 24/90/114 12/94/66
f 12/94/67 24/90/115 13/92/71 1/97/23
f 48/18/131 49/24/133 52/25/136 53/19/140 45/8/128 44/2/124 41/1/121 40/7/119
f 55/13/145 54/20/142 57/21/151 56/14/148 59/11/157 58/6/154 61/5/163 60/10/160
s 2
f 1/34/24 37/36/13 26/45/2 12/42/68
f 2/91/29 36/88/12 37/96/13 1/98/25
f 3/82/33 35/81/11 36/88/12 2/91/28
f 4/66/37 34/65/10 35/81/11 3/82/32
f 5/51/41 33/57/9 34/65/10 4/66/36
f 6/41/45 32/46/8 33/57/9 5/51/40
f 7/34/49 31/37/7 32/46/8 6/41/44
f 8/91/53 30/87/6 31/95/7 7/98/48
f 9/82/57 29/79/5 30/87/6 8/91/52
f 10/73/61 28/72/4 29/79/5 9/82/56
f 11/52/65 27/56/3 28/72/4 10/73/60
f 12/42/69 26/45/2 27/56/3 11/52/64
f 13/92/72 25/69/1 14/89/76
f 14/89/77 25/69/1 15/83/80
f 15/83/81 25/69/1 16/68/84
f 16/68/85 25/69/1 17/49/88
f 17/49/89 25/69/1 18/43/92
f 18/43/93 25/69/1 19/40/96
f 19/40/97 25/69/1 20/44/100
f 20/44/101 25/69/1 21/50/104
f 21/50/105 25/69/1 22/70/108
f 22/70/109 25/69/1 23/84/112
f 23/84/113 25/69/1 24/90/116
f 24/90/117 25/69/1 13/92/73
f 38/28/14 41/27/122 44/59/125 42/61/16
f 38/22/14 54/17/144 55/12/147 39/15/15
f 39/15/15 40/16/120 41/23/123 38/22/14
f 39/15/15 55/12/146 60/9/161 46/3/18
f 42/61/16 44/59/126 45/76/129 43/77/17
f 42/61/16 57/53/152 54/31/143 38/28/14
f 43/26/17 45/30/127 53/63/139 51/58/21
f 43/77/17 56/64/150 57/53/153 42/61/16
f 46/3/18 48/4/130 40/16/118 39/15/15
f 46/78/18 60/64/162 61/54/165 47/62/19
f 47/62/19 49/60/135 48/76/132 46/78/18
f 47/62/19 61/54/164 58/32/155 50/29/20
f 50/29/20 52/27/137 49/60/134 47/62/19
f 50/75/20 58/74/156 59/55/159 51/58/21
f 51/58/21 53/63/141 52/80/138 50/75/20
f 51/58/21 59/55/158 56/33/149 43/26/17
