# Exported from Wings 3D 1.5.4
mtllib octans_rcs_srf_1_extended.mtl
o mesh
#98 vertices, 90 faces
v 1.8750000e-2 0.0000000e+0 -1.0000000e-1
v 1.6237976e-2 -9.3750000e-3 -1.0000000e-1
v 9.3750000e-3 -1.6237976e-2 -1.0000000e-1
v 1.1102230e-16 -1.8750000e-2 -1.0000000e-1
v -9.3750000e-3 -1.6237976e-2 -1.0000000e-1
v -1.6237976e-2 -9.3750000e-3 -1.0000000e-1
v -1.8750000e-2 0.0000000e+0 -1.0000000e-1
v -1.6237976e-2 9.3750000e-3 -1.0000000e-1
v -9.3750000e-3 1.6237976e-2 -1.0000000e-1
v 1.1102230e-16 1.8750000e-2 -1.0000000e-1
v 9.3750000e-3 1.6237976e-2 -1.0000000e-1
v 1.6237976e-2 9.3750000e-3 -1.0000000e-1
v 2.5000000e-2 0.0000000e+0 -0.13750000
v 2.1650635e-2 -1.2500000e-2 -0.13750000
v 1.2500000e-2 -2.1650635e-2 -0.13750000
v 1.1102230e-16 -2.5000000e-2 -0.13750000
v -1.2500000e-2 -2.1650635e-2 -0.13750000
v -2.1650635e-2 -1.2500000e-2 -0.13750000
v -2.5000000e-2 0.0000000e+0 -0.13750000
v -2.1650635e-2 1.2500000e-2 -0.13750000
v -1.2500000e-2 2.1650635e-2 -0.13750000
v 1.1102230e-16 2.5000000e-2 -0.13750000
v 1.2500000e-2 2.1650635e-2 -0.13750000
v 2.1650635e-2 1.2500000e-2 -0.13750000
v 1.8750000e-2 0.0000000e+0 -0.13750000
v 1.6237976e-2 -9.3750000e-3 -0.13750000
v 9.3750000e-3 -1.6237976e-2 -0.13750000
v 1.1102230e-16 -1.8750000e-2 -0.13750000
v -9.3750000e-3 -1.6237976e-2 -0.13750000
v -1.6237976e-2 -9.3750000e-3 -0.13750000
v -1.8750000e-2 0.0000000e+0 -0.13750000
v -1.6237976e-2 9.3750000e-3 -0.13750000
v -9.3750000e-3 1.6237976e-2 -0.13750000
v 1.1102230e-16 1.8750000e-2 -0.13750000
v 9.3750000e-3 1.6237976e-2 -0.13750000
v 1.6237976e-2 9.3750000e-3 -0.13750000
v 1.1102230e-16 0.0000000e+0 -0.11250000
v -3.7500000e-2 -3.0000000e-2 -2.5000000e-2
v -3.0000000e-2 -3.7500000e-2 -2.5000000e-2
v -3.0000000e-2 -3.7500000e-2 2.5000000e-2
v -3.7500000e-2 -3.0000000e-2 2.5000000e-2
v -3.7500000e-2 3.0000000e-2 -2.5000000e-2
v -3.0000000e-2 3.7500000e-2 -2.5000000e-2
v -3.7500000e-2 3.0000000e-2 2.5000000e-2
v -3.0000000e-2 3.7500000e-2 2.5000000e-2
v 3.0000000e-2 -3.7500000e-2 -2.5000000e-2
v 3.7500000e-2 -3.0000000e-2 -2.5000000e-2
v 3.0000000e-2 -3.7500000e-2 2.5000000e-2
v 3.7500000e-2 -3.0000000e-2 2.5000000e-2
v 3.7500000e-2 3.0000000e-2 -2.5000000e-2
v 3.0000000e-2 3.7500000e-2 -2.5000000e-2
v 3.7500000e-2 3.0000000e-2 2.5000000e-2
v 3.0000000e-2 3.7500000e-2 2.5000000e-2
v -3.1250000e-2 -2.3750000e-2 -0.10000000
v -2.3750000e-2 -3.1250000e-2 -0.10000000
v -2.3750000e-2 3.1250000e-2 -0.10000000
v -3.1250000e-2 2.3750000e-2 -0.10000000
v 3.1250000e-2 2.3750000e-2 -0.10000000
v 2.3750000e-2 3.1250000e-2 -0.10000000
v 2.3750000e-2 -3.1250000e-2 -0.10000000
v 3.1250000e-2 -2.3750000e-2 -0.10000000
v -1.1102230e-16 -6.3750000e-2 -3.7500000e-2
v 1.2500000e-2 -6.3750000e-2 -4.0849365e-2
v 2.1650635e-2 -6.3750000e-2 -5.0000000e-2
v 2.5000000e-2 -6.3750000e-2 -6.2500000e-2
v 2.1650635e-2 -6.3750000e-2 -7.5000000e-2
v 1.2500000e-2 -6.3750000e-2 -8.4150635e-2
v -1.1102230e-16 -6.3750000e-2 -8.7500000e-2
v -1.2500000e-2 -6.3750000e-2 -8.4150635e-2
v -2.1650635e-2 -6.3750000e-2 -7.5000000e-2
v -2.5000000e-2 -6.3750000e-2 -6.2500000e-2
v -2.1650635e-2 -6.3750000e-2 -5.0000000e-2
v -1.2500000e-2 -6.3750000e-2 -4.0849365e-2
v -1.1102230e-16 -6.3750000e-2 -4.3750000e-2
v 9.3750000e-3 -6.3750000e-2 -4.6262024e-2
v 1.6237976e-2 -6.3750000e-2 -5.3125000e-2
v 1.8750000e-2 -6.3750000e-2 -6.2500000e-2
v 1.6237976e-2 -6.3750000e-2 -7.1875000e-2
v 9.3750000e-3 -6.3750000e-2 -7.8737976e-2
v -1.1102230e-16 -6.3750000e-2 -8.1250000e-2
v -9.3750000e-3 -6.3750000e-2 -7.8737976e-2
v -1.6237976e-2 -6.3750000e-2 -7.1875000e-2
v -1.8750000e-2 -6.3750000e-2 -6.2500000e-2
v -1.6237976e-2 -6.3750000e-2 -5.3125000e-2
v -9.3750000e-3 -6.3750000e-2 -4.6262024e-2
v -1.1102230e-16 -3.8750000e-2 -6.2500000e-2
v -1.0252144e-2 -3.6775723e-2 -4.4742766e-2
v -1.7647997e-2 -3.6018908e-2 -5.2310924e-2
v -2.0208333e-2 -3.5000000e-2 -6.2500000e-2
v -1.7356294e-2 -3.3997934e-2 -7.2520661e-2
v -9.9604007e-3 -3.3274808e-2 -7.9751920e-2
v -1.1102230e-16 -3.3012295e-2 -8.2377049e-2
v 9.9604007e-3 -3.3274808e-2 -7.9751920e-2
v 1.7356294e-2 -3.3997934e-2 -7.2520661e-2
v 2.0208333e-2 -3.5000000e-2 -6.2500000e-2
v 1.7647997e-2 -3.6018908e-2 -5.2310924e-2
v 1.0252144e-2 -3.6775723e-2 -4.4742766e-2
v -1.1102230e-16 -3.7055085e-2 -4.1949153e-2
vt 0.42900931 0.61973635
vt 0.42900931 0.67349618
vt 0.43116668 0.76346034
vt 0.43145583 0.71872751
vt 0.43572929 0.61301637
vt 0.43572929 0.68021615
vt 0.43806597 0.83086579
vt 0.47810397 0.83086579
vt 0.48455067 0.76346034
vt 0.48483983 0.71872751
vt 0.48556900 0.83086579
vt 0.48948912 0.61301637
vt 0.48948912 0.68021615
vt 0.49201570 0.76346034
vt 0.49230486 0.71872751
vt 0.49620910 0.61973635
vt 0.49620910 0.67349618
vt 0.57445557 0.76346034
vt 0.57460553 0.71879617
vt 0.57460553 0.76350712
vt 0.57460553 0.76350712
vt 0.57474472 0.71872751
vt 0.57570331 0.87541509
vt 0.57570331 0.91797496
vt 0.58095232 0.83100753
vt 0.58095232 0.83100753
vt 0.58135486 0.83086579
vt 0.58242328 0.86869511
vt 0.58242328 0.92469493
vt 0.60326277 0.24278720
vt 0.60581024 0.30332602
vt 0.60771192 0.21349033
vt 0.60838572 0.21349033
vt 0.60881831 0.29209976
vt 0.60881831 0.31455228
vt 0.60881831 0.29209976
vt 0.60881831 0.31455228
vt 0.60951277 0.21349033
vt 0.60951277 0.21349033
vt 0.61142337 0.30332602
vt 0.61142337 0.30332602
vt 0.61149483 0.24278720
vt 0.61149483 0.24278720
vt 0.61367942 0.29490632
vt 0.61367942 0.31174572
vt 0.61367942 0.29490632
vt 0.61367942 0.31174572
vt 0.61451019 0.21349033
vt 0.61490154 0.21349033
vt 0.61568682 0.21349033
vt 0.61703650 0.28388156
vt 0.61703650 0.32277047
vt 0.61703650 0.28388156
vt 0.61703650 0.32277047
vt 0.61984307 0.28874268
vt 0.61984307 0.31790936
vt 0.61984307 0.28874268
vt 0.61984307 0.31790936
vt 0.61984833 0.24278720
vt 0.61984833 0.24278720
vt 0.61984833 0.24278720
vt 0.62137683 0.83100753
vt 0.62137683 0.83100753
vt 0.62139286 0.83086579
vt 0.62140394 0.21349033
vt 0.62151731 0.21349033
vt 0.62195194 0.21349033
vt 0.62274315 0.86869511
vt 0.62274315 0.92469493
vt 0.62783956 0.76346034
vt 0.62799713 0.71879617
vt 0.62799713 0.71879617
vt 0.62799713 0.76350712
vt 0.62799713 0.76350712
vt 0.62812872 0.71872751
vt 0.62826277 0.24278720
vt 0.62826277 0.21349033
vt 0.62826277 0.24278720
vt 0.62826277 0.28087349
vt 0.62826277 0.28087349
vt 0.62826277 0.28648663
vt 0.62826277 0.28648663
vt 0.62826277 0.30332602
vt 0.62826277 0.32016541
vt 0.62826277 0.32577854
vt 0.62826277 0.21349033
vt 0.62826277 0.24278720
vt 0.62826277 0.21349033
vt 0.62826277 0.24278720
vt 0.62883595 0.83100753
vt 0.62885789 0.83086579
vt 0.62946313 0.87541509
vt 0.62946313 0.91797496
vt 0.63457359 0.21349033
vt 0.63500822 0.21349033
vt 0.63512159 0.21349033
vt 0.63530459 0.76346034
vt 0.63545625 0.71879617
vt 0.63545625 0.76350712
vt 0.63545625 0.76350712
vt 0.63559375 0.71872751
vt 0.63667720 0.24278720
vt 0.63667720 0.24278720
vt 0.63668246 0.28874268
vt 0.63668246 0.31790936
vt 0.63668246 0.28874268
vt 0.63668246 0.31790936
vt 0.63948903 0.28388156
vt 0.63948903 0.28388156
vt 0.63948903 0.32277047
vt 0.64083872 0.21349033
vt 0.64083872 0.21349033
vt 0.64162399 0.21349033
vt 0.64201535 0.21349033
vt 0.64284611 0.29490632
vt 0.64284611 0.31174572
vt 0.64284611 0.29490632
vt 0.64284611 0.31174572
vt 0.64503070 0.24278720
vt 0.64503070 0.24278720
vt 0.64503070 0.24278720
vt 0.64510216 0.30332602
vt 0.64701277 0.21349033
vt 0.64701277 0.21349033
vt 0.64770722 0.29209976
vt 0.64770722 0.31455228
vt 0.64770722 0.29209976
vt 0.64770722 0.31455228
vt 0.64813982 0.21349033
vt 0.64881361 0.21349033
vt 0.65071529 0.30332602
vt 0.65326277 0.24278720
vn 0.98639392 2.8708663e-16 0.16439899
vn 0.85424220 -0.49319696 0.16439899
vn 0.49319696 -0.85424220 0.16439899
vn 2.4976537e-15 -0.98639392 0.16439899
vn -0.49319696 -0.85424220 0.16439899
vn -0.85424220 -0.49319696 0.16439899
vn -0.98639392 2.8708663e-16 0.16439899
vn -0.85424220 0.49319696 0.16439899
vn -0.49319696 0.85424220 0.16439899
vn 1.7225198e-16 0.98639392 0.16439899
vn 0.49319696 0.85424220 0.16439899
vn 0.85424220 0.49319696 0.16439899
vn -2.7755295e-15 4.4944654e-16 -1.00000000
vn -0.92265692 -0.38179340 -5.4203395e-2
vn -0.38179340 -0.92265692 -5.4203395e-2
vn -0.92265692 0.38179340 -5.4203395e-2
vn -0.38179340 0.92265692 -5.4203395e-2
vn 0.38179340 -0.92265692 -5.4203395e-2
vn 0.92265692 -0.38179340 -5.4203395e-2
vn 0.92265692 0.38179340 -5.4203395e-2
vn 0.38179340 0.92265692 -5.4203395e-2
vn 7.2936500e-16 -1.00000000 -1.5770054e-17
vn -0.49319696 0.16439899 0.85424220
vn -0.85424220 0.16439899 0.49319696
vn -0.98639392 0.16439899 9.1867721e-16
vn -0.85424220 0.16439899 -0.49319696
vn -0.49319696 0.16439899 -0.85424220
vn -6.3159058e-16 0.16439899 -0.98639392
vn 0.49319696 0.16439899 -0.85424220
vn 0.85424220 0.16439899 -0.49319696
vn 0.98639392 0.16439899 4.3062994e-16
vn 0.85424220 0.16439899 0.49319696
vn 0.49319696 0.16439899 0.85424220
vn -1.4641418e-15 0.16439899 0.98639392
vn 0.98639392 2.8708663e-16 0.16439899
vn 0.98639392 2.8708663e-16 0.16439899
vn 0.0000000e+0 0.0000000e+0 -1.00000000
vn 0.0000000e+0 0.0000000e+0 -1.00000000
vn 0.85424220 -0.49319696 0.16439899
vn 0.85424220 -0.49319696 0.16439899
vn 0.0000000e+0 0.0000000e+0 -1.00000000
vn 0.0000000e+0 0.0000000e+0 -1.00000000
vn 0.49319696 -0.85424220 0.16439899
vn 0.49319696 -0.85424220 0.16439899
vn 0.0000000e+0 0.0000000e+0 -1.00000000
vn 0.0000000e+0 0.0000000e+0 -1.00000000
vn 2.4976537e-15 -0.98639392 0.16439899
vn 2.4976537e-15 -0.98639392 0.16439899
vn 0.0000000e+0 0.0000000e+0 -1.00000000
vn 0.0000000e+0 0.0000000e+0 -1.00000000
vn -0.49319696 -0.85424220 0.16439899
vn -0.49319696 -0.85424220 0.16439899
vn 0.0000000e+0 0.0000000e+0 -1.00000000
vn 0.0000000e+0 0.0000000e+0 -1.00000000
vn -0.85424220 -0.49319696 0.16439899
vn -0.85424220 -0.49319696 0.16439899
vn 0.0000000e+0 0.0000000e+0 -1.00000000
vn 0.0000000e+0 0.0000000e+0 -1.00000000
vn -0.98639392 2.8708663e-16 0.16439899
vn -0.98639392 2.8708663e-16 0.16439899
vn 0.0000000e+0 0.0000000e+0 -1.00000000
vn 0.0000000e+0 0.0000000e+0 -1.00000000
vn -0.85424220 0.49319696 0.16439899
vn -0.85424220 0.49319696 0.16439899
vn 0.0000000e+0 0.0000000e+0 -1.00000000
vn 0.0000000e+0 0.0000000e+0 -1.00000000
vn -0.49319696 0.85424220 0.16439899
vn -0.49319696 0.85424220 0.16439899
vn 0.0000000e+0 0.0000000e+0 -1.00000000
vn 0.0000000e+0 0.0000000e+0 -1.00000000
vn 1.7225198e-16 0.98639392 0.16439899
vn 1.7225198e-16 0.98639392 0.16439899
vn 0.0000000e+0 0.0000000e+0 -1.00000000
vn 0.0000000e+0 0.0000000e+0 -1.00000000
vn 0.49319696 0.85424220 0.16439899
vn 0.49319696 0.85424220 0.16439899
vn 0.0000000e+0 0.0000000e+0 -1.00000000
vn 0.0000000e+0 0.0000000e+0 -1.00000000
vn 0.85424220 0.49319696 0.16439899
vn 0.85424220 0.49319696 0.16439899
vn 0.0000000e+0 0.0000000e+0 -1.00000000
vn 0.0000000e+0 0.0000000e+0 -1.00000000
vn 0.0000000e+0 0.0000000e+0 -1.00000000
vn 0.0000000e+0 0.0000000e+0 -1.00000000
vn -0.80000000 0.0000000e+0 -0.60000000
vn -0.80000000 0.0000000e+0 -0.60000000
vn 0.0000000e+0 0.0000000e+0 -1.00000000
vn 0.0000000e+0 0.0000000e+0 -1.00000000
vn -0.69282032 0.40000000 -0.60000000
vn -0.69282032 0.40000000 -0.60000000
vn 0.0000000e+0 0.0000000e+0 -1.00000000
vn 0.0000000e+0 0.0000000e+0 -1.00000000
vn -0.40000000 0.69282032 -0.60000000
vn -0.40000000 0.69282032 -0.60000000
vn 0.0000000e+0 0.0000000e+0 -1.00000000
vn 0.0000000e+0 0.0000000e+0 -1.00000000
vn -2.4412044e-15 0.80000000 -0.60000000
vn -2.4412044e-15 0.80000000 -0.60000000
vn 0.0000000e+0 0.0000000e+0 -1.00000000
vn 0.0000000e+0 0.0000000e+0 -1.00000000
vn 0.40000000 0.69282032 -0.60000000
vn 0.40000000 0.69282032 -0.60000000
vn 0.0000000e+0 0.0000000e+0 -1.00000000
vn 0.0000000e+0 0.0000000e+0 -1.00000000
vn 0.69282032 0.40000000 -0.60000000
vn 0.69282032 0.40000000 -0.60000000
vn 0.0000000e+0 0.0000000e+0 -1.00000000
vn 0.0000000e+0 0.0000000e+0 -1.00000000
vn 0.80000000 0.0000000e+0 -0.60000000
vn 0.80000000 0.0000000e+0 -0.60000000
vn 0.0000000e+0 0.0000000e+0 -1.00000000
vn 0.0000000e+0 0.0000000e+0 -1.00000000
vn 0.69282032 -0.40000000 -0.60000000
vn 0.69282032 -0.40000000 -0.60000000
vn 0.0000000e+0 0.0000000e+0 -1.00000000
vn 0.0000000e+0 0.0000000e+0 -1.00000000
vn 0.40000000 -0.69282032 -0.60000000
vn 0.40000000 -0.69282032 -0.60000000
vn 0.0000000e+0 0.0000000e+0 -1.00000000
vn 0.0000000e+0 0.0000000e+0 -1.00000000
vn -2.4270113e-15 -0.80000000 -0.60000000
vn -2.4270113e-15 -0.80000000 -0.60000000
vn 0.0000000e+0 0.0000000e+0 -1.00000000
vn 0.0000000e+0 0.0000000e+0 -1.00000000
vn -0.40000000 -0.69282032 -0.60000000
vn -0.40000000 -0.69282032 -0.60000000
vn 0.0000000e+0 0.0000000e+0 -1.00000000
vn 0.0000000e+0 0.0000000e+0 -1.00000000
vn -0.69282032 -0.40000000 -0.60000000
vn -0.69282032 -0.40000000 -0.60000000
vn -0.38268343 -0.92387953 0.0000000e+0
vn 9.8340333e-18 0.0000000e+0 1.00000000
vn -0.38268343 -0.92387953 0.0000000e+0
vn 9.8340333e-18 0.0000000e+0 1.00000000
vn -0.92387953 -0.38268343 0.0000000e+0
vn -0.92387953 -0.38268343 0.0000000e+0
vn 9.8340333e-18 0.0000000e+0 1.00000000
vn -0.92387953 0.38268343 0.0000000e+0
vn -0.92387953 0.38268343 0.0000000e+0
vn -0.38268343 0.92387953 0.0000000e+0
vn 9.8340333e-18 0.0000000e+0 1.00000000
vn -0.38268343 0.92387953 0.0000000e+0
vn 0.38268343 -0.92387953 0.0000000e+0
vn 9.8340333e-18 0.0000000e+0 1.00000000
vn 0.38268343 -0.92387953 0.0000000e+0
vn 9.8340333e-18 0.0000000e+0 1.00000000
vn 0.92387953 -0.38268343 0.0000000e+0
vn 0.92387953 -0.38268343 0.0000000e+0
vn 9.8340333e-18 0.0000000e+0 1.00000000
vn 0.92387953 0.38268343 0.0000000e+0
vn 0.92387953 0.38268343 0.0000000e+0
vn 0.38268343 0.92387953 0.0000000e+0
vn 9.8340333e-18 0.0000000e+0 1.00000000
vn 0.38268343 0.92387953 0.0000000e+0
vn 8.5735921e-17 0.0000000e+0 -1.00000000
vn -0.91872520 -0.37978261 -0.10820898
vn -0.91872520 -0.37978261 -0.10820898
vn 8.5735921e-17 0.0000000e+0 -1.00000000
vn -0.37978261 -0.91872520 -0.10820898
vn -0.37978261 -0.91872520 -0.10820898
vn 8.5735921e-17 0.0000000e+0 -1.00000000
vn -0.37978261 0.91872520 -0.10820898
vn -0.37978261 0.91872520 -0.10820898
vn 8.5735921e-17 0.0000000e+0 -1.00000000
vn -0.91872520 0.37978261 -0.10820898
vn -0.91872520 0.37978261 -0.10820898
vn 8.5735921e-17 0.0000000e+0 -1.00000000
vn 0.91872520 0.37978261 -0.10820898
vn 0.91872520 0.37978261 -0.10820898
vn 8.5735921e-17 0.0000000e+0 -1.00000000
vn 0.37978261 0.91872520 -0.10820898
vn 0.37978261 0.91872520 -0.10820898
vn 8.5735921e-17 0.0000000e+0 -1.00000000
vn 0.37978261 -0.91872520 -0.10820898
vn 0.37978261 -0.91872520 -0.10820898
vn 8.5735921e-17 0.0000000e+0 -1.00000000
vn 0.91872520 -0.37978261 -0.10820898
vn 0.91872520 -0.37978261 -0.10820898
vn 0.0000000e+0 -1.00000000 0.0000000e+0
vn 0.0000000e+0 -1.00000000 0.0000000e+0
vn -1.4641418e-15 0.16439899 0.98639392
vn -1.4641418e-15 0.16439899 0.98639392
vn 0.0000000e+0 -1.00000000 0.0000000e+0
vn 0.0000000e+0 -1.00000000 0.0000000e+0
vn 0.49319696 0.16439899 0.85424220
vn 0.49319696 0.16439899 0.85424220
vn 0.0000000e+0 -1.00000000 0.0000000e+0
vn 0.0000000e+0 -1.00000000 0.0000000e+0
vn 0.85424220 0.16439899 0.49319696
vn 0.85424220 0.16439899 0.49319696
vn 0.0000000e+0 -1.00000000 0.0000000e+0
vn 0.0000000e+0 -1.00000000 0.0000000e+0
vn 0.98639392 0.16439899 4.3062994e-16
vn 0.98639392 0.16439899 4.3062994e-16
vn 0.0000000e+0 -1.00000000 0.0000000e+0
vn 0.0000000e+0 -1.00000000 0.0000000e+0
vn 0.85424220 0.16439899 -0.49319696
vn 0.85424220 0.16439899 -0.49319696
vn 0.0000000e+0 -1.00000000 0.0000000e+0
vn 0.0000000e+0 -1.00000000 0.0000000e+0
vn 0.49319696 0.16439899 -0.85424220
vn 0.49319696 0.16439899 -0.85424220
vn 0.0000000e+0 -1.00000000 0.0000000e+0
vn 0.0000000e+0 -1.00000000 0.0000000e+0
vn -6.3159058e-16 0.16439899 -0.98639392
vn -6.3159058e-16 0.16439899 -0.98639392
vn 0.0000000e+0 -1.00000000 0.0000000e+0
vn 0.0000000e+0 -1.00000000 0.0000000e+0
vn -0.49319696 0.16439899 -0.85424220
vn -0.49319696 0.16439899 -0.85424220
vn 0.0000000e+0 -1.00000000 0.0000000e+0
vn 0.0000000e+0 -1.00000000 0.0000000e+0
vn -0.85424220 0.16439899 -0.49319696
vn -0.85424220 0.16439899 -0.49319696
vn 0.0000000e+0 -1.00000000 0.0000000e+0
vn 0.0000000e+0 -1.00000000 0.0000000e+0
vn -0.98639392 0.16439899 9.1867721e-16
vn -0.98639392 0.16439899 9.1867721e-16
vn 0.0000000e+0 -1.00000000 0.0000000e+0
vn 0.0000000e+0 -1.00000000 0.0000000e+0
vn -0.85424220 0.16439899 0.49319696
vn -0.85424220 0.16439899 0.49319696
vn 0.0000000e+0 -1.00000000 0.0000000e+0
vn 0.0000000e+0 -1.00000000 0.0000000e+0
vn -0.49319696 0.16439899 0.85424220
vn -0.49319696 0.16439899 0.85424220
vn 0.0000000e+0 -1.00000000 0.0000000e+0
vn 0.0000000e+0 -1.00000000 0.0000000e+0
vn 0.0000000e+0 -0.60000000 -0.80000000
vn 0.0000000e+0 -0.60000000 -0.80000000
vn 0.0000000e+0 -1.00000000 0.0000000e+0
vn 0.0000000e+0 -1.00000000 0.0000000e+0
vn -0.40000000 -0.60000000 -0.69282032
vn -0.40000000 -0.60000000 -0.69282032
vn 0.0000000e+0 -1.00000000 0.0000000e+0
vn 0.0000000e+0 -1.00000000 0.0000000e+0
vn -0.69282032 -0.60000000 -0.40000000
vn -0.69282032 -0.60000000 -0.40000000
vn 0.0000000e+0 -1.00000000 0.0000000e+0
vn 0.0000000e+0 -1.00000000 0.0000000e+0
vn -0.80000000 -0.60000000 -7.0965243e-17
vn -0.80000000 -0.60000000 -7.0965243e-17
vn 0.0000000e+0 -1.00000000 0.0000000e+0
vn 0.0000000e+0 -1.00000000 0.0000000e+0
vn -0.69282032 -0.60000000 0.40000000
vn -0.69282032 -0.60000000 0.40000000
vn 0.0000000e+0 -1.00000000 0.0000000e+0
vn 0.0000000e+0 -1.00000000 0.0000000e+0
vn -0.40000000 -0.60000000 0.69282032
vn -0.40000000 -0.60000000 0.69282032
vn 0.0000000e+0 -1.00000000 0.0000000e+0
vn 0.0000000e+0 -1.00000000 0.0000000e+0
vn -1.4334979e-15 -0.60000000 0.80000000
vn -1.4334979e-15 -0.60000000 0.80000000
vn 0.0000000e+0 -1.00000000 0.0000000e+0
vn 0.0000000e+0 -1.00000000 0.0000000e+0
vn 0.40000000 -0.60000000 0.69282032
vn 0.40000000 -0.60000000 0.69282032
vn 0.0000000e+0 -1.00000000 0.0000000e+0
vn 0.0000000e+0 -1.00000000 0.0000000e+0
vn 0.69282032 -0.60000000 0.40000000
vn 0.69282032 -0.60000000 0.40000000
vn 0.0000000e+0 -1.00000000 0.0000000e+0
vn 0.0000000e+0 -1.00000000 0.0000000e+0
vn 0.80000000 -0.60000000 -5.6772195e-16
vn 0.80000000 -0.60000000 -5.6772195e-16
vn 0.0000000e+0 -1.00000000 0.0000000e+0
vn 0.0000000e+0 -1.00000000 0.0000000e+0
vn 0.69282032 -0.60000000 -0.40000000
vn 0.69282032 -0.60000000 -0.40000000
vn 0.0000000e+0 -1.00000000 0.0000000e+0
vn 0.0000000e+0 -1.00000000 0.0000000e+0
vn 0.40000000 -0.60000000 -0.69282032
vn 0.40000000 -0.60000000 -0.69282032
g mesh_mesh_auv
usemtl mesh_auv
s 1
f 1/123/1 13/132/35 24/119/79 12/111/12
f 2/50/2 14/42/40 13/30/36 1/39/1
f 3/67/3 15/59/44 14/42/39 2/50/2
f 4/88/4 16/89/48 15/59/43 3/67/3
f 5/94/5 17/103/52 16/89/47 4/88/4
f 6/112/6 18/121/56 17/103/51 5/94/5
f 7/124/7 19/132/60 18/121/55 6/112/6
f 8/50/8 20/42/64 19/30/59 7/38/7
f 9/67/9 21/60/68 20/42/63 8/50/8
f 10/86/10 22/76/72 21/60/67 9/67/9
f 11/94/11 23/102/76 22/76/71 10/86/10
f 12/111/12 24/119/80 23/102/75 11/94/11
f 25/41/86 37/83/13 36/47/130
f 26/46/89 37/83/13 25/41/85
f 27/57/93 37/83/13 26/46/90
f 28/81/97 37/83/13 27/57/94
f 29/106/101 37/83/13 28/81/98
f 30/117/105 37/83/13 29/106/102
f 31/122/109 37/83/13 30/117/106
f 32/118/113 37/83/13 31/122/110
f 33/107/117 37/83/13 32/118/114
f 34/84/121 37/83/13 33/107/118
f 35/58/125 37/83/13 34/84/122
f 36/47/129 37/83/13 35/58/126
f 48/12/144 49/16/146 52/17/149 53/13/153 45/6/141 44/2/137 41/1/134 40/5/132
f 55/68/158 54/92/155 57/93/164 56/69/161 59/29/170 58/24/167 61/23/176 60/28/173
f 62/30/181 98/32/34 87/48/23 73/43/225
f 63/120/186 97/114/33 98/130/34 62/132/182
f 64/103/190 96/96/32 97/114/33 63/120/185
f 65/78/194 95/77/31 96/96/32 64/103/189
f 66/60/198 94/66/30 95/77/31 65/78/193
f 67/42/202 93/49/29 94/66/30 66/60/197
f 68/30/206 92/33/28 93/49/29 67/42/201
f 69/120/210 91/113/27 92/129/28 68/132/205
f 70/103/214 90/95/26 91/113/27 69/120/209
f 71/87/218 89/86/25 90/95/26 70/103/213
f 72/61/222 88/65/24 89/86/25 71/87/217
f 73/43/226 87/48/23 88/65/24 72/61/221
f 74/122/229 86/83/22 75/115/233
f 75/115/234 86/83/22 76/104/237
f 76/104/238 86/83/22 77/82/241
f 77/82/242 86/83/22 78/55/245
f 78/55/246 86/83/22 79/44/249
f 79/44/250 86/83/22 80/40/253
f 80/40/254 86/83/22 81/45/257
f 81/45/258 86/83/22 82/56/261
f 82/56/262 86/83/22 83/84/265
f 83/84/266 86/83/22 84/105/269
f 84/105/270 86/83/22 85/116/273
f 85/116/274 86/83/22 74/122/230
s 2
f 13/31/38 25/41/84 36/47/128 24/37/82
f 14/36/41 26/46/87 25/41/83 13/31/37
f 15/53/45 27/57/91 26/46/88 14/36/42
f 16/79/49 28/81/95 27/57/92 15/53/46
f 17/108/53 29/106/99 28/81/96 16/79/50
f 18/127/57 30/117/103 29/106/100 17/108/54
f 19/131/61 31/122/107 30/117/104 18/127/58
f 20/128/65 32/118/111 31/122/108 19/131/62
f 21/110/69 33/107/115 32/118/112 20/128/66
f 22/85/73 34/84/119 33/107/116 21/110/70
f 23/54/77 35/58/123 34/84/120 22/85/74
f 24/37/81 36/47/127 35/58/124 23/54/78
f 38/20/14 41/19/135 44/71/138 42/73/16
f 38/14/14 54/11/157 55/8/160 39/9/15
f 39/9/15 40/10/133 41/15/136 38/14/14
f 39/9/15 55/8/159 60/7/174 46/3/18
f 42/73/16 44/71/139 45/98/142 43/99/17
f 42/73/16 57/62/165 54/25/156 38/20/14
f 43/18/17 45/22/140 53/75/152 51/70/21
f 43/99/17 56/90/163 57/62/166 42/73/16
f 46/3/18 48/4/143 40/10/131 39/9/15
f 46/100/18 60/90/175 61/63/178 47/74/19
f 47/74/19 49/72/148 48/98/145 46/100/18
f 47/74/19 61/63/177 58/26/168 50/21/20
f 50/21/20 52/19/150 49/72/147 47/74/19
f 50/97/20 58/91/169 59/64/172 51/70/21
f 51/70/21 53/75/154 52/101/151 50/97/20
f 51/70/21 59/64/171 56/27/162 43/18/17
f 62/131/179 74/122/227 75/115/231 63/125/183
f 63/125/184 75/115/232 76/104/235 64/109/187
f 64/109/188 76/104/236 77/82/239 65/80/191
f 65/80/192 77/82/240 78/55/243 66/51/195
f 66/51/196 78/55/244 79/44/247 67/34/199
f 67/34/200 79/44/248 80/40/251 68/31/203
f 68/31/204 80/40/252 81/45/255 69/35/207
f 69/35/208 81/45/256 82/56/259 70/52/211
f 70/52/212 82/56/260 83/84/263 71/85/215
f 71/85/216 83/84/264 84/105/267 72/110/219
f 72/110/220 84/105/268 85/116/271 73/126/223
f 73/126/224 85/116/272 74/122/228 62/131/180
