# Exported from Wings 3D 1.5.4
mtllib Andromeda_Crew_1_Collider.mtl
o Andromeda_Crew_1_Collider
#79 vertices, 79 faces
v 0.31250000 0.54000000 -8.3734123e-2
v 0.31250000 0.54000000 8.3734123e-2
v 0.22876588 0.54000000 0.22876588
v 8.3734123e-2 0.54000000 0.31250000
v -8.3734123e-2 0.54000000 0.31250000
v -0.22876588 0.54000000 0.22876588
v -0.31250000 0.54000000 8.3734123e-2
v -0.31250000 0.54000000 -8.3734123e-2
v -0.22876588 0.54000000 -0.22876588
v -8.3734123e-2 0.54000000 -0.31250000
v 8.3734123e-2 0.54000000 -0.31250000
v 0.22876588 0.54000000 -0.22876588
v 0.44194174 0.44194174 -0.11841793
v 0.44194174 0.44194174 0.11841793
v 0.32352381 0.44194174 0.32352381
v 0.11841793 0.44194174 0.44194174
v -0.11841793 0.44194174 0.44194174
v -0.32352381 0.44194174 0.32352381
v -0.44194174 0.44194174 0.11841793
v -0.44194174 0.44194174 -0.11841793
v -0.32352381 0.44194174 -0.32352381
v -0.11841793 0.44194174 -0.44194174
v 0.11841793 0.44194174 -0.44194174
v 0.32352381 0.44194174 -0.32352381
v 0.57742471 0.23917715 -0.15472048
v 0.57742471 0.23917715 0.15472048
v 0.42270422 0.23917715 0.42270422
v 0.15472048 0.23917715 0.57742471
v -0.15472048 0.23917715 0.57742471
v -0.42270422 0.23917715 0.42270422
v -0.57742471 0.23917715 0.15472048
v -0.57742471 0.23917715 -0.15472048
v -0.42270422 0.23917715 -0.42270422
v -0.15472048 0.23917715 -0.57742471
v 0.15472048 0.23917715 -0.57742471
v 0.42270422 0.23917715 -0.42270422
v 0.62500000 4.6984172e-17 -0.16746825
v 0.62500000 4.6984172e-17 0.16746825
v 0.45753175 4.6984172e-17 0.45753175
v 0.16746825 4.6984172e-17 0.62500000
v -0.16746825 4.6984172e-17 0.62500000
v -0.45753175 4.6984172e-17 0.45753175
v -0.62500000 4.6984172e-17 0.16746825
v -0.62500000 4.6984172e-17 -0.16746825
v -0.45753175 4.6984172e-17 -0.45753175
v -0.16746825 4.6984172e-17 -0.62500000
v 0.16746825 4.6984172e-17 -0.62500000
v 0.45753175 4.6984172e-17 -0.45753175
v 0.57742471 -0.23917715 -0.15472048
v 0.57742471 -0.23917715 0.15472048
v 0.42270422 -0.23917715 0.42270422
v 0.15472048 -0.23917715 0.57742471
v -0.15472048 -0.23917715 0.57742471
v -0.42270422 -0.23917715 0.42270422
v -0.57742471 -0.23917715 0.15472048
v -0.57742471 -0.23917715 -0.15472048
v -0.42270422 -0.23917715 -0.42270422
v -0.15472048 -0.23917715 -0.57742471
v 0.15472048 -0.23917715 -0.57742471
v 0.42270422 -0.23917715 -0.42270422
v 0.44194174 -0.44194174 -0.11841793
v 0.44194174 -0.44194174 0.11841793
v 0.32352381 -0.44194174 0.32352381
v 0.11841793 -0.44194174 0.44194174
v -0.11841793 -0.44194174 0.44194174
v -0.32352381 -0.44194174 0.32352381
v -0.44194174 -0.44194174 0.11841793
v -0.44194174 -0.44194174 -0.11841793
v -0.32352381 -0.44194174 -0.32352381
v -0.11841793 -0.44194174 -0.44194174
v 0.11841793 -0.44194174 -0.44194174
v 0.32352381 -0.44194174 -0.32352381
v 0.23917715 -0.57742471 -1.0061396e-16
v 0.11958857 -0.57742471 0.20713348
v -0.11958857 -0.57742471 0.20713348
v -0.23917715 -0.57742471 1.0061396e-16
v -0.11958857 -0.57742471 -0.20713348
v 0.11958857 -0.57742471 -0.20713348
v -3.0224533e-17 -0.62500000 -2.2994842e-19
vn 0.0000000e+0 1.00000000 -8.8392720e-17
vn 0.60384336 0.79710300 1.5853073e-16
vn 0.52294369 0.79710300 -0.30192168
vn 0.0000000e+0 1.00000000 -8.8392720e-17
vn 0.60384336 0.79710300 1.5853073e-16
vn 0.52294369 0.79710300 0.30192168
vn 0.0000000e+0 1.00000000 -8.8392720e-17
vn 0.52294369 0.79710300 0.30192168
vn 0.30192168 0.79710300 0.52294369
vn 0.0000000e+0 1.00000000 -8.8392720e-17
vn 0.30192168 0.79710300 0.52294369
vn -1.5853073e-16 0.79710300 0.60384336
vn 0.0000000e+0 1.00000000 -8.8392720e-17
vn -1.5853073e-16 0.79710300 0.60384336
vn -0.30192168 0.79710300 0.52294369
vn 0.0000000e+0 1.00000000 -8.8392720e-17
vn -0.30192168 0.79710300 0.52294369
vn -0.52294369 0.79710300 0.30192168
vn 0.0000000e+0 1.00000000 -8.8392720e-17
vn -0.52294369 0.79710300 0.30192168
vn -0.60384336 0.79710300 7.9265365e-17
vn 0.0000000e+0 1.00000000 -8.8392720e-17
vn -0.60384336 0.79710300 7.9265365e-17
vn -0.52294369 0.79710300 -0.30192168
vn 0.0000000e+0 1.00000000 -8.8392720e-17
vn -0.52294369 0.79710300 -0.30192168
vn -0.30192168 0.79710300 -0.52294369
vn 0.0000000e+0 1.00000000 -8.8392720e-17
vn -0.30192168 0.79710300 -0.52294369
vn -1.5853073e-16 0.79710300 -0.60384336
vn 0.0000000e+0 1.00000000 -8.8392720e-17
vn -1.5853073e-16 0.79710300 -0.60384336
vn 0.30192168 0.79710300 -0.52294369
vn 0.0000000e+0 1.00000000 -8.8392720e-17
vn 0.30192168 0.79710300 -0.52294369
vn 0.52294369 0.79710300 -0.30192168
vn 0.60384336 0.79710300 1.5853073e-16
vn 0.52294369 0.79710300 -0.30192168
vn 0.83146961 0.55557023 1.5626186e-16
vn 0.72007381 0.55557023 -0.41573481
vn 0.60384336 0.79710300 1.5853073e-16
vn 0.52294369 0.79710300 0.30192168
vn 0.83146961 0.55557023 1.5626186e-16
vn 0.72007381 0.55557023 0.41573481
vn 0.52294369 0.79710300 0.30192168
vn 0.30192168 0.79710300 0.52294369
vn 0.72007381 0.55557023 0.41573481
vn 0.41573481 0.55557023 0.72007381
vn 0.30192168 0.79710300 0.52294369
vn -1.5853073e-16 0.79710300 0.60384336
vn 0.41573481 0.55557023 0.72007381
vn -1.5626186e-16 0.55557023 0.83146961
vn -1.5853073e-16 0.79710300 0.60384336
vn -0.30192168 0.79710300 0.52294369
vn -1.5626186e-16 0.55557023 0.83146961
vn -0.41573481 0.55557023 0.72007381
vn -0.30192168 0.79710300 0.52294369
vn -0.52294369 0.79710300 0.30192168
vn -0.41573481 0.55557023 0.72007381
vn -0.72007381 0.55557023 0.41573481
vn -0.52294369 0.79710300 0.30192168
vn -0.60384336 0.79710300 7.9265365e-17
vn -0.72007381 0.55557023 0.41573481
vn -0.83146961 0.55557023 0.0000000e+0
vn -0.60384336 0.79710300 7.9265365e-17
vn -0.52294369 0.79710300 -0.30192168
vn -0.83146961 0.55557023 0.0000000e+0
vn -0.72007381 0.55557023 -0.41573481
vn -0.52294369 0.79710300 -0.30192168
vn -0.30192168 0.79710300 -0.52294369
vn -0.72007381 0.55557023 -0.41573481
vn -0.41573481 0.55557023 -0.72007381
vn -0.30192168 0.79710300 -0.52294369
vn -1.5853073e-16 0.79710300 -0.60384336
vn -0.41573481 0.55557023 -0.72007381
vn -2.3439279e-16 0.55557023 -0.83146961
vn -1.5853073e-16 0.79710300 -0.60384336
vn 0.30192168 0.79710300 -0.52294369
vn -2.3439279e-16 0.55557023 -0.83146961
vn 0.41573481 0.55557023 -0.72007381
vn 0.30192168 0.79710300 -0.52294369
vn 0.52294369 0.79710300 -0.30192168
vn 0.41573481 0.55557023 -0.72007381
vn 0.72007381 0.55557023 -0.41573481
vn 0.83146961 0.55557023 1.5626186e-16
vn 0.72007381 0.55557023 -0.41573481
vn 0.98078528 0.19509032 0.0000000e+0
vn 0.84938497 0.19509032 -0.49039264
vn 0.83146961 0.55557023 1.5626186e-16
vn 0.72007381 0.55557023 0.41573481
vn 0.98078528 0.19509032 0.0000000e+0
vn 0.84938497 0.19509032 0.49039264
vn 0.72007381 0.55557023 0.41573481
vn 0.41573481 0.55557023 0.72007381
vn 0.84938497 0.19509032 0.49039264
vn 0.49039264 0.19509032 0.84938497
vn 0.41573481 0.55557023 0.72007381
vn -1.5626186e-16 0.55557023 0.83146961
vn 0.49039264 0.19509032 0.84938497
vn -1.6559051e-16 0.19509032 0.98078528
vn -1.5626186e-16 0.55557023 0.83146961
vn -0.41573481 0.55557023 0.72007381
vn -1.6559051e-16 0.19509032 0.98078528
vn -0.49039264 0.19509032 0.84938497
vn -0.41573481 0.55557023 0.72007381
vn -0.72007381 0.55557023 0.41573481
vn -0.49039264 0.19509032 0.84938497
vn -0.84938497 0.19509032 0.49039264
vn -0.72007381 0.55557023 0.41573481
vn -0.83146961 0.55557023 0.0000000e+0
vn -0.84938497 0.19509032 0.49039264
vn -0.98078528 0.19509032 0.0000000e+0
vn -0.83146961 0.55557023 0.0000000e+0
vn -0.72007381 0.55557023 -0.41573481
vn -0.98078528 0.19509032 0.0000000e+0
vn -0.84938497 0.19509032 -0.49039264
vn -0.72007381 0.55557023 -0.41573481
vn -0.41573481 0.55557023 -0.72007381
vn -0.84938497 0.19509032 -0.49039264
vn -0.49039264 0.19509032 -0.84938497
vn -0.41573481 0.55557023 -0.72007381
vn -2.3439279e-16 0.55557023 -0.83146961
vn -0.49039264 0.19509032 -0.84938497
vn -1.6559051e-16 0.19509032 -0.98078528
vn -2.3439279e-16 0.55557023 -0.83146961
vn 0.41573481 0.55557023 -0.72007381
vn -1.6559051e-16 0.19509032 -0.98078528
vn 0.49039264 0.19509032 -0.84938497
vn 0.41573481 0.55557023 -0.72007381
vn 0.72007381 0.55557023 -0.41573481
vn 0.49039264 0.19509032 -0.84938497
vn 0.84938497 0.19509032 -0.49039264
vn 0.98078528 0.19509032 0.0000000e+0
vn 0.84938497 0.19509032 -0.49039264
vn 0.98078528 -0.19509032 0.0000000e+0
vn 0.84938497 -0.19509032 -0.49039264
vn 0.98078528 0.19509032 0.0000000e+0
vn 0.84938497 0.19509032 0.49039264
vn 0.98078528 -0.19509032 0.0000000e+0
vn 0.84938497 -0.19509032 0.49039264
vn 0.84938497 0.19509032 0.49039264
vn 0.49039264 0.19509032 0.84938497
vn 0.84938497 -0.19509032 0.49039264
vn 0.49039264 -0.19509032 0.84938497
vn 0.49039264 0.19509032 0.84938497
vn -1.6559051e-16 0.19509032 0.98078528
vn 0.49039264 -0.19509032 0.84938497
vn -1.6559051e-16 -0.19509032 0.98078528
vn -1.6559051e-16 0.19509032 0.98078528
vn -0.49039264 0.19509032 0.84938497
vn -1.6559051e-16 -0.19509032 0.98078528
vn -0.49039264 -0.19509032 0.84938497
vn -0.49039264 0.19509032 0.84938497
vn -0.84938497 0.19509032 0.49039264
vn -0.49039264 -0.19509032 0.84938497
vn -0.84938497 -0.19509032 0.49039264
vn -0.84938497 0.19509032 0.49039264
vn -0.98078528 0.19509032 0.0000000e+0
vn -0.84938497 -0.19509032 0.49039264
vn -0.98078528 -0.19509032 0.0000000e+0
vn -0.98078528 0.19509032 0.0000000e+0
vn -0.84938497 0.19509032 -0.49039264
vn -0.98078528 -0.19509032 0.0000000e+0
vn -0.84938497 -0.19509032 -0.49039264
vn -0.84938497 0.19509032 -0.49039264
vn -0.49039264 0.19509032 -0.84938497
vn -0.84938497 -0.19509032 -0.49039264
vn -0.49039264 -0.19509032 -0.84938497
vn -0.49039264 0.19509032 -0.84938497
vn -1.6559051e-16 0.19509032 -0.98078528
vn -0.49039264 -0.19509032 -0.84938497
vn -1.6559051e-16 -0.19509032 -0.98078528
vn -1.6559051e-16 0.19509032 -0.98078528
vn 0.49039264 0.19509032 -0.84938497
vn -1.6559051e-16 -0.19509032 -0.98078528
vn 0.49039264 -0.19509032 -0.84938497
vn 0.49039264 0.19509032 -0.84938497
vn 0.84938497 0.19509032 -0.49039264
vn 0.49039264 -0.19509032 -0.84938497
vn 0.84938497 -0.19509032 -0.49039264
vn 0.98078528 -0.19509032 0.0000000e+0
vn 0.84938497 -0.19509032 -0.49039264
vn 0.83146961 -0.55557023 0.0000000e+0
vn 0.72007381 -0.55557023 -0.41573481
vn 0.98078528 -0.19509032 0.0000000e+0
vn 0.84938497 -0.19509032 0.49039264
vn 0.83146961 -0.55557023 0.0000000e+0
vn 0.72007381 -0.55557023 0.41573481
vn 0.84938497 -0.19509032 0.49039264
vn 0.49039264 -0.19509032 0.84938497
vn 0.72007381 -0.55557023 0.41573481
vn 0.41573481 -0.55557023 0.72007381
vn 0.49039264 -0.19509032 0.84938497
vn -1.6559051e-16 -0.19509032 0.98078528
vn 0.41573481 -0.55557023 0.72007381
vn -7.8130928e-17 -0.55557023 0.83146961
vn -1.6559051e-16 -0.19509032 0.98078528
vn -0.49039264 -0.19509032 0.84938497
vn -7.8130928e-17 -0.55557023 0.83146961
vn -0.41573481 -0.55557023 0.72007381
vn -0.49039264 -0.19509032 0.84938497
vn -0.84938497 -0.19509032 0.49039264
vn -0.41573481 -0.55557023 0.72007381
vn -0.72007381 -0.55557023 0.41573481
vn -0.84938497 -0.19509032 0.49039264
vn -0.98078528 -0.19509032 0.0000000e+0
vn -0.72007381 -0.55557023 0.41573481
vn -0.83146961 -0.55557023 0.0000000e+0
vn -0.98078528 -0.19509032 0.0000000e+0
vn -0.84938497 -0.19509032 -0.49039264
vn -0.83146961 -0.55557023 0.0000000e+0
vn -0.72007381 -0.55557023 -0.41573481
vn -0.84938497 -0.19509032 -0.49039264
vn -0.49039264 -0.19509032 -0.84938497
vn -0.72007381 -0.55557023 -0.41573481
vn -0.41573481 -0.55557023 -0.72007381
vn -0.49039264 -0.19509032 -0.84938497
vn -1.6559051e-16 -0.19509032 -0.98078528
vn -0.41573481 -0.55557023 -0.72007381
vn -1.5626186e-16 -0.55557023 -0.83146961
vn -1.6559051e-16 -0.19509032 -0.98078528
vn 0.49039264 -0.19509032 -0.84938497
vn -1.5626186e-16 -0.55557023 -0.83146961
vn 0.41573481 -0.55557023 -0.72007381
vn 0.49039264 -0.19509032 -0.84938497
vn 0.84938497 -0.19509032 -0.49039264
vn 0.41573481 -0.55557023 -0.72007381
vn 0.72007381 -0.55557023 -0.41573481
vn 0.83146961 -0.55557023 0.0000000e+0
vn 0.72007381 -0.55557023 -0.41573481
vn 0.55557023 -0.83146961 0.0000000e+0
vn 0.43281229 -0.86615897 -0.24988429
vn 0.83146961 -0.55557023 0.0000000e+0
vn 0.72007381 -0.55557023 0.41573481
vn 0.55557023 -0.83146961 0.0000000e+0
vn 0.43281229 -0.86615897 0.24988429
vn 0.72007381 -0.55557023 0.41573481
vn 0.41573481 -0.55557023 0.72007381
vn 0.43281229 -0.86615897 0.24988429
vn 0.27778512 -0.83146961 0.48113794
vn 0.41573481 -0.55557023 0.72007381
vn -7.8130928e-17 -0.55557023 0.83146961
vn 0.27778512 -0.83146961 0.48113794
vn 0.0000000e+0 -0.86615897 0.49976859
vn -7.8130928e-17 -0.55557023 0.83146961
vn -0.41573481 -0.55557023 0.72007381
vn 0.0000000e+0 -0.86615897 0.49976859
vn -0.27778512 -0.83146961 0.48113794
vn -0.41573481 -0.55557023 0.72007381
vn -0.72007381 -0.55557023 0.41573481
vn -0.27778512 -0.83146961 0.48113794
vn -0.43281229 -0.86615897 0.24988429
vn -0.72007381 -0.55557023 0.41573481
vn -0.83146961 -0.55557023 0.0000000e+0
vn -0.43281229 -0.86615897 0.24988429
vn -0.55557023 -0.83146961 0.0000000e+0
vn -0.83146961 -0.55557023 0.0000000e+0
vn -0.72007381 -0.55557023 -0.41573481
vn -0.55557023 -0.83146961 0.0000000e+0
vn -0.43281229 -0.86615897 -0.24988429
vn -0.72007381 -0.55557023 -0.41573481
vn -0.41573481 -0.55557023 -0.72007381
vn -0.43281229 -0.86615897 -0.24988429
vn -0.27778512 -0.83146961 -0.48113794
vn -0.41573481 -0.55557023 -0.72007381
vn -1.5626186e-16 -0.55557023 -0.83146961
vn -0.27778512 -0.83146961 -0.48113794
vn -1.0754387e-16 -0.86615897 -0.49976859
vn -1.5626186e-16 -0.55557023 -0.83146961
vn 0.41573481 -0.55557023 -0.72007381
vn -1.0754387e-16 -0.86615897 -0.49976859
vn 0.27778512 -0.83146961 -0.48113794
vn 0.41573481 -0.55557023 -0.72007381
vn 0.72007381 -0.55557023 -0.41573481
vn 0.27778512 -0.83146961 -0.48113794
vn 0.43281229 -0.86615897 -0.24988429
vn 0.19386444 -0.97462237 0.11192769
vn 0.19386444 -0.97462237 -0.11192769
vn 0.55557023 -0.83146961 0.0000000e+0
vn 0.43281229 -0.86615897 0.24988429
vn 0.43281229 -0.86615897 -0.24988429
vn 0.19386444 -0.97462237 0.11192769
vn 3.4126885e-17 -0.97462237 0.22385538
vn 0.43281229 -0.86615897 0.24988429
vn 0.27778512 -0.83146961 0.48113794
vn 0.0000000e+0 -0.86615897 0.49976859
vn 3.4126885e-17 -0.97462237 0.22385538
vn -0.19386444 -0.97462237 0.11192769
vn 0.0000000e+0 -0.86615897 0.49976859
vn -0.27778512 -0.83146961 0.48113794
vn -0.43281229 -0.86615897 0.24988429
vn -0.19386444 -0.97462237 0.11192769
vn -0.19386444 -0.97462237 -0.11192769
vn -0.43281229 -0.86615897 0.24988429
vn -0.55557023 -0.83146961 0.0000000e+0
vn -0.43281229 -0.86615897 -0.24988429
vn -0.19386444 -0.97462237 -0.11192769
vn -1.0238065e-16 -0.97462237 -0.22385538
vn -0.43281229 -0.86615897 -0.24988429
vn -0.27778512 -0.83146961 -0.48113794
vn -1.0754387e-16 -0.86615897 -0.49976859
vn -1.0238065e-16 -0.97462237 -0.22385538
vn 0.19386444 -0.97462237 -0.11192769
vn -1.0754387e-16 -0.86615897 -0.49976859
vn 0.27778512 -0.83146961 -0.48113794
vn 0.43281229 -0.86615897 -0.24988429
vn 0.19386444 -0.97462237 0.11192769
vn 3.4126885e-17 -0.97462237 0.22385538
vn -0.19386444 -0.97462237 0.11192769
vn -0.19386444 -0.97462237 -0.11192769
vn -1.0238065e-16 -0.97462237 -0.22385538
vn 0.19386444 -0.97462237 -0.11192769
g Andromeda_Crew_1_Collider_default
usemtl default
s 1
f 1//1 12//34 11//31 10//28 9//25 8//22 7//19 6//16 5//13 4//10 3//7 2//4
f 13//40 25//86 36//130 24//84
f 15//47 27//93 26//90 14//44
f 17//55 29//101 28//98 16//52
f 19//63 31//109 30//106 18//60
f 22//75 34//121 33//118 21//72
f 26//91 38//137 37//133 25//87
f 28//99 40//145 39//142 27//96
f 30//107 42//153 41//150 29//104
f 32//115 44//161 43//158 31//112
f 35//127 47//173 46//170 34//124
f 41//151 53//197 52//194 40//148
f 43//159 55//205 54//202 42//156
f 46//171 58//217 57//214 45//168
f 48//179 60//225 59//222 47//176
f 49//184 61//230 72//274 60//228
f 51//191 63//237 62//234 50//188
f 54//203 66//249 65//246 53//200
f 57//215 69//261 68//258 56//212
f 59//223 71//269 70//266 58//220
f 62//235 73//279 61//231
f 64//243 74//285 63//240
f 68//259 76//295 67//256
f 70//267 77//300 69//264
f 72//275 78//305 71//272
f 74//283 75//287 79//308
f 77//298 78//302 79//311
s 2
f 4//11 16//49 15//46 3//9
f 7//20 19//61 18//58 6//18
f 9//26 21//69 20//66 8//24
f 12//35 24//81 23//78 11//33
f 14//43 26//89 25//85 13//39
f 18//59 30//105 29//102 17//56
f 20//67 32//113 31//110 19//64
f 23//79 35//125 34//122 22//76
f 25//88 37//134 48//178 36//132
f 27//95 39//141 38//138 26//92
f 29//103 41//149 40//146 28//100
f 31//111 43//157 42//154 30//108
f 33//119 45//165 44//162 32//116
f 40//147 52//193 51//190 39//144
f 42//155 54//201 53//198 41//152
f 44//163 56//209 55//206 43//160
f 47//175 59//221 58//218 46//172
f 50//187 62//233 61//229 49//183
f 53//199 65//245 64//242 52//196
f 55//207 67//253 66//250 54//204
f 58//219 70//265 69//262 57//216
f 60//227 72//273 71//270 59//224
f 63//239 74//284 73//280 62//236
f 66//251 75//290 65//248
f 71//271 78//304 77//301 70//268
f 73//278 79//312 78//303
f 76//293 77//297 79//310
s 3
f 1//3 13//38 24//82 12//36
f 3//8 15//45 14//42 2//6
f 5//14 17//53 16//50 4//12
f 8//23 20//65 19//62 7//21
f 11//32 23//77 22//74 10//30
f 16//51 28//97 27//94 15//48
f 21//71 33//117 32//114 20//68
f 24//83 36//129 35//126 23//80
f 34//123 46//169 45//166 33//120
f 38//139 50//185 49//181 37//135
f 45//167 57//213 56//210 44//164
f 52//195 64//241 63//238 51//192
f 56//211 68//257 67//254 55//208
f 61//232 73//281 78//306 72//276
f 65//247 75//289 74//286 64//244
f 67//255 76//294 75//291 66//252
f 69//263 77//299 76//296 68//260
f 73//277 74//282 79//307
s 4
f 2//5 14//41 13//37 1//2
f 6//17 18//57 17//54 5//15
f 10//29 22//73 21//70 9//27
f 36//131 48//177 47//174 35//128
f 37//136 49//182 60//226 48//180
f 39//143 51//189 50//186 38//140
f 75//288 76//292 79//309
