# Exported from Wings 3D 1.5.4
mtllib ./sar neck.mtl
o 2
#81 vertices, 64 faces
v -4.3750000e-2 2.5000000e-2 -0.16250000
v -4.3750000e-2 1.7677670e-2 -0.14482233
v -4.3750000e-2 1.1425739e-16 -0.13750000
v -4.3750000e-2 -1.7677670e-2 -0.14482233
v -4.3750000e-2 -2.5000000e-2 -0.16250000
v -4.3750000e-2 -1.7677670e-2 -0.18017767
v -4.3750000e-2 1.0813416e-16 -0.18750000
v -4.3750000e-2 1.7677670e-2 -0.18017767
v 4.3750000e-2 2.5000000e-2 -0.16250000
v 4.3750000e-2 1.7677670e-2 -0.14482233
v 4.3750000e-2 1.0975831e-16 -0.13750000
v 4.3750000e-2 -1.7677670e-2 -0.14482233
v 4.3750000e-2 -2.5000000e-2 -0.16250000
v 4.3750000e-2 -1.7677670e-2 -0.18017767
v 4.3750000e-2 1.0363508e-16 -0.18750000
v 4.3750000e-2 1.7677670e-2 -0.18017767
v 3.1250000e-2 -3.7500000e-2 -0.16250000
v 3.1250000e-2 -2.6516504e-2 -0.18901650
v 3.1250000e-2 6.7024022e-17 -0.20000000
v 3.1250000e-2 2.6516504e-2 -0.18901650
v 3.1250000e-2 3.7500000e-2 -0.16250000
v 3.1250000e-2 -3.7500000e-2 -0.11250000
v 3.1250000e-2 3.7500000e-2 -0.11250000
v 5.6250000e-2 -3.7500000e-2 -0.16250000
v 5.6250000e-2 -2.6516504e-2 -0.18901650
v 5.6250000e-2 6.7024022e-17 -0.20000000
v 5.6250000e-2 2.6516504e-2 -0.18901650
v 5.6250000e-2 3.7500000e-2 -0.16250000
v 5.6250000e-2 -3.7500000e-2 -8.7500000e-2
v 5.6250000e-2 3.7500000e-2 -8.7500000e-2
v -3.1250000e-2 -3.7500000e-2 -0.16250000
v -3.1250000e-2 -2.6516504e-2 -0.18901650
v -3.1250000e-2 6.7024022e-17 -0.20000000
v -3.1250000e-2 2.6516504e-2 -0.18901650
v -3.1250000e-2 3.7500000e-2 -0.16250000
v -3.1250000e-2 -3.7500000e-2 -0.11250000
v -3.1250000e-2 3.7500000e-2 -0.11250000
v -5.6250000e-2 -3.7500000e-2 -0.16250000
v -5.6250000e-2 -2.6516504e-2 -0.18901650
v -5.6250000e-2 6.7024022e-17 -0.20000000
v -5.6250000e-2 2.6516504e-2 -0.18901650
v -5.6250000e-2 3.7500000e-2 -0.16250000
v -5.6250000e-2 -3.7500000e-2 -8.7500000e-2
v -5.6250000e-2 3.7500000e-2 -8.7500000e-2
v 3.7500000e-2 -3.7500000e-2 -3.7500000e-2
v 3.7500000e-2 3.7500000e-2 -3.7500000e-2
v -3.7500000e-2 3.7500000e-2 -3.7500000e-2
v -3.7500000e-2 -3.7500000e-2 -3.7500000e-2
v -9.3750000e-2 2.5000000e-2 -0.16250000
v -9.3750000e-2 1.7677670e-2 -0.14482233
v -9.3750000e-2 1.1460434e-16 -0.13750000
v -9.3750000e-2 -1.7677670e-2 -0.14482233
v -9.3750000e-2 -2.5000000e-2 -0.16250000
v -9.3750000e-2 -1.7677670e-2 -0.18017767
v -9.3750000e-2 1.0848110e-16 -0.18750000
v -9.3750000e-2 1.7677670e-2 -0.18017767
v -4.3750000e-2 2.5000000e-2 -0.16250000
v -4.3750000e-2 1.7677670e-2 -0.14482233
v -4.3750000e-2 1.1154272e-16 -0.13750000
v -4.3750000e-2 -1.7677670e-2 -0.14482233
v -4.3750000e-2 -2.5000000e-2 -0.16250000
v -4.3750000e-2 -1.7677670e-2 -0.18017767
v -4.3750000e-2 1.0541949e-16 -0.18750000
v -4.3750000e-2 1.7677670e-2 -0.18017767
v -9.3750000e-2 1.1405807e-16 -0.16250000
v 3.1250000e-2 2.2060262e-16 -5.0000000e-2
v 2.2097087e-2 2.2097087e-2 -5.0000000e-2
v 3.8108644e-18 3.1250000e-2 -5.0000000e-2
v -2.2097087e-2 2.2097087e-2 -5.0000000e-2
v -3.1250000e-2 2.2442964e-16 -5.0000000e-2
v -2.2097087e-2 -2.2097087e-2 -5.0000000e-2
v -3.8431781e-18 -3.1250000e-2 -5.0000000e-2
v 2.2097087e-2 -2.2097087e-2 -5.0000000e-2
v 3.1250000e-2 2.2305589e-16 1.2500000e-2
v 2.2097087e-2 2.2097087e-2 1.2500000e-2
v 3.8108644e-18 3.1250000e-2 1.2500000e-2
v -2.2097087e-2 2.2097087e-2 1.2500000e-2
v -3.1250000e-2 2.2688291e-16 1.2500000e-2
v -2.2097087e-2 -2.2097087e-2 1.2500000e-2
v -3.8431781e-18 -3.1250000e-2 1.2500000e-2
v 2.2097087e-2 -2.2097087e-2 1.2500000e-2
vt 0.57414448 0.55197228
vt 0.57414448 0.57148562
vt 0.57420702 0.63153778
vt 0.57420702 0.65749345
vt 0.57596662 0.69745352
vt 0.57596662 0.73160451
vt 0.57639231 0.83766940
vt 0.57639231 0.86610137
vt 0.57639231 0.88778355
vt 0.57639231 0.91705583
vt 0.57639231 0.93688353
vt 0.57639231 0.96716999
vt 0.57711544 0.78709105
vt 0.58496597 0.82732009
vt 0.58496597 0.97751930
vt 0.58568909 0.77674174
vt 0.58568909 0.79744037
vt 0.58907942 0.55197219
vt 0.58907942 0.57148572
vt 0.59090264 0.69745352
vt 0.59090264 0.73160451
vt 0.59407273 0.63153765
vt 0.59407273 0.65749358
vt 0.60401634 0.55197114
vt 0.60401634 0.57148676
vt 0.60566459 0.82303326
vt 0.60566459 0.98180613
vt 0.60583866 0.69745352
vt 0.60583866 0.73160451
vt 0.60638772 0.77245491
vt 0.60638772 0.80172719
vt 0.61394107 0.63153626
vt 0.61394107 0.65749497
vt 0.61424180 0.58146264
vt 0.61895601 0.55197086
vt 0.61895601 0.57148705
vt 0.61995757 0.57456310
vt 0.61995757 0.58836218
vt 0.62077468 0.69745352
vt 0.62077468 0.73160451
vt 0.62636322 0.82732009
vt 0.62636322 0.97751930
vt 0.63375665 0.57170521
vt 0.63375665 0.58146264
vt 0.63375665 0.59122006
vt 0.63381309 0.63153588
vt 0.63381309 0.65749534
vt 0.63388855 0.55197152
vt 0.63388855 0.57148638
vt 0.63493687 0.83766940
vt 0.63493687 0.86610137
vt 0.63493687 0.88778355
vt 0.63493687 0.91705583
vt 0.63493687 0.93688353
vt 0.63493687 0.96716999
vt 0.63571070 0.69745352
vt 0.63571070 0.73160451
vt 0.64541743 0.77245491
vt 0.64541743 0.80172719
vt 0.64755574 0.57456310
vt 0.64755574 0.58836218
vt 0.64882108 0.55197086
vt 0.64882108 0.57148705
vt 0.65064673 0.69745352
vt 0.65064673 0.73160451
vt 0.65327150 0.58146264
vt 0.65367560 0.63153677
vt 0.65367560 0.65749446
vt 0.66376076 0.55197114
vt 0.66376076 0.57148676
vt 0.66558275 0.69745352
vt 0.66558275 0.73160451
vt 0.67340499 0.92819046
vt 0.67340499 0.97986677
vt 0.67340499 0.92819046
vt 0.67340499 0.96866476
vt 0.67340499 0.97986677
vt 0.67340499 0.96866476
vt 0.67340499 0.95746274
vt 0.67340499 0.95746274
vt 0.67353811 0.63153588
vt 0.67353811 0.65749534
vt 0.67869767 0.55197219
vt 0.67869767 0.57148572
vt 0.68051877 0.69745352
vt 0.68051877 0.73160451
vt 0.69046002 0.90902276
vt 0.69046002 0.90902276
vt 0.69291984 0.97986677
vt 0.69291984 0.93794789
vt 0.69291984 0.97986677
vt 0.69291984 0.95746274
vt 0.69291984 0.95746274
vt 0.69291984 0.96866476
vt 0.69291984 0.96866476
vt 0.69291984 0.93794789
vt 0.69341012 0.63153626
vt 0.69341012 0.65749497
vt 0.69363261 0.55197228
vt 0.69363261 0.57148562
vt 0.69420456 0.77245491
vt 0.69420456 0.80172719
vt 0.69545479 0.69745352
vt 0.69545479 0.73160451
vt 0.71327846 0.63153765
vt 0.71327846 0.65749358
vt 0.73314417 0.63153778
vt 0.73314417 0.65749345
vt 0.73323427 0.77245491
vt 0.73323427 0.80172719
vt 0.74102400 0.93794789
vt 0.74102400 0.97986677
vt 0.74102400 0.97986677
vt 0.74102400 0.96866476
vt 0.74102400 0.93794789
vt 0.74102400 0.95746274
vt 0.74102400 0.95746274
vt 0.74102400 0.96866476
vt 0.74654090 0.90902276
vt 0.74654090 0.90902276
vt 0.75393290 0.77674174
vt 0.75393290 0.79744037
vt 0.76053886 0.96866476
vt 0.76053886 0.97986677
vt 0.76053886 0.97986677
vt 0.76053886 0.96866476
vt 0.76053886 0.95746274
vt 0.76053886 0.92819046
vt 0.76053886 0.95746274
vt 0.76053886 0.92819046
vt 0.76250655 0.78709105
vn 3.0665868e-17 1.00000000 9.9139981e-16
vn 3.0665868e-17 0.70710678 0.70710678
vn 0.0000000e+0 0.0000000e+0 1.00000000
vn -3.5046707e-17 -0.70710678 0.70710678
vn -3.0665868e-17 -1.00000000 1.2317392e-15
vn -1.7523353e-17 -0.70710678 -0.70710678
vn -3.3353785e-33 -6.0084837e-17 -1.00000000
vn 2.1904192e-17 0.70710678 -0.70710678
vn 5.3665270e-17 1.00000000 -1.2317392e-15
vn 5.3665270e-17 0.70710678 0.70710678
vn -3.3353785e-33 -3.0042419e-17 1.00000000
vn -6.1331737e-17 -0.70710678 0.70710678
vn -5.3665270e-17 -1.00000000 -9.6135739e-16
vn -3.0665868e-17 -0.70710678 -0.70710678
vn -3.3353785e-33 -3.0042419e-17 -1.00000000
vn 3.8332335e-17 0.70710678 -0.70710678
vn -1.00000000 0.0000000e+0 0.0000000e+0
vn 1.00000000 -3.0042419e-17 0.0000000e+0
vn 0.70710678 0.70710678 0.0000000e+0
vn 9.0127256e-17 1.00000000 0.0000000e+0
vn -0.70710678 0.70710678 0.0000000e+0
vn -1.00000000 1.8025451e-16 0.0000000e+0
vn -0.70710678 -0.70710678 0.0000000e+0
vn -1.8025451e-16 -1.00000000 0.0000000e+0
vn 0.70710678 -0.70710678 0.0000000e+0
vn 1.00000000 -3.0042419e-17 0.0000000e+0
vn 0.70710678 0.70710678 0.0000000e+0
vn 9.0127256e-17 1.00000000 0.0000000e+0
vn -0.70710678 0.70710678 0.0000000e+0
vn -1.00000000 1.8025451e-16 0.0000000e+0
vn -0.70710678 -0.70710678 0.0000000e+0
vn -1.8025451e-16 -1.00000000 0.0000000e+0
vn 0.70710678 -0.70710678 0.0000000e+0
vn 3.0665868e-17 1.00000000 9.9139981e-16
vn 3.0665868e-17 1.00000000 9.9139981e-16
vn 3.0665868e-17 0.70710678 0.70710678
vn 3.0665868e-17 0.70710678 0.70710678
vn 0.0000000e+0 0.0000000e+0 1.00000000
vn 0.0000000e+0 0.0000000e+0 1.00000000
vn -3.5046707e-17 -0.70710678 0.70710678
vn -3.5046707e-17 -0.70710678 0.70710678
vn -3.0665868e-17 -1.00000000 1.2317392e-15
vn -3.0665868e-17 -1.00000000 1.2317392e-15
vn -1.7523353e-17 -0.70710678 -0.70710678
vn -1.7523353e-17 -0.70710678 -0.70710678
vn -3.3353785e-33 -6.0084837e-17 -1.00000000
vn -3.3353785e-33 -6.0084837e-17 -1.00000000
vn 2.1904192e-17 0.70710678 -0.70710678
vn 2.1904192e-17 0.70710678 -0.70710678
vn -1.00000000 0.0000000e+0 1.3877788e-16
vn -1.00000000 0.0000000e+0 1.3877788e-16
vn 0.0000000e+0 -0.98078528 -0.19509032
vn 0.0000000e+0 -0.98078528 -0.19509032
vn -1.00000000 0.0000000e+0 0.0000000e+0
vn 0.0000000e+0 -0.70710678 -0.70710678
vn 0.0000000e+0 -0.70710678 -0.70710678
vn -1.00000000 0.0000000e+0 0.0000000e+0
vn 0.0000000e+0 -1.9827996e-15 -1.00000000
vn 0.0000000e+0 -1.9827996e-15 -1.00000000
vn -1.00000000 0.0000000e+0 0.0000000e+0
vn 0.0000000e+0 0.70710678 -0.70710678
vn 0.0000000e+0 0.70710678 -0.70710678
vn -1.00000000 0.0000000e+0 1.3877788e-16
vn -1.00000000 0.0000000e+0 1.3877788e-16
vn 0.0000000e+0 0.98078528 -0.19509032
vn 0.0000000e+0 0.98078528 -0.19509032
vn -1.00000000 0.0000000e+0 2.7755576e-16
vn -1.2335811e-16 -1.00000000 3.3923481e-16
vn 0.0000000e+0 0.0000000e+0 -1.00000000
vn -1.2335811e-16 -1.00000000 3.3923481e-16
vn -1.2335811e-16 -1.00000000 3.3923481e-16
vn -1.00000000 0.0000000e+0 2.7755576e-16
vn 1.2335811e-16 1.00000000 -2.7755576e-16
vn 1.2335811e-16 1.00000000 -2.7755576e-16
vn 0.0000000e+0 0.0000000e+0 -1.00000000
vn 1.2335811e-16 1.00000000 -2.7755576e-16
vn -1.2549928e-16 -0.99154343 -0.12977527
vn -1.2549928e-16 -0.99154343 -0.12977527
vn 1.00000000 0.0000000e+0 -9.2518585e-17
vn -1.2549928e-16 -0.99154343 -0.12977527
vn 1.00000000 0.0000000e+0 -9.2518585e-17
vn 0.0000000e+0 -0.70710678 -0.70710678
vn 0.0000000e+0 -0.70710678 -0.70710678
vn 1.00000000 0.0000000e+0 0.0000000e+0
vn 0.0000000e+0 -1.9827996e-15 -1.00000000
vn 0.0000000e+0 -1.9827996e-15 -1.00000000
vn 1.00000000 0.0000000e+0 0.0000000e+0
vn 0.0000000e+0 0.70710678 -0.70710678
vn 0.0000000e+0 0.70710678 -0.70710678
vn 1.00000000 0.0000000e+0 0.0000000e+0
vn 1.2549928e-16 0.99154343 -0.12977527
vn 1.2549928e-16 0.99154343 -0.12977527
vn 1.00000000 0.0000000e+0 -9.2518585e-17
vn 1.2549928e-16 0.99154343 -0.12977527
vn 1.00000000 0.0000000e+0 -9.2518585e-17
vn -1.2335811e-16 -1.00000000 1.5419764e-16
vn -1.2335811e-16 -1.00000000 1.5419764e-16
vn 0.93632918 0.0000000e+0 0.35112344
vn -1.2335811e-16 -1.00000000 1.5419764e-16
vn 1.00000000 0.0000000e+0 -1.8503717e-16
vn 1.2335811e-16 1.00000000 -1.1564823e-16
vn 1.2335811e-16 1.00000000 -1.1564823e-16
vn 0.93632918 0.0000000e+0 0.35112344
vn 1.2335811e-16 1.00000000 -1.1564823e-16
vn 1.00000000 0.0000000e+0 -1.8503717e-16
vn 1.00000000 0.0000000e+0 1.3877788e-16
vn 1.00000000 0.0000000e+0 1.3877788e-16
vn 0.0000000e+0 -0.98078528 -0.19509032
vn 0.0000000e+0 -0.98078528 -0.19509032
vn 1.00000000 0.0000000e+0 0.0000000e+0
vn 0.0000000e+0 -0.70710678 -0.70710678
vn 0.0000000e+0 -0.70710678 -0.70710678
vn 1.00000000 0.0000000e+0 0.0000000e+0
vn 0.0000000e+0 -1.9827996e-15 -1.00000000
vn 0.0000000e+0 -1.9827996e-15 -1.00000000
vn 1.00000000 0.0000000e+0 0.0000000e+0
vn 0.0000000e+0 0.70710678 -0.70710678
vn 0.0000000e+0 0.70710678 -0.70710678
vn 1.00000000 0.0000000e+0 1.3877788e-16
vn 1.00000000 0.0000000e+0 1.3877788e-16
vn 0.0000000e+0 0.98078528 -0.19509032
vn 0.0000000e+0 0.98078528 -0.19509032
vn 0.0000000e+0 0.0000000e+0 -1.00000000
vn 1.2335811e-16 -1.00000000 3.3923481e-16
vn 1.00000000 0.0000000e+0 2.7755576e-16
vn 1.2335811e-16 -1.00000000 3.3923481e-16
vn 1.2335811e-16 -1.00000000 3.3923481e-16
vn -1.2335811e-16 1.00000000 -2.7755576e-16
vn 0.0000000e+0 0.0000000e+0 -1.00000000
vn 1.00000000 0.0000000e+0 2.7755576e-16
vn -1.2335811e-16 1.00000000 -2.7755576e-16
vn -1.2335811e-16 1.00000000 -2.7755576e-16
vn 1.2549928e-16 -0.99154343 -0.12977527
vn 1.2549928e-16 -0.99154343 -0.12977527
vn -1.00000000 5.4517099e-17 -9.2518585e-17
vn 1.2549928e-16 -0.99154343 -0.12977527
vn -1.00000000 5.4517099e-17 -9.2518585e-17
vn 0.0000000e+0 -0.70710678 -0.70710678
vn 0.0000000e+0 -0.70710678 -0.70710678
vn -1.00000000 1.0903420e-16 0.0000000e+0
vn 0.0000000e+0 -1.9827996e-15 -1.00000000
vn 0.0000000e+0 -1.9827996e-15 -1.00000000
vn -1.00000000 1.0903420e-16 0.0000000e+0
vn 0.0000000e+0 0.70710678 -0.70710678
vn 0.0000000e+0 0.70710678 -0.70710678
vn -1.00000000 1.0903420e-16 0.0000000e+0
vn -1.2549928e-16 0.99154343 -0.12977527
vn -1.2549928e-16 0.99154343 -0.12977527
vn -1.00000000 5.4517099e-17 -9.2518585e-17
vn -1.2549928e-16 0.99154343 -0.12977527
vn -1.00000000 5.4517099e-17 -9.2518585e-17
vn 1.2335811e-16 -1.00000000 1.5419764e-16
vn -1.00000000 0.0000000e+0 -1.8503717e-16
vn 1.2335811e-16 -1.00000000 1.5419764e-16
vn -0.93632918 0.0000000e+0 0.35112344
vn 1.2335811e-16 -1.00000000 1.5419764e-16
vn -1.2335811e-16 1.00000000 -1.1564823e-16
vn -1.00000000 0.0000000e+0 -1.8503717e-16
vn -1.2335811e-16 1.00000000 -1.1564823e-16
vn -1.2335811e-16 1.00000000 -1.1564823e-16
vn -0.93632918 0.0000000e+0 0.35112344
vn 0.0000000e+0 0.0000000e+0 1.00000000
vn 0.93632918 0.0000000e+0 0.35112344
vn 0.0000000e+0 -1.00000000 0.0000000e+0
vn 0.0000000e+0 0.0000000e+0 1.00000000
vn 0.93632918 0.0000000e+0 0.35112344
vn 0.0000000e+0 1.00000000 0.0000000e+0
vn 0.0000000e+0 0.0000000e+0 1.00000000
vn 0.0000000e+0 1.00000000 0.0000000e+0
vn -0.93632918 0.0000000e+0 0.35112344
vn 0.0000000e+0 0.0000000e+0 1.00000000
vn -0.93632918 0.0000000e+0 0.35112344
vn 0.0000000e+0 -1.00000000 0.0000000e+0
vn 5.3665270e-17 1.00000000 -1.2317392e-15
vn 5.3665270e-17 1.00000000 -1.2317392e-15
vn -1.00000000 0.0000000e+0 0.0000000e+0
vn -1.00000000 0.0000000e+0 0.0000000e+0
vn 5.3665270e-17 0.70710678 0.70710678
vn 5.3665270e-17 0.70710678 0.70710678
vn -1.00000000 0.0000000e+0 0.0000000e+0
vn -1.00000000 0.0000000e+0 0.0000000e+0
vn -3.3353785e-33 -3.0042419e-17 1.00000000
vn -3.3353785e-33 -3.0042419e-17 1.00000000
vn -1.00000000 0.0000000e+0 0.0000000e+0
vn -1.00000000 0.0000000e+0 0.0000000e+0
vn -6.1331737e-17 -0.70710678 0.70710678
vn -6.1331737e-17 -0.70710678 0.70710678
vn -1.00000000 0.0000000e+0 0.0000000e+0
vn -1.00000000 0.0000000e+0 0.0000000e+0
vn -5.3665270e-17 -1.00000000 -9.6135739e-16
vn -5.3665270e-17 -1.00000000 -9.6135739e-16
vn -1.00000000 0.0000000e+0 0.0000000e+0
vn -1.00000000 0.0000000e+0 0.0000000e+0
vn -3.0665868e-17 -0.70710678 -0.70710678
vn -3.0665868e-17 -0.70710678 -0.70710678
vn -1.00000000 0.0000000e+0 0.0000000e+0
vn -1.00000000 0.0000000e+0 0.0000000e+0
vn -3.3353785e-33 -3.0042419e-17 -1.00000000
vn -3.3353785e-33 -3.0042419e-17 -1.00000000
vn -1.00000000 0.0000000e+0 0.0000000e+0
vn -1.00000000 0.0000000e+0 0.0000000e+0
vn 3.8332335e-17 0.70710678 -0.70710678
vn 3.8332335e-17 0.70710678 -0.70710678
vn -1.00000000 0.0000000e+0 0.0000000e+0
vn -1.00000000 0.0000000e+0 0.0000000e+0
g 2_2_auv
usemtl 2_auv
s 1
f 17/30/50 21/31/63 20/17/60 19/13/57 18/16/54
f 17/30/51 22/58/67 23/59/72 21/31/64
f 30/51/103 46/52/166 45/9/163 29/8/98
f 32/121/110 33/131/113 34/122/116 35/110/119 31/109/106
f 35/110/120 37/102/130 36/101/125 31/109/107
f 43/11/155 48/10/172 47/53/170 44/54/161
f 49/45/176 65/44/17 50/61/180
f 50/61/181 65/44/17 51/66/185
f 51/66/184 65/44/17 52/60/189
f 52/60/188 65/44/17 53/43/193
f 53/43/192 65/44/17 54/37/197
f 54/37/196 65/44/17 55/34/201
f 55/34/200 65/44/17 56/38/205
f 56/38/204 65/44/17 49/45/177
f 66/32/18 74/33/26 81/23/33 73/22/25
f 67/46/19 75/47/27 74/33/26 66/32/18
f 68/67/20 76/68/28 75/47/27 67/46/19
f 69/81/21 77/82/29 76/68/28 68/67/20
f 70/97/22 78/98/30 77/82/29 69/81/21
f 71/105/23 79/106/31 78/98/30 70/97/22
f 72/107/24 80/108/32 79/106/31 71/105/23
f 73/22/25 81/23/33 80/4/32 72/3/24
s 2
f 1/29/34 9/28/1 16/39/8 8/40/48
f 2/21/37 10/20/2 9/28/1 1/29/35
f 3/6/39 11/5/3 10/20/2 2/21/36
f 4/86/41 12/85/4 11/103/3 3/104/38
f 5/72/43 13/71/5 12/85/4 4/86/40
f 6/65/45 14/64/6 13/71/5 5/72/42
f 7/57/47 15/56/7 14/64/6 6/65/44
f 8/40/49 16/39/8 15/56/7 7/57/46
f 22/58/69 36/101/123 37/102/129 23/59/75
f 25/14/84 26/26/87 27/41/90 28/50/93 24/7/79
f 29/8/100 24/7/81 28/50/95 30/51/105
f 38/12/137 42/55/151 41/42/146 40/27/143 39/15/140
f 44/54/158 42/55/149 38/12/135 43/11/153
f 46/52/165 47/53/168 48/10/171 45/9/162
f 49/25/174 57/24/9 64/35/16 56/36/202
f 50/19/179 58/18/10 57/24/9 49/25/175
f 51/2/183 59/1/11 58/18/10 50/19/178
f 52/84/187 60/83/12 59/99/11 51/100/182
f 53/70/191 61/69/13 60/83/12 52/84/186
f 54/63/195 62/62/14 61/69/13 53/70/190
f 55/49/199 63/48/15 62/62/14 54/63/194
f 56/36/203 64/35/16 63/48/15 55/49/198
s 3
f 17/93/52 24/80/77 22/90/68
f 18/94/55 25/76/82 24/80/78 17/93/53
f 19/91/58 26/74/85 25/76/83 18/94/56
f 20/118/61 27/123/88 26/125/86 19/112/59
f 21/116/65 28/127/91 27/123/89 20/118/62
f 22/90/70 29/73/96 43/128/152 36/111/124
f 23/115/73 28/127/92 21/116/66
f 23/115/76 30/130/102 28/127/94
f 24/80/80 29/73/97 22/90/71
f 29/73/99 45/87/164 48/120/173 43/128/156
f 30/130/101 23/115/74 37/96/128 44/75/157
f 31/117/109 38/129/134 39/126/138 32/114/111
f 32/114/112 39/126/139 40/124/141 33/113/114
f 33/89/115 40/77/142 41/78/144 34/95/117
f 34/95/118 41/78/145 42/79/147 35/92/121
f 35/92/122 42/79/148 37/96/131
f 36/111/126 38/129/133 31/117/108
f 36/111/127 43/128/154 38/129/136
f 42/79/150 44/75/159 37/96/132
f 44/75/160 47/88/169 46/119/167 30/130/104
