# Exported from Wings 3D 1.5.4
mtllib ./sar base.mtl
o 2
#10 vertices, 11 faces
v -3.7500000e-2 -3.7500000e-2 -0.26250000
v -3.7500000e-2 -0.11250000 -0.18750000
v -3.7500000e-2 3.7500000e-2 -0.26250000
v 3.7500000e-2 -3.7500000e-2 -0.26250000
v 3.7500000e-2 -0.11250000 -0.18750000
v 3.7500000e-2 3.7500000e-2 -0.26250000
v -3.7500000e-2 3.7500000e-2 3.7500000e-2
v -3.7500000e-2 -0.11250000 3.7500000e-2
v 3.7500000e-2 -0.11250000 3.7500000e-2
v 3.7500000e-2 3.7500000e-2 3.7500000e-2
vt 0.45805532 0.43264727
vt 0.45805532 0.31495448
vt 0.51659746 0.43264727
vt 0.51659746 0.31495448
vt 0.51678610 0.43276273
vt 0.51678610 0.31506994
vt 0.57757362 0.43264727
vt 0.57776226 0.43276273
vt 0.63484081 0.44442403
vt 0.63484081 0.47369511
vt 0.63484081 0.31495448
vt 0.63484081 0.40302848
vt 0.63484081 0.25667312
vt 0.63502945 0.31506994
vt 0.63502945 0.40314395
vt 0.69332500 0.40302848
vt 0.69332500 0.44442403
vt 0.69332500 0.31495448
vt 0.69332500 0.25667312
vt 0.69332500 0.47369511
vn 0.0000000e+0 -0.70710678 -0.70710678
vn 0.0000000e+0 0.0000000e+0 -1.00000000
vn -1.00000000 0.0000000e+0 0.0000000e+0
vn 0.0000000e+0 -0.70710678 -0.70710678
vn -1.00000000 0.0000000e+0 0.0000000e+0
vn -1.00000000 0.0000000e+0 0.0000000e+0
vn 0.0000000e+0 -1.00000000 0.0000000e+0
vn -1.00000000 0.0000000e+0 0.0000000e+0
vn 0.0000000e+0 1.00000000 0.0000000e+0
vn 0.0000000e+0 0.0000000e+0 -1.00000000
vn -1.00000000 0.0000000e+0 0.0000000e+0
vn -1.00000000 0.0000000e+0 0.0000000e+0
vn 0.0000000e+0 -0.70710678 -0.70710678
vn 0.0000000e+0 0.0000000e+0 -1.00000000
vn 1.00000000 0.0000000e+0 0.0000000e+0
vn 0.0000000e+0 -0.70710678 -0.70710678
vn 1.00000000 0.0000000e+0 0.0000000e+0
vn 0.0000000e+0 -1.00000000 0.0000000e+0
vn 1.00000000 0.0000000e+0 0.0000000e+0
vn 1.00000000 0.0000000e+0 0.0000000e+0
vn 0.0000000e+0 1.00000000 0.0000000e+0
vn 0.0000000e+0 0.0000000e+0 -1.00000000
vn 1.00000000 0.0000000e+0 0.0000000e+0
vn 1.00000000 0.0000000e+0 0.0000000e+0
vn 0.0000000e+0 1.00000000 0.0000000e+0
vn 0.0000000e+0 0.0000000e+0 1.00000000
vn -1.00000000 0.0000000e+0 0.0000000e+0
vn -1.00000000 0.0000000e+0 0.0000000e+0
vn 0.0000000e+0 0.0000000e+0 1.00000000
vn -1.00000000 0.0000000e+0 0.0000000e+0
vn 0.0000000e+0 -1.00000000 0.0000000e+0
vn 0.0000000e+0 0.0000000e+0 1.00000000
vn 0.0000000e+0 -1.00000000 0.0000000e+0
vn 1.00000000 0.0000000e+0 0.0000000e+0
vn 0.0000000e+0 1.00000000 0.0000000e+0
vn 0.0000000e+0 0.0000000e+0 1.00000000
vn 1.00000000 0.0000000e+0 0.0000000e+0
vn 1.00000000 0.0000000e+0 0.0000000e+0
g 2_2_auv
usemtl 2_auv
s 1
f 3/20/10 6/10/22 4/9/14 1/17/2
f 8/18/29 9/11/32 10/13/36 7/19/26
s 2
f 3/1/9 7/2/25 10/4/35 6/3/21
f 5/12/18 9/11/33 8/18/31 2/16/7
s 3
f 2/15/5 3/5/11 1/8/3
f 3/5/12 2/15/8 7/6/28
f 4/7/15 6/3/23 5/12/17
f 5/12/20 6/3/24 10/4/38
f 7/6/27 2/15/6 8/14/30
f 9/11/34 5/12/19 10/4/37
s 4
f 1/17/1 4/9/13 5/12/16 2/16/4
