# Exported from Wings 3D 1.5.4
mtllib Ara_Avionics_1_Collider.mtl
o Ara_Avionics_1_Collider
#80 vertices, 66 faces
v 0.85818712 0.0000000e+0 -0.17070403
v 0.78637078 -0.17677670 -0.15641887
v 0.61299080 -0.25000000 -0.12193145
v 0.61299080 0.25000000 -0.12193145
v 0.78637078 0.17677670 -0.15641887
v 0.85818712 0.0000000e+0 0.17070403
v 0.78637078 -0.17677670 0.15641887
v 0.61299080 -0.25000000 0.12193145
v 0.61299080 0.25000000 0.12193145
v 0.78637078 0.17677670 0.15641887
v 0.72753591 0.0000000e+0 0.48612395
v 0.66665296 -0.17677670 0.44544327
v 0.51966851 -0.25000000 0.34723140
v 0.51966851 0.25000000 0.34723140
v 0.66665296 0.17677670 0.44544327
v 0.48612395 0.0000000e+0 0.72753591
v 0.44544327 -0.17677670 0.66665296
v 0.34723140 -0.25000000 0.51966851
v 0.34723140 0.25000000 0.51966851
v 0.44544327 0.17677670 0.66665296
v 0.17070403 0.0000000e+0 0.85818712
v 0.15641887 -0.17677670 0.78637078
v 0.12193145 -0.25000000 0.61299080
v 0.12193145 0.25000000 0.61299080
v 0.15641887 0.17677670 0.78637078
v -0.17070403 0.0000000e+0 0.85818712
v -0.15641887 -0.17677670 0.78637078
v -0.12193145 -0.25000000 0.61299080
v -0.12193145 0.25000000 0.61299080
v -0.15641887 0.17677670 0.78637078
v -0.48612395 0.0000000e+0 0.72753591
v -0.44544327 -0.17677670 0.66665296
v -0.34723140 -0.25000000 0.51966851
v -0.34723140 0.25000000 0.51966851
v -0.44544327 0.17677670 0.66665296
v -0.72753591 0.0000000e+0 0.48612395
v -0.66665296 -0.17677670 0.44544327
v -0.51966851 -0.25000000 0.34723140
v -0.51966851 0.25000000 0.34723140
v -0.66665296 0.17677670 0.44544327
v -0.85818712 0.0000000e+0 0.17070403
v -0.78637078 -0.17677670 0.15641887
v -0.61299080 -0.25000000 0.12193145
v -0.61299080 0.25000000 0.12193145
v -0.78637078 0.17677670 0.15641887
v -0.85818712 0.0000000e+0 -0.17070403
v -0.78637078 -0.17677670 -0.15641887
v -0.61299080 -0.25000000 -0.12193145
v -0.61299080 0.25000000 -0.12193145
v -0.78637078 0.17677670 -0.15641887
v -0.72753591 0.0000000e+0 -0.48612395
v -0.66665296 -0.17677670 -0.44544327
v -0.51966851 -0.25000000 -0.34723140
v -0.51966851 0.25000000 -0.34723140
v -0.66665296 0.17677670 -0.44544327
v -0.48612395 0.0000000e+0 -0.72753591
v -0.44544327 -0.17677670 -0.66665296
v -0.34723140 -0.25000000 -0.51966851
v -0.34723140 0.25000000 -0.51966851
v -0.44544327 0.17677670 -0.66665296
v -0.17070403 0.0000000e+0 -0.85818712
v -0.15641887 -0.17677670 -0.78637078
v -0.12193145 -0.25000000 -0.61299080
v -0.12193145 0.25000000 -0.61299080
v -0.15641887 0.17677670 -0.78637078
v 0.17070403 0.0000000e+0 -0.85818712
v 0.15641887 -0.17677670 -0.78637078
v 0.12193145 -0.25000000 -0.61299080
v 0.12193145 0.25000000 -0.61299080
v 0.15641887 0.17677670 -0.78637078
v 0.48612395 0.0000000e+0 -0.72753591
v 0.44544327 -0.17677670 -0.66665296
v 0.34723140 -0.25000000 -0.51966851
v 0.34723140 0.25000000 -0.51966851
v 0.44544327 0.17677670 -0.66665296
v 0.72753591 0.0000000e+0 -0.48612395
v 0.66665296 -0.17677670 -0.44544327
v 0.51966851 -0.25000000 -0.34723140
v 0.51966851 0.25000000 -0.34723140
v 0.66665296 0.17677670 -0.44544327
vn 0.92646510 -0.37638068 -1.5285725e-16
vn 0.92646510 0.37638068 -1.6675336e-16
vn 0.85594215 -0.37638068 -0.35454285
vn 0.85594215 0.37638068 -0.35454285
vn 0.92646510 -0.37638068 -1.5285725e-16
vn 0.38905512 -0.92121448 -8.2782843e-17
vn 0.85594215 -0.37638068 -0.35454285
vn 0.35944006 -0.92121448 -0.14888495
vn 0.38905512 -0.92121448 -8.2782843e-17
vn 0.35944006 -0.92121448 -0.14888495
vn 0.0000000e+0 -1.00000000 2.3209221e-17
vn 0.38905512 0.92121448 -6.6226274e-17
vn 0.35944006 0.92121448 -0.14888495
vn 0.0000000e+0 1.00000000 0.0000000e+0
vn 0.38905512 0.92121448 -6.6226274e-17
vn 0.92646510 0.37638068 -1.6675336e-16
vn 0.35944006 0.92121448 -0.14888495
vn 0.85594215 0.37638068 -0.35454285
vn 0.92646510 -0.37638068 -1.5285725e-16
vn 0.92646510 0.37638068 -1.6675336e-16
vn 0.85594215 -0.37638068 0.35454285
vn 0.85594215 0.37638068 0.35454285
vn 0.92646510 -0.37638068 -1.5285725e-16
vn 0.38905512 -0.92121448 -8.2782843e-17
vn 0.85594215 -0.37638068 0.35454285
vn 0.35944006 -0.92121448 0.14888495
vn 0.38905512 -0.92121448 -8.2782843e-17
vn 0.35944006 -0.92121448 0.14888495
vn 0.0000000e+0 -1.00000000 2.3209221e-17
vn 0.38905512 0.92121448 -6.6226274e-17
vn 0.35944006 0.92121448 0.14888495
vn 0.0000000e+0 1.00000000 0.0000000e+0
vn 0.38905512 0.92121448 -6.6226274e-17
vn 0.92646510 0.37638068 -1.6675336e-16
vn 0.35944006 0.92121448 0.14888495
vn 0.85594215 0.37638068 0.35454285
vn 0.85594215 -0.37638068 0.35454285
vn 0.85594215 0.37638068 0.35454285
vn 0.65510976 -0.37638068 0.65510976
vn 0.65510976 0.37638068 0.65510976
vn 0.85594215 -0.37638068 0.35454285
vn 0.35944006 -0.92121448 0.14888495
vn 0.65510976 -0.37638068 0.65510976
vn 0.27510351 -0.92121448 0.27510351
vn 0.35944006 -0.92121448 0.14888495
vn 0.27510351 -0.92121448 0.27510351
vn 0.0000000e+0 -1.00000000 2.3209221e-17
vn 0.35944006 0.92121448 0.14888495
vn 0.27510351 0.92121448 0.27510351
vn 0.0000000e+0 1.00000000 0.0000000e+0
vn 0.35944006 0.92121448 0.14888495
vn 0.85594215 0.37638068 0.35454285
vn 0.27510351 0.92121448 0.27510351
vn 0.65510976 0.37638068 0.65510976
vn 0.65510976 -0.37638068 0.65510976
vn 0.65510976 0.37638068 0.65510976
vn 0.35454285 -0.37638068 0.85594215
vn 0.35454285 0.37638068 0.85594215
vn 0.65510976 -0.37638068 0.65510976
vn 0.27510351 -0.92121448 0.27510351
vn 0.35454285 -0.37638068 0.85594215
vn 0.14888495 -0.92121448 0.35944006
vn 0.27510351 -0.92121448 0.27510351
vn 0.14888495 -0.92121448 0.35944006
vn 0.0000000e+0 -1.00000000 2.3209221e-17
vn 0.27510351 0.92121448 0.27510351
vn 0.14888495 0.92121448 0.35944006
vn 0.0000000e+0 1.00000000 0.0000000e+0
vn 0.27510351 0.92121448 0.27510351
vn 0.65510976 0.37638068 0.65510976
vn 0.14888495 0.92121448 0.35944006
vn 0.35454285 0.37638068 0.85594215
vn 0.35454285 -0.37638068 0.85594215
vn 0.35454285 0.37638068 0.85594215
vn 1.5285725e-16 -0.37638068 0.92646510
vn 1.6675336e-16 0.37638068 0.92646510
vn 0.35454285 -0.37638068 0.85594215
vn 0.14888495 -0.92121448 0.35944006
vn 1.5285725e-16 -0.37638068 0.92646510
vn 8.2782843e-17 -0.92121448 0.38905512
vn 0.14888495 -0.92121448 0.35944006
vn 8.2782843e-17 -0.92121448 0.38905512
vn 0.0000000e+0 -1.00000000 2.3209221e-17
vn 0.14888495 0.92121448 0.35944006
vn 6.6226274e-17 0.92121448 0.38905512
vn 0.0000000e+0 1.00000000 0.0000000e+0
vn 0.14888495 0.92121448 0.35944006
vn 0.35454285 0.37638068 0.85594215
vn 6.6226274e-17 0.92121448 0.38905512
vn 1.6675336e-16 0.37638068 0.92646510
vn 1.5285725e-16 -0.37638068 0.92646510
vn 1.6675336e-16 0.37638068 0.92646510
vn -0.35454285 -0.37638068 0.85594215
vn -0.35454285 0.37638068 0.85594215
vn 1.5285725e-16 -0.37638068 0.92646510
vn 8.2782843e-17 -0.92121448 0.38905512
vn -0.35454285 -0.37638068 0.85594215
vn -0.14888495 -0.92121448 0.35944006
vn 8.2782843e-17 -0.92121448 0.38905512
vn -0.14888495 -0.92121448 0.35944006
vn 0.0000000e+0 -1.00000000 2.3209221e-17
vn 6.6226274e-17 0.92121448 0.38905512
vn -0.14888495 0.92121448 0.35944006
vn 0.0000000e+0 1.00000000 0.0000000e+0
vn 6.6226274e-17 0.92121448 0.38905512
vn 1.6675336e-16 0.37638068 0.92646510
vn -0.14888495 0.92121448 0.35944006
vn -0.35454285 0.37638068 0.85594215
vn -0.35454285 -0.37638068 0.85594215
vn -0.35454285 0.37638068 0.85594215
vn -0.65510976 -0.37638068 0.65510976
vn -0.65510976 0.37638068 0.65510976
vn -0.35454285 -0.37638068 0.85594215
vn -0.14888495 -0.92121448 0.35944006
vn -0.65510976 -0.37638068 0.65510976
vn -0.27510351 -0.92121448 0.27510351
vn -0.14888495 -0.92121448 0.35944006
vn -0.27510351 -0.92121448 0.27510351
vn 0.0000000e+0 -1.00000000 2.3209221e-17
vn -0.14888495 0.92121448 0.35944006
vn -0.27510351 0.92121448 0.27510351
vn 0.0000000e+0 1.00000000 0.0000000e+0
vn -0.14888495 0.92121448 0.35944006
vn -0.35454285 0.37638068 0.85594215
vn -0.27510351 0.92121448 0.27510351
vn -0.65510976 0.37638068 0.65510976
vn -0.65510976 -0.37638068 0.65510976
vn -0.65510976 0.37638068 0.65510976
vn -0.85594215 -0.37638068 0.35454285
vn -0.85594215 0.37638068 0.35454285
vn -0.65510976 -0.37638068 0.65510976
vn -0.27510351 -0.92121448 0.27510351
vn -0.85594215 -0.37638068 0.35454285
vn -0.35944006 -0.92121448 0.14888495
vn -0.27510351 -0.92121448 0.27510351
vn -0.35944006 -0.92121448 0.14888495
vn 0.0000000e+0 -1.00000000 2.3209221e-17
vn -0.27510351 0.92121448 0.27510351
vn -0.35944006 0.92121448 0.14888495
vn 0.0000000e+0 1.00000000 0.0000000e+0
vn -0.27510351 0.92121448 0.27510351
vn -0.65510976 0.37638068 0.65510976
vn -0.35944006 0.92121448 0.14888495
vn -0.85594215 0.37638068 0.35454285
vn -0.85594215 -0.37638068 0.35454285
vn -0.85594215 0.37638068 0.35454285
vn -0.92646510 -0.37638068 0.0000000e+0
vn -0.92646510 0.37638068 0.0000000e+0
vn -0.85594215 -0.37638068 0.35454285
vn -0.35944006 -0.92121448 0.14888495
vn -0.92646510 -0.37638068 0.0000000e+0
vn -0.38905512 -0.92121448 0.0000000e+0
vn -0.35944006 -0.92121448 0.14888495
vn -0.38905512 -0.92121448 0.0000000e+0
vn 0.0000000e+0 -1.00000000 2.3209221e-17
vn -0.35944006 0.92121448 0.14888495
vn -0.38905512 0.92121448 0.0000000e+0
vn 0.0000000e+0 1.00000000 0.0000000e+0
vn -0.35944006 0.92121448 0.14888495
vn -0.85594215 0.37638068 0.35454285
vn -0.38905512 0.92121448 0.0000000e+0
vn -0.92646510 0.37638068 0.0000000e+0
vn -0.92646510 -0.37638068 0.0000000e+0
vn -0.92646510 0.37638068 0.0000000e+0
vn -0.85594215 -0.37638068 -0.35454285
vn -0.85594215 0.37638068 -0.35454285
vn -0.92646510 -0.37638068 0.0000000e+0
vn -0.38905512 -0.92121448 0.0000000e+0
vn -0.85594215 -0.37638068 -0.35454285
vn -0.35944006 -0.92121448 -0.14888495
vn -0.38905512 -0.92121448 0.0000000e+0
vn -0.35944006 -0.92121448 -0.14888495
vn 0.0000000e+0 -1.00000000 2.3209221e-17
vn -0.38905512 0.92121448 0.0000000e+0
vn -0.35944006 0.92121448 -0.14888495
vn 0.0000000e+0 1.00000000 0.0000000e+0
vn -0.38905512 0.92121448 0.0000000e+0
vn -0.92646510 0.37638068 0.0000000e+0
vn -0.35944006 0.92121448 -0.14888495
vn -0.85594215 0.37638068 -0.35454285
vn -0.85594215 -0.37638068 -0.35454285
vn -0.85594215 0.37638068 -0.35454285
vn -0.65510976 -0.37638068 -0.65510976
vn -0.65510976 0.37638068 -0.65510976
vn -0.85594215 -0.37638068 -0.35454285
vn -0.35944006 -0.92121448 -0.14888495
vn -0.65510976 -0.37638068 -0.65510976
vn -0.27510351 -0.92121448 -0.27510351
vn -0.35944006 -0.92121448 -0.14888495
vn -0.27510351 -0.92121448 -0.27510351
vn 0.0000000e+0 -1.00000000 2.3209221e-17
vn -0.35944006 0.92121448 -0.14888495
vn -0.27510351 0.92121448 -0.27510351
vn 0.0000000e+0 1.00000000 0.0000000e+0
vn -0.35944006 0.92121448 -0.14888495
vn -0.85594215 0.37638068 -0.35454285
vn -0.27510351 0.92121448 -0.27510351
vn -0.65510976 0.37638068 -0.65510976
vn -0.65510976 -0.37638068 -0.65510976
vn -0.65510976 0.37638068 -0.65510976
vn -0.35454285 -0.37638068 -0.85594215
vn -0.35454285 0.37638068 -0.85594215
vn -0.65510976 -0.37638068 -0.65510976
vn -0.27510351 -0.92121448 -0.27510351
vn -0.35454285 -0.37638068 -0.85594215
vn -0.14888495 -0.92121448 -0.35944006
vn -0.27510351 -0.92121448 -0.27510351
vn -0.14888495 -0.92121448 -0.35944006
vn 0.0000000e+0 -1.00000000 2.3209221e-17
vn -0.27510351 0.92121448 -0.27510351
vn -0.14888495 0.92121448 -0.35944006
vn 0.0000000e+0 1.00000000 0.0000000e+0
vn -0.27510351 0.92121448 -0.27510351
vn -0.65510976 0.37638068 -0.65510976
vn -0.14888495 0.92121448 -0.35944006
vn -0.35454285 0.37638068 -0.85594215
vn -0.35454285 -0.37638068 -0.85594215
vn -0.35454285 0.37638068 -0.85594215
vn 1.5285725e-16 -0.37638068 -0.92646510
vn 1.6675336e-16 0.37638068 -0.92646510
vn -0.35454285 -0.37638068 -0.85594215
vn -0.14888495 -0.92121448 -0.35944006
vn 1.5285725e-16 -0.37638068 -0.92646510
vn 8.2782843e-17 -0.92121448 -0.38905512
vn -0.14888495 -0.92121448 -0.35944006
vn 8.2782843e-17 -0.92121448 -0.38905512
vn 0.0000000e+0 -1.00000000 2.3209221e-17
vn -0.14888495 0.92121448 -0.35944006
vn 6.6226274e-17 0.92121448 -0.38905512
vn 0.0000000e+0 1.00000000 0.0000000e+0
vn -0.14888495 0.92121448 -0.35944006
vn -0.35454285 0.37638068 -0.85594215
vn 6.6226274e-17 0.92121448 -0.38905512
vn 1.6675336e-16 0.37638068 -0.92646510
vn 1.5285725e-16 -0.37638068 -0.92646510
vn 1.6675336e-16 0.37638068 -0.92646510
vn 0.35454285 -0.37638068 -0.85594215
vn 0.35454285 0.37638068 -0.85594215
vn 1.5285725e-16 -0.37638068 -0.92646510
vn 8.2782843e-17 -0.92121448 -0.38905512
vn 0.35454285 -0.37638068 -0.85594215
vn 0.14888495 -0.92121448 -0.35944006
vn 8.2782843e-17 -0.92121448 -0.38905512
vn 0.14888495 -0.92121448 -0.35944006
vn 0.0000000e+0 -1.00000000 2.3209221e-17
vn 6.6226274e-17 0.92121448 -0.38905512
vn 0.14888495 0.92121448 -0.35944006
vn 0.0000000e+0 1.00000000 0.0000000e+0
vn 6.6226274e-17 0.92121448 -0.38905512
vn 1.6675336e-16 0.37638068 -0.92646510
vn 0.14888495 0.92121448 -0.35944006
vn 0.35454285 0.37638068 -0.85594215
vn 0.35454285 -0.37638068 -0.85594215
vn 0.35454285 0.37638068 -0.85594215
vn 0.65510976 -0.37638068 -0.65510976
vn 0.65510976 0.37638068 -0.65510976
vn 0.35454285 -0.37638068 -0.85594215
vn 0.14888495 -0.92121448 -0.35944006
vn 0.65510976 -0.37638068 -0.65510976
vn 0.27510351 -0.92121448 -0.27510351
vn 0.14888495 -0.92121448 -0.35944006
vn 0.27510351 -0.92121448 -0.27510351
vn 0.0000000e+0 -1.00000000 2.3209221e-17
vn 0.14888495 0.92121448 -0.35944006
vn 0.27510351 0.92121448 -0.27510351
vn 0.0000000e+0 1.00000000 0.0000000e+0
vn 0.14888495 0.92121448 -0.35944006
vn 0.35454285 0.37638068 -0.85594215
vn 0.27510351 0.92121448 -0.27510351
vn 0.65510976 0.37638068 -0.65510976
vn 0.65510976 -0.37638068 -0.65510976
vn 0.65510976 0.37638068 -0.65510976
vn 0.85594215 -0.37638068 -0.35454285
vn 0.85594215 0.37638068 -0.35454285
vn 0.65510976 -0.37638068 -0.65510976
vn 0.27510351 -0.92121448 -0.27510351
vn 0.85594215 -0.37638068 -0.35454285
vn 0.35944006 -0.92121448 -0.14888495
vn 0.27510351 -0.92121448 -0.27510351
vn 0.35944006 -0.92121448 -0.14888495
vn 0.0000000e+0 -1.00000000 2.3209221e-17
vn 0.27510351 0.92121448 -0.27510351
vn 0.35944006 0.92121448 -0.14888495
vn 0.0000000e+0 1.00000000 0.0000000e+0
vn 0.27510351 0.92121448 -0.27510351
vn 0.65510976 0.37638068 -0.65510976
vn 0.35944006 0.92121448 -0.14888495
vn 0.85594215 0.37638068 -0.35454285
g Ara_Avionics_1_Collider_default
usemtl default
s 1
f 1//1 6//19 7//23 2//5
f 3//10 78//280 77//278 2//8
f 4//12 9//30 10//33 5//15
f 7//26 12//42 13//45 8//28
f 10//36 15//52 11//38 6//22
f 14//49 19//66 20//69 15//53
f 16//57 21//73 22//77 17//61
f 22//80 27//96 28//99 23//82
f 25//90 30//106 26//92 21//76
f 26//93 31//109 32//113 27//97
f 29//103 34//120 35//123 30//107
f 35//126 40//142 36//128 31//112
f 37//134 42//150 43//153 38//136
f 39//139 44//156 45//159 40//143
f 45//162 50//178 46//164 41//148
f 47//170 52//186 53//189 48//172
f 49//175 54//192 55//195 50//179
f 55//198 60//214 56//200 51//184
f 57//206 62//222 63//225 58//208
f 59//211 64//228 65//231 60//215
f 61//219 66//235 67//239 62//223
f 67//242 72//258 73//261 68//244
f 69//247 74//264 75//267 70//251
f 75//270 80//286 76//272 71//256
s 2
f 2//7 77//277 76//273 1//3
f 5//16 10//34 6//20 1//2
f 5//17 80//287 79//283 4//13
f 6//21 11//37 12//41 7//25
f 8//29 13//47 18//65 23//83 28//101 33//119 38//137 43//155 48//173 53//191 58//209 63//227 68//245 73//263 78//281 3//11
f 9//31 14//48 15//51 10//35
f 15//54 20//70 16//56 11//40
f 21//75 26//91 27//95 22//79
f 24//85 29//102 30//105 25//89
f 30//108 35//124 31//110 26//94
f 31//111 36//127 37//131 32//115
f 34//121 39//138 40//141 35//125
f 40//144 45//160 41//146 36//130
f 41//147 46//163 47//167 42//151
f 44//157 49//174 50//177 45//161
f 50//180 55//196 51//182 46//166
f 54//193 59//210 60//213 55//197
f 56//201 61//217 62//221 57//205
f 65//234 70//250 66//236 61//220
f 66//237 71//253 72//257 67//241
s 3
f 1//4 76//274 80//288 5//18
f 2//6 7//24 8//27 3//9
f 12//44 17//60 18//63 13//46
f 19//67 24//84 25//87 20//71
f 27//98 32//114 33//117 28//100
f 36//129 41//145 42//149 37//133
f 42//152 47//168 48//171 43//154
f 46//165 51//181 52//185 47//169
f 52//188 57//204 58//207 53//190
f 60//216 65//232 61//218 56//202
f 62//224 67//240 68//243 63//226
f 64//229 69//246 70//249 65//233
f 70//252 75//268 71//254 66//238
f 71//255 76//271 77//275 72//259
f 74//265 79//282 80//285 75//269
s 4
f 4//14 79//284 74//266 69//248 64//230 59//212 54//194 49//176 44//158 39//140 34//122 29//104 24//86 19//68 14//50 9//32
f 11//39 16//55 17//59 12//43
f 17//62 22//78 23//81 18//64
f 20//72 25//88 21//74 16//58
f 32//116 37//132 38//135 33//118
f 51//183 56//199 57//203 52//187
f 72//260 77//276 78//279 73//262
