# Exported from Wings 3D 1.5.4
mtllib Rana_Port_1.mtl
o Rana_Port_1
#64 vertices, 50 faces
v -1.2500000e-2 5.6250000e-2 6.2500000e-2
v -1.2500000e-2 5.6250000e-2 8.7500000e-2
v -1.2500000e-2 6.8750000e-2 6.2500000e-2
v -1.2500000e-2 6.8750000e-2 8.7500000e-2
v 1.2500000e-2 5.6250000e-2 6.2500000e-2
v 1.2500000e-2 5.6250000e-2 8.7500000e-2
v 1.2500000e-2 6.8750000e-2 6.2500000e-2
v 1.2500000e-2 6.8750000e-2 8.7500000e-2
v -1.2500000e-2 5.6250000e-2 -8.7500000e-2
v -1.2500000e-2 5.6250000e-2 -6.2500000e-2
v -1.2500000e-2 6.8750000e-2 -8.7500000e-2
v -1.2500000e-2 6.8750000e-2 -6.2500000e-2
v 1.2500000e-2 5.6250000e-2 -8.7500000e-2
v 1.2500000e-2 5.6250000e-2 -6.2500000e-2
v 1.2500000e-2 6.8750000e-2 -8.7500000e-2
v 1.2500000e-2 6.8750000e-2 -6.2500000e-2
v 6.2500000e-2 5.6250000e-2 1.2500000e-2
v 8.7500000e-2 5.6250000e-2 1.2500000e-2
v 6.2500000e-2 6.8750000e-2 1.2500000e-2
v 8.7500000e-2 6.8750000e-2 1.2500000e-2
v 6.2500000e-2 5.6250000e-2 -1.2500000e-2
v 8.7500000e-2 5.6250000e-2 -1.2500000e-2
v 6.2500000e-2 6.8750000e-2 -1.2500000e-2
v 8.7500000e-2 6.8750000e-2 -1.2500000e-2
v -8.7500000e-2 5.6250000e-2 1.2500000e-2
v -6.2500000e-2 5.6250000e-2 1.2500000e-2
v -8.7500000e-2 6.8750000e-2 1.2500000e-2
v -6.2500000e-2 6.8750000e-2 1.2500000e-2
v -8.7500000e-2 5.6250000e-2 -1.2500000e-2
v -6.2500000e-2 5.6250000e-2 -1.2500000e-2
v -8.7500000e-2 6.8750000e-2 -1.2500000e-2
v -6.2500000e-2 6.8750000e-2 -1.2500000e-2
v -0.15625000 1.8750000e-2 -0.15625000
v -0.15625000 1.8750000e-2 0.15625000
v -0.15625000 6.8750000e-2 -0.15625000
v -0.15625000 6.8750000e-2 0.15625000
v 0.15625000 1.8750000e-2 -0.15625000
v 0.15625000 1.8750000e-2 0.15625000
v 0.15625000 6.8750000e-2 -0.15625000
v 0.15625000 6.8750000e-2 0.15625000
v -0.13125000 6.2500000e-3 0.13125000
v -0.13125000 6.2500000e-3 -0.13125000
v 0.13125000 6.2500000e-3 -0.13125000
v 0.13125000 6.2500000e-3 0.13125000
v -0.13125000 6.8750000e-2 -0.13125000
v -0.13125000 6.8750000e-2 0.13125000
v 0.13125000 6.8750000e-2 0.13125000
v 0.13125000 6.8750000e-2 -0.13125000
v -0.11875000 5.6250000e-2 -0.11875000
v -0.11875000 5.6250000e-2 0.11875000
v 0.11875000 5.6250000e-2 0.11875000
v 0.11875000 5.6250000e-2 -0.11875000
v 0.13125000 -6.2500000e-3 0.13125000
v -0.13125000 -6.2500000e-3 0.13125000
v -0.13125000 -6.2500000e-3 -0.13125000
v 0.13125000 -6.2500000e-3 -0.13125000
v 0.15625000 -1.8750000e-2 0.15625000
v -0.15625000 -1.8750000e-2 0.15625000
v -0.15625000 -1.8750000e-2 -0.15625000
v 0.15625000 -1.8750000e-2 -0.15625000
v 0.15625000 -6.8750000e-2 0.15625000
v -0.15625000 -6.8750000e-2 0.15625000
v -0.15625000 -6.8750000e-2 -0.15625000
v 0.15625000 -6.8750000e-2 -0.15625000
vt 3.3016801e-2 0.23649323
vt 3.3016801e-2 0.23661779
vt 3.3016801e-2 0.27561779
vt 3.3016801e-2 0.27561779
vt 3.3016801e-2 0.30474089
vt 3.3016801e-2 0.23649323
vt 3.3016801e-2 0.23649323
vt 3.3016801e-2 0.23661779
vt 3.3016801e-2 0.27561779
vt 3.3016801e-2 0.30474089
vt 5.2516801e-2 0.21596872
vt 5.2516801e-2 0.21596872
vt 5.2516801e-2 0.32551270
vt 5.2516801e-2 0.32553800
vt 5.2516801e-2 0.34198112
vt 5.2516801e-2 0.32551270
vt 5.2516801e-2 0.70081922
vt 5.2516801e-2 0.90340802
vt 5.3066393e-2 0.95084858
vt 5.3066393e-2 0.95084858
vt 5.3066393e-2 0.97420966
vt 5.3066393e-2 0.97420966
vt 5.3066393e-2 0.95084858
vt 5.3066393e-2 0.97420966
vt 7.3859375e-2 0.60074724
vt 7.3859375e-2 0.62807576
vt 7.3859375e-2 0.62813483
vt 7.3859375e-2 0.62813483
vt 7.3859375e-2 0.60074724
vt 7.3859375e-2 0.62807576
vt 7.3859375e-2 0.62813483
vt 7.5839567e-2 0.95084858
vt 7.5839567e-2 0.97420966
vt 7.5839567e-2 0.95084858
vt 7.5839567e-2 0.95084858
vt 7.5839567e-2 0.97420966
vt 7.5839567e-2 0.97420966
vt 7.5889694e-2 0.97420966
vt 7.5889694e-2 0.95084858
vt 7.5889694e-2 0.97420966
vt 8.7523633e-2 0.64363165
vt 8.7523633e-2 0.64363165
vt 8.7523633e-2 0.66046378
vt 8.7523633e-2 0.66046378
vt 8.7523633e-2 0.64341194
vt 8.7523633e-2 0.64341194
vt 0.10016300 0.95084858
vt 0.10016300 0.97420966
vt 0.10607056 0.12440798
vt 0.10607056 2.7085675e-2
vt 0.20339287 2.7085675e-2
vt 0.20339287 0.12440798
vt 0.23099834 0.64341194
vt 0.23099834 0.64363165
vt 0.23099834 0.64363165
vt 0.23099834 0.66046378
vt 0.23099834 0.66046378
vt 0.23099834 0.64341194
vt 0.23099834 0.64341194
vt 0.24466259 0.62813483
vt 0.24466259 0.60074724
vt 0.24466259 0.62807576
vt 0.24466259 0.60074724
vt 0.24466259 0.62807576
vt 0.24466259 0.62813483
vt 0.25663259 0.32551270
vt 0.25663259 0.32551270
vt 0.25663259 0.32551270
vt 0.25663259 0.32553800
vt 0.25663259 0.34198112
vt 0.25663259 0.70081922
vt 0.25663259 0.90340802
vt 0.25726680 0.21596872
vt 0.25726680 0.21596872
vt 0.25726680 0.21596872
vt 0.27676680 0.23649323
vt 0.27676680 0.23649323
vt 0.27676680 0.30474089
vt 0.27676680 0.23649323
vt 0.27676680 0.23661779
vt 0.27676680 0.27561779
vt 0.27676680 0.27561779
vt 0.27676680 0.30474089
vn 0.0000000e+0 0.0000000e+0 -1.00000000
vn -1.00000000 0.0000000e+0 0.0000000e+0
vn 0.0000000e+0 0.0000000e+0 1.00000000
vn -1.00000000 0.0000000e+0 0.0000000e+0
vn 0.0000000e+0 1.00000000 0.0000000e+0
vn 0.0000000e+0 0.0000000e+0 -1.00000000
vn -1.00000000 0.0000000e+0 0.0000000e+0
vn 0.0000000e+0 1.00000000 0.0000000e+0
vn 0.0000000e+0 0.0000000e+0 1.00000000
vn -1.00000000 0.0000000e+0 0.0000000e+0
vn 0.0000000e+0 0.0000000e+0 -1.00000000
vn 1.00000000 0.0000000e+0 0.0000000e+0
vn 0.0000000e+0 0.0000000e+0 1.00000000
vn 1.00000000 0.0000000e+0 0.0000000e+0
vn 0.0000000e+0 1.00000000 0.0000000e+0
vn 0.0000000e+0 0.0000000e+0 -1.00000000
vn 1.00000000 0.0000000e+0 0.0000000e+0
vn 0.0000000e+0 1.00000000 0.0000000e+0
vn 0.0000000e+0 0.0000000e+0 1.00000000
vn 1.00000000 0.0000000e+0 0.0000000e+0
vn 0.0000000e+0 0.0000000e+0 -1.00000000
vn -1.00000000 0.0000000e+0 0.0000000e+0
vn 0.0000000e+0 0.0000000e+0 1.00000000
vn -1.00000000 0.0000000e+0 0.0000000e+0
vn 0.0000000e+0 1.00000000 0.0000000e+0
vn 0.0000000e+0 0.0000000e+0 -1.00000000
vn -1.00000000 0.0000000e+0 0.0000000e+0
vn 0.0000000e+0 1.00000000 0.0000000e+0
vn 0.0000000e+0 0.0000000e+0 1.00000000
vn -1.00000000 0.0000000e+0 0.0000000e+0
vn 0.0000000e+0 0.0000000e+0 -1.00000000
vn 1.00000000 0.0000000e+0 0.0000000e+0
vn 0.0000000e+0 0.0000000e+0 1.00000000
vn 1.00000000 0.0000000e+0 0.0000000e+0
vn 0.0000000e+0 1.00000000 0.0000000e+0
vn 0.0000000e+0 0.0000000e+0 -1.00000000
vn 1.00000000 0.0000000e+0 0.0000000e+0
vn 0.0000000e+0 1.00000000 0.0000000e+0
vn 0.0000000e+0 0.0000000e+0 1.00000000
vn 1.00000000 0.0000000e+0 0.0000000e+0
vn -1.00000000 0.0000000e+0 0.0000000e+0
vn -6.9388939e-17 0.0000000e+0 1.00000000
vn 1.00000000 0.0000000e+0 0.0000000e+0
vn -6.9388939e-17 0.0000000e+0 1.00000000
vn 0.0000000e+0 1.00000000 0.0000000e+0
vn -1.00000000 0.0000000e+0 0.0000000e+0
vn -6.9388939e-17 0.0000000e+0 1.00000000
vn 0.0000000e+0 1.00000000 0.0000000e+0
vn 1.00000000 0.0000000e+0 0.0000000e+0
vn -6.9388939e-17 0.0000000e+0 1.00000000
vn -1.00000000 0.0000000e+0 0.0000000e+0
vn 6.9388939e-17 0.0000000e+0 -1.00000000
vn 1.00000000 0.0000000e+0 0.0000000e+0
vn 6.9388939e-17 0.0000000e+0 -1.00000000
vn 0.0000000e+0 1.00000000 0.0000000e+0
vn -1.00000000 0.0000000e+0 0.0000000e+0
vn 6.9388939e-17 0.0000000e+0 -1.00000000
vn 0.0000000e+0 1.00000000 0.0000000e+0
vn 1.00000000 0.0000000e+0 0.0000000e+0
vn 6.9388939e-17 0.0000000e+0 -1.00000000
vn -1.00000000 0.0000000e+0 0.0000000e+0
vn -6.9388939e-17 0.0000000e+0 1.00000000
vn 1.00000000 0.0000000e+0 0.0000000e+0
vn -6.9388939e-17 0.0000000e+0 1.00000000
vn 0.0000000e+0 1.00000000 0.0000000e+0
vn -1.00000000 0.0000000e+0 0.0000000e+0
vn -6.9388939e-17 0.0000000e+0 1.00000000
vn 0.0000000e+0 1.00000000 0.0000000e+0
vn 1.00000000 0.0000000e+0 0.0000000e+0
vn -6.9388939e-17 0.0000000e+0 1.00000000
vn -1.00000000 0.0000000e+0 0.0000000e+0
vn 6.9388939e-17 0.0000000e+0 -1.00000000
vn 1.00000000 0.0000000e+0 0.0000000e+0
vn 6.9388939e-17 0.0000000e+0 -1.00000000
vn 0.0000000e+0 1.00000000 0.0000000e+0
vn -1.00000000 0.0000000e+0 0.0000000e+0
vn 6.9388939e-17 0.0000000e+0 -1.00000000
vn 0.0000000e+0 1.00000000 0.0000000e+0
vn 1.00000000 0.0000000e+0 0.0000000e+0
vn 6.9388939e-17 0.0000000e+0 -1.00000000
vn 0.0000000e+0 0.0000000e+0 -1.00000000
vn -1.00000000 0.0000000e+0 0.0000000e+0
vn -0.23570226 -0.94280904 -0.23570226
vn -0.23570226 -0.94280904 -0.23570226
vn 0.0000000e+0 0.0000000e+0 1.00000000
vn -1.00000000 0.0000000e+0 0.0000000e+0
vn -0.23570226 -0.94280904 0.23570226
vn -0.23570226 -0.94280904 0.23570226
vn 0.0000000e+0 0.0000000e+0 -1.00000000
vn -1.00000000 0.0000000e+0 0.0000000e+0
vn 0.0000000e+0 1.00000000 0.0000000e+0
vn 0.0000000e+0 1.00000000 0.0000000e+0
vn 0.0000000e+0 0.0000000e+0 1.00000000
vn -1.00000000 0.0000000e+0 0.0000000e+0
vn 0.0000000e+0 1.00000000 0.0000000e+0
vn 0.0000000e+0 1.00000000 0.0000000e+0
vn 0.0000000e+0 0.0000000e+0 -1.00000000
vn 1.00000000 0.0000000e+0 0.0000000e+0
vn 0.23570226 -0.94280904 -0.23570226
vn 0.23570226 -0.94280904 -0.23570226
vn 0.0000000e+0 0.0000000e+0 1.00000000
vn 1.00000000 0.0000000e+0 0.0000000e+0
vn 0.23570226 -0.94280904 0.23570226
vn 0.23570226 -0.94280904 0.23570226
vn 0.0000000e+0 0.0000000e+0 -1.00000000
vn 1.00000000 0.0000000e+0 0.0000000e+0
vn 0.0000000e+0 1.00000000 0.0000000e+0
vn 0.0000000e+0 1.00000000 0.0000000e+0
vn 0.0000000e+0 0.0000000e+0 1.00000000
vn 1.00000000 0.0000000e+0 0.0000000e+0
vn 0.0000000e+0 1.00000000 0.0000000e+0
vn 0.0000000e+0 1.00000000 0.0000000e+0
vn -0.23570226 -0.94280904 0.23570226
vn -0.23570226 -0.94280904 0.23570226
vn 0.0000000e+0 0.0000000e+0 1.00000000
vn -1.00000000 0.0000000e+0 0.0000000e+0
vn -0.23570226 -0.94280904 -0.23570226
vn -0.23570226 -0.94280904 -0.23570226
vn -1.00000000 0.0000000e+0 0.0000000e+0
vn 0.0000000e+0 0.0000000e+0 -1.00000000
vn 0.23570226 -0.94280904 -0.23570226
vn 0.23570226 -0.94280904 -0.23570226
vn 0.0000000e+0 0.0000000e+0 -1.00000000
vn 1.00000000 0.0000000e+0 0.0000000e+0
vn 0.23570226 -0.94280904 0.23570226
vn 0.23570226 -0.94280904 0.23570226
vn 0.0000000e+0 0.0000000e+0 1.00000000
vn 1.00000000 0.0000000e+0 0.0000000e+0
vn 0.0000000e+0 1.00000000 0.0000000e+0
vn 0.0000000e+0 1.00000000 0.0000000e+0
vn 0.70710678 0.70710678 0.0000000e+0
vn 0.0000000e+0 0.70710678 0.70710678
vn 0.0000000e+0 1.00000000 0.0000000e+0
vn 0.0000000e+0 1.00000000 0.0000000e+0
vn 0.70710678 0.70710678 0.0000000e+0
vn 0.0000000e+0 0.70710678 -0.70710678
vn 0.0000000e+0 1.00000000 0.0000000e+0
vn 0.0000000e+0 1.00000000 0.0000000e+0
vn 0.0000000e+0 0.70710678 -0.70710678
vn -0.70710678 0.70710678 0.0000000e+0
vn 0.0000000e+0 1.00000000 0.0000000e+0
vn 0.0000000e+0 1.00000000 0.0000000e+0
vn -0.70710678 0.70710678 0.0000000e+0
vn 0.0000000e+0 0.70710678 0.70710678
vn 0.70710678 0.70710678 0.0000000e+0
vn 0.0000000e+0 0.70710678 0.70710678
vn 0.0000000e+0 1.00000000 0.0000000e+0
vn 0.70710678 0.70710678 0.0000000e+0
vn 0.0000000e+0 0.70710678 -0.70710678
vn 0.0000000e+0 1.00000000 0.0000000e+0
vn 0.0000000e+0 0.70710678 -0.70710678
vn -0.70710678 0.70710678 0.0000000e+0
vn 0.0000000e+0 1.00000000 0.0000000e+0
vn -0.70710678 0.70710678 0.0000000e+0
vn 0.0000000e+0 0.70710678 0.70710678
vn 0.0000000e+0 1.00000000 0.0000000e+0
vn 0.0000000e+0 0.0000000e+0 1.00000000
vn 1.00000000 0.0000000e+0 0.0000000e+0
vn 0.23570226 0.94280904 0.23570226
vn 0.23570226 0.94280904 0.23570226
vn 0.0000000e+0 0.0000000e+0 1.00000000
vn -1.00000000 0.0000000e+0 0.0000000e+0
vn -0.23570226 0.94280904 0.23570226
vn -0.23570226 0.94280904 0.23570226
vn -1.00000000 0.0000000e+0 0.0000000e+0
vn 0.0000000e+0 0.0000000e+0 -1.00000000
vn -0.23570226 0.94280904 -0.23570226
vn -0.23570226 0.94280904 -0.23570226
vn 0.0000000e+0 0.0000000e+0 -1.00000000
vn 1.00000000 0.0000000e+0 0.0000000e+0
vn 0.23570226 0.94280904 -0.23570226
vn 0.23570226 0.94280904 -0.23570226
vn 0.23570226 0.94280904 0.23570226
vn 0.23570226 0.94280904 0.23570226
vn 0.0000000e+0 0.0000000e+0 1.00000000
vn 1.00000000 0.0000000e+0 0.0000000e+0
vn -0.23570226 0.94280904 0.23570226
vn -0.23570226 0.94280904 0.23570226
vn 0.0000000e+0 0.0000000e+0 1.00000000
vn -1.00000000 0.0000000e+0 0.0000000e+0
vn -0.23570226 0.94280904 -0.23570226
vn -0.23570226 0.94280904 -0.23570226
vn -1.00000000 0.0000000e+0 0.0000000e+0
vn 0.0000000e+0 0.0000000e+0 -1.00000000
vn 0.23570226 0.94280904 -0.23570226
vn 0.23570226 0.94280904 -0.23570226
vn 0.0000000e+0 0.0000000e+0 -1.00000000
vn 1.00000000 0.0000000e+0 0.0000000e+0
vn 0.0000000e+0 -1.00000000 0.0000000e+0
vn 0.0000000e+0 0.0000000e+0 1.00000000
vn 1.00000000 0.0000000e+0 0.0000000e+0
vn 0.0000000e+0 -1.00000000 0.0000000e+0
vn 0.0000000e+0 0.0000000e+0 1.00000000
vn -1.00000000 0.0000000e+0 0.0000000e+0
vn 0.0000000e+0 -1.00000000 0.0000000e+0
vn -1.00000000 0.0000000e+0 0.0000000e+0
vn 0.0000000e+0 0.0000000e+0 -1.00000000
vn 0.0000000e+0 -1.00000000 0.0000000e+0
vn 0.0000000e+0 0.0000000e+0 -1.00000000
vn 1.00000000 0.0000000e+0 0.0000000e+0
g Rana_Port_1_Rana_Port_1_auv
usemtl Rana_Port_1_auv
s 1
f 2/22/3 6/20/13 8/35/19 4/37/9
f 3/34/6 7/36/16 5/21/11 1/19/1
f 12/38/28 16/39/38 15/47/35 11/48/25
f 20/40/48 24/39/58 23/47/55 19/48/45
f 26/20/64 28/35/70 27/37/67 25/22/62
f 29/19/72 31/34/77 32/36/80 30/21/74
f 34/80/86 36/82/94 35/4/90 33/2/82
f 35/83/92 45/68/130 48/13/142 39/5/108
f 37/80/98 39/81/106 40/3/110 38/2/102
f 41/44/115 54/41/161 53/54/157 44/57/127
f 43/43/123 56/41/169 55/54/166 42/56/120
f 47/14/139 51/15/151 50/70/149 46/69/136
f 57/26/176 61/25/191 64/61/200 60/62/188
f 59/30/183 63/29/196 62/63/194 58/64/180
s 2
f 4/40/8 8/39/18 7/47/15 3/48/5
f 10/24/23 14/23/33 16/32/39 12/33/29
f 11/34/26 15/36/36 13/21/31 9/19/21
f 18/20/44 20/35/50 19/37/47 17/22/42
f 21/19/52 23/34/57 24/36/60 22/21/54
f 28/38/68 32/39/78 31/47/75 27/48/65
f 33/7/83 42/12/117 41/75/113 34/79/87
f 34/7/88 41/12/114 44/75/126 38/79/104
f 37/1/99 43/11/121 42/74/118 33/76/84
f 38/6/103 44/11/125 43/73/122 37/77/100
f 40/83/111 47/68/137 46/16/134 36/10/96
f 46/14/135 50/15/148 49/70/145 45/69/131
f 48/14/143 52/15/154 51/70/152 47/69/140
f 58/30/179 62/29/193 61/63/190 57/64/175
f 60/30/187 64/29/199 63/63/197 59/64/184
s 3
f 2/20/4 4/35/10 3/37/7 1/22/2
f 5/19/12 7/34/17 8/36/20 6/21/14
f 10/20/24 12/35/30 11/37/27 9/22/22
f 13/19/32 15/34/37 16/36/40 14/21/34
f 18/22/43 22/20/53 24/35/59 20/37/49
f 19/34/46 23/36/56 21/21/51 17/19/41
f 26/24/63 30/23/73 32/32/79 28/33/69
f 27/34/66 31/36/76 29/21/71 25/19/61
f 34/2/85 38/80/101 40/81/109 36/3/93
f 35/81/89 39/9/105 37/8/97 33/80/81
f 36/78/95 46/66/133 45/13/129 35/10/91
f 39/78/107 48/67/141 47/13/138 40/10/112
f 42/43/119 55/41/165 54/54/162 41/56/116
f 44/43/128 53/42/158 56/55/170 43/56/124
f 45/14/132 49/15/146 52/70/155 48/69/144
f 62/51/192 63/52/195 64/49/198 61/50/189
s 4
f 50/17/150 51/71/153 52/72/156 49/18/147
f 53/45/160 57/28/174 60/65/186 56/59/172
f 54/46/163 58/31/177 57/65/173 53/59/159
f 55/46/167 59/28/181 58/65/178 54/58/164
f 56/45/171 60/27/185 59/60/182 55/53/168
