# Exported from Wings 3D 1.5.4
mtllib octans_periscope_srf_1_base.mtl
o mesh
#61 vertices, 60 faces
v -1.1176796e-18 6.2500000e-2 -7.5000000e-2
v -3.1250000e-2 5.4126588e-2 -7.5000000e-2
v -5.4126588e-2 3.1250000e-2 -7.5000000e-2
v -6.2500000e-2 3.8333276e-17 -7.5000000e-2
v -5.4126588e-2 -3.1250000e-2 -7.5000000e-2
v -3.1250000e-2 -5.4126588e-2 -7.5000000e-2
v -8.7717221e-18 -6.2500000e-2 -7.5000000e-2
v 3.1250000e-2 -5.4126588e-2 -7.5000000e-2
v 5.4126588e-2 -3.1250000e-2 -7.5000000e-2
v 6.2500000e-2 2.3025191e-17 -7.5000000e-2
v 5.4126588e-2 3.1250000e-2 -7.5000000e-2
v 3.1250000e-2 5.4126588e-2 -7.5000000e-2
v 2.3474474e-18 7.5000000e-2 -2.5000000e-2
v -3.7500000e-2 6.4951905e-2 -2.5000000e-2
v -6.4951905e-2 3.7500000e-2 -2.5000000e-2
v -7.5000000e-2 1.2139524e-17 -2.5000000e-2
v -6.4951905e-2 -3.7500000e-2 -2.5000000e-2
v -3.7500000e-2 -6.4951905e-2 -2.5000000e-2
v -6.8374036e-18 -7.5000000e-2 -2.5000000e-2
v 3.7500000e-2 -6.4951905e-2 -2.5000000e-2
v 6.4951905e-2 -3.7500000e-2 -2.5000000e-2
v 7.5000000e-2 -6.2301779e-18 -2.5000000e-2
v 6.4951905e-2 3.7500000e-2 -2.5000000e-2
v 3.7500000e-2 6.4951905e-2 -2.5000000e-2
v 7.5332905e-19 3.7500000e-2 -2.5000000e-2
v -1.8750000e-2 3.2475953e-2 -2.5000000e-2
v -3.2475953e-2 1.8750000e-2 -2.5000000e-2
v -3.7500000e-2 -1.9465486e-18 -2.5000000e-2
v -3.2475953e-2 -1.8750000e-2 -2.5000000e-2
v -1.8750000e-2 -3.2475953e-2 -2.5000000e-2
v -3.8390965e-18 -3.7500000e-2 -2.5000000e-2
v 1.8750000e-2 -3.2475953e-2 -2.5000000e-2
v 3.2475953e-2 -1.8750000e-2 -2.5000000e-2
v 3.7500000e-2 -1.1131400e-17 -2.5000000e-2
v 3.2475953e-2 1.8750000e-2 -2.5000000e-2
v 1.8750000e-2 3.2475953e-2 -2.5000000e-2
v 3.8149460e-18 3.7500000e-2 2.5000000e-2
v -1.8750000e-2 3.2475953e-2 2.5000000e-2
v -3.2475953e-2 1.8750000e-2 2.5000000e-2
v -3.7500000e-2 -6.3625605e-17 2.5000000e-2
v -3.2475953e-2 -1.8750000e-2 2.5000000e-2
v -1.8750000e-2 -3.2475953e-2 2.5000000e-2
v -7.7747945e-19 -3.7500000e-2 2.5000000e-2
v 1.8750000e-2 -3.2475953e-2 2.5000000e-2
v 3.2475953e-2 -1.8750000e-2 2.5000000e-2
v 3.7500000e-2 -7.2810456e-17 2.5000000e-2
v 3.2475953e-2 1.8750000e-2 2.5000000e-2
v 1.8750000e-2 3.2475953e-2 2.5000000e-2
v 0.0000000e+0 -6.8126249e-17 2.5000000e-2
v -1.3157518e-18 5.0000000e-2 -7.5000000e-2
v -2.5000000e-2 4.3301270e-2 -7.5000000e-2
v -4.3301270e-2 2.5000000e-2 -7.5000000e-2
v -5.0000000e-2 2.8443343e-17 -7.5000000e-2
v -4.3301270e-2 -2.5000000e-2 -7.5000000e-2
v -2.5000000e-2 -4.3301270e-2 -7.5000000e-2
v -7.4389858e-18 -5.0000000e-2 -7.5000000e-2
v 2.5000000e-2 -4.3301270e-2 -7.5000000e-2
v 4.3301270e-2 -2.5000000e-2 -7.5000000e-2
v 5.0000000e-2 1.6196875e-17 -7.5000000e-2
v 4.3301270e-2 2.5000000e-2 -7.5000000e-2
v 2.5000000e-2 4.3301270e-2 -7.5000000e-2
vt 7.6646230e-2 0.13813475
vt 8.4453604e-2 0.10899724
vt 8.4453604e-2 0.16727227
vt 8.9673198e-2 0.35143378
vt 8.9673198e-2 0.27373373
vt 8.9673198e-2 0.27373373
vt 8.9673198e-2 0.27373373
vt 8.9673198e-2 0.35143378
vt 8.9673198e-2 0.27373373
vt 8.9673198e-2 0.35143378
vt 0.10578375 8.7667092e-2
vt 0.10578375 0.18860242
vt 0.11983858 0.27373373
vt 0.11983858 0.35143378
vt 0.11983858 0.27373373
vt 0.11983858 0.35143378
vt 0.11983858 0.27373373
vt 0.11983858 0.35143378
vt 0.11983858 0.27373373
vt 0.11983858 0.35143378
vt 0.13492127 7.9859718e-2
vt 0.13492127 0.13813475
vt 0.13492127 0.19640979
vt 0.15000396 0.27373373
vt 0.15000396 0.35143378
vt 0.15000396 0.27373373
vt 0.15000396 0.35143378
vt 0.15000396 0.27373373
vt 0.15000396 0.35143378
vt 0.15000396 0.27373373
vt 0.15000396 0.35143378
vt 0.16405879 8.7667092e-2
vt 0.16405879 0.18860242
vt 0.18016934 0.27373373
vt 0.18016934 0.35143378
vt 0.18016934 0.35143378
vt 0.18016934 0.27373373
vt 0.18016934 0.35143378
vt 0.18016934 0.27373373
vt 0.18016934 0.27373373
vt 0.18016934 0.35143378
vt 0.18538893 0.10899724
vt 0.18538893 0.16727227
vt 0.19319630 0.13813475
vt 0.74072482 0.12380751
vt 0.74072482 0.12380751
vt 0.74072482 0.12380751
vt 0.74072482 0.12380751
vt 0.74140943 0.12381499
vt 0.74140943 0.12381499
vt 0.74140943 0.12381499
vt 0.74140943 0.12381499
vt 0.75572826 0.20311099
vt 0.75572826 0.20311099
vt 0.75572826 0.20311099
vt 0.75572826 0.20311099
vt 0.75574935 0.20299902
vt 0.75574935 0.20299902
vt 0.75574935 0.20299902
vt 0.75574935 0.20299902
vt 0.77074858 0.23549770
vt 0.77074858 0.23549770
vt 0.77074858 0.23549770
vt 0.77074858 0.23549770
vt 0.78607746 7.5066973e-2
vt 0.78607746 7.5066973e-2
vt 0.78607746 7.5066973e-2
vt 0.78607746 7.5066973e-2
vt 0.79804622 0.12381499
vt 0.79804622 0.12381499
vt 0.79804622 0.12381499
vt 0.79804622 0.12381499
vt 0.80058012 0.12380751
vt 0.80058012 0.12380751
vt 0.80058012 0.12380751
vt 0.80058012 0.12380751
vt 0.80329500 0.20299902
vt 0.80329500 0.20299902
vt 0.80329500 0.20299902
vt 0.80329500 0.20299902
vt 0.80560768 0.20311099
vt 0.80560768 0.20311099
vt 0.80560768 0.20311099
vt 0.80878510 0.23549770
vt 0.80878510 0.23549770
vt 0.80878510 0.23549770
vt 0.81439586 7.5066973e-2
vt 0.81439586 7.5066973e-2
vt 0.81439586 7.5066973e-2
vt 0.81439586 7.5066973e-2
vt 0.84709513 7.5066973e-2
vt 0.84709513 7.5066973e-2
vt 0.84709513 7.5066973e-2
vt 0.84709513 7.5066973e-2
vt 0.85270589 0.23549770
vt 0.85270589 0.23549770
vt 0.85270589 0.23549770
vt 0.85270589 0.23549770
vt 0.85588331 0.20311099
vt 0.85588331 0.20311099
vt 0.85588331 0.20311099
vt 0.85588331 0.20311099
vt 0.85819599 0.20299902
vt 0.85819599 0.20299902
vt 0.85819599 0.20299902
vt 0.86091087 0.12380751
vt 0.86091087 0.12380751
vt 0.86091087 0.12380751
vt 0.86091087 0.12380751
vt 0.86344476 0.12381499
vt 0.86344476 0.12381499
vt 0.86344476 0.12381499
vt 0.86344476 0.12381499
vt 0.87541353 7.5066973e-2
vt 0.87541353 7.5066973e-2
vt 0.87541353 7.5066973e-2
vt 0.87541353 7.5066973e-2
vt 0.89074241 0.23549770
vt 0.89074241 0.23549770
vt 0.89074241 0.23549770
vt 0.90574164 0.20299902
vt 0.90574164 0.20299902
vt 0.90574164 0.20299902
vt 0.90574164 0.20299902
vt 0.90576273 0.20311099
vt 0.90576273 0.20311099
vt 0.90576273 0.20311099
vt 0.92008156 0.12381499
vt 0.92008156 0.12381499
vt 0.92008156 0.12381499
vt 0.92008156 0.12381499
vt 0.92076617 0.12380751
vt 0.92076617 0.12380751
vt 0.92076617 0.12380751
vn 7.7098821e-17 -1.3147682e-30 1.00000000
vn 2.5810215e-16 0.97014250 -0.24253563
vn 2.5810215e-16 0.97014250 -0.24253563
vn 1.9721523e-30 8.8817842e-15 -1.00000000
vn 1.9721523e-30 8.8817842e-15 -1.00000000
vn -0.48507125 0.84016805 -0.24253563
vn -0.48507125 0.84016805 -0.24253563
vn -4.4408921e-15 7.6918507e-15 -1.00000000
vn -4.4408921e-15 7.6918507e-15 -1.00000000
vn -0.84016805 0.48507125 -0.24253563
vn -0.84016805 0.48507125 -0.24253563
vn -7.6918507e-15 4.4408921e-15 -1.00000000
vn -7.6918507e-15 4.4408921e-15 -1.00000000
vn -0.97014250 1.4339008e-16 -0.24253563
vn -0.97014250 1.4339008e-16 -0.24253563
vn -8.8817842e-15 -1.9721523e-31 -1.00000000
vn -8.8817842e-15 -1.9721523e-31 -1.00000000
vn -0.84016805 -0.48507125 -0.24253563
vn -0.84016805 -0.48507125 -0.24253563
vn -7.6918507e-15 -4.4408921e-15 -1.00000000
vn -7.6918507e-15 -4.4408921e-15 -1.00000000
vn -0.48507125 -0.84016805 -0.24253563
vn -0.48507125 -0.84016805 -0.24253563
vn -4.4408921e-15 -7.6918507e-15 -1.00000000
vn -4.4408921e-15 -7.6918507e-15 -1.00000000
vn -2.8678017e-16 -0.97014250 -0.24253563
vn -2.8678017e-16 -0.97014250 -0.24253563
vn -5.9164568e-31 -8.8817842e-15 -1.00000000
vn -5.9164568e-31 -8.8817842e-15 -1.00000000
vn 0.48507125 -0.84016805 -0.24253563
vn 0.48507125 -0.84016805 -0.24253563
vn 4.4408921e-15 -7.6918507e-15 -1.00000000
vn 4.4408921e-15 -7.6918507e-15 -1.00000000
vn 0.84016805 -0.48507125 -0.24253563
vn 0.84016805 -0.48507125 -0.24253563
vn 7.6918507e-15 -4.4408921e-15 -1.00000000
vn 7.6918507e-15 -4.4408921e-15 -1.00000000
vn 0.97014250 -4.3017025e-16 -0.24253563
vn 0.97014250 -4.3017025e-16 -0.24253563
vn 8.8817842e-15 -4.7331654e-30 -1.00000000
vn 8.8817842e-15 -4.7331654e-30 -1.00000000
vn 0.84016805 0.48507125 -0.24253563
vn 0.84016805 0.48507125 -0.24253563
vn 7.6918507e-15 4.4408921e-15 -1.00000000
vn 7.6918507e-15 4.4408921e-15 -1.00000000
vn 0.48507125 0.84016805 -0.24253563
vn 0.48507125 0.84016805 -0.24253563
vn 4.4408921e-15 7.6918507e-15 -1.00000000
vn 4.4408921e-15 7.6918507e-15 -1.00000000
vn 2.5810215e-16 0.97014250 -0.24253563
vn 2.5810215e-16 0.97014250 -0.24253563
vn 7.8886091e-31 2.9605947e-15 1.00000000
vn 7.8886091e-31 2.9605947e-15 1.00000000
vn -0.48507125 0.84016805 -0.24253563
vn -0.48507125 0.84016805 -0.24253563
vn -1.4043056e-15 2.5722137e-15 1.00000000
vn -1.4043056e-15 2.5722137e-15 1.00000000
vn -0.84016805 0.48507125 -0.24253563
vn -0.84016805 0.48507125 -0.24253563
vn -2.3954399e-15 1.4637705e-15 1.00000000
vn -2.3954399e-15 1.4637705e-15 1.00000000
vn -0.97014250 1.4339008e-16 -0.24253563
vn -0.97014250 1.4339008e-16 -0.24253563
vn -2.7755576e-15 3.9443045e-31 1.00000000
vn -2.7755576e-15 3.9443045e-31 1.00000000
vn -0.84016805 -0.48507125 -0.24253563
vn -0.84016805 -0.48507125 -0.24253563
vn -2.3954399e-15 -1.4637705e-15 1.00000000
vn -2.3954399e-15 -1.4637705e-15 1.00000000
vn -0.48507125 -0.84016805 -0.24253563
vn -0.48507125 -0.84016805 -0.24253563
vn -1.4043056e-15 -2.5722137e-15 1.00000000
vn -1.4043056e-15 -2.5722137e-15 1.00000000
vn -2.8678017e-16 -0.97014250 -0.24253563
vn -2.8678017e-16 -0.97014250 -0.24253563
vn -1.5284180e-30 -2.9605947e-15 1.00000000
vn -1.5284180e-30 -2.9605947e-15 1.00000000
vn 0.48507125 -0.84016805 -0.24253563
vn 0.48507125 -0.84016805 -0.24253563
vn 1.5562891e-15 -2.5556868e-15 1.00000000
vn 1.5562891e-15 -2.5556868e-15 1.00000000
vn 0.84016805 -0.48507125 -0.24253563
vn 0.84016805 -0.48507125 -0.24253563
vn 2.7324606e-15 -1.4968242e-15 1.00000000
vn 2.7324606e-15 -1.4968242e-15 1.00000000
vn 0.97014250 -4.3017025e-16 -0.24253563
vn 0.97014250 -4.3017025e-16 -0.24253563
vn 3.1456319e-15 -1.5777218e-30 1.00000000
vn 3.1456319e-15 -1.5777218e-30 1.00000000
vn 0.84016805 0.48507125 -0.24253563
vn 0.84016805 0.48507125 -0.24253563
vn 2.7324606e-15 1.4968242e-15 1.00000000
vn 2.7324606e-15 1.4968242e-15 1.00000000
vn 0.48507125 0.84016805 -0.24253563
vn 0.48507125 0.84016805 -0.24253563
vn 1.5562891e-15 2.5556868e-15 1.00000000
vn 1.5562891e-15 2.5556868e-15 1.00000000
vn 7.8886091e-31 2.9605947e-15 1.00000000
vn 7.8886091e-31 2.9605947e-15 1.00000000
vn 3.1608155e-16 1.00000000 1.2829726e-15
vn 3.1608155e-16 1.00000000 1.2829726e-15
vn -1.4043056e-15 2.5722137e-15 1.00000000
vn -1.4043056e-15 2.5722137e-15 1.00000000
vn -0.50000000 0.86602540 1.1022722e-15
vn -0.50000000 0.86602540 1.1022722e-15
vn -2.3954399e-15 1.4637705e-15 1.00000000
vn -2.3954399e-15 1.4637705e-15 1.00000000
vn -0.86602540 0.50000000 6.3245127e-16
vn -0.86602540 0.50000000 6.3245127e-16
vn -2.7755576e-15 3.9443045e-31 1.00000000
vn -2.7755576e-15 3.9443045e-31 1.00000000
vn -1.00000000 8.6204059e-17 -5.1043057e-32
vn -1.00000000 8.6204059e-17 -5.1043057e-32
vn -2.3954399e-15 -1.4637705e-15 1.00000000
vn -2.3954399e-15 -1.4637705e-15 1.00000000
vn -0.86602540 -0.50000000 -5.8185517e-16
vn -0.86602540 -0.50000000 -5.8185517e-16
vn -1.4043056e-15 -2.5722137e-15 1.00000000
vn -1.4043056e-15 -2.5722137e-15 1.00000000
vn -0.50000000 -0.86602540 -9.9746600e-16
vn -0.50000000 -0.86602540 -9.9746600e-16
vn -1.5284180e-30 -2.9605947e-15 1.00000000
vn -1.5284180e-30 -2.9605947e-15 1.00000000
vn -5.1722435e-16 -1.00000000 -1.1745524e-15
vn -5.1722435e-16 -1.00000000 -1.1745524e-15
vn 1.5562891e-15 -2.5556868e-15 1.00000000
vn 1.5562891e-15 -2.5556868e-15 1.00000000
vn 0.50000000 -0.86602540 -1.0444481e-15
vn 0.50000000 -0.86602540 -1.0444481e-15
vn 2.7324606e-15 -1.4968242e-15 1.00000000
vn 2.7324606e-15 -1.4968242e-15 1.00000000
vn 0.86602540 -0.50000000 -6.1438123e-16
vn 0.86602540 -0.50000000 -6.1438123e-16
vn 3.1456319e-15 -1.5777218e-30 1.00000000
vn 3.1456319e-15 -1.5777218e-30 1.00000000
vn 1.00000000 -4.8848967e-16 3.3177987e-31
vn 1.00000000 -4.8848967e-16 3.3177987e-31
vn 2.7324606e-15 1.4968242e-15 1.00000000
vn 2.7324606e-15 1.4968242e-15 1.00000000
vn 0.86602540 0.50000000 6.3606527e-16
vn 0.86602540 0.50000000 6.3606527e-16
vn 1.5562891e-15 2.5556868e-15 1.00000000
vn 1.5562891e-15 2.5556868e-15 1.00000000
vn 0.50000000 0.86602540 1.1203422e-15
vn 0.50000000 0.86602540 1.1203422e-15
vn 3.1608155e-16 1.00000000 1.2829726e-15
vn 3.1608155e-16 1.00000000 1.2829726e-15
vn 3.8549411e-17 5.9211895e-15 1.00000000
vn 3.8549411e-17 5.9211895e-15 1.00000000
vn -0.50000000 0.86602540 1.1022722e-15
vn -0.50000000 0.86602540 1.1022722e-15
vn -2.8912058e-15 5.1279005e-15 1.00000000
vn -2.8912058e-15 5.1279005e-15 1.00000000
vn -0.86602540 0.50000000 6.3245127e-16
vn -0.86602540 0.50000000 6.3245127e-16
vn -5.2427198e-15 3.0407182e-15 1.00000000
vn -5.2427198e-15 3.0407182e-15 1.00000000
vn -1.00000000 8.6204059e-17 -5.1043057e-32
vn -1.00000000 8.6204059e-17 -5.1043057e-32
vn -5.7824116e-15 6.9025329e-31 1.00000000
vn -5.7824116e-15 6.9025329e-31 1.00000000
vn -0.86602540 -0.50000000 -5.8185517e-16
vn -0.86602540 -0.50000000 -5.8185517e-16
vn -4.9343246e-15 -3.0407182e-15 1.00000000
vn -4.9343246e-15 -3.0407182e-15 1.00000000
vn -0.50000000 -0.86602540 -9.9746600e-16
vn -0.50000000 -0.86602540 -9.9746600e-16
vn -3.0068540e-15 -5.1279005e-15 1.00000000
vn -3.0068540e-15 -5.1279005e-15 1.00000000
vn -5.1722435e-16 -1.00000000 -1.1745524e-15
vn -5.1722435e-16 -1.00000000 -1.1745524e-15
vn -3.8549411e-17 -5.9211895e-15 1.00000000
vn -3.8549411e-17 -5.9211895e-15 1.00000000
vn 0.50000000 -0.86602540 -1.0444481e-15
vn 0.50000000 -0.86602540 -1.0444481e-15
vn 3.1225023e-15 -5.0816412e-15 1.00000000
vn 3.1225023e-15 -5.0816412e-15 1.00000000
vn 0.86602540 -0.50000000 -6.1438123e-16
vn 0.86602540 -0.50000000 -6.1438123e-16
vn 5.2427198e-15 -2.9267306e-15 1.00000000
vn 5.2427198e-15 -2.9267306e-15 1.00000000
vn 1.00000000 -4.8848967e-16 3.3177987e-31
vn 1.00000000 -4.8848967e-16 3.3177987e-31
vn 5.9366092e-15 -2.9582284e-30 1.00000000
vn 5.9366092e-15 -2.9582284e-30 1.00000000
vn 0.86602540 0.50000000 6.3606527e-16
vn 0.86602540 0.50000000 6.3606527e-16
vn 5.3969175e-15 2.9267306e-15 1.00000000
vn 5.3969175e-15 2.9267306e-15 1.00000000
vn 0.50000000 0.86602540 1.1203422e-15
vn 0.50000000 0.86602540 1.1203422e-15
vn 3.0839528e-15 5.0816412e-15 1.00000000
vn 3.0839528e-15 5.0816412e-15 1.00000000
vn 1.9721523e-30 8.8817842e-15 -1.00000000
vn 1.9721523e-30 8.8817842e-15 -1.00000000
vn -4.4408921e-15 7.6918507e-15 -1.00000000
vn -4.4408921e-15 7.6918507e-15 -1.00000000
vn -7.6918507e-15 4.4408921e-15 -1.00000000
vn -7.6918507e-15 4.4408921e-15 -1.00000000
vn -8.8817842e-15 -1.9721523e-31 -1.00000000
vn -8.8817842e-15 -1.9721523e-31 -1.00000000
vn -7.6918507e-15 -4.4408921e-15 -1.00000000
vn -7.6918507e-15 -4.4408921e-15 -1.00000000
vn -4.4408921e-15 -7.6918507e-15 -1.00000000
vn -4.4408921e-15 -7.6918507e-15 -1.00000000
vn -5.9164568e-31 -8.8817842e-15 -1.00000000
vn -5.9164568e-31 -8.8817842e-15 -1.00000000
vn 4.4408921e-15 -7.6918507e-15 -1.00000000
vn 4.4408921e-15 -7.6918507e-15 -1.00000000
vn 7.6918507e-15 -4.4408921e-15 -1.00000000
vn 7.6918507e-15 -4.4408921e-15 -1.00000000
vn 8.8817842e-15 -4.7331654e-30 -1.00000000
vn 8.8817842e-15 -4.7331654e-30 -1.00000000
vn 7.6918507e-15 4.4408921e-15 -1.00000000
vn 7.6918507e-15 4.4408921e-15 -1.00000000
vn 4.4408921e-15 7.6918507e-15 -1.00000000
vn 4.4408921e-15 7.6918507e-15 -1.00000000
g mesh_mesh_auv
usemtl mesh_auv
s 1
f 1/125/2 13/132/50 24/106/94 12/99/46
f 2/102/7 14/108/55 13/133/51 1/126/3
f 3/83/11 15/75/59 14/108/54 2/102/6
f 4/55/15 16/47/63 15/75/58 3/83/10
f 5/82/19 17/76/67 16/48/62 4/56/14
f 6/101/23 18/109/71 17/76/66 5/82/18
f 7/127/27 19/134/75 18/109/70 6/101/22
f 8/100/31 20/107/79 19/133/74 7/126/26
f 9/83/35 21/74/83 20/107/78 8/100/30
f 10/54/39 22/45/87 21/74/82 9/83/34
f 11/81/43 23/73/91 22/46/86 10/53/38
f 12/99/47 24/106/95 23/73/90 11/81/42
f 37/23/149 49/22/1 48/33/193
f 38/12/152 49/22/1 37/23/148
f 39/3/156 49/22/1 38/12/153
f 40/1/160 49/22/1 39/3/157
f 41/2/164 49/22/1 40/1/161
f 42/11/168 49/22/1 41/2/165
f 43/21/172 49/22/1 42/11/169
f 44/32/176 49/22/1 43/21/173
f 45/42/180 49/22/1 44/32/177
f 46/44/184 49/22/1 45/42/181
f 47/43/188 49/22/1 46/44/185
f 48/33/192 49/22/1 47/43/189
s 2
f 1/123/4 50/119/194 51/97/196 2/105/8
f 2/105/9 51/97/197 52/86/198 3/78/12
f 3/78/13 52/86/199 53/62/200 4/59/16
f 4/58/17 53/64/201 54/85/202 5/77/20
f 5/77/21 54/85/203 55/96/204 6/104/24
f 6/104/25 55/96/205 56/120/206 7/124/28
f 7/122/29 56/119/207 57/98/208 8/105/32
f 8/105/33 57/98/209 58/86/210 9/80/36
f 9/80/37 58/86/211 59/63/212 10/60/40
f 10/57/41 59/61/213 60/84/214 11/79/44
f 11/79/45 60/84/215 61/95/216 12/103/48
f 12/103/49 61/95/217 50/118/195 1/121/5
f 25/36/101 37/39/147 48/28/191 36/29/145
f 26/31/104 38/30/150 37/40/146 25/41/100
f 27/20/108 39/19/154 38/30/151 26/31/105
f 28/8/112 40/6/158 39/19/155 27/20/109
f 29/16/116 41/15/162 40/5/159 28/4/113
f 30/25/120 42/24/166 41/15/163 29/16/117
f 31/35/124 43/34/170 42/24/167 30/25/121
f 32/27/128 44/26/174 43/37/171 31/38/125
f 33/14/132 45/13/178 44/26/175 32/27/129
f 34/8/136 46/7/182 45/13/179 33/14/133
f 35/18/140 47/17/186 46/9/183 34/10/137
f 36/29/144 48/28/190 47/17/187 35/18/141
s 3
f 13/130/53 25/116/99 36/94/143 24/111/97
f 14/113/56 26/93/102 25/117/98 13/131/52
f 15/71/60 27/89/106 26/93/103 14/113/57
f 16/52/64 28/67/110 27/89/107 15/71/61
f 17/69/68 29/87/114 28/66/111 16/51/65
f 18/110/72 30/91/118 29/87/115 17/69/69
f 19/129/76 31/115/122 30/91/119 18/110/73
f 20/112/80 32/92/126 31/114/123 19/128/77
f 21/72/84 33/88/130 32/92/127 20/112/81
f 22/49/88 34/65/134 33/88/131 21/72/85
f 23/70/92 35/90/138 34/68/135 22/50/89
f 24/111/96 36/94/142 35/90/139 23/70/93
