# Exported from Wings 3D 1.5.4
mtllib vega_adapter_s2_s1p5_1_collider.mtl
o vega_adapter_s2_s1p5_1
#32 vertices, 18 faces
v 0.91875000 0.37500000 -0.18275074
v 0.91875000 0.37500000 0.18275074
v 0.77887864 0.37500000 0.52043007
v 0.52043007 0.37500000 0.77887864
v 0.18275074 0.37500000 0.91875000
v -0.18275074 0.37500000 0.91875000
v -0.52043007 0.37500000 0.77887864
v -0.77887864 0.37500000 0.52043007
v -0.91875000 0.37500000 0.18275074
v -0.91875000 0.37500000 -0.18275074
v -0.77887864 0.37500000 -0.52043007
v -0.52043007 0.37500000 -0.77887864
v -0.18275074 0.37500000 -0.91875000
v 0.18275074 0.37500000 -0.91875000
v 0.52043007 0.37500000 -0.77887864
v 0.77887864 0.37500000 -0.52043007
v 1.23125000 -0.37500000 -0.24491085
v 1.23125000 -0.37500000 0.24491085
v 1.04380335 -0.37500000 0.69744710
v 0.69744710 -0.37500000 1.04380335
v 0.24491085 -0.37500000 1.23125000
v -0.24491085 -0.37500000 1.23125000
v -0.69744710 -0.37500000 1.04380335
v -1.04380335 -0.37500000 0.69744710
v -1.23125000 -0.37500000 0.24491085
v -1.23125000 -0.37500000 -0.24491085
v -1.04380335 -0.37500000 -0.69744710
v -0.69744710 -0.37500000 -1.04380335
v -0.24491085 -0.37500000 -1.23125000
v 0.24491085 -0.37500000 -1.23125000
v 0.69744710 -0.37500000 -1.04380335
v 1.04380335 -0.37500000 -0.69744710
vn 0.0000000e+0 1.00000000 4.6492862e-17
vn 0.85281188 0.38461538 -0.35324625
vn 0.92307692 0.38461538 0.0000000e+0
vn 0.0000000e+0 1.00000000 4.6492862e-17
vn 0.85281188 0.38461538 0.35324625
vn 0.92307692 0.38461538 0.0000000e+0
vn 0.0000000e+0 1.00000000 4.6492862e-17
vn 0.65271395 0.38461538 0.65271395
vn 0.85281188 0.38461538 0.35324625
vn 0.0000000e+0 1.00000000 4.6492862e-17
vn 0.35324625 0.38461538 0.85281188
vn 0.65271395 0.38461538 0.65271395
vn 0.0000000e+0 1.00000000 4.6492862e-17
vn 0.0000000e+0 0.38461538 0.92307692
vn 0.35324625 0.38461538 0.85281188
vn 0.0000000e+0 1.00000000 4.6492862e-17
vn -0.35324625 0.38461538 0.85281188
vn 0.0000000e+0 0.38461538 0.92307692
vn 0.0000000e+0 1.00000000 4.6492862e-17
vn -0.65271395 0.38461538 0.65271395
vn -0.35324625 0.38461538 0.85281188
vn 0.0000000e+0 1.00000000 4.6492862e-17
vn -0.85281188 0.38461538 0.35324625
vn -0.65271395 0.38461538 0.65271395
vn 0.0000000e+0 1.00000000 4.6492862e-17
vn -0.92307692 0.38461538 0.0000000e+0
vn -0.85281188 0.38461538 0.35324625
vn 0.0000000e+0 1.00000000 4.6492862e-17
vn -0.85281188 0.38461538 -0.35324625
vn -0.92307692 0.38461538 0.0000000e+0
vn 0.0000000e+0 1.00000000 4.6492862e-17
vn -0.65271395 0.38461538 -0.65271395
vn -0.85281188 0.38461538 -0.35324625
vn 0.0000000e+0 1.00000000 4.6492862e-17
vn -0.35324625 0.38461538 -0.85281188
vn -0.65271395 0.38461538 -0.65271395
vn 0.0000000e+0 1.00000000 4.6492862e-17
vn 0.0000000e+0 0.38461538 -0.92307692
vn -0.35324625 0.38461538 -0.85281188
vn 0.0000000e+0 1.00000000 4.6492862e-17
vn 0.35324625 0.38461538 -0.85281188
vn 0.0000000e+0 0.38461538 -0.92307692
vn 0.0000000e+0 1.00000000 4.6492862e-17
vn 0.65271395 0.38461538 -0.65271395
vn 0.35324625 0.38461538 -0.85281188
vn 0.0000000e+0 1.00000000 4.6492862e-17
vn 0.85281188 0.38461538 -0.35324625
vn 0.65271395 0.38461538 -0.65271395
vn 0.0000000e+0 -1.00000000 -5.7527564e-18
vn 0.85281188 0.38461538 -0.35324625
vn 0.92307692 0.38461538 0.0000000e+0
vn 0.0000000e+0 -1.00000000 -5.7527564e-18
vn 0.85281188 0.38461538 0.35324625
vn 0.92307692 0.38461538 0.0000000e+0
vn 0.0000000e+0 -1.00000000 -5.7527564e-18
vn 0.65271395 0.38461538 0.65271395
vn 0.85281188 0.38461538 0.35324625
vn 0.0000000e+0 -1.00000000 -5.7527564e-18
vn 0.35324625 0.38461538 0.85281188
vn 0.65271395 0.38461538 0.65271395
vn 0.0000000e+0 -1.00000000 -5.7527564e-18
vn 0.0000000e+0 0.38461538 0.92307692
vn 0.35324625 0.38461538 0.85281188
vn 0.0000000e+0 -1.00000000 -5.7527564e-18
vn -0.35324625 0.38461538 0.85281188
vn 0.0000000e+0 0.38461538 0.92307692
vn 0.0000000e+0 -1.00000000 -5.7527564e-18
vn -0.65271395 0.38461538 0.65271395
vn -0.35324625 0.38461538 0.85281188
vn 0.0000000e+0 -1.00000000 -5.7527564e-18
vn -0.85281188 0.38461538 0.35324625
vn -0.65271395 0.38461538 0.65271395
vn 0.0000000e+0 -1.00000000 -5.7527564e-18
vn -0.92307692 0.38461538 0.0000000e+0
vn -0.85281188 0.38461538 0.35324625
vn 0.0000000e+0 -1.00000000 -5.7527564e-18
vn -0.85281188 0.38461538 -0.35324625
vn -0.92307692 0.38461538 0.0000000e+0
vn 0.0000000e+0 -1.00000000 -5.7527564e-18
vn -0.65271395 0.38461538 -0.65271395
vn -0.85281188 0.38461538 -0.35324625
vn 0.0000000e+0 -1.00000000 -5.7527564e-18
vn -0.35324625 0.38461538 -0.85281188
vn -0.65271395 0.38461538 -0.65271395
vn 0.0000000e+0 -1.00000000 -5.7527564e-18
vn 0.0000000e+0 0.38461538 -0.92307692
vn -0.35324625 0.38461538 -0.85281188
vn 0.0000000e+0 -1.00000000 -5.7527564e-18
vn 0.35324625 0.38461538 -0.85281188
vn 0.0000000e+0 0.38461538 -0.92307692
vn 0.0000000e+0 -1.00000000 -5.7527564e-18
vn 0.65271395 0.38461538 -0.65271395
vn 0.35324625 0.38461538 -0.85281188
vn 0.0000000e+0 -1.00000000 -5.7527564e-18
vn 0.85281188 0.38461538 -0.35324625
vn 0.65271395 0.38461538 -0.65271395
g vega_adapter_s2_s1p5_1_default
usemtl default
s 1
f 1//2 17//50 32//95 16//47
f 3//9 19//57 18//53 2//5
f 5//15 21//63 20//59 4//11
f 7//21 23//69 22//65 6//17
f 9//27 25//75 24//71 8//23
f 12//36 28//84 27//80 11//32
f 14//42 30//90 29//86 13//38
s 2
f 2//6 18//54 17//51 1//3
f 4//12 20//60 19//56 3//8
f 6//18 22//66 21//62 5//14
f 8//24 24//72 23//68 7//20
f 10//30 26//78 25//74 9//26
f 13//39 29//87 28//83 12//35
f 15//45 31//93 30//89 14//41
s 3
f 1//1 16//46 15//43 14//40 13//37 12//34 11//31 10//28 9//25 8//22 7//19 6//16 5//13 4//10 3//7 2//4
f 18//52 19//55 20//58 21//61 22//64 23//67 24//70 25//73 26//76 27//79 28//82 29//85 30//88 31//91 32//94 17//49
s 4
f 11//33 27//81 26//77 10//29
f 16//48 32//96 31//92 15//44
