# Exported from Wings 3D 1.5.4
mtllib vega_adapter_s1_s0p5_1.mtl
o mesh1
#48 vertices, 24 faces
v 0.46875000 0.12500000 -7.2506020e-18
v 0.45277773 0.12500000 0.12132143
v 0.40594941 0.12500000 0.23437500
v 0.33145630 0.12500000 0.33145630
v 0.23437500 0.12500000 0.40594941
v 0.12132143 0.12500000 0.45277773
v -3.6927712e-17 0.12500000 0.46875000
v -0.12132143 0.12500000 0.45277773
v -0.23437500 0.12500000 0.40594941
v -0.33145630 0.12500000 0.33145630
v -0.40594941 0.12500000 0.23437500
v -0.45277773 0.12500000 0.12132143
v -0.46875000 0.12500000 5.0154717e-17
v -0.45277773 0.12500000 -0.12132143
v -0.40594941 0.12500000 -0.23437500
v -0.33145630 0.12500000 -0.33145630
v -0.23437500 0.12500000 -0.40594941
v -0.12132143 0.12500000 -0.45277773
v -1.5173835e-16 0.12500000 -0.46875000
v 0.12132143 0.12500000 -0.45277773
v 0.23437500 0.12500000 -0.40594941
v 0.33145630 0.12500000 -0.33145630
v 0.40594941 0.12500000 -0.23437500
v 0.45277773 0.12500000 -0.12132143
v 0.62500000 -0.12500000 -1.2576745e-17
v 0.60370364 -0.12500000 0.16176190
v 0.54126588 -0.12500000 0.31250000
v 0.44194174 -0.12500000 0.44194174
v 0.31250000 -0.12500000 0.54126588
v 0.16176190 -0.12500000 0.60370364
v -1.3771492e-17 -0.12500000 0.62500000
v -0.16176190 -0.12500000 0.60370364
v -0.31250000 -0.12500000 0.54126588
v -0.44194174 -0.12500000 0.44194174
v -0.54126588 -0.12500000 0.31250000
v -0.60370364 -0.12500000 0.16176190
v -0.62500000 -0.12500000 6.3963680e-17
v -0.60370364 -0.12500000 -0.16176190
v -0.54126588 -0.12500000 -0.31250000
v -0.44194174 -0.12500000 -0.44194174
v -0.31250000 -0.12500000 -0.54126588
v -0.16176190 -0.12500000 -0.60370364
v -1.6685234e-16 -0.12500000 -0.62500000
v 0.16176190 -0.12500000 -0.60370364
v 0.31250000 -0.12500000 -0.54126588
v 0.44194174 -0.12500000 -0.44194174
v 0.54126588 -0.12500000 -0.31250000
v 0.60370364 -0.12500000 -0.16176190
vt 0.72505843 0.17454928
vt 0.72505843 0.17454928
vt 0.73658862 0.20192141
vt 0.73658862 0.20192141
vt 0.73993260 0.17454928
vt 0.73993260 0.17454928
vt 0.74774425 0.20192141
vt 0.74774425 0.20192141
vt 0.75540492 0.17454928
vt 0.75540492 0.17454928
vt 0.75934849 0.20192141
vt 0.75934849 0.20192141
vt 0.77117920 0.17454928
vt 0.77117920 0.20192141
vt 0.77117920 0.20192141
vt 0.77117920 0.17454928
vt 0.78300991 0.20192141
vt 0.78300991 0.20192141
vt 0.78300991 0.20192141
vt 0.78695348 0.17454928
vt 0.78695348 0.17454928
vt 0.79461414 0.20192141
vt 0.79461414 0.20192141
vt 0.80242579 0.17454928
vt 0.80242579 0.17454928
vt 0.80576977 0.20192141
vt 0.80576977 0.20192141
vt 0.80576977 0.20192141
vt 0.81729996 0.17454928
vt 0.81729996 0.17454928
vn 0.84799830 0.52999894 -1.5360405e-16
vn 0.84799830 0.52999894 -1.5360405e-16
vn 0.81910346 0.52999894 0.21947811
vn 0.81910346 0.52999894 0.21947811
vn 0.73438807 0.52999894 0.42399915
vn 0.73438807 0.52999894 0.42399915
vn 0.59962535 0.52999894 0.59962535
vn 0.59962535 0.52999894 0.59962535
vn 0.42399915 0.52999894 0.73438807
vn 0.42399915 0.52999894 0.73438807
vn 0.21947811 0.52999894 0.81910346
vn 0.21947811 0.52999894 0.81910346
vn 3.0022610e-16 0.52999894 0.84799830
vn 3.0022610e-16 0.52999894 0.84799830
vn -0.21947811 0.52999894 0.81910346
vn -0.21947811 0.52999894 0.81910346
vn -0.42399915 0.52999894 0.73438807
vn -0.42399915 0.52999894 0.73438807
vn -0.59962535 0.52999894 0.59962535
vn -0.59962535 0.52999894 0.59962535
vn -0.73438807 0.52999894 0.42399915
vn -0.73438807 0.52999894 0.42399915
vn -0.81910346 0.52999894 0.21947811
vn -0.81910346 0.52999894 0.21947811
vn -0.84799830 0.52999894 4.8874016e-16
vn -0.84799830 0.52999894 4.8874016e-16
vn -0.81910346 0.52999894 -0.21947811
vn -0.81910346 0.52999894 -0.21947811
vn -0.73438807 0.52999894 -0.42399915
vn -0.73438807 0.52999894 -0.42399915
vn -0.59962535 0.52999894 -0.59962535
vn -0.59962535 0.52999894 -0.59962535
vn -0.42399915 0.52999894 -0.73438807
vn -0.42399915 0.52999894 -0.73438807
vn -0.21947811 0.52999894 -0.81910346
vn -0.21947811 0.52999894 -0.81910346
vn -3.7702812e-16 0.52999894 -0.84799830
vn -3.7702812e-16 0.52999894 -0.84799830
vn 0.21947811 0.52999894 -0.81910346
vn 0.21947811 0.52999894 -0.81910346
vn 0.42399915 0.52999894 -0.73438807
vn 0.42399915 0.52999894 -0.73438807
vn 0.59962535 0.52999894 -0.59962535
vn 0.59962535 0.52999894 -0.59962535
vn 0.73438807 0.52999894 -0.42399915
vn 0.73438807 0.52999894 -0.42399915
vn 0.81910346 0.52999894 -0.21947811
vn 0.81910346 0.52999894 -0.21947811
vn 0.84799830 0.52999894 -1.5360405e-16
vn 0.84799830 0.52999894 -1.5360405e-16
vn 0.81910346 0.52999894 0.21947811
vn 0.81910346 0.52999894 0.21947811
vn 0.73438807 0.52999894 0.42399915
vn 0.73438807 0.52999894 0.42399915
vn 0.59962535 0.52999894 0.59962535
vn 0.59962535 0.52999894 0.59962535
vn 0.42399915 0.52999894 0.73438807
vn 0.42399915 0.52999894 0.73438807
vn 0.21947811 0.52999894 0.81910346
vn 0.21947811 0.52999894 0.81910346
vn 3.0022610e-16 0.52999894 0.84799830
vn 3.0022610e-16 0.52999894 0.84799830
vn -0.21947811 0.52999894 0.81910346
vn -0.21947811 0.52999894 0.81910346
vn -0.42399915 0.52999894 0.73438807
vn -0.42399915 0.52999894 0.73438807
vn -0.59962535 0.52999894 0.59962535
vn -0.59962535 0.52999894 0.59962535
vn -0.73438807 0.52999894 0.42399915
vn -0.73438807 0.52999894 0.42399915
vn -0.81910346 0.52999894 0.21947811
vn -0.81910346 0.52999894 0.21947811
vn -0.84799830 0.52999894 4.8874016e-16
vn -0.84799830 0.52999894 4.8874016e-16
vn -0.81910346 0.52999894 -0.21947811
vn -0.81910346 0.52999894 -0.21947811
vn -0.73438807 0.52999894 -0.42399915
vn -0.73438807 0.52999894 -0.42399915
vn -0.59962535 0.52999894 -0.59962535
vn -0.59962535 0.52999894 -0.59962535
vn -0.42399915 0.52999894 -0.73438807
vn -0.42399915 0.52999894 -0.73438807
vn -0.21947811 0.52999894 -0.81910346
vn -0.21947811 0.52999894 -0.81910346
vn -3.7702812e-16 0.52999894 -0.84799830
vn -3.7702812e-16 0.52999894 -0.84799830
vn 0.21947811 0.52999894 -0.81910346
vn 0.21947811 0.52999894 -0.81910346
vn 0.42399915 0.52999894 -0.73438807
vn 0.42399915 0.52999894 -0.73438807
vn 0.59962535 0.52999894 -0.59962535
vn 0.59962535 0.52999894 -0.59962535
vn 0.73438807 0.52999894 -0.42399915
vn 0.73438807 0.52999894 -0.42399915
vn 0.81910346 0.52999894 -0.21947811
vn 0.81910346 0.52999894 -0.21947811
g mesh1_vega_adapter_s1_s0p5_1_auv
usemtl vega_adapter_s1_s0p5_1_auv
s 2
f 1/4/1 25/2/49 48/6/95 24/8/47
f 2/7/4 26/5/52 25/1/50 1/3/2
f 3/11/6 27/9/54 26/5/51 2/7/3
f 4/14/8 28/13/56 27/9/53 3/11/5
f 5/17/10 29/20/58 28/13/55 4/14/7
f 6/22/12 30/24/60 29/20/57 5/17/9
f 7/27/14 31/29/62 30/24/59 6/22/11
f 8/22/16 32/24/64 31/29/61 7/26/13
f 9/17/18 33/20/66 32/24/63 8/22/15
f 10/14/20 34/13/68 33/20/65 9/17/17
f 11/11/22 35/9/70 34/13/67 10/14/19
f 12/7/24 36/5/72 35/9/69 11/11/21
f 13/3/26 37/1/74 36/5/71 12/7/23
f 14/7/28 38/5/76 37/1/73 13/4/25
f 15/11/30 39/9/78 38/5/75 14/7/27
f 16/14/32 40/13/80 39/9/77 15/11/29
f 17/18/34 41/20/82 40/13/79 16/14/31
f 18/22/36 42/24/84 41/20/81 17/18/33
f 19/27/38 43/29/86 42/24/83 18/22/35
f 20/23/40 44/25/88 43/30/85 19/28/37
f 21/19/42 45/21/90 44/25/87 20/23/39
f 22/15/44 46/16/92 45/21/89 21/19/41
f 23/12/46 47/10/94 46/16/91 22/15/43
f 24/8/48 48/6/96 47/10/93 23/12/45
