# Exported from Wings 3D 1.5.4
mtllib ./kristall node collider.mtl
o c2
#24 vertices, 14 faces
v 0.46875000 0.12560118 0.50000000
v 0.34314882 0.34314882 0.50000000
v 0.12560118 0.46875000 0.50000000
v -0.12560118 0.46875000 0.50000000
v -0.34314882 0.34314882 0.50000000
v -0.46875000 0.12560118 0.50000000
v -0.46875000 -0.12560118 0.50000000
v -0.34314882 -0.34314882 0.50000000
v -0.12560118 -0.46875000 0.50000000
v 0.12560118 -0.46875000 0.50000000
v 0.34314882 -0.34314882 0.50000000
v 0.46875000 -0.12560118 0.50000000
v 0.37500000 0.10048095 0.75000000
v 0.27451905 0.27451905 0.75000000
v 0.10048095 0.37500000 0.75000000
v -0.10048095 0.37500000 0.75000000
v -0.27451905 0.27451905 0.75000000
v -0.37500000 0.10048095 0.75000000
v -0.37500000 -0.10048095 0.75000000
v -0.27451905 -0.27451905 0.75000000
v -0.10048095 -0.37500000 0.75000000
v 0.10048095 -0.37500000 0.75000000
v 0.27451905 -0.27451905 0.75000000
v 0.37500000 -0.10048095 0.75000000
vn 3.9285653e-17 0.0000000e+0 -1.00000000
vn 0.93632918 -5.7475474e-16 0.35112344
vn 0.81088485 0.46816459 0.35112344
vn 3.9285653e-17 0.0000000e+0 -1.00000000
vn 0.46816459 0.81088485 0.35112344
vn 0.81088485 0.46816459 0.35112344
vn 3.9285653e-17 0.0000000e+0 -1.00000000
vn 2.2990190e-16 0.93632918 0.35112344
vn 0.46816459 0.81088485 0.35112344
vn 3.9285653e-17 0.0000000e+0 -1.00000000
vn -0.46816459 0.81088485 0.35112344
vn 2.2990190e-16 0.93632918 0.35112344
vn 3.9285653e-17 0.0000000e+0 -1.00000000
vn -0.81088485 0.46816459 0.35112344
vn -0.46816459 0.81088485 0.35112344
vn 3.9285653e-17 0.0000000e+0 -1.00000000
vn -0.93632918 2.2990190e-16 0.35112344
vn -0.81088485 0.46816459 0.35112344
vn 3.9285653e-17 0.0000000e+0 -1.00000000
vn -0.81088485 -0.46816459 0.35112344
vn -0.93632918 2.2990190e-16 0.35112344
vn 3.9285653e-17 0.0000000e+0 -1.00000000
vn -0.46816459 -0.81088485 0.35112344
vn -0.81088485 -0.46816459 0.35112344
vn 3.9285653e-17 0.0000000e+0 -1.00000000
vn -3.4485284e-16 -0.93632918 0.35112344
vn -0.46816459 -0.81088485 0.35112344
vn 3.9285653e-17 0.0000000e+0 -1.00000000
vn 0.46816459 -0.81088485 0.35112344
vn -3.4485284e-16 -0.93632918 0.35112344
vn 3.9285653e-17 0.0000000e+0 -1.00000000
vn 0.81088485 -0.46816459 0.35112344
vn 0.46816459 -0.81088485 0.35112344
vn 3.9285653e-17 0.0000000e+0 -1.00000000
vn 0.93632918 -5.7475474e-16 0.35112344
vn 0.81088485 -0.46816459 0.35112344
vn 1.8415150e-16 0.0000000e+0 1.00000000
vn 0.93632918 -5.7475474e-16 0.35112344
vn 0.81088485 0.46816459 0.35112344
vn 1.8415150e-16 0.0000000e+0 1.00000000
vn 0.46816459 0.81088485 0.35112344
vn 0.81088485 0.46816459 0.35112344
vn 1.8415150e-16 0.0000000e+0 1.00000000
vn 2.2990190e-16 0.93632918 0.35112344
vn 0.46816459 0.81088485 0.35112344
vn 1.8415150e-16 0.0000000e+0 1.00000000
vn -0.46816459 0.81088485 0.35112344
vn 2.2990190e-16 0.93632918 0.35112344
vn 1.8415150e-16 0.0000000e+0 1.00000000
vn -0.81088485 0.46816459 0.35112344
vn -0.46816459 0.81088485 0.35112344
vn 1.8415150e-16 0.0000000e+0 1.00000000
vn -0.93632918 2.2990190e-16 0.35112344
vn -0.81088485 0.46816459 0.35112344
vn 1.8415150e-16 0.0000000e+0 1.00000000
vn -0.81088485 -0.46816459 0.35112344
vn -0.93632918 2.2990190e-16 0.35112344
vn 1.8415150e-16 0.0000000e+0 1.00000000
vn -0.46816459 -0.81088485 0.35112344
vn -0.81088485 -0.46816459 0.35112344
vn 1.8415150e-16 0.0000000e+0 1.00000000
vn -3.4485284e-16 -0.93632918 0.35112344
vn -0.46816459 -0.81088485 0.35112344
vn 1.8415150e-16 0.0000000e+0 1.00000000
vn 0.46816459 -0.81088485 0.35112344
vn -3.4485284e-16 -0.93632918 0.35112344
vn 1.8415150e-16 0.0000000e+0 1.00000000
vn 0.81088485 -0.46816459 0.35112344
vn 0.46816459 -0.81088485 0.35112344
vn 1.8415150e-16 0.0000000e+0 1.00000000
vn 0.93632918 -5.7475474e-16 0.35112344
vn 0.81088485 -0.46816459 0.35112344
g c2_default
usemtl default
s 1
f 1//2 13//38 24//71 12//35
f 3//9 15//45 14//41 2//5
f 5//15 17//51 16//47 4//11
f 8//24 20//60 19//56 7//20
f 10//30 22//66 21//62 9//26
s 2
f 2//6 14//42 13//39 1//3
f 4//12 16//48 15//44 3//8
f 6//18 18//54 17//50 5//14
f 9//27 21//63 20//59 8//23
f 11//33 23//69 22//65 10//29
s 3
f 1//1 12//34 11//31 10//28 9//25 8//22 7//19 6//16 5//13 4//10 3//7 2//4
f 14//40 15//43 16//46 17//49 18//52 19//55 20//58 21//61 22//64 23//67 24//70 13//37
s 4
f 7//21 19//57 18//53 6//17
f 12//36 24//72 23//68 11//32
o c1
#40 vertices, 30 faces
v -0.50000000 -0.50000000 -0.15000000
v -0.50000000 -0.15000000 -0.50000000
v -0.15000000 -0.50000000 -0.50000000
v -0.50000000 -0.50000000 0.15000000
v -0.50000000 -0.15000000 0.50000000
v -0.15000000 -0.50000000 0.50000000
v -0.50000000 0.15000000 -0.50000000
v -0.15000000 0.50000000 -0.50000000
v -0.50000000 0.50000000 -0.15000000
v -0.50000000 0.15000000 0.50000000
v -0.50000000 0.50000000 0.15000000
v -0.15000000 0.50000000 0.50000000
v 0.15000000 -0.50000000 -0.50000000
v 0.50000000 -0.50000000 -0.15000000
v 0.50000000 -0.15000000 -0.50000000
v 0.15000000 -0.50000000 0.50000000
v 0.50000000 -0.15000000 0.50000000
v 0.50000000 -0.50000000 0.15000000
v 0.15000000 0.50000000 -0.50000000
v 0.50000000 0.15000000 -0.50000000
v 0.50000000 0.50000000 -0.15000000
v 0.15000000 0.50000000 0.50000000
v 0.50000000 0.50000000 0.15000000
v 0.50000000 0.15000000 0.50000000
v 0.62500000 -0.15000000 -4.5000000e-2
v 0.62500000 -4.5000000e-2 -0.15000000
v 0.62500000 4.5000000e-2 -0.15000000
v 0.62500000 0.15000000 -4.5000000e-2
v 0.62500000 0.15000000 4.5000000e-2
v 0.62500000 4.5000000e-2 0.15000000
v 0.62500000 -4.5000000e-2 0.15000000
v 0.62500000 -0.15000000 4.5000000e-2
v -0.62500000 -4.5000000e-2 -0.15000000
v -0.62500000 -0.15000000 -4.5000000e-2
v -0.62500000 -0.15000000 4.5000000e-2
v -0.62500000 -4.5000000e-2 0.15000000
v -0.62500000 4.5000000e-2 0.15000000
v -0.62500000 0.15000000 4.5000000e-2
v -0.62500000 0.15000000 -4.5000000e-2
v -0.62500000 4.5000000e-2 -0.15000000
vn -0.57735027 -0.57735027 -0.57735027
vn 0.0000000e+0 -1.00000000 -3.6762352e-17
vn -0.93212071 -0.25607712 -0.25607712
vn -0.94174191 -0.33633640 0.0000000e+0
vn -0.57735027 -0.57735027 -0.57735027
vn -3.6762352e-17 0.0000000e+0 -1.00000000
vn -0.93212071 -0.25607712 -0.25607712
vn -0.94174191 0.0000000e+0 -0.33633640
vn -0.57735027 -0.57735027 -0.57735027
vn -3.6762352e-17 0.0000000e+0 -1.00000000
vn 0.0000000e+0 -1.00000000 -3.6762352e-17
vn -0.57735027 -0.57735027 0.57735027
vn 0.0000000e+0 -1.00000000 -3.6762352e-17
vn -0.94174191 -0.33633640 0.0000000e+0
vn -0.93212071 -0.25607712 0.25607712
vn 3.6762352e-17 0.0000000e+0 1.00000000
vn -0.57735027 -0.57735027 0.57735027
vn -0.93212071 -0.25607712 0.25607712
vn -0.94174191 0.0000000e+0 0.33633640
vn 3.6762352e-17 0.0000000e+0 1.00000000
vn -0.57735027 -0.57735027 0.57735027
vn 0.0000000e+0 -1.00000000 -3.6762352e-17
vn -0.57735027 0.57735027 -0.57735027
vn -3.6762352e-17 0.0000000e+0 -1.00000000
vn -0.93212071 0.25607712 -0.25607712
vn -0.94174191 0.0000000e+0 -0.33633640
vn -0.57735027 0.57735027 -0.57735027
vn 0.0000000e+0 1.00000000 3.6762352e-17
vn -3.6762352e-17 0.0000000e+0 -1.00000000
vn -0.57735027 0.57735027 -0.57735027
vn 0.0000000e+0 1.00000000 3.6762352e-17
vn -0.94174191 0.33633640 0.0000000e+0
vn -0.93212071 0.25607712 -0.25607712
vn 3.6762352e-17 0.0000000e+0 1.00000000
vn -0.57735027 0.57735027 0.57735027
vn -0.94174191 0.0000000e+0 0.33633640
vn -0.93212071 0.25607712 0.25607712
vn 0.0000000e+0 1.00000000 3.6762352e-17
vn -0.57735027 0.57735027 0.57735027
vn -0.93212071 0.25607712 0.25607712
vn -0.94174191 0.33633640 0.0000000e+0
vn 3.6762352e-17 0.0000000e+0 1.00000000
vn 0.0000000e+0 1.00000000 3.6762352e-17
vn -0.57735027 0.57735027 0.57735027
vn 0.57735027 -0.57735027 -0.57735027
vn -3.6762352e-17 0.0000000e+0 -1.00000000
vn 0.0000000e+0 -1.00000000 -3.6762352e-17
vn 0.57735027 -0.57735027 -0.57735027
vn 0.0000000e+0 -1.00000000 -3.6762352e-17
vn 0.93212071 -0.25607712 -0.25607712
vn 0.94174191 -0.33633640 0.0000000e+0
vn 0.57735027 -0.57735027 -0.57735027
vn -3.6762352e-17 0.0000000e+0 -1.00000000
vn 0.93212071 -0.25607712 -0.25607712
vn 0.94174191 0.0000000e+0 -0.33633640
vn 3.6762352e-17 0.0000000e+0 1.00000000
vn 0.57735027 -0.57735027 0.57735027
vn 0.0000000e+0 -1.00000000 -3.6762352e-17
vn 3.6762352e-17 0.0000000e+0 1.00000000
vn 0.57735027 -0.57735027 0.57735027
vn 0.94174191 0.0000000e+0 0.33633640
vn 0.93212071 -0.25607712 0.25607712
vn 0.57735027 -0.57735027 0.57735027
vn 0.0000000e+0 -1.00000000 -3.6762352e-17
vn 0.93212071 -0.25607712 0.25607712
vn 0.94174191 -0.33633640 0.0000000e+0
vn 0.57735027 0.57735027 -0.57735027
vn 0.0000000e+0 1.00000000 3.6762352e-17
vn -3.6762352e-17 0.0000000e+0 -1.00000000
vn 0.57735027 0.57735027 -0.57735027
vn -3.6762352e-17 0.0000000e+0 -1.00000000
vn 0.94174191 0.0000000e+0 -0.33633640
vn 0.93212071 0.25607712 -0.25607712
vn 0.57735027 0.57735027 -0.57735027
vn 0.0000000e+0 1.00000000 3.6762352e-17
vn 0.93212071 0.25607712 -0.25607712
vn 0.94174191 0.33633640 0.0000000e+0
vn 3.6762352e-17 0.0000000e+0 1.00000000
vn 0.0000000e+0 1.00000000 3.6762352e-17
vn 0.57735027 0.57735027 0.57735027
vn 0.0000000e+0 1.00000000 3.6762352e-17
vn 0.57735027 0.57735027 0.57735027
vn 0.94174191 0.33633640 0.0000000e+0
vn 0.93212071 0.25607712 0.25607712
vn 3.6762352e-17 0.0000000e+0 1.00000000
vn 0.57735027 0.57735027 0.57735027
vn 0.93212071 0.25607712 0.25607712
vn 0.94174191 0.0000000e+0 0.33633640
vn 1.00000000 -2.0423529e-16 0.0000000e+0
vn 0.93212071 -0.25607712 -0.25607712
vn 0.94174191 -0.33633640 0.0000000e+0
vn 1.00000000 -2.0423529e-16 0.0000000e+0
vn 0.93212071 -0.25607712 -0.25607712
vn 0.94174191 0.0000000e+0 -0.33633640
vn 1.00000000 -2.0423529e-16 0.0000000e+0
vn 0.94174191 0.0000000e+0 -0.33633640
vn 0.93212071 0.25607712 -0.25607712
vn 1.00000000 -2.0423529e-16 0.0000000e+0
vn 0.93212071 0.25607712 -0.25607712
vn 0.94174191 0.33633640 0.0000000e+0
vn 1.00000000 -2.0423529e-16 0.0000000e+0
vn 0.94174191 0.33633640 0.0000000e+0
vn 0.93212071 0.25607712 0.25607712
vn 1.00000000 -2.0423529e-16 0.0000000e+0
vn 0.93212071 0.25607712 0.25607712
vn 0.94174191 0.0000000e+0 0.33633640
vn 1.00000000 -2.0423529e-16 0.0000000e+0
vn 0.94174191 0.0000000e+0 0.33633640
vn 0.93212071 -0.25607712 0.25607712
vn 1.00000000 -2.0423529e-16 0.0000000e+0
vn 0.93212071 -0.25607712 0.25607712
vn 0.94174191 -0.33633640 0.0000000e+0
vn -1.00000000 0.0000000e+0 0.0000000e+0
vn -0.93212071 -0.25607712 -0.25607712
vn -0.94174191 0.0000000e+0 -0.33633640
vn -1.00000000 0.0000000e+0 0.0000000e+0
vn -0.93212071 -0.25607712 -0.25607712
vn -0.94174191 -0.33633640 0.0000000e+0
vn -1.00000000 0.0000000e+0 0.0000000e+0
vn -0.94174191 -0.33633640 0.0000000e+0
vn -0.93212071 -0.25607712 0.25607712
vn -1.00000000 0.0000000e+0 0.0000000e+0
vn -0.93212071 -0.25607712 0.25607712
vn -0.94174191 0.0000000e+0 0.33633640
vn -1.00000000 0.0000000e+0 0.0000000e+0
vn -0.94174191 0.0000000e+0 0.33633640
vn -0.93212071 0.25607712 0.25607712
vn -1.00000000 0.0000000e+0 0.0000000e+0
vn -0.93212071 0.25607712 0.25607712
vn -0.94174191 0.33633640 0.0000000e+0
vn -1.00000000 0.0000000e+0 0.0000000e+0
vn -0.94174191 0.33633640 0.0000000e+0
vn -0.93212071 0.25607712 -0.25607712
vn -1.00000000 0.0000000e+0 0.0000000e+0
vn -0.93212071 0.25607712 -0.25607712
vn -0.94174191 0.0000000e+0 -0.33633640
g c1_default2
usemtl default2
s 1
f 26//77 27//81 25//73
f 28//84 30//93 29//89
f 31//95 33//102 32//99
f 34//107 36//116 35//111
f 37//117 39//124 38//120
f 38//123 49//163 56//184 42//138
f 40//129 42//135 41//132
f 41//133 55//180 54//178 48//160
f 43//139 45//146 44//142
f 44//144 51//168 50//166 39//127
f 46//152 48//158 47//154
f 47//155 53//174 52//172 45//149
f 58//188 59//191 60//194 61//197 62//200 63//203 64//206 57//185
s 2
f 25//75 58//189 57//186 26//79
f 26//78 31//96 32//101 43//141 44//143 39//125 37//118 27//82
f 29//90 60//195 59//193 28//87
f 30//92 40//128 41//131 48//157 46//150 36//114 34//106 29//88
f 33//104 63//204 62//202 35//113
f 39//126 50//165 49//162 38//122
f 42//137 56//183 55//181 41//134
f 45//148 52//171 51//169 44//145
f 48//159 54//177 53//175 47//156
s 3
f 26//80 57//187 64//208 31//98
f 28//86 59//192 58//190 25//76
f 33//103 35//110 36//115 46//151 47//153 45//147 43//140 32//100
f 35//112 62//201 61//199 34//109
f 50//164 51//167 52//170 53//173 54//176 55//179 56//182 49//161
s 4
f 27//83 37//119 38//121 42//136 40//130 30//94 28//85 25//74
f 31//97 64//207 63//205 33//105
f 34//108 61//198 60//196 29//91
