# Exported from Wings 3D 1.5.4
mtllib Acamar_Solar_1.mtl
o Acamar_Solar_1
#8 vertices, 6 faces
v -0.62500000 -5.0000000e-3 -0.39500000
v -0.62500000 -5.0000000e-3 5.0000000e-3
v -0.62500000 5.0000000e-3 -0.39500000
v -0.62500000 5.0000000e-3 5.0000000e-3
v 0.62500000 -5.0000000e-3 -0.39500000
v 0.62500000 -5.0000000e-3 5.0000000e-3
v 0.62500000 5.0000000e-3 -0.39500000
v 0.62500000 5.0000000e-3 5.0000000e-3
vt 3.7266060e-2 1.5000000e-2
vt 3.7266060e-2 0.98500000
vt 0.34766606 1.5000000e-2
vt 0.34766606 0.98500000
vt 0.38451548 1.5000000e-2
vt 0.38451548 0.98500000
vt 0.69491548 1.5000000e-2
vt 0.69491548 0.98500000
vt 0.73228492 1.5000000e-2
vt 0.73228492 1.5000000e-2
vt 0.73228492 0.98500000
vt 0.73228492 0.98500000
vt 0.74004492 1.5000000e-2
vt 0.74004492 1.5000000e-2
vt 0.74004492 0.98500000
vt 0.77715648 1.4600899e-2
vt 0.77715648 0.32500090
vt 0.78491648 1.4600899e-2
vt 0.78491648 0.32500090
vn 0.0000000e+0 -1.00000000 0.0000000e+0
vn 0.0000000e+0 0.0000000e+0 -1.00000000
vn -1.00000000 0.0000000e+0 0.0000000e+0
vn 0.0000000e+0 -1.00000000 0.0000000e+0
vn 0.0000000e+0 0.0000000e+0 1.00000000
vn -1.00000000 0.0000000e+0 0.0000000e+0
vn 0.0000000e+0 1.00000000 0.0000000e+0
vn 0.0000000e+0 0.0000000e+0 -1.00000000
vn -1.00000000 0.0000000e+0 0.0000000e+0
vn 0.0000000e+0 1.00000000 0.0000000e+0
vn 0.0000000e+0 0.0000000e+0 1.00000000
vn -1.00000000 0.0000000e+0 0.0000000e+0
vn 0.0000000e+0 -1.00000000 0.0000000e+0
vn 0.0000000e+0 0.0000000e+0 -1.00000000
vn 1.00000000 0.0000000e+0 0.0000000e+0
vn 0.0000000e+0 -1.00000000 0.0000000e+0
vn 0.0000000e+0 0.0000000e+0 1.00000000
vn 1.00000000 0.0000000e+0 0.0000000e+0
vn 0.0000000e+0 1.00000000 0.0000000e+0
vn 0.0000000e+0 0.0000000e+0 -1.00000000
vn 1.00000000 0.0000000e+0 0.0000000e+0
vn 0.0000000e+0 1.00000000 0.0000000e+0
vn 0.0000000e+0 0.0000000e+0 1.00000000
vn 1.00000000 0.0000000e+0 0.0000000e+0
g Acamar_Solar_1_Acamar_Solar_1_auv
usemtl Acamar_Solar_1_auv
s 1
f 2/19/6 4/17/12 3/16/9 1/18/3
f 5/19/15 7/17/21 8/16/24 6/18/18
s 2
f 2/14/5 6/15/17 8/11/23 4/10/11
f 3/12/8 7/9/20 5/13/14 1/15/2
s 3
f 1/6/1 5/5/13 6/7/16 2/8/4
f 4/3/10 8/4/22 7/2/19 3/1/7
