# Exported from Wings 3D 1.5.4
mtllib ./down.mtl
o down
#54 vertices, 64 faces
v -0.75000000 -0.11150000 -0.50000000
v -0.75000000 -2.5000000e-2 0.0000000e+0
v -0.75000000 -8.6500000e-2 -0.50000000
v -0.75000000 0.0000000e+0 0.0000000e+0
v 0.75000000 -0.11150000 -0.50000000
v 0.75000000 -2.5000000e-2 0.0000000e+0
v 0.75000000 -8.6500000e-2 -0.50000000
v 0.75000000 0.0000000e+0 0.0000000e+0
v -0.75000000 -2.5000000e-2 -1.00000000
v -0.75000000 0.0000000e+0 -1.00000000
v 0.75000000 -2.5000000e-2 -1.00000000
v 0.75000000 0.0000000e+0 -1.00000000
v 0.0000000e+0 0.0000000e+0 -1.00000000
v 0.0000000e+0 -2.5000000e-2 -1.00000000
v 0.0000000e+0 0.0000000e+0 0.0000000e+0
v 0.0000000e+0 -8.6500000e-2 -0.50000000
v 0.0000000e+0 -2.5000000e-2 0.0000000e+0
v 0.0000000e+0 -0.11150000 -0.50000000
v 0.46250000 1.2500000e-2 0.0000000e+0
v 0.46250000 8.8388348e-3 8.8388348e-3
v 0.46250000 3.4694470e-17 1.2500000e-2
v 0.46250000 -8.8388348e-3 8.8388348e-3
v 0.46250000 -1.2500000e-2 0.0000000e+0
v 0.46250000 -8.8388348e-3 -8.8388348e-3
v 0.46250000 3.4694470e-17 -1.2500000e-2
v 0.46250000 8.8388348e-3 -8.8388348e-3
v 0.53750000 1.2500000e-2 0.0000000e+0
v 0.53750000 8.8388348e-3 8.8388348e-3
v 0.53750000 3.4694470e-17 1.2500000e-2
v 0.53750000 -8.8388348e-3 8.8388348e-3
v 0.53750000 -1.2500000e-2 0.0000000e+0
v 0.53750000 -8.8388348e-3 -8.8388348e-3
v 0.53750000 3.4694470e-17 -1.2500000e-2
v 0.53750000 8.8388348e-3 -8.8388348e-3
v 0.46250000 3.4694470e-17 0.0000000e+0
v 0.53750000 3.4694470e-17 0.0000000e+0
v -0.53750000 1.2500000e-2 0.0000000e+0
v -0.53750000 8.8388348e-3 8.8388348e-3
v -0.53750000 3.4694470e-17 1.2500000e-2
v -0.53750000 -8.8388348e-3 8.8388348e-3
v -0.53750000 -1.2500000e-2 0.0000000e+0
v -0.53750000 -8.8388348e-3 -8.8388348e-3
v -0.53750000 3.4694470e-17 -1.2500000e-2
v -0.53750000 8.8388348e-3 -8.8388348e-3
v -0.46250000 1.2500000e-2 0.0000000e+0
v -0.46250000 8.8388348e-3 8.8388348e-3
v -0.46250000 3.4694470e-17 1.2500000e-2
v -0.46250000 -8.8388348e-3 8.8388348e-3
v -0.46250000 -1.2500000e-2 0.0000000e+0
v -0.46250000 -8.8388348e-3 -8.8388348e-3
v -0.46250000 3.4694470e-17 -1.2500000e-2
v -0.46250000 8.8388348e-3 -8.8388348e-3
v -0.53750000 3.4694470e-17 0.0000000e+0
v -0.46250000 3.4694470e-17 0.0000000e+0
vt 2.0000000e-2 0.55563034
vt 2.0000000e-2 0.55563034
vt 2.0000000e-2 0.55563034
vt 2.0000000e-2 0.75068204
vt 2.0000000e-2 0.75068204
vt 2.0700966e-2 0.33695152
vt 2.0700966e-2 0.53432147
vt 2.0700966e-2 0.33695152
vt 2.0700966e-2 0.53432147
vt 3.0304598e-2 0.33695152
vt 3.0304598e-2 0.53432147
vt 3.0304598e-2 0.32711113
vt 3.0304598e-2 0.33695152
vt 3.0304598e-2 0.32711113
vt 3.0304598e-2 0.53432147
vt 0.31286109 0.55563034
vt 0.31286109 0.75068204
vt 0.31286109 0.55563034
vt 0.31286109 0.55563034
vt 0.31286109 0.75068204
vt 0.31286109 0.75068204
vt 0.32279910 0.32711113
vt 0.32279910 0.33695152
vt 0.32279910 0.53432147
vt 0.32279910 0.33695152
vt 0.32279910 0.53432147
vt 0.32279910 0.32711113
vt 0.48979793 0.68073698
vt 0.48979793 0.71016754
vt 0.49355212 0.68073698
vt 0.49355212 0.71016754
vt 0.49730632 0.68073698
vt 0.49730632 0.71016754
vt 0.49990962 0.67558678
vt 0.49990962 0.67558678
vt 0.50106052 0.68073698
vt 0.50106052 0.71016754
vt 0.50134629 0.67211835
vt 0.50134629 0.67905520
vt 0.50134629 0.67211835
vt 0.50134629 0.67905520
vt 0.50481471 0.67068169
vt 0.50481471 0.67558678
vt 0.50481471 0.68049187
vt 0.50481471 0.68073698
vt 0.50481471 0.71016754
vt 0.50481471 0.67068169
vt 0.50481471 0.67558678
vt 0.50481471 0.68049187
vt 0.50828314 0.67211835
vt 0.50828314 0.67905520
vt 0.50828314 0.67211835
vt 0.50828314 0.67905520
vt 0.50856891 0.68073698
vt 0.50856891 0.71016754
vt 0.50971980 0.67558678
vt 0.51232310 0.68073698
vt 0.51232310 0.71016754
vt 0.51607730 0.68073698
vt 0.51607730 0.71016754
vt 0.51983149 0.68073698
vt 0.51983149 0.71016754
vt 0.61586830 0.32711113
vt 0.61586830 0.53432147
vt 0.61586830 0.32711113
vt 0.61586830 0.33695152
vt 0.61586830 0.53432147
vt 0.61586830 0.33695152
vt 0.62627085 0.53432147
vt 0.62627085 0.33695152
vt 0.62627085 0.53432147
vt 0.62627085 0.33695152
vn -1.00000000 3.9443045e-31 0.0000000e+0
vn 1.00000000 0.0000000e+0 0.0000000e+0
vn -1.00000000 7.8886091e-31 0.0000000e+0
vn 1.00000000 0.0000000e+0 0.0000000e+0
vn 0.0000000e+0 -0.98536324 0.17046784
vn -1.00000000 0.0000000e+0 0.0000000e+0
vn 0.0000000e+0 -0.98536324 -0.17046784
vn -1.00000000 0.0000000e+0 0.0000000e+0
vn 0.0000000e+0 -0.98536324 0.17046784
vn 0.0000000e+0 0.0000000e+0 1.00000000
vn -1.00000000 0.0000000e+0 0.0000000e+0
vn 0.0000000e+0 0.98536324 -0.17046784
vn -1.00000000 0.0000000e+0 0.0000000e+0
vn -1.00000000 0.0000000e+0 0.0000000e+0
vn 0.0000000e+0 0.98536324 0.17046784
vn 0.0000000e+0 0.98536324 -0.17046784
vn 0.0000000e+0 0.0000000e+0 1.00000000
vn -1.00000000 0.0000000e+0 0.0000000e+0
vn 1.00000000 0.0000000e+0 0.0000000e+0
vn 1.00000000 0.0000000e+0 0.0000000e+0
vn 0.0000000e+0 -0.98536324 0.17046784
vn 0.0000000e+0 -0.98536324 -0.17046784
vn 1.00000000 0.0000000e+0 0.0000000e+0
vn 0.0000000e+0 -0.98536324 0.17046784
vn 0.0000000e+0 0.0000000e+0 1.00000000
vn 1.00000000 0.0000000e+0 0.0000000e+0
vn 0.0000000e+0 0.98536324 0.17046784
vn 1.00000000 0.0000000e+0 0.0000000e+0
vn 0.0000000e+0 0.98536324 -0.17046784
vn 1.00000000 0.0000000e+0 0.0000000e+0
vn 0.0000000e+0 0.98536324 -0.17046784
vn 0.0000000e+0 0.0000000e+0 1.00000000
vn 0.0000000e+0 -0.98536324 -0.17046784
vn 0.0000000e+0 0.0000000e+0 -1.00000000
vn -1.00000000 0.0000000e+0 0.0000000e+0
vn 0.0000000e+0 0.0000000e+0 -1.00000000
vn -1.00000000 0.0000000e+0 0.0000000e+0
vn 0.0000000e+0 0.98536324 0.17046784
vn 1.00000000 0.0000000e+0 0.0000000e+0
vn 0.0000000e+0 -0.98536324 -0.17046784
vn 0.0000000e+0 0.0000000e+0 -1.00000000
vn 0.0000000e+0 0.98536324 0.17046784
vn 1.00000000 0.0000000e+0 0.0000000e+0
vn 0.0000000e+0 0.0000000e+0 -1.00000000
vn 0.0000000e+0 0.98536324 0.17046784
vn 0.0000000e+0 0.0000000e+0 -1.00000000
vn 0.0000000e+0 0.98536324 0.17046784
vn 0.0000000e+0 0.0000000e+0 -1.00000000
vn 0.0000000e+0 -0.98536324 -0.17046784
vn 0.0000000e+0 0.0000000e+0 -1.00000000
vn 0.0000000e+0 -0.98536324 -0.17046784
vn 0.0000000e+0 0.0000000e+0 -1.00000000
vn 0.0000000e+0 0.98536324 -0.17046784
vn 0.0000000e+0 0.0000000e+0 1.00000000
vn 0.0000000e+0 0.98536324 -0.17046784
vn 0.0000000e+0 0.0000000e+0 1.00000000
vn 0.0000000e+0 0.98536324 -0.17046784
vn 0.0000000e+0 0.98536324 0.17046784
vn 0.0000000e+0 0.98536324 -0.17046784
vn 0.0000000e+0 0.98536324 0.17046784
vn 0.0000000e+0 -0.98536324 0.17046784
vn 0.0000000e+0 0.0000000e+0 1.00000000
vn 0.0000000e+0 -0.98536324 0.17046784
vn 0.0000000e+0 0.0000000e+0 1.00000000
vn 0.0000000e+0 -0.98536324 0.17046784
vn 0.0000000e+0 -0.98536324 -0.17046784
vn 0.0000000e+0 -0.98536324 0.17046784
vn 0.0000000e+0 -0.98536324 -0.17046784
vn 2.2999401e-17 1.00000000 -1.5021209e-16
vn 2.2999401e-17 1.00000000 -1.5021209e-16
vn -1.00000000 0.0000000e+0 0.0000000e+0
vn -1.00000000 0.0000000e+0 0.0000000e+0
vn 3.3221357e-17 0.70710678 0.70710678
vn 3.3221357e-17 0.70710678 0.70710678
vn -1.00000000 -1.9626156e-15 0.0000000e+0
vn -1.00000000 -1.9626156e-15 0.0000000e+0
vn -3.3353785e-33 -9.0127256e-17 1.00000000
vn -3.3353785e-33 -9.0127256e-17 1.00000000
vn -1.00000000 1.9721523e-30 0.0000000e+0
vn -1.00000000 1.9721523e-30 0.0000000e+0
vn -3.3221357e-17 -0.70710678 0.70710678
vn -3.3221357e-17 -0.70710678 0.70710678
vn -1.00000000 1.9626156e-15 0.0000000e+0
vn -1.00000000 1.9626156e-15 0.0000000e+0
vn -2.2999401e-17 -1.00000000 1.8025451e-16
vn -2.2999401e-17 -1.00000000 1.8025451e-16
vn -1.00000000 0.0000000e+0 0.0000000e+0
vn -1.00000000 0.0000000e+0 0.0000000e+0
vn 0.0000000e+0 -0.70710678 -0.70710678
vn 0.0000000e+0 -0.70710678 -0.70710678
vn -1.00000000 1.9626156e-15 0.0000000e+0
vn -1.00000000 1.9626156e-15 0.0000000e+0
vn 0.0000000e+0 6.0084837e-17 -1.00000000
vn 0.0000000e+0 6.0084837e-17 -1.00000000
vn -1.00000000 -3.9443045e-31 0.0000000e+0
vn -1.00000000 -3.9443045e-31 0.0000000e+0
vn 0.0000000e+0 0.70710678 -0.70710678
vn 0.0000000e+0 0.70710678 -0.70710678
vn -1.00000000 -1.9626156e-15 0.0000000e+0
vn -1.00000000 -1.9626156e-15 0.0000000e+0
vn 2.2999401e-17 1.00000000 -1.5021209e-16
vn 2.2999401e-17 1.00000000 -1.5021209e-16
vn 1.00000000 0.0000000e+0 0.0000000e+0
vn 1.00000000 0.0000000e+0 0.0000000e+0
vn 3.3221357e-17 0.70710678 0.70710678
vn 3.3221357e-17 0.70710678 0.70710678
vn 1.00000000 0.0000000e+0 0.0000000e+0
vn 1.00000000 0.0000000e+0 0.0000000e+0
vn -3.3353785e-33 -9.0127256e-17 1.00000000
vn -3.3353785e-33 -9.0127256e-17 1.00000000
vn 1.00000000 0.0000000e+0 0.0000000e+0
vn 1.00000000 0.0000000e+0 0.0000000e+0
vn -3.3221357e-17 -0.70710678 0.70710678
vn -3.3221357e-17 -0.70710678 0.70710678
vn 1.00000000 0.0000000e+0 0.0000000e+0
vn 1.00000000 0.0000000e+0 0.0000000e+0
vn -2.2999401e-17 -1.00000000 1.8025451e-16
vn -2.2999401e-17 -1.00000000 1.8025451e-16
vn 1.00000000 0.0000000e+0 0.0000000e+0
vn 1.00000000 0.0000000e+0 0.0000000e+0
vn 0.0000000e+0 -0.70710678 -0.70710678
vn 0.0000000e+0 -0.70710678 -0.70710678
vn 1.00000000 0.0000000e+0 0.0000000e+0
vn 1.00000000 0.0000000e+0 0.0000000e+0
vn 0.0000000e+0 6.0084837e-17 -1.00000000
vn 0.0000000e+0 6.0084837e-17 -1.00000000
vn 1.00000000 0.0000000e+0 0.0000000e+0
vn 1.00000000 0.0000000e+0 0.0000000e+0
vn 0.0000000e+0 0.70710678 -0.70710678
vn 0.0000000e+0 0.70710678 -0.70710678
vn 1.00000000 0.0000000e+0 0.0000000e+0
vn 1.00000000 0.0000000e+0 0.0000000e+0
vn 2.2999401e-17 1.00000000 -1.5021209e-16
vn 2.2999401e-17 1.00000000 -1.5021209e-16
vn -1.00000000 0.0000000e+0 0.0000000e+0
vn -1.00000000 0.0000000e+0 0.0000000e+0
vn 3.3221357e-17 0.70710678 0.70710678
vn 3.3221357e-17 0.70710678 0.70710678
vn -1.00000000 -3.9252311e-15 0.0000000e+0
vn -1.00000000 -3.9252311e-15 0.0000000e+0
vn -3.3353785e-33 -9.0127256e-17 1.00000000
vn -3.3353785e-33 -9.0127256e-17 1.00000000
vn -1.00000000 3.9443045e-30 0.0000000e+0
vn -1.00000000 3.9443045e-30 0.0000000e+0
vn -3.3221357e-17 -0.70710678 0.70710678
vn -3.3221357e-17 -0.70710678 0.70710678
vn -1.00000000 3.9252311e-15 0.0000000e+0
vn -1.00000000 3.9252311e-15 0.0000000e+0
vn -2.2999401e-17 -1.00000000 1.8025451e-16
vn -2.2999401e-17 -1.00000000 1.8025451e-16
vn -1.00000000 0.0000000e+0 0.0000000e+0
vn -1.00000000 0.0000000e+0 0.0000000e+0
vn 0.0000000e+0 -0.70710678 -0.70710678
vn 0.0000000e+0 -0.70710678 -0.70710678
vn -1.00000000 3.9252311e-15 0.0000000e+0
vn -1.00000000 3.9252311e-15 0.0000000e+0
vn 0.0000000e+0 6.0084837e-17 -1.00000000
vn 0.0000000e+0 6.0084837e-17 -1.00000000
vn -1.00000000 -7.8886091e-31 0.0000000e+0
vn -1.00000000 -7.8886091e-31 0.0000000e+0
vn 0.0000000e+0 0.70710678 -0.70710678
vn 0.0000000e+0 0.70710678 -0.70710678
vn -1.00000000 -3.9252311e-15 0.0000000e+0
vn -1.00000000 -3.9252311e-15 0.0000000e+0
vn 2.2999401e-17 1.00000000 -1.5021209e-16
vn 2.2999401e-17 1.00000000 -1.5021209e-16
vn 1.00000000 0.0000000e+0 0.0000000e+0
vn 1.00000000 0.0000000e+0 0.0000000e+0
vn 3.3221357e-17 0.70710678 0.70710678
vn 3.3221357e-17 0.70710678 0.70710678
vn 1.00000000 0.0000000e+0 0.0000000e+0
vn 1.00000000 0.0000000e+0 0.0000000e+0
vn -3.3353785e-33 -9.0127256e-17 1.00000000
vn -3.3353785e-33 -9.0127256e-17 1.00000000
vn 1.00000000 0.0000000e+0 0.0000000e+0
vn 1.00000000 0.0000000e+0 0.0000000e+0
vn -3.3221357e-17 -0.70710678 0.70710678
vn -3.3221357e-17 -0.70710678 0.70710678
vn 1.00000000 0.0000000e+0 0.0000000e+0
vn 1.00000000 0.0000000e+0 0.0000000e+0
vn -2.2999401e-17 -1.00000000 1.8025451e-16
vn -2.2999401e-17 -1.00000000 1.8025451e-16
vn 1.00000000 0.0000000e+0 0.0000000e+0
vn 1.00000000 0.0000000e+0 0.0000000e+0
vn 0.0000000e+0 -0.70710678 -0.70710678
vn 0.0000000e+0 -0.70710678 -0.70710678
vn 1.00000000 0.0000000e+0 0.0000000e+0
vn 1.00000000 0.0000000e+0 0.0000000e+0
vn 0.0000000e+0 6.0084837e-17 -1.00000000
vn 0.0000000e+0 6.0084837e-17 -1.00000000
vn 1.00000000 0.0000000e+0 0.0000000e+0
vn 1.00000000 0.0000000e+0 0.0000000e+0
vn 0.0000000e+0 0.70710678 -0.70710678
vn 0.0000000e+0 0.70710678 -0.70710678
vn 1.00000000 0.0000000e+0 0.0000000e+0
vn 1.00000000 0.0000000e+0 0.0000000e+0
g down_1_auv
usemtl 1_auv
s 1
f 1/3/7 9/5/33 14/21/49 18/19/66
f 2/6/11 4/10/18 3/15/13 1/9/6
f 5/71/19 7/67/26 8/66/30 6/70/23
f 11/4/40 5/1/22 18/16/68 14/17/51
f 13/23/45 16/24/58 7/11/27 12/13/42
f 16/24/60 13/23/47 10/68/38 3/64/15
f 19/49/71 35/48/1 20/53/75
f 20/53/76 35/48/1 21/56/80
f 21/56/79 35/48/1 22/52/84
f 22/52/83 35/48/1 23/47/88
f 23/47/87 35/48/1 24/40/92
f 24/40/91 35/48/1 25/35/96
f 25/35/95 35/48/1 26/41/100
f 26/41/99 35/48/1 19/49/72
f 27/44/104 36/43/2 34/51/132
f 28/39/107 36/43/2 27/44/103
f 29/34/111 36/43/2 28/39/108
f 30/38/115 36/43/2 29/34/112
f 31/42/119 36/43/2 30/38/116
f 32/50/123 36/43/2 31/42/120
f 33/56/127 36/43/2 32/50/124
f 34/51/131 36/43/2 33/56/128
f 37/49/135 53/48/3 38/53/139
f 38/53/140 53/48/3 39/56/144
f 39/56/143 53/48/3 40/52/148
f 40/52/147 53/48/3 41/47/152
f 41/47/151 53/48/3 42/40/156
f 42/40/155 53/48/3 43/35/160
f 43/35/159 53/48/3 44/41/164
f 44/41/163 53/48/3 37/49/136
f 45/44/168 54/43/4 52/51/196
f 46/39/171 54/43/4 45/44/167
f 47/34/175 54/43/4 46/39/172
f 48/38/179 54/43/4 47/34/176
f 49/42/183 54/43/4 48/38/180
f 50/50/187 54/43/4 49/42/184
f 51/56/191 54/43/4 50/50/188
f 52/51/195 54/43/4 51/56/192
s 2
f 1/4/5 18/20/65 17/18/61 2/1/9
f 3/64/14 10/68/37 9/72/35 1/69/8
f 4/10/16 15/25/53 16/26/57 3/15/12
f 5/7/20 11/8/39 12/13/43 7/11/28
f 6/2/24 17/16/63 18/17/67 5/4/21
f 7/67/29 16/26/59 15/25/55 8/66/31
f 19/37/69 27/36/101 34/45/129 26/46/97
f 20/33/74 28/32/106 27/36/102 19/37/70
f 21/31/78 29/30/110 28/32/105 20/33/73
f 22/29/82 30/28/114 29/30/109 21/31/77
f 23/60/86 31/59/118 30/61/113 22/62/81
f 24/58/90 32/57/122 31/59/117 23/60/85
f 25/55/94 33/54/126 32/57/121 24/58/89
f 26/46/98 34/45/130 33/54/125 25/55/93
f 37/37/133 45/36/165 52/45/193 44/46/161
f 38/33/138 46/32/170 45/36/166 37/37/134
f 39/31/142 47/30/174 46/32/169 38/33/137
f 40/29/146 48/28/178 47/30/173 39/31/141
f 41/60/150 49/59/182 48/61/177 40/62/145
f 42/58/154 50/57/186 49/59/181 41/60/149
f 43/55/158 51/54/190 50/57/185 42/58/153
f 44/46/162 52/45/194 51/54/189 43/55/157
s 3
f 2/14/10 17/27/62 15/25/54 4/10/17
f 8/66/32 15/25/56 17/27/64 6/65/25
f 10/68/36 13/23/46 14/22/50 9/63/34
f 14/22/52 13/23/48 12/13/44 11/12/41
