# Exported from Wings 3D 1.5.4
mtllib ./pivot.mtl
o 1
#51 vertices, 46 faces
v 5.0000000e-2 3.0970777e-17 0.0000000e+0
v 4.6193977e-2 -1.9134172e-2 0.0000000e+0
v 3.5355339e-2 -3.5355339e-2 0.0000000e+0
v 1.9134172e-2 -4.6193977e-2 0.0000000e+0
v -4.3082027e-17 -5.0000000e-2 0.0000000e+0
v -1.9134172e-2 -4.6193977e-2 0.0000000e+0
v -3.5355339e-2 -3.5355339e-2 0.0000000e+0
v -4.6193977e-2 -1.9134172e-2 0.0000000e+0
v -5.0000000e-2 2.4847543e-17 0.0000000e+0
v -4.6193977e-2 1.9134172e-2 0.0000000e+0
v -3.5355339e-2 3.5355339e-2 0.0000000e+0
v -1.9134172e-2 4.6193977e-2 0.0000000e+0
v -5.5328495e-17 5.0000000e-2 0.0000000e+0
v 1.9134172e-2 4.6193977e-2 0.0000000e+0
v 3.5355339e-2 3.5355339e-2 0.0000000e+0
v 4.6193977e-2 1.9134172e-2 0.0000000e+0
v 5.0000000e-2 2.4847543e-17 -1.2500000e-2
v 4.6193977e-2 -1.9134172e-2 -1.2500000e-2
v 3.5355339e-2 -3.5355339e-2 -1.2500000e-2
v 1.9134172e-2 -4.6193977e-2 -1.2500000e-2
v -4.3082027e-17 -5.0000000e-2 -1.2500000e-2
v -1.9134172e-2 -4.6193977e-2 -1.2500000e-2
v -3.5355339e-2 -3.5355339e-2 -1.2500000e-2
v -4.6193977e-2 -1.9134172e-2 -1.2500000e-2
v -5.0000000e-2 1.8724309e-17 -1.2500000e-2
v -4.6193977e-2 1.9134172e-2 -1.2500000e-2
v -3.5355339e-2 3.5355339e-2 -1.2500000e-2
v -1.9134172e-2 4.6193977e-2 -1.2500000e-2
v -5.5328495e-17 5.0000000e-2 -1.2500000e-2
v 1.9134172e-2 4.6193977e-2 -1.2500000e-2
v 3.5355339e-2 3.5355339e-2 -1.2500000e-2
v 4.6193977e-2 1.9134172e-2 -1.2500000e-2
v -5.0090140e-17 2.0383001e-17 -1.2500000e-2
v -0.75000000 -1.2500000e-2 -3.7500000e-2
v -0.75000000 -1.2500000e-2 -1.2500000e-2
v -0.75000000 1.2500000e-2 -3.7500000e-2
v -0.75000000 1.2500000e-2 -1.2500000e-2
v 0.75000000 -1.2500000e-2 -3.7500000e-2
v 0.75000000 -1.2500000e-2 -1.2500000e-2
v 0.75000000 1.2500000e-2 -3.7500000e-2
v 0.75000000 1.2500000e-2 -1.2500000e-2
v 0.0000000e+0 1.2500000e-2 -1.2500000e-2
v 0.0000000e+0 1.2500000e-2 -3.7500000e-2
v 0.0000000e+0 -1.2500000e-2 -1.2500000e-2
v 0.0000000e+0 -1.2500000e-2 -3.7500000e-2
v 4.7513595e-2 1.2500000e-2 -1.2500000e-2
v 5.0000000e-2 2.4286129e-17 -1.2500000e-2
v 4.7513595e-2 -1.2500000e-2 -1.2500000e-2
v -4.7513595e-2 1.2500000e-2 -1.2500000e-2
v -5.0000000e-2 0.0000000e+0 -1.2500000e-2
v -4.7513595e-2 -1.2500000e-2 -1.2500000e-2
vt 0.17318568 0.11972068
vt 0.17318568 0.12739017
vt 0.17333770 0.26621334
vt 0.17333770 0.27590518
vt 0.17378754 0.22733299
vt 0.17378754 0.23702484
vt 0.17475146 0.23217891
vt 0.18074882 0.11972068
vt 0.18074882 0.12739017
vt 0.18354487 0.25652150
vt 0.18354487 0.26621334
vt 0.18354487 0.27590518
vt 0.18354487 0.28559702
vt 0.18831196 0.11972068
vt 0.18831196 0.12739017
vt 0.19587510 0.11972068
vt 0.19587510 0.12739017
vt 0.20343823 0.11972068
vt 0.20343823 0.12739017
vt 0.21100137 0.11972068
vt 0.21100137 0.12739017
vt 0.21508245 0.16795833
vt 0.21649892 0.16083723
vt 0.21649892 0.17507943
vt 0.21856451 0.11972068
vt 0.21856451 0.12739017
vt 0.22053270 0.15480025
vt 0.22053270 0.18111641
vt 0.22612765 0.11972068
vt 0.22612765 0.12739017
vt 0.22656968 0.15076647
vt 0.22656968 0.18515019
vt 0.23369079 0.11972068
vt 0.23369079 0.12739017
vt 0.23369079 0.14934999
vt 0.23369079 0.16795833
vt 0.23369079 0.18656666
vt 0.24081189 0.15076647
vt 0.24081189 0.18515019
vt 0.24125392 0.11972068
vt 0.24125392 0.12739017
vt 0.24684887 0.15480025
vt 0.24684887 0.18111641
vt 0.24881706 0.11972068
vt 0.24881706 0.12739017
vt 0.25088265 0.16083723
vt 0.25088265 0.17507943
vt 0.25229912 0.16795833
vt 0.25638020 0.11972068
vt 0.25638020 0.12739017
vt 0.26394333 0.11972068
vt 0.26394333 0.12739017
vt 0.27150647 0.11972068
vt 0.27150647 0.12739017
vt 0.27906961 0.11972068
vt 0.27906961 0.12739017
vt 0.28663275 0.11972068
vt 0.28663275 0.12739017
vt 0.29419589 0.11972068
vt 0.29419589 0.12739017
vt 0.30074540 0.22733299
vt 0.30074540 0.23702484
vt 0.30998740 0.25652150
vt 0.30998740 0.28559702
vt 0.32840717 0.25652150
vt 0.32840717 0.26621334
vt 0.32840717 0.27590518
vt 0.32840717 0.28559702
vt 0.34682694 0.25652150
vt 0.34682694 0.28559702
vt 0.47475653 0.25652150
vt 0.47475653 0.26621334
vt 0.47475653 0.27590518
vt 0.47475653 0.28559702
vt 0.48444837 0.26621334
vt 0.48444837 0.27590518
vn 1.00000000 2.6884372e-16 -7.5404588e-32
vn 0.92387953 -0.38268344 2.8331568e-17
vn 0.70710678 -0.70710678 0.0000000e+0
vn 0.38268344 -0.92387953 0.0000000e+0
vn -4.2449009e-16 -1.00000000 0.0000000e+0
vn -0.38268344 -0.92387953 0.0000000e+0
vn -0.70710678 -0.70710678 0.0000000e+0
vn -0.92387953 -0.38268344 2.8331568e-17
vn -1.00000000 2.2639471e-16 -6.2837156e-32
vn -0.92387953 0.38268344 -2.8331568e-17
vn -0.70710678 0.70710678 0.0000000e+0
vn -0.38268344 0.92387953 0.0000000e+0
vn -5.6598679e-16 1.00000000 0.0000000e+0
vn 0.38268344 0.92387953 0.0000000e+0
vn 0.70710678 0.70710678 0.0000000e+0
vn 0.92387953 0.38268344 -2.8331568e-17
vn 3.0044507e-32 0.0000000e+0 -1.00000000
vn 0.0000000e+0 1.00000000 0.0000000e+0
vn 0.0000000e+0 -1.00000000 0.0000000e+0
vn 0.0000000e+0 0.0000000e+0 1.00000000
vn 0.0000000e+0 0.0000000e+0 1.00000000
vn -6.7792734e-32 0.0000000e+0 -1.00000000
vn -6.7792734e-32 0.0000000e+0 -1.00000000
vn 1.00000000 2.6884372e-16 -7.5404588e-32
vn 1.00000000 2.6884372e-16 -7.5404588e-32
vn -6.2043730e-25 0.0000000e+0 -1.00000000
vn -6.2043730e-25 0.0000000e+0 -1.00000000
vn 0.92387953 -0.38268344 2.8331568e-17
vn 0.92387953 -0.38268344 2.8331568e-17
vn 2.8331568e-17 0.0000000e+0 -1.00000000
vn 2.8331568e-17 0.0000000e+0 -1.00000000
vn 0.70710678 -0.70710678 0.0000000e+0
vn 0.70710678 -0.70710678 0.0000000e+0
vn 2.8331569e-17 0.0000000e+0 -1.00000000
vn 2.8331569e-17 0.0000000e+0 -1.00000000
vn 0.38268344 -0.92387953 0.0000000e+0
vn 0.38268344 -0.92387953 0.0000000e+0
vn 1.2325952e-31 0.0000000e+0 -1.00000000
vn 1.2325952e-31 0.0000000e+0 -1.00000000
vn -4.2449009e-16 -1.00000000 0.0000000e+0
vn -4.2449009e-16 -1.00000000 0.0000000e+0
vn -2.8331569e-17 0.0000000e+0 -1.00000000
vn -2.8331569e-17 0.0000000e+0 -1.00000000
vn -0.38268344 -0.92387953 0.0000000e+0
vn -0.38268344 -0.92387953 0.0000000e+0
vn -2.8331568e-17 0.0000000e+0 -1.00000000
vn -2.8331568e-17 0.0000000e+0 -1.00000000
vn -0.70710678 -0.70710678 0.0000000e+0
vn -0.70710678 -0.70710678 0.0000000e+0
vn 6.2043728e-25 0.0000000e+0 -1.00000000
vn 6.2043728e-25 0.0000000e+0 -1.00000000
vn -0.92387953 -0.38268344 2.8331568e-17
vn -0.92387953 -0.38268344 2.8331568e-17
vn 5.5466782e-32 0.0000000e+0 -1.00000000
vn 5.5466782e-32 0.0000000e+0 -1.00000000
vn -1.00000000 2.2639471e-16 -6.2837156e-32
vn -1.00000000 2.2639471e-16 -6.2837156e-32
vn -6.2043723e-25 0.0000000e+0 -1.00000000
vn -6.2043723e-25 0.0000000e+0 -1.00000000
vn -0.92387953 0.38268344 -2.8331568e-17
vn -0.92387953 0.38268344 -2.8331568e-17
vn -2.8331568e-17 0.0000000e+0 -1.00000000
vn -2.8331568e-17 0.0000000e+0 -1.00000000
vn -0.70710678 0.70710678 0.0000000e+0
vn -0.70710678 0.70710678 0.0000000e+0
vn 2.8331568e-17 0.0000000e+0 -1.00000000
vn 2.8331568e-17 0.0000000e+0 -1.00000000
vn -0.38268344 0.92387953 0.0000000e+0
vn -0.38268344 0.92387953 0.0000000e+0
vn 1.7256332e-31 0.0000000e+0 -1.00000000
vn 1.7256332e-31 0.0000000e+0 -1.00000000
vn -5.6598679e-16 1.00000000 0.0000000e+0
vn -5.6598679e-16 1.00000000 0.0000000e+0
vn -2.8331568e-17 0.0000000e+0 -1.00000000
vn -2.8331568e-17 0.0000000e+0 -1.00000000
vn 0.38268344 0.92387953 0.0000000e+0
vn 0.38268344 0.92387953 0.0000000e+0
vn 2.8331568e-17 0.0000000e+0 -1.00000000
vn 2.8331568e-17 0.0000000e+0 -1.00000000
vn 0.70710678 0.70710678 0.0000000e+0
vn 0.70710678 0.70710678 0.0000000e+0
vn 6.2043724e-25 0.0000000e+0 -1.00000000
vn 6.2043724e-25 0.0000000e+0 -1.00000000
vn 0.92387953 0.38268344 -2.8331568e-17
vn 0.92387953 0.38268344 -2.8331568e-17
vn -1.00000000 0.0000000e+0 0.0000000e+0
vn 0.0000000e+0 -1.00000000 0.0000000e+0
vn 0.0000000e+0 0.0000000e+0 -1.00000000
vn -1.00000000 0.0000000e+0 0.0000000e+0
vn 0.0000000e+0 -1.00000000 0.0000000e+0
vn 0.0000000e+0 0.0000000e+0 1.00000000
vn 0.0000000e+0 0.0000000e+0 1.00000000
vn -1.00000000 0.0000000e+0 0.0000000e+0
vn 0.0000000e+0 1.00000000 0.0000000e+0
vn 0.0000000e+0 0.0000000e+0 -1.00000000
vn -1.00000000 0.0000000e+0 0.0000000e+0
vn 0.0000000e+0 1.00000000 0.0000000e+0
vn 0.0000000e+0 0.0000000e+0 1.00000000
vn 0.0000000e+0 0.0000000e+0 1.00000000
vn 1.00000000 0.0000000e+0 0.0000000e+0
vn 0.0000000e+0 -1.00000000 0.0000000e+0
vn 0.0000000e+0 0.0000000e+0 -1.00000000
vn 1.00000000 0.0000000e+0 0.0000000e+0
vn 0.0000000e+0 -1.00000000 0.0000000e+0
vn 0.0000000e+0 0.0000000e+0 1.00000000
vn 0.0000000e+0 0.0000000e+0 1.00000000
vn 1.00000000 0.0000000e+0 0.0000000e+0
vn 0.0000000e+0 1.00000000 0.0000000e+0
vn 0.0000000e+0 0.0000000e+0 -1.00000000
vn 1.00000000 0.0000000e+0 0.0000000e+0
vn 0.0000000e+0 1.00000000 0.0000000e+0
vn 0.0000000e+0 0.0000000e+0 1.00000000
vn 0.0000000e+0 0.0000000e+0 1.00000000
vn 0.0000000e+0 1.00000000 0.0000000e+0
vn 0.0000000e+0 1.00000000 0.0000000e+0
vn 0.0000000e+0 0.0000000e+0 -1.00000000
vn 0.0000000e+0 0.0000000e+0 -1.00000000
vn 0.0000000e+0 -1.00000000 0.0000000e+0
vn 0.0000000e+0 -1.00000000 0.0000000e+0
vn 0.0000000e+0 0.0000000e+0 -1.00000000
vn 0.0000000e+0 0.0000000e+0 -1.00000000
vn 0.0000000e+0 1.00000000 0.0000000e+0
vn 0.0000000e+0 0.0000000e+0 1.00000000
vn 0.0000000e+0 -1.00000000 0.0000000e+0
vn 0.0000000e+0 0.0000000e+0 1.00000000
vn 0.0000000e+0 1.00000000 0.0000000e+0
vn 0.0000000e+0 0.0000000e+0 1.00000000
vn 0.0000000e+0 -1.00000000 0.0000000e+0
vn 0.0000000e+0 0.0000000e+0 1.00000000
g 1_1_auv
usemtl 1_auv
s 1
f 1/51/1 17/52/24 32/50/84 16/49/16
f 2/53/2 18/54/28 17/52/25 1/51/1
f 3/55/3 19/56/32 18/54/29 2/53/2
f 4/57/4 20/58/36 19/56/33 3/55/3
f 5/59/5 21/60/40 20/58/37 4/57/4
f 6/8/6 22/9/44 21/2/41 5/1/5
f 7/14/7 23/15/48 22/9/45 6/8/6
f 8/16/8 24/17/52 23/15/49 7/14/7
f 9/18/9 25/19/56 24/17/53 8/16/8
f 10/20/10 26/21/60 25/19/57 9/18/9
f 11/25/11 27/26/64 26/21/61 10/20/10
f 12/29/12 28/30/68 27/26/65 11/25/11
f 13/33/13 29/34/72 28/30/69 12/29/12
f 14/40/14 30/41/76 29/34/73 13/33/13
f 15/44/15 31/45/80 30/41/77 14/40/14
f 16/49/16 32/50/85 31/45/81 15/44/15
f 35/4/89 37/3/96 36/11/93 34/12/86
f 38/73/100 40/72/107 41/75/110 39/76/103
s 2
f 17/22/22 33/36/17 32/24/82
f 18/23/26 33/36/17 17/22/23
f 19/27/30 33/36/17 18/23/27
f 20/31/34 33/36/17 19/27/31
f 21/35/38 33/36/17 20/31/35
f 22/38/42 33/36/17 21/35/39
f 23/42/46 33/36/17 22/38/43
f 24/46/50 33/36/17 23/42/47
f 25/48/54 33/36/17 24/46/51
f 26/47/58 33/36/17 25/48/55
f 27/43/62 33/36/17 26/47/59
f 28/39/66 33/36/17 27/43/63
f 29/37/70 33/36/17 28/39/67
f 30/32/74 33/36/17 29/37/71
f 31/28/78 33/36/17 30/32/75
f 32/24/83 33/36/17 31/28/79
f 36/11/95 43/66/116 45/67/120 34/12/88
f 38/73/102 45/67/121 43/66/117 40/72/109
s 3
f 34/12/87 45/67/118 44/68/19 51/64/128 35/13/90
f 35/61/91 50/7/21 37/62/98
f 35/61/92 51/5/129 50/7/21
f 37/10/97 49/63/126 42/65/18 43/66/114 36/11/94
f 37/62/99 50/7/21 49/6/127
f 39/74/104 48/70/124 44/68/19 45/67/119 38/73/101
f 40/72/108 43/66/115 42/65/18 46/69/122 41/71/111
f 41/62/112 47/7/20 39/61/106
f 46/6/123 47/7/20 41/62/113
f 47/7/20 48/5/125 39/61/105
