# Exported from Wings 3D 1.5.4
mtllib ./root bracket.mtl
o bracket
#24 vertices, 24 faces
v 0.75000000 0.0000000e+0 -0.50000000
v 0.75000000 0.0000000e+0 0.0000000e+0
v 0.75000000 2.5000000e-2 -0.50000000
v 0.75000000 2.5000000e-2 0.0000000e+0
v 1.25000000 0.0000000e+0 -0.50000000
v 1.25000000 2.5000000e-2 -0.50000000
v 0.77500000 0.0000000e+0 -6.0355339e-2
v 0.77500000 0.0000000e+0 -0.47500000
v 1.18964466 0.0000000e+0 -0.47500000
v 0.77500000 2.5000000e-2 -0.47500000
v 0.77500000 2.5000000e-2 -6.0355339e-2
v 1.18964466 2.5000000e-2 -0.47500000
v -0.75000000 0.0000000e+0 -0.50000000
v -0.75000000 0.0000000e+0 0.0000000e+0
v -0.75000000 2.5000000e-2 -0.50000000
v -0.75000000 2.5000000e-2 0.0000000e+0
v -1.25000000 0.0000000e+0 -0.50000000
v -1.25000000 2.5000000e-2 -0.50000000
v -0.77500000 0.0000000e+0 -6.0355339e-2
v -0.77500000 0.0000000e+0 -0.47500000
v -1.18964466 0.0000000e+0 -0.47500000
v -0.77500000 2.5000000e-2 -0.47500000
v -0.77500000 2.5000000e-2 -6.0355339e-2
v -1.18964466 2.5000000e-2 -0.47500000
vt 2.0669039e-2 2.2125494e-2
vt 2.0669039e-2 0.29753446
vt 3.0406217e-2 2.2125494e-2
vt 3.0406217e-2 0.29753446
vt 4.1991770e-2 0.27402683
vt 4.1991770e-2 4.5633120e-2
vt 5.1728947e-2 0.27402683
vt 5.1728947e-2 4.5633120e-2
vt 6.1464181e-2 0.25720175
vt 6.1464181e-2 6.2458203e-2
vt 6.1464181e-2 6.2458203e-2
vt 6.1464181e-2 0.25720175
vt 7.1201358e-2 0.25720175
vt 7.1201358e-2 6.2458203e-2
vt 7.1201358e-2 6.2458203e-2
vt 7.1201358e-2 0.25720175
vt 8.1114605e-2 7.9080605e-2
vt 8.1114605e-2 0.24057935
vt 8.1114605e-2 7.9080605e-2
vt 8.1114605e-2 0.24057935
vt 9.0851783e-2 7.9080605e-2
vt 9.0851783e-2 0.24057935
vt 9.0851783e-2 7.9080605e-2
vt 9.0851783e-2 0.24057935
vt 0.10267808 0.25104508
vt 0.10267808 5.6301535e-2
vt 0.10267808 5.6301535e-2
vt 0.10267808 0.25104508
vt 0.10267808 0.25104508
vt 0.10267808 5.6301535e-2
vt 0.10267808 5.6301535e-2
vt 0.10267808 0.25104508
vt 0.11241526 7.9809160e-2
vt 0.11241526 7.9809160e-2
vt 0.11241526 0.24130790
vt 0.11241526 0.24130790
vt 0.11241526 0.24130790
vt 0.11241526 7.9809160e-2
vt 0.11241526 7.9809160e-2
vt 0.11241526 0.24130790
vt 0.12211227 4.5633120e-2
vt 0.12211227 0.27402683
vt 0.12211227 4.5633120e-2
vt 0.12211227 0.27402683
vt 0.13184945 0.29753446
vt 0.13184945 2.2125494e-2
vt 0.13184945 2.2125494e-2
vt 0.13184945 0.29753446
vn 0.0000000e+0 0.0000000e+0 -1.00000000
vn -1.00000000 0.0000000e+0 0.0000000e+0
vn 0.0000000e+0 -1.00000000 0.0000000e+0
vn 0.0000000e+0 -1.00000000 0.0000000e+0
vn 0.70710678 0.0000000e+0 0.70710678
vn -1.00000000 0.0000000e+0 0.0000000e+0
vn 0.0000000e+0 -1.00000000 0.0000000e+0
vn 0.0000000e+0 -1.00000000 0.0000000e+0
vn 0.0000000e+0 0.0000000e+0 -1.00000000
vn -1.00000000 0.0000000e+0 0.0000000e+0
vn 0.0000000e+0 1.00000000 0.0000000e+0
vn 0.0000000e+0 1.00000000 0.0000000e+0
vn 0.70710678 0.0000000e+0 0.70710678
vn -1.00000000 0.0000000e+0 0.0000000e+0
vn 0.0000000e+0 1.00000000 0.0000000e+0
vn 0.0000000e+0 1.00000000 0.0000000e+0
vn 0.70710678 0.0000000e+0 0.70710678
vn 0.0000000e+0 0.0000000e+0 -1.00000000
vn 0.0000000e+0 -1.00000000 0.0000000e+0
vn 0.0000000e+0 -1.00000000 0.0000000e+0
vn 0.70710678 0.0000000e+0 0.70710678
vn 0.0000000e+0 0.0000000e+0 -1.00000000
vn 0.0000000e+0 1.00000000 0.0000000e+0
vn 0.0000000e+0 1.00000000 0.0000000e+0
vn 0.0000000e+0 -1.00000000 0.0000000e+0
vn 0.0000000e+0 -1.00000000 0.0000000e+0
vn 1.00000000 0.0000000e+0 0.0000000e+0
vn -0.70710678 0.0000000e+0 -0.70710678
vn 0.0000000e+0 -1.00000000 0.0000000e+0
vn 0.0000000e+0 -1.00000000 0.0000000e+0
vn 1.00000000 0.0000000e+0 0.0000000e+0
vn 0.0000000e+0 0.0000000e+0 1.00000000
vn 0.0000000e+0 -1.00000000 0.0000000e+0
vn 0.0000000e+0 -1.00000000 0.0000000e+0
vn 0.0000000e+0 0.0000000e+0 1.00000000
vn -0.70710678 0.0000000e+0 -0.70710678
vn 0.0000000e+0 1.00000000 0.0000000e+0
vn 0.0000000e+0 1.00000000 0.0000000e+0
vn 1.00000000 0.0000000e+0 0.0000000e+0
vn 0.0000000e+0 0.0000000e+0 1.00000000
vn 0.0000000e+0 1.00000000 0.0000000e+0
vn 0.0000000e+0 1.00000000 0.0000000e+0
vn 1.00000000 0.0000000e+0 0.0000000e+0
vn -0.70710678 0.0000000e+0 -0.70710678
vn 0.0000000e+0 1.00000000 0.0000000e+0
vn 0.0000000e+0 1.00000000 0.0000000e+0
vn 0.0000000e+0 0.0000000e+0 1.00000000
vn -0.70710678 0.0000000e+0 -0.70710678
vn 0.0000000e+0 0.0000000e+0 -1.00000000
vn 1.00000000 0.0000000e+0 0.0000000e+0
vn 0.0000000e+0 -1.00000000 0.0000000e+0
vn 0.0000000e+0 -1.00000000 0.0000000e+0
vn -0.70710678 0.0000000e+0 0.70710678
vn 1.00000000 0.0000000e+0 0.0000000e+0
vn 0.0000000e+0 -1.00000000 0.0000000e+0
vn 0.0000000e+0 -1.00000000 0.0000000e+0
vn 0.0000000e+0 0.0000000e+0 -1.00000000
vn 1.00000000 0.0000000e+0 0.0000000e+0
vn 0.0000000e+0 1.00000000 0.0000000e+0
vn 0.0000000e+0 1.00000000 0.0000000e+0
vn -0.70710678 0.0000000e+0 0.70710678
vn 1.00000000 0.0000000e+0 0.0000000e+0
vn 0.0000000e+0 1.00000000 0.0000000e+0
vn 0.0000000e+0 1.00000000 0.0000000e+0
vn -0.70710678 0.0000000e+0 0.70710678
vn 0.0000000e+0 0.0000000e+0 -1.00000000
vn 0.0000000e+0 -1.00000000 0.0000000e+0
vn 0.0000000e+0 -1.00000000 0.0000000e+0
vn -0.70710678 0.0000000e+0 0.70710678
vn 0.0000000e+0 0.0000000e+0 -1.00000000
vn 0.0000000e+0 1.00000000 0.0000000e+0
vn 0.0000000e+0 1.00000000 0.0000000e+0
vn 0.0000000e+0 -1.00000000 0.0000000e+0
vn 0.0000000e+0 -1.00000000 0.0000000e+0
vn -1.00000000 0.0000000e+0 0.0000000e+0
vn 0.70710678 0.0000000e+0 -0.70710678
vn 0.0000000e+0 -1.00000000 0.0000000e+0
vn 0.0000000e+0 -1.00000000 0.0000000e+0
vn -1.00000000 0.0000000e+0 0.0000000e+0
vn 0.0000000e+0 0.0000000e+0 1.00000000
vn 0.0000000e+0 -1.00000000 0.0000000e+0
vn 0.0000000e+0 -1.00000000 0.0000000e+0
vn 0.0000000e+0 0.0000000e+0 1.00000000
vn 0.70710678 0.0000000e+0 -0.70710678
vn 0.0000000e+0 1.00000000 0.0000000e+0
vn 0.0000000e+0 1.00000000 0.0000000e+0
vn -1.00000000 0.0000000e+0 0.0000000e+0
vn 0.0000000e+0 0.0000000e+0 1.00000000
vn 0.0000000e+0 1.00000000 0.0000000e+0
vn 0.0000000e+0 1.00000000 0.0000000e+0
vn -1.00000000 0.0000000e+0 0.0000000e+0
vn 0.70710678 0.0000000e+0 -0.70710678
vn 0.0000000e+0 1.00000000 0.0000000e+0
vn 0.0000000e+0 1.00000000 0.0000000e+0
vn 0.0000000e+0 0.0000000e+0 1.00000000
vn 0.70710678 0.0000000e+0 -0.70710678
g bracket_1_auv
usemtl 1_auv
s 1
f 2/16/6 4/12/14 3/11/10 1/15/2
f 8/22/31 10/18/39 11/17/43 7/21/27
f 16/1/61 18/2/69 17/4/65 14/3/53
f 20/23/80 22/19/88 24/20/95 21/24/83
s 2
f 2/3/5 5/4/17 6/2/21 4/1/13
f 9/24/35 12/20/47 10/19/40 8/23/32
f 13/15/50 15/11/58 16/12/62 14/16/54
f 21/8/84 24/6/96 23/5/92 19/7/76
s 3
f 1/29/3 8/37/29 7/38/25 2/30/7
f 2/47/8 7/43/26 9/44/34 5/48/20
f 3/28/12 10/35/38 12/33/46 6/26/24
f 4/31/15 11/39/41 10/40/37 3/32/11
f 5/27/19 9/34/33 8/36/30 1/25/4
f 6/45/23 12/42/45 11/41/42 4/46/16
f 13/25/52 20/36/78 21/34/81 17/27/67
f 14/30/55 19/38/73 20/37/77 13/29/51
f 15/32/59 22/40/85 23/39/89 16/31/63
f 16/46/64 23/41/90 24/42/93 18/45/71
f 17/48/68 21/44/82 19/43/74 14/47/56
f 18/26/72 24/33/94 22/35/86 15/28/60
s 4
f 3/9/9 6/10/22 5/14/18 1/13/1
f 7/7/28 11/5/44 12/6/48 9/8/36
f 13/13/49 17/14/66 18/10/70 15/9/57
f 19/21/75 23/17/91 22/18/87 20/22/79
