# Exported from Wings 3D 1.5.4
mtllib ./small down.mtl
o up_copy7
#72 vertices, 80 faces
v 0.75000000 -0.11100000 -0.50000000
v 0.75000000 -2.5000000e-2 1.1102230e-16
v 0.75000000 -8.6000000e-2 -0.50000000
v 0.75000000 0.0000000e+0 1.1102230e-16
v 1.25000000 -0.11100000 -0.50000000
v 1.25000000 -2.5000000e-2 1.1102230e-16
v 1.25000000 -8.6000000e-2 -0.50000000
v 1.25000000 0.0000000e+0 1.1102230e-16
v 0.75000000 -2.5000000e-2 -1.00000000
v 0.75000000 0.0000000e+0 -1.00000000
v 1.25000000 -2.5000000e-2 -1.00000000
v 1.25000000 0.0000000e+0 -1.00000000
v 1.00000000 0.0000000e+0 -1.00000000
v 1.00000000 -2.5000000e-2 -1.00000000
v 1.00000000 0.0000000e+0 1.1102230e-16
v 1.00000000 -8.6000000e-2 -0.50000000
v 1.00000000 -2.5000000e-2 1.1102230e-16
v 1.00000000 -0.11100000 -0.50000000
v 0.96250000 1.2500000e-2 0.0000000e+0
v 0.96250000 8.8388348e-3 8.8388348e-3
v 0.96250000 3.4694470e-17 1.2500000e-2
v 0.96250000 -8.8388348e-3 8.8388348e-3
v 0.96250000 -1.2500000e-2 0.0000000e+0
v 0.96250000 -8.8388348e-3 -8.8388348e-3
v 0.96250000 3.4694470e-17 -1.2500000e-2
v 0.96250000 8.8388348e-3 -8.8388348e-3
v 1.03750000 1.2500000e-2 0.0000000e+0
v 1.03750000 8.8388348e-3 8.8388348e-3
v 1.03750000 3.4694470e-17 1.2500000e-2
v 1.03750000 -8.8388348e-3 8.8388348e-3
v 1.03750000 -1.2500000e-2 0.0000000e+0
v 1.03750000 -8.8388348e-3 -8.8388348e-3
v 1.03750000 3.4694470e-17 -1.2500000e-2
v 1.03750000 8.8388348e-3 -8.8388348e-3
v 0.96250000 3.4694470e-17 0.0000000e+0
v 1.03750000 3.4694470e-17 0.0000000e+0
v -0.75000000 -0.11100000 -0.50000000
v -0.75000000 -2.5000000e-2 1.1102230e-16
v -0.75000000 -8.6000000e-2 -0.50000000
v -0.75000000 0.0000000e+0 1.1102230e-16
v -1.25000000 -0.11100000 -0.50000000
v -1.25000000 -2.5000000e-2 1.1102230e-16
v -1.25000000 -8.6000000e-2 -0.50000000
v -1.25000000 0.0000000e+0 1.1102230e-16
v -0.75000000 -2.5000000e-2 -1.00000000
v -0.75000000 0.0000000e+0 -1.00000000
v -1.25000000 -2.5000000e-2 -1.00000000
v -1.25000000 0.0000000e+0 -1.00000000
v -1.00000000 0.0000000e+0 -1.00000000
v -1.00000000 -2.5000000e-2 -1.00000000
v -1.00000000 0.0000000e+0 1.1102230e-16
v -1.00000000 -8.6000000e-2 -0.50000000
v -1.00000000 -2.5000000e-2 1.1102230e-16
v -1.00000000 -0.11100000 -0.50000000
v -0.96250000 1.2500000e-2 0.0000000e+0
v -0.96250000 8.8388348e-3 8.8388348e-3
v -0.96250000 3.4694470e-17 1.2500000e-2
v -0.96250000 -8.8388348e-3 8.8388348e-3
v -0.96250000 -1.2500000e-2 0.0000000e+0
v -0.96250000 -8.8388348e-3 -8.8388348e-3
v -0.96250000 3.4694470e-17 -1.2500000e-2
v -0.96250000 8.8388348e-3 -8.8388348e-3
v -1.03750000 1.2500000e-2 0.0000000e+0
v -1.03750000 8.8388348e-3 8.8388348e-3
v -1.03750000 3.4694470e-17 1.2500000e-2
v -1.03750000 -8.8388348e-3 8.8388348e-3
v -1.03750000 -1.2500000e-2 0.0000000e+0
v -1.03750000 -8.8388348e-3 -8.8388348e-3
v -1.03750000 3.4694470e-17 -1.2500000e-2
v -1.03750000 8.8388348e-3 -8.8388348e-3
v -0.96250000 3.4694470e-17 0.0000000e+0
v -1.03750000 3.4694470e-17 0.0000000e+0
vt 0.35308490 0.55563034
vt 0.35308490 0.75068204
vt 0.35326123 0.55563034
vt 0.35326123 0.55563034
vt 0.35326123 0.55563034
vt 0.35326123 0.75068204
vt 0.35326123 0.75068204
vt 0.45070526 0.55563034
vt 0.45070526 0.75068204
vt 0.45088160 0.55563034
vt 0.45088160 0.75068204
vt 0.45088160 0.55563034
vt 0.45088160 0.55563034
vt 0.45088160 0.75068204
vt 0.45088160 0.75068204
vt 0.48979793 0.68073698
vt 0.48979793 0.71016754
vt 0.49355212 0.68073698
vt 0.49355212 0.71016754
vt 0.49730632 0.68073698
vt 0.49730632 0.71016754
vt 0.49990962 0.67558678
vt 0.49990962 0.67558678
vt 0.50106052 0.68073698
vt 0.50106052 0.71016754
vt 0.50134629 0.67211835
vt 0.50134629 0.67905520
vt 0.50134629 0.67211835
vt 0.50134629 0.67905520
vt 0.50481471 0.67068169
vt 0.50481471 0.67558678
vt 0.50481471 0.68049187
vt 0.50481471 0.68073698
vt 0.50481471 0.71016754
vt 0.50481471 0.67068169
vt 0.50481471 0.67558678
vt 0.50481471 0.68049187
vt 0.50828314 0.67211835
vt 0.50828314 0.67905520
vt 0.50828314 0.67211835
vt 0.50828314 0.67905520
vt 0.50856891 0.68073698
vt 0.50856891 0.71016754
vt 0.50971980 0.67558678
vt 0.51232310 0.68073698
vt 0.51232310 0.71016754
vt 0.51607730 0.68073698
vt 0.51607730 0.71016754
vt 0.51983149 0.68073698
vt 0.51983149 0.71016754
vt 0.65897745 0.78234359
vt 0.65897745 0.97918866
vt 0.65897745 0.78234359
vt 0.65897745 0.97918866
vt 0.66871162 0.78234359
vt 0.66871162 0.97918866
vt 0.66871162 0.97918866
vt 0.66871162 0.78234359
vt 0.66910187 0.77250320
vt 0.66910187 0.77250320
vt 0.76620979 0.78234359
vt 0.76620979 0.97918866
vt 0.76620979 0.78234359
vt 0.76620979 0.97918866
vt 0.76621004 0.77250320
vt 0.76621004 0.77250320
vt 0.86350901 0.77250320
vt 0.86350901 0.77250320
vt 0.86389952 0.78234359
vt 0.86389952 0.97918866
vt 0.86389952 0.97918866
vt 0.86389952 0.78234359
vt 0.87456032 0.97918866
vt 0.87456032 0.78234359
vt 0.87456032 0.97918866
vt 0.87456032 0.78234359
vn -1.00000000 -2.3665827e-30 0.0000000e+0
vn 1.00000000 1.9721523e-31 0.0000000e+0
vn 1.00000000 -2.3665827e-30 0.0000000e+0
vn -1.00000000 1.9721523e-31 0.0000000e+0
vn 0.0000000e+0 -0.98552832 0.16951087
vn -1.00000000 0.0000000e+0 0.0000000e+0
vn 0.0000000e+0 -0.98552832 -0.16951087
vn -1.00000000 0.0000000e+0 0.0000000e+0
vn 0.0000000e+0 -0.98552832 0.16951087
vn 0.0000000e+0 0.0000000e+0 1.00000000
vn -1.00000000 0.0000000e+0 0.0000000e+0
vn 0.0000000e+0 0.98552832 -0.16951087
vn -1.00000000 0.0000000e+0 0.0000000e+0
vn -1.00000000 0.0000000e+0 0.0000000e+0
vn 0.0000000e+0 0.98552832 0.16951087
vn 0.0000000e+0 0.98552832 -0.16951087
vn 0.0000000e+0 0.0000000e+0 1.00000000
vn -1.00000000 0.0000000e+0 0.0000000e+0
vn 1.00000000 0.0000000e+0 0.0000000e+0
vn 1.00000000 0.0000000e+0 0.0000000e+0
vn 0.0000000e+0 -0.98552832 0.16951087
vn 0.0000000e+0 -0.98552832 -0.16951087
vn 1.00000000 0.0000000e+0 0.0000000e+0
vn 0.0000000e+0 -0.98552832 0.16951087
vn 0.0000000e+0 0.0000000e+0 1.00000000
vn 1.00000000 0.0000000e+0 0.0000000e+0
vn 0.0000000e+0 0.98552832 0.16951087
vn 1.00000000 0.0000000e+0 0.0000000e+0
vn 0.0000000e+0 0.98552832 -0.16951087
vn 1.00000000 0.0000000e+0 0.0000000e+0
vn 0.0000000e+0 0.98552832 -0.16951087
vn 0.0000000e+0 0.0000000e+0 1.00000000
vn 0.0000000e+0 -0.98552832 -0.16951087
vn 0.0000000e+0 0.0000000e+0 -1.00000000
vn -1.00000000 0.0000000e+0 0.0000000e+0
vn 0.0000000e+0 0.0000000e+0 -1.00000000
vn -1.00000000 0.0000000e+0 0.0000000e+0
vn 0.0000000e+0 0.98552832 0.16951087
vn 1.00000000 0.0000000e+0 0.0000000e+0
vn 0.0000000e+0 -0.98552832 -0.16951087
vn 0.0000000e+0 0.0000000e+0 -1.00000000
vn 0.0000000e+0 0.98552832 0.16951087
vn 1.00000000 0.0000000e+0 0.0000000e+0
vn 0.0000000e+0 0.0000000e+0 -1.00000000
vn 0.0000000e+0 0.98552832 0.16951087
vn 0.0000000e+0 0.0000000e+0 -1.00000000
vn 0.0000000e+0 0.98552832 0.16951087
vn 0.0000000e+0 0.0000000e+0 -1.00000000
vn 0.0000000e+0 -0.98552832 -0.16951087
vn 0.0000000e+0 0.0000000e+0 -1.00000000
vn 0.0000000e+0 -0.98552832 -0.16951087
vn 0.0000000e+0 0.0000000e+0 -1.00000000
vn 0.0000000e+0 0.98552832 -0.16951087
vn 0.0000000e+0 0.0000000e+0 1.00000000
vn 0.0000000e+0 0.98552832 -0.16951087
vn 0.0000000e+0 0.0000000e+0 1.00000000
vn 0.0000000e+0 0.98552832 -0.16951087
vn 0.0000000e+0 0.98552832 0.16951087
vn 0.0000000e+0 0.98552832 -0.16951087
vn 0.0000000e+0 0.98552832 0.16951087
vn 0.0000000e+0 -0.98552832 0.16951087
vn 0.0000000e+0 0.0000000e+0 1.00000000
vn 0.0000000e+0 -0.98552832 0.16951087
vn 0.0000000e+0 0.0000000e+0 1.00000000
vn 0.0000000e+0 -0.98552832 0.16951087
vn 0.0000000e+0 -0.98552832 -0.16951087
vn 0.0000000e+0 -0.98552832 0.16951087
vn 0.0000000e+0 -0.98552832 -0.16951087
vn 2.2999401e-17 1.00000000 -1.5021209e-16
vn 2.2999401e-17 1.00000000 -1.5021209e-16
vn -1.00000000 0.0000000e+0 0.0000000e+0
vn -1.00000000 0.0000000e+0 0.0000000e+0
vn 3.3221357e-17 0.70710678 0.70710678
vn 3.3221357e-17 0.70710678 0.70710678
vn -1.00000000 7.8504623e-15 0.0000000e+0
vn -1.00000000 7.8504623e-15 0.0000000e+0
vn -3.3353785e-33 -6.0084837e-17 1.00000000
vn -3.3353785e-33 -6.0084837e-17 1.00000000
vn -1.00000000 -7.8886091e-30 0.0000000e+0
vn -1.00000000 -7.8886091e-30 0.0000000e+0
vn -3.3221357e-17 -0.70710678 0.70710678
vn -3.3221357e-17 -0.70710678 0.70710678
vn -1.00000000 -7.8504623e-15 0.0000000e+0
vn -1.00000000 -7.8504623e-15 0.0000000e+0
vn -2.2999401e-17 -1.00000000 1.5021209e-16
vn -2.2999401e-17 -1.00000000 1.5021209e-16
vn -1.00000000 0.0000000e+0 0.0000000e+0
vn -1.00000000 0.0000000e+0 0.0000000e+0
vn 0.0000000e+0 -0.70710678 -0.70710678
vn 0.0000000e+0 -0.70710678 -0.70710678
vn -1.00000000 3.9252311e-15 0.0000000e+0
vn -1.00000000 3.9252311e-15 0.0000000e+0
vn 0.0000000e+0 6.0084837e-17 -1.00000000
vn 0.0000000e+0 6.0084837e-17 -1.00000000
vn -1.00000000 -7.8886091e-31 0.0000000e+0
vn -1.00000000 -7.8886091e-31 0.0000000e+0
vn 0.0000000e+0 0.70710678 -0.70710678
vn 0.0000000e+0 0.70710678 -0.70710678
vn -1.00000000 -3.9252311e-15 0.0000000e+0
vn -1.00000000 -3.9252311e-15 0.0000000e+0
vn 2.2999401e-17 1.00000000 -1.5021209e-16
vn 2.2999401e-17 1.00000000 -1.5021209e-16
vn 1.00000000 0.0000000e+0 0.0000000e+0
vn 1.00000000 0.0000000e+0 0.0000000e+0
vn 3.3221357e-17 0.70710678 0.70710678
vn 3.3221357e-17 0.70710678 0.70710678
vn 1.00000000 7.8504623e-15 0.0000000e+0
vn 1.00000000 7.8504623e-15 0.0000000e+0
vn -3.3353785e-33 -6.0084837e-17 1.00000000
vn -3.3353785e-33 -6.0084837e-17 1.00000000
vn 1.00000000 1.5777218e-30 0.0000000e+0
vn 1.00000000 1.5777218e-30 0.0000000e+0
vn -3.3221357e-17 -0.70710678 0.70710678
vn -3.3221357e-17 -0.70710678 0.70710678
vn 1.00000000 -7.8504623e-15 0.0000000e+0
vn 1.00000000 -7.8504623e-15 0.0000000e+0
vn -2.2999401e-17 -1.00000000 1.5021209e-16
vn -2.2999401e-17 -1.00000000 1.5021209e-16
vn 1.00000000 0.0000000e+0 0.0000000e+0
vn 1.00000000 0.0000000e+0 0.0000000e+0
vn 0.0000000e+0 -0.70710678 -0.70710678
vn 0.0000000e+0 -0.70710678 -0.70710678
vn 1.00000000 3.9252311e-15 0.0000000e+0
vn 1.00000000 3.9252311e-15 0.0000000e+0
vn 0.0000000e+0 6.0084837e-17 -1.00000000
vn 0.0000000e+0 6.0084837e-17 -1.00000000
vn 1.00000000 -7.8886091e-31 0.0000000e+0
vn 1.00000000 -7.8886091e-31 0.0000000e+0
vn 0.0000000e+0 0.70710678 -0.70710678
vn 0.0000000e+0 0.70710678 -0.70710678
vn 1.00000000 -3.9252311e-15 0.0000000e+0
vn 1.00000000 -3.9252311e-15 0.0000000e+0
vn 0.0000000e+0 -0.98552832 0.16951087
vn 1.00000000 0.0000000e+0 0.0000000e+0
vn 0.0000000e+0 -0.98552832 -0.16951087
vn 1.00000000 0.0000000e+0 0.0000000e+0
vn 0.0000000e+0 -0.98552832 0.16951087
vn 0.0000000e+0 0.0000000e+0 1.00000000
vn 1.00000000 0.0000000e+0 0.0000000e+0
vn 0.0000000e+0 0.98552832 -0.16951087
vn 1.00000000 0.0000000e+0 0.0000000e+0
vn 1.00000000 0.0000000e+0 0.0000000e+0
vn 0.0000000e+0 0.98552832 0.16951087
vn 0.0000000e+0 0.98552832 -0.16951087
vn 0.0000000e+0 0.0000000e+0 1.00000000
vn 1.00000000 0.0000000e+0 0.0000000e+0
vn -1.00000000 0.0000000e+0 0.0000000e+0
vn -1.00000000 0.0000000e+0 0.0000000e+0
vn 0.0000000e+0 -0.98552832 0.16951087
vn 0.0000000e+0 -0.98552832 -0.16951087
vn -1.00000000 0.0000000e+0 0.0000000e+0
vn 0.0000000e+0 -0.98552832 0.16951087
vn 0.0000000e+0 0.0000000e+0 1.00000000
vn -1.00000000 0.0000000e+0 0.0000000e+0
vn 0.0000000e+0 0.98552832 0.16951087
vn -1.00000000 0.0000000e+0 0.0000000e+0
vn 0.0000000e+0 0.98552832 -0.16951087
vn -1.00000000 0.0000000e+0 0.0000000e+0
vn 0.0000000e+0 0.98552832 -0.16951087
vn 0.0000000e+0 0.0000000e+0 1.00000000
vn 0.0000000e+0 -0.98552832 -0.16951087
vn 0.0000000e+0 0.0000000e+0 -1.00000000
vn 1.00000000 0.0000000e+0 0.0000000e+0
vn 0.0000000e+0 0.0000000e+0 -1.00000000
vn 1.00000000 0.0000000e+0 0.0000000e+0
vn 0.0000000e+0 0.98552832 0.16951087
vn -1.00000000 0.0000000e+0 0.0000000e+0
vn 0.0000000e+0 -0.98552832 -0.16951087
vn 0.0000000e+0 0.0000000e+0 -1.00000000
vn 0.0000000e+0 0.98552832 0.16951087
vn -1.00000000 0.0000000e+0 0.0000000e+0
vn 0.0000000e+0 0.0000000e+0 -1.00000000
vn 0.0000000e+0 0.98552832 0.16951087
vn 0.0000000e+0 0.0000000e+0 -1.00000000
vn 0.0000000e+0 0.98552832 0.16951087
vn 0.0000000e+0 0.0000000e+0 -1.00000000
vn 0.0000000e+0 -0.98552832 -0.16951087
vn 0.0000000e+0 0.0000000e+0 -1.00000000
vn 0.0000000e+0 -0.98552832 -0.16951087
vn 0.0000000e+0 0.0000000e+0 -1.00000000
vn 0.0000000e+0 0.98552832 -0.16951087
vn 0.0000000e+0 0.0000000e+0 1.00000000
vn 0.0000000e+0 0.98552832 -0.16951087
vn 0.0000000e+0 0.0000000e+0 1.00000000
vn 0.0000000e+0 0.98552832 -0.16951087
vn 0.0000000e+0 0.98552832 0.16951087
vn 0.0000000e+0 0.98552832 -0.16951087
vn 0.0000000e+0 0.98552832 0.16951087
vn 0.0000000e+0 -0.98552832 0.16951087
vn 0.0000000e+0 0.0000000e+0 1.00000000
vn 0.0000000e+0 -0.98552832 0.16951087
vn 0.0000000e+0 0.0000000e+0 1.00000000
vn 0.0000000e+0 -0.98552832 0.16951087
vn 0.0000000e+0 -0.98552832 -0.16951087
vn 0.0000000e+0 -0.98552832 0.16951087
vn 0.0000000e+0 -0.98552832 -0.16951087
vn -2.2999401e-17 1.00000000 -1.5021209e-16
vn -2.2999401e-17 1.00000000 -1.5021209e-16
vn 1.00000000 0.0000000e+0 0.0000000e+0
vn 1.00000000 0.0000000e+0 0.0000000e+0
vn -3.3221357e-17 0.70710678 0.70710678
vn -3.3221357e-17 0.70710678 0.70710678
vn 1.00000000 7.8504623e-15 0.0000000e+0
vn 1.00000000 7.8504623e-15 0.0000000e+0
vn 3.3353785e-33 -6.0084837e-17 1.00000000
vn 3.3353785e-33 -6.0084837e-17 1.00000000
vn 1.00000000 -7.8886091e-30 0.0000000e+0
vn 1.00000000 -7.8886091e-30 0.0000000e+0
vn 3.3221357e-17 -0.70710678 0.70710678
vn 3.3221357e-17 -0.70710678 0.70710678
vn 1.00000000 -7.8504623e-15 0.0000000e+0
vn 1.00000000 -7.8504623e-15 0.0000000e+0
vn 2.2999401e-17 -1.00000000 1.5021209e-16
vn 2.2999401e-17 -1.00000000 1.5021209e-16
vn 1.00000000 0.0000000e+0 0.0000000e+0
vn 1.00000000 0.0000000e+0 0.0000000e+0
vn 0.0000000e+0 -0.70710678 -0.70710678
vn 0.0000000e+0 -0.70710678 -0.70710678
vn 1.00000000 3.9252311e-15 0.0000000e+0
vn 1.00000000 3.9252311e-15 0.0000000e+0
vn 0.0000000e+0 6.0084837e-17 -1.00000000
vn 0.0000000e+0 6.0084837e-17 -1.00000000
vn 1.00000000 -7.8886091e-31 0.0000000e+0
vn 1.00000000 -7.8886091e-31 0.0000000e+0
vn 0.0000000e+0 0.70710678 -0.70710678
vn 0.0000000e+0 0.70710678 -0.70710678
vn 1.00000000 -3.9252311e-15 0.0000000e+0
vn 1.00000000 -3.9252311e-15 0.0000000e+0
vn -2.2999401e-17 1.00000000 -1.5021209e-16
vn -2.2999401e-17 1.00000000 -1.5021209e-16
vn -1.00000000 0.0000000e+0 0.0000000e+0
vn -1.00000000 0.0000000e+0 0.0000000e+0
vn -3.3221357e-17 0.70710678 0.70710678
vn -3.3221357e-17 0.70710678 0.70710678
vn -1.00000000 7.8504623e-15 0.0000000e+0
vn -1.00000000 7.8504623e-15 0.0000000e+0
vn 3.3353785e-33 -6.0084837e-17 1.00000000
vn 3.3353785e-33 -6.0084837e-17 1.00000000
vn -1.00000000 1.5777218e-30 0.0000000e+0
vn -1.00000000 1.5777218e-30 0.0000000e+0
vn 3.3221357e-17 -0.70710678 0.70710678
vn 3.3221357e-17 -0.70710678 0.70710678
vn -1.00000000 -7.8504623e-15 0.0000000e+0
vn -1.00000000 -7.8504623e-15 0.0000000e+0
vn 2.2999401e-17 -1.00000000 1.5021209e-16
vn 2.2999401e-17 -1.00000000 1.5021209e-16
vn -1.00000000 0.0000000e+0 0.0000000e+0
vn -1.00000000 0.0000000e+0 0.0000000e+0
vn 0.0000000e+0 -0.70710678 -0.70710678
vn 0.0000000e+0 -0.70710678 -0.70710678
vn -1.00000000 3.9252311e-15 0.0000000e+0
vn -1.00000000 3.9252311e-15 0.0000000e+0
vn 0.0000000e+0 6.0084837e-17 -1.00000000
vn 0.0000000e+0 6.0084837e-17 -1.00000000
vn -1.00000000 -7.8886091e-31 0.0000000e+0
vn -1.00000000 -7.8886091e-31 0.0000000e+0
vn 0.0000000e+0 0.70710678 -0.70710678
vn 0.0000000e+0 0.70710678 -0.70710678
vn -1.00000000 -3.9252311e-15 0.0000000e+0
vn -1.00000000 -3.9252311e-15 0.0000000e+0
g up_copy7_1_auv
usemtl 1_auv
s 1
f 1/5/7 9/7/33 14/15/49 18/13/66
f 2/51/11 4/55/18 3/56/13 1/54/6
f 5/75/19 7/70/26 8/69/30 6/74/23
f 11/2/40 5/1/22 18/8/68 14/9/51
f 13/63/45 16/64/58 7/57/27 12/58/42
f 16/64/60 13/63/47 10/72/38 3/71/15
f 19/37/71 35/36/1 20/41/75
f 20/41/76 35/36/1 21/44/80
f 21/44/79 35/36/1 22/40/84
f 22/40/83 35/36/1 23/35/88
f 23/35/87 35/36/1 24/28/92
f 24/28/91 35/36/1 25/23/96
f 25/23/95 35/36/1 26/29/100
f 26/29/99 35/36/1 19/37/72
f 27/32/104 36/31/2 34/39/132
f 28/27/107 36/31/2 27/32/103
f 29/22/111 36/31/2 28/27/108
f 30/26/115 36/31/2 29/22/112
f 31/30/119 36/31/2 30/26/116
f 32/38/123 36/31/2 31/30/120
f 33/44/127 36/31/2 32/38/124
f 34/39/131 36/31/2 33/44/128
f 37/73/136 45/76/163 46/72/165 39/71/142
f 40/55/145 51/61/182 53/66/190 38/60/138
f 42/68/153 53/66/192 51/61/184 44/69/160
f 43/57/156 48/58/171 47/53/167 41/52/148
f 55/37/200 71/36/3 62/29/227
f 56/41/203 71/36/3 55/37/199
f 57/44/208 71/36/3 56/41/204
f 58/40/212 71/36/3 57/44/207
f 59/35/216 71/36/3 58/40/211
f 60/28/220 71/36/3 59/35/215
f 61/23/224 71/36/3 60/28/219
f 62/29/228 71/36/3 61/23/223
f 63/32/231 72/31/4 64/27/235
f 64/27/236 72/31/4 65/22/239
f 65/22/240 72/31/4 66/26/243
f 66/26/244 72/31/4 67/30/247
f 67/30/248 72/31/4 68/38/251
f 68/38/252 72/31/4 69/44/255
f 69/44/256 72/31/4 70/39/259
f 70/39/260 72/31/4 63/32/232
s 2
f 1/6/5 18/14/65 17/12/61 2/3/9
f 3/71/14 10/72/37 9/76/35 1/73/8
f 4/55/16 15/61/53 16/62/57 3/56/12
f 5/52/20 11/53/39 12/58/43 7/57/28
f 6/4/24 17/10/63 18/11/67 5/6/21
f 7/70/29 16/62/59 15/61/55 8/69/31
f 19/25/69 27/24/101 34/33/129 26/34/97
f 20/21/74 28/20/106 27/24/102 19/25/70
f 21/19/78 29/18/110 28/20/105 20/21/73
f 22/17/82 30/16/114 29/18/109 21/19/77
f 23/48/86 31/47/118 30/49/113 22/50/81
f 24/46/90 32/45/122 31/47/117 23/48/85
f 25/43/94 33/42/126 32/45/121 24/46/89
f 26/34/98 34/33/130 33/42/125 25/43/93
f 37/54/134 39/56/141 40/55/146 38/51/139
f 42/74/151 44/69/158 43/70/154 41/75/147
f 45/67/162 50/65/178 49/63/174 46/72/164
f 47/59/169 48/58/172 49/63/176 50/65/180
f 55/25/198 63/24/230 64/20/234 56/21/202
f 56/21/201 64/20/233 65/18/238 57/19/206
f 57/19/205 65/18/237 66/16/242 58/17/210
f 58/50/209 66/49/241 67/47/246 59/48/214
f 59/48/213 67/47/245 68/45/250 60/46/218
f 60/46/217 68/45/249 69/42/254 61/43/222
f 61/43/221 69/42/253 70/33/258 62/34/226
f 62/34/225 70/33/257 63/24/229 55/25/197
s 3
f 2/60/10 17/66/62 15/61/54 4/55/17
f 8/69/32 15/61/56 17/66/64 6/68/25
f 10/72/36 13/63/46 14/65/50 9/67/34
f 14/65/52 13/63/48 12/58/44 11/59/41
f 38/3/137 53/12/189 54/14/193 37/6/133
f 39/56/140 52/62/185 51/61/181 40/55/144
f 41/6/149 54/11/195 53/10/191 42/4/152
f 44/69/159 51/61/183 52/62/187 43/70/157
s 4
f 39/71/143 46/72/166 49/63/175 52/64/188
f 48/58/170 43/57/155 52/64/186 49/63/173
f 50/9/179 54/8/196 41/1/150 47/2/168
f 54/13/194 50/15/177 45/7/161 37/5/135
