# Exported from Wings 3D 1.5.4
mtllib aquila_active_radiator_srf_1.mtl
o aquila_active_radiator_srf_2
#68 vertices, 45 faces
v -0.59375000 0.25000000 -9.0905167e-2
v -0.30734762 0.25000000 -0.20953692
v 1.4791142e-31 0.25000000 -0.25000000
v 0.30734762 0.25000000 -0.20953692
v 0.59375000 0.25000000 -9.0905167e-2
v -0.59375000 -0.25000000 -9.0905167e-2
v -0.30734762 -0.25000000 -0.20953692
v 1.4791142e-31 -0.25000000 -0.25000000
v 0.30734762 -0.25000000 -0.20953692
v 0.59375000 -0.25000000 -9.0905167e-2
v -0.54375000 -0.25000000 -4.3026266e-3
v -0.28146571 -0.25000000 -0.11294434
v 3.7128103e-18 -0.25000000 -0.15000000
v 0.28146571 -0.25000000 -0.11294434
v 0.54375000 -0.25000000 -4.3026266e-3
v 0.54375000 0.25000000 -4.3026266e-3
v 0.28146571 0.25000000 -0.11294434
v 3.7128103e-18 0.25000000 -0.15000000
v -0.28146571 0.25000000 -0.11294434
v -0.54375000 0.25000000 -4.3026266e-3
v 2.5000000e-2 2.2902195e-17 -1.0000000e-1
v 1.7677670e-2 -1.7677670e-2 -1.0000000e-1
v 6.7639669e-17 -2.5000000e-2 -1.0000000e-1
v -1.7677670e-2 -1.7677670e-2 -1.0000000e-1
v -2.5000000e-2 -2.1120723e-17 -1.0000000e-1
v -1.7677670e-2 1.7677670e-2 -1.0000000e-1
v 2.0555134e-17 2.5000000e-2 -1.0000000e-1
v 1.7677670e-2 1.7677670e-2 -1.0000000e-1
v -3.6702516e-17 2.5000000e-2 -0.15000000
v -1.7677670e-2 1.7677670e-2 -0.14767269
v -2.5000000e-2 -2.1692740e-17 -0.14670869
v -1.7677670e-2 -1.7677670e-2 -0.14767269
v 1.0382020e-17 -2.5000000e-2 -0.15000000
v 1.7677670e-2 1.7677670e-2 -0.14767269
v 1.7677670e-2 -1.7677670e-2 -0.14767269
v 2.5000000e-2 2.2330179e-17 -0.14670869
v 1.2500000e-2 1.7590136e-17 -2.5000000e-2
v 8.8388348e-3 -8.8388348e-3 -2.5000000e-2
v -5.4593959e-17 -1.2500000e-2 -2.5000000e-2
v -8.8388348e-3 -8.8388348e-3 -2.5000000e-2
v -1.2500000e-2 1.6059327e-17 -2.5000000e-2
v -8.8388348e-3 8.8388348e-3 -2.5000000e-2
v -5.7655576e-17 1.2500000e-2 -2.5000000e-2
v 8.8388348e-3 8.8388348e-3 -2.5000000e-2
v 1.2500000e-2 9.1204333e-18 -0.10000000
v 8.8388348e-3 -8.8388348e-3 -0.10000000
v -6.6860306e-17 -1.2500000e-2 -0.10000000
v -8.8388348e-3 -8.8388348e-3 -0.10000000
v -1.2500000e-2 7.5896248e-18 -0.10000000
v -8.8388348e-3 8.8388348e-3 -0.10000000
v -6.9921923e-17 1.2500000e-2 -0.10000000
v 8.8388348e-3 8.8388348e-3 -0.10000000
v 2.5000000e-2 1.7600375e-17 2.5000000e-2
v 1.7677670e-2 -1.7677670e-2 2.5000000e-2
v -5.2592564e-17 -2.5000000e-2 2.5000000e-2
v -1.7677670e-2 -1.7677670e-2 2.5000000e-2
v -2.5000000e-2 1.4538758e-17 2.5000000e-2
v -1.7677670e-2 1.7677670e-2 2.5000000e-2
v -5.8715798e-17 2.5000000e-2 2.5000000e-2
v 1.7677670e-2 1.7677670e-2 2.5000000e-2
v 2.5000000e-2 1.4538758e-17 -2.5000000e-2
v 1.7677670e-2 -1.7677670e-2 -2.5000000e-2
v -5.2592564e-17 -2.5000000e-2 -2.5000000e-2
v -1.7677670e-2 -1.7677670e-2 -2.5000000e-2
v -2.5000000e-2 1.1477141e-17 -2.5000000e-2
v -1.7677670e-2 1.7677670e-2 -2.5000000e-2
v -5.8715798e-17 2.5000000e-2 -2.5000000e-2
v 1.7677670e-2 1.7677670e-2 -2.5000000e-2
vt 0.43024664 0.63457456
vt 0.43024664 0.63830961
vt 0.43024664 0.64204466
vt 0.43024664 0.64577971
vt 0.43024664 0.64951476
vt 0.43024664 0.65324981
vt 0.43024664 0.65698486
vt 0.43024664 0.66071991
vt 0.43024664 0.66445496
vt 0.43966211 0.63457456
vt 0.43966211 0.63830961
vt 0.43966211 0.64204466
vt 0.43966211 0.64577971
vt 0.43966211 0.64951476
vt 0.43966211 0.65324981
vt 0.43966211 0.65698486
vt 0.43966211 0.66071991
vt 0.43966211 0.66445496
vt 0.44995994 0.64924616
vt 0.45138928 0.64579542
vt 0.45138928 0.65269690
vt 0.45484002 0.64436608
vt 0.45484002 0.65412624
vt 0.45829076 0.64579542
vt 0.45829076 0.65269690
vt 0.45972010 0.64924616
vt 0.48035326 0.64184934
vt 0.48035326 0.65648957
vt 0.48190175 0.74163090
vt 0.48190175 0.75139030
vt 0.48222078 0.64184934
vt 0.48222078 0.65648957
vt 0.48408831 0.64184934
vt 0.48408831 0.65648957
vt 0.48563653 0.74163085
vt 0.48563653 0.75139034
vt 0.48595583 0.64184934
vt 0.48595583 0.65648957
vt 0.48782336 0.64184934
vt 0.48782336 0.65648957
vt 0.48937180 0.74163032
vt 0.48937180 0.75139087
vt 0.48969088 0.64184934
vt 0.48969088 0.65648957
vt 0.49155841 0.64184934
vt 0.49155841 0.65648957
vt 0.49196187 0.76630285
vt 0.49197151 0.72686151
vt 0.49310777 0.74163018
vt 0.49310777 0.75139101
vt 0.49339121 0.76285211
vt 0.49339121 0.76975359
vt 0.49340085 0.72341077
vt 0.49340085 0.73031225
vt 0.49342593 0.64184934
vt 0.49342593 0.65648957
vt 0.49529346 0.64184934
vt 0.49529346 0.65648957
vt 0.49684195 0.74163052
vt 0.49684195 0.75139068
vt 0.49684195 0.76142277
vt 0.49684195 0.77118293
vt 0.49685159 0.72198143
vt 0.49685159 0.73174159
vt 0.50029268 0.76285211
vt 0.50029268 0.76975359
vt 0.50030233 0.72341077
vt 0.50030233 0.73031225
vt 0.50057613 0.74163018
vt 0.50057613 0.75139101
vt 0.50172203 0.76630285
vt 0.50173167 0.72686151
vt 0.50431209 0.74163032
vt 0.50431209 0.75139087
vt 0.50804736 0.74163085
vt 0.50804736 0.75139034
vt 0.51178214 0.74163090
vt 0.51178214 0.75139030
vt 0.73511039 0.44031681
vt 0.73511039 0.44031681
vt 0.73511039 0.44031681
vt 0.73511039 0.44031681
vt 0.73511039 0.50523165
vt 0.73511039 0.50523165
vt 0.73511039 0.50523165
vt 0.73511039 0.56572264
vt 0.73511039 0.56572264
vt 0.73511039 0.56572264
vt 0.75481163 0.44031681
vt 0.75481163 0.44031681
vt 0.75481163 0.44031681
vt 0.75481163 0.44031681
vt 0.75481163 0.49976513
vt 0.75481163 0.49976513
vt 0.75481163 0.49976513
vt 0.75481163 0.55516215
vt 0.75481163 0.55516215
vt 0.75481163 0.55516215
vt 0.89175562 0.57895587
vt 0.89175562 0.57910355
vt 0.89175562 0.63437296
vt 0.89175562 0.63452065
vt 0.89175562 0.68979006
vt 0.89175562 0.68993774
vt 0.89175562 0.70972138
vt 0.89175562 0.72924169
vt 0.89175562 0.78975461
vt 0.89175562 0.85026754
vt 0.89175562 0.91078046
vt 0.89175562 0.97129338
vt 0.89175562 0.99081370
vt 0.98935720 0.57895587
vt 0.98935720 0.57910355
vt 0.98935720 0.63452065
vt 0.98935720 0.63437296
vt 0.98935720 0.68979006
vt 0.98935720 0.68993774
vt 0.98935720 0.70972138
vt 0.98935720 0.72924169
vt 0.98935720 0.78975461
vt 0.98935720 0.85026754
vt 0.98935720 0.91078046
vt 0.98935720 0.97129338
vt 0.98935720 0.99081370
vn -9.0127256e-16 1.00000000 -5.3366056e-32
vn -0.70710678 0.70710678 8.3629214e-16
vn -1.00000000 -9.9139981e-16 1.1778147e-15
vn -0.70710678 -0.70710678 8.2032014e-16
vn 9.0127256e-16 -1.00000000 -8.0049084e-32
vn 0.70710678 0.70710678 -8.3629214e-16
vn 0.70710678 -0.70710678 -8.2032014e-16
vn 1.00000000 8.4118772e-16 -1.1778147e-15
vn -0.38268343 0.0000000e+0 -0.92387953
vn 0.0000000e+0 1.00000000 0.0000000e+0
vn -0.86602540 0.0000000e+0 0.50000000
vn -0.25881905 0.0000000e+0 -0.96592583
vn -0.25881905 0.0000000e+0 -0.96592583
vn 0.0000000e+0 1.00000000 0.0000000e+0
vn 0.0000000e+0 1.00000000 0.0000000e+0
vn -4.7591632e-16 0.0000000e+0 -1.00000000
vn -4.7591632e-16 0.0000000e+0 -1.00000000
vn 0.0000000e+0 1.00000000 0.0000000e+0
vn 0.0000000e+0 1.00000000 0.0000000e+0
vn 0.25881905 0.0000000e+0 -0.96592583
vn 0.25881905 0.0000000e+0 -0.96592583
vn 0.0000000e+0 1.00000000 0.0000000e+0
vn 0.0000000e+0 1.00000000 0.0000000e+0
vn 0.38268343 0.0000000e+0 -0.92387953
vn 0.0000000e+0 1.00000000 0.0000000e+0
vn 0.86602540 0.0000000e+0 0.50000000
vn -0.38268343 0.0000000e+0 -0.92387953
vn 0.0000000e+0 -1.00000000 0.0000000e+0
vn -0.86602540 0.0000000e+0 0.50000000
vn -0.25881905 0.0000000e+0 -0.96592583
vn -0.25881905 0.0000000e+0 -0.96592583
vn 0.0000000e+0 -1.00000000 0.0000000e+0
vn 0.0000000e+0 -1.00000000 0.0000000e+0
vn -4.7591632e-16 0.0000000e+0 -1.00000000
vn -4.7591632e-16 0.0000000e+0 -1.00000000
vn 0.0000000e+0 -1.00000000 0.0000000e+0
vn 0.0000000e+0 -1.00000000 0.0000000e+0
vn 0.25881905 0.0000000e+0 -0.96592583
vn 0.25881905 0.0000000e+0 -0.96592583
vn 0.0000000e+0 -1.00000000 0.0000000e+0
vn 0.0000000e+0 -1.00000000 0.0000000e+0
vn 0.38268343 0.0000000e+0 -0.92387953
vn 0.0000000e+0 -1.00000000 0.0000000e+0
vn 0.86602540 0.0000000e+0 0.50000000
vn 0.0000000e+0 -1.00000000 0.0000000e+0
vn 0.38268343 0.0000000e+0 0.92387953
vn -0.86602540 0.0000000e+0 0.50000000
vn 0.0000000e+0 -1.00000000 0.0000000e+0
vn 0.0000000e+0 -1.00000000 0.0000000e+0
vn 0.25881905 0.0000000e+0 0.96592583
vn 0.25881905 0.0000000e+0 0.96592583
vn 0.0000000e+0 -1.00000000 0.0000000e+0
vn 0.0000000e+0 -1.00000000 0.0000000e+0
vn 5.7389909e-16 0.0000000e+0 1.00000000
vn 5.7389909e-16 0.0000000e+0 1.00000000
vn 0.0000000e+0 -1.00000000 0.0000000e+0
vn 0.0000000e+0 -1.00000000 0.0000000e+0
vn -0.25881905 0.0000000e+0 0.96592583
vn -0.25881905 0.0000000e+0 0.96592583
vn 0.0000000e+0 -1.00000000 0.0000000e+0
vn -0.38268343 0.0000000e+0 0.92387953
vn 0.86602540 0.0000000e+0 0.50000000
vn 0.0000000e+0 1.00000000 0.0000000e+0
vn -0.38268343 0.0000000e+0 0.92387953
vn 0.86602540 0.0000000e+0 0.50000000
vn 0.0000000e+0 1.00000000 0.0000000e+0
vn 0.0000000e+0 1.00000000 0.0000000e+0
vn -0.25881905 0.0000000e+0 0.96592583
vn -0.25881905 0.0000000e+0 0.96592583
vn 0.0000000e+0 1.00000000 0.0000000e+0
vn 0.0000000e+0 1.00000000 0.0000000e+0
vn 5.7389909e-16 0.0000000e+0 1.00000000
vn 5.7389909e-16 0.0000000e+0 1.00000000
vn 0.0000000e+0 1.00000000 0.0000000e+0
vn 0.0000000e+0 1.00000000 0.0000000e+0
vn 0.25881905 0.0000000e+0 0.96592583
vn 0.25881905 0.0000000e+0 0.96592583
vn 0.0000000e+0 1.00000000 0.0000000e+0
vn 0.38268343 0.0000000e+0 0.92387953
vn -0.86602540 0.0000000e+0 0.50000000
vn 6.1331737e-16 1.3877788e-16 1.00000000
vn 1.00000000 8.4118772e-16 -1.1778147e-15
vn 1.00000000 8.4118772e-16 -1.1778147e-15
vn 6.1331737e-16 1.3877788e-16 1.00000000
vn 0.70710678 -0.70710678 -8.2032014e-16
vn 0.70710678 -0.70710678 -8.2032014e-16
vn 6.1331737e-16 1.3877788e-16 1.00000000
vn 9.0127256e-16 -1.00000000 -8.0049084e-32
vn 9.0127256e-16 -1.00000000 -8.0049084e-32
vn 6.1331737e-16 1.3877788e-16 1.00000000
vn -0.70710678 -0.70710678 8.2032014e-16
vn -0.70710678 -0.70710678 8.2032014e-16
vn 6.1331737e-16 1.3877788e-16 1.00000000
vn -1.00000000 -9.9139981e-16 1.1778147e-15
vn -1.00000000 -9.9139981e-16 1.1778147e-15
vn 6.1331737e-16 1.3877788e-16 1.00000000
vn -0.70710678 0.70710678 8.3629214e-16
vn -0.70710678 0.70710678 8.3629214e-16
vn 6.1331737e-16 1.3877788e-16 1.00000000
vn -9.0127256e-16 1.00000000 -5.3366056e-32
vn -9.0127256e-16 1.00000000 -5.3366056e-32
vn 6.1331737e-16 1.3877788e-16 1.00000000
vn 0.70710678 0.70710678 -8.3629214e-16
vn 0.70710678 0.70710678 -8.3629214e-16
vn 1.00000000 9.0127256e-17 -1.5844032e-16
vn 1.00000000 9.0127256e-17 -1.5844032e-16
vn 0.70710678 -0.70710678 -2.5554890e-17
vn 0.70710678 -0.70710678 -2.5554890e-17
vn 6.0084837e-17 -1.00000000 1.2266347e-16
vn 6.0084837e-17 -1.00000000 1.2266347e-16
vn -0.70710678 -0.70710678 1.9932814e-16
vn -0.70710678 -0.70710678 1.9932814e-16
vn -1.00000000 -1.5021209e-16 1.6099581e-16
vn -1.00000000 -1.5021209e-16 1.6099581e-16
vn -0.70710678 0.70710678 2.5554890e-17
vn -0.70710678 0.70710678 2.5554890e-17
vn -1.8025451e-16 1.00000000 -1.2010798e-16
vn -1.8025451e-16 1.00000000 -1.2010798e-16
vn 0.70710678 0.70710678 -1.9421717e-16
vn 0.70710678 0.70710678 -1.9421717e-16
vn 1.00000000 9.0127256e-17 -1.5844032e-16
vn 1.00000000 9.0127256e-17 -1.5844032e-16
vn 0.70710678 -0.70710678 -2.5554890e-17
vn 0.70710678 -0.70710678 -2.5554890e-17
vn 6.0084837e-17 -1.00000000 1.2266347e-16
vn 6.0084837e-17 -1.00000000 1.2266347e-16
vn -0.70710678 -0.70710678 1.9932814e-16
vn -0.70710678 -0.70710678 1.9932814e-16
vn -1.00000000 -1.5021209e-16 1.6099581e-16
vn -1.00000000 -1.5021209e-16 1.6099581e-16
vn -0.70710678 0.70710678 2.5554890e-17
vn -0.70710678 0.70710678 2.5554890e-17
vn -1.8025451e-16 1.00000000 -1.2010798e-16
vn -1.8025451e-16 1.00000000 -1.2010798e-16
vn 0.70710678 0.70710678 -1.9421717e-16
vn 0.70710678 0.70710678 -1.9421717e-16
vn 0.0000000e+0 3.4694470e-17 1.00000000
vn 1.00000000 9.0127256e-17 7.6664671e-18
vn 1.00000000 9.0127256e-17 7.6664671e-18
vn 0.0000000e+0 3.4694470e-17 1.00000000
vn 0.70710678 -0.70710678 7.6664671e-17
vn 0.70710678 -0.70710678 7.6664671e-17
vn 0.0000000e+0 3.4694470e-17 1.00000000
vn 6.0084837e-17 -1.00000000 9.1997605e-17
vn 6.0084837e-17 -1.00000000 9.1997605e-17
vn 0.0000000e+0 3.4694470e-17 1.00000000
vn -0.70710678 -0.70710678 5.3665270e-17
vn -0.70710678 -0.70710678 5.3665270e-17
vn 0.0000000e+0 3.4694470e-17 1.00000000
vn -1.00000000 -1.8025451e-16 -7.6664671e-18
vn -1.00000000 -1.8025451e-16 -7.6664671e-18
vn 0.0000000e+0 3.4694470e-17 1.00000000
vn -0.70710678 0.70710678 -7.6664671e-17
vn -0.70710678 0.70710678 -7.6664671e-17
vn 0.0000000e+0 3.4694470e-17 1.00000000
vn -1.2016967e-16 1.00000000 -9.1997605e-17
vn -1.2016967e-16 1.00000000 -9.1997605e-17
vn 0.0000000e+0 3.4694470e-17 1.00000000
vn 0.70710678 0.70710678 -5.3665270e-17
vn 0.70710678 0.70710678 -5.3665270e-17
vn 1.5332934e-16 -3.4694470e-17 -1.00000000
vn 1.00000000 9.0127256e-17 7.6664671e-18
vn 1.00000000 9.0127256e-17 7.6664671e-18
vn 1.5332934e-16 -3.4694470e-17 -1.00000000
vn 0.70710678 -0.70710678 7.6664671e-17
vn 0.70710678 -0.70710678 7.6664671e-17
vn 1.5332934e-16 -3.4694470e-17 -1.00000000
vn 6.0084837e-17 -1.00000000 9.1997605e-17
vn 6.0084837e-17 -1.00000000 9.1997605e-17
vn 1.5332934e-16 -3.4694470e-17 -1.00000000
vn -0.70710678 -0.70710678 5.3665270e-17
vn -0.70710678 -0.70710678 5.3665270e-17
vn 1.5332934e-16 -3.4694470e-17 -1.00000000
vn -1.00000000 -1.8025451e-16 -7.6664671e-18
vn -1.00000000 -1.8025451e-16 -7.6664671e-18
vn 1.5332934e-16 -3.4694470e-17 -1.00000000
vn -0.70710678 0.70710678 -7.6664671e-17
vn -0.70710678 0.70710678 -7.6664671e-17
vn 1.5332934e-16 -3.4694470e-17 -1.00000000
vn -1.2016967e-16 1.00000000 -9.1997605e-17
vn -1.2016967e-16 1.00000000 -9.1997605e-17
vn 1.5332934e-16 -3.4694470e-17 -1.00000000
vn 0.70710678 0.70710678 -5.3665270e-17
vn 0.70710678 0.70710678 -5.3665270e-17
g aquila_active_radiator_srf_2_aquila_active_radiator_srf_2_auv
usemtl aquila_active_radiator_srf_2_auv
s 1
f 5/123/26 16/124/65 15/111/62 10/110/44
f 6/106/29 11/105/47 20/118/80 1/119/11
f 21/26/81 28/25/102 27/23/99 26/21/96 25/19/93 24/20/90 23/22/87 22/24/84
f 53/71/137 60/66/158 59/62/155 58/52/152 57/47/149 56/51/146 55/61/143 54/65/140
f 62/53/164 63/63/167 64/67/170 65/72/173 66/68/176 67/64/179 68/54/182 61/48/161
s 2
f 2/120/13 7/107/31 6/106/27 1/119/9
f 3/121/17 8/108/35 7/107/30 2/120/12
f 4/122/21 9/109/39 8/108/34 3/121/16
f 5/123/24 10/110/42 9/109/38 4/122/20
f 12/102/50 19/114/76 20/117/79 11/104/46
f 13/100/54 18/113/72 19/114/77 12/102/51
f 14/101/58 17/115/68 18/112/73 13/99/55
f 15/103/61 16/116/64 17/115/69 14/101/59
f 21/12/82 36/3/8 34/2/6 28/11/103
f 22/13/86 35/4/7 36/3/8 21/12/83
f 23/14/89 33/5/5 35/4/7 22/13/85
f 24/15/92 32/6/4 33/5/5 23/14/88
f 25/16/95 31/7/3 32/6/4 24/15/91
f 26/17/98 30/8/2 31/7/3 25/16/94
f 27/18/101 29/9/1 30/8/2 26/17/97
f 28/11/104 34/2/6 29/1/1 27/10/100
f 37/46/105 45/45/121 52/55/135 44/56/119
f 38/44/108 46/43/124 45/45/122 37/46/106
f 39/40/110 47/39/126 46/43/123 38/44/107
f 40/38/112 48/37/128 47/39/125 39/40/109
f 41/34/114 49/33/130 48/37/127 40/38/111
f 42/32/116 50/31/132 49/33/129 41/34/113
f 43/28/118 51/27/134 50/31/131 42/32/115
f 44/56/120 52/55/136 51/57/133 43/58/117
f 53/74/138 61/73/162 68/75/183 60/76/159
f 54/70/142 62/69/166 61/73/163 53/74/139
f 55/60/145 63/59/169 62/69/165 54/70/141
f 56/50/148 64/49/172 63/59/168 55/60/144
f 57/42/151 65/41/175 64/49/171 56/50/147
f 58/36/154 66/35/178 65/41/174 57/42/150
f 59/30/157 67/29/181 66/35/177 58/36/153
f 60/76/160 68/75/184 67/77/180 59/78/156
s 3
f 1/86/10 20/96/78 19/94/75 2/85/15
f 2/85/14 19/94/74 18/92/71 3/82/19
f 3/79/18 18/89/70 17/94/67 4/83/23
f 4/83/22 17/94/66 16/98/63 5/88/25
f 7/84/32 12/95/48 11/96/45 6/86/28
f 8/81/36 13/91/52 12/95/49 7/84/33
f 9/83/40 14/93/56 13/90/53 8/80/37
f 10/87/43 15/97/60 14/93/57 9/83/41
