# Exported from Wings 3D 1.5.4
mtllib Tantares_SolarBasic_1_3.mtl
o Tantares_SolarBasic_1_3
#8 vertices, 6 faces
v -0.50000000 -5.0000000e-3 -0.51500000
v -0.50000000 -5.0000000e-3 5.0000000e-3
v -0.50000000 5.0000000e-3 -0.51500000
v -0.50000000 5.0000000e-3 5.0000000e-3
v 0.50000000 -5.0000000e-3 -0.51500000
v 0.50000000 -5.0000000e-3 5.0000000e-3
v 0.50000000 5.0000000e-3 -0.51500000
v 0.50000000 5.0000000e-3 5.0000000e-3
vt 0.50867749 1.8439881e-2
vt 0.50867749 0.21945840
vt 0.51640897 1.8439881e-2
vt 0.51640897 0.21945840
vt 0.53481504 1.8750000e-2
vt 0.53481504 0.40532407
vt 0.53481504 0.40532407
vt 0.54254652 1.8750000e-2
vt 0.54254652 0.40532407
vt 0.56164279 1.8750000e-2
vt 0.56164279 0.40532407
vt 0.76266131 1.8750000e-2
vt 0.76266131 0.40532407
vt 0.78023148 1.8750000e-2
vt 0.78023148 0.40532407
vt 0.98125000 1.8750000e-2
vt 0.98125000 0.40532407
vn 0.0000000e+0 -1.00000000 0.0000000e+0
vn 0.0000000e+0 0.0000000e+0 -1.00000000
vn -1.00000000 0.0000000e+0 0.0000000e+0
vn 0.0000000e+0 -1.00000000 0.0000000e+0
vn 0.0000000e+0 0.0000000e+0 1.00000000
vn -1.00000000 0.0000000e+0 0.0000000e+0
vn 0.0000000e+0 1.00000000 0.0000000e+0
vn 0.0000000e+0 0.0000000e+0 -1.00000000
vn -1.00000000 0.0000000e+0 0.0000000e+0
vn 0.0000000e+0 1.00000000 0.0000000e+0
vn 0.0000000e+0 0.0000000e+0 1.00000000
vn -1.00000000 0.0000000e+0 0.0000000e+0
vn 0.0000000e+0 -1.00000000 0.0000000e+0
vn 0.0000000e+0 0.0000000e+0 -1.00000000
vn 1.00000000 0.0000000e+0 0.0000000e+0
vn 0.0000000e+0 -1.00000000 0.0000000e+0
vn 0.0000000e+0 0.0000000e+0 1.00000000
vn 1.00000000 0.0000000e+0 0.0000000e+0
vn 0.0000000e+0 1.00000000 0.0000000e+0
vn 0.0000000e+0 0.0000000e+0 -1.00000000
vn 1.00000000 0.0000000e+0 0.0000000e+0
vn 0.0000000e+0 1.00000000 0.0000000e+0
vn 0.0000000e+0 0.0000000e+0 1.00000000
vn 1.00000000 0.0000000e+0 0.0000000e+0
g Tantares_SolarBasic_1_3_Tantares_SolarBasic_1_3_auv
usemtl Tantares_SolarBasic_1_3_auv
s 1
f 2/4/6 4/2/12 3/1/9 1/3/3
f 5/4/15 7/2/21 8/1/24 6/3/18
s 2
f 2/8/5 6/9/17 8/6/23 4/5/11
f 3/7/8 7/5/20 5/8/14 1/9/2
s 3
f 1/11/1 5/10/13 6/12/16 2/13/4
f 4/16/10 8/17/22 7/15/19 3/14/7
