# Exported from Wings 3D 1.5.4
mtllib Tantares_SolarBasic_1_4.mtl
o Tantares_SolarBasic_1_4
#56 vertices, 43 faces
v -0.50000000 -5.0000000e-3 -0.51500000
v -0.50000000 -5.0000000e-3 5.0000000e-3
v -0.50000000 5.0000000e-3 -0.51500000
v -0.50000000 5.0000000e-3 5.0000000e-3
v 0.50000000 -5.0000000e-3 -0.51500000
v 0.50000000 -5.0000000e-3 5.0000000e-3
v 0.50000000 5.0000000e-3 -0.51500000
v 0.50000000 5.0000000e-3 5.0000000e-3
v -0.58500000 1.2500000e-2 -0.25500000
v -0.58500000 8.8388348e-3 -0.24616117
v -0.58500000 1.3279469e-18 -0.24250000
v -0.58500000 -8.8388348e-3 -0.24616117
v -0.58500000 -1.2500000e-2 -0.25500000
v -0.58500000 -8.8388348e-3 -0.26383883
v -0.58500000 -3.2669635e-18 -0.26750000
v -0.58500000 8.8388348e-3 -0.26383883
v -0.53000000 1.2500000e-2 -0.25500000
v -0.53000000 8.8388348e-3 -0.24616117
v -0.53000000 1.3304318e-18 -0.24250000
v -0.53000000 -8.8388348e-3 -0.24616117
v -0.53000000 -1.2500000e-2 -0.25500000
v -0.53000000 -8.8388348e-3 -0.26383883
v -0.53000000 -3.2644786e-18 -0.26750000
v -0.53000000 8.8388348e-3 -0.26383883
v -0.58500000 4.4194174e-3 -0.25058058
v -0.58500000 6.2500000e-3 -0.25500000
v -0.58500000 4.4194174e-3 -0.25941942
v -0.58500000 -2.1403728e-18 -0.26125000
v -0.58500000 -4.4194174e-3 -0.25941942
v -0.58500000 -6.2500000e-3 -0.25500000
v -0.58500000 -4.4194174e-3 -0.25058058
v -0.58500000 1.5157120e-18 -0.24875000
v -1.63500000 4.4194174e-3 -0.25058058
v -1.63500000 6.2500000e-3 -0.25500000
v -1.63500000 4.4194174e-3 -0.25941942
v -1.63500000 -2.1403728e-18 -0.26125000
v -1.63500000 -4.4194174e-3 -0.25941942
v -1.63500000 -6.2500000e-3 -0.25500000
v -1.63500000 -4.4194174e-3 -0.25058058
v -1.63500000 1.5157120e-18 -0.24875000
v -0.53000000 -1.5000000e-2 -0.30500000
v -0.53000000 -1.5000000e-2 -0.20500000
v -0.53000000 1.5000000e-2 -0.30500000
v -0.53000000 1.5000000e-2 -0.20500000
v -0.39300000 -1.5000000e-2 -0.30500000
v -0.39300000 -1.5000000e-2 -0.20500000
v -0.39300000 1.5000000e-2 -0.30500000
v -0.39300000 1.5000000e-2 -0.20500000
v 0.42800000 -1.5000000e-2 -0.30500000
v 0.42800000 -1.5000000e-2 -0.20500000
v 0.42800000 1.5000000e-2 -0.30500000
v 0.42800000 1.5000000e-2 -0.20500000
v 0.52000000 -1.5000000e-2 -0.30500000
v 0.52000000 -1.5000000e-2 -0.20500000
v 0.52000000 1.5000000e-2 -0.30500000
v 0.52000000 1.5000000e-2 -0.20500000
vt 2.1535495e-2 1.8612001e-2
vt 2.1535495e-2 0.40491297
vt 2.1535495e-2 1.8612001e-2
vt 2.1535495e-2 0.40491297
vt 2.9244004e-2 1.8612001e-2
vt 2.9244004e-2 0.40491297
vt 2.9244004e-2 1.8612001e-2
vt 2.9244004e-2 0.40491297
vt 4.8399448e-2 1.8612001e-2
vt 4.8399448e-2 0.40491297
vt 0.24882068 1.8612001e-2
vt 0.24882068 0.40491297
vt 0.26716644 1.8612001e-2
vt 0.26716644 0.40491297
vt 0.46865153 1.8612001e-2
vt 0.46865153 0.40491297
vt 0.48765563 1.8870051e-2
vt 0.48765563 0.21942928
vt 0.48765563 1.8870051e-2
vt 0.48765563 0.21942928
vt 0.49536414 1.8870051e-2
vt 0.49536414 1.8870051e-2
vt 0.49536414 0.21942928
vt 0.49536414 0.21942928
vt 0.57775565 0.44535058
vt 0.57775565 0.44676168
vt 0.57775565 0.45016839
vt 0.57775565 0.45357510
vt 0.57775565 0.45498621
vt 0.57775565 0.44535058
vt 0.57775565 0.44676168
vt 0.57775565 0.45016839
vt 0.57775565 0.45357510
vt 0.57775565 0.45498621
vt 0.71897919 0.50602997
vt 0.72039029 0.50262326
vt 0.72039029 0.50943668
vt 0.72379700 0.50121215
vt 0.72379700 0.51084779
vt 0.72720372 0.50262326
vt 0.72720372 0.50943668
vt 0.72861482 0.50602997
vt 0.74775650 0.50501806
vt 0.75057871 0.50501806
vt 0.75257432 0.50685163
vt 0.75398543 0.50685163
vt 0.75739214 0.50501806
vt 0.75739214 0.50685163
vt 0.76079885 0.50685163
vt 0.76220996 0.50685163
vt 0.76420556 0.50501806
vt 0.76702777 0.50501806
vt 0.78580010 0.50118365
vt 0.78580010 0.50118365
vt 0.78580010 0.50259476
vt 0.78580010 0.50259476
vt 0.78580010 0.50600147
vt 0.78580010 0.50940818
vt 0.78580010 0.50940818
vt 0.78580010 0.51081929
vt 0.80699850 0.50118365
vt 0.80699850 0.50118365
vt 0.80699850 0.50259476
vt 0.80699850 0.50259476
vt 0.80699850 0.50600147
vt 0.80699850 0.50940818
vt 0.80699850 0.50940818
vt 0.80699850 0.51081929
vt 0.80699850 0.51081929
vt 0.82675044 0.48663881
vt 0.82675044 0.52518135
vt 0.83829503 0.48663881
vt 0.83829503 0.52518135
vt 0.83829503 0.48663881
vt 0.83829503 0.52518135
vt 0.83831320 0.48663881
vt 0.83831320 0.52518135
vt 0.83832117 0.47508131
vt 0.83832117 0.48664407
vt 0.83832117 0.47508131
vt 0.83832117 0.48664407
vt 0.87370592 0.48663881
vt 0.87370592 0.52518135
vt 0.87375417 0.48663881
vt 0.87375417 0.48663881
vt 0.87375417 0.52518135
vt 0.87378031 0.47508131
vt 0.87378031 0.48664407
vt 0.87378031 0.47508131
vt 0.87378031 0.48664407
vt 0.88526869 0.48663881
vt 0.88526869 0.52518135
vt 0.90561332 0.48663881
vt 0.90561332 0.52518135
vt 0.91714430 0.48663881
vt 0.91714430 0.48663881
vt 0.91714430 0.52518135
vt 0.91717608 0.48663881
vt 0.91717608 0.52518135
vt 0.91718046 0.47515288
vt 0.91718046 0.48671564
vt 0.96994758 0.48663881
vt 0.96994758 0.52518135
vt 0.96995861 0.48663881
vt 0.96995861 0.52518135
vt 0.96998374 0.47515288
vt 0.96998374 0.48671564
vt 0.96998374 0.47515288
vt 0.96998374 0.48671564
vt 0.98152138 0.48663881
vt 0.98152138 0.52518135
vt 0.98245237 0.44535058
vt 0.98245237 0.44676168
vt 0.98245237 0.45016839
vt 0.98245237 0.45357510
vt 0.98245237 0.45498621
vt 0.98245237 0.44535058
vt 0.98245237 0.44676168
vt 0.98245237 0.45016839
vt 0.98245237 0.45357510
vt 0.98245237 0.45498621
vn 2.4393304e-17 1.00000000 -1.5021209e-16
vn 1.0454273e-17 0.70710678 0.70710678
vn -3.4847578e-18 0.0000000e+0 1.00000000
vn -3.1362820e-17 -0.70710678 0.70710678
vn -3.8332335e-17 -1.00000000 1.5021209e-16
vn -1.7423789e-17 -0.70710678 -0.70710678
vn 3.4847578e-18 -1.2016967e-16 -1.00000000
vn 2.4393304e-17 0.70710678 -0.70710678
vn 0.0000000e+0 -1.00000000 0.0000000e+0
vn 0.0000000e+0 0.0000000e+0 -1.00000000
vn -1.00000000 0.0000000e+0 0.0000000e+0
vn 0.0000000e+0 -1.00000000 0.0000000e+0
vn 0.0000000e+0 0.0000000e+0 1.00000000
vn -1.00000000 0.0000000e+0 0.0000000e+0
vn 0.0000000e+0 1.00000000 0.0000000e+0
vn 0.0000000e+0 0.0000000e+0 -1.00000000
vn -1.00000000 0.0000000e+0 0.0000000e+0
vn 0.0000000e+0 1.00000000 0.0000000e+0
vn 0.0000000e+0 0.0000000e+0 1.00000000
vn -1.00000000 0.0000000e+0 0.0000000e+0
vn 0.0000000e+0 -1.00000000 0.0000000e+0
vn 0.0000000e+0 0.0000000e+0 -1.00000000
vn 1.00000000 0.0000000e+0 0.0000000e+0
vn 0.0000000e+0 -1.00000000 0.0000000e+0
vn 0.0000000e+0 0.0000000e+0 1.00000000
vn 1.00000000 0.0000000e+0 0.0000000e+0
vn 0.0000000e+0 1.00000000 0.0000000e+0
vn 0.0000000e+0 0.0000000e+0 -1.00000000
vn 1.00000000 0.0000000e+0 0.0000000e+0
vn 0.0000000e+0 1.00000000 0.0000000e+0
vn 0.0000000e+0 0.0000000e+0 1.00000000
vn 1.00000000 0.0000000e+0 0.0000000e+0
vn 2.4393304e-17 1.00000000 -1.5021209e-16
vn 2.4393304e-17 1.00000000 -1.5021209e-16
vn -1.00000000 0.0000000e+0 0.0000000e+0
vn -1.00000000 0.0000000e+0 0.0000000e+0
vn 1.0454273e-17 0.70710678 0.70710678
vn 1.0454273e-17 0.70710678 0.70710678
vn -1.00000000 0.0000000e+0 0.0000000e+0
vn -1.00000000 0.0000000e+0 0.0000000e+0
vn -3.4847578e-18 0.0000000e+0 1.00000000
vn -3.4847578e-18 0.0000000e+0 1.00000000
vn -1.00000000 0.0000000e+0 0.0000000e+0
vn -1.00000000 0.0000000e+0 0.0000000e+0
vn -3.1362820e-17 -0.70710678 0.70710678
vn -3.1362820e-17 -0.70710678 0.70710678
vn -1.00000000 0.0000000e+0 0.0000000e+0
vn -1.00000000 0.0000000e+0 0.0000000e+0
vn -3.8332335e-17 -1.00000000 1.5021209e-16
vn -3.8332335e-17 -1.00000000 1.5021209e-16
vn -1.00000000 0.0000000e+0 0.0000000e+0
vn -1.00000000 0.0000000e+0 0.0000000e+0
vn -1.7423789e-17 -0.70710678 -0.70710678
vn -1.7423789e-17 -0.70710678 -0.70710678
vn -1.00000000 0.0000000e+0 0.0000000e+0
vn -1.00000000 0.0000000e+0 0.0000000e+0
vn 3.4847578e-18 -1.2016967e-16 -1.00000000
vn 3.4847578e-18 -1.2016967e-16 -1.00000000
vn -1.00000000 0.0000000e+0 0.0000000e+0
vn -1.00000000 0.0000000e+0 0.0000000e+0
vn 2.4393304e-17 0.70710678 -0.70710678
vn 2.4393304e-17 0.70710678 -0.70710678
vn -1.00000000 0.0000000e+0 0.0000000e+0
vn -1.00000000 0.0000000e+0 0.0000000e+0
vn -1.00000000 0.0000000e+0 0.0000000e+0
vn -1.00000000 0.0000000e+0 0.0000000e+0
vn 0.0000000e+0 0.70710678 0.70710678
vn 0.0000000e+0 0.70710678 0.70710678
vn -1.00000000 0.0000000e+0 0.0000000e+0
vn -1.00000000 0.0000000e+0 0.0000000e+0
vn 0.0000000e+0 1.00000000 -1.8025451e-16
vn 0.0000000e+0 1.00000000 -1.8025451e-16
vn -1.00000000 0.0000000e+0 0.0000000e+0
vn -1.00000000 0.0000000e+0 0.0000000e+0
vn 0.0000000e+0 0.70710678 -0.70710678
vn 0.0000000e+0 0.70710678 -0.70710678
vn -1.00000000 0.0000000e+0 0.0000000e+0
vn -1.00000000 0.0000000e+0 0.0000000e+0
vn 0.0000000e+0 -2.1029693e-16 -1.00000000
vn 0.0000000e+0 -2.1029693e-16 -1.00000000
vn -1.00000000 0.0000000e+0 0.0000000e+0
vn -1.00000000 0.0000000e+0 0.0000000e+0
vn 0.0000000e+0 -0.70710678 -0.70710678
vn 0.0000000e+0 -0.70710678 -0.70710678
vn -1.00000000 0.0000000e+0 0.0000000e+0
vn -1.00000000 0.0000000e+0 0.0000000e+0
vn 0.0000000e+0 -1.00000000 2.4033935e-16
vn 0.0000000e+0 -1.00000000 2.4033935e-16
vn -1.00000000 0.0000000e+0 0.0000000e+0
vn -1.00000000 0.0000000e+0 0.0000000e+0
vn 0.0000000e+0 -0.70710678 0.70710678
vn 0.0000000e+0 -0.70710678 0.70710678
vn -1.00000000 0.0000000e+0 0.0000000e+0
vn -1.00000000 0.0000000e+0 0.0000000e+0
vn 0.0000000e+0 -9.0127256e-17 1.00000000
vn 0.0000000e+0 -9.0127256e-17 1.00000000
vn -1.00000000 -7.8504623e-15 0.0000000e+0
vn 0.0000000e+0 0.70710678 0.70710678
vn 0.0000000e+0 0.70710678 0.70710678
vn -1.00000000 -7.8504623e-15 0.0000000e+0
vn 0.0000000e+0 1.00000000 -1.8025451e-16
vn 0.0000000e+0 1.00000000 -1.8025451e-16
vn -1.00000000 -7.8504623e-15 0.0000000e+0
vn 0.0000000e+0 0.70710678 -0.70710678
vn 0.0000000e+0 0.70710678 -0.70710678
vn -1.00000000 -7.8504623e-15 0.0000000e+0
vn 0.0000000e+0 -2.1029693e-16 -1.00000000
vn 0.0000000e+0 -2.1029693e-16 -1.00000000
vn -1.00000000 -7.8504623e-15 0.0000000e+0
vn 0.0000000e+0 -0.70710678 -0.70710678
vn 0.0000000e+0 -0.70710678 -0.70710678
vn -1.00000000 -7.8504623e-15 0.0000000e+0
vn 0.0000000e+0 -1.00000000 2.4033935e-16
vn 0.0000000e+0 -1.00000000 2.4033935e-16
vn -1.00000000 -7.8504623e-15 0.0000000e+0
vn 0.0000000e+0 -0.70710678 0.70710678
vn 0.0000000e+0 -0.70710678 0.70710678
vn -1.00000000 -7.8504623e-15 0.0000000e+0
vn 0.0000000e+0 -9.0127256e-17 1.00000000
vn 0.0000000e+0 -9.0127256e-17 1.00000000
vn 0.0000000e+0 -1.00000000 0.0000000e+0
vn 0.0000000e+0 0.0000000e+0 -1.00000000
vn -1.00000000 0.0000000e+0 0.0000000e+0
vn 0.0000000e+0 -1.00000000 0.0000000e+0
vn 0.0000000e+0 0.0000000e+0 1.00000000
vn -1.00000000 0.0000000e+0 0.0000000e+0
vn 0.0000000e+0 1.00000000 0.0000000e+0
vn 0.0000000e+0 0.0000000e+0 -1.00000000
vn -1.00000000 0.0000000e+0 0.0000000e+0
vn 0.0000000e+0 1.00000000 0.0000000e+0
vn 0.0000000e+0 0.0000000e+0 1.00000000
vn -1.00000000 0.0000000e+0 0.0000000e+0
vn 0.0000000e+0 -1.00000000 0.0000000e+0
vn 0.0000000e+0 0.0000000e+0 -1.00000000
vn 1.00000000 0.0000000e+0 0.0000000e+0
vn 0.0000000e+0 -1.00000000 0.0000000e+0
vn 0.0000000e+0 0.0000000e+0 1.00000000
vn 1.00000000 0.0000000e+0 0.0000000e+0
vn 0.0000000e+0 1.00000000 0.0000000e+0
vn 0.0000000e+0 0.0000000e+0 -1.00000000
vn 1.00000000 0.0000000e+0 0.0000000e+0
vn 0.0000000e+0 1.00000000 0.0000000e+0
vn 0.0000000e+0 0.0000000e+0 1.00000000
vn 1.00000000 0.0000000e+0 0.0000000e+0
vn 0.0000000e+0 -1.00000000 0.0000000e+0
vn 0.0000000e+0 0.0000000e+0 -1.00000000
vn -1.00000000 0.0000000e+0 0.0000000e+0
vn 0.0000000e+0 -1.00000000 0.0000000e+0
vn 0.0000000e+0 0.0000000e+0 1.00000000
vn -1.00000000 0.0000000e+0 0.0000000e+0
vn 0.0000000e+0 1.00000000 0.0000000e+0
vn 0.0000000e+0 0.0000000e+0 -1.00000000
vn -1.00000000 0.0000000e+0 0.0000000e+0
vn 0.0000000e+0 1.00000000 0.0000000e+0
vn 0.0000000e+0 0.0000000e+0 1.00000000
vn -1.00000000 0.0000000e+0 0.0000000e+0
vn 0.0000000e+0 -1.00000000 0.0000000e+0
vn 0.0000000e+0 0.0000000e+0 -1.00000000
vn 1.00000000 0.0000000e+0 0.0000000e+0
vn 0.0000000e+0 -1.00000000 0.0000000e+0
vn 0.0000000e+0 0.0000000e+0 1.00000000
vn 1.00000000 0.0000000e+0 0.0000000e+0
vn 0.0000000e+0 1.00000000 0.0000000e+0
vn 0.0000000e+0 0.0000000e+0 -1.00000000
vn 1.00000000 0.0000000e+0 0.0000000e+0
vn 0.0000000e+0 1.00000000 0.0000000e+0
vn 0.0000000e+0 0.0000000e+0 1.00000000
vn 1.00000000 0.0000000e+0 0.0000000e+0
g Tantares_SolarBasic_1_4_Tantares_SolarBasic_1_4_auv
usemtl Tantares_SolarBasic_1_4_auv
s 1
f 2/24/14 4/20/20 3/19/17 1/22/11
f 5/23/23 7/18/29 8/17/32 6/21/26
f 9/47/35 26/48/69 25/46/65 10/44/39
f 10/44/40 25/46/66 32/45/94 11/43/44
f 11/52/43 32/50/93 31/49/90 12/51/48
f 12/51/47 31/49/89 30/48/86 13/47/52
f 13/47/51 30/48/85 29/46/82 14/44/56
f 14/44/55 29/46/81 28/45/78 15/43/60
f 15/52/59 28/50/77 27/49/74 16/51/64
f 16/51/63 27/49/73 26/48/70 9/47/36
f 34/39/100 35/37/103 36/35/106 37/36/109 38/38/112 39/40/115 40/42/118 33/41/97
f 42/111/126 44/105/132 43/104/129 41/110/123
f 45/93/135 47/98/141 48/99/144 46/94/138
f 49/86/145 53/73/157 54/72/160 50/84/148
f 52/74/154 56/85/166 55/86/163 51/75/151
s 2
f 1/10/9 5/9/21 6/11/24 2/12/12
f 4/15/18 8/16/30 7/14/27 3/13/15
f 9/57/33 17/65/1 24/67/8 16/59/61
f 10/56/38 18/64/2 17/65/1 9/57/34
f 11/54/42 19/62/3 18/64/2 10/56/37
f 12/58/46 20/66/4 19/68/3 11/60/41
f 13/57/50 21/65/5 20/66/4 12/58/45
f 14/55/54 22/63/6 21/65/5 13/57/49
f 15/53/58 23/61/7 22/63/6 14/55/53
f 16/59/62 24/67/8 23/69/7 15/60/57
f 25/118/68 33/31/99 40/30/120 32/117/96
f 26/119/71 34/32/101 33/31/98 25/118/67
f 27/120/75 35/33/104 34/32/102 26/119/72
f 28/121/79 36/34/107 35/33/105 27/120/76
f 29/113/83 37/26/110 36/25/108 28/112/80
f 30/114/87 38/27/113 37/26/111 29/113/84
f 31/115/91 39/28/116 38/27/114 30/114/88
f 32/116/95 40/29/119 39/28/117 31/115/92
f 41/103/121 45/97/133 46/95/136 42/102/124
f 44/96/130 48/102/142 47/103/139 43/97/127
f 50/92/150 52/83/156 51/82/153 49/91/147
f 53/77/159 55/71/165 56/70/168 54/76/162
s 3
f 2/5/13 6/6/25 8/2/31 4/1/19
f 3/4/16 7/3/28 5/7/22 1/8/10
f 42/107/125 46/101/137 48/100/143 44/106/131
f 43/109/128 47/101/140 45/100/134 41/108/122
f 50/88/149 54/79/161 56/78/167 52/87/155
f 51/89/152 55/80/164 53/81/158 49/90/146
