# Exported from Wings 3D 1.5.4
mtllib Tantares_SolarBasic_1_2.mtl
o Tantares_SolarBasic_1_2
#8 vertices, 6 faces
v -0.50000000 -5.0000000e-3 -0.26500000
v -0.50000000 -5.0000000e-3 5.0000000e-3
v -0.50000000 5.0000000e-3 -0.26500000
v -0.50000000 5.0000000e-3 5.0000000e-3
v 0.50000000 -5.0000000e-3 -0.26500000
v 0.50000000 -5.0000000e-3 5.0000000e-3
v 0.50000000 5.0000000e-3 -0.26500000
v 0.50000000 5.0000000e-3 5.0000000e-3
vt 0.48941520 0.59375000
vt 0.48941520 0.98125000
vt 0.48941520 0.98125000
vt 0.49716520 0.59375000
vt 0.49716520 0.59375000
vt 0.49716520 0.98125000
vt 0.49716520 0.98125000
vt 0.51574555 0.59375000
vt 0.51574555 0.98125000
vt 0.62037055 0.59375000
vt 0.62037055 0.98125000
vt 0.63833526 0.59375000
vt 0.63833526 0.98125000
vt 0.63840129 0.56768278
vt 0.63840129 0.57543278
vt 0.74296026 0.59375000
vt 0.74296026 0.98125000
vt 0.74302629 0.56768278
vt 0.74302629 0.57543278
vn 0.0000000e+0 -1.00000000 0.0000000e+0
vn 0.0000000e+0 0.0000000e+0 -1.00000000
vn -1.00000000 0.0000000e+0 0.0000000e+0
vn 0.0000000e+0 -1.00000000 0.0000000e+0
vn 0.0000000e+0 0.0000000e+0 1.00000000
vn -1.00000000 0.0000000e+0 0.0000000e+0
vn 0.0000000e+0 1.00000000 0.0000000e+0
vn 0.0000000e+0 0.0000000e+0 -1.00000000
vn -1.00000000 0.0000000e+0 0.0000000e+0
vn 0.0000000e+0 1.00000000 0.0000000e+0
vn 0.0000000e+0 0.0000000e+0 1.00000000
vn -1.00000000 0.0000000e+0 0.0000000e+0
vn 0.0000000e+0 -1.00000000 0.0000000e+0
vn 0.0000000e+0 0.0000000e+0 -1.00000000
vn 1.00000000 0.0000000e+0 0.0000000e+0
vn 0.0000000e+0 -1.00000000 0.0000000e+0
vn 0.0000000e+0 0.0000000e+0 1.00000000
vn 1.00000000 0.0000000e+0 0.0000000e+0
vn 0.0000000e+0 1.00000000 0.0000000e+0
vn 0.0000000e+0 0.0000000e+0 -1.00000000
vn 1.00000000 0.0000000e+0 0.0000000e+0
vn 0.0000000e+0 1.00000000 0.0000000e+0
vn 0.0000000e+0 0.0000000e+0 1.00000000
vn 1.00000000 0.0000000e+0 0.0000000e+0
g Tantares_SolarBasic_1_2_Tantares_SolarBasic_1_2_auv
usemtl Tantares_SolarBasic_1_2_auv
s 1
f 2/15/6 4/14/12 3/18/9 1/19/3
f 5/15/15 7/14/21 8/18/24 6/19/18
s 2
f 2/5/5 6/6/17 8/2/23 4/1/11
f 3/3/8 7/1/20 5/4/14 1/7/2
s 3
f 1/9/1 5/8/13 6/10/16 2/11/4
f 4/16/10 8/17/22 7/13/19 3/12/7
