# Exported from Wings 3D 1.5.4
mtllib Alnair_Engine_1_Collider.mtl
o Alnair_Engine_1_Collider2
#32 vertices, 18 faces
v 0.25000000 0.23750000 -4.9728092e-2
v 0.25000000 0.23750000 4.9728092e-2
v 0.21193977 0.23750000 0.14161362
v 0.14161362 0.23750000 0.21193977
v 4.9728092e-2 0.23750000 0.25000000
v -4.9728092e-2 0.23750000 0.25000000
v -0.14161362 0.23750000 0.21193977
v -0.21193977 0.23750000 0.14161362
v -0.25000000 0.23750000 4.9728092e-2
v -0.25000000 0.23750000 -4.9728092e-2
v -0.21193977 0.23750000 -0.14161362
v -0.14161362 0.23750000 -0.21193977
v -4.9728092e-2 0.23750000 -0.25000000
v 4.9728092e-2 0.23750000 -0.25000000
v 0.14161362 0.23750000 -0.21193977
v 0.21193977 0.23750000 -0.14161362
v 0.25000000 0.97500000 4.9728092e-2
v 0.25000000 0.97500000 -4.9728092e-2
v 0.21193977 0.97500000 -0.14161362
v 0.14161362 0.97500000 -0.21193977
v 4.9728092e-2 0.97500000 -0.25000000
v -4.9728092e-2 0.97500000 -0.25000000
v -0.14161362 0.97500000 -0.21193977
v -0.21193977 0.97500000 -0.14161362
v -0.25000000 0.97500000 -4.9728092e-2
v -0.25000000 0.97500000 4.9728092e-2
v -0.21193977 0.97500000 0.14161362
v -0.14161362 0.97500000 0.21193977
v -4.9728092e-2 0.97500000 0.25000000
v 4.9728092e-2 0.97500000 0.25000000
v 0.14161362 0.97500000 0.21193977
v 0.21193977 0.97500000 0.14161362
vn 0.0000000e+0 -1.00000000 -1.2209461e-16
vn 1.00000000 0.0000000e+0 0.0000000e+0
vn 0.92387953 0.0000000e+0 -0.38268343
vn 0.0000000e+0 -1.00000000 -1.2209461e-16
vn 1.00000000 0.0000000e+0 0.0000000e+0
vn 0.92387953 0.0000000e+0 0.38268343
vn 0.0000000e+0 -1.00000000 -1.2209461e-16
vn 0.70710678 0.0000000e+0 0.70710678
vn 0.92387953 0.0000000e+0 0.38268343
vn 0.0000000e+0 -1.00000000 -1.2209461e-16
vn 0.38268343 0.0000000e+0 0.92387953
vn 0.70710678 0.0000000e+0 0.70710678
vn 0.0000000e+0 -1.00000000 -1.2209461e-16
vn 0.0000000e+0 0.0000000e+0 1.00000000
vn 0.38268343 0.0000000e+0 0.92387953
vn 0.0000000e+0 -1.00000000 -1.2209461e-16
vn -0.38268343 0.0000000e+0 0.92387953
vn 0.0000000e+0 0.0000000e+0 1.00000000
vn 0.0000000e+0 -1.00000000 -1.2209461e-16
vn -0.70710678 0.0000000e+0 0.70710678
vn -0.38268343 0.0000000e+0 0.92387953
vn 0.0000000e+0 -1.00000000 -1.2209461e-16
vn -0.92387953 0.0000000e+0 0.38268343
vn -0.70710678 0.0000000e+0 0.70710678
vn 0.0000000e+0 -1.00000000 -1.2209461e-16
vn -1.00000000 0.0000000e+0 2.7907340e-16
vn -0.92387953 0.0000000e+0 0.38268343
vn 0.0000000e+0 -1.00000000 -1.2209461e-16
vn -0.92387953 0.0000000e+0 -0.38268343
vn -1.00000000 0.0000000e+0 2.7907340e-16
vn 0.0000000e+0 -1.00000000 -1.2209461e-16
vn -0.70710678 0.0000000e+0 -0.70710678
vn -0.92387953 0.0000000e+0 -0.38268343
vn 0.0000000e+0 -1.00000000 -1.2209461e-16
vn -0.38268343 0.0000000e+0 -0.92387953
vn -0.70710678 0.0000000e+0 -0.70710678
vn 0.0000000e+0 -1.00000000 -1.2209461e-16
vn 2.7907340e-16 0.0000000e+0 -1.00000000
vn -0.38268343 0.0000000e+0 -0.92387953
vn 0.0000000e+0 -1.00000000 -1.2209461e-16
vn 0.38268343 0.0000000e+0 -0.92387953
vn 2.7907340e-16 0.0000000e+0 -1.00000000
vn 0.0000000e+0 -1.00000000 -1.2209461e-16
vn 0.70710678 0.0000000e+0 -0.70710678
vn 0.38268343 0.0000000e+0 -0.92387953
vn 0.0000000e+0 -1.00000000 -1.2209461e-16
vn 0.92387953 0.0000000e+0 -0.38268343
vn 0.70710678 0.0000000e+0 -0.70710678
vn 0.0000000e+0 1.00000000 0.0000000e+0
vn 1.00000000 0.0000000e+0 0.0000000e+0
vn 0.92387953 0.0000000e+0 0.38268343
vn 0.0000000e+0 1.00000000 0.0000000e+0
vn 1.00000000 0.0000000e+0 0.0000000e+0
vn 0.92387953 0.0000000e+0 -0.38268343
vn 0.0000000e+0 1.00000000 0.0000000e+0
vn 0.92387953 0.0000000e+0 -0.38268343
vn 0.70710678 0.0000000e+0 -0.70710678
vn 0.0000000e+0 1.00000000 0.0000000e+0
vn 0.70710678 0.0000000e+0 -0.70710678
vn 0.38268343 0.0000000e+0 -0.92387953
vn 0.0000000e+0 1.00000000 0.0000000e+0
vn 0.38268343 0.0000000e+0 -0.92387953
vn 2.7907340e-16 0.0000000e+0 -1.00000000
vn 0.0000000e+0 1.00000000 0.0000000e+0
vn 2.7907340e-16 0.0000000e+0 -1.00000000
vn -0.38268343 0.0000000e+0 -0.92387953
vn 0.0000000e+0 1.00000000 0.0000000e+0
vn -0.38268343 0.0000000e+0 -0.92387953
vn -0.70710678 0.0000000e+0 -0.70710678
vn 0.0000000e+0 1.00000000 0.0000000e+0
vn -0.70710678 0.0000000e+0 -0.70710678
vn -0.92387953 0.0000000e+0 -0.38268343
vn 0.0000000e+0 1.00000000 0.0000000e+0
vn -0.92387953 0.0000000e+0 -0.38268343
vn -1.00000000 0.0000000e+0 2.7907340e-16
vn 0.0000000e+0 1.00000000 0.0000000e+0
vn -1.00000000 0.0000000e+0 2.7907340e-16
vn -0.92387953 0.0000000e+0 0.38268343
vn 0.0000000e+0 1.00000000 0.0000000e+0
vn -0.92387953 0.0000000e+0 0.38268343
vn -0.70710678 0.0000000e+0 0.70710678
vn 0.0000000e+0 1.00000000 0.0000000e+0
vn -0.70710678 0.0000000e+0 0.70710678
vn -0.38268343 0.0000000e+0 0.92387953
vn 0.0000000e+0 1.00000000 0.0000000e+0
vn -0.38268343 0.0000000e+0 0.92387953
vn 0.0000000e+0 0.0000000e+0 1.00000000
vn 0.0000000e+0 1.00000000 0.0000000e+0
vn 0.0000000e+0 0.0000000e+0 1.00000000
vn 0.38268343 0.0000000e+0 0.92387953
vn 0.0000000e+0 1.00000000 0.0000000e+0
vn 0.38268343 0.0000000e+0 0.92387953
vn 0.70710678 0.0000000e+0 0.70710678
vn 0.0000000e+0 1.00000000 0.0000000e+0
vn 0.70710678 0.0000000e+0 0.70710678
vn 0.92387953 0.0000000e+0 0.38268343
g Alnair_Engine_1_Collider2_default
usemtl default
s 1
f 1//2 18//53 17//50 2//5
f 3//8 32//95 31//93 4//12
f 5//14 30//89 29//87 6//18
f 7//20 28//83 27//81 8//24
f 9//26 26//77 25//75 10//30
f 12//35 23//68 22//66 13//39
f 14//41 21//62 20//60 15//45
s 2
f 2//6 17//51 32//96 3//9
f 4//11 31//92 30//90 5//15
f 6//17 29//86 28//84 7//21
f 8//23 27//80 26//78 9//27
f 10//29 25//74 24//72 11//33
f 13//38 22//65 21//63 14//42
f 15//44 20//59 19//57 16//48
s 3
f 2//4 3//7 4//10 5//13 6//16 7//19 8//22 9//25 10//28 11//31 12//34 13//37 14//40 15//43 16//46 1//1
f 18//52 19//55 20//58 21//61 22//64 23//67 24//70 25//73 26//76 27//79 28//82 29//85 30//88 31//91 32//94 17//49
s 4
f 11//32 24//71 23//69 12//36
f 16//47 19//56 18//54 1//3
o Alnair_Engine_1_Collider1
#32 vertices, 18 faces
v 0.25000000 0.23750000 -4.9728092e-2
v 0.25000000 0.23750000 4.9728092e-2
v 0.21193977 0.23750000 0.14161362
v 0.14161362 0.23750000 0.21193977
v 4.9728092e-2 0.23750000 0.25000000
v -4.9728092e-2 0.23750000 0.25000000
v -0.14161362 0.23750000 0.21193977
v -0.21193977 0.23750000 0.14161362
v -0.25000000 0.23750000 4.9728092e-2
v -0.25000000 0.23750000 -4.9728092e-2
v -0.21193977 0.23750000 -0.14161362
v -0.14161362 0.23750000 -0.21193977
v -4.9728092e-2 0.23750000 -0.25000000
v 4.9728092e-2 0.23750000 -0.25000000
v 0.14161362 0.23750000 -0.21193977
v 0.21193977 0.23750000 -0.14161362
v 0.46875000 -0.97500000 -9.3240172e-2
v 0.46875000 -0.97500000 9.3240172e-2
v 0.39738706 -0.97500000 0.26552555
v 0.26552555 -0.97500000 0.39738706
v 9.3240172e-2 -0.97500000 0.46875000
v -9.3240172e-2 -0.97500000 0.46875000
v -0.26552555 -0.97500000 0.39738706
v -0.39738706 -0.97500000 0.26552555
v -0.46875000 -0.97500000 9.3240172e-2
v -0.46875000 -0.97500000 -9.3240172e-2
v -0.39738706 -0.97500000 -0.26552555
v -0.26552555 -0.97500000 -0.39738706
v -9.3240172e-2 -0.97500000 -0.46875000
v 9.3240172e-2 -0.97500000 -0.46875000
v 0.26552555 -0.97500000 -0.39738706
v 0.39738706 -0.97500000 -0.26552555
vn 0.0000000e+0 1.00000000 1.9186296e-16
vn 0.90920139 0.17754607 -0.37660355
vn 0.98411249 0.17754607 0.0000000e+0
vn 0.0000000e+0 1.00000000 1.9186296e-16
vn 0.90920139 0.17754607 0.37660355
vn 0.98411249 0.17754607 0.0000000e+0
vn 0.0000000e+0 1.00000000 1.9186296e-16
vn 0.69587262 0.17754607 0.69587262
vn 0.90920139 0.17754607 0.37660355
vn 0.0000000e+0 1.00000000 1.9186296e-16
vn 0.37660355 0.17754607 0.90920139
vn 0.69587262 0.17754607 0.69587262
vn 0.0000000e+0 1.00000000 1.9186296e-16
vn 0.0000000e+0 0.17754607 0.98411249
vn 0.37660355 0.17754607 0.90920139
vn 0.0000000e+0 1.00000000 1.9186296e-16
vn -0.37660355 0.17754607 0.90920139
vn 0.0000000e+0 0.17754607 0.98411249
vn 0.0000000e+0 1.00000000 1.9186296e-16
vn -0.69587262 0.17754607 0.69587262
vn -0.37660355 0.17754607 0.90920139
vn 0.0000000e+0 1.00000000 1.9186296e-16
vn -0.90920139 0.17754607 0.37660355
vn -0.69587262 0.17754607 0.69587262
vn 0.0000000e+0 1.00000000 1.9186296e-16
vn -0.98411249 0.17754607 1.5757002e-16
vn -0.90920139 0.17754607 0.37660355
vn 0.0000000e+0 1.00000000 1.9186296e-16
vn -0.90920139 0.17754607 -0.37660355
vn -0.98411249 0.17754607 1.5757002e-16
vn 0.0000000e+0 1.00000000 1.9186296e-16
vn -0.69587262 0.17754607 -0.69587262
vn -0.90920139 0.17754607 -0.37660355
vn 0.0000000e+0 1.00000000 1.9186296e-16
vn -0.37660355 0.17754607 -0.90920139
vn -0.69587262 0.17754607 -0.69587262
vn 0.0000000e+0 1.00000000 1.9186296e-16
vn 3.1514004e-16 0.17754607 -0.98411249
vn -0.37660355 0.17754607 -0.90920139
vn 0.0000000e+0 1.00000000 1.9186296e-16
vn 0.37660355 0.17754607 -0.90920139
vn 3.1514004e-16 0.17754607 -0.98411249
vn 0.0000000e+0 1.00000000 1.9186296e-16
vn 0.69587262 0.17754607 -0.69587262
vn 0.37660355 0.17754607 -0.90920139
vn 0.0000000e+0 1.00000000 1.9186296e-16
vn 0.90920139 0.17754607 -0.37660355
vn 0.69587262 0.17754607 -0.69587262
vn 0.0000000e+0 -1.00000000 1.9845220e-17
vn 0.90920139 0.17754607 -0.37660355
vn 0.98411249 0.17754607 0.0000000e+0
vn 0.0000000e+0 -1.00000000 1.9845220e-17
vn 0.90920139 0.17754607 0.37660355
vn 0.98411249 0.17754607 0.0000000e+0
vn 0.0000000e+0 -1.00000000 1.9845220e-17
vn 0.69587262 0.17754607 0.69587262
vn 0.90920139 0.17754607 0.37660355
vn 0.0000000e+0 -1.00000000 1.9845220e-17
vn 0.37660355 0.17754607 0.90920139
vn 0.69587262 0.17754607 0.69587262
vn 0.0000000e+0 -1.00000000 1.9845220e-17
vn 0.0000000e+0 0.17754607 0.98411249
vn 0.37660355 0.17754607 0.90920139
vn 0.0000000e+0 -1.00000000 1.9845220e-17
vn -0.37660355 0.17754607 0.90920139
vn 0.0000000e+0 0.17754607 0.98411249
vn 0.0000000e+0 -1.00000000 1.9845220e-17
vn -0.69587262 0.17754607 0.69587262
vn -0.37660355 0.17754607 0.90920139
vn 0.0000000e+0 -1.00000000 1.9845220e-17
vn -0.90920139 0.17754607 0.37660355
vn -0.69587262 0.17754607 0.69587262
vn 0.0000000e+0 -1.00000000 1.9845220e-17
vn -0.98411249 0.17754607 1.5757002e-16
vn -0.90920139 0.17754607 0.37660355
vn 0.0000000e+0 -1.00000000 1.9845220e-17
vn -0.90920139 0.17754607 -0.37660355
vn -0.98411249 0.17754607 1.5757002e-16
vn 0.0000000e+0 -1.00000000 1.9845220e-17
vn -0.69587262 0.17754607 -0.69587262
vn -0.90920139 0.17754607 -0.37660355
vn 0.0000000e+0 -1.00000000 1.9845220e-17
vn -0.37660355 0.17754607 -0.90920139
vn -0.69587262 0.17754607 -0.69587262
vn 0.0000000e+0 -1.00000000 1.9845220e-17
vn 3.1514004e-16 0.17754607 -0.98411249
vn -0.37660355 0.17754607 -0.90920139
vn 0.0000000e+0 -1.00000000 1.9845220e-17
vn 0.37660355 0.17754607 -0.90920139
vn 3.1514004e-16 0.17754607 -0.98411249
vn 0.0000000e+0 -1.00000000 1.9845220e-17
vn 0.69587262 0.17754607 -0.69587262
vn 0.37660355 0.17754607 -0.90920139
vn 0.0000000e+0 -1.00000000 1.9845220e-17
vn 0.90920139 0.17754607 -0.37660355
vn 0.69587262 0.17754607 -0.69587262
g Alnair_Engine_1_Collider1_default
usemtl default
s 1
f 33//98 49//146 64//191 48//143
f 35//105 51//153 50//149 34//101
f 37//111 53//159 52//155 36//107
f 39//117 55//165 54//161 38//113
f 41//123 57//171 56//167 40//119
f 44//132 60//180 59//176 43//128
f 46//138 62//186 61//182 45//134
s 2
f 34//102 50//150 49//147 33//99
f 36//108 52//156 51//152 35//104
f 38//114 54//162 53//158 37//110
f 40//120 56//168 55//164 39//116
f 42//126 58//174 57//170 41//122
f 45//135 61//183 60//179 44//131
f 47//141 63//189 62//185 46//137
s 3
f 33//97 48//142 47//139 46//136 45//133 44//130 43//127 42//124 41//121 40//118 39//115 38//112 37//109 36//106 35//103 34//100
f 50//148 51//151 52//154 53//157 54//160 55//163 56//166 57//169 58//172 59//175 60//178 61//181 62//184 63//187 64//190 49//145
s 4
f 43//129 59//177 58//173 42//125
f 48//144 64//192 63//188 47//140
