# Blender v2.92.0 OBJ File: 'Pharmacy_box.blend'
# www.blender.org
mtllib Pharmacy_box.mtl
o pharmacy_box_Cube
v -0.114167 0.000000 0.125000
v -0.118434 0.000000 0.123232
v -0.123232 0.000000 0.118434
v -0.125000 0.000000 0.114167
v -0.125000 0.000000 -0.114167
v -0.123232 0.000000 -0.118434
v -0.118434 0.000000 -0.123232
v -0.114167 0.000000 -0.125000
v 0.125000 0.000000 0.114167
v 0.123232 0.000000 0.118434
v 0.118434 0.000000 0.123232
v 0.114167 0.000000 0.125000
v 0.114167 0.000000 -0.125000
v 0.118434 0.000000 -0.123232
v 0.123232 0.000000 -0.118434
v 0.125000 0.000000 -0.114167
v -0.125000 0.141318 0.114167
v -0.123232 0.141318 0.118434
v -0.118434 0.141318 0.123232
v -0.114167 0.141318 0.125000
v -0.114167 0.141318 -0.125000
v -0.118434 0.141318 -0.123232
v -0.123232 0.141318 -0.118434
v -0.125000 0.141318 -0.114167
v 0.114167 0.141318 0.125000
v 0.118434 0.141318 0.123232
v 0.123232 0.141318 0.118434
v 0.125000 0.141318 0.114167
v 0.125000 0.141318 -0.114167
v 0.123232 0.141318 -0.118434
v 0.118434 0.141318 -0.123232
v 0.114167 0.141318 -0.125000
v -0.056042 0.000000 0.125000
v 0.056042 0.000000 0.125000
v -0.056042 0.141318 0.125000
v 0.056042 0.141318 0.125000
v -0.125000 0.123007 0.114167
v -0.125000 0.123007 -0.114167
v -0.123232 0.123007 0.118434
v -0.118434 0.123007 0.123232
v -0.114167 0.123007 0.125000
v 0.114167 0.123007 0.125000
v -0.114167 0.123007 -0.125000
v -0.118434 0.123007 -0.123232
v 0.114167 0.123007 -0.125000
v -0.123232 0.123007 -0.118434
v 0.118434 0.123007 0.123232
v 0.123232 0.123007 0.118434
v 0.125000 0.123007 0.114167
v 0.125000 0.123007 -0.114167
v 0.123232 0.123007 -0.118434
v 0.118434 0.123007 -0.123232
v 0.056042 0.123007 0.125000
v -0.056042 0.123007 0.125000
v -0.056042 0.141318 0.097033
v 0.056042 0.141318 0.097033
v 0.056042 0.123007 0.097033
v -0.056042 0.123007 0.097033
v 0.000000 0.000000 -0.125000
v 0.000000 0.141318 -0.125000
v 0.000000 0.000000 0.125000
v 0.000000 0.123007 0.125000
v 0.000000 0.123007 -0.125000
v 0.000000 0.141318 0.097033
v 0.000000 0.123007 0.097033
v -0.077347 0.118717 -0.125000
v -0.052727 0.118717 -0.125000
v -0.077347 0.127297 -0.125000
v -0.052727 0.127297 -0.125000
v -0.077347 0.126041 -0.128033
v -0.052727 0.126041 -0.128033
v -0.077347 0.123007 -0.129290
v -0.052727 0.123007 -0.129290
v -0.077347 0.119974 -0.128033
v -0.052727 0.119974 -0.128033
v 0.077347 0.118717 -0.125000
v 0.052727 0.118717 -0.125000
v 0.077347 0.127297 -0.125000
v 0.052727 0.127297 -0.125000
v 0.077347 0.126041 -0.128033
v 0.052727 0.126041 -0.128033
v 0.077347 0.123007 -0.129290
v 0.052727 0.123007 -0.129290
v 0.077347 0.119974 -0.128033
v 0.052727 0.119974 -0.128033
vt 0.024335 0.944660
vt 0.016838 0.929667
vt 0.031003 0.950184
vt 0.014076 0.916330
vt 0.121823 0.256330
vt 0.024335 0.944660
vt 0.031003 0.950184
vt 0.016838 0.929667
vt 0.014076 0.916330
vt 0.014076 0.202789
vt 0.016838 0.189452
vt 0.014076 0.202789
vt 0.024334 0.174459
vt 0.121823 0.256330
vt 0.031003 0.168935
vt 0.121823 0.168935
vt 0.031003 0.168935
vt 0.016838 0.189452
vt 0.121823 0.168935
vt 0.024335 0.174459
vt 0.209388 0.950184
vt 0.209388 0.256330
vt 0.937048 0.903123
vt 0.965658 0.903123
vt 0.965658 0.917559
vt 0.937048 0.917559
vt 0.937048 0.938762
vt 0.744849 0.938761
vt 0.744849 0.917558
vt 0.937047 0.189581
vt 0.965657 0.189581
vt 0.965659 0.903122
vt 0.937049 0.903122
vt 0.937049 0.953197
vt 0.744850 0.953198
vt 0.744850 0.938763
vt 0.937049 0.938762
vt 0.965659 0.917558
vt 0.937049 0.917558
vt 0.937048 0.139507
vt 0.965658 0.139507
vt 0.965658 0.153942
vt 0.937048 0.153943
vt 0.245490 0.168934
vt 0.245490 0.950183
vt 0.423875 0.950183
vt 0.430544 0.944659
vt 0.438040 0.929666
vt 0.440803 0.916324
vt 0.440802 0.202789
vt 0.438040 0.189452
vt 0.430544 0.174459
vt 0.423875 0.168934
vt 0.333055 0.168934
vt 0.744850 0.917559
vt 0.664902 0.350574
vt 0.693512 0.350574
vt 0.693512 0.168934
vt 0.664902 0.168934
vt 0.937047 0.175146
vt 0.744848 0.175147
vt 0.744848 0.153943
vt 0.937047 0.153942
vt 0.937048 0.189581
vt 0.744849 0.189581
vt 0.744849 0.175145
vt 0.937048 0.175146
vt 0.664902 0.593412
vt 0.664902 0.950182
vt 0.472704 0.950182
vt 0.472704 0.593412
vt 0.937047 0.139506
vt 0.965657 0.139506
vt 0.965657 0.153942
vt 0.744848 0.189583
vt 0.965658 0.175146
vt 0.965658 0.189581
vt 0.937048 0.953197
vt 0.744849 0.953197
vt 0.664902 0.168934
vt 0.693512 0.168934
vt 0.693512 0.350574
vt 0.664902 0.350574
vt 0.604191 0.096287
vt 0.604191 0.039067
vt 0.560494 0.039067
vt 0.560494 0.096287
vt 0.472704 0.525705
vt 0.664902 0.525705
vt 0.472704 0.350574
vt 0.472704 0.168934
vt 0.472704 0.350574
vt 0.965658 0.953198
vt 0.965658 0.938762
vt 0.744849 0.903123
vt 0.744849 0.153942
vt 0.965657 0.175145
vt 0.744848 0.139508
vt 0.693512 0.593412
vt 0.693512 0.950182
vt 0.472704 0.168934
vt 0.965659 0.938761
vt 0.744849 0.139507
vt 0.744850 0.903124
vt 0.965659 0.953197
vt 0.472928 0.096287
vt 0.472928 0.039067
vt 0.560494 0.039067
vt 0.560494 0.096287
vt 0.604191 0.039067
vt 0.604191 0.096287
vt 0.245285 0.037993
vt 0.332851 0.037993
vt 0.332851 0.125389
vt 0.245285 0.125389
vt 0.332851 0.037993
vt 0.332851 0.125389
vt 0.693512 0.950182
vt 0.664903 0.950182
vt 0.472704 0.950182
vt 0.423876 0.168934
vt 0.430544 0.174459
vt 0.438041 0.189452
vt 0.440803 0.202788
vt 0.440803 0.916329
vt 0.438041 0.929666
vt 0.430544 0.944659
vt 0.423876 0.950183
vt 0.333056 0.168934
vt 0.050227 0.057320
vt 0.088696 0.057320
vt 0.088696 0.067581
vt 0.050227 0.067581
vt 0.088696 0.077841
vt 0.050227 0.077841
vt 0.088696 0.088101
vt 0.050227 0.088101
vt 0.088696 0.098361
vt 0.050227 0.098361
vt 0.104084 0.087646
vt 0.099344 0.091572
vt 0.099344 0.064761
vt 0.104084 0.068688
vt 0.106047 0.078167
vt 0.099344 0.064761
vt 0.104084 0.068688
vt 0.106047 0.078167
vt 0.104084 0.087646
vt 0.099344 0.091572
vt 0.088696 0.057320
vt 0.088696 0.067581
vt 0.050227 0.067581
vt 0.050227 0.057320
vt 0.088696 0.077841
vt 0.050227 0.077841
vt 0.088696 0.088101
vt 0.050227 0.088101
vt 0.088696 0.098361
vt 0.050227 0.098361
vt 0.104084 0.068688
vt 0.106047 0.078167
vt 0.104084 0.087646
vt 0.099344 0.091573
vt 0.099344 0.064761
vt 0.099344 0.091572
vt 0.099344 0.064761
vt 0.104084 0.068688
vt 0.106047 0.078167
vt 0.104084 0.087646
vn 0.0000 1.0000 0.0000
vn -0.9808 -0.0000 -0.1951
vn -0.8315 0.0000 -0.5556
vn -0.5556 0.0000 -0.8315
vn 0.9808 0.0000 -0.1951
vn 0.9808 0.0000 0.1951
vn 0.1951 -0.0000 0.9808
vn 0.5556 -0.0000 0.8315
vn 0.8315 0.0000 0.5556
vn -0.1951 -0.0000 0.9808
vn -0.5556 0.0000 0.8315
vn 0.0000 -1.0000 0.0000
vn 0.0000 -0.0000 1.0000
vn 0.8315 0.0000 -0.5556
vn 0.5556 0.0000 -0.8315
vn -0.9808 -0.0000 0.1951
vn -0.8315 -0.0000 0.5556
vn 0.0000 0.0000 -1.0000
vn 0.1951 0.0000 -0.9808
vn -0.1951 0.0000 -0.9808
vn -1.0000 0.0000 0.0000
vn 1.0000 0.0000 0.0000
vn 0.0000 0.9239 -0.3827
vn 0.0000 0.7071 -0.7071
vn 0.0000 -0.7071 -0.7071
vn 0.0000 -0.9239 -0.3827
usemtl None
s off
f 22/1/1 23/2/1 21/3/1
f 21/3/1 24/4/1 55/5/1
f 31/6/1 32/7/1 30/8/1
f 30/8/1 32/7/1 29/9/1
f 17/10/1 55/5/1 24/4/1
f 27/11/1 28/12/1 26/13/1
f 29/9/1 32/7/1 56/14/1
f 56/14/1 28/12/1 29/9/1
f 17/10/1 20/15/1 55/5/1
f 36/16/1 25/17/1 56/14/1
f 18/18/1 20/15/1 17/10/1
f 20/15/1 35/19/1 55/5/1
f 19/20/1 20/15/1 18/18/1
f 25/17/1 28/12/1 56/14/1
f 23/2/1 24/4/1 21/3/1
f 28/12/1 25/17/1 26/13/1
f 60/21/1 21/3/1 55/5/1 64/22/1
f 32/7/1 60/21/1 64/22/1 56/14/1
s 1
f 38/23/2 24/24/2 23/25/3 46/26/3
f 44/27/4 7/28/4 6/29/3 46/26/3
f 50/30/5 29/31/5 28/32/6 49/33/6
f 42/34/7 12/35/7 11/36/8 47/37/8
f 49/33/6 28/32/6 27/38/9 48/39/9
f 41/40/10 20/41/10 19/42/11 40/43/11
f 61/44/12 59/45/12 13/46/12 14/47/12 15/48/12 16/49/12 9/50/12 10/51/12 11/52/12 12/53/12 34/54/12
f 47/37/8 11/36/8 10/55/9 48/39/9
f 54/56/13 35/57/13 20/58/10 41/59/10
f 51/60/14 15/61/14 14/62/15 52/63/15
f 37/64/16 4/65/16 3/66/17 39/67/17
f 63/68/18 45/69/19 13/70/19 59/71/18
f 45/72/19 32/73/19 31/74/15 52/63/15
f 50/30/5 16/75/5 15/61/14 51/60/14
f 40/43/11 19/42/11 18/76/17 39/67/17
f 37/64/16 17/77/16 24/24/2 38/23/2
f 43/78/20 8/79/20 7/28/4 44/27/4
f 42/80/7 25/81/7 36/82/13 53/83/13
f 53/84/21 36/85/21 56/86/21 57/87/21
f 61/88/13 62/89/13 54/56/13 33/90/13
f 12/91/7 42/80/7 53/83/13 34/92/13
f 21/93/20 43/78/20 44/27/4 22/94/4
f 4/65/16 37/64/16 38/23/2 5/95/2
f 2/96/11 40/43/11 39/67/17 3/66/17
f 29/31/5 50/30/5 51/60/14 30/97/14
f 13/98/19 45/72/19 52/63/15 14/62/15
f 60/99/18 32/100/19 45/69/19 63/68/18
f 17/77/16 37/64/16 39/67/17 18/76/17
f 30/97/14 51/60/14 52/63/15 31/74/15
f 33/90/13 54/56/13 41/59/10 1/101/10
f 26/102/8 47/37/8 48/39/9 27/38/9
f 1/103/10 41/40/10 40/43/11 2/96/11
f 9/104/6 49/33/6 48/39/9 10/55/9
f 25/105/7 42/34/7 47/37/8 26/102/8
f 16/75/5 50/30/5 49/33/6 9/104/6
f 22/94/4 44/27/4 46/26/3 23/25/3
f 5/95/2 38/23/2 46/26/3 6/29/3
f 65/106/13 64/107/13 55/108/13 58/109/13
f 35/110/22 54/111/22 58/109/22 55/108/22
f 62/112/1 53/113/1 57/114/1 65/115/1
f 54/116/1 62/112/1 65/115/1 58/117/1
f 57/87/13 56/86/13 64/107/13 65/106/13
f 21/118/20 60/99/18 63/68/18 43/119/20
f 34/92/13 53/83/13 62/89/13 61/88/13
f 43/119/20 63/68/18 59/71/18 8/120/20
f 1/121/12 2/122/12 3/123/12 4/124/12 5/125/12 6/126/12 7/127/12 8/128/12 59/45/12 61/44/12 33/129/12
f 68/130/23 69/131/23 71/132/24 70/133/24
f 70/133/24 71/132/24 73/134/18 72/135/18
f 72/135/18 73/134/18 75/136/25 74/137/25
f 74/137/25 75/136/25 67/138/26 66/139/26
f 71/140/22 69/141/22 67/142/22 75/143/22 73/144/22
f 68/145/21 70/146/21 72/147/21 74/148/21 66/149/21
f 78/150/23 80/151/24 81/152/24 79/153/23
f 80/151/24 82/154/18 83/155/18 81/152/24
f 82/154/18 84/156/25 85/157/25 83/155/18
f 84/156/25 76/158/26 77/159/26 85/157/25
f 81/160/21 83/161/21 85/162/21 77/163/21 79/164/21
f 78/165/22 76/166/22 84/167/22 82/168/22 80/169/22
