# Exported from Wings 3D 1.5.4
mtllib Eridani_Antenna_1_Arm.mtl
o Eridani_Antenna_1_Arm
#16 vertices, 8 faces
v 1.2500000e-2 2.7755576e-17 -0.50000000
v 8.8388348e-3 8.8388348e-3 -0.50000000
v 2.0881215e-18 1.2500000e-2 -0.50000000
v -8.8388348e-3 8.8388348e-3 -0.50000000
v -1.2500000e-2 2.7755576e-17 -0.50000000
v -8.8388348e-3 -8.8388348e-3 -0.50000000
v -9.7350555e-19 -1.2500000e-2 -0.50000000
v 8.8388348e-3 -8.8388348e-3 -0.50000000
v 1.2500000e-2 0.0000000e+0 0.0000000e+0
v 8.8388348e-3 8.8388348e-3 0.0000000e+0
v 2.0881215e-18 1.2500000e-2 0.0000000e+0
v -8.8388348e-3 8.8388348e-3 0.0000000e+0
v -1.2500000e-2 0.0000000e+0 0.0000000e+0
v -8.8388348e-3 -8.8388348e-3 0.0000000e+0
v -9.7350555e-19 -1.2500000e-2 0.0000000e+0
v 8.8388348e-3 -8.8388348e-3 0.0000000e+0
vt 0.85084505 0.90078968
vt 0.85084505 0.98517266
vt 0.85084505 0.90078968
vt 0.85084505 0.90078968
vt 0.85084505 0.98517266
vt 0.85084505 0.98517266
vt 0.85167056 0.90078968
vt 0.85167056 0.98517266
vt 0.85167056 0.90078968
vt 0.85167056 0.90078968
vt 0.85167056 0.98517266
vt 0.85167056 0.98517266
vt 0.85249607 0.90078968
vt 0.85249607 0.90078968
vt 0.85249607 0.98517266
vt 0.85249607 0.90078968
vt 0.85249607 0.90078968
vt 0.85249607 0.98517266
vt 0.85249607 0.98517266
vn 1.00000000 2.1029693e-16 -5.7498503e-18
vn 1.00000000 2.1029693e-16 -5.7498503e-18
vn 0.70710678 0.70710678 3.3349132e-17
vn 0.70710678 0.70710678 3.3349132e-17
vn 6.0084837e-17 1.00000000 5.5198563e-17
vn 6.0084837e-17 1.00000000 5.5198563e-17
vn -0.70710678 0.70710678 3.3349132e-17
vn -0.70710678 0.70710678 3.3349132e-17
vn -1.00000000 4.5063628e-16 -5.7498503e-18
vn -1.00000000 4.5063628e-16 -5.7498503e-18
vn -0.70710678 -0.70710678 -3.9098982e-17
vn -0.70710678 -0.70710678 -3.9098982e-17
vn 0.0000000e+0 -1.00000000 -5.5198563e-17
vn 0.0000000e+0 -1.00000000 -5.5198563e-17
vn 0.70710678 -0.70710678 -3.9098982e-17
vn 0.70710678 -0.70710678 -3.9098982e-17
vn 1.00000000 2.1029693e-16 -5.7498503e-18
vn 1.00000000 2.1029693e-16 -5.7498503e-18
vn 0.70710678 0.70710678 3.3349132e-17
vn 0.70710678 0.70710678 3.3349132e-17
vn 6.0084837e-17 1.00000000 5.5198563e-17
vn 6.0084837e-17 1.00000000 5.5198563e-17
vn -0.70710678 0.70710678 3.3349132e-17
vn -0.70710678 0.70710678 3.3349132e-17
vn -1.00000000 4.5063628e-16 -5.7498503e-18
vn -1.00000000 4.5063628e-16 -5.7498503e-18
vn -0.70710678 -0.70710678 -3.9098982e-17
vn -0.70710678 -0.70710678 -3.9098982e-17
vn 0.0000000e+0 -1.00000000 -5.5198563e-17
vn 0.0000000e+0 -1.00000000 -5.5198563e-17
vn 0.70710678 -0.70710678 -3.9098982e-17
vn 0.70710678 -0.70710678 -3.9098982e-17
g Eridani_Antenna_1_Arm_Eridani_Antenna_1_Arm_auv
usemtl Eridani_Antenna_1_Arm_auv
s 2
f 1/6/1 9/4/17 16/10/31 8/12/15
f 2/11/4 10/9/20 9/16/18 1/18/2
f 3/5/6 11/3/22 10/9/19 2/11/3
f 4/8/8 12/7/24 11/13/21 3/15/5
f 5/2/10 13/1/26 12/7/23 4/8/7
f 6/10/12 14/12/28 13/6/25 5/4/9
f 7/14/14 15/19/30 14/12/27 6/10/11
f 8/12/16 16/10/32 15/17/29 7/19/13
