# Exported from Wings 3D 1.5.4
mtllib Eridani_Antenna_1_Arm.mtl
o Eridani_Antenna_1_Arm
#16 vertices, 8 faces
v 1.2500000e-2 1.7277089e-17 0.0000000e+0
v 8.8388348e-3 -8.8388348e-3 0.0000000e+0
v 1.4592936e-18 -1.2500000e-2 0.0000000e+0
v -8.8388348e-3 -8.8388348e-3 0.0000000e+0
v -1.2500000e-2 1.5746280e-17 0.0000000e+0
v -8.8388348e-3 8.8388348e-3 0.0000000e+0
v -1.6023234e-18 1.2500000e-2 -5.5511151e-17
v 8.8388348e-3 8.8388348e-3 0.0000000e+0
v 1.2500000e-2 1.5746280e-17 -0.62500000
v 8.8388348e-3 -8.8388348e-3 -0.62500000
v 1.4592936e-18 -1.2500000e-2 -0.62500000
v -8.8388348e-3 -8.8388348e-3 -0.62500000
v -1.2500000e-2 1.4215472e-17 -0.62500000
v -8.8388348e-3 8.8388348e-3 -0.62500000
v -1.6023234e-18 1.2500000e-2 -0.62500000
v 8.8388348e-3 8.8388348e-3 -0.62500000
vt 0.38107867 5.1933113e-2
vt 0.38107867 0.94806689
vt 0.38107867 5.1933113e-2
vt 0.38107867 0.94806689
vt 0.38107867 5.1933113e-2
vt 0.38107867 0.94806689
vt 0.38107867 0.94806689
vt 0.39758889 5.1933113e-2
vt 0.39758889 0.94806689
vt 0.39758889 5.1933113e-2
vt 0.39758889 5.1933113e-2
vt 0.39758889 0.94806689
vt 0.41409911 5.1933113e-2
vt 0.41409911 0.94806689
vn 1.00000000 -3.0042419e-17 3.0665868e-19
vn 0.70710678 -0.70710678 3.0665868e-18
vn 6.0084837e-17 -1.00000000 3.6799042e-18
vn -0.70710678 -0.70710678 2.1466108e-18
vn -1.00000000 -1.2016967e-16 -3.0665868e-19
vn -0.70710678 0.70710678 -3.6799042e-18
vn -1.8025451e-16 1.00000000 -4.9065389e-18
vn 0.70710678 0.70710678 -2.7599282e-18
vn 1.00000000 -3.0042419e-17 3.0665868e-19
vn 0.70710678 -0.70710678 3.0665868e-18
vn 6.0084837e-17 -1.00000000 3.6799042e-18
vn -0.70710678 -0.70710678 2.1466108e-18
vn -1.00000000 -1.2016967e-16 -3.0665868e-19
vn -0.70710678 0.70710678 -3.6799042e-18
vn -1.8025451e-16 1.00000000 -4.9065389e-18
vn 0.70710678 0.70710678 -2.7599282e-18
g Eridani_Antenna_1_Arm_Eridani_Antenna_1_Arm_auv
usemtl Eridani_Antenna_1_Arm_auv
s 1
f 1/11/1 9/12/9 16/4/16 8/5/8
f 2/13/2 10/14/10 9/12/9 1/11/1
f 3/11/3 11/12/11 10/6/10 2/5/2
f 4/13/4 12/14/12 11/12/11 3/11/3
f 5/12/5 13/10/13 12/13/12 4/14/4
f 6/7/6 14/3/14 13/10/13 5/12/5
f 7/8/7 15/9/15 14/2/14 6/1/6
f 8/13/8 16/14/16 15/9/15 7/8/7
