# Exported from Wings 3D 1.5.4
mtllib Eridani_Antenna_1.mtl
o Eridani_Antenna_1
#74 vertices, 74 faces
v 1.2500000e-2 5.5647172e-17 -2.8750000e-2
v 8.8388348e-3 -8.8388348e-3 -2.8750000e-2
v 5.7333757e-17 -1.2500000e-2 -2.8750000e-2
v -8.8388348e-3 -8.8388348e-3 -2.8750000e-2
v -1.2500000e-2 5.1691155e-17 -2.8750000e-2
v -8.8388348e-3 8.8388348e-3 -2.8750000e-2
v 5.1846932e-17 1.2500000e-2 -2.8750000e-2
v 8.8388348e-3 8.8388348e-3 -2.8750000e-2
v 4.4194174e-3 4.4194174e-3 -0.12250000
v 6.2500000e-3 5.5741365e-17 -0.12250000
v 4.4194174e-3 -4.4194174e-3 -0.12250000
v 5.9556859e-17 -6.2500000e-3 -0.12250000
v -4.4194174e-3 -4.4194174e-3 -0.12250000
v -6.2500000e-3 5.3763357e-17 -0.12250000
v -4.4194174e-3 4.4194174e-3 -0.12250000
v 5.6813447e-17 6.2500000e-3 -0.12250000
v 6.6291261e-3 6.6291261e-3 -7.5625000e-2
v 5.4330189e-17 9.3750000e-3 -7.5625000e-2
v -6.6291261e-3 6.6291261e-3 -7.5625000e-2
v -9.3750000e-3 5.2727256e-17 -7.5625000e-2
v -6.6291261e-3 -6.6291261e-3 -7.5625000e-2
v 5.8445308e-17 -9.3750000e-3 -7.5625000e-2
v 6.6291261e-3 -6.6291261e-3 -7.5625000e-2
v 9.3750000e-3 5.5694269e-17 -7.5625000e-2
v 2.5000000e-2 1.8051243e-17 3.4694470e-18
v 1.7677670e-2 -1.7677670e-2 3.4694470e-18
v 1.1201892e-17 -2.5000000e-2 3.4694470e-18
v -1.7677670e-2 -1.7677670e-2 3.4694470e-18
v -2.5000000e-2 1.4989626e-17 3.4694470e-18
v -1.7677670e-2 1.7677670e-2 3.4694470e-18
v 5.0786579e-18 2.5000000e-2 0.0000000e+0
v 1.7677670e-2 1.7677670e-2 3.4694470e-18
v 3.1250000e-2 1.3778473e-17 -2.2500000e-2
v 2.2097087e-2 -2.2097087e-2 -2.2500000e-2
v -5.8639181e-17 -3.1250000e-2 -2.2500000e-2
v -2.2097087e-2 -2.2097087e-2 -2.2500000e-2
v -3.1250000e-2 9.9514521e-18 -2.2500000e-2
v -2.2097087e-2 2.2097087e-2 -2.2500000e-2
v -6.6293223e-17 3.1250000e-2 -2.2500000e-2
v 2.2097087e-2 2.2097087e-2 -2.2500000e-2
v 6.2500000e-2 6.8075437e-17 -2.2500000e-2
v 5.7742471e-2 -2.3917715e-2 -2.2500000e-2
v 4.4194174e-2 -4.4194174e-2 -2.2500000e-2
v 2.3917715e-2 -5.7742471e-2 -2.2500000e-2
v 6.3233047e-17 -6.2500000e-2 -2.2500000e-2
v -2.3917715e-2 -5.7742471e-2 -2.2500000e-2
v -4.4194174e-2 -4.4194174e-2 -2.2500000e-2
v -5.7742471e-2 -2.3917715e-2 -2.2500000e-2
v -6.2500000e-2 6.0112639e-17 -2.2500000e-2
v -5.7742471e-2 2.3917715e-2 -2.2500000e-2
v -4.4194174e-2 4.4194174e-2 -2.2500000e-2
v -2.3917715e-2 5.7742471e-2 -2.2500000e-2
v 4.7616208e-17 6.2500000e-2 -2.2500000e-2
v 2.3917715e-2 5.7742471e-2 -2.2500000e-2
v 4.4194174e-2 4.4194174e-2 -2.2500000e-2
v 5.7742471e-2 2.3917715e-2 -2.2500000e-2
v 6.2500000e-2 6.0436832e-17 -2.8750000e-2
v 5.7742471e-2 -2.3917715e-2 -2.8750000e-2
v 4.4194174e-2 -4.4194174e-2 -2.8750000e-2
v 2.3917715e-2 -5.7742471e-2 -2.8750000e-2
v 6.3233047e-17 -6.2500000e-2 -2.8750000e-2
v -2.3917715e-2 -5.7742471e-2 -2.8750000e-2
v -4.4194174e-2 -4.4194174e-2 -2.8750000e-2
v -5.7742471e-2 -2.3917715e-2 -2.8750000e-2
v -6.2500000e-2 5.2474035e-17 -2.8750000e-2
v -5.7742471e-2 2.3917715e-2 -2.8750000e-2
v -4.4194174e-2 4.4194174e-2 -2.8750000e-2
v -2.3917715e-2 5.7742471e-2 -2.8750000e-2
v 4.7616208e-17 6.2500000e-2 -2.8750000e-2
v 2.3917715e-2 5.7742471e-2 -2.8750000e-2
v 4.4194174e-2 4.4194174e-2 -2.8750000e-2
v 5.7742471e-2 2.3917715e-2 -2.8750000e-2
v 5.7245875e-17 7.1273001e-17 -2.2500000e-2
v 5.8113236e-17 6.1149003e-17 -2.8750000e-2
vt 4.8944145e-2 0.13633392
vt 4.8944145e-2 0.13633392
vt 4.8944145e-2 0.13633392
vt 4.8944145e-2 0.13633392
vt 4.9094231e-2 0.54822402
vt 4.9094231e-2 0.85281766
vt 5.2575957e-2 0.21072784
vt 5.2575957e-2 0.21072784
vt 5.2575957e-2 0.21072784
vt 5.3596181e-2 0.34483782
vt 5.6207769e-2 0.28564333
vt 5.6207769e-2 0.28564333
vt 5.6207769e-2 0.28564333
vt 5.6207769e-2 0.28564333
vt 5.6488564e-2 0.33785499
vt 5.6488564e-2 0.35182065
vt 5.6611288e-2 0.81502686
vt 5.6611288e-2 0.89060846
vt 5.6611288e-2 0.51043322
vt 5.6611288e-2 0.58601482
vt 6.3471393e-2 0.13633392
vt 6.3471393e-2 0.21072784
vt 6.3471393e-2 0.13633392
vt 6.3471393e-2 0.13633392
vt 6.3471393e-2 0.21072784
vt 6.3471393e-2 0.21072784
vt 6.3471393e-2 0.28564333
vt 6.3471393e-2 0.28564333
vt 6.3471393e-2 0.33496261
vt 6.3471393e-2 0.35471303
vt 6.3471393e-2 0.13633392
vt 6.3471393e-2 0.21072784
vt 6.3471393e-2 0.28564333
vt 6.3471393e-2 0.28564333
vt 7.0454222e-2 0.33785499
vt 7.0454222e-2 0.35182065
vt 7.0735017e-2 0.28564333
vt 7.0735017e-2 0.28564333
vt 7.0735017e-2 0.28564333
vt 7.0735017e-2 0.28564333
vt 7.3346605e-2 0.34483782
vt 7.4366829e-2 0.21072784
vt 7.4366829e-2 0.21072784
vt 7.4366829e-2 0.21072784
vt 7.4490156e-2 0.69118318
vt 7.4490156e-2 0.70674438
vt 7.4490156e-2 0.69118318
vt 7.4490156e-2 0.70674438
vt 7.4490156e-2 0.69118318
vt 7.4490156e-2 0.70674438
vt 7.7998641e-2 0.13633392
vt 7.7998641e-2 0.13633392
vt 7.7998641e-2 0.13633392
vt 7.7998641e-2 0.13633392
vt 7.8018056e-2 0.78298937
vt 7.8018056e-2 0.92264595
vt 7.8018056e-2 0.47839573
vt 7.8018056e-2 0.61805231
vt 0.10814626 0.69118318
vt 0.10814626 0.70674438
vt 0.10814626 0.69118318
vt 0.10814626 0.69118318
vt 0.10814626 0.70674438
vt 0.10814626 0.70674438
vt 0.10814626 0.69118318
vt 0.10814626 0.70674438
vt 0.11005555 0.76158260
vt 0.11005555 0.94405272
vt 0.11005555 0.63945908
vt 0.11005555 0.45698896
vt 0.14477012 0.30386227
vt 0.14784635 0.69118318
vt 0.14784635 0.69118318
vt 0.14784635 0.70674438
vt 0.14784635 0.70674438
vt 0.14784635 0.75406554
vt 0.14784635 0.85281766
vt 0.14784635 0.95156978
vt 0.14784635 0.44947190
vt 0.14784635 0.54822402
vt 0.14784635 0.64697614
vt 0.14784635 0.69118318
vt 0.14784635 0.70674438
vt 0.15923203 0.26894813
vt 0.15923203 0.33877642
vt 0.17565301 0.13349836
vt 0.17565301 0.20614637
vt 0.17565301 0.13349836
vt 0.17565301 0.16982236
vt 0.17565301 0.20614637
vt 0.17565301 0.16982236
vt 0.17565301 0.13349836
vt 0.17565301 0.16982236
vt 0.17565301 0.20614637
vt 0.17565301 0.13349836
vt 0.17565301 0.16982236
vt 0.17565301 0.20614637
vt 0.18563715 0.76158260
vt 0.18563715 0.94405272
vt 0.18563715 0.45698896
vt 0.18563715 0.63945908
vt 0.18754643 0.69118318
vt 0.18754643 0.69118318
vt 0.18754643 0.70674438
vt 0.18754643 0.69118318
vt 0.18754643 0.70674438
vt 0.19414618 0.25448621
vt 0.19414618 0.35323833
vt 0.21263934 0.13349836
vt 0.21263934 0.16982236
vt 0.21263934 0.20614637
vt 0.21263934 0.13349836
vt 0.21263934 0.16982236
vt 0.21263934 0.13349836
vt 0.21263934 0.16982236
vt 0.21263934 0.20614637
vt 0.21263934 0.20614637
vt 0.21263934 0.13349836
vt 0.21263934 0.16982236
vt 0.21263934 0.20614637
vt 0.21767464 0.47839573
vt 0.21767464 0.61805231
vt 0.21767464 0.78298937
vt 0.21767464 0.92264595
vt 0.22120254 0.69118318
vt 0.22120254 0.70674438
vt 0.22120254 0.69118318
vt 0.22120254 0.69118318
vt 0.22120254 0.70674438
vt 0.22120254 0.70674438
vt 0.22120254 0.69118318
vt 0.22120254 0.70674438
vt 0.22906032 0.26894813
vt 0.22906032 0.33877642
vt 0.23908141 0.81502686
vt 0.23908141 0.89060846
vt 0.23908141 0.51043322
vt 0.23908141 0.58601482
vt 0.24352224 0.30386227
vt 0.24659846 0.85281766
vt 0.24659846 0.54822402
vn 0.99778516 6.0065367e-17 -6.6519011e-2
vn 0.70554065 -0.70554065 -6.6519011e-2
vn 2.1022878e-16 -0.99778516 -6.6519011e-2
vn -0.70554065 -0.70554065 -6.6519011e-2
vn -0.99778516 -3.9042488e-16 -6.6519011e-2
vn -0.70554065 0.70554065 -6.6519011e-2
vn -2.7029415e-16 0.99778516 -6.6519011e-2
vn 0.70554065 0.70554065 -6.6519011e-2
vn 0.70554065 0.70554065 -6.6519011e-2
vn -2.1022878e-16 0.99778516 -6.6519011e-2
vn -0.70554065 0.70554065 -6.6519011e-2
vn -0.99778516 -3.9042488e-16 -6.6519011e-2
vn -0.70554065 -0.70554065 -6.6519011e-2
vn 2.5527781e-16 -0.99778516 -6.6519011e-2
vn 0.70554065 -0.70554065 -6.6519011e-2
vn 0.99778516 9.0098050e-17 -6.6519011e-2
vn 4.6463772e-16 5.1229737e-32 1.00000000
vn -4.6010467e-16 -7.0103850e-32 -1.00000000
vn 0.0000000e+0 0.0000000e+0 -1.00000000
vn 0.70554065 0.70554065 -6.6519011e-2
vn 0.70554065 0.70554065 -6.6519011e-2
vn 0.0000000e+0 0.0000000e+0 -1.00000000
vn 0.99778516 1.2013073e-16 -6.6519011e-2
vn 0.99778516 1.2013073e-16 -6.6519011e-2
vn 0.0000000e+0 0.0000000e+0 -1.00000000
vn 0.70554065 -0.70554065 -6.6519011e-2
vn 0.70554065 -0.70554065 -6.6519011e-2
vn 0.0000000e+0 0.0000000e+0 -1.00000000
vn 3.0032683e-16 -0.99778516 -6.6519011e-2
vn 3.0032683e-16 -0.99778516 -6.6519011e-2
vn 0.0000000e+0 0.0000000e+0 -1.00000000
vn -0.70554065 -0.70554065 -6.6519011e-2
vn -0.70554065 -0.70554065 -6.6519011e-2
vn 0.0000000e+0 0.0000000e+0 -1.00000000
vn -0.99778516 -3.9042488e-16 -6.6519011e-2
vn -0.99778516 -3.9042488e-16 -6.6519011e-2
vn 0.0000000e+0 0.0000000e+0 -1.00000000
vn -0.70554065 0.70554065 -6.6519011e-2
vn -0.70554065 0.70554065 -6.6519011e-2
vn 0.0000000e+0 0.0000000e+0 -1.00000000
vn -1.5016342e-16 0.99778516 -6.6519011e-2
vn -1.5016342e-16 0.99778516 -6.6519011e-2
vn -6.8091906e-33 3.4694470e-17 1.00000000
vn 0.96351791 1.4942212e-16 0.26764386
vn 0.96351791 1.4942212e-16 0.26764386
vn -6.8091906e-33 3.4694470e-17 1.00000000
vn 0.68131005 -0.68131005 0.26764386
vn 0.68131005 -0.68131005 0.26764386
vn -6.8091906e-33 3.4694470e-17 1.00000000
vn 2.0919097e-16 -0.96351791 0.26764386
vn 2.0919097e-16 -0.96351791 0.26764386
vn -6.8091906e-33 3.4694470e-17 1.00000000
vn -0.68131005 -0.68131005 0.26764386
vn -0.68131005 -0.68131005 0.26764386
vn -6.8091906e-33 3.4694470e-17 1.00000000
vn -0.96351791 -1.1953770e-16 0.26764386
vn -0.96351791 -1.1953770e-16 0.26764386
vn -6.8091906e-33 3.4694470e-17 1.00000000
vn -0.68131005 0.68131005 0.26764386
vn -0.68131005 0.68131005 0.26764386
vn -6.8091906e-33 3.4694470e-17 1.00000000
vn 2.9884424e-17 0.96351791 0.26764386
vn 2.9884424e-17 0.96351791 0.26764386
vn -6.8091906e-33 3.4694470e-17 1.00000000
vn 0.68131005 0.68131005 0.26764386
vn 0.68131005 0.68131005 0.26764386
vn 0.96351791 1.4942212e-16 0.26764386
vn 0.96351791 1.4942212e-16 0.26764386
vn 0.68131005 -0.68131005 0.26764386
vn 0.68131005 -0.68131005 0.26764386
vn 2.0919097e-16 -0.96351791 0.26764386
vn 2.0919097e-16 -0.96351791 0.26764386
vn -0.68131005 -0.68131005 0.26764386
vn -0.68131005 -0.68131005 0.26764386
vn -0.96351791 -1.1953770e-16 0.26764386
vn -0.96351791 -1.1953770e-16 0.26764386
vn -0.68131005 0.68131005 0.26764386
vn -0.68131005 0.68131005 0.26764386
vn 2.9884424e-17 0.96351791 0.26764386
vn 2.9884424e-17 0.96351791 0.26764386
vn 0.68131005 0.68131005 0.26764386
vn 0.68131005 0.68131005 0.26764386
vn 1.00000000 -4.2449009e-17 -6.7995763e-17
vn 1.00000000 -4.2449009e-17 -6.7995763e-17
vn 4.3517289e-16 -6.1629758e-33 1.00000000
vn 4.3517289e-16 -6.1629758e-33 1.00000000
vn 0.92387953 -0.38268343 2.7198305e-16
vn 0.92387953 -0.38268343 2.7198305e-16
vn 3.9890848e-16 -1.4686611e-17 1.00000000
vn 3.9890848e-16 -1.4686611e-17 1.00000000
vn 0.70710678 -0.70710678 9.0661018e-16
vn 0.70710678 -0.70710678 9.0661018e-16
vn 5.8023051e-16 8.8809085e-18 1.00000000
vn 5.8023051e-16 8.8809085e-18 1.00000000
vn 0.38268343 -0.92387953 1.5639026e-15
vn 0.38268343 -0.92387953 1.5639026e-15
vn 6.4369323e-16 1.2676604e-17 1.00000000
vn 6.4369323e-16 1.2676604e-17 1.00000000
vn 0.0000000e+0 -1.00000000 1.6545636e-15
vn 0.0000000e+0 -1.00000000 1.6545636e-15
vn 3.3544577e-16 5.5511151e-17 1.00000000
vn 3.3544577e-16 5.5511151e-17 1.00000000
vn -0.38268343 -0.92387953 1.5412373e-15
vn -0.38268343 -0.92387953 1.5412373e-15
vn 3.8077628e-16 6.6364588e-17 1.00000000
vn 3.8077628e-16 6.6364588e-17 1.00000000
vn -0.70710678 -0.70710678 9.9727120e-16
vn -0.70710678 -0.70710678 9.9727120e-16
vn 4.7143729e-16 3.0371403e-17 1.00000000
vn 4.7143729e-16 3.0371403e-17 1.00000000
vn -0.92387953 -0.38268343 3.8530933e-16
vn -0.92387953 -0.38268343 3.8530933e-16
vn 5.4396611e-16 -3.1078078e-17 1.00000000
vn 5.4396611e-16 -3.1078078e-17 1.00000000
vn -1.00000000 -1.4149670e-16 4.5330509e-17
vn -1.00000000 -1.4149670e-16 4.5330509e-17
vn 5.8023051e-16 8.3200174e-32 1.00000000
vn 5.8023051e-16 8.3200174e-32 1.00000000
vn -0.92387953 0.38268343 -7.0262289e-16
vn -0.92387953 0.38268343 -7.0262289e-16
vn 5.0770170e-16 3.1078078e-17 1.00000000
vn 5.0770170e-16 3.1078078e-17 1.00000000
vn -0.70710678 0.70710678 -1.5412373e-15
vn -0.70710678 0.70710678 -1.5412373e-15
vn 5.4396611e-16 -3.0371403e-17 1.00000000
vn 5.4396611e-16 -3.0371403e-17 1.00000000
vn -0.38268343 0.92387953 -1.7452246e-15
vn -0.38268343 0.92387953 -1.7452246e-15
vn 3.8077628e-16 -6.6364588e-17 1.00000000
vn 3.8077628e-16 -6.6364588e-17 1.00000000
vn -1.1319736e-16 1.00000000 -1.9492119e-15
vn -1.1319736e-16 1.00000000 -1.9492119e-15
vn 3.7171017e-16 -5.5511151e-17 1.00000000
vn 3.7171017e-16 -5.5511151e-17 1.00000000
vn 0.38268343 0.92387953 -1.7452246e-15
vn 0.38268343 0.92387953 -1.7452246e-15
vn 5.7116441e-16 -1.2676604e-17 1.00000000
vn 5.7116441e-16 -1.2676604e-17 1.00000000
vn 0.70710678 0.70710678 -9.0661018e-16
vn 0.70710678 0.70710678 -9.0661018e-16
vn 3.9890848e-16 -8.8809085e-18 1.00000000
vn 3.9890848e-16 -8.8809085e-18 1.00000000
vn 0.92387953 0.38268343 -4.3063984e-16
vn 0.92387953 0.38268343 -4.3063984e-16
vn 2.9011526e-16 1.4686611e-17 1.00000000
vn 2.9011526e-16 1.4686611e-17 1.00000000
vn 1.00000000 -4.2449009e-17 -6.7995763e-17
vn 1.00000000 -4.2449009e-17 -6.7995763e-17
vn -4.3517289e-16 -1.4174844e-31 -1.00000000
vn -4.3517289e-16 -1.4174844e-31 -1.00000000
vn 0.92387953 -0.38268343 2.7198305e-16
vn 0.92387953 -0.38268343 2.7198305e-16
vn -4.3517289e-16 -5.2321276e-17 -1.00000000
vn -4.3517289e-16 -5.2321276e-17 -1.00000000
vn 0.70710678 -0.70710678 9.0661018e-16
vn 0.70710678 -0.70710678 9.0661018e-16
vn -4.3517289e-16 -8.8809085e-18 -1.00000000
vn -4.3517289e-16 -8.8809085e-18 -1.00000000
vn 0.38268343 -0.92387953 1.5639026e-15
vn 0.38268343 -0.92387953 1.5639026e-15
vn -3.9890848e-16 1.5078971e-17 -1.00000000
vn -3.9890848e-16 1.5078971e-17 -1.00000000
vn 0.0000000e+0 -1.00000000 1.6545636e-15
vn 0.0000000e+0 -1.00000000 1.6545636e-15
vn -4.8956950e-16 -3.2209264e-32 -1.00000000
vn -4.8956950e-16 -3.2209264e-32 -1.00000000
vn -0.38268343 -0.92387953 1.5412373e-15
vn -0.38268343 -0.92387953 1.5412373e-15
vn -5.2583390e-16 -3.8609012e-17 -1.00000000
vn -5.2583390e-16 -3.8609012e-17 -1.00000000
vn -0.70710678 -0.70710678 9.9727120e-16
vn -0.70710678 -0.70710678 9.9727120e-16
vn -5.0770170e-16 -3.0371403e-17 -1.00000000
vn -5.0770170e-16 -3.0371403e-17 -1.00000000
vn -0.92387953 -0.38268343 3.8530933e-16
vn -0.92387953 -0.38268343 3.8530933e-16
vn -5.0770170e-16 -3.5929809e-17 -1.00000000
vn -5.0770170e-16 -3.5929809e-17 -1.00000000
vn -1.00000000 -1.4149670e-16 4.5330509e-17
vn -1.00000000 -1.4149670e-16 4.5330509e-17
vn -4.3517289e-16 -7.3955710e-32 -1.00000000
vn -4.3517289e-16 -7.3955710e-32 -1.00000000
vn -0.92387953 0.38268343 -7.0262289e-16
vn -0.92387953 0.38268343 -7.0262289e-16
vn -3.6264407e-16 3.5929809e-17 -1.00000000
vn -3.6264407e-16 3.5929809e-17 -1.00000000
vn -0.70710678 0.70710678 -1.5412373e-15
vn -0.70710678 0.70710678 -1.5412373e-15
vn -5.0770170e-16 3.0371403e-17 -1.00000000
vn -5.0770170e-16 3.0371403e-17 -1.00000000
vn -0.38268343 0.92387953 -1.7452246e-15
vn -0.38268343 0.92387953 -1.7452246e-15
vn -5.2583390e-16 3.8609012e-17 -1.00000000
vn -5.2583390e-16 3.8609012e-17 -1.00000000
vn -1.1319736e-16 1.00000000 -1.9492119e-15
vn -1.1319736e-16 1.00000000 -1.9492119e-15
vn -4.7143729e-16 -9.6627792e-32 -1.00000000
vn -4.7143729e-16 -9.6627792e-32 -1.00000000
vn 0.38268343 0.92387953 -1.7452246e-15
vn 0.38268343 0.92387953 -1.7452246e-15
vn -4.1704068e-16 -1.5078971e-17 -1.00000000
vn -4.1704068e-16 -1.5078971e-17 -1.00000000
vn 0.70710678 0.70710678 -9.0661018e-16
vn 0.70710678 0.70710678 -9.0661018e-16
vn -3.9890848e-16 8.8809085e-18 -1.00000000
vn -3.9890848e-16 8.8809085e-18 -1.00000000
vn 0.92387953 0.38268343 -4.3063984e-16
vn 0.92387953 0.38268343 -4.3063984e-16
vn -5.0770170e-16 5.2321276e-17 -1.00000000
vn -5.0770170e-16 5.2321276e-17 -1.00000000
g Eridani_Antenna_1_Eridani_Antenna_1_auv
usemtl Eridani_Antenna_1_auv
s 1
f 10/10/22 11/15/25 12/29/28 13/35/31 14/41/34 15/36/37 16/30/40 9/16/19
f 25/139/43 32/134/64 31/108/61 30/85/58 29/71/55 28/84/52 27/107/49 26/133/46
f 41/82/83 57/83/147 72/66/207 56/65/143
f 42/103/88 58/104/152 57/83/148 41/82/84
f 43/125/92 59/126/156 58/104/151 42/103/87
f 44/62/96 60/64/160 59/48/155 43/47/91
f 45/73/100 61/74/164 60/64/159 44/62/95
f 46/102/104 62/104/168 61/74/163 45/73/99
f 47/127/108 63/129/172 62/104/167 46/102/103
f 48/106/112 64/105/176 63/131/171 47/132/107
f 49/75/116 65/72/180 64/105/175 48/106/111
f 50/60/120 66/59/184 65/72/179 49/75/115
f 51/46/124 67/45/188 66/59/183 50/60/119
f 52/61/128 68/63/192 67/48/187 51/47/123
f 53/73/132 69/74/196 68/63/191 52/61/127
f 54/102/136 70/104/200 69/74/195 53/73/131
f 55/128/140 71/130/204 70/104/199 54/102/135
f 56/65/144 72/66/208 71/50/203 55/49/139
s 2
f 1/24/1 24/25/16 17/8/9 8/4/8
f 2/52/2 23/42/15 24/25/16 1/24/1
f 3/31/3 22/32/14 23/7/15 2/1/2
f 4/53/4 21/44/13 22/32/14 3/31/3
f 5/21/5 20/22/12 21/7/13 4/2/4
f 6/54/6 19/44/11 20/22/12 5/21/5
f 7/23/7 18/26/10 19/9/11 6/3/6
f 8/51/8 17/43/9 18/26/10 7/23/7
f 9/12/20 17/8/9 24/25/16 10/27/23
f 10/27/24 24/25/16 23/42/15 11/37/26
f 11/14/27 23/7/15 22/32/14 12/34/29
f 12/34/30 22/32/14 21/44/13 13/40/32
f 13/11/33 21/7/13 20/22/12 14/33/35
f 14/33/36 20/22/12 19/44/11 15/39/38
f 15/13/39 19/9/11 18/26/10 16/28/41
f 16/28/42 18/26/10 17/43/9 9/38/21
f 25/89/44 33/115/67 40/117/81 32/90/65
f 26/88/48 34/114/70 33/115/68 25/89/45
f 27/96/51 35/110/72 34/111/69 26/97/47
f 28/95/54 36/109/74 35/110/71 27/96/50
f 29/91/57 37/119/76 36/120/73 28/87/53
f 30/86/60 38/118/78 37/119/75 29/91/56
f 31/93/63 39/113/80 38/116/77 30/94/59
f 32/92/66 40/112/82 39/113/79 31/93/62
f 41/140/85 73/77/17 42/135/89
f 42/135/90 73/77/17 43/123/94
f 43/123/93 73/77/17 44/98/98
f 44/98/97 73/77/17 45/76/102
f 45/76/101 73/77/17 46/67/106
f 46/67/105 73/77/17 47/55/110
f 47/55/109 73/77/17 48/17/114
f 48/17/113 73/77/17 49/6/118
f 49/6/117 73/77/17 50/18/122
f 50/18/121 73/77/17 51/56/126
f 51/56/125 73/77/17 52/68/130
f 52/68/129 73/77/17 53/78/134
f 53/78/133 73/77/17 54/99/138
f 54/99/137 73/77/17 55/124/142
f 55/124/141 73/77/17 56/136/146
f 56/136/145 73/77/17 41/140/86
f 57/5/150 74/80/18 72/20/210
f 58/19/153 74/80/18 57/5/149
f 59/57/157 74/80/18 58/19/154
f 60/70/161 74/80/18 59/57/158
f 61/79/165 74/80/18 60/70/162
f 62/100/169 74/80/18 61/79/166
f 63/121/173 74/80/18 62/100/170
f 64/137/177 74/80/18 63/121/174
f 65/141/181 74/80/18 64/137/178
f 66/138/185 74/80/18 65/141/182
f 67/122/189 74/80/18 66/138/186
f 68/101/193 74/80/18 67/122/190
f 69/81/197 74/80/18 68/101/194
f 70/69/201 74/80/18 69/81/198
f 71/58/205 74/80/18 70/69/202
f 72/20/209 74/80/18 71/58/206
