# Exported from Wings 3D 1.5.4
mtllib octans_docking_port_s0p5_1_probe.mtl
o probe
#49 vertices, 48 faces
v 1.8750000e-2 0.15000000 -3.4720509e-18
v 1.3258252e-2 0.15000000 1.3258252e-2
v -4.8194445e-17 0.15000000 1.8750000e-2
v -1.3258252e-2 0.15000000 1.3258252e-2
v -1.8750000e-2 0.15000000 1.0272316e-17
v -1.3258252e-2 0.15000000 -1.3258252e-2
v -6.4235025e-17 0.15000000 -1.8750000e-2
v 1.3258252e-2 0.15000000 -1.3258252e-2
v 1.8750000e-2 -4.1633363e-17 -3.7816515e-17
v 1.3258252e-2 -4.1633363e-17 1.3258252e-2
v -4.8194445e-17 -4.1633363e-17 1.8750000e-2
v -1.3258252e-2 -4.1633363e-17 1.3258252e-2
v -1.8750000e-2 -4.1633363e-17 -2.4072147e-17
v -1.3258252e-2 -4.1633363e-17 -1.3258252e-2
v -6.4235025e-17 -1.3877788e-17 -1.8750000e-2
v 1.3258252e-2 -4.1633363e-17 -1.3258252e-2
v 9.5670858e-3 0.18559699 2.1645287e-17
v 6.7649513e-3 0.18559699 6.7649513e-3
v -5.1594339e-17 0.18559699 9.5670858e-3
v -6.7649513e-3 0.18559699 6.7649513e-3
v -9.5670858e-3 0.18559699 3.1162033e-17
v -6.7649513e-3 0.18559699 -6.7649513e-3
v -6.2282716e-17 0.18559699 -9.5670858e-3
v 6.7649513e-3 0.18559699 -6.7649513e-3
v 1.7677670e-2 0.18017767 1.5744398e-17
v 1.2500000e-2 0.18017767 1.2500000e-2
v -4.7560385e-17 0.18017767 1.7677670e-2
v -1.2500000e-2 0.18017767 1.2500000e-2
v -1.7677670e-2 0.18017767 3.3329053e-17
v -1.2500000e-2 0.18017767 -1.2500000e-2
v -6.7309930e-17 0.18017767 -1.7677670e-2
v 1.2500000e-2 0.18017767 -1.2500000e-2
v 2.3096988e-2 0.17206709 9.8435099e-18
v 1.6332037e-2 0.17206709 1.6332037e-2
v -4.4864984e-17 0.17206709 2.3096988e-2
v -1.6332037e-2 0.17206709 1.6332037e-2
v -2.3096988e-2 0.17206709 3.2818968e-17
v -1.6332037e-2 0.17206709 -1.6332037e-2
v -7.0669007e-17 0.17206709 -2.3096988e-2
v 1.6332037e-2 0.17206709 -1.6332037e-2
v 2.5000000e-2 0.16250000 4.2783646e-18
v 1.7677670e-2 0.16250000 1.7677670e-2
v -4.4829347e-17 0.16250000 2.5000000e-2
v -1.7677670e-2 0.16250000 1.7677670e-2
v -2.5000000e-2 0.16250000 2.5875505e-17
v -1.7677670e-2 0.16250000 -1.7677670e-2
v -6.9488104e-17 0.16250000 -2.5000000e-2
v 1.7677670e-2 0.16250000 -1.7677670e-2
v -5.6352713e-17 0.18750000 2.6647818e-17
vt 0.80233515 0.31638728
vt 0.80286416 0.32017350
vt 0.80407257 0.25267827
vt 0.80407257 0.31157649
vt 0.80437066 0.32344261
vt 0.80662529 0.32569692
vt 0.80662529 0.32569692
vt 0.80928481 0.25267827
vt 0.80928481 0.31157649
vt 0.80928481 0.31638728
vt 0.80928481 0.32017350
vt 0.80928481 0.32344261
vt 0.80928481 0.32569692
vt 0.80928481 0.32659324
vt 0.81194433 0.32569692
vt 0.81419896 0.32344261
vt 0.81449705 0.25267827
vt 0.81449705 0.31157649
vt 0.81570546 0.32017350
vt 0.81623447 0.31638728
vn 1.00000000 1.7036594e-18 -5.1072112e-16
vn 0.70710678 -1.6355130e-16 0.70710678
vn 3.6050902e-16 -2.3169767e-16 1.00000000
vn -0.70710678 -1.6355130e-16 0.70710678
vn -1.00000000 1.3341514e-32 4.2059386e-16
vn -0.70710678 1.6184764e-16 -0.70710678
vn -3.6050902e-16 2.2999401e-16 -1.00000000
vn 0.70710678 1.6525496e-16 -0.70710678
vn 0.38061083 0.92473531 -1.2202419e-16
vn 0.26913250 0.92473531 0.26913250
vn 1.4355787e-16 0.92473531 0.38061083
vn -0.26913250 0.92473531 0.26913250
vn -0.38061083 0.92473531 1.8734302e-15
vn -0.26913250 0.92473531 -0.26913250
vn -2.0098102e-16 0.92473531 -0.38061083
vn 0.26913250 0.92473531 -0.26913250
vn 0.70497678 0.70923039 -3.0951869e-16
vn 0.49849386 0.70923039 0.49849386
vn 3.5373565e-16 0.70923039 0.70497678
vn -0.49849386 0.70923039 0.49849386
vn -0.70497678 0.70923039 4.5690855e-16
vn -0.49849386 0.70923039 -0.49849386
vn -4.4216956e-16 0.70923039 -0.70497678
vn 0.49849386 0.70923039 -0.49849386
vn 0.92310379 0.38455089 -4.2328870e-16
vn 0.65273295 0.38455089 0.65273295
vn 4.0817125e-16 0.38455089 0.92310379
vn -0.65273295 0.38455089 0.65273295
vn -0.92310379 0.38455089 5.2911088e-16
vn -0.65273295 0.38455089 -0.65273295
vn -5.4422833e-16 0.38455089 -0.92310379
vn 0.65273295 0.38455089 -0.65273295
vn 1.0646845e-17 1.00000000 2.8391588e-17
vn 1.00000000 1.7036594e-18 -5.1072112e-16
vn 1.00000000 1.7036594e-18 -5.1072112e-16
vn 0.89442719 -0.44721360 -4.7358701e-16
vn 0.89442719 -0.44721360 -4.7358701e-16
vn 0.70710678 -1.6355130e-16 0.70710678
vn 0.70710678 -1.6355130e-16 0.70710678
vn 0.63245553 -0.44721360 0.63245553
vn 0.63245553 -0.44721360 0.63245553
vn 3.6050902e-16 -2.3169767e-16 1.00000000
vn 3.6050902e-16 -2.3169767e-16 1.00000000
vn 2.9599188e-16 -0.44721360 0.89442719
vn 2.9599188e-16 -0.44721360 0.89442719
vn -0.70710678 -1.6355130e-16 0.70710678
vn -0.70710678 -1.6355130e-16 0.70710678
vn -0.63245553 -0.44721360 0.63245553
vn -0.63245553 -0.44721360 0.63245553
vn -1.00000000 1.3341514e-32 4.2059386e-16
vn -1.00000000 1.3341514e-32 4.2059386e-16
vn -0.89442719 -0.44721360 4.1438863e-16
vn -0.89442719 -0.44721360 4.1438863e-16
vn -0.70710678 1.6184764e-16 -0.70710678
vn -0.70710678 1.6184764e-16 -0.70710678
vn -0.63245553 -0.44721360 -0.63245553
vn -0.63245553 -0.44721360 -0.63245553
vn -3.6050902e-16 2.2999401e-16 -1.00000000
vn -3.6050902e-16 2.2999401e-16 -1.00000000
vn -4.1438863e-16 -0.44721360 -0.89442719
vn -4.1438863e-16 -0.44721360 -0.89442719
vn 0.70710678 1.6525496e-16 -0.70710678
vn 0.70710678 1.6525496e-16 -0.70710678
vn 0.63245553 -0.44721360 -0.63245553
vn 0.63245553 -0.44721360 -0.63245553
vn 0.89442719 -0.44721360 -4.7358701e-16
vn 0.89442719 -0.44721360 -4.7358701e-16
vn 0.98078528 0.19509032 -4.4937865e-16
vn 0.98078528 0.19509032 -4.4937865e-16
vn 0.63245553 -0.44721360 0.63245553
vn 0.63245553 -0.44721360 0.63245553
vn 0.69351992 0.19509032 0.69351992
vn 0.69351992 0.19509032 0.69351992
vn 2.9599188e-16 -0.44721360 0.89442719
vn 2.9599188e-16 -0.44721360 0.89442719
vn 3.8946149e-16 0.19509032 0.98078528
vn 3.8946149e-16 0.19509032 0.98078528
vn -0.63245553 -0.44721360 0.63245553
vn -0.63245553 -0.44721360 0.63245553
vn -0.69351992 0.19509032 0.69351992
vn -0.69351992 0.19509032 0.69351992
vn -0.89442719 -0.44721360 4.1438863e-16
vn -0.89442719 -0.44721360 4.1438863e-16
vn -0.98078528 0.19509032 5.0929580e-16
vn -0.98078528 0.19509032 5.0929580e-16
vn -0.63245553 -0.44721360 -0.63245553
vn -0.63245553 -0.44721360 -0.63245553
vn -0.69351992 0.19509032 -0.69351992
vn -0.69351992 0.19509032 -0.69351992
vn -4.1438863e-16 -0.44721360 -0.89442719
vn -4.1438863e-16 -0.44721360 -0.89442719
vn -5.6921295e-16 0.19509032 -0.98078528
vn -5.6921295e-16 0.19509032 -0.98078528
vn 0.63245553 -0.44721360 -0.63245553
vn 0.63245553 -0.44721360 -0.63245553
vn 0.69351992 0.19509032 -0.69351992
vn 0.69351992 0.19509032 -0.69351992
g probe_probe_auv
usemtl probe_auv
s 1
f 1/9/34 9/8/1 16/17/8 8/18/62
f 2/4/39 10/3/2 9/8/1 1/9/35
f 3/9/43 11/8/3 10/17/2 2/18/38
f 4/4/47 12/3/4 11/8/3 3/9/42
f 5/9/51 13/8/5 12/17/4 4/18/46
f 6/4/55 14/3/6 13/8/5 5/9/50
f 7/9/59 15/8/7 14/17/6 6/18/54
f 8/4/63 16/3/8 15/8/7 7/9/58
f 17/13/9 25/12/17 32/16/24 24/15/16
f 17/13/9 49/14/33 18/6/10
f 18/6/10 26/5/18 25/12/17 17/13/9
f 18/15/10 49/14/33 19/13/11
f 19/13/11 27/12/19 26/16/18 18/15/10
f 19/13/11 49/14/33 20/6/12
f 20/6/12 28/5/20 27/12/19 19/13/11
f 20/15/12 49/14/33 21/13/13
f 21/13/13 29/12/21 28/16/20 20/15/12
f 21/13/13 49/14/33 22/6/14
f 22/6/14 30/5/22 29/12/21 21/13/13
f 22/15/14 49/14/33 23/13/15
f 23/13/15 31/12/23 30/16/22 22/15/14
f 23/13/15 49/14/33 24/7/16
f 24/7/16 32/5/24 31/12/23 23/13/15
f 24/15/16 49/14/33 17/13/9
f 25/12/17 33/11/25 40/19/32 32/16/24
f 26/5/18 34/2/26 33/11/25 25/12/17
f 27/12/19 35/11/27 34/19/26 26/16/18
f 28/5/20 36/2/28 35/11/27 27/12/19
f 29/12/21 37/11/29 36/19/28 28/16/20
f 30/5/22 38/2/30 37/11/29 29/12/21
f 31/12/23 39/11/31 38/19/30 30/16/22
f 32/5/24 40/2/32 39/11/31 31/12/23
f 41/10/68 33/11/25 34/2/26 42/1/72
f 42/20/73 34/19/26 35/11/27 43/10/76
f 43/10/77 35/11/27 36/2/28 44/1/80
f 44/20/81 36/19/28 37/11/29 45/10/84
f 45/10/85 37/11/29 38/2/30 46/1/88
f 46/20/89 38/19/30 39/11/31 47/10/92
f 47/10/93 39/11/31 40/2/32 48/1/96
f 48/20/97 40/19/32 33/11/25 41/10/69
s 2
f 1/9/36 41/10/66 42/1/70 2/4/40
f 2/18/41 42/20/71 43/10/75 3/9/45
f 3/9/44 43/10/74 44/1/79 4/4/49
f 4/18/48 44/20/78 45/10/83 5/9/53
f 5/9/52 45/10/82 46/1/87 6/4/57
f 6/18/56 46/20/86 47/10/91 7/9/61
f 7/9/60 47/10/90 48/1/95 8/4/65
f 8/18/64 48/20/94 41/10/67 1/9/37
