# Exported from Wings 3D 1.5.4
mtllib Alniyat_Engine_2_Nozzle.mtl
o Alniyat_Engine_2_Nozzle
#73 vertices, 72 faces
v 2.0000000e-2 -2.7755576e-17 4.1633363e-17
v 1.7320508e-2 -2.7755576e-17 1.0000000e-2
v 1.0000000e-2 -5.5511151e-17 1.7320508e-2
v -1.3877788e-17 -5.5511151e-17 2.0000000e-2
v -1.0000000e-2 -5.5511151e-17 1.7320508e-2
v -1.7320508e-2 -2.7755576e-17 1.0000000e-2
v -2.0000000e-2 -2.7755576e-17 1.3877788e-17
v -1.7320508e-2 -2.7755576e-17 -1.0000000e-2
v -1.0000000e-2 0.0000000e+0 -1.7320508e-2
v 6.9388939e-18 0.0000000e+0 -2.0000000e-2
v 1.0000000e-2 0.0000000e+0 -1.7320508e-2
v 1.7320508e-2 -2.7755576e-17 -1.0000000e-2
v 4.5000000e-2 -0.11950000 -6.9388939e-17
v 3.8971143e-2 -0.11950000 2.2500000e-2
v 2.2500000e-2 -0.11950000 3.8971143e-2
v -2.7755576e-17 -0.11950000 4.5000000e-2
v -2.2500000e-2 -0.11950000 3.8971143e-2
v -3.8971143e-2 -0.11950000 2.2500000e-2
v -4.5000000e-2 -0.11950000 -1.2490009e-16
v -3.8971143e-2 -0.11950000 -2.2500000e-2
v -2.2500000e-2 -0.11950000 -3.8971143e-2
v 2.7755576e-17 -0.11950000 -4.5000000e-2
v 2.2500000e-2 -0.11950000 -3.8971143e-2
v 3.8971143e-2 -0.11950000 -2.2500000e-2
v 3.4135835e-2 -8.1160417e-2 -1.9708333e-2
v 1.9708333e-2 -8.1160417e-2 -3.4135835e-2
v 2.0816682e-17 -8.1160417e-2 -3.9416667e-2
v -1.9708333e-2 -8.1160417e-2 -3.4135835e-2
v -3.4135835e-2 -8.1160417e-2 -1.9708333e-2
v -3.9416667e-2 -8.1160417e-2 -8.3266727e-17
v -3.4135835e-2 -8.1160417e-2 1.9708333e-2
v -1.9708333e-2 -8.1160417e-2 3.4135835e-2
v -2.7755576e-17 -8.1160417e-2 3.9416667e-2
v 1.9708333e-2 -8.1160417e-2 3.4135835e-2
v 3.4135835e-2 -8.1160417e-2 1.9708333e-2
v 3.9416667e-2 -8.1160417e-2 -2.7755576e-17
v 2.6377690e-2 -3.8339583e-2 -1.5229167e-2
v 1.5229167e-2 -3.8339583e-2 -2.6377690e-2
v 1.3877788e-17 -3.8339583e-2 -3.0458333e-2
v -1.5229167e-2 -3.8339583e-2 -2.6377690e-2
v -2.6377690e-2 -3.8339583e-2 -1.5229167e-2
v -3.0458333e-2 -3.8339583e-2 -2.7755576e-17
v -2.6377690e-2 -3.8339583e-2 1.5229167e-2
v -1.5229167e-2 -3.8339583e-2 2.6377690e-2
v -1.3877788e-17 -3.8339583e-2 3.0458333e-2
v 1.5229167e-2 -3.8339583e-2 2.6377690e-2
v 2.6377690e-2 -3.8339583e-2 1.5229167e-2
v 3.0458333e-2 -3.8339583e-2 1.3877788e-17
v 1.7320508e-2 1.2500000e-2 1.0000000e-2
v 2.0000000e-2 1.2500000e-2 6.9388939e-17
v 1.7320508e-2 1.2500000e-2 -1.0000000e-2
v 1.0000000e-2 1.2500000e-2 -1.7320508e-2
v 6.9388939e-18 1.2500000e-2 -2.0000000e-2
v -1.0000000e-2 1.2500000e-2 -1.7320508e-2
v -1.7320508e-2 1.2500000e-2 -1.0000000e-2
v -2.0000000e-2 1.2500000e-2 4.1633363e-17
v -1.7320508e-2 1.2500000e-2 1.0000000e-2
v -1.0000000e-2 1.2500000e-2 1.7320508e-2
v -1.3877788e-17 1.2500000e-2 2.0000000e-2
v 1.0000000e-2 1.2500000e-2 1.7320508e-2
v 3.8750000e-2 -0.11950000 -6.9388939e-17
v 3.3558484e-2 -0.11950000 1.9375000e-2
v 1.9375000e-2 -0.11950000 3.3558484e-2
v -2.7755576e-17 -0.11950000 3.8750000e-2
v -1.9375000e-2 -0.11950000 3.3558484e-2
v -3.3558484e-2 -0.11950000 1.9375000e-2
v -3.8750000e-2 -0.11950000 -1.2490009e-16
v -3.3558484e-2 -0.11950000 -1.9375000e-2
v -1.9375000e-2 -0.11950000 -3.3558484e-2
v 2.0816682e-17 -0.11950000 -3.8750000e-2
v 1.9375000e-2 -0.11950000 -3.3558484e-2
v 3.3558484e-2 -0.11950000 -1.9375000e-2
v 0.0000000e+0 -8.8250000e-2 -9.7144515e-17
vt 0.81827477 0.17270143
vt 0.82143049 0.16092411
vt 0.82143049 0.18447875
vt 0.82154625 0.17270143
vt 0.82154625 0.17270143
vt 0.82426367 0.16255985
vt 0.82426367 0.16255985
vt 0.82426367 0.18284301
vt 0.82426367 0.18284301
vt 0.83005209 0.15230252
vt 0.83005209 0.19310034
vt 0.83168782 0.15513570
vt 0.83168782 0.15513570
vt 0.83168782 0.19026716
vt 0.84182940 0.14914680
vt 0.84182940 0.15241828
vt 0.84182940 0.15241828
vt 0.84182940 0.17270143
vt 0.84182940 0.19298459
vt 0.84182940 0.19298459
vt 0.84182940 0.19625606
vt 0.85197098 0.15513570
vt 0.85197098 0.15513570
vt 0.85197098 0.19026716
vt 0.85197098 0.19026716
vt 0.85360672 0.15230252
vt 0.85360672 0.19310034
vt 0.85939513 0.16255985
vt 0.85939513 0.16255985
vt 0.85939513 0.18284301
vt 0.85939513 0.18284301
vt 0.86211256 0.17270143
vt 0.86211256 0.17270143
vt 0.86222831 0.16092411
vt 0.86222831 0.18447875
vt 0.86538403 0.17270143
vt 0.88016629 0.14923958
vt 0.88016629 0.14923958
vt 0.88450414 0.16551341
vt 0.88450414 0.16551341
vt 0.88994220 0.14923958
vt 0.88994220 0.14923958
vt 0.89035434 0.18359511
vt 0.89035434 0.18359511
vt 0.89293496 0.16551341
vt 0.89293496 0.16551341
vt 0.89664800 0.20011668
vt 0.89664800 0.20011668
vt 0.89679788 0.18359511
vt 0.89679788 0.18359511
vt 0.89787069 0.20518499
vt 0.89787069 0.20518499
vt 0.89988178 0.14923958
vt 0.89988178 0.14923958
vt 0.90090675 0.20011668
vt 0.90090675 0.20011668
vt 0.90141028 0.16551341
vt 0.90141028 0.16551341
vt 0.90190852 0.20518499
vt 0.90190852 0.20518499
vt 0.90333432 0.18359511
vt 0.90333432 0.18359511
vt 0.90536994 0.20011668
vt 0.90536994 0.20011668
vt 0.90591582 0.20518499
vt 0.90591582 0.20518499
vt 0.90991839 0.14923958
vt 0.90991839 0.16551341
vt 0.90991839 0.18359511
vt 0.90991839 0.20011668
vt 0.90991839 0.20518499
vt 0.90991839 0.14923958
vt 0.90991839 0.16551341
vt 0.90991839 0.18359511
vt 0.90991839 0.20011668
vt 0.90991839 0.20518499
vt 0.91392097 0.20518499
vt 0.91392097 0.20518499
vt 0.91446684 0.20011668
vt 0.91446684 0.20011668
vt 0.91650247 0.18359511
vt 0.91650247 0.18359511
vt 0.91792827 0.20518499
vt 0.91792827 0.20518499
vt 0.91842650 0.16551341
vt 0.91842650 0.16551341
vt 0.91893004 0.20011668
vt 0.91893004 0.20011668
vt 0.91995501 0.14923958
vt 0.91995501 0.14923958
vt 0.92196610 0.20518499
vt 0.92196610 0.20518499
vt 0.92303891 0.18359511
vt 0.92303891 0.18359511
vt 0.92318878 0.20011668
vt 0.92318878 0.20011668
vt 0.92690183 0.16551341
vt 0.92690183 0.16551341
vt 0.92948245 0.18359511
vt 0.92948245 0.18359511
vt 0.92989459 0.14923958
vt 0.92989459 0.14923958
vt 0.93533264 0.16551341
vt 0.93533264 0.16551341
vt 0.93967049 0.14923958
vt 0.93967049 0.14923958
vn 0.99112777 0.13291255 5.0675801e-16
vn 0.85834183 0.13291255 0.49556388
vn 0.49556388 0.13291255 0.85834183
vn -7.0946122e-16 0.13291255 0.99112777
vn -0.49556388 0.13291255 0.85834183
vn -0.85834183 0.13291255 0.49556388
vn -0.99112777 0.13291255 -4.3436401e-17
vn -0.85834183 0.13291255 -0.49556388
vn -0.49556388 0.13291255 -0.85834183
vn 4.4884281e-16 0.13291255 -0.99112777
vn 0.49556388 0.13291255 -0.85834183
vn 0.85834183 0.13291255 -0.49556388
vn 0.85273295 0.17453373 -0.49232560
vn 0.49232560 0.17453373 -0.85273295
vn 1.4933424e-15 0.17453373 -0.98465120
vn -0.49232560 0.17453373 -0.85273295
vn -0.85273295 0.17453373 -0.49232560
vn -0.98465120 0.17453373 -3.4461747e-16
vn -0.85273295 0.17453373 0.49232560
vn -0.49232560 0.17453373 0.85273295
vn -7.1795306e-16 0.17453373 0.98465120
vn 0.49232560 0.17453373 0.85273295
vn 0.85273295 0.17453373 0.49232560
vn 0.98465120 0.17453373 2.5846310e-16
vn 0.84196323 0.23408805 -0.48610770
vn 0.48610770 0.23408805 -0.84196323
vn 1.0473333e-15 0.23408805 -0.97221540
vn -0.48610770 0.23408805 -0.84196323
vn -0.84196323 0.23408805 -0.48610770
vn -0.97221540 0.23408805 -2.1520548e-16
vn -0.84196323 0.23408805 0.48610770
vn -0.48610770 0.23408805 0.84196323
vn -6.5996348e-16 0.23408805 0.97221540
vn 0.48610770 0.23408805 0.84196323
vn 0.84196323 0.23408805 0.48610770
vn 0.97221540 0.23408805 4.0171690e-16
vn 0.86602540 -1.1045310e-15 0.50000000
vn 1.00000000 6.7762636e-18 4.8848967e-16
vn 0.86602540 1.1113072e-15 -0.50000000
vn 0.50000000 1.9244589e-15 -0.86602540
vn 2.0114280e-16 2.2158382e-15 -1.00000000
vn -0.50000000 1.9176826e-15 -0.86602540
vn -0.86602540 1.1113072e-15 -0.50000000
vn -1.00000000 0.0000000e+0 0.0000000e+0
vn -0.86602540 -1.1113072e-15 0.50000000
vn -0.50000000 -1.9244589e-15 0.86602540
vn -8.0457122e-16 -2.2226145e-15 1.00000000
vn 0.50000000 -1.9244589e-15 0.86602540
vn -2.4105012e-17 -1.00000000 -7.5328163e-17
vn 0.98956192 0.14410835 2.2971754e-16
vn 0.98956192 0.14410835 2.2971754e-16
vn 0.0000000e+0 -1.00000000 0.0000000e+0
vn 0.0000000e+0 -1.00000000 0.0000000e+0
vn 0.85698576 0.14410835 0.49478096
vn 0.85698576 0.14410835 0.49478096
vn 0.0000000e+0 -1.00000000 0.0000000e+0
vn 0.0000000e+0 -1.00000000 0.0000000e+0
vn 0.49478096 0.14410835 0.85698576
vn 0.49478096 0.14410835 0.85698576
vn 0.0000000e+0 -1.00000000 0.0000000e+0
vn 0.0000000e+0 -1.00000000 0.0000000e+0
vn -7.1786731e-16 0.14410835 0.98956192
vn -7.1786731e-16 0.14410835 0.98956192
vn 0.0000000e+0 -1.00000000 0.0000000e+0
vn 0.0000000e+0 -1.00000000 0.0000000e+0
vn -0.49478096 0.14410835 0.85698576
vn -0.49478096 0.14410835 0.85698576
vn 0.0000000e+0 -1.00000000 0.0000000e+0
vn 0.0000000e+0 -1.00000000 0.0000000e+0
vn -0.85698576 0.14410835 0.49478096
vn -0.85698576 0.14410835 0.49478096
vn 0.0000000e+0 -1.00000000 0.0000000e+0
vn 0.0000000e+0 -1.00000000 0.0000000e+0
vn -0.98956192 0.14410835 -3.4457631e-16
vn -0.98956192 0.14410835 -3.4457631e-16
vn 0.0000000e+0 -1.00000000 0.0000000e+0
vn 0.0000000e+0 -1.00000000 0.0000000e+0
vn -0.85698576 0.14410835 -0.49478096
vn -0.85698576 0.14410835 -0.49478096
vn 0.0000000e+0 -1.00000000 0.0000000e+0
vn 0.0000000e+0 -1.00000000 0.0000000e+0
vn -0.49478096 0.14410835 -0.85698576
vn -0.49478096 0.14410835 -0.85698576
vn 0.0000000e+0 -1.00000000 0.0000000e+0
vn 0.0000000e+0 -1.00000000 0.0000000e+0
vn 1.5793081e-15 0.14410835 -0.98956192
vn 1.5793081e-15 0.14410835 -0.98956192
vn 0.0000000e+0 -1.00000000 0.0000000e+0
vn 0.0000000e+0 -1.00000000 0.0000000e+0
vn 0.49478096 0.14410835 -0.85698576
vn 0.49478096 0.14410835 -0.85698576
vn 0.0000000e+0 -1.00000000 0.0000000e+0
vn 0.0000000e+0 -1.00000000 0.0000000e+0
vn 0.85698576 0.14410835 -0.49478096
vn 0.85698576 0.14410835 -0.49478096
vn 0.0000000e+0 -1.00000000 0.0000000e+0
vn 0.0000000e+0 -1.00000000 0.0000000e+0
vn 0.0000000e+0 -1.00000000 0.0000000e+0
vn 0.0000000e+0 -1.00000000 0.0000000e+0
vn -0.62775245 -0.77841304 -2.6738209e-16
vn -0.62775245 -0.77841304 -2.6738209e-16
vn 0.0000000e+0 -1.00000000 0.0000000e+0
vn 0.0000000e+0 -1.00000000 0.0000000e+0
vn -0.54364957 -0.77841304 -0.31387623
vn -0.54364957 -0.77841304 -0.31387623
vn 0.0000000e+0 -1.00000000 0.0000000e+0
vn 0.0000000e+0 -1.00000000 0.0000000e+0
vn -0.31387623 -0.77841304 -0.54364957
vn -0.31387623 -0.77841304 -0.54364957
vn 0.0000000e+0 -1.00000000 0.0000000e+0
vn 0.0000000e+0 -1.00000000 0.0000000e+0
vn 5.2069145e-16 -0.77841304 -0.62775245
vn 5.2069145e-16 -0.77841304 -0.62775245
vn 0.0000000e+0 -1.00000000 0.0000000e+0
vn 0.0000000e+0 -1.00000000 0.0000000e+0
vn 0.31387623 -0.77841304 -0.54364957
vn 0.31387623 -0.77841304 -0.54364957
vn 0.0000000e+0 -1.00000000 0.0000000e+0
vn 0.0000000e+0 -1.00000000 0.0000000e+0
vn 0.54364957 -0.77841304 -0.31387623
vn 0.54364957 -0.77841304 -0.31387623
vn 0.0000000e+0 -1.00000000 0.0000000e+0
vn 0.0000000e+0 -1.00000000 0.0000000e+0
vn 0.62775245 -0.77841304 2.8145484e-16
vn 0.62775245 -0.77841304 2.8145484e-16
vn 0.0000000e+0 -1.00000000 0.0000000e+0
vn 0.0000000e+0 -1.00000000 0.0000000e+0
vn 0.54364957 -0.77841304 0.31387623
vn 0.54364957 -0.77841304 0.31387623
vn 0.0000000e+0 -1.00000000 0.0000000e+0
vn 0.0000000e+0 -1.00000000 0.0000000e+0
vn 0.31387623 -0.77841304 0.54364957
vn 0.31387623 -0.77841304 0.54364957
vn 0.0000000e+0 -1.00000000 0.0000000e+0
vn 0.0000000e+0 -1.00000000 0.0000000e+0
vn -1.1117466e-15 -0.77841304 0.62775245
vn -1.1117466e-15 -0.77841304 0.62775245
vn 0.0000000e+0 -1.00000000 0.0000000e+0
vn 0.0000000e+0 -1.00000000 0.0000000e+0
vn -0.31387623 -0.77841304 0.54364957
vn -0.31387623 -0.77841304 0.54364957
vn 0.0000000e+0 -1.00000000 0.0000000e+0
vn 0.0000000e+0 -1.00000000 0.0000000e+0
vn -0.54364957 -0.77841304 0.31387623
vn -0.54364957 -0.77841304 0.31387623
g Alniyat_Engine_2_Nozzle_Alniyat_Engine_2_Nozzle_auv
usemtl Alniyat_Engine_2_Nozzle_auv
s 1
f 1/70/1 48/69/36 37/81/25 12/79/12
f 1/70/1 50/71/38 49/65/37 2/63/2
f 2/63/2 47/61/35 48/69/36 1/70/1
f 2/63/2 49/65/37 60/59/48 3/55/3
f 3/55/3 46/49/34 47/61/35 2/63/2
f 3/55/3 60/59/48 59/51/47 4/47/4
f 4/47/4 45/43/33 46/49/34 3/55/3
f 4/96/4 59/92/47 58/84/46 5/88/5
f 5/88/5 44/94/32 45/100/33 4/96/4
f 5/88/5 58/84/46 57/78/45 6/80/6
f 6/80/6 43/82/31 44/94/32 5/88/5
f 6/80/6 57/78/45 56/76/44 7/75/7
f 7/75/7 42/74/30 43/82/31 6/80/6
f 7/75/7 56/76/44 55/66/43 8/64/8
f 8/64/8 41/62/29 42/74/30 7/75/7
f 8/64/8 55/66/43 54/60/42 9/56/9
f 9/56/9 40/50/28 41/62/29 8/64/8
f 9/56/9 54/60/42 53/52/41 10/48/10
f 10/48/10 39/44/27 40/50/28 9/56/9
f 10/95/10 53/91/41 52/83/40 11/87/11
f 11/87/11 38/93/26 39/99/27 10/95/10
f 11/87/11 52/83/40 51/77/39 12/79/12
f 12/79/12 37/81/25 38/93/26 11/87/11
f 12/79/12 51/77/39 50/71/38 1/70/1
f 13/67/51 36/68/24 35/57/23 14/53/55
f 14/53/54 35/57/23 34/45/22 15/41/59
f 15/41/58 34/45/22 33/39/21 16/37/63
f 16/106/62 33/104/21 32/98/20 17/102/67
f 17/102/66 32/98/20 31/86/19 18/90/71
f 18/90/70 31/86/19 30/73/18 19/72/75
f 19/72/74 30/73/18 29/58/17 20/54/79
f 20/54/78 29/58/17 28/46/16 21/42/83
f 21/42/82 28/46/16 27/40/15 22/38/87
f 22/105/86 27/103/15 26/97/14 23/101/91
f 23/101/90 26/97/14 25/85/13 24/89/95
f 24/89/94 25/85/13 36/68/24 13/67/50
f 25/85/13 37/81/25 48/69/36 36/68/24
f 26/97/14 38/93/26 37/81/25 25/85/13
f 27/103/15 39/99/27 38/93/26 26/97/14
f 28/46/16 40/50/28 39/44/27 27/40/15
f 29/58/17 41/62/29 40/50/28 28/46/16
f 30/73/18 42/74/30 41/62/29 29/58/17
f 31/86/19 43/82/31 42/74/30 30/73/18
f 32/98/20 44/94/32 43/82/31 31/86/19
f 33/104/21 45/100/33 44/94/32 32/98/20
f 34/45/22 46/49/34 45/43/33 33/39/21
f 35/57/23 47/61/35 46/49/34 34/45/22
f 36/68/24 48/69/36 47/61/35 35/57/23
f 61/5/101 73/18/49 72/9/145
f 62/7/104 73/18/49 61/5/100
f 63/13/108 73/18/49 62/7/105
f 64/17/112 73/18/49 63/13/109
f 65/23/116 73/18/49 64/17/113
f 66/29/120 73/18/49 65/23/117
f 67/33/124 73/18/49 66/29/121
f 68/31/128 73/18/49 67/33/125
f 69/25/132 73/18/49 68/31/129
f 70/20/136 73/18/49 69/25/133
f 71/14/140 73/18/49 70/20/137
f 72/9/144 73/18/49 71/14/141
s 2
f 13/1/53 61/4/99 72/8/143 24/3/97
f 14/2/56 62/6/102 61/4/98 13/1/52
f 15/10/60 63/12/106 62/6/103 14/2/57
f 16/15/64 64/16/110 63/12/107 15/10/61
f 17/26/68 65/22/114 64/16/111 16/15/65
f 18/34/72 66/28/118 65/22/115 17/26/69
f 19/36/76 67/32/122 66/28/119 18/34/73
f 20/35/80 68/30/126 67/32/123 19/36/77
f 21/27/84 69/24/130 68/30/127 20/35/81
f 22/21/88 70/19/134 69/24/131 21/27/85
f 23/11/92 71/14/138 70/19/135 22/21/89
f 24/3/96 72/8/142 71/14/139 23/11/93
