# Exported from Wings 3D 1.5.4
mtllib tantares_orbital_module_s1_3_flag.mtl
o flag
#20 vertices, 16 faces
v 0.14962617 0.38279591 -0.56341248
v 6.9388939e-18 0.38279591 -0.58311114
v -0.14962617 0.38279591 -0.56341248
v 0.15675294 0.27362147 -0.59000993
v 6.9388939e-18 0.27362147 -0.61064684
v -0.15675294 0.27362147 -0.59000993
v -0.14086231 0.46014281 -0.53070531
v 4.9384010e-18 0.46014281 -0.54925018
v 0.14086231 0.46014281 -0.53070531
v 0.16067517 0.18465107 -0.60464789
v 6.9388939e-18 0.18465107 -0.62580118
v -0.16067517 0.18465107 -0.60464789
v 0.21952766 0.38246199 -0.53458104
v -0.21952766 0.38246199 -0.53458104
v -0.20527023 0.46014327 -0.50402646
v 0.20527023 0.46014327 -0.50402646
v 0.23105476 0.27340165 -0.55928286
v -0.23105476 0.27340165 -0.55928286
v 0.23739452 0.18465097 -0.57286972
v -0.23739452 0.18465097 -0.57286972
vt -2.0816682e-17 3.4694470e-18
vt -2.0816682e-17 0.31489585
vt -2.0816682e-17 0.70578292
vt -2.0816682e-17 1.00000000
vt 0.16763812 3.4694470e-18
vt 0.16763812 0.31489585
vt 0.16763812 0.70578292
vt 0.16763812 1.00000000
vt 0.50000000 3.4694470e-18
vt 0.50000000 0.31489585
vt 0.50000000 0.70578292
vt 0.50000000 1.00000000
vt 0.83236188 3.4694470e-18
vt 0.83236188 0.31489585
vt 0.83236188 0.70578292
vt 0.83236188 1.00000000
vt 1.00000000 3.4694470e-18
vt 1.00000000 0.31489585
vt 1.00000000 0.70578292
vt 1.00000000 1.00000000
vn 0.26680483 0.33940016 -0.90201038
vn 7.0162190e-18 0.32393990 -0.94607766
vn -0.26680483 0.33940016 -0.90201038
vn 0.27860934 0.19860181 -0.93964576
vn -4.2009106e-17 0.20639880 -0.97846795
vn -0.27860934 0.19860181 -0.93964576
vn -0.23709453 0.40103445 -0.88484889
vn 1.3978349e-17 0.40103447 -0.91606296
vn 0.23709453 0.40103445 -0.88484889
vn 0.25514432 0.16791173 -0.95221165
vn -8.3965058e-17 0.16791176 -0.98580203
vn -0.25514432 0.16791173 -0.95221165
vn 0.36251955 0.32121854 -0.87487041
vn -0.36251955 0.32121854 -0.87487041
vn -0.35124513 0.39799554 -0.84748239
vn 0.35124513 0.39799554 -0.84748239
vn 0.37447923 0.20457817 -0.90438547
vn -0.37447923 0.20457817 -0.90438547
vn 0.37729359 0.16646704 -0.91100948
vn -0.37729359 0.16646704 -0.91100948
g flag_flag_auv
usemtl flag_auv
s 1
f 1/7/1 4/6/4 5/10/5 2/11/2
f 1/7/1 13/3/13 17/2/17 4/6/4
f 2/11/2 5/10/5 6/14/6 3/15/3
f 2/11/2 8/12/8 9/8/9 1/7/1
f 3/15/3 7/16/7 8/12/8 2/11/2
f 3/15/3 15/20/15 7/16/7
f 4/6/4 10/5/10 11/9/11 5/10/5
f 4/6/4 17/2/17 19/1/19
f 4/6/4 19/1/19 10/5/10
f 5/10/5 11/9/11 12/13/12 6/14/6
f 6/14/6 18/18/18 14/19/14 3/15/3
f 6/14/6 20/17/20 18/18/18
f 9/8/9 16/4/16 1/7/1
f 12/13/12 20/17/20 6/14/6
f 14/19/14 15/20/15 3/15/3
f 16/4/16 13/3/13 1/7/1
