# Exported from Wings 3D 1.5.4
mtllib tantares_fuel_tank_s1_1.mtl
o mesh2
#104 vertices, 54 faces
v 0.62500000 0.25000000 -1.2576745e-17
v 0.60370364 0.25000000 0.16176190
v 0.54126588 0.25000000 0.31250000
v 0.44194174 0.25000000 0.44194174
v 0.31250000 0.25000000 0.54126588
v 0.16176190 0.25000000 0.60370364
v -1.3771492e-17 0.25000000 0.62500000
v -0.16176190 0.25000000 0.60370364
v -0.31250000 0.25000000 0.54126588
v -0.44194174 0.25000000 0.44194174
v -0.54126588 0.25000000 0.31250000
v -0.60370364 0.25000000 0.16176190
v -0.62500000 0.25000000 6.3963680e-17
v -0.60370364 0.25000000 -0.16176190
v -0.54126588 0.25000000 -0.31250000
v -0.44194174 0.25000000 -0.44194174
v -0.31250000 0.25000000 -0.54126588
v -0.16176190 0.25000000 -0.60370364
v -1.6685234e-16 0.25000000 -0.62500000
v 0.16176190 0.25000000 -0.60370364
v 0.31250000 0.25000000 -0.54126588
v 0.44194174 0.25000000 -0.44194174
v 0.54126588 0.25000000 -0.31250000
v 0.60370364 0.25000000 -0.16176190
v 0.62500000 -0.25000000 -1.2576745e-17
v 0.60370364 -0.25000000 0.16176190
v 0.54126588 -0.25000000 0.31250000
v 0.44194174 -0.25000000 0.44194174
v 0.31250000 -0.25000000 0.54126588
v 0.16176190 -0.25000000 0.60370364
v -1.3771492e-17 -0.25000000 0.62500000
v -0.16176190 -0.25000000 0.60370364
v -0.31250000 -0.25000000 0.54126588
v -0.44194174 -0.25000000 0.44194174
v -0.54126588 -0.25000000 0.31250000
v -0.60370364 -0.25000000 0.16176190
v -0.62500000 -0.25000000 6.3963680e-17
v -0.60370364 -0.25000000 -0.16176190
v -0.54126588 -0.25000000 -0.31250000
v -0.44194174 -0.25000000 -0.44194174
v -0.31250000 -0.25000000 -0.54126588
v -0.16176190 -0.25000000 -0.60370364
v -1.6685234e-16 -0.25000000 -0.62500000
v 0.16176190 -0.25000000 -0.60370364
v 0.31250000 -0.25000000 -0.54126588
v 0.44194174 -0.25000000 -0.44194174
v 0.54126588 -0.25000000 -0.31250000
v 0.60370364 -0.25000000 -0.16176190
v -0.30444051 0.15000000 -0.57166403
v -0.18895557 0.15000000 -0.61949946
v -0.19669159 0.18125000 -0.61629510
v -0.21782680 0.20412659 -0.60754060
v -0.24669804 0.21250000 -0.59558175
v -0.27556927 0.20412659 -0.58362289
v -0.29670448 0.18125000 -0.57486840
v -0.29487342 0.15000000 -0.54856704
v -0.17938848 0.15000000 -0.59640247
v -0.18712451 0.18125000 -0.59319811
v -0.20825972 0.20412659 -0.58444362
v -0.23713095 0.21250000 -0.57248476
v -0.26600219 0.20412659 -0.56052590
v -0.28713740 0.18125000 -0.55177141
v -0.29670448 6.8750000e-2 -0.57486840
v -0.27556927 4.5873412e-2 -0.58362289
v -0.24669804 3.7500000e-2 -0.59558175
v -0.21782680 4.5873412e-2 -0.60754060
v -0.19669159 6.8750000e-2 -0.61629510
v -0.28713740 6.8750000e-2 -0.55177141
v -0.26600219 4.5873412e-2 -0.56052590
v -0.23713095 3.7500000e-2 -0.57248476
v -0.20825972 4.5873412e-2 -0.58444362
v -0.18712451 6.8750000e-2 -0.59319811
v -0.29487342 1.0000000e-1 -0.54856704
v -0.30444051 1.0000000e-1 -0.57166403
v -0.18895557 1.0000000e-1 -0.61949946
v -0.17938848 1.0000000e-1 -0.59640247
v 0.30444051 0.15000000 0.57166403
v 0.18895557 0.15000000 0.61949946
v 0.19669159 0.18125000 0.61629510
v 0.21782680 0.20412659 0.60754060
v 0.24669804 0.21250000 0.59558175
v 0.27556927 0.20412659 0.58362289
v 0.29670448 0.18125000 0.57486840
v 0.29487342 0.15000000 0.54856704
v 0.17938848 0.15000000 0.59640247
v 0.18712451 0.18125000 0.59319811
v 0.20825972 0.20412659 0.58444362
v 0.23713095 0.21250000 0.57248476
v 0.26600219 0.20412659 0.56052590
v 0.28713740 0.18125000 0.55177141
v 0.29670448 6.8750000e-2 0.57486840
v 0.27556927 4.5873412e-2 0.58362289
v 0.24669804 3.7500000e-2 0.59558175
v 0.21782680 4.5873412e-2 0.60754060
v 0.19669159 6.8750000e-2 0.61629510
v 0.28713740 6.8750000e-2 0.55177141
v 0.26600219 4.5873412e-2 0.56052590
v 0.23713095 3.7500000e-2 0.57248476
v 0.20825972 4.5873412e-2 0.58444362
v 0.18712451 6.8750000e-2 0.59319811
v 0.29487342 1.0000000e-1 0.54856704
v 0.30444051 1.0000000e-1 0.57166403
v 0.18895557 1.0000000e-1 0.61949946
v 0.17938848 0.10000000 0.59640247
vt 1.8750000e-2 0.88417852
vt 1.8750000e-2 0.98097977
vt 1.8750000e-2 0.98097977
vt 5.0520833e-2 0.98097977
vt 5.0520833e-2 0.88417852
vt 5.0520833e-2 0.88417852
vt 5.0520833e-2 0.98097977
vt 8.2291667e-2 0.88417852
vt 8.2291667e-2 0.98097977
vt 8.2291667e-2 0.98097977
vt 0.11406250 0.98097977
vt 0.11406250 0.88417852
vt 0.11406250 0.98097977
vt 0.14583333 0.88417852
vt 0.14583333 0.98097977
vt 0.14583333 0.88417852
vt 0.14583333 0.98097977
vt 0.17760417 0.88417852
vt 0.17760417 0.88417852
vt 0.17760417 0.98097977
vt 0.20937500 0.88417852
vt 0.20937500 0.98097977
vt 0.20937500 0.88417852
vt 0.20937500 0.98097977
vt 0.24114583 0.98097977
vt 0.24114583 0.88417852
vt 0.24114583 0.88417852
vt 0.24114583 0.98097977
vt 0.27291667 0.98097977
vt 0.27291667 0.88417852
vt 0.27291667 0.88417852
vt 0.27291667 0.98097977
vt 0.30468750 0.98097977
vt 0.30468750 0.88417852
vt 0.30468750 0.88417852
vt 0.30468750 0.98097977
vt 0.33645833 0.88417852
vt 0.33645833 0.98097977
vt 0.33645833 0.88417852
vt 0.33645833 0.98097977
vt 0.36822917 0.98097977
vt 0.36822917 0.88417852
vt 0.36822917 0.88417852
vt 0.36822917 0.98097977
vt 0.40000000 0.98097977
vt 0.40000000 0.88417852
vt 0.40000000 0.88417852
vt 0.40000000 0.98097977
vt 0.42057939 0.90427292
vt 0.42057939 0.91400925
vt 0.42057939 0.91400925
vt 0.42057939 0.92030912
vt 0.42057939 0.92660899
vt 0.42057939 0.93290885
vt 0.42057939 0.93925972
vt 0.42057939 0.94555958
vt 0.42057939 0.95185945
vt 0.42057939 0.96789565
vt 0.42057939 0.97419551
vt 0.42057939 0.92030912
vt 0.42057939 0.93295985
vt 0.42057939 0.96159578
vt 0.42057939 0.96789565
vt 0.42057939 0.88537332
vt 0.42057939 0.88537332
vt 0.42057939 0.89167319
vt 0.42057939 0.89167319
vt 0.42057939 0.89797306
vt 0.42057939 0.89797306
vt 0.42057939 0.90427292
vt 0.42057939 0.92660899
vt 0.42057939 0.93290885
vt 0.42057939 0.93295985
vt 0.42057939 0.93925972
vt 0.42057939 0.94555958
vt 0.42057939 0.95185945
vt 0.42057939 0.96159578
vt 0.42057939 0.97419551
vt 0.42057939 0.98049538
vt 0.42057939 0.98049538
vt 0.42544755 0.92660899
vt 0.42544755 0.93290885
vt 0.42544755 0.93295985
vt 0.42544755 0.93925972
vt 0.42544755 0.94555958
vt 0.42544755 0.90427292
vt 0.42544755 0.92660899
vt 0.42544755 0.93290885
vt 0.42544755 0.97419551
vt 0.42544755 0.89167319
vt 0.42544755 0.89797306
vt 0.42544755 0.91400925
vt 0.42544755 0.91400925
vt 0.42544755 0.92030912
vt 0.42544755 0.94555958
vt 0.42544755 0.95185945
vt 0.42544755 0.96159578
vt 0.42544755 0.96789565
vt 0.42544755 0.96789565
vt 0.42544755 0.98049538
vt 0.42544755 0.88537332
vt 0.42544755 0.92030912
vt 0.42544755 0.93925972
vt 0.42544755 0.95185945
vt 0.42544755 0.96159578
vt 0.42544755 0.88537332
vt 0.42544755 0.89167319
vt 0.42544755 0.89797306
vt 0.42544755 0.90427292
vt 0.42544755 0.93295985
vt 0.42544755 0.97419551
vt 0.42544755 0.98049538
vt 0.43493003 0.95185945
vt 0.43493003 0.96159578
vt 0.43493003 0.90427292
vt 0.43493003 0.91400925
vt 0.43656056 0.94577425
vt 0.43656056 0.89818772
vt 0.43656056 0.92009446
vt 0.43656056 0.96768098
vt 0.44101523 0.94131957
vt 0.44101523 0.89373304
vt 0.44101523 0.92454914
vt 0.44101523 0.97213566
vt 0.44710044 0.93968904
vt 0.44710044 0.89210251
vt 0.44710044 0.92617966
vt 0.44710044 0.97376619
vt 0.45318564 0.89373304
vt 0.45318564 0.92454914
vt 0.45318564 0.94131957
vt 0.45318564 0.97213566
vt 0.45764032 0.89818772
vt 0.45764032 0.92009446
vt 0.45764032 0.94577425
vt 0.45764032 0.96768098
vt 0.45927085 0.90427292
vt 0.45927085 0.91400925
vt 0.45927085 0.95185945
vt 0.45927085 0.96159578
vn -0.91597562 0.13052619 0.37940952
vn 0.91597562 0.13052619 -0.37940952
vn 0.80010315 0.50000000 -0.33141357
vn 0.46193977 0.86602540 -0.19134172
vn -2.7297952e-16 1.00000000 2.0114280e-16
vn -0.46193977 0.86602540 0.19134172
vn -0.80010315 0.50000000 0.33141357
vn -0.80010315 -0.50000000 0.33141357
vn -0.46193977 -0.86602540 0.19134172
vn 8.6204059e-16 -1.00000000 6.3216310e-16
vn 0.46193977 -0.86602540 -0.19134172
vn 0.80010315 -0.50000000 -0.33141357
vn -0.91597562 -0.13052619 0.37940952
vn 0.91597562 -0.13052619 -0.37940952
vn 0.91597562 0.13052619 -0.37940952
vn -0.91597562 0.13052619 0.37940952
vn -0.80010315 0.50000000 0.33141357
vn -0.46193977 0.86602540 0.19134172
vn 4.7412232e-16 1.00000000 -2.7297952e-16
vn 0.46193977 0.86602540 -0.19134172
vn 0.80010315 0.50000000 -0.33141357
vn 0.80010315 -0.50000000 -0.33141357
vn 0.46193977 -0.86602540 -0.19134172
vn -6.6089779e-16 -1.00000000 -7.0399981e-16
vn -0.46193977 -0.86602540 0.19134172
vn -0.80010315 -0.50000000 0.33141357
vn 0.91597562 -0.13052619 -0.37940952
vn -0.91597562 -0.13052619 0.37940952
vn 1.00000000 0.0000000e+0 -1.1198031e-16
vn 1.00000000 0.0000000e+0 -1.1198031e-16
vn 0.96592583 0.0000000e+0 0.25881905
vn 0.96592583 0.0000000e+0 0.25881905
vn 0.86602540 0.0000000e+0 0.50000000
vn 0.86602540 0.0000000e+0 0.50000000
vn 0.70710678 0.0000000e+0 0.70710678
vn 0.70710678 0.0000000e+0 0.70710678
vn 0.50000000 0.0000000e+0 0.86602540
vn 0.50000000 0.0000000e+0 0.86602540
vn 0.25881905 0.0000000e+0 0.96592583
vn 0.25881905 0.0000000e+0 0.96592583
vn 2.9394831e-16 0.0000000e+0 1.00000000
vn 2.9394831e-16 0.0000000e+0 1.00000000
vn -0.25881905 0.0000000e+0 0.96592583
vn -0.25881905 0.0000000e+0 0.96592583
vn -0.50000000 0.0000000e+0 0.86602540
vn -0.50000000 0.0000000e+0 0.86602540
vn -0.70710678 0.0000000e+0 0.70710678
vn -0.70710678 0.0000000e+0 0.70710678
vn -0.86602540 0.0000000e+0 0.50000000
vn -0.86602540 0.0000000e+0 0.50000000
vn -0.96592583 0.0000000e+0 0.25881905
vn -0.96592583 0.0000000e+0 0.25881905
vn -1.00000000 0.0000000e+0 5.4590401e-16
vn -1.00000000 0.0000000e+0 5.4590401e-16
vn -0.96592583 0.0000000e+0 -0.25881905
vn -0.96592583 0.0000000e+0 -0.25881905
vn -0.86602540 0.0000000e+0 -0.50000000
vn -0.86602540 0.0000000e+0 -0.50000000
vn -0.70710678 0.0000000e+0 -0.70710678
vn -0.70710678 0.0000000e+0 -0.70710678
vn -0.50000000 0.0000000e+0 -0.86602540
vn -0.50000000 0.0000000e+0 -0.86602540
vn -0.25881905 0.0000000e+0 -0.96592583
vn -0.25881905 0.0000000e+0 -0.96592583
vn -4.4792124e-16 0.0000000e+0 -1.00000000
vn -4.4792124e-16 0.0000000e+0 -1.00000000
vn 0.25881905 0.0000000e+0 -0.96592583
vn 0.25881905 0.0000000e+0 -0.96592583
vn 0.50000000 0.0000000e+0 -0.86602540
vn 0.50000000 0.0000000e+0 -0.86602540
vn 0.70710678 0.0000000e+0 -0.70710678
vn 0.70710678 0.0000000e+0 -0.70710678
vn 0.86602540 0.0000000e+0 -0.50000000
vn 0.86602540 0.0000000e+0 -0.50000000
vn 0.96592583 0.0000000e+0 -0.25881905
vn 0.96592583 0.0000000e+0 -0.25881905
vn 1.00000000 0.0000000e+0 -1.1198031e-16
vn 1.00000000 0.0000000e+0 -1.1198031e-16
vn 0.96592583 0.0000000e+0 0.25881905
vn 0.96592583 0.0000000e+0 0.25881905
vn 0.86602540 0.0000000e+0 0.50000000
vn 0.86602540 0.0000000e+0 0.50000000
vn 0.70710678 0.0000000e+0 0.70710678
vn 0.70710678 0.0000000e+0 0.70710678
vn 0.50000000 0.0000000e+0 0.86602540
vn 0.50000000 0.0000000e+0 0.86602540
vn 0.25881905 0.0000000e+0 0.96592583
vn 0.25881905 0.0000000e+0 0.96592583
vn 2.9394831e-16 0.0000000e+0 1.00000000
vn 2.9394831e-16 0.0000000e+0 1.00000000
vn -0.25881905 0.0000000e+0 0.96592583
vn -0.25881905 0.0000000e+0 0.96592583
vn -0.50000000 0.0000000e+0 0.86602540
vn -0.50000000 0.0000000e+0 0.86602540
vn -0.70710678 0.0000000e+0 0.70710678
vn -0.70710678 0.0000000e+0 0.70710678
vn -0.86602540 0.0000000e+0 0.50000000
vn -0.86602540 0.0000000e+0 0.50000000
vn -0.96592583 0.0000000e+0 0.25881905
vn -0.96592583 0.0000000e+0 0.25881905
vn -1.00000000 0.0000000e+0 5.4590401e-16
vn -1.00000000 0.0000000e+0 5.4590401e-16
vn -0.96592583 0.0000000e+0 -0.25881905
vn -0.96592583 0.0000000e+0 -0.25881905
vn -0.86602540 0.0000000e+0 -0.50000000
vn -0.86602540 0.0000000e+0 -0.50000000
vn -0.70710678 0.0000000e+0 -0.70710678
vn -0.70710678 0.0000000e+0 -0.70710678
vn -0.50000000 0.0000000e+0 -0.86602540
vn -0.50000000 0.0000000e+0 -0.86602540
vn -0.25881905 0.0000000e+0 -0.96592583
vn -0.25881905 0.0000000e+0 -0.96592583
vn -4.4792124e-16 0.0000000e+0 -1.00000000
vn -4.4792124e-16 0.0000000e+0 -1.00000000
vn 0.25881905 0.0000000e+0 -0.96592583
vn 0.25881905 0.0000000e+0 -0.96592583
vn 0.50000000 0.0000000e+0 -0.86602540
vn 0.50000000 0.0000000e+0 -0.86602540
vn 0.70710678 0.0000000e+0 -0.70710678
vn 0.70710678 0.0000000e+0 -0.70710678
vn 0.86602540 0.0000000e+0 -0.50000000
vn 0.86602540 0.0000000e+0 -0.50000000
vn 0.96592583 0.0000000e+0 -0.25881905
vn 0.96592583 0.0000000e+0 -0.25881905
vn -0.91597562 0.13052619 0.37940952
vn -0.91597562 0.13052619 0.37940952
vn -0.38268343 1.0257495e-16 -0.92387953
vn 0.91597562 0.13052619 -0.37940952
vn 0.91597562 0.13052619 -0.37940952
vn -0.38268343 1.0257495e-16 -0.92387953
vn 0.80010315 0.50000000 -0.33141357
vn 0.80010315 0.50000000 -0.33141357
vn -0.38268343 1.0257495e-16 -0.92387953
vn 0.46193977 0.86602540 -0.19134172
vn 0.46193977 0.86602540 -0.19134172
vn -0.38268343 1.0257495e-16 -0.92387953
vn -2.7297952e-16 1.00000000 2.0114280e-16
vn -2.7297952e-16 1.00000000 2.0114280e-16
vn -0.38268343 1.0257495e-16 -0.92387953
vn -0.46193977 0.86602540 0.19134172
vn -0.46193977 0.86602540 0.19134172
vn -0.38268343 1.0257495e-16 -0.92387953
vn -0.80010315 0.50000000 0.33141357
vn -0.80010315 0.50000000 0.33141357
vn -0.38268343 1.0257495e-16 -0.92387953
vn -0.80010315 -0.50000000 0.33141357
vn -0.80010315 -0.50000000 0.33141357
vn -0.38268343 1.0257495e-16 -0.92387953
vn -0.46193977 -0.86602540 0.19134172
vn -0.46193977 -0.86602540 0.19134172
vn -0.38268343 1.0257495e-16 -0.92387953
vn 8.6204059e-16 -1.00000000 6.3216310e-16
vn 8.6204059e-16 -1.00000000 6.3216310e-16
vn -0.38268343 1.0257495e-16 -0.92387953
vn 0.46193977 -0.86602540 -0.19134172
vn 0.46193977 -0.86602540 -0.19134172
vn -0.38268343 1.0257495e-16 -0.92387953
vn 0.80010315 -0.50000000 -0.33141357
vn 0.80010315 -0.50000000 -0.33141357
vn -0.38268343 1.0257495e-16 -0.92387953
vn -0.91597562 -0.13052619 0.37940952
vn -0.91597562 -0.13052619 0.37940952
vn -0.38268343 1.0257495e-16 -0.92387953
vn 0.91597562 -0.13052619 -0.37940952
vn 0.91597562 -0.13052619 -0.37940952
vn -0.38268343 1.0257495e-16 -0.92387953
vn 0.91597562 0.13052619 -0.37940952
vn 0.91597562 0.13052619 -0.37940952
vn 0.38268343 5.4304387e-17 0.92387953
vn -0.91597562 0.13052619 0.37940952
vn -0.91597562 0.13052619 0.37940952
vn 0.38268343 5.4304387e-17 0.92387953
vn -0.80010315 0.50000000 0.33141357
vn -0.80010315 0.50000000 0.33141357
vn 0.38268343 5.4304387e-17 0.92387953
vn -0.46193977 0.86602540 0.19134172
vn -0.46193977 0.86602540 0.19134172
vn 0.38268343 5.4304387e-17 0.92387953
vn 4.7412232e-16 1.00000000 -2.7297952e-16
vn 4.7412232e-16 1.00000000 -2.7297952e-16
vn 0.38268343 5.4304387e-17 0.92387953
vn 0.46193977 0.86602540 -0.19134172
vn 0.46193977 0.86602540 -0.19134172
vn 0.38268343 5.4304387e-17 0.92387953
vn 0.80010315 0.50000000 -0.33141357
vn 0.80010315 0.50000000 -0.33141357
vn 0.38268343 5.4304387e-17 0.92387953
vn 0.80010315 -0.50000000 -0.33141357
vn 0.80010315 -0.50000000 -0.33141357
vn 0.38268343 5.4304387e-17 0.92387953
vn 0.46193977 -0.86602540 -0.19134172
vn 0.46193977 -0.86602540 -0.19134172
vn 0.38268343 5.4304387e-17 0.92387953
vn -6.6089779e-16 -1.00000000 -7.0399981e-16
vn -6.6089779e-16 -1.00000000 -7.0399981e-16
vn 0.38268343 5.4304387e-17 0.92387953
vn -0.46193977 -0.86602540 0.19134172
vn -0.46193977 -0.86602540 0.19134172
vn 0.38268343 5.4304387e-17 0.92387953
vn -0.80010315 -0.50000000 0.33141357
vn -0.80010315 -0.50000000 0.33141357
vn 0.38268343 5.4304387e-17 0.92387953
vn 0.91597562 -0.13052619 -0.37940952
vn 0.91597562 -0.13052619 -0.37940952
vn 0.38268343 5.4304387e-17 0.92387953
vn -0.91597562 -0.13052619 0.37940952
vn -0.91597562 -0.13052619 0.37940952
vn 0.38268343 5.4304387e-17 0.92387953
g mesh2_mesh2_auv
usemtl mesh2_auv
s 1
f 55/136/145 54/132/142 53/128/139 52/124/136 51/120/133 50/114/130 75/113/166 67/117/160 66/121/157 65/125/154 64/131/151 63/135/148 74/139/163 49/140/127
f 83/134/187 82/130/184 81/127/181 80/123/178 79/119/175 78/116/172 103/115/208 95/118/202 94/122/199 93/126/196 92/129/193 91/133/190 102/137/205 77/138/169
s 2
f 1/13/29 25/12/77 48/16/123 24/17/75
f 2/10/32 26/8/80 25/12/78 1/13/30
f 3/7/34 27/6/82 26/8/79 2/10/31
f 4/3/36 28/1/84 27/6/81 3/7/33
f 5/41/38 29/42/86 28/46/83 4/45/35
f 6/38/40 30/37/88 29/42/85 5/41/37
f 7/33/42 31/34/90 30/37/87 6/38/39
f 8/29/44 32/30/92 31/34/89 7/33/41
f 9/25/46 33/26/94 32/30/91 8/29/43
f 10/22/48 34/21/96 33/26/93 9/25/45
f 11/20/50 35/19/98 34/21/95 10/22/47
f 12/15/52 36/14/100 35/19/97 11/20/49
f 13/11/54 37/12/102 36/14/99 12/15/51
f 14/9/56 38/8/104 37/12/101 13/11/53
f 15/4/58 39/5/106 38/8/103 14/9/55
f 16/2/60 40/1/108 39/5/105 15/4/57
f 17/44/62 41/43/110 40/47/107 16/48/59
f 18/40/64 42/39/112 41/43/109 17/44/61
f 19/36/66 43/35/114 42/39/111 18/40/63
f 20/32/68 44/31/116 43/35/113 19/36/65
f 21/28/70 45/27/118 44/31/115 20/32/67
f 22/24/72 46/23/120 45/27/117 21/28/69
f 23/20/74 47/18/122 46/23/119 22/24/71
f 24/17/76 48/16/124 47/18/121 23/20/73
f 49/104/125 56/76/1 62/75/7 55/95/143
f 49/104/126 74/105/162 73/77/13 56/76/1
f 51/98/132 58/63/3 57/62/2 50/97/128
f 52/111/135 59/78/4 58/63/3 51/98/131
f 53/112/138 60/79/5 59/78/4 52/111/134
f 54/103/141 61/74/6 60/73/5 53/110/137
f 55/95/144 62/75/7 61/74/6 54/103/140
f 57/62/2 76/57/14 75/96/165 50/97/129
f 63/99/146 64/89/150 69/59/9 68/58/8
f 64/89/149 65/100/153 70/80/10 69/59/9
f 65/83/152 66/84/156 71/55/11 70/61/10
f 66/84/155 67/85/159 72/56/12 71/55/11
f 67/85/158 75/96/164 76/57/14 72/56/12
f 68/58/8 73/77/13 74/105/161 63/99/147
f 77/86/167 84/49/15 90/68/21 83/91/185
f 77/86/168 102/92/204 101/50/27 84/49/15
f 79/94/174 86/60/17 85/51/16 78/93/170
f 80/81/177 87/71/18 86/60/17 79/94/173
f 81/82/180 88/54/19 87/71/18 80/81/176
f 82/90/183 89/66/20 88/64/19 81/101/179
f 83/91/186 90/68/21 89/66/20 82/90/182
f 85/51/16 104/70/28 103/109/207 78/93/171
f 91/102/188 92/87/192 97/53/23 96/52/22
f 92/87/191 93/88/195 98/72/24 97/53/23
f 93/106/194 94/107/198 99/67/25 98/65/24
f 94/107/197 95/108/201 100/69/26 99/67/25
f 95/108/200 103/109/206 104/70/28 100/69/26
f 96/52/22 101/50/27 102/92/203 91/102/189
