# Exported from Wings 3D 1.5.4
mtllib libra_rcs_srf_2_base.mtl
o libra_rcs_srf_2
#48 vertices, 26 faces
v -2.5000000e-2 1.8750000e-2 -0.12500000
v -2.5000000e-2 1.3258252e-2 -0.11174175
v -2.5000000e-2 3.7836360e-17 -0.10625000
v -2.5000000e-2 -1.3258252e-2 -0.11174175
v -2.5000000e-2 -1.8750000e-2 -0.12500000
v -2.5000000e-2 -1.3258252e-2 -0.13825825
v -2.5000000e-2 3.3243934e-17 -0.14375000
v -2.5000000e-2 1.3258252e-2 -0.13825825
v 2.5000000e-2 1.8750000e-2 -0.12500000
v 2.5000000e-2 1.3258252e-2 -0.11174175
v 2.5000000e-2 3.5540147e-17 -0.10625000
v 2.5000000e-2 -1.3258252e-2 -0.11174175
v 2.5000000e-2 -1.8750000e-2 -0.12500000
v 2.5000000e-2 -1.3258252e-2 -0.13825825
v 2.5000000e-2 3.0947722e-17 -0.14375000
v 2.5000000e-2 1.3258252e-2 -0.13825825
v 2.5000000e-2 1.7600375e-17 2.5000000e-2
v 1.7677670e-2 -1.7677670e-2 2.5000000e-2
v -5.2592564e-17 -2.5000000e-2 2.5000000e-2
v -1.7677670e-2 -1.7677670e-2 2.5000000e-2
v -2.5000000e-2 1.4538758e-17 2.5000000e-2
v -1.7677670e-2 1.7677670e-2 2.5000000e-2
v -5.8715798e-17 2.5000000e-2 2.5000000e-2
v 1.7677670e-2 1.7677670e-2 2.5000000e-2
v 2.5000000e-2 1.3671396e-17 -5.0000000e-2
v 1.7677670e-2 -1.7677670e-2 -5.0000000e-2
v -5.1059271e-17 -2.5000000e-2 -5.0000000e-2
v -1.7677670e-2 -1.7677670e-2 -5.0000000e-2
v -2.5000000e-2 1.0609779e-17 -5.0000000e-2
v -1.7677670e-2 1.7677670e-2 -5.0000000e-2
v -5.7182505e-17 2.5000000e-2 -5.0000000e-2
v 1.7677670e-2 1.7677670e-2 -5.0000000e-2
v -6.9388939e-17 1.8750000e-2 -5.0000000e-2
v 1.3258252e-2 1.3258252e-2 -5.0000000e-2
v 1.8750000e-2 3.7836360e-17 -5.0000000e-2
v 1.3258252e-2 -1.3258252e-2 -5.0000000e-2
v -6.9388939e-17 -1.8750000e-2 -5.0000000e-2
v -1.3258252e-2 -1.3258252e-2 -5.0000000e-2
v -1.8750000e-2 3.3243934e-17 -5.0000000e-2
v -1.3258252e-2 1.3258252e-2 -5.0000000e-2
v -6.9388939e-17 1.8750000e-2 -0.12500000
v -6.9388939e-17 -1.8750000e-2 -0.12500000
v -1.3258252e-2 1.3258252e-2 -0.11174175
v 1.3258252e-2 1.3258252e-2 -0.11174175
v -1.8750000e-2 3.2095828e-17 -0.10625000
v 1.8750000e-2 3.6688254e-17 -0.10625000
v -1.3258252e-2 -1.3258252e-2 -0.11174175
v 1.3258252e-2 -1.3258252e-2 -0.11174175
vt 0.33484647 0.31482012
vt 0.33484647 0.32450241
vt 0.33590992 0.31482012
vt 0.33590992 0.32450241
vt 0.33847733 0.31482012
vt 0.33847733 0.32450241
vt 0.34104473 0.31482012
vt 0.34104473 0.32450241
vt 0.34210819 0.31482012
vt 0.34210819 0.32450241
vt 0.35162950 0.31966126
vt 0.35162950 0.31966126
vt 0.35419690 0.31709386
vt 0.35419690 0.32222867
vt 0.35419690 0.31709386
vt 0.35419690 0.32222867
vt 0.35526036 0.31603040
vt 0.35526036 0.32329212
vt 0.35526036 0.31603040
vt 0.35526036 0.32329212
vt 0.36615294 0.31603040
vt 0.36615294 0.31709386
vt 0.36615294 0.31966126
vt 0.36615294 0.32222867
vt 0.36615294 0.32329212
vt 0.36615294 0.31603040
vt 0.36615294 0.31709386
vt 0.36615294 0.31966126
vt 0.36615294 0.32222867
vt 0.36615294 0.32329212
vt 0.37564092 0.31966126
vt 0.37705886 0.31623805
vt 0.37705886 0.32308447
vt 0.38048207 0.31482012
vt 0.38048207 0.32450241
vt 0.38390527 0.31623805
vt 0.38390527 0.32308447
vt 0.38532321 0.31966126
vt 0.39472064 0.31482012
vt 0.39472064 0.31482012
vt 0.39472064 0.31623805
vt 0.39472064 0.31623805
vt 0.39472064 0.31966126
vt 0.39472064 0.32308447
vt 0.39472064 0.32308447
vt 0.39472064 0.32450241
vt 0.40924407 0.31482012
vt 0.40924407 0.31623805
vt 0.40924407 0.31966126
vt 0.40924407 0.32308447
vt 0.40924407 0.32450241
vt 0.40924407 0.31482012
vt 0.40924407 0.31623805
vt 0.40924407 0.31966126
vt 0.40924407 0.32308447
vt 0.40924407 0.32450241
vt 0.41882403 0.31966126
vt 0.42024197 0.31623805
vt 0.42024197 0.32308447
vt 0.42366518 0.31482012
vt 0.42366518 0.32450241
vt 0.42708838 0.31623805
vt 0.42708838 0.32308447
vt 0.42850632 0.31966126
vn 4.5998803e-17 1.00000000 -1.2016967e-16
vn 3.5776846e-17 0.70710678 0.70710678
vn 0.0000000e+0 0.0000000e+0 1.00000000
vn -4.0887824e-17 -0.70710678 0.70710678
vn -3.5776846e-17 -1.00000000 9.0127256e-17
vn -1.5332934e-17 -0.70710678 -0.70710678
vn 5.1109781e-18 -6.0084837e-17 -1.00000000
vn 3.5776846e-17 0.70710678 -0.70710678
vn 4.5998803e-17 1.00000000 -1.2016967e-16
vn 3.5776846e-17 0.70710678 0.70710678
vn 0.0000000e+0 0.0000000e+0 1.00000000
vn -4.0887824e-17 -0.70710678 0.70710678
vn -3.5776846e-17 -1.00000000 9.0127256e-17
vn -1.5332934e-17 -0.70710678 -0.70710678
vn 5.1109781e-18 -6.0084837e-17 -1.00000000
vn 3.5776846e-17 0.70710678 -0.70710678
vn -1.2016967e-16 1.00000000 -1.8688433e-17
vn 0.70710678 0.70710678 -1.1807014e-17
vn 1.00000000 -6.0084837e-17 8.6632805e-18
vn 0.70710678 -0.70710678 2.7945667e-17
vn 1.2016967e-16 -1.00000000 2.2426120e-17
vn -0.70710678 -0.70710678 7.4753733e-18
vn -1.00000000 -6.0084837e-17 -8.6632805e-18
vn -0.70710678 0.70710678 -1.9876340e-17
vn -1.2016967e-16 1.00000000 -1.8688433e-17
vn 1.2016967e-16 -1.00000000 2.2426120e-17
vn -0.70710678 0.70710678 -1.9876340e-17
vn 0.70710678 0.70710678 -1.1807014e-17
vn -1.00000000 -6.0084837e-17 -8.6632805e-18
vn 1.00000000 -6.0084837e-17 8.6632805e-18
vn -0.70710678 -0.70710678 7.4753733e-18
vn 0.70710678 -0.70710678 2.7945667e-17
vn 0.0000000e+0 3.4694470e-17 1.00000000
vn 1.00000000 9.0127256e-17 5.1109781e-18
vn 1.00000000 9.0127256e-17 5.1109781e-18
vn 0.0000000e+0 3.4694470e-17 1.00000000
vn 0.70710678 -0.70710678 5.1109781e-17
vn 0.70710678 -0.70710678 5.1109781e-17
vn 0.0000000e+0 3.4694470e-17 1.00000000
vn 1.2016967e-16 -1.00000000 6.1331737e-17
vn 1.2016967e-16 -1.00000000 6.1331737e-17
vn 0.0000000e+0 3.4694470e-17 1.00000000
vn -0.70710678 -0.70710678 3.5776846e-17
vn -0.70710678 -0.70710678 3.5776846e-17
vn 0.0000000e+0 3.4694470e-17 1.00000000
vn -1.00000000 -1.5021209e-16 -5.1109781e-18
vn -1.00000000 -1.5021209e-16 -5.1109781e-18
vn 0.0000000e+0 3.4694470e-17 1.00000000
vn -0.70710678 0.70710678 -5.6220759e-17
vn -0.70710678 0.70710678 -5.6220759e-17
vn 0.0000000e+0 3.4694470e-17 1.00000000
vn -1.5021209e-16 1.00000000 -6.1331737e-17
vn -1.5021209e-16 1.00000000 -6.1331737e-17
vn 0.0000000e+0 3.4694470e-17 1.00000000
vn 0.70710678 0.70710678 -3.0665868e-17
vn 0.70710678 0.70710678 -3.0665868e-17
vn 3.0665868e-16 0.0000000e+0 -1.00000000
vn 1.00000000 9.0127256e-17 5.1109781e-18
vn 1.00000000 9.0127256e-17 5.1109781e-18
vn 3.0665868e-16 0.0000000e+0 -1.00000000
vn 0.70710678 -0.70710678 5.1109781e-17
vn 0.70710678 -0.70710678 5.1109781e-17
vn 3.0665868e-16 0.0000000e+0 -1.00000000
vn 1.2016967e-16 -1.00000000 6.1331737e-17
vn 1.2016967e-16 -1.00000000 6.1331737e-17
vn 3.0665868e-16 0.0000000e+0 -1.00000000
vn -0.70710678 -0.70710678 3.5776846e-17
vn -0.70710678 -0.70710678 3.5776846e-17
vn 3.0665868e-16 0.0000000e+0 -1.00000000
vn -1.00000000 -1.5021209e-16 -5.1109781e-18
vn -1.00000000 -1.5021209e-16 -5.1109781e-18
vn 3.0665868e-16 0.0000000e+0 -1.00000000
vn -0.70710678 0.70710678 -5.6220759e-17
vn -0.70710678 0.70710678 -5.6220759e-17
vn 3.0665868e-16 0.0000000e+0 -1.00000000
vn -1.5021209e-16 1.00000000 -6.1331737e-17
vn -1.5021209e-16 1.00000000 -6.1331737e-17
vn 3.0665868e-16 0.0000000e+0 -1.00000000
vn 0.70710678 0.70710678 -3.0665868e-17
vn 0.70710678 0.70710678 -3.0665868e-17
g libra_rcs_srf_2_libra_rcs_srf_2_auv
usemtl libra_rcs_srf_2_auv
s 1
f 1/5/1 9/6/9 16/4/16 8/3/8
f 2/7/2 10/8/10 9/6/9 1/5/1
f 3/9/3 11/10/11 10/8/10 2/7/2
f 4/8/4 12/7/12 11/9/11 3/10/3
f 5/6/5 13/5/13 12/7/12 4/8/4
f 6/4/6 14/3/14 13/5/13 5/6/5
f 7/2/7 15/1/15 14/3/14 6/4/6
f 8/3/8 16/4/16 15/2/15 7/1/7
f 17/61/33 24/59/54 23/57/51 22/58/48 21/60/45 20/62/42 19/64/39 18/63/36
f 26/36/60 27/38/63 28/37/66 29/35/69 30/33/72 31/31/75 32/32/78 25/34/57
f 33/28/17 41/11/25 43/15/27 40/27/24
f 34/29/18 44/16/28 41/11/25 33/28/17
f 35/30/19 46/20/30 44/16/28 34/29/18
f 36/22/20 48/13/32 46/17/30 35/21/19
f 37/23/21 42/12/26 48/13/32 36/22/20
f 38/24/22 47/14/31 42/12/26 37/23/21
f 39/25/23 45/18/29 47/14/31 38/24/22
f 40/27/24 43/15/27 45/19/29 39/26/23
s 2
f 17/56/34 25/46/58 32/45/79 24/55/55
f 18/48/38 26/41/62 25/39/59 17/47/35
f 19/49/41 27/43/65 26/41/61 18/48/37
f 20/50/44 28/44/68 27/43/64 19/49/40
f 21/51/47 29/46/71 28/44/67 20/50/43
f 22/53/50 30/42/74 29/40/70 21/52/46
f 23/54/53 31/43/77 30/42/73 22/53/49
f 24/55/56 32/45/80 31/43/76 23/54/52
