# Exported from Wings 3D 1.5.4
mtllib Alniyat_Solar_1_Panel_3.mtl
o Alniyat_Solar_1_Panel_3
#12 vertices, 10 faces
v -0.80000000 -5.0000000e-3 5.0000000e-3
v -0.80000000 5.0000000e-3 5.0000000e-3
v 0.80000000 -5.0000000e-3 5.0000000e-3
v 0.80000000 5.0000000e-3 5.0000000e-3
v -0.80000000 -5.0000000e-3 -0.99500000
v -0.80000000 -9.1500000e-2 -0.49500000
v -0.80000000 5.0000000e-3 -0.99500000
v -0.80000000 -8.1500000e-2 -0.49500000
v 0.80000000 -5.0000000e-3 -0.99500000
v 0.80000000 -9.1500000e-2 -0.49500000
v 0.80000000 5.0000000e-3 -0.99500000
v 0.80000000 -8.1500000e-2 -0.49500000
vt 2.0504433e-2 0.54956967
vt 2.0504433e-2 0.73508089
vt 2.0504433e-2 0.73508089
vt 2.0504433e-2 0.78964736
vt 2.0504433e-2 0.78964736
vt 2.0504433e-2 0.97594469
vt 2.0504433e-2 0.54956967
vt 2.0842219e-2 0.75658563
vt 2.0842219e-2 0.75658563
vt 2.0842219e-2 0.76783563
vt 2.0842219e-2 0.76783563
vt 2.2602949e-2 0.75749053
vt 2.2602949e-2 0.76877904
vt 2.2602949e-2 0.75749053
vt 2.2602949e-2 0.76877904
vt 0.31931660 0.75749053
vt 0.31931660 0.76877904
vt 0.31931660 0.75749053
vt 0.31931660 0.76877904
vt 0.61603024 0.75749053
vt 0.61603024 0.76749053
vt 0.61742705 0.54956967
vt 0.61742705 0.54956967
vt 0.61742705 0.73508089
vt 0.61742705 0.73508089
vt 0.61742705 0.78964736
vt 0.61742705 0.78964736
vt 0.61742705 0.97594469
vt 0.61883493 0.75658563
vt 0.61883493 0.76783563
vn 0.0000000e+0 0.0000000e+0 1.00000000
vn -1.00000000 0.0000000e+0 0.0000000e+0
vn 0.0000000e+0 -0.98536324 0.17046784
vn 0.0000000e+0 0.98536324 -0.17046784
vn 0.0000000e+0 0.0000000e+0 1.00000000
vn -1.00000000 0.0000000e+0 0.0000000e+0
vn 0.0000000e+0 0.0000000e+0 1.00000000
vn 1.00000000 0.0000000e+0 0.0000000e+0
vn 0.0000000e+0 -0.98536324 0.17046784
vn 0.0000000e+0 0.98536324 -0.17046784
vn 0.0000000e+0 0.0000000e+0 1.00000000
vn 1.00000000 0.0000000e+0 0.0000000e+0
vn 0.0000000e+0 0.0000000e+0 -1.00000000
vn -1.00000000 0.0000000e+0 0.0000000e+0
vn 0.0000000e+0 -0.98536324 -0.17046784
vn -1.00000000 0.0000000e+0 0.0000000e+0
vn 0.0000000e+0 -0.98536324 0.17046784
vn -1.00000000 0.0000000e+0 0.0000000e+0
vn 0.0000000e+0 -0.98536324 -0.17046784
vn 0.0000000e+0 0.98536324 0.17046784
vn 0.0000000e+0 0.0000000e+0 -1.00000000
vn -1.00000000 0.0000000e+0 0.0000000e+0
vn 0.0000000e+0 0.98536324 -0.17046784
vn -1.00000000 0.0000000e+0 0.0000000e+0
vn 0.0000000e+0 0.98536324 0.17046784
vn -1.00000000 0.0000000e+0 0.0000000e+0
vn 0.0000000e+0 0.0000000e+0 -1.00000000
vn 1.00000000 0.0000000e+0 0.0000000e+0
vn 0.0000000e+0 -0.98536324 -0.17046784
vn 1.00000000 0.0000000e+0 0.0000000e+0
vn 0.0000000e+0 -0.98536324 0.17046784
vn 1.00000000 0.0000000e+0 0.0000000e+0
vn 0.0000000e+0 -0.98536324 -0.17046784
vn 0.0000000e+0 0.98536324 0.17046784
vn 0.0000000e+0 0.0000000e+0 -1.00000000
vn 1.00000000 0.0000000e+0 0.0000000e+0
vn 0.0000000e+0 0.98536324 -0.17046784
vn 1.00000000 0.0000000e+0 0.0000000e+0
vn 0.0000000e+0 0.98536324 0.17046784
vn 1.00000000 0.0000000e+0 0.0000000e+0
g Alniyat_Solar_1_Panel_3_Alniyat_Solar_1_Panel_2_auv
usemtl Alniyat_Solar_1_Panel_2_auv
s 1
f 6/23/17 10/7/31 3/3/9 1/25/3
f 8/5/25 12/27/39 11/28/34 7/6/20
s 2
f 2/4/4 4/26/10 12/28/37 8/6/23
f 7/30/21 11/11/35 9/9/27 5/29/13
s 3
f 1/8/1 3/29/7 4/30/11 2/10/5
f 5/24/15 9/2/29 10/1/33 6/22/19
s 4
f 1/20/2 2/21/6 8/17/24 6/16/16
f 6/16/18 8/17/26 7/15/22 5/14/14
f 9/20/28 11/21/36 12/19/40 10/18/32
f 10/18/30 12/19/38 4/13/12 3/12/8
