# Exported from Wings 3D 1.5.4
mtllib Ara_Antenna_1_Base.mtl
o Ara_Antenna_1_Base
#82 vertices, 82 faces
v 6.2499943e-2 0.20000000 -3.5771895e-17
v 5.7742414e-2 0.20000000 2.3917715e-2
v 4.4194117e-2 0.20000000 4.4194174e-2
v 2.3917658e-2 0.20000000 5.7742471e-2
v -5.6929464e-8 0.20000000 6.2500000e-2
v -2.3917771e-2 0.20000000 5.7742471e-2
v -4.4194231e-2 0.20000000 4.4194174e-2
v -5.7742528e-2 0.20000000 2.3917715e-2
v -6.2500057e-2 0.20000000 -2.8117853e-17
v -5.7742528e-2 0.20000000 -2.3917715e-2
v -4.4194231e-2 0.20000000 -4.4194174e-2
v -2.3917771e-2 0.20000000 -5.7742471e-2
v -5.6929464e-8 0.20000000 -6.2500000e-2
v 2.3917658e-2 0.20000000 -5.7742471e-2
v 4.4194117e-2 0.20000000 -4.4194174e-2
v 5.7742414e-2 0.20000000 -2.3917715e-2
v 0.12499994 0.0000000e+0 -3.7947076e-17
v 0.11548488 0.0000000e+0 4.7835429e-2
v 8.8388291e-2 0.0000000e+0 8.8388348e-2
v 4.7835372e-2 0.0000000e+0 0.11548494
v -5.6929464e-8 0.0000000e+0 0.12500000
v -4.7835486e-2 0.0000000e+0 0.11548494
v -8.8388405e-2 0.0000000e+0 8.8388348e-2
v -0.11548500 0.0000000e+0 4.7835429e-2
v -0.12500006 0.0000000e+0 -2.2638991e-17
v -0.11548500 0.0000000e+0 -4.7835429e-2
v -8.8388405e-2 0.0000000e+0 -8.8388348e-2
v -4.7835486e-2 0.0000000e+0 -0.11548494
v -5.6929464e-8 0.0000000e+0 -0.12500000
v 4.7835372e-2 0.0000000e+0 -0.11548494
v 8.8388291e-2 0.0000000e+0 -8.8388348e-2
v 0.11548488 0.0000000e+0 -4.7835429e-2
v -5.6929464e-8 0.20000000 -3.8120711e-17
v -6.2500057e-2 0.32500000 0.0000000e+0
v -6.2500057e-2 0.31584709 2.2097087e-2
v -6.2500057e-2 0.29375000 3.1250000e-2
v -6.2500057e-2 0.27165291 2.2097087e-2
v -6.2500057e-2 0.26250000 3.8270212e-18
v -6.2500057e-2 0.27165291 -2.2097087e-2
v -6.2500057e-2 0.29375000 -3.1250000e-2
v -6.2500057e-2 0.31584709 -2.2097087e-2
v 6.2499943e-2 0.32500000 0.0000000e+0
v 6.2499943e-2 0.31584709 2.2097087e-2
v 6.2499943e-2 0.29375000 3.1250000e-2
v 6.2499943e-2 0.27165291 2.2097087e-2
v 6.2499943e-2 0.26250000 3.8270212e-18
v 6.2499943e-2 0.27165291 -2.2097087e-2
v 6.2499943e-2 0.29375000 -3.1250000e-2
v 6.2499943e-2 0.31584709 -2.2097087e-2
v -5.6929464e-8 0.29375000 3.1250000e-2
v -5.6929464e-8 0.29375000 -3.1250000e-2
v 3.1249943e-2 0.20000000 -3.5721039e-17
v 2.2097030e-2 0.20000000 2.2097087e-2
v -5.6929464e-8 0.20000000 3.1250000e-2
v -2.2097144e-2 0.20000000 2.2097087e-2
v -3.1250057e-2 0.20000000 -3.6693363e-17
v -2.2097144e-2 0.20000000 -2.2097087e-2
v -5.6929464e-8 0.20000000 -3.1250000e-2
v 2.2097030e-2 0.20000000 -2.2097087e-2
v -2.2097144e-2 0.27165291 -2.2097087e-2
v -3.1250057e-2 0.26250000 -3.8293144e-17
v 2.2097030e-2 0.27165291 -2.2097087e-2
v 3.1249943e-2 0.26250000 -3.7320820e-17
v 2.2097030e-2 0.27165291 2.2097087e-2
v -2.2097144e-2 0.27165291 2.2097087e-2
v 8.6613649e-2 -3.0000000e-2 -3.5876572e-2
v 9.3749943e-2 -3.0000000e-2 -3.7350765e-17
v 8.6613649e-2 -3.0000000e-2 3.5876572e-2
v 6.6291204e-2 -3.0000000e-2 6.6291261e-2
v 3.5876515e-2 -3.0000000e-2 8.6613706e-2
v -5.6929464e-8 -3.0000000e-2 9.3750000e-2
v -3.5876629e-2 -3.0000000e-2 8.6613706e-2
v -6.6291318e-2 -3.0000000e-2 6.6291261e-2
v -8.6613763e-2 -3.0000000e-2 3.5876572e-2
v -9.3750057e-2 -3.0000000e-2 -2.5869701e-17
v -8.6613763e-2 -3.0000000e-2 -3.5876572e-2
v -6.6291318e-2 -3.0000000e-2 -6.6291261e-2
v -3.5876629e-2 -3.0000000e-2 -8.6613706e-2
v -5.6929464e-8 -3.0000000e-2 -9.3750000e-2
v 3.5876515e-2 -3.0000000e-2 -8.6613706e-2
v 6.6291204e-2 -3.0000000e-2 -6.6291261e-2
v -5.6929464e-8 -3.2000000e-2 -4.3941678e-17
vt 0.14282586 0.20788045
vt 0.14310634 0.23906752
vt 0.14310634 0.23906752
vt 0.14310634 0.23906752
vt 0.14373568 0.20330649
vt 0.14373568 0.21245442
vt 0.14632662 0.19942887
vt 0.14632662 0.21633204
vt 0.15020424 0.19683793
vt 0.15020424 0.21892298
vt 0.15229156 0.23906752
vt 0.15229156 0.23906752
vt 0.15229156 0.23906752
vt 0.15235462 0.27859779
vt 0.15235462 0.27859779
vt 0.15235462 0.27859779
vt 0.15235462 0.27859779
vt 0.15477820 0.19592811
vt 0.15477820 0.20788045
vt 0.15477820 0.21983280
vt 0.15694723 0.27859779
vt 0.15694723 0.27859779
vt 0.15694723 0.27859779
vt 0.15694723 0.27859779
vt 0.15695730 0.29737804
vt 0.15695730 0.29737804
vt 0.15702915 0.33400257
vt 0.15702915 0.33857654
vt 0.15702915 0.34315050
vt 0.15702915 0.34772446
vt 0.15702915 0.35229843
vt 0.15702915 0.35687239
vt 0.15702915 0.36144636
vt 0.15702915 0.36602032
vt 0.15702915 0.37059428
vt 0.15935216 0.19683793
vt 0.15935216 0.21892298
vt 0.15959145 0.30928645
vt 0.15959145 0.29733411
vt 0.15959145 0.30928645
vt 0.15959145 0.29733411
vt 0.16046265 0.29737804
vt 0.16046265 0.29737804
vt 0.16046265 0.29737804
vt 0.16160290 0.23906752
vt 0.16160290 0.27859779
vt 0.16160290 0.23906752
vt 0.16160290 0.27859779
vt 0.16160290 0.23906752
vt 0.16160290 0.27859779
vt 0.16160290 0.27859779
vt 0.16322978 0.19942887
vt 0.16322978 0.21633204
vt 0.16416541 0.29733411
vt 0.16416541 0.31103683
vt 0.16416541 0.29733411
vt 0.16416541 0.31103683
vt 0.16582073 0.20330649
vt 0.16582073 0.21245442
vt 0.16625857 0.27859779
vt 0.16625857 0.27859779
vt 0.16625857 0.27859779
vt 0.16625857 0.27859779
vt 0.16673054 0.20788045
vt 0.16873938 0.29733411
vt 0.16873938 0.31526262
vt 0.16873938 0.29733411
vt 0.16873938 0.31526262
vt 0.16892530 0.29737804
vt 0.16892530 0.29737804
vt 0.17085118 0.27859779
vt 0.17085118 0.27859779
vt 0.17085118 0.27859779
vt 0.17085118 0.27859779
vt 0.17091424 0.23906752
vt 0.17091424 0.23906752
vt 0.17091424 0.23906752
vt 0.17331334 0.31103683
vt 0.17331334 0.29733411
vt 0.17331334 0.31103683
vt 0.17331334 0.29733411
vt 0.17738795 0.29737804
vt 0.17738795 0.29737804
vt 0.17788730 0.29733411
vt 0.17788730 0.30928645
vt 0.17788730 0.29733411
vt 0.17788730 0.30928645
vt 0.18009946 0.23906752
vt 0.18009946 0.23906752
vt 0.18009946 0.23906752
vt 0.18089330 0.29737804
vt 0.18089330 0.29737804
vt 0.18093383 0.33400257
vt 0.18093383 0.33857654
vt 0.18093383 0.34315050
vt 0.18093383 0.34772446
vt 0.18093383 0.35229843
vt 0.18093383 0.35687239
vt 0.18093383 0.36144636
vt 0.18093383 0.36602032
vt 0.18093383 0.37059428
vt 0.18700255 0.19612715
vt 0.18882219 0.18697922
vt 0.18882219 0.20527508
vt 0.19297873 0.19612715
vt 0.19400407 0.17922399
vt 0.19400407 0.21303032
vt 0.19434345 0.18926621
vt 0.19434345 0.20298810
vt 0.19822987 0.18344978
vt 0.19822987 0.20880453
vt 0.19822987 0.18344978
vt 0.19822987 0.20880453
vt 0.20175931 0.17404210
vt 0.20175931 0.21821220
vt 0.20404629 0.17956336
vt 0.20404629 0.21269094
vt 0.20404629 0.17956336
vt 0.20404629 0.21269094
vt 0.21090724 0.17819864
vt 0.21090724 0.19612715
vt 0.21090724 0.21405567
vt 0.21090724 0.17222247
vt 0.21090724 0.17819864
vt 0.21090724 0.21405567
vt 0.21090724 0.22003184
vt 0.21776819 0.17956336
vt 0.21776819 0.21269094
vt 0.21776819 0.17956336
vt 0.21776819 0.21269094
vt 0.22005517 0.17404210
vt 0.22005517 0.21821220
vt 0.22358461 0.18344978
vt 0.22358461 0.20880453
vt 0.22747103 0.18926621
vt 0.22747103 0.20298810
vt 0.22747103 0.18926621
vt 0.22747103 0.20298810
vt 0.22781041 0.17922399
vt 0.22781041 0.21303032
vt 0.22883575 0.19612715
vt 0.22883575 0.19612715
vt 0.23299229 0.18697922
vt 0.23299229 0.20527508
vt 0.23481193 0.19612715
vn 0.0000000e+0 1.00000000 -9.9727120e-17
vn -3.0042419e-17 2.2248122e-17 1.00000000
vn -6.0084837e-17 -1.8540102e-17 -1.00000000
vn 1.00000000 1.5009203e-32 -9.0127256e-17
vn 0.70710678 2.4839396e-17 0.70710678
vn -3.0042419e-17 2.2248122e-17 1.00000000
vn -0.70710678 1.5695839e-17 0.70710678
vn -1.00000000 4.1692231e-33 1.2016967e-16
vn -0.70710678 -1.5695839e-17 -0.70710678
vn -6.0084837e-17 -1.8540102e-17 -1.00000000
vn 0.70710678 -2.1131375e-17 -0.70710678
vn -0.70710678 -1.5695839e-17 -0.70710678
vn -1.00000000 4.1692231e-33 1.2016967e-16
vn 0.70710678 -2.1131375e-17 -0.70710678
vn 1.00000000 1.5009203e-32 -9.0127256e-17
vn 0.70710678 2.4839396e-17 0.70710678
vn -0.70710678 1.5695839e-17 0.70710678
vn -1.0844586e-18 -1.00000000 5.8560765e-18
vn 0.95447998 0.29827499 -2.8251386e-17
vn 0.95447998 0.29827499 -2.8251386e-17
vn 0.0000000e+0 1.00000000 -5.0770170e-16
vn 0.0000000e+0 1.00000000 -5.0770170e-16
vn 0.88182452 0.29827499 0.36526367
vn 0.88182452 0.29827499 0.36526367
vn 0.0000000e+0 1.00000000 -2.9011526e-16
vn 0.0000000e+0 1.00000000 -2.9011526e-16
vn 0.67491926 0.29827499 0.67491926
vn 0.67491926 0.29827499 0.67491926
vn 0.0000000e+0 1.00000000 0.0000000e+0
vn 0.0000000e+0 1.00000000 0.0000000e+0
vn 0.36526367 0.29827499 0.88182452
vn 0.36526367 0.29827499 0.88182452
vn 0.0000000e+0 1.00000000 0.0000000e+0
vn 0.0000000e+0 1.00000000 0.0000000e+0
vn 0.0000000e+0 0.29827499 0.95447998
vn 0.0000000e+0 0.29827499 0.95447998
vn 0.0000000e+0 1.00000000 -5.8023051e-16
vn 0.0000000e+0 1.00000000 -5.8023051e-16
vn -0.36526367 0.29827499 0.88182452
vn -0.36526367 0.29827499 0.88182452
vn 0.0000000e+0 1.00000000 9.8607613e-32
vn 0.0000000e+0 1.00000000 9.8607613e-32
vn -0.67491926 0.29827499 0.67491926
vn -0.67491926 0.29827499 0.67491926
vn 0.0000000e+0 1.00000000 5.8023051e-16
vn 0.0000000e+0 1.00000000 5.8023051e-16
vn -0.88182452 0.29827499 0.36526367
vn -0.88182452 0.29827499 0.36526367
vn 0.0000000e+0 1.00000000 -1.1604610e-15
vn 0.0000000e+0 1.00000000 -1.1604610e-15
vn -0.95447998 0.29827499 1.8363401e-16
vn -0.95447998 0.29827499 1.8363401e-16
vn 0.0000000e+0 1.00000000 2.9011526e-16
vn 0.0000000e+0 1.00000000 2.9011526e-16
vn -0.88182452 0.29827499 -0.36526367
vn -0.88182452 0.29827499 -0.36526367
vn 0.0000000e+0 1.00000000 2.9011526e-16
vn 0.0000000e+0 1.00000000 2.9011526e-16
vn -0.67491926 0.29827499 -0.67491926
vn -0.67491926 0.29827499 -0.67491926
vn 0.0000000e+0 1.00000000 -1.1604610e-15
vn 0.0000000e+0 1.00000000 -1.1604610e-15
vn -0.36526367 0.29827499 -0.88182452
vn -0.36526367 0.29827499 -0.88182452
vn 0.0000000e+0 1.00000000 5.8023051e-16
vn 0.0000000e+0 1.00000000 5.8023051e-16
vn -2.4013678e-16 0.29827499 -0.95447998
vn -2.4013678e-16 0.29827499 -0.95447998
vn 0.0000000e+0 1.00000000 0.0000000e+0
vn 0.0000000e+0 1.00000000 0.0000000e+0
vn 0.36526367 0.29827499 -0.88182452
vn 0.36526367 0.29827499 -0.88182452
vn 0.0000000e+0 1.00000000 1.1832914e-30
vn 0.0000000e+0 1.00000000 1.1832914e-30
vn 0.67491926 0.29827499 -0.67491926
vn 0.67491926 0.29827499 -0.67491926
vn 0.0000000e+0 1.00000000 5.8023051e-16
vn 0.0000000e+0 1.00000000 5.8023051e-16
vn 0.88182452 0.29827499 -0.36526367
vn 0.88182452 0.29827499 -0.36526367
vn 0.0000000e+0 1.00000000 -2.1758644e-16
vn 0.0000000e+0 1.00000000 -2.1758644e-16
vn 0.95447998 0.29827499 -2.8251386e-17
vn 0.95447998 0.29827499 -2.8251386e-17
vn 0.69253183 -0.72138732 -9.8061887e-17
vn 0.69253183 -0.72138732 -9.8061887e-17
vn 0.88182452 0.29827499 0.36526367
vn 0.88182452 0.29827499 0.36526367
vn 0.63981598 -0.72138732 0.26502046
vn 0.63981598 -0.72138732 0.26502046
vn 0.67491926 0.29827499 0.67491926
vn 0.67491926 0.29827499 0.67491926
vn 0.48969395 -0.72138732 0.48969395
vn 0.48969395 -0.72138732 0.48969395
vn 0.36526367 0.29827499 0.88182452
vn 0.36526367 0.29827499 0.88182452
vn 0.26502046 -0.72138732 0.63981598
vn 0.26502046 -0.72138732 0.63981598
vn 0.0000000e+0 0.29827499 0.95447998
vn 0.0000000e+0 0.29827499 0.95447998
vn 0.0000000e+0 -0.72138732 0.69253183
vn 0.0000000e+0 -0.72138732 0.69253183
vn -0.36526367 0.29827499 0.88182452
vn -0.36526367 0.29827499 0.88182452
vn -0.26502046 -0.72138732 0.63981598
vn -0.26502046 -0.72138732 0.63981598
vn -0.67491926 0.29827499 0.67491926
vn -0.67491926 0.29827499 0.67491926
vn -0.48969395 -0.72138732 0.48969395
vn -0.48969395 -0.72138732 0.48969395
vn -0.88182452 0.29827499 0.36526367
vn -0.88182452 0.29827499 0.36526367
vn -0.63981598 -0.72138732 0.26502046
vn -0.63981598 -0.72138732 0.26502046
vn -0.95447998 0.29827499 1.8363401e-16
vn -0.95447998 0.29827499 1.8363401e-16
vn -0.69253183 -0.72138732 8.4053046e-17
vn -0.69253183 -0.72138732 8.4053046e-17
vn -0.88182452 0.29827499 -0.36526367
vn -0.88182452 0.29827499 -0.36526367
vn -0.63981598 -0.72138732 -0.26502046
vn -0.63981598 -0.72138732 -0.26502046
vn -0.67491926 0.29827499 -0.67491926
vn -0.67491926 0.29827499 -0.67491926
vn -0.48969395 -0.72138732 -0.48969395
vn -0.48969395 -0.72138732 -0.48969395
vn -0.36526367 0.29827499 -0.88182452
vn -0.36526367 0.29827499 -0.88182452
vn -0.26502046 -0.72138732 -0.63981598
vn -0.26502046 -0.72138732 -0.63981598
vn -2.4013678e-16 0.29827499 -0.95447998
vn -2.4013678e-16 0.29827499 -0.95447998
vn -9.8061887e-17 -0.72138732 -0.69253183
vn -9.8061887e-17 -0.72138732 -0.69253183
vn 0.36526367 0.29827499 -0.88182452
vn 0.36526367 0.29827499 -0.88182452
vn 0.26502046 -0.72138732 -0.63981598
vn 0.26502046 -0.72138732 -0.63981598
vn 0.67491926 0.29827499 -0.67491926
vn 0.67491926 0.29827499 -0.67491926
vn 0.48969395 -0.72138732 -0.48969395
vn 0.48969395 -0.72138732 -0.48969395
vn 0.88182452 0.29827499 -0.36526367
vn 0.88182452 0.29827499 -0.36526367
vn 0.63981598 -0.72138732 -0.26502046
vn 0.63981598 -0.72138732 -0.26502046
vn -1.00000000 -7.8504623e-17 0.0000000e+0
vn 0.0000000e+0 1.00000000 6.0084837e-17
vn 0.0000000e+0 1.00000000 6.0084837e-17
vn -1.00000000 -7.8504623e-17 0.0000000e+0
vn 0.0000000e+0 0.70710678 0.70710678
vn 0.0000000e+0 0.70710678 0.70710678
vn -1.00000000 -7.8504623e-17 0.0000000e+0
vn 0.0000000e+0 6.0084837e-17 1.00000000
vn 0.0000000e+0 6.0084837e-17 1.00000000
vn -1.00000000 -7.8504623e-17 0.0000000e+0
vn -1.1039713e-16 -0.70710678 0.70710678
vn -1.1039713e-16 -0.70710678 0.70710678
vn -1.00000000 -7.8504623e-17 0.0000000e+0
vn -2.2079425e-16 -1.00000000 0.0000000e+0
vn -2.2079425e-16 -1.00000000 0.0000000e+0
vn -1.00000000 -7.8504623e-17 0.0000000e+0
vn -1.1039713e-16 -0.70710678 -0.70710678
vn -1.1039713e-16 -0.70710678 -0.70710678
vn -1.00000000 -7.8504623e-17 0.0000000e+0
vn 0.0000000e+0 -1.5021209e-16 -1.00000000
vn 0.0000000e+0 -1.5021209e-16 -1.00000000
vn -1.00000000 -7.8504623e-17 0.0000000e+0
vn 0.0000000e+0 0.70710678 -0.70710678
vn 0.0000000e+0 0.70710678 -0.70710678
vn 1.00000000 -3.1401849e-16 0.0000000e+0
vn 0.0000000e+0 1.00000000 6.0084837e-17
vn 0.0000000e+0 1.00000000 6.0084837e-17
vn 1.00000000 -3.1401849e-16 0.0000000e+0
vn 0.0000000e+0 0.70710678 0.70710678
vn 0.0000000e+0 0.70710678 0.70710678
vn 1.00000000 -3.1401849e-16 0.0000000e+0
vn 0.0000000e+0 6.0084837e-17 1.00000000
vn 0.0000000e+0 6.0084837e-17 1.00000000
vn 1.00000000 -3.1401849e-16 0.0000000e+0
vn -1.1039713e-16 -0.70710678 0.70710678
vn -1.1039713e-16 -0.70710678 0.70710678
vn 1.00000000 -3.1401849e-16 0.0000000e+0
vn -2.2079425e-16 -1.00000000 0.0000000e+0
vn -2.2079425e-16 -1.00000000 0.0000000e+0
vn 1.00000000 -3.1401849e-16 0.0000000e+0
vn -1.1039713e-16 -0.70710678 -0.70710678
vn -1.1039713e-16 -0.70710678 -0.70710678
vn 1.00000000 -3.1401849e-16 0.0000000e+0
vn 0.0000000e+0 -1.5021209e-16 -1.00000000
vn 0.0000000e+0 -1.5021209e-16 -1.00000000
vn 1.00000000 -3.1401849e-16 0.0000000e+0
vn 0.0000000e+0 0.70710678 -0.70710678
vn 0.0000000e+0 0.70710678 -0.70710678
vn 0.63981598 -0.72138732 -0.26502046
vn 0.63981598 -0.72138732 -0.26502046
vn 1.9704947e-2 -0.99977252 -8.1620561e-3
vn 1.9704947e-2 -0.99977252 -8.1620561e-3
vn 0.69253183 -0.72138732 -9.8061887e-17
vn 0.69253183 -0.72138732 -9.8061887e-17
vn 2.1328480e-2 -0.99977252 -1.3444228e-17
vn 2.1328480e-2 -0.99977252 -1.3444228e-17
vn 0.63981598 -0.72138732 0.26502046
vn 0.63981598 -0.72138732 0.26502046
vn 1.9704947e-2 -0.99977252 8.1620561e-3
vn 1.9704947e-2 -0.99977252 8.1620561e-3
vn 0.48969395 -0.72138732 0.48969395
vn 0.48969395 -0.72138732 0.48969395
vn 1.5081513e-2 -0.99977252 1.5081513e-2
vn 1.5081513e-2 -0.99977252 1.5081513e-2
vn 0.26502046 -0.72138732 0.63981598
vn 0.26502046 -0.72138732 0.63981598
vn 8.1620561e-3 -0.99977252 1.9704947e-2
vn 8.1620561e-3 -0.99977252 1.9704947e-2
vn 0.0000000e+0 -0.72138732 0.69253183
vn 0.0000000e+0 -0.72138732 0.69253183
vn 0.0000000e+0 -0.99977252 2.1328480e-2
vn 0.0000000e+0 -0.99977252 2.1328480e-2
vn -0.26502046 -0.72138732 0.63981598
vn -0.26502046 -0.72138732 0.63981598
vn -8.1620561e-3 -0.99977252 1.9704947e-2
vn -8.1620561e-3 -0.99977252 1.9704947e-2
vn -0.48969395 -0.72138732 0.48969395
vn -0.48969395 -0.72138732 0.48969395
vn -1.5081513e-2 -0.99977252 1.5081513e-2
vn -1.5081513e-2 -0.99977252 1.5081513e-2
vn -0.63981598 -0.72138732 0.26502046
vn -0.63981598 -0.72138732 0.26502046
vn -1.9704947e-2 -0.99977252 8.1620561e-3
vn -1.9704947e-2 -0.99977252 8.1620561e-3
vn -0.69253183 -0.72138732 8.4053046e-17
vn -0.69253183 -0.72138732 8.4053046e-17
vn -2.1328480e-2 -0.99977252 6.9389563e-18
vn -2.1328480e-2 -0.99977252 6.9389563e-18
vn -0.63981598 -0.72138732 -0.26502046
vn -0.63981598 -0.72138732 -0.26502046
vn -1.9704947e-2 -0.99977252 -8.1620561e-3
vn -1.9704947e-2 -0.99977252 -8.1620561e-3
vn -0.48969395 -0.72138732 -0.48969395
vn -0.48969395 -0.72138732 -0.48969395
vn -1.5081513e-2 -0.99977252 -1.5081513e-2
vn -1.5081513e-2 -0.99977252 -1.5081513e-2
vn -0.26502046 -0.72138732 -0.63981598
vn -0.26502046 -0.72138732 -0.63981598
vn -8.1620561e-3 -0.99977252 -1.9704947e-2
vn -8.1620561e-3 -0.99977252 -1.9704947e-2
vn -9.8061887e-17 -0.72138732 -0.69253183
vn -9.8061887e-17 -0.72138732 -0.69253183
vn -4.3368477e-18 -0.99977252 -2.1328480e-2
vn -4.3368477e-18 -0.99977252 -2.1328480e-2
vn 0.26502046 -0.72138732 -0.63981598
vn 0.26502046 -0.72138732 -0.63981598
vn 8.1620561e-3 -0.99977252 -1.9704947e-2
vn 8.1620561e-3 -0.99977252 -1.9704947e-2
vn 0.48969395 -0.72138732 -0.48969395
vn 0.48969395 -0.72138732 -0.48969395
vn 1.5081513e-2 -0.99977252 -1.5081513e-2
vn 1.5081513e-2 -0.99977252 -1.5081513e-2
g Ara_Antenna_1_Base_Ara_Antenna_1_Base_auv
usemtl Ara_Antenna_1_Base_auv
s 1
f 1/64/21 33/19/1 2/58/25
f 2/58/26 33/19/1 3/52/30
f 3/52/29 33/19/1 4/36/34
f 4/36/33 33/19/1 5/18/38
f 5/18/37 33/19/1 6/9/42
f 6/9/41 33/19/1 7/7/46
f 7/7/45 33/19/1 8/5/50
f 8/5/49 33/19/1 9/1/54
f 9/1/53 33/19/1 10/6/58
f 10/6/57 33/19/1 11/8/62
f 11/8/61 33/19/1 12/10/66
f 12/10/65 33/19/1 13/20/70
f 13/20/69 33/19/1 14/37/74
f 14/37/73 33/19/1 15/53/78
f 15/53/77 33/19/1 16/59/82
f 16/59/81 33/19/1 1/64/22
f 17/145/85 67/142/199 66/137/195 32/143/145
f 18/144/89 68/138/203 67/142/200 17/145/86
f 19/140/93 69/134/207 68/138/204 18/144/90
f 20/132/97 70/130/211 69/134/208 19/140/94
f 21/126/101 71/125/215 70/130/212 20/132/98
f 22/115/105 72/119/219 71/125/216 21/126/102
f 23/107/109 73/113/223 72/119/220 22/115/106
f 24/104/113 74/109/227 73/113/224 23/107/110
f 25/102/117 75/105/231 74/109/228 24/104/114
f 26/103/121 76/108/235 75/105/232 25/102/118
f 27/106/125 77/112/239 76/108/236 26/103/122
f 28/114/129 78/118/243 77/112/240 27/106/126
f 29/123/133 79/124/247 78/118/244 28/114/130
f 30/131/137 80/129/251 79/124/248 29/123/134
f 31/139/141 81/133/255 80/129/252 30/131/138
f 32/143/146 66/137/196 81/133/256 31/139/142
f 34/69/147 41/42/168 40/25/165 39/42/162 38/69/159 37/82/156 36/91/153 35/82/150
f 43/44/174 44/26/177 45/43/180 46/70/183 47/83/186 48/92/189 49/83/192 42/70/171
f 50/66/2 65/55/17 55/54/7 54/65/6
f 51/68/3 62/57/14 59/56/11 58/67/10
f 52/84/4 63/85/15 64/78/16 53/79/5
f 54/65/6 53/79/5 64/78/16 50/66/2
f 55/54/7 65/55/17 61/38/13 56/39/8
f 56/86/8 61/87/13 60/80/12 57/81/9
f 58/67/10 57/81/9 60/80/12 51/68/3
f 59/56/11 62/57/14 63/40/15 52/41/4
s 2
f 1/51/19 17/49/83 32/13/143 16/23/79
f 2/63/24 18/77/88 17/49/84 1/51/20
f 3/74/28 19/90/92 18/77/87 2/63/23
f 4/61/32 20/76/96 19/89/91 3/72/27
f 5/48/36 21/47/100 20/76/95 4/61/31
f 6/24/40 22/12/104 21/47/99 5/48/35
f 7/15/44 23/3/108 22/12/103 6/24/39
f 8/22/48 24/13/112 23/4/107 7/16/43
f 9/50/52 25/49/116 24/13/111 8/22/47
f 10/62/56 26/77/120 25/49/115 9/50/51
f 11/73/60 27/90/124 26/77/119 10/62/55
f 12/60/64 28/75/128 27/88/123 11/71/59
f 13/46/68 29/45/132 28/75/127 12/60/63
f 14/21/72 30/11/136 29/45/131 13/46/67
f 15/14/76 31/2/140 30/11/135 14/21/71
f 16/23/80 32/13/144 31/4/139 15/17/75
f 34/101/148 42/35/172 49/34/193 41/100/169
f 35/94/152 43/28/176 42/27/173 34/93/149
f 36/95/155 44/29/179 43/28/175 35/94/151
f 37/96/158 45/30/182 44/29/178 36/95/154
f 38/97/161 46/31/185 45/30/181 37/96/157
f 39/98/164 47/32/188 46/31/184 38/97/160
f 40/99/167 48/33/191 47/32/187 39/98/163
f 41/100/170 49/34/194 48/33/190 40/99/166
f 66/135/198 82/121/18 81/133/258
f 67/141/201 82/121/18 66/135/197
f 68/136/205 82/121/18 67/141/202
f 69/134/209 82/121/18 68/136/206
f 70/128/213 82/121/18 69/134/210
f 71/122/217 82/121/18 70/128/214
f 72/117/221 82/121/18 71/122/218
f 73/111/225 82/121/18 72/117/222
f 74/109/229 82/121/18 73/111/226
f 75/105/233 82/121/18 74/109/230
f 76/108/237 82/121/18 75/105/234
f 77/110/241 82/121/18 76/108/238
f 78/116/245 82/121/18 77/110/242
f 79/120/249 82/121/18 78/116/246
f 80/127/253 82/121/18 79/120/250
f 81/133/257 82/121/18 80/127/254
