# Exported from Wings 3D 1.5.4
mtllib Ara_Antenna_1_Arm.mtl
o Ara_Antenna_1_Arm
#40 vertices, 24 faces
v -8.7500000e-2 4.1736044e-17 4.6875000e-2
v -8.7500000e-2 -3.3145630e-2 3.3145630e-2
v -8.7500000e-2 -4.6875000e-2 5.7405319e-18
v -8.7500000e-2 -3.3145630e-2 -3.3145630e-2
v -8.7500000e-2 3.0254980e-17 -4.6875000e-2
v -6.2500000e-2 3.5995512e-17 4.6875000e-2
v -6.2500000e-2 -3.3145630e-2 3.3145630e-2
v -6.2500000e-2 -4.6875000e-2 5.7405319e-18
v -6.2500000e-2 -3.3145630e-2 -3.3145630e-2
v -6.2500000e-2 2.4514448e-17 -4.6875000e-2
v -8.7500000e-2 0.26562500 0.0000000e+0
v -8.7500000e-2 0.25189563 3.3145630e-2
v -8.7500000e-2 0.25189563 -3.3145630e-2
v -6.2500000e-2 0.26562500 0.0000000e+0
v -6.2500000e-2 0.25189563 3.3145630e-2
v -6.2500000e-2 0.25189563 -3.3145630e-2
v -6.2500000e-2 0.21875000 -4.6875000e-2
v -8.7500000e-2 0.21875000 -4.6875000e-2
v -8.7500000e-2 0.21875000 4.6875000e-2
v -6.2500000e-2 0.21875000 4.6875000e-2
v 6.2500000e-2 4.1736044e-17 4.6875000e-2
v 6.2500000e-2 -3.3145630e-2 3.3145630e-2
v 6.2500000e-2 -4.6875000e-2 5.7405319e-18
v 6.2500000e-2 -3.3145630e-2 -3.3145630e-2
v 6.2500000e-2 3.0254980e-17 -4.6875000e-2
v 8.7500000e-2 3.5995512e-17 4.6875000e-2
v 8.7500000e-2 -3.3145630e-2 3.3145630e-2
v 8.7500000e-2 -4.6875000e-2 5.7405319e-18
v 8.7500000e-2 -3.3145630e-2 -3.3145630e-2
v 8.7500000e-2 2.4514448e-17 -4.6875000e-2
v 6.2500000e-2 0.26562500 0.0000000e+0
v 6.2500000e-2 0.25189563 3.3145630e-2
v 6.2500000e-2 0.25189563 -3.3145630e-2
v 8.7500000e-2 0.26562500 0.0000000e+0
v 8.7500000e-2 0.25189563 3.3145630e-2
v 8.7500000e-2 0.25189563 -3.3145630e-2
v 8.7500000e-2 0.21875000 -4.6875000e-2
v 6.2500000e-2 0.21875000 -4.6875000e-2
v 6.2500000e-2 0.21875000 4.6875000e-2
v 8.7500000e-2 0.21875000 4.6875000e-2
vt 0.21121098 0.25748679
vt 0.21121098 0.29893416
vt 0.21121098 0.25748679
vt 0.21121098 0.29893416
vt 0.21381233 0.25120657
vt 0.21381233 0.30521439
vt 0.21381233 0.25120657
vt 0.21381233 0.30521439
vt 0.22009256 0.24860521
vt 0.22009256 0.30781574
vt 0.22009256 0.24860521
vt 0.22009256 0.30781574
vt 0.22637278 0.25120657
vt 0.22637278 0.30521439
vt 0.22637278 0.25120657
vt 0.22637278 0.30521439
vt 0.22897414 0.25748679
vt 0.22897414 0.29893416
vt 0.22897414 0.25748679
vt 0.22897414 0.29893416
vt 0.24757620 0.25748679
vt 0.24757620 0.29893416
vt 0.24757620 0.25748679
vt 0.24757620 0.29893416
vt 0.25017756 0.25120657
vt 0.25017756 0.30521439
vt 0.25017756 0.25120657
vt 0.25017756 0.30521439
vt 0.25645778 0.24860521
vt 0.25645778 0.30781574
vt 0.25645778 0.24860521
vt 0.25645778 0.30781574
vt 0.26273801 0.25120657
vt 0.26273801 0.30521439
vt 0.26273801 0.25120657
vt 0.26273801 0.30521439
vt 0.26533936 0.25748679
vt 0.26533936 0.29893416
vt 0.28420122 0.24860521
vt 0.28420122 0.25120657
vt 0.28420122 0.25748679
vt 0.28420122 0.29893416
vt 0.28420122 0.30521439
vt 0.28420122 0.30781574
vt 0.28893806 0.24860521
vt 0.28893806 0.25120657
vt 0.28893806 0.25748679
vt 0.28893806 0.29893416
vt 0.28893806 0.30521439
vt 0.28893806 0.30781574
vn -4.6218586e-17 -0.19509032 0.98078528
vn -4.6218586e-17 -0.19509032 0.98078528
vn -1.00000000 2.4343472e-17 0.0000000e+0
vn -1.9626156e-16 -0.70710678 0.70710678
vn -1.9626156e-16 -0.70710678 0.70710678
vn -1.00000000 2.4343472e-17 0.0000000e+0
vn -2.7803721e-16 -1.00000000 1.2016967e-16
vn -2.7803721e-16 -1.00000000 1.2016967e-16
vn -1.00000000 2.4343472e-17 0.0000000e+0
vn -1.6355130e-16 -0.70710678 -0.70710678
vn -1.6355130e-16 -0.70710678 -0.70710678
vn -1.00000000 2.4343472e-17 0.0000000e+0
vn -3.0812391e-17 -0.19509032 -0.98078528
vn -3.0812391e-17 -0.19509032 -0.98078528
vn -1.00000000 2.4343472e-17 0.0000000e+0
vn -4.6218586e-17 -0.19509032 0.98078528
vn -4.6218586e-17 -0.19509032 0.98078528
vn 1.00000000 -3.2457962e-17 0.0000000e+0
vn -1.9626156e-16 -0.70710678 0.70710678
vn -1.9626156e-16 -0.70710678 0.70710678
vn 1.00000000 -3.2457962e-17 0.0000000e+0
vn -2.7803721e-16 -1.00000000 1.2016967e-16
vn -2.7803721e-16 -1.00000000 1.2016967e-16
vn 1.00000000 -3.2457962e-17 0.0000000e+0
vn -1.6355130e-16 -0.70710678 -0.70710678
vn -1.6355130e-16 -0.70710678 -0.70710678
vn 1.00000000 -3.2457962e-17 0.0000000e+0
vn -3.0812391e-17 -0.19509032 -0.98078528
vn -3.0812391e-17 -0.19509032 -0.98078528
vn 1.00000000 -3.2457962e-17 0.0000000e+0
vn 0.0000000e+0 1.00000000 3.0042419e-17
vn 0.0000000e+0 1.00000000 3.0042419e-17
vn -1.00000000 2.4343472e-17 0.0000000e+0
vn 1.1448591e-16 0.70710678 0.70710678
vn 1.1448591e-16 0.70710678 0.70710678
vn -1.00000000 2.4343472e-17 0.0000000e+0
vn 0.0000000e+0 0.70710678 -0.70710678
vn 0.0000000e+0 0.70710678 -0.70710678
vn -1.00000000 2.4343472e-17 0.0000000e+0
vn 0.0000000e+0 1.00000000 3.0042419e-17
vn 0.0000000e+0 1.00000000 3.0042419e-17
vn 1.00000000 -3.2457962e-17 0.0000000e+0
vn 1.1448591e-16 0.70710678 0.70710678
vn 1.1448591e-16 0.70710678 0.70710678
vn 1.00000000 -3.2457962e-17 0.0000000e+0
vn 0.0000000e+0 0.70710678 -0.70710678
vn 0.0000000e+0 0.70710678 -0.70710678
vn 1.00000000 -3.2457962e-17 0.0000000e+0
vn 0.0000000e+0 0.19509032 -0.98078528
vn 0.0000000e+0 0.19509032 -0.98078528
vn 1.00000000 -3.2457962e-17 0.0000000e+0
vn 0.0000000e+0 0.19509032 -0.98078528
vn 0.0000000e+0 0.19509032 -0.98078528
vn -1.00000000 2.4343472e-17 0.0000000e+0
vn 1.0784337e-16 0.19509032 0.98078528
vn 1.0784337e-16 0.19509032 0.98078528
vn -1.00000000 2.4343472e-17 0.0000000e+0
vn 1.0784337e-16 0.19509032 0.98078528
vn 1.0784337e-16 0.19509032 0.98078528
vn 1.00000000 -3.2457962e-17 0.0000000e+0
vn -4.6218586e-17 -0.19509032 0.98078528
vn -4.6218586e-17 -0.19509032 0.98078528
vn -1.00000000 -3.2457962e-17 0.0000000e+0
vn -1.9626156e-16 -0.70710678 0.70710678
vn -1.9626156e-16 -0.70710678 0.70710678
vn -1.00000000 -3.2457962e-17 0.0000000e+0
vn -2.7803721e-16 -1.00000000 1.2016967e-16
vn -2.7803721e-16 -1.00000000 1.2016967e-16
vn -1.00000000 -3.2457962e-17 0.0000000e+0
vn -1.6355130e-16 -0.70710678 -0.70710678
vn -1.6355130e-16 -0.70710678 -0.70710678
vn -1.00000000 -3.2457962e-17 0.0000000e+0
vn -3.0812391e-17 -0.19509032 -0.98078528
vn -3.0812391e-17 -0.19509032 -0.98078528
vn -1.00000000 -3.2457962e-17 0.0000000e+0
vn -4.6218586e-17 -0.19509032 0.98078528
vn -4.6218586e-17 -0.19509032 0.98078528
vn 1.00000000 -8.1144906e-18 0.0000000e+0
vn -1.9626156e-16 -0.70710678 0.70710678
vn -1.9626156e-16 -0.70710678 0.70710678
vn 1.00000000 -8.1144906e-18 0.0000000e+0
vn -2.7803721e-16 -1.00000000 1.2016967e-16
vn -2.7803721e-16 -1.00000000 1.2016967e-16
vn 1.00000000 -8.1144906e-18 0.0000000e+0
vn -1.6355130e-16 -0.70710678 -0.70710678
vn -1.6355130e-16 -0.70710678 -0.70710678
vn 1.00000000 -8.1144906e-18 0.0000000e+0
vn -3.0812391e-17 -0.19509032 -0.98078528
vn -3.0812391e-17 -0.19509032 -0.98078528
vn 1.00000000 -8.1144906e-18 0.0000000e+0
vn 0.0000000e+0 1.00000000 3.0042419e-17
vn 0.0000000e+0 1.00000000 3.0042419e-17
vn -1.00000000 -3.2457962e-17 0.0000000e+0
vn 1.1448591e-16 0.70710678 0.70710678
vn 1.1448591e-16 0.70710678 0.70710678
vn -1.00000000 -3.2457962e-17 0.0000000e+0
vn 0.0000000e+0 0.70710678 -0.70710678
vn 0.0000000e+0 0.70710678 -0.70710678
vn -1.00000000 -3.2457962e-17 0.0000000e+0
vn 0.0000000e+0 1.00000000 3.0042419e-17
vn 0.0000000e+0 1.00000000 3.0042419e-17
vn 1.00000000 -8.1144906e-18 0.0000000e+0
vn 1.1448591e-16 0.70710678 0.70710678
vn 1.1448591e-16 0.70710678 0.70710678
vn 1.00000000 -8.1144906e-18 0.0000000e+0
vn 0.0000000e+0 0.70710678 -0.70710678
vn 0.0000000e+0 0.70710678 -0.70710678
vn 1.00000000 -8.1144906e-18 0.0000000e+0
vn 0.0000000e+0 0.19509032 -0.98078528
vn 0.0000000e+0 0.19509032 -0.98078528
vn 1.00000000 -8.1144906e-18 0.0000000e+0
vn 0.0000000e+0 0.19509032 -0.98078528
vn 0.0000000e+0 0.19509032 -0.98078528
vn -1.00000000 -3.2457962e-17 0.0000000e+0
vn 1.0784337e-16 0.19509032 0.98078528
vn 1.0784337e-16 0.19509032 0.98078528
vn -1.00000000 -3.2457962e-17 0.0000000e+0
vn 1.0784337e-16 0.19509032 0.98078528
vn 1.0784337e-16 0.19509032 0.98078528
vn 1.00000000 -8.1144906e-18 0.0000000e+0
g Ara_Antenna_1_Arm_Ara_Antenna_1_Arm_auv
usemtl Ara_Antenna_1_Arm_auv
s 1
f 1/17/3 19/18/57 12/14/36 11/10/33 13/6/39 18/2/54 5/1/15 4/5/12 3/9/9 2/13/6
f 7/25/21 8/29/24 9/33/27 10/37/30 17/38/51 16/34/48 14/30/42 15/26/45 20/22/60 6/21/18
f 21/37/63 39/38/117 32/36/96 31/32/93 33/28/99 38/24/114 25/23/75 24/27/72 23/31/69 22/35/66
f 27/7/81 28/11/84 29/15/87 30/19/90 37/20/111 36/16/108 34/12/102 35/8/105 40/4/120 26/3/78
s 2
f 2/40/5 7/46/20 6/47/16 1/41/1
f 3/39/8 8/45/23 7/46/19 2/40/4
f 4/46/11 9/40/26 8/39/22 3/45/7
f 5/47/13 10/41/28 9/40/25 4/46/10
f 5/47/14 18/48/53 17/42/50 10/41/29
f 6/47/17 20/48/59 19/42/56 1/41/2
f 11/44/32 12/43/35 15/49/44 14/50/41
f 12/43/34 19/42/55 20/48/58 15/49/43
f 14/44/40 16/43/46 13/49/37 11/50/31
f 16/43/47 17/42/49 18/48/52 13/49/38
f 22/40/65 27/46/80 26/47/76 21/41/61
f 23/39/68 28/45/83 27/46/79 22/40/64
f 24/46/71 29/40/86 28/39/82 23/45/67
f 25/47/73 30/41/88 29/40/85 24/46/70
f 25/47/74 38/48/113 37/42/110 30/41/89
f 26/47/77 40/48/119 39/42/116 21/41/62
f 31/44/92 32/43/95 35/49/104 34/50/101
f 32/43/94 39/42/115 40/48/118 35/49/103
f 34/44/100 36/43/106 33/49/97 31/50/91
f 36/43/107 37/42/109 38/48/112 33/49/98
