# Blender v2.92.0 OBJ File: ''
# www.blender.org
mtllib test shapes.mtl
o Cube1.001
v 0.887873 -0.187500 -0.188993
v 0.950000 -0.187500 -0.237500
v 0.900635 -0.187500 -0.213246
v 0.923375 -0.187500 -0.231001
v 1.050000 -0.187500 -0.237500
v 1.112127 -0.187500 -0.188993
v 1.076625 -0.187500 -0.231001
v 1.099365 -0.187500 -0.213246
v 1.137873 -0.187500 -0.086007
v 1.100000 -0.187500 -0.037500
v 1.137238 -0.187500 -0.061754
v 1.123375 -0.187500 -0.043999
v 0.900000 -0.187500 -0.037500
v 0.862127 -0.187500 -0.086007
v 0.876625 -0.187500 -0.043999
v 0.862762 -0.187500 -0.061754
v 0.900000 0.137500 -0.037500
v 0.913576 0.175373 -0.086007
v 0.862127 0.123924 -0.086007
v 0.902079 0.161112 -0.043980
v 0.876388 0.135421 -0.043980
v 0.879474 0.158026 -0.050275
v 0.888150 0.168235 -0.086007
v 0.907062 0.175014 -0.061785
v 0.882983 0.167813 -0.062810
v 0.862486 0.130438 -0.061785
v 0.869265 0.149350 -0.086007
v 0.869687 0.154517 -0.062810
v 0.887873 0.098177 -0.188993
v 0.939323 0.149627 -0.188993
v 0.950000 0.087500 -0.237500
v 0.895012 0.123603 -0.188993
v 0.900343 0.092581 -0.213215
v 0.907032 0.117173 -0.212190
v 0.944919 0.137157 -0.213215
v 0.913897 0.142488 -0.188993
v 0.920327 0.130468 -0.212190
v 0.923148 0.088661 -0.231020
v 0.948839 0.114352 -0.231020
v 0.923086 0.114414 -0.224725
v 1.100000 0.137500 -0.037500
v 1.137873 0.123924 -0.086007
v 1.086424 0.175373 -0.086007
v 1.123612 0.135421 -0.043980
v 1.097921 0.161112 -0.043980
v 1.120526 0.158026 -0.050275
v 1.130735 0.149350 -0.086007
v 1.137514 0.130438 -0.061785
v 1.130313 0.154517 -0.062810
v 1.092938 0.175014 -0.061785
v 1.111850 0.168235 -0.086007
v 1.117018 0.167813 -0.062810
v 1.060677 0.149627 -0.188993
v 1.112127 0.098177 -0.188993
v 1.050000 0.087500 -0.237500
v 1.086103 0.142488 -0.188993
v 1.055081 0.137157 -0.213215
v 1.079673 0.130468 -0.212190
v 1.099657 0.092581 -0.213215
v 1.104988 0.123603 -0.188993
v 1.092968 0.117173 -0.212190
v 1.051161 0.114352 -0.231020
v 1.076852 0.088661 -0.231020
v 1.076914 0.114414 -0.224725
vn -0.7306 -0.6779 -0.0823
vn -0.9809 0.1330 -0.1419
vn -0.9191 0.1238 -0.3742
vn -0.6846 -0.6812 -0.2596
vn 0.6846 -0.6812 -0.2596
vn 0.9191 0.1238 -0.3742
vn 0.9809 0.1330 -0.1419
vn 0.7306 -0.6779 -0.0823
vn -0.1331 0.9807 -0.1436
vn 0.1331 0.9807 -0.1436
vn 0.1239 0.9194 -0.3733
vn -0.1239 0.9194 -0.3733
vn -0.5754 -0.6631 -0.4788
vn -0.3260 -0.6629 -0.6740
vn -0.0870 -0.6812 -0.7269
vn 0.0870 -0.6812 -0.7269
vn 0.3260 -0.6629 -0.6740
vn 0.5754 -0.6631 -0.4788
vn 0.7211 -0.6435 0.2566
vn 0.4251 -0.6432 0.6369
vn 0.0988 -0.6779 0.7285
vn -0.0988 -0.6779 0.7285
vn -0.4251 -0.6432 0.6369
vn -0.7211 -0.6435 0.2566
vn 0.1429 0.1425 0.9794
vn -0.1429 0.1425 0.9794
vn -0.1468 0.5641 0.8125
vn -0.5280 0.5279 0.6652
vn -0.5645 0.1466 0.8123
vn -0.1421 0.9445 0.2961
vn -0.4930 0.8492 0.1890
vn -0.4864 0.8487 -0.2076
vn -0.8487 0.4864 -0.2076
vn -0.8492 0.4930 0.1890
vn -0.9442 0.1417 0.2973
vn -0.7911 0.4546 -0.4092
vn -0.6684 0.3895 -0.6337
vn -0.7584 0.1066 -0.6430
vn -0.4546 0.7911 -0.4092
vn -0.3895 0.6684 -0.6337
vn -0.1069 0.7592 -0.6421
vn -0.1033 0.4209 -0.9012
vn -0.3754 0.3754 -0.8474
vn -0.1144 0.1140 -0.9869
vn -0.4212 0.1031 -0.9011
vn 0.5645 0.1466 0.8123
vn 0.5279 0.5279 0.6652
vn 0.1468 0.5641 0.8125
vn 0.9442 0.1417 0.2973
vn 0.8492 0.4930 0.1890
vn 0.8487 0.4864 -0.2076
vn 0.4864 0.8487 -0.2076
vn 0.4930 0.8492 0.1890
vn 0.1421 0.9445 0.2961
vn 0.4546 0.7911 -0.4092
vn 0.3895 0.6684 -0.6337
vn 0.1069 0.7592 -0.6421
vn 0.7911 0.4546 -0.4092
vn 0.6684 0.3895 -0.6337
vn 0.7584 0.1066 -0.6430
vn 0.4212 0.1031 -0.9011
vn 0.3754 0.3754 -0.8474
vn 0.1144 0.1140 -0.9869
vn 0.1033 0.4209 -0.9012
usemtl default.001
s 1
f 14//1 19//2 29//3 1//4
f 6//5 54//6 42//7 9//8
f 18//9 43//10 53//11 30//12
f 1//4 3//13 4//14 2//15 5//16 7//17 8//18 6//5 9//8 11//19 12//20 10//21 13//22 15//23 16//24 14//1
f 13//22 10//21 41//25 17//26
f 17//26 20//27 22//28 21//29
f 20//27 24//30 25//31 22//28
f 18//9 23//32 25//31 24//30
f 23//32 27//33 28//34 25//31
f 19//2 26//35 28//34 27//33
f 26//35 21//29 22//28 28//34
f 22//28 25//31 28//34
f 29//3 32//36 34//37 33//38
f 32//36 36//39 37//40 34//37
f 30//12 35//41 37//40 36//39
f 35//41 39//42 40//43 37//40
f 31//44 38//45 40//43 39//42
f 38//45 33//38 34//37 40//43
f 34//37 37//40 40//43
f 41//25 44//46 46//47 45//48
f 44//46 48//49 49//50 46//47
f 42//7 47//51 49//50 48//49
f 47//51 51//52 52//53 49//50
f 43//10 50//54 52//53 51//52
f 50//54 45//48 46//47 52//53
f 46//47 49//50 52//53
f 53//11 56//55 58//56 57//57
f 56//55 60//58 61//59 58//56
f 54//6 59//60 61//59 60//58
f 59//60 63//61 64//62 61//59
f 55//63 62//64 64//62 63//61
f 62//64 57//57 58//56 64//62
f 58//56 61//59 64//62
f 13//22 17//26 21//29 15//23
f 15//23 21//29 26//35 16//24
f 16//24 26//35 19//2 14//1
f 18//9 30//12 36//39 23//32
f 23//32 36//39 32//36 27//33
f 27//33 32//36 29//3 19//2
f 9//8 42//7 48//49 11//19
f 11//19 48//49 44//46 12//20
f 12//20 44//46 41//25 10//21
f 30//12 53//11 57//57 35//41
f 35//41 57//57 62//64 39//42
f 39//42 62//64 55//63 31//44
f 5//16 55//63 63//61 7//17
f 7//17 63//61 59//60 8//18
f 8//18 59//60 54//6 6//5
f 42//7 54//6 60//58 47//51
f 47//51 60//58 56//55 51//52
f 51//52 56//55 53//11 43//10
f 1//4 29//3 33//38 3//13
f 3//13 33//38 38//45 4//14
f 4//14 38//45 31//44 2//15
f 17//26 41//25 45//48 20//27
f 20//27 45//48 50//54 24//30
f 24//30 50//54 43//10 18//9
f 31//44 55//63 5//16 2//15
