# Exported from Wings 3D 1.5.4
mtllib Libra_Ladder_1.mtl
o Libra_Ladder_1
#128 vertices, 70 faces
v -0.14062500 -0.58921875 -2.2837500e-2
v -0.14062500 -0.59718750 -1.4868750e-2
v -0.14062500 -0.60515625 -2.2837500e-2
v -0.14062500 -0.59718750 -3.0806250e-2
v 0.14062500 -0.58921875 -2.2837500e-2
v 0.14062500 -0.59718750 -1.4868750e-2
v 0.14062500 -0.60515625 -2.2837500e-2
v 0.14062500 -0.59718750 -3.0806250e-2
v -0.15390000 -8.7750000e-3 -3.9612500e-2
v -0.15390000 -1.5356250e-2 -4.3368087e-19
v -0.15390000 8.7750000e-3 -3.9612500e-2
v -0.15390000 1.5356250e-2 -4.3368087e-19
v -0.13635000 -8.7750000e-3 -3.9612500e-2
v -0.13635000 -1.5356250e-2 -4.3368087e-19
v -0.13635000 8.7750000e-3 -3.9612500e-2
v -0.13635000 1.5356250e-2 -4.3368087e-19
v 0.13635000 -8.7750000e-3 -3.9612500e-2
v 0.13635000 -1.5356250e-2 -4.3368087e-19
v 0.13635000 8.7750000e-3 -3.9612500e-2
v 0.13635000 1.5356250e-2 -4.3368087e-19
v 0.15390000 -8.7750000e-3 -3.9612500e-2
v 0.15390000 -1.5356250e-2 -4.3368087e-19
v 0.15390000 8.7750000e-3 -3.9612500e-2
v 0.15390000 1.5356250e-2 -4.3368087e-19
v -0.14062500 -0.26109375 -2.2837500e-2
v -0.14062500 -0.26906250 -1.4868750e-2
v -0.14062500 -0.27703125 -2.2837500e-2
v -0.14062500 -0.26906250 -3.0806250e-2
v 0.14062500 -0.26109375 -2.2837500e-2
v 0.14062500 -0.26906250 -1.4868750e-2
v 0.14062500 -0.27703125 -2.2837500e-2
v 0.14062500 -0.26906250 -3.0806250e-2
v 0.14062500 -0.74062500 -3.4868750e-2
v 0.14062500 -0.74062500 -1.0806250e-2
v 0.14062500 0.0000000e+0 -3.4868750e-2
v 0.14062500 0.0000000e+0 -1.0806250e-2
v 0.14962500 -0.74062500 -3.4868750e-2
v 0.14962500 -0.74062500 -1.0806250e-2
v 0.14962500 0.0000000e+0 -3.4868750e-2
v 0.14962500 0.0000000e+0 -1.0806250e-2
v -0.14962500 -0.74062500 -3.4868750e-2
v -0.14962500 -0.74062500 -1.0806250e-2
v -0.14962500 0.0000000e+0 -3.4868750e-2
v -0.14962500 0.0000000e+0 -1.0806250e-2
v -0.14062500 -0.74062500 -3.4868750e-2
v -0.14062500 -0.74062500 -1.0806250e-2
v -0.14062500 0.0000000e+0 -3.4868750e-2
v -0.14062500 0.0000000e+0 -1.0806250e-2
v -0.14062500 -0.52359375 -2.2837500e-2
v -0.14062500 -0.53156250 -1.4868750e-2
v -0.14062500 -0.53953125 -2.2837500e-2
v -0.14062500 -0.53156250 -3.0806250e-2
v 0.14062500 -0.52359375 -2.2837500e-2
v 0.14062500 -0.53156250 -1.4868750e-2
v 0.14062500 -0.53953125 -2.2837500e-2
v 0.14062500 -0.53156250 -3.0806250e-2
v -0.14062500 -0.45796875 -2.2837500e-2
v -0.14062500 -0.46593750 -1.4868750e-2
v -0.14062500 -0.47390625 -2.2837500e-2
v -0.14062500 -0.46593750 -3.0806250e-2
v 0.14062500 -0.45796875 -2.2837500e-2
v 0.14062500 -0.46593750 -1.4868750e-2
v 0.14062500 -0.47390625 -2.2837500e-2
v 0.14062500 -0.46593750 -3.0806250e-2
v -0.14062500 -0.39234375 -2.2837500e-2
v -0.14062500 -0.40031250 -1.4868750e-2
v -0.14062500 -0.40828125 -2.2837500e-2
v -0.14062500 -0.40031250 -3.0806250e-2
v 0.14062500 -0.39234375 -2.2837500e-2
v 0.14062500 -0.40031250 -1.4868750e-2
v 0.14062500 -0.40828125 -2.2837500e-2
v 0.14062500 -0.40031250 -3.0806250e-2
v -0.14062500 -0.32671875 -2.2837500e-2
v -0.14062500 -0.33468750 -1.4868750e-2
v -0.14062500 -0.34265625 -2.2837500e-2
v -0.14062500 -0.33468750 -3.0806250e-2
v 0.14062500 -0.32671875 -2.2837500e-2
v 0.14062500 -0.33468750 -1.4868750e-2
v 0.14062500 -0.34265625 -2.2837500e-2
v 0.14062500 -0.33468750 -3.0806250e-2
v -0.14062500 5.5156250e-3 -2.2837500e-2
v -0.14062500 -6.2500000e-5 -1.7259375e-2
v -0.14062500 -5.6406250e-3 -2.2837500e-2
v -0.14062500 -6.2500000e-5 -2.8415625e-2
v 0.14062500 5.5156250e-3 -2.2837500e-2
v 0.14062500 -6.2500000e-5 -1.7259375e-2
v 0.14062500 -5.6406250e-3 -2.2837500e-2
v 0.14062500 -6.2500000e-5 -2.8415625e-2
v -0.14062500 -6.4218750e-2 -2.2837500e-2
v -0.14062500 -7.2187500e-2 -1.4868750e-2
v -0.14062500 -8.0156250e-2 -2.2837500e-2
v -0.14062500 -7.2187500e-2 -3.0806250e-2
v 0.14062500 -6.4218750e-2 -2.2837500e-2
v 0.14062500 -7.2187500e-2 -1.4868750e-2
v 0.14062500 -8.0156250e-2 -2.2837500e-2
v 0.14062500 -7.2187500e-2 -3.0806250e-2
v -0.14062500 -0.12984375 -2.2837500e-2
v -0.14062500 -0.13781250 -1.4868750e-2
v -0.14062500 -0.14578125 -2.2837500e-2
v -0.14062500 -0.13781250 -3.0806250e-2
v 0.14062500 -0.12984375 -2.2837500e-2
v 0.14062500 -0.13781250 -1.4868750e-2
v 0.14062500 -0.14578125 -2.2837500e-2
v 0.14062500 -0.13781250 -3.0806250e-2
v -0.14062500 -0.19546875 -2.2837500e-2
v -0.14062500 -0.20343750 -1.4868750e-2
v -0.14062500 -0.21140625 -2.2837500e-2
v -0.14062500 -0.20343750 -3.0806250e-2
v 0.14062500 -0.19546875 -2.2837500e-2
v 0.14062500 -0.20343750 -1.4868750e-2
v 0.14062500 -0.21140625 -2.2837500e-2
v 0.14062500 -0.20343750 -3.0806250e-2
v -0.14062500 -0.72046875 -2.2837500e-2
v -0.14062500 -0.72843750 -1.4868750e-2
v -0.14062500 -0.73640625 -2.2837500e-2
v -0.14062500 -0.72843750 -3.0806250e-2
v 0.14062500 -0.72046875 -2.2837500e-2
v 0.14062500 -0.72843750 -1.4868750e-2
v 0.14062500 -0.73640625 -2.2837500e-2
v 0.14062500 -0.72843750 -3.0806250e-2
v -0.14062500 -0.65484375 -2.2837500e-2
v -0.14062500 -0.66281250 -1.4868750e-2
v -0.14062500 -0.67078125 -2.2837500e-2
v -0.14062500 -0.66281250 -3.0806250e-2
v 0.14062500 -0.65484375 -2.2837500e-2
v 0.14062500 -0.66281250 -1.4868750e-2
v 0.14062500 -0.67078125 -2.2837500e-2
v 0.14062500 -0.66281250 -3.0806250e-2
vt 8.7648470e-3 0.12561473
vt 8.7648470e-3 0.37011473
vt 8.7648470e-3 0.12561473
vt 8.7648470e-3 0.37011473
vt 8.7648470e-3 0.12561473
vt 8.7648470e-3 0.37011473
vt 1.7889587e-2 0.12561473
vt 1.7889587e-2 0.37011473
vt 1.7889587e-2 0.12561473
vt 1.7889587e-2 0.37011473
vt 1.7889587e-2 0.12561473
vt 1.7889587e-2 0.37011473
vt 3.4689338e-2 0.12165881
vt 3.4689338e-2 0.13219745
vt 3.4689338e-2 0.12165881
vt 3.4689338e-2 0.13219745
vt 3.5228380e-2 9.7608965e-2
vt 3.5228380e-2 9.7608965e-2
vt 3.5228380e-2 9.7608965e-2
vt 3.5228380e-2 9.7608965e-2
vt 3.5228380e-2 9.7608965e-2
vt 3.5228380e-2 9.7608965e-2
vt 3.5228380e-2 9.7608965e-2
vt 3.5228380e-2 9.7608965e-2
vt 3.5228380e-2 9.7608965e-2
vt 3.5228380e-2 9.7608965e-2
vt 3.5228380e-2 9.7608965e-2
vt 3.5228380e-2 9.7608965e-2
vt 3.5228380e-2 9.7608965e-2
vt 3.5228380e-2 0.10122430
vt 3.5228380e-2 0.10122430
vt 3.5228380e-2 0.10122430
vt 3.5228380e-2 0.10122430
vt 3.5228380e-2 0.10122430
vt 3.5228380e-2 0.10122430
vt 3.5228380e-2 0.10122430
vt 3.5228380e-2 0.10122430
vt 3.5228380e-2 0.10122430
vt 3.5228380e-2 0.10122430
vt 3.5228380e-2 0.10122430
vt 3.5228380e-2 0.10122430
vt 3.5228380e-2 0.10122430
vt 3.5228380e-2 0.10483964
vt 3.5228380e-2 0.10483964
vt 3.5228380e-2 0.10483964
vt 3.5228380e-2 0.10483964
vt 3.5228380e-2 0.10483964
vt 3.5228380e-2 0.10483964
vt 3.5228380e-2 0.10483964
vt 3.5228380e-2 0.10483964
vt 3.5228380e-2 0.10483964
vt 3.5228380e-2 0.10483964
vt 3.5228380e-2 0.10483964
vt 3.5228380e-2 0.10483964
vt 3.5228380e-2 0.10483964
vt 4.1434069e-2 0.12165881
vt 4.1434069e-2 0.13219745
vt 4.5489591e-2 0.12035202
vt 4.5489591e-2 0.13350425
vt 5.8641815e-2 0.12035202
vt 5.8641815e-2 0.13350425
vt 6.2354366e-2 0.11541994
vt 6.2354366e-2 0.13843633
vt 7.5506591e-2 0.11541994
vt 7.5506591e-2 0.13843633
vt 7.9997147e-2 0.11482873
vt 7.9997147e-2 0.13902754
vt 9.3149372e-2 0.11482873
vt 9.3149372e-2 0.13902754
vt 9.7304609e-2 0.11541994
vt 9.7304609e-2 0.13843633
vt 9.7304609e-2 0.11541994
vt 9.7304609e-2 0.13843633
vt 0.12099548 0.12035202
vt 0.12099548 0.13350425
vt 0.12099548 0.12035202
vt 0.12099548 0.13350425
vt 0.20876468 9.7608965e-2
vt 0.20876468 9.7608965e-2
vt 0.20876468 9.7608965e-2
vt 0.20876468 9.7608965e-2
vt 0.20876468 9.7608965e-2
vt 0.20876468 9.7608965e-2
vt 0.20876468 9.7608965e-2
vt 0.20876468 9.7608965e-2
vt 0.20876468 9.7608965e-2
vt 0.20876468 9.7608965e-2
vt 0.20876468 9.7608965e-2
vt 0.20876468 9.7608965e-2
vt 0.20876468 9.7608965e-2
vt 0.20876468 0.10122430
vt 0.20876468 0.10122430
vt 0.20876468 0.10122430
vt 0.20876468 0.10122430
vt 0.20876468 0.10122430
vt 0.20876468 0.10122430
vt 0.20876468 0.10122430
vt 0.20876468 0.10122430
vt 0.20876468 0.10122430
vt 0.20876468 0.10122430
vt 0.20876468 0.10122430
vt 0.20876468 0.10122430
vt 0.20876468 0.10483964
vt 0.20876468 0.10483964
vt 0.20876468 0.10483964
vt 0.20876468 0.10483964
vt 0.20876468 0.10483964
vt 0.20876468 0.10483964
vt 0.20876468 0.10483964
vt 0.20876468 0.10483964
vt 0.20876468 0.10483964
vt 0.20876468 0.10483964
vt 0.20876468 0.10483964
vt 0.20876468 0.10483964
vt 0.20876468 0.10483964
vt 0.20876468 0.10483964
vn 0.0000000e+0 0.70710678 -0.70710678
vn 0.0000000e+0 0.70710678 0.70710678
vn 0.0000000e+0 -0.70710678 0.70710678
vn 0.0000000e+0 0.70710678 0.70710678
vn 0.0000000e+0 -0.70710678 -0.70710678
vn 0.0000000e+0 -0.70710678 0.70710678
vn 0.0000000e+0 0.70710678 -0.70710678
vn 0.0000000e+0 -0.70710678 -0.70710678
vn 0.0000000e+0 0.70710678 -0.70710678
vn 0.0000000e+0 0.70710678 0.70710678
vn 0.0000000e+0 -0.70710678 0.70710678
vn 0.0000000e+0 0.70710678 0.70710678
vn 0.0000000e+0 -0.70710678 -0.70710678
vn 0.0000000e+0 -0.70710678 0.70710678
vn 0.0000000e+0 0.70710678 -0.70710678
vn 0.0000000e+0 -0.70710678 -0.70710678
vn 0.0000000e+0 -0.98647793 -0.16389417
vn 0.0000000e+0 0.0000000e+0 -1.00000000
vn -1.00000000 0.0000000e+0 0.0000000e+0
vn 0.0000000e+0 -0.98647793 -0.16389417
vn 0.0000000e+0 0.0000000e+0 1.00000000
vn -1.00000000 0.0000000e+0 0.0000000e+0
vn 0.0000000e+0 0.98647793 -0.16389417
vn 0.0000000e+0 0.0000000e+0 -1.00000000
vn -1.00000000 0.0000000e+0 0.0000000e+0
vn 0.0000000e+0 0.98647793 -0.16389417
vn 0.0000000e+0 0.0000000e+0 1.00000000
vn -1.00000000 0.0000000e+0 0.0000000e+0
vn 0.0000000e+0 -0.98647793 -0.16389417
vn 0.0000000e+0 0.0000000e+0 -1.00000000
vn 1.00000000 0.0000000e+0 0.0000000e+0
vn 0.0000000e+0 -0.98647793 -0.16389417
vn 0.0000000e+0 0.0000000e+0 1.00000000
vn 1.00000000 0.0000000e+0 0.0000000e+0
vn 0.0000000e+0 0.98647793 -0.16389417
vn 0.0000000e+0 0.0000000e+0 -1.00000000
vn 1.00000000 0.0000000e+0 0.0000000e+0
vn 0.0000000e+0 0.98647793 -0.16389417
vn 0.0000000e+0 0.0000000e+0 1.00000000
vn 1.00000000 0.0000000e+0 0.0000000e+0
vn 0.0000000e+0 -0.98647793 -0.16389417
vn 0.0000000e+0 0.0000000e+0 -1.00000000
vn -1.00000000 0.0000000e+0 0.0000000e+0
vn 0.0000000e+0 -0.98647793 -0.16389417
vn 0.0000000e+0 0.0000000e+0 1.00000000
vn -1.00000000 0.0000000e+0 0.0000000e+0
vn 0.0000000e+0 0.98647793 -0.16389417
vn 0.0000000e+0 0.0000000e+0 -1.00000000
vn -1.00000000 0.0000000e+0 0.0000000e+0
vn 0.0000000e+0 0.98647793 -0.16389417
vn 0.0000000e+0 0.0000000e+0 1.00000000
vn -1.00000000 0.0000000e+0 0.0000000e+0
vn 0.0000000e+0 -0.98647793 -0.16389417
vn 0.0000000e+0 0.0000000e+0 -1.00000000
vn 1.00000000 0.0000000e+0 0.0000000e+0
vn 0.0000000e+0 -0.98647793 -0.16389417
vn 0.0000000e+0 0.0000000e+0 1.00000000
vn 1.00000000 0.0000000e+0 0.0000000e+0
vn 0.0000000e+0 0.98647793 -0.16389417
vn 0.0000000e+0 0.0000000e+0 -1.00000000
vn 1.00000000 0.0000000e+0 0.0000000e+0
vn 0.0000000e+0 0.98647793 -0.16389417
vn 0.0000000e+0 0.0000000e+0 1.00000000
vn 1.00000000 0.0000000e+0 0.0000000e+0
vn 0.0000000e+0 0.70710678 -0.70710678
vn 0.0000000e+0 0.70710678 0.70710678
vn 0.0000000e+0 -0.70710678 0.70710678
vn 0.0000000e+0 0.70710678 0.70710678
vn 0.0000000e+0 -0.70710678 -0.70710678
vn 0.0000000e+0 -0.70710678 0.70710678
vn 0.0000000e+0 0.70710678 -0.70710678
vn 0.0000000e+0 -0.70710678 -0.70710678
vn 0.0000000e+0 0.70710678 -0.70710678
vn 0.0000000e+0 0.70710678 0.70710678
vn 0.0000000e+0 -0.70710678 0.70710678
vn 0.0000000e+0 0.70710678 0.70710678
vn 0.0000000e+0 -0.70710678 -0.70710678
vn 0.0000000e+0 -0.70710678 0.70710678
vn 0.0000000e+0 0.70710678 -0.70710678
vn 0.0000000e+0 -0.70710678 -0.70710678
vn 0.0000000e+0 -1.00000000 0.0000000e+0
vn 0.0000000e+0 0.0000000e+0 -1.00000000
vn -1.00000000 0.0000000e+0 0.0000000e+0
vn 0.0000000e+0 -1.00000000 0.0000000e+0
vn 0.0000000e+0 0.0000000e+0 1.00000000
vn -1.00000000 0.0000000e+0 0.0000000e+0
vn 0.0000000e+0 0.0000000e+0 -1.00000000
vn -1.00000000 0.0000000e+0 0.0000000e+0
vn 0.0000000e+0 0.0000000e+0 1.00000000
vn -1.00000000 0.0000000e+0 0.0000000e+0
vn 0.0000000e+0 -1.00000000 0.0000000e+0
vn 0.0000000e+0 0.0000000e+0 -1.00000000
vn 1.00000000 0.0000000e+0 0.0000000e+0
vn 0.0000000e+0 -1.00000000 0.0000000e+0
vn 0.0000000e+0 0.0000000e+0 1.00000000
vn 1.00000000 0.0000000e+0 0.0000000e+0
vn 0.0000000e+0 0.0000000e+0 -1.00000000
vn 1.00000000 0.0000000e+0 0.0000000e+0
vn 0.0000000e+0 0.0000000e+0 1.00000000
vn 1.00000000 0.0000000e+0 0.0000000e+0
vn 0.0000000e+0 -1.00000000 0.0000000e+0
vn 0.0000000e+0 0.0000000e+0 -1.00000000
vn -1.00000000 0.0000000e+0 0.0000000e+0
vn 0.0000000e+0 -1.00000000 0.0000000e+0
vn 0.0000000e+0 0.0000000e+0 1.00000000
vn -1.00000000 0.0000000e+0 0.0000000e+0
vn 0.0000000e+0 0.0000000e+0 -1.00000000
vn -1.00000000 0.0000000e+0 0.0000000e+0
vn 0.0000000e+0 0.0000000e+0 1.00000000
vn -1.00000000 0.0000000e+0 0.0000000e+0
vn 0.0000000e+0 -1.00000000 0.0000000e+0
vn 0.0000000e+0 0.0000000e+0 -1.00000000
vn 1.00000000 0.0000000e+0 0.0000000e+0
vn 0.0000000e+0 -1.00000000 0.0000000e+0
vn 0.0000000e+0 0.0000000e+0 1.00000000
vn 1.00000000 0.0000000e+0 0.0000000e+0
vn 0.0000000e+0 0.0000000e+0 -1.00000000
vn 1.00000000 0.0000000e+0 0.0000000e+0
vn 0.0000000e+0 0.0000000e+0 1.00000000
vn 1.00000000 0.0000000e+0 0.0000000e+0
vn 0.0000000e+0 0.70710678 -0.70710678
vn 0.0000000e+0 0.70710678 0.70710678
vn 0.0000000e+0 -0.70710678 0.70710678
vn 0.0000000e+0 0.70710678 0.70710678
vn 0.0000000e+0 -0.70710678 -0.70710678
vn 0.0000000e+0 -0.70710678 0.70710678
vn 0.0000000e+0 0.70710678 -0.70710678
vn 0.0000000e+0 -0.70710678 -0.70710678
vn 0.0000000e+0 0.70710678 -0.70710678
vn 0.0000000e+0 0.70710678 0.70710678
vn 0.0000000e+0 -0.70710678 0.70710678
vn 0.0000000e+0 0.70710678 0.70710678
vn 0.0000000e+0 -0.70710678 -0.70710678
vn 0.0000000e+0 -0.70710678 0.70710678
vn 0.0000000e+0 0.70710678 -0.70710678
vn 0.0000000e+0 -0.70710678 -0.70710678
vn 0.0000000e+0 0.70710678 -0.70710678
vn 0.0000000e+0 0.70710678 0.70710678
vn 0.0000000e+0 -0.70710678 0.70710678
vn 0.0000000e+0 0.70710678 0.70710678
vn 0.0000000e+0 -0.70710678 -0.70710678
vn 0.0000000e+0 -0.70710678 0.70710678
vn 0.0000000e+0 0.70710678 -0.70710678
vn 0.0000000e+0 -0.70710678 -0.70710678
vn 0.0000000e+0 0.70710678 -0.70710678
vn 0.0000000e+0 0.70710678 0.70710678
vn 0.0000000e+0 -0.70710678 0.70710678
vn 0.0000000e+0 0.70710678 0.70710678
vn 0.0000000e+0 -0.70710678 -0.70710678
vn 0.0000000e+0 -0.70710678 0.70710678
vn 0.0000000e+0 0.70710678 -0.70710678
vn 0.0000000e+0 -0.70710678 -0.70710678
vn 0.0000000e+0 0.70710678 -0.70710678
vn 0.0000000e+0 0.70710678 0.70710678
vn 0.0000000e+0 -0.70710678 0.70710678
vn 0.0000000e+0 0.70710678 0.70710678
vn 0.0000000e+0 -0.70710678 -0.70710678
vn 0.0000000e+0 -0.70710678 0.70710678
vn 0.0000000e+0 0.70710678 -0.70710678
vn 0.0000000e+0 -0.70710678 -0.70710678
vn 0.0000000e+0 0.70710678 -0.70710678
vn 0.0000000e+0 0.70710678 0.70710678
vn 0.0000000e+0 -0.70710678 0.70710678
vn 0.0000000e+0 0.70710678 0.70710678
vn 0.0000000e+0 -0.70710678 -0.70710678
vn 0.0000000e+0 -0.70710678 0.70710678
vn 0.0000000e+0 0.70710678 -0.70710678
vn 0.0000000e+0 -0.70710678 -0.70710678
vn 0.0000000e+0 0.70710678 -0.70710678
vn 0.0000000e+0 0.70710678 0.70710678
vn 0.0000000e+0 -0.70710678 0.70710678
vn 0.0000000e+0 0.70710678 0.70710678
vn 0.0000000e+0 -0.70710678 -0.70710678
vn 0.0000000e+0 -0.70710678 0.70710678
vn 0.0000000e+0 0.70710678 -0.70710678
vn 0.0000000e+0 -0.70710678 -0.70710678
vn 0.0000000e+0 0.70710678 -0.70710678
vn 0.0000000e+0 0.70710678 0.70710678
vn 0.0000000e+0 -0.70710678 0.70710678
vn 0.0000000e+0 0.70710678 0.70710678
vn 0.0000000e+0 -0.70710678 -0.70710678
vn 0.0000000e+0 -0.70710678 0.70710678
vn 0.0000000e+0 0.70710678 -0.70710678
vn 0.0000000e+0 -0.70710678 -0.70710678
vn 0.0000000e+0 0.70710678 -0.70710678
vn 0.0000000e+0 0.70710678 0.70710678
vn 0.0000000e+0 -0.70710678 0.70710678
vn 0.0000000e+0 0.70710678 0.70710678
vn 0.0000000e+0 -0.70710678 -0.70710678
vn 0.0000000e+0 -0.70710678 0.70710678
vn 0.0000000e+0 0.70710678 -0.70710678
vn 0.0000000e+0 -0.70710678 -0.70710678
vn 0.0000000e+0 0.70710678 -0.70710678
vn 0.0000000e+0 0.70710678 0.70710678
vn 0.0000000e+0 -0.70710678 0.70710678
vn 0.0000000e+0 0.70710678 0.70710678
vn 0.0000000e+0 -0.70710678 -0.70710678
vn 0.0000000e+0 -0.70710678 0.70710678
vn 0.0000000e+0 0.70710678 -0.70710678
vn 0.0000000e+0 -0.70710678 -0.70710678
vn 0.0000000e+0 0.70710678 -0.70710678
vn 0.0000000e+0 0.70710678 0.70710678
vn 0.0000000e+0 -0.70710678 0.70710678
vn 0.0000000e+0 0.70710678 0.70710678
vn 0.0000000e+0 -0.70710678 -0.70710678
vn 0.0000000e+0 -0.70710678 0.70710678
vn 0.0000000e+0 0.70710678 -0.70710678
vn 0.0000000e+0 -0.70710678 -0.70710678
vn 0.0000000e+0 0.70710678 -0.70710678
vn 0.0000000e+0 0.70710678 0.70710678
vn 0.0000000e+0 -0.70710678 0.70710678
vn 0.0000000e+0 0.70710678 0.70710678
vn 0.0000000e+0 -0.70710678 -0.70710678
vn 0.0000000e+0 -0.70710678 0.70710678
vn 0.0000000e+0 0.70710678 -0.70710678
vn 0.0000000e+0 -0.70710678 -0.70710678
vn 0.0000000e+0 0.70710678 -0.70710678
vn 0.0000000e+0 0.70710678 0.70710678
vn 0.0000000e+0 -0.70710678 0.70710678
vn 0.0000000e+0 0.70710678 0.70710678
vn 0.0000000e+0 -0.70710678 -0.70710678
vn 0.0000000e+0 -0.70710678 0.70710678
vn 0.0000000e+0 0.70710678 -0.70710678
vn 0.0000000e+0 -0.70710678 -0.70710678
vn 0.0000000e+0 0.70710678 -0.70710678
vn 0.0000000e+0 0.70710678 0.70710678
vn 0.0000000e+0 -0.70710678 0.70710678
vn 0.0000000e+0 0.70710678 0.70710678
vn 0.0000000e+0 -0.70710678 -0.70710678
vn 0.0000000e+0 -0.70710678 0.70710678
vn 0.0000000e+0 0.70710678 -0.70710678
vn 0.0000000e+0 -0.70710678 -0.70710678
vn 0.0000000e+0 0.70710678 -0.70710678
vn 0.0000000e+0 0.70710678 0.70710678
vn 0.0000000e+0 -0.70710678 0.70710678
vn 0.0000000e+0 0.70710678 0.70710678
vn 0.0000000e+0 -0.70710678 -0.70710678
vn 0.0000000e+0 -0.70710678 0.70710678
vn 0.0000000e+0 0.70710678 -0.70710678
vn 0.0000000e+0 -0.70710678 -0.70710678
vn 0.0000000e+0 0.70710678 -0.70710678
vn 0.0000000e+0 0.70710678 0.70710678
vn 0.0000000e+0 -0.70710678 0.70710678
vn 0.0000000e+0 0.70710678 0.70710678
vn 0.0000000e+0 -0.70710678 -0.70710678
vn 0.0000000e+0 -0.70710678 0.70710678
vn 0.0000000e+0 0.70710678 -0.70710678
vn 0.0000000e+0 -0.70710678 -0.70710678
vn 0.0000000e+0 0.70710678 -0.70710678
vn 0.0000000e+0 0.70710678 0.70710678
vn 0.0000000e+0 -0.70710678 0.70710678
vn 0.0000000e+0 0.70710678 0.70710678
vn 0.0000000e+0 -0.70710678 -0.70710678
vn 0.0000000e+0 -0.70710678 0.70710678
vn 0.0000000e+0 0.70710678 -0.70710678
vn 0.0000000e+0 -0.70710678 -0.70710678
vn 0.0000000e+0 0.70710678 -0.70710678
vn 0.0000000e+0 0.70710678 0.70710678
vn 0.0000000e+0 -0.70710678 0.70710678
vn 0.0000000e+0 0.70710678 0.70710678
vn 0.0000000e+0 -0.70710678 -0.70710678
vn 0.0000000e+0 -0.70710678 0.70710678
vn 0.0000000e+0 0.70710678 -0.70710678
vn 0.0000000e+0 -0.70710678 -0.70710678
vn 0.0000000e+0 0.70710678 -0.70710678
vn 0.0000000e+0 0.70710678 0.70710678
vn 0.0000000e+0 -0.70710678 0.70710678
vn 0.0000000e+0 0.70710678 0.70710678
vn 0.0000000e+0 -0.70710678 -0.70710678
vn 0.0000000e+0 -0.70710678 0.70710678
vn 0.0000000e+0 0.70710678 -0.70710678
vn 0.0000000e+0 -0.70710678 -0.70710678
vn 0.0000000e+0 0.70710678 -0.70710678
vn 0.0000000e+0 0.70710678 0.70710678
vn 0.0000000e+0 -0.70710678 0.70710678
vn 0.0000000e+0 0.70710678 0.70710678
vn 0.0000000e+0 -0.70710678 -0.70710678
vn 0.0000000e+0 -0.70710678 0.70710678
vn 0.0000000e+0 0.70710678 -0.70710678
vn 0.0000000e+0 -0.70710678 -0.70710678
g Libra_Ladder_1_Libra_Ladder_1_auv
usemtl Libra_Ladder_1_auv
s 1
f 9/69/17 13/67/29 14/66/32 10/68/20
f 12/66/26 16/68/38 15/69/35 11/67/23
f 17/69/41 21/67/53 22/66/56 18/68/44
f 20/66/50 24/68/62 23/69/59 19/67/47
f 34/3/85 38/9/95 40/10/99 36/4/89
f 35/8/87 39/2/97 37/1/92 33/7/82
f 42/3/105 46/9/115 48/10/119 44/4/109
f 43/8/107 47/2/117 45/1/112 41/7/102
f 50/35/124 54/94/132 53/106/130 49/46/122
f 52/92/128 56/41/136 55/28/133 51/78/125
f 57/114/137 61/43/145 64/31/151 60/99/143
f 59/17/142 63/90/150 62/99/147 58/30/139
f 65/107/153 69/46/161 72/33/167 68/95/159
f 67/26/158 71/81/166 70/93/163 66/37/155
f 74/33/172 78/99/180 77/111/178 73/46/170
f 76/97/176 80/33/184 79/18/181 75/84/173
f 82/37/188 86/95/196 85/108/194 81/50/186
f 84/95/192 88/37/200 87/23/197 83/82/189
f 90/34/204 94/95/212 93/107/210 89/49/202
f 92/95/208 96/37/216 95/25/213 91/80/205
f 106/33/236 110/95/244 109/108/242 105/50/234
f 108/95/240 112/33/248 111/23/245 107/82/237
f 113/104/249 117/55/257 120/42/263 116/91/255
f 115/18/254 119/88/262 118/100/259 114/32/251
f 121/109/265 125/51/273 128/40/279 124/101/271
f 123/25/270 127/82/278 126/101/275 122/40/267
s 2
f 2/40/4 6/101/12 5/109/10 1/51/2
f 4/102/8 8/38/16 7/20/13 3/87/5
f 10/62/21 14/64/33 16/65/39 12/63/27
f 11/61/24 15/59/36 13/58/30 9/60/18
f 18/62/45 22/64/57 24/65/63 20/63/51
f 19/61/48 23/59/60 21/58/54 17/60/42
f 25/108/65 29/50/73 32/37/79 28/95/71
f 27/24/70 31/81/78 30/95/75 26/37/67
f 33/57/81 37/16/91 38/15/94 34/56/84
f 41/57/101 45/14/111 46/13/114 42/56/104
f 66/37/156 70/93/164 69/105/162 65/52/154
f 68/95/160 72/33/168 71/21/165 67/84/157
f 73/110/169 77/45/177 80/33/183 76/97/175
f 75/20/174 79/86/182 78/99/179 74/33/171
f 81/111/185 85/49/193 88/37/199 84/95/191
f 83/24/190 87/81/198 86/95/195 82/37/187
f 98/39/220 102/96/228 101/109/226 97/53/218
f 100/98/224 104/36/232 103/22/229 99/85/221
f 105/107/233 109/49/241 112/33/247 108/95/239
f 107/24/238 111/83/246 110/95/243 106/33/235
f 122/40/268 126/101/276 125/109/274 121/51/266
f 124/101/272 128/40/280 127/25/277 123/82/269
s 3
f 1/113/1 5/48/9 8/38/15 4/102/7
f 3/25/6 7/82/14 6/101/11 2/40/3
f 10/70/22 12/71/28 11/75/25 9/74/19
f 13/74/31 15/75/37 16/71/40 14/70/34
f 18/70/46 20/71/52 19/75/49 17/74/43
f 21/76/55 23/77/61 24/73/64 22/72/58
f 26/37/68 30/95/76 29/108/74 25/50/66
f 28/95/72 32/37/80 31/24/77 27/81/69
f 34/9/86 36/10/90 35/4/88 33/3/83
f 37/11/93 39/12/98 40/6/100 38/5/96
f 42/9/106 44/10/110 43/4/108 41/3/103
f 45/11/113 47/12/118 48/6/120 46/5/116
f 49/103/121 53/54/129 56/41/135 52/92/127
f 51/23/126 55/80/134 54/94/131 50/35/123
f 58/30/140 62/99/148 61/116/146 57/43/138
f 60/99/144 64/31/152 63/19/149 59/89/141
f 89/107/201 93/53/209 96/37/215 92/95/207
f 91/23/206 95/80/214 94/95/211 90/34/203
f 97/112/217 101/47/225 104/36/231 100/98/223
f 99/27/222 103/82/230 102/96/227 98/39/219
f 114/32/252 118/100/260 117/115/258 113/44/250
f 116/91/256 120/42/264 119/29/261 115/79/253
