# Exported from Wings 3D 1.5.4
mtllib Rana_Mount_1.mtl
o Rana_Mount_1
#24 vertices, 22 faces
v -0.15625000 5.2500000e-2 -0.15625000
v -0.15625000 5.2500000e-2 0.15625000
v -0.15625000 0.10250000 -0.15625000
v -0.15625000 0.10250000 0.15625000
v 0.15625000 5.2500000e-2 -0.15625000
v 0.15625000 5.2500000e-2 0.15625000
v 0.15625000 0.10250000 -0.15625000
v 0.15625000 0.10250000 0.15625000
v -0.13125000 4.0000000e-2 0.13125000
v -0.13125000 4.0000000e-2 -0.13125000
v 0.13125000 4.0000000e-2 -0.13125000
v 0.13125000 4.0000000e-2 0.13125000
v -0.13125000 0.10250000 -0.13125000
v -0.13125000 0.10250000 0.13125000
v 0.13125000 0.10250000 0.13125000
v 0.13125000 0.10250000 -0.13125000
v -0.13125000 -2.2500000e-2 0.13125000
v -0.13125000 -2.2500000e-2 -0.13125000
v 0.13125000 -2.2500000e-2 -0.13125000
v 0.13125000 -2.2500000e-2 0.13125000
v -0.11875000 9.0000000e-2 -0.11875000
v -0.11875000 9.0000000e-2 0.11875000
v 0.11875000 9.0000000e-2 0.11875000
v 0.11875000 9.0000000e-2 -0.11875000
vt 3.3016801e-2 0.23649323
vt 3.3016801e-2 0.23661779
vt 3.3016801e-2 0.27561779
vt 3.3016801e-2 0.27561779
vt 3.3016801e-2 0.30474089
vt 3.3016801e-2 0.23649323
vt 3.3016801e-2 0.23649323
vt 3.3016801e-2 0.23661779
vt 3.3016801e-2 0.27561779
vt 3.3016801e-2 0.30474089
vt 5.2516801e-2 0.21596872
vt 5.2516801e-2 0.21596872
vt 5.2516801e-2 0.32551270
vt 5.2516801e-2 0.32553800
vt 5.2516801e-2 0.34198112
vt 5.2516801e-2 0.15806711
vt 5.2516801e-2 0.15806711
vt 5.2516801e-2 0.21615438
vt 5.2516801e-2 0.21615438
vt 5.2516801e-2 0.32551270
vt 5.2516801e-2 0.34201589
vt 5.2516801e-2 0.54460469
vt 0.10370430 2.5392678e-2
vt 0.10370430 0.12764009
vt 0.20607930 2.5392678e-2
vt 0.20607930 0.12764009
vt 0.25663259 0.32551270
vt 0.25663259 0.32551270
vt 0.25663259 0.32551270
vt 0.25663259 0.32553800
vt 0.25663259 0.34198112
vt 0.25663259 0.34201589
vt 0.25663259 0.54460469
vt 0.25726680 0.15806711
vt 0.25726680 0.15806711
vt 0.25726680 0.21596872
vt 0.25726680 0.21615438
vt 0.25726680 0.21615438
vt 0.25726680 0.21596872
vt 0.25726680 0.21596872
vt 0.27676680 0.23649323
vt 0.27676680 0.23649323
vt 0.27676680 0.30474089
vt 0.27676680 0.23649323
vt 0.27676680 0.23661779
vt 0.27676680 0.27561779
vt 0.27676680 0.27561779
vt 0.27676680 0.30474089
vn 0.0000000e+0 0.0000000e+0 -1.00000000
vn -1.00000000 0.0000000e+0 0.0000000e+0
vn -0.23570226 -0.94280904 -0.23570226
vn -0.23570226 -0.94280904 -0.23570226
vn 0.0000000e+0 0.0000000e+0 1.00000000
vn -1.00000000 0.0000000e+0 0.0000000e+0
vn -0.23570226 -0.94280904 0.23570226
vn -0.23570226 -0.94280904 0.23570226
vn 0.0000000e+0 0.0000000e+0 -1.00000000
vn -1.00000000 0.0000000e+0 0.0000000e+0
vn 0.0000000e+0 1.00000000 0.0000000e+0
vn 0.0000000e+0 1.00000000 0.0000000e+0
vn 0.0000000e+0 0.0000000e+0 1.00000000
vn -1.00000000 0.0000000e+0 0.0000000e+0
vn 0.0000000e+0 1.00000000 0.0000000e+0
vn 0.0000000e+0 1.00000000 0.0000000e+0
vn 0.0000000e+0 0.0000000e+0 -1.00000000
vn 1.00000000 0.0000000e+0 0.0000000e+0
vn 0.23570226 -0.94280904 -0.23570226
vn 0.23570226 -0.94280904 -0.23570226
vn 0.0000000e+0 0.0000000e+0 1.00000000
vn 1.00000000 0.0000000e+0 0.0000000e+0
vn 0.23570226 -0.94280904 0.23570226
vn 0.23570226 -0.94280904 0.23570226
vn 0.0000000e+0 0.0000000e+0 -1.00000000
vn 1.00000000 0.0000000e+0 0.0000000e+0
vn 0.0000000e+0 1.00000000 0.0000000e+0
vn 0.0000000e+0 1.00000000 0.0000000e+0
vn 0.0000000e+0 0.0000000e+0 1.00000000
vn 1.00000000 0.0000000e+0 0.0000000e+0
vn 0.0000000e+0 1.00000000 0.0000000e+0
vn 0.0000000e+0 1.00000000 0.0000000e+0
vn -0.23570226 -0.94280904 0.23570226
vn -0.23570226 -0.94280904 0.23570226
vn 0.0000000e+0 0.0000000e+0 1.00000000
vn -1.00000000 0.0000000e+0 0.0000000e+0
vn -0.23570226 -0.94280904 -0.23570226
vn -0.23570226 -0.94280904 -0.23570226
vn 0.0000000e+0 0.0000000e+0 -1.00000000
vn -1.00000000 0.0000000e+0 0.0000000e+0
vn 0.23570226 -0.94280904 -0.23570226
vn 0.23570226 -0.94280904 -0.23570226
vn 0.0000000e+0 0.0000000e+0 -1.00000000
vn 1.00000000 0.0000000e+0 0.0000000e+0
vn 0.23570226 -0.94280904 0.23570226
vn 0.23570226 -0.94280904 0.23570226
vn 1.00000000 0.0000000e+0 0.0000000e+0
vn 0.0000000e+0 0.0000000e+0 1.00000000
vn 0.0000000e+0 1.00000000 0.0000000e+0
vn 0.0000000e+0 1.00000000 0.0000000e+0
vn 0.70710678 0.70710678 0.0000000e+0
vn 0.0000000e+0 0.70710678 0.70710678
vn 0.0000000e+0 1.00000000 0.0000000e+0
vn 0.0000000e+0 1.00000000 0.0000000e+0
vn 0.70710678 0.70710678 0.0000000e+0
vn 0.0000000e+0 0.70710678 -0.70710678
vn 0.0000000e+0 1.00000000 0.0000000e+0
vn 0.0000000e+0 1.00000000 0.0000000e+0
vn 0.0000000e+0 0.70710678 -0.70710678
vn -0.70710678 0.70710678 0.0000000e+0
vn 0.0000000e+0 1.00000000 0.0000000e+0
vn 0.0000000e+0 1.00000000 0.0000000e+0
vn -0.70710678 0.70710678 0.0000000e+0
vn 0.0000000e+0 0.70710678 0.70710678
vn 0.0000000e+0 0.0000000e+0 1.00000000
vn -1.00000000 0.0000000e+0 0.0000000e+0
vn 0.0000000e+0 -1.00000000 0.0000000e+0
vn 0.0000000e+0 0.0000000e+0 -1.00000000
vn -1.00000000 0.0000000e+0 0.0000000e+0
vn 0.0000000e+0 -1.00000000 0.0000000e+0
vn 0.0000000e+0 0.0000000e+0 -1.00000000
vn 1.00000000 0.0000000e+0 0.0000000e+0
vn 0.0000000e+0 -1.00000000 0.0000000e+0
vn 1.00000000 0.0000000e+0 0.0000000e+0
vn 0.0000000e+0 0.0000000e+0 1.00000000
vn 0.0000000e+0 -1.00000000 0.0000000e+0
vn 0.70710678 0.70710678 0.0000000e+0
vn 0.0000000e+0 0.70710678 0.70710678
vn 0.0000000e+0 1.00000000 0.0000000e+0
vn 0.70710678 0.70710678 0.0000000e+0
vn 0.0000000e+0 0.70710678 -0.70710678
vn 0.0000000e+0 1.00000000 0.0000000e+0
vn 0.0000000e+0 0.70710678 -0.70710678
vn -0.70710678 0.70710678 0.0000000e+0
vn 0.0000000e+0 1.00000000 0.0000000e+0
vn -0.70710678 0.70710678 0.0000000e+0
vn 0.0000000e+0 0.70710678 0.70710678
vn 0.0000000e+0 1.00000000 0.0000000e+0
g Rana_Mount_1_Rana_Mount_1_auv
usemtl Rana_Mount_1_auv
s 1
f 2/45/6 4/47/14 3/4/10 1/2/2
f 5/45/18 7/46/26 8/3/30 6/2/22
f 9/19/35 17/16/65 20/34/75 12/38/48
f 11/19/43 19/16/71 18/34/68 10/38/39
f 13/14/52 21/15/78 24/31/87 16/30/64
f 15/14/59 23/15/83 22/31/81 14/30/56
s 2
f 2/2/5 6/45/21 8/46/29 4/3/13
f 3/46/9 7/9/25 5/8/17 1/45/1
f 14/14/55 22/15/80 21/31/77 13/30/51
f 16/14/63 24/15/86 23/31/84 15/30/60
f 19/24/73 20/23/76 17/25/67 18/26/70
s 3
f 1/7/3 10/12/37 9/40/33 2/44/7
f 2/7/8 9/12/34 12/40/46 6/44/24
f 3/48/12 13/29/50 16/13/62 7/5/28
f 5/1/19 11/11/41 10/39/38 1/41/4
f 6/6/23 12/11/45 11/36/42 5/42/20
f 8/48/31 15/29/57 14/20/54 4/10/16
f 22/21/82 23/32/85 24/33/88 21/22/79
s 4
f 4/43/15 14/27/53 13/13/49 3/10/11
f 7/43/27 16/28/61 15/13/58 8/10/32
f 10/18/40 18/17/69 17/35/66 9/37/36
f 12/19/47 20/16/74 19/34/72 11/38/44
