# Blender v2.92.0 OBJ File: 'synthesizer.blend'
# www.blender.org
mtllib synthesizer.mtl
o synthesizer_Cube
v -0.248503 -0.000000 0.069804
v -0.248503 0.026267 0.069804
v -0.248503 -0.000000 -0.069804
v -0.248503 0.026267 -0.069804
v 0.248503 -0.000000 0.069804
v 0.248503 0.026267 0.069804
v 0.248503 -0.000000 -0.069804
v 0.248503 0.026267 -0.069804
v -0.162562 -0.000000 0.069804
v -0.162562 0.026267 0.069804
v 0.227272 -0.000000 0.069804
v 0.227272 0.026267 0.069804
v -0.162562 0.026267 -0.026242
v 0.227272 0.026267 -0.026242
v 0.227272 0.019422 0.069804
v -0.162562 0.019422 0.069804
v -0.162562 0.021358 -0.026242
v 0.227272 0.021358 -0.026242
v -0.119338 0.026267 -0.040117
v -0.119338 0.030909 -0.040117
v -0.104523 0.030909 -0.052061
v -0.104523 0.026267 -0.052061
v -0.092579 0.026267 -0.052061
v -0.092579 0.030909 -0.052061
v -0.107394 0.030909 -0.040117
v -0.107394 0.026267 -0.040117
v -0.148005 0.026267 -0.040117
v -0.148005 0.030909 -0.040117
v -0.133190 0.030909 -0.052061
v -0.133190 0.026267 -0.052061
v -0.121245 0.026267 -0.052061
v -0.121245 0.030909 -0.052061
v -0.136060 0.030909 -0.040117
v -0.136060 0.026267 -0.040117
v -0.090672 0.026267 -0.040117
v -0.090672 0.030909 -0.040117
v -0.075857 0.030909 -0.052061
v -0.075857 0.026267 -0.052061
v -0.063912 0.026267 -0.052061
v -0.063912 0.030909 -0.052061
v -0.078727 0.030909 -0.040117
v -0.078727 0.026267 -0.040117
v 0.079618 0.026267 -0.040117
v 0.079618 0.030909 -0.040117
v 0.094433 0.030909 -0.052061
v 0.094433 0.026267 -0.052061
v 0.106377 0.026267 -0.052061
v 0.106377 0.030909 -0.052061
v 0.091562 0.030909 -0.040117
v 0.091562 0.026267 -0.040117
v 0.050952 0.026267 -0.040117
v 0.050952 0.030909 -0.040117
v 0.065767 0.030909 -0.052061
v 0.065767 0.026267 -0.052061
v 0.077711 0.026267 -0.052061
v 0.077711 0.030909 -0.052061
v 0.062896 0.030909 -0.040117
v 0.062896 0.026267 -0.040117
v 0.136951 0.026267 -0.040117
v 0.136951 0.030909 -0.040117
v 0.151766 0.030909 -0.052061
v 0.151766 0.026267 -0.052061
v 0.163710 0.026267 -0.052061
v 0.163710 0.030909 -0.052061
v 0.148895 0.030909 -0.040117
v 0.148895 0.026267 -0.040117
v 0.108285 0.026267 -0.040117
v 0.108285 0.030909 -0.040117
v 0.123099 0.030909 -0.052061
v 0.123099 0.026267 -0.052061
v 0.135044 0.026267 -0.052061
v 0.135044 0.030909 -0.052061
v 0.120229 0.030909 -0.040117
v 0.120229 0.026267 -0.040117
v 0.165617 0.026267 -0.040117
v 0.165617 0.030909 -0.040117
v 0.180432 0.030909 -0.052061
v 0.180432 0.026267 -0.052061
v 0.192377 0.026267 -0.052061
v 0.192377 0.030909 -0.052061
v 0.177562 0.030909 -0.040117
v 0.177562 0.026267 -0.040117
v -0.213375 0.030909 -0.039708
v -0.211939 0.030909 -0.041144
v -0.211939 0.030909 -0.050908
v -0.213375 0.030909 -0.052343
v -0.230030 0.030909 -0.052343
v -0.231466 0.030909 -0.050908
v -0.231466 0.030909 -0.041144
v -0.230030 0.030909 -0.039708
v -0.230030 0.026267 -0.039708
v -0.231466 0.026267 -0.041144
v -0.231466 0.026267 -0.050908
v -0.213375 0.026267 -0.039708
v -0.211939 0.026267 -0.041144
v -0.230030 0.026267 -0.052343
v -0.213375 0.026267 -0.052343
v -0.211939 0.026267 -0.050908
v 0.070846 0.020250 0.028577
v 0.070846 0.023675 0.028577
v 0.070846 0.023675 -0.026827
v 0.070846 0.020250 -0.026827
v 0.082790 0.020250 -0.026827
v 0.082790 0.023675 -0.026827
v 0.082790 0.023675 0.028577
v 0.082790 0.020250 0.028577
v 0.118487 0.020250 0.028577
v 0.118487 0.023675 0.028577
v 0.118487 0.023675 -0.026827
v 0.118487 0.020250 -0.026827
v 0.130431 0.020250 -0.026827
v 0.130431 0.023675 -0.026827
v 0.130431 0.023675 0.028577
v 0.130431 0.020250 0.028577
v 0.156680 0.020250 0.028577
v 0.156680 0.023675 0.028577
v 0.156680 0.023675 -0.026827
v 0.156680 0.020250 -0.026827
v 0.168624 0.020250 -0.026827
v 0.168624 0.023675 -0.026827
v 0.168624 0.023675 0.028577
v 0.168624 0.020250 0.028577
v 0.094734 0.020250 0.028577
v 0.094734 0.023675 0.028577
v 0.094734 0.023675 -0.026827
v 0.094734 0.020250 -0.026827
v 0.106679 0.020250 -0.026827
v 0.106679 0.023675 -0.026827
v 0.106679 0.023675 0.028577
v 0.106679 0.020250 0.028577
v 0.180432 0.020250 0.028577
v 0.180432 0.023675 0.028577
v 0.180432 0.023675 -0.026827
v 0.180432 0.020250 -0.026827
v 0.192377 0.020250 -0.026827
v 0.192377 0.023675 -0.026827
v 0.192377 0.023675 0.028577
v 0.192377 0.020250 0.028577
v -0.077171 0.020250 0.028577
v -0.077171 0.023675 0.028577
v -0.077171 0.023675 -0.026827
v -0.077171 0.020250 -0.026827
v -0.065227 0.020250 -0.026827
v -0.065227 0.023675 -0.026827
v -0.065226 0.023675 0.028577
v -0.065226 0.020250 0.028577
v -0.029530 0.020250 0.028577
v -0.029530 0.023675 0.028577
v -0.029530 0.023675 -0.026827
v -0.029530 0.020250 -0.026827
v -0.017585 0.020250 -0.026827
v -0.017585 0.023675 -0.026827
v -0.017585 0.023675 0.028577
v -0.017585 0.020250 0.028577
v 0.008663 0.020250 0.028577
v 0.008663 0.023675 0.028577
v 0.008663 0.023675 -0.026827
v 0.008663 0.020250 -0.026827
v 0.020608 0.020250 -0.026827
v 0.020608 0.023675 -0.026827
v 0.020608 0.023675 0.028577
v 0.020608 0.020250 0.028577
v -0.053282 0.020250 0.028577
v -0.053282 0.023675 0.028577
v -0.053282 0.023675 -0.026827
v -0.053282 0.020250 -0.026827
v -0.041338 0.020250 -0.026827
v -0.041338 0.023675 -0.026827
v -0.041338 0.023675 0.028577
v -0.041338 0.020250 0.028577
v 0.032416 0.020250 0.028577
v 0.032416 0.023675 0.028577
v 0.032416 0.023675 -0.026827
v 0.032416 0.020250 -0.026827
v 0.044360 0.020250 -0.026827
v 0.044360 0.023675 -0.026827
v 0.044360 0.023675 0.028577
v 0.044360 0.020250 0.028577
v -0.139103 0.020250 0.028577
v -0.139103 0.023675 0.028577
v -0.139103 0.023675 -0.026827
v -0.139103 0.020250 -0.026827
v -0.127159 0.020250 -0.026827
v -0.127159 0.023675 -0.026827
v -0.127159 0.023675 0.028577
v -0.127159 0.020250 0.028577
v -0.115351 0.020250 0.028577
v -0.115351 0.023675 0.028577
v -0.115351 0.023675 -0.026827
v -0.115351 0.020250 -0.026827
v -0.103406 0.020250 -0.026827
v -0.103406 0.023675 -0.026827
v -0.103406 0.023675 0.028577
v -0.103406 0.020250 0.028577
vt 0.932906 0.594150
vt 0.978853 0.594165
vt 0.978769 0.838372
vt 0.932822 0.838356
vt 0.895679 0.892725
vt 0.895679 0.938672
vt 0.745347 0.938672
vt 0.745347 0.892725
vt 0.890528 0.307649
vt 0.890528 0.551855
vt 0.853390 0.551855
vt 0.171479 0.189155
vt 0.021147 0.265355
vt 0.021147 0.021148
vt 0.171479 0.021148
vt 0.799619 0.762156
vt 0.799619 0.594150
vt 0.808205 0.594150
vt 0.811592 0.762156
vt 0.021147 0.307649
vt 0.171479 0.551855
vt 0.021147 0.551855
vt 0.932822 0.551855
vt 0.932822 0.505909
vt 0.969959 0.505909
vt 0.969960 0.551855
vt 0.890528 0.265354
vt 0.853390 0.189154
vt 0.853390 0.021147
vt 0.890528 0.021147
vt 0.021147 0.850431
vt 0.021147 0.804485
vt 0.890528 0.804485
vt 0.890528 0.850431
vt 0.978768 0.265354
vt 0.932822 0.265354
vt 0.932822 0.021147
vt 0.978768 0.021147
vt 0.703059 0.762191
vt 0.021147 0.762191
vt 0.021147 0.594150
vt 0.703059 0.594150
vt 0.703032 0.977581
vt 0.021147 0.977581
vt 0.021147 0.968996
vt 0.703032 0.968995
vt 0.021152 0.931351
vt 0.021152 0.888764
vt 0.703059 0.888763
vt 0.703059 0.931351
vt 0.757325 0.594150
vt 0.757325 0.762156
vt 0.745353 0.762156
vt 0.748739 0.594150
vt 0.480091 0.080882
vt 0.486775 0.072591
vt 0.509924 0.091254
vt 0.503239 0.099545
vt 0.535271 0.082963
vt 0.528587 0.091254
vt 0.505438 0.072591
vt 0.512123 0.064300
vt 0.480091 0.080882
vt 0.486775 0.072591
vt 0.509924 0.091254
vt 0.503239 0.099545
vt 0.535271 0.082963
vt 0.528587 0.091254
vt 0.505438 0.072591
vt 0.512123 0.064300
vt 0.480091 0.080882
vt 0.486775 0.072591
vt 0.509924 0.091254
vt 0.503239 0.099545
vt 0.535271 0.082963
vt 0.528587 0.091254
vt 0.505438 0.072591
vt 0.512123 0.064300
vt 0.486775 0.061941
vt 0.505438 0.061941
vt 0.528587 0.101904
vt 0.509924 0.101904
vt 0.486775 0.061941
vt 0.505438 0.061941
vt 0.528587 0.101904
vt 0.509924 0.101904
vt 0.486775 0.061941
vt 0.505438 0.061941
vt 0.528587 0.101904
vt 0.509924 0.101904
vt 0.760676 0.086167
vt 0.767361 0.077876
vt 0.790509 0.096539
vt 0.783825 0.104830
vt 0.815857 0.088248
vt 0.809172 0.096539
vt 0.786024 0.077876
vt 0.792708 0.069585
vt 0.365376 0.081516
vt 0.372061 0.073225
vt 0.395209 0.091889
vt 0.388525 0.100180
vt 0.420557 0.083598
vt 0.413872 0.091889
vt 0.390724 0.073225
vt 0.397408 0.064935
vt 0.767361 0.067226
vt 0.786024 0.067226
vt 0.809172 0.107189
vt 0.790509 0.107189
vt 0.372061 0.062576
vt 0.390724 0.062576
vt 0.413872 0.102539
vt 0.395209 0.102539
vt 0.760676 0.086167
vt 0.767361 0.077876
vt 0.790509 0.096539
vt 0.783825 0.104830
vt 0.815857 0.088248
vt 0.809172 0.096539
vt 0.786024 0.077876
vt 0.792708 0.069585
vt 0.365376 0.081516
vt 0.372061 0.073226
vt 0.395209 0.091889
vt 0.388524 0.100180
vt 0.420557 0.083598
vt 0.413872 0.091889
vt 0.390724 0.073226
vt 0.397408 0.064935
vt 0.365376 0.081516
vt 0.372061 0.073226
vt 0.395209 0.091889
vt 0.388525 0.100179
vt 0.420556 0.083598
vt 0.413872 0.091889
vt 0.390724 0.073226
vt 0.397408 0.064935
vt 0.372061 0.062576
vt 0.390724 0.062576
vt 0.413872 0.102538
vt 0.395209 0.102538
vt 0.767361 0.067226
vt 0.786024 0.067226
vt 0.809172 0.107189
vt 0.790509 0.107189
vt 0.372061 0.062576
vt 0.390724 0.062576
vt 0.413872 0.102539
vt 0.395209 0.102539
vt 0.293566 0.101220
vt 0.291323 0.103463
vt 0.276068 0.103463
vt 0.273824 0.101220
vt 0.273824 0.075196
vt 0.276068 0.072953
vt 0.291323 0.072953
vt 0.293566 0.075196
vt 0.301097 0.067666
vt 0.298853 0.065422
vt 0.291323 0.062303
vt 0.276068 0.062303
vt 0.301097 0.108751
vt 0.298853 0.110994
vt 0.304216 0.101220
vt 0.304216 0.075196
vt 0.263174 0.075196
vt 0.263174 0.101220
vt 0.268537 0.110994
vt 0.266293 0.108751
vt 0.276068 0.114113
vt 0.291323 0.114113
vt 0.266293 0.067666
vt 0.268537 0.065422
vt 0.707516 0.070796
vt 0.707516 0.076148
vt 0.620948 0.076148
vt 0.620948 0.070796
vt 0.620948 0.100162
vt 0.620948 0.094811
vt 0.707516 0.094811
vt 0.707516 0.100162
vt 0.707516 0.070796
vt 0.707516 0.076148
vt 0.620948 0.076148
vt 0.620948 0.070796
vt 0.620948 0.100162
vt 0.620948 0.094811
vt 0.707516 0.094811
vt 0.707516 0.100162
vt 0.712867 0.076148
vt 0.712867 0.094811
vt 0.712867 0.076148
vt 0.712867 0.094811
vt 0.707516 0.070796
vt 0.707516 0.076148
vt 0.620948 0.076148
vt 0.620948 0.070796
vt 0.620948 0.100162
vt 0.620948 0.094811
vt 0.707516 0.094811
vt 0.707516 0.100162
vt 0.707516 0.070796
vt 0.707516 0.076148
vt 0.620948 0.076148
vt 0.620948 0.070796
vt 0.620948 0.100162
vt 0.620948 0.094811
vt 0.707516 0.094811
vt 0.707516 0.100162
vt 0.707516 0.070796
vt 0.707516 0.076148
vt 0.620948 0.076148
vt 0.620948 0.070796
vt 0.620948 0.100162
vt 0.620948 0.094811
vt 0.707516 0.094811
vt 0.707516 0.100162
vt 0.712867 0.076148
vt 0.712867 0.094811
vt 0.712867 0.076148
vt 0.712867 0.094811
vt 0.712867 0.076148
vt 0.712867 0.094811
vt 0.707516 0.070796
vt 0.707516 0.076148
vt 0.620948 0.076148
vt 0.620948 0.070796
vt 0.620948 0.100162
vt 0.620948 0.094811
vt 0.707516 0.094811
vt 0.707516 0.100162
vt 0.707516 0.070796
vt 0.707516 0.076148
vt 0.620948 0.076148
vt 0.620948 0.070796
vt 0.620948 0.100162
vt 0.620948 0.094811
vt 0.707516 0.094811
vt 0.707516 0.100162
vt 0.712867 0.076148
vt 0.712867 0.094811
vt 0.712867 0.076148
vt 0.712867 0.094811
vt 0.707516 0.070796
vt 0.707516 0.076148
vt 0.620948 0.076148
vt 0.620948 0.070796
vt 0.620948 0.100162
vt 0.620948 0.094811
vt 0.707516 0.094811
vt 0.707516 0.100162
vt 0.707516 0.070796
vt 0.707516 0.076148
vt 0.620948 0.076148
vt 0.620948 0.070796
vt 0.620948 0.100162
vt 0.620948 0.094811
vt 0.707516 0.094811
vt 0.707516 0.100162
vt 0.707516 0.070796
vt 0.707516 0.076148
vt 0.620948 0.076148
vt 0.620948 0.070796
vt 0.620948 0.100162
vt 0.620948 0.094811
vt 0.707516 0.094811
vt 0.707516 0.100162
vt 0.712867 0.076148
vt 0.712867 0.094811
vt 0.712867 0.076148
vt 0.712867 0.094811
vt 0.712867 0.076148
vt 0.712867 0.094811
vt 0.707516 0.070796
vt 0.707516 0.076148
vt 0.620948 0.076148
vt 0.620948 0.070796
vt 0.620948 0.100162
vt 0.620948 0.094811
vt 0.707516 0.094811
vt 0.707516 0.100162
vt 0.707516 0.070796
vt 0.707516 0.076148
vt 0.620948 0.076148
vt 0.620948 0.070796
vt 0.620948 0.100162
vt 0.620948 0.094811
vt 0.707516 0.094811
vt 0.707516 0.100162
vt 0.712867 0.076148
vt 0.712867 0.094811
vt 0.712867 0.076148
vt 0.712867 0.094811
vn 1.0000 0.0000 0.0000
vn 0.0000 0.0000 1.0000
vn 0.0000 -1.0000 0.0000
vn -0.0000 1.0000 0.0000
vn -1.0000 0.0000 0.0000
vn 0.0000 0.0000 -1.0000
vn 0.0000 0.9998 0.0202
vn -0.6277 0.0000 -0.7785
vn 0.6277 0.0000 0.7785
vn -0.7071 0.0000 0.7071
vn 0.7071 0.0000 0.7071
vn 0.7071 0.0000 -0.7071
vn -0.7071 0.0000 -0.7071
usemtl None
s off
f 7/1/1 8/2/1 6/3/1 5/4/1
f 9/5/2 10/6/2 2/7/2 1/8/2
f 7/9/3 5/10/3 11/11/3
f 13/12/4 4/13/4 2/14/4 10/15/4
f 12/16/5 14/17/5 18/18/5 15/19/5
f 3/20/3 9/21/3 1/22/3
f 5/23/2 6/24/2 12/25/2 11/26/2
f 8/27/4 14/28/4 12/29/4 6/30/4
f 3/20/3 7/9/3 11/11/3 9/21/3
f 3/31/6 4/32/6 8/33/6 7/34/6
f 8/27/4 4/13/4 13/12/4 14/28/4
f 1/35/5 2/36/5 4/37/5 3/38/5
f 18/39/7 17/40/7 16/41/7 15/42/7
f 14/43/2 13/44/2 17/45/2 18/46/2
f 16/47/2 9/48/2 11/49/2 15/50/2
f 13/51/1 10/52/1 16/53/1 17/54/1
f 19/55/8 20/56/8 21/57/8 22/58/8
f 23/59/9 24/60/9 25/61/9 26/62/9
f 27/63/8 28/64/8 29/65/8 30/66/8
f 31/67/9 32/68/9 33/69/9 34/70/9
f 35/71/8 36/72/8 37/73/8 38/74/8
f 39/75/9 40/76/9 41/77/9 42/78/9
f 20/56/4 25/61/4 24/60/4 21/57/4
f 28/64/4 33/69/4 32/68/4 29/65/4
f 35/79/2 42/80/2 41/77/2 36/72/2
f 37/73/6 40/76/6 39/81/6 38/82/6
f 19/83/2 26/84/2 25/61/2 20/56/2
f 21/57/6 24/60/6 23/85/6 22/86/6
f 27/87/2 34/88/2 33/69/2 28/64/2
f 29/65/6 32/68/6 31/89/6 30/90/6
f 36/72/4 41/77/4 40/76/4 37/73/4
f 43/91/8 44/92/8 45/93/8 46/94/8
f 47/95/9 48/96/9 49/97/9 50/98/9
f 51/99/8 52/100/8 53/101/8 54/102/8
f 55/103/9 56/104/9 57/105/9 58/106/9
f 44/92/4 49/97/4 48/96/4 45/93/4
f 52/100/4 57/105/4 56/104/4 53/101/4
f 43/107/2 50/108/2 49/97/2 44/92/2
f 45/93/6 48/96/6 47/109/6 46/110/6
f 51/111/2 58/112/2 57/105/2 52/100/2
f 53/101/6 56/104/6 55/113/6 54/114/6
f 59/115/8 60/116/8 61/117/8 62/118/8
f 63/119/9 64/120/9 65/121/9 66/122/9
f 67/123/8 68/124/8 69/125/8 70/126/8
f 71/127/9 72/128/9 73/129/9 74/130/9
f 75/131/8 76/132/8 77/133/8 78/134/8
f 79/135/9 80/136/9 81/137/9 82/138/9
f 60/116/4 65/121/4 64/120/4 61/117/4
f 68/124/4 73/129/4 72/128/4 69/125/4
f 75/139/2 82/140/2 81/137/2 76/132/2
f 77/133/6 80/136/6 79/141/6 78/142/6
f 59/143/2 66/144/2 65/121/2 60/116/2
f 61/117/6 64/120/6 63/145/6 62/146/6
f 67/147/2 74/148/2 73/129/2 68/124/2
f 69/125/6 72/128/6 71/149/6 70/150/6
f 76/132/4 81/137/4 80/136/4 77/133/4
f 83/151/4 84/152/4 85/153/4 86/154/4 87/155/4 88/156/4 89/157/4 90/158/4
f 91/159/10 90/158/10 89/157/10 92/160/10
f 92/161/5 89/157/5 88/156/5 93/162/5
f 94/163/11 95/164/11 84/152/11 83/151/11
f 94/165/2 83/151/2 90/158/2 91/166/2
f 96/167/6 87/155/6 86/154/6 97/168/6
f 98/169/12 97/170/12 86/154/12 85/153/12
f 98/171/1 85/153/1 84/152/1 95/172/1
f 87/155/13 96/173/13 93/174/13 88/156/13
f 99/175/5 100/176/5 101/177/5 102/178/5
f 103/179/1 104/180/1 105/181/1 106/182/1
f 107/183/5 108/184/5 109/185/5 110/186/5
f 111/187/1 112/188/1 113/189/1 114/190/1
f 100/176/4 105/181/4 104/180/4 101/177/4
f 108/184/4 113/189/4 112/188/4 109/185/4
f 99/191/2 106/192/2 105/181/2 100/176/2
f 107/193/2 114/194/2 113/189/2 108/184/2
f 115/195/5 116/196/5 117/197/5 118/198/5
f 119/199/1 120/200/1 121/201/1 122/202/1
f 123/203/5 124/204/5 125/205/5 126/206/5
f 127/207/1 128/208/1 129/209/1 130/210/1
f 131/211/5 132/212/5 133/213/5 134/214/5
f 135/215/1 136/216/1 137/217/1 138/218/1
f 116/196/4 121/201/4 120/200/4 117/197/4
f 124/204/4 129/209/4 128/208/4 125/205/4
f 131/219/2 138/220/2 137/217/2 132/212/2
f 115/221/2 122/222/2 121/201/2 116/196/2
f 123/223/2 130/224/2 129/209/2 124/204/2
f 132/212/4 137/217/4 136/216/4 133/213/4
f 139/225/5 140/226/5 141/227/5 142/228/5
f 143/229/1 144/230/1 145/231/1 146/232/1
f 147/233/5 148/234/5 149/235/5 150/236/5
f 151/237/1 152/238/1 153/239/1 154/240/1
f 140/226/4 145/231/4 144/230/4 141/227/4
f 148/234/4 153/239/4 152/238/4 149/235/4
f 139/241/2 146/242/2 145/231/2 140/226/2
f 147/243/2 154/244/2 153/239/2 148/234/2
f 155/245/5 156/246/5 157/247/5 158/248/5
f 159/249/1 160/250/1 161/251/1 162/252/1
f 163/253/5 164/254/5 165/255/5 166/256/5
f 167/257/1 168/258/1 169/259/1 170/260/1
f 171/261/5 172/262/5 173/263/5 174/264/5
f 175/265/1 176/266/1 177/267/1 178/268/1
f 156/246/4 161/251/4 160/250/4 157/247/4
f 164/254/4 169/259/4 168/258/4 165/255/4
f 171/269/2 178/270/2 177/267/2 172/262/2
f 155/271/2 162/272/2 161/251/2 156/246/2
f 163/273/2 170/274/2 169/259/2 164/254/2
f 172/262/4 177/267/4 176/266/4 173/263/4
f 179/275/5 180/276/5 181/277/5 182/278/5
f 183/279/1 184/280/1 185/281/1 186/282/1
f 187/283/5 188/284/5 189/285/5 190/286/5
f 191/287/1 192/288/1 193/289/1 194/290/1
f 180/276/4 185/281/4 184/280/4 181/277/4
f 187/291/2 194/292/2 193/289/2 188/284/2
f 179/293/2 186/294/2 185/281/2 180/276/2
f 188/284/4 193/289/4 192/288/4 189/285/4
