# Exported from Wings 3D 1.5.4
mtllib Ara_GooExperiment_1.mtl
o Ara_GooExperiment_1_Light
#33 vertices, 32 faces
v -4.4020571e-2 0.25000000 -0.18693562
v -4.5771905e-2 0.25422809 -0.18693562
v -5.0000000e-2 0.25597943 -0.18693562
v -5.4228095e-2 0.25422809 -0.18693562
v -5.5979429e-2 0.25000000 -0.18693562
v -5.4228095e-2 0.24577191 -0.18693562
v -5.0000000e-2 0.24402057 -0.18693562
v -4.5771905e-2 0.24577191 -0.18693562
v -3.8951457e-2 0.25000000 -0.18354854
v -4.2187500e-2 0.25781250 -0.18354854
v -5.0000000e-2 0.26104854 -0.18354854
v -5.7812500e-2 0.25781250 -0.18354854
v -6.1048543e-2 0.25000000 -0.18354854
v -5.7812500e-2 0.24218750 -0.18354854
v -5.0000000e-2 0.23895146 -0.18354854
v -4.2187500e-2 0.24218750 -0.18354854
v -3.5564382e-2 0.25000000 -0.17847943
v -3.9792477e-2 0.26020752 -0.17847943
v -5.0000000e-2 0.26443562 -0.17847943
v -6.0207523e-2 0.26020752 -0.17847943
v -6.4435618e-2 0.25000000 -0.17847943
v -6.0207523e-2 0.23979248 -0.17847943
v -5.0000000e-2 0.23556438 -0.17847943
v -3.9792477e-2 0.23979248 -0.17847943
v -3.4375000e-2 0.25000000 -0.17250000
v -3.8951457e-2 0.26104854 -0.17250000
v -5.0000000e-2 0.26562500 -0.17250000
v -6.1048543e-2 0.26104854 -0.17250000
v -6.5625000e-2 0.25000000 -0.17250000
v -6.1048543e-2 0.23895146 -0.17250000
v -5.0000000e-2 0.23437500 -0.17250000
v -3.8951457e-2 0.23895146 -0.17250000
v -5.0000000e-2 0.25000000 -0.18812500
vt 0.52498871 0.58217224
vt 0.52498871 0.58217224
vt 0.52498871 0.58217224
vt 0.52498871 0.58217224
vt 0.52498871 0.58217224
vt 0.52498871 0.58217224
vt 0.52498871 0.58217224
vt 0.52498871 0.58217224
vt 0.52536752 0.58690542
vt 0.52536752 0.58690542
vt 0.52536752 0.58690542
vt 0.52536752 0.58690542
vt 0.52536752 0.58690542
vt 0.52536752 0.58690542
vt 0.52536752 0.58690542
vt 0.52536752 0.58690542
vt 0.52644629 0.59186316
vt 0.52644629 0.59186316
vt 0.52644629 0.59186316
vt 0.52644629 0.59186316
vt 0.52644629 0.59186316
vt 0.52644629 0.59186316
vt 0.52644629 0.59186316
vt 0.52644629 0.59186316
vt 0.52806078 0.59629068
vt 0.52806078 0.59629068
vt 0.52806078 0.59629068
vt 0.52806078 0.59629068
vt 0.52806078 0.59629068
vt 0.52806078 0.59629068
vt 0.52806078 0.59629068
vt 0.52806078 0.59629068
vt 0.52996520 0.59951393
vt 0.52996520 0.59951393
vt 0.52996520 0.59951393
vt 0.52996520 0.59951393
vt 0.52996520 0.59951393
vt 0.52996520 0.59951393
vt 0.52996520 0.59951393
vt 0.52996520 0.59951393
vt 0.53186963 0.59629068
vt 0.53186963 0.59629068
vt 0.53186963 0.59629068
vt 0.53186963 0.59629068
vt 0.53186963 0.59629068
vt 0.53186963 0.59629068
vt 0.53186963 0.59629068
vt 0.53186963 0.59629068
vt 0.53348412 0.59186316
vt 0.53348412 0.59186316
vt 0.53348412 0.59186316
vt 0.53348412 0.59186316
vt 0.53348412 0.59186316
vt 0.53348412 0.59186316
vt 0.53348412 0.59186316
vt 0.53348412 0.59186316
vt 0.53456289 0.58690542
vt 0.53456289 0.58690542
vt 0.53456289 0.58690542
vt 0.53456289 0.58690542
vt 0.53456289 0.58690542
vt 0.53456289 0.58690542
vt 0.53456289 0.58690542
vt 0.53456289 0.58690542
vt 0.53494170 0.58217224
vt 0.53494170 0.58217224
vt 0.53494170 0.58217224
vt 0.53494170 0.58217224
vt 0.53494170 0.58217224
vt 0.53494170 0.58217224
vt 0.53494170 0.58217224
vt 0.53494170 0.58217224
vn 0.38061083 -7.8956829e-17 -0.92473531
vn 0.26913250 0.26913250 -0.92473531
vn 2.1533681e-17 0.38061083 -0.92473531
vn -0.26913250 0.26913250 -0.92473531
vn -0.38061083 0.0000000e+0 -0.92473531
vn -0.26913250 -0.26913250 -0.92473531
vn 6.4601042e-17 -0.38061083 -0.92473531
vn 0.26913250 -0.26913250 -0.92473531
vn 0.70497678 -2.0634580e-16 -0.70923039
vn 0.49849386 0.49849386 -0.70923039
vn 1.4738985e-17 0.70497678 -0.70923039
vn -0.49849386 0.49849386 -0.70923039
vn -0.70497678 8.8433913e-17 -0.70923039
vn -0.49849386 -0.49849386 -0.70923039
vn 1.1791188e-16 -0.70497678 -0.70923039
vn 0.49849386 -0.49849386 -0.70923039
vn 0.92310379 -2.7211417e-16 -0.38455089
vn 0.65273295 0.65273295 -0.38455089
vn 0.0000000e+0 0.92310379 -0.38455089
vn -0.65273295 0.65273295 -0.38455089
vn -0.92310379 2.1164435e-16 -0.38455089
vn -0.65273295 -0.65273295 -0.38455089
vn 6.0469815e-17 -0.92310379 -0.38455089
vn 0.65273295 -0.65273295 -0.38455089
vn 0.98078528 -2.6962719e-16 -0.19509032
vn 0.69351992 0.69351992 -0.19509032
vn 0.0000000e+0 0.98078528 -0.19509032
vn -0.69351992 0.69351992 -0.19509032
vn -0.98078528 2.3966861e-16 -0.19509032
vn -0.69351992 -0.69351992 -0.19509032
vn 0.0000000e+0 -0.98078528 -0.19509032
vn 0.69351992 -0.69351992 -0.19509032
vn 1.4195794e-17 -3.5489485e-18 -1.00000000
g Ara_GooExperiment_1_Light_Ara_GooExperiment_1_Light_auv
usemtl Ara_GooExperiment_1_Light_auv
s 1
f 1/30/1 9/22/9 16/54/16 8/46/8
f 1/42/1 33/34/33 2/26/2
f 2/26/2 10/18/10 9/50/9 1/42/1
f 2/45/2 33/37/33 3/29/3
f 3/29/3 11/21/11 10/53/10 2/45/2
f 3/44/3 33/36/33 4/28/4
f 4/28/4 12/20/12 11/52/11 3/44/3
f 4/41/4 33/33/33 5/25/5
f 5/25/5 13/17/13 12/49/12 4/41/4
f 5/48/5 33/40/33 6/32/6
f 6/32/6 14/24/14 13/56/13 5/48/5
f 6/47/6 33/39/33 7/31/7
f 7/31/7 15/23/15 14/55/14 6/47/6
f 7/43/7 33/35/33 8/27/8
f 8/27/8 16/19/16 15/51/15 7/43/7
f 8/46/8 33/38/33 1/30/1
f 9/22/9 17/14/17 24/62/24 16/54/16
f 10/18/10 18/10/18 17/58/17 9/50/9
f 11/21/11 19/13/19 18/61/18 10/53/10
f 12/20/12 20/12/20 19/60/19 11/52/11
f 13/17/13 21/9/21 20/57/20 12/49/12
f 14/24/14 22/16/22 21/64/21 13/56/13
f 15/23/15 23/15/23 22/63/22 14/55/14
f 16/19/16 24/11/24 23/59/23 15/51/15
f 17/14/17 25/6/25 32/70/32 24/62/24
f 18/10/18 26/2/26 25/66/25 17/58/17
f 19/13/19 27/5/27 26/69/26 18/61/18
f 20/12/20 28/4/28 27/68/27 19/60/19
f 21/9/21 29/1/29 28/65/28 20/57/20
f 22/16/22 30/8/30 29/72/29 21/64/21
f 23/15/23 31/7/31 30/71/30 22/63/22
f 24/11/24 32/3/32 31/67/31 23/59/23
o Ara_GooExperiment_1
#48 vertices, 28 faces
v 3.1250000e-2 1.7791107e-17 2.2500000e-2
v 2.2097087e-2 -2.2097087e-2 2.2500000e-2
v -5.1862917e-17 -3.1250000e-2 2.2500000e-2
v -2.2097087e-2 -2.2097087e-2 2.2500000e-2
v -3.1250000e-2 1.3964086e-17 2.2500000e-2
v -2.2097087e-2 2.2097087e-2 2.2500000e-2
v -5.9516960e-17 3.1250000e-2 2.2500000e-2
v 2.2097087e-2 2.2097087e-2 2.2500000e-2
v 3.1250000e-2 1.3964086e-17 -2.2500000e-2
v 2.2097087e-2 -2.2097087e-2 -2.2500000e-2
v -5.1862917e-17 -3.1250000e-2 -2.2500000e-2
v -2.2097087e-2 -2.2097087e-2 -2.2500000e-2
v -3.1250000e-2 1.0137064e-17 -2.2500000e-2
v -2.2097087e-2 2.2097087e-2 -2.2500000e-2
v -5.9516960e-17 3.1250000e-2 -2.2500000e-2
v 2.2097087e-2 2.2097087e-2 -2.2500000e-2
v -8.7500000e-2 -0.30000000 -0.17250000
v -0.10000000 -0.28750000 -0.17250000
v -8.7500000e-2 -0.30000000 -2.2500000e-2
v -0.10000000 -0.28750000 -2.2500000e-2
v -0.10000000 0.28750000 -0.17250000
v -8.7500000e-2 0.30000000 -0.17250000
v -0.10000000 0.28750000 -2.2500000e-2
v -8.7500000e-2 0.30000000 -2.2500000e-2
v 8.7500000e-2 -0.30000000 -0.17250000
v 1.0000000e-1 -0.28750000 -0.17250000
v 8.7500000e-2 -0.30000000 -2.2500000e-2
v 1.0000000e-1 -0.28750000 -2.2500000e-2
v 1.0000000e-1 0.28750000 -0.17250000
v 8.7500000e-2 0.30000000 -0.17250000
v 1.0000000e-1 0.28750000 -2.2500000e-2
v 8.7500000e-2 0.30000000 -2.2500000e-2
v -6.2500000e-2 -0.27500000 -0.17250000
v -7.5000000e-2 -0.26250000 -0.17250000
v -7.5000000e-2 1.2500000e-2 -0.17250000
v -6.2500000e-2 2.5000000e-2 -0.17250000
v 6.2500000e-2 -0.27500000 -0.17250000
v 7.5000000e-2 -0.26250000 -0.17250000
v 7.5000000e-2 1.2500000e-2 -0.17250000
v 6.2500000e-2 2.5000000e-2 -0.17250000
v 5.7322330e-2 -0.26250000 -0.18500000
v -5.7322330e-2 -0.26250000 -0.18500000
v -6.2500000e-2 -0.25732233 -0.18500000
v -6.2500000e-2 7.3223305e-3 -0.18500000
v -5.7322330e-2 1.2500000e-2 -0.18500000
v 5.7322330e-2 1.2500000e-2 -0.18500000
v 6.2500000e-2 7.3223305e-3 -0.18500000
v 6.2500000e-2 -0.25732233 -0.18500000
vt 0.56523715 0.57027036
vt 0.56523715 0.59464536
vt 0.56767465 0.56783286
vt 0.56767465 0.59708286
vt 0.56767465 0.57128000
vt 0.56767465 0.59363571
vt 0.56868429 0.57027036
vt 0.56868429 0.59464536
vt 0.62029000 0.57027036
vt 0.62029000 0.59464536
vt 0.62129965 0.57128000
vt 0.62129965 0.59363571
vt 0.62129965 0.56783286
vt 0.62129965 0.59708286
vt 0.62373715 0.57027036
vt 0.62373715 0.59464536
vt 0.65393751 0.44482882
vt 0.65393751 0.55599548
vt 0.65635417 0.44241215
vt 0.65635417 0.55841215
vt 0.65639923 0.40409827
vt 0.65639923 0.43309827
vt 0.65639923 0.56770775
vt 0.65639923 0.59670775
vt 0.69018751 0.44241215
vt 0.69018751 0.55841215
vt 0.69023257 0.40409827
vt 0.69023257 0.43309827
vt 0.69023257 0.56770775
vt 0.69023257 0.59670775
vt 0.69260417 0.44482882
vt 0.69260417 0.55599548
vt 0.70189375 0.44241215
vt 0.70189375 0.44482882
vt 0.70189375 0.55599548
vt 0.70189375 0.55841215
vt 0.73089375 0.44241215
vt 0.73089375 0.44482882
vt 0.73089375 0.55599548
vt 0.73089375 0.55841215
vt 0.74055945 0.44482882
vt 0.74055945 0.55599548
vt 0.74297612 0.44241215
vt 0.74297612 0.55841215
vt 0.77680945 0.44241215
vt 0.77680945 0.55841215
vt 0.77922612 0.44482882
vt 0.77922612 0.55599548
vt 0.78877560 0.44241215
vt 0.78877560 0.44482882
vt 0.78877560 0.55599548
vt 0.78877560 0.55841215
vt 0.81777560 0.44241215
vt 0.81777560 0.44482882
vt 0.81777560 0.55599548
vt 0.81777560 0.55841215
vt 0.83666255 0.55237436
vt 0.83843212 0.54810226
vt 0.83843212 0.55664646
vt 0.83843212 0.52791894
vt 0.83843212 0.52791894
vt 0.83843212 0.53661894
vt 0.83843212 0.52791894
vt 0.83843212 0.53661894
vt 0.84270422 0.52791894
vt 0.84270422 0.52791894
vt 0.84270422 0.53661894
vt 0.84270422 0.52791894
vt 0.84270422 0.53661894
vt 0.84270422 0.54633269
vt 0.84270422 0.55841603
vt 0.84697632 0.52791894
vt 0.84697632 0.52791894
vt 0.84697632 0.53661894
vt 0.84697632 0.52791894
vt 0.84697632 0.53661894
vt 0.84697632 0.54810226
vt 0.84697632 0.55664646
vt 0.84874589 0.55237436
vn -0.25968834 -0.62694312 -0.73450956
vn -0.62694312 -0.25968834 -0.73450956
vn -0.62694312 0.25968834 -0.73450956
vn -0.25968834 0.62694312 -0.73450956
vn 0.25968834 -0.62694312 -0.73450956
vn 0.62694312 -0.25968834 -0.73450956
vn 0.62694312 0.25968834 -0.73450956
vn 0.25968834 0.62694312 -0.73450956
vn -3.9252311e-17 2.7755576e-17 1.00000000
vn 1.00000000 3.0042419e-17 1.6676892e-32
vn 1.00000000 3.0042419e-17 1.6676892e-32
vn -3.9252311e-17 2.7755576e-17 1.00000000
vn 0.70710678 -0.70710678 8.1775649e-17
vn 0.70710678 -0.70710678 8.1775649e-17
vn -3.9252311e-17 2.7755576e-17 1.00000000
vn 6.0084837e-17 -1.00000000 1.0903420e-16
vn 6.0084837e-17 -1.00000000 1.0903420e-16
vn -3.9252311e-17 2.7755576e-17 1.00000000
vn -0.70710678 -0.70710678 7.4961011e-17
vn -0.70710678 -0.70710678 7.4961011e-17
vn -3.9252311e-17 2.7755576e-17 1.00000000
vn -1.00000000 -1.8025451e-16 3.3353785e-33
vn -1.00000000 -1.8025451e-16 3.3353785e-33
vn -3.9252311e-17 2.7755576e-17 1.00000000
vn -0.70710678 0.70710678 -5.4517099e-17
vn -0.70710678 0.70710678 -5.4517099e-17
vn -3.9252311e-17 2.7755576e-17 1.00000000
vn -1.5021209e-16 1.00000000 -7.4961011e-17
vn -1.5021209e-16 1.00000000 -7.4961011e-17
vn -3.9252311e-17 2.7755576e-17 1.00000000
vn 0.70710678 0.70710678 -6.8146374e-17
vn 0.70710678 0.70710678 -6.8146374e-17
vn 1.00000000 3.0042419e-17 1.6676892e-32
vn 1.00000000 3.0042419e-17 1.6676892e-32
vn 0.70710678 -0.70710678 8.1775649e-17
vn 0.70710678 -0.70710678 8.1775649e-17
vn 6.0084837e-17 -1.00000000 1.0903420e-16
vn 6.0084837e-17 -1.00000000 1.0903420e-16
vn -0.70710678 -0.70710678 7.4961011e-17
vn -0.70710678 -0.70710678 7.4961011e-17
vn -1.00000000 -1.8025451e-16 3.3353785e-33
vn -1.00000000 -1.8025451e-16 3.3353785e-33
vn -0.70710678 0.70710678 -5.4517099e-17
vn -0.70710678 0.70710678 -5.4517099e-17
vn -1.5021209e-16 1.00000000 -7.4961011e-17
vn -1.5021209e-16 1.00000000 -7.4961011e-17
vn 0.70710678 0.70710678 -6.8146374e-17
vn 0.70710678 0.70710678 -6.8146374e-17
vn -0.38268343 -0.92387953 0.0000000e+0
vn -0.38268343 -0.92387953 0.0000000e+0
vn 0.0000000e+0 0.0000000e+0 -1.00000000
vn -0.92387953 -0.38268343 0.0000000e+0
vn -0.92387953 -0.38268343 0.0000000e+0
vn 0.0000000e+0 0.0000000e+0 -1.00000000
vn -0.38268343 -0.92387953 0.0000000e+0
vn 9.0586082e-19 0.0000000e+0 1.00000000
vn -0.38268343 -0.92387953 0.0000000e+0
vn 9.0586082e-19 0.0000000e+0 1.00000000
vn -0.92387953 -0.38268343 0.0000000e+0
vn -0.92387953 -0.38268343 0.0000000e+0
vn -0.92387953 0.38268343 0.0000000e+0
vn -0.92387953 0.38268343 0.0000000e+0
vn 0.0000000e+0 0.0000000e+0 -1.00000000
vn -0.38268343 0.92387953 0.0000000e+0
vn -0.38268343 0.92387953 0.0000000e+0
vn 0.0000000e+0 0.0000000e+0 -1.00000000
vn 9.0586082e-19 0.0000000e+0 1.00000000
vn -0.92387953 0.38268343 0.0000000e+0
vn -0.92387953 0.38268343 0.0000000e+0
vn -0.38268343 0.92387953 0.0000000e+0
vn 9.0586082e-19 0.0000000e+0 1.00000000
vn -0.38268343 0.92387953 0.0000000e+0
vn 0.38268343 -0.92387953 0.0000000e+0
vn 0.38268343 -0.92387953 0.0000000e+0
vn 0.0000000e+0 0.0000000e+0 -1.00000000
vn 0.92387953 -0.38268343 0.0000000e+0
vn 0.92387953 -0.38268343 0.0000000e+0
vn 0.0000000e+0 0.0000000e+0 -1.00000000
vn 0.38268343 -0.92387953 0.0000000e+0
vn 9.0586082e-19 0.0000000e+0 1.00000000
vn 0.38268343 -0.92387953 0.0000000e+0
vn 9.0586082e-19 0.0000000e+0 1.00000000
vn 0.92387953 -0.38268343 0.0000000e+0
vn 0.92387953 -0.38268343 0.0000000e+0
vn 0.92387953 0.38268343 0.0000000e+0
vn 0.92387953 0.38268343 0.0000000e+0
vn 0.0000000e+0 0.0000000e+0 -1.00000000
vn 0.38268343 0.92387953 0.0000000e+0
vn 0.38268343 0.92387953 0.0000000e+0
vn 0.0000000e+0 0.0000000e+0 -1.00000000
vn 9.0586082e-19 0.0000000e+0 1.00000000
vn 0.92387953 0.38268343 0.0000000e+0
vn 0.92387953 0.38268343 0.0000000e+0
vn 0.38268343 0.92387953 0.0000000e+0
vn 9.0586082e-19 0.0000000e+0 1.00000000
vn 0.38268343 0.92387953 0.0000000e+0
vn -6.3179398e-18 0.0000000e+0 -1.00000000
vn 0.25968834 -0.62694312 -0.73450956
vn 0.25968834 -0.62694312 -0.73450956
vn -6.3179398e-18 0.0000000e+0 -1.00000000
vn -0.25968834 -0.62694312 -0.73450956
vn -0.25968834 -0.62694312 -0.73450956
vn -6.3179398e-18 0.0000000e+0 -1.00000000
vn -0.62694312 -0.25968834 -0.73450956
vn -0.62694312 -0.25968834 -0.73450956
vn -6.3179398e-18 0.0000000e+0 -1.00000000
vn -0.62694312 0.25968834 -0.73450956
vn -0.62694312 0.25968834 -0.73450956
vn -6.3179398e-18 0.0000000e+0 -1.00000000
vn -0.25968834 0.62694312 -0.73450956
vn -0.25968834 0.62694312 -0.73450956
vn -6.3179398e-18 0.0000000e+0 -1.00000000
vn 0.25968834 0.62694312 -0.73450956
vn 0.25968834 0.62694312 -0.73450956
vn -6.3179398e-18 0.0000000e+0 -1.00000000
vn 0.62694312 0.25968834 -0.73450956
vn 0.62694312 0.25968834 -0.73450956
vn -6.3179398e-18 0.0000000e+0 -1.00000000
vn 0.62694312 -0.25968834 -0.73450956
vn 0.62694312 -0.25968834 -0.73450956
g Ara_GooExperiment_1_Ara_GooExperiment_1_auv
usemtl Ara_GooExperiment_1_auv
s 1
f 34/151/42 41/150/63 40/143/60 39/131/57 38/129/54 37/130/51 36/142/48 35/149/45
f 50/97/84 51/103/87 54/104/96 55/98/99 63/92/123 62/90/120 59/89/111 58/91/108
f 60/117/113 61/119/115 64/120/124 65/118/128 57/116/104 56/114/100 53/113/91 52/115/89
f 75/77/133 76/79/136 77/81/139 78/83/142 79/84/145 80/82/148 81/80/151 74/78/130
s 2
f 34/139/43 42/138/66 49/145/80 41/146/64
f 35/134/47 43/133/69 42/138/67 34/139/44
f 36/139/50 44/137/71 43/144/68 35/146/46
f 37/134/53 45/132/73 44/137/70 36/139/49
f 38/141/56 46/140/75 45/147/72 37/148/52
f 39/136/59 47/135/77 46/140/74 38/141/55
f 40/139/62 48/137/79 47/144/76 39/146/58
f 41/134/65 49/132/81 48/137/78 40/139/61
f 51/106/85 53/110/92 56/111/101 54/107/94
f 52/109/90 53/110/93 51/106/86 50/105/83
f 55/96/97 57/95/103 65/101/127 63/102/121
f 56/111/102 57/112/105 55/108/98 54/107/95
f 58/94/106 60/93/112 52/99/88 50/100/82
f 60/121/114 58/125/107 59/126/110 61/122/117
f 62/127/118 64/123/125 61/122/116 59/126/109
f 64/123/126 62/127/119 63/128/122 65/124/129
f 66/73/34 75/77/134 74/78/131 70/74/38
f 67/75/35 76/79/137 75/77/135 66/73/34
f 68/85/36 77/81/140 76/79/138 67/75/35
f 69/87/37 78/83/143 77/81/141 68/85/36
f 70/74/38 74/78/132 81/80/153 71/76/39
f 71/76/39 81/80/152 80/82/150 72/86/40
f 72/86/40 80/82/149 79/84/147 73/88/41
f 73/88/41 79/84/146 78/83/144 69/87/37
