# Exported from Wings 3D 1.5.4
mtllib rotanev_crew_s2_1_2_interior.mtl
o rotanev_crew_s2_1_2_interior_mask
#66 vertices, 64 faces
v -0.24557995 -0.81250000 -1.24288451
v -0.23944808 -0.84359303 -1.24369179
v -0.22198597 -0.86995243 -1.24599072
v -0.19585208 -0.88756521 -1.24943131
v -0.16502506 -0.89375000 -1.25348976
v -0.13419803 -0.88756521 -1.25754822
v -0.10806415 -0.86995243 -1.26098881
v -9.0602039e-2 -0.84359303 -1.26328774
v -8.4470163e-2 -0.81250000 -1.26409502
v -9.0602039e-2 -0.78140697 -1.26328774
v -0.10806415 -0.75504757 -1.26098881
v -0.13419803 -0.73743479 -1.25754822
v -0.16502506 -0.73125000 -1.25348976
v -0.19585208 -0.73743479 -1.24943131
v -0.22198597 -0.75504757 -1.24599072
v -0.23944808 -0.78140697 -1.24369179
v -0.25470986 -0.81250000 -1.21646681
v -0.24763462 -0.84837657 -1.21739828
v -0.22748603 -0.87879126 -1.22005090
v -0.19733155 -0.89911371 -1.22402081
v -0.16176190 -0.90625000 -1.22870364
v -0.12619226 -0.89911371 -1.23338647
v -9.6037773e-2 -0.87879126 -1.23735639
v -7.5889189e-2 -0.84837657 -1.24000900
v -6.8813947e-2 -0.81250000 -1.24094047
v -7.5889189e-2 -0.77662343 -1.24000900
v -9.6037773e-2 -0.74620874 -1.23735639
v -0.12619226 -0.72588629 -1.23338647
v -0.16176190 -0.71875000 -1.22870364
v -0.19733155 -0.72588629 -1.22402081
v -0.22748603 -0.74620874 -1.22005090
v -0.24763462 -0.77662343 -1.21739828
v -0.16502506 -0.81250000 -1.25348976
v 8.4470163e-2 -0.81250000 -1.26409502
v 9.0602039e-2 -0.84359303 -1.26328774
v 0.10806415 -0.86995243 -1.26098881
v 0.13419803 -0.88756521 -1.25754822
v 0.16502506 -0.89375000 -1.25348976
v 0.19585208 -0.88756521 -1.24943131
v 0.22198597 -0.86995243 -1.24599072
v 0.23944808 -0.84359303 -1.24369179
v 0.24557995 -0.81250000 -1.24288451
v 0.23944808 -0.78140697 -1.24369179
v 0.22198597 -0.75504757 -1.24599072
v 0.19585208 -0.73743479 -1.24943131
v 0.16502506 -0.73125000 -1.25348976
v 0.13419803 -0.73743479 -1.25754822
v 0.10806415 -0.75504757 -1.26098881
v 9.0602039e-2 -0.78140697 -1.26328774
v 6.8813947e-2 -0.81250000 -1.24094047
v 7.5889189e-2 -0.84837657 -1.24000900
v 9.6037773e-2 -0.87879126 -1.23735639
v 0.12619226 -0.89911371 -1.23338647
v 0.16176190 -0.90625000 -1.22870364
v 0.19733155 -0.89911371 -1.22402081
v 0.22748603 -0.87879126 -1.22005090
v 0.24763462 -0.84837657 -1.21739828
v 0.25470986 -0.81250000 -1.21646681
v 0.24763462 -0.77662343 -1.21739828
v 0.22748603 -0.74620874 -1.22005090
v 0.19733155 -0.72588629 -1.22402081
v 0.16176190 -0.71875000 -1.22870364
v 0.12619226 -0.72588629 -1.23338647
v 9.6037773e-2 -0.74620874 -1.23735639
v 7.5889189e-2 -0.77662343 -1.24000900
v 0.16502506 -0.81250000 -1.25348976
vn -0.94514833 7.3297707e-16 -0.32664145
vn -0.87764658 -0.34228247 -0.33552822
vn -0.68541788 -0.63245553 -0.36083561
vn -0.39772728 -0.82634298 -0.39871079
vn -5.8373088e-2 -0.89442719 -0.44338762
vn 0.28098111 -0.82634298 -0.48806445
vn 0.56867170 -0.63245553 -0.52593963
vn 0.76090041 -0.34228247 -0.55124702
vn 0.82840215 -3.1010568e-16 -0.56013380
vn 0.76090041 0.34228247 -0.55124702
vn 0.56867170 0.63245553 -0.52593963
vn 0.28098111 0.82634298 -0.48806445
vn -5.8373088e-2 0.89442719 -0.44338762
vn -0.39772728 0.82634298 -0.39871079
vn -0.68541788 0.63245553 -0.36083561
vn -0.87764658 0.34228247 -0.33552822
vn -0.13052619 1.0018311e-15 -0.99144486
vn -0.82840215 -6.3430708e-16 -0.56013380
vn -0.76090041 -0.34228247 -0.55124702
vn -0.56867170 -0.63245553 -0.52593963
vn -0.28098111 -0.82634298 -0.48806445
vn 5.8373088e-2 -0.89442719 -0.44338762
vn 0.39772728 -0.82634298 -0.39871079
vn 0.68541788 -0.63245553 -0.36083561
vn 0.87764658 -0.34228247 -0.33552822
vn 0.94514833 -3.1010568e-16 -0.32664145
vn 0.87764658 0.34228247 -0.33552822
vn 0.68541788 0.63245553 -0.36083561
vn 0.39772728 0.82634298 -0.39871079
vn 5.8373088e-2 0.89442719 -0.44338762
vn -0.28098111 0.82634298 -0.48806445
vn -0.56867170 0.63245553 -0.52593963
vn -0.76090041 0.34228247 -0.55124702
vn 0.13052619 3.9563610e-17 -0.99144486
vn -0.94514833 7.3297707e-16 -0.32664145
vn -0.94514833 7.3297707e-16 -0.32664145
vn -0.13052619 3.4655040e-15 -0.99144486
vn -0.13052619 3.4655040e-15 -0.99144486
vn -0.87764658 -0.34228247 -0.33552822
vn -0.87764658 -0.34228247 -0.33552822
vn -0.13052619 5.2894535e-15 -0.99144486
vn -0.13052619 5.2894535e-15 -0.99144486
vn -0.68541788 -0.63245553 -0.36083561
vn -0.68541788 -0.63245553 -0.36083561
vn -0.13052619 2.9183192e-15 -0.99144486
vn -0.13052619 2.9183192e-15 -0.99144486
vn -0.39772728 -0.82634298 -0.39871079
vn -0.39772728 -0.82634298 -0.39871079
vn -0.13052619 1.1158279e-15 -0.99144486
vn -0.13052619 1.1158279e-15 -0.99144486
vn -5.8373088e-2 -0.89442719 -0.44338762
vn -5.8373088e-2 -0.89442719 -0.44338762
vn -0.13052619 2.7466533e-15 -0.99144486
vn -0.13052619 2.7466533e-15 -0.99144486
vn 0.28098111 -0.82634298 -0.48806445
vn 0.28098111 -0.82634298 -0.48806445
vn -0.13052619 2.4033217e-15 -0.99144486
vn -0.13052619 2.4033217e-15 -0.99144486
vn 0.56867170 -0.63245553 -0.52593963
vn 0.56867170 -0.63245553 -0.52593963
vn -0.13052619 -1.2874937e-15 -0.99144486
vn -0.13052619 -1.2874937e-15 -0.99144486
vn 0.76090041 -0.34228247 -0.55124702
vn 0.76090041 -0.34228247 -0.55124702
vn -0.13052619 -4.1736256e-15 -0.99144486
vn -0.13052619 -4.1736256e-15 -0.99144486
vn 0.82840215 -3.1010568e-16 -0.56013380
vn 0.82840215 -3.1010568e-16 -0.56013380
vn -0.13052619 -1.1832914e-29 -0.99144486
vn -0.13052619 -1.1832914e-29 -0.99144486
vn 0.76090041 0.34228247 -0.55124702
vn 0.76090041 0.34228247 -0.55124702
vn -0.13052619 4.1736256e-15 -0.99144486
vn -0.13052619 4.1736256e-15 -0.99144486
vn 0.56867170 0.63245553 -0.52593963
vn 0.56867170 0.63245553 -0.52593963
vn -0.13052619 1.2874937e-15 -0.99144486
vn -0.13052619 1.2874937e-15 -0.99144486
vn 0.28098111 0.82634298 -0.48806445
vn 0.28098111 0.82634298 -0.48806445
vn -0.13052619 -1.0299950e-15 -0.99144486
vn -0.13052619 -1.0299950e-15 -0.99144486
vn -5.8373088e-2 0.89442719 -0.44338762
vn -5.8373088e-2 0.89442719 -0.44338762
vn -0.13052619 0.0000000e+0 -0.99144486
vn -0.13052619 0.0000000e+0 -0.99144486
vn -0.39772728 0.82634298 -0.39871079
vn -0.39772728 0.82634298 -0.39871079
vn -0.13052619 1.2016608e-15 -0.99144486
vn -0.13052619 1.2016608e-15 -0.99144486
vn -0.68541788 0.63245553 -0.36083561
vn -0.68541788 0.63245553 -0.36083561
vn -0.13052619 -1.1158279e-15 -0.99144486
vn -0.13052619 -1.1158279e-15 -0.99144486
vn -0.87764658 0.34228247 -0.33552822
vn -0.87764658 0.34228247 -0.33552822
vn -0.13052619 -9.6562031e-16 -0.99144486
vn -0.13052619 -9.6562031e-16 -0.99144486
vn -0.82840215 -6.3430708e-16 -0.56013380
vn -0.82840215 -6.3430708e-16 -0.56013380
vn 0.13052619 9.1197474e-17 -0.99144486
vn 0.13052619 9.1197474e-17 -0.99144486
vn -0.76090041 -0.34228247 -0.55124702
vn -0.76090041 -0.34228247 -0.55124702
vn 0.13052619 3.5459724e-15 -0.99144486
vn 0.13052619 3.5459724e-15 -0.99144486
vn -0.56867170 -0.63245553 -0.52593963
vn -0.56867170 -0.63245553 -0.52593963
vn 0.13052619 2.7895698e-15 -0.99144486
vn 0.13052619 2.7895698e-15 -0.99144486
vn -0.28098111 -0.82634298 -0.48806445
vn -0.28098111 -0.82634298 -0.48806445
vn 0.13052619 1.1587444e-15 -0.99144486
vn 0.13052619 1.1587444e-15 -0.99144486
vn 5.8373088e-2 -0.89442719 -0.44338762
vn 5.8373088e-2 -0.89442719 -0.44338762
vn 0.13052619 0.0000000e+0 -0.99144486
vn 0.13052619 0.0000000e+0 -0.99144486
vn 0.39772728 -0.82634298 -0.39871079
vn 0.39772728 -0.82634298 -0.39871079
vn 0.13052619 3.4333167e-16 -0.99144486
vn 0.13052619 3.4333167e-16 -0.99144486
vn 0.68541788 -0.63245553 -0.36083561
vn 0.68541788 -0.63245553 -0.36083561
vn 0.13052619 -6.8666333e-16 -0.99144486
vn 0.13052619 -6.8666333e-16 -0.99144486
vn 0.87764658 -0.34228247 -0.33552822
vn 0.87764658 -0.34228247 -0.33552822
vn 0.13052619 -2.4247799e-15 -0.99144486
vn 0.13052619 -2.4247799e-15 -0.99144486
vn 0.94514833 -3.1010568e-16 -0.32664145
vn 0.94514833 -3.1010568e-16 -0.32664145
vn 0.13052619 1.7749370e-30 -0.99144486
vn 0.13052619 1.7749370e-30 -0.99144486
vn 0.87764658 0.34228247 -0.33552822
vn 0.87764658 0.34228247 -0.33552822
vn 0.13052619 2.4247799e-15 -0.99144486
vn 0.13052619 2.4247799e-15 -0.99144486
vn 0.68541788 0.63245553 -0.36083561
vn 0.68541788 0.63245553 -0.36083561
vn 0.13052619 7.2957979e-16 -0.99144486
vn 0.13052619 7.2957979e-16 -0.99144486
vn 0.39772728 0.82634298 -0.39871079
vn 0.39772728 0.82634298 -0.39871079
vn 0.13052619 -3.0041521e-16 -0.99144486
vn 0.13052619 -3.0041521e-16 -0.99144486
vn 5.8373088e-2 0.89442719 -0.44338762
vn 5.8373088e-2 0.89442719 -0.44338762
vn 0.13052619 0.0000000e+0 -0.99144486
vn 0.13052619 0.0000000e+0 -0.99144486
vn -0.28098111 0.82634298 -0.48806445
vn -0.28098111 0.82634298 -0.48806445
vn 0.13052619 -9.2270385e-16 -0.99144486
vn 0.13052619 -9.2270385e-16 -0.99144486
vn -0.56867170 0.63245553 -0.52593963
vn -0.56867170 0.63245553 -0.52593963
vn 0.13052619 -2.6071748e-15 -0.99144486
vn 0.13052619 -2.6071748e-15 -0.99144486
vn -0.76090041 0.34228247 -0.55124702
vn -0.76090041 0.34228247 -0.55124702
vn 0.13052619 -3.5084205e-15 -0.99144486
vn 0.13052619 -3.5084205e-15 -0.99144486
g rotanev_crew_s2_1_2_interior_mask_default
usemtl default
s 1
f 1//37 33//17 2//41
f 2//42 33//17 3//46
f 3//45 33//17 4//50
f 4//49 33//17 5//54
f 5//53 33//17 6//58
f 6//57 33//17 7//62
f 7//61 33//17 8//66
f 8//65 33//17 9//70
f 9//69 33//17 10//74
f 10//73 33//17 11//78
f 11//77 33//17 12//82
f 12//81 33//17 13//86
f 13//85 33//17 14//90
f 14//89 33//17 15//94
f 15//93 33//17 16//98
f 16//97 33//17 1//38
f 34//101 66//34 35//105
f 35//106 66//34 36//110
f 36//109 66//34 37//114
f 37//113 66//34 38//118
f 38//117 66//34 39//122
f 39//121 66//34 40//126
f 40//125 66//34 41//130
f 41//129 66//34 42//134
f 42//133 66//34 43//138
f 43//137 66//34 44//142
f 44//141 66//34 45//146
f 45//145 66//34 46//150
f 46//149 66//34 47//154
f 47//153 66//34 48//158
f 48//157 66//34 49//162
f 49//161 66//34 34//102
s 2
f 1//35 17//1 32//16 16//95
f 2//40 18//2 17//1 1//36
f 3//44 19//3 18//2 2//39
f 4//48 20//4 19//3 3//43
f 5//52 21//5 20//4 4//47
f 6//56 22//6 21//5 5//51
f 7//60 23//7 22//6 6//55
f 8//64 24//8 23//7 7//59
f 9//68 25//9 24//8 8//63
f 10//72 26//10 25//9 9//67
f 11//76 27//11 26//10 10//71
f 12//80 28//12 27//11 11//75
f 13//84 29//13 28//12 12//79
f 14//88 30//14 29//13 13//83
f 15//92 31//15 30//14 14//87
f 16//96 32//16 31//15 15//91
f 34//99 50//18 65//33 49//159
f 35//104 51//19 50//18 34//100
f 36//108 52//20 51//19 35//103
f 37//112 53//21 52//20 36//107
f 38//116 54//22 53//21 37//111
f 39//120 55//23 54//22 38//115
f 40//124 56//24 55//23 39//119
f 41//128 57//25 56//24 40//123
f 42//132 58//26 57//25 41//127
f 43//136 59//27 58//26 42//131
f 44//140 60//28 59//27 43//135
f 45//144 61//29 60//28 44//139
f 46//148 62//30 61//29 45//143
f 47//152 63//31 62//30 46//147
f 48//156 64//32 63//31 47//151
f 49//160 65//33 64//32 48//155
o rotanev_crew_s2_1_2_interior
#48 vertices, 26 faces
v 1.25000000 1.87500000 8.3844968e-18
v 1.20740728 1.87500000 0.32352381
v 1.08253175 1.87500000 0.62500000
v 0.88388348 1.87500000 0.88388348
v 0.62500000 1.87500000 1.08253175
v 0.32352381 1.87500000 1.20740728
v 1.1123489e-16 1.87500000 1.25000000
v -0.32352381 1.87500000 1.20740728
v -0.62500000 1.87500000 1.08253175
v -0.88388348 1.87500000 0.88388348
v -1.08253175 1.87500000 0.62500000
v -1.20740728 1.87500000 0.32352381
v -1.25000000 1.87500000 1.6146535e-16
v -1.20740728 1.87500000 -0.32352381
v -1.08253175 1.87500000 -0.62500000
v -0.88388348 1.87500000 -0.88388348
v -0.62500000 1.87500000 -1.08253175
v -0.32352381 1.87500000 -1.20740728
v -1.9492681e-16 1.87500000 -1.25000000
v 0.32352381 1.87500000 -1.20740728
v 0.62500000 1.87500000 -1.08253175
v 0.88388348 1.87500000 -0.88388348
v 1.08253175 1.87500000 -0.62500000
v 1.20740728 1.87500000 -0.32352381
v 1.25000000 -1.87500000 8.3844968e-18
v 1.20740728 -1.87500000 0.32352381
v 1.08253175 -1.87500000 0.62500000
v 0.88388348 -1.87500000 0.88388348
v 0.62500000 -1.87500000 1.08253175
v 0.32352381 -1.87500000 1.20740728
v 1.1123489e-16 -1.87500000 1.25000000
v -0.32352381 -1.87500000 1.20740728
v -0.62500000 -1.87500000 1.08253175
v -0.88388348 -1.87500000 0.88388348
v -1.08253175 -1.87500000 0.62500000
v -1.20740728 -1.87500000 0.32352381
v -1.25000000 -1.87500000 1.6146535e-16
v -1.20740728 -1.87500000 -0.32352381
v -1.08253175 -1.87500000 -0.62500000
v -0.88388348 -1.87500000 -0.88388348
v -0.62500000 -1.87500000 -1.08253175
v -0.32352381 -1.87500000 -1.20740728
v -1.9492681e-16 -1.87500000 -1.25000000
v 0.32352381 -1.87500000 -1.20740728
v 0.62500000 -1.87500000 -1.08253175
v 0.88388348 -1.87500000 -0.88388348
v 1.08253175 -1.87500000 -0.62500000
v 1.20740728 -1.87500000 -0.32352381
vt 0.0000000e+0 0.44783185
vt 0.0000000e+0 0.89566370
vt 2.3592239e-16 3.3306691e-16
vt 2.3592239e-16 0.44783185
vt 3.8969191e-2 0.89566370
vt 3.8969191e-2 0.44783185
vt 3.8969191e-2 0.44783185
vt 3.8969191e-2 3.3306691e-16
vt 7.7938381e-2 0.89566370
vt 7.7938381e-2 0.44783185
vt 7.7938381e-2 0.44783185
vt 7.7938381e-2 3.0531133e-16
vt 0.11690757 0.89566370
vt 0.11690757 0.44783185
vt 0.11690757 0.44783185
vt 0.11690757 1.6653345e-16
vt 0.15587676 0.89566370
vt 0.15587676 0.44783185
vt 0.15587676 0.44783185
vt 0.15587676 8.3266727e-17
vt 0.19484595 0.89566370
vt 0.19484595 0.44783185
vt 0.19484595 0.44783185
vt 0.19484595 0.0000000e+0
vt 0.23381514 0.89566370
vt 0.23381514 0.44783185
vt 0.23381514 0.44783185
vt 0.23381514 0.59710913
vt 0.23381514 3.0531133e-16
vt 0.23381514 0.44783185
vt 0.23381514 1.3877788e-16
vt 0.23890164 0.55847333
vt 0.23890164 0.63574494
vt 0.25381451 0.67174777
vt 0.25381451 0.52247049
vt 0.27278434 4.4408921e-16
vt 0.27278434 0.44783185
vt 0.27753745 0.70266411
vt 0.27753745 0.49155415
vt 0.30845379 0.72638705
vt 0.30845379 0.46783121
vt 0.31175353 2.7755576e-16
vt 0.31175353 0.44783185
vt 0.34445662 0.45291835
vt 0.34445662 0.74129992
vt 0.35072272 8.3266727e-17
vt 0.35072272 0.44783185
vt 0.38309243 0.74638642
vt 0.38309243 0.44783185
vt 0.38969191 0.0000000e+0
vt 0.38969191 0.44783185
vt 0.42172823 0.45291835
vt 0.42172823 0.74129992
vt 0.42866110 5.5511151e-17
vt 0.42866110 0.44783185
vt 0.45773107 0.46783121
vt 0.45773107 0.72638705
vt 0.46763029 1.3877788e-16
vt 0.46763029 0.44783185
vt 0.46763029 8.3266727e-17
vt 0.46763029 0.44783185
vt 0.48864741 0.70266411
vt 0.48864741 0.49155415
vt 0.50659948 0.44783185
vt 0.50659948 1.1102230e-16
vt 0.51237035 0.52247049
vt 0.51237035 0.67174777
vt 0.52728321 0.63574494
vt 0.52728321 0.55847333
vt 0.53236971 0.59710913
vt 0.54556867 1.1102230e-16
vt 0.54556867 0.44783185
vt 0.58453786 0.44783185
vt 0.58453786 1.1102230e-16
vt 0.62350705 0.0000000e+0
vt 0.62350705 0.44783185
vt 0.66247624 0.44783185
vt 0.66247624 0.0000000e+0
vt 0.70144543 0.44783185
vt 0.70144543 8.3266727e-17
vt 0.70144543 0.14927728
vt 0.70653193 0.18791309
vt 0.70653193 0.11064148
vt 0.72144480 0.22391592
vt 0.72144480 7.4638642e-2
vt 0.74516774 0.25483226
vt 0.74516774 4.3722304e-2
vt 0.77608408 0.27855520
vt 0.77608408 1.9999364e-2
vt 0.81208691 0.29346807
vt 0.81208691 5.0865001e-3
vt 0.85072272 0.29855457
vt 0.85072272 0.0000000e+0
vt 0.88935852 0.29346807
vt 0.88935852 5.0865001e-3
vt 0.92536136 0.27855520
vt 0.92536136 1.9999364e-2
vt 0.95627770 0.25483226
vt 0.95627770 4.3722304e-2
vt 0.98000064 0.22391592
vt 0.98000064 7.4638642e-2
vt 0.99491350 0.18791309
vt 0.99491350 0.11064148
vt 1.00000000 0.14927728
vn 0.0000000e+0 -1.00000000 1.9446061e-16
vn -1.00000000 0.0000000e+0 1.1198031e-16
vn -1.00000000 0.0000000e+0 1.1198031e-16
vn 0.0000000e+0 -1.00000000 1.9446061e-16
vn -0.96592583 0.0000000e+0 -0.25881905
vn -0.96592583 0.0000000e+0 -0.25881905
vn 0.0000000e+0 -1.00000000 1.9446061e-16
vn -0.86602540 0.0000000e+0 -0.50000000
vn -0.86602540 0.0000000e+0 -0.50000000
vn 0.0000000e+0 -1.00000000 1.9446061e-16
vn -0.70710678 0.0000000e+0 -0.70710678
vn -0.70710678 0.0000000e+0 -0.70710678
vn 0.0000000e+0 -1.00000000 1.9446061e-16
vn -0.50000000 0.0000000e+0 -0.86602540
vn -0.50000000 0.0000000e+0 -0.86602540
vn 0.0000000e+0 -1.00000000 1.9446061e-16
vn -0.25881905 0.0000000e+0 -0.96592583
vn -0.25881905 0.0000000e+0 -0.96592583
vn 0.0000000e+0 -1.00000000 1.9446061e-16
vn -2.9394831e-16 0.0000000e+0 -1.00000000
vn -2.9394831e-16 0.0000000e+0 -1.00000000
vn 0.0000000e+0 -1.00000000 1.9446061e-16
vn 0.25881905 0.0000000e+0 -0.96592583
vn 0.25881905 0.0000000e+0 -0.96592583
vn 0.0000000e+0 -1.00000000 1.9446061e-16
vn 0.50000000 0.0000000e+0 -0.86602540
vn 0.50000000 0.0000000e+0 -0.86602540
vn 0.0000000e+0 -1.00000000 1.9446061e-16
vn 0.70710678 0.0000000e+0 -0.70710678
vn 0.70710678 0.0000000e+0 -0.70710678
vn 0.0000000e+0 -1.00000000 1.9446061e-16
vn 0.86602540 0.0000000e+0 -0.50000000
vn 0.86602540 0.0000000e+0 -0.50000000
vn 0.0000000e+0 -1.00000000 1.9446061e-16
vn 0.96592583 0.0000000e+0 -0.25881905
vn 0.96592583 0.0000000e+0 -0.25881905
vn 0.0000000e+0 -1.00000000 1.9446061e-16
vn 1.00000000 0.0000000e+0 -5.7389909e-16
vn 1.00000000 0.0000000e+0 -5.7389909e-16
vn 0.0000000e+0 -1.00000000 1.9446061e-16
vn 0.96592583 0.0000000e+0 0.25881905
vn 0.96592583 0.0000000e+0 0.25881905
vn 0.0000000e+0 -1.00000000 1.9446061e-16
vn 0.86602540 0.0000000e+0 0.50000000
vn 0.86602540 0.0000000e+0 0.50000000
vn 0.0000000e+0 -1.00000000 1.9446061e-16
vn 0.70710678 0.0000000e+0 0.70710678
vn 0.70710678 0.0000000e+0 0.70710678
vn 0.0000000e+0 -1.00000000 1.9446061e-16
vn 0.50000000 0.0000000e+0 0.86602540
vn 0.50000000 0.0000000e+0 0.86602540
vn 0.0000000e+0 -1.00000000 1.9446061e-16
vn 0.25881905 0.0000000e+0 0.96592583
vn 0.25881905 0.0000000e+0 0.96592583
vn 0.0000000e+0 -1.00000000 1.9446061e-16
vn 4.7591632e-16 0.0000000e+0 1.00000000
vn 4.7591632e-16 0.0000000e+0 1.00000000
vn 0.0000000e+0 -1.00000000 1.9446061e-16
vn -0.25881905 0.0000000e+0 0.96592583
vn -0.25881905 0.0000000e+0 0.96592583
vn 0.0000000e+0 -1.00000000 1.9446061e-16
vn -0.50000000 0.0000000e+0 0.86602540
vn -0.50000000 0.0000000e+0 0.86602540
vn 0.0000000e+0 -1.00000000 1.9446061e-16
vn -0.70710678 0.0000000e+0 0.70710678
vn -0.70710678 0.0000000e+0 0.70710678
vn 0.0000000e+0 -1.00000000 1.9446061e-16
vn -0.86602540 0.0000000e+0 0.50000000
vn -0.86602540 0.0000000e+0 0.50000000
vn 0.0000000e+0 -1.00000000 1.9446061e-16
vn -0.96592583 0.0000000e+0 0.25881905
vn -0.96592583 0.0000000e+0 0.25881905
vn 0.0000000e+0 1.00000000 -5.1474868e-17
vn -1.00000000 0.0000000e+0 1.1198031e-16
vn -1.00000000 0.0000000e+0 1.1198031e-16
vn 0.0000000e+0 1.00000000 -5.1474868e-17
vn -0.96592583 0.0000000e+0 -0.25881905
vn -0.96592583 0.0000000e+0 -0.25881905
vn 0.0000000e+0 1.00000000 -5.1474868e-17
vn -0.86602540 0.0000000e+0 -0.50000000
vn -0.86602540 0.0000000e+0 -0.50000000
vn 0.0000000e+0 1.00000000 -5.1474868e-17
vn -0.70710678 0.0000000e+0 -0.70710678
vn -0.70710678 0.0000000e+0 -0.70710678
vn 0.0000000e+0 1.00000000 -5.1474868e-17
vn -0.50000000 0.0000000e+0 -0.86602540
vn -0.50000000 0.0000000e+0 -0.86602540
vn 0.0000000e+0 1.00000000 -5.1474868e-17
vn -0.25881905 0.0000000e+0 -0.96592583
vn -0.25881905 0.0000000e+0 -0.96592583
vn 0.0000000e+0 1.00000000 -5.1474868e-17
vn -2.9394831e-16 0.0000000e+0 -1.00000000
vn -2.9394831e-16 0.0000000e+0 -1.00000000
vn 0.0000000e+0 1.00000000 -5.1474868e-17
vn 0.25881905 0.0000000e+0 -0.96592583
vn 0.25881905 0.0000000e+0 -0.96592583
vn 0.0000000e+0 1.00000000 -5.1474868e-17
vn 0.50000000 0.0000000e+0 -0.86602540
vn 0.50000000 0.0000000e+0 -0.86602540
vn 0.0000000e+0 1.00000000 -5.1474868e-17
vn 0.70710678 0.0000000e+0 -0.70710678
vn 0.70710678 0.0000000e+0 -0.70710678
vn 0.0000000e+0 1.00000000 -5.1474868e-17
vn 0.86602540 0.0000000e+0 -0.50000000
vn 0.86602540 0.0000000e+0 -0.50000000
vn 0.0000000e+0 1.00000000 -5.1474868e-17
vn 0.96592583 0.0000000e+0 -0.25881905
vn 0.96592583 0.0000000e+0 -0.25881905
vn 0.0000000e+0 1.00000000 -5.1474868e-17
vn 1.00000000 0.0000000e+0 -5.7389909e-16
vn 1.00000000 0.0000000e+0 -5.7389909e-16
vn 0.0000000e+0 1.00000000 -5.1474868e-17
vn 0.96592583 0.0000000e+0 0.25881905
vn 0.96592583 0.0000000e+0 0.25881905
vn 0.0000000e+0 1.00000000 -5.1474868e-17
vn 0.86602540 0.0000000e+0 0.50000000
vn 0.86602540 0.0000000e+0 0.50000000
vn 0.0000000e+0 1.00000000 -5.1474868e-17
vn 0.70710678 0.0000000e+0 0.70710678
vn 0.70710678 0.0000000e+0 0.70710678
vn 0.0000000e+0 1.00000000 -5.1474868e-17
vn 0.50000000 0.0000000e+0 0.86602540
vn 0.50000000 0.0000000e+0 0.86602540
vn 0.0000000e+0 1.00000000 -5.1474868e-17
vn 0.25881905 0.0000000e+0 0.96592583
vn 0.25881905 0.0000000e+0 0.96592583
vn 0.0000000e+0 1.00000000 -5.1474868e-17
vn 4.7591632e-16 0.0000000e+0 1.00000000
vn 4.7591632e-16 0.0000000e+0 1.00000000
vn 0.0000000e+0 1.00000000 -5.1474868e-17
vn -0.25881905 0.0000000e+0 0.96592583
vn -0.25881905 0.0000000e+0 0.96592583
vn 0.0000000e+0 1.00000000 -5.1474868e-17
vn -0.50000000 0.0000000e+0 0.86602540
vn -0.50000000 0.0000000e+0 0.86602540
vn 0.0000000e+0 1.00000000 -5.1474868e-17
vn -0.70710678 0.0000000e+0 0.70710678
vn -0.70710678 0.0000000e+0 0.70710678
vn 0.0000000e+0 1.00000000 -5.1474868e-17
vn -0.86602540 0.0000000e+0 0.50000000
vn -0.86602540 0.0000000e+0 0.50000000
vn 0.0000000e+0 1.00000000 -5.1474868e-17
vn -0.96592583 0.0000000e+0 0.25881905
vn -0.96592583 0.0000000e+0 0.25881905
g rotanev_crew_s2_1_2_interior_rotanev_crew_s2_1_1_interior_auv
usemtl rotanev_crew_s2_1_1_interior_auv
s 1
f 68/32/166 69/35/169 70/39/172 71/41/175 72/44/178 73/49/181 74/52/184 75/56/187 76/63/190 77/66/193 78/69/196 79/70/199 80/68/202 81/67/205 82/62/208 83/57/211 84/53/214 85/48/217 86/45/220 87/40/223 88/38/226 89/34/229 90/33/232 67/28/163
f 91/104/235 114/102/304 113/100/301 112/98/298 111/96/295 110/94/292 109/92/289 108/90/286 107/88/283 106/86/280 105/84/277 104/82/274 103/81/271 102/83/268 101/85/265 100/87/262 99/89/259 98/91/256 97/93/253 96/95/250 95/97/247 94/99/244 93/101/241 92/103/238
s 2
f 67/47/165 91/46/237 92/50/240 68/51/168
f 68/51/167 92/50/239 93/54/243 69/55/171
f 69/55/170 93/54/242 94/58/246 70/61/174
f 70/2/173 94/4/245 95/7/249 71/5/177
f 71/5/176 95/7/248 96/11/252 72/9/180
f 72/9/179 96/11/251 97/15/255 73/13/183
f 73/13/182 97/15/254 98/19/258 74/17/186
f 74/17/185 98/19/257 99/23/261 75/21/189
f 75/21/188 99/23/260 100/27/264 76/25/192
f 76/59/191 100/60/263 101/65/267 77/64/195
f 77/64/194 101/65/266 102/71/270 78/72/198
f 78/72/197 102/71/269 103/74/273 79/73/201
f 79/73/200 103/74/272 104/75/276 80/76/204
f 80/76/203 104/75/275 105/78/279 81/77/207
f 81/77/206 105/78/278 106/80/282 82/79/210
f 82/1/209 106/3/281 107/8/285 83/6/213
f 83/6/212 107/8/284 108/12/288 84/10/216
f 84/10/215 108/12/287 109/16/291 85/14/219
f 85/14/218 109/16/290 110/20/294 86/18/222
f 86/18/221 110/20/293 111/24/297 87/22/225
f 87/22/224 111/24/296 112/29/300 88/26/228
f 88/30/227 112/31/299 113/36/303 89/37/231
f 89/37/230 113/36/302 114/42/306 90/43/234
f 90/43/233 114/42/305 91/46/236 67/47/164
