# Exported from Wings 3D 1.5.4
mtllib atria_antenna_2_base_3.mtl
o atria_antenna_2_base_3
#32 vertices, 26 faces
v -2.5000000e-2 7.5000000e-2 4.0650353e-17
v -2.5000000e-2 -7.5000000e-2 4.9835204e-17
v -2.5000000e-2 -6.4951905e-2 -3.7500000e-2
v -2.5000000e-2 -3.7500000e-2 -6.4951905e-2
v -2.5000000e-2 2.0536745e-17 -7.5000000e-2
v -2.5000000e-2 3.7500000e-2 -6.4951905e-2
v -2.5000000e-2 6.4951905e-2 -3.7500000e-2
v 2.5000000e-2 7.5000000e-2 4.0650353e-17
v 2.5000000e-2 -7.5000000e-2 4.9835204e-17
v 2.5000000e-2 -6.4951905e-2 -3.7500000e-2
v 2.5000000e-2 -3.7500000e-2 -6.4951905e-2
v 2.5000000e-2 1.1351894e-17 -7.5000000e-2
v 2.5000000e-2 3.7500000e-2 -6.4951905e-2
v 2.5000000e-2 6.4951905e-2 -3.7500000e-2
v -1.2500000e-2 6.4951905e-2 -3.7500000e-2
v 1.2500000e-2 6.4951905e-2 -3.7500000e-2
v -1.2500000e-2 3.7500000e-2 -6.4951905e-2
v 1.2500000e-2 3.7500000e-2 -6.4951905e-2
v -1.2500000e-2 1.7259703e-17 -7.5000000e-2
v 1.2500000e-2 1.4628935e-17 -7.5000000e-2
v -1.2500000e-2 -3.7500000e-2 -6.4951905e-2
v 1.2500000e-2 -3.7500000e-2 -6.4951905e-2
v -1.2500000e-2 -6.4951905e-2 -3.7500000e-2
v 1.2500000e-2 -6.4951905e-2 -3.7500000e-2
v 1.2500000e-2 6.8301270e-2 -2.5000000e-2
v -1.2500000e-2 6.8301270e-2 -2.5000000e-2
v 1.2500000e-2 -6.8301270e-2 -2.5000000e-2
v -1.2500000e-2 -6.8301270e-2 -2.5000000e-2
v -2.5000000e-2 7.5000000e-2 2.5000000e-2
v -2.5000000e-2 -7.5000000e-2 2.5000000e-2
v 2.5000000e-2 -7.5000000e-2 2.5000000e-2
v 2.5000000e-2 7.5000000e-2 2.5000000e-2
vt 0.55590310 6.6849444e-2
vt 0.55590310 0.10217711
vt 0.55605574 0.46911563
vt 0.55605574 0.56563262
vt 0.55642329 0.17854270
vt 0.55642329 0.28452572
vt 0.55642329 0.17854270
vt 0.55642329 0.28452572
vt 0.55742781 0.35902110
vt 0.55742781 0.39434877
vt 0.55742781 0.35902110
vt 0.55742781 0.39434877
vt 0.57294000 0.35902110
vt 0.57294000 0.39434877
vt 0.57294000 0.35902110
vt 0.57294000 0.39434877
vt 0.57343823 0.46911563
vt 0.57343823 0.56563262
vt 0.57371957 0.46911563
vt 0.57371957 0.56563262
vt 0.57408712 0.17854270
vt 0.57408712 0.17854270
vt 0.57408712 0.28452572
vt 0.57408712 0.28452572
vt 0.58227015 0.47148214
vt 0.58227015 0.47148214
vt 0.58227015 0.56326611
vt 0.58227015 0.56326611
vt 0.59071606 0.36785302
vt 0.59071606 0.38551686
vt 0.59071606 0.36785302
vt 0.59071606 0.38551686
vt 0.59960408 0.35902110
vt 0.59960408 0.36785302
vt 0.59960408 0.38551686
vt 0.59960408 0.39434877
vt 0.59960408 0.35902110
vt 0.59960408 0.36785302
vt 0.59960408 0.38551686
vt 0.59960408 0.39434877
vt 0.60058288 0.18564222
vt 0.60058288 0.18564222
vt 0.60058288 0.27742620
vt 0.60166639 0.49087837
vt 0.60166639 0.49087837
vt 0.60166639 0.54386988
vt 0.60166639 0.54386988
vt 0.60876590 0.51737413
vt 0.61997911 0.20503846
vt 0.61997911 0.25802996
vt 0.61997911 0.20503846
vt 0.61997911 0.25802996
vt 0.62591513 0.35902110
vt 0.62591513 0.36785302
vt 0.62591513 0.38551686
vt 0.62591513 0.39434877
vt 0.62591513 0.35902110
vt 0.62591513 0.36785302
vt 0.62591513 0.38551686
vt 0.62591513 0.39434877
vt 0.62707863 0.23153421
vt 0.62707863 0.23153421
vt 0.64482311 0.35902110
vt 0.64482311 0.36785302
vt 0.64482311 0.38551686
vt 0.64482311 0.39434877
vt 0.64482311 0.35902110
vt 0.64482311 0.36785302
vt 0.64482311 0.38551686
vt 0.64482311 0.39434877
vt 0.66188611 6.6849444e-2
vt 0.66188611 0.10217711
vn 2.2512640e-16 0.98476904 -0.17386758
vn -1.00000000 0.0000000e+0 0.0000000e+0
vn 2.2512640e-16 0.98476904 -0.17386758
vn 2.2512640e-16 0.98476904 -0.17386758
vn -1.8760533e-16 -0.98476904 -0.17386758
vn -1.00000000 0.0000000e+0 0.0000000e+0
vn -1.8760533e-16 -0.98476904 -0.17386758
vn -1.8760533e-16 -0.98476904 -0.17386758
vn -8.2936574e-16 -0.90707274 -0.42097392
vn -8.2936574e-16 -0.90707274 -0.42097392
vn -1.00000000 0.0000000e+0 0.0000000e+0
vn -8.2936574e-16 -0.90707274 -0.42097392
vn -5.2041704e-16 -0.50000000 -0.86602540
vn -5.2041704e-16 -0.50000000 -0.86602540
vn -1.00000000 0.0000000e+0 0.0000000e+0
vn -8.6736174e-17 -3.1608155e-16 -1.00000000
vn -8.6736174e-17 -3.1608155e-16 -1.00000000
vn -1.00000000 0.0000000e+0 0.0000000e+0
vn 2.0238441e-16 0.50000000 -0.86602540
vn 2.0238441e-16 0.50000000 -0.86602540
vn -1.00000000 0.0000000e+0 0.0000000e+0
vn 7.1417605e-16 0.90707274 -0.42097392
vn 7.1417605e-16 0.90707274 -0.42097392
vn -1.00000000 0.0000000e+0 0.0000000e+0
vn 7.1417605e-16 0.90707274 -0.42097392
vn 1.00000000 -1.7792036e-17 1.9920234e-17
vn 3.7521066e-17 0.98476904 -0.17386758
vn 3.7521066e-17 0.98476904 -0.17386758
vn 3.7521066e-17 0.98476904 -0.17386758
vn 1.00000000 -1.7792036e-17 1.9920234e-17
vn -7.5042132e-17 -0.98476904 -0.17386758
vn -7.5042132e-17 -0.98476904 -0.17386758
vn -7.5042132e-17 -0.98476904 -0.17386758
vn 1.00000000 -1.7792036e-17 1.9920234e-17
vn -1.5358625e-16 -0.90707274 -0.42097392
vn -1.5358625e-16 -0.90707274 -0.42097392
vn -1.5358625e-16 -0.90707274 -0.42097392
vn 1.00000000 -1.7792036e-17 1.9920234e-17
vn -1.4456029e-16 -0.50000000 -0.86602540
vn -1.4456029e-16 -0.50000000 -0.86602540
vn 1.00000000 -1.7792036e-17 1.9920234e-17
vn 5.7423439e-32 -3.1608155e-16 -1.00000000
vn 5.7423439e-32 -3.1608155e-16 -1.00000000
vn 1.00000000 -1.7792036e-17 1.9920234e-17
vn 8.6736174e-17 0.50000000 -0.86602540
vn 8.6736174e-17 0.50000000 -0.86602540
vn 1.00000000 -1.7792036e-17 1.9920234e-17
vn 7.6793124e-17 0.90707274 -0.42097392
vn 7.6793124e-17 0.90707274 -0.42097392
vn 7.6793124e-17 0.90707274 -0.42097392
vn 7.2858386e-16 0.86602540 -0.50000000
vn 1.00000000 -1.1165904e-17 0.0000000e+0
vn 7.2858386e-16 0.86602540 -0.50000000
vn 5.7824116e-17 0.86602540 -0.50000000
vn 5.7824116e-17 0.86602540 -0.50000000
vn -1.00000000 -1.1165904e-17 0.0000000e+0
vn 2.0238441e-16 0.50000000 -0.86602540
vn 2.0238441e-16 0.50000000 -0.86602540
vn 1.00000000 -1.1165904e-17 0.0000000e+0
vn 8.6736174e-17 0.50000000 -0.86602540
vn 8.6736174e-17 0.50000000 -0.86602540
vn -1.00000000 -1.1165904e-17 0.0000000e+0
vn -8.6736174e-17 -3.1608155e-16 -1.00000000
vn -8.6736174e-17 -3.1608155e-16 -1.00000000
vn 1.00000000 -1.1165904e-17 0.0000000e+0
vn 5.7423439e-32 -3.1608155e-16 -1.00000000
vn 5.7423439e-32 -3.1608155e-16 -1.00000000
vn -1.00000000 -1.1165904e-17 0.0000000e+0
vn -5.2041704e-16 -0.50000000 -0.86602540
vn -5.2041704e-16 -0.50000000 -0.86602540
vn 1.00000000 -1.1165904e-17 0.0000000e+0
vn -1.4456029e-16 -0.50000000 -0.86602540
vn -1.4456029e-16 -0.50000000 -0.86602540
vn -1.00000000 -1.1165904e-17 0.0000000e+0
vn -9.5988032e-16 -0.86602540 -0.50000000
vn 1.00000000 -1.1165904e-17 0.0000000e+0
vn -9.5988032e-16 -0.86602540 -0.50000000
vn -1.1564823e-16 -0.86602540 -0.50000000
vn -1.1564823e-16 -0.86602540 -0.50000000
vn -1.00000000 -1.1165904e-17 0.0000000e+0
vn 3.7235871e-17 0.96592583 -0.25881905
vn 0.0000000e+0 0.0000000e+0 -1.00000000
vn -1.00000000 -1.1165904e-17 0.0000000e+0
vn 3.7235871e-17 0.96592583 -0.25881905
vn 3.7235871e-17 0.96592583 -0.25881905
vn 5.8087959e-16 0.96592583 -0.25881905
vn 1.00000000 -1.1165904e-17 0.0000000e+0
vn 0.0000000e+0 0.0000000e+0 -1.00000000
vn 5.8087959e-16 0.96592583 -0.25881905
vn 5.8087959e-16 0.96592583 -0.25881905
vn -7.4471743e-17 -0.96592583 -0.25881905
vn 0.0000000e+0 0.0000000e+0 -1.00000000
vn -1.00000000 -1.1165904e-17 0.0000000e+0
vn -7.4471743e-17 -0.96592583 -0.25881905
vn -7.4471743e-17 -0.96592583 -0.25881905
vn -5.4364372e-16 -0.96592583 -0.25881905
vn 1.00000000 -1.1165904e-17 0.0000000e+0
vn 0.0000000e+0 0.0000000e+0 -1.00000000
vn -5.4364372e-16 -0.96592583 -0.25881905
vn -5.4364372e-16 -0.96592583 -0.25881905
vn 0.0000000e+0 4.6259293e-17 1.00000000
vn -1.00000000 0.0000000e+0 0.0000000e+0
vn 0.0000000e+0 1.00000000 0.0000000e+0
vn 0.0000000e+0 4.6259293e-17 1.00000000
vn -1.00000000 0.0000000e+0 0.0000000e+0
vn 0.0000000e+0 -1.00000000 0.0000000e+0
vn 1.00000000 -1.7792036e-17 1.9920234e-17
vn 0.0000000e+0 4.6259293e-17 1.00000000
vn 0.0000000e+0 -1.00000000 0.0000000e+0
vn 1.00000000 -1.7792036e-17 1.9920234e-17
vn 0.0000000e+0 4.6259293e-17 1.00000000
vn 0.0000000e+0 1.00000000 0.0000000e+0
g atria_antenna_2_base_3_atria_antenna_2_base_3_auv
usemtl atria_antenna_2_base_3_auv
s 1
f 7/41/24 6/51/21 5/61/18 4/50/15 3/43/11 2/24/6 30/8/105 29/7/102 1/21/2
f 8/23/26 32/6/110 31/5/107 9/22/30 10/42/34 11/49/38 12/62/41 13/52/44 14/43/47
f 19/48/65 17/46/59 15/27/52 26/18/87 28/17/97 23/25/76 21/44/71
f 24/28/80 27/18/93 25/17/83 16/26/56 18/45/62 20/48/68 22/47/74
s 2
f 28/19/98 26/20/88 25/4/82 27/3/92
f 30/71/104 31/72/108 32/2/111 29/1/101
s 3
f 1/14/1 26/30/86 7/36/22
f 2/15/7 9/16/31 31/12/109 30/11/106
f 3/37/10 28/31/96 2/15/5
f 4/57/14 21/58/70 23/38/75 3/37/9
f 5/67/17 19/68/64 21/58/69 4/57/13
f 6/56/20 17/55/58 19/65/63 5/66/16
f 7/36/23 15/35/51 17/55/57 6/56/19
f 7/36/25 26/30/90 15/35/53
f 9/16/33 27/32/95 10/40/37
f 10/40/35 24/39/78 22/59/73 11/60/40
f 10/40/36 27/32/91 24/39/79
f 11/60/39 22/59/72 20/69/67 12/70/43
f 12/63/42 20/64/66 18/54/61 13/53/46
f 13/53/45 18/54/60 16/34/55 14/33/49
f 14/33/50 25/29/85 8/13/29
f 16/34/54 25/29/81 14/33/48
f 23/38/77 28/31/100 3/37/12
f 26/30/89 1/14/4 8/13/28 25/29/84
f 27/32/94 9/16/32 2/15/8 28/31/99
f 29/10/103 32/9/112 8/13/27 1/14/3
