# Exported from Wings 3D 1.5.4
mtllib atria_antenna_2_base_1.mtl
o atria_antenna_2_base_1
#16 vertices, 10 faces
v 2.5000000e-2 1.7600375e-17 2.5000000e-2
v 1.7677670e-2 -1.7677670e-2 2.5000000e-2
v -5.2592564e-17 -2.5000000e-2 2.5000000e-2
v -1.7677670e-2 -1.7677670e-2 2.5000000e-2
v -2.5000000e-2 1.4538758e-17 2.5000000e-2
v -1.7677670e-2 1.7677670e-2 2.5000000e-2
v -5.8715798e-17 2.5000000e-2 2.5000000e-2
v 1.7677670e-2 1.7677670e-2 2.5000000e-2
v 2.5000000e-2 1.4538758e-17 -5.0000000e-2
v 1.7677670e-2 -1.7677670e-2 -5.0000000e-2
v -5.2592564e-17 -2.5000000e-2 -5.0000000e-2
v -1.7677670e-2 -1.7677670e-2 -5.0000000e-2
v -2.5000000e-2 1.1477141e-17 -5.0000000e-2
v -1.7677670e-2 1.7677670e-2 -5.0000000e-2
v -5.8715798e-17 2.5000000e-2 -5.0000000e-2
v 1.7677670e-2 1.7677670e-2 -5.0000000e-2
vt 0.24628148 0.81753859
vt 0.24628148 0.77977859
vt 0.24628148 0.81753859
vt 0.26073161 0.77977859
vt 0.26073161 0.81753859
vt 0.26073161 0.81753859
vt 0.27518174 0.77977859
vt 0.27518174 0.81753859
vt 0.27518174 0.81753859
vt 0.28963186 0.77977859
vt 0.28963186 0.77977859
vt 0.28963186 0.81753859
vt 0.28963186 0.81753859
vt 0.30408199 0.77977859
vt 0.30408199 0.77977859
vt 0.30408199 0.81753859
vt 0.30408199 0.81753859
vt 0.34504330 0.79841110
vt 0.35057312 0.78506092
vt 0.35057312 0.81176127
vt 0.36392330 0.77953110
vt 0.36392330 0.81729110
vt 0.37727347 0.78506092
vt 0.37727347 0.81176127
vt 0.38280330 0.79841110
vt 0.82164301 0.79841110
vt 0.82717283 0.78506092
vt 0.82717283 0.81176127
vt 0.84052301 0.77953110
vt 0.84052301 0.81729110
vt 0.85387318 0.78506092
vt 0.85387318 0.81176127
vt 0.85940301 0.79841110
vn 0.0000000e+0 3.4694470e-17 1.00000000
vn 1.00000000 9.0127256e-17 5.1109781e-18
vn 1.00000000 9.0127256e-17 5.1109781e-18
vn 0.0000000e+0 3.4694470e-17 1.00000000
vn 0.70710678 -0.70710678 5.1109781e-17
vn 0.70710678 -0.70710678 5.1109781e-17
vn 0.0000000e+0 3.4694470e-17 1.00000000
vn 1.2016967e-16 -1.00000000 6.1331737e-17
vn 1.2016967e-16 -1.00000000 6.1331737e-17
vn 0.0000000e+0 3.4694470e-17 1.00000000
vn -0.70710678 -0.70710678 3.5776846e-17
vn -0.70710678 -0.70710678 3.5776846e-17
vn 0.0000000e+0 3.4694470e-17 1.00000000
vn -1.00000000 -1.5021209e-16 -5.1109781e-18
vn -1.00000000 -1.5021209e-16 -5.1109781e-18
vn 0.0000000e+0 3.4694470e-17 1.00000000
vn -0.70710678 0.70710678 -5.1109781e-17
vn -0.70710678 0.70710678 -5.1109781e-17
vn 0.0000000e+0 3.4694470e-17 1.00000000
vn -1.8025451e-16 1.00000000 -6.1331737e-17
vn -1.8025451e-16 1.00000000 -6.1331737e-17
vn 0.0000000e+0 3.4694470e-17 1.00000000
vn 0.70710678 0.70710678 -3.5776846e-17
vn 0.70710678 0.70710678 -3.5776846e-17
vn 3.0665868e-16 0.0000000e+0 -1.00000000
vn 1.00000000 9.0127256e-17 5.1109781e-18
vn 1.00000000 9.0127256e-17 5.1109781e-18
vn 3.0665868e-16 0.0000000e+0 -1.00000000
vn 0.70710678 -0.70710678 5.1109781e-17
vn 0.70710678 -0.70710678 5.1109781e-17
vn 3.0665868e-16 0.0000000e+0 -1.00000000
vn 1.2016967e-16 -1.00000000 6.1331737e-17
vn 1.2016967e-16 -1.00000000 6.1331737e-17
vn 3.0665868e-16 0.0000000e+0 -1.00000000
vn -0.70710678 -0.70710678 3.5776846e-17
vn -0.70710678 -0.70710678 3.5776846e-17
vn 3.0665868e-16 0.0000000e+0 -1.00000000
vn -1.00000000 -1.5021209e-16 -5.1109781e-18
vn -1.00000000 -1.5021209e-16 -5.1109781e-18
vn 3.0665868e-16 0.0000000e+0 -1.00000000
vn -0.70710678 0.70710678 -5.1109781e-17
vn -0.70710678 0.70710678 -5.1109781e-17
vn 3.0665868e-16 0.0000000e+0 -1.00000000
vn -1.8025451e-16 1.00000000 -6.1331737e-17
vn -1.8025451e-16 1.00000000 -6.1331737e-17
vn 3.0665868e-16 0.0000000e+0 -1.00000000
vn 0.70710678 0.70710678 -3.5776846e-17
vn 0.70710678 0.70710678 -3.5776846e-17
g atria_antenna_2_base_1_atria_antenna_2_base_1_auv
usemtl atria_antenna_2_base_1_auv
s 1
f 1/25/1 8/24/22 7/22/19 6/20/16 5/18/13 4/19/10 3/21/7 2/23/4
f 10/27/28 11/29/31 12/31/34 13/33/37 14/32/40 15/30/43 16/28/46 9/26/25
s 2
f 1/7/2 9/9/26 16/6/47 8/4/23
f 2/11/6 10/13/30 9/9/27 1/7/3
f 3/15/9 11/17/33 10/13/29 2/11/5
f 4/10/12 12/12/36 11/16/32 3/14/8
f 5/7/15 13/8/39 12/12/35 4/10/11
f 6/4/18 14/5/42 13/8/38 5/7/14
f 7/2/21 15/1/45 14/5/41 6/4/17
f 8/4/24 16/6/48 15/3/44 7/2/20
