# Exported from Wings 3D 1.5.4
mtllib atria_antenna_2_base_2.mtl
o atria_antenna_2_base_2
#28 vertices, 24 faces
v -2.5000000e-2 -2.5000000e-2 2.5000000e-2
v -2.5000000e-2 2.5000000e-2 2.5000000e-2
v 2.5000000e-2 -2.5000000e-2 2.5000000e-2
v 2.5000000e-2 2.5000000e-2 2.5000000e-2
v -1.2500000e-2 2.5000000e-2 -2.5000000e-2
v 1.2500000e-2 2.5000000e-2 -2.5000000e-2
v -1.2500000e-2 -2.5000000e-2 -2.5000000e-2
v 1.2500000e-2 -2.5000000e-2 -2.5000000e-2
v 2.5000000e-2 2.5000000e-2 -5.0000000e-2
v 2.5000000e-2 -2.5000000e-2 -5.0000000e-2
v 2.5000000e-2 -1.7677670e-2 -6.7677670e-2
v 2.5000000e-2 -4.9698128e-18 -7.5000000e-2
v 2.5000000e-2 1.7677670e-2 -6.7677670e-2
v 1.2500000e-2 2.5000000e-2 -5.0000000e-2
v 1.2500000e-2 -2.5000000e-2 -5.0000000e-2
v 1.2500000e-2 -1.7677670e-2 -6.7677670e-2
v 1.2500000e-2 -8.0314298e-18 -7.5000000e-2
v 1.2500000e-2 1.7677670e-2 -6.7677670e-2
v -2.5000000e-2 2.5000000e-2 -5.0000000e-2
v -2.5000000e-2 -2.5000000e-2 -5.0000000e-2
v -2.5000000e-2 -1.7677670e-2 -6.7677670e-2
v -2.5000000e-2 -4.9698128e-18 -7.5000000e-2
v -2.5000000e-2 1.7677670e-2 -6.7677670e-2
v -1.2500000e-2 2.5000000e-2 -5.0000000e-2
v -1.2500000e-2 -2.5000000e-2 -5.0000000e-2
v -1.2500000e-2 -1.7677670e-2 -6.7677670e-2
v -1.2500000e-2 -8.0314298e-18 -7.5000000e-2
v -1.2500000e-2 1.7677670e-2 -6.7677670e-2
vt 7.5345954e-2 9.0799074e-2
vt 7.5345954e-2 0.12579907
vt 7.5345954e-2 9.0799074e-2
vt 7.5345954e-2 0.12579907
vt 7.5816896e-2 0.20125989
vt 7.5816896e-2 0.20125989
vt 7.5816896e-2 0.23625989
vt 7.5816896e-2 0.23625989
vt 9.3316896e-2 0.20125989
vt 9.3316896e-2 0.20125989
vt 9.3316896e-2 0.23625989
vt 0.10569126 0.20638552
vt 0.10569126 0.20638552
vt 0.10569126 0.23113426
vt 0.10569126 0.23113426
vt 0.11081690 0.21875989
vt 0.11081690 0.21875989
vt 0.12784595 9.0799074e-2
vt 0.12784595 0.12579907
vt 0.12784595 9.0799074e-2
vt 0.12784595 0.12579907
vt 0.14022032 9.5924706e-2
vt 0.14022032 0.12067344
vt 0.14022032 9.5924706e-2
vt 0.14022032 0.12067344
vt 0.14534595 0.10829907
vt 0.14687968 0.20124874
vt 0.14687968 0.23624874
vt 0.16437968 0.20124874
vt 0.16437968 0.23624874
vt 0.72780646 0.89300487
vt 0.72780646 0.92800487
vt 0.76280646 0.89300487
vt 0.76280646 0.92800487
vt 0.76287653 0.89285025
vt 0.76287653 0.92785025
vt 0.76287653 0.89285025
vt 0.76287653 0.92785025
vt 0.79787653 0.90160025
vt 0.79787653 0.91910025
vt 0.79787653 0.91910025
vt 0.79787653 0.90160025
vt 0.81537653 0.90160025
vt 0.81537653 0.92785025
vt 0.81537653 0.91910025
vt 0.81537653 0.89285025
vt 0.81537653 0.89285025
vt 0.81537653 0.92785025
vt 0.81537653 0.91910025
vt 0.81537653 0.90160025
vt 0.82877045 0.92785025
vt 0.82877045 0.91910025
vt 0.82877045 0.89285025
vt 0.82877045 0.90160025
vt 0.82877045 0.92785025
vt 0.82877045 0.91910025
vt 0.82877045 0.90160025
vt 0.82877045 0.89285025
vt 0.84216437 0.92785025
vt 0.84216437 0.91910025
vt 0.84216437 0.89285025
vt 0.84216437 0.90160025
vt 0.84216437 0.92785025
vt 0.84216437 0.91910025
vt 0.84216437 0.90160025
vt 0.84216437 0.89285025
vn -9.2518585e-17 -1.00000000 0.0000000e+0
vn 0.0000000e+0 0.0000000e+0 1.00000000
vn -1.00000000 0.0000000e+0 0.0000000e+0
vn -9.2518585e-17 -1.00000000 0.0000000e+0
vn -9.2518585e-17 1.00000000 0.0000000e+0
vn 0.0000000e+0 0.0000000e+0 1.00000000
vn -1.00000000 0.0000000e+0 0.0000000e+0
vn -9.2518585e-17 1.00000000 0.0000000e+0
vn 9.2518585e-17 -1.00000000 0.0000000e+0
vn 0.0000000e+0 0.0000000e+0 1.00000000
vn 1.00000000 -4.6794538e-17 0.0000000e+0
vn 9.2518585e-17 -1.00000000 0.0000000e+0
vn 9.2518585e-17 1.00000000 0.0000000e+0
vn 0.0000000e+0 0.0000000e+0 1.00000000
vn 1.00000000 -4.6794538e-17 0.0000000e+0
vn 9.2518585e-17 1.00000000 0.0000000e+0
vn -6.1679057e-17 1.00000000 -1.1564823e-16
vn 0.0000000e+0 0.0000000e+0 -1.00000000
vn 1.00000000 -5.0808874e-17 0.0000000e+0
vn -6.1679057e-17 1.00000000 -1.1564823e-16
vn -6.1679057e-17 1.00000000 -1.1564823e-16
vn 6.1679057e-17 1.00000000 -1.1564823e-16
vn 0.0000000e+0 0.0000000e+0 -1.00000000
vn -1.00000000 -5.0808874e-17 0.0000000e+0
vn 6.1679057e-17 1.00000000 -1.1564823e-16
vn 6.1679057e-17 1.00000000 -1.1564823e-16
vn -1.5419764e-16 -1.00000000 0.0000000e+0
vn 0.0000000e+0 0.0000000e+0 -1.00000000
vn 1.00000000 -5.0808874e-17 0.0000000e+0
vn -1.5419764e-16 -1.00000000 0.0000000e+0
vn -1.5419764e-16 -1.00000000 0.0000000e+0
vn 1.5419764e-16 -1.00000000 0.0000000e+0
vn 0.0000000e+0 0.0000000e+0 -1.00000000
vn -1.00000000 -5.0808874e-17 0.0000000e+0
vn 1.5419764e-16 -1.00000000 0.0000000e+0
vn 1.5419764e-16 -1.00000000 0.0000000e+0
vn 1.00000000 -4.6794538e-17 0.0000000e+0
vn -3.3328121e-17 0.99154343 -0.12977527
vn -3.3328121e-17 0.99154343 -0.12977527
vn -3.3328121e-17 0.99154343 -0.12977527
vn 1.00000000 -4.6794538e-17 0.0000000e+0
vn 2.5295187e-16 -0.99154343 -0.12977527
vn 2.5295187e-16 -0.99154343 -0.12977527
vn 2.5295187e-16 -0.99154343 -0.12977527
vn 1.00000000 -4.6794538e-17 0.0000000e+0
vn 2.1466108e-16 -0.70710678 -0.70710678
vn 2.1466108e-16 -0.70710678 -0.70710678
vn 1.00000000 -4.6794538e-17 0.0000000e+0
vn -3.0665868e-17 -6.9097563e-16 -1.00000000
vn -3.0665868e-17 -6.9097563e-16 -1.00000000
vn 1.00000000 -4.6794538e-17 0.0000000e+0
vn -2.4532695e-16 0.70710678 -0.70710678
vn -2.4532695e-16 0.70710678 -0.70710678
vn -1.4443308e-16 0.98078528 -0.19509032
vn -1.00000000 -5.0808874e-17 0.0000000e+0
vn -1.4443308e-16 0.98078528 -0.19509032
vn 2.8592978e-16 -0.98078528 -0.19509032
vn -1.00000000 -5.0808874e-17 0.0000000e+0
vn 2.8592978e-16 -0.98078528 -0.19509032
vn 2.1466108e-16 -0.70710678 -0.70710678
vn 2.1466108e-16 -0.70710678 -0.70710678
vn -1.00000000 -5.0808874e-17 0.0000000e+0
vn -3.0665868e-17 -6.9097563e-16 -1.00000000
vn -3.0665868e-17 -6.9097563e-16 -1.00000000
vn -1.00000000 -5.0808874e-17 0.0000000e+0
vn -2.4532695e-16 0.70710678 -0.70710678
vn -2.4532695e-16 0.70710678 -0.70710678
vn -1.00000000 -5.0808874e-17 0.0000000e+0
vn 3.3328121e-17 0.99154343 -0.12977527
vn -1.00000000 0.0000000e+0 0.0000000e+0
vn 3.3328121e-17 0.99154343 -0.12977527
vn 3.3328121e-17 0.99154343 -0.12977527
vn -2.5295187e-16 -0.99154343 -0.12977527
vn -1.00000000 0.0000000e+0 0.0000000e+0
vn -2.5295187e-16 -0.99154343 -0.12977527
vn -2.5295187e-16 -0.99154343 -0.12977527
vn -2.1466108e-16 -0.70710678 -0.70710678
vn -2.1466108e-16 -0.70710678 -0.70710678
vn -1.00000000 0.0000000e+0 0.0000000e+0
vn 3.0665868e-17 -6.9097563e-16 -1.00000000
vn 3.0665868e-17 -6.9097563e-16 -1.00000000
vn -1.00000000 0.0000000e+0 0.0000000e+0
vn 2.4532695e-16 0.70710678 -0.70710678
vn 2.4532695e-16 0.70710678 -0.70710678
vn -1.00000000 0.0000000e+0 0.0000000e+0
vn 1.4443308e-16 0.98078528 -0.19509032
vn 1.00000000 -5.0808874e-17 0.0000000e+0
vn 1.4443308e-16 0.98078528 -0.19509032
vn -2.8592978e-16 -0.98078528 -0.19509032
vn 1.00000000 -5.0808874e-17 0.0000000e+0
vn -2.8592978e-16 -0.98078528 -0.19509032
vn -2.1466108e-16 -0.70710678 -0.70710678
vn -2.1466108e-16 -0.70710678 -0.70710678
vn 1.00000000 -5.0808874e-17 0.0000000e+0
vn 3.0665868e-17 -6.9097563e-16 -1.00000000
vn 3.0665868e-17 -6.9097563e-16 -1.00000000
vn 1.00000000 -5.0808874e-17 0.0000000e+0
vn 2.4532695e-16 0.70710678 -0.70710678
vn 2.4532695e-16 0.70710678 -0.70710678
vn 1.00000000 -5.0808874e-17 0.0000000e+0
g atria_antenna_2_base_2_atria_antenna_2_base_2_auv
usemtl atria_antenna_2_base_2_auv
s 1
f 1/31/2 3/33/10 4/34/14 2/32/6
f 5/30/18 6/28/23 8/27/33 7/29/28
s 2
f 2/3/7 19/20/70 23/24/85 22/26/82 21/25/79 20/21/74 1/4/3
f 3/1/11 10/18/41 11/22/45 12/26/48 13/23/51 9/19/37 4/2/15
f 6/6/24 14/10/55 18/13/68 17/17/65 16/15/62 15/11/58 8/7/34
f 7/5/29 25/9/90 26/12/94 27/16/97 28/14/100 24/11/87 5/8/19
s 3
f 1/37/1 7/39/27 8/40/32 3/36/9
f 4/35/13 6/42/22 5/41/17 2/38/5
f 5/41/21 19/48/72 2/38/8
f 8/40/36 10/44/44 3/36/12
f 9/47/40 6/42/26 4/35/16
f 10/44/43 8/40/35 15/45/59
f 10/44/42 15/45/57 16/52/61 11/51/47
f 11/51/46 16/52/60 17/60/64 12/59/50
f 12/66/49 17/65/63 18/57/67 13/58/53
f 13/58/52 18/57/66 14/50/54 9/47/38
f 14/50/56 6/42/25 9/47/39
f 19/48/71 5/41/20 24/49/88
f 19/48/69 24/49/86 28/56/98 23/55/83
f 20/46/76 7/39/31 1/37/4
f 21/53/78 26/54/93 25/43/89 20/46/73
f 22/61/81 27/62/96 26/54/92 21/53/77
f 23/55/84 28/56/99 27/64/95 22/63/80
f 25/43/91 7/39/30 20/46/75
