# Exported from Wings 3D 1.5.4
mtllib ./narrow arm.mtl
o arm
#48 vertices, 24 faces
v -1.8750000e-2 1.8750000e-2 -0.10000000
v -1.8750000e-2 1.3258252e-2 -0.11325825
v -1.8750000e-2 -1.6614831e-18 -0.11875000
v -1.8750000e-2 -1.3258252e-2 -0.11325825
v -1.8750000e-2 -1.8750000e-2 -0.10000000
v -1.8750000e-2 -1.3258252e-2 -8.6741748e-2
v -1.8750000e-2 -5.1039385e-18 -8.1250000e-2
v -1.8750000e-2 1.3258252e-2 -8.6741748e-2
v 1.8750000e-2 1.8750000e-2 -0.10000000
v 1.8750000e-2 1.3258252e-2 -0.11325825
v 1.8750000e-2 -2.8077257e-18 -0.11875000
v 1.8750000e-2 -1.3258252e-2 -0.11325825
v 1.8750000e-2 -1.8750000e-2 -0.10000000
v 1.8750000e-2 -1.3258252e-2 -8.6741748e-2
v 1.8750000e-2 -6.2501812e-18 -8.1250000e-2
v 1.8750000e-2 1.3258252e-2 -8.6741748e-2
v 1.8750000e-2 0.0000000e+0 -0.10000000
v 1.3258250e-2 1.3258252e-2 -0.10000000
v 0.0000000e+0 1.8750000e-2 -0.10000000
v -1.3258250e-2 1.3258252e-2 -0.10000000
v -1.8750000e-2 0.0000000e+0 -0.10000000
v -1.3258250e-2 -1.3258252e-2 -0.10000000
v 0.0000000e+0 -1.8750000e-2 -0.10000000
v 1.3258250e-2 -1.3258252e-2 -0.10000000
v 1.8750000e-2 0.0000000e+0 8.3266727e-17
v 1.3258250e-2 1.3258252e-2 8.3266727e-17
v 0.0000000e+0 1.8750000e-2 8.3266727e-17
v -1.3258250e-2 1.3258252e-2 8.3266727e-17
v -1.8750000e-2 0.0000000e+0 8.3266727e-17
v -1.3258250e-2 -1.3258252e-2 8.3266727e-17
v 0.0000000e+0 -1.8750000e-2 8.3266727e-17
v 1.3258250e-2 -1.3258252e-2 8.3266727e-17
v -1.8750000e-2 1.8750000e-2 8.3266727e-17
v -1.8750000e-2 1.3258252e-2 1.3258252e-2
v -1.8750000e-2 -1.6614831e-18 1.8750000e-2
v -1.8750000e-2 -1.3258252e-2 1.3258252e-2
v -1.8750000e-2 -1.8750000e-2 8.3266727e-17
v -1.8750000e-2 -1.3258252e-2 -1.3258252e-2
v -1.8750000e-2 -5.1039385e-18 -1.8750000e-2
v -1.8750000e-2 1.3258252e-2 -1.3258252e-2
v 1.8750000e-2 1.8750000e-2 8.3266727e-17
v 1.8750000e-2 1.3258252e-2 1.3258252e-2
v 1.8750000e-2 -2.8077257e-18 1.8750000e-2
v 1.8750000e-2 -1.3258252e-2 1.3258252e-2
v 1.8750000e-2 -1.8750000e-2 8.3266727e-17
v 1.8750000e-2 -1.3258252e-2 -1.3258252e-2
v 1.8750000e-2 -6.2501812e-18 -1.8750000e-2
v 1.8750000e-2 1.3258252e-2 -1.3258252e-2
vt 0.38076421 0.23296172
vt 0.38076421 0.15484014
vt 0.39197515 0.23296172
vt 0.39197515 0.15484014
vt 0.40318609 0.15484014
vt 0.40318609 0.23296172
vt 0.41439703 0.15484014
vt 0.41439703 0.23296172
vt 0.42560796 0.15484014
vt 0.42560796 0.23296172
vt 0.43681890 0.15484014
vt 0.43681890 0.23296172
vt 0.44802984 0.15484014
vt 0.44802984 0.23296172
vt 0.45924078 0.15484014
vt 0.45924078 0.23296172
vt 0.47045171 0.15484014
vt 0.47045171 0.23296172
vt 0.48218104 0.44318615
vt 0.48218104 0.45439975
vt 0.48218104 0.46561336
vt 0.48218104 0.47682696
vt 0.48218104 0.48804057
vt 0.48218104 0.49925417
vt 0.48218104 0.51046778
vt 0.48218104 0.52168138
vt 0.48218104 0.53289499
vt 0.51148361 0.44318615
vt 0.51148361 0.45439975
vt 0.51148361 0.46561336
vt 0.51148361 0.47682696
vt 0.51148361 0.48804057
vt 0.51148361 0.49925417
vt 0.51148361 0.51046778
vt 0.51148361 0.52168138
vt 0.51148361 0.53289499
vn 0.0000000e+0 1.00000000 0.0000000e+0
vn 6.8146374e-18 0.70710678 -0.70710678
vn -2.5015339e-33 -9.0127256e-17 -1.00000000
vn -6.8146374e-18 -0.70710678 -0.70710678
vn 0.0000000e+0 -1.00000000 0.0000000e+0
vn 0.0000000e+0 -0.70710678 0.70710678
vn 0.0000000e+0 -2.1029693e-16 1.00000000
vn 0.0000000e+0 0.70710678 0.70710678
vn 0.0000000e+0 1.00000000 0.0000000e+0
vn 6.8146374e-18 0.70710678 -0.70710678
vn -2.5015339e-33 -9.0127256e-17 -1.00000000
vn -6.8146374e-18 -0.70710678 -0.70710678
vn 0.0000000e+0 -1.00000000 0.0000000e+0
vn 0.0000000e+0 -0.70710678 0.70710678
vn 0.0000000e+0 -2.1029693e-16 1.00000000
vn 0.0000000e+0 0.70710678 0.70710678
vn 1.00000000 0.0000000e+0 0.0000000e+0
vn 0.70710675 0.70710681 0.0000000e+0
vn 3.0042419e-15 1.00000000 0.0000000e+0
vn -0.70710675 0.70710681 0.0000000e+0
vn -1.00000000 0.0000000e+0 0.0000000e+0
vn -0.70710675 -0.70710681 0.0000000e+0
vn 3.0042419e-15 -1.00000000 0.0000000e+0
vn 0.70710675 -0.70710681 0.0000000e+0
vn 1.00000000 0.0000000e+0 0.0000000e+0
vn 0.70710675 0.70710681 0.0000000e+0
vn 3.0042419e-15 1.00000000 0.0000000e+0
vn -0.70710675 0.70710681 0.0000000e+0
vn -1.00000000 0.0000000e+0 0.0000000e+0
vn -0.70710675 -0.70710681 0.0000000e+0
vn 3.0042419e-15 -1.00000000 0.0000000e+0
vn 0.70710675 -0.70710681 0.0000000e+0
vn 0.0000000e+0 1.00000000 0.0000000e+0
vn 6.8146374e-18 0.70710678 0.70710678
vn -2.5015339e-33 -9.0127256e-17 1.00000000
vn -6.8146374e-18 -0.70710678 0.70710678
vn 0.0000000e+0 -1.00000000 0.0000000e+0
vn 0.0000000e+0 -0.70710678 -0.70710678
vn 0.0000000e+0 -2.1029693e-16 -1.00000000
vn 0.0000000e+0 0.70710678 -0.70710678
vn 0.0000000e+0 1.00000000 0.0000000e+0
vn 6.8146374e-18 0.70710678 0.70710678
vn -2.5015339e-33 -9.0127256e-17 1.00000000
vn -6.8146374e-18 -0.70710678 0.70710678
vn 0.0000000e+0 -1.00000000 0.0000000e+0
vn 0.0000000e+0 -0.70710678 -0.70710678
vn 0.0000000e+0 -2.1029693e-16 -1.00000000
vn 0.0000000e+0 0.70710678 -0.70710678
g arm_1_auv
usemtl 1_auv
s 1
f 1/34/1 9/25/9 10/24/10 2/33/2
f 2/33/2 10/24/10 11/23/11 3/32/3
f 3/32/3 11/23/11 12/22/12 4/31/4
f 4/31/4 12/22/12 13/21/13 5/30/5
f 5/30/5 13/21/13 14/20/14 6/29/6
f 6/29/6 14/20/14 15/19/15 7/28/7
f 7/36/7 15/27/15 16/26/16 8/35/8
f 8/35/8 16/26/16 9/25/9 1/34/1
f 17/14/17 25/13/25 32/15/32 24/16/24
f 18/12/18 19/10/19 27/9/27 26/11/26
f 19/10/19 20/8/20 28/7/28 27/9/27
f 20/8/20 21/6/21 29/5/29 28/7/28
f 21/6/21 22/3/22 30/4/30 29/5/29
f 22/3/22 23/1/23 31/2/31 30/4/30
f 23/18/23 24/16/24 32/15/32 31/17/31
f 26/11/26 25/13/25 17/14/17 18/12/18
f 33/34/33 41/25/41 48/26/48 40/35/40
f 34/33/34 42/24/42 41/25/41 33/34/33
f 35/32/35 43/23/43 42/24/42 34/33/34
f 36/31/36 44/22/44 43/23/43 35/32/35
f 37/30/37 45/21/45 44/22/44 36/31/36
f 38/29/38 46/20/46 45/21/45 37/30/37
f 39/28/39 47/19/47 46/20/46 38/29/38
f 40/35/40 48/26/48 47/27/47 39/36/39
