# Exported from Wings 3D 1.5.4
mtllib ./piston head.mtl
o extender
#33 vertices, 24 faces
v -1.8750000e-2 1.8750000e-2 -3.7500000e-2
v -1.8750000e-2 1.3258252e-2 -5.0758252e-2
v -1.8750000e-2 -1.6614831e-18 -5.6250000e-2
v -1.8750000e-2 -1.3258252e-2 -5.0758252e-2
v -1.8750000e-2 -1.8750000e-2 -3.7500000e-2
v -1.8750000e-2 -1.3258252e-2 -2.4241748e-2
v -1.8750000e-2 -5.1039385e-18 -1.8750000e-2
v -1.8750000e-2 1.3258252e-2 -2.4241748e-2
v 1.8750000e-2 1.8750000e-2 -3.7500000e-2
v 1.8750000e-2 1.3258252e-2 -5.0758252e-2
v 1.8750000e-2 -2.8077257e-18 -5.6250000e-2
v 1.8750000e-2 -1.3258252e-2 -5.0758252e-2
v 1.8750000e-2 -1.8750000e-2 -3.7500000e-2
v 1.8750000e-2 -1.3258252e-2 -2.4241748e-2
v 1.8750000e-2 -6.2501812e-18 -1.8750000e-2
v 1.8750000e-2 1.3258252e-2 -2.4241748e-2
v 1.8750000e-2 0.0000000e+0 0.0000000e+0
v 1.3258250e-2 1.3258252e-2 0.0000000e+0
v 0.0000000e+0 1.8750000e-2 0.0000000e+0
v -1.3258250e-2 1.3258252e-2 0.0000000e+0
v -1.8750000e-2 0.0000000e+0 0.0000000e+0
v -1.3258250e-2 -1.3258252e-2 0.0000000e+0
v 0.0000000e+0 -1.8750000e-2 0.0000000e+0
v 1.3258250e-2 -1.3258252e-2 0.0000000e+0
v 1.8750000e-2 0.0000000e+0 -3.7500000e-2
v 1.3258250e-2 1.3258252e-2 -3.7500000e-2
v 0.0000000e+0 1.8750000e-2 -3.7500000e-2
v -1.3258250e-2 1.3258252e-2 -3.7500000e-2
v -1.8750000e-2 0.0000000e+0 -3.7500000e-2
v -1.3258250e-2 -1.3258252e-2 -3.7500000e-2
v 0.0000000e+0 -1.8750000e-2 -3.7500000e-2
v 1.3258250e-2 -1.3258252e-2 -3.7500000e-2
v 0.0000000e+0 0.0000000e+0 0.0000000e+0
vt 0.48203415 0.34672371
vt 0.48203415 0.35793731
vt 0.48203415 0.36915091
vt 0.48203415 0.38036452
vt 0.48203415 0.32429649
vt 0.48203415 0.33551010
vt 0.48203415 0.39157812
vt 0.48203415 0.40279173
vt 0.48203415 0.31308289
vt 0.48218104 0.44318615
vt 0.48218104 0.45439975
vt 0.48218104 0.46561336
vt 0.48218104 0.47682696
vt 0.48218104 0.48804057
vt 0.48218104 0.49925417
vt 0.48218104 0.51046778
vt 0.48218104 0.52168138
vt 0.48218104 0.53289499
vt 0.48233859 0.58904917
vt 0.48662985 0.59940919
vt 0.48662985 0.57868915
vt 0.49698987 0.58904917
vt 0.49698987 0.60370045
vt 0.49698987 0.57439789
vt 0.50734989 0.59940919
vt 0.50734989 0.57868915
vt 0.50997593 0.31308289
vt 0.50997593 0.32429649
vt 0.50997593 0.33551010
vt 0.50997593 0.34672371
vt 0.50997593 0.35793731
vt 0.50997593 0.36915091
vt 0.50997593 0.38036452
vt 0.50997593 0.39157812
vt 0.50997593 0.40279173
vt 0.51148361 0.44318615
vt 0.51148361 0.45439975
vt 0.51148361 0.46561336
vt 0.51148361 0.47682696
vt 0.51148361 0.48804057
vt 0.51148361 0.49925417
vt 0.51148361 0.51046778
vt 0.51148361 0.52168138
vt 0.51148361 0.53289499
vt 0.51164115 0.58904917
vn 0.0000000e+0 1.00000000 0.0000000e+0
vn 6.8146374e-18 0.70710678 -0.70710678
vn -2.5015339e-33 -9.0127256e-17 -1.00000000
vn -6.8146374e-18 -0.70710678 -0.70710678
vn 0.0000000e+0 -1.00000000 0.0000000e+0
vn 0.0000000e+0 -0.70710678 0.70710678
vn 0.0000000e+0 -2.1029693e-16 1.00000000
vn 0.0000000e+0 0.70710678 0.70710678
vn 0.0000000e+0 1.00000000 0.0000000e+0
vn 6.8146374e-18 0.70710678 -0.70710678
vn -2.5015339e-33 -9.0127256e-17 -1.00000000
vn -6.8146374e-18 -0.70710678 -0.70710678
vn 0.0000000e+0 -1.00000000 0.0000000e+0
vn 0.0000000e+0 -0.70710678 0.70710678
vn 0.0000000e+0 -2.1029693e-16 1.00000000
vn 0.0000000e+0 0.70710678 0.70710678
vn 1.00000000 0.0000000e+0 0.0000000e+0
vn 0.70710675 0.70710681 0.0000000e+0
vn 2.9741995e-15 1.00000000 0.0000000e+0
vn -0.70710675 0.70710681 0.0000000e+0
vn -1.00000000 0.0000000e+0 0.0000000e+0
vn -0.70710675 -0.70710681 0.0000000e+0
vn 2.9741995e-15 -1.00000000 0.0000000e+0
vn 0.70710675 -0.70710681 0.0000000e+0
vn 0.0000000e+0 0.0000000e+0 1.00000000
vn 1.00000000 0.0000000e+0 0.0000000e+0
vn 1.00000000 0.0000000e+0 0.0000000e+0
vn 0.0000000e+0 0.0000000e+0 1.00000000
vn 0.0000000e+0 0.0000000e+0 1.00000000
vn 0.70710675 0.70710681 0.0000000e+0
vn 0.70710675 0.70710681 0.0000000e+0
vn 0.0000000e+0 0.0000000e+0 1.00000000
vn 0.0000000e+0 0.0000000e+0 1.00000000
vn 2.9741995e-15 1.00000000 0.0000000e+0
vn 2.9741995e-15 1.00000000 0.0000000e+0
vn 0.0000000e+0 0.0000000e+0 1.00000000
vn 0.0000000e+0 0.0000000e+0 1.00000000
vn -0.70710675 0.70710681 0.0000000e+0
vn -0.70710675 0.70710681 0.0000000e+0
vn 0.0000000e+0 0.0000000e+0 1.00000000
vn 0.0000000e+0 0.0000000e+0 1.00000000
vn -1.00000000 0.0000000e+0 0.0000000e+0
vn -1.00000000 0.0000000e+0 0.0000000e+0
vn 0.0000000e+0 0.0000000e+0 1.00000000
vn 0.0000000e+0 0.0000000e+0 1.00000000
vn -0.70710675 -0.70710681 0.0000000e+0
vn -0.70710675 -0.70710681 0.0000000e+0
vn 0.0000000e+0 0.0000000e+0 1.00000000
vn 0.0000000e+0 0.0000000e+0 1.00000000
vn 2.9741995e-15 -1.00000000 0.0000000e+0
vn 2.9741995e-15 -1.00000000 0.0000000e+0
vn 0.0000000e+0 0.0000000e+0 1.00000000
vn 0.0000000e+0 0.0000000e+0 1.00000000
vn 0.70710675 -0.70710681 0.0000000e+0
vn 0.70710675 -0.70710681 0.0000000e+0
vn 0.0000000e+0 0.0000000e+0 1.00000000
vn 0.0000000e+0 0.0000000e+0 1.00000000
g extender_1_auv
usemtl 1_auv
s 1
f 1/42/1 9/16/9 10/15/10 2/41/2
f 2/41/2 10/15/10 11/14/11 3/40/3
f 3/40/3 11/14/11 12/13/12 4/39/4
f 4/39/4 12/13/12 13/12/13 5/38/5
f 5/38/5 13/12/13 14/11/14 6/37/6
f 6/37/6 14/11/14 15/10/15 7/36/7
f 7/44/7 15/18/15 16/17/16 8/43/8
f 8/43/8 16/17/16 9/16/9 1/42/1
f 17/45/29 33/22/25 24/26/57
f 18/25/32 33/22/25 17/45/28
f 19/23/36 33/22/25 18/25/33
f 20/20/40 33/22/25 19/23/37
f 21/19/44 33/22/25 20/20/41
f 22/21/48 33/22/25 21/19/45
f 23/24/52 33/22/25 22/21/49
f 24/26/56 33/22/25 23/24/53
s 2
f 17/33/27 25/4/17 26/3/18 18/32/30
f 18/32/31 26/3/18 27/2/19 19/31/34
f 19/31/35 27/2/19 28/1/20 20/30/38
f 20/30/39 28/1/20 29/6/21 21/29/42
f 21/29/43 29/6/21 30/5/22 22/28/46
f 22/28/47 30/5/22 31/9/23 23/27/50
f 23/35/51 31/8/23 32/7/24 24/34/55
f 24/34/54 32/7/24 25/4/17 17/33/26
