# Exported from Wings 3D 1.5.4
mtllib ./piston.mtl
o piston
#8 vertices, 4 faces
v -1.2500000e-2 -1.2500000e-2 -0.37500000
v -1.2500000e-2 -1.2500000e-2 0.0000000e+0
v -1.2500000e-2 1.2500000e-2 -0.37500000
v -1.2500000e-2 1.2500000e-2 0.0000000e+0
v 1.2500000e-2 -1.2500000e-2 -0.37500000
v 1.2500000e-2 -1.2500000e-2 0.0000000e+0
v 1.2500000e-2 1.2500000e-2 -0.37500000
v 1.2500000e-2 1.2500000e-2 0.0000000e+0
vt 0.59198263 0.48838082
vt 0.59198263 0.19541207
vt 0.59198263 0.48838082
vt 0.59198263 0.19541207
vt 0.59198263 0.19541207
vt 0.59198263 0.48838082
vt 0.59198263 0.19541207
vt 0.59198263 0.48838082
vt 0.61151388 0.19541207
vt 0.61151388 0.48838082
vt 0.61151388 0.48838082
vt 0.61151388 0.19541207
vt 0.61151388 0.19541207
vt 0.61151388 0.48838082
vt 0.61151388 0.19541207
vt 0.61151388 0.48838082
vn 0.0000000e+0 -1.00000000 0.0000000e+0
vn -1.00000000 0.0000000e+0 0.0000000e+0
vn 0.0000000e+0 -1.00000000 0.0000000e+0
vn -1.00000000 0.0000000e+0 0.0000000e+0
vn 0.0000000e+0 1.00000000 0.0000000e+0
vn -1.00000000 0.0000000e+0 0.0000000e+0
vn 0.0000000e+0 1.00000000 0.0000000e+0
vn -1.00000000 0.0000000e+0 0.0000000e+0
vn 0.0000000e+0 -1.00000000 0.0000000e+0
vn 1.00000000 0.0000000e+0 0.0000000e+0
vn 0.0000000e+0 -1.00000000 0.0000000e+0
vn 1.00000000 0.0000000e+0 0.0000000e+0
vn 0.0000000e+0 1.00000000 0.0000000e+0
vn 1.00000000 0.0000000e+0 0.0000000e+0
vn 0.0000000e+0 1.00000000 0.0000000e+0
vn 1.00000000 0.0000000e+0 0.0000000e+0
g piston_1_auv
usemtl 1_auv
s 1
f 2/13/4 4/5/8 3/3/6 1/11/2
f 5/8/10 7/16/14 8/9/16 6/2/12
s 2
f 1/10/1 5/1/9 6/7/11 2/15/3
f 4/4/7 8/12/15 7/14/13 3/6/5
