# Exported from Wings 3D 1.5.4
mtllib Rana_Truss_1.mtl
o Rana_Truss_1
#136 vertices, 88 faces
v 0.14375000 0.45000000 0.15312500
v 0.13437500 0.45000000 0.14375000
v 0.14375000 0.45000000 0.13437500
v 0.15312500 0.45000000 0.14375000
v 0.14375000 -0.45000000 0.15312500
v 0.13437500 -0.45000000 0.14375000
v 0.14375000 -0.45000000 0.13437500
v 0.15312500 -0.45000000 0.14375000
v -0.15625000 -0.48750000 -0.15625000
v -0.15625000 -0.48750000 0.15625000
v 0.15625000 -0.48750000 -0.15625000
v 0.15625000 -0.48750000 0.15625000
v -0.13125000 -0.48750000 0.13125000
v -0.13125000 -0.48750000 -0.13125000
v 0.13125000 -0.48750000 -0.13125000
v 0.13125000 -0.48750000 0.13125000
v -0.13125000 -0.46250000 -0.13125000
v -0.13125000 -0.46250000 0.13125000
v 0.13125000 -0.46250000 0.13125000
v 0.13125000 -0.46250000 -0.13125000
v -0.15625000 -0.46250000 0.13125000
v -0.13125000 -0.46250000 0.15625000
v -0.13125000 -0.46250000 -0.15625000
v -0.15625000 -0.46250000 -0.13125000
v 0.13125000 -0.46250000 -0.15625000
v 0.15625000 -0.46250000 -0.13125000
v 0.15625000 -0.46250000 0.13125000
v 0.13125000 -0.46250000 0.15625000
v 0.13125000 -0.45000000 0.13125000
v 0.13125000 -0.45000000 0.15625000
v 0.15625000 -0.45000000 0.15625000
v 0.15625000 -0.45000000 0.13125000
v -0.13125000 -0.45000000 -0.13125000
v -0.13125000 -0.45000000 -0.15625000
v -0.15625000 -0.45000000 -0.15625000
v -0.15625000 -0.45000000 -0.13125000
v 0.13125000 -0.45000000 -0.13125000
v 0.15625000 -0.45000000 -0.13125000
v 0.15625000 -0.45000000 -0.15625000
v 0.13125000 -0.45000000 -0.15625000
v -0.13125000 -0.45000000 0.13125000
v -0.15625000 -0.45000000 0.13125000
v -0.15625000 -0.45000000 0.15625000
v -0.13125000 -0.45000000 0.15625000
v 0.15625000 0.48750000 -0.15625000
v 0.15625000 0.48750000 0.15625000
v -0.15625000 0.48750000 -0.15625000
v -0.15625000 0.48750000 0.15625000
v 0.13125000 0.48750000 0.13125000
v 0.13125000 0.48750000 -0.13125000
v -0.13125000 0.48750000 -0.13125000
v -0.13125000 0.48750000 0.13125000
v 0.13125000 0.46250000 -0.13125000
v 0.13125000 0.46250000 0.13125000
v -0.13125000 0.46250000 0.13125000
v -0.13125000 0.46250000 -0.13125000
v 0.15625000 0.46250000 0.13125000
v 0.13125000 0.46250000 0.15625000
v 0.13125000 0.46250000 -0.15625000
v 0.15625000 0.46250000 -0.13125000
v -0.13125000 0.46250000 -0.15625000
v -0.15625000 0.46250000 -0.13125000
v -0.15625000 0.46250000 0.13125000
v -0.13125000 0.46250000 0.15625000
v -0.13125000 0.45000000 0.13125000
v -0.13125000 0.45000000 0.15625000
v -0.15625000 0.45000000 0.15625000
v -0.15625000 0.45000000 0.13125000
v 0.13125000 0.45000000 -0.13125000
v 0.13125000 0.45000000 -0.15625000
v 0.15625000 0.45000000 -0.15625000
v 0.15625000 0.45000000 -0.13125000
v -0.13125000 0.45000000 -0.13125000
v -0.15625000 0.45000000 -0.13125000
v -0.15625000 0.45000000 -0.15625000
v -0.13125000 0.45000000 -0.15625000
v 0.13125000 0.45000000 0.13125000
v 0.15625000 0.45000000 0.13125000
v 0.15625000 0.45000000 0.15625000
v 0.13125000 0.45000000 0.15625000
v 0.14375000 0.45000000 0.15312500
v 0.13437500 0.45000000 0.14375000
v 0.14375000 0.45000000 0.13437500
v 0.15312500 0.45000000 0.14375000
v 0.14375000 -0.45000000 -0.13437500
v 0.13437500 -0.45000000 -0.14375000
v 0.14375000 -0.45000000 -0.15312500
v 0.15312500 -0.45000000 -0.14375000
v 0.15312500 0.45000000 -0.14375000
v 0.14375000 0.45000000 -0.13437500
v 0.13437500 0.45000000 -0.14375000
v 0.14375000 0.45000000 -0.15312500
v 0.15312500 -0.45000000 -0.14375000
v 0.14375000 -0.45000000 -0.13437500
v 0.13437500 -0.45000000 -0.14375000
v 0.14375000 -0.45000000 -0.15312500
v 0.15312500 0.45000000 -0.14375000
v 0.14375000 0.45000000 -0.13437500
v 0.13437500 0.45000000 -0.14375000
v 0.14375000 0.45000000 -0.15312500
v -0.13437500 -0.45000000 -0.14375000
v -0.14375000 -0.45000000 -0.13437500
v -0.15312500 -0.45000000 -0.14375000
v -0.14375000 -0.45000000 -0.15312500
v -0.15312500 0.45000000 0.14375000
v -0.14375000 0.45000000 0.13437500
v -0.13437500 0.45000000 0.14375000
v -0.14375000 0.45000000 0.15312500
v -0.15312500 -0.45000000 0.14375000
v -0.14375000 -0.45000000 0.13437500
v -0.13437500 -0.45000000 0.14375000
v -0.14375000 -0.45000000 0.15312500
v -0.15312500 0.45000000 0.14375000
v -0.14375000 0.45000000 0.13437500
v -0.13437500 0.45000000 0.14375000
v -0.14375000 0.45000000 0.15312500
v 0.13437500 -0.45000000 0.14375000
v 0.14375000 -0.45000000 0.13437500
v 0.15312500 -0.45000000 0.14375000
v 0.14375000 -0.45000000 0.15312500
v -0.14375000 0.45000000 -0.15312500
v -0.13437500 0.45000000 -0.14375000
v -0.14375000 0.45000000 -0.13437500
v -0.15312500 0.45000000 -0.14375000
v -0.14375000 -0.45000000 -0.15312500
v -0.13437500 -0.45000000 -0.14375000
v -0.14375000 -0.45000000 -0.13437500
v -0.15312500 -0.45000000 -0.14375000
v -0.14375000 0.45000000 -0.15312500
v -0.13437500 0.45000000 -0.14375000
v -0.14375000 0.45000000 -0.13437500
v -0.15312500 0.45000000 -0.14375000
v -0.14375000 -0.45000000 0.13437500
v -0.13437500 -0.45000000 0.14375000
v -0.14375000 -0.45000000 0.15312500
v -0.15312500 -0.45000000 0.14375000
vt 0.63471484 2.9712956e-2
vt 0.63471484 2.9712956e-2
vt 0.63471484 4.9397996e-2
vt 0.63471484 4.9625226e-2
vt 0.63471484 8.8995305e-2
vt 0.67408492 2.9712956e-2
vt 0.67408492 2.9712956e-2
vt 0.67408492 4.9397996e-2
vt 0.67408492 4.9397996e-2
vt 0.67408492 4.9625226e-2
vt 0.67408492 8.8995305e-2
vt 0.70957378 8.0013999e-2
vt 0.70957378 0.10954156
vt 0.70957378 2.9747618e-2
vt 0.70957378 8.0013999e-2
vt 0.70957378 8.0013999e-2
vt 0.70957378 0.10954156
vt 0.70957378 0.10954156
vt 0.70957378 8.0013999e-2
vt 0.70957378 0.10954156
vt 0.70957378 2.9747618e-2
vt 0.70957378 8.0013999e-2
vt 0.70957378 0.10954156
vt 0.72841515 0.20849431
vt 0.72841515 0.20849431
vt 0.72841515 0.22815926
vt 0.72841515 0.22815926
vt 0.72841515 0.20849431
vt 0.72841515 0.22815926
vt 0.72841515 0.20849431
vt 0.72925882 9.9699038e-2
vt 0.72925882 0.10954156
vt 0.72925882 4.9432657e-2
vt 0.72925882 9.9699038e-2
vt 0.72925882 9.9699038e-2
vt 0.72925882 0.10954156
vt 0.72925882 0.10954156
vt 0.72925882 9.9699038e-2
vt 0.72925882 0.10954156
vt 0.72925882 4.9432657e-2
vt 0.72925882 9.9699038e-2
vt 0.72925882 0.10954156
vt 0.93595173 4.9432657e-2
vt 0.93595173 9.9699038e-2
vt 0.93595173 0.10954156
vt 0.93595173 9.9699038e-2
vt 0.93595173 0.10954156
vt 0.93595173 4.9432657e-2
vt 0.93595173 9.9699038e-2
vt 0.93595173 9.9699038e-2
vt 0.93595173 0.10954156
vt 0.93595173 0.10954156
vt 0.93595173 0.20849431
vt 0.93595173 0.22815926
vt 0.93595173 9.9699038e-2
vt 0.93595173 0.10954156
vt 0.93595173 0.20849431
vt 0.93595173 0.20849431
vt 0.93595173 0.22815926
vt 0.93595173 0.22815926
vt 0.94897163 0.98631571
vt 0.94897163 0.25931571
vt 0.94897163 0.98631571
vt 0.94897163 0.25931571
vt 0.94897163 0.25931571
vt 0.94897163 0.98631571
vt 0.94897163 0.98631571
vt 0.94897163 0.25931571
vt 0.94897163 0.25931571
vt 0.94945047 0.25931571
vt 0.94945047 0.98631571
vt 0.94945047 0.98631571
vt 0.94945047 0.25931571
vt 0.95563677 2.9747618e-2
vt 0.95563677 8.0013999e-2
vt 0.95563677 0.10954156
vt 0.95563677 8.0013999e-2
vt 0.95563677 0.10954156
vt 0.95563677 2.9747618e-2
vt 0.95563677 8.0013999e-2
vt 0.95563677 8.0013999e-2
vt 0.95563677 0.10954156
vt 0.95563677 0.10954156
vt 0.95563677 8.0013999e-2
vt 0.95563677 0.10954156
vt 0.95906885 0.98631571
vt 0.95906885 0.25931571
vt 0.95906885 0.98631571
vt 0.95906885 0.98631571
vt 0.95906885 0.98631571
vt 0.95906885 0.25931571
vt 0.95906885 0.98631571
vt 0.95906885 0.98631571
vt 0.95906885 0.25931571
vt 0.95906885 0.98631571
vt 0.95906885 0.98631571
vt 0.95906885 0.25931571
vt 0.95906885 0.25931571
vt 0.96868724 0.25931571
vt 0.96868724 0.98631571
vt 0.96868724 0.98631571
vt 0.96868724 0.25931571
vt 0.96916608 0.98631571
vt 0.96916608 0.25931571
vt 0.96916608 0.98631571
vt 0.96916608 0.25931571
vt 0.96916608 0.98631571
vt 0.96916608 0.98631571
vt 0.96916608 0.25931571
vt 0.96916608 0.25931571
vt 0.96916608 0.25931571
vn 1.5700925e-16 0.0000000e+0 1.00000000
vn -1.00000000 3.7023496e-16 -7.0654161e-16
vn 7.8504623e-17 0.0000000e+0 -1.00000000
vn 1.00000000 -3.7023496e-16 -7.0654161e-16
vn 1.5700925e-16 0.0000000e+0 1.00000000
vn -1.00000000 3.7023496e-16 -7.0654161e-16
vn 7.8504623e-17 0.0000000e+0 -1.00000000
vn 1.00000000 -3.7023496e-16 -7.0654161e-16
vn 0.0000000e+0 -0.30429564 0.95257764
vn -1.00000000 3.0180920e-16 0.0000000e+0
vn 0.0000000e+0 0.30429564 -0.95257764
vn 1.00000000 -3.0180920e-16 0.0000000e+0
vn 0.0000000e+0 -0.30429564 0.95257764
vn -1.00000000 3.0180920e-16 0.0000000e+0
vn 0.0000000e+0 0.30429564 -0.95257764
vn 1.00000000 -3.0180920e-16 0.0000000e+0
vn 1.00000000 0.0000000e+0 0.0000000e+0
vn -7.8504623e-16 0.0000000e+0 1.00000000
vn -1.00000000 0.0000000e+0 0.0000000e+0
vn -7.8504623e-16 0.0000000e+0 -1.00000000
vn 1.00000000 0.0000000e+0 0.0000000e+0
vn -7.8504623e-16 0.0000000e+0 1.00000000
vn -1.00000000 0.0000000e+0 0.0000000e+0
vn -7.8504623e-16 0.0000000e+0 -1.00000000
vn 0.95257764 -0.30429564 0.0000000e+0
vn 0.0000000e+0 0.0000000e+0 1.00000000
vn -0.95257764 0.30429564 0.0000000e+0
vn 0.0000000e+0 0.0000000e+0 -1.00000000
vn 0.95257764 -0.30429564 0.0000000e+0
vn 0.0000000e+0 0.0000000e+0 1.00000000
vn -0.95257764 0.30429564 0.0000000e+0
vn 0.0000000e+0 0.0000000e+0 -1.00000000
vn -1.00000000 0.0000000e+0 1.5700925e-16
vn 7.0654161e-16 3.7023496e-16 -1.00000000
vn 1.00000000 0.0000000e+0 7.8504623e-17
vn 7.0654161e-16 -3.7023496e-16 1.00000000
vn -1.00000000 0.0000000e+0 1.5700925e-16
vn 7.0654161e-16 3.7023496e-16 -1.00000000
vn 1.00000000 0.0000000e+0 7.8504623e-17
vn 7.0654161e-16 -3.7023496e-16 1.00000000
vn -0.95257764 -0.30429564 0.0000000e+0
vn 0.0000000e+0 3.0180920e-16 -1.00000000
vn 0.95257764 0.30429564 0.0000000e+0
vn 0.0000000e+0 -3.0180920e-16 1.00000000
vn -0.95257764 -0.30429564 0.0000000e+0
vn 0.0000000e+0 3.0180920e-16 -1.00000000
vn 0.95257764 0.30429564 0.0000000e+0
vn 0.0000000e+0 -3.0180920e-16 1.00000000
vn 0.0000000e+0 0.0000000e+0 -1.00000000
vn 1.00000000 0.0000000e+0 7.8504623e-16
vn 0.0000000e+0 0.0000000e+0 1.00000000
vn -1.00000000 0.0000000e+0 7.8504623e-16
vn 0.0000000e+0 0.0000000e+0 -1.00000000
vn 1.00000000 0.0000000e+0 7.8504623e-16
vn 0.0000000e+0 0.0000000e+0 1.00000000
vn -1.00000000 0.0000000e+0 7.8504623e-16
vn 0.0000000e+0 -0.30429564 -0.95257764
vn 1.00000000 0.0000000e+0 0.0000000e+0
vn 0.0000000e+0 0.30429564 0.95257764
vn -1.00000000 0.0000000e+0 0.0000000e+0
vn 0.0000000e+0 -0.30429564 -0.95257764
vn 1.00000000 0.0000000e+0 0.0000000e+0
vn 0.0000000e+0 0.30429564 0.95257764
vn -1.00000000 0.0000000e+0 0.0000000e+0
vn 0.0000000e+0 0.0000000e+0 -1.00000000
vn -4.4408921e-15 -1.00000000 0.0000000e+0
vn 0.0000000e+0 -1.00000000 -4.4408921e-15
vn -1.00000000 0.0000000e+0 0.0000000e+0
vn -4.4408921e-15 -1.00000000 0.0000000e+0
vn 0.0000000e+0 -1.00000000 4.4408921e-15
vn -1.00000000 0.0000000e+0 0.0000000e+0
vn 0.0000000e+0 0.0000000e+0 1.00000000
vn 0.0000000e+0 0.0000000e+0 -1.00000000
vn 1.00000000 0.0000000e+0 0.0000000e+0
vn 0.0000000e+0 -1.00000000 -4.4408921e-15
vn 4.4408921e-15 -1.00000000 0.0000000e+0
vn 1.00000000 0.0000000e+0 0.0000000e+0
vn 4.4408921e-15 -1.00000000 0.0000000e+0
vn 0.0000000e+0 -1.00000000 4.4408921e-15
vn 0.0000000e+0 0.0000000e+0 1.00000000
vn -4.4408921e-15 -1.00000000 0.0000000e+0
vn 0.0000000e+0 -1.00000000 4.4408921e-15
vn 1.00000000 0.0000000e+0 0.0000000e+0
vn 0.0000000e+0 0.0000000e+0 -1.00000000
vn -4.4408921e-15 -1.00000000 0.0000000e+0
vn 0.0000000e+0 -1.00000000 -4.4408921e-15
vn 1.00000000 0.0000000e+0 0.0000000e+0
vn 0.0000000e+0 0.0000000e+0 1.00000000
vn 0.0000000e+0 -1.00000000 -4.4408921e-15
vn 4.4408921e-15 -1.00000000 0.0000000e+0
vn 0.0000000e+0 0.0000000e+0 1.00000000
vn -1.00000000 0.0000000e+0 0.0000000e+0
vn 4.4408921e-15 -1.00000000 0.0000000e+0
vn 0.0000000e+0 -1.00000000 4.4408921e-15
vn -1.00000000 0.0000000e+0 0.0000000e+0
vn 0.0000000e+0 0.0000000e+0 -1.00000000
vn 1.00000000 0.0000000e+0 0.0000000e+0
vn 0.0000000e+0 0.0000000e+0 1.00000000
vn 0.0000000e+0 1.00000000 0.0000000e+0
vn 0.0000000e+0 1.00000000 0.0000000e+0
vn 1.00000000 0.0000000e+0 0.0000000e+0
vn 0.0000000e+0 0.0000000e+0 1.00000000
vn 0.0000000e+0 1.00000000 0.0000000e+0
vn 1.00000000 0.0000000e+0 0.0000000e+0
vn 0.0000000e+0 0.0000000e+0 -1.00000000
vn 0.0000000e+0 1.00000000 0.0000000e+0
vn 1.1102230e-15 0.0000000e+0 -1.00000000
vn 1.00000000 0.0000000e+0 -2.2204460e-15
vn 0.0000000e+0 1.00000000 0.0000000e+0
vn -1.00000000 0.0000000e+0 0.0000000e+0
vn 0.0000000e+0 0.0000000e+0 -1.00000000
vn 0.0000000e+0 1.00000000 0.0000000e+0
vn -1.00000000 0.0000000e+0 0.0000000e+0
vn 0.0000000e+0 0.0000000e+0 -1.00000000
vn 0.0000000e+0 0.0000000e+0 1.00000000
vn -1.00000000 0.0000000e+0 0.0000000e+0
vn 0.0000000e+0 1.00000000 0.0000000e+0
vn 0.0000000e+0 1.00000000 0.0000000e+0
vn 0.0000000e+0 0.0000000e+0 1.00000000
vn -1.00000000 0.0000000e+0 0.0000000e+0
vn 0.0000000e+0 1.00000000 0.0000000e+0
vn 1.1102230e-15 0.0000000e+0 -1.00000000
vn -1.00000000 0.0000000e+0 0.0000000e+0
vn 0.0000000e+0 1.00000000 0.0000000e+0
vn 0.0000000e+0 0.0000000e+0 1.00000000
vn 1.00000000 0.0000000e+0 -2.2204460e-15
vn 0.0000000e+0 0.0000000e+0 -1.00000000
vn 0.0000000e+0 1.00000000 0.0000000e+0
vn 1.00000000 0.0000000e+0 0.0000000e+0
vn 0.0000000e+0 1.00000000 0.0000000e+0
vn 0.0000000e+0 0.0000000e+0 1.00000000
vn -1.00000000 0.0000000e+0 0.0000000e+0
vn 0.0000000e+0 0.0000000e+0 -1.00000000
vn 0.0000000e+0 1.00000000 0.0000000e+0
vn -1.00000000 0.0000000e+0 0.0000000e+0
vn 1.00000000 0.0000000e+0 0.0000000e+0
vn 0.0000000e+0 1.00000000 0.0000000e+0
vn 0.0000000e+0 0.0000000e+0 1.00000000
vn 1.00000000 0.0000000e+0 0.0000000e+0
vn 0.0000000e+0 1.00000000 0.0000000e+0
vn 0.0000000e+0 0.0000000e+0 -1.00000000
vn 0.0000000e+0 1.00000000 0.0000000e+0
vn -1.00000000 0.0000000e+0 0.0000000e+0
vn 0.0000000e+0 0.0000000e+0 1.00000000
vn 0.0000000e+0 1.00000000 0.0000000e+0
vn -1.00000000 0.0000000e+0 0.0000000e+0
vn 0.0000000e+0 0.0000000e+0 -1.00000000
vn 0.0000000e+0 1.00000000 0.0000000e+0
vn -1.00000000 0.0000000e+0 0.0000000e+0
vn 0.0000000e+0 0.0000000e+0 1.00000000
vn 1.00000000 0.0000000e+0 0.0000000e+0
vn 0.0000000e+0 1.00000000 0.0000000e+0
vn 0.0000000e+0 0.0000000e+0 1.00000000
vn 1.00000000 0.0000000e+0 0.0000000e+0
vn 0.0000000e+0 1.00000000 0.0000000e+0
vn 0.0000000e+0 0.0000000e+0 -1.00000000
vn 0.0000000e+0 1.00000000 0.0000000e+0
vn 1.00000000 0.0000000e+0 0.0000000e+0
vn 0.0000000e+0 0.0000000e+0 1.00000000
vn 0.0000000e+0 0.0000000e+0 -1.00000000
vn 0.0000000e+0 1.00000000 0.0000000e+0
vn 1.00000000 0.0000000e+0 0.0000000e+0
vn 0.0000000e+0 0.0000000e+0 -1.00000000
vn 0.0000000e+0 1.00000000 0.0000000e+0
vn -1.00000000 0.0000000e+0 0.0000000e+0
vn 0.0000000e+0 1.00000000 0.0000000e+0
vn 0.0000000e+0 0.0000000e+0 1.00000000
vn -1.00000000 0.0000000e+0 0.0000000e+0
vn 0.0000000e+0 1.00000000 0.0000000e+0
vn 0.0000000e+0 0.0000000e+0 1.00000000
vn -1.00000000 0.0000000e+0 0.0000000e+0
vn 1.00000000 0.0000000e+0 0.0000000e+0
vn 0.0000000e+0 1.00000000 0.0000000e+0
vn 0.0000000e+0 0.0000000e+0 1.00000000
vn 0.0000000e+0 0.0000000e+0 -1.00000000
vn 1.00000000 0.0000000e+0 0.0000000e+0
vn 0.0000000e+0 1.00000000 0.0000000e+0
vn 0.0000000e+0 0.0000000e+0 -1.00000000
vn 0.0000000e+0 1.00000000 0.0000000e+0
vn -1.00000000 0.0000000e+0 0.0000000e+0
vn 0.0000000e+0 1.00000000 0.0000000e+0
vn 1.1102230e-15 0.0000000e+0 -1.00000000
vn 1.00000000 0.0000000e+0 -2.2204460e-15
vn 0.0000000e+0 1.00000000 0.0000000e+0
vn 1.1102230e-15 0.0000000e+0 -1.00000000
vn -1.00000000 0.0000000e+0 0.0000000e+0
vn 0.0000000e+0 1.00000000 0.0000000e+0
vn -1.00000000 0.0000000e+0 0.0000000e+0
vn 0.0000000e+0 0.0000000e+0 1.00000000
vn 0.0000000e+0 1.00000000 0.0000000e+0
vn 0.0000000e+0 0.0000000e+0 1.00000000
vn 1.00000000 0.0000000e+0 -2.2204460e-15
vn 0.0000000e+0 0.0000000e+0 -1.00000000
vn 4.4408921e-15 1.00000000 0.0000000e+0
vn 0.0000000e+0 1.00000000 -4.4408921e-15
vn 1.00000000 0.0000000e+0 0.0000000e+0
vn 4.4408921e-15 1.00000000 0.0000000e+0
vn 0.0000000e+0 1.00000000 4.4408921e-15
vn 1.00000000 0.0000000e+0 0.0000000e+0
vn 0.0000000e+0 0.0000000e+0 1.00000000
vn 0.0000000e+0 0.0000000e+0 -1.00000000
vn -1.00000000 0.0000000e+0 0.0000000e+0
vn 0.0000000e+0 1.00000000 -4.4408921e-15
vn -4.4408921e-15 1.00000000 0.0000000e+0
vn -1.00000000 0.0000000e+0 0.0000000e+0
vn -4.4408921e-15 1.00000000 0.0000000e+0
vn 0.0000000e+0 1.00000000 4.4408921e-15
vn 0.0000000e+0 0.0000000e+0 1.00000000
vn 4.4408921e-15 1.00000000 0.0000000e+0
vn 0.0000000e+0 1.00000000 4.4408921e-15
vn -1.00000000 0.0000000e+0 0.0000000e+0
vn 0.0000000e+0 0.0000000e+0 -1.00000000
vn 4.4408921e-15 1.00000000 0.0000000e+0
vn 0.0000000e+0 1.00000000 -4.4408921e-15
vn -1.00000000 0.0000000e+0 0.0000000e+0
vn 0.0000000e+0 0.0000000e+0 1.00000000
vn 0.0000000e+0 1.00000000 -4.4408921e-15
vn -4.4408921e-15 1.00000000 0.0000000e+0
vn 0.0000000e+0 0.0000000e+0 1.00000000
vn 1.00000000 0.0000000e+0 0.0000000e+0
vn -4.4408921e-15 1.00000000 0.0000000e+0
vn 0.0000000e+0 1.00000000 4.4408921e-15
vn 1.00000000 0.0000000e+0 0.0000000e+0
vn 0.0000000e+0 0.0000000e+0 -1.00000000
vn -1.00000000 0.0000000e+0 0.0000000e+0
vn 0.0000000e+0 0.0000000e+0 1.00000000
vn 0.0000000e+0 -1.00000000 0.0000000e+0
vn 0.0000000e+0 -1.00000000 0.0000000e+0
vn -1.00000000 0.0000000e+0 0.0000000e+0
vn 0.0000000e+0 0.0000000e+0 1.00000000
vn 0.0000000e+0 -1.00000000 0.0000000e+0
vn -1.00000000 0.0000000e+0 0.0000000e+0
vn 0.0000000e+0 0.0000000e+0 -1.00000000
vn 0.0000000e+0 -1.00000000 0.0000000e+0
vn -1.1102230e-15 0.0000000e+0 -1.00000000
vn -1.00000000 0.0000000e+0 -2.2204460e-15
vn 0.0000000e+0 -1.00000000 0.0000000e+0
vn 1.00000000 0.0000000e+0 0.0000000e+0
vn 0.0000000e+0 0.0000000e+0 -1.00000000
vn 0.0000000e+0 -1.00000000 0.0000000e+0
vn 1.00000000 0.0000000e+0 0.0000000e+0
vn 0.0000000e+0 0.0000000e+0 -1.00000000
vn 0.0000000e+0 0.0000000e+0 1.00000000
vn 1.00000000 0.0000000e+0 0.0000000e+0
vn 0.0000000e+0 -1.00000000 0.0000000e+0
vn 0.0000000e+0 -1.00000000 0.0000000e+0
vn 0.0000000e+0 0.0000000e+0 1.00000000
vn 1.00000000 0.0000000e+0 0.0000000e+0
vn 0.0000000e+0 -1.00000000 0.0000000e+0
vn -1.1102230e-15 0.0000000e+0 -1.00000000
vn 1.00000000 0.0000000e+0 0.0000000e+0
vn 0.0000000e+0 -1.00000000 0.0000000e+0
vn 0.0000000e+0 0.0000000e+0 1.00000000
vn -1.00000000 0.0000000e+0 -2.2204460e-15
vn 0.0000000e+0 0.0000000e+0 -1.00000000
vn 0.0000000e+0 -1.00000000 0.0000000e+0
vn -1.00000000 0.0000000e+0 0.0000000e+0
vn 0.0000000e+0 -1.00000000 0.0000000e+0
vn 0.0000000e+0 0.0000000e+0 1.00000000
vn 1.00000000 0.0000000e+0 0.0000000e+0
vn 0.0000000e+0 0.0000000e+0 -1.00000000
vn 0.0000000e+0 -1.00000000 0.0000000e+0
vn 1.00000000 0.0000000e+0 0.0000000e+0
vn -1.00000000 0.0000000e+0 0.0000000e+0
vn 0.0000000e+0 -1.00000000 0.0000000e+0
vn 0.0000000e+0 0.0000000e+0 1.00000000
vn -1.00000000 0.0000000e+0 0.0000000e+0
vn 0.0000000e+0 -1.00000000 0.0000000e+0
vn 0.0000000e+0 0.0000000e+0 -1.00000000
vn 0.0000000e+0 -1.00000000 0.0000000e+0
vn 1.00000000 0.0000000e+0 0.0000000e+0
vn 0.0000000e+0 0.0000000e+0 1.00000000
vn 0.0000000e+0 -1.00000000 0.0000000e+0
vn 1.00000000 0.0000000e+0 0.0000000e+0
vn 0.0000000e+0 0.0000000e+0 -1.00000000
vn 0.0000000e+0 -1.00000000 0.0000000e+0
vn 1.00000000 0.0000000e+0 0.0000000e+0
vn 0.0000000e+0 0.0000000e+0 1.00000000
vn -1.00000000 0.0000000e+0 0.0000000e+0
vn 0.0000000e+0 -1.00000000 0.0000000e+0
vn 0.0000000e+0 0.0000000e+0 1.00000000
vn -1.00000000 0.0000000e+0 0.0000000e+0
vn 0.0000000e+0 -1.00000000 0.0000000e+0
vn 0.0000000e+0 0.0000000e+0 -1.00000000
vn 0.0000000e+0 -1.00000000 0.0000000e+0
vn -1.00000000 0.0000000e+0 0.0000000e+0
vn 0.0000000e+0 0.0000000e+0 1.00000000
vn 0.0000000e+0 0.0000000e+0 -1.00000000
vn 0.0000000e+0 -1.00000000 0.0000000e+0
vn -1.00000000 0.0000000e+0 0.0000000e+0
vn 0.0000000e+0 0.0000000e+0 -1.00000000
vn 0.0000000e+0 -1.00000000 0.0000000e+0
vn 1.00000000 0.0000000e+0 0.0000000e+0
vn 0.0000000e+0 -1.00000000 0.0000000e+0
vn 0.0000000e+0 0.0000000e+0 1.00000000
vn 1.00000000 0.0000000e+0 0.0000000e+0
vn 0.0000000e+0 -1.00000000 0.0000000e+0
vn 0.0000000e+0 0.0000000e+0 1.00000000
vn 1.00000000 0.0000000e+0 0.0000000e+0
vn -1.00000000 0.0000000e+0 0.0000000e+0
vn 0.0000000e+0 -1.00000000 0.0000000e+0
vn 0.0000000e+0 0.0000000e+0 1.00000000
vn 0.0000000e+0 0.0000000e+0 -1.00000000
vn -1.00000000 0.0000000e+0 0.0000000e+0
vn 0.0000000e+0 -1.00000000 0.0000000e+0
vn 0.0000000e+0 0.0000000e+0 -1.00000000
vn 0.0000000e+0 -1.00000000 0.0000000e+0
vn 1.00000000 0.0000000e+0 0.0000000e+0
vn 0.0000000e+0 -1.00000000 0.0000000e+0
vn -1.1102230e-15 0.0000000e+0 -1.00000000
vn -1.00000000 0.0000000e+0 -2.2204460e-15
vn 0.0000000e+0 -1.00000000 0.0000000e+0
vn -1.1102230e-15 0.0000000e+0 -1.00000000
vn 1.00000000 0.0000000e+0 0.0000000e+0
vn 0.0000000e+0 -1.00000000 0.0000000e+0
vn 1.00000000 0.0000000e+0 0.0000000e+0
vn 0.0000000e+0 0.0000000e+0 1.00000000
vn 0.0000000e+0 -1.00000000 0.0000000e+0
vn 0.0000000e+0 0.0000000e+0 1.00000000
vn -1.00000000 0.0000000e+0 -2.2204460e-15
g Rana_Truss_1_Rana_Truss_1_auv
usemtl Rana_Truss_1_auv
s 1
f 1/61/1 5/69/5 8/98/8 4/86/4
f 2/95/2 6/94/6 5/106/5 1/107/1
f 3/66/3 7/64/7 6/94/6 2/95/2
f 4/86/4 8/98/8 7/111/7 3/103/3
f 10/79/70 13/48/82 16/33/94 12/14/79
f 11/79/75 15/48/89 14/33/86 9/14/67
f 14/53/87 17/54/97 18/29/104 13/28/83
f 16/53/95 19/54/110 20/29/116 15/28/92
f 18/29/103 22/28/124 28/53/142 19/54/109
f 20/53/117 25/54/134 23/29/128 17/28/100
f 21/7/122 42/9/185 41/3/182 18/2/107
f 26/7/138 38/9/174 37/3/170 20/2/119
f 30/4/148 31/10/152 32/11/155 29/5/145
f 34/11/161 35/5/164 36/4/166 33/10/157
f 46/79/198 49/48/210 52/33/222 48/14/207
f 47/80/202 75/82/304 74/51/300 62/49/264 63/35/267 68/37/282 67/18/279 48/16/205
f 51/29/219 56/28/243 53/53/226 50/54/216
f 53/6/230 69/8/287 72/3/295 60/1/259
f 56/6/248 73/8/299 76/3/308 61/1/263
f 57/6/250 78/8/313 77/3/310 54/1/235
f 64/6/271 66/8/277 65/3/274 55/1/241
f 81/71/9 85/73/13 88/97/16 84/89/12
f 82/89/10 86/91/14 85/70/13 81/71/9
f 83/100/11 87/102/15 86/91/14 82/89/10
f 84/89/12 88/97/16 87/102/15 83/100/11
f 89/63/17 93/68/21 96/91/24 92/88/20
f 90/96/18 94/94/22 93/106/21 89/108/17
f 91/67/19 95/65/23 94/94/22 90/96/18
f 92/88/20 96/91/24 95/109/23 91/105/19
f 97/102/25 101/101/29 104/90/32 100/91/28
f 98/93/26 102/87/30 101/70/29 97/71/25
f 99/100/27 103/102/31 102/87/30 98/93/26
f 100/91/28 104/90/32 103/72/31 99/73/27
f 105/61/33 109/69/37 112/98/40 108/86/36
f 106/95/34 110/94/38 109/106/37 105/107/33
f 107/66/35 111/64/39 110/94/38 106/95/34
f 108/86/36 112/98/40 111/110/39 107/103/35
f 113/71/41 117/70/45 120/91/48 116/93/44
f 114/93/42 118/87/46 117/70/45 113/71/41
f 115/100/43 119/102/47 118/87/46 114/93/42
f 116/93/44 120/91/48 119/99/47 115/100/43
f 121/63/49 125/62/53 128/91/56 124/92/52
f 122/96/50 126/94/54 125/106/53 121/108/49
f 123/67/51 127/64/55 126/94/54 122/96/50
f 124/92/52 128/91/56 127/104/55 123/105/51
f 129/71/57 133/70/61 136/87/64 132/89/60
f 130/93/58 134/91/62 133/70/61 129/71/57
f 131/100/59 135/99/63 134/91/62 130/93/58
f 132/89/60 136/87/64 135/102/63 131/100/59
s 2
f 9/79/66 14/48/85 13/33/81 10/14/69
f 12/79/78 16/48/93 15/33/90 11/14/76
f 13/53/84 18/54/105 19/29/111 16/28/96
f 15/53/91 20/54/115 17/29/98 14/28/88
f 17/26/99 24/24/130 21/57/121 18/59/106
f 19/57/112 27/59/140 26/26/137 20/24/118
f 23/7/129 34/9/162 33/3/158 17/2/101
f 28/7/143 30/9/149 29/3/146 19/2/113
f 38/10/173 39/11/177 40/5/179 37/4/169
f 42/5/184 43/4/187 44/10/190 41/11/181
f 45/74/194 50/43/213 49/40/209 46/21/197
f 48/79/206 52/48/221 51/33/218 47/14/204
f 53/27/227 60/25/258 57/58/249 54/60/234
f 54/29/231 58/30/252 64/53/270 55/54/237
f 62/6/266 74/8/302 73/3/298 56/1/247
f 66/4/276 67/10/280 68/11/283 65/5/273
f 71/83/291 70/52/288 59/50/255 61/34/261 76/36/306 75/17/303 47/15/201 45/81/193
f 78/5/312 79/4/315 80/10/318 77/11/309
s 3
f 10/15/72 12/81/80 31/83/153 30/52/150 28/50/144 22/34/125 44/36/191 43/17/189
f 17/7/102 33/9/159 36/3/167 24/2/131
f 19/7/114 29/9/147 32/3/156 27/2/141
f 20/7/120 37/9/171 40/3/180 25/2/135
f 46/75/199 79/76/316 78/45/314 57/44/251 60/41/260 72/42/296 71/23/293 45/22/196
f 47/79/203 51/48/217 50/33/214 45/14/195
f 49/29/212 54/28/233 55/53/239 52/54/224
f 54/6/236 77/8/311 80/3/320 58/1/254
f 55/6/242 65/8/275 68/3/284 63/1/269
f 59/6/257 70/8/290 69/3/286 53/1/229
f 74/10/301 75/11/305 76/5/307 73/4/297
s 4
f 18/7/108 41/9/183 44/3/192 22/2/126
f 35/78/163 34/47/160 23/46/127 25/38/133 40/39/178 39/20/175 11/19/73 9/77/65
f 46/15/200 48/81/208 67/83/281 66/52/278 64/50/272 58/34/253 80/36/319 79/17/317
f 50/29/215 53/28/225 54/53/232 49/54/211
f 55/58/240 63/60/268 62/27/265 56/25/246
f 56/53/245 61/54/262 59/29/256 53/28/228
f 70/11/289 71/5/292 72/4/294 69/10/285
s 5
f 10/84/71 43/85/188 42/56/186 21/55/123 24/31/132 36/32/168 35/13/165 9/12/68
f 11/81/74 39/83/176 38/52/172 26/50/136 27/34/139 32/36/154 31/17/151 12/15/77
f 52/29/223 55/28/238 56/53/244 51/54/220
