# Exported from Wings 3D 1.5.4
mtllib Eridani_DockingMechanism_1_Probe.mtl
o Eridani_DockingMechanism_1_Probe
#48 vertices, 37 faces
v 2.0000000e-2 0.21500000 3.5975274e-17
v 1.7320508e-2 0.21500000 1.0000000e-2
v 1.0000000e-2 0.21500000 1.7320508e-2
v 1.6294156e-18 0.21500000 2.0000000e-2
v -1.0000000e-2 0.21500000 1.7320508e-2
v -1.7320508e-2 0.21500000 1.0000000e-2
v -2.0000000e-2 0.21500000 3.8424567e-17
v -1.7320508e-2 0.21500000 -1.0000000e-2
v -1.0000000e-2 0.21500000 -1.7320508e-2
v -3.2691716e-18 0.21500000 -2.0000000e-2
v 1.0000000e-2 0.21500000 -1.7320508e-2
v 1.7320508e-2 0.21500000 -1.0000000e-2
v 2.5000000e-2 -3.4694470e-18 4.2847670e-17
v 2.1650635e-2 -3.4694470e-18 1.2500000e-2
v 1.2500000e-2 -3.4694470e-18 2.1650635e-2
v 4.7111349e-18 -3.4694470e-18 2.5000000e-2
v -1.2500000e-2 -3.4694470e-18 2.1650635e-2
v -2.1650635e-2 -3.4694470e-18 1.2500000e-2
v -2.5000000e-2 -3.4694470e-18 4.5909287e-17
v -2.1650635e-2 -3.4694470e-18 -1.2500000e-2
v -1.2500000e-2 -3.4694470e-18 -2.1650635e-2
v -1.4120991e-18 -3.4694470e-18 -2.5000000e-2
v 1.2500000e-2 -3.4694470e-18 -2.1650635e-2
v 2.1650635e-2 -3.4694470e-18 -1.2500000e-2
v 3.1826434e-2 0.25000000 1.8375000e-2
v 3.6750000e-2 0.25000000 3.9907551e-17
v 3.1826434e-2 0.25000000 -1.8375000e-2
v 1.8375000e-2 0.25000000 -3.1826434e-2
v -4.0483109e-18 0.25000000 -3.6750000e-2
v -1.8375000e-2 0.25000000 -3.1826434e-2
v -3.1826434e-2 0.25000000 -1.8375000e-2
v -3.6750000e-2 0.25000000 4.4408128e-17
v -3.1826434e-2 0.25000000 1.8375000e-2
v -1.8375000e-2 0.25000000 3.1826434e-2
v 4.9528431e-18 0.25000000 3.6750000e-2
v 1.8375000e-2 0.25000000 3.1826434e-2
v 2.1650635e-2 0.28500000 1.2500000e-2
v 2.5000000e-2 0.28500000 3.9932547e-17
v 2.1650635e-2 0.28500000 -1.2500000e-2
v 1.2500000e-2 0.28500000 -2.1650635e-2
v -2.9152311e-18 0.28500000 -2.5000000e-2
v -1.2500000e-2 0.28500000 -2.1650635e-2
v -2.1650635e-2 0.28500000 -1.2500000e-2
v -2.5000000e-2 0.28500000 4.2994164e-17
v -2.1650635e-2 0.28500000 1.2500000e-2
v -1.2500000e-2 0.28500000 2.1650635e-2
v 3.2080029e-18 0.28500000 2.5000000e-2
v 1.2500000e-2 0.28500000 2.1650635e-2
vt 0.54424117 6.9720373e-2
vt 0.54424117 6.9718702e-2
vt 0.54424117 6.9718702e-2
vt 0.54424117 6.9720373e-2
vt 0.54424117 6.9720373e-2
vt 0.54455285 9.3512718e-2
vt 0.54530908 9.0690419e-2
vt 0.54530908 9.6335016e-2
vt 0.54611710 1.1979243e-2
vt 0.54611710 1.1979243e-2
vt 0.54611710 1.1979243e-2
vt 0.54611710 7.7819784e-2
vt 0.54611710 7.7819784e-2
vt 0.54611710 1.1979243e-2
vt 0.54611710 7.7819784e-2
vt 0.54611710 7.7819784e-2
vt 0.54691536 6.1136023e-2
vt 0.54691536 6.1136023e-2
vt 0.54691536 6.1136023e-2
vt 0.54691536 6.1136023e-2
vt 0.54691536 6.1150580e-2
vt 0.54691536 6.1150580e-2
vt 0.54691536 6.1150580e-2
vt 0.54737515 9.8401082e-2
vt 0.54737515 8.8624353e-2
vt 0.54796086 6.9718702e-2
vt 0.54796086 6.9718702e-2
vt 0.54796086 6.9720373e-2
vt 0.54796086 6.9720373e-2
vt 0.54796086 6.9720373e-2
vt 0.54864750 7.7819784e-2
vt 0.54864750 1.1979243e-2
vt 0.54864750 1.1979243e-2
vt 0.54864750 1.1979243e-2
vt 0.54864750 7.7819784e-2
vt 0.54864750 1.1979243e-2
vt 0.54864750 7.7819784e-2
vt 0.54864750 7.7819784e-2
vt 0.54893969 6.1136023e-2
vt 0.54893969 6.1136023e-2
vt 0.54893969 6.1136023e-2
vt 0.54893969 6.1136023e-2
vt 0.54893969 6.1150580e-2
vt 0.54893969 6.1150580e-2
vt 0.54893969 6.1150580e-2
vt 0.55019744 8.7868121e-2
vt 0.55019744 9.9157314e-2
vt 0.55127717 6.1136023e-2
vt 0.55127717 6.1136023e-2
vt 0.55127717 6.1136023e-2
vt 0.55127717 6.1136023e-2
vt 0.55127717 6.1150580e-2
vt 0.55127717 6.1150580e-2
vt 0.55156936 1.1979243e-2
vt 0.55156936 1.1979243e-2
vt 0.55156936 1.1979243e-2
vt 0.55156936 7.7819784e-2
vt 0.55156936 7.7819784e-2
vt 0.55156936 1.1979243e-2
vt 0.55156936 7.7819784e-2
vt 0.55156936 7.7819784e-2
vt 0.55225600 6.9720373e-2
vt 0.55225600 6.9720373e-2
vt 0.55225600 6.9718702e-2
vt 0.55225600 6.9718702e-2
vt 0.55225600 6.9720373e-2
vt 0.55225600 6.9720373e-2
vt 0.55301974 8.8624353e-2
vt 0.55301974 9.8401082e-2
vt 0.55330150 6.1136023e-2
vt 0.55330150 6.1136023e-2
vt 0.55330150 6.1136023e-2
vt 0.55330150 6.1136023e-2
vt 0.55330150 6.1150580e-2
vt 0.55330150 6.1150580e-2
vt 0.55409976 1.1979243e-2
vt 0.55409976 1.1979243e-2
vt 0.55409976 7.7819784e-2
vt 0.55409976 1.1979243e-2
vt 0.55409976 1.1979243e-2
vt 0.55409976 7.7819784e-2
vt 0.55409976 7.7819784e-2
vt 0.55409976 7.7819784e-2
vt 0.55508581 9.0690419e-2
vt 0.55508581 9.6335016e-2
vt 0.55584204 9.3512718e-2
vt 0.55597569 6.9720373e-2
vt 0.55597569 6.9718702e-2
vt 0.55597569 6.9718702e-2
vt 0.55597569 6.9720373e-2
vt 0.55597569 6.9720373e-2
vn 0.99972969 2.3249528e-2 -2.2987333e-16
vn 0.86579131 2.3249528e-2 0.49986485
vn 0.49986485 2.3249528e-2 0.86579131
vn 2.8734166e-17 2.3249528e-2 0.99972969
vn -0.49986485 2.3249528e-2 0.86579131
vn -0.86579131 2.3249528e-2 0.49986485
vn -0.99972969 2.3249528e-2 2.0113916e-16
vn -0.86579131 2.3249528e-2 -0.49986485
vn -0.49986485 2.3249528e-2 -0.86579131
vn -4.5974666e-16 2.3249528e-2 -0.99972969
vn 0.49986485 2.3249528e-2 -0.86579131
vn 0.86579131 2.3249528e-2 -0.49986485
vn 0.99972969 2.3249528e-2 -2.2987333e-16
vn 0.99972969 2.3249528e-2 -2.2987333e-16
vn 0.90202516 -0.43168347 -8.5664321e-17
vn 0.90202516 -0.43168347 -8.5664321e-17
vn 0.86579131 2.3249528e-2 0.49986485
vn 0.86579131 2.3249528e-2 0.49986485
vn 0.78117670 -0.43168347 0.45101258
vn 0.78117670 -0.43168347 0.45101258
vn 0.49986485 2.3249528e-2 0.86579131
vn 0.49986485 2.3249528e-2 0.86579131
vn 0.45101258 -0.43168347 0.78117670
vn 0.45101258 -0.43168347 0.78117670
vn 2.8734166e-17 2.3249528e-2 0.99972969
vn 2.8734166e-17 2.3249528e-2 0.99972969
vn -7.1386934e-17 -0.43168347 0.90202516
vn -7.1386934e-17 -0.43168347 0.90202516
vn -0.49986485 2.3249528e-2 0.86579131
vn -0.49986485 2.3249528e-2 0.86579131
vn -0.45101258 -0.43168347 0.78117670
vn -0.45101258 -0.43168347 0.78117670
vn -0.86579131 2.3249528e-2 0.49986485
vn -0.86579131 2.3249528e-2 0.49986485
vn -0.78117670 -0.43168347 0.45101258
vn -0.78117670 -0.43168347 0.45101258
vn -0.99972969 2.3249528e-2 2.0113916e-16
vn -0.99972969 2.3249528e-2 2.0113916e-16
vn -0.90202516 -0.43168347 1.5705126e-16
vn -0.90202516 -0.43168347 1.5705126e-16
vn -0.86579131 2.3249528e-2 -0.49986485
vn -0.86579131 2.3249528e-2 -0.49986485
vn -0.78117670 -0.43168347 -0.45101258
vn -0.78117670 -0.43168347 -0.45101258
vn -0.49986485 2.3249528e-2 -0.86579131
vn -0.49986485 2.3249528e-2 -0.86579131
vn -0.45101258 -0.43168347 -0.78117670
vn -0.45101258 -0.43168347 -0.78117670
vn -4.5974666e-16 2.3249528e-2 -0.99972969
vn -4.5974666e-16 2.3249528e-2 -0.99972969
vn -3.4265728e-16 -0.43168347 -0.90202516
vn -3.4265728e-16 -0.43168347 -0.90202516
vn 0.49986485 2.3249528e-2 -0.86579131
vn 0.49986485 2.3249528e-2 -0.86579131
vn 0.45101258 -0.43168347 -0.78117670
vn 0.45101258 -0.43168347 -0.78117670
vn 0.86579131 2.3249528e-2 -0.49986485
vn 0.86579131 2.3249528e-2 -0.49986485
vn 0.78117670 -0.43168347 -0.45101258
vn 0.78117670 -0.43168347 -0.45101258
vn 0.78117670 -0.43168347 0.45101258
vn 0.78117670 -0.43168347 0.45101258
vn 0.82099553 0.31825848 0.47400199
vn 0.82099553 0.31825848 0.47400199
vn 0.90202516 -0.43168347 -8.5664321e-17
vn 0.90202516 -0.43168347 -8.5664321e-17
vn 0.94800398 0.31825848 -1.4318519e-17
vn 0.94800398 0.31825848 -1.4318519e-17
vn 0.78117670 -0.43168347 -0.45101258
vn 0.78117670 -0.43168347 -0.45101258
vn 0.82099553 0.31825848 -0.47400199
vn 0.82099553 0.31825848 -0.47400199
vn 0.45101258 -0.43168347 -0.78117670
vn 0.45101258 -0.43168347 -0.78117670
vn 0.47400199 0.31825848 -0.82099553
vn 0.47400199 0.31825848 -0.82099553
vn -3.4265728e-16 -0.43168347 -0.90202516
vn -3.4265728e-16 -0.43168347 -0.90202516
vn -2.8637037e-16 0.31825848 -0.94800398
vn -2.8637037e-16 0.31825848 -0.94800398
vn -0.45101258 -0.43168347 -0.78117670
vn -0.45101258 -0.43168347 -0.78117670
vn -0.47400199 0.31825848 -0.82099553
vn -0.47400199 0.31825848 -0.82099553
vn -0.78117670 -0.43168347 -0.45101258
vn -0.78117670 -0.43168347 -0.45101258
vn -0.82099553 0.31825848 -0.47400199
vn -0.82099553 0.31825848 -0.47400199
vn -0.90202516 -0.43168347 1.5705126e-16
vn -0.90202516 -0.43168347 1.5705126e-16
vn -0.94800398 0.31825848 1.7182222e-16
vn -0.94800398 0.31825848 1.7182222e-16
vn -0.78117670 -0.43168347 0.45101258
vn -0.78117670 -0.43168347 0.45101258
vn -0.82099553 0.31825848 0.47400199
vn -0.82099553 0.31825848 0.47400199
vn -0.45101258 -0.43168347 0.78117670
vn -0.45101258 -0.43168347 0.78117670
vn -0.47400199 0.31825848 0.82099553
vn -0.47400199 0.31825848 0.82099553
vn -7.1386934e-17 -0.43168347 0.90202516
vn -7.1386934e-17 -0.43168347 0.90202516
vn -1.0022963e-16 0.31825848 0.94800398
vn -1.0022963e-16 0.31825848 0.94800398
vn 0.45101258 -0.43168347 0.78117670
vn 0.45101258 -0.43168347 0.78117670
vn 0.47400199 0.31825848 0.82099553
vn 0.47400199 0.31825848 0.82099553
vn 0.0000000e+0 1.00000000 4.6259293e-16
vn 0.82099553 0.31825848 0.47400199
vn 0.82099553 0.31825848 0.47400199
vn 0.0000000e+0 1.00000000 4.6259293e-16
vn 0.94800398 0.31825848 -1.4318519e-17
vn 0.94800398 0.31825848 -1.4318519e-17
vn 0.0000000e+0 1.00000000 4.6259293e-16
vn 0.82099553 0.31825848 -0.47400199
vn 0.82099553 0.31825848 -0.47400199
vn 0.0000000e+0 1.00000000 4.6259293e-16
vn 0.47400199 0.31825848 -0.82099553
vn 0.47400199 0.31825848 -0.82099553
vn 0.0000000e+0 1.00000000 4.6259293e-16
vn -2.8637037e-16 0.31825848 -0.94800398
vn -2.8637037e-16 0.31825848 -0.94800398
vn 0.0000000e+0 1.00000000 4.6259293e-16
vn -0.47400199 0.31825848 -0.82099553
vn -0.47400199 0.31825848 -0.82099553
vn 0.0000000e+0 1.00000000 4.6259293e-16
vn -0.82099553 0.31825848 -0.47400199
vn -0.82099553 0.31825848 -0.47400199
vn 0.0000000e+0 1.00000000 4.6259293e-16
vn -0.94800398 0.31825848 1.7182222e-16
vn -0.94800398 0.31825848 1.7182222e-16
vn 0.0000000e+0 1.00000000 4.6259293e-16
vn -0.82099553 0.31825848 0.47400199
vn -0.82099553 0.31825848 0.47400199
vn 0.0000000e+0 1.00000000 4.6259293e-16
vn -0.47400199 0.31825848 0.82099553
vn -0.47400199 0.31825848 0.82099553
vn 0.0000000e+0 1.00000000 4.6259293e-16
vn -1.0022963e-16 0.31825848 0.94800398
vn -1.0022963e-16 0.31825848 0.94800398
vn 0.0000000e+0 1.00000000 4.6259293e-16
vn 0.47400199 0.31825848 0.82099553
vn 0.47400199 0.31825848 0.82099553
g Eridani_DockingMechanism_1_Probe_Eridani_DockingMechanism_1_Probe_auv
usemtl Eridani_DockingMechanism_1_Probe_auv
s 1
f 1/20/13 13/14/1 24/36/12 12/42/57
f 2/49/18 14/55/2 13/76/1 1/70/14
f 3/40/22 15/32/3 14/55/2 2/49/17
f 4/18/26 16/9/4 15/32/3 3/40/21
f 5/50/30 17/56/5 16/80/4 4/72/25
f 6/41/34 18/34/6 17/56/5 5/50/29
f 7/19/38 19/11/7 18/34/6 6/41/33
f 8/48/42 20/54/8 19/77/7 7/71/37
f 9/39/46 21/33/9 20/54/8 8/48/41
f 10/17/50 22/10/10 21/33/9 9/39/45
f 11/51/54 23/59/11 22/79/10 10/73/49
f 12/42/58 24/36/12 23/59/11 11/51/53
f 38/86/112 39/85/115 40/69/118 41/47/121 42/24/124 43/8/127 44/6/130 45/7/133 46/25/136 47/46/139 48/68/142 37/84/109
s 2
f 25/66/64 37/60/111 48/37/144 36/29/108
f 26/90/67 38/83/113 37/60/110 25/66/63
f 27/29/71 39/35/116 38/13/114 26/4/68
f 28/63/75 40/58/119 39/35/117 27/29/72
f 29/90/79 41/81/122 40/58/120 28/63/76
f 30/28/83 42/31/125 41/12/123 29/1/80
f 31/62/87 43/57/128 42/31/126 30/28/84
f 32/87/91 44/78/131 43/57/129 31/62/88
f 33/30/95 45/38/134 44/16/132 32/5/92
f 34/67/99 46/61/137 45/38/135 33/30/96
f 35/91/103 47/82/140 46/61/138 34/67/100
f 36/29/107 48/37/143 47/15/141 35/4/104
s 3
f 1/75/15 26/89/65 25/65/61 2/53/19
f 2/53/20 25/65/62 36/27/106 3/45/24
f 3/45/23 36/27/105 35/3/102 4/23/28
f 4/75/27 35/89/101 34/65/98 5/53/32
f 5/53/31 34/65/97 33/27/94 6/43/36
f 6/43/35 33/27/93 32/3/90 7/21/40
f 7/75/39 32/89/89 31/65/86 8/53/44
f 8/53/43 31/65/85 30/27/82 9/45/48
f 9/45/47 30/27/81 29/3/78 10/23/52
f 10/74/51 29/88/77 28/64/74 11/52/56
f 11/52/55 28/64/73 27/26/70 12/44/60
f 12/44/59 27/26/69 26/2/66 1/22/16
