# Exported from Wings 3D 1.5.4
mtllib cursa_panel_2.mtl
o cursa_panel_2
#12 vertices, 10 faces
v -0.75000000 -9.2750000e-2 -0.49375000
v -0.75000000 -6.2500000e-3 6.2500000e-3
v -0.75000000 -8.0250000e-2 -0.49375000
v -0.75000000 6.2500000e-3 6.2500000e-3
v 0.75000000 -9.2750000e-2 -0.49375000
v 0.75000000 -6.2500000e-3 6.2500000e-3
v 0.75000000 -8.0250000e-2 -0.49375000
v 0.75000000 6.2500000e-3 6.2500000e-3
v -0.75000000 -6.2500000e-3 -0.99375000
v -0.75000000 6.2500000e-3 -0.99375000
v 0.75000000 -6.2500000e-3 -0.99375000
v 0.75000000 6.2500000e-3 -0.99375000
vt 3.7500000e-2 0.20756178
vt 3.7500000e-2 0.40287428
vt 3.7500000e-2 0.43958718
vt 3.7500000e-2 0.90573586
vt 3.7500000e-2 0.91550148
vt 3.7500000e-2 0.95227226
vt 3.7500000e-2 0.96203788
vt 3.7500000e-2 0.63489968
vt 0.23281250 0.95227226
vt 0.23281250 0.96203788
vt 0.62343750 0.20756178
vt 0.62343750 0.40287428
vt 0.62343750 0.43958718
vt 0.62343750 0.63489968
vt 0.62343750 0.90573586
vt 0.62343750 0.91550148
vn 0.0000000e+0 -0.98536324 0.17046784
vn -1.00000000 0.0000000e+0 0.0000000e+0
vn 0.0000000e+0 -0.98536324 -0.17046784
vn -1.00000000 0.0000000e+0 0.0000000e+0
vn 0.0000000e+0 -0.98536324 0.17046784
vn 0.0000000e+0 0.0000000e+0 1.00000000
vn -1.00000000 0.0000000e+0 0.0000000e+0
vn 0.0000000e+0 0.98536324 -0.17046784
vn -1.00000000 0.0000000e+0 0.0000000e+0
vn 0.0000000e+0 0.98536324 0.17046784
vn -1.00000000 0.0000000e+0 0.0000000e+0
vn 0.0000000e+0 0.98536324 -0.17046784
vn 0.0000000e+0 0.0000000e+0 1.00000000
vn -1.00000000 0.0000000e+0 0.0000000e+0
vn 0.0000000e+0 -0.98536324 0.17046784
vn 1.00000000 0.0000000e+0 0.0000000e+0
vn 0.0000000e+0 -0.98536324 -0.17046784
vn 1.00000000 0.0000000e+0 0.0000000e+0
vn 0.0000000e+0 -0.98536324 0.17046784
vn 0.0000000e+0 0.0000000e+0 1.00000000
vn 1.00000000 0.0000000e+0 0.0000000e+0
vn 0.0000000e+0 0.98536324 -0.17046784
vn 1.00000000 0.0000000e+0 0.0000000e+0
vn 0.0000000e+0 0.98536324 0.17046784
vn 1.00000000 0.0000000e+0 0.0000000e+0
vn 0.0000000e+0 0.98536324 -0.17046784
vn 0.0000000e+0 0.0000000e+0 1.00000000
vn 1.00000000 0.0000000e+0 0.0000000e+0
vn 0.0000000e+0 -0.98536324 -0.17046784
vn 0.0000000e+0 0.0000000e+0 -1.00000000
vn -1.00000000 0.0000000e+0 0.0000000e+0
vn 0.0000000e+0 0.98536324 0.17046784
vn 0.0000000e+0 0.0000000e+0 -1.00000000
vn -1.00000000 0.0000000e+0 0.0000000e+0
vn 0.0000000e+0 -0.98536324 -0.17046784
vn 0.0000000e+0 0.0000000e+0 -1.00000000
vn 1.00000000 0.0000000e+0 0.0000000e+0
vn 0.0000000e+0 0.98536324 0.17046784
vn 0.0000000e+0 0.0000000e+0 -1.00000000
vn 1.00000000 0.0000000e+0 0.0000000e+0
g cursa_panel_2_cursa_panel_2_auv
usemtl cursa_panel_2_auv
s 1
f 1/14/3 9/13/29 11/3/35 5/8/17
f 2/4/6 6/15/20 8/16/27 4/5/13
f 7/1/24 12/2/38 10/12/32 3/11/10
s 2
f 1/14/1 5/8/15 6/3/19 2/13/5
f 3/7/11 10/10/34 9/9/31 1/6/4
f 4/12/12 8/2/26 7/1/22 3/11/8
f 5/9/18 11/6/37 12/7/40 7/10/25
s 3
f 2/9/7 4/10/14 3/7/9 1/6/2
f 5/9/16 7/10/23 8/7/28 6/6/21
f 10/5/33 12/16/39 11/15/36 9/4/30
