# Exported from Wings 3D 1.5.4
mtllib ./big_bar.mtl
o 1
#22 vertices, 22 faces
v -0.37500000 1.2500000e-2 0.0000000e+0
v -0.37500000 -1.2500000e-2 0.0000000e+0
v -0.40000000 1.2500000e-2 0.0000000e+0
v -0.40000000 -1.2500000e-2 0.0000000e+0
v -0.37500000 1.2500000e-2 -0.33964466
v -0.37500000 -1.2500000e-2 -0.33964466
v -1.2551145e-2 -1.2500000e-2 -1.2500000e-2
v -1.2551145e-2 1.2500000e-2 -1.2500000e-2
v -0.37500000 1.2500000e-2 0.33964466
v -0.37500000 -1.2500000e-2 0.33964466
v -3.5355339e-2 -1.2500000e-2 6.9388939e-18
v -3.5355339e-2 1.2500000e-2 6.9388939e-18
v -1.2551145e-2 -1.2500000e-2 1.2500000e-2
v -1.2551145e-2 1.2500000e-2 1.2500000e-2
v -0.40000000 1.2500000e-2 -0.40000000
v -0.40000000 -1.2500000e-2 -0.40000000
v -0.40000000 -1.2500000e-2 0.40000000
v -0.40000000 1.2500000e-2 0.40000000
v 1.2500000e-2 1.2500000e-2 1.2500532e-2
v 1.2500000e-2 -1.2500000e-2 -1.2500532e-2
v 1.2500000e-2 1.2500000e-2 -1.2500532e-2
v 1.2500000e-2 -1.2500000e-2 1.2500532e-2
vt 0.71566023 0.76365415
vt 0.71566023 0.76365415
vt 0.71566023 0.76365415
vt 0.71566023 0.97780089
vt 0.71566023 0.97780089
vt 0.71566023 0.76365415
vt 0.72541626 0.76650093
vt 0.72541626 0.76650093
vt 0.72541626 0.76650093
vt 0.72541626 0.76650093
vt 0.72542865 0.95421344
vt 0.72542865 0.95421344
vt 0.73544479 0.66516171
vt 0.73544479 0.82148130
vt 0.73544479 0.82148130
vt 0.73544479 0.97780089
vt 0.73544479 0.66516171
vt 0.74521477 0.95421409
vt 0.74521477 0.68874851
vt 0.74521477 0.68874851
vt 0.74521477 0.82148130
vt 0.74521477 0.82148130
vt 0.74521477 0.95421409
vt 0.75448806 0.66516171
vt 0.75448806 0.82148130
vt 0.75448806 0.97780089
vt 0.76425804 0.66516171
vt 0.76425804 0.82148130
vt 0.76425804 0.97780089
vt 0.77624010 0.84506810
vt 0.77624010 0.97780089
vt 0.77624010 0.71233532
vt 0.78601007 0.71233532
vt 0.78601007 0.84506810
vt 0.78601007 0.97780089
vt 0.79582582 0.75386419
vt 0.79582582 0.96801093
vt 0.79582582 0.97780089
vt 0.79582582 0.75386419
vt 0.79582582 0.96801093
vt 0.80559579 0.75386419
vt 0.80559579 0.96801093
vt 0.80559579 0.97780089
vt 0.80559579 0.97780089
vt 0.80559579 0.75386419
vt 0.80559579 0.96801093
vt 0.81546190 0.79008838
vt 0.81546190 0.79008838
vt 0.81546190 0.97780089
vt 0.81546190 0.97780089
vt 0.81557486 0.66697437
vt 0.81557507 0.67676433
vt 0.82046006 0.68567619
vt 0.82523188 0.79008838
vt 0.82523188 0.79008838
vt 0.82523188 0.97780089
vt 0.82523188 0.97780089
vt 0.82534504 0.67676433
vt 0.82534525 0.66697437
vn 1.00000000 0.0000000e+0 0.0000000e+0
vn 1.00000000 0.0000000e+0 0.0000000e+0
vn 0.0000000e+0 1.00000000 0.0000000e+0
vn 0.0000000e+0 1.00000000 0.0000000e+0
vn 0.0000000e+0 -1.00000000 0.0000000e+0
vn 1.00000000 0.0000000e+0 0.0000000e+0
vn 1.00000000 0.0000000e+0 0.0000000e+0
vn 0.0000000e+0 -1.00000000 0.0000000e+0
vn -1.00000000 0.0000000e+0 0.0000000e+0
vn 0.0000000e+0 1.00000000 0.0000000e+0
vn -1.00000000 0.0000000e+0 0.0000000e+0
vn 0.0000000e+0 1.00000000 0.0000000e+0
vn -1.00000000 0.0000000e+0 0.0000000e+0
vn 0.0000000e+0 -1.00000000 0.0000000e+0
vn -1.00000000 0.0000000e+0 0.0000000e+0
vn 0.0000000e+0 -1.00000000 0.0000000e+0
vn -0.70710678 0.0000000e+0 0.70710678
vn 1.00000000 0.0000000e+0 0.0000000e+0
vn 0.0000000e+0 1.00000000 0.0000000e+0
vn 0.0000000e+0 1.00000000 0.0000000e+0
vn -0.70710678 0.0000000e+0 0.70710678
vn 1.00000000 0.0000000e+0 0.0000000e+0
vn 0.0000000e+0 -1.00000000 0.0000000e+0
vn 0.0000000e+0 -1.00000000 0.0000000e+0
vn 0.0000000e+0 -1.00000000 0.0000000e+0
vn 0.0000000e+0 -1.00000000 0.0000000e+0
vn -2.1223473e-5 0.0000000e+0 -1.00000000
vn 0.0000000e+0 -1.00000000 0.0000000e+0
vn 0.70715345 0.0000000e+0 -0.70706011
vn 0.0000000e+0 1.00000000 0.0000000e+0
vn 0.0000000e+0 1.00000000 0.0000000e+0
vn -2.1223473e-5 0.0000000e+0 -1.00000000
vn 0.70715345 0.0000000e+0 -0.70706011
vn 0.0000000e+0 1.00000000 0.0000000e+0
vn -0.70710678 0.0000000e+0 -0.70710678
vn 0.0000000e+0 1.00000000 0.0000000e+0
vn 1.00000000 0.0000000e+0 0.0000000e+0
vn 0.0000000e+0 1.00000000 0.0000000e+0
vn -0.70710678 0.0000000e+0 -0.70710678
vn 0.0000000e+0 -1.00000000 0.0000000e+0
vn 1.00000000 0.0000000e+0 0.0000000e+0
vn 0.0000000e+0 -1.00000000 0.0000000e+0
vn -0.70710678 0.0000000e+0 0.70710678
vn -0.70710678 0.0000000e+0 -0.70710678
vn 0.0000000e+0 -1.00000000 0.0000000e+0
vn 0.0000000e+0 -1.00000000 0.0000000e+0
vn 0.0000000e+0 -1.00000000 0.0000000e+0
vn -0.70710678 0.0000000e+0 0.70710678
vn -0.70710678 0.0000000e+0 -0.70710678
vn 0.0000000e+0 1.00000000 0.0000000e+0
vn 0.0000000e+0 1.00000000 0.0000000e+0
vn 0.0000000e+0 1.00000000 0.0000000e+0
vn 0.0000000e+0 -1.00000000 0.0000000e+0
vn 0.0000000e+0 -1.00000000 0.0000000e+0
vn -2.1223473e-5 0.0000000e+0 1.00000000
vn 0.70715345 0.0000000e+0 0.70706011
vn 0.0000000e+0 -1.00000000 0.0000000e+0
vn 0.0000000e+0 1.00000000 0.0000000e+0
vn 0.0000000e+0 1.00000000 0.0000000e+0
vn -2.1223473e-5 0.0000000e+0 1.00000000
vn 0.0000000e+0 1.00000000 0.0000000e+0
vn 0.70715345 0.0000000e+0 0.70706011
vn 0.0000000e+0 1.00000000 0.0000000e+0
vn 0.70715345 0.0000000e+0 -0.70706011
vn -1.00000000 0.0000000e+0 0.0000000e+0
vn 0.0000000e+0 1.00000000 0.0000000e+0
vn 0.0000000e+0 -1.00000000 0.0000000e+0
vn 0.70715345 0.0000000e+0 -0.70706011
vn -1.00000000 0.0000000e+0 0.0000000e+0
vn 0.0000000e+0 -1.00000000 0.0000000e+0
vn -1.00000000 0.0000000e+0 0.0000000e+0
vn 0.0000000e+0 -1.00000000 0.0000000e+0
vn 0.70715345 0.0000000e+0 0.70706011
vn 0.0000000e+0 -1.00000000 0.0000000e+0
vn -1.00000000 0.0000000e+0 0.0000000e+0
vn 0.0000000e+0 1.00000000 0.0000000e+0
vn 0.70715345 0.0000000e+0 0.70706011
vn 0.0000000e+0 1.00000000 0.0000000e+0
vn -2.1223473e-5 0.0000000e+0 1.00000000
vn 0.0000000e+0 1.00000000 0.0000000e+0
vn 0.0000000e+0 -1.00000000 0.0000000e+0
vn -2.1223473e-5 0.0000000e+0 -1.00000000
vn 0.0000000e+0 1.00000000 0.0000000e+0
vn -2.1223473e-5 0.0000000e+0 -1.00000000
vn 0.0000000e+0 -1.00000000 0.0000000e+0
vn -2.1223473e-5 0.0000000e+0 1.00000000
g 1_1_auv
usemtl 1_auv
s 1
f 7/42/29 16/45/68 15/39/64 8/37/33
f 11/54/43 12/47/48 5/50/17 6/57/21
f 18/36/77 17/41/73 13/46/56 14/40/62
s 2
f 3/28/11 15/29/65 16/26/69 4/25/15
f 4/25/13 17/24/71 18/27/75 3/28/9
f 11/55/44 10/56/39 9/49/35 12/48/49
s 3
f 1/34/2 9/35/37 10/31/41 2/30/7
f 2/30/6 6/32/22 5/33/18 1/34/1
s 4
f 1/22/3 5/23/19 15/16/63 3/15/10
f 2/21/5 10/19/40 17/17/72 4/14/14
f 3/15/12 18/13/78 9/20/38 1/22/4
f 4/14/16 16/16/70 6/18/24 2/21/8
f 6/12/23 16/4/67 7/3/28 11/9/46
f 7/58/25 13/52/53 11/53/45
f 7/58/26 20/59/81 22/51/85 13/52/54
f 8/37/32 21/38/84 20/43/82 7/42/27
f 11/8/47 13/2/57 17/4/74 10/12/42
f 12/7/52 8/1/34 15/5/66 5/11/20
f 12/53/50 14/52/58 8/58/30
f 13/46/55 22/44/86 19/38/79 14/40/60
f 14/6/59 12/10/51 9/12/36 18/4/76
f 14/52/61 19/51/80 21/59/83 8/58/31
