# Exported from Wings 3D 1.5.4
mtllib ./depth mask.mtl
o depth_mask
#8 vertices, 2 faces
v -0.55000000 -0.52500000 -0.42500000
v -0.55000000 -0.52500000 0.42500000
v -0.55000000 0.52500000 0.42500000
v -0.55000000 0.52500000 -0.42500000
v -0.55000000 0.0000000e+0 -0.42500000
v -0.55000000 0.0000000e+0 0.42500000
v -0.55000000 0.52500000 0.0000000e+0
v -0.55000000 -0.52500000 0.0000000e+0
vn 1.00000000 0.0000000e+0 0.0000000e+0
vn -1.00000000 0.0000000e+0 0.0000000e+0
vn 1.00000000 0.0000000e+0 0.0000000e+0
vn -1.00000000 0.0000000e+0 0.0000000e+0
vn 1.00000000 0.0000000e+0 0.0000000e+0
vn -1.00000000 0.0000000e+0 0.0000000e+0
vn 1.00000000 0.0000000e+0 0.0000000e+0
vn -1.00000000 0.0000000e+0 0.0000000e+0
vn 1.00000000 0.0000000e+0 0.0000000e+0
vn -1.00000000 0.0000000e+0 0.0000000e+0
vn 1.00000000 0.0000000e+0 0.0000000e+0
vn -1.00000000 0.0000000e+0 0.0000000e+0
vn 1.00000000 0.0000000e+0 0.0000000e+0
vn -1.00000000 0.0000000e+0 0.0000000e+0
vn 1.00000000 0.0000000e+0 0.0000000e+0
vn -1.00000000 0.0000000e+0 0.0000000e+0
g depth_mask_1_auv
usemtl 1_auv
s 2
f 2//4 6//12 3//6 7//14 4//8 5//10 1//2 8//16
g depth_mask_default
usemtl default
s 1
f 8//15 1//1 5//9 4//7 7//13 3//5 6//11 2//3
