# Exported from Wings 3D 1.5.4
mtllib ./shroud door bottom.mtl
o door
#52 vertices, 59 faces
v 1.8750000e-2 0.0000000e+0 0.28750000
v 1.3258252e-2 1.3258252e-2 0.28750000
v 0.0000000e+0 1.8750000e-2 0.28750000
v -1.3258252e-2 1.3258252e-2 0.28750000
v -1.8750000e-2 0.0000000e+0 0.28750000
v -1.3258252e-2 -1.3258252e-2 0.28750000
v 0.0000000e+0 -1.8750000e-2 0.28750000
v 1.3258252e-2 -1.3258252e-2 0.28750000
v 1.8750000e-2 0.0000000e+0 0.21250000
v 1.3258252e-2 1.3258252e-2 0.21250000
v 0.0000000e+0 1.8750000e-2 0.21250000
v -1.3258252e-2 1.3258252e-2 0.21250000
v -1.8750000e-2 0.0000000e+0 0.21250000
v -1.3258252e-2 -1.3258252e-2 0.21250000
v 0.0000000e+0 -1.8750000e-2 0.21250000
v 1.3258252e-2 -1.3258252e-2 0.21250000
v -1.1102230e-16 0.0000000e+0 0.28750000
v -1.1102230e-16 0.0000000e+0 0.21250000
v 0.0000000e+0 0.0000000e+0 0.42500000
v 0.0000000e+0 0.0000000e+0 -0.42500000
v 0.0000000e+0 0.52500000 -0.42500000
v 0.0000000e+0 0.52500000 0.42500000
v 2.5000000e-2 0.0000000e+0 0.42500000
v 2.5000000e-2 0.52500000 0.42500000
v 2.5000000e-2 0.52500000 -0.42500000
v 2.5000000e-2 0.0000000e+0 -0.42500000
v 1.8750000e-2 0.0000000e+0 -0.21250000
v 1.3258252e-2 1.3258252e-2 -0.21250000
v 0.0000000e+0 1.8750000e-2 -0.21250000
v -1.3258252e-2 1.3258252e-2 -0.21250000
v -1.8750000e-2 0.0000000e+0 -0.21250000
v -1.3258252e-2 -1.3258252e-2 -0.21250000
v 0.0000000e+0 -1.8750000e-2 -0.21250000
v 1.3258252e-2 -1.3258252e-2 -0.21250000
v 1.8750000e-2 0.0000000e+0 -0.28750000
v 1.3258252e-2 1.3258252e-2 -0.28750000
v 0.0000000e+0 1.8750000e-2 -0.28750000
v -1.3258252e-2 1.3258252e-2 -0.28750000
v -1.8750000e-2 0.0000000e+0 -0.28750000
v -1.3258252e-2 -1.3258252e-2 -0.28750000
v 0.0000000e+0 -1.8750000e-2 -0.28750000
v 1.3258252e-2 -1.3258252e-2 -0.28750000
v -1.1102230e-16 0.0000000e+0 -0.21250000
v -1.1102230e-16 0.0000000e+0 -0.28750000
v 2.5000000e-2 0.0000000e+0 0.0000000e+0
v 2.5000000e-2 0.52500000 0.0000000e+0
v 0.0000000e+0 0.0000000e+0 0.0000000e+0
v 0.0000000e+0 0.52500000 0.0000000e+0
v -2.5000000e-3 5.0000000e-2 -0.37500000
v -2.5000000e-3 5.0000000e-2 -0.31500000
v -2.5000000e-3 0.20000000 -0.37500000
v -2.5000000e-3 0.20000000 -0.31500000
vt 0.20268784 0.21272985
vt 0.20268784 0.23651865
vt 0.26215984 0.21272985
vt 0.26215984 0.23651865
vt 0.47374815 0.25729480
vt 0.47374815 5.3040725e-2
vt 0.63909669 5.3040725e-2
vt 0.63909669 0.25729480
vt 0.80444523 5.3040725e-2
vt 0.80444523 0.25729480
vt 0.84487026 9.9523369e-2
vt 0.84487026 9.9523369e-2
vt 0.84487026 0.12870252
vt 0.85045345 9.9523369e-2
vt 0.85045345 9.9523369e-2
vt 0.85045345 0.12870252
vt 0.85603664 9.9523369e-2
vt 0.85603664 9.9523369e-2
vt 0.85603664 0.12870252
vt 0.86161983 9.9523369e-2
vt 0.86161983 9.9523369e-2
vt 0.86161983 0.12870252
vt 0.86720302 9.9523369e-2
vt 0.86720302 0.12870252
vt 0.86720302 9.9523369e-2
vt 0.86720302 0.12870252
vt 0.86814658 0.17449566
vt 0.86814658 0.17449566
vt 0.86814658 0.25716993
vt 0.86814658 0.25716993
vt 0.87278621 9.9523369e-2
vt 0.87278621 0.12870252
vt 0.87278621 9.9523369e-2
vt 0.87278621 0.12870252
vt 0.87300977 0.17449566
vt 0.87300977 0.16963247
vt 0.87300977 0.25716993
vt 0.87300977 0.25716993
vt 0.87300977 0.17449566
vt 0.87300977 0.16963247
vt 0.87836940 9.9523369e-2
vt 0.87836940 9.9523369e-2
vt 0.87836940 0.12870252
vt 0.88395259 9.9523369e-2
vt 0.88395259 9.9523369e-2
vt 0.88395259 0.12870252
vt 0.88953578 9.9523369e-2
vt 0.88953578 0.12870252
vt 0.88953578 9.9523369e-2
vt 0.88953578 0.12870252
vt 0.89006059 0.11411295
vt 0.89006059 0.11411295
vt 0.89219719 0.10895475
vt 0.89219719 0.11927114
vt 0.89219719 0.10895475
vt 0.89219719 0.10895475
vt 0.89219719 0.11927114
vt 0.89219719 0.11927114
vt 0.89735538 0.12140773
vt 0.89735538 0.10681816
vt 0.89735538 0.11411295
vt 0.89735538 0.12140773
vt 0.89735538 0.10681816
vt 0.89735538 0.10681816
vt 0.89735538 0.11411295
vt 0.89735538 0.11411295
vt 0.89735538 0.12140773
vt 0.90251358 0.10895475
vt 0.90251358 0.11927114
vt 0.90251358 0.10895475
vt 0.90251358 0.11927114
vt 0.90465017 0.11411295
vt 0.90465017 0.11411295
vt 0.90465017 0.11411295
vt 0.97513681 0.16963247
vt 0.97513681 0.17449566
vt 0.97513681 0.25716993
vt 0.97513681 0.17449566
vt 0.97513681 0.25716993
vt 0.97513681 0.16963247
vt 0.98000000 0.17449566
vt 0.98000000 0.17449566
vt 0.98000000 0.25716993
vt 0.98000000 0.25716993
vn 7.6420900e-31 0.0000000e+0 1.00000000
vn -2.1806840e-16 3.7007434e-16 -1.00000000
vn 7.6420900e-31 0.0000000e+0 1.00000000
vn -2.1806840e-16 0.0000000e+0 -1.00000000
vn -1.00000000 0.0000000e+0 0.0000000e+0
vn -1.00000000 0.0000000e+0 0.0000000e+0
vn -1.00000000 0.0000000e+0 0.0000000e+0
vn -1.00000000 0.0000000e+0 0.0000000e+0
vn 1.00000000 1.5021209e-15 0.0000000e+0
vn 1.00000000 1.5021209e-15 0.0000000e+0
vn 0.0000000e+0 0.0000000e+0 1.00000000
vn 0.0000000e+0 0.0000000e+0 1.00000000
vn 0.70710678 0.70710678 0.0000000e+0
vn 0.70710678 0.70710678 0.0000000e+0
vn 8.7227359e-16 0.0000000e+0 1.00000000
vn 8.7227359e-16 0.0000000e+0 1.00000000
vn 1.5021209e-15 1.00000000 0.0000000e+0
vn 1.5021209e-15 1.00000000 0.0000000e+0
vn 3.0568360e-30 0.0000000e+0 1.00000000
vn 3.0568360e-30 0.0000000e+0 1.00000000
vn -0.70710678 0.70710678 0.0000000e+0
vn -0.70710678 0.70710678 0.0000000e+0
vn -8.7227359e-16 0.0000000e+0 1.00000000
vn -8.7227359e-16 0.0000000e+0 1.00000000
vn -1.00000000 8.1114530e-16 -1.5332934e-16
vn -1.00000000 8.1114530e-16 -1.5332934e-16
vn 0.0000000e+0 0.0000000e+0 1.00000000
vn 0.0000000e+0 0.0000000e+0 1.00000000
vn -0.70710678 -0.70710678 -5.2131976e-16
vn -0.70710678 -0.70710678 -5.2131976e-16
vn 0.0000000e+0 0.0000000e+0 1.00000000
vn 0.0000000e+0 0.0000000e+0 1.00000000
vn -2.4033935e-16 -1.00000000 -3.6799042e-16
vn -2.4033935e-16 -1.00000000 -3.6799042e-16
vn 0.0000000e+0 0.0000000e+0 1.00000000
vn 0.0000000e+0 0.0000000e+0 1.00000000
vn 0.70710678 -0.70710678 0.0000000e+0
vn 0.70710678 -0.70710678 0.0000000e+0
vn 0.0000000e+0 0.0000000e+0 1.00000000
vn 0.0000000e+0 0.0000000e+0 1.00000000
vn 1.00000000 1.5021209e-15 0.0000000e+0
vn 1.00000000 1.5021209e-15 0.0000000e+0
vn 0.0000000e+0 0.0000000e+0 -1.00000000
vn 0.0000000e+0 0.0000000e+0 -1.00000000
vn 0.70710678 0.70710678 0.0000000e+0
vn 0.70710678 0.70710678 0.0000000e+0
vn -8.7227359e-16 7.4014868e-16 -1.00000000
vn -8.7227359e-16 7.4014868e-16 -1.00000000
vn 1.5021209e-15 1.00000000 0.0000000e+0
vn 1.5021209e-15 1.00000000 0.0000000e+0
vn -3.0568360e-30 1.4802974e-15 -1.00000000
vn -3.0568360e-30 1.4802974e-15 -1.00000000
vn -0.70710678 0.70710678 0.0000000e+0
vn -0.70710678 0.70710678 0.0000000e+0
vn 8.7227359e-16 7.4014868e-16 -1.00000000
vn 8.7227359e-16 7.4014868e-16 -1.00000000
vn -1.00000000 8.1114530e-16 -1.5332934e-16
vn -1.00000000 8.1114530e-16 -1.5332934e-16
vn 0.0000000e+0 0.0000000e+0 -1.00000000
vn 0.0000000e+0 0.0000000e+0 -1.00000000
vn -0.70710678 -0.70710678 -5.2131976e-16
vn -0.70710678 -0.70710678 -5.2131976e-16
vn -1.7445472e-15 0.0000000e+0 -1.00000000
vn -1.7445472e-15 0.0000000e+0 -1.00000000
vn -2.4033935e-16 -1.00000000 -3.6799042e-16
vn -2.4033935e-16 -1.00000000 -3.6799042e-16
vn -8.7227359e-16 0.0000000e+0 -1.00000000
vn -8.7227359e-16 0.0000000e+0 -1.00000000
vn 0.70710678 -0.70710678 0.0000000e+0
vn 0.70710678 -0.70710678 0.0000000e+0
vn 8.7227359e-16 0.0000000e+0 -1.00000000
vn 8.7227359e-16 0.0000000e+0 -1.00000000
vn -1.00000000 0.0000000e+0 0.0000000e+0
vn 0.0000000e+0 0.0000000e+0 1.00000000
vn 0.0000000e+0 -1.00000000 0.0000000e+0
vn 0.0000000e+0 0.0000000e+0 -1.00000000
vn -1.00000000 0.0000000e+0 0.0000000e+0
vn 0.0000000e+0 -1.00000000 0.0000000e+0
vn 0.0000000e+0 1.00000000 0.0000000e+0
vn 0.0000000e+0 0.0000000e+0 -1.00000000
vn -1.00000000 0.0000000e+0 0.0000000e+0
vn -1.00000000 0.0000000e+0 0.0000000e+0
vn 0.0000000e+0 0.0000000e+0 1.00000000
vn 0.0000000e+0 1.00000000 0.0000000e+0
vn 1.00000000 0.0000000e+0 0.0000000e+0
vn 0.0000000e+0 0.0000000e+0 1.00000000
vn 0.0000000e+0 -1.00000000 0.0000000e+0
vn 1.00000000 0.0000000e+0 0.0000000e+0
vn 0.0000000e+0 0.0000000e+0 1.00000000
vn 0.0000000e+0 1.00000000 0.0000000e+0
vn 0.0000000e+0 1.00000000 0.0000000e+0
vn 0.0000000e+0 0.0000000e+0 -1.00000000
vn 1.00000000 0.0000000e+0 0.0000000e+0
vn 0.0000000e+0 0.0000000e+0 -1.00000000
vn 1.00000000 0.0000000e+0 0.0000000e+0
vn 0.0000000e+0 -1.00000000 0.0000000e+0
vn 1.00000000 1.5021209e-15 0.0000000e+0
vn 1.00000000 1.5021209e-15 0.0000000e+0
vn 0.0000000e+0 0.0000000e+0 1.00000000
vn 0.0000000e+0 0.0000000e+0 1.00000000
vn 0.70710678 0.70710678 0.0000000e+0
vn 0.70710678 0.70710678 0.0000000e+0
vn 8.7227359e-16 0.0000000e+0 1.00000000
vn 8.7227359e-16 0.0000000e+0 1.00000000
vn 1.5021209e-15 1.00000000 0.0000000e+0
vn 1.5021209e-15 1.00000000 0.0000000e+0
vn 3.0568360e-30 0.0000000e+0 1.00000000
vn 3.0568360e-30 0.0000000e+0 1.00000000
vn -0.70710678 0.70710678 0.0000000e+0
vn -0.70710678 0.70710678 0.0000000e+0
vn -8.7227359e-16 0.0000000e+0 1.00000000
vn -8.7227359e-16 0.0000000e+0 1.00000000
vn -1.00000000 8.1114530e-16 -1.5332934e-16
vn -1.00000000 8.1114530e-16 -1.5332934e-16
vn 0.0000000e+0 0.0000000e+0 1.00000000
vn 0.0000000e+0 0.0000000e+0 1.00000000
vn -0.70710678 -0.70710678 -5.2131976e-16
vn -0.70710678 -0.70710678 -5.2131976e-16
vn 0.0000000e+0 0.0000000e+0 1.00000000
vn 0.0000000e+0 0.0000000e+0 1.00000000
vn -3.0042419e-16 -1.00000000 -3.6799042e-16
vn -3.0042419e-16 -1.00000000 -3.6799042e-16
vn 0.0000000e+0 0.0000000e+0 1.00000000
vn 0.0000000e+0 0.0000000e+0 1.00000000
vn 0.70710678 -0.70710678 0.0000000e+0
vn 0.70710678 -0.70710678 0.0000000e+0
vn 0.0000000e+0 0.0000000e+0 1.00000000
vn 0.0000000e+0 0.0000000e+0 1.00000000
vn 1.00000000 1.5021209e-15 0.0000000e+0
vn 1.00000000 1.5021209e-15 0.0000000e+0
vn 0.0000000e+0 0.0000000e+0 -1.00000000
vn 0.0000000e+0 0.0000000e+0 -1.00000000
vn 0.70710678 0.70710678 0.0000000e+0
vn 0.70710678 0.70710678 0.0000000e+0
vn 8.7227359e-16 0.0000000e+0 -1.00000000
vn 8.7227359e-16 0.0000000e+0 -1.00000000
vn 1.5021209e-15 1.00000000 0.0000000e+0
vn 1.5021209e-15 1.00000000 0.0000000e+0
vn 3.0568360e-30 0.0000000e+0 -1.00000000
vn 3.0568360e-30 0.0000000e+0 -1.00000000
vn -0.70710678 0.70710678 0.0000000e+0
vn -0.70710678 0.70710678 0.0000000e+0
vn -8.7227359e-16 0.0000000e+0 -1.00000000
vn -8.7227359e-16 0.0000000e+0 -1.00000000
vn -1.00000000 8.1114530e-16 -1.5332934e-16
vn -1.00000000 8.1114530e-16 -1.5332934e-16
vn 0.0000000e+0 0.0000000e+0 -1.00000000
vn 0.0000000e+0 0.0000000e+0 -1.00000000
vn -0.70710678 -0.70710678 -5.2131976e-16
vn -0.70710678 -0.70710678 -5.2131976e-16
vn -8.7227359e-16 0.0000000e+0 -1.00000000
vn -8.7227359e-16 0.0000000e+0 -1.00000000
vn -3.0042419e-16 -1.00000000 -3.6799042e-16
vn -3.0042419e-16 -1.00000000 -3.6799042e-16
vn -8.7227359e-16 0.0000000e+0 -1.00000000
vn -8.7227359e-16 0.0000000e+0 -1.00000000
vn 0.70710678 -0.70710678 0.0000000e+0
vn 0.70710678 -0.70710678 0.0000000e+0
vn 0.0000000e+0 0.0000000e+0 -1.00000000
vn 0.0000000e+0 0.0000000e+0 -1.00000000
vn 1.00000000 0.0000000e+0 0.0000000e+0
vn 0.0000000e+0 -1.00000000 0.0000000e+0
vn 1.00000000 0.0000000e+0 0.0000000e+0
vn 0.0000000e+0 -1.00000000 0.0000000e+0
vn 1.00000000 0.0000000e+0 0.0000000e+0
vn 0.0000000e+0 1.00000000 0.0000000e+0
vn 1.00000000 0.0000000e+0 0.0000000e+0
vn 0.0000000e+0 1.00000000 0.0000000e+0
vn -1.00000000 0.0000000e+0 0.0000000e+0
vn 0.0000000e+0 -1.00000000 0.0000000e+0
vn -1.00000000 0.0000000e+0 0.0000000e+0
vn 0.0000000e+0 -1.00000000 0.0000000e+0
vn -1.00000000 0.0000000e+0 0.0000000e+0
vn 0.0000000e+0 1.00000000 0.0000000e+0
vn -1.00000000 0.0000000e+0 0.0000000e+0
vn 0.0000000e+0 1.00000000 0.0000000e+0
g door_1_auv
usemtl 1_auv
s 1
f 1/72/12 17/65/1 8/71/39
f 2/70/15 17/65/1 1/72/11
f 3/63/20 17/65/1 2/70/16
f 4/55/24 17/65/1 3/63/19
f 5/52/28 17/65/1 4/55/23
f 6/57/32 17/65/1 5/52/27
f 7/67/36 17/65/1 6/57/31
f 8/71/40 17/65/1 7/67/35
f 9/51/43 18/61/2 10/53/47
f 10/53/48 18/61/2 11/60/51
f 11/60/52 18/61/2 12/68/55
f 12/68/56 18/61/2 13/74/59
f 13/74/60 18/61/2 14/69/63
f 14/69/64 18/61/2 15/62/67
f 15/62/68 18/61/2 16/54/71
f 16/54/72 18/61/2 9/51/44
f 19/36/74 23/35/86 24/76/89 22/75/83
f 21/40/80 25/39/92 26/78/94 20/80/76
f 27/50/98 35/49/130 36/44/134 28/46/102
f 28/46/101 36/44/133 37/41/138 29/43/106
f 29/43/105 37/41/137 38/33/142 30/34/110
f 30/34/109 38/33/141 39/25/146 31/26/114
f 31/26/113 39/25/145 40/20/150 32/22/118
f 32/22/117 40/20/149 41/17/154 33/19/122
f 33/19/121 41/17/153 42/14/158 34/16/126
f 34/16/125 42/14/157 35/11/129 27/13/97
f 50/4/6 52/2/8 51/1/7 49/3/5
s 2
f 1/48/10 9/47/42 10/45/46 2/46/14
f 2/46/13 10/45/45 11/42/50 3/43/18
f 3/43/17 11/42/49 12/31/54 4/32/22
f 4/32/21 12/31/53 13/23/58 5/24/26
f 5/24/25 13/23/57 14/21/62 6/22/30
f 6/22/29 14/21/61 15/18/66 7/19/34
f 7/19/33 15/18/65 16/15/70 8/16/38
f 8/16/37 16/15/69 9/12/41 1/13/9
f 20/5/77 47/8/171 48/7/175 21/6/81
f 22/9/82 48/7/173 47/8/169 19/10/73
f 23/35/85 45/38/161 46/77/165 24/76/88
f 27/73/100 43/65/3 34/71/127
f 28/70/103 43/65/3 27/73/99
f 29/64/108 43/65/3 28/70/104
f 30/56/112 43/65/3 29/64/107
f 31/52/116 43/65/3 30/56/111
f 32/58/120 43/65/3 31/52/115
f 33/67/124 43/65/3 32/58/119
f 34/71/128 43/65/3 33/67/123
f 35/51/131 44/66/4 36/53/135
f 36/53/136 44/66/4 37/60/139
f 37/60/140 44/66/4 38/68/143
f 38/68/144 44/66/4 39/74/147
f 39/74/148 44/66/4 40/69/151
f 40/69/152 44/66/4 41/59/155
f 41/59/156 44/66/4 42/54/159
f 42/54/160 44/66/4 35/51/132
f 46/37/167 45/79/163 26/78/95 25/39/93
s 3
f 19/27/75 47/30/170 45/38/162 23/35/87
f 20/82/78 26/78/96 45/79/164 47/83/172
f 24/76/90 46/77/168 48/84/176 22/81/84
f 48/29/174 46/37/166 25/39/91 21/28/79
