# Exported from Wings 3D 1.5.4
mtllib octans_basic_rcs_srf_3.mtl
o mesh
#92 vertices, 85 faces
v 2.5000000e-2 -2.5000000e-2 -5.0000000e-2
v 2.5000000e-2 -2.1650635e-2 -3.7500000e-2
v 2.5000000e-2 -1.2500000e-2 -2.8349365e-2
v 2.5000000e-2 6.9388939e-18 -2.5000000e-2
v 2.5000000e-2 1.2500000e-2 -2.8349365e-2
v 2.5000000e-2 2.1650635e-2 -3.7500000e-2
v 2.5000000e-2 2.5000000e-2 -5.0000000e-2
v 2.5000000e-2 2.1650635e-2 -6.2500000e-2
v 2.5000000e-2 1.2500000e-2 -7.1650635e-2
v 2.5000000e-2 1.3877788e-17 -7.5000000e-2
v 2.5000000e-2 -1.2500000e-2 -7.1650635e-2
v 2.5000000e-2 -2.1650635e-2 -6.2500000e-2
v 0.10000000 -2.5000000e-2 -5.0000000e-2
v 0.10000000 -2.1650635e-2 -3.7500000e-2
v 0.10000000 -1.2500000e-2 -2.8349365e-2
v 0.10000000 6.9388939e-18 -2.5000000e-2
v 0.10000000 1.2500000e-2 -2.8349365e-2
v 0.10000000 2.1650635e-2 -3.7500000e-2
v 0.10000000 2.5000000e-2 -5.0000000e-2
v 0.10000000 2.1650635e-2 -6.2500000e-2
v 0.10000000 1.2500000e-2 -7.1650635e-2
v 0.10000000 1.3877788e-17 -7.5000000e-2
v 0.10000000 -1.2500000e-2 -7.1650635e-2
v 0.10000000 -2.1650635e-2 -6.2500000e-2
v 0.10000000 -1.8750000e-2 -5.0000000e-2
v 0.10000000 -1.6237976e-2 -4.0625000e-2
v 0.10000000 -9.3750000e-3 -3.3762024e-2
v 0.10000000 6.9388939e-18 -3.1250000e-2
v 0.10000000 9.3750000e-3 -3.3762024e-2
v 0.10000000 1.6237976e-2 -4.0625000e-2
v 0.10000000 1.8750000e-2 -5.0000000e-2
v 0.10000000 1.6237976e-2 -5.9375000e-2
v 0.10000000 9.3750000e-3 -6.6237976e-2
v 0.10000000 6.9388939e-18 -6.8750000e-2
v 0.10000000 -9.3750000e-3 -6.6237976e-2
v 0.10000000 -1.6237976e-2 -5.9375000e-2
v 6.2500000e-2 0.0000000e+0 -5.0000000e-2
v -2.5000000e-2 3.7500000e-2 -5.0000000e-2
v -2.5000000e-2 -3.7500000e-2 -5.0000000e-2
v -2.5000000e-2 -3.2475953e-2 -6.8750000e-2
v -2.5000000e-2 -1.8750000e-2 -8.2475953e-2
v -2.5000000e-2 2.2331125e-17 -8.7500000e-2
v -2.5000000e-2 1.8750000e-2 -8.2475953e-2
v -2.5000000e-2 3.2475953e-2 -6.8750000e-2
v 2.5000000e-2 3.7500000e-2 -5.0000000e-2
v 2.5000000e-2 -3.7500000e-2 -5.0000000e-2
v 2.5000000e-2 -3.2475953e-2 -6.8750000e-2
v 2.5000000e-2 -1.8750000e-2 -8.2475953e-2
v 2.5000000e-2 1.7963571e-17 -8.7500000e-2
v 2.5000000e-2 1.8750000e-2 -8.2475953e-2
v 2.5000000e-2 3.2475953e-2 -6.8750000e-2
v 2.5000000e-2 3.7500000e-2 2.5000000e-2
v -2.5000000e-2 3.7500000e-2 2.5000000e-2
v -2.5000000e-2 -3.7500000e-2 2.5000000e-2
v 2.5000000e-2 -3.7500000e-2 2.5000000e-2
v -2.5000000e-2 -2.5000000e-2 -5.0000000e-2
v -2.5000000e-2 -2.1650635e-2 -3.7500000e-2
v -2.5000000e-2 -1.2500000e-2 -2.8349365e-2
v -2.5000000e-2 6.9388939e-18 -2.5000000e-2
v -2.5000000e-2 1.2500000e-2 -2.8349365e-2
v -2.5000000e-2 2.1650635e-2 -3.7500000e-2
v -2.5000000e-2 2.5000000e-2 -5.0000000e-2
v -2.5000000e-2 2.1650635e-2 -6.2500000e-2
v -2.5000000e-2 1.2500000e-2 -7.1650635e-2
v -2.5000000e-2 1.3877788e-17 -7.5000000e-2
v -2.5000000e-2 -1.2500000e-2 -7.1650635e-2
v -2.5000000e-2 -2.1650635e-2 -6.2500000e-2
v -0.10000000 -2.5000000e-2 -5.0000000e-2
v -0.10000000 -2.1650635e-2 -3.7500000e-2
v -0.10000000 -1.2500000e-2 -2.8349365e-2
v -0.10000000 6.9388939e-18 -2.5000000e-2
v -0.10000000 1.2500000e-2 -2.8349365e-2
v -0.10000000 2.1650635e-2 -3.7500000e-2
v -0.10000000 2.5000000e-2 -5.0000000e-2
v -0.10000000 2.1650635e-2 -6.2500000e-2
v -0.10000000 1.2500000e-2 -7.1650635e-2
v -0.10000000 1.3877788e-17 -7.5000000e-2
v -0.10000000 -1.2500000e-2 -7.1650635e-2
v -0.10000000 -2.1650635e-2 -6.2500000e-2
v -0.10000000 -1.8750000e-2 -5.0000000e-2
v -0.10000000 -1.6237976e-2 -4.0625000e-2
v -0.10000000 -9.3750000e-3 -3.3762024e-2
v -0.10000000 6.9388939e-18 -3.1250000e-2
v -0.10000000 9.3750000e-3 -3.3762024e-2
v -0.10000000 1.6237976e-2 -4.0625000e-2
v -0.10000000 1.8750000e-2 -5.0000000e-2
v -0.10000000 1.6237976e-2 -5.9375000e-2
v -0.10000000 9.3750000e-3 -6.6237976e-2
v -0.10000000 6.9388939e-18 -6.8750000e-2
v -0.10000000 -9.3750000e-3 -6.6237976e-2
v -0.10000000 -1.6237976e-2 -5.9375000e-2
v -6.2500000e-2 0.0000000e+0 -5.0000000e-2
vt 7.0452290e-2 0.45865139
vt 7.0452290e-2 0.45865139
vt 7.0452290e-2 0.40100085
vt 7.0452290e-2 0.40100085
vt 7.0452290e-2 0.40100085
vt 7.0452290e-2 0.45865139
vt 7.0452290e-2 0.40100085
vt 7.0452290e-2 0.45865139
vt 7.2191160e-2 7.2126236e-2
vt 7.2191160e-2 0.11581672
vt 7.2191160e-2 7.2126236e-2
vt 7.2191160e-2 0.11581672
vt 7.2318433e-2 0.20095279
vt 7.2318433e-2 0.26772851
vt 7.2318433e-2 0.26772851
vt 7.2371061e-2 0.15875248
vt 7.2371061e-2 0.20064097
vt 7.6791559e-2 0.28442244
vt 7.6791559e-2 0.28442244
vt 8.1974176e-2 0.45865139
vt 8.1974176e-2 0.40100085
vt 8.1974176e-2 0.40100085
vt 8.1974176e-2 0.45865139
vt 8.1974176e-2 0.45865139
vt 8.1974176e-2 0.40100085
vt 8.1974176e-2 0.40100085
vt 8.1974176e-2 0.45865139
vt 8.3200837e-2 0.69245444
vt 8.6193261e-2 0.68128656
vt 8.6193261e-2 0.70362232
vt 8.8784776e-2 0.69245444
vt 8.9012364e-2 0.29664325
vt 8.9012364e-2 0.29664325
vt 9.1029094e-2 0.68407853
vt 9.1029094e-2 0.70083035
vt 9.3496062e-2 0.45865139
vt 9.3496062e-2 0.40100085
vt 9.3496062e-2 0.40100085
vt 9.3496062e-2 0.45865139
vt 9.3496062e-2 0.45865139
vt 9.3496062e-2 0.40100085
vt 9.3496062e-2 0.40100085
vt 9.3496062e-2 0.45865139
vt 9.4368715e-2 0.67311111
vt 9.4368715e-2 0.71179777
vt 9.7160685e-2 0.67794694
vt 9.7160685e-2 0.70696194
vt 0.10501795 0.45865139
vt 0.10501795 0.45865139
vt 0.10501795 0.40100085
vt 0.10501795 0.40100085
vt 0.10501795 0.40100085
vt 0.10501795 0.40100085
vt 0.10501795 0.45865139
vt 0.10501795 0.45865139
vt 0.10553659 0.67011869
vt 0.10553659 0.67570263
vt 0.10553659 0.69245444
vt 0.10553659 0.70920626
vt 0.10553659 0.71479020
vt 0.10570630 0.30111637
vt 0.10570630 0.30111637
vt 0.10891781 7.2126236e-2
vt 0.10891781 0.11581672
vt 0.10891781 7.2126236e-2
vt 0.10891781 0.11581672
vt 0.11391250 0.67794694
vt 0.11391250 0.70696194
vt 0.11653983 0.45865139
vt 0.11653983 0.45865139
vt 0.11653983 0.40100085
vt 0.11653983 0.40100085
vt 0.11653983 0.40100085
vt 0.11653983 0.45865139
vt 0.11653983 0.45865139
vt 0.11653983 0.40100085
vt 0.11670447 0.67311111
vt 0.11670447 0.71179777
vt 0.11842336 7.2126236e-2
vt 0.11842336 7.2126236e-2
vt 0.11842336 0.11581672
vt 0.11842336 0.11581672
vt 0.12004409 0.68407853
vt 0.12004409 0.70083035
vt 0.12228841 0.69245444
vt 0.12240023 0.29664325
vt 0.12487992 0.68128656
vt 0.12487992 0.70362232
vt 0.12787235 0.69245444
vt 0.12792892 0.11581672
vt 0.12792892 7.2126236e-2
vt 0.12792892 0.11581672
vt 0.12792892 7.2126236e-2
vt 0.12806172 0.45865139
vt 0.12806172 0.40100085
vt 0.12806172 0.45865139
vt 0.12806172 0.40100085
vt 0.12806172 0.40100085
vt 0.12806172 0.45865139
vt 0.12806172 0.40100085
vt 0.12806172 0.45865139
vt 0.13462103 0.28442244
vt 0.13462103 0.28442244
vt 0.13743448 7.2126236e-2
vt 0.13743448 0.11581672
vt 0.13743448 7.2126236e-2
vt 0.13743448 0.11581672
vt 0.13909416 0.20095279
vt 0.13909416 0.26772851
vt 0.13909416 0.26772851
vt 0.13914678 0.15875248
vt 0.13914678 0.20064097
vt 0.13958361 0.45865139
vt 0.13958361 0.45865139
vt 0.13958361 0.40100085
vt 0.13958361 0.40100085
vt 0.13958361 0.40100085
vt 0.13958361 0.45865139
vt 0.13958361 0.40100085
vt 0.13958361 0.45865139
vn 1.00000000 -4.2547233e-17 2.8187542e-16
vn -1.00000000 -4.2547233e-17 2.8187542e-16
vn -1.3913928e-16 -1.00000000 -1.1493875e-16
vn -1.3913928e-16 -1.00000000 -1.1493875e-16
vn -1.8612137e-16 -0.86602540 0.50000000
vn -1.8612137e-16 -0.86602540 0.50000000
vn -1.6443733e-16 -0.50000000 0.86602540
vn -1.6443733e-16 -0.50000000 0.86602540
vn -1.2829726e-16 -2.8734686e-17 1.00000000
vn -1.2829726e-16 -2.8734686e-17 1.00000000
vn -6.5052130e-17 0.50000000 0.86602540
vn -6.5052130e-17 0.50000000 0.86602540
vn 3.9754080e-17 0.86602540 0.50000000
vn 3.9754080e-17 0.86602540 0.50000000
vn 1.0661321e-16 1.00000000 3.1608155e-16
vn 1.0661321e-16 1.00000000 3.1608155e-16
vn 1.1022722e-16 0.86602540 -0.50000000
vn 1.1022722e-16 0.86602540 -0.50000000
vn 9.5771192e-17 0.50000000 -0.86602540
vn 9.5771192e-17 0.50000000 -0.86602540
vn 9.2157185e-17 3.7355092e-16 -1.00000000
vn 9.2157185e-17 3.7355092e-16 -1.00000000
vn 4.6982094e-17 -0.50000000 -0.86602540
vn 4.6982094e-17 -0.50000000 -0.86602540
vn -4.6982094e-17 -0.86602540 -0.50000000
vn -4.6982094e-17 -0.86602540 -0.50000000
vn -1.3913928e-16 -1.00000000 -1.1493875e-16
vn -1.3913928e-16 -1.00000000 -1.1493875e-16
vn 1.00000000 0.0000000e+0 0.0000000e+0
vn 1.00000000 0.0000000e+0 0.0000000e+0
vn -1.8612137e-16 -0.86602540 0.50000000
vn -1.8612137e-16 -0.86602540 0.50000000
vn 1.00000000 0.0000000e+0 0.0000000e+0
vn 1.00000000 0.0000000e+0 0.0000000e+0
vn -1.6443733e-16 -0.50000000 0.86602540
vn -1.6443733e-16 -0.50000000 0.86602540
vn 1.00000000 0.0000000e+0 0.0000000e+0
vn 1.00000000 0.0000000e+0 0.0000000e+0
vn -1.2829726e-16 -2.8734686e-17 1.00000000
vn -1.2829726e-16 -2.8734686e-17 1.00000000
vn 1.00000000 0.0000000e+0 0.0000000e+0
vn 1.00000000 0.0000000e+0 0.0000000e+0
vn -6.5052130e-17 0.50000000 0.86602540
vn -6.5052130e-17 0.50000000 0.86602540
vn 1.00000000 0.0000000e+0 0.0000000e+0
vn 1.00000000 0.0000000e+0 0.0000000e+0
vn 3.9754080e-17 0.86602540 0.50000000
vn 3.9754080e-17 0.86602540 0.50000000
vn 1.00000000 0.0000000e+0 0.0000000e+0
vn 1.00000000 0.0000000e+0 0.0000000e+0
vn 1.0661321e-16 1.00000000 3.1608155e-16
vn 1.0661321e-16 1.00000000 3.1608155e-16
vn 1.00000000 0.0000000e+0 0.0000000e+0
vn 1.00000000 0.0000000e+0 0.0000000e+0
vn 1.1022722e-16 0.86602540 -0.50000000
vn 1.1022722e-16 0.86602540 -0.50000000
vn 1.00000000 0.0000000e+0 0.0000000e+0
vn 1.00000000 0.0000000e+0 0.0000000e+0
vn 9.5771192e-17 0.50000000 -0.86602540
vn 9.5771192e-17 0.50000000 -0.86602540
vn 1.00000000 0.0000000e+0 0.0000000e+0
vn 1.00000000 0.0000000e+0 0.0000000e+0
vn 9.2157185e-17 3.7355092e-16 -1.00000000
vn 9.2157185e-17 3.7355092e-16 -1.00000000
vn 1.00000000 0.0000000e+0 0.0000000e+0
vn 1.00000000 0.0000000e+0 0.0000000e+0
vn 4.6982094e-17 -0.50000000 -0.86602540
vn 4.6982094e-17 -0.50000000 -0.86602540
vn 1.00000000 0.0000000e+0 0.0000000e+0
vn 1.00000000 0.0000000e+0 0.0000000e+0
vn -4.6982094e-17 -0.86602540 -0.50000000
vn -4.6982094e-17 -0.86602540 -0.50000000
vn 1.00000000 0.0000000e+0 0.0000000e+0
vn 1.00000000 0.0000000e+0 0.0000000e+0
vn 1.00000000 0.0000000e+0 0.0000000e+0
vn 1.00000000 0.0000000e+0 0.0000000e+0
vn 0.44721360 0.89442719 7.2780956e-16
vn 0.44721360 0.89442719 7.2780956e-16
vn 1.00000000 0.0000000e+0 0.0000000e+0
vn 1.00000000 0.0000000e+0 0.0000000e+0
vn 0.44721360 0.77459667 -0.44721360
vn 0.44721360 0.77459667 -0.44721360
vn 1.00000000 0.0000000e+0 0.0000000e+0
vn 1.00000000 0.0000000e+0 0.0000000e+0
vn 0.44721360 0.44721360 -0.77459667
vn 0.44721360 0.44721360 -0.77459667
vn 1.00000000 0.0000000e+0 0.0000000e+0
vn 1.00000000 0.0000000e+0 0.0000000e+0
vn 0.44721360 -1.4270776e-16 -0.89442719
vn 0.44721360 -1.4270776e-16 -0.89442719
vn 1.00000000 0.0000000e+0 0.0000000e+0
vn 1.00000000 0.0000000e+0 0.0000000e+0
vn 0.44721360 -0.44721360 -0.77459667
vn 0.44721360 -0.44721360 -0.77459667
vn 1.00000000 0.0000000e+0 0.0000000e+0
vn 1.00000000 0.0000000e+0 0.0000000e+0
vn 0.44721360 -0.77459667 -0.44721360
vn 0.44721360 -0.77459667 -0.44721360
vn 1.00000000 0.0000000e+0 0.0000000e+0
vn 1.00000000 0.0000000e+0 0.0000000e+0
vn 0.44721360 -0.89442719 -3.8531094e-16
vn 0.44721360 -0.89442719 -3.8531094e-16
vn 1.00000000 0.0000000e+0 0.0000000e+0
vn 1.00000000 0.0000000e+0 0.0000000e+0
vn 0.44721360 -0.77459667 0.44721360
vn 0.44721360 -0.77459667 0.44721360
vn 1.00000000 0.0000000e+0 0.0000000e+0
vn 1.00000000 0.0000000e+0 0.0000000e+0
vn 0.44721360 -0.44721360 0.77459667
vn 0.44721360 -0.44721360 0.77459667
vn 1.00000000 0.0000000e+0 0.0000000e+0
vn 1.00000000 0.0000000e+0 0.0000000e+0
vn 0.44721360 -3.4249862e-16 0.89442719
vn 0.44721360 -3.4249862e-16 0.89442719
vn 1.00000000 0.0000000e+0 0.0000000e+0
vn 1.00000000 0.0000000e+0 0.0000000e+0
vn 0.44721360 0.44721360 0.77459667
vn 0.44721360 0.44721360 0.77459667
vn 1.00000000 0.0000000e+0 0.0000000e+0
vn 1.00000000 0.0000000e+0 0.0000000e+0
vn 0.44721360 0.77459667 0.44721360
vn 0.44721360 0.77459667 0.44721360
vn -1.00000000 1.0271626e-31 4.8572257e-16
vn 1.4083942e-17 0.99144486 -0.13052619
vn 1.4083942e-17 0.99144486 -0.13052619
vn -1.00000000 1.0271626e-31 4.8572257e-16
vn -1.00000000 1.0271626e-31 4.8572257e-16
vn -8.8024636e-17 -0.99144486 -0.13052619
vn -1.00000000 1.0271626e-31 4.8572257e-16
vn -8.8024636e-17 -0.99144486 -0.13052619
vn -1.00000000 0.0000000e+0 0.0000000e+0
vn -1.6985834e-16 -0.86602540 -0.50000000
vn -1.6985834e-16 -0.86602540 -0.50000000
vn -1.00000000 0.0000000e+0 0.0000000e+0
vn -9.0350181e-17 -0.50000000 -0.86602540
vn -9.0350181e-17 -0.50000000 -0.86602540
vn -1.00000000 0.0000000e+0 0.0000000e+0
vn 1.5950955e-32 -1.4367343e-16 -1.00000000
vn 1.5950955e-32 -1.4367343e-16 -1.00000000
vn -1.00000000 0.0000000e+0 0.0000000e+0
vn 4.6982094e-17 0.50000000 -0.86602540
vn 4.6982094e-17 0.50000000 -0.86602540
vn -1.00000000 0.0000000e+0 0.0000000e+0
vn 5.0596101e-17 0.86602540 -0.50000000
vn 5.0596101e-17 0.86602540 -0.50000000
vn 1.00000000 -1.0271626e-31 -5.0885222e-16
vn 1.4083942e-17 0.99144486 -0.13052619
vn 1.4083942e-17 0.99144486 -0.13052619
vn 1.00000000 -1.0271626e-31 -5.0885222e-16
vn 1.00000000 -1.0271626e-31 -5.0885222e-16
vn -8.8024636e-17 -0.99144486 -0.13052619
vn -8.8024636e-17 -0.99144486 -0.13052619
vn 1.00000000 -1.0271626e-31 -5.0885222e-16
vn 1.00000000 0.0000000e+0 0.0000000e+0
vn -1.6985834e-16 -0.86602540 -0.50000000
vn -1.6985834e-16 -0.86602540 -0.50000000
vn 1.00000000 0.0000000e+0 0.0000000e+0
vn -9.0350181e-17 -0.50000000 -0.86602540
vn -9.0350181e-17 -0.50000000 -0.86602540
vn 1.00000000 0.0000000e+0 0.0000000e+0
vn 1.5950955e-32 -1.4367343e-16 -1.00000000
vn 1.5950955e-32 -1.4367343e-16 -1.00000000
vn 1.00000000 0.0000000e+0 0.0000000e+0
vn 4.6982094e-17 0.50000000 -0.86602540
vn 4.6982094e-17 0.50000000 -0.86602540
vn 1.00000000 0.0000000e+0 0.0000000e+0
vn 5.0596101e-17 0.86602540 -0.50000000
vn 5.0596101e-17 0.86602540 -0.50000000
vn 5.5511151e-16 1.8503717e-16 1.00000000
vn -5.1358132e-32 1.00000000 -9.2518585e-17
vn 1.00000000 -2.0543253e-31 -1.0177044e-15
vn 5.5511151e-16 1.8503717e-16 1.00000000
vn -5.1358132e-32 1.00000000 -9.2518585e-17
vn -1.00000000 2.0543253e-31 9.7144515e-16
vn 5.5511151e-16 1.8503717e-16 1.00000000
vn -1.00000000 2.0543253e-31 9.7144515e-16
vn 5.1358132e-32 -1.00000000 9.2518585e-17
vn 5.5511151e-16 1.8503717e-16 1.00000000
vn 5.1358132e-32 -1.00000000 9.2518585e-17
vn 1.00000000 -2.0543253e-31 -1.0177044e-15
vn 1.3913928e-16 -1.00000000 -1.1493875e-16
vn 1.3913928e-16 -1.00000000 -1.1493875e-16
vn 1.8612137e-16 -0.86602540 0.50000000
vn 1.8612137e-16 -0.86602540 0.50000000
vn 1.6443733e-16 -0.50000000 0.86602540
vn 1.6443733e-16 -0.50000000 0.86602540
vn 1.2829726e-16 -2.8734686e-17 1.00000000
vn 1.2829726e-16 -2.8734686e-17 1.00000000
vn 6.5052130e-17 0.50000000 0.86602540
vn 6.5052130e-17 0.50000000 0.86602540
vn -3.9754080e-17 0.86602540 0.50000000
vn -3.9754080e-17 0.86602540 0.50000000
vn -1.0661321e-16 1.00000000 3.1608155e-16
vn -1.0661321e-16 1.00000000 3.1608155e-16
vn -1.1022722e-16 0.86602540 -0.50000000
vn -1.1022722e-16 0.86602540 -0.50000000
vn -9.5771192e-17 0.50000000 -0.86602540
vn -9.5771192e-17 0.50000000 -0.86602540
vn -9.2157185e-17 3.7355092e-16 -1.00000000
vn -9.2157185e-17 3.7355092e-16 -1.00000000
vn -4.6982094e-17 -0.50000000 -0.86602540
vn -4.6982094e-17 -0.50000000 -0.86602540
vn 4.6982094e-17 -0.86602540 -0.50000000
vn 4.6982094e-17 -0.86602540 -0.50000000
vn 1.3913928e-16 -1.00000000 -1.1493875e-16
vn 1.3913928e-16 -1.00000000 -1.1493875e-16
vn -1.00000000 0.0000000e+0 0.0000000e+0
vn -1.00000000 0.0000000e+0 0.0000000e+0
vn 1.8612137e-16 -0.86602540 0.50000000
vn 1.8612137e-16 -0.86602540 0.50000000
vn -1.00000000 0.0000000e+0 0.0000000e+0
vn -1.00000000 0.0000000e+0 0.0000000e+0
vn 1.6443733e-16 -0.50000000 0.86602540
vn 1.6443733e-16 -0.50000000 0.86602540
vn -1.00000000 0.0000000e+0 0.0000000e+0
vn -1.00000000 0.0000000e+0 0.0000000e+0
vn 1.2829726e-16 -2.8734686e-17 1.00000000
vn 1.2829726e-16 -2.8734686e-17 1.00000000
vn -1.00000000 0.0000000e+0 0.0000000e+0
vn -1.00000000 0.0000000e+0 0.0000000e+0
vn 6.5052130e-17 0.50000000 0.86602540
vn 6.5052130e-17 0.50000000 0.86602540
vn -1.00000000 0.0000000e+0 0.0000000e+0
vn -1.00000000 0.0000000e+0 0.0000000e+0
vn -3.9754080e-17 0.86602540 0.50000000
vn -3.9754080e-17 0.86602540 0.50000000
vn -1.00000000 0.0000000e+0 0.0000000e+0
vn -1.00000000 0.0000000e+0 0.0000000e+0
vn -1.0661321e-16 1.00000000 3.1608155e-16
vn -1.0661321e-16 1.00000000 3.1608155e-16
vn -1.00000000 0.0000000e+0 0.0000000e+0
vn -1.00000000 0.0000000e+0 0.0000000e+0
vn -1.1022722e-16 0.86602540 -0.50000000
vn -1.1022722e-16 0.86602540 -0.50000000
vn -1.00000000 0.0000000e+0 0.0000000e+0
vn -1.00000000 0.0000000e+0 0.0000000e+0
vn -9.5771192e-17 0.50000000 -0.86602540
vn -9.5771192e-17 0.50000000 -0.86602540
vn -1.00000000 0.0000000e+0 0.0000000e+0
vn -1.00000000 0.0000000e+0 0.0000000e+0
vn -9.2157185e-17 3.7355092e-16 -1.00000000
vn -9.2157185e-17 3.7355092e-16 -1.00000000
vn -1.00000000 0.0000000e+0 0.0000000e+0
vn -1.00000000 0.0000000e+0 0.0000000e+0
vn -4.6982094e-17 -0.50000000 -0.86602540
vn -4.6982094e-17 -0.50000000 -0.86602540
vn -1.00000000 0.0000000e+0 0.0000000e+0
vn -1.00000000 0.0000000e+0 0.0000000e+0
vn 4.6982094e-17 -0.86602540 -0.50000000
vn 4.6982094e-17 -0.86602540 -0.50000000
vn -1.00000000 0.0000000e+0 0.0000000e+0
vn -1.00000000 0.0000000e+0 0.0000000e+0
vn -1.00000000 0.0000000e+0 0.0000000e+0
vn -1.00000000 0.0000000e+0 0.0000000e+0
vn -0.44721360 0.89442719 7.2780956e-16
vn -0.44721360 0.89442719 7.2780956e-16
vn -1.00000000 0.0000000e+0 0.0000000e+0
vn -1.00000000 0.0000000e+0 0.0000000e+0
vn -0.44721360 0.77459667 -0.44721360
vn -0.44721360 0.77459667 -0.44721360
vn -1.00000000 0.0000000e+0 0.0000000e+0
vn -1.00000000 0.0000000e+0 0.0000000e+0
vn -0.44721360 0.44721360 -0.77459667
vn -0.44721360 0.44721360 -0.77459667
vn -1.00000000 0.0000000e+0 0.0000000e+0
vn -1.00000000 0.0000000e+0 0.0000000e+0
vn -0.44721360 -1.4270776e-16 -0.89442719
vn -0.44721360 -1.4270776e-16 -0.89442719
vn -1.00000000 0.0000000e+0 0.0000000e+0
vn -1.00000000 0.0000000e+0 0.0000000e+0
vn -0.44721360 -0.44721360 -0.77459667
vn -0.44721360 -0.44721360 -0.77459667
vn -1.00000000 0.0000000e+0 0.0000000e+0
vn -1.00000000 0.0000000e+0 0.0000000e+0
vn -0.44721360 -0.77459667 -0.44721360
vn -0.44721360 -0.77459667 -0.44721360
vn -1.00000000 0.0000000e+0 0.0000000e+0
vn -1.00000000 0.0000000e+0 0.0000000e+0
vn -0.44721360 -0.89442719 -3.8531094e-16
vn -0.44721360 -0.89442719 -3.8531094e-16
vn -1.00000000 0.0000000e+0 0.0000000e+0
vn -1.00000000 0.0000000e+0 0.0000000e+0
vn -0.44721360 -0.77459667 0.44721360
vn -0.44721360 -0.77459667 0.44721360
vn -1.00000000 0.0000000e+0 0.0000000e+0
vn -1.00000000 0.0000000e+0 0.0000000e+0
vn -0.44721360 -0.44721360 0.77459667
vn -0.44721360 -0.44721360 0.77459667
vn -1.00000000 0.0000000e+0 0.0000000e+0
vn -1.00000000 0.0000000e+0 0.0000000e+0
vn -0.44721360 -3.4249862e-16 0.89442719
vn -0.44721360 -3.4249862e-16 0.89442719
vn -1.00000000 0.0000000e+0 0.0000000e+0
vn -1.00000000 0.0000000e+0 0.0000000e+0
vn -0.44721360 0.44721360 0.77459667
vn -0.44721360 0.44721360 0.77459667
vn -1.00000000 0.0000000e+0 0.0000000e+0
vn -1.00000000 0.0000000e+0 0.0000000e+0
vn -0.44721360 0.77459667 0.44721360
vn -0.44721360 0.77459667 0.44721360
g mesh_mesh_auv
usemtl mesh_auv
s 1
f 25/31/77 37/58/1 26/34/81
f 26/34/82 37/58/1 27/46/85
f 27/46/86 37/58/1 28/57/89
f 28/57/90 37/58/1 29/67/93
f 29/67/94 37/58/1 30/83/97
f 30/83/98 37/58/1 31/85/101
f 31/85/102 37/58/1 32/84/105
f 32/84/106 37/58/1 33/68/109
f 33/68/110 37/58/1 34/59/113
f 34/59/114 37/58/1 35/47/117
f 35/47/118 37/58/1 36/35/121
f 36/35/122 37/58/1 25/31/78
f 39/14/129 54/13/176 53/108/174 38/109/126
f 44/102/143 43/86/140 42/61/137 41/32/134 40/19/131 39/14/127 38/109/123
f 45/15/146 46/110/150 47/103/154 48/86/157 49/62/160 50/33/163 51/18/166
f 45/15/149 52/13/171 55/108/180 46/110/153
f 80/31/256 92/58/2 91/35/300
f 81/34/259 92/58/2 80/31/255
f 82/46/263 92/58/2 81/34/260
f 83/57/267 92/58/2 82/46/264
f 84/67/271 92/58/2 83/57/268
f 85/83/275 92/58/2 84/67/272
f 86/85/279 92/58/2 85/83/276
f 87/84/283 92/58/2 86/85/280
f 88/68/287 92/58/2 87/84/284
f 89/59/291 92/58/2 88/68/288
f 90/47/295 92/58/2 89/59/292
f 91/35/299 92/58/2 90/47/296
s 2
f 1/118/4 13/117/28 14/98/32 2/99/6
f 2/99/5 14/98/31 15/73/36 3/75/8
f 3/75/7 15/73/35 16/52/40 4/55/10
f 4/55/9 16/52/39 17/41/44 5/40/12
f 5/40/11 17/41/43 18/25/48 6/24/14
f 6/24/13 18/25/47 19/5/52 7/6/16
f 7/8/15 19/7/51 20/26/56 8/27/18
f 8/27/17 20/26/55 21/42/60 9/43/20
f 9/43/19 21/42/59 22/53/64 10/54/22
f 10/54/21 22/53/63 23/76/68 11/74/24
f 11/74/23 23/76/67 24/100/72 12/101/26
f 12/101/25 24/100/71 13/119/27 1/120/3
f 53/112/172 54/17/175 55/16/178 52/111/169
f 56/113/181 68/115/205 79/95/249 67/94/203
f 57/96/184 69/97/210 68/116/206 56/114/182
f 58/70/186 70/72/214 69/97/209 57/96/183
f 59/49/188 71/51/218 70/72/213 58/70/185
f 60/39/190 72/38/222 71/51/217 59/49/187
f 61/23/192 73/22/226 72/38/221 60/39/189
f 62/2/194 74/4/230 73/22/225 61/23/191
f 63/20/196 75/21/234 74/3/229 62/1/193
f 64/36/198 76/37/238 75/21/233 63/20/195
f 65/48/200 77/50/242 76/37/237 64/36/197
f 66/69/202 78/71/246 77/50/241 65/48/199
f 67/94/204 79/95/250 78/71/245 66/69/201
s 3
f 13/28/29 25/31/75 26/34/79 14/29/33
f 14/29/34 26/34/80 27/46/83 15/44/37
f 15/44/38 27/46/84 28/57/87 16/56/41
f 16/56/42 28/57/88 29/67/91 17/77/45
f 17/77/46 29/67/92 30/83/95 18/87/49
f 18/87/50 30/83/96 31/85/99 19/89/53
f 19/89/54 31/85/100 32/84/103 20/88/57
f 20/88/58 32/84/104 33/68/107 21/78/61
f 21/78/62 33/68/108 34/59/111 22/60/65
f 22/60/66 34/59/112 35/47/115 23/45/69
f 23/45/70 35/47/116 36/35/119 24/30/73
f 24/30/74 36/35/120 25/31/76 13/28/30
f 38/64/124 45/63/147 51/80/167 44/81/144
f 38/64/125 53/10/173 52/9/170 45/63/148
f 40/82/133 47/79/156 46/65/151 39/66/128
f 41/92/136 48/91/159 47/79/155 40/82/132
f 42/107/139 49/106/162 48/91/158 41/92/135
f 43/90/142 50/93/165 49/104/161 42/105/138
f 44/81/145 51/80/168 50/93/164 43/90/141
f 46/65/152 55/11/179 54/12/177 39/66/130
f 68/28/208 80/31/254 91/35/298 79/30/252
f 69/29/211 81/34/257 80/31/253 68/28/207
f 70/44/215 82/46/261 81/34/258 69/29/212
f 71/56/219 83/57/265 82/46/262 70/44/216
f 72/77/223 84/67/269 83/57/266 71/56/220
f 73/87/227 85/83/273 84/67/270 72/77/224
f 74/89/231 86/85/277 85/83/274 73/87/228
f 75/88/235 87/84/281 86/85/278 74/89/232
f 76/78/239 88/68/285 87/84/282 75/88/236
f 77/60/243 89/59/289 88/68/286 76/78/240
f 78/45/247 90/47/293 89/59/290 77/60/244
f 79/30/251 91/35/297 90/47/294 78/45/248
