# Exported from Wings 3D 1.5.4
mtllib octans_basic_rcs_srf_1.mtl
o mesh
#37 vertices, 37 faces
v 2.5000000e-2 5.8398320e-18 2.5000000e-2
v 2.1650635e-2 -1.2500000e-2 2.5000000e-2
v 1.2500000e-2 -2.1650635e-2 2.5000000e-2
v -8.8674812e-17 -2.5000000e-2 2.5000000e-2
v -1.2500000e-2 -2.1650635e-2 2.5000000e-2
v -2.1650635e-2 -1.2500000e-2 2.5000000e-2
v -2.5000000e-2 2.7782150e-18 2.5000000e-2
v -2.1650635e-2 1.2500000e-2 2.5000000e-2
v -1.2500000e-2 2.1650635e-2 2.5000000e-2
v -9.4798046e-17 2.5000000e-2 2.5000000e-2
v 1.2500000e-2 2.1650635e-2 2.5000000e-2
v 2.1650635e-2 1.2500000e-2 2.5000000e-2
v 2.5000000e-2 4.6525033e-19 -0.10000000
v 2.1650635e-2 -1.2500000e-2 -0.10000000
v 1.2500000e-2 -2.1650635e-2 -0.10000000
v -9.0120415e-17 -2.5000000e-2 -0.10000000
v -1.2500000e-2 -2.1650635e-2 -0.10000000
v -2.1650635e-2 -1.2500000e-2 -0.10000000
v -2.5000000e-2 -2.5963667e-18 -0.10000000
v -2.1650635e-2 1.2500000e-2 -0.10000000
v -1.2500000e-2 2.1650635e-2 -0.10000000
v -9.6243649e-17 2.5000000e-2 -0.10000000
v 1.2500000e-2 2.1650635e-2 -0.10000000
v 2.1650635e-2 1.2500000e-2 -0.10000000
v 1.8750000e-2 -3.8910336e-20 -0.10000000
v 1.6237976e-2 -9.3750000e-3 -0.10000000
v 9.3750000e-3 -1.6237976e-2 -0.10000000
v -9.0936798e-17 -1.8750000e-2 -0.10000000
v -9.3750000e-3 -1.6237976e-2 -0.10000000
v -1.6237976e-2 -9.3750000e-3 -0.10000000
v -1.8750000e-2 -2.3351231e-18 -0.10000000
v -1.6237976e-2 9.3750000e-3 -0.10000000
v -9.3750000e-3 1.6237976e-2 -0.10000000
v -9.5529224e-17 1.8750000e-2 -0.10000000
v 9.3750000e-3 1.6237976e-2 -0.10000000
v 1.6237976e-2 9.3750000e-3 -0.10000000
v -8.2688486e-17 -1.1564823e-18 -6.2500000e-2
vt 7.5375277e-2 0.84489823
vt 7.5375277e-2 0.75229831
vt 8.3200837e-2 0.69245444
vt 8.3433906e-2 0.90528236
vt 8.5429049e-2 0.75229831
vt 8.5429049e-2 0.84489823
vt 8.5429049e-2 0.75229831
vt 8.5429049e-2 0.84489823
vt 8.6193261e-2 0.68128656
vt 8.6193261e-2 0.70362232
vt 8.6395105e-2 0.89423102
vt 8.6395105e-2 0.91633370
vt 8.8784776e-2 0.69245444
vt 9.1029094e-2 0.68407853
vt 9.1029094e-2 0.70083035
vt 9.4368715e-2 0.67311111
vt 9.4368715e-2 0.71179777
vt 9.4485250e-2 0.88614087
vt 9.4485250e-2 0.92442385
vt 9.5482821e-2 0.84489823
vt 9.5482821e-2 0.75229831
vt 9.5482821e-2 0.84489823
vt 9.7160685e-2 0.67794694
vt 9.7160685e-2 0.70696194
vt 0.10553659 0.84489823
vt 0.10553659 0.67011869
vt 0.10553659 0.67570263
vt 0.10553659 0.69245444
vt 0.10553659 0.70920626
vt 0.10553659 0.71479020
vt 0.10553659 0.75229831
vt 0.10553659 0.84489823
vt 0.10553659 0.88317967
vt 0.10553659 0.92738504
vt 0.11391250 0.67794694
vt 0.11391250 0.70696194
vt 0.11559036 0.75229831
vt 0.11559036 0.84489823
vt 0.11559036 0.75229831
vt 0.11658794 0.88614087
vt 0.11658794 0.92442385
vt 0.11670447 0.67311111
vt 0.11670447 0.71179777
vt 0.12004409 0.68407853
vt 0.12004409 0.70083035
vt 0.12228841 0.69245444
vt 0.12467808 0.89423102
vt 0.12467808 0.91633370
vt 0.12487992 0.68128656
vt 0.12487992 0.70362232
vt 0.12564414 0.75229831
vt 0.12564414 0.84489823
vt 0.12763928 0.90528236
vt 0.12787235 0.69245444
vt 0.13569791 0.84489823
vt 0.13569791 0.75229831
vt 0.13569791 0.84489823
vn -1.0636808e-16 2.1805457e-16 -1.00000000
vn 5.7824116e-17 4.6259293e-17 1.00000000
vn 1.00000000 2.5861218e-16 -1.0842022e-18
vn 1.00000000 2.5861218e-16 -1.0842022e-18
vn 5.7824116e-17 4.6259293e-17 1.00000000
vn 0.86602540 -0.50000000 2.7105054e-17
vn 0.86602540 -0.50000000 2.7105054e-17
vn 5.7824116e-17 4.6259293e-17 1.00000000
vn 0.50000000 -0.86602540 5.5294311e-17
vn 0.50000000 -0.86602540 5.5294311e-17
vn 5.7824116e-17 4.6259293e-17 1.00000000
vn 5.7469373e-17 -1.00000000 6.9388939e-17
vn 5.7469373e-17 -1.00000000 6.9388939e-17
vn 5.7824116e-17 4.6259293e-17 1.00000000
vn -0.50000000 -0.86602540 6.3967928e-17
vn -0.50000000 -0.86602540 6.3967928e-17
vn 5.7824116e-17 4.6259293e-17 1.00000000
vn -0.86602540 -0.50000000 3.4694470e-17
vn -0.86602540 -0.50000000 3.4694470e-17
vn 5.7824116e-17 4.6259293e-17 1.00000000
vn -1.00000000 -2.5861218e-16 1.0842022e-18
vn -1.00000000 -2.5861218e-16 1.0842022e-18
vn 5.7824116e-17 4.6259293e-17 1.00000000
vn -0.86602540 0.50000000 -2.0599841e-17
vn -0.86602540 0.50000000 -2.0599841e-17
vn 5.7824116e-17 4.6259293e-17 1.00000000
vn -0.50000000 0.86602540 -4.2283885e-17
vn -0.50000000 0.86602540 -4.2283885e-17
vn 5.7824116e-17 4.6259293e-17 1.00000000
vn -3.7355092e-16 1.00000000 -6.2883726e-17
vn -3.7355092e-16 1.00000000 -6.2883726e-17
vn 5.7824116e-17 4.6259293e-17 1.00000000
vn 0.50000000 0.86602540 -6.1799524e-17
vn 0.50000000 0.86602540 -6.1799524e-17
vn 5.7824116e-17 4.6259293e-17 1.00000000
vn 0.86602540 0.50000000 -3.2526065e-17
vn 0.86602540 0.50000000 -3.2526065e-17
vn 1.00000000 2.5861218e-16 -1.0842022e-18
vn 1.00000000 2.5861218e-16 -1.0842022e-18
vn 0.0000000e+0 0.0000000e+0 -1.00000000
vn 0.0000000e+0 0.0000000e+0 -1.00000000
vn 0.86602540 -0.50000000 2.7105054e-17
vn 0.86602540 -0.50000000 2.7105054e-17
vn 0.0000000e+0 0.0000000e+0 -1.00000000
vn 0.0000000e+0 0.0000000e+0 -1.00000000
vn 0.50000000 -0.86602540 5.5294311e-17
vn 0.50000000 -0.86602540 5.5294311e-17
vn 0.0000000e+0 0.0000000e+0 -1.00000000
vn 0.0000000e+0 0.0000000e+0 -1.00000000
vn 5.7469373e-17 -1.00000000 6.9388939e-17
vn 5.7469373e-17 -1.00000000 6.9388939e-17
vn 0.0000000e+0 0.0000000e+0 -1.00000000
vn 0.0000000e+0 0.0000000e+0 -1.00000000
vn -0.50000000 -0.86602540 6.3967928e-17
vn -0.50000000 -0.86602540 6.3967928e-17
vn 0.0000000e+0 0.0000000e+0 -1.00000000
vn 0.0000000e+0 0.0000000e+0 -1.00000000
vn -0.86602540 -0.50000000 3.4694470e-17
vn -0.86602540 -0.50000000 3.4694470e-17
vn 0.0000000e+0 0.0000000e+0 -1.00000000
vn 0.0000000e+0 0.0000000e+0 -1.00000000
vn -1.00000000 -2.5861218e-16 1.0842022e-18
vn -1.00000000 -2.5861218e-16 1.0842022e-18
vn 0.0000000e+0 0.0000000e+0 -1.00000000
vn 0.0000000e+0 0.0000000e+0 -1.00000000
vn -0.86602540 0.50000000 -2.0599841e-17
vn -0.86602540 0.50000000 -2.0599841e-17
vn 0.0000000e+0 0.0000000e+0 -1.00000000
vn 0.0000000e+0 0.0000000e+0 -1.00000000
vn -0.50000000 0.86602540 -4.2283885e-17
vn -0.50000000 0.86602540 -4.2283885e-17
vn 0.0000000e+0 0.0000000e+0 -1.00000000
vn 0.0000000e+0 0.0000000e+0 -1.00000000
vn -3.7355092e-16 1.00000000 -6.2883726e-17
vn -3.7355092e-16 1.00000000 -6.2883726e-17
vn 0.0000000e+0 0.0000000e+0 -1.00000000
vn 0.0000000e+0 0.0000000e+0 -1.00000000
vn 0.50000000 0.86602540 -6.1799524e-17
vn 0.50000000 0.86602540 -6.1799524e-17
vn 0.0000000e+0 0.0000000e+0 -1.00000000
vn 0.0000000e+0 0.0000000e+0 -1.00000000
vn 0.86602540 0.50000000 -3.2526065e-17
vn 0.86602540 0.50000000 -3.2526065e-17
vn 0.0000000e+0 0.0000000e+0 -1.00000000
vn 0.0000000e+0 0.0000000e+0 -1.00000000
vn 0.0000000e+0 0.0000000e+0 -1.00000000
vn 0.0000000e+0 0.0000000e+0 -1.00000000
vn -0.89442719 -1.8552008e-16 -0.44721360
vn -0.89442719 -1.8552008e-16 -0.44721360
vn 0.0000000e+0 0.0000000e+0 -1.00000000
vn 0.0000000e+0 0.0000000e+0 -1.00000000
vn -0.77459667 0.44721360 -0.44721360
vn -0.77459667 0.44721360 -0.44721360
vn 0.0000000e+0 0.0000000e+0 -1.00000000
vn 0.0000000e+0 0.0000000e+0 -1.00000000
vn -0.44721360 0.77459667 -0.44721360
vn -0.44721360 0.77459667 -0.44721360
vn 0.0000000e+0 0.0000000e+0 -1.00000000
vn 0.0000000e+0 0.0000000e+0 -1.00000000
vn 2.8541551e-17 0.89442719 -0.44721360
vn 2.8541551e-17 0.89442719 -0.44721360
vn 0.0000000e+0 0.0000000e+0 -1.00000000
vn 0.0000000e+0 0.0000000e+0 -1.00000000
vn 0.44721360 0.77459667 -0.44721360
vn 0.44721360 0.77459667 -0.44721360
vn 0.0000000e+0 0.0000000e+0 -1.00000000
vn 0.0000000e+0 0.0000000e+0 -1.00000000
vn 0.77459667 0.44721360 -0.44721360
vn 0.77459667 0.44721360 -0.44721360
vn 0.0000000e+0 0.0000000e+0 -1.00000000
vn 0.0000000e+0 0.0000000e+0 -1.00000000
vn 0.89442719 1.5697853e-16 -0.44721360
vn 0.89442719 1.5697853e-16 -0.44721360
vn 0.0000000e+0 0.0000000e+0 -1.00000000
vn 0.0000000e+0 0.0000000e+0 -1.00000000
vn 0.77459667 -0.44721360 -0.44721360
vn 0.77459667 -0.44721360 -0.44721360
vn 0.0000000e+0 0.0000000e+0 -1.00000000
vn 0.0000000e+0 0.0000000e+0 -1.00000000
vn 0.44721360 -0.77459667 -0.44721360
vn 0.44721360 -0.77459667 -0.44721360
vn 0.0000000e+0 0.0000000e+0 -1.00000000
vn 0.0000000e+0 0.0000000e+0 -1.00000000
vn 1.8552008e-16 -0.89442719 -0.44721360
vn 1.8552008e-16 -0.89442719 -0.44721360
vn 0.0000000e+0 0.0000000e+0 -1.00000000
vn 0.0000000e+0 0.0000000e+0 -1.00000000
vn -0.44721360 -0.77459667 -0.44721360
vn -0.44721360 -0.77459667 -0.44721360
vn 0.0000000e+0 0.0000000e+0 -1.00000000
vn 0.0000000e+0 0.0000000e+0 -1.00000000
vn -0.77459667 -0.44721360 -0.44721360
vn -0.77459667 -0.44721360 -0.44721360
g mesh_mesh_auv
usemtl mesh_auv
s 1
f 1/53/2 12/48/35 11/41/32 10/34/29 9/19/26 8/12/23 7/4/20 6/11/17 5/18/14 4/33/11 3/40/8 2/47/5
f 25/13/89 37/28/1 36/15/133
f 26/14/92 37/28/1 25/13/88
f 27/23/96 37/28/1 26/14/93
f 28/27/100 37/28/1 27/23/97
f 29/35/104 37/28/1 28/27/101
f 30/44/108 37/28/1 29/35/105
f 31/46/112 37/28/1 30/44/109
f 32/45/116 37/28/1 31/46/113
f 33/36/120 37/28/1 32/45/117
f 34/29/124 37/28/1 33/36/121
f 35/24/128 37/28/1 34/29/125
f 36/15/132 37/28/1 35/24/129
s 2
f 1/31/3 13/25/38 24/38/82 12/37/36
f 2/21/7 14/20/43 13/25/39 1/31/4
f 3/7/10 15/6/47 14/20/42 2/21/6
f 4/2/13 16/1/51 15/6/46 3/7/9
f 5/5/16 17/8/55 16/1/50 4/2/12
f 6/21/19 18/22/59 17/8/54 5/5/15
f 7/31/22 19/32/63 18/22/58 6/21/18
f 8/39/25 20/38/67 19/32/62 7/31/21
f 9/51/28 21/52/71 20/38/66 8/39/24
f 10/56/31 22/55/75 21/52/70 9/51/27
f 11/51/34 23/52/79 22/57/74 10/56/30
f 12/37/37 24/38/83 23/52/78 11/51/33
s 3
f 13/3/41 25/13/87 36/15/131 24/10/85
f 14/9/44 26/14/90 25/13/86 13/3/40
f 15/16/48 27/23/94 26/14/91 14/9/45
f 16/26/52 28/27/98 27/23/95 15/16/49
f 17/42/56 29/35/102 28/27/99 16/26/53
f 18/49/60 30/44/106 29/35/103 17/42/57
f 19/54/64 31/46/110 30/44/107 18/49/61
f 20/50/68 32/45/114 31/46/111 19/54/65
f 21/43/72 33/36/118 32/45/115 20/50/69
f 22/30/76 34/29/122 33/36/119 21/43/73
f 23/17/80 35/24/126 34/29/123 22/30/77
f 24/10/84 36/15/130 35/24/127 23/17/81
