# Exported from Wings 3D 1.5.4
mtllib octans_basic_rcs_srf_2.mtl
o mesh
#74 vertices, 74 faces
v 2.5000000e-2 2.5000000e-2 2.5000000e-2
v 2.1650635e-2 1.2500000e-2 2.5000000e-2
v 1.2500000e-2 3.3493649e-3 2.5000000e-2
v -8.8674812e-17 6.9388939e-18 2.5000000e-2
v -1.2500000e-2 3.3493649e-3 2.5000000e-2
v -2.1650635e-2 1.2500000e-2 2.5000000e-2
v -2.5000000e-2 2.5000000e-2 2.5000000e-2
v -2.1650635e-2 3.7500000e-2 2.5000000e-2
v -1.2500000e-2 4.6650635e-2 2.5000000e-2
v -9.4798046e-17 5.0000000e-2 2.5000000e-2
v 1.2500000e-2 4.6650635e-2 2.5000000e-2
v 2.1650635e-2 3.7500000e-2 2.5000000e-2
v 2.5000000e-2 2.5000000e-2 -0.10000000
v 2.1650635e-2 1.2500000e-2 -0.10000000
v 1.2500000e-2 3.3493649e-3 -0.10000000
v -9.0120415e-17 0.0000000e+0 -0.10000000
v -1.2500000e-2 3.3493649e-3 -0.10000000
v -2.1650635e-2 1.2500000e-2 -0.10000000
v -2.5000000e-2 2.5000000e-2 -0.10000000
v -2.1650635e-2 3.7500000e-2 -0.10000000
v -1.2500000e-2 4.6650635e-2 -0.10000000
v -9.6243649e-17 5.0000000e-2 -0.10000000
v 1.2500000e-2 4.6650635e-2 -0.10000000
v 2.1650635e-2 3.7500000e-2 -0.10000000
v 1.8750000e-2 2.5000000e-2 -0.10000000
v 1.6237976e-2 1.5625000e-2 -0.10000000
v 9.3750000e-3 8.7620237e-3 -0.10000000
v -9.0936798e-17 6.2500000e-3 -0.10000000
v -9.3750000e-3 8.7620237e-3 -0.10000000
v -1.6237976e-2 1.5625000e-2 -0.10000000
v -1.8750000e-2 2.5000000e-2 -0.10000000
v -1.6237976e-2 3.4375000e-2 -0.10000000
v -9.3750000e-3 4.1237976e-2 -0.10000000
v -9.5529224e-17 4.3750000e-2 -0.10000000
v 9.3750000e-3 4.1237976e-2 -0.10000000
v 1.6237976e-2 3.4375000e-2 -0.10000000
v -8.2688486e-17 2.5000000e-2 -6.2500000e-2
v 2.5000000e-2 -2.5000000e-2 2.5000000e-2
v 2.1650635e-2 -1.2500000e-2 2.5000000e-2
v 1.2500000e-2 -3.3493649e-3 2.5000000e-2
v -8.8674812e-17 -6.9388939e-18 2.5000000e-2
v -1.2500000e-2 -3.3493649e-3 2.5000000e-2
v -2.1650635e-2 -1.2500000e-2 2.5000000e-2
v -2.5000000e-2 -2.5000000e-2 2.5000000e-2
v -2.1650635e-2 -3.7500000e-2 2.5000000e-2
v -1.2500000e-2 -4.6650635e-2 2.5000000e-2
v -9.4798046e-17 -5.0000000e-2 2.5000000e-2
v 1.2500000e-2 -4.6650635e-2 2.5000000e-2
v 2.1650635e-2 -3.7500000e-2 2.5000000e-2
v 2.5000000e-2 -2.5000000e-2 -0.10000000
v 2.1650635e-2 -1.2500000e-2 -0.10000000
v 1.2500000e-2 -3.3493649e-3 -0.10000000
v -9.0120415e-17 0.0000000e+0 -0.10000000
v -1.2500000e-2 -3.3493649e-3 -0.10000000
v -2.1650635e-2 -1.2500000e-2 -0.10000000
v -2.5000000e-2 -2.5000000e-2 -0.10000000
v -2.1650635e-2 -3.7500000e-2 -0.10000000
v -1.2500000e-2 -4.6650635e-2 -0.10000000
v -9.6243649e-17 -5.0000000e-2 -0.10000000
v 1.2500000e-2 -4.6650635e-2 -0.10000000
v 2.1650635e-2 -3.7500000e-2 -0.10000000
v 1.8750000e-2 -2.5000000e-2 -0.10000000
v 1.6237976e-2 -1.5625000e-2 -0.10000000
v 9.3750000e-3 -8.7620237e-3 -0.10000000
v -9.0936798e-17 -6.2500000e-3 -0.10000000
v -9.3750000e-3 -8.7620237e-3 -0.10000000
v -1.6237976e-2 -1.5625000e-2 -0.10000000
v -1.8750000e-2 -2.5000000e-2 -0.10000000
v -1.6237976e-2 -3.4375000e-2 -0.10000000
v -9.3750000e-3 -4.1237976e-2 -0.10000000
v -9.5529224e-17 -4.3750000e-2 -0.10000000
v 9.3750000e-3 -4.1237976e-2 -0.10000000
v 1.6237976e-2 -3.4375000e-2 -0.10000000
v -8.2688486e-17 -2.5000000e-2 -6.2500000e-2
vt 7.5375277e-2 0.63374743
vt 7.5375277e-2 0.54114750
vt 8.3200837e-2 0.69245444
vt 8.3433906e-2 0.90528236
vt 8.5429049e-2 0.54114750
vt 8.5429049e-2 0.63374743
vt 8.5429049e-2 0.54114750
vt 8.5429049e-2 0.63374743
vt 8.6193261e-2 0.68128656
vt 8.6193261e-2 0.70362232
vt 8.6395105e-2 0.89423102
vt 8.6395105e-2 0.91633370
vt 8.8784776e-2 0.69245444
vt 9.1029094e-2 0.68407853
vt 9.1029094e-2 0.70083035
vt 9.4368715e-2 0.67311111
vt 9.4368715e-2 0.71179777
vt 9.4485250e-2 0.88614087
vt 9.4485250e-2 0.92442385
vt 9.5482821e-2 0.63374743
vt 9.5482821e-2 0.54114750
vt 9.5482821e-2 0.63374743
vt 9.7160685e-2 0.67794694
vt 9.7160685e-2 0.70696194
vt 0.10553659 0.63374743
vt 0.10553659 0.54114750
vt 0.10553659 0.63374743
vt 0.10553659 0.67011869
vt 0.10553659 0.67570263
vt 0.10553659 0.69245444
vt 0.10553659 0.70920626
vt 0.10553659 0.71479020
vt 0.10553659 0.88317967
vt 0.10553659 0.92738504
vt 0.11391250 0.67794694
vt 0.11391250 0.70696194
vt 0.11559036 0.54114750
vt 0.11559036 0.63374743
vt 0.11559036 0.54114750
vt 0.11658794 0.88614087
vt 0.11658794 0.92442385
vt 0.11670447 0.67311111
vt 0.11670447 0.71179777
vt 0.12004409 0.68407853
vt 0.12004409 0.70083035
vt 0.12228841 0.69245444
vt 0.12467808 0.89423102
vt 0.12467808 0.91633370
vt 0.12487992 0.68128656
vt 0.12487992 0.70362232
vt 0.12564414 0.54114750
vt 0.12564414 0.63374743
vt 0.12763928 0.90528236
vt 0.12787235 0.69245444
vt 0.13569791 0.63374743
vt 0.13569791 0.54114750
vt 0.13569791 0.63374743
vn 1.0636808e-16 -3.7228829e-17 -1.00000000
vn 1.0636808e-16 3.7228829e-17 -1.00000000
vn -8.6736174e-17 4.6259293e-17 1.00000000
vn 1.00000000 2.8734686e-16 -1.0842022e-18
vn 1.00000000 2.8734686e-16 -1.0842022e-18
vn -8.6736174e-17 4.6259293e-17 1.00000000
vn 0.86602540 -0.50000000 2.8189256e-17
vn 0.86602540 -0.50000000 2.8189256e-17
vn -8.6736174e-17 4.6259293e-17 1.00000000
vn 0.50000000 -0.86602540 5.5294311e-17
vn 0.50000000 -0.86602540 5.5294311e-17
vn -8.6736174e-17 4.6259293e-17 1.00000000
vn 5.7469373e-17 -1.00000000 6.9388939e-17
vn 5.7469373e-17 -1.00000000 6.9388939e-17
vn -8.6736174e-17 4.6259293e-17 1.00000000
vn -0.50000000 -0.86602540 6.3967928e-17
vn -0.50000000 -0.86602540 6.3967928e-17
vn -8.6736174e-17 4.6259293e-17 1.00000000
vn -0.86602540 -0.50000000 3.5778672e-17
vn -0.86602540 -0.50000000 3.5778672e-17
vn -8.6736174e-17 4.6259293e-17 1.00000000
vn -1.00000000 -2.5861218e-16 -7.9754776e-33
vn -1.00000000 -2.5861218e-16 -7.9754776e-33
vn -8.6736174e-17 4.6259293e-17 1.00000000
vn -0.86602540 0.50000000 -2.4936650e-17
vn -0.86602540 0.50000000 -2.4936650e-17
vn -8.6736174e-17 4.6259293e-17 1.00000000
vn -0.50000000 0.86602540 -3.0357661e-17
vn -0.50000000 0.86602540 -3.0357661e-17
vn -8.6736174e-17 4.6259293e-17 1.00000000
vn -3.1608155e-16 1.00000000 -2.8189256e-17
vn -3.1608155e-16 1.00000000 -2.8189256e-17
vn -8.6736174e-17 4.6259293e-17 1.00000000
vn 0.50000000 0.86602540 -3.6862874e-17
vn 0.50000000 0.86602540 -3.6862874e-17
vn -8.6736174e-17 4.6259293e-17 1.00000000
vn 0.86602540 0.50000000 -2.9273459e-17
vn 0.86602540 0.50000000 -2.9273459e-17
vn 1.00000000 2.8734686e-16 -1.0842022e-18
vn 1.00000000 2.8734686e-16 -1.0842022e-18
vn 0.0000000e+0 0.0000000e+0 -1.00000000
vn 0.0000000e+0 0.0000000e+0 -1.00000000
vn 0.86602540 -0.50000000 2.8189256e-17
vn 0.86602540 -0.50000000 2.8189256e-17
vn 0.0000000e+0 0.0000000e+0 -1.00000000
vn 0.0000000e+0 0.0000000e+0 -1.00000000
vn 0.50000000 -0.86602540 5.5294311e-17
vn 0.50000000 -0.86602540 5.5294311e-17
vn 0.0000000e+0 0.0000000e+0 -1.00000000
vn 0.0000000e+0 0.0000000e+0 -1.00000000
vn 5.7469373e-17 -1.00000000 6.9388939e-17
vn 5.7469373e-17 -1.00000000 6.9388939e-17
vn 0.0000000e+0 0.0000000e+0 -1.00000000
vn 0.0000000e+0 0.0000000e+0 -1.00000000
vn -0.50000000 -0.86602540 6.3967928e-17
vn -0.50000000 -0.86602540 6.3967928e-17
vn 0.0000000e+0 0.0000000e+0 -1.00000000
vn 0.0000000e+0 0.0000000e+0 -1.00000000
vn -0.86602540 -0.50000000 3.5778672e-17
vn -0.86602540 -0.50000000 3.5778672e-17
vn 0.0000000e+0 0.0000000e+0 -1.00000000
vn 0.0000000e+0 0.0000000e+0 -1.00000000
vn -1.00000000 -2.5861218e-16 -7.9754776e-33
vn -1.00000000 -2.5861218e-16 -7.9754776e-33
vn 0.0000000e+0 0.0000000e+0 -1.00000000
vn 0.0000000e+0 0.0000000e+0 -1.00000000
vn -0.86602540 0.50000000 -2.4936650e-17
vn -0.86602540 0.50000000 -2.4936650e-17
vn 0.0000000e+0 0.0000000e+0 -1.00000000
vn 0.0000000e+0 0.0000000e+0 -1.00000000
vn -0.50000000 0.86602540 -3.0357661e-17
vn -0.50000000 0.86602540 -3.0357661e-17
vn 0.0000000e+0 0.0000000e+0 -1.00000000
vn 0.0000000e+0 0.0000000e+0 -1.00000000
vn -3.1608155e-16 1.00000000 -2.8189256e-17
vn -3.1608155e-16 1.00000000 -2.8189256e-17
vn 0.0000000e+0 0.0000000e+0 -1.00000000
vn 0.0000000e+0 0.0000000e+0 -1.00000000
vn 0.50000000 0.86602540 -3.6862874e-17
vn 0.50000000 0.86602540 -3.6862874e-17
vn 0.0000000e+0 0.0000000e+0 -1.00000000
vn 0.0000000e+0 0.0000000e+0 -1.00000000
vn 0.86602540 0.50000000 -2.9273459e-17
vn 0.86602540 0.50000000 -2.9273459e-17
vn 0.0000000e+0 0.0000000e+0 -1.00000000
vn 0.0000000e+0 0.0000000e+0 -1.00000000
vn 0.0000000e+0 0.0000000e+0 -1.00000000
vn 0.0000000e+0 0.0000000e+0 -1.00000000
vn -0.89442719 -1.7124931e-16 -0.44721360
vn -0.89442719 -1.7124931e-16 -0.44721360
vn 0.0000000e+0 0.0000000e+0 -1.00000000
vn 0.0000000e+0 0.0000000e+0 -1.00000000
vn -0.77459667 0.44721360 -0.44721360
vn -0.77459667 0.44721360 -0.44721360
vn 0.0000000e+0 0.0000000e+0 -1.00000000
vn 0.0000000e+0 0.0000000e+0 -1.00000000
vn -0.44721360 0.77459667 -0.44721360
vn -0.44721360 0.77459667 -0.44721360
vn 0.0000000e+0 0.0000000e+0 -1.00000000
vn 0.0000000e+0 0.0000000e+0 -1.00000000
vn 4.2812327e-17 0.89442719 -0.44721360
vn 4.2812327e-17 0.89442719 -0.44721360
vn 0.0000000e+0 0.0000000e+0 -1.00000000
vn 0.0000000e+0 0.0000000e+0 -1.00000000
vn 0.44721360 0.77459667 -0.44721360
vn 0.44721360 0.77459667 -0.44721360
vn 0.0000000e+0 0.0000000e+0 -1.00000000
vn 0.0000000e+0 0.0000000e+0 -1.00000000
vn 0.77459667 0.44721360 -0.44721360
vn 0.77459667 0.44721360 -0.44721360
vn 0.0000000e+0 0.0000000e+0 -1.00000000
vn 0.0000000e+0 0.0000000e+0 -1.00000000
vn 0.89442719 2.8541551e-16 -0.44721360
vn 0.89442719 2.8541551e-16 -0.44721360
vn 0.0000000e+0 0.0000000e+0 -1.00000000
vn 0.0000000e+0 0.0000000e+0 -1.00000000
vn 0.77459667 -0.44721360 -0.44721360
vn 0.77459667 -0.44721360 -0.44721360
vn 0.0000000e+0 0.0000000e+0 -1.00000000
vn 0.0000000e+0 0.0000000e+0 -1.00000000
vn 0.44721360 -0.77459667 -0.44721360
vn 0.44721360 -0.77459667 -0.44721360
vn 0.0000000e+0 0.0000000e+0 -1.00000000
vn 0.0000000e+0 0.0000000e+0 -1.00000000
vn -9.9895430e-17 -0.89442719 -0.44721360
vn -9.9895430e-17 -0.89442719 -0.44721360
vn 0.0000000e+0 0.0000000e+0 -1.00000000
vn 0.0000000e+0 0.0000000e+0 -1.00000000
vn -0.44721360 -0.77459667 -0.44721360
vn -0.44721360 -0.77459667 -0.44721360
vn 0.0000000e+0 0.0000000e+0 -1.00000000
vn 0.0000000e+0 0.0000000e+0 -1.00000000
vn -0.77459667 -0.44721360 -0.44721360
vn -0.77459667 -0.44721360 -0.44721360
vn -5.7824116e-17 -4.6259293e-17 1.00000000
vn 1.00000000 -2.8734686e-16 -1.0842022e-18
vn 1.00000000 -2.8734686e-16 -1.0842022e-18
vn -5.7824116e-17 -4.6259293e-17 1.00000000
vn 0.86602540 0.50000000 2.8189256e-17
vn 0.86602540 0.50000000 2.8189256e-17
vn -5.7824116e-17 -4.6259293e-17 1.00000000
vn 0.50000000 0.86602540 5.5294311e-17
vn 0.50000000 0.86602540 5.5294311e-17
vn -5.7824116e-17 -4.6259293e-17 1.00000000
vn 5.7469373e-17 1.00000000 6.9388939e-17
vn 5.7469373e-17 1.00000000 6.9388939e-17
vn -5.7824116e-17 -4.6259293e-17 1.00000000
vn -0.50000000 0.86602540 6.3967928e-17
vn -0.50000000 0.86602540 6.3967928e-17
vn -5.7824116e-17 -4.6259293e-17 1.00000000
vn -0.86602540 0.50000000 3.5778672e-17
vn -0.86602540 0.50000000 3.5778672e-17
vn -5.7824116e-17 -4.6259293e-17 1.00000000
vn -1.00000000 2.5861218e-16 -7.9754776e-33
vn -1.00000000 2.5861218e-16 -7.9754776e-33
vn -5.7824116e-17 -4.6259293e-17 1.00000000
vn -0.86602540 -0.50000000 -2.4936650e-17
vn -0.86602540 -0.50000000 -2.4936650e-17
vn -5.7824116e-17 -4.6259293e-17 1.00000000
vn -0.50000000 -0.86602540 -3.0357661e-17
vn -0.50000000 -0.86602540 -3.0357661e-17
vn -5.7824116e-17 -4.6259293e-17 1.00000000
vn -3.1608155e-16 -1.00000000 -2.8189256e-17
vn -3.1608155e-16 -1.00000000 -2.8189256e-17
vn -5.7824116e-17 -4.6259293e-17 1.00000000
vn 0.50000000 -0.86602540 -3.6862874e-17
vn 0.50000000 -0.86602540 -3.6862874e-17
vn -5.7824116e-17 -4.6259293e-17 1.00000000
vn 0.86602540 -0.50000000 -2.9273459e-17
vn 0.86602540 -0.50000000 -2.9273459e-17
vn 1.00000000 -2.8734686e-16 -1.0842022e-18
vn 1.00000000 -2.8734686e-16 -1.0842022e-18
vn 0.0000000e+0 0.0000000e+0 -1.00000000
vn 0.0000000e+0 0.0000000e+0 -1.00000000
vn 0.86602540 0.50000000 2.8189256e-17
vn 0.86602540 0.50000000 2.8189256e-17
vn 0.0000000e+0 0.0000000e+0 -1.00000000
vn 0.0000000e+0 0.0000000e+0 -1.00000000
vn 0.50000000 0.86602540 5.5294311e-17
vn 0.50000000 0.86602540 5.5294311e-17
vn 0.0000000e+0 0.0000000e+0 -1.00000000
vn 0.0000000e+0 0.0000000e+0 -1.00000000
vn 5.7469373e-17 1.00000000 6.9388939e-17
vn 5.7469373e-17 1.00000000 6.9388939e-17
vn 0.0000000e+0 0.0000000e+0 -1.00000000
vn 0.0000000e+0 0.0000000e+0 -1.00000000
vn -0.50000000 0.86602540 6.3967928e-17
vn -0.50000000 0.86602540 6.3967928e-17
vn 0.0000000e+0 0.0000000e+0 -1.00000000
vn 0.0000000e+0 0.0000000e+0 -1.00000000
vn -0.86602540 0.50000000 3.5778672e-17
vn -0.86602540 0.50000000 3.5778672e-17
vn 0.0000000e+0 0.0000000e+0 -1.00000000
vn 0.0000000e+0 0.0000000e+0 -1.00000000
vn -1.00000000 2.5861218e-16 -7.9754776e-33
vn -1.00000000 2.5861218e-16 -7.9754776e-33
vn 0.0000000e+0 0.0000000e+0 -1.00000000
vn 0.0000000e+0 0.0000000e+0 -1.00000000
vn -0.86602540 -0.50000000 -2.4936650e-17
vn -0.86602540 -0.50000000 -2.4936650e-17
vn 0.0000000e+0 0.0000000e+0 -1.00000000
vn 0.0000000e+0 0.0000000e+0 -1.00000000
vn -0.50000000 -0.86602540 -3.0357661e-17
vn -0.50000000 -0.86602540 -3.0357661e-17
vn 0.0000000e+0 0.0000000e+0 -1.00000000
vn 0.0000000e+0 0.0000000e+0 -1.00000000
vn -3.1608155e-16 -1.00000000 -2.8189256e-17
vn -3.1608155e-16 -1.00000000 -2.8189256e-17
vn 0.0000000e+0 0.0000000e+0 -1.00000000
vn 0.0000000e+0 0.0000000e+0 -1.00000000
vn 0.50000000 -0.86602540 -3.6862874e-17
vn 0.50000000 -0.86602540 -3.6862874e-17
vn 0.0000000e+0 0.0000000e+0 -1.00000000
vn 0.0000000e+0 0.0000000e+0 -1.00000000
vn 0.86602540 -0.50000000 -2.9273459e-17
vn 0.86602540 -0.50000000 -2.9273459e-17
vn 0.0000000e+0 0.0000000e+0 -1.00000000
vn 0.0000000e+0 0.0000000e+0 -1.00000000
vn 0.0000000e+0 0.0000000e+0 -1.00000000
vn 0.0000000e+0 0.0000000e+0 -1.00000000
vn -0.89442719 1.7124931e-16 -0.44721360
vn -0.89442719 1.7124931e-16 -0.44721360
vn 0.0000000e+0 0.0000000e+0 -1.00000000
vn 0.0000000e+0 0.0000000e+0 -1.00000000
vn -0.77459667 -0.44721360 -0.44721360
vn -0.77459667 -0.44721360 -0.44721360
vn 0.0000000e+0 0.0000000e+0 -1.00000000
vn 0.0000000e+0 0.0000000e+0 -1.00000000
vn -0.44721360 -0.77459667 -0.44721360
vn -0.44721360 -0.77459667 -0.44721360
vn 0.0000000e+0 0.0000000e+0 -1.00000000
vn 0.0000000e+0 0.0000000e+0 -1.00000000
vn 4.2812327e-17 -0.89442719 -0.44721360
vn 4.2812327e-17 -0.89442719 -0.44721360
vn 0.0000000e+0 0.0000000e+0 -1.00000000
vn 0.0000000e+0 0.0000000e+0 -1.00000000
vn 0.44721360 -0.77459667 -0.44721360
vn 0.44721360 -0.77459667 -0.44721360
vn 0.0000000e+0 0.0000000e+0 -1.00000000
vn 0.0000000e+0 0.0000000e+0 -1.00000000
vn 0.77459667 -0.44721360 -0.44721360
vn 0.77459667 -0.44721360 -0.44721360
vn 0.0000000e+0 0.0000000e+0 -1.00000000
vn 0.0000000e+0 0.0000000e+0 -1.00000000
vn 0.89442719 -2.8541551e-16 -0.44721360
vn 0.89442719 -2.8541551e-16 -0.44721360
vn 0.0000000e+0 0.0000000e+0 -1.00000000
vn 0.0000000e+0 0.0000000e+0 -1.00000000
vn 0.77459667 0.44721360 -0.44721360
vn 0.77459667 0.44721360 -0.44721360
vn 0.0000000e+0 0.0000000e+0 -1.00000000
vn 0.0000000e+0 0.0000000e+0 -1.00000000
vn 0.44721360 0.77459667 -0.44721360
vn 0.44721360 0.77459667 -0.44721360
vn 0.0000000e+0 0.0000000e+0 -1.00000000
vn 0.0000000e+0 0.0000000e+0 -1.00000000
vn -9.9895430e-17 0.89442719 -0.44721360
vn -9.9895430e-17 0.89442719 -0.44721360
vn 0.0000000e+0 0.0000000e+0 -1.00000000
vn 0.0000000e+0 0.0000000e+0 -1.00000000
vn -0.44721360 0.77459667 -0.44721360
vn -0.44721360 0.77459667 -0.44721360
vn 0.0000000e+0 0.0000000e+0 -1.00000000
vn 0.0000000e+0 0.0000000e+0 -1.00000000
vn -0.77459667 0.44721360 -0.44721360
vn -0.77459667 0.44721360 -0.44721360
g mesh_mesh_auv
usemtl mesh_auv
s 1
f 1/53/3 12/48/36 11/41/33 10/34/30 9/19/27 8/12/24 7/4/21 6/11/18 5/18/15 4/33/12 3/40/9 2/47/6
f 25/13/90 37/30/1 36/15/134
f 26/14/93 37/30/1 25/13/89
f 27/23/97 37/30/1 26/14/94
f 28/29/101 37/30/1 27/23/98
f 29/35/105 37/30/1 28/29/102
f 30/44/109 37/30/1 29/35/106
f 31/46/113 37/30/1 30/44/110
f 32/45/117 37/30/1 31/46/114
f 33/36/121 37/30/1 32/45/118
f 34/31/125 37/30/1 33/36/122
f 35/24/129 37/30/1 34/31/126
f 36/15/133 37/30/1 35/24/130
f 39/47/138 40/40/141 41/33/144 42/18/147 43/11/150 44/4/153 45/12/156 46/19/159 47/34/162 48/41/165 49/48/168 38/53/135
f 62/13/221 74/30/2 63/14/225
f 63/14/226 74/30/2 64/23/229
f 64/23/230 74/30/2 65/29/233
f 65/29/234 74/30/2 66/35/237
f 66/35/238 74/30/2 67/44/241
f 67/44/242 74/30/2 68/46/245
f 68/46/246 74/30/2 69/45/249
f 69/45/250 74/30/2 70/36/253
f 70/36/254 74/30/2 71/31/257
f 71/31/258 74/30/2 72/24/261
f 72/24/262 74/30/2 73/15/265
f 73/15/266 74/30/2 62/13/222
s 2
f 1/26/4 13/25/39 24/38/83 12/37/37
f 2/21/8 14/20/44 13/25/40 1/26/5
f 3/7/11 15/6/48 14/20/43 2/21/7
f 4/2/14 16/1/52 15/6/47 3/7/10
f 5/5/17 17/8/56 16/1/51 4/2/13
f 6/21/20 18/22/60 17/8/55 5/5/16
f 7/26/23 19/27/64 18/22/59 6/21/19
f 8/39/26 20/38/68 19/27/63 7/26/22
f 9/51/29 21/52/72 20/38/67 8/39/25
f 10/56/32 22/55/76 21/52/71 9/51/28
f 11/51/35 23/52/80 22/57/75 10/56/31
f 12/37/38 24/38/84 23/52/79 11/51/34
f 50/3/173 62/13/219 63/14/223 51/9/177
f 51/9/178 63/14/224 64/23/227 52/16/181
f 52/16/182 64/23/228 65/29/231 53/28/185
f 53/28/186 65/29/232 66/35/235 54/42/189
f 54/42/190 66/35/236 67/44/239 55/49/193
f 55/49/194 67/44/240 68/46/243 56/54/197
f 56/54/198 68/46/244 69/45/247 57/50/201
f 57/50/202 69/45/248 70/36/251 58/43/205
f 58/43/206 70/36/252 71/31/255 59/32/209
f 59/32/210 71/31/256 72/24/259 60/17/213
f 60/17/214 72/24/260 73/15/263 61/10/217
f 61/10/218 73/15/264 62/13/220 50/3/174
s 3
f 13/3/42 25/13/88 36/15/132 24/10/86
f 14/9/45 26/14/91 25/13/87 13/3/41
f 15/16/49 27/23/95 26/14/92 14/9/46
f 16/28/53 28/29/99 27/23/96 15/16/50
f 17/42/57 29/35/103 28/29/100 16/28/54
f 18/49/61 30/44/107 29/35/104 17/42/58
f 19/54/65 31/46/111 30/44/108 18/49/62
f 20/50/69 32/45/115 31/46/112 19/54/66
f 21/43/73 33/36/119 32/45/116 20/50/70
f 22/32/77 34/31/123 33/36/120 21/43/74
f 23/17/81 35/24/127 34/31/124 22/32/78
f 24/10/85 36/15/131 35/24/128 23/17/82
f 38/26/137 50/25/172 51/20/176 39/21/140
f 39/21/139 51/20/175 52/6/180 40/7/143
f 40/7/142 52/6/179 53/1/184 41/2/146
f 41/2/145 53/1/183 54/8/188 42/5/149
f 42/5/148 54/8/187 55/22/192 43/21/152
f 43/21/151 55/22/191 56/27/196 44/26/155
f 44/26/154 56/27/195 57/38/200 45/39/158
f 45/39/157 57/38/199 58/52/204 46/51/161
f 46/51/160 58/52/203 59/55/208 47/56/164
f 47/56/163 59/57/207 60/52/212 48/51/167
f 48/51/166 60/52/211 61/38/216 49/37/170
f 49/37/169 61/38/215 50/25/171 38/26/136
