# Exported from Wings 3D 1.5.4
mtllib rotanev_aeroshell_s2_s1p5_2_collider.mtl
o rotanev_aeroshell_s2_s1p5_2_collider
#8 vertices, 6 faces
v -0.25120237 0.62500000 -0.93750000
v 0.25120237 0.62500000 -0.93750000
v -0.33493649 -0.62500000 -1.25000000
v 0.33493649 -0.62500000 -1.25000000
v 0.23445554 0.62500000 -0.87500000
v -0.23445554 0.62500000 -0.87500000
v -0.31818967 -0.62500000 -1.18750000
v 0.31818967 -0.62500000 -1.18750000
vn 0.0000000e+0 0.24253563 -0.97014250
vn 0.0000000e+0 1.00000000 0.0000000e+0
vn -0.96592583 -8.5791447e-17 0.25881905
vn 0.0000000e+0 0.24253563 -0.97014250
vn 0.0000000e+0 1.00000000 0.0000000e+0
vn 0.96592583 -4.2895724e-17 0.25881905
vn 0.0000000e+0 0.24253563 -0.97014250
vn 0.0000000e+0 -1.00000000 0.0000000e+0
vn -0.96592583 -8.5791447e-17 0.25881905
vn 0.0000000e+0 0.24253563 -0.97014250
vn 0.0000000e+0 -1.00000000 0.0000000e+0
vn 0.96592583 -4.2895724e-17 0.25881905
vn 0.0000000e+0 1.00000000 0.0000000e+0
vn 0.0000000e+0 -0.24253563 0.97014250
vn 0.96592583 -4.2895724e-17 0.25881905
vn 0.0000000e+0 1.00000000 0.0000000e+0
vn 0.0000000e+0 -0.24253563 0.97014250
vn -0.96592583 -8.5791447e-17 0.25881905
vn 0.0000000e+0 -1.00000000 0.0000000e+0
vn 0.0000000e+0 -0.24253563 0.97014250
vn -0.96592583 -8.5791447e-17 0.25881905
vn 0.0000000e+0 -1.00000000 0.0000000e+0
vn 0.0000000e+0 -0.24253563 0.97014250
vn 0.96592583 -4.2895724e-17 0.25881905
g rotanev_aeroshell_s2_s1p5_2_collider_default
usemtl default
s 1
f 2//6 5//15 8//24 4//12
f 3//9 7//21 6//18 1//3
s 2
f 1//2 6//16 5//13 2//5
f 4//11 8//22 7//19 3//8
s 3
f 2//4 4//10 3//7 1//1
f 6//17 7//20 8//23 5//14
