# Exported from Wings 3D 1.5.4
mtllib eridani_solar_long_wide_extra_top.mtl
o mesh1
#80 vertices, 84 faces
v 1.2500000e-2 0.0000000e+0 -0.61250000
v 8.8388348e-3 8.8388348e-3 -0.61250000
v 1.7347235e-18 1.2500000e-2 -0.61250000
v -8.8388348e-3 8.8388348e-3 -0.61250000
v -1.2500000e-2 0.0000000e+0 -0.61250000
v -8.8388348e-3 -8.8388348e-3 -0.61250000
v -1.7347235e-18 -1.2500000e-2 -0.61250000
v 1.2500000e-2 0.0000000e+0 -0.68750000
v 8.8388348e-3 8.8388348e-3 -0.68750000
v 1.7347235e-18 1.2500000e-2 -0.68750000
v -8.8388348e-3 8.8388348e-3 -0.68750000
v -1.2500000e-2 0.0000000e+0 -0.68750000
v -8.8388348e-3 -8.8388348e-3 -0.68750000
v -1.7347235e-18 -1.2500000e-2 -0.68750000
v 0.0000000e+0 -3.4694470e-18 -0.61250000
v 0.0000000e+0 0.0000000e+0 -0.68750000
v -1.7347235e-17 -2.5000000e-2 -1.78750000
v -1.7347235e-17 -2.5000000e-2 -0.91250000
v -1.7347235e-17 0.0000000e+0 -1.78750000
v -1.7347235e-17 0.0000000e+0 -0.91250000
v 0.43750000 -2.5000000e-2 -1.78750000
v 0.43750000 -2.5000000e-2 -0.91250000
v 0.43750000 0.0000000e+0 -1.78750000
v 0.43750000 0.0000000e+0 -0.91250000
v 1.0408341e-17 -2.5000000e-2 -0.88750000
v 1.0408341e-17 -2.5000000e-2 -1.2500000e-2
v 1.0408341e-17 0.0000000e+0 -0.88750000
v 1.0408341e-17 0.0000000e+0 -1.2500000e-2
v 0.43750000 -2.5000000e-2 -0.88750000
v 0.43750000 -2.5000000e-2 -1.2500000e-2
v 0.43750000 0.0000000e+0 -0.88750000
v 0.43750000 0.0000000e+0 -1.2500000e-2
v 1.2500000e-2 0.0000000e+0 -1.58750000
v 8.8388348e-3 8.8388348e-3 -1.58750000
v 1.7347235e-18 1.2500000e-2 -1.58750000
v -8.8388348e-3 8.8388348e-3 -1.58750000
v -1.2500000e-2 0.0000000e+0 -1.58750000
v -8.8388348e-3 -8.8388348e-3 -1.58750000
v -1.7347235e-18 -1.2500000e-2 -1.58750000
v 1.2500000e-2 0.0000000e+0 -1.51250000
v 8.8388348e-3 8.8388348e-3 -1.51250000
v 1.7347235e-18 1.2500000e-2 -1.51250000
v -8.8388348e-3 8.8388348e-3 -1.51250000
v -1.2500000e-2 0.0000000e+0 -1.51250000
v -8.8388348e-3 -8.8388348e-3 -1.51250000
v -1.7347235e-18 -1.2500000e-2 -1.51250000
v 0.0000000e+0 -3.4694470e-18 -1.58750000
v 0.0000000e+0 0.0000000e+0 -1.51250000
v 1.2500000e-2 0.0000000e+0 -1.18750000
v 8.8388348e-3 8.8388348e-3 -1.18750000
v 1.7347235e-18 1.2500000e-2 -1.18750000
v -8.8388348e-3 8.8388348e-3 -1.18750000
v -1.2500000e-2 0.0000000e+0 -1.18750000
v -8.8388348e-3 -8.8388348e-3 -1.18750000
v -1.7347235e-18 -1.2500000e-2 -1.18750000
v 1.2500000e-2 0.0000000e+0 -1.11250000
v 8.8388348e-3 8.8388348e-3 -1.11250000
v 1.7347235e-18 1.2500000e-2 -1.11250000
v -8.8388348e-3 8.8388348e-3 -1.11250000
v -1.2500000e-2 0.0000000e+0 -1.11250000
v -8.8388348e-3 -8.8388348e-3 -1.11250000
v -1.7347235e-18 -1.2500000e-2 -1.11250000
v 0.0000000e+0 -3.4694470e-18 -1.18750000
v 0.0000000e+0 0.0000000e+0 -1.11250000
v 1.2500000e-2 0.0000000e+0 -0.21250000
v 8.8388348e-3 8.8388348e-3 -0.21250000
v 1.7347235e-18 1.2500000e-2 -0.21250000
v -8.8388348e-3 8.8388348e-3 -0.21250000
v -1.2500000e-2 0.0000000e+0 -0.21250000
v -8.8388348e-3 -8.8388348e-3 -0.21250000
v -1.7347235e-18 -1.2500000e-2 -0.21250000
v 1.2500000e-2 0.0000000e+0 -0.28750000
v 8.8388348e-3 8.8388348e-3 -0.28750000
v 1.7347235e-18 1.2500000e-2 -0.28750000
v -8.8388348e-3 8.8388348e-3 -0.28750000
v -1.2500000e-2 0.0000000e+0 -0.28750000
v -8.8388348e-3 -8.8388348e-3 -0.28750000
v -1.7347235e-18 -1.2500000e-2 -0.28750000
v 0.0000000e+0 -3.4694470e-18 -0.21250000
v 0.0000000e+0 0.0000000e+0 -0.28750000
vt 3.7216604e-2 0.61230059
vt 3.7216604e-2 0.95386983
vt 0.20800123 0.61230059
vt 0.20800123 0.95386983
vt 0.24800658 0.61230059
vt 0.24800658 0.95386983
vt 0.25776570 0.60254147
vt 0.25776570 0.61230059
vt 0.25776570 0.95386983
vt 0.25776570 0.96362896
vt 0.42855032 0.60254147
vt 0.42855032 0.96362896
vt 0.42855032 0.61230059
vt 0.42855032 0.95386983
vt 0.42855032 0.61230059
vt 0.42855032 0.95386983
vt 0.43830944 0.61230059
vt 0.43830944 0.95386983
vt 0.43830944 0.61230059
vt 0.43830944 0.95386983
vt 0.84177810 0.31118235
vt 0.84177810 0.34040722
vt 0.84550606 0.31118235
vt 0.84550606 0.34040722
vt 0.84923402 0.31118235
vt 0.84923402 0.34040722
vt 0.85296198 0.31118235
vt 0.85296198 0.34040722
vt 0.85668993 0.31118235
vt 0.85668993 0.34040722
vt 0.86041789 0.31118235
vt 0.86041789 0.34040722
vt 0.86414585 0.31118235
vt 0.86414585 0.34040722
vt 0.89490437 0.33553721
vt 0.89633100 0.33209302
vt 0.89633100 0.33898139
vt 0.89633100 0.33209302
vt 0.89633100 0.33898139
vt 0.89977519 0.33066640
vt 0.89977519 0.33553721
vt 0.89977519 0.34040802
vt 0.90321937 0.33209302
vt 0.90321937 0.33209302
vt 0.90464600 0.33553721
vn -2.6168208e-15 0.0000000e+0 1.00000000
vn -3.9252311e-15 2.0934566e-15 -1.00000000
vn 2.6168208e-15 0.0000000e+0 -1.00000000
vn -1.0518145e-30 4.1869132e-15 1.00000000
vn 0.0000000e+0 0.0000000e+0 -1.00000000
vn -2.6168208e-15 0.0000000e+0 1.00000000
vn -6.5420519e-16 0.0000000e+0 1.00000000
vn -1.9626156e-15 2.0934566e-15 -1.00000000
vn 0.92387953 0.38268343 0.0000000e+0
vn 0.0000000e+0 0.0000000e+0 1.00000000
vn 0.70710678 0.70710678 0.0000000e+0
vn 0.70710678 0.70710678 0.0000000e+0
vn -3.9252311e-15 0.0000000e+0 1.00000000
vn -3.9252311e-15 0.0000000e+0 1.00000000
vn 3.0042419e-17 1.00000000 0.0000000e+0
vn 3.0042419e-17 1.00000000 0.0000000e+0
vn 0.0000000e+0 0.0000000e+0 1.00000000
vn 0.0000000e+0 0.0000000e+0 1.00000000
vn -0.70710678 0.70710678 0.0000000e+0
vn -0.70710678 0.70710678 0.0000000e+0
vn 3.9252311e-15 0.0000000e+0 1.00000000
vn 3.9252311e-15 0.0000000e+0 1.00000000
vn -1.00000000 2.4033935e-16 -5.1109781e-18
vn -1.00000000 2.4033935e-16 -5.1109781e-18
vn -7.8504623e-15 0.0000000e+0 1.00000000
vn -7.8504623e-15 0.0000000e+0 1.00000000
vn -0.70710678 -0.70710678 -2.2999401e-17
vn -0.70710678 -0.70710678 -2.2999401e-17
vn -7.8504623e-15 0.0000000e+0 1.00000000
vn -7.8504623e-15 0.0000000e+0 1.00000000
vn -0.38268343 -0.92387953 -3.3053496e-17
vn 0.0000000e+0 0.0000000e+0 1.00000000
vn 0.92387953 0.38268343 0.0000000e+0
vn 1.5700925e-14 3.6789555e-15 -1.00000000
vn 0.70710678 0.70710678 0.0000000e+0
vn 0.70710678 0.70710678 0.0000000e+0
vn 3.9252311e-15 6.2803698e-15 -1.00000000
vn 3.9252311e-15 6.2803698e-15 -1.00000000
vn 3.0042419e-17 1.00000000 0.0000000e+0
vn 3.0042419e-17 1.00000000 0.0000000e+0
vn 7.8886091e-31 8.8817842e-15 -1.00000000
vn 7.8886091e-31 8.8817842e-15 -1.00000000
vn -0.70710678 0.70710678 0.0000000e+0
vn -0.70710678 0.70710678 0.0000000e+0
vn -3.9252311e-15 6.2803698e-15 -1.00000000
vn -3.9252311e-15 6.2803698e-15 -1.00000000
vn -1.00000000 2.4033935e-16 -5.1109781e-18
vn -1.00000000 2.4033935e-16 -5.1109781e-18
vn -1.5700925e-14 2.3665827e-30 -1.00000000
vn -1.5700925e-14 2.3665827e-30 -1.00000000
vn -0.70710678 -0.70710678 -2.2999401e-17
vn -0.70710678 -0.70710678 -2.2999401e-17
vn -1.1775693e-14 -6.2803698e-15 -1.00000000
vn -1.1775693e-14 -6.2803698e-15 -1.00000000
vn -0.38268343 -0.92387953 -3.3053496e-17
vn -7.8504623e-15 -8.8817842e-15 -1.00000000
vn 0.0000000e+0 -1.00000000 0.0000000e+0
vn 0.0000000e+0 0.0000000e+0 -1.00000000
vn -1.00000000 0.0000000e+0 0.0000000e+0
vn 0.0000000e+0 -1.00000000 0.0000000e+0
vn 0.0000000e+0 0.0000000e+0 1.00000000
vn -1.00000000 0.0000000e+0 0.0000000e+0
vn 0.0000000e+0 1.00000000 0.0000000e+0
vn 0.0000000e+0 0.0000000e+0 -1.00000000
vn -1.00000000 0.0000000e+0 0.0000000e+0
vn 0.0000000e+0 1.00000000 0.0000000e+0
vn 0.0000000e+0 0.0000000e+0 1.00000000
vn -1.00000000 0.0000000e+0 0.0000000e+0
vn 0.0000000e+0 -1.00000000 0.0000000e+0
vn 0.0000000e+0 0.0000000e+0 -1.00000000
vn 1.00000000 0.0000000e+0 0.0000000e+0
vn 0.0000000e+0 -1.00000000 0.0000000e+0
vn 0.0000000e+0 0.0000000e+0 1.00000000
vn 1.00000000 0.0000000e+0 0.0000000e+0
vn 0.0000000e+0 1.00000000 0.0000000e+0
vn 0.0000000e+0 0.0000000e+0 -1.00000000
vn 1.00000000 0.0000000e+0 0.0000000e+0
vn 0.0000000e+0 1.00000000 0.0000000e+0
vn 0.0000000e+0 0.0000000e+0 1.00000000
vn 1.00000000 0.0000000e+0 0.0000000e+0
vn 0.0000000e+0 -1.00000000 0.0000000e+0
vn 0.0000000e+0 0.0000000e+0 -1.00000000
vn -1.00000000 0.0000000e+0 0.0000000e+0
vn 0.0000000e+0 -1.00000000 0.0000000e+0
vn 0.0000000e+0 0.0000000e+0 1.00000000
vn -1.00000000 0.0000000e+0 0.0000000e+0
vn 0.0000000e+0 1.00000000 0.0000000e+0
vn 0.0000000e+0 0.0000000e+0 -1.00000000
vn -1.00000000 0.0000000e+0 0.0000000e+0
vn 0.0000000e+0 1.00000000 0.0000000e+0
vn 0.0000000e+0 0.0000000e+0 1.00000000
vn -1.00000000 0.0000000e+0 0.0000000e+0
vn 0.0000000e+0 -1.00000000 0.0000000e+0
vn 0.0000000e+0 0.0000000e+0 -1.00000000
vn 1.00000000 0.0000000e+0 0.0000000e+0
vn 0.0000000e+0 -1.00000000 0.0000000e+0
vn 0.0000000e+0 0.0000000e+0 1.00000000
vn 1.00000000 0.0000000e+0 0.0000000e+0
vn 0.0000000e+0 1.00000000 0.0000000e+0
vn 0.0000000e+0 0.0000000e+0 -1.00000000
vn 1.00000000 0.0000000e+0 0.0000000e+0
vn 0.0000000e+0 1.00000000 0.0000000e+0
vn 0.0000000e+0 0.0000000e+0 1.00000000
vn 1.00000000 0.0000000e+0 0.0000000e+0
vn 0.92387953 0.38268343 0.0000000e+0
vn 3.1401849e-14 0.0000000e+0 -1.00000000
vn 0.70710678 0.70710678 0.0000000e+0
vn 0.70710678 0.70710678 0.0000000e+0
vn 1.5700925e-14 0.0000000e+0 -1.00000000
vn 1.5700925e-14 0.0000000e+0 -1.00000000
vn 3.0042419e-17 1.00000000 0.0000000e+0
vn 3.0042419e-17 1.00000000 0.0000000e+0
vn 0.0000000e+0 0.0000000e+0 -1.00000000
vn 0.0000000e+0 0.0000000e+0 -1.00000000
vn -0.70710678 0.70710678 0.0000000e+0
vn -0.70710678 0.70710678 0.0000000e+0
vn -1.5700925e-14 0.0000000e+0 -1.00000000
vn -1.5700925e-14 0.0000000e+0 -1.00000000
vn -1.00000000 2.4033935e-16 5.1109781e-18
vn -1.00000000 2.4033935e-16 5.1109781e-18
vn -1.5700925e-14 0.0000000e+0 -1.00000000
vn -1.5700925e-14 0.0000000e+0 -1.00000000
vn -0.70710678 -0.70710678 2.2999401e-17
vn -0.70710678 -0.70710678 2.2999401e-17
vn 7.8504623e-15 0.0000000e+0 -1.00000000
vn 7.8504623e-15 0.0000000e+0 -1.00000000
vn -0.38268343 -0.92387953 3.3053496e-17
vn 1.5700925e-14 0.0000000e+0 -1.00000000
vn 0.92387953 0.38268343 0.0000000e+0
vn 3.1401849e-14 7.3579109e-15 1.00000000
vn 0.70710678 0.70710678 0.0000000e+0
vn 0.70710678 0.70710678 0.0000000e+0
vn 1.5700925e-14 1.2560740e-14 1.00000000
vn 1.5700925e-14 1.2560740e-14 1.00000000
vn 3.0042419e-17 1.00000000 0.0000000e+0
vn 3.0042419e-17 1.00000000 0.0000000e+0
vn 0.0000000e+0 1.7763568e-14 1.00000000
vn 0.0000000e+0 1.7763568e-14 1.00000000
vn -0.70710678 0.70710678 0.0000000e+0
vn -0.70710678 0.70710678 0.0000000e+0
vn -1.5700925e-14 1.2560740e-14 1.00000000
vn -1.5700925e-14 1.2560740e-14 1.00000000
vn -1.00000000 2.4033935e-16 5.1109781e-18
vn -1.00000000 2.4033935e-16 5.1109781e-18
vn -3.1401849e-14 4.7331654e-30 1.00000000
vn -3.1401849e-14 4.7331654e-30 1.00000000
vn -0.70710678 -0.70710678 2.2999401e-17
vn -0.70710678 -0.70710678 2.2999401e-17
vn -3.1554436e-30 -1.2560740e-14 1.00000000
vn -3.1554436e-30 -1.2560740e-14 1.00000000
vn -0.38268343 -0.92387953 3.3053496e-17
vn 3.1401849e-14 -1.7763568e-14 1.00000000
vn 0.92387953 0.38268343 0.0000000e+0
vn 0.0000000e+0 0.0000000e+0 -1.00000000
vn 0.70710678 0.70710678 0.0000000e+0
vn 0.70710678 0.70710678 0.0000000e+0
vn 0.0000000e+0 0.0000000e+0 -1.00000000
vn 0.0000000e+0 0.0000000e+0 -1.00000000
vn 6.0084837e-17 1.00000000 0.0000000e+0
vn 6.0084837e-17 1.00000000 0.0000000e+0
vn 0.0000000e+0 0.0000000e+0 -1.00000000
vn 0.0000000e+0 0.0000000e+0 -1.00000000
vn -0.70710678 0.70710678 0.0000000e+0
vn -0.70710678 0.70710678 0.0000000e+0
vn 0.0000000e+0 0.0000000e+0 -1.00000000
vn 0.0000000e+0 0.0000000e+0 -1.00000000
vn -1.00000000 2.1029693e-16 5.1109781e-18
vn -1.00000000 2.1029693e-16 5.1109781e-18
vn 0.0000000e+0 0.0000000e+0 -1.00000000
vn 0.0000000e+0 0.0000000e+0 -1.00000000
vn -0.70710678 -0.70710678 2.2999401e-17
vn -0.70710678 -0.70710678 2.2999401e-17
vn 0.0000000e+0 0.0000000e+0 -1.00000000
vn 0.0000000e+0 0.0000000e+0 -1.00000000
vn -0.38268343 -0.92387953 3.3053496e-17
vn 0.0000000e+0 0.0000000e+0 -1.00000000
vn 0.92387953 0.38268343 0.0000000e+0
vn 0.0000000e+0 0.0000000e+0 1.00000000
vn 0.70710678 0.70710678 0.0000000e+0
vn 0.70710678 0.70710678 0.0000000e+0
vn -7.8504623e-15 0.0000000e+0 1.00000000
vn -7.8504623e-15 0.0000000e+0 1.00000000
vn 6.0084837e-17 1.00000000 0.0000000e+0
vn 6.0084837e-17 1.00000000 0.0000000e+0
vn 1.5777218e-30 0.0000000e+0 1.00000000
vn 1.5777218e-30 0.0000000e+0 1.00000000
vn -0.70710678 0.70710678 0.0000000e+0
vn -0.70710678 0.70710678 0.0000000e+0
vn 7.8504623e-15 0.0000000e+0 1.00000000
vn 7.8504623e-15 0.0000000e+0 1.00000000
vn -1.00000000 2.1029693e-16 5.1109781e-18
vn -1.00000000 2.1029693e-16 5.1109781e-18
vn 0.0000000e+0 0.0000000e+0 1.00000000
vn 0.0000000e+0 0.0000000e+0 1.00000000
vn -0.70710678 -0.70710678 2.2999401e-17
vn -0.70710678 -0.70710678 2.2999401e-17
vn -7.8504623e-15 0.0000000e+0 1.00000000
vn -7.8504623e-15 0.0000000e+0 1.00000000
vn -0.38268343 -0.92387953 3.3053496e-17
vn -1.5700925e-14 0.0000000e+0 1.00000000
vn 0.92387953 0.38268343 0.0000000e+0
vn 0.0000000e+0 0.0000000e+0 1.00000000
vn 0.70710678 0.70710678 0.0000000e+0
vn 0.70710678 0.70710678 0.0000000e+0
vn 9.8130779e-16 0.0000000e+0 1.00000000
vn 9.8130779e-16 0.0000000e+0 1.00000000
vn 3.0042419e-17 1.00000000 0.0000000e+0
vn 3.0042419e-17 1.00000000 0.0000000e+0
vn 0.0000000e+0 0.0000000e+0 1.00000000
vn 0.0000000e+0 0.0000000e+0 1.00000000
vn -0.70710678 0.70710678 0.0000000e+0
vn -0.70710678 0.70710678 0.0000000e+0
vn -9.8130779e-16 0.0000000e+0 1.00000000
vn -9.8130779e-16 0.0000000e+0 1.00000000
vn -1.00000000 2.4033935e-16 -5.1109781e-18
vn -1.00000000 2.4033935e-16 -5.1109781e-18
vn 0.0000000e+0 0.0000000e+0 1.00000000
vn 0.0000000e+0 0.0000000e+0 1.00000000
vn -0.70710678 -0.70710678 -2.2999401e-17
vn -0.70710678 -0.70710678 -2.2999401e-17
vn -1.9626156e-15 0.0000000e+0 1.00000000
vn -1.9626156e-15 0.0000000e+0 1.00000000
vn -0.38268343 -0.92387953 -3.3053496e-17
vn -3.9252311e-15 0.0000000e+0 1.00000000
vn 0.92387953 0.38268343 0.0000000e+0
vn 7.8504623e-15 3.6789555e-15 -1.00000000
vn 0.70710678 0.70710678 0.0000000e+0
vn 0.70710678 0.70710678 0.0000000e+0
vn 5.8878467e-15 6.2803698e-15 -1.00000000
vn 5.8878467e-15 6.2803698e-15 -1.00000000
vn 3.0042419e-17 1.00000000 0.0000000e+0
vn 3.0042419e-17 1.00000000 0.0000000e+0
vn -3.9443045e-31 8.8817842e-15 -1.00000000
vn -3.9443045e-31 8.8817842e-15 -1.00000000
vn -0.70710678 0.70710678 0.0000000e+0
vn -0.70710678 0.70710678 0.0000000e+0
vn -5.8878467e-15 6.2803698e-15 -1.00000000
vn -5.8878467e-15 6.2803698e-15 -1.00000000
vn -1.00000000 2.4033935e-16 -5.1109781e-18
vn -1.00000000 2.4033935e-16 -5.1109781e-18
vn -7.8504623e-15 2.3665827e-30 -1.00000000
vn -7.8504623e-15 2.3665827e-30 -1.00000000
vn -0.70710678 -0.70710678 -2.2999401e-17
vn -0.70710678 -0.70710678 -2.2999401e-17
vn -5.8878467e-15 -6.2803698e-15 -1.00000000
vn -5.8878467e-15 -6.2803698e-15 -1.00000000
vn -0.38268343 -0.92387953 -3.3053496e-17
vn -3.9252311e-15 -8.8817842e-15 -1.00000000
g mesh1_mesh1_auv
usemtl mesh1_auv
s 1
f 1/21/9 8/22/33 9/24/36 2/23/12
f 2/23/11 9/24/35 10/26/40 3/25/16
f 2/44/13 15/41/1 1/45/10
f 3/25/15 10/26/39 11/28/44 4/27/20
f 3/40/18 15/41/1 2/44/14
f 4/27/19 11/28/43 12/30/48 5/29/24
f 4/38/22 15/41/1 3/40/17
f 5/29/23 12/30/47 13/32/52 6/31/28
f 5/35/26 15/41/1 4/38/21
f 6/31/27 13/32/51 14/34/55 7/33/31
f 6/39/30 15/41/1 5/35/25
f 7/42/32 15/41/1 6/39/29
f 8/45/34 16/41/2 9/43/37
f 9/43/38 16/41/2 10/40/41
f 10/40/42 16/41/2 11/36/45
f 11/36/46 16/41/2 12/35/49
f 12/35/50 16/41/2 13/37/53
f 13/37/54 16/41/2 14/42/56
f 18/16/62 20/20/68 19/17/65 17/13/59
f 21/8/71 23/5/77 24/6/80 22/9/74
f 26/15/85 30/8/97 32/7/103 28/11/91
f 27/12/88 31/10/100 29/9/94 25/14/82
f 33/45/106 47/41/3 34/44/109
f 34/23/108 41/24/132 40/22/129 33/21/105
f 34/44/110 47/41/3 35/40/114
f 35/25/112 42/26/136 41/24/131 34/23/107
f 35/40/113 47/41/3 36/38/118
f 36/27/116 43/28/140 42/26/135 35/25/111
f 36/38/117 47/41/3 37/35/122
f 37/29/120 44/30/144 43/28/139 36/27/115
f 37/35/121 47/41/3 38/39/126
f 38/31/124 45/32/148 44/30/143 37/29/119
f 38/39/125 47/41/3 39/42/128
f 39/33/127 46/34/151 45/32/147 38/31/123
f 41/43/133 48/41/4 40/45/130
f 42/40/137 48/41/4 41/43/134
f 43/36/141 48/41/4 42/40/138
f 44/35/145 48/41/4 43/36/142
f 45/37/149 48/41/4 44/35/146
f 46/42/152 48/41/4 45/37/150
f 49/45/154 63/41/5 50/44/157
f 50/23/156 57/24/180 56/22/177 49/21/153
f 50/44/158 63/41/5 51/40/162
f 51/25/160 58/26/184 57/24/179 50/23/155
f 51/40/161 63/41/5 52/38/166
f 52/27/164 59/28/188 58/26/183 51/25/159
f 52/38/165 63/41/5 53/35/170
f 53/29/168 60/30/192 59/28/187 52/27/163
f 53/35/169 63/41/5 54/39/174
f 54/31/172 61/32/196 60/30/191 53/29/167
f 54/39/173 63/41/5 55/42/176
f 55/33/175 62/34/199 61/32/195 54/31/171
f 57/43/181 64/41/6 56/45/178
f 58/40/185 64/41/6 57/43/182
f 59/36/189 64/41/6 58/40/186
f 60/35/193 64/41/6 59/36/190
f 61/37/197 64/41/6 60/35/194
f 62/42/200 64/41/6 61/37/198
f 65/21/201 72/22/225 73/24/228 66/23/204
f 66/23/203 73/24/227 74/26/232 67/25/208
f 66/44/205 79/41/7 65/45/202
f 67/25/207 74/26/231 75/28/236 68/27/212
f 67/40/210 79/41/7 66/44/206
f 68/27/211 75/28/235 76/30/240 69/29/216
f 68/38/214 79/41/7 67/40/209
f 69/29/215 76/30/239 77/32/244 70/31/220
f 69/35/218 79/41/7 68/38/213
f 70/31/219 77/32/243 78/34/247 71/33/223
f 70/39/222 79/41/7 69/35/217
f 71/42/224 79/41/7 70/39/221
f 72/45/226 80/41/8 73/43/229
f 73/43/230 80/41/8 74/40/233
f 74/40/234 80/41/8 75/36/237
f 75/36/238 80/41/8 76/35/241
f 76/35/242 80/41/8 77/37/245
f 77/37/246 80/41/8 78/42/248
s 2
f 17/13/57 21/8/69 22/9/72 18/16/60
f 20/3/66 24/1/78 23/2/75 19/4/63
f 25/14/81 29/9/93 30/8/96 26/15/84
f 28/3/90 32/1/102 31/2/99 27/4/87
s 3
f 18/16/61 22/9/73 24/10/79 20/12/67
f 19/11/64 23/7/76 21/8/70 17/13/58
f 26/15/86 28/19/92 27/18/89 25/14/83
f 29/9/95 31/6/101 32/5/104 30/8/98
