# Exported from Wings 3D 1.5.4
mtllib eridani_solar_long_wide.mtl
o mesh1
#16 vertices, 12 faces
v -1.2500000e-2 -1.2500000e-2 -0.88750000
v -1.2500000e-2 -1.2500000e-2 -1.2500000e-2
v -1.2500000e-2 1.2500000e-2 -0.88750000
v -1.2500000e-2 1.2500000e-2 -1.2500000e-2
v 0.42500000 -1.2500000e-2 -0.88750000
v 0.42500000 -1.2500000e-2 -1.2500000e-2
v 0.42500000 1.2500000e-2 -0.88750000
v 0.42500000 1.2500000e-2 -1.2500000e-2
v -1.2500000e-2 -1.2500000e-2 -1.78750000
v -1.2500000e-2 -1.2500000e-2 -0.91250000
v -1.2500000e-2 1.2500000e-2 -1.78750000
v -1.2500000e-2 1.2500000e-2 -0.91250000
v 0.42500000 -1.2500000e-2 -1.78750000
v 0.42500000 -1.2500000e-2 -0.91250000
v 0.42500000 1.2500000e-2 -1.78750000
v 0.42500000 1.2500000e-2 -0.91250000
vt 3.7216604e-2 0.61230059
vt 3.7216604e-2 0.95386983
vt 0.20800123 0.61230059
vt 0.20800123 0.95386983
vt 0.24800658 0.61230059
vt 0.24800658 0.95386983
vt 0.24800658 0.61230059
vt 0.24800658 0.95386983
vt 0.25776570 0.61230059
vt 0.25776570 0.95386983
vt 0.25776570 0.61230059
vt 0.25776570 0.95386983
vt 0.25776570 0.60254147
vt 0.25776570 0.96362896
vt 0.42855032 0.60254147
vt 0.42855032 0.61230059
vt 0.42855032 0.95386983
vt 0.42855032 0.96362896
vt 0.43830944 0.61230059
vt 0.43830944 0.95386983
vn 0.0000000e+0 -1.00000000 0.0000000e+0
vn 0.0000000e+0 0.0000000e+0 -1.00000000
vn -1.00000000 0.0000000e+0 0.0000000e+0
vn 0.0000000e+0 -1.00000000 0.0000000e+0
vn 0.0000000e+0 0.0000000e+0 1.00000000
vn -1.00000000 0.0000000e+0 0.0000000e+0
vn 0.0000000e+0 1.00000000 0.0000000e+0
vn 0.0000000e+0 0.0000000e+0 -1.00000000
vn -1.00000000 0.0000000e+0 0.0000000e+0
vn 0.0000000e+0 1.00000000 0.0000000e+0
vn 0.0000000e+0 0.0000000e+0 1.00000000
vn -1.00000000 0.0000000e+0 0.0000000e+0
vn 0.0000000e+0 -1.00000000 0.0000000e+0
vn 0.0000000e+0 0.0000000e+0 -1.00000000
vn 1.00000000 0.0000000e+0 0.0000000e+0
vn 0.0000000e+0 -1.00000000 0.0000000e+0
vn 0.0000000e+0 0.0000000e+0 1.00000000
vn 1.00000000 0.0000000e+0 0.0000000e+0
vn 0.0000000e+0 1.00000000 0.0000000e+0
vn 0.0000000e+0 0.0000000e+0 -1.00000000
vn 1.00000000 0.0000000e+0 0.0000000e+0
vn 0.0000000e+0 1.00000000 0.0000000e+0
vn 0.0000000e+0 0.0000000e+0 1.00000000
vn 1.00000000 0.0000000e+0 0.0000000e+0
vn 0.0000000e+0 -1.00000000 0.0000000e+0
vn 0.0000000e+0 0.0000000e+0 -1.00000000
vn -1.00000000 0.0000000e+0 0.0000000e+0
vn 0.0000000e+0 -1.00000000 0.0000000e+0
vn 0.0000000e+0 0.0000000e+0 1.00000000
vn -1.00000000 0.0000000e+0 0.0000000e+0
vn 0.0000000e+0 1.00000000 0.0000000e+0
vn 0.0000000e+0 0.0000000e+0 -1.00000000
vn -1.00000000 0.0000000e+0 0.0000000e+0
vn 0.0000000e+0 1.00000000 0.0000000e+0
vn 0.0000000e+0 0.0000000e+0 1.00000000
vn -1.00000000 0.0000000e+0 0.0000000e+0
vn 0.0000000e+0 -1.00000000 0.0000000e+0
vn 0.0000000e+0 0.0000000e+0 -1.00000000
vn 1.00000000 0.0000000e+0 0.0000000e+0
vn 0.0000000e+0 -1.00000000 0.0000000e+0
vn 0.0000000e+0 0.0000000e+0 1.00000000
vn 1.00000000 0.0000000e+0 0.0000000e+0
vn 0.0000000e+0 1.00000000 0.0000000e+0
vn 0.0000000e+0 0.0000000e+0 -1.00000000
vn 1.00000000 0.0000000e+0 0.0000000e+0
vn 0.0000000e+0 1.00000000 0.0000000e+0
vn 0.0000000e+0 0.0000000e+0 1.00000000
vn 1.00000000 0.0000000e+0 0.0000000e+0
g mesh1_mesh1_auv
usemtl mesh1_auv
s 1
f 2/9/6 4/5/12 3/8/9 1/12/3
f 5/17/15 7/20/21 8/19/24 6/16/18
f 9/11/25 13/16/37 14/17/40 10/10/28
f 12/1/34 16/3/46 15/4/43 11/2/31
s 2
f 2/9/5 6/16/17 8/15/23 4/13/11
f 3/14/8 7/18/20 5/17/14 1/12/2
f 10/10/29 14/17/41 16/18/47 12/14/35
f 11/13/32 15/15/44 13/16/38 9/11/26
s 3
f 1/12/1 5/17/13 6/16/16 2/9/4
f 4/1/10 8/3/22 7/4/19 3/2/7
f 10/10/30 12/6/36 11/7/33 9/11/27
f 13/16/39 15/19/45 16/20/48 14/17/42
