# Exported from Wings 3D 1.5.4
mtllib eridani_solar_arm_hinge.mtl
o mesh1
#20 vertices, 16 faces
v -3.7500000e-2 1.2500000e-2 0.0000000e+0
v -3.7500000e-2 8.8388348e-3 8.8388348e-3
v -3.7500000e-2 3.6572223e-17 1.2500000e-2
v -3.7500000e-2 -8.8388348e-3 8.8388348e-3
v -3.7500000e-2 -1.2500000e-2 1.5308085e-18
v 3.7500000e-2 1.2500000e-2 0.0000000e+0
v 3.7500000e-2 8.8388348e-3 8.8388348e-3
v 3.7500000e-2 3.5041414e-17 1.2500000e-2
v 3.7500000e-2 -8.8388348e-3 8.8388348e-3
v 3.7500000e-2 -1.2500000e-2 1.5308085e-18
v -3.7500000e-2 1.2500000e-2 -5.0000000e-2
v -3.7500000e-2 -1.2500000e-2 -5.0000000e-2
v -3.7500000e-2 -8.8388348e-3 -5.8838835e-2
v -3.7500000e-2 3.3510606e-17 -6.2500000e-2
v -3.7500000e-2 8.8388348e-3 -5.8838835e-2
v 3.7500000e-2 1.2500000e-2 -5.0000000e-2
v 3.7500000e-2 -1.2500000e-2 -5.0000000e-2
v 3.7500000e-2 -8.8388348e-3 -5.8838835e-2
v 3.7500000e-2 3.1979797e-17 -6.2500000e-2
v 3.7500000e-2 8.8388348e-3 -5.8838835e-2
vt 0.84075076 0.23607085
vt 0.84075076 0.23607085
vt 0.84075076 0.23978931
vt 0.84075076 0.23978931
vt 0.84075076 0.24350777
vt 0.84075076 0.24350777
vt 0.84075076 0.26294136
vt 0.84075076 0.26665982
vt 0.84075076 0.26665982
vt 0.84075076 0.27037828
vt 0.84075076 0.27037828
vt 0.84173504 0.20121539
vt 0.84315804 0.19777999
vt 0.84315804 0.20465080
vt 0.84659344 0.19635699
vt 0.84659344 0.19635699
vt 0.84659344 0.20607379
vt 0.86602704 0.19635699
vt 0.86602704 0.20607379
vt 0.86946244 0.19777999
vt 0.86946244 0.20465080
vt 0.86990115 0.23607085
vt 0.86990115 0.23978931
vt 0.86990115 0.24350777
vt 0.86990115 0.26294136
vt 0.86990115 0.26665982
vt 0.86990115 0.27037828
vt 0.86990115 0.23607085
vt 0.86990115 0.23978931
vt 0.86990115 0.24350777
vt 0.86990115 0.26294136
vt 0.86990115 0.26665982
vt 0.86990115 0.27037828
vt 0.87088544 0.20121539
vn -1.00000000 -1.2266347e-16 0.0000000e+0
vn 7.2216541e-18 0.98078528 0.19509032
vn 7.2216541e-18 0.98078528 0.19509032
vn -1.00000000 -1.2266347e-16 0.0000000e+0
vn -1.00000000 -2.4532695e-16 0.0000000e+0
vn 1.2777445e-17 0.70710678 0.70710678
vn 1.2777445e-17 0.70710678 0.70710678
vn -1.00000000 -2.4532695e-16 0.0000000e+0
vn -2.5554890e-18 0.0000000e+0 1.00000000
vn -2.5554890e-18 0.0000000e+0 1.00000000
vn -1.00000000 -2.4532695e-16 0.0000000e+0
vn -2.5554890e-17 -0.70710678 0.70710678
vn -2.5554890e-17 -0.70710678 0.70710678
vn -1.00000000 -1.2266347e-16 0.0000000e+0
vn -2.8641918e-17 -0.98078528 0.19509032
vn -1.00000000 -1.2266347e-16 0.0000000e+0
vn -2.8641918e-17 -0.98078528 0.19509032
vn 1.00000000 0.0000000e+0 0.0000000e+0
vn 7.2216541e-18 0.98078528 0.19509032
vn 7.2216541e-18 0.98078528 0.19509032
vn 1.00000000 0.0000000e+0 0.0000000e+0
vn 1.00000000 0.0000000e+0 0.0000000e+0
vn 1.2777445e-17 0.70710678 0.70710678
vn 1.2777445e-17 0.70710678 0.70710678
vn 1.00000000 0.0000000e+0 0.0000000e+0
vn -2.5554890e-18 0.0000000e+0 1.00000000
vn -2.5554890e-18 0.0000000e+0 1.00000000
vn 1.00000000 0.0000000e+0 0.0000000e+0
vn -2.5554890e-17 -0.70710678 0.70710678
vn -2.5554890e-17 -0.70710678 0.70710678
vn 1.00000000 0.0000000e+0 0.0000000e+0
vn -2.8641918e-17 -0.98078528 0.19509032
vn -2.8641918e-17 -0.98078528 0.19509032
vn 1.00000000 0.0000000e+0 0.0000000e+0
vn -1.00000000 0.0000000e+0 0.0000000e+0
vn 9.6288721e-18 0.98078528 -0.19509032
vn 9.6288721e-18 0.98078528 -0.19509032
vn -1.00000000 0.0000000e+0 0.0000000e+0
vn -1.00000000 0.0000000e+0 0.0000000e+0
vn -2.3827482e-17 -0.98078528 -0.19509032
vn -1.00000000 0.0000000e+0 0.0000000e+0
vn -2.3827482e-17 -0.98078528 -0.19509032
vn -1.00000000 0.0000000e+0 0.0000000e+0
vn -1.7888423e-17 -0.70710678 -0.70710678
vn -1.7888423e-17 -0.70710678 -0.70710678
vn -1.00000000 0.0000000e+0 0.0000000e+0
vn 2.5554890e-18 -3.6050902e-16 -1.00000000
vn 2.5554890e-18 -3.6050902e-16 -1.00000000
vn -1.00000000 0.0000000e+0 0.0000000e+0
vn 1.7888423e-17 0.70710678 -0.70710678
vn 1.7888423e-17 0.70710678 -0.70710678
vn 1.00000000 0.0000000e+0 0.0000000e+0
vn 9.6288721e-18 0.98078528 -0.19509032
vn 9.6288721e-18 0.98078528 -0.19509032
vn 1.00000000 0.0000000e+0 0.0000000e+0
vn 1.00000000 0.0000000e+0 0.0000000e+0
vn -2.3827482e-17 -0.98078528 -0.19509032
vn -2.3827482e-17 -0.98078528 -0.19509032
vn 1.00000000 0.0000000e+0 0.0000000e+0
vn 1.00000000 0.0000000e+0 0.0000000e+0
vn -1.7888423e-17 -0.70710678 -0.70710678
vn -1.7888423e-17 -0.70710678 -0.70710678
vn 1.00000000 0.0000000e+0 0.0000000e+0
vn 2.5554890e-18 -3.6050902e-16 -1.00000000
vn 2.5554890e-18 -3.6050902e-16 -1.00000000
vn 1.00000000 0.0000000e+0 0.0000000e+0
vn 1.7888423e-17 0.70710678 -0.70710678
vn 1.7888423e-17 0.70710678 -0.70710678
g mesh1_mesh1_auv
usemtl mesh1_auv
s 1
f 2/3/7 7/23/24 6/24/19 1/5/2
f 3/1/10 8/22/27 7/23/23 2/3/6
f 4/32/13 9/9/30 8/11/26 3/33/9
f 5/31/15 10/7/32 9/9/29 4/32/12
f 5/31/17 12/30/42 17/6/58 10/7/33
f 6/24/20 16/25/54 11/7/37 1/5/3
f 11/7/36 16/25/53 20/26/67 15/8/50
f 13/29/45 18/4/62 17/6/57 12/30/40
f 14/28/48 19/2/65 18/4/61 13/29/44
f 15/8/51 20/26/68 19/27/64 14/10/47
s 2
f 1/19/1 5/18/14 4/20/11 3/34/8 2/21/5
f 1/19/4 11/17/38 12/16/41 5/18/16
f 7/14/22 8/12/25 9/13/28 10/15/31 6/17/18
f 10/15/34 17/18/59 16/19/55 6/17/21
f 15/14/49 14/12/46 13/13/43 12/16/39 11/17/35
f 16/19/52 17/18/56 18/20/60 19/34/63 20/21/66
