# Exported from Wings 3D 1.5.4
mtllib Eridani_Antenna_1_Base.mtl
o Eridani_Antenna_1_Base
#16 vertices, 10 faces
v 2.5000000e-2 3.4694470e-18 -6.5000000e-2
v 1.7677670e-2 1.7677670e-2 -6.5000000e-2
v 2.6583600e-18 2.5000000e-2 -6.5000000e-2
v -1.7677670e-2 1.7677670e-2 -6.5000000e-2
v -2.5000000e-2 3.4694470e-18 -6.5000000e-2
v -1.7677670e-2 -1.7677670e-2 -6.5000000e-2
v -3.4648941e-18 -2.5000000e-2 -6.5000000e-2
v 1.7677670e-2 -1.7677670e-2 -6.5000000e-2
v 2.5000000e-2 0.0000000e+0 2.2500000e-2
v 1.7677670e-2 1.7677670e-2 2.2500000e-2
v 2.6583600e-18 2.5000000e-2 2.2500000e-2
v -1.7677670e-2 1.7677670e-2 2.2500000e-2
v -2.5000000e-2 0.0000000e+0 2.2500000e-2
v -1.7677670e-2 -1.7677670e-2 2.2500000e-2
v -3.4648941e-18 -2.5000000e-2 2.2500000e-2
v 1.7677670e-2 -1.7677670e-2 2.2500000e-2
vt 0.75763085 0.94400151
vt 0.75763085 0.94400151
vt 0.75763085 0.97803102
vt 0.75763085 0.97803102
vt 0.76450585 0.94400151
vt 0.76450585 0.94400151
vt 0.76450585 0.97803102
vt 0.76450585 0.97803102
vt 0.77138085 0.97803102
vt 0.77138085 0.94400151
vt 0.77138085 0.94400151
vt 0.77138085 0.97803102
vt 0.77138085 0.97803102
vt 0.78170943 0.95359107
vt 0.78455715 0.94671607
vt 0.78455715 0.96046607
vt 0.79143215 0.94386836
vt 0.79143215 0.96331379
vt 0.79830715 0.94671607
vt 0.79830715 0.96046607
vt 0.80115486 0.95359107
vt 0.81160447 0.95359107
vt 0.81445219 0.94671607
vt 0.81445219 0.96046607
vt 0.82132719 0.94386836
vt 0.82132719 0.96331379
vt 0.82820219 0.94671607
vt 0.82820219 0.96046607
vt 0.83104991 0.95359107
vn 0.0000000e+0 0.0000000e+0 -1.00000000
vn 1.00000000 3.0042419e-17 1.6676892e-33
vn 1.00000000 3.0042419e-17 1.6676892e-33
vn 0.0000000e+0 0.0000000e+0 -1.00000000
vn 0.70710678 0.70710678 4.3808383e-18
vn 0.70710678 0.70710678 4.3808383e-18
vn 0.0000000e+0 0.0000000e+0 -1.00000000
vn 1.8025451e-16 1.00000000 0.0000000e+0
vn 1.8025451e-16 1.00000000 0.0000000e+0
vn 0.0000000e+0 0.0000000e+0 -1.00000000
vn -0.70710678 0.70710678 4.3808383e-18
vn -0.70710678 0.70710678 4.3808383e-18
vn 0.0000000e+0 0.0000000e+0 -1.00000000
vn -1.00000000 9.0127256e-17 -1.6676892e-33
vn -1.00000000 9.0127256e-17 -1.6676892e-33
vn 0.0000000e+0 0.0000000e+0 -1.00000000
vn -0.70710678 -0.70710678 -1.3142515e-17
vn -0.70710678 -0.70710678 -1.3142515e-17
vn 0.0000000e+0 0.0000000e+0 -1.00000000
vn -9.0127256e-17 -1.00000000 -2.1904192e-17
vn -9.0127256e-17 -1.00000000 -2.1904192e-17
vn 0.0000000e+0 0.0000000e+0 -1.00000000
vn 0.70710678 -0.70710678 -1.7523353e-17
vn 0.70710678 -0.70710678 -1.7523353e-17
vn 0.0000000e+0 0.0000000e+0 1.00000000
vn 1.00000000 3.0042419e-17 1.6676892e-33
vn 1.00000000 3.0042419e-17 1.6676892e-33
vn 0.0000000e+0 0.0000000e+0 1.00000000
vn 0.70710678 0.70710678 4.3808383e-18
vn 0.70710678 0.70710678 4.3808383e-18
vn 0.0000000e+0 0.0000000e+0 1.00000000
vn 1.8025451e-16 1.00000000 0.0000000e+0
vn 1.8025451e-16 1.00000000 0.0000000e+0
vn 0.0000000e+0 0.0000000e+0 1.00000000
vn -0.70710678 0.70710678 4.3808383e-18
vn -0.70710678 0.70710678 4.3808383e-18
vn 0.0000000e+0 0.0000000e+0 1.00000000
vn -1.00000000 9.0127256e-17 -1.6676892e-33
vn -1.00000000 9.0127256e-17 -1.6676892e-33
vn 0.0000000e+0 0.0000000e+0 1.00000000
vn -0.70710678 -0.70710678 -1.3142515e-17
vn -0.70710678 -0.70710678 -1.3142515e-17
vn 0.0000000e+0 0.0000000e+0 1.00000000
vn -9.0127256e-17 -1.00000000 -2.1904192e-17
vn -9.0127256e-17 -1.00000000 -2.1904192e-17
vn 0.0000000e+0 0.0000000e+0 1.00000000
vn 0.70710678 -0.70710678 -1.7523353e-17
vn 0.70710678 -0.70710678 -1.7523353e-17
g Eridani_Antenna_1_Base_Eridani_Antenna_1_Base_auv
usemtl Eridani_Antenna_1_Base_auv
s 1
f 1/22/1 8/23/22 7/25/19 6/27/16 5/29/13 4/28/10 3/26/7 2/24/4
f 10/20/28 11/18/31 12/16/34 13/14/37 14/15/40 15/17/43 16/19/46 9/21/25
s 2
f 1/4/2 9/2/26 16/6/47 8/8/23
f 2/8/6 10/6/30 9/11/27 1/13/3
f 3/4/9 11/2/33 10/6/29 2/8/5
f 4/8/12 12/6/36 11/11/32 3/9/8
f 5/4/15 13/2/39 12/6/35 4/8/11
f 6/7/18 14/5/42 13/10/38 5/12/14
f 7/3/21 15/1/45 14/5/41 6/7/17
f 8/8/24 16/6/48 15/11/44 7/13/20
