# Exported from Wings 3D 1.5.4
mtllib Eridani_DockingMechanism_1_Probe.mtl
o Eridani_DockingMechanism_1_Probe
#73 vertices, 72 faces
v 1.1958857e-2 0.25637124 4.5659144e-17
v 1.0356674e-2 0.25637124 5.9794286e-3
v 5.9794286e-3 0.25637124 1.0356674e-2
v 7.4769406e-18 0.25637124 1.1958857e-2
v -5.9794286e-3 0.25637124 1.0356674e-2
v -1.0356674e-2 0.25637124 5.9794286e-3
v -1.1958857e-2 0.25637124 5.9515547e-17
v -1.0356674e-2 0.25637124 -5.9794286e-3
v -5.9794286e-3 0.25637124 -1.0356674e-2
v -7.8440001e-18 0.25637124 -1.1958857e-2
v 5.9794286e-3 0.25637124 -1.0356674e-2
v 1.0356674e-2 0.25637124 -5.9794286e-3
v 2.2097087e-2 0.24959709 3.6896772e-17
v 1.9136639e-2 0.24959709 1.1048543e-2
v 1.1048543e-2 0.24959709 1.9136639e-2
v 1.3350386e-17 0.24959709 2.2097087e-2
v -1.1048543e-2 0.24959709 1.9136639e-2
v -1.9136639e-2 0.24959709 1.1048543e-2
v -2.2097087e-2 0.24959709 6.2500067e-17
v -1.9136639e-2 0.24959709 -1.1048543e-2
v -1.1048543e-2 0.24959709 -1.9136639e-2
v -1.4959021e-17 0.24959709 -2.2097087e-2
v 1.1048543e-2 0.24959709 -1.9136639e-2
v 1.9136639e-2 0.24959709 -1.1048543e-2
v 2.8871235e-2 0.23945886 2.8134400e-17
v 2.5003223e-2 0.23945886 1.4435618e-2
v 1.4435618e-2 0.23945886 2.5003223e-2
v 1.7274897e-17 0.23945886 2.8871235e-2
v -1.4435618e-2 0.23945886 2.5003223e-2
v -2.5003223e-2 0.23945886 1.4435618e-2
v -2.8871235e-2 0.23945886 6.1586716e-17
v -2.5003223e-2 0.23945886 -1.4435618e-2
v -1.4435618e-2 0.23945886 -2.5003223e-2
v -1.9713126e-17 0.23945886 -2.8871235e-2
v 1.4435618e-2 0.23945886 -2.5003223e-2
v 2.5003223e-2 0.23945886 -1.4435618e-2
v 5.4873906e-19 0.25875000 5.3087525e-17
v 2.0000000e-2 0.21500000 3.5975274e-17
v 1.7320508e-2 0.21500000 1.0000000e-2
v 1.0000000e-2 0.21500000 1.7320508e-2
v 1.6294156e-18 0.21500000 2.0000000e-2
v -1.0000000e-2 0.21500000 1.7320508e-2
v -1.7320508e-2 0.21500000 1.0000000e-2
v -2.0000000e-2 0.21500000 3.8424567e-17
v -1.7320508e-2 0.21500000 -1.0000000e-2
v -1.0000000e-2 0.21500000 -1.7320508e-2
v -3.2691716e-18 0.21500000 -2.0000000e-2
v 1.0000000e-2 0.21500000 -1.7320508e-2
v 1.7320508e-2 0.21500000 -1.0000000e-2
v 2.2500000e-2 -3.4694470e-18 4.2765270e-17
v 1.9485572e-2 -3.4694470e-18 1.1250000e-2
v 1.1250000e-2 -3.4694470e-18 1.9485572e-2
v 4.4424058e-18 -3.4694470e-18 2.2500000e-2
v -1.1250000e-2 -3.4694470e-18 1.9485572e-2
v -1.9485572e-2 -3.4694470e-18 1.1250000e-2
v -2.2500000e-2 -3.4694470e-18 4.5520726e-17
v -1.9485572e-2 -3.4694470e-18 -1.1250000e-2
v -1.1250000e-2 -3.4694470e-18 -1.9485572e-2
v -1.0685048e-18 -3.4694470e-18 -2.2500000e-2
v 1.1250000e-2 -3.4694470e-18 -1.9485572e-2
v 1.9485572e-2 -3.4694470e-18 -1.1250000e-2
v 3.1250000e-2 0.22750000 5.0115674e-18
v 2.7063294e-2 0.22750000 1.5625000e-2
v 1.5625000e-2 0.22750000 2.7063294e-2
v 3.3468920e-17 0.22750000 3.1250000e-2
v -1.5625000e-2 0.22750000 2.7063294e-2
v -2.7063294e-2 0.22750000 1.5625000e-2
v -3.1250000e-2 0.22750000 7.0475482e-17
v -2.7063294e-2 0.22750000 -1.5625000e-2
v -1.5625000e-2 0.22750000 -2.7063294e-2
v -3.5822016e-17 0.22750000 -3.1250000e-2
v 1.5625000e-2 0.22750000 -2.7063294e-2
v 2.7063294e-2 0.22750000 -1.5625000e-2
vt 0.81334347 0.10913056
vt 0.81334347 0.10913056
vt 0.81398523 7.8677958e-2
vt 0.81398523 7.8677958e-2
vt 0.81398523 9.8191851e-2
vt 0.81398523 9.8191851e-2
vt 0.81406545 0.10772020
vt 0.81461491 0.11849491
vt 0.81461491 0.11849491
vt 0.81461491 0.10913056
vt 0.81461491 0.11849491
vt 0.81467078 0.11952409
vt 0.81467078 0.11952409
vt 0.81467078 0.11952409
vt 0.81482991 0.12061917
vt 0.81482991 0.12061917
vt 0.81482991 0.12061917
vt 0.81482991 0.12061917
vt 0.81484981 7.8677958e-2
vt 0.81484981 9.8191851e-2
vt 0.81484981 7.8677958e-2
vt 0.81484981 9.8191851e-2
vt 0.81487917 0.10772020
vt 0.81506806 0.12161341
vt 0.81506806 0.12161341
vt 0.81506806 0.12161341
vt 0.81506806 0.12161341
vt 0.81506806 0.12161341
vt 0.81534897 0.12235547
vt 0.81534897 0.12235547
vt 0.81534897 0.12235547
vt 0.81534897 0.12235547
vt 0.81562988 0.12161341
vt 0.81562988 0.12161341
vt 0.81562988 0.12161341
vt 0.81581877 0.10772020
vt 0.81581877 0.10772020
vt 0.81584813 7.8677958e-2
vt 0.81584813 9.8191851e-2
vt 0.81584813 7.8677958e-2
vt 0.81584813 9.8191851e-2
vt 0.81586803 0.12061917
vt 0.81586803 0.12061917
vt 0.81586803 0.12061917
vt 0.81586803 0.12061917
vt 0.81602715 0.11952409
vt 0.81602715 0.11952409
vt 0.81602715 0.11952409
vt 0.81602715 0.11952409
vt 0.81608303 0.10913056
vt 0.81608303 0.11849491
vt 0.81608303 0.10913056
vt 0.81608303 0.11849491
vt 0.81663249 0.10772020
vt 0.81671270 7.8677958e-2
vt 0.81671270 7.8677958e-2
vt 0.81671270 9.8191851e-2
vt 0.81671270 9.8191851e-2
vt 0.81671270 7.8677958e-2
vt 0.81671270 9.8191851e-2
vt 0.81735446 0.10913056
vn 0.38180163 0.92424429 -2.4701121e-15
vn 0.33064991 0.92424429 0.19090082
vn 0.19090082 0.92424429 0.33064991
vn 1.1389566e-16 0.92424429 0.38180163
vn -0.19090082 0.92424429 0.33064991
vn -0.33064991 0.92424429 0.19090082
vn -0.38180163 0.92424429 2.8972208e-15
vn -0.33064991 0.92424429 -0.19090082
vn -0.19090082 0.92424429 -0.33064991
vn -3.5592393e-16 0.92424429 -0.38180163
vn 0.19090082 0.92424429 -0.33064991
vn 0.33064991 0.92424429 -0.19090082
vn 0.70617349 0.70803885 -5.1841596e-16
vn 0.61156418 0.70803885 0.35308674
vn 0.35308674 0.70803885 0.61156418
vn 3.4561064e-16 0.70803885 0.70617349
vn -0.35308674 0.70803885 0.61156418
vn -0.61156418 0.70803885 0.35308674
vn -0.70617349 0.70803885 5.6161728e-16
vn -0.61156418 0.70803885 -0.35308674
vn -0.35308674 0.70803885 -0.61156418
vn -7.2722238e-16 0.70803885 -0.70617349
vn 0.35308674 0.70803885 -0.61156418
vn 0.61156418 0.70803885 -0.35308674
vn 0.92353014 0.38352586 -6.6990007e-16
vn 0.79980056 0.38352586 0.46176507
vn 0.46176507 0.38352586 0.79980056
vn 6.5533702e-16 0.38352586 0.92353014
vn -0.46176507 0.38352586 0.79980056
vn -0.79980056 0.38352586 0.46176507
vn -0.92353014 0.38352586 9.4659792e-16
vn -0.79980056 0.38352586 -0.46176507
vn -0.46176507 0.38352586 -0.79980056
vn -1.0485392e-15 0.38352586 -0.92353014
vn 0.46176507 0.38352586 -0.79980056
vn 0.79980056 0.38352586 -0.46176507
vn -5.6675957e-17 1.00000000 1.2043641e-16
vn 0.99993240 1.1627121e-2 -1.7240734e-16
vn 0.86596686 1.1627121e-2 0.49996620
vn 0.49996620 1.1627121e-2 0.86596686
vn 2.8734556e-17 1.1627121e-2 0.99993240
vn -0.49996620 1.1627121e-2 0.86596686
vn -0.86596686 1.1627121e-2 0.49996620
vn -0.99993240 1.1627121e-2 1.7240734e-16
vn -0.86596686 1.1627121e-2 -0.49996620
vn -0.49996620 1.1627121e-2 -0.86596686
vn -4.8848746e-16 1.1627121e-2 -0.99993240
vn 0.49996620 1.1627121e-2 -0.86596686
vn 0.86596686 1.1627121e-2 -0.49996620
vn 0.99993240 1.1627121e-2 -1.7240734e-16
vn 0.99993240 1.1627121e-2 -1.7240734e-16
vn 0.74329415 -0.66896473 -1.3867347e-15
vn 0.74329415 -0.66896473 -1.3867347e-15
vn 0.86596686 1.1627121e-2 0.49996620
vn 0.86596686 1.1627121e-2 0.49996620
vn 0.64371161 -0.66896473 0.37164707
vn 0.64371161 -0.66896473 0.37164707
vn 0.49996620 1.1627121e-2 0.86596686
vn 0.49996620 1.1627121e-2 0.86596686
vn 0.37164707 -0.66896473 0.64371161
vn 0.37164707 -0.66896473 0.64371161
vn 2.8734556e-17 1.1627121e-2 0.99993240
vn 2.8734556e-17 1.1627121e-2 0.99993240
vn 4.5281134e-16 -0.66896473 0.74329415
vn 4.5281134e-16 -0.66896473 0.74329415
vn -0.49996620 1.1627121e-2 0.86596686
vn -0.49996620 1.1627121e-2 0.86596686
vn -0.37164707 -0.66896473 0.64371161
vn -0.37164707 -0.66896473 0.64371161
vn -0.86596686 1.1627121e-2 0.49996620
vn -0.86596686 1.1627121e-2 0.49996620
vn -0.64371161 -0.66896473 0.37164707
vn -0.64371161 -0.66896473 0.37164707
vn -0.99993240 1.1627121e-2 1.7240734e-16
vn -0.99993240 1.1627121e-2 1.7240734e-16
vn -0.74329415 -0.66896473 -5.6601417e-17
vn -0.74329415 -0.66896473 -5.6601417e-17
vn -0.86596686 1.1627121e-2 -0.49996620
vn -0.86596686 1.1627121e-2 -0.49996620
vn -0.64371161 -0.66896473 -0.37164707
vn -0.64371161 -0.66896473 -0.37164707
vn -0.49996620 1.1627121e-2 -0.86596686
vn -0.49996620 1.1627121e-2 -0.86596686
vn -0.37164707 -0.66896473 -0.64371161
vn -0.37164707 -0.66896473 -0.64371161
vn -4.8848746e-16 1.1627121e-2 -0.99993240
vn -4.8848746e-16 1.1627121e-2 -0.99993240
vn -7.3581842e-16 -0.66896473 -0.74329415
vn -7.3581842e-16 -0.66896473 -0.74329415
vn 0.49996620 1.1627121e-2 -0.86596686
vn 0.49996620 1.1627121e-2 -0.86596686
vn 0.37164707 -0.66896473 -0.64371161
vn 0.37164707 -0.66896473 -0.64371161
vn 0.86596686 1.1627121e-2 -0.49996620
vn 0.86596686 1.1627121e-2 -0.49996620
vn 0.64371161 -0.66896473 -0.37164707
vn 0.64371161 -0.66896473 -0.37164707
vn 0.98078528 0.19509032 -7.1745082e-16
vn 0.98078528 0.19509032 -7.1745082e-16
vn 0.74329415 -0.66896473 -1.3867347e-15
vn 0.74329415 -0.66896473 -1.3867347e-15
vn 0.84938497 0.19509032 0.49039264
vn 0.84938497 0.19509032 0.49039264
vn 0.64371161 -0.66896473 0.37164707
vn 0.64371161 -0.66896473 0.37164707
vn 0.49039264 0.19509032 0.84938497
vn 0.49039264 0.19509032 0.84938497
vn 0.37164707 -0.66896473 0.64371161
vn 0.37164707 -0.66896473 0.64371161
vn 8.0354491e-16 0.19509032 0.98078528
vn 8.0354491e-16 0.19509032 0.98078528
vn 4.5281134e-16 -0.66896473 0.74329415
vn 4.5281134e-16 -0.66896473 0.74329415
vn -0.49039264 0.19509032 0.84938497
vn -0.49039264 0.19509032 0.84938497
vn -0.37164707 -0.66896473 0.64371161
vn -0.37164707 -0.66896473 0.64371161
vn -0.84938497 0.19509032 0.49039264
vn -0.84938497 0.19509032 0.49039264
vn -0.64371161 -0.66896473 0.37164707
vn -0.64371161 -0.66896473 0.37164707
vn -0.98078528 0.19509032 1.2340154e-15
vn -0.98078528 0.19509032 1.2340154e-15
vn -0.74329415 -0.66896473 -5.6601417e-17
vn -0.74329415 -0.66896473 -5.6601417e-17
vn -0.84938497 0.19509032 -0.49039264
vn -0.84938497 0.19509032 -0.49039264
vn -0.64371161 -0.66896473 -0.37164707
vn -0.64371161 -0.66896473 -0.37164707
vn -0.49039264 0.19509032 -0.84938497
vn -0.49039264 0.19509032 -0.84938497
vn -0.37164707 -0.66896473 -0.64371161
vn -0.37164707 -0.66896473 -0.64371161
vn -1.1766193e-15 0.19509032 -0.98078528
vn -1.1766193e-15 0.19509032 -0.98078528
vn -7.3581842e-16 -0.66896473 -0.74329415
vn -7.3581842e-16 -0.66896473 -0.74329415
vn 0.49039264 0.19509032 -0.84938497
vn 0.49039264 0.19509032 -0.84938497
vn 0.37164707 -0.66896473 -0.64371161
vn 0.37164707 -0.66896473 -0.64371161
vn 0.84938497 0.19509032 -0.49039264
vn 0.84938497 0.19509032 -0.49039264
vn 0.64371161 -0.66896473 -0.37164707
vn 0.64371161 -0.66896473 -0.37164707
g Eridani_DockingMechanism_1_Probe_Eridani_DockingMechanism_1_Probe_auv
usemtl Eridani_DockingMechanism_1_Probe_auv
s 1
f 62/61/101 38/54/53 49/36/97 73/50/145
f 63/10/104 39/23/56 38/7/52 62/1/100
f 64/52/108 40/37/60 39/23/57 63/10/105
f 65/61/112 41/54/64 40/37/61 64/52/109
f 66/10/116 42/23/68 41/7/65 65/2/113
f 67/52/120 43/37/72 42/23/69 66/10/117
f 68/61/124 44/54/76 43/37/73 67/52/121
f 69/10/128 45/23/80 44/7/77 68/1/125
f 70/52/132 46/37/84 45/23/81 69/10/129
f 71/61/136 47/54/88 46/37/85 70/52/133
f 72/10/140 48/23/92 47/7/89 71/2/137
f 73/50/144 49/36/96 48/23/93 72/10/141
s 2
f 1/26/1 13/18/13 24/44/24 12/33/12
f 1/34/1 37/31/37 2/27/2
f 2/27/2 14/17/14 13/45/13 1/34/1
f 2/33/2 37/29/37 3/26/3
f 3/26/3 15/16/15 14/42/14 2/33/2
f 3/35/3 37/32/37 4/28/4
f 4/28/4 16/18/16 15/44/15 3/35/3
f 4/33/4 37/30/37 5/26/5
f 5/26/5 17/16/17 16/44/16 4/33/4
f 5/33/5 37/29/37 6/24/6
f 6/24/6 18/16/18 17/42/17 5/33/5
f 6/35/6 37/32/37 7/28/7
f 7/28/7 19/18/19 18/44/18 6/35/6
f 7/34/7 37/31/37 8/27/8
f 8/27/8 20/17/20 19/45/19 7/34/7
f 8/34/8 37/29/37 9/25/9
f 9/25/9 21/15/21 20/43/20 8/34/8
f 9/35/9 37/32/37 10/26/10
f 10/26/10 22/18/22 21/44/21 9/35/9
f 10/33/10 37/30/37 11/26/11
f 11/26/11 23/16/23 22/44/22 10/33/10
f 11/33/11 37/30/37 12/26/12
f 12/26/12 24/18/24 23/42/23 11/33/11
f 12/33/12 37/30/37 1/26/1
f 13/18/13 25/14/25 36/47/36 24/44/24
f 14/17/14 26/13/26 25/48/25 13/45/13
f 15/16/15 27/12/27 26/47/26 14/42/14
f 16/18/16 28/14/28 27/49/27 15/44/15
f 17/16/17 29/12/29 28/47/28 16/44/16
f 18/16/18 30/12/30 29/46/29 17/42/17
f 19/18/19 31/14/31 30/49/30 18/44/18
f 20/17/20 32/13/32 31/48/31 19/45/19
f 21/15/21 33/12/33 32/48/32 20/43/20
f 22/18/22 34/14/34 33/47/33 21/44/21
f 23/16/23 35/12/35 34/47/34 22/44/22
f 24/18/24 36/12/36 35/47/35 23/42/23
f 25/14/25 62/11/99 73/53/143 36/47/36
f 26/13/26 63/9/102 62/51/98 25/48/25
f 27/12/27 64/8/106 63/51/103 26/47/26
f 28/14/28 65/11/110 64/53/107 27/49/27
f 29/12/29 66/8/114 65/51/111 28/47/28
f 30/12/30 67/8/118 66/51/115 29/46/29
f 31/14/31 68/11/122 67/53/119 30/49/30
f 32/13/32 69/9/126 68/51/123 31/48/31
f 33/12/33 70/8/130 69/51/127 32/48/32
f 34/14/34 71/11/134 70/53/131 33/47/33
f 35/12/35 72/8/138 71/51/135 34/47/34
f 36/12/36 73/8/142 72/51/139 35/47/35
f 38/6/50 50/4/38 61/19/49 49/20/94
f 39/22/55 51/21/39 50/3/38 38/5/51
f 40/41/59 52/40/40 51/21/39 39/22/54
f 41/60/63 53/59/41 52/40/40 40/41/58
f 42/41/67 54/40/42 53/59/41 41/60/62
f 43/22/71 55/21/43 54/40/42 42/41/66
f 44/5/75 56/3/44 55/21/43 43/22/70
f 45/22/79 57/21/45 56/3/44 44/5/74
f 46/41/83 58/40/46 57/21/45 45/22/78
f 47/57/87 59/55/47 58/40/46 46/41/82
f 48/39/91 60/38/48 59/56/47 47/58/86
f 49/20/95 61/19/49 60/38/48 48/39/90
