# Exported from Wings 3D 1.5.4
mtllib Alniyat_Antenna_2_Base_2.mtl
o Alniyat_Antenna_2_Base_2
#32 vertices, 24 faces
v -2.5000000e-2 2.5000000e-2 -6.5000000e-2
v -2.5000000e-2 1.7677670e-2 -8.2677670e-2
v -2.5000000e-2 2.6020852e-18 -9.0000000e-2
v -2.5000000e-2 -1.7677670e-2 -8.2677670e-2
v -2.5000000e-2 -2.5000000e-2 -6.5000000e-2
v -2.5000000e-2 2.5000000e-2 -4.0000000e-2
v -2.5000000e-2 -2.5000000e-2 -4.0000000e-2
v -1.2500000e-2 -2.5000000e-2 -4.0000000e-2
v -1.2500000e-2 2.5000000e-2 -4.0000000e-2
v -1.2500000e-2 -2.5000000e-2 -6.5000000e-2
v -1.2500000e-2 -1.7677670e-2 -8.2677670e-2
v -1.2500000e-2 1.3010426e-18 -9.0000000e-2
v -1.2500000e-2 1.7677670e-2 -8.2677670e-2
v -1.2500000e-2 2.5000000e-2 -6.5000000e-2
v 2.5000000e-2 2.5000000e-2 -6.5000000e-2
v 2.5000000e-2 1.7677670e-2 -8.2677670e-2
v 2.5000000e-2 -4.3368087e-19 -9.0000000e-2
v 2.5000000e-2 -1.7677670e-2 -8.2677670e-2
v 2.5000000e-2 -2.5000000e-2 -6.5000000e-2
v 2.5000000e-2 -2.5000000e-2 -4.0000000e-2
v 2.5000000e-2 2.5000000e-2 -4.0000000e-2
v 1.2500000e-2 -2.5000000e-2 -4.0000000e-2
v 1.2500000e-2 2.5000000e-2 -4.0000000e-2
v 1.2500000e-2 -2.5000000e-2 -6.5000000e-2
v 1.2500000e-2 -1.7677670e-2 -8.2677670e-2
v 1.2500000e-2 6.5052130e-19 -9.0000000e-2
v 1.2500000e-2 1.7677670e-2 -8.2677670e-2
v 1.2500000e-2 2.5000000e-2 -6.5000000e-2
v 2.5000000e-2 -2.5000000e-2 2.2500000e-2
v 2.5000000e-2 2.5000000e-2 2.2500000e-2
v -2.5000000e-2 2.5000000e-2 2.2500000e-2
v -2.5000000e-2 -2.5000000e-2 2.2500000e-2
vt 0.36990251 1.7363729e-2
vt 0.36990251 3.4077575e-2
vt 0.38661636 1.7363729e-2
vt 0.38661636 3.4077575e-2
vt 0.39910509 3.4191315e-2
vt 0.39910509 1.7372738e-2
vt 0.41768666 5.3311671e-2
vt 0.41768666 5.3311671e-2
vt 0.41948908 4.8960244e-2
vt 0.41948908 5.7663097e-2
vt 0.41948908 4.8960244e-2
vt 0.41948908 5.7663097e-2
vt 0.42012831 2.1577383e-2
vt 0.42012831 2.9450567e-2
vt 0.42012831 1.7372738e-2
vt 0.42012831 3.4191315e-2
vt 0.42384050 4.7157825e-2
vt 0.42384050 5.9465517e-2
vt 0.42384050 4.7157825e-2
vt 0.42384050 5.9465517e-2
vt 0.42853760 3.4191315e-2
vt 0.42853760 2.9450567e-2
vt 0.42853760 1.7372738e-2
vt 0.42853760 2.1577383e-2
vt 0.42999435 4.7157825e-2
vt 0.42999435 5.9465517e-2
vt 0.42999435 4.7157825e-2
vt 0.42999435 5.9465517e-2
vt 0.43005019 4.7157825e-2
vt 0.43005019 5.9465517e-2
vt 0.43497379 3.4191315e-2
vt 0.43497379 2.1577383e-2
vt 0.43497379 2.9450567e-2
vt 0.43497379 1.7372738e-2
vt 0.43620404 4.7157825e-2
vt 0.43620404 5.9465517e-2
vt 0.44140998 1.7372738e-2
vt 0.44140998 3.4191315e-2
vt 0.44140998 2.9450567e-2
vt 0.44140998 2.1577383e-2
vt 0.44784617 2.9450567e-2
vt 0.44784617 3.4191315e-2
vt 0.44784617 2.1577383e-2
vt 0.44784617 1.7372738e-2
vt 0.45428236 2.9450567e-2
vt 0.45428236 2.1577383e-2
vt 0.45428236 1.7372738e-2
vt 0.45428236 3.4191315e-2
vt 0.45607873 4.7025069e-2
vt 0.45607873 5.9332761e-2
vt 0.45607873 4.7025069e-2
vt 0.45607873 5.9332761e-2
vt 0.46269165 2.9450567e-2
vt 0.46269165 3.4191315e-2
vt 0.46269165 2.1577383e-2
vt 0.46269165 1.7372738e-2
vt 0.47146335 4.7025069e-2
vt 0.47146335 5.9332761e-2
vt 0.47146335 4.7025069e-2
vt 0.47146335 5.9332761e-2
vt 0.47761719 4.7025069e-2
vt 0.47761719 5.9332761e-2
vt 0.47761719 4.7025069e-2
vt 0.47761719 5.9332761e-2
vt 0.48196862 4.8827489e-2
vt 0.48196862 5.7530341e-2
vt 0.48196862 4.8827489e-2
vt 0.48196862 5.7530341e-2
vt 0.48371487 1.7372738e-2
vt 0.48371487 3.4191315e-2
vt 0.48377104 5.3178915e-2
vt 0.48377104 5.3178915e-2
vn -1.00000000 -1.0308292e-17 1.9323065e-17
vn 0.0000000e+0 0.98078528 -0.19509032
vn 0.0000000e+0 0.98078528 -0.19509032
vn -1.00000000 -1.0308292e-17 1.9323065e-17
vn 3.0665868e-17 0.70710678 -0.70710678
vn 3.0665868e-17 0.70710678 -0.70710678
vn -1.00000000 -1.0308292e-17 1.9323065e-17
vn -6.6707570e-33 -3.0042419e-17 -1.00000000
vn -6.6707570e-33 -3.0042419e-17 -1.00000000
vn -1.00000000 -1.0308292e-17 1.9323065e-17
vn -3.0665868e-17 -0.70710678 -0.70710678
vn -3.0665868e-17 -0.70710678 -0.70710678
vn -1.00000000 -1.0308292e-17 1.9323065e-17
vn 0.0000000e+0 -0.98078528 -0.19509032
vn 0.0000000e+0 -0.98078528 -0.19509032
vn -1.00000000 -1.0308292e-17 1.9323065e-17
vn 0.0000000e+0 1.00000000 6.9388939e-17
vn 0.0000000e+0 1.00000000 6.9388939e-17
vn -1.00000000 -1.0308292e-17 1.9323065e-17
vn 0.0000000e+0 -1.00000000 -6.9388939e-17
vn 0.0000000e+0 -1.00000000 -6.9388939e-17
vn 0.0000000e+0 -1.00000000 -6.4763010e-17
vn 1.00000000 -2.5404437e-17 0.0000000e+0
vn 0.0000000e+0 -1.00000000 -6.4763010e-17
vn 0.0000000e+0 0.0000000e+0 -1.00000000
vn 0.0000000e+0 -1.00000000 -6.4763010e-17
vn 0.0000000e+0 1.00000000 6.4763010e-17
vn 1.00000000 -2.5404437e-17 0.0000000e+0
vn 0.0000000e+0 0.0000000e+0 -1.00000000
vn 0.0000000e+0 1.00000000 6.4763010e-17
vn 0.0000000e+0 1.00000000 6.4763010e-17
vn 0.0000000e+0 -0.98078528 -0.19509032
vn 0.0000000e+0 -0.98078528 -0.19509032
vn 1.00000000 -2.5404437e-17 0.0000000e+0
vn -3.0665868e-17 -0.70710678 -0.70710678
vn -3.0665868e-17 -0.70710678 -0.70710678
vn 1.00000000 -2.5404437e-17 0.0000000e+0
vn -6.6707570e-33 -3.0042419e-17 -1.00000000
vn -6.6707570e-33 -3.0042419e-17 -1.00000000
vn 1.00000000 -2.5404437e-17 0.0000000e+0
vn 3.0665868e-17 0.70710678 -0.70710678
vn 3.0665868e-17 0.70710678 -0.70710678
vn 1.00000000 -2.5404437e-17 0.0000000e+0
vn 0.0000000e+0 0.98078528 -0.19509032
vn 0.0000000e+0 0.98078528 -0.19509032
vn 1.00000000 -2.5404437e-17 0.0000000e+0
vn 0.0000000e+0 0.98078528 -0.19509032
vn 1.00000000 -1.0308292e-17 -2.6154800e-17
vn 0.0000000e+0 0.98078528 -0.19509032
vn 0.0000000e+0 0.70710678 -0.70710678
vn 0.0000000e+0 0.70710678 -0.70710678
vn 1.00000000 -1.0308292e-17 -2.6154800e-17
vn 0.0000000e+0 -9.0127256e-17 -1.00000000
vn 0.0000000e+0 -9.0127256e-17 -1.00000000
vn 1.00000000 -1.0308292e-17 -2.6154800e-17
vn 0.0000000e+0 -0.70710678 -0.70710678
vn 0.0000000e+0 -0.70710678 -0.70710678
vn 1.00000000 -1.0308292e-17 -2.6154800e-17
vn 0.0000000e+0 -0.98078528 -0.19509032
vn 1.00000000 -1.0308292e-17 -2.6154800e-17
vn 0.0000000e+0 -0.98078528 -0.19509032
vn 1.00000000 -1.0308292e-17 -2.6154800e-17
vn 0.0000000e+0 -1.00000000 -6.9388939e-17
vn 0.0000000e+0 -1.00000000 -6.9388939e-17
vn 1.00000000 -1.0308292e-17 -2.6154800e-17
vn 0.0000000e+0 1.00000000 6.9388939e-17
vn 0.0000000e+0 1.00000000 6.9388939e-17
vn 0.0000000e+0 -1.00000000 -6.4763010e-17
vn -1.00000000 5.0808874e-17 0.0000000e+0
vn 0.0000000e+0 0.0000000e+0 -1.00000000
vn 0.0000000e+0 -1.00000000 -6.4763010e-17
vn 0.0000000e+0 -1.00000000 -6.4763010e-17
vn 0.0000000e+0 1.00000000 6.4763010e-17
vn -1.00000000 5.0808874e-17 0.0000000e+0
vn 0.0000000e+0 1.00000000 6.4763010e-17
vn 0.0000000e+0 0.0000000e+0 -1.00000000
vn 0.0000000e+0 1.00000000 6.4763010e-17
vn 0.0000000e+0 -0.98078528 -0.19509032
vn 0.0000000e+0 -0.98078528 -0.19509032
vn -1.00000000 5.0808874e-17 0.0000000e+0
vn 0.0000000e+0 -0.70710678 -0.70710678
vn 0.0000000e+0 -0.70710678 -0.70710678
vn -1.00000000 5.0808874e-17 0.0000000e+0
vn 0.0000000e+0 -9.0127256e-17 -1.00000000
vn 0.0000000e+0 -9.0127256e-17 -1.00000000
vn -1.00000000 5.0808874e-17 0.0000000e+0
vn 0.0000000e+0 0.70710678 -0.70710678
vn 0.0000000e+0 0.70710678 -0.70710678
vn -1.00000000 5.0808874e-17 0.0000000e+0
vn 0.0000000e+0 0.98078528 -0.19509032
vn 0.0000000e+0 0.98078528 -0.19509032
vn -1.00000000 5.0808874e-17 0.0000000e+0
vn 1.00000000 -1.0308292e-17 -2.6154800e-17
vn 0.0000000e+0 0.0000000e+0 1.00000000
vn 0.0000000e+0 -1.00000000 -9.7144515e-17
vn 0.0000000e+0 -1.00000000 -9.7144515e-17
vn 1.00000000 -1.0308292e-17 -2.6154800e-17
vn 0.0000000e+0 1.00000000 9.7144515e-17
vn 0.0000000e+0 0.0000000e+0 1.00000000
vn 0.0000000e+0 1.00000000 9.7144515e-17
vn -1.00000000 -1.0308292e-17 1.9323065e-17
vn 0.0000000e+0 0.0000000e+0 1.00000000
vn 0.0000000e+0 1.00000000 9.7144515e-17
vn 0.0000000e+0 1.00000000 9.7144515e-17
vn -1.00000000 -1.0308292e-17 1.9323065e-17
vn 0.0000000e+0 -1.00000000 -9.7144515e-17
vn 0.0000000e+0 0.0000000e+0 1.00000000
vn 0.0000000e+0 -1.00000000 -9.7144515e-17
g Alniyat_Antenna_2_Base_2_Alniyat_Antenna_2_Base_2_auv
usemtl Alniyat_Antenna_2_Base_2_auv
s 1
f 2/67/4 3/72/7 4/68/10 5/64/13 7/60/19 32/52/105 31/51/101 6/59/16 1/63/1
f 9/36/29 23/30/76 22/29/70 8/35/25
f 15/62/48 21/58/65 30/50/97 29/49/93 20/57/62 19/61/60 18/65/58 17/71/55 16/66/52
s 2
f 9/27/28 8/28/23 10/20/34 11/12/37 12/8/40 13/11/43 14/19/46
f 28/18/92 27/10/89 26/7/86 25/9/83 24/17/80 22/25/69 23/26/74
f 30/4/99 31/2/102 32/1/107 29/3/94
s 3
f 1/21/3 14/22/45 13/33/42 2/31/6
f 2/31/5 13/33/41 12/39/39 3/38/9
f 3/38/8 12/39/38 11/41/36 4/42/12
f 4/42/11 11/41/35 10/45/32 5/48/14
f 5/48/15 10/45/33 8/53/22 7/54/20
f 6/16/18 31/5/104 9/14/31
f 8/53/24 32/70/106 7/54/21
f 9/14/27 14/22/44 1/21/2 6/16/17
f 16/34/51 27/32/88 28/24/90 15/23/47
f 17/37/54 26/40/85 27/32/87 16/34/50
f 18/44/57 25/43/82 26/40/84 17/37/53
f 19/47/61 20/56/63 22/55/68 24/46/79
f 19/47/59 24/46/78 25/43/81 18/44/56
f 20/56/64 29/69/96 22/55/72
f 23/13/75 30/6/98 21/15/67
f 28/24/91 23/13/73 21/15/66 15/23/49
f 30/6/100 23/13/77 9/14/30 31/5/103
f 32/70/108 8/53/26 22/55/71 29/69/95
