# Exported from Wings 3D 1.5.4
mtllib Alniyat_Antenna_2_Base_1.mtl
o Alniyat_Antenna_2_Base_1
#16 vertices, 10 faces
v 2.5000000e-2 3.4694470e-18 -6.5000000e-2
v 1.7677670e-2 1.7677670e-2 -6.5000000e-2
v 2.6583600e-18 2.5000000e-2 -6.5000000e-2
v -1.7677670e-2 1.7677670e-2 -6.5000000e-2
v -2.5000000e-2 3.4694470e-18 -6.5000000e-2
v -1.7677670e-2 -1.7677670e-2 -6.5000000e-2
v -3.4648941e-18 -2.5000000e-2 -6.5000000e-2
v 1.7677670e-2 -1.7677670e-2 -6.5000000e-2
v 2.5000000e-2 0.0000000e+0 2.2500000e-2
v 1.7677670e-2 1.7677670e-2 2.2500000e-2
v 2.6583600e-18 2.5000000e-2 2.2500000e-2
v -1.7677670e-2 1.7677670e-2 2.2500000e-2
v -2.5000000e-2 0.0000000e+0 2.2500000e-2
v -1.7677670e-2 -1.7677670e-2 2.2500000e-2
v -3.4648941e-18 -2.5000000e-2 2.2500000e-2
v 1.7677670e-2 -1.7677670e-2 2.2500000e-2
vt 0.66167065 0.11526369
vt 0.66249053 8.2584518e-2
vt 0.66249053 0.10390857
vt 0.66350789 0.11082820
vt 0.66350789 0.11969918
vt 0.66408813 8.2584518e-2
vt 0.66408813 0.10390857
vt 0.66794338 0.10899096
vt 0.66794338 0.12153642
vt 0.66794508 8.2584518e-2
vt 0.66794508 0.10390857
vt 0.67180203 8.2584518e-2
vt 0.67180203 0.10390857
vt 0.67237887 0.11082820
vt 0.67237887 0.11969918
vt 0.67339962 8.2584518e-2
vt 0.67339962 0.10390857
vt 0.67421611 0.11526369
vt 0.68523153 0.11526369
vt 0.68706876 0.11082820
vt 0.68706876 0.11969918
vt 0.69150425 0.10899096
vt 0.69150425 0.12153642
vt 0.69593974 0.11082820
vt 0.69593974 0.11969918
vt 0.69777698 0.11526369
vn 0.0000000e+0 0.0000000e+0 -1.00000000
vn 1.00000000 3.0042419e-17 1.6676892e-33
vn 1.00000000 3.0042419e-17 1.6676892e-33
vn 0.0000000e+0 0.0000000e+0 -1.00000000
vn 0.70710678 0.70710678 4.3808383e-18
vn 0.70710678 0.70710678 4.3808383e-18
vn 0.0000000e+0 0.0000000e+0 -1.00000000
vn 1.8025451e-16 1.00000000 0.0000000e+0
vn 1.8025451e-16 1.00000000 0.0000000e+0
vn 0.0000000e+0 0.0000000e+0 -1.00000000
vn -0.70710678 0.70710678 4.3808383e-18
vn -0.70710678 0.70710678 4.3808383e-18
vn 0.0000000e+0 0.0000000e+0 -1.00000000
vn -1.00000000 9.0127256e-17 -1.6676892e-33
vn -1.00000000 9.0127256e-17 -1.6676892e-33
vn 0.0000000e+0 0.0000000e+0 -1.00000000
vn -0.70710678 -0.70710678 -1.3142515e-17
vn -0.70710678 -0.70710678 -1.3142515e-17
vn 0.0000000e+0 0.0000000e+0 -1.00000000
vn -9.0127256e-17 -1.00000000 -2.1904192e-17
vn -9.0127256e-17 -1.00000000 -2.1904192e-17
vn 0.0000000e+0 0.0000000e+0 -1.00000000
vn 0.70710678 -0.70710678 -1.7523353e-17
vn 0.70710678 -0.70710678 -1.7523353e-17
vn 0.0000000e+0 0.0000000e+0 1.00000000
vn 1.00000000 3.0042419e-17 1.6676892e-33
vn 1.00000000 3.0042419e-17 1.6676892e-33
vn 0.0000000e+0 0.0000000e+0 1.00000000
vn 0.70710678 0.70710678 4.3808383e-18
vn 0.70710678 0.70710678 4.3808383e-18
vn 0.0000000e+0 0.0000000e+0 1.00000000
vn 1.8025451e-16 1.00000000 0.0000000e+0
vn 1.8025451e-16 1.00000000 0.0000000e+0
vn 0.0000000e+0 0.0000000e+0 1.00000000
vn -0.70710678 0.70710678 4.3808383e-18
vn -0.70710678 0.70710678 4.3808383e-18
vn 0.0000000e+0 0.0000000e+0 1.00000000
vn -1.00000000 9.0127256e-17 -1.6676892e-33
vn -1.00000000 9.0127256e-17 -1.6676892e-33
vn 0.0000000e+0 0.0000000e+0 1.00000000
vn -0.70710678 -0.70710678 -1.3142515e-17
vn -0.70710678 -0.70710678 -1.3142515e-17
vn 0.0000000e+0 0.0000000e+0 1.00000000
vn -9.0127256e-17 -1.00000000 -2.1904192e-17
vn -9.0127256e-17 -1.00000000 -2.1904192e-17
vn 0.0000000e+0 0.0000000e+0 1.00000000
vn 0.70710678 -0.70710678 -1.7523353e-17
vn 0.70710678 -0.70710678 -1.7523353e-17
g Alniyat_Antenna_2_Base_1_Alniyat_Antenna_2_Base_1_auv
usemtl Alniyat_Antenna_2_Base_1_auv
s 1
f 1/19/1 8/20/22 7/22/19 6/24/16 5/26/13 4/25/10 3/23/7 2/21/4
f 10/15/28 11/9/31 12/5/34 13/1/37 14/4/40 15/8/43 16/14/46 9/18/25
s 2
f 1/3/2 9/2/26 16/6/47 8/7/23
f 2/13/6 10/12/30 9/16/27 1/17/3
f 3/11/9 11/10/33 10/12/29 2/13/5
f 4/7/12 12/6/36 11/10/32 3/11/8
f 5/3/15 13/2/39 12/6/35 4/7/11
f 6/13/18 14/12/42 13/16/38 5/17/14
f 7/11/21 15/10/45 14/12/41 6/13/17
f 8/7/24 16/6/48 15/10/44 7/11/20
