# Exported from Wings 3D 1.5.4
mtllib tantares_basic_fuel_tank_s1_1.mtl
o mesh2
#96 vertices, 50 faces
v 0.23118673 -0.21250000 -0.65612635
v 0.20808974 -0.18750000 -0.66569344
v 0.20248547 -0.21250000 -0.58683539
v 0.17938848 -0.18750000 -0.59640247
v 0.20808974 -6.2500000e-2 -0.66569344
v 0.23118673 -3.7500000e-2 -0.65612635
v 0.17938848 -6.2500000e-2 -0.59640247
v 0.20248547 -3.7500000e-2 -0.58683539
v 0.30047769 -0.21250000 -0.62742510
v 0.32357468 -0.18750000 -0.61785801
v 0.27177643 -0.21250000 -0.55813413
v 0.29487342 -0.18750000 -0.54856704
v 0.32357468 -6.2500000e-2 -0.61785801
v 0.30047769 -3.7500000e-2 -0.62742510
v 0.29487342 -6.2500000e-2 -0.54856704
v 0.27177643 -3.7500000e-2 -0.55813413
v 0.31610919 -4.5580583e-2 -0.62095031
v 0.31610919 -0.20441942 -0.62095031
v 0.21555522 -4.5580583e-2 -0.66260113
v 0.21555522 -0.20441942 -0.66260113
v 0.18685397 -0.20441942 -0.59331017
v 0.28740794 -4.5580583e-2 -0.55165935
v 0.28740794 -0.20441942 -0.55165935
v 0.18685397 -4.5580583e-2 -0.59331017
v -0.21205255 -0.21250000 0.60993238
v -0.18895557 -0.18750000 0.61949946
v -0.20248547 -0.21250000 0.58683539
v -0.17938848 -0.18750000 0.59640247
v -0.18895557 -6.2500000e-2 0.61949946
v -0.21205255 -3.7500000e-2 0.60993238
v -0.17938848 -6.2500000e-2 0.59640247
v -0.20248547 -3.7500000e-2 0.58683539
v -0.28134352 -0.21250000 0.58123112
v -0.30444051 -0.18750000 0.57166403
v -0.27177643 -0.21250000 0.55813413
v -0.29487342 -0.18750000 0.54856704
v -0.30444051 -6.2500000e-2 0.57166403
v -0.28134352 -3.7500000e-2 0.58123112
v -0.29487342 -6.2500000e-2 0.54856704
v -0.27177643 -3.7500000e-2 0.55813413
v -0.29697502 -4.5580583e-2 0.57475634
v -0.29697502 -0.20441942 0.57475634
v -0.19642105 -4.5580583e-2 0.61640716
v -0.19642105 -0.20441942 0.61640716
v -0.18685397 -0.20441942 0.59331017
v -0.28740794 -4.5580583e-2 0.55165935
v -0.28740794 -0.20441942 0.55165935
v -0.18685397 -4.5580583e-2 0.59331017
v 0.62500000 0.25000000 -1.2576745e-17
v 0.60370364 0.25000000 0.16176190
v 0.54126588 0.25000000 0.31250000
v 0.44194174 0.25000000 0.44194174
v 0.31250000 0.25000000 0.54126588
v 0.16176190 0.25000000 0.60370364
v -1.3771492e-17 0.25000000 0.62500000
v -0.16176190 0.25000000 0.60370364
v -0.31250000 0.25000000 0.54126588
v -0.44194174 0.25000000 0.44194174
v -0.54126588 0.25000000 0.31250000
v -0.60370364 0.25000000 0.16176190
v -0.62500000 0.25000000 6.3963680e-17
v -0.60370364 0.25000000 -0.16176190
v -0.54126588 0.25000000 -0.31250000
v -0.44194174 0.25000000 -0.44194174
v -0.31250000 0.25000000 -0.54126588
v -0.16176190 0.25000000 -0.60370364
v -1.6685234e-16 0.25000000 -0.62500000
v 0.16176190 0.25000000 -0.60370364
v 0.31250000 0.25000000 -0.54126588
v 0.44194174 0.25000000 -0.44194174
v 0.54126588 0.25000000 -0.31250000
v 0.60370364 0.25000000 -0.16176190
v 0.62500000 -0.25000000 -1.2576745e-17
v 0.60370364 -0.25000000 0.16176190
v 0.54126588 -0.25000000 0.31250000
v 0.44194174 -0.25000000 0.44194174
v 0.31250000 -0.25000000 0.54126588
v 0.16176190 -0.25000000 0.60370364
v -1.3771492e-17 -0.25000000 0.62500000
v -0.16176190 -0.25000000 0.60370364
v -0.31250000 -0.25000000 0.54126588
v -0.44194174 -0.25000000 0.44194174
v -0.54126588 -0.25000000 0.31250000
v -0.60370364 -0.25000000 0.16176190
v -0.62500000 -0.25000000 6.3963680e-17
v -0.60370364 -0.25000000 -0.16176190
v -0.54126588 -0.25000000 -0.31250000
v -0.44194174 -0.25000000 -0.44194174
v -0.31250000 -0.25000000 -0.54126588
v -0.16176190 -0.25000000 -0.60370364
v -1.6685234e-16 -0.25000000 -0.62500000
v 0.16176190 -0.25000000 -0.60370364
v 0.31250000 -0.25000000 -0.54126588
v 0.44194174 -0.25000000 -0.44194174
v 0.54126588 -0.25000000 -0.31250000
v 0.60370364 -0.25000000 -0.16176190
vt 0.47866652 0.88417852
vt 0.47866652 0.98097977
vt 0.47866652 0.98097977
vt 0.51043735 0.98097977
vt 0.51043735 0.88417852
vt 0.51043735 0.88417852
vt 0.51043735 0.98097977
vt 0.54220819 0.88417852
vt 0.54220819 0.98097977
vt 0.54220819 0.98097977
vt 0.57397902 0.98097977
vt 0.57397902 0.88417852
vt 0.57397902 0.98097977
vt 0.60574985 0.88417852
vt 0.60574985 0.98097977
vt 0.60574985 0.88417852
vt 0.60574985 0.98097977
vt 0.63752069 0.88417852
vt 0.63752069 0.88417852
vt 0.63752069 0.98097977
vt 0.66929152 0.88417852
vt 0.66929152 0.98097977
vt 0.66929152 0.88417852
vt 0.66929152 0.98097977
vt 0.70106235 0.98097977
vt 0.70106235 0.88417852
vt 0.70106235 0.88417852
vt 0.70106235 0.98097977
vt 0.73283319 0.98097977
vt 0.73283319 0.88417852
vt 0.73283319 0.88417852
vt 0.73283319 0.98097977
vt 0.76460402 0.98097977
vt 0.76460402 0.88417852
vt 0.76460402 0.88417852
vt 0.76460402 0.98097977
vt 0.79637485 0.88417852
vt 0.79637485 0.98097977
vt 0.79637485 0.88417852
vt 0.79637485 0.98097977
vt 0.82814569 0.98097977
vt 0.82814569 0.88417852
vt 0.82814569 0.88417852
vt 0.82814569 0.98097977
vt 0.85991652 0.98097977
vt 0.85991652 0.88417852
vt 0.85991652 0.88417852
vt 0.85991652 0.98097977
vt 0.88024021 0.90861656
vt 0.88024021 0.90861656
vt 0.88024021 0.92332570
vt 0.88024021 0.92332570
vt 0.88024811 0.95183172
vt 0.88024811 0.97634695
vt 0.88043196 0.88929632
vt 0.88043512 0.88446097
vt 0.88046552 0.88929627
vt 0.88050604 0.88446091
vt 0.88183289 0.94851345
vt 0.88183289 0.97966522
vt 0.88515116 0.94692867
vt 0.88515116 0.98125000
vt 0.89494935 0.90861656
vt 0.89494935 0.90861656
vt 0.89494935 0.92332570
vt 0.89494935 0.92332570
vt 0.89797992 0.88929632
vt 0.89798300 0.88446097
vt 0.89798301 0.88929627
vt 0.89802235 0.88446091
vt 0.89862664 0.90861656
vt 0.89862664 0.92332570
vt 0.89862664 0.90861656
vt 0.89862664 0.92332570
vt 0.89986030 0.94692867
vt 0.89986030 0.98125000
vt 0.90206112 0.88929627
vt 0.90207343 0.88929632
vt 0.90207446 0.88446097
vt 0.90209836 0.88446091
vt 0.90230393 0.90861656
vt 0.90230393 0.90861656
vt 0.90230393 0.92332570
vt 0.90230393 0.92332570
vt 0.90317857 0.94851345
vt 0.90317857 0.97966522
vt 0.90476335 0.95183172
vt 0.90476335 0.97634695
vt 0.90568605 0.88929627
vt 0.90570117 0.88446097
vt 0.90570238 0.88929632
vt 0.90572105 0.88446091
vt 0.92384600 0.95183172
vt 0.92384600 0.97634695
vt 0.92543077 0.94851345
vt 0.92543077 0.97966522
vt 0.92681916 0.90861656
vt 0.92681916 0.90861656
vt 0.92681916 0.92332570
vt 0.92681916 0.92332570
vt 0.92766898 0.88929627
vt 0.92769433 0.88446097
vt 0.92769616 0.88929632
vt 0.92770336 0.88446091
vt 0.92874904 0.94692867
vt 0.92874904 0.98125000
vt 0.93049645 0.92332570
vt 0.93049645 0.90861656
vt 0.93049645 0.92332570
vt 0.93080335 0.88929627
vt 0.93083726 0.88446091
vt 0.93087529 0.88446097
vt 0.93087783 0.88929632
vt 0.93384879 0.88929627
vt 0.93388284 0.88446091
vt 0.93397882 0.88446097
vt 0.93398199 0.88929632
vt 0.93417373 0.90861656
vt 0.93417373 0.90861656
vt 0.93417373 0.92332570
vt 0.93417373 0.92332570
vt 0.94345818 0.94692867
vt 0.94345818 0.98125000
vt 0.94677645 0.94851345
vt 0.94677645 0.97966522
vt 0.94836123 0.95183172
vt 0.94836123 0.97634695
vn -0.20412415 -0.97528686 -8.4550989e-2
vn -0.90104757 -0.22094238 -0.37322612
vn -0.90104757 0.22094238 -0.37322612
vn -0.20412415 0.97528686 -8.4550989e-2
vn 0.20412415 -0.97528686 8.4550989e-2
vn 0.90104757 -0.22094238 0.37322612
vn 0.90104757 0.22094238 0.37322612
vn 0.20412415 0.97528686 8.4550989e-2
vn -0.65328148 -0.70710678 -0.27059805
vn 0.65328148 0.70710678 0.27059805
vn 0.65328148 -0.70710678 0.27059805
vn -0.65328148 0.70710678 -0.27059805
vn 0.20412415 -0.97528686 8.4550989e-2
vn 0.90104757 -0.22094238 0.37322612
vn 0.90104757 0.22094238 0.37322612
vn 0.20412415 0.97528686 8.4550989e-2
vn -0.20412415 -0.97528686 -8.4550989e-2
vn -0.90104757 -0.22094238 -0.37322612
vn -0.90104757 0.22094238 -0.37322612
vn -0.20412415 0.97528686 -8.4550989e-2
vn 0.65328148 -0.70710678 0.27059805
vn -0.65328148 0.70710678 -0.27059805
vn -0.65328148 -0.70710678 -0.27059805
vn 0.65328148 0.70710678 0.27059805
vn -0.20412415 -0.97528686 -8.4550989e-2
vn -0.20412415 -0.97528686 -8.4550989e-2
vn 0.38268343 4.1171697e-17 -0.92387953
vn -0.90104757 -0.22094238 -0.37322612
vn -0.90104757 -0.22094238 -0.37322612
vn 0.38268343 4.1171697e-17 -0.92387953
vn -0.90104757 0.22094238 -0.37322612
vn -0.90104757 0.22094238 -0.37322612
vn 0.38268343 4.1171697e-17 -0.92387953
vn -0.20412415 0.97528686 -8.4550989e-2
vn -0.20412415 0.97528686 -8.4550989e-2
vn 0.38268343 4.1171697e-17 -0.92387953
vn 0.20412415 -0.97528686 8.4550989e-2
vn 0.20412415 -0.97528686 8.4550989e-2
vn 0.38268343 4.1171697e-17 -0.92387953
vn 0.90104757 -0.22094238 0.37322612
vn 0.90104757 -0.22094238 0.37322612
vn 0.38268343 4.1171697e-17 -0.92387953
vn 0.90104757 0.22094238 0.37322612
vn 0.90104757 0.22094238 0.37322612
vn 0.38268343 4.1171697e-17 -0.92387953
vn 0.20412415 0.97528686 8.4550989e-2
vn 0.20412415 0.97528686 8.4550989e-2
vn 0.38268343 4.1171697e-17 -0.92387953
vn 0.65328148 0.70710678 0.27059805
vn 0.65328148 0.70710678 0.27059805
vn 0.38268343 4.1171697e-17 -0.92387953
vn 0.65328148 -0.70710678 0.27059805
vn 0.65328148 -0.70710678 0.27059805
vn 0.38268343 4.1171697e-17 -0.92387953
vn -0.65328148 0.70710678 -0.27059805
vn -0.65328148 0.70710678 -0.27059805
vn 0.38268343 4.1171697e-17 -0.92387953
vn -0.65328148 -0.70710678 -0.27059805
vn -0.65328148 -0.70710678 -0.27059805
vn 0.38268343 4.1171697e-17 -0.92387953
vn 0.20412415 -0.97528686 8.4550989e-2
vn 0.20412415 -0.97528686 8.4550989e-2
vn -0.38268343 4.1171697e-17 0.92387953
vn 0.90104757 -0.22094238 0.37322612
vn 0.90104757 -0.22094238 0.37322612
vn -0.38268343 4.1171697e-17 0.92387953
vn 0.90104757 0.22094238 0.37322612
vn 0.90104757 0.22094238 0.37322612
vn -0.38268343 4.1171697e-17 0.92387953
vn 0.20412415 0.97528686 8.4550989e-2
vn 0.20412415 0.97528686 8.4550989e-2
vn -0.38268343 4.1171697e-17 0.92387953
vn -0.20412415 -0.97528686 -8.4550989e-2
vn -0.20412415 -0.97528686 -8.4550989e-2
vn -0.38268343 4.1171697e-17 0.92387953
vn -0.90104757 -0.22094238 -0.37322612
vn -0.90104757 -0.22094238 -0.37322612
vn -0.38268343 4.1171697e-17 0.92387953
vn -0.90104757 0.22094238 -0.37322612
vn -0.90104757 0.22094238 -0.37322612
vn -0.38268343 4.1171697e-17 0.92387953
vn -0.20412415 0.97528686 -8.4550989e-2
vn -0.20412415 0.97528686 -8.4550989e-2
vn -0.38268343 4.1171697e-17 0.92387953
vn -0.65328148 0.70710678 -0.27059805
vn -0.65328148 0.70710678 -0.27059805
vn -0.38268343 4.1171697e-17 0.92387953
vn -0.65328148 -0.70710678 -0.27059805
vn -0.65328148 -0.70710678 -0.27059805
vn -0.38268343 4.1171697e-17 0.92387953
vn 0.65328148 0.70710678 0.27059805
vn 0.65328148 0.70710678 0.27059805
vn -0.38268343 4.1171697e-17 0.92387953
vn 0.65328148 -0.70710678 0.27059805
vn 0.65328148 -0.70710678 0.27059805
vn -0.38268343 4.1171697e-17 0.92387953
vn 1.00000000 0.0000000e+0 -1.1198031e-16
vn 1.00000000 0.0000000e+0 -1.1198031e-16
vn 0.96592583 0.0000000e+0 0.25881905
vn 0.96592583 0.0000000e+0 0.25881905
vn 0.86602540 0.0000000e+0 0.50000000
vn 0.86602540 0.0000000e+0 0.50000000
vn 0.70710678 0.0000000e+0 0.70710678
vn 0.70710678 0.0000000e+0 0.70710678
vn 0.50000000 0.0000000e+0 0.86602540
vn 0.50000000 0.0000000e+0 0.86602540
vn 0.25881905 0.0000000e+0 0.96592583
vn 0.25881905 0.0000000e+0 0.96592583
vn 2.9394831e-16 0.0000000e+0 1.00000000
vn 2.9394831e-16 0.0000000e+0 1.00000000
vn -0.25881905 0.0000000e+0 0.96592583
vn -0.25881905 0.0000000e+0 0.96592583
vn -0.50000000 0.0000000e+0 0.86602540
vn -0.50000000 0.0000000e+0 0.86602540
vn -0.70710678 0.0000000e+0 0.70710678
vn -0.70710678 0.0000000e+0 0.70710678
vn -0.86602540 0.0000000e+0 0.50000000
vn -0.86602540 0.0000000e+0 0.50000000
vn -0.96592583 0.0000000e+0 0.25881905
vn -0.96592583 0.0000000e+0 0.25881905
vn -1.00000000 0.0000000e+0 5.4590401e-16
vn -1.00000000 0.0000000e+0 5.4590401e-16
vn -0.96592583 0.0000000e+0 -0.25881905
vn -0.96592583 0.0000000e+0 -0.25881905
vn -0.86602540 0.0000000e+0 -0.50000000
vn -0.86602540 0.0000000e+0 -0.50000000
vn -0.70710678 0.0000000e+0 -0.70710678
vn -0.70710678 0.0000000e+0 -0.70710678
vn -0.50000000 0.0000000e+0 -0.86602540
vn -0.50000000 0.0000000e+0 -0.86602540
vn -0.25881905 0.0000000e+0 -0.96592583
vn -0.25881905 0.0000000e+0 -0.96592583
vn -4.4792124e-16 0.0000000e+0 -1.00000000
vn -4.4792124e-16 0.0000000e+0 -1.00000000
vn 0.25881905 0.0000000e+0 -0.96592583
vn 0.25881905 0.0000000e+0 -0.96592583
vn 0.50000000 0.0000000e+0 -0.86602540
vn 0.50000000 0.0000000e+0 -0.86602540
vn 0.70710678 0.0000000e+0 -0.70710678
vn 0.70710678 0.0000000e+0 -0.70710678
vn 0.86602540 0.0000000e+0 -0.50000000
vn 0.86602540 0.0000000e+0 -0.50000000
vn 0.96592583 0.0000000e+0 -0.25881905
vn 0.96592583 0.0000000e+0 -0.25881905
vn 1.00000000 0.0000000e+0 -1.1198031e-16
vn 1.00000000 0.0000000e+0 -1.1198031e-16
vn 0.96592583 0.0000000e+0 0.25881905
vn 0.96592583 0.0000000e+0 0.25881905
vn 0.86602540 0.0000000e+0 0.50000000
vn 0.86602540 0.0000000e+0 0.50000000
vn 0.70710678 0.0000000e+0 0.70710678
vn 0.70710678 0.0000000e+0 0.70710678
vn 0.50000000 0.0000000e+0 0.86602540
vn 0.50000000 0.0000000e+0 0.86602540
vn 0.25881905 0.0000000e+0 0.96592583
vn 0.25881905 0.0000000e+0 0.96592583
vn 2.9394831e-16 0.0000000e+0 1.00000000
vn 2.9394831e-16 0.0000000e+0 1.00000000
vn -0.25881905 0.0000000e+0 0.96592583
vn -0.25881905 0.0000000e+0 0.96592583
vn -0.50000000 0.0000000e+0 0.86602540
vn -0.50000000 0.0000000e+0 0.86602540
vn -0.70710678 0.0000000e+0 0.70710678
vn -0.70710678 0.0000000e+0 0.70710678
vn -0.86602540 0.0000000e+0 0.50000000
vn -0.86602540 0.0000000e+0 0.50000000
vn -0.96592583 0.0000000e+0 0.25881905
vn -0.96592583 0.0000000e+0 0.25881905
vn -1.00000000 0.0000000e+0 5.4590401e-16
vn -1.00000000 0.0000000e+0 5.4590401e-16
vn -0.96592583 0.0000000e+0 -0.25881905
vn -0.96592583 0.0000000e+0 -0.25881905
vn -0.86602540 0.0000000e+0 -0.50000000
vn -0.86602540 0.0000000e+0 -0.50000000
vn -0.70710678 0.0000000e+0 -0.70710678
vn -0.70710678 0.0000000e+0 -0.70710678
vn -0.50000000 0.0000000e+0 -0.86602540
vn -0.50000000 0.0000000e+0 -0.86602540
vn -0.25881905 0.0000000e+0 -0.96592583
vn -0.25881905 0.0000000e+0 -0.96592583
vn -4.4792124e-16 0.0000000e+0 -1.00000000
vn -4.4792124e-16 0.0000000e+0 -1.00000000
vn 0.25881905 0.0000000e+0 -0.96592583
vn 0.25881905 0.0000000e+0 -0.96592583
vn 0.50000000 0.0000000e+0 -0.86602540
vn 0.50000000 0.0000000e+0 -0.86602540
vn 0.70710678 0.0000000e+0 -0.70710678
vn 0.70710678 0.0000000e+0 -0.70710678
vn 0.86602540 0.0000000e+0 -0.50000000
vn 0.86602540 0.0000000e+0 -0.50000000
vn 0.96592583 0.0000000e+0 -0.25881905
vn 0.96592583 0.0000000e+0 -0.25881905
g mesh2_mesh_auv
usemtl mesh_auv
s 1
f 1/75/27 20/85/60 2/87/30 5/88/33 19/86/57 6/76/36 14/62/48 17/60/51 13/54/45 10/53/42 18/59/54 9/61/39
f 25/122/63 44/124/96 26/126/66 29/127/69 43/125/93 30/123/72 38/106/84 41/96/87 37/94/81 34/93/78 42/95/90 33/105/75
s 2
f 2/84/28 4/81/2 7/98/3 5/100/31
f 6/51/34 8/49/4 16/63/8 14/65/46
f 7/98/3 24/108/12 19/109/56 5/100/32
f 9/52/37 11/50/5 3/64/1 1/66/25
f 9/120/38 18/107/52 23/108/11 11/118/5
f 13/83/43 15/82/7 12/97/6 10/99/40
f 17/74/49 22/71/10 15/82/7 13/83/44
f 19/109/55 24/108/12 8/119/4 6/121/35
f 20/72/58 21/73/9 4/81/2 2/84/29
f 21/73/9 20/72/59 1/66/26 3/64/1
f 22/71/10 17/74/50 14/65/47 16/63/8
f 23/108/11 18/107/53 10/99/41 12/97/6
f 26/89/64 28/90/14 31/102/15 29/101/67
f 30/55/70 32/58/16 40/70/20 38/67/82
f 31/102/15 48/112/24 43/110/92 29/101/68
f 33/57/73 35/56/17 27/68/13 25/69/61
f 33/117/74 42/113/88 47/111/23 35/115/17
f 37/91/79 39/92/19 36/104/18 34/103/76
f 41/78/85 46/80/22 39/92/19 37/91/80
f 43/110/91 48/112/24 32/116/16 30/114/71
f 44/77/94 45/79/21 28/90/14 26/89/65
f 45/79/21 44/77/95 25/69/62 27/68/13
f 46/80/22 41/78/86 38/67/83 40/70/20
f 47/111/23 42/113/89 34/103/77 36/104/18
f 49/13/97 73/12/145 96/16/191 72/17/143
f 50/10/100 74/8/148 73/12/146 49/13/98
f 51/7/102 75/6/150 74/8/147 50/10/99
f 52/3/104 76/1/152 75/6/149 51/7/101
f 53/41/106 77/42/154 76/46/151 52/45/103
f 54/38/108 78/37/156 77/42/153 53/41/105
f 55/33/110 79/34/158 78/37/155 54/38/107
f 56/29/112 80/30/160 79/34/157 55/33/109
f 57/25/114 81/26/162 80/30/159 56/29/111
f 58/22/116 82/21/164 81/26/161 57/25/113
f 59/20/118 83/19/166 82/21/163 58/22/115
f 60/15/120 84/14/168 83/19/165 59/20/117
f 61/11/122 85/12/170 84/14/167 60/15/119
f 62/9/124 86/8/172 85/12/169 61/11/121
f 63/4/126 87/5/174 86/8/171 62/9/123
f 64/2/128 88/1/176 87/5/173 63/4/125
f 65/44/130 89/43/178 88/47/175 64/48/127
f 66/40/132 90/39/180 89/43/177 65/44/129
f 67/36/134 91/35/182 90/39/179 66/40/131
f 68/32/136 92/31/184 91/35/181 67/36/133
f 69/28/138 93/27/186 92/31/183 68/32/135
f 70/24/140 94/23/188 93/27/185 69/28/137
f 71/20/142 95/18/190 94/23/187 70/24/139
f 72/17/144 96/16/192 95/18/189 71/20/141
