# Exported from Wings 3D 1.5.4
mtllib octans_high_gain_antenna_srf_1_base.mtl
o mesh
#32 vertices, 22 faces
v -3.1250000e-2 2.5000000e-2 -7.5000000e-2
v -3.1250000e-2 -2.5000000e-2 -7.5000000e-2
v -3.1250000e-2 -1.7677670e-2 -9.2677670e-2
v -3.1250000e-2 3.2326742e-17 -0.10000000
v -3.1250000e-2 1.7677670e-2 -9.2677670e-2
v 3.1250000e-2 2.5000000e-2 -7.5000000e-2
v 3.1250000e-2 -2.5000000e-2 -7.5000000e-2
v 3.1250000e-2 -1.7677670e-2 -9.2677670e-2
v 3.1250000e-2 2.9265125e-17 -0.10000000
v 3.1250000e-2 1.7677670e-2 -9.2677670e-2
v 3.1250000e-2 2.5000000e-2 -5.0000000e-2
v -3.1250000e-2 2.5000000e-2 -5.0000000e-2
v -3.1250000e-2 -2.5000000e-2 -5.0000000e-2
v 3.1250000e-2 -2.5000000e-2 -5.0000000e-2
v 3.1250000e-2 2.5000000e-2 2.5000000e-2
v -3.1250000e-2 2.5000000e-2 2.5000000e-2
v -3.1250000e-2 -2.5000000e-2 2.5000000e-2
v 3.1250000e-2 -2.5000000e-2 2.5000000e-2
v -1.8750000e-2 -2.5000000e-2 -5.0000000e-2
v 1.8750000e-2 -2.5000000e-2 -5.0000000e-2
v 1.8750000e-2 2.5000000e-2 -5.0000000e-2
v -1.8750000e-2 2.5000000e-2 -5.0000000e-2
v -1.8750000e-2 1.7677670e-2 -9.2677670e-2
v 1.8750000e-2 1.7677670e-2 -9.2677670e-2
v -1.8750000e-2 3.1207199e-17 -0.10000000
v 1.8750000e-2 3.0384668e-17 -0.10000000
v -1.8750000e-2 -1.7677670e-2 -9.2677670e-2
v 1.8750000e-2 -1.7677670e-2 -9.2677670e-2
v -1.8750000e-2 -2.5000000e-2 -7.5000000e-2
v 1.8750000e-2 -2.5000000e-2 -7.5000000e-2
v 1.8750000e-2 2.5000000e-2 -7.5000000e-2
v -1.8750000e-2 2.5000000e-2 -7.5000000e-2
vt 0.64233593 0.61049891
vt 0.64233593 0.61049891
vt 0.64233593 0.63022129
vt 0.64233593 0.66041100
vt 0.64233593 0.51230779
vt 0.64233593 0.55175255
vt 0.64233593 0.63022129
vt 0.64233593 0.64531615
vt 0.64233593 0.64531615
vt 0.64233593 0.55133177
vt 0.64233593 0.55133177
vt 0.64233593 0.66041100
vt 0.65219712 0.61049891
vt 0.65219712 0.64531615
vt 0.65219712 0.63022129
vt 0.65219712 0.66041100
vt 0.65219712 0.61049891
vt 0.65219712 0.63022129
vt 0.65219712 0.64531615
vt 0.65219712 0.66041100
vt 0.68178069 0.61049891
vt 0.68178069 0.63022129
vt 0.68178069 0.66041100
vt 0.68178069 0.61049891
vt 0.68178069 0.64531615
vt 0.68178069 0.64531615
vt 0.68178069 0.66041100
vt 0.68178069 0.63022129
vt 0.69164188 0.61049891
vt 0.69164188 0.64531615
vt 0.69164188 0.63022129
vt 0.69164188 0.61049891
vt 0.69164188 0.51230779
vt 0.69164188 0.55175255
vt 0.69164188 0.63022129
vt 0.69164188 0.66041100
vt 0.69164188 0.55133177
vt 0.69164188 0.66041100
vt 0.69164188 0.64531615
vt 0.69164188 0.55133177
vt 0.73043441 0.51120441
vt 0.73043441 0.57037155
vt 0.73043441 0.57037155
vt 0.73043441 0.59009393
vt 0.73043441 0.59009393
vt 0.73043441 0.51120441
vt 0.73176270 0.68566068
vt 0.73176270 0.71524425
vt 0.73178456 0.71528534
vt 0.73178456 0.73500772
vt 0.73621096 0.60403976
vt 0.73621096 0.60403976
vt 0.73756111 0.74895355
vt 0.73756111 0.74895355
vt 0.75015679 0.60981631
vt 0.75015679 0.60981631
vt 0.75150694 0.75473010
vt 0.75150694 0.75473010
vt 0.76410262 0.60403976
vt 0.76410262 0.60403976
vt 0.76545277 0.74895355
vt 0.76545277 0.74895355
vt 0.76987917 0.51120441
vt 0.76987917 0.51120441
vt 0.76987917 0.57037155
vt 0.76987917 0.57037155
vt 0.76987917 0.59009393
vt 0.76987917 0.59009393
vt 0.77120746 0.68566068
vt 0.77120746 0.71524425
vt 0.77122932 0.71528534
vt 0.77122932 0.73500772
vn 5.7773233e-17 0.98078528 -0.19509032
vn -1.00000000 0.0000000e+0 0.0000000e+0
vn 5.7773233e-17 0.98078528 -0.19509032
vn -1.2852158e-16 -0.98078528 -0.19509032
vn -1.00000000 0.0000000e+0 0.0000000e+0
vn -1.2852158e-16 -0.98078528 -0.19509032
vn -6.1331737e-17 -0.70710678 -0.70710678
vn -6.1331737e-17 -0.70710678 -0.70710678
vn -1.00000000 0.0000000e+0 0.0000000e+0
vn 3.0665868e-17 -6.0084837e-17 -1.00000000
vn 3.0665868e-17 -6.0084837e-17 -1.00000000
vn -1.00000000 0.0000000e+0 0.0000000e+0
vn 9.1997605e-17 0.70710678 -0.70710678
vn 9.1997605e-17 0.70710678 -0.70710678
vn -1.00000000 0.0000000e+0 0.0000000e+0
vn 1.00000000 -1.5242662e-16 6.9388939e-17
vn 5.7773233e-17 0.98078528 -0.19509032
vn 5.7773233e-17 0.98078528 -0.19509032
vn 1.00000000 -1.5242662e-16 6.9388939e-17
vn -1.2852158e-16 -0.98078528 -0.19509032
vn -1.2852158e-16 -0.98078528 -0.19509032
vn 1.00000000 -1.5242662e-16 6.9388939e-17
vn -1.2266347e-16 -0.70710678 -0.70710678
vn -1.2266347e-16 -0.70710678 -0.70710678
vn 1.00000000 -1.5242662e-16 6.9388939e-17
vn -1.3341514e-32 -3.0042419e-17 -1.00000000
vn -1.3341514e-32 -3.0042419e-17 -1.00000000
vn 1.00000000 -1.5242662e-16 6.9388939e-17
vn 1.2266347e-16 0.70710678 -0.70710678
vn 1.2266347e-16 0.70710678 -0.70710678
vn 1.00000000 -1.4560225e-16 3.4694470e-17
vn 0.0000000e+0 1.00000000 0.0000000e+0
vn 0.0000000e+0 1.00000000 0.0000000e+0
vn 1.00000000 -1.4560225e-16 3.4694470e-17
vn -1.00000000 0.0000000e+0 0.0000000e+0
vn 0.0000000e+0 1.00000000 0.0000000e+0
vn -1.00000000 0.0000000e+0 0.0000000e+0
vn 0.0000000e+0 1.00000000 0.0000000e+0
vn -1.00000000 0.0000000e+0 0.0000000e+0
vn -9.7144515e-17 -1.00000000 5.2041704e-17
vn -1.00000000 0.0000000e+0 0.0000000e+0
vn -9.7144515e-17 -1.00000000 5.2041704e-17
vn 1.00000000 -1.4560225e-16 3.4694470e-17
vn -9.7144515e-17 -1.00000000 5.2041704e-17
vn 1.00000000 -1.4560225e-16 3.4694470e-17
vn -9.7144515e-17 -1.00000000 5.2041704e-17
vn 0.0000000e+0 0.0000000e+0 1.00000000
vn 0.0000000e+0 1.00000000 0.0000000e+0
vn 1.00000000 -1.3877788e-16 0.0000000e+0
vn 0.0000000e+0 0.0000000e+0 1.00000000
vn 0.0000000e+0 1.00000000 0.0000000e+0
vn -1.00000000 0.0000000e+0 0.0000000e+0
vn 0.0000000e+0 0.0000000e+0 1.00000000
vn -1.00000000 0.0000000e+0 0.0000000e+0
vn -5.5511151e-17 -1.00000000 3.4694470e-17
vn 0.0000000e+0 0.0000000e+0 1.00000000
vn -5.5511151e-17 -1.00000000 3.4694470e-17
vn 1.00000000 -1.3877788e-16 0.0000000e+0
vn -9.7144515e-17 -1.00000000 5.2041704e-17
vn -9.7144515e-17 -1.00000000 5.2041704e-17
vn 1.00000000 5.0808874e-17 0.0000000e+0
vn 0.0000000e+0 0.0000000e+0 -1.00000000
vn -9.7144515e-17 -1.00000000 5.2041704e-17
vn -9.7144515e-17 -1.00000000 5.2041704e-17
vn 0.0000000e+0 0.0000000e+0 -1.00000000
vn -1.00000000 0.0000000e+0 0.0000000e+0
vn 0.0000000e+0 1.00000000 0.0000000e+0
vn 0.0000000e+0 1.00000000 0.0000000e+0
vn 0.0000000e+0 0.0000000e+0 -1.00000000
vn -1.00000000 0.0000000e+0 0.0000000e+0
vn 0.0000000e+0 1.00000000 0.0000000e+0
vn 0.0000000e+0 1.00000000 0.0000000e+0
vn 1.00000000 5.0808874e-17 0.0000000e+0
vn 0.0000000e+0 0.0000000e+0 -1.00000000
vn 9.1997605e-17 0.70710678 -0.70710678
vn 9.1997605e-17 0.70710678 -0.70710678
vn 1.00000000 5.0808874e-17 0.0000000e+0
vn 1.2266347e-16 0.70710678 -0.70710678
vn 1.2266347e-16 0.70710678 -0.70710678
vn -1.00000000 0.0000000e+0 0.0000000e+0
vn 3.0665868e-17 -6.0084837e-17 -1.00000000
vn 3.0665868e-17 -6.0084837e-17 -1.00000000
vn 1.00000000 5.0808874e-17 0.0000000e+0
vn -1.3341514e-32 -3.0042419e-17 -1.00000000
vn -1.3341514e-32 -3.0042419e-17 -1.00000000
vn -1.00000000 0.0000000e+0 0.0000000e+0
vn -6.1331737e-17 -0.70710678 -0.70710678
vn -6.1331737e-17 -0.70710678 -0.70710678
vn 1.00000000 5.0808874e-17 0.0000000e+0
vn -1.2266347e-16 -0.70710678 -0.70710678
vn -1.2266347e-16 -0.70710678 -0.70710678
vn -1.00000000 0.0000000e+0 0.0000000e+0
vn -1.2852158e-16 -0.98078528 -0.19509032
vn -1.2852158e-16 -0.98078528 -0.19509032
vn 1.00000000 5.0808874e-17 0.0000000e+0
vn -1.2852158e-16 -0.98078528 -0.19509032
vn -1.2852158e-16 -0.98078528 -0.19509032
vn -1.00000000 0.0000000e+0 0.0000000e+0
vn 5.7773233e-17 0.98078528 -0.19509032
vn 5.7773233e-17 0.98078528 -0.19509032
vn -1.00000000 0.0000000e+0 0.0000000e+0
vn 5.7773233e-17 0.98078528 -0.19509032
vn 5.7773233e-17 0.98078528 -0.19509032
vn 1.00000000 5.0808874e-17 0.0000000e+0
g mesh_mesh_auv
usemtl mesh_auv
s 1
f 16/6/50 17/5/53 18/33/56 15/34/47
f 22/49/73 19/71/61 29/72/95 27/62/89 25/57/83 23/54/77 32/50/104
f 30/50/98 20/49/66 21/71/70 31/72/101 24/61/80 26/58/86 28/53/92
s 2
f 5/60/15 4/55/12 3/51/9 2/44/5 13/42/39 12/65/35 1/67/2
f 6/45/16 11/43/31 14/66/43 7/68/19 8/59/22 9/56/25 10/52/28
f 11/43/34 15/41/49 18/63/58 14/66/45
f 13/42/41 17/46/54 16/64/52 12/65/37
f 21/47/69 20/69/65 19/70/62 22/48/74
s 3
f 1/7/3 12/2/38 22/17/72 32/18/103
f 1/7/1 32/18/102 23/19/75 5/9/13
f 3/39/8 27/26/88 29/28/93 2/35/4
f 4/36/11 25/27/82 27/26/87 3/39/7
f 5/9/14 23/19/76 25/20/81 4/12/10
f 6/31/17 31/22/99 21/21/67 11/29/32
f 7/3/20 30/15/96 28/14/91 8/8/24
f 8/8/23 28/14/90 26/16/85 9/4/27
f 9/38/26 26/23/84 24/25/79 10/30/30
f 10/30/29 24/25/78 31/22/100 6/31/18
f 12/2/36 16/10/51 15/37/48 11/29/33 21/21/68 22/17/71
f 14/1/44 18/11/57 17/40/55 13/32/42 19/24/60 20/13/63
f 20/13/64 30/15/97 7/3/21 14/1/46
f 29/28/94 19/24/59 13/32/40 2/35/6
