# Exported from Wings 3D 1.5.4
mtllib ./low gain static.mtl
o 1
#106 vertices, 97 faces
v -1.8750000e-2 1.8750000e-2 0.0000000e+0
v -1.8750000e-2 1.3258252e-2 1.3258252e-2
v -1.8750000e-2 -1.6614831e-18 1.8750000e-2
v -1.8750000e-2 -1.3258252e-2 1.3258252e-2
v -1.8750000e-2 -1.8750000e-2 0.0000000e+0
v -1.8750000e-2 -1.3258252e-2 -1.3258252e-2
v -1.8750000e-2 -5.1039385e-18 -1.8750000e-2
v -1.8750000e-2 1.3258252e-2 -1.3258252e-2
v 1.8750000e-2 1.8750000e-2 0.0000000e+0
v 1.8750000e-2 1.3258252e-2 1.3258252e-2
v 1.8750000e-2 -2.8077257e-18 1.8750000e-2
v 1.8750000e-2 -1.3258252e-2 1.3258252e-2
v 1.8750000e-2 -1.8750000e-2 0.0000000e+0
v 1.8750000e-2 -1.3258252e-2 -1.3258252e-2
v 1.8750000e-2 -6.2501812e-18 -1.8750000e-2
v 1.8750000e-2 1.3258252e-2 -1.3258252e-2
v 6.2500000e-2 3.0510947e-17 -7.5000000e-2
v 5.7742471e-2 -2.3917715e-2 -7.5000000e-2
v 4.4194174e-2 -4.4194174e-2 -7.5000000e-2
v 2.3917715e-2 -5.7742471e-2 -7.5000000e-2
v -4.1108989e-17 -6.2500000e-2 -7.5000000e-2
v -2.3917715e-2 -5.7742471e-2 -7.5000000e-2
v -4.4194174e-2 -4.4194174e-2 -7.5000000e-2
v -5.7742471e-2 -2.3917715e-2 -7.5000000e-2
v -6.2500000e-2 2.2856905e-17 -7.5000000e-2
v -5.7742471e-2 2.3917715e-2 -7.5000000e-2
v -4.4194174e-2 4.4194174e-2 -7.5000000e-2
v -2.3917715e-2 5.7742471e-2 -7.5000000e-2
v -5.6417074e-17 6.2500000e-2 -7.5000000e-2
v 2.3917715e-2 5.7742471e-2 -7.5000000e-2
v 4.4194174e-2 4.4194174e-2 -7.5000000e-2
v 5.7742471e-2 2.3917715e-2 -7.5000000e-2
v 6.2500000e-2 2.2856905e-17 -8.7500000e-2
v 5.7742471e-2 -2.3917715e-2 -8.7500000e-2
v 4.4194174e-2 -4.4194174e-2 -8.7500000e-2
v 2.3917715e-2 -5.7742471e-2 -8.7500000e-2
v -4.1108989e-17 -6.2500000e-2 -8.7500000e-2
v -2.3917715e-2 -5.7742471e-2 -8.7500000e-2
v -4.4194174e-2 -4.4194174e-2 -8.7500000e-2
v -5.7742471e-2 -2.3917715e-2 -8.7500000e-2
v -6.2500000e-2 1.5202862e-17 -8.7500000e-2
v -5.7742471e-2 2.3917715e-2 -8.7500000e-2
v -4.4194174e-2 4.4194174e-2 -8.7500000e-2
v -2.3917715e-2 5.7742471e-2 -8.7500000e-2
v -5.6417074e-17 6.2500000e-2 -8.7500000e-2
v 2.3917715e-2 5.7742471e-2 -8.7500000e-2
v 4.4194174e-2 4.4194174e-2 -8.7500000e-2
v 5.7742471e-2 2.3917715e-2 -8.7500000e-2
v -4.9005938e-17 3.1622304e-17 -7.5000000e-2
v -4.8572257e-17 1.9081958e-17 -8.7500000e-2
v 2.5000000e-2 -1.3849325e-19 -8.1250000e-2
v 1.7677670e-2 -1.7677670e-2 -8.1250000e-2
v 1.8391118e-18 -2.5000000e-2 -8.1250000e-2
v -1.7677670e-2 -1.7677670e-2 -8.1250000e-2
v -2.5000000e-2 -3.3134365e-18 -8.1250000e-2
v -1.7677670e-2 1.7677670e-2 -8.1250000e-2
v -4.3974485e-18 2.5000000e-2 -8.1250000e-2
v 1.7677670e-2 1.7677670e-2 -8.1250000e-2
v 6.2500000e-3 -2.0982102e-18 -0.18750000
v 4.4194174e-3 -4.4194174e-3 -0.18750000
v -1.6840121e-19 -6.2500000e-3 -0.18750000
v -4.4194174e-3 -4.4194174e-3 -0.18750000
v -6.2500000e-3 -2.8919460e-18 -0.18750000
v -4.4194174e-3 4.4194174e-3 -0.18750000
v -1.7275413e-18 6.2500000e-3 -0.18750000
v 4.4194174e-3 4.4194174e-3 -0.18750000
v 7.7339804e-3 7.7339804e-3 -0.16250000
v -2.4010075e-18 1.0937500e-2 -0.16250000
v -7.7339804e-3 7.7339804e-3 -0.16250000
v -1.0937500e-2 -2.9973186e-18 -0.16250000
v -7.7339804e-3 -7.7339804e-3 -0.16250000
v 3.2748761e-19 -1.0937500e-2 -0.16250000
v 7.7339804e-3 -7.7339804e-3 -0.16250000
v 1.0937500e-2 -1.6082810e-18 -0.16250000
v 1.1048543e-2 1.1048543e-2 -0.13750000
v -3.0744737e-18 1.5625000e-2 -0.13750000
v -1.1048543e-2 1.1048543e-2 -0.13750000
v -1.5625000e-2 -3.1026913e-18 -0.13750000
v -1.1048543e-2 -1.1048543e-2 -0.13750000
v 8.2337644e-19 -1.5625000e-2 -0.13750000
v 1.1048543e-2 -1.1048543e-2 -0.13750000
v 1.5625000e-2 -1.1183517e-18 -0.13750000
v 1.4363106e-2 1.4363106e-2 -0.11250000
v -3.7479400e-18 2.0312500e-2 -0.11250000
v -1.4363106e-2 1.4363106e-2 -0.11250000
v -2.0312500e-2 -3.2080639e-18 -0.11250000
v -1.4363106e-2 -1.4363106e-2 -0.11250000
v 1.3192653e-18 -2.0312500e-2 -0.11250000
v 1.4363106e-2 -1.4363106e-2 -0.11250000
v 2.0312500e-2 -6.2842249e-19 -0.11250000
v 1.8750000e-2 0.0000000e+0 -8.1250000e-2
v 1.3258252e-2 1.3258252e-2 -8.1250000e-2
v -5.3322211e-17 1.8750000e-2 -8.1250000e-2
v -1.3258252e-2 1.3258252e-2 -8.1250000e-2
v -1.8750000e-2 0.0000000e+0 -8.1250000e-2
v -1.3258252e-2 -1.3258252e-2 -8.1250000e-2
v -5.7914636e-17 -1.8750000e-2 -8.1250000e-2
v 1.3258252e-2 -1.3258252e-2 -8.1250000e-2
v 1.8750000e-2 0.0000000e+0 0.0000000e+0
v 1.3258252e-2 1.3258252e-2 0.0000000e+0
v -4.5144646e-17 1.8750000e-2 0.0000000e+0
v -1.3258252e-2 1.3258252e-2 0.0000000e+0
v -1.8750000e-2 0.0000000e+0 0.0000000e+0
v -1.3258252e-2 -1.3258252e-2 0.0000000e+0
v -4.9737071e-17 -1.8750000e-2 0.0000000e+0
v 1.3258252e-2 -1.3258252e-2 0.0000000e+0
vt 4.0000000e-2 0.36086830
vt 4.0000000e-2 0.36086830
vt 4.0000000e-2 0.36928806
vt 4.0000000e-2 0.36928806
vt 4.0000000e-2 0.36086830
vt 4.0000000e-2 0.36928806
vt 4.0000000e-2 0.36086830
vt 4.0000000e-2 0.36928806
vt 4.0157004e-2 0.30142368
vt 4.0401749e-2 0.43038043
vt 4.0869524e-2 0.19738560
vt 4.0883825e-2 0.19479610
vt 4.0883825e-2 0.19997510
vt 4.0902774e-2 0.19367154
vt 4.0902774e-2 0.19367154
vt 4.0902774e-2 0.19367154
vt 4.0902774e-2 0.19367154
vt 4.0902774e-2 0.19740608
vt 4.0902774e-2 0.19740608
vt 4.0902774e-2 0.19740608
vt 4.0902774e-2 0.20114063
vt 4.0902774e-2 0.20114063
vt 4.0902774e-2 0.20114063
vt 4.0918352e-2 0.19372349
vt 4.0918352e-2 0.20104771
vt 4.0941375e-2 4.0000000e-2
vt 4.0941375e-2 9.8593750e-2
vt 4.0952879e-2 0.19479610
vt 4.0952879e-2 0.19997510
vt 4.0967180e-2 0.19738560
vt 4.3873824e-2 0.28273797
vt 4.3873824e-2 0.32010940
vt 4.4118569e-2 0.44906614
vt 4.4118569e-2 0.41169471
vt 5.2152804e-2 4.0000000e-2
vt 5.2152804e-2 9.8593750e-2
vt 5.4458431e-2 0.26689698
vt 5.4458431e-2 0.33595038
vt 5.4703176e-2 0.46490712
vt 5.4703176e-2 0.39585373
vt 5.9051789e-2 0.36086830
vt 5.9051789e-2 0.36928806
vt 5.9051789e-2 0.36928806
vt 5.9051789e-2 0.36086830
vt 5.9051789e-2 0.36928806
vt 5.9051789e-2 0.36086830
vt 5.9051789e-2 0.36928806
vt 5.9051789e-2 0.36086830
vt 5.9775185e-2 0.19087106
vt 5.9775185e-2 0.19740608
vt 5.9775185e-2 0.19740608
vt 5.9775185e-2 0.20394110
vt 5.9775185e-2 0.20394110
vt 5.9775185e-2 0.19087106
vt 5.9775185e-2 0.19740608
vt 5.9775185e-2 0.20394110
vt 5.9775185e-2 0.19087106
vt 5.9775185e-2 0.19740608
vt 5.9775185e-2 0.20394110
vt 6.3364233e-2 4.0000000e-2
vt 6.3364233e-2 9.8593750e-2
vt 7.0299415e-2 0.25631238
vt 7.0299415e-2 0.34653499
vt 7.0544160e-2 0.47549173
vt 7.0544160e-2 0.38526912
vt 7.4575661e-2 4.0000000e-2
vt 7.4575661e-2 9.8593750e-2
vt 7.8103579e-2 0.36086830
vt 7.8103579e-2 0.36928806
vt 7.8103579e-2 0.36086830
vt 7.8103579e-2 0.36928806
vt 7.8103579e-2 0.36086830
vt 7.8103579e-2 0.36928806
vt 7.8103579e-2 0.36086830
vt 7.8103579e-2 0.36928806
vt 7.9546299e-2 0.18807419
vt 7.9546299e-2 0.19740608
vt 7.9546299e-2 0.20673797
vt 7.9546299e-2 0.18807419
vt 7.9546299e-2 0.18807419
vt 7.9546299e-2 0.19740608
vt 7.9546299e-2 0.19740608
vt 7.9546299e-2 0.20673797
vt 7.9546299e-2 0.20673797
vt 7.9546299e-2 0.18807419
vt 7.9546299e-2 0.19740608
vt 7.9546299e-2 0.20673797
vt 8.5787090e-2 4.0000000e-2
vt 8.5787090e-2 9.8593750e-2
vt 8.8985129e-2 0.25259556
vt 8.8985129e-2 0.30142368
vt 8.8985129e-2 0.35025181
vt 8.9229874e-2 0.47920855
vt 8.9229874e-2 0.38155230
vt 8.9229874e-2 0.43038043
vt 9.6998519e-2 9.8593750e-2
vt 9.6998519e-2 4.0000000e-2
vt 9.7155368e-2 0.36086830
vt 9.7155368e-2 0.36928806
vt 9.7155368e-2 0.36086830
vt 9.7155368e-2 0.36928806
vt 9.7155368e-2 0.36928806
vt 9.7155368e-2 0.36086830
vt 9.7155368e-2 0.36928806
vt 9.7155368e-2 0.36086830
vt 9.9293808e-2 0.18531017
vt 9.9293808e-2 0.19740608
vt 9.9293808e-2 0.20950200
vt 9.9293808e-2 0.18531017
vt 9.9293808e-2 0.18531017
vt 9.9293808e-2 0.19740608
vt 9.9293808e-2 0.19740608
vt 9.9293808e-2 0.20950200
vt 9.9293808e-2 0.20950200
vt 9.9293808e-2 0.18531017
vt 9.9293808e-2 0.19740608
vt 9.9293808e-2 0.20950200
vt 0.10767084 0.25631238
vt 0.10767084 0.34653499
vt 0.10791559 0.47549173
vt 0.10791559 0.38526912
vt 0.10820995 9.8593750e-2
vt 0.10820995 4.0000000e-2
vt 0.11620716 0.36086830
vt 0.11620716 0.36928806
vt 0.11620716 0.36928806
vt 0.11620716 0.36086830
vt 0.11620716 0.36086830
vt 0.11620716 0.36928806
vt 0.11620716 0.36928806
vt 0.11620716 0.36086830
vt 0.11942138 9.8593750e-2
vt 0.11942138 4.0000000e-2
vt 0.12351183 0.26689698
vt 0.12351183 0.33595038
vt 0.12375657 0.46490712
vt 0.12375657 0.39585373
vt 0.12385893 0.18247923
vt 0.12385893 0.18247923
vt 0.12385893 0.18247923
vt 0.12385893 0.19740608
vt 0.12385893 0.19740608
vt 0.12385893 0.21233293
vt 0.12385893 0.21233293
vt 0.12385893 0.18247923
vt 0.12385893 0.19740608
vt 0.12385893 0.21233293
vt 0.13063280 9.8593750e-2
vt 0.13063280 4.0000000e-2
vt 0.13409643 0.28273797
vt 0.13409643 0.32010940
vt 0.13434118 0.44906614
vt 0.13434118 0.41169471
vt 0.13781325 0.30142368
vt 0.13805800 0.43038043
vt 0.17954917 0.75814960
vt 0.17954917 0.78744647
vt 0.19076060 0.75814960
vt 0.19076060 0.78744647
vt 0.20197203 0.75814960
vt 0.20197203 0.78744647
vt 0.21318346 0.75814960
vt 0.21318346 0.78744647
vt 0.22439488 0.75814960
vt 0.22439488 0.78744647
vt 0.23560631 0.75814960
vt 0.23560631 0.78744647
vt 0.24681774 0.75814960
vt 0.24681774 0.78744647
vt 0.25802917 0.75814960
vt 0.25802917 0.78744647
vt 0.26924060 0.75814960
vt 0.26924060 0.78744647
vn 0.0000000e+0 1.00000000 -3.0042419e-17
vn 6.8146374e-18 0.70710678 0.70710678
vn -1.6676892e-33 -6.0084837e-17 1.00000000
vn -6.8146374e-18 -0.70710678 0.70710678
vn 0.0000000e+0 -1.00000000 -3.0042419e-17
vn 0.0000000e+0 -0.70710678 -0.70710678
vn 0.0000000e+0 -1.8025451e-16 -1.00000000
vn 0.0000000e+0 0.70710678 -0.70710678
vn 0.0000000e+0 1.00000000 -3.0042419e-17
vn 6.8146374e-18 0.70710678 0.70710678
vn -1.6676892e-33 -6.0084837e-17 1.00000000
vn -6.8146374e-18 -0.70710678 0.70710678
vn 0.0000000e+0 -1.00000000 -3.0042419e-17
vn 0.0000000e+0 -0.70710678 -0.70710678
vn 0.0000000e+0 -1.8025451e-16 -1.00000000
vn 0.0000000e+0 0.70710678 -0.70710678
vn 4.5330509e-18 0.0000000e+0 1.00000000
vn -4.5330509e-18 0.0000000e+0 -1.00000000
vn 0.69499559 0.69499559 -0.18428854
vn -1.1987046e-16 0.98287219 -0.18428854
vn -0.69499559 0.69499559 -0.18428854
vn -0.98287219 -2.2475711e-16 -0.18428854
vn -0.69499559 -0.69499559 -0.18428854
vn 4.4951423e-17 -0.98287219 -0.18428854
vn 0.69499559 -0.69499559 -0.18428854
vn 0.98287219 1.6482188e-16 -0.18428854
vn 0.69499559 0.69499559 -0.18428854
vn -1.1987046e-16 0.98287219 -0.18428854
vn -0.69499559 0.69499559 -0.18428854
vn -0.98287219 -1.7980569e-16 -0.18428854
vn -0.69499559 -0.69499559 -0.18428854
vn 1.4983808e-17 -0.98287219 -0.18428854
vn 0.69499559 -0.69499559 -0.18428854
vn 0.98287219 1.3485427e-16 -0.18428854
vn 0.69725450 0.69725450 -0.16635003
vn -1.0495020e-16 0.98606677 -0.16635003
vn -0.69725450 0.69725450 -0.16635003
vn -0.98606677 -1.1994308e-16 -0.16635003
vn -0.69725450 -0.69725450 -0.16635003
vn 2.9985770e-17 -0.98606677 -0.16635003
vn 0.69725450 -0.69725450 -0.16635003
vn 0.98606677 1.3493597e-16 -0.16635003
vn 1.00000000 0.0000000e+0 0.0000000e+0
vn 0.70710678 0.70710678 -9.4356518e-18
vn -1.2617816e-15 1.00000000 5.8369124e-32
vn -0.70710678 0.70710678 9.4356518e-18
vn -1.00000000 0.0000000e+0 0.0000000e+0
vn -0.70710678 -0.70710678 9.4356518e-18
vn -1.4119937e-15 -1.00000000 6.5039881e-32
vn 0.70710678 -0.70710678 -9.4356518e-18
vn 1.00000000 -4.2449009e-17 1.0053945e-31
vn 1.00000000 -4.2449009e-17 1.0053945e-31
vn 0.0000000e+0 0.0000000e+0 1.00000000
vn 0.0000000e+0 0.0000000e+0 1.00000000
vn 0.92387953 -0.38268343 1.9265466e-16
vn 0.92387953 -0.38268343 1.9265466e-16
vn -1.4505763e-16 0.0000000e+0 1.00000000
vn -1.4505763e-16 0.0000000e+0 1.00000000
vn 0.70710678 -0.70710678 5.8929662e-16
vn 0.70710678 -0.70710678 5.8929662e-16
vn -1.4505763e-16 0.0000000e+0 1.00000000
vn -1.4505763e-16 0.0000000e+0 1.00000000
vn 0.38268343 -0.92387953 1.0086038e-15
vn 0.38268343 -0.92387953 1.0086038e-15
vn 2.1758644e-16 0.0000000e+0 1.00000000
vn 2.1758644e-16 0.0000000e+0 1.00000000
vn 0.0000000e+0 -1.00000000 1.1105975e-15
vn 0.0000000e+0 -1.00000000 1.1105975e-15
vn 0.0000000e+0 0.0000000e+0 1.00000000
vn 0.0000000e+0 0.0000000e+0 1.00000000
vn -0.38268343 -0.92387953 1.0539343e-15
vn -0.38268343 -0.92387953 1.0539343e-15
vn -7.2528814e-17 0.0000000e+0 1.00000000
vn -7.2528814e-17 0.0000000e+0 1.00000000
vn -0.70710678 -0.70710678 6.3462713e-16
vn -0.70710678 -0.70710678 6.3462713e-16
vn 1.4505763e-16 0.0000000e+0 1.00000000
vn 1.4505763e-16 0.0000000e+0 1.00000000
vn -0.92387953 -0.38268343 1.8132204e-16
vn -0.92387953 -0.38268343 1.8132204e-16
vn 0.0000000e+0 0.0000000e+0 1.00000000
vn 0.0000000e+0 0.0000000e+0 1.00000000
vn -1.00000000 -2.8299339e-16 -2.2665254e-17
vn -1.00000000 -2.8299339e-16 -2.2665254e-17
vn 1.4505763e-16 0.0000000e+0 1.00000000
vn 1.4505763e-16 0.0000000e+0 1.00000000
vn -0.92387953 0.38268343 -2.9464831e-16
vn -0.92387953 0.38268343 -2.9464831e-16
vn -1.4505763e-16 0.0000000e+0 1.00000000
vn -1.4505763e-16 0.0000000e+0 1.00000000
vn -0.70710678 0.70710678 -5.8929662e-16
vn -0.70710678 0.70710678 -5.8929662e-16
vn -1.4505763e-16 0.0000000e+0 1.00000000
vn -1.4505763e-16 0.0000000e+0 1.00000000
vn -0.38268343 0.92387953 -4.9863560e-16
vn -0.38268343 0.92387953 -4.9863560e-16
vn -7.2528814e-17 0.0000000e+0 1.00000000
vn -7.2528814e-17 0.0000000e+0 1.00000000
vn -1.9809538e-16 1.00000000 -4.1930721e-16
vn -1.9809538e-16 1.00000000 -4.1930721e-16
vn -1.0879322e-16 0.0000000e+0 1.00000000
vn -1.0879322e-16 0.0000000e+0 1.00000000
vn 0.38268343 0.92387953 -7.3662077e-16
vn 0.38268343 0.92387953 -7.3662077e-16
vn 2.5385085e-16 0.0000000e+0 1.00000000
vn 2.5385085e-16 0.0000000e+0 1.00000000
vn 0.70710678 0.70710678 -6.7995763e-16
vn 0.70710678 0.70710678 -6.7995763e-16
vn 1.4505763e-16 0.0000000e+0 1.00000000
vn 1.4505763e-16 0.0000000e+0 1.00000000
vn 0.92387953 0.38268343 -2.8331568e-16
vn 0.92387953 0.38268343 -2.8331568e-16
vn 0.0000000e+0 0.0000000e+0 1.00000000
vn 0.0000000e+0 0.0000000e+0 1.00000000
vn 1.00000000 -4.2449009e-17 1.0053945e-31
vn 1.00000000 -4.2449009e-17 1.0053945e-31
vn 5.8023051e-16 0.0000000e+0 -1.00000000
vn 5.8023051e-16 0.0000000e+0 -1.00000000
vn 0.92387953 -0.38268343 1.9265466e-16
vn 0.92387953 -0.38268343 1.9265466e-16
vn 2.9011526e-16 0.0000000e+0 -1.00000000
vn 2.9011526e-16 0.0000000e+0 -1.00000000
vn 0.70710678 -0.70710678 5.8929662e-16
vn 0.70710678 -0.70710678 5.8929662e-16
vn -4.3517289e-16 0.0000000e+0 -1.00000000
vn -4.3517289e-16 0.0000000e+0 -1.00000000
vn 0.38268343 -0.92387953 1.0086038e-15
vn 0.38268343 -0.92387953 1.0086038e-15
vn 7.2528814e-17 0.0000000e+0 -1.00000000
vn 7.2528814e-17 0.0000000e+0 -1.00000000
vn 0.0000000e+0 -1.00000000 1.1105975e-15
vn 0.0000000e+0 -1.00000000 1.1105975e-15
vn 0.0000000e+0 0.0000000e+0 -1.00000000
vn 0.0000000e+0 0.0000000e+0 -1.00000000
vn -0.38268343 -0.92387953 1.0539343e-15
vn -0.38268343 -0.92387953 1.0539343e-15
vn -2.1758644e-16 0.0000000e+0 -1.00000000
vn -2.1758644e-16 0.0000000e+0 -1.00000000
vn -0.70710678 -0.70710678 6.3462713e-16
vn -0.70710678 -0.70710678 6.3462713e-16
vn 1.4505763e-16 0.0000000e+0 -1.00000000
vn 1.4505763e-16 0.0000000e+0 -1.00000000
vn -0.92387953 -0.38268343 1.8132204e-16
vn -0.92387953 -0.38268343 1.8132204e-16
vn -1.4505763e-16 0.0000000e+0 -1.00000000
vn -1.4505763e-16 0.0000000e+0 -1.00000000
vn -1.00000000 -2.8299339e-16 -2.2665254e-17
vn -1.00000000 -2.8299339e-16 -2.2665254e-17
vn -2.9011526e-16 0.0000000e+0 -1.00000000
vn -2.9011526e-16 0.0000000e+0 -1.00000000
vn -0.92387953 0.38268343 -2.9464831e-16
vn -0.92387953 0.38268343 -2.9464831e-16
vn -9.8607613e-32 0.0000000e+0 -1.00000000
vn -9.8607613e-32 0.0000000e+0 -1.00000000
vn -0.70710678 0.70710678 -5.8929662e-16
vn -0.70710678 0.70710678 -5.8929662e-16
vn 2.9011526e-16 0.0000000e+0 -1.00000000
vn 2.9011526e-16 0.0000000e+0 -1.00000000
vn -0.38268343 0.92387953 -4.9863560e-16
vn -0.38268343 0.92387953 -4.9863560e-16
vn 1.4505763e-16 0.0000000e+0 -1.00000000
vn 1.4505763e-16 0.0000000e+0 -1.00000000
vn -1.9809538e-16 1.00000000 -4.1930721e-16
vn -1.9809538e-16 1.00000000 -4.1930721e-16
vn -1.8132204e-16 0.0000000e+0 -1.00000000
vn -1.8132204e-16 0.0000000e+0 -1.00000000
vn 0.38268343 0.92387953 -7.3662077e-16
vn 0.38268343 0.92387953 -7.3662077e-16
vn -1.8132204e-16 0.0000000e+0 -1.00000000
vn -1.8132204e-16 0.0000000e+0 -1.00000000
vn 0.70710678 0.70710678 -6.7995763e-16
vn 0.70710678 0.70710678 -6.7995763e-16
vn -1.4505763e-16 0.0000000e+0 -1.00000000
vn -1.4505763e-16 0.0000000e+0 -1.00000000
vn 0.92387953 0.38268343 -2.8331568e-16
vn 0.92387953 0.38268343 -2.8331568e-16
vn -6.9025329e-31 0.0000000e+0 -1.00000000
vn -6.9025329e-31 0.0000000e+0 -1.00000000
vn 0.98893635 1.4996987e-16 -0.14834045
vn 0.98893635 1.4996987e-16 -0.14834045
vn 0.69928360 -0.69928360 -0.14834045
vn 0.69928360 -0.69928360 -0.14834045
vn 2.9993973e-17 -0.98893635 -0.14834045
vn 2.9993973e-17 -0.98893635 -0.14834045
vn -0.69928360 -0.69928360 -0.14834045
vn -0.69928360 -0.69928360 -0.14834045
vn -0.98893635 -1.1997589e-16 -0.14834045
vn -0.98893635 -1.1997589e-16 -0.14834045
vn -0.69928360 0.69928360 -0.14834045
vn -0.69928360 0.69928360 -0.14834045
vn -8.9981919e-17 0.98893635 -0.14834045
vn -8.9981919e-17 0.98893635 -0.14834045
vn 0.69928360 0.69928360 -0.14834045
vn 0.69928360 0.69928360 -0.14834045
vn 0.0000000e+0 0.0000000e+0 -1.00000000
vn 0.98287219 1.7980569e-16 -0.18428854
vn 0.98287219 1.7980569e-16 -0.18428854
vn 0.0000000e+0 0.0000000e+0 -1.00000000
vn 0.69499559 -0.69499559 -0.18428854
vn 0.69499559 -0.69499559 -0.18428854
vn 0.0000000e+0 0.0000000e+0 -1.00000000
vn 8.9902845e-17 -0.98287219 -0.18428854
vn 8.9902845e-17 -0.98287219 -0.18428854
vn 0.0000000e+0 0.0000000e+0 -1.00000000
vn -0.69499559 -0.69499559 -0.18428854
vn -0.69499559 -0.69499559 -0.18428854
vn 0.0000000e+0 0.0000000e+0 -1.00000000
vn -0.98287219 -2.0977331e-16 -0.18428854
vn -0.98287219 -2.0977331e-16 -0.18428854
vn 0.0000000e+0 0.0000000e+0 -1.00000000
vn -0.69499559 0.69499559 -0.18428854
vn -0.69499559 0.69499559 -0.18428854
vn 0.0000000e+0 0.0000000e+0 -1.00000000
vn -1.1987046e-16 0.98287219 -0.18428854
vn -1.1987046e-16 0.98287219 -0.18428854
vn 0.0000000e+0 0.0000000e+0 -1.00000000
vn 0.69499559 0.69499559 -0.18428854
vn 0.69499559 0.69499559 -0.18428854
vn 1.00000000 0.0000000e+0 0.0000000e+0
vn 1.00000000 0.0000000e+0 0.0000000e+0
vn 0.70710678 0.70710678 -9.4356518e-18
vn 0.70710678 0.70710678 -9.4356518e-18
vn -1.2617816e-15 1.00000000 5.8369124e-32
vn -1.2617816e-15 1.00000000 5.8369124e-32
vn -0.70710678 0.70710678 9.4356518e-18
vn -0.70710678 0.70710678 9.4356518e-18
vn -1.00000000 0.0000000e+0 0.0000000e+0
vn -1.00000000 0.0000000e+0 0.0000000e+0
vn -0.70710678 -0.70710678 9.4356518e-18
vn -0.70710678 -0.70710678 9.4356518e-18
vn -1.4119937e-15 -1.00000000 6.5039881e-32
vn -1.4119937e-15 -1.00000000 6.5039881e-32
vn 0.70710678 -0.70710678 -9.4356518e-18
vn 0.70710678 -0.70710678 -9.4356518e-18
g 1_1_auv
usemtl 1_auv
s 1
f 1/165/1 9/164/9 16/166/16 8/167/8
f 2/163/2 10/162/10 9/164/9 1/165/1
f 3/161/3 11/160/11 10/162/10 2/163/2
f 4/159/4 12/158/12 11/160/11 3/161/3
f 5/157/5 13/156/13 12/158/12 4/159/4
f 6/171/6 14/170/14 13/172/13 5/173/5
f 7/169/7 15/168/15 14/170/14 6/171/6
f 8/167/8 16/166/16 15/168/15 7/169/7
f 17/155/53 49/95/17 18/153/57
f 18/153/58 49/95/17 19/137/62
f 19/137/61 49/95/17 20/121/66
f 20/121/65 49/95/17 21/94/70
f 21/94/69 49/95/17 22/65/74
f 22/65/73 49/95/17 23/40/78
f 23/40/77 49/95/17 24/34/82
f 24/34/81 49/95/17 25/10/86
f 25/10/85 49/95/17 26/33/90
f 26/33/89 49/95/17 27/39/94
f 27/39/93 49/95/17 28/64/98
f 28/64/97 49/95/17 29/93/102
f 29/93/101 49/95/17 30/120/106
f 30/120/105 49/95/17 31/136/110
f 31/136/109 49/95/17 32/152/114
f 32/152/113 49/95/17 17/155/54
f 33/9/118 50/91/18 48/32/178
f 34/31/121 50/91/18 33/9/117
f 35/37/125 50/91/18 34/31/122
f 36/62/129 50/91/18 35/37/126
f 37/90/133 50/91/18 36/62/130
f 38/118/137 50/91/18 37/90/134
f 39/134/141 50/91/18 38/118/138
f 40/150/145 50/91/18 39/134/142
f 41/154/149 50/91/18 40/150/146
f 42/151/153 50/91/18 41/154/150
f 43/135/157 50/91/18 42/151/154
f 44/119/161 50/91/18 43/135/158
f 45/92/165 50/91/18 44/119/162
f 46/63/169 50/91/18 45/92/166
f 47/38/173 50/91/18 46/63/170
f 48/32/177 50/91/18 47/38/174
f 60/12/198 61/24/201 62/28/204 63/30/207 64/29/210 65/25/213 66/13/216 59/11/195
s 2
f 17/129/51 33/131/115 48/103/175 32/99/111
f 18/104/56 34/100/120 33/124/116 17/126/52
f 19/71/60 35/68/124 34/100/119 18/104/55
f 20/45/64 36/44/128 35/68/123 19/71/59
f 21/4/68 37/5/132 36/44/127 20/45/63
f 22/43/72 38/46/136 37/1/131 21/6/67
f 23/69/76 39/70/140 38/46/135 22/43/71
f 24/101/80 40/105/144 39/70/139 23/69/75
f 25/125/84 41/127/148 40/105/143 24/101/79
f 26/102/88 42/98/152 41/128/147 25/130/83
f 27/75/92 43/72/156 42/98/151 26/102/87
f 28/47/96 44/41/160 43/72/155 27/75/91
f 29/8/100 45/2/164 44/41/159 28/47/95
f 30/42/104 46/48/168 45/7/163 29/3/99
f 31/73/108 47/74/172 46/48/167 30/42/103
f 32/99/112 48/103/176 47/74/171 31/73/107
f 51/143/179 90/113/42 83/111/35 58/141/193
f 52/141/182 89/112/41 90/110/42 51/139/180
f 53/143/184 88/114/40 89/112/41 52/141/181
f 54/146/186 87/116/39 88/115/40 53/145/183
f 55/147/188 86/117/38 87/116/39 54/146/185
f 56/142/190 85/107/37 86/106/38 55/140/187
f 57/144/192 84/108/36 85/107/37 56/142/189
f 58/141/194 83/111/35 84/109/36 57/138/191
f 59/16/197 74/49/26 73/50/25 60/19/200
f 60/19/199 73/50/25 72/52/24 61/22/203
f 61/15/202 72/57/24 71/58/23 62/19/206
f 62/19/205 71/58/23 70/59/22 63/23/209
f 63/17/208 70/49/22 69/51/21 64/20/212
f 64/20/211 69/51/21 68/53/20 65/23/215
f 65/14/214 68/54/20 67/55/19 66/18/218
f 66/18/217 67/55/19 74/56/26 59/21/196
f 67/55/19 75/81/27 82/83/34 74/56/26
f 68/54/20 76/79/28 75/81/27 67/55/19
f 69/51/21 77/77/29 76/78/28 68/53/20
f 70/49/22 78/76/30 77/77/29 69/51/21
f 71/58/23 79/86/31 78/87/30 70/59/22
f 72/57/24 80/85/32 79/86/31 71/58/23
f 73/50/25 81/82/33 80/84/32 72/52/24
f 74/49/26 82/80/34 81/82/33 73/50/25
f 75/81/27 83/111/35 90/113/42 82/83/34
f 76/79/28 84/109/36 83/111/35 75/81/27
f 77/77/29 85/107/37 84/108/36 76/78/28
f 78/76/30 86/106/38 85/107/37 77/77/29
f 79/86/31 87/116/39 86/117/38 78/87/30
f 80/85/32 88/115/40 87/116/39 79/86/31
f 81/82/33 89/112/41 88/114/40 80/84/32
f 82/80/34 90/110/42 89/112/41 81/82/33
f 91/122/219 99/123/43 106/133/50 98/132/233
f 92/96/221 100/97/44 99/123/43 91/122/220
f 93/89/223 101/88/45 100/97/44 92/96/222
f 94/67/225 102/66/46 101/88/45 93/89/224
f 95/61/227 103/60/47 102/66/46 94/67/226
f 96/36/229 104/35/48 103/60/47 95/61/228
f 97/27/231 105/26/49 104/35/48 96/36/230
f 98/132/234 106/133/50 105/149/49 97/148/232
