# Exported from Wings 3D 1.5.4
mtllib dalim_solar_srf_1_base.mtl
o dalim_solar_srf_1_base
#16 vertices, 10 faces
v 2.5000000e-2 1.7090587e-17 2.5000000e-2
v 1.7677670e-2 -1.7677670e-2 2.5000000e-2
v 3.6406234e-18 -2.5000000e-2 2.5000000e-2
v -1.7677670e-2 -1.7677670e-2 2.5000000e-2
v -2.5000000e-2 1.4028970e-17 2.5000000e-2
v -1.7677670e-2 1.7677670e-2 2.5000000e-2
v -2.4826106e-18 2.5000000e-2 2.5000000e-2
v 1.7677670e-2 1.7677670e-2 2.5000000e-2
v 2.5000000e-2 1.3161609e-17 -5.0000000e-2
v 1.7677670e-2 -1.7677670e-2 -5.0000000e-2
v 4.5079852e-18 -2.5000000e-2 -5.0000000e-2
v -1.7677670e-2 -1.7677670e-2 -5.0000000e-2
v -2.5000000e-2 1.0099992e-17 -5.0000000e-2
v -1.7677670e-2 1.7677670e-2 -5.0000000e-2
v -1.6152488e-18 2.5000000e-2 -5.0000000e-2
v 1.7677670e-2 1.7677670e-2 -5.0000000e-2
vt 9.1753259e-2 0.10907935
vt 9.5857864e-2 9.9169952e-2
vt 9.5857864e-2 0.11898874
vt 0.10576726 9.5065346e-2
vt 0.10576726 0.12309335
vt 0.11567665 9.9169952e-2
vt 0.11567665 0.11898874
vt 0.11978126 0.10907935
vt 0.13935839 9.5434132e-2
vt 0.13935839 9.9451089e-2
vt 0.13935839 0.10914888
vt 0.13935839 0.11884667
vt 0.13935839 0.12286363
vt 0.13935839 9.5434132e-2
vt 0.13935839 9.9451089e-2
vt 0.13935839 0.10914888
vt 0.13935839 0.11884667
vt 0.13935839 0.12286363
vt 0.17227378 9.5434132e-2
vt 0.17227378 9.9451089e-2
vt 0.17227378 0.10914888
vt 0.17227378 0.11884667
vt 0.17227378 0.12286363
vt 0.17227378 9.5434132e-2
vt 0.17227378 9.9451089e-2
vt 0.17227378 0.10914888
vt 0.17227378 0.11884667
vt 0.17227378 0.12286363
vt 0.19164848 0.10907935
vt 0.19575308 9.9169952e-2
vt 0.19575308 0.11898874
vt 0.20566248 9.5065346e-2
vt 0.20566248 0.12309335
vt 0.21557187 9.9169952e-2
vt 0.21557187 0.11898874
vt 0.21967648 0.10907935
vn 3.0665868e-17 3.4694470e-17 1.00000000
vn 1.00000000 9.0127256e-17 5.1109781e-18
vn 1.00000000 9.0127256e-17 5.1109781e-18
vn 3.0665868e-17 3.4694470e-17 1.00000000
vn 0.70710678 -0.70710678 5.1109781e-17
vn 0.70710678 -0.70710678 5.1109781e-17
vn 3.0665868e-17 3.4694470e-17 1.00000000
vn 1.5021209e-16 -1.00000000 6.1331737e-17
vn 1.5021209e-16 -1.00000000 6.1331737e-17
vn 3.0665868e-17 3.4694470e-17 1.00000000
vn -0.70710678 -0.70710678 3.5776846e-17
vn -0.70710678 -0.70710678 3.5776846e-17
vn 3.0665868e-17 3.4694470e-17 1.00000000
vn -1.00000000 -1.5021209e-16 -5.1109781e-18
vn -1.00000000 -1.5021209e-16 -5.1109781e-18
vn 3.0665868e-17 3.4694470e-17 1.00000000
vn -0.70710678 0.70710678 -5.6220759e-17
vn -0.70710678 0.70710678 -5.6220759e-17
vn 3.0665868e-17 3.4694470e-17 1.00000000
vn -1.2016967e-16 1.00000000 -6.1331737e-17
vn -1.2016967e-16 1.00000000 -6.1331737e-17
vn 3.0665868e-17 3.4694470e-17 1.00000000
vn 0.70710678 0.70710678 -3.0665868e-17
vn 0.70710678 0.70710678 -3.0665868e-17
vn 3.0665868e-16 -6.9388939e-17 -1.00000000
vn 1.00000000 9.0127256e-17 5.1109781e-18
vn 1.00000000 9.0127256e-17 5.1109781e-18
vn 3.0665868e-16 -6.9388939e-17 -1.00000000
vn 0.70710678 -0.70710678 5.1109781e-17
vn 0.70710678 -0.70710678 5.1109781e-17
vn 3.0665868e-16 -6.9388939e-17 -1.00000000
vn 1.5021209e-16 -1.00000000 6.1331737e-17
vn 1.5021209e-16 -1.00000000 6.1331737e-17
vn 3.0665868e-16 -6.9388939e-17 -1.00000000
vn -0.70710678 -0.70710678 3.5776846e-17
vn -0.70710678 -0.70710678 3.5776846e-17
vn 3.0665868e-16 -6.9388939e-17 -1.00000000
vn -1.00000000 -1.5021209e-16 -5.1109781e-18
vn -1.00000000 -1.5021209e-16 -5.1109781e-18
vn 3.0665868e-16 -6.9388939e-17 -1.00000000
vn -0.70710678 0.70710678 -5.6220759e-17
vn -0.70710678 0.70710678 -5.6220759e-17
vn 3.0665868e-16 -6.9388939e-17 -1.00000000
vn -1.2016967e-16 1.00000000 -6.1331737e-17
vn -1.2016967e-16 1.00000000 -6.1331737e-17
vn 3.0665868e-16 -6.9388939e-17 -1.00000000
vn 0.70710678 0.70710678 -3.0665868e-17
vn 0.70710678 0.70710678 -3.0665868e-17
g dalim_solar_srf_1_base_dalim_solar_srf_1_base_auv
usemtl dalim_solar_srf_1_base_auv
s 1
f 1/8/1 8/7/22 7/5/19 6/3/16 5/1/13 4/2/10 3/4/7 2/6/4
f 10/30/28 11/32/31 12/34/34 13/36/37 14/35/40 15/33/43 16/31/46 9/29/25
s 2
f 1/11/2 9/21/26 16/22/47 8/12/23
f 2/10/6 10/20/30 9/21/27 1/11/3
f 3/9/9 11/19/33 10/20/29 2/10/5
f 4/17/12 12/27/36 11/28/32 3/18/8
f 5/16/15 13/26/39 12/27/35 4/17/11
f 6/15/18 14/25/42 13/26/38 5/16/14
f 7/14/21 15/24/45 14/25/41 6/15/17
f 8/12/24 16/22/48 15/23/44 7/13/20
