# Exported from Wings 3D 1.5.4
mtllib dalim_solar_srf_1_pivot.mtl
o dalim_solar_srf_1_pivot
#32 vertices, 17 faces
v 1.2500000e-2 1.7218911e-17 1.7347235e-18
v 8.8388348e-3 -8.8388348e-3 1.7347235e-18
v 2.1098149e-18 -1.2500000e-2 1.7347235e-18
v -8.8388348e-3 -8.8388348e-3 1.7347235e-18
v -1.2500000e-2 1.5688103e-17 1.7347235e-18
v -8.8388348e-3 8.8388348e-3 1.7347235e-18
v -9.5180205e-19 1.2500000e-2 0.0000000e+0
v 8.8388348e-3 8.8388348e-3 1.7347235e-18
v 1.2500000e-2 1.5688103e-17 -2.0000000e-2
v 8.8388348e-3 -8.8388348e-3 -2.0000000e-2
v 2.3266554e-18 -1.2500000e-2 -2.0000000e-2
v -8.8388348e-3 -8.8388348e-3 -2.0000000e-2
v -1.2500000e-2 1.4157294e-17 -2.0000000e-2
v -8.8388348e-3 8.8388348e-3 -2.0000000e-2
v -7.3496162e-19 1.2500000e-2 -2.0000000e-2
v 8.8388348e-3 8.8388348e-3 -2.0000000e-2
v -0.75000000 5.0000000e-3 -1.2500000e-2
v -0.75000000 7.9652298e-19 -7.5000000e-3
v -0.75000000 -5.0000000e-3 -1.2500000e-2
v -0.75000000 -4.2812382e-19 -1.7500000e-2
v 0.75000000 5.0000000e-3 -1.2500000e-2
v 0.75000000 1.8419958e-19 -7.5000000e-3
v 0.75000000 -5.0000000e-3 -1.2500000e-2
v 0.75000000 -1.0404472e-18 -1.7500000e-2
v -1.2500000e-2 -7.2816229e-19 -1.7500000e-2
v -1.2500000e-2 4.9648451e-19 -7.5000000e-3
v -1.0428932e-2 5.0000000e-3 -1.2500000e-2
v -1.0428932e-2 -5.0000000e-3 -1.2500000e-2
v 1.0428932e-2 5.0000000e-3 -1.2500000e-2
v 1.2500000e-2 4.8423804e-19 -7.5000000e-3
v 1.2500000e-2 -7.4040876e-19 -1.7500000e-2
v 1.0428932e-2 -5.0000000e-3 -1.2500000e-2
vt 4.4873180e-2 0.87787060
vt 4.4873180e-2 0.88061355
vt 4.4873180e-2 0.88335650
vt 4.4937741e-2 0.92085422
vt 4.4937741e-2 0.92286270
vt 4.4937741e-2 0.92771159
vt 4.4937741e-2 0.93256049
vt 4.4937741e-2 0.93456897
vt 4.4937741e-2 0.92085422
vt 4.4937741e-2 0.92286270
vt 4.4937741e-2 0.92771159
vt 4.4937741e-2 0.93256049
vt 4.4937741e-2 0.93456897
vt 5.5909539e-2 0.92085422
vt 5.5909539e-2 0.92286270
vt 5.5909539e-2 0.92771159
vt 5.5909539e-2 0.93256049
vt 5.5909539e-2 0.93456897
vt 5.5909539e-2 0.92085422
vt 5.5909539e-2 0.92286270
vt 5.5909539e-2 0.92771159
vt 5.5909539e-2 0.93256049
vt 5.5909539e-2 0.93456897
vt 9.3437112e-2 0.92771159
vt 9.5445590e-2 0.92286270
vt 9.5445590e-2 0.93256049
vt 0.10029449 0.92085422
vt 0.10029449 0.93456897
vt 0.10514338 0.92286270
vt 0.10514338 0.93256049
vt 0.10715186 0.92771159
vt 0.44335829 0.87787060
vt 0.44335829 0.88061355
vt 0.44335829 0.88335650
vn 4.5876354e-19 1.00000000 0.0000000e+0
vn 0.0000000e+0 7.8504623e-17 1.00000000
vn -2.2938177e-19 -1.00000000 7.8504623e-17
vn 2.2938177e-19 -7.8504623e-17 -1.00000000
vn 1.1469089e-18 1.00000000 0.0000000e+0
vn 2.2938177e-19 7.8504623e-17 1.00000000
vn -6.8814532e-19 -1.00000000 0.0000000e+0
vn 2.2938177e-19 -7.8504623e-17 -1.00000000
vn 2.2938177e-19 -7.8504623e-17 -1.00000000
vn 0.0000000e+0 7.8504623e-17 1.00000000
vn 4.5876354e-19 1.00000000 0.0000000e+0
vn -2.2938177e-19 -1.00000000 7.8504623e-17
vn 1.1469089e-18 1.00000000 0.0000000e+0
vn 2.2938177e-19 7.8504623e-17 1.00000000
vn 2.2938177e-19 -7.8504623e-17 -1.00000000
vn -6.8814532e-19 -1.00000000 0.0000000e+0
vn 1.00000000 1.2016967e-16 9.5830839e-18
vn 1.00000000 1.2016967e-16 9.5830839e-18
vn 0.70710678 -0.70710678 9.5830839e-17
vn 0.70710678 -0.70710678 9.5830839e-17
vn 6.0084837e-17 -1.00000000 1.1499701e-16
vn 6.0084837e-17 -1.00000000 1.1499701e-16
vn -0.70710678 -0.70710678 6.7081587e-17
vn -0.70710678 -0.70710678 6.7081587e-17
vn -1.00000000 -1.8025451e-16 -9.5830839e-18
vn -1.00000000 -1.8025451e-16 -9.5830839e-18
vn -0.70710678 0.70710678 -1.0541392e-16
vn -0.70710678 0.70710678 -1.0541392e-16
vn -9.0127256e-17 1.00000000 -1.1499701e-16
vn -9.0127256e-17 1.00000000 -1.1499701e-16
vn 0.70710678 0.70710678 -5.7498503e-17
vn 0.70710678 0.70710678 -5.7498503e-17
vn 6.1331737e-17 -6.9388939e-17 -1.00000000
vn 1.00000000 1.2016967e-16 9.5830839e-18
vn 1.00000000 1.2016967e-16 9.5830839e-18
vn 6.1331737e-17 -6.9388939e-17 -1.00000000
vn 0.70710678 -0.70710678 9.5830839e-17
vn 0.70710678 -0.70710678 9.5830839e-17
vn 6.1331737e-17 -6.9388939e-17 -1.00000000
vn 6.0084837e-17 -1.00000000 1.1499701e-16
vn 6.0084837e-17 -1.00000000 1.1499701e-16
vn 6.1331737e-17 -6.9388939e-17 -1.00000000
vn -0.70710678 -0.70710678 6.7081587e-17
vn -0.70710678 -0.70710678 6.7081587e-17
vn 6.1331737e-17 -6.9388939e-17 -1.00000000
vn -1.00000000 -1.8025451e-16 -9.5830839e-18
vn -1.00000000 -1.8025451e-16 -9.5830839e-18
vn 6.1331737e-17 -6.9388939e-17 -1.00000000
vn -0.70710678 0.70710678 -1.0541392e-16
vn -0.70710678 0.70710678 -1.0541392e-16
vn 6.1331737e-17 -6.9388939e-17 -1.00000000
vn -9.0127256e-17 1.00000000 -1.1499701e-16
vn -9.0127256e-17 1.00000000 -1.1499701e-16
vn 6.1331737e-17 -6.9388939e-17 -1.00000000
vn 0.70710678 0.70710678 -5.7498503e-17
vn 0.70710678 0.70710678 -5.7498503e-17
g dalim_solar_srf_1_pivot_dalim_solar_srf_1_pivot_auv
usemtl dalim_solar_srf_1_pivot_auv
s 1
f 10/25/36 11/27/39 12/29/42 13/31/45 14/30/48 15/28/51 16/26/54 9/24/33
f 17/2/1 27/33/11 25/34/9 20/3/4
f 18/1/2 26/32/10 27/33/11 17/2/1
f 19/2/3 28/33/12 26/34/10 18/3/2
f 20/1/4 25/32/9 28/33/12 19/2/3
f 21/2/5 29/33/13 30/34/14 22/3/6
f 22/1/6 30/32/14 32/33/16 23/2/7
f 23/2/7 32/33/16 31/34/15 24/3/8
f 24/1/8 31/32/15 29/33/13 21/2/5
s 2
f 1/6/17 9/16/34 16/17/55 8/7/31
f 2/5/20 10/15/38 9/16/35 1/6/18
f 3/4/22 11/14/41 10/15/37 2/5/19
f 4/12/24 12/22/44 11/23/40 3/13/21
f 5/11/26 13/21/47 12/22/43 4/12/23
f 6/10/28 14/20/50 13/21/46 5/11/25
f 7/9/30 15/19/53 14/20/49 6/10/27
f 8/7/32 16/17/56 15/18/52 7/8/29
