# Exported from Wings 3D 1.5.4
mtllib dalim_solar_srf_1_panel.mtl
o dalim_solar_srf_1_panel
#8 vertices, 6 faces
v -0.75000000 -6.2500000e-3 -0.36875000
v -0.75000000 -6.2500000e-3 6.2500000e-3
v -0.75000000 6.2500000e-3 -0.36875000
v -0.75000000 6.2500000e-3 6.2500000e-3
v 0.75000000 -6.2500000e-3 -0.36875000
v 0.75000000 -6.2500000e-3 6.2500000e-3
v 0.75000000 6.2500000e-3 -0.36875000
v 0.75000000 6.2500000e-3 6.2500000e-3
vt 3.4276088e-2 0.20970551
vt 3.4276088e-2 0.79232748
vt 4.4137063e-2 0.20970551
vt 4.4137063e-2 0.79232748
vt 8.3054197e-2 0.16156973
vt 8.3054197e-2 0.17126973
vt 8.3054197e-2 0.20970551
vt 8.3054197e-2 0.79232748
vt 8.3054197e-2 0.82900450
vt 8.3054197e-2 0.83933497
vt 0.22927120 0.16156973
vt 0.22927120 0.17126973
vt 0.22927120 0.82900450
vt 0.22927120 0.83933497
vt 0.22927120 0.20970551
vt 0.22927120 0.79232748
vt 0.26681852 0.20970551
vt 0.26681852 0.79232748
vt 0.27651852 0.20970551
vt 0.27651852 0.79232748
vt 0.31387851 0.20970551
vt 0.31387851 0.79232748
vt 0.46011520 0.20970551
vt 0.46011520 0.79232748
vn 0.0000000e+0 -1.00000000 0.0000000e+0
vn 0.0000000e+0 0.0000000e+0 -1.00000000
vn -1.00000000 0.0000000e+0 0.0000000e+0
vn 0.0000000e+0 -1.00000000 0.0000000e+0
vn 0.0000000e+0 0.0000000e+0 1.00000000
vn -1.00000000 0.0000000e+0 0.0000000e+0
vn 0.0000000e+0 1.00000000 0.0000000e+0
vn 0.0000000e+0 0.0000000e+0 -1.00000000
vn -1.00000000 0.0000000e+0 0.0000000e+0
vn 0.0000000e+0 1.00000000 0.0000000e+0
vn 0.0000000e+0 0.0000000e+0 1.00000000
vn -1.00000000 0.0000000e+0 0.0000000e+0
vn 0.0000000e+0 -1.00000000 0.0000000e+0
vn 0.0000000e+0 0.0000000e+0 -1.00000000
vn 1.00000000 0.0000000e+0 0.0000000e+0
vn 0.0000000e+0 -1.00000000 0.0000000e+0
vn 0.0000000e+0 0.0000000e+0 1.00000000
vn 1.00000000 0.0000000e+0 0.0000000e+0
vn 0.0000000e+0 1.00000000 0.0000000e+0
vn 0.0000000e+0 0.0000000e+0 -1.00000000
vn 1.00000000 0.0000000e+0 0.0000000e+0
vn 0.0000000e+0 1.00000000 0.0000000e+0
vn 0.0000000e+0 0.0000000e+0 1.00000000
vn 1.00000000 0.0000000e+0 0.0000000e+0
g dalim_solar_srf_1_panel_dalim_solar_srf_1_panel_auv
usemtl dalim_solar_srf_1_panel_auv
s 1
f 2/13/6 4/14/12 3/10/9 1/9/3
f 5/11/15 7/12/21 8/6/24 6/5/18
s 2
f 2/3/5 6/4/17 8/2/23 4/1/11
f 3/18/8 7/17/20 5/19/14 1/20/2
s 3
f 1/22/1 5/21/13 6/23/16 2/24/4
f 4/15/10 8/16/22 7/8/19 3/7/7
