# Exported from Wings 3D 1.5.4
mtllib Tantares_Habitation_2_Collider.mtl
o Tantares_Habitation_2_Collider
#64 vertices, 50 faces
v 0.62500000 0.60625000 -0.12432023
v 0.62500000 0.60625000 0.12432023
v 0.52984942 0.60625000 0.35403406
v 0.35403406 0.60625000 0.52984942
v 0.12432023 0.60625000 0.62500000
v -0.12432023 0.60625000 0.62500000
v -0.35403406 0.60625000 0.52984942
v -0.52984942 0.60625000 0.35403406
v -0.62500000 0.60625000 0.12432023
v -0.62500000 0.60625000 -0.12432023
v -0.52984942 0.60625000 -0.35403406
v -0.35403406 0.60625000 -0.52984942
v -0.12432023 0.60625000 -0.62500000
v 0.12432023 0.60625000 -0.62500000
v 0.35403406 0.60625000 -0.52984942
v 0.52984942 0.60625000 -0.35403406
v 0.62500000 -0.48125000 -0.12432023
v 0.62500000 -0.48125000 0.12432023
v 0.52984942 -0.48125000 0.35403406
v 0.35403406 -0.48125000 0.52984942
v 0.12432023 -0.48125000 0.62500000
v -0.12432023 -0.48125000 0.62500000
v -0.35403406 -0.48125000 0.52984942
v -0.52984942 -0.48125000 0.35403406
v -0.62500000 -0.48125000 0.12432023
v -0.62500000 -0.48125000 -0.12432023
v -0.52984942 -0.48125000 -0.35403406
v -0.35403406 -0.48125000 -0.52984942
v -0.12432023 -0.48125000 -0.62500000
v 0.12432023 -0.48125000 -0.62500000
v 0.35403406 -0.48125000 -0.52984942
v 0.52984942 -0.48125000 -0.35403406
v 0.46875000 0.73125000 9.3240172e-2
v 0.46875000 0.73125000 -9.3240172e-2
v 0.39738706 0.73125000 -0.26552555
v 0.26552555 0.73125000 -0.39738706
v 9.3240172e-2 0.73125000 -0.46875000
v -9.3240172e-2 0.73125000 -0.46875000
v -0.26552555 0.73125000 -0.39738706
v -0.39738706 0.73125000 -0.26552555
v -0.46875000 0.73125000 -9.3240172e-2
v -0.46875000 0.73125000 9.3240172e-2
v -0.39738706 0.73125000 0.26552555
v -0.26552555 0.73125000 0.39738706
v -9.3240172e-2 0.73125000 0.46875000
v 9.3240172e-2 0.73125000 0.46875000
v 0.26552555 0.73125000 0.39738706
v 0.39738706 0.73125000 0.26552555
v 0.31250000 -0.73125000 -6.2160115e-2
v 0.31250000 -0.73125000 6.2160115e-2
v 0.26492471 -0.73125000 0.17701703
v 0.17701703 -0.73125000 0.26492471
v 6.2160115e-2 -0.73125000 0.31250000
v -6.2160115e-2 -0.73125000 0.31250000
v -0.17701703 -0.73125000 0.26492471
v -0.26492471 -0.73125000 0.17701703
v -0.31250000 -0.73125000 6.2160115e-2
v -0.31250000 -0.73125000 -6.2160115e-2
v -0.26492471 -0.73125000 -0.17701703
v -0.17701703 -0.73125000 -0.26492471
v -6.2160115e-2 -0.73125000 -0.31250000
v 6.2160115e-2 -0.73125000 -0.31250000
v 0.17701703 -0.73125000 -0.26492471
v 0.26492471 -0.73125000 -0.17701703
vn 0.92387953 0.0000000e+0 -0.38268343
vn 1.00000000 0.0000000e+0 0.0000000e+0
vn 0.62469505 0.78086881 0.0000000e+0
vn 0.57714297 0.78086881 -0.23906044
vn 0.92387953 0.0000000e+0 0.38268343
vn 1.00000000 0.0000000e+0 0.0000000e+0
vn 0.62469505 0.78086881 0.0000000e+0
vn 0.57714297 0.78086881 0.23906044
vn 0.70710678 0.0000000e+0 0.70710678
vn 0.92387953 0.0000000e+0 0.38268343
vn 0.44172610 0.78086881 0.44172610
vn 0.57714297 0.78086881 0.23906044
vn 0.38268343 0.0000000e+0 0.92387953
vn 0.70710678 0.0000000e+0 0.70710678
vn 0.23906044 0.78086881 0.57714297
vn 0.44172610 0.78086881 0.44172610
vn 0.0000000e+0 0.0000000e+0 1.00000000
vn 0.38268343 0.0000000e+0 0.92387953
vn 0.0000000e+0 0.78086881 0.62469505
vn 0.23906044 0.78086881 0.57714297
vn -0.38268343 0.0000000e+0 0.92387953
vn 0.0000000e+0 0.0000000e+0 1.00000000
vn -0.23906044 0.78086881 0.57714297
vn 0.0000000e+0 0.78086881 0.62469505
vn -0.70710678 0.0000000e+0 0.70710678
vn -0.38268343 0.0000000e+0 0.92387953
vn -0.44172610 0.78086881 0.44172610
vn -0.23906044 0.78086881 0.57714297
vn -0.92387953 0.0000000e+0 0.38268343
vn -0.70710678 0.0000000e+0 0.70710678
vn -0.57714297 0.78086881 0.23906044
vn -0.44172610 0.78086881 0.44172610
vn -1.00000000 0.0000000e+0 0.0000000e+0
vn -0.92387953 0.0000000e+0 0.38268343
vn -0.62469505 0.78086881 0.0000000e+0
vn -0.57714297 0.78086881 0.23906044
vn -0.92387953 0.0000000e+0 -0.38268343
vn -1.00000000 0.0000000e+0 0.0000000e+0
vn -0.57714297 0.78086881 -0.23906044
vn -0.62469505 0.78086881 0.0000000e+0
vn -0.70710678 0.0000000e+0 -0.70710678
vn -0.92387953 0.0000000e+0 -0.38268343
vn -0.44172610 0.78086881 -0.44172610
vn -0.57714297 0.78086881 -0.23906044
vn -0.38268343 0.0000000e+0 -0.92387953
vn -0.70710678 0.0000000e+0 -0.70710678
vn -0.23906044 0.78086881 -0.57714297
vn -0.44172610 0.78086881 -0.44172610
vn 0.0000000e+0 0.0000000e+0 -1.00000000
vn -0.38268343 0.0000000e+0 -0.92387953
vn 0.0000000e+0 0.78086881 -0.62469505
vn -0.23906044 0.78086881 -0.57714297
vn 0.38268343 0.0000000e+0 -0.92387953
vn 0.0000000e+0 0.0000000e+0 -1.00000000
vn 0.23906044 0.78086881 -0.57714297
vn 0.0000000e+0 0.78086881 -0.62469505
vn 0.70710678 0.0000000e+0 -0.70710678
vn 0.38268343 0.0000000e+0 -0.92387953
vn 0.44172610 0.78086881 -0.44172610
vn 0.23906044 0.78086881 -0.57714297
vn 0.92387953 0.0000000e+0 -0.38268343
vn 0.70710678 0.0000000e+0 -0.70710678
vn 0.57714297 0.78086881 -0.23906044
vn 0.44172610 0.78086881 -0.44172610
vn 0.92387953 0.0000000e+0 -0.38268343
vn 1.00000000 0.0000000e+0 0.0000000e+0
vn 0.62469505 -0.78086881 0.0000000e+0
vn 0.57714297 -0.78086881 -0.23906044
vn 0.92387953 0.0000000e+0 0.38268343
vn 1.00000000 0.0000000e+0 0.0000000e+0
vn 0.62469505 -0.78086881 0.0000000e+0
vn 0.57714297 -0.78086881 0.23906044
vn 0.70710678 0.0000000e+0 0.70710678
vn 0.92387953 0.0000000e+0 0.38268343
vn 0.57714297 -0.78086881 0.23906044
vn 0.44172610 -0.78086881 0.44172610
vn 0.38268343 0.0000000e+0 0.92387953
vn 0.70710678 0.0000000e+0 0.70710678
vn 0.44172610 -0.78086881 0.44172610
vn 0.23906044 -0.78086881 0.57714297
vn 0.0000000e+0 0.0000000e+0 1.00000000
vn 0.38268343 0.0000000e+0 0.92387953
vn 0.23906044 -0.78086881 0.57714297
vn 0.0000000e+0 -0.78086881 0.62469505
vn -0.38268343 0.0000000e+0 0.92387953
vn 0.0000000e+0 0.0000000e+0 1.00000000
vn 0.0000000e+0 -0.78086881 0.62469505
vn -0.23906044 -0.78086881 0.57714297
vn -0.70710678 0.0000000e+0 0.70710678
vn -0.38268343 0.0000000e+0 0.92387953
vn -0.23906044 -0.78086881 0.57714297
vn -0.44172610 -0.78086881 0.44172610
vn -0.92387953 0.0000000e+0 0.38268343
vn -0.70710678 0.0000000e+0 0.70710678
vn -0.44172610 -0.78086881 0.44172610
vn -0.57714297 -0.78086881 0.23906044
vn -1.00000000 0.0000000e+0 0.0000000e+0
vn -0.92387953 0.0000000e+0 0.38268343
vn -0.57714297 -0.78086881 0.23906044
vn -0.62469505 -0.78086881 0.0000000e+0
vn -0.92387953 0.0000000e+0 -0.38268343
vn -1.00000000 0.0000000e+0 0.0000000e+0
vn -0.62469505 -0.78086881 0.0000000e+0
vn -0.57714297 -0.78086881 -0.23906044
vn -0.70710678 0.0000000e+0 -0.70710678
vn -0.92387953 0.0000000e+0 -0.38268343
vn -0.57714297 -0.78086881 -0.23906044
vn -0.44172610 -0.78086881 -0.44172610
vn -0.38268343 0.0000000e+0 -0.92387953
vn -0.70710678 0.0000000e+0 -0.70710678
vn -0.44172610 -0.78086881 -0.44172610
vn -0.23906044 -0.78086881 -0.57714297
vn 0.0000000e+0 0.0000000e+0 -1.00000000
vn -0.38268343 0.0000000e+0 -0.92387953
vn -0.23906044 -0.78086881 -0.57714297
vn 0.0000000e+0 -0.78086881 -0.62469505
vn 0.38268343 0.0000000e+0 -0.92387953
vn 0.0000000e+0 0.0000000e+0 -1.00000000
vn 0.0000000e+0 -0.78086881 -0.62469505
vn 0.23906044 -0.78086881 -0.57714297
vn 0.70710678 0.0000000e+0 -0.70710678
vn 0.38268343 0.0000000e+0 -0.92387953
vn 0.23906044 -0.78086881 -0.57714297
vn 0.44172610 -0.78086881 -0.44172610
vn 0.92387953 0.0000000e+0 -0.38268343
vn 0.70710678 0.0000000e+0 -0.70710678
vn 0.44172610 -0.78086881 -0.44172610
vn 0.57714297 -0.78086881 -0.23906044
vn 0.0000000e+0 1.00000000 -4.9613049e-17
vn 0.62469505 0.78086881 0.0000000e+0
vn 0.57714297 0.78086881 0.23906044
vn 0.0000000e+0 1.00000000 -4.9613049e-17
vn 0.62469505 0.78086881 0.0000000e+0
vn 0.57714297 0.78086881 -0.23906044
vn 0.0000000e+0 1.00000000 -4.9613049e-17
vn 0.57714297 0.78086881 -0.23906044
vn 0.44172610 0.78086881 -0.44172610
vn 0.0000000e+0 1.00000000 -4.9613049e-17
vn 0.44172610 0.78086881 -0.44172610
vn 0.23906044 0.78086881 -0.57714297
vn 0.0000000e+0 1.00000000 -4.9613049e-17
vn 0.23906044 0.78086881 -0.57714297
vn 0.0000000e+0 0.78086881 -0.62469505
vn 0.0000000e+0 1.00000000 -4.9613049e-17
vn 0.0000000e+0 0.78086881 -0.62469505
vn -0.23906044 0.78086881 -0.57714297
vn 0.0000000e+0 1.00000000 -4.9613049e-17
vn -0.23906044 0.78086881 -0.57714297
vn -0.44172610 0.78086881 -0.44172610
vn 0.0000000e+0 1.00000000 -4.9613049e-17
vn -0.44172610 0.78086881 -0.44172610
vn -0.57714297 0.78086881 -0.23906044
vn 0.0000000e+0 1.00000000 -4.9613049e-17
vn -0.57714297 0.78086881 -0.23906044
vn -0.62469505 0.78086881 0.0000000e+0
vn 0.0000000e+0 1.00000000 -4.9613049e-17
vn -0.62469505 0.78086881 0.0000000e+0
vn -0.57714297 0.78086881 0.23906044
vn 0.0000000e+0 1.00000000 -4.9613049e-17
vn -0.57714297 0.78086881 0.23906044
vn -0.44172610 0.78086881 0.44172610
vn 0.0000000e+0 1.00000000 -4.9613049e-17
vn -0.44172610 0.78086881 0.44172610
vn -0.23906044 0.78086881 0.57714297
vn 0.0000000e+0 1.00000000 -4.9613049e-17
vn -0.23906044 0.78086881 0.57714297
vn 0.0000000e+0 0.78086881 0.62469505
vn 0.0000000e+0 1.00000000 -4.9613049e-17
vn 0.0000000e+0 0.78086881 0.62469505
vn 0.23906044 0.78086881 0.57714297
vn 0.0000000e+0 1.00000000 -4.9613049e-17
vn 0.23906044 0.78086881 0.57714297
vn 0.44172610 0.78086881 0.44172610
vn 0.0000000e+0 1.00000000 -4.9613049e-17
vn 0.44172610 0.78086881 0.44172610
vn 0.57714297 0.78086881 0.23906044
vn 0.0000000e+0 -1.00000000 2.2325872e-16
vn 0.62469505 -0.78086881 0.0000000e+0
vn 0.57714297 -0.78086881 -0.23906044
vn 0.0000000e+0 -1.00000000 2.2325872e-16
vn 0.62469505 -0.78086881 0.0000000e+0
vn 0.57714297 -0.78086881 0.23906044
vn 0.0000000e+0 -1.00000000 2.2325872e-16
vn 0.57714297 -0.78086881 0.23906044
vn 0.44172610 -0.78086881 0.44172610
vn 0.0000000e+0 -1.00000000 2.2325872e-16
vn 0.44172610 -0.78086881 0.44172610
vn 0.23906044 -0.78086881 0.57714297
vn 0.0000000e+0 -1.00000000 2.2325872e-16
vn 0.23906044 -0.78086881 0.57714297
vn 0.0000000e+0 -0.78086881 0.62469505
vn 0.0000000e+0 -1.00000000 2.2325872e-16
vn 0.0000000e+0 -0.78086881 0.62469505
vn -0.23906044 -0.78086881 0.57714297
vn 0.0000000e+0 -1.00000000 2.2325872e-16
vn -0.23906044 -0.78086881 0.57714297
vn -0.44172610 -0.78086881 0.44172610
vn 0.0000000e+0 -1.00000000 2.2325872e-16
vn -0.44172610 -0.78086881 0.44172610
vn -0.57714297 -0.78086881 0.23906044
vn 0.0000000e+0 -1.00000000 2.2325872e-16
vn -0.57714297 -0.78086881 0.23906044
vn -0.62469505 -0.78086881 0.0000000e+0
vn 0.0000000e+0 -1.00000000 2.2325872e-16
vn -0.62469505 -0.78086881 0.0000000e+0
vn -0.57714297 -0.78086881 -0.23906044
vn 0.0000000e+0 -1.00000000 2.2325872e-16
vn -0.57714297 -0.78086881 -0.23906044
vn -0.44172610 -0.78086881 -0.44172610
vn 0.0000000e+0 -1.00000000 2.2325872e-16
vn -0.44172610 -0.78086881 -0.44172610
vn -0.23906044 -0.78086881 -0.57714297
vn 0.0000000e+0 -1.00000000 2.2325872e-16
vn -0.23906044 -0.78086881 -0.57714297
vn 0.0000000e+0 -0.78086881 -0.62469505
vn 0.0000000e+0 -1.00000000 2.2325872e-16
vn 0.0000000e+0 -0.78086881 -0.62469505
vn 0.23906044 -0.78086881 -0.57714297
vn 0.0000000e+0 -1.00000000 2.2325872e-16
vn 0.23906044 -0.78086881 -0.57714297
vn 0.44172610 -0.78086881 -0.44172610
vn 0.0000000e+0 -1.00000000 2.2325872e-16
vn 0.44172610 -0.78086881 -0.44172610
vn 0.57714297 -0.78086881 -0.23906044
g Tantares_Habitation_2_Collider_default
usemtl default
s 1
f 1//1 17//65 32//125 16//61
f 1//3 34//133 33//130 2//7
f 3//11 48//175 47//173 4//16
f 5//19 46//169 45//167 6//24
f 8//30 24//94 23//89 7//25
f 8//31 43//160 42//158 9//36
f 10//38 26//102 25//97 9//33
f 10//39 41//154 40//152 11//44
f 12//46 28//110 27//105 11//41
f 12//47 39//148 38//146 13//52
f 14//54 30//118 29//113 13//49
f 15//59 36//139 35//137 16//64
f 19//75 51//184 50//182 18//72
f 21//83 53//190 52//188 20//80
f 23//91 55//196 54//194 22//88
f 25//99 57//202 56//200 24//96
f 27//107 59//208 58//206 26//104
f 29//115 61//214 60//212 28//112
f 32//127 64//223 63//221 31//124
s 2
f 2//6 18//70 17//66 1//2
f 2//8 33//131 48//176 3//12
f 4//15 47//172 46//170 5//20
f 6//23 45//166 44//164 7//28
f 9//34 25//98 24//93 8//29
f 9//35 42//157 41//155 10//40
f 11//42 27//106 26//101 10//37
f 11//43 40//151 39//149 12//48
f 13//50 29//114 28//109 12//45
f 13//51 38//145 37//143 14//56
f 15//58 31//122 30//117 14//53
f 16//63 35//136 34//134 1//4
f 17//68 49//179 64//224 32//128
f 20//79 52//187 51//185 19//76
f 22//87 54//193 53//191 21//84
f 24//95 56//199 55//197 23//92
f 26//103 58//205 57//203 25//100
f 28//111 60//211 59//209 27//108
f 30//119 62//217 61//215 29//116
s 3
f 3//10 19//74 18//69 2//5
f 5//18 21//82 20//77 4//13
f 7//26 23//90 22//85 6//21
f 16//62 32//126 31//121 15//57
f 18//71 50//181 49//178 17//67
f 31//123 63//220 62//218 30//120
f 34//132 35//135 36//138 37//141 38//144 39//147 40//150 41//153 42//156 43//159 44//162 45//165 46//168 47//171 48//174 33//129
s 4
f 4//14 20//78 19//73 3//9
f 6//22 22//86 21//81 5//17
f 7//27 44//163 43//161 8//32
f 14//55 37//142 36//140 15//60
f 50//180 51//183 52//186 53//189 54//192 55//195 56//198 57//201 58//204 59//207 60//210 61//213 62//216 63//219 64//222 49//177
