# Exported from Wings 3D 1.5.4
mtllib flag.mtl
o flag
#35 vertices, 24 faces
v -0.31250000 -6.6613381e-16 0.54626588
v -0.16176190 -6.6613381e-16 0.60870364
v 6.9388939e-18 -6.6613381e-16 0.63000000
v 0.16176190 -6.6613381e-16 0.60870364
v 0.31250000 -6.6613381e-16 0.54626588
v -0.30282342 -0.11362147 0.52950555
v -0.15675294 -0.11362147 0.59000993
v 6.9388939e-18 -0.11362147 0.61064684
v 0.15675294 -0.11362147 0.59000993
v 0.30282342 -0.11362147 0.52950555
v -0.31250000 0.16000000 0.54626588
v -0.16176190 0.16000000 0.60870364
v 6.9388939e-18 0.16000000 0.63000000
v 0.16176190 0.16000000 0.60870364
v 0.31250000 0.16000000 0.54626588
v -0.33750000 0.16000000 0.52708271
v -0.33750000 -0.11362147 0.50289728
v -0.33750000 -6.6613381e-16 0.52708271
v 0.33750000 0.16000000 0.52708271
v 0.33750000 -0.11362147 0.50289728
v 0.33750000 -6.6613381e-16 0.52708271
v 0.33750000 0.21250000 0.51590757
v -0.33750000 0.21250000 0.51590757
v 0.30802883 0.21250000 0.53852159
v 0.15944746 0.21250000 0.60006601
v 6.9388939e-18 0.21250000 0.62105767
v -0.15944746 0.21250000 0.60006601
v -0.30802883 0.21250000 0.53852159
v 0.33750000 -0.21250000 0.47173142
v -0.33750000 -0.21250000 0.47173142
v 0.29035397 -0.21250000 0.50790784
v 0.15029827 -0.21250000 0.56592080
v 6.9388939e-18 -0.21250000 0.58570795
v -0.15029827 -0.21250000 0.56592080
v -0.29035397 -0.21250000 0.50790784
vt 3.9898640e-17 5.5511151e-17
vt 3.9898640e-17 0.23955472
vt 3.9898640e-17 0.50701941
vt 3.9898640e-17 0.87595379
vt 3.9898640e-17 1.00000000
vt 5.7134397e-2 5.5511151e-17
vt 5.7134397e-2 0.23955472
vt 5.7134397e-2 0.50701941
vt 5.7134397e-2 0.87595379
vt 5.7134397e-2 1.00000000
vt 0.27900953 5.5511151e-17
vt 0.27900953 0.23955472
vt 0.27900953 0.50701941
vt 0.27900953 0.87595379
vt 0.27900953 1.00000000
vt 0.50000000 5.5511151e-17
vt 0.50000000 0.23955472
vt 0.50000000 0.50701941
vt 0.50000000 0.87595379
vt 0.50000000 1.00000000
vt 0.72099047 5.5511151e-17
vt 0.72099047 0.23955472
vt 0.72099047 0.50701941
vt 0.72099047 0.87595379
vt 0.72099047 1.00000000
vt 0.94286560 5.5511151e-17
vt 0.94286560 0.23955472
vt 0.94286560 0.50701941
vt 0.94286560 0.87595379
vt 0.94286560 1.00000000
vt 1.00000000 5.5511151e-17
vt 1.00000000 0.23955472
vt 1.00000000 0.50701941
vt 1.00000000 0.87595379
vt 1.00000000 1.00000000
vn -0.49822166 -8.4265607e-2 0.86294524
vn -0.25789850 -8.4265596e-2 0.96249035
vn -4.2137405e-17 -8.4265595e-2 0.99644333
vn 0.25789850 -8.4265596e-2 0.96249035
vn 0.49822166 -8.4265607e-2 0.86294524
vn -0.48923397 -0.20639879 0.84737811
vn -0.25324613 -0.20639880 0.94512747
vn -5.6012141e-17 -0.20639880 0.97846795
vn 0.25324613 -0.20639880 0.94512747
vn 0.48923397 -0.20639879 0.84737811
vn -0.49822165 8.4265607e-2 0.86294524
vn -0.25789850 8.4265596e-2 0.96249035
vn -2.1068702e-17 8.4265595e-2 0.99644333
vn 0.25789850 8.4265596e-2 0.96249035
vn 0.49822165 8.4265607e-2 0.86294524
vn -0.60663296 8.3549767e-2 0.79057947
vn -0.59586982 -0.20470732 0.77655268
vn -0.60663295 -8.3549767e-2 0.79057947
vn 0.60663296 8.3549767e-2 0.79057947
vn 0.59586982 -0.20470732 0.77655268
vn 0.60663295 -8.3549767e-2 0.79057947
vn 0.60026243 0.16651529 0.78227724
vn -0.60026243 0.16651529 0.78227724
vn 0.49290100 0.16791178 0.85372960
vn 0.25514433 0.16791176 0.95221164
vn -4.1982529e-17 0.16791176 0.98580203
vn -0.25514433 0.16791176 0.95221164
vn -0.49290100 0.16791178 0.85372960
vn 0.59057704 -0.24259011 0.76965499
vn -0.59057704 -0.24259011 0.76965499
vn 0.48481724 -0.24455874 0.83972809
vn 0.25095986 -0.24455877 0.93659498
vn -2.7980811e-17 -0.24455877 0.96963447
vn -0.25095986 -0.24455877 0.93659498
vn -0.48481724 -0.24455874 0.83972809
g flag_flag_auv
usemtl flag_auv
s 1
f 1/8/1 6/7/6 7/12/7 2/13/2
f 1/8/1 18/3/18 17/2/17 6/7/6
f 2/13/2 7/12/7 8/17/8 3/18/3
f 2/13/2 12/14/12 11/9/11 1/8/1
f 3/18/3 8/17/8 9/22/9 4/23/4
f 3/18/3 13/19/13 12/14/12 2/13/2
f 4/23/4 9/22/9 10/27/10 5/28/5
f 4/23/4 14/24/14 13/19/13 3/18/3
f 5/28/5 10/27/10 20/32/20 21/33/21
f 5/28/5 15/29/15 14/24/14 4/23/4
f 6/7/6 35/6/35 34/11/34 7/12/7
f 7/12/7 34/11/34 33/16/33 8/17/8
f 8/17/8 33/16/33 32/21/32 9/22/9
f 9/22/9 32/21/32 31/26/31 10/27/10
f 10/27/10 31/26/31 29/31/29 20/32/20
f 11/9/11 16/4/16 18/3/18 1/8/1
f 11/9/11 28/10/28 23/5/23 16/4/16
f 12/14/12 27/15/27 28/10/28 11/9/11
f 13/19/13 26/20/26 27/15/27 12/14/12
f 14/24/14 25/25/25 26/20/26 13/19/13
f 15/29/15 24/30/24 25/25/25 14/24/14
f 17/2/17 30/1/30 35/6/35 6/7/6
f 19/34/19 22/35/22 24/30/24 15/29/15
f 21/33/21 19/34/19 15/29/15 5/28/5
