# Exported from Wings 3D 1.5.4
mtllib tantares_orbital_module_s1_1_collider.mtl
o collider
#60 vertices, 50 faces
v 0.46875000 0.57500000 -0.12560118
v 0.46875000 0.57500000 0.12560118
v 0.34314882 0.57500000 0.34314882
v 0.12560118 0.57500000 0.46875000
v -0.12560118 0.57500000 0.46875000
v -0.34314882 0.57500000 0.34314882
v -0.46875000 0.57500000 0.12560118
v -0.46875000 0.57500000 -0.12560118
v -0.34314882 0.57500000 -0.34314882
v -0.12560118 0.57500000 -0.46875000
v 0.12560118 0.57500000 -0.46875000
v 0.34314882 0.57500000 -0.34314882
v 0.31250000 -0.57500000 -8.3734123e-2
v 0.31250000 -0.57500000 8.3734123e-2
v 0.22876588 -0.57500000 0.22876588
v 8.3734123e-2 -0.57500000 0.31250000
v -8.3734123e-2 -0.57500000 0.31250000
v -0.22876588 -0.57500000 0.22876588
v -0.31250000 -0.57500000 8.3734123e-2
v -0.31250000 -0.57500000 -8.3734123e-2
v -0.22876588 -0.57500000 -0.22876588
v -8.3734123e-2 -0.57500000 -0.31250000
v 8.3734123e-2 -0.57500000 -0.31250000
v 0.22876588 -0.57500000 -0.22876588
v 0.45753175 0.0000000e+0 -0.45753175
v 0.16746825 0.0000000e+0 -0.62500000
v -0.16746825 0.0000000e+0 -0.62500000
v -0.45753175 0.0000000e+0 -0.45753175
v -0.62500000 0.0000000e+0 -0.16746825
v -0.62500000 0.0000000e+0 0.16746825
v -0.45753175 0.0000000e+0 0.45753175
v -0.16746825 0.0000000e+0 0.62500000
v 0.16746825 0.0000000e+0 0.62500000
v 0.45753175 0.0000000e+0 0.45753175
v 0.62500000 0.0000000e+0 0.16746825
v 0.62500000 0.0000000e+0 -0.16746825
v 0.53433143 -0.32570107 -0.14317367
v 0.53433143 -0.32570107 0.14317367
v 0.39115775 -0.32570107 0.39115775
v 0.14317367 -0.32570107 0.53433143
v -0.14317367 -0.32570107 0.53433143
v -0.39115775 -0.32570107 0.39115775
v -0.53433143 -0.32570107 0.14317367
v -0.53433143 -0.32570107 -0.14317367
v -0.39115775 -0.32570107 -0.39115775
v -0.14317367 -0.32570107 -0.53433143
v 0.14317367 -0.32570107 -0.53433143
v 0.39115775 -0.32570107 -0.39115775
v 0.43988695 0.30323378 -0.43988695
v 0.16100980 0.30323378 -0.60089674
v -0.16100980 0.30323378 -0.60089674
v -0.43988695 0.30323378 -0.43988695
v -0.60089674 0.30323378 -0.16100980
v -0.60089674 0.30323378 0.16100980
v -0.43988695 0.30323378 0.43988695
v -0.16100980 0.30323378 0.60089674
v 0.16100980 0.30323378 0.60089674
v 0.43988695 0.30323378 0.43988695
v 0.60089674 0.30323378 0.16100980
v 0.60089674 0.30323378 -0.16100980
vn 0.0000000e+0 1.00000000 -3.9285653e-17
vn 0.77883240 0.43729486 -0.44965909
vn 0.89931819 0.43729486 0.0000000e+0
vn 0.0000000e+0 1.00000000 -3.9285653e-17
vn 0.77883240 0.43729486 0.44965909
vn 0.89931819 0.43729486 0.0000000e+0
vn 0.0000000e+0 1.00000000 -3.9285653e-17
vn 0.44965909 0.43729486 0.77883240
vn 0.77883240 0.43729486 0.44965909
vn 0.0000000e+0 1.00000000 -3.9285653e-17
vn -3.6051874e-16 0.43729486 0.89931819
vn 0.44965909 0.43729486 0.77883240
vn 0.0000000e+0 1.00000000 -3.9285653e-17
vn -0.44965909 0.43729486 0.77883240
vn -3.6051874e-16 0.43729486 0.89931819
vn 0.0000000e+0 1.00000000 -3.9285653e-17
vn -0.77883240 0.43729486 0.44965909
vn -0.44965909 0.43729486 0.77883240
vn 0.0000000e+0 1.00000000 -3.9285653e-17
vn -0.89931819 0.43729486 0.0000000e+0
vn -0.77883240 0.43729486 0.44965909
vn 0.0000000e+0 1.00000000 -3.9285653e-17
vn -0.77883240 0.43729486 -0.44965909
vn -0.89931819 0.43729486 0.0000000e+0
vn 0.0000000e+0 1.00000000 -3.9285653e-17
vn -0.44965909 0.43729486 -0.77883240
vn -0.77883240 0.43729486 -0.44965909
vn 0.0000000e+0 1.00000000 -3.9285653e-17
vn 0.0000000e+0 0.43729486 -0.89931819
vn -0.44965909 0.43729486 -0.77883240
vn 0.0000000e+0 1.00000000 -3.9285653e-17
vn 0.44965909 0.43729486 -0.77883240
vn 0.0000000e+0 0.43729486 -0.89931819
vn 0.0000000e+0 1.00000000 -3.9285653e-17
vn 0.77883240 0.43729486 -0.44965909
vn 0.44965909 0.43729486 -0.77883240
vn 0.0000000e+0 -1.00000000 -1.9888362e-16
vn 0.64697592 -0.66475274 -0.37353172
vn 0.74706345 -0.66475274 0.0000000e+0
vn 0.0000000e+0 -1.00000000 -1.9888362e-16
vn 0.64697592 -0.66475274 0.37353172
vn 0.74706345 -0.66475274 0.0000000e+0
vn 0.0000000e+0 -1.00000000 -1.9888362e-16
vn 0.37353172 -0.66475274 0.64697592
vn 0.64697592 -0.66475274 0.37353172
vn 0.0000000e+0 -1.00000000 -1.9888362e-16
vn -2.7491545e-16 -0.66475274 0.74706345
vn 0.37353172 -0.66475274 0.64697592
vn 0.0000000e+0 -1.00000000 -1.9888362e-16
vn -0.37353172 -0.66475274 0.64697592
vn -2.7491545e-16 -0.66475274 0.74706345
vn 0.0000000e+0 -1.00000000 -1.9888362e-16
vn -0.64697592 -0.66475274 0.37353172
vn -0.37353172 -0.66475274 0.64697592
vn 0.0000000e+0 -1.00000000 -1.9888362e-16
vn -0.74706345 -0.66475274 0.0000000e+0
vn -0.64697592 -0.66475274 0.37353172
vn 0.0000000e+0 -1.00000000 -1.9888362e-16
vn -0.64697592 -0.66475274 -0.37353172
vn -0.74706345 -0.66475274 0.0000000e+0
vn 0.0000000e+0 -1.00000000 -1.9888362e-16
vn -0.37353172 -0.66475274 -0.64697592
vn -0.64697592 -0.66475274 -0.37353172
vn 0.0000000e+0 -1.00000000 -1.9888362e-16
vn 0.0000000e+0 -0.66475274 -0.74706345
vn -0.37353172 -0.66475274 -0.64697592
vn 0.0000000e+0 -1.00000000 -1.9888362e-16
vn 0.37353172 -0.66475274 -0.64697592
vn 0.0000000e+0 -0.66475274 -0.74706345
vn 0.0000000e+0 -1.00000000 -1.9888362e-16
vn 0.64697592 -0.66475274 -0.37353172
vn 0.37353172 -0.66475274 -0.64697592
vn 0.86330242 7.9237451e-2 -0.49842789
vn 0.49842789 7.9237451e-2 -0.86330242
vn 0.83430135 -0.26818218 -0.48168411
vn 0.48168411 -0.26818218 -0.83430135
vn 0.49842789 7.9237451e-2 -0.86330242
vn 0.0000000e+0 7.9237451e-2 -0.99685577
vn 0.48168411 -0.26818218 -0.83430135
vn 0.0000000e+0 -0.26818218 -0.96336822
vn 0.0000000e+0 7.9237451e-2 -0.99685577
vn -0.49842789 7.9237451e-2 -0.86330242
vn 0.0000000e+0 -0.26818218 -0.96336822
vn -0.48168411 -0.26818218 -0.83430135
vn -0.49842789 7.9237451e-2 -0.86330242
vn -0.86330242 7.9237451e-2 -0.49842789
vn -0.48168411 -0.26818218 -0.83430135
vn -0.83430135 -0.26818218 -0.48168411
vn -0.86330242 7.9237451e-2 -0.49842789
vn -0.99685577 7.9237451e-2 0.0000000e+0
vn -0.83430135 -0.26818218 -0.48168411
vn -0.96336822 -0.26818218 0.0000000e+0
vn -0.99685577 7.9237451e-2 0.0000000e+0
vn -0.86330242 7.9237451e-2 0.49842789
vn -0.96336822 -0.26818218 0.0000000e+0
vn -0.83430135 -0.26818218 0.48168411
vn -0.86330242 7.9237451e-2 0.49842789
vn -0.49842789 7.9237451e-2 0.86330242
vn -0.83430135 -0.26818218 0.48168411
vn -0.48168411 -0.26818218 0.83430135
vn -0.49842789 7.9237451e-2 0.86330242
vn -3.3420226e-16 7.9237451e-2 0.99685577
vn -0.48168411 -0.26818218 0.83430135
vn -3.4686671e-16 -0.26818218 0.96336822
vn -3.3420226e-16 7.9237451e-2 0.99685577
vn 0.49842789 7.9237451e-2 0.86330242
vn -3.4686671e-16 -0.26818218 0.96336822
vn 0.48168411 -0.26818218 0.83430135
vn 0.49842789 7.9237451e-2 0.86330242
vn 0.86330242 7.9237451e-2 0.49842789
vn 0.48168411 -0.26818218 0.83430135
vn 0.83430135 -0.26818218 0.48168411
vn 0.86330242 7.9237451e-2 0.49842789
vn 0.99685577 7.9237451e-2 0.0000000e+0
vn 0.83430135 -0.26818218 0.48168411
vn 0.96336822 -0.26818218 0.0000000e+0
vn 0.86330242 7.9237451e-2 -0.49842789
vn 0.99685577 7.9237451e-2 0.0000000e+0
vn 0.83430135 -0.26818218 -0.48168411
vn 0.96336822 -0.26818218 0.0000000e+0
vn 0.83430135 -0.26818218 -0.48168411
vn 0.96336822 -0.26818218 0.0000000e+0
vn 0.64697592 -0.66475274 -0.37353172
vn 0.74706345 -0.66475274 0.0000000e+0
vn 0.83430135 -0.26818218 0.48168411
vn 0.96336822 -0.26818218 0.0000000e+0
vn 0.64697592 -0.66475274 0.37353172
vn 0.74706345 -0.66475274 0.0000000e+0
vn 0.48168411 -0.26818218 0.83430135
vn 0.83430135 -0.26818218 0.48168411
vn 0.37353172 -0.66475274 0.64697592
vn 0.64697592 -0.66475274 0.37353172
vn -3.4686671e-16 -0.26818218 0.96336822
vn 0.48168411 -0.26818218 0.83430135
vn -2.7491545e-16 -0.66475274 0.74706345
vn 0.37353172 -0.66475274 0.64697592
vn -0.48168411 -0.26818218 0.83430135
vn -3.4686671e-16 -0.26818218 0.96336822
vn -0.37353172 -0.66475274 0.64697592
vn -2.7491545e-16 -0.66475274 0.74706345
vn -0.83430135 -0.26818218 0.48168411
vn -0.48168411 -0.26818218 0.83430135
vn -0.64697592 -0.66475274 0.37353172
vn -0.37353172 -0.66475274 0.64697592
vn -0.96336822 -0.26818218 0.0000000e+0
vn -0.83430135 -0.26818218 0.48168411
vn -0.74706345 -0.66475274 0.0000000e+0
vn -0.64697592 -0.66475274 0.37353172
vn -0.83430135 -0.26818218 -0.48168411
vn -0.96336822 -0.26818218 0.0000000e+0
vn -0.64697592 -0.66475274 -0.37353172
vn -0.74706345 -0.66475274 0.0000000e+0
vn -0.48168411 -0.26818218 -0.83430135
vn -0.83430135 -0.26818218 -0.48168411
vn -0.37353172 -0.66475274 -0.64697592
vn -0.64697592 -0.66475274 -0.37353172
vn 0.0000000e+0 -0.26818218 -0.96336822
vn -0.48168411 -0.26818218 -0.83430135
vn 0.0000000e+0 -0.66475274 -0.74706345
vn -0.37353172 -0.66475274 -0.64697592
vn 0.48168411 -0.26818218 -0.83430135
vn 0.0000000e+0 -0.26818218 -0.96336822
vn 0.37353172 -0.66475274 -0.64697592
vn 0.0000000e+0 -0.66475274 -0.74706345
vn 0.83430135 -0.26818218 -0.48168411
vn 0.48168411 -0.26818218 -0.83430135
vn 0.64697592 -0.66475274 -0.37353172
vn 0.37353172 -0.66475274 -0.64697592
vn 0.86330242 7.9237451e-2 -0.49842789
vn 0.49842789 7.9237451e-2 -0.86330242
vn 0.77883240 0.43729486 -0.44965909
vn 0.44965909 0.43729486 -0.77883240
vn 0.49842789 7.9237451e-2 -0.86330242
vn 0.0000000e+0 7.9237451e-2 -0.99685577
vn 0.44965909 0.43729486 -0.77883240
vn 0.0000000e+0 0.43729486 -0.89931819
vn 0.0000000e+0 7.9237451e-2 -0.99685577
vn -0.49842789 7.9237451e-2 -0.86330242
vn 0.0000000e+0 0.43729486 -0.89931819
vn -0.44965909 0.43729486 -0.77883240
vn -0.49842789 7.9237451e-2 -0.86330242
vn -0.86330242 7.9237451e-2 -0.49842789
vn -0.44965909 0.43729486 -0.77883240
vn -0.77883240 0.43729486 -0.44965909
vn -0.86330242 7.9237451e-2 -0.49842789
vn -0.99685577 7.9237451e-2 0.0000000e+0
vn -0.77883240 0.43729486 -0.44965909
vn -0.89931819 0.43729486 0.0000000e+0
vn -0.99685577 7.9237451e-2 0.0000000e+0
vn -0.86330242 7.9237451e-2 0.49842789
vn -0.89931819 0.43729486 0.0000000e+0
vn -0.77883240 0.43729486 0.44965909
vn -0.86330242 7.9237451e-2 0.49842789
vn -0.49842789 7.9237451e-2 0.86330242
vn -0.77883240 0.43729486 0.44965909
vn -0.44965909 0.43729486 0.77883240
vn -0.49842789 7.9237451e-2 0.86330242
vn -3.3420226e-16 7.9237451e-2 0.99685577
vn -0.44965909 0.43729486 0.77883240
vn -3.6051874e-16 0.43729486 0.89931819
vn -3.3420226e-16 7.9237451e-2 0.99685577
vn 0.49842789 7.9237451e-2 0.86330242
vn -3.6051874e-16 0.43729486 0.89931819
vn 0.44965909 0.43729486 0.77883240
vn 0.49842789 7.9237451e-2 0.86330242
vn 0.86330242 7.9237451e-2 0.49842789
vn 0.44965909 0.43729486 0.77883240
vn 0.77883240 0.43729486 0.44965909
vn 0.86330242 7.9237451e-2 0.49842789
vn 0.99685577 7.9237451e-2 0.0000000e+0
vn 0.77883240 0.43729486 0.44965909
vn 0.89931819 0.43729486 0.0000000e+0
vn 0.86330242 7.9237451e-2 -0.49842789
vn 0.99685577 7.9237451e-2 0.0000000e+0
vn 0.77883240 0.43729486 -0.44965909
vn 0.89931819 0.43729486 0.0000000e+0
g collider_default
usemtl default
s 1
f 1//1 12//34 11//31 10//28 9//25 8//22 7//19 6//16 5//13 4//10 3//7 2//4
f 13//39 37//124 38//128 14//42
f 15//44 39//131 40//136 16//48
f 17//50 41//139 42//144 18//54
f 20//59 44//151 45//156 21//63
f 23//68 47//163 48//168 24//72
f 25//73 49//169 60//213 36//117
f 28//85 52//181 51//178 27//82
f 32//101 56//197 55//194 31//98
f 35//113 59//209 58//206 34//110
f 41//138 40//133 33//107 32//104
f 44//150 43//145 30//95 29//92
f 47//162 46//157 27//83 26//80
s 2
f 1//2 60//215 49//171 12//35
f 3//9 58//208 59//211 2//5
f 5//15 56//200 57//203 4//11
f 8//24 53//188 54//191 7//20
f 10//30 51//180 52//183 9//26
f 14//41 38//127 39//132 15//45
f 16//47 40//135 41//140 17//51
f 19//56 43//147 44//152 20//60
f 22//65 46//159 47//164 23//69
f 25//75 36//119 37//121 48//165
f 27//81 51//177 50//174 26//78
f 29//89 53//185 52//182 28//86
f 36//118 60//214 59//210 35//114
f 40//134 39//129 34//111 33//108
f 43//146 42//141 31//99 30//96
f 46//158 45//153 28//87 27//84
s 3
f 2//6 59//212 60//216 1//3
f 4//12 57//204 58//207 3//8
f 7//21 54//192 55//195 6//17
f 9//27 52//184 53//187 8//23
f 11//33 50//176 51//179 10//29
f 18//53 42//143 43//148 19//57
f 21//62 45//155 46//160 22//66
f 24//71 48//167 37//123 13//38
f 26//77 50//173 49//170 25//74
f 30//93 54//189 53//186 29//90
f 33//105 57//201 56//198 32//102
f 39//130 38//125 35//115 34//112
f 42//142 41//137 32//103 31//100
f 45//154 44//149 29//91 28//88
s 4
f 6//18 55//196 56//199 5//14
f 12//36 49//172 50//175 11//32
f 14//40 15//43 16//46 17//49 18//52 19//55 20//58 21//61 22//64 23//67 24//70 13//37
f 31//97 55//193 54//190 30//94
f 34//109 58//205 57//202 33//106
f 38//126 37//122 36//120 35//116
f 48//166 47//161 26//79 25//76
