# Exported from Wings 3D 1.5.4
mtllib Acamar_Lab_1_Collider.mtl
o Acamar_Lab_1_Collider
#48 vertices, 34 faces
v 1.25000000 0.98750000 -0.24864046
v 1.25000000 0.98750000 0.24864046
v 1.05969883 0.98750000 0.70806812
v 0.70806812 0.98750000 1.05969883
v 0.24864046 0.98750000 1.25000000
v -0.24864046 0.98750000 1.25000000
v -0.70806812 0.98750000 1.05969883
v -1.05969883 0.98750000 0.70806812
v -1.25000000 0.98750000 0.24864046
v -1.25000000 0.98750000 -0.24864046
v -1.05969883 0.98750000 -0.70806812
v -0.70806812 0.98750000 -1.05969883
v -0.24864046 0.98750000 -1.25000000
v 0.24864046 0.98750000 -1.25000000
v 0.70806812 0.98750000 -1.05969883
v 1.05969883 0.98750000 -0.70806812
v 1.25000000 -0.28750000 -0.24864046
v 1.25000000 -0.28750000 0.24864046
v 1.05969883 -0.28750000 0.70806812
v 0.70806812 -0.28750000 1.05969883
v 0.24864046 -0.28750000 1.25000000
v -0.24864046 -0.28750000 1.25000000
v -0.70806812 -0.28750000 1.05969883
v -1.05969883 -0.28750000 0.70806812
v -1.25000000 -0.28750000 0.24864046
v -1.25000000 -0.28750000 -0.24864046
v -1.05969883 -0.28750000 -0.70806812
v -0.70806812 -0.28750000 -1.05969883
v -0.24864046 -0.28750000 -1.25000000
v 0.24864046 -0.28750000 -1.25000000
v 0.70806812 -0.28750000 -1.05969883
v 1.05969883 -0.28750000 -0.70806812
v 0.46875000 -0.98750000 -9.3240172e-2
v 0.46875000 -0.98750000 9.3240172e-2
v 0.39738706 -0.98750000 0.26552555
v 0.26552555 -0.98750000 0.39738706
v 9.3240172e-2 -0.98750000 0.46875000
v -9.3240172e-2 -0.98750000 0.46875000
v -0.26552555 -0.98750000 0.39738706
v -0.39738706 -0.98750000 0.26552555
v -0.46875000 -0.98750000 9.3240172e-2
v -0.46875000 -0.98750000 -9.3240172e-2
v -0.39738706 -0.98750000 -0.26552555
v -0.26552555 -0.98750000 -0.39738706
v -9.3240172e-2 -0.98750000 -0.46875000
v 9.3240172e-2 -0.98750000 -0.46875000
v 0.26552555 -0.98750000 -0.39738706
v 0.39738706 -0.98750000 -0.26552555
vn 0.0000000e+0 1.00000000 1.6744404e-17
vn 0.92387953 0.0000000e+0 -0.38268343
vn 1.00000000 0.0000000e+0 0.0000000e+0
vn 0.0000000e+0 1.00000000 1.6744404e-17
vn 0.92387953 0.0000000e+0 0.38268343
vn 1.00000000 0.0000000e+0 0.0000000e+0
vn 0.0000000e+0 1.00000000 1.6744404e-17
vn 0.70710678 0.0000000e+0 0.70710678
vn 0.92387953 0.0000000e+0 0.38268343
vn 0.0000000e+0 1.00000000 1.6744404e-17
vn 0.38268343 0.0000000e+0 0.92387953
vn 0.70710678 0.0000000e+0 0.70710678
vn 0.0000000e+0 1.00000000 1.6744404e-17
vn 0.0000000e+0 0.0000000e+0 1.00000000
vn 0.38268343 0.0000000e+0 0.92387953
vn 0.0000000e+0 1.00000000 1.6744404e-17
vn -0.38268343 0.0000000e+0 0.92387953
vn 0.0000000e+0 0.0000000e+0 1.00000000
vn 0.0000000e+0 1.00000000 1.6744404e-17
vn -0.70710678 0.0000000e+0 0.70710678
vn -0.38268343 0.0000000e+0 0.92387953
vn 0.0000000e+0 1.00000000 1.6744404e-17
vn -0.92387953 0.0000000e+0 0.38268343
vn -0.70710678 0.0000000e+0 0.70710678
vn 0.0000000e+0 1.00000000 1.6744404e-17
vn -1.00000000 0.0000000e+0 0.0000000e+0
vn -0.92387953 0.0000000e+0 0.38268343
vn 0.0000000e+0 1.00000000 1.6744404e-17
vn -0.92387953 0.0000000e+0 -0.38268343
vn -1.00000000 0.0000000e+0 0.0000000e+0
vn 0.0000000e+0 1.00000000 1.6744404e-17
vn -0.70710678 0.0000000e+0 -0.70710678
vn -0.92387953 0.0000000e+0 -0.38268343
vn 0.0000000e+0 1.00000000 1.6744404e-17
vn -0.38268343 0.0000000e+0 -0.92387953
vn -0.70710678 0.0000000e+0 -0.70710678
vn 0.0000000e+0 1.00000000 1.6744404e-17
vn 0.0000000e+0 0.0000000e+0 -1.00000000
vn -0.38268343 0.0000000e+0 -0.92387953
vn 0.0000000e+0 1.00000000 1.6744404e-17
vn 0.38268343 0.0000000e+0 -0.92387953
vn 0.0000000e+0 0.0000000e+0 -1.00000000
vn 0.0000000e+0 1.00000000 1.6744404e-17
vn 0.70710678 0.0000000e+0 -0.70710678
vn 0.38268343 0.0000000e+0 -0.92387953
vn 0.0000000e+0 1.00000000 1.6744404e-17
vn 0.92387953 0.0000000e+0 -0.38268343
vn 0.70710678 0.0000000e+0 -0.70710678
vn 0.92387953 0.0000000e+0 -0.38268343
vn 1.00000000 0.0000000e+0 0.0000000e+0
vn 0.66731718 -0.74477364 0.0000000e+0
vn 0.61652069 -0.74477364 -0.25537123
vn 0.92387953 0.0000000e+0 0.38268343
vn 1.00000000 0.0000000e+0 0.0000000e+0
vn 0.66731718 -0.74477364 0.0000000e+0
vn 0.61652069 -0.74477364 0.25537123
vn 0.70710678 0.0000000e+0 0.70710678
vn 0.92387953 0.0000000e+0 0.38268343
vn 0.61652069 -0.74477364 0.25537123
vn 0.47186451 -0.74477364 0.47186451
vn 0.38268343 0.0000000e+0 0.92387953
vn 0.70710678 0.0000000e+0 0.70710678
vn 0.47186451 -0.74477364 0.47186451
vn 0.25537123 -0.74477364 0.61652069
vn 0.0000000e+0 0.0000000e+0 1.00000000
vn 0.38268343 0.0000000e+0 0.92387953
vn 0.25537123 -0.74477364 0.61652069
vn 0.0000000e+0 -0.74477364 0.66731718
vn -0.38268343 0.0000000e+0 0.92387953
vn 0.0000000e+0 0.0000000e+0 1.00000000
vn 0.0000000e+0 -0.74477364 0.66731718
vn -0.25537123 -0.74477364 0.61652069
vn -0.70710678 0.0000000e+0 0.70710678
vn -0.38268343 0.0000000e+0 0.92387953
vn -0.25537123 -0.74477364 0.61652069
vn -0.47186451 -0.74477364 0.47186451
vn -0.92387953 0.0000000e+0 0.38268343
vn -0.70710678 0.0000000e+0 0.70710678
vn -0.47186451 -0.74477364 0.47186451
vn -0.61652069 -0.74477364 0.25537123
vn -1.00000000 0.0000000e+0 0.0000000e+0
vn -0.92387953 0.0000000e+0 0.38268343
vn -0.61652069 -0.74477364 0.25537123
vn -0.66731718 -0.74477364 0.0000000e+0
vn -0.92387953 0.0000000e+0 -0.38268343
vn -1.00000000 0.0000000e+0 0.0000000e+0
vn -0.66731718 -0.74477364 0.0000000e+0
vn -0.61652069 -0.74477364 -0.25537123
vn -0.70710678 0.0000000e+0 -0.70710678
vn -0.92387953 0.0000000e+0 -0.38268343
vn -0.61652069 -0.74477364 -0.25537123
vn -0.47186451 -0.74477364 -0.47186451
vn -0.38268343 0.0000000e+0 -0.92387953
vn -0.70710678 0.0000000e+0 -0.70710678
vn -0.47186451 -0.74477364 -0.47186451
vn -0.25537123 -0.74477364 -0.61652069
vn 0.0000000e+0 0.0000000e+0 -1.00000000
vn -0.38268343 0.0000000e+0 -0.92387953
vn -0.25537123 -0.74477364 -0.61652069
vn 0.0000000e+0 -0.74477364 -0.66731718
vn 0.38268343 0.0000000e+0 -0.92387953
vn 0.0000000e+0 0.0000000e+0 -1.00000000
vn 0.0000000e+0 -0.74477364 -0.66731718
vn 0.25537123 -0.74477364 -0.61652069
vn 0.70710678 0.0000000e+0 -0.70710678
vn 0.38268343 0.0000000e+0 -0.92387953
vn 0.25537123 -0.74477364 -0.61652069
vn 0.47186451 -0.74477364 -0.47186451
vn 0.92387953 0.0000000e+0 -0.38268343
vn 0.70710678 0.0000000e+0 -0.70710678
vn 0.47186451 -0.74477364 -0.47186451
vn 0.61652069 -0.74477364 -0.25537123
vn 0.0000000e+0 -1.00000000 -5.9535659e-17
vn 0.66731718 -0.74477364 0.0000000e+0
vn 0.61652069 -0.74477364 -0.25537123
vn 0.0000000e+0 -1.00000000 -5.9535659e-17
vn 0.66731718 -0.74477364 0.0000000e+0
vn 0.61652069 -0.74477364 0.25537123
vn 0.0000000e+0 -1.00000000 -5.9535659e-17
vn 0.61652069 -0.74477364 0.25537123
vn 0.47186451 -0.74477364 0.47186451
vn 0.0000000e+0 -1.00000000 -5.9535659e-17
vn 0.47186451 -0.74477364 0.47186451
vn 0.25537123 -0.74477364 0.61652069
vn 0.0000000e+0 -1.00000000 -5.9535659e-17
vn 0.25537123 -0.74477364 0.61652069
vn 0.0000000e+0 -0.74477364 0.66731718
vn 0.0000000e+0 -1.00000000 -5.9535659e-17
vn 0.0000000e+0 -0.74477364 0.66731718
vn -0.25537123 -0.74477364 0.61652069
vn 0.0000000e+0 -1.00000000 -5.9535659e-17
vn -0.25537123 -0.74477364 0.61652069
vn -0.47186451 -0.74477364 0.47186451
vn 0.0000000e+0 -1.00000000 -5.9535659e-17
vn -0.47186451 -0.74477364 0.47186451
vn -0.61652069 -0.74477364 0.25537123
vn 0.0000000e+0 -1.00000000 -5.9535659e-17
vn -0.61652069 -0.74477364 0.25537123
vn -0.66731718 -0.74477364 0.0000000e+0
vn 0.0000000e+0 -1.00000000 -5.9535659e-17
vn -0.66731718 -0.74477364 0.0000000e+0
vn -0.61652069 -0.74477364 -0.25537123
vn 0.0000000e+0 -1.00000000 -5.9535659e-17
vn -0.61652069 -0.74477364 -0.25537123
vn -0.47186451 -0.74477364 -0.47186451
vn 0.0000000e+0 -1.00000000 -5.9535659e-17
vn -0.47186451 -0.74477364 -0.47186451
vn -0.25537123 -0.74477364 -0.61652069
vn 0.0000000e+0 -1.00000000 -5.9535659e-17
vn -0.25537123 -0.74477364 -0.61652069
vn 0.0000000e+0 -0.74477364 -0.66731718
vn 0.0000000e+0 -1.00000000 -5.9535659e-17
vn 0.0000000e+0 -0.74477364 -0.66731718
vn 0.25537123 -0.74477364 -0.61652069
vn 0.0000000e+0 -1.00000000 -5.9535659e-17
vn 0.25537123 -0.74477364 -0.61652069
vn 0.47186451 -0.74477364 -0.47186451
vn 0.0000000e+0 -1.00000000 -5.9535659e-17
vn 0.47186451 -0.74477364 -0.47186451
vn 0.61652069 -0.74477364 -0.25537123
g Acamar_Lab_1_Collider_default
usemtl default
s 1
f 1//2 17//49 32//109 16//47
f 3//9 19//58 18//53 2//5
f 5//15 21//66 20//61 4//11
f 7//21 23//74 22//69 6//17
f 9//27 25//82 24//77 8//23
f 13//39 29//98 28//93 12//35
f 15//45 31//106 30//101 14//41
f 18//55 34//117 33//114 17//51
f 20//63 36//123 35//121 19//60
f 22//71 38//129 37//127 21//68
f 24//79 40//135 39//133 23//76
f 27//91 43//144 42//142 26//88
f 30//103 46//153 45//151 29//100
f 32//111 48//159 47//157 31//108
s 2
f 2//6 18//54 17//50 1//3
f 4//12 20//62 19//57 3//8
f 6//18 22//70 21//65 5//14
f 8//24 24//78 23//73 7//20
f 10//30 26//86 25//81 9//26
f 12//36 28//94 27//89 11//32
f 14//42 30//102 29//97 13//38
f 16//48 32//110 31//105 15//44
f 17//52 33//115 48//160 32//112
f 19//59 35//120 34//118 18//56
f 21//67 37//126 36//124 20//64
f 23//75 39//132 38//130 22//72
f 25//83 41//138 40//136 24//80
f 29//99 45//150 44//148 28//96
f 31//107 47//156 46//154 30//104
s 3
f 1//1 16//46 15//43 14//40 13//37 12//34 11//31 10//28 9//25 8//22 7//19 6//16 5//13 4//10 3//7 2//4
f 26//87 42//141 41//139 25//84
f 28//95 44//147 43//145 27//92
s 4
f 11//33 27//90 26//85 10//29
f 34//116 35//119 36//122 37//125 38//128 39//131 40//134 41//137 42//140 43//143 44//146 45//149 46//152 47//155 48//158 33//113
