# Exported from Wings 3D 1.5.4
mtllib coll3.mtl
o coll
#8 vertices, 6 faces
v -0.17500000 0.14250000 -0.39625000
v -0.17500000 0.19250000 -0.38375000
v -0.12687500 0.31250000 -0.61000000
v -0.12687500 0.31250000 -0.59750000
v 0.17500000 0.14250000 -0.39625000
v 0.17500000 0.19250000 -0.38375000
v 0.12687500 0.31250000 -0.61000000
v 0.12687500 0.31250000 -0.59750000
vn 0.0000000e+0 -0.24253563 0.97014250
vn 0.0000000e+0 -0.78265173 -0.62245985
vn -0.98278906 8.2614364e-2 -0.16522873
vn 0.0000000e+0 -0.24253563 0.97014250
vn 0.0000000e+0 0.87198379 0.48953476
vn -0.98278906 8.2614364e-2 -0.16522873
vn 0.0000000e+0 1.00000000 1.3322676e-14
vn 0.0000000e+0 -0.78265173 -0.62245985
vn -0.98278906 8.2614364e-2 -0.16522873
vn 0.0000000e+0 1.00000000 1.3322676e-14
vn 0.0000000e+0 0.87198379 0.48953476
vn -0.98278906 8.2614364e-2 -0.16522873
vn 0.0000000e+0 -0.24253563 0.97014250
vn 0.0000000e+0 -0.78265173 -0.62245985
vn 0.98278906 8.2614364e-2 -0.16522873
vn 0.0000000e+0 -0.24253563 0.97014250
vn 0.0000000e+0 0.87198379 0.48953476
vn 0.98278906 8.2614364e-2 -0.16522873
vn 0.0000000e+0 1.00000000 1.3322676e-14
vn 0.0000000e+0 -0.78265173 -0.62245985
vn 0.98278906 8.2614364e-2 -0.16522873
vn 0.0000000e+0 1.00000000 1.3322676e-14
vn 0.0000000e+0 0.87198379 0.48953476
vn 0.98278906 8.2614364e-2 -0.16522873
g coll_default
usemtl default
s 1
f 2//6 4//12 3//9 1//3
f 5//15 7//21 8//24 6//18
s 2
f 2//5 6//17 8//23 4//11
f 3//8 7//20 5//14 1//2
s 3
f 1//1 5//13 6//16 2//4
f 4//10 8//22 7//19 3//7
