# Exported from Wings 3D 1.5.4
mtllib octans_androgynous_docking_port_s0p5_1_collider.mtl
o coll
#8 vertices, 6 faces
v -0.18125000 0.16250000 -0.32750000
v -0.18125000 0.16250000 -0.31250000
v -0.12687500 0.31250000 -0.61000000
v -0.12687500 0.31250000 -0.59750000
v 0.18125000 0.16250000 -0.32750000
v 0.18125000 0.16250000 -0.31250000
v 0.12687500 0.31250000 -0.61000000
v 0.12687500 0.31250000 -0.59750000
vn 0.0000000e+0 -1.00000000 0.0000000e+0
vn 0.0000000e+0 -0.88321690 -0.46896472
vn -0.94013607 0.34079932 3.9536390e-15
vn 0.0000000e+0 -1.00000000 0.0000000e+0
vn 0.0000000e+0 0.88491822 0.46574643
vn -0.94013607 0.34079932 3.9536390e-15
vn 0.0000000e+0 1.00000000 1.3322676e-14
vn 0.0000000e+0 -0.88321690 -0.46896472
vn -0.94013607 0.34079932 3.9536390e-15
vn 0.0000000e+0 1.00000000 1.3322676e-14
vn 0.0000000e+0 0.88491822 0.46574643
vn -0.94013607 0.34079932 3.9536390e-15
vn 0.0000000e+0 -1.00000000 0.0000000e+0
vn 0.0000000e+0 -0.88321690 -0.46896472
vn 0.94013607 0.34079932 3.9536390e-16
vn 0.0000000e+0 -1.00000000 0.0000000e+0
vn 0.0000000e+0 0.88491822 0.46574643
vn 0.94013607 0.34079932 3.9536390e-16
vn 0.0000000e+0 1.00000000 1.3322676e-14
vn 0.0000000e+0 -0.88321690 -0.46896472
vn 0.94013607 0.34079932 3.9536390e-16
vn 0.0000000e+0 1.00000000 1.3322676e-14
vn 0.0000000e+0 0.88491822 0.46574643
vn 0.94013607 0.34079932 3.9536390e-16
g coll_default
usemtl default
s 1
f 2//6 4//12 3//9 1//3
f 5//15 7//21 8//24 6//18
s 2
f 2//5 6//17 8//23 4//11
f 3//8 7//20 5//14 1//2
s 3
f 1//1 5//13 6//16 2//4
f 4//10 8//22 7//19 3//7
o coll
#24 vertices, 14 faces
v 0.37500000 0.12500000 -0.10048095
v 0.37500000 0.12500000 0.10048095
v 0.27451905 0.12500000 0.27451905
v 0.10048095 0.12500000 0.37500000
v -0.10048095 0.12500000 0.37500000
v -0.27451905 0.12500000 0.27451905
v -0.37500000 0.12500000 0.10048095
v -0.37500000 0.12500000 -0.10048095
v -0.27451905 0.12500000 -0.27451905
v -0.10048095 0.12500000 -0.37500000
v 0.10048095 0.12500000 -0.37500000
v 0.27451905 0.12500000 -0.27451905
v 0.37500000 0.16250000 0.10048095
v 0.37500000 0.16250000 -0.10048095
v 0.27451905 0.16250000 -0.27451905
v 0.10048095 0.16250000 -0.37500000
v -0.10048095 0.16250000 -0.37500000
v -0.27451905 0.16250000 -0.27451905
v -0.37500000 0.16250000 -0.10048095
v -0.37500000 0.16250000 0.10048095
v -0.27451905 0.16250000 0.27451905
v -0.10048095 0.16250000 0.37500000
v 0.10048095 0.16250000 0.37500000
v 0.27451905 0.16250000 0.27451905
vn 0.0000000e+0 -1.00000000 0.0000000e+0
vn 1.00000000 0.0000000e+0 0.0000000e+0
vn 0.86602540 0.0000000e+0 -0.50000000
vn 0.0000000e+0 -1.00000000 0.0000000e+0
vn 1.00000000 0.0000000e+0 0.0000000e+0
vn 0.86602540 0.0000000e+0 0.50000000
vn 0.0000000e+0 -1.00000000 0.0000000e+0
vn 0.50000000 0.0000000e+0 0.86602540
vn 0.86602540 0.0000000e+0 0.50000000
vn 0.0000000e+0 -1.00000000 0.0000000e+0
vn -2.7622725e-16 0.0000000e+0 1.00000000
vn 0.50000000 0.0000000e+0 0.86602540
vn 0.0000000e+0 -1.00000000 0.0000000e+0
vn -0.50000000 0.0000000e+0 0.86602540
vn -2.7622725e-16 0.0000000e+0 1.00000000
vn 0.0000000e+0 -1.00000000 0.0000000e+0
vn -0.86602540 0.0000000e+0 0.50000000
vn -0.50000000 0.0000000e+0 0.86602540
vn 0.0000000e+0 -1.00000000 0.0000000e+0
vn -1.00000000 0.0000000e+0 0.0000000e+0
vn -0.86602540 0.0000000e+0 0.50000000
vn 0.0000000e+0 -1.00000000 0.0000000e+0
vn -0.86602540 0.0000000e+0 -0.50000000
vn -1.00000000 0.0000000e+0 0.0000000e+0
vn 0.0000000e+0 -1.00000000 0.0000000e+0
vn -0.50000000 0.0000000e+0 -0.86602540
vn -0.86602540 0.0000000e+0 -0.50000000
vn 0.0000000e+0 -1.00000000 0.0000000e+0
vn 0.0000000e+0 0.0000000e+0 -1.00000000
vn -0.50000000 0.0000000e+0 -0.86602540
vn 0.0000000e+0 -1.00000000 0.0000000e+0
vn 0.50000000 0.0000000e+0 -0.86602540
vn 0.0000000e+0 0.0000000e+0 -1.00000000
vn 0.0000000e+0 -1.00000000 0.0000000e+0
vn 0.86602540 0.0000000e+0 -0.50000000
vn 0.50000000 0.0000000e+0 -0.86602540
vn 0.0000000e+0 1.00000000 0.0000000e+0
vn 1.00000000 0.0000000e+0 0.0000000e+0
vn 0.86602540 0.0000000e+0 0.50000000
vn 0.0000000e+0 1.00000000 0.0000000e+0
vn 1.00000000 0.0000000e+0 0.0000000e+0
vn 0.86602540 0.0000000e+0 -0.50000000
vn 0.0000000e+0 1.00000000 0.0000000e+0
vn 0.86602540 0.0000000e+0 -0.50000000
vn 0.50000000 0.0000000e+0 -0.86602540
vn 0.0000000e+0 1.00000000 0.0000000e+0
vn 0.50000000 0.0000000e+0 -0.86602540
vn 0.0000000e+0 0.0000000e+0 -1.00000000
vn 0.0000000e+0 1.00000000 0.0000000e+0
vn 0.0000000e+0 0.0000000e+0 -1.00000000
vn -0.50000000 0.0000000e+0 -0.86602540
vn 0.0000000e+0 1.00000000 0.0000000e+0
vn -0.50000000 0.0000000e+0 -0.86602540
vn -0.86602540 0.0000000e+0 -0.50000000
vn 0.0000000e+0 1.00000000 0.0000000e+0
vn -0.86602540 0.0000000e+0 -0.50000000
vn -1.00000000 0.0000000e+0 0.0000000e+0
vn 0.0000000e+0 1.00000000 0.0000000e+0
vn -1.00000000 0.0000000e+0 0.0000000e+0
vn -0.86602540 0.0000000e+0 0.50000000
vn 0.0000000e+0 1.00000000 0.0000000e+0
vn -0.86602540 0.0000000e+0 0.50000000
vn -0.50000000 0.0000000e+0 0.86602540
vn 0.0000000e+0 1.00000000 0.0000000e+0
vn -0.50000000 0.0000000e+0 0.86602540
vn -2.7622725e-16 0.0000000e+0 1.00000000
vn 0.0000000e+0 1.00000000 0.0000000e+0
vn -2.7622725e-16 0.0000000e+0 1.00000000
vn 0.50000000 0.0000000e+0 0.86602540
vn 0.0000000e+0 1.00000000 0.0000000e+0
vn 0.50000000 0.0000000e+0 0.86602540
vn 0.86602540 0.0000000e+0 0.50000000
g coll_default
usemtl default
s 1
f 9//26 22//65 21//62 10//29
f 11//32 32//95 31//93 12//36
f 13//38 30//89 29//87 14//42
f 16//47 27//80 26//78 17//51
f 18//53 25//74 24//72 19//57
s 2
f 10//30 21//63 32//96 11//33
f 12//35 31//92 30//90 13//39
f 14//41 29//86 28//84 15//45
f 17//50 26//77 25//75 18//54
f 19//56 24//71 23//69 20//60
s 3
f 10//28 11//31 12//34 13//37 14//40 15//43 16//46 17//49 18//52 19//55 20//58 9//25
f 22//64 23//67 24//70 25//73 26//76 27//79 28//82 29//85 30//88 31//91 32//94 21//61
s 4
f 15//44 28//83 27//81 16//48
f 20//59 23//68 22//66 9//27
o coll
#24 vertices, 14 faces
v 0.37500000 0.12500000 -0.10048095
v 0.37500000 0.12500000 0.10048095
v 0.27451905 0.12500000 0.27451905
v 0.10048095 0.12500000 0.37500000
v -0.10048095 0.12500000 0.37500000
v -0.27451905 0.12500000 0.27451905
v -0.37500000 0.12500000 0.10048095
v -0.37500000 0.12500000 -0.10048095
v -0.27451905 0.12500000 -0.27451905
v -0.10048095 0.12500000 -0.37500000
v 0.10048095 0.12500000 -0.37500000
v 0.27451905 0.12500000 -0.27451905
v 0.37500000 -0.12500000 -0.10048095
v 0.37500000 -0.12500000 0.10048095
v 0.27451905 -0.12500000 0.27451905
v 0.10048095 -0.12500000 0.37500000
v -0.10048095 -0.12500000 0.37500000
v -0.27451905 -0.12500000 0.27451905
v -0.37500000 -0.12500000 0.10048095
v -0.37500000 -0.12500000 -0.10048095
v -0.27451905 -0.12500000 -0.27451905
v -0.10048095 -0.12500000 -0.37500000
v 0.10048095 -0.12500000 -0.37500000
v 0.27451905 -0.12500000 -0.27451905
vn 0.0000000e+0 1.00000000 -1.5345958e-17
vn 0.86602540 0.0000000e+0 -0.50000000
vn 1.00000000 0.0000000e+0 0.0000000e+0
vn 0.0000000e+0 1.00000000 -1.5345958e-17
vn 0.86602540 0.0000000e+0 0.50000000
vn 1.00000000 0.0000000e+0 0.0000000e+0
vn 0.0000000e+0 1.00000000 -1.5345958e-17
vn 0.50000000 0.0000000e+0 0.86602540
vn 0.86602540 0.0000000e+0 0.50000000
vn 0.0000000e+0 1.00000000 -1.5345958e-17
vn -2.7622725e-16 0.0000000e+0 1.00000000
vn 0.50000000 0.0000000e+0 0.86602540
vn 0.0000000e+0 1.00000000 -1.5345958e-17
vn -0.50000000 0.0000000e+0 0.86602540
vn -2.7622725e-16 0.0000000e+0 1.00000000
vn 0.0000000e+0 1.00000000 -1.5345958e-17
vn -0.86602540 0.0000000e+0 0.50000000
vn -0.50000000 0.0000000e+0 0.86602540
vn 0.0000000e+0 1.00000000 -1.5345958e-17
vn -1.00000000 0.0000000e+0 0.0000000e+0
vn -0.86602540 0.0000000e+0 0.50000000
vn 0.0000000e+0 1.00000000 -1.5345958e-17
vn -0.86602540 0.0000000e+0 -0.50000000
vn -1.00000000 0.0000000e+0 0.0000000e+0
vn 0.0000000e+0 1.00000000 -1.5345958e-17
vn -0.50000000 0.0000000e+0 -0.86602540
vn -0.86602540 0.0000000e+0 -0.50000000
vn 0.0000000e+0 1.00000000 -1.5345958e-17
vn 0.0000000e+0 0.0000000e+0 -1.00000000
vn -0.50000000 0.0000000e+0 -0.86602540
vn 0.0000000e+0 1.00000000 -1.5345958e-17
vn 0.50000000 0.0000000e+0 -0.86602540
vn 0.0000000e+0 0.0000000e+0 -1.00000000
vn 0.0000000e+0 1.00000000 -1.5345958e-17
vn 0.86602540 0.0000000e+0 -0.50000000
vn 0.50000000 0.0000000e+0 -0.86602540
vn 0.0000000e+0 -1.00000000 0.0000000e+0
vn 0.86602540 0.0000000e+0 -0.50000000
vn 1.00000000 0.0000000e+0 0.0000000e+0
vn 0.0000000e+0 -1.00000000 0.0000000e+0
vn 0.86602540 0.0000000e+0 0.50000000
vn 1.00000000 0.0000000e+0 0.0000000e+0
vn 0.0000000e+0 -1.00000000 0.0000000e+0
vn 0.50000000 0.0000000e+0 0.86602540
vn 0.86602540 0.0000000e+0 0.50000000
vn 0.0000000e+0 -1.00000000 0.0000000e+0
vn -2.7622725e-16 0.0000000e+0 1.00000000
vn 0.50000000 0.0000000e+0 0.86602540
vn 0.0000000e+0 -1.00000000 0.0000000e+0
vn -0.50000000 0.0000000e+0 0.86602540
vn -2.7622725e-16 0.0000000e+0 1.00000000
vn 0.0000000e+0 -1.00000000 0.0000000e+0
vn -0.86602540 0.0000000e+0 0.50000000
vn -0.50000000 0.0000000e+0 0.86602540
vn 0.0000000e+0 -1.00000000 0.0000000e+0
vn -1.00000000 0.0000000e+0 0.0000000e+0
vn -0.86602540 0.0000000e+0 0.50000000
vn 0.0000000e+0 -1.00000000 0.0000000e+0
vn -0.86602540 0.0000000e+0 -0.50000000
vn -1.00000000 0.0000000e+0 0.0000000e+0
vn 0.0000000e+0 -1.00000000 0.0000000e+0
vn -0.50000000 0.0000000e+0 -0.86602540
vn -0.86602540 0.0000000e+0 -0.50000000
vn 0.0000000e+0 -1.00000000 0.0000000e+0
vn 0.0000000e+0 0.0000000e+0 -1.00000000
vn -0.50000000 0.0000000e+0 -0.86602540
vn 0.0000000e+0 -1.00000000 0.0000000e+0
vn 0.50000000 0.0000000e+0 -0.86602540
vn 0.0000000e+0 0.0000000e+0 -1.00000000
vn 0.0000000e+0 -1.00000000 0.0000000e+0
vn 0.86602540 0.0000000e+0 -0.50000000
vn 0.50000000 0.0000000e+0 -0.86602540
g coll_default
usemtl default
s 1
f 33//98 45//134 56//167 44//131
f 35//105 47//141 46//137 34//101
f 37//111 49//147 48//143 36//107
f 40//120 52//156 51//152 39//116
f 42//126 54//162 53//158 41//122
s 2
f 34//102 46//138 45//135 33//99
f 36//108 48//144 47//140 35//104
f 38//114 50//150 49//146 37//110
f 41//123 53//159 52//155 40//119
f 43//129 55//165 54//161 42//125
s 3
f 33//97 44//130 43//127 42//124 41//121 40//118 39//115 38//112 37//109 36//106 35//103 34//100
f 46//136 47//139 48//142 49//145 50//148 51//151 52//154 53//157 54//160 55//163 56//166 45//133
s 4
f 39//117 51//153 50//149 38//113
f 44//132 56//168 55//164 43//128
