# Exported from Wings 3D 1.5.4
mtllib octans_androgynous_docking_port_s0p5_1_piston_lower.mtl
o piston
#16 vertices, 10 faces
v 1.2500000e-2 1.7218911e-17 0.12500000
v 8.8388348e-3 -8.8388348e-3 0.12500000
v -5.4051858e-17 -1.2500000e-2 0.12500000
v -8.8388348e-3 -8.8388348e-3 0.12500000
v -1.2500000e-2 1.5688103e-17 0.12500000
v -8.8388348e-3 8.8388348e-3 0.12500000
v -5.7113475e-17 1.2500000e-2 0.12500000
v 8.8388348e-3 8.8388348e-3 0.12500000
v 1.2500000e-2 1.5688103e-17 0.0000000e+0
v 8.8388348e-3 -8.8388348e-3 0.0000000e+0
v -5.4051858e-17 -1.2500000e-2 6.9388939e-18
v -8.8388348e-3 -8.8388348e-3 0.0000000e+0
v -1.2500000e-2 1.4157294e-17 0.0000000e+0
v -8.8388348e-3 8.8388348e-3 0.0000000e+0
v -5.7113475e-17 1.2500000e-2 0.0000000e+0
v 8.8388348e-3 8.8388348e-3 0.0000000e+0
vn 0.0000000e+0 0.0000000e+0 1.00000000
vn 1.00000000 1.2016967e-16 1.5332934e-18
vn 1.00000000 1.2016967e-16 1.5332934e-18
vn 0.0000000e+0 0.0000000e+0 1.00000000
vn 0.70710678 -0.70710678 1.5332934e-17
vn 0.70710678 -0.70710678 1.5332934e-17
vn 0.0000000e+0 0.0000000e+0 1.00000000
vn 9.0127256e-17 -1.00000000 1.8399521e-17
vn 9.0127256e-17 -1.00000000 1.8399521e-17
vn 0.0000000e+0 0.0000000e+0 1.00000000
vn -0.70710678 -0.70710678 1.0733054e-17
vn -0.70710678 -0.70710678 1.0733054e-17
vn 0.0000000e+0 0.0000000e+0 1.00000000
vn -1.00000000 -1.8025451e-16 -1.5332934e-18
vn -1.00000000 -1.8025451e-16 -1.5332934e-18
vn 0.0000000e+0 0.0000000e+0 1.00000000
vn -0.70710678 0.70710678 -1.5332934e-17
vn -0.70710678 0.70710678 -1.5332934e-17
vn 0.0000000e+0 0.0000000e+0 1.00000000
vn -1.5021209e-16 1.00000000 -1.8399521e-17
vn -1.5021209e-16 1.00000000 -1.8399521e-17
vn 0.0000000e+0 0.0000000e+0 1.00000000
vn 0.70710678 0.70710678 -1.0733054e-17
vn 0.70710678 0.70710678 -1.0733054e-17
vn 0.0000000e+0 -1.3877788e-16 -1.00000000
vn 1.00000000 1.2016967e-16 1.5332934e-18
vn 1.00000000 1.2016967e-16 1.5332934e-18
vn 0.0000000e+0 -1.3877788e-16 -1.00000000
vn 0.70710678 -0.70710678 1.5332934e-17
vn 0.70710678 -0.70710678 1.5332934e-17
vn 0.0000000e+0 -1.3877788e-16 -1.00000000
vn 9.0127256e-17 -1.00000000 1.8399521e-17
vn 9.0127256e-17 -1.00000000 1.8399521e-17
vn 0.0000000e+0 -1.3877788e-16 -1.00000000
vn -0.70710678 -0.70710678 1.0733054e-17
vn -0.70710678 -0.70710678 1.0733054e-17
vn 0.0000000e+0 -1.3877788e-16 -1.00000000
vn -1.00000000 -1.8025451e-16 -1.5332934e-18
vn -1.00000000 -1.8025451e-16 -1.5332934e-18
vn 0.0000000e+0 -1.3877788e-16 -1.00000000
vn -0.70710678 0.70710678 -1.5332934e-17
vn -0.70710678 0.70710678 -1.5332934e-17
vn 0.0000000e+0 -1.3877788e-16 -1.00000000
vn -1.5021209e-16 1.00000000 -1.8399521e-17
vn -1.5021209e-16 1.00000000 -1.8399521e-17
vn 0.0000000e+0 -1.3877788e-16 -1.00000000
vn 0.70710678 0.70710678 -1.0733054e-17
vn 0.70710678 0.70710678 -1.0733054e-17
g piston_default
usemtl default
s 1
f 1//1 8//22 7//19 6//16 5//13 4//10 3//7 2//4
f 10//28 11//31 12//34 13//37 14//40 15//43 16//46 9//25
s 2
f 1//2 9//26 16//47 8//23
f 2//6 10//30 9//27 1//3
f 3//9 11//33 10//29 2//5
f 4//12 12//36 11//32 3//8
f 5//15 13//39 12//35 4//11
f 6//18 14//42 13//38 5//14
f 7//21 15//45 14//41 6//17
f 8//24 16//48 15//44 7//20
