# Exported from Wings 3D 1.5.4
mtllib Acamar_Solar_1_3.mtl
o Acamar_Solar_1_3
#12 vertices, 10 faces
v -0.62500000 -7.5500000e-2 -0.39500000
v -0.62500000 -5.0000000e-3 5.0000000e-3
v -0.62500000 -6.5500000e-2 -0.39500000
v -0.62500000 5.0000000e-3 5.0000000e-3
v 0.62500000 -7.5500000e-2 -0.39500000
v 0.62500000 -5.0000000e-3 5.0000000e-3
v 0.62500000 -6.5500000e-2 -0.39500000
v 0.62500000 5.0000000e-3 5.0000000e-3
v -0.62500000 -5.0000000e-3 -0.79500000
v -0.62500000 5.0000000e-3 -0.79500000
v 0.62500000 5.0000000e-3 -0.79500000
v 0.62500000 -5.0000000e-3 -0.79500000
vn 0.0000000e+0 -0.98482071 0.17357465
vn -1.00000000 0.0000000e+0 0.0000000e+0
vn -1.00000000 0.0000000e+0 0.0000000e+0
vn 0.0000000e+0 -0.98482071 -0.17357465
vn 0.0000000e+0 -0.98482071 0.17357465
vn 0.0000000e+0 0.0000000e+0 1.00000000
vn -1.00000000 0.0000000e+0 0.0000000e+0
vn 0.0000000e+0 0.98482071 -0.17357465
vn -1.00000000 0.0000000e+0 0.0000000e+0
vn -1.00000000 0.0000000e+0 0.0000000e+0
vn 0.0000000e+0 0.98482071 0.17357465
vn 0.0000000e+0 0.98482071 -0.17357465
vn 0.0000000e+0 0.0000000e+0 1.00000000
vn -1.00000000 0.0000000e+0 0.0000000e+0
vn 0.0000000e+0 -0.98482071 0.17357465
vn 1.00000000 0.0000000e+0 0.0000000e+0
vn 1.00000000 0.0000000e+0 0.0000000e+0
vn 0.0000000e+0 -0.98482071 -0.17357465
vn 0.0000000e+0 -0.98482071 0.17357465
vn 0.0000000e+0 0.0000000e+0 1.00000000
vn 1.00000000 0.0000000e+0 0.0000000e+0
vn 0.0000000e+0 0.98482071 -0.17357465
vn 1.00000000 0.0000000e+0 0.0000000e+0
vn 0.0000000e+0 0.98482071 0.17357465
vn 1.00000000 0.0000000e+0 0.0000000e+0
vn 0.0000000e+0 0.98482071 -0.17357465
vn 0.0000000e+0 0.0000000e+0 1.00000000
vn 1.00000000 0.0000000e+0 0.0000000e+0
vn 0.0000000e+0 0.0000000e+0 -1.00000000
vn -1.00000000 0.0000000e+0 0.0000000e+0
vn 0.0000000e+0 -0.98482071 -0.17357465
vn 0.0000000e+0 0.0000000e+0 -1.00000000
vn -1.00000000 0.0000000e+0 0.0000000e+0
vn 0.0000000e+0 0.98482071 0.17357465
vn 0.0000000e+0 0.0000000e+0 -1.00000000
vn 0.0000000e+0 0.98482071 0.17357465
vn 1.00000000 0.0000000e+0 0.0000000e+0
vn 0.0000000e+0 0.0000000e+0 -1.00000000
vn 1.00000000 0.0000000e+0 0.0000000e+0
vn 0.0000000e+0 -0.98482071 -0.17357465
g Acamar_Solar_1_3_default
usemtl default
s 1
f 1//4 9//31 12//40 5//18
f 2//7 4//14 3//9 1//2
f 5//16 7//23 8//28 6//21
f 7//24 11//36 10//34 3//11
s 2
f 2//6 6//20 8//27 4//13
f 3//10 10//33 9//30 1//3
f 5//17 12//39 11//37 7//25
s 3
f 1//1 5//15 6//19 2//5
f 4//12 8//26 7//22 3//8
f 10//32 11//35 12//38 9//29
