# Exported from Wings 3D 1.5.4
mtllib Ara_Solar_1_2.mtl
o Ara_Solar_1_2
#10 vertices, 7 faces
v 0.87500000 0.0000000e+0 1.1102230e-16
v 0.87500000 0.0000000e+0 -0.75000000
v -0.87500000 0.0000000e+0 -1.1102230e-16
v -0.87500000 0.0000000e+0 -0.75000000
v 0.87500000 -2.5000000e-2 -0.75000000
v 0.87500000 -2.5000000e-2 1.1102230e-16
v -0.87500000 -2.5000000e-2 -1.1102230e-16
v -0.87500000 -2.5000000e-2 -0.75000000
v 1.1102230e-16 -2.5000000e-2 -0.75000000
v 1.9173793e-17 -2.5000000e-2 0.0000000e+0
vt 0.54633958 0.16451221
vt 0.54633958 1.8985164e-2
vt 0.54633958 0.16451221
vt 0.54633958 1.8985164e-2
vt 0.55126342 1.8985164e-2
vt 0.55126342 0.16451221
vt 0.55126342 0.16451221
vt 0.58835747 0.23098390
vt 0.58835747 0.37636923
vt 0.58838413 0.18302782
vt 0.58838413 0.18801971
vt 0.58838413 0.20653420
vt 0.58838413 0.21147280
vt 0.75901823 0.18302782
vt 0.75901823 0.20653420
vt 0.75928595 1.8985164e-2
vt 0.75928595 0.16451221
vt 0.75928735 1.8985164e-2
vt 0.75928735 0.16451221
vt 0.92922267 1.8985164e-2
vt 0.92922267 0.16451221
vt 0.92922267 0.18302782
vt 0.92922267 0.18801971
vt 0.92922267 0.23098390
vt 0.92922267 0.37636923
vt 0.92922267 0.20653420
vt 0.92922267 0.21147280
vt 0.92924021 1.8985164e-2
vt 0.92924021 0.16451221
vn 0.0000000e+0 1.00000000 0.0000000e+0
vn 1.00000000 0.0000000e+0 1.4802974e-16
vn -1.2688263e-16 0.0000000e+0 1.00000000
vn 0.0000000e+0 1.00000000 0.0000000e+0
vn 1.00000000 0.0000000e+0 1.4802974e-16
vn 7.9301645e-17 0.0000000e+0 -1.00000000
vn 0.0000000e+0 1.00000000 0.0000000e+0
vn -1.00000000 0.0000000e+0 -1.4802974e-16
vn -1.2688263e-16 0.0000000e+0 1.00000000
vn 0.0000000e+0 1.00000000 0.0000000e+0
vn -1.00000000 0.0000000e+0 -1.4802974e-16
vn 7.9301645e-17 0.0000000e+0 -1.00000000
vn 1.00000000 0.0000000e+0 1.4802974e-16
vn 0.0000000e+0 -1.00000000 0.0000000e+0
vn 7.9301645e-17 0.0000000e+0 -1.00000000
vn 1.00000000 0.0000000e+0 1.4802974e-16
vn 0.0000000e+0 -1.00000000 0.0000000e+0
vn -1.2688263e-16 0.0000000e+0 1.00000000
vn -1.00000000 0.0000000e+0 -1.4802974e-16
vn 0.0000000e+0 -1.00000000 0.0000000e+0
vn -1.2688263e-16 0.0000000e+0 1.00000000
vn -1.00000000 0.0000000e+0 -1.4802974e-16
vn 0.0000000e+0 -1.00000000 0.0000000e+0
vn 7.9301645e-17 0.0000000e+0 -1.00000000
vn 0.0000000e+0 -1.00000000 0.0000000e+0
vn 0.0000000e+0 -1.00000000 0.0000000e+0
vn 7.9301645e-17 0.0000000e+0 -1.00000000
vn 0.0000000e+0 -1.00000000 0.0000000e+0
vn 0.0000000e+0 -1.00000000 0.0000000e+0
vn -1.2688263e-16 0.0000000e+0 1.00000000
g Ara_Solar_1_2_Ara_Solar_1_2_auv
usemtl Ara_Solar_1_2_auv
s 1
f 2/11/6 5/10/15 9/14/27 8/22/24 4/23/12
f 3/27/9 7/26/21 10/15/30 6/12/18 1/13/3
s 2
f 1/6/2 6/3/16 5/4/13 2/5/5
f 4/7/11 8/1/22 7/2/19 3/5/8
s 3
f 2/8/4 4/24/10 3/25/7 1/9/1
f 6/21/17 10/19/29 9/18/26 5/20/14
f 7/29/20 8/28/23 9/16/25 10/17/28
