# Exported from Wings 3D 1.5.4
mtllib ./hook.mtl
o hook
#90 vertices, 89 faces
v 0.0000000e+0 -0.11250000 -0.17500000
v 8.8388348e-3 -0.10883883 -0.17500000
v 1.2500000e-2 -1.0000000e-1 -0.17500000
v 8.8388348e-3 -9.1161165e-2 -0.17500000
v 0.0000000e+0 -8.7500000e-2 -0.17500000
v -8.8388348e-3 -9.1161165e-2 -0.17500000
v -1.2500000e-2 -1.0000000e-1 -0.17500000
v -8.8388348e-3 -0.10883883 -0.17500000
v 0.0000000e+0 -0.10412659 -0.58125000
v 8.8388348e-3 -0.10095593 -0.57941942
v 1.2500000e-2 -9.3301270e-2 -0.57500000
v 8.8388348e-3 -8.5646615e-2 -0.57058058
v 0.0000000e+0 -8.2475953e-2 -0.56875000
v -8.8388348e-3 -8.5646615e-2 -0.57058058
v -1.2500000e-2 -9.3301270e-2 -0.57500000
v -8.8388348e-3 -0.10095593 -0.57941942
v 0.0000000e+0 -8.1250000e-2 -0.60412659
v 8.8388348e-3 -7.9419417e-2 -0.60095593
v 1.2500000e-2 -7.5000000e-2 -0.59330127
v 8.8388348e-3 -7.0580583e-2 -0.58564661
v 0.0000000e+0 -6.8750000e-2 -0.58247595
v -8.8388348e-3 -7.0580583e-2 -0.58564661
v -1.2500000e-2 -7.5000000e-2 -0.59330127
v -8.8388348e-3 -7.9419417e-2 -0.60095593
v 0.0000000e+0 -5.0000000e-2 -0.61250000
v 8.8388348e-3 -5.0000000e-2 -0.60883883
v 1.2500000e-2 -5.0000000e-2 -0.60000000
v 8.8388348e-3 -5.0000000e-2 -0.59116117
v 0.0000000e+0 -5.0000000e-2 -0.58750000
v -8.8388348e-3 -5.0000000e-2 -0.59116117
v -1.2500000e-2 -5.0000000e-2 -0.60000000
v -8.8388348e-3 -5.0000000e-2 -0.60883883
v 0.0000000e+0 -1.8750000e-2 -0.60412659
v 8.8388348e-3 -2.0580583e-2 -0.60095593
v 1.2500000e-2 -2.5000000e-2 -0.59330127
v 8.8388348e-3 -2.9419417e-2 -0.58564661
v 0.0000000e+0 -3.1250000e-2 -0.58247595
v -8.8388348e-3 -2.9419417e-2 -0.58564661
v -1.2500000e-2 -2.5000000e-2 -0.59330127
v -8.8388348e-3 -2.0580583e-2 -0.60095593
v 0.0000000e+0 4.1265877e-3 -0.58125000
v 8.8388348e-3 9.5592564e-4 -0.57941942
v 1.2500000e-2 -6.6987298e-3 -0.57500000
v 8.8388348e-3 -1.4353385e-2 -0.57058058
v 0.0000000e+0 -1.7524047e-2 -0.56875000
v -8.8388348e-3 -1.4353385e-2 -0.57058058
v -1.2500000e-2 -6.6987298e-3 -0.57500000
v -8.8388348e-3 9.5592564e-4 -0.57941942
v 0.0000000e+0 1.2500000e-2 -0.55000000
v 8.8388348e-3 8.8388348e-3 -0.55000000
v 1.2500000e-2 5.5511151e-17 -0.55000000
v 8.8388348e-3 -8.8388348e-3 -0.55000000
v 0.0000000e+0 -1.2500000e-2 -0.55000000
v -8.8388348e-3 -8.8388348e-3 -0.55000000
v -1.2500000e-2 5.5511151e-17 -0.55000000
v -8.8388348e-3 8.8388348e-3 -0.55000000
v 0.0000000e+0 -0.11250000 -0.55000000
v 8.8388348e-3 -0.10883883 -0.55000000
v 1.2500000e-2 -1.0000000e-1 -0.55000000
v 8.8388348e-3 -9.1161165e-2 -0.55000000
v 0.0000000e+0 -8.7500000e-2 -0.55000000
v -8.8388348e-3 -9.1161165e-2 -0.55000000
v -1.2500000e-2 -1.0000000e-1 -0.55000000
v -8.8388348e-3 -0.10883883 -0.55000000
v 1.2500000e-2 1.9016444e-17 -2.5000000e-2
v 8.8388348e-3 -8.8388348e-3 -2.5000000e-2
v -5.5511151e-17 -1.2500000e-2 -2.5000000e-2
v -8.8388348e-3 -8.8388348e-3 -2.5000000e-2
v -1.2500000e-2 1.7485635e-17 -2.5000000e-2
v -8.8388348e-3 8.8388348e-3 -2.5000000e-2
v -5.5511151e-17 1.2500000e-2 -2.5000000e-2
v 8.8388348e-3 8.8388348e-3 -2.5000000e-2
v 1.8750000e-2 1.7409643e-17 3.7500000e-2
v 1.3258252e-2 -1.3258252e-2 3.7500000e-2
v -5.5511151e-17 -1.8750000e-2 3.7500000e-2
v -1.3258252e-2 -1.3258252e-2 3.7500000e-2
v -1.8750000e-2 1.5113430e-17 3.7500000e-2
v -1.3258252e-2 1.3258252e-2 3.7500000e-2
v -5.5511151e-17 1.8750000e-2 3.7500000e-2
v 1.3258252e-2 1.3258252e-2 3.7500000e-2
v 1.8750000e-2 1.5113430e-17 -3.7500000e-2
v 1.3258252e-2 -1.3258252e-2 -3.7500000e-2
v -5.5511151e-17 -1.8750000e-2 -3.7500000e-2
v -1.3258252e-2 -1.3258252e-2 -3.7500000e-2
v -1.8750000e-2 1.2817218e-17 -3.7500000e-2
v -1.3258252e-2 1.3258252e-2 -3.7500000e-2
v -5.5511151e-17 1.8750000e-2 -3.7500000e-2
v 1.3258252e-2 1.3258252e-2 -3.7500000e-2
v -5.5511151e-17 1.6261537e-17 3.7500000e-2
v -5.5511151e-17 1.3965324e-17 -3.7500000e-2
vt 0.27975267 0.52660317
vt 0.27975267 0.63607654
vt 0.30095987 0.52660317
vt 0.30095987 0.63607654
vt 0.32216707 0.52660317
vt 0.32216707 0.63607654
vt 0.33730703 0.49605834
vt 0.33806391 0.66446673
vt 0.34337426 0.52660317
vt 0.34337426 0.63607654
vt 0.34542268 0.47646545
vt 0.34542268 0.51565124
vt 0.34617955 0.64487383
vt 0.34617955 0.68405962
vt 0.36458146 0.52660317
vt 0.36458146 0.63607654
vt 0.36501557 0.46834980
vt 0.36501557 0.52376688
vt 0.36501557 0.49605834
vt 0.36577245 0.63675819
vt 0.36577245 0.69217527
vt 0.36577245 0.66446673
vt 0.38460847 0.47646545
vt 0.38460847 0.51565124
vt 0.38536534 0.64487383
vt 0.38536534 0.68405962
vt 0.38578866 0.52660317
vt 0.38578866 0.63607654
vt 0.39272411 0.49605834
vt 0.39348099 0.66446673
vt 0.40699586 0.52660317
vt 0.40699586 0.63607654
vt 0.42820305 0.52660317
vt 0.42820305 0.63607654
vt 0.44941025 0.52660317
vt 0.44941025 0.63607654
vt 0.65842532 0.90545508
vt 0.66181337 0.82910660
vt 0.66205961 0.88123085
vt 0.66234419 0.85572121
vt 0.66332843 0.40987742
vt 0.67010186 0.90834547
vt 0.67255553 0.82900526
vt 0.67398668 0.40991554
vt 0.67415346 0.88232587
vt 0.67461244 0.85581305
vt 0.68110013 0.91271483
vt 0.68314162 0.82873732
vt 0.68464484 0.40995384
vt 0.68505945 0.88335965
vt 0.68546737 0.85595195
vt 0.69208261 0.91655149
vt 0.69219479 0.39566365
vt 0.69356050 0.82848608
vt 0.69463992 0.88398104
vt 0.69493212 0.85604366
vt 0.69530357 0.40999345
vt 0.69625294 0.38586642
vt 0.69625294 0.40546089
vt 0.70344873 0.91816563
vt 0.70361724 0.88420121
vt 0.70375666 0.85609961
vt 0.70389401 0.82841580
vt 0.70596251 0.41003406
vt 0.70605017 0.38180827
vt 0.70605017 0.40951904
vt 0.71258133 0.85613122
vt 0.71259630 0.88407013
vt 0.71422632 0.82858861
vt 0.71483031 0.91666435
vt 0.71584741 0.38586642
vt 0.71584741 0.40546089
vt 0.71662134 0.41009922
vt 0.71990556 0.39566365
vt 0.72204652 0.85613343
vt 0.72218247 0.88354383
vt 0.72464219 0.82894322
vt 0.72585032 0.91293685
vt 0.72727993 0.41016536
vt 0.73290229 0.85610224
vt 0.73309818 0.88261831
vt 0.73522510 0.82931619
vt 0.73689141 0.90867684
vt 0.73793795 0.41023283
vt 0.74517085 0.85613214
vt 0.74520230 0.88164335
vt 0.74596573 0.82952410
vt 0.74859605 0.90590245
vt 0.74859605 0.41030047
vt 0.83062819 0.90697541
vt 0.83245331 0.24699994
vt 0.83285032 0.83111292
vt 0.83353582 0.85755643
vt 0.83361618 0.88312182
vt 0.84175985 0.90973529
vt 0.84308750 0.24697800
vt 0.84355214 0.83100474
vt 0.84559727 0.88403970
vt 0.84581415 0.85762681
vt 0.85238341 0.91422155
vt 0.85372219 0.24695576
vt 0.85415516 0.83076117
vt 0.85627081 0.88505048
vt 0.85666983 0.85772974
vt 0.86309365 0.91816743
vt 0.86437008 0.24696514
vt 0.86463521 0.83053252
vt 0.86564867 0.88566481
vt 0.86610649 0.85791618
vt 0.87430918 0.92000000
vt 0.87461877 0.88595080
vt 0.87492502 0.85806032
vt 0.87501746 0.83045783
vt 0.87501746 0.24697500
vt 0.88358907 0.88586780
vt 0.88377283 0.85811481
vt 0.88540033 0.83056113
vt 0.88562661 0.91858021
vt 0.88565997 0.24697958
vt 0.89328075 0.85815792
vt 0.89329405 0.88541976
vt 0.89589278 0.83077313
vt 0.89630249 0.24698444
vt 0.89661751 0.91499130
vt 0.90424046 0.85807651
vt 0.90438486 0.88453864
vt 0.90650961 0.83099437
vt 0.90694368 0.24698356
vt 0.90795807 0.91088975
vt 0.91656880 0.88362352
vt 0.91665853 0.85813355
vt 0.91722312 0.83110590
vt 0.91758519 0.24698264
vt 0.92000000 0.90815090
vn 1.1451229e-15 -0.86602540 -0.50000000
vn 0.71068674 -0.60925632 -0.35175430
vn 1.00000000 4.6809914e-16 -4.5299917e-17
vn 0.71068674 0.60925632 0.35175430
vn 1.1296482e-15 0.86602540 0.50000000
vn -0.71068674 0.60925632 0.35175430
vn -1.00000000 4.6809914e-16 -3.0199944e-17
vn -0.71068674 -0.60925632 -0.35175430
vn 1.0986990e-15 -0.50000000 -0.86602540
vn 0.71068674 -0.35175430 -0.60925632
vn 1.00000000 -2.6802451e-16 -1.5099972e-16
vn 0.71068674 0.35175430 0.60925632
vn 1.1451229e-15 0.50000000 0.86602540
vn -0.71068674 0.35175430 0.60925632
vn -1.00000000 -2.5669953e-16 -1.6609969e-16
vn -0.71068674 -0.35175430 -0.60925632
vn 1.1296482e-15 2.0890755e-16 -1.00000000
vn 0.71068674 1.6813291e-16 -0.70350860
vn 1.00000000 7.5499861e-17 7.2479867e-16
vn 0.71068674 1.0622943e-15 0.70350860
vn 1.1296482e-15 2.1277621e-15 1.00000000
vn -0.71068674 1.0737579e-15 0.70350860
vn -1.00000000 7.5499861e-17 7.0969870e-16
vn -0.71068674 1.5284810e-16 -0.70350860
vn 1.8569560e-16 0.50000000 -0.86602540
vn 0.71068674 0.35175430 -0.60925632
vn 1.00000000 -2.5669953e-16 6.9459872e-16
vn 0.71068674 -0.35175430 0.60925632
vn 1.1296482e-15 -0.50000000 0.86602540
vn -0.71068674 -0.35175430 0.60925632
vn -1.00000000 1.2079978e-16 5.1339906e-16
vn -0.71068674 0.35175430 -0.60925632
vn -2.1664487e-16 0.86602540 -0.50000000
vn 0.71068674 0.60925632 -0.35175430
vn 1.00000000 -6.4929881e-16 1.8119967e-16
vn 0.71068674 -0.60925632 0.35175430
vn 1.1296482e-15 -0.86602540 0.50000000
vn -0.71068674 -0.60925632 0.35175430
vn -1.00000000 -1.3589975e-16 -1.0947480e-16
vn -0.71068674 0.60925632 -0.35175430
vn 4.3829106e-16 0.99140246 -0.13084788
vn 0.70580942 0.70226699 -9.3027609e-2
vn 1.00000000 -1.3554439e-16 1.8477468e-16
vn 0.70580942 -0.70226699 9.3027609e-2
vn 8.4635515e-16 -0.99140246 0.13084788
vn -0.70580942 -0.70226699 9.3027609e-2
vn -1.00000000 1.5060488e-17 1.1402335e-17
vn -0.70580942 0.70226699 -9.3027609e-2
vn 1.1335114e-15 -0.99140246 -0.13084788
vn 0.70580942 -0.70226699 -9.3027609e-2
vn 1.00000000 1.1144761e-15 1.8825610e-16
vn 0.70580942 0.70226699 9.3027609e-2
vn 1.0881709e-15 0.99140246 0.13084788
vn -0.70580942 0.70226699 9.3027609e-2
vn -1.00000000 1.0843551e-15 1.8449098e-16
vn -0.70580942 -0.70226699 -9.3027609e-2
vn 5.4517099e-17 9.2518585e-17 1.00000000
vn 3.0506730e-31 -9.2518585e-17 -1.00000000
vn 1.1115695e-15 -1.00000000 0.0000000e+0
vn 1.1115695e-15 -1.00000000 0.0000000e+0
vn 4.9065389e-16 0.0000000e+0 1.00000000
vn 0.70710678 -0.70710678 0.0000000e+0
vn 0.70710678 -0.70710678 0.0000000e+0
vn 4.9065389e-16 0.0000000e+0 1.00000000
vn 1.00000000 1.1416119e-15 0.0000000e+0
vn 1.00000000 1.1416119e-15 0.0000000e+0
vn 4.9065389e-16 0.0000000e+0 1.00000000
vn 0.70710678 0.70710678 0.0000000e+0
vn 0.70710678 0.70710678 0.0000000e+0
vn 4.9065389e-16 0.0000000e+0 1.00000000
vn 1.0815271e-15 1.00000000 0.0000000e+0
vn 1.0815271e-15 1.00000000 0.0000000e+0
vn 4.9065389e-16 0.0000000e+0 1.00000000
vn -0.70710678 0.70710678 0.0000000e+0
vn -0.70710678 0.70710678 0.0000000e+0
vn 4.9065389e-16 0.0000000e+0 1.00000000
vn -1.00000000 1.1115695e-15 0.0000000e+0
vn -1.00000000 1.1115695e-15 0.0000000e+0
vn 4.9065389e-16 0.0000000e+0 1.00000000
vn -0.70710678 -0.70710678 0.0000000e+0
vn -0.70710678 -0.70710678 0.0000000e+0
vn 4.9065389e-16 0.0000000e+0 1.00000000
vn 1.00000000 -3.0042419e-17 9.8203793e-17
vn 1.00000000 -3.0042419e-17 9.8203793e-17
vn 0.70710678 -0.70710678 2.0078842e-17
vn 0.70710678 -0.70710678 2.0078842e-17
vn 6.0084837e-16 -1.00000000 -6.2792016e-17
vn 6.0084837e-16 -1.00000000 -6.2792016e-17
vn -0.70710678 -0.70710678 -9.2362675e-17
vn -0.70710678 -0.70710678 -9.2362675e-17
vn -1.00000000 0.0000000e+0 -5.9871457e-17
vn -1.00000000 0.0000000e+0 -5.9871457e-17
vn -0.70710678 0.70710678 5.1109781e-18
vn -0.70710678 0.70710678 5.1109781e-18
vn 5.1072112e-16 1.00000000 7.1918763e-17
vn 5.1072112e-16 1.00000000 7.1918763e-17
vn 0.70710678 0.70710678 1.1463194e-16
vn 0.70710678 0.70710678 1.1463194e-16
vn -4.3613679e-16 0.0000000e+0 1.00000000
vn 1.00000000 -9.0127256e-17 -3.4073187e-18
vn 1.00000000 -9.0127256e-17 -3.4073187e-18
vn -4.3613679e-16 0.0000000e+0 1.00000000
vn 0.70710678 -0.70710678 3.0665868e-17
vn 0.70710678 -0.70710678 3.0665868e-17
vn 1.0903420e-16 0.0000000e+0 1.00000000
vn 1.0903420e-16 0.0000000e+0 1.00000000
vn -3.0042419e-16 -1.00000000 5.1109781e-17
vn -3.0042419e-16 -1.00000000 5.1109781e-17
vn 2.1806840e-16 0.0000000e+0 1.00000000
vn 2.1806840e-16 0.0000000e+0 1.00000000
vn -0.70710678 -0.70710678 4.0887824e-17
vn -0.70710678 -0.70710678 4.0887824e-17
vn -3.2710260e-16 0.0000000e+0 1.00000000
vn -3.2710260e-16 0.0000000e+0 1.00000000
vn -1.00000000 -1.8025451e-15 3.4073187e-18
vn -1.00000000 -1.8025451e-15 3.4073187e-18
vn 0.0000000e+0 0.0000000e+0 1.00000000
vn 0.0000000e+0 0.0000000e+0 1.00000000
vn -0.70710678 0.70710678 -3.4073187e-17
vn -0.70710678 0.70710678 -3.4073187e-17
vn 6.5420519e-16 1.8503717e-16 1.00000000
vn 6.5420519e-16 1.8503717e-16 1.00000000
vn 2.1029693e-16 1.00000000 -5.4517099e-17
vn 2.1029693e-16 1.00000000 -5.4517099e-17
vn 4.3613679e-16 3.7007434e-16 1.00000000
vn 4.3613679e-16 3.7007434e-16 1.00000000
vn -2.1806840e-16 1.8503717e-16 1.00000000
vn 0.70710678 0.70710678 -4.0887824e-17
vn 0.70710678 0.70710678 -4.0887824e-17
vn -2.1806840e-16 1.8503717e-16 1.00000000
vn 0.0000000e+0 0.0000000e+0 -1.00000000
vn 1.00000000 -9.0127256e-17 -3.4073187e-18
vn 1.00000000 -9.0127256e-17 -3.4073187e-18
vn 0.0000000e+0 0.0000000e+0 -1.00000000
vn -6.5420519e-16 -1.8503717e-16 -1.00000000
vn 0.70710678 -0.70710678 3.0665868e-17
vn 0.70710678 -0.70710678 3.0665868e-17
vn -6.5420519e-16 -1.8503717e-16 -1.00000000
vn -3.0042419e-16 -1.00000000 5.1109781e-17
vn -3.0042419e-16 -1.00000000 5.1109781e-17
vn -1.0903420e-16 -3.7007434e-16 -1.00000000
vn -1.0903420e-16 -3.7007434e-16 -1.00000000
vn -0.70710678 -0.70710678 4.0887824e-17
vn -0.70710678 -0.70710678 4.0887824e-17
vn 1.0903420e-16 -1.8503717e-16 -1.00000000
vn 1.0903420e-16 -1.8503717e-16 -1.00000000
vn -1.00000000 -1.8025451e-15 3.4073187e-18
vn -1.00000000 -1.8025451e-15 3.4073187e-18
vn 9.8607613e-32 0.0000000e+0 -1.00000000
vn 9.8607613e-32 0.0000000e+0 -1.00000000
vn -0.70710678 0.70710678 -3.4073187e-17
vn -0.70710678 0.70710678 -3.4073187e-17
vn 3.2710260e-16 0.0000000e+0 -1.00000000
vn 3.2710260e-16 0.0000000e+0 -1.00000000
vn 2.1029693e-16 1.00000000 -5.4517099e-17
vn 2.1029693e-16 1.00000000 -5.4517099e-17
vn 1.0903420e-16 0.0000000e+0 -1.00000000
vn 1.0903420e-16 0.0000000e+0 -1.00000000
vn 0.70710678 0.70710678 -4.0887824e-17
vn 0.70710678 0.70710678 -4.0887824e-17
vn 2.1806840e-16 0.0000000e+0 -1.00000000
vn 2.1806840e-16 0.0000000e+0 -1.00000000
g hook_hook_auv
usemtl hook_auv
s 1
f 2/71/64 3/74/67 4/72/70 5/66/73 6/59/76 7/53/79 8/58/82 1/65/61
f 73/29/102 89/19/57 74/23/105
f 74/23/106 89/19/57 75/17/109
f 75/17/110 89/19/57 76/11/114
f 76/11/113 89/19/57 77/7/118
f 77/7/117 89/19/57 78/12/121
f 78/12/122 89/19/57 79/18/125
f 79/18/126 89/19/57 80/24/130
f 80/24/127 89/19/57 73/29/99
f 81/8/134 90/22/58 88/14/161
f 82/13/135 90/22/58 81/8/131
f 83/20/142 90/22/58 82/13/138
f 84/25/146 90/22/58 83/20/141
f 85/30/149 90/22/58 84/25/145
f 86/26/153 90/22/58 85/30/150
f 87/21/158 90/22/58 86/26/154
f 88/14/162 90/22/58 87/21/157
s 2
f 1/64/59 57/63/49 58/54/50 2/57/63
f 2/57/62 58/54/50 59/48/51 3/49/66
f 3/49/65 59/48/51 60/43/52 4/44/68
f 4/44/69 60/43/52 61/38/53 5/41/72
f 5/89/71 61/87/53 62/82/54 6/84/74
f 6/84/75 62/82/54 63/77/55 7/79/77
f 7/79/78 63/77/55 64/69/56 8/73/80
f 8/73/81 64/69/56 57/63/49 1/64/60
f 9/62/1 17/61/9 18/55/10 10/56/2
f 9/62/1 57/63/49 64/69/56 16/67/8
f 10/56/2 18/55/10 19/50/11 11/51/3
f 10/56/2 58/54/50 57/63/49 9/62/1
f 11/51/3 19/50/11 20/45/12 12/46/4
f 11/51/3 59/48/51 58/54/50 10/56/2
f 12/46/4 20/45/12 21/39/13 13/40/5
f 12/46/4 60/43/52 59/48/51 11/51/3
f 13/85/5 21/86/13 22/81/14 14/80/6
f 13/40/5 61/38/53 60/43/52 12/46/4
f 14/80/6 22/81/14 23/76/15 15/75/7
f 14/80/6 62/82/54 61/87/53 13/85/5
f 15/75/7 23/76/15 24/68/16 16/67/8
f 15/75/7 63/77/55 62/82/54 14/80/6
f 16/67/8 24/68/16 17/61/9 9/62/1
f 16/67/8 64/69/56 63/77/55 15/75/7
f 17/61/9 25/60/17 26/52/18 18/55/10
f 18/55/10 26/52/18 27/47/19 19/50/11
f 19/50/11 27/47/19 28/42/20 20/45/12
f 20/45/12 28/42/20 29/37/21 21/39/13
f 21/86/13 29/88/21 30/83/22 22/81/14
f 22/81/14 30/83/22 31/78/23 23/76/15
f 23/76/15 31/78/23 32/70/24 24/68/16
f 24/68/16 32/70/24 25/60/17 17/61/9
f 25/110/17 33/111/25 34/115/26 26/118/18
f 26/118/18 34/115/26 35/121/27 27/124/19
f 27/124/19 35/121/27 36/126/28 28/129/20
f 28/129/20 36/126/28 37/130/29 29/134/21
f 29/90/21 37/94/29 38/98/30 30/95/22
f 30/95/22 38/98/30 39/103/31 31/100/23
f 31/100/23 39/103/31 40/108/32 32/105/24
f 32/105/24 40/108/32 33/111/25 25/110/17
f 33/111/25 41/112/33 42/116/34 34/115/26
f 34/115/26 42/116/34 43/120/35 35/121/27
f 35/121/27 43/120/35 44/125/36 36/126/28
f 36/126/28 44/125/36 45/131/37 37/130/29
f 37/94/29 45/93/37 46/99/38 38/98/30
f 38/98/30 46/99/38 47/104/39 39/103/31
f 39/103/31 47/104/39 48/109/40 40/108/32
f 40/108/32 48/109/40 41/112/33 33/111/25
f 41/112/33 49/113/41 50/117/42 42/116/34
f 42/116/34 50/117/42 51/122/43 43/120/35
f 43/120/35 51/122/43 52/127/44 44/125/36
f 44/125/36 52/127/44 53/132/45 45/131/37
f 45/93/37 53/92/45 54/97/46 46/99/38
f 46/99/38 54/97/46 55/102/47 47/104/39
f 47/104/39 55/102/47 56/107/48 48/109/40
f 48/109/40 56/107/48 49/113/41 41/112/33
f 49/113/41 71/114/95 72/119/97 50/117/42
f 50/117/42 72/119/98 65/123/84 51/122/43
f 51/122/43 65/123/83 66/128/85 52/127/44
f 52/127/44 66/128/86 67/133/88 53/132/45
f 53/92/45 67/91/87 68/96/89 54/97/46
f 54/97/46 68/96/90 69/101/92 55/102/47
f 55/102/47 69/101/91 70/106/93 56/107/48
f 56/107/48 70/106/94 71/114/96 49/113/41
f 73/6/100 81/5/132 88/9/159 80/10/128
f 74/4/104 82/3/137 81/5/133 73/6/101
f 75/2/108 83/1/140 82/3/136 74/4/103
f 76/34/112 84/33/144 83/35/139 75/36/107
f 77/32/116 85/31/148 84/33/143 76/34/111
f 78/28/120 86/27/152 85/31/147 77/32/115
f 79/16/124 87/15/156 86/27/151 78/28/119
f 80/10/129 88/9/160 87/15/155 79/16/123
