# Exported from Wings 3D 1.5.4
mtllib sargas_control_s1p5_2_collider.mtl
o sargas_control_s1p5_2_collider
#49 vertices, 49 faces
v 0.93750000 -0.50000000 -0.18648034
v 0.93750000 -0.50000000 0.18648034
v 0.79477412 -0.50000000 0.53105109
v 0.53105109 -0.50000000 0.79477412
v 0.18648034 -0.50000000 0.93750000
v -0.18648034 -0.50000000 0.93750000
v -0.53105109 -0.50000000 0.79477412
v -0.79477412 -0.50000000 0.53105109
v -0.93750000 -0.50000000 0.18648034
v -0.93750000 -0.50000000 -0.18648034
v -0.79477412 -0.50000000 -0.53105109
v -0.53105109 -0.50000000 -0.79477412
v -0.18648034 -0.50000000 -0.93750000
v 0.18648034 -0.50000000 -0.93750000
v 0.53105109 -0.50000000 -0.79477412
v 0.79477412 -0.50000000 -0.53105109
v 0.93750000 -0.62500000 -0.18648034
v 0.93750000 -0.62500000 0.18648034
v 0.79477412 -0.62500000 0.53105109
v 0.53105109 -0.62500000 0.79477412
v 0.18648034 -0.62500000 0.93750000
v -0.18648034 -0.62500000 0.93750000
v -0.53105109 -0.62500000 0.79477412
v -0.79477412 -0.62500000 0.53105109
v -0.93750000 -0.62500000 0.18648034
v -0.93750000 -0.62500000 -0.18648034
v -0.79477412 -0.62500000 -0.53105109
v -0.53105109 -0.62500000 -0.79477412
v -0.18648034 -0.62500000 -0.93750000
v 0.18648034 -0.62500000 -0.93750000
v 0.53105109 -0.62500000 -0.79477412
v 0.79477412 -0.62500000 -0.53105109
v 0.23437500 0.50000000 4.6620086e-2
v 0.23437500 0.50000000 -4.6620086e-2
v 0.19869353 0.50000000 -0.13276277
v 0.13276277 0.50000000 -0.19869353
v 4.6620086e-2 0.50000000 -0.23437500
v -4.6620086e-2 0.50000000 -0.23437500
v -0.13276277 0.50000000 -0.19869353
v -0.19869353 0.50000000 -0.13276277
v -0.23437500 0.50000000 -4.6620086e-2
v -0.23437500 0.50000000 4.6620086e-2
v -0.19869353 0.50000000 0.13276277
v -0.13276277 0.50000000 0.19869353
v -4.6620086e-2 0.50000000 0.23437500
v 4.6620086e-2 0.50000000 0.23437500
v 0.13276277 0.50000000 0.19869353
v 0.19869353 0.50000000 0.13276277
v 3.8163916e-17 0.62500000 -4.4235449e-17
vn 0.92387953 0.0000000e+0 -0.38268343
vn 1.00000000 0.0000000e+0 0.0000000e+0
vn 0.81802916 0.57517675 0.0000000e+0
vn 0.75576040 0.57517675 -0.31304621
vn 0.92387953 0.0000000e+0 0.38268343
vn 1.00000000 0.0000000e+0 0.0000000e+0
vn 0.81802916 0.57517675 0.0000000e+0
vn 0.75576040 0.57517675 0.31304621
vn 0.70710678 0.0000000e+0 0.70710678
vn 0.92387953 0.0000000e+0 0.38268343
vn 0.57843397 0.57517675 0.57843397
vn 0.75576040 0.57517675 0.31304621
vn 0.38268343 0.0000000e+0 0.92387953
vn 0.70710678 0.0000000e+0 0.70710678
vn 0.31304621 0.57517675 0.75576040
vn 0.57843397 0.57517675 0.57843397
vn -2.9767830e-16 0.0000000e+0 1.00000000
vn 0.38268343 0.0000000e+0 0.92387953
vn -1.9480762e-16 0.57517675 0.81802916
vn 0.31304621 0.57517675 0.75576040
vn -0.38268343 0.0000000e+0 0.92387953
vn -2.9767830e-16 0.0000000e+0 1.00000000
vn -0.31304621 0.57517675 0.75576040
vn -1.9480762e-16 0.57517675 0.81802916
vn -0.70710678 0.0000000e+0 0.70710678
vn -0.38268343 0.0000000e+0 0.92387953
vn -0.57843397 0.57517675 0.57843397
vn -0.31304621 0.57517675 0.75576040
vn -0.92387953 0.0000000e+0 0.38268343
vn -0.70710678 0.0000000e+0 0.70710678
vn -0.75576040 0.57517675 0.31304621
vn -0.57843397 0.57517675 0.57843397
vn -1.00000000 0.0000000e+0 0.0000000e+0
vn -0.92387953 0.0000000e+0 0.38268343
vn -0.81802916 0.57517675 0.0000000e+0
vn -0.75576040 0.57517675 0.31304621
vn -0.92387953 0.0000000e+0 -0.38268343
vn -1.00000000 0.0000000e+0 0.0000000e+0
vn -0.75576040 0.57517675 -0.31304621
vn -0.81802916 0.57517675 0.0000000e+0
vn -0.70710678 0.0000000e+0 -0.70710678
vn -0.92387953 0.0000000e+0 -0.38268343
vn -0.57843397 0.57517675 -0.57843397
vn -0.75576040 0.57517675 -0.31304621
vn -0.38268343 0.0000000e+0 -0.92387953
vn -0.70710678 0.0000000e+0 -0.70710678
vn -0.31304621 0.57517675 -0.75576040
vn -0.57843397 0.57517675 -0.57843397
vn 2.9767830e-16 0.0000000e+0 -1.00000000
vn -0.38268343 0.0000000e+0 -0.92387953
vn 1.9480762e-16 0.57517675 -0.81802916
vn -0.31304621 0.57517675 -0.75576040
vn 0.38268343 0.0000000e+0 -0.92387953
vn 2.9767830e-16 0.0000000e+0 -1.00000000
vn 0.31304621 0.57517675 -0.75576040
vn 1.9480762e-16 0.57517675 -0.81802916
vn 0.70710678 0.0000000e+0 -0.70710678
vn 0.38268343 0.0000000e+0 -0.92387953
vn 0.57843397 0.57517675 -0.57843397
vn 0.31304621 0.57517675 -0.75576040
vn 0.92387953 0.0000000e+0 -0.38268343
vn 0.70710678 0.0000000e+0 -0.70710678
vn 0.75576040 0.57517675 -0.31304621
vn 0.57843397 0.57517675 -0.57843397
vn 0.0000000e+0 -1.00000000 -2.9767830e-17
vn 0.92387953 0.0000000e+0 -0.38268343
vn 1.00000000 0.0000000e+0 0.0000000e+0
vn 0.0000000e+0 -1.00000000 -2.9767830e-17
vn 0.92387953 0.0000000e+0 0.38268343
vn 1.00000000 0.0000000e+0 0.0000000e+0
vn 0.0000000e+0 -1.00000000 -2.9767830e-17
vn 0.70710678 0.0000000e+0 0.70710678
vn 0.92387953 0.0000000e+0 0.38268343
vn 0.0000000e+0 -1.00000000 -2.9767830e-17
vn 0.38268343 0.0000000e+0 0.92387953
vn 0.70710678 0.0000000e+0 0.70710678
vn 0.0000000e+0 -1.00000000 -2.9767830e-17
vn -2.9767830e-16 0.0000000e+0 1.00000000
vn 0.38268343 0.0000000e+0 0.92387953
vn 0.0000000e+0 -1.00000000 -2.9767830e-17
vn -0.38268343 0.0000000e+0 0.92387953
vn -2.9767830e-16 0.0000000e+0 1.00000000
vn 0.0000000e+0 -1.00000000 -2.9767830e-17
vn -0.70710678 0.0000000e+0 0.70710678
vn -0.38268343 0.0000000e+0 0.92387953
vn 0.0000000e+0 -1.00000000 -2.9767830e-17
vn -0.92387953 0.0000000e+0 0.38268343
vn -0.70710678 0.0000000e+0 0.70710678
vn 0.0000000e+0 -1.00000000 -2.9767830e-17
vn -1.00000000 0.0000000e+0 0.0000000e+0
vn -0.92387953 0.0000000e+0 0.38268343
vn 0.0000000e+0 -1.00000000 -2.9767830e-17
vn -0.92387953 0.0000000e+0 -0.38268343
vn -1.00000000 0.0000000e+0 0.0000000e+0
vn 0.0000000e+0 -1.00000000 -2.9767830e-17
vn -0.70710678 0.0000000e+0 -0.70710678
vn -0.92387953 0.0000000e+0 -0.38268343
vn 0.0000000e+0 -1.00000000 -2.9767830e-17
vn -0.38268343 0.0000000e+0 -0.92387953
vn -0.70710678 0.0000000e+0 -0.70710678
vn 0.0000000e+0 -1.00000000 -2.9767830e-17
vn 2.9767830e-16 0.0000000e+0 -1.00000000
vn -0.38268343 0.0000000e+0 -0.92387953
vn 0.0000000e+0 -1.00000000 -2.9767830e-17
vn 0.38268343 0.0000000e+0 -0.92387953
vn 2.9767830e-16 0.0000000e+0 -1.00000000
vn 0.0000000e+0 -1.00000000 -2.9767830e-17
vn 0.70710678 0.0000000e+0 -0.70710678
vn 0.38268343 0.0000000e+0 -0.92387953
vn 0.0000000e+0 -1.00000000 -2.9767830e-17
vn 0.92387953 0.0000000e+0 -0.38268343
vn 0.70710678 0.0000000e+0 -0.70710678
vn 0.81802916 0.57517675 0.0000000e+0
vn 0.75576040 0.57517675 0.31304621
vn 0.47058824 0.88235294 0.0000000e+0
vn 0.43476684 0.88235294 0.18008632
vn 0.81802916 0.57517675 0.0000000e+0
vn 0.75576040 0.57517675 -0.31304621
vn 0.47058824 0.88235294 0.0000000e+0
vn 0.43476684 0.88235294 -0.18008632
vn 0.75576040 0.57517675 -0.31304621
vn 0.57843397 0.57517675 -0.57843397
vn 0.43476684 0.88235294 -0.18008632
vn 0.33275613 0.88235294 -0.33275613
vn 0.57843397 0.57517675 -0.57843397
vn 0.31304621 0.57517675 -0.75576040
vn 0.33275613 0.88235294 -0.33275613
vn 0.18008632 0.88235294 -0.43476684
vn 0.31304621 0.57517675 -0.75576040
vn 1.9480762e-16 0.57517675 -0.81802916
vn 0.18008632 0.88235294 -0.43476684
vn 1.4008390e-16 0.88235294 -0.47058824
vn 1.9480762e-16 0.57517675 -0.81802916
vn -0.31304621 0.57517675 -0.75576040
vn 1.4008390e-16 0.88235294 -0.47058824
vn -0.18008632 0.88235294 -0.43476684
vn -0.31304621 0.57517675 -0.75576040
vn -0.57843397 0.57517675 -0.57843397
vn -0.18008632 0.88235294 -0.43476684
vn -0.33275613 0.88235294 -0.33275613
vn -0.57843397 0.57517675 -0.57843397
vn -0.75576040 0.57517675 -0.31304621
vn -0.33275613 0.88235294 -0.33275613
vn -0.43476684 0.88235294 -0.18008632
vn -0.75576040 0.57517675 -0.31304621
vn -0.81802916 0.57517675 0.0000000e+0
vn -0.43476684 0.88235294 -0.18008632
vn -0.47058824 0.88235294 0.0000000e+0
vn -0.81802916 0.57517675 0.0000000e+0
vn -0.75576040 0.57517675 0.31304621
vn -0.47058824 0.88235294 0.0000000e+0
vn -0.43476684 0.88235294 0.18008632
vn -0.75576040 0.57517675 0.31304621
vn -0.57843397 0.57517675 0.57843397
vn -0.43476684 0.88235294 0.18008632
vn -0.33275613 0.88235294 0.33275613
vn -0.57843397 0.57517675 0.57843397
vn -0.31304621 0.57517675 0.75576040
vn -0.33275613 0.88235294 0.33275613
vn -0.18008632 0.88235294 0.43476684
vn -0.31304621 0.57517675 0.75576040
vn -1.9480762e-16 0.57517675 0.81802916
vn -0.18008632 0.88235294 0.43476684
vn -1.4008390e-16 0.88235294 0.47058824
vn -1.9480762e-16 0.57517675 0.81802916
vn 0.31304621 0.57517675 0.75576040
vn -1.4008390e-16 0.88235294 0.47058824
vn 0.18008632 0.88235294 0.43476684
vn 0.31304621 0.57517675 0.75576040
vn 0.57843397 0.57517675 0.57843397
vn 0.18008632 0.88235294 0.43476684
vn 0.33275613 0.88235294 0.33275613
vn 0.57843397 0.57517675 0.57843397
vn 0.75576040 0.57517675 0.31304621
vn 0.33275613 0.88235294 0.33275613
vn 0.43476684 0.88235294 0.18008632
vn 0.47058824 0.88235294 0.0000000e+0
vn 0.43476684 0.88235294 -0.18008632
vn 0.33275613 0.88235294 -0.33275613
vn 0.18008632 0.88235294 -0.43476684
vn 1.4008390e-16 0.88235294 -0.47058824
vn -0.18008632 0.88235294 -0.43476684
vn -0.33275613 0.88235294 -0.33275613
vn -0.43476684 0.88235294 -0.18008632
vn -0.47058824 0.88235294 0.0000000e+0
vn -0.43476684 0.88235294 0.18008632
vn -0.33275613 0.88235294 0.33275613
vn -0.18008632 0.88235294 0.43476684
vn -1.4008390e-16 0.88235294 0.47058824
vn 0.18008632 0.88235294 0.43476684
vn 0.33275613 0.88235294 0.33275613
vn 0.43476684 0.88235294 0.18008632
g sargas_control_s1p5_2_collider_default
usemtl default
s 1
f 1//3 34//117 33//113 2//7
f 4//14 20//76 19//72 3//9
f 4//15 47//169 46//166 5//20
f 6//22 22//82 21//78 5//17
f 7//27 44//157 43//154 8//32
f 9//34 25//91 24//87 8//29
f 9//35 42//149 41//146 10//40
f 11//42 27//97 26//93 10//37
f 13//50 29//103 28//99 12//45
f 14//55 37//129 36//126 15//60
f 16//62 32//112 31//108 15//57
f 33//116 49//192 48//176
f 36//127 49//179 35//124
f 38//135 49//181 37//132
f 40//143 49//183 39//140
f 43//155 49//186 42//152
f 45//163 49//188 44//160
s 2
f 2//6 18//70 17//67 1//2
f 3//11 48//173 47//170 4//16
f 5//18 21//79 20//75 4//13
f 5//19 46//165 45//162 6//24
f 8//30 24//88 23//84 7//25
f 8//31 43//153 42//150 9//36
f 10//38 26//94 25//90 9//33
f 10//39 41//145 40//142 11//44
f 12//46 28//100 27//96 11//41
f 14//54 30//106 29//102 13//49
f 16//63 35//121 34//118 1//4
f 34//119 49//177 33//115
f 37//131 49//180 36//128
f 39//139 49//182 38//136
f 42//151 49//185 41//148
f 44//159 49//187 43//156
f 47//171 49//190 46//168
s 3
f 2//8 33//114 48//174 3//12
f 6//23 45//161 44//158 7//28
f 12//47 39//137 38//134 13//52
f 15//59 36//125 35//122 16//64
f 18//68 19//71 20//74 21//77 22//80 23//83 24//86 25//89 26//92 27//95 28//98 29//101 30//104 31//107 32//110 17//65
f 35//123 49//178 34//120
f 41//147 49//184 40//144
f 46//167 49//189 45//164
f 48//175 49//191 47//172
s 4
f 1//1 17//66 32//111 16//61
f 3//10 19//73 18//69 2//5
f 7//26 23//85 22//81 6//21
f 11//43 40//141 39//138 12//48
f 13//51 38//133 37//130 14//56
f 15//58 31//109 30//105 14//53
