# Exported from Wings 3D 1.5.4
mtllib Alnair_Control_1_Antenna.mtl
o Alnair_Control_1_Antenna
#9 vertices, 8 faces
v 6.2500000e-3 1.00000000 2.7715099e-17
v 7.2964682e-19 1.00000000 6.2500000e-3
v -6.2500000e-3 1.00000000 2.8480503e-17
v -8.0116168e-19 1.00000000 -6.2500000e-3
v 6.2500000e-3 0.0000000e+0 2.7715099e-17
v 7.2964682e-19 0.0000000e+0 6.2500000e-3
v -6.2500000e-3 0.0000000e+0 2.8480503e-17
v -8.0116168e-19 0.0000000e+0 -6.2500000e-3
v 0.0000000e+0 1.00250000 2.7868754e-17
vt 0.59091714 0.12491390
vt 0.59341714 0.12241390
vt 0.59341714 0.12491390
vt 0.59341714 0.12741390
vt 0.59591714 0.12491390
vt 0.60098004 0.12238885
vt 0.60098004 0.12488885
vt 0.60098004 0.12738885
vt 0.75930766 0.12238885
vt 0.75930766 0.12238885
vt 0.75930766 0.12488885
vt 0.75930766 0.12738885
vn 1.00000000 0.0000000e+0 -7.8504623e-17
vn 1.5700925e-16 0.0000000e+0 1.00000000
vn -1.00000000 0.0000000e+0 1.5700925e-16
vn -7.8504623e-17 0.0000000e+0 -1.00000000
vn 0.0000000e+0 1.00000000 1.5944364e-17
vn 1.00000000 0.0000000e+0 -7.8504623e-17
vn 1.00000000 0.0000000e+0 -7.8504623e-17
vn 0.37139068 0.92847669 0.0000000e+0
vn 0.37139068 0.92847669 0.0000000e+0
vn 1.5700925e-16 0.0000000e+0 1.00000000
vn 1.5700925e-16 0.0000000e+0 1.00000000
vn 2.9607941e-17 0.92847669 0.37139068
vn 2.9607941e-17 0.92847669 0.37139068
vn -1.00000000 0.0000000e+0 1.5700925e-16
vn -1.00000000 0.0000000e+0 1.5700925e-16
vn -0.37139068 0.92847669 2.9607941e-17
vn -0.37139068 0.92847669 2.9607941e-17
vn -7.8504623e-17 0.0000000e+0 -1.00000000
vn -7.8504623e-17 0.0000000e+0 -1.00000000
vn -2.9607941e-17 0.92847669 -0.37139068
vn -2.9607941e-17 0.92847669 -0.37139068
g Alnair_Control_1_Antenna_Alnair_Control_1_Antenna_auv
usemtl Alnair_Control_1_Antenna_auv
s 1
f 1/6/6 5/9/1 8/11/4 4/7/18
f 2/7/11 6/11/2 5/12/1 1/8/7
f 3/6/15 7/10/3 6/11/2 2/7/10
f 4/7/19 8/11/4 7/12/3 3/8/14
s 2
f 1/5/8 9/3/5 2/2/12
f 2/2/13 9/3/5 3/1/17
f 3/1/16 9/3/5 4/4/21
f 4/4/20 9/3/5 1/5/9
