# Exported from Wings 3D 1.5.4
mtllib Alnair_Control_1_Base.mtl
o Alnair_Control_1_Base
#16 vertices, 10 faces
v -1.2500000e-2 0.23750000 -1.2500000e-2
v -1.2500000e-2 0.23750000 1.2500000e-2
v 1.2500000e-2 0.23750000 -1.2500000e-2
v 1.2500000e-2 0.23750000 1.2500000e-2
v -1.2500000e-2 -3.9644661e-3 -1.2500000e-2
v -1.2500000e-2 -1.2500000e-2 -3.9644661e-3
v -1.2500000e-2 -1.0000000e-2 -1.0000000e-2
v -1.2500000e-2 -1.2500000e-2 3.9644661e-3
v -1.2500000e-2 -3.9644661e-3 1.2500000e-2
v -1.2500000e-2 -1.0000000e-2 1.0000000e-2
v 1.2500000e-2 -3.9644661e-3 -1.2500000e-2
v 1.2500000e-2 -1.0000000e-2 -1.0000000e-2
v 1.2500000e-2 -1.2500000e-2 -3.9644661e-3
v 1.2500000e-2 -1.2500000e-2 3.9644661e-3
v 1.2500000e-2 -1.0000000e-2 1.0000000e-2
v 1.2500000e-2 -3.9644661e-3 1.2500000e-2
vt 0.77598940 0.12665574
vt 0.77598940 0.17257167
vt 0.77598940 0.17257167
vt 0.77706848 0.12520833
vt 0.77851589 0.12460879
vt 0.78041736 0.12460879
vt 0.78186477 0.12520833
vt 0.78276824 0.12665574
vt 0.78276824 0.17257167
vt 0.78276824 0.17257167
vt 0.79540850 0.17220380
vt 0.79540850 0.17819916
vt 0.79542188 7.2791953e-2
vt 0.79542188 0.11846591
vt 0.79542188 0.12003258
vt 0.79542188 0.12159924
vt 0.79542188 0.12350071
vt 0.79542188 0.12506737
vt 0.79542188 0.12663404
vt 0.79542188 0.17212079
vt 0.80140386 0.17220380
vt 0.80140386 0.17819916
vt 0.80141724 7.2791953e-2
vt 0.80141724 0.11846591
vt 0.80141724 0.12003258
vt 0.80141724 0.12159924
vt 0.80141724 0.12350071
vt 0.80141724 0.12506737
vt 0.80141724 0.12663404
vt 0.80141724 0.17212079
vn 0.0000000e+0 1.00000000 0.0000000e+0
vn 0.0000000e+0 0.0000000e+0 -1.00000000
vn -1.00000000 0.0000000e+0 0.0000000e+0
vn 0.0000000e+0 1.00000000 0.0000000e+0
vn 0.0000000e+0 0.0000000e+0 1.00000000
vn -1.00000000 0.0000000e+0 0.0000000e+0
vn 0.0000000e+0 1.00000000 0.0000000e+0
vn 0.0000000e+0 0.0000000e+0 -1.00000000
vn 1.00000000 -8.7332518e-18 0.0000000e+0
vn 0.0000000e+0 1.00000000 0.0000000e+0
vn 0.0000000e+0 0.0000000e+0 1.00000000
vn 1.00000000 -8.7332518e-18 0.0000000e+0
vn 0.0000000e+0 -0.19509032 -0.98078528
vn -1.00000000 0.0000000e+0 0.0000000e+0
vn 0.0000000e+0 -0.19509032 -0.98078528
vn 0.0000000e+0 -0.98078528 -0.19509032
vn -1.00000000 0.0000000e+0 0.0000000e+0
vn 0.0000000e+0 -0.98078528 -0.19509032
vn -1.00000000 0.0000000e+0 0.0000000e+0
vn 0.0000000e+0 -0.70710678 -0.70710678
vn 0.0000000e+0 -0.70710678 -0.70710678
vn 0.0000000e+0 -0.98078528 0.19509032
vn -1.00000000 0.0000000e+0 0.0000000e+0
vn 0.0000000e+0 -0.98078528 0.19509032
vn 0.0000000e+0 -0.19509032 0.98078528
vn -1.00000000 0.0000000e+0 0.0000000e+0
vn 0.0000000e+0 -0.19509032 0.98078528
vn -1.00000000 0.0000000e+0 0.0000000e+0
vn 0.0000000e+0 -0.70710678 0.70710678
vn 0.0000000e+0 -0.70710678 0.70710678
vn 0.0000000e+0 -0.19509032 -0.98078528
vn 1.00000000 -8.7332518e-18 0.0000000e+0
vn 0.0000000e+0 -0.19509032 -0.98078528
vn 1.00000000 -8.7332518e-18 0.0000000e+0
vn 0.0000000e+0 -0.70710678 -0.70710678
vn 0.0000000e+0 -0.70710678 -0.70710678
vn 0.0000000e+0 -0.98078528 -0.19509032
vn 1.00000000 -8.7332518e-18 0.0000000e+0
vn 0.0000000e+0 -0.98078528 -0.19509032
vn 0.0000000e+0 -0.98078528 0.19509032
vn 1.00000000 -8.7332518e-18 0.0000000e+0
vn 0.0000000e+0 -0.98078528 0.19509032
vn 1.00000000 -8.7332518e-18 0.0000000e+0
vn 0.0000000e+0 -0.70710678 0.70710678
vn 0.0000000e+0 -0.70710678 0.70710678
vn 0.0000000e+0 -0.19509032 0.98078528
vn 1.00000000 -8.7332518e-18 0.0000000e+0
vn 0.0000000e+0 -0.19509032 0.98078528
g Alnair_Control_1_Base_Alnair_Control_1_Base_auv
usemtl Alnair_Control_1_Base_auv
s 1
f 1/2/3 5/1/14 7/4/19 6/5/17 8/6/23 10/7/28 9/8/26 2/9/6
f 4/3/12 16/1/47 15/4/43 14/5/41 13/6/38 12/7/34 11/8/32 3/10/9
s 2
f 2/11/4 4/21/10 3/22/7 1/12/1
s 3
f 2/23/5 9/24/25 16/14/46 4/13/11
f 3/20/8 11/19/31 5/29/13 1/30/2
f 6/27/16 13/17/37 14/16/40 8/26/22
f 7/28/21 12/18/36 13/17/39 6/27/18
f 8/26/24 14/16/42 15/15/45 10/25/30
f 11/19/33 12/18/35 7/28/20 5/29/15
f 15/15/44 16/14/48 9/24/27 10/25/29
