# Exported from Wings 3D 1.5.4
mtllib alnair_engine_s0p5_1_collider.mtl
o collider1
#32 vertices, 18 faces
v 0.46875000 -1.00000000 -9.3240172e-2
v 0.46875000 -1.00000000 9.3240172e-2
v 0.39738706 -1.00000000 0.26552555
v 0.26552555 -1.00000000 0.39738706
v 9.3240172e-2 -1.00000000 0.46875000
v -9.3240172e-2 -1.00000000 0.46875000
v -0.26552555 -1.00000000 0.39738706
v -0.39738706 -1.00000000 0.26552555
v -0.46875000 -1.00000000 9.3240172e-2
v -0.46875000 -1.00000000 -9.3240172e-2
v -0.39738706 -1.00000000 -0.26552555
v -0.26552555 -1.00000000 -0.39738706
v -9.3240172e-2 -1.00000000 -0.46875000
v 9.3240172e-2 -1.00000000 -0.46875000
v 0.26552555 -1.00000000 -0.39738706
v 0.39738706 -1.00000000 -0.26552555
v 0.25000000 0.25000000 4.9728092e-2
v 0.25000000 0.25000000 -4.9728092e-2
v 0.21193977 0.25000000 -0.14161362
v 0.14161362 0.25000000 -0.21193977
v 4.9728092e-2 0.25000000 -0.25000000
v -4.9728092e-2 0.25000000 -0.25000000
v -0.14161362 0.25000000 -0.21193977
v -0.21193977 0.25000000 -0.14161362
v -0.25000000 0.25000000 -4.9728092e-2
v -0.25000000 0.25000000 4.9728092e-2
v -0.21193977 0.25000000 0.14161362
v -0.14161362 0.25000000 0.21193977
v -4.9728092e-2 0.25000000 0.25000000
v 4.9728092e-2 0.25000000 0.25000000
v 0.14161362 0.25000000 0.21193977
v 0.21193977 0.25000000 0.14161362
vn 0.0000000e+0 -1.00000000 0.0000000e+0
vn 0.98503047 0.17238033 0.0000000e+0
vn 0.91004949 0.17238033 -0.37695484
vn 0.0000000e+0 -1.00000000 0.0000000e+0
vn 0.98503047 0.17238033 0.0000000e+0
vn 0.91004949 0.17238033 0.37695484
vn 0.0000000e+0 -1.00000000 0.0000000e+0
vn 0.69652172 0.17238033 0.69652172
vn 0.91004949 0.17238033 0.37695484
vn 0.0000000e+0 -1.00000000 0.0000000e+0
vn 0.37695484 0.17238033 0.91004949
vn 0.69652172 0.17238033 0.69652172
vn 0.0000000e+0 -1.00000000 0.0000000e+0
vn -4.5895647e-16 0.17238033 0.98503047
vn 0.37695484 0.17238033 0.91004949
vn 0.0000000e+0 -1.00000000 0.0000000e+0
vn -0.37695484 0.17238033 0.91004949
vn -4.5895647e-16 0.17238033 0.98503047
vn 0.0000000e+0 -1.00000000 0.0000000e+0
vn -0.69652172 0.17238033 0.69652172
vn -0.37695484 0.17238033 0.91004949
vn 0.0000000e+0 -1.00000000 0.0000000e+0
vn -0.91004949 0.17238033 0.37695484
vn -0.69652172 0.17238033 0.69652172
vn 0.0000000e+0 -1.00000000 0.0000000e+0
vn -0.98503047 0.17238033 0.0000000e+0
vn -0.91004949 0.17238033 0.37695484
vn 0.0000000e+0 -1.00000000 0.0000000e+0
vn -0.91004949 0.17238033 -0.37695484
vn -0.98503047 0.17238033 0.0000000e+0
vn 0.0000000e+0 -1.00000000 0.0000000e+0
vn -0.69652172 0.17238033 -0.69652172
vn -0.91004949 0.17238033 -0.37695484
vn 0.0000000e+0 -1.00000000 0.0000000e+0
vn -0.37695484 0.17238033 -0.91004949
vn -0.69652172 0.17238033 -0.69652172
vn 0.0000000e+0 -1.00000000 0.0000000e+0
vn 4.5895647e-16 0.17238033 -0.98503047
vn -0.37695484 0.17238033 -0.91004949
vn 0.0000000e+0 -1.00000000 0.0000000e+0
vn 0.37695484 0.17238033 -0.91004949
vn 4.5895647e-16 0.17238033 -0.98503047
vn 0.0000000e+0 -1.00000000 0.0000000e+0
vn 0.69652172 0.17238033 -0.69652172
vn 0.37695484 0.17238033 -0.91004949
vn 0.0000000e+0 -1.00000000 0.0000000e+0
vn 0.91004949 0.17238033 -0.37695484
vn 0.69652172 0.17238033 -0.69652172
vn 0.98503047 0.17238033 0.0000000e+0
vn 0.91004949 0.17238033 0.37695484
vn 0.0000000e+0 1.00000000 8.7210438e-17
vn 0.98503047 0.17238033 0.0000000e+0
vn 0.91004949 0.17238033 -0.37695484
vn 0.0000000e+0 1.00000000 8.7210438e-17
vn 0.91004949 0.17238033 -0.37695484
vn 0.69652172 0.17238033 -0.69652172
vn 0.0000000e+0 1.00000000 8.7210438e-17
vn 0.69652172 0.17238033 -0.69652172
vn 0.37695484 0.17238033 -0.91004949
vn 0.0000000e+0 1.00000000 8.7210438e-17
vn 0.37695484 0.17238033 -0.91004949
vn 4.5895647e-16 0.17238033 -0.98503047
vn 0.0000000e+0 1.00000000 8.7210438e-17
vn 4.5895647e-16 0.17238033 -0.98503047
vn -0.37695484 0.17238033 -0.91004949
vn 0.0000000e+0 1.00000000 8.7210438e-17
vn -0.37695484 0.17238033 -0.91004949
vn -0.69652172 0.17238033 -0.69652172
vn 0.0000000e+0 1.00000000 8.7210438e-17
vn -0.69652172 0.17238033 -0.69652172
vn -0.91004949 0.17238033 -0.37695484
vn 0.0000000e+0 1.00000000 8.7210438e-17
vn -0.91004949 0.17238033 -0.37695484
vn -0.98503047 0.17238033 0.0000000e+0
vn 0.0000000e+0 1.00000000 8.7210438e-17
vn -0.98503047 0.17238033 0.0000000e+0
vn -0.91004949 0.17238033 0.37695484
vn 0.0000000e+0 1.00000000 8.7210438e-17
vn -0.91004949 0.17238033 0.37695484
vn -0.69652172 0.17238033 0.69652172
vn 0.0000000e+0 1.00000000 8.7210438e-17
vn -0.69652172 0.17238033 0.69652172
vn -0.37695484 0.17238033 0.91004949
vn 0.0000000e+0 1.00000000 8.7210438e-17
vn -0.37695484 0.17238033 0.91004949
vn -4.5895647e-16 0.17238033 0.98503047
vn 0.0000000e+0 1.00000000 8.7210438e-17
vn -4.5895647e-16 0.17238033 0.98503047
vn 0.37695484 0.17238033 0.91004949
vn 0.0000000e+0 1.00000000 8.7210438e-17
vn 0.37695484 0.17238033 0.91004949
vn 0.69652172 0.17238033 0.69652172
vn 0.0000000e+0 1.00000000 8.7210438e-17
vn 0.69652172 0.17238033 0.69652172
vn 0.91004949 0.17238033 0.37695484
vn 0.0000000e+0 1.00000000 8.7210438e-17
g collider1_default
usemtl default
s 1
f 2//6 17//50 32//95 3//9
f 4//11 31//91 30//89 5//15
f 6//17 29//85 28//83 7//21
f 8//23 27//79 26//77 9//27
f 11//32 24//70 23//68 12//36
f 13//38 22//64 21//62 14//42
f 16//47 19//55 18//53 1//3
s 2
f 1//2 18//52 17//49 2//5
f 3//8 32//94 31//92 4//12
f 5//14 30//88 29//86 6//18
f 7//20 28//82 27//80 8//24
f 9//26 26//76 25//74 10//30
f 12//35 23//67 22//65 13//39
f 14//41 21//61 20//59 15//45
s 3
f 2//4 3//7 4//10 5//13 6//16 7//19 8//22 9//25 10//28 11//31 12//34 13//37 14//40 15//43 16//46 1//1
f 18//54 19//57 20//60 21//63 22//66 23//69 24//72 25//75 26//78 27//81 28//84 29//87 30//90 31//93 32//96 17//51
s 4
f 10//29 25//73 24//71 11//33
f 15//44 20//58 19//56 16//48
o collider2
#32 vertices, 18 faces
v 0.25000000 0.25000000 4.9728092e-2
v 0.25000000 0.25000000 -4.9728092e-2
v 0.21193977 0.25000000 -0.14161362
v 0.14161362 0.25000000 -0.21193977
v 4.9728092e-2 0.25000000 -0.25000000
v -4.9728092e-2 0.25000000 -0.25000000
v -0.14161362 0.25000000 -0.21193977
v -0.21193977 0.25000000 -0.14161362
v -0.25000000 0.25000000 -4.9728092e-2
v -0.25000000 0.25000000 4.9728092e-2
v -0.21193977 0.25000000 0.14161362
v -0.14161362 0.25000000 0.21193977
v -4.9728092e-2 0.25000000 0.25000000
v 4.9728092e-2 0.25000000 0.25000000
v 0.14161362 0.25000000 0.21193977
v 0.21193977 0.25000000 0.14161362
v 0.25000000 1.00000000 4.9728092e-2
v 0.25000000 1.00000000 -4.9728092e-2
v 0.21193977 1.00000000 -0.14161362
v 0.14161362 1.00000000 -0.21193977
v 4.9728092e-2 1.00000000 -0.25000000
v -4.9728092e-2 1.00000000 -0.25000000
v -0.14161362 1.00000000 -0.21193977
v -0.21193977 1.00000000 -0.14161362
v -0.25000000 1.00000000 -4.9728092e-2
v -0.25000000 1.00000000 4.9728092e-2
v -0.21193977 1.00000000 0.14161362
v -0.14161362 1.00000000 0.21193977
v -4.9728092e-2 1.00000000 0.25000000
v 4.9728092e-2 1.00000000 0.25000000
v 0.14161362 1.00000000 0.21193977
v 0.21193977 1.00000000 0.14161362
vn 1.00000000 0.0000000e+0 0.0000000e+0
vn 0.92387953 0.0000000e+0 0.38268343
vn 0.0000000e+0 -1.00000000 1.7442088e-17
vn 1.00000000 0.0000000e+0 0.0000000e+0
vn 0.92387953 0.0000000e+0 -0.38268343
vn 0.0000000e+0 -1.00000000 1.7442088e-17
vn 0.92387953 0.0000000e+0 -0.38268343
vn 0.70710678 0.0000000e+0 -0.70710678
vn 0.0000000e+0 -1.00000000 1.7442088e-17
vn 0.70710678 0.0000000e+0 -0.70710678
vn 0.38268343 0.0000000e+0 -0.92387953
vn 0.0000000e+0 -1.00000000 1.7442088e-17
vn 0.38268343 0.0000000e+0 -0.92387953
vn 5.5814681e-16 0.0000000e+0 -1.00000000
vn 0.0000000e+0 -1.00000000 1.7442088e-17
vn 5.5814681e-16 0.0000000e+0 -1.00000000
vn -0.38268343 0.0000000e+0 -0.92387953
vn 0.0000000e+0 -1.00000000 1.7442088e-17
vn -0.38268343 0.0000000e+0 -0.92387953
vn -0.70710678 0.0000000e+0 -0.70710678
vn 0.0000000e+0 -1.00000000 1.7442088e-17
vn -0.70710678 0.0000000e+0 -0.70710678
vn -0.92387953 0.0000000e+0 -0.38268343
vn 0.0000000e+0 -1.00000000 1.7442088e-17
vn -0.92387953 0.0000000e+0 -0.38268343
vn -1.00000000 0.0000000e+0 0.0000000e+0
vn 0.0000000e+0 -1.00000000 1.7442088e-17
vn -1.00000000 0.0000000e+0 0.0000000e+0
vn -0.92387953 0.0000000e+0 0.38268343
vn 0.0000000e+0 -1.00000000 1.7442088e-17
vn -0.92387953 0.0000000e+0 0.38268343
vn -0.70710678 0.0000000e+0 0.70710678
vn 0.0000000e+0 -1.00000000 1.7442088e-17
vn -0.70710678 0.0000000e+0 0.70710678
vn -0.38268343 0.0000000e+0 0.92387953
vn 0.0000000e+0 -1.00000000 1.7442088e-17
vn -0.38268343 0.0000000e+0 0.92387953
vn -5.5814681e-16 0.0000000e+0 1.00000000
vn 0.0000000e+0 -1.00000000 1.7442088e-17
vn -5.5814681e-16 0.0000000e+0 1.00000000
vn 0.38268343 0.0000000e+0 0.92387953
vn 0.0000000e+0 -1.00000000 1.7442088e-17
vn 0.38268343 0.0000000e+0 0.92387953
vn 0.70710678 0.0000000e+0 0.70710678
vn 0.0000000e+0 -1.00000000 1.7442088e-17
vn 0.70710678 0.0000000e+0 0.70710678
vn 0.92387953 0.0000000e+0 0.38268343
vn 0.0000000e+0 -1.00000000 1.7442088e-17
vn 0.0000000e+0 1.00000000 3.4884175e-16
vn 1.00000000 0.0000000e+0 0.0000000e+0
vn 0.92387953 0.0000000e+0 0.38268343
vn 0.0000000e+0 1.00000000 3.4884175e-16
vn 1.00000000 0.0000000e+0 0.0000000e+0
vn 0.92387953 0.0000000e+0 -0.38268343
vn 0.0000000e+0 1.00000000 3.4884175e-16
vn 0.92387953 0.0000000e+0 -0.38268343
vn 0.70710678 0.0000000e+0 -0.70710678
vn 0.0000000e+0 1.00000000 3.4884175e-16
vn 0.70710678 0.0000000e+0 -0.70710678
vn 0.38268343 0.0000000e+0 -0.92387953
vn 0.0000000e+0 1.00000000 3.4884175e-16
vn 0.38268343 0.0000000e+0 -0.92387953
vn 5.5814681e-16 0.0000000e+0 -1.00000000
vn 0.0000000e+0 1.00000000 3.4884175e-16
vn 5.5814681e-16 0.0000000e+0 -1.00000000
vn -0.38268343 0.0000000e+0 -0.92387953
vn 0.0000000e+0 1.00000000 3.4884175e-16
vn -0.38268343 0.0000000e+0 -0.92387953
vn -0.70710678 0.0000000e+0 -0.70710678
vn 0.0000000e+0 1.00000000 3.4884175e-16
vn -0.70710678 0.0000000e+0 -0.70710678
vn -0.92387953 0.0000000e+0 -0.38268343
vn 0.0000000e+0 1.00000000 3.4884175e-16
vn -0.92387953 0.0000000e+0 -0.38268343
vn -1.00000000 0.0000000e+0 0.0000000e+0
vn 0.0000000e+0 1.00000000 3.4884175e-16
vn -1.00000000 0.0000000e+0 0.0000000e+0
vn -0.92387953 0.0000000e+0 0.38268343
vn 0.0000000e+0 1.00000000 3.4884175e-16
vn -0.92387953 0.0000000e+0 0.38268343
vn -0.70710678 0.0000000e+0 0.70710678
vn 0.0000000e+0 1.00000000 3.4884175e-16
vn -0.70710678 0.0000000e+0 0.70710678
vn -0.38268343 0.0000000e+0 0.92387953
vn 0.0000000e+0 1.00000000 3.4884175e-16
vn -0.38268343 0.0000000e+0 0.92387953
vn -5.5814681e-16 0.0000000e+0 1.00000000
vn 0.0000000e+0 1.00000000 3.4884175e-16
vn -5.5814681e-16 0.0000000e+0 1.00000000
vn 0.38268343 0.0000000e+0 0.92387953
vn 0.0000000e+0 1.00000000 3.4884175e-16
vn 0.38268343 0.0000000e+0 0.92387953
vn 0.70710678 0.0000000e+0 0.70710678
vn 0.0000000e+0 1.00000000 3.4884175e-16
vn 0.70710678 0.0000000e+0 0.70710678
vn 0.92387953 0.0000000e+0 0.38268343
g collider2_default
usemtl default
s 1
f 33//98 49//147 64//192 48//143
f 35//103 51//152 50//150 34//101
f 38//112 54//161 53//159 37//110
f 40//118 56//167 55//165 39//116
f 42//124 58//173 57//171 41//122
f 45//133 61//182 60//180 44//131
f 47//139 63//188 62//186 46//137
s 2
f 34//100 50//149 49//146 33//97
f 37//109 53//158 52//156 36//107
f 39//115 55//164 54//162 38//113
f 41//121 57//170 56//168 40//119
f 43//127 59//176 58//174 42//125
f 46//136 62//185 61//183 45//134
f 48//142 64//191 63//189 47//140
s 3
f 33//99 48//144 47//141 46//138 45//135 44//132 43//129 42//126 41//123 40//120 39//117 38//114 37//111 36//108 35//105 34//102
f 50//148 51//151 52//154 53//157 54//160 55//163 56//166 57//169 58//172 59//175 60//178 61//181 62//184 63//187 64//190 49//145
s 4
f 36//106 52//155 51//153 35//104
f 44//130 60//179 59//177 43//128
