# Exported from Wings 3D 1.5.4
mtllib alnair_heatshield_s1p5_1_collider.mtl
o collider
#33 vertices, 33 faces
v 0.93750000 0.12500000 0.18648034
v 0.93750000 0.12500000 -0.18648034
v 0.79477412 0.12500000 -0.53105109
v 0.53105109 0.12500000 -0.79477412
v 0.18648034 0.12500000 -0.93750000
v -0.18648034 0.12500000 -0.93750000
v -0.53105109 0.12500000 -0.79477412
v -0.79477412 0.12500000 -0.53105109
v -0.93750000 0.12500000 -0.18648034
v -0.93750000 0.12500000 0.18648034
v -0.79477412 0.12500000 0.53105109
v -0.53105109 0.12500000 0.79477412
v -0.18648034 0.12500000 0.93750000
v 0.18648034 0.12500000 0.93750000
v 0.53105109 0.12500000 0.79477412
v 0.79477412 0.12500000 0.53105109
v -4.1633363e-17 -0.12500000 -8.6736174e-18
v 0.40789317 -4.8311747e-2 0.27254550
v 0.27254550 -4.8311747e-2 0.40789317
v 9.5705253e-2 -4.8311747e-2 0.48114280
v -9.5705253e-2 -4.8311747e-2 0.48114280
v -0.27254550 -4.8311747e-2 0.40789317
v -0.40789317 -4.8311747e-2 0.27254550
v -0.48114280 -4.8311747e-2 9.5705253e-2
v -0.48114280 -4.8311747e-2 -9.5705253e-2
v -0.40789317 -4.8311747e-2 -0.27254550
v -0.27254550 -4.8311747e-2 -0.40789317
v -9.5705253e-2 -4.8311747e-2 -0.48114280
v 9.5705253e-2 -4.8311747e-2 -0.48114280
v 0.27254550 -4.8311747e-2 -0.40789317
v 0.40789317 -4.8311747e-2 -0.27254550
v 0.48114280 -4.8311747e-2 -9.5705253e-2
v 0.48114280 -4.8311747e-2 9.5705253e-2
vn 0.0000000e+0 1.00000000 7.4419574e-18
vn 0.35503161 -0.93485430 0.0000000e+0
vn 0.32800644 -0.93485430 0.13586471
vn 0.0000000e+0 1.00000000 7.4419574e-18
vn 0.35503161 -0.93485430 0.0000000e+0
vn 0.32800644 -0.93485430 -0.13586471
vn 0.0000000e+0 1.00000000 7.4419574e-18
vn 0.32800644 -0.93485430 -0.13586471
vn 0.25104526 -0.93485430 -0.25104526
vn 0.0000000e+0 1.00000000 7.4419574e-18
vn 0.25104526 -0.93485430 -0.25104526
vn 0.13586471 -0.93485430 -0.32800644
vn 0.0000000e+0 1.00000000 7.4419574e-18
vn 0.13586471 -0.93485430 -0.32800644
vn 2.0149043e-16 -0.93485430 -0.35503161
vn 0.0000000e+0 1.00000000 7.4419574e-18
vn 2.0149043e-16 -0.93485430 -0.35503161
vn -0.13586471 -0.93485430 -0.32800644
vn 0.0000000e+0 1.00000000 7.4419574e-18
vn -0.13586471 -0.93485430 -0.32800644
vn -0.25104526 -0.93485430 -0.25104526
vn 0.0000000e+0 1.00000000 7.4419574e-18
vn -0.25104526 -0.93485430 -0.25104526
vn -0.32800644 -0.93485430 -0.13586471
vn 0.0000000e+0 1.00000000 7.4419574e-18
vn -0.32800644 -0.93485430 -0.13586471
vn -0.35503161 -0.93485430 -5.0372606e-17
vn 0.0000000e+0 1.00000000 7.4419574e-18
vn -0.35503161 -0.93485430 -5.0372606e-17
vn -0.32800644 -0.93485430 0.13586471
vn 0.0000000e+0 1.00000000 7.4419574e-18
vn -0.32800644 -0.93485430 0.13586471
vn -0.25104526 -0.93485430 0.25104526
vn 0.0000000e+0 1.00000000 7.4419574e-18
vn -0.25104526 -0.93485430 0.25104526
vn -0.13586471 -0.93485430 0.32800644
vn 0.0000000e+0 1.00000000 7.4419574e-18
vn -0.13586471 -0.93485430 0.32800644
vn -2.5186303e-16 -0.93485430 0.35503161
vn 0.0000000e+0 1.00000000 7.4419574e-18
vn -2.5186303e-16 -0.93485430 0.35503161
vn 0.13586471 -0.93485430 0.32800644
vn 0.0000000e+0 1.00000000 7.4419574e-18
vn 0.13586471 -0.93485430 0.32800644
vn 0.25104526 -0.93485430 0.25104526
vn 0.0000000e+0 1.00000000 7.4419574e-18
vn 0.25104526 -0.93485430 0.25104526
vn 0.32800644 -0.93485430 0.13586471
vn 0.15740092 -0.98753478 -1.4881026e-16
vn 0.14541949 -0.98753478 -6.0234723e-2
vn 0.11129926 -0.98753478 -0.11129926
vn 6.0234723e-2 -0.98753478 -0.14541949
vn 0.0000000e+0 -0.98753478 -0.15740092
vn -6.0234723e-2 -0.98753478 -0.14541949
vn -0.11129926 -0.98753478 -0.11129926
vn -0.14541949 -0.98753478 -6.0234723e-2
vn -0.15740092 -0.98753478 -1.4881026e-16
vn -0.14541949 -0.98753478 6.0234723e-2
vn -0.11129926 -0.98753478 0.11129926
vn -6.0234723e-2 -0.98753478 0.14541949
vn 0.0000000e+0 -0.98753478 0.15740092
vn 6.0234723e-2 -0.98753478 0.14541949
vn 0.11129926 -0.98753478 0.11129926
vn 0.14541949 -0.98753478 6.0234723e-2
vn 0.18212713 -0.96626053 0.18212713
vn 0.23796056 -0.96626053 9.8566491e-2
vn 0.18212713 -0.96626053 0.18212713
vn 0.23796056 -0.96626053 9.8566491e-2
vn 9.8566491e-2 -0.96626053 0.23796056
vn 0.18212713 -0.96626053 0.18212713
vn 9.8566491e-2 -0.96626053 0.23796056
vn 0.18212713 -0.96626053 0.18212713
vn -1.2659524e-16 -0.96626053 0.25756665
vn 9.8566491e-2 -0.96626053 0.23796056
vn -1.2659524e-16 -0.96626053 0.25756665
vn 9.8566491e-2 -0.96626053 0.23796056
vn -9.8566491e-2 -0.96626053 0.23796056
vn -1.2659524e-16 -0.96626053 0.25756665
vn -9.8566491e-2 -0.96626053 0.23796056
vn -1.2659524e-16 -0.96626053 0.25756665
vn -0.18212713 -0.96626053 0.18212713
vn -9.8566491e-2 -0.96626053 0.23796056
vn -0.18212713 -0.96626053 0.18212713
vn -9.8566491e-2 -0.96626053 0.23796056
vn -0.23796056 -0.96626053 9.8566491e-2
vn -0.18212713 -0.96626053 0.18212713
vn -0.23796056 -0.96626053 9.8566491e-2
vn -0.18212713 -0.96626053 0.18212713
vn -0.25756665 -0.96626053 -1.0011633e-16
vn -0.23796056 -0.96626053 9.8566491e-2
vn -0.25756665 -0.96626053 -1.0011633e-16
vn -0.23796056 -0.96626053 9.8566491e-2
vn -0.23796056 -0.96626053 -9.8566491e-2
vn -0.25756665 -0.96626053 -1.0011633e-16
vn -0.23796056 -0.96626053 -9.8566491e-2
vn -0.25756665 -0.96626053 -1.0011633e-16
vn -0.18212713 -0.96626053 -0.18212713
vn -0.23796056 -0.96626053 -9.8566491e-2
vn -0.18212713 -0.96626053 -0.18212713
vn -0.23796056 -0.96626053 -9.8566491e-2
vn -9.8566491e-2 -0.96626053 -0.23796056
vn -0.18212713 -0.96626053 -0.18212713
vn -9.8566491e-2 -0.96626053 -0.23796056
vn -0.18212713 -0.96626053 -0.18212713
vn 1.0127619e-16 -0.96626053 -0.25756665
vn -9.8566491e-2 -0.96626053 -0.23796056
vn 1.0127619e-16 -0.96626053 -0.25756665
vn -9.8566491e-2 -0.96626053 -0.23796056
vn 9.8566491e-2 -0.96626053 -0.23796056
vn 1.0127619e-16 -0.96626053 -0.25756665
vn 9.8566491e-2 -0.96626053 -0.23796056
vn 1.0127619e-16 -0.96626053 -0.25756665
vn 0.18212713 -0.96626053 -0.18212713
vn 9.8566491e-2 -0.96626053 -0.23796056
vn 0.18212713 -0.96626053 -0.18212713
vn 9.8566491e-2 -0.96626053 -0.23796056
vn 0.23796056 -0.96626053 -9.8566491e-2
vn 0.18212713 -0.96626053 -0.18212713
vn 0.23796056 -0.96626053 -9.8566491e-2
vn 0.18212713 -0.96626053 -0.18212713
vn 0.25756665 -0.96626053 -7.4797285e-17
vn 0.23796056 -0.96626053 -9.8566491e-2
vn 0.25756665 -0.96626053 -7.4797285e-17
vn 0.23796056 -0.96626053 -9.8566491e-2
vn 0.25756665 -0.96626053 -7.4797285e-17
vn 0.23796056 -0.96626053 9.8566491e-2
vn 0.25756665 -0.96626053 -7.4797285e-17
vn 0.23796056 -0.96626053 9.8566491e-2
g collider_default
usemtl default
s 1
f 2//4 3//7 4//10 5//13 6//16 7//19 8//22 9//25 10//28 11//31 12//34 13//37 14//40 15//43 16//46 1//1
s 2
f 2//6 32//122 31//117 3//8
f 4//12 30//114 29//109 5//14
f 6//18 28//106 27//101 7//20
f 8//24 26//98 25//93 9//26
f 10//30 24//90 23//85 11//32
f 12//36 22//82 21//77 13//38
f 14//42 20//74 19//69 15//44
f 16//48 18//66 33//126 1//3
f 17//62 19//71 20//76
f 17//60 21//79 22//84
f 17//58 23//87 24//92
f 17//56 25//95 26//100
f 17//54 27//103 28//108
f 17//52 29//111 30//116
f 17//50 31//119 32//124
f 33//128 18//68 17//64
s 3
f 1//2 33//125 32//121 2//5
f 3//9 31//118 30//113 4//11
f 5//15 29//110 28//105 6//17
f 7//21 27//102 26//97 8//23
f 9//27 25//94 24//89 10//29
f 11//33 23//86 22//81 12//35
f 13//39 21//78 20//73 14//41
f 15//45 19//70 18//65 16//47
f 17//63 18//67 19//72
f 17//61 20//75 21//80
f 17//59 22//83 23//88
f 17//57 24//91 25//96
f 17//55 26//99 27//104
f 17//53 28//107 29//112
f 17//51 30//115 31//120
f 17//49 32//123 33//127
