# Exported from Wings 3D 1.5.4
mtllib Libra_Antenna_1.mtl
o Libra_Antenna_1
#104 vertices, 80 faces
v 2.6250000e-2 2.6250000e-2 -7.5222222e-2
v 3.5000000e-2 3.5000000e-2 1.5000000e-2
v 2.6250000e-2 -2.6250000e-2 -7.5222222e-2
v 3.5000000e-2 -3.5000000e-2 1.5000000e-2
v -2.6250000e-2 2.6250000e-2 -7.5222222e-2
v -3.5000000e-2 3.5000000e-2 1.5000000e-2
v -2.6250000e-2 -2.6250000e-2 -7.5222222e-2
v -3.5000000e-2 -3.5000000e-2 1.5000000e-2
v -2.5884444e-2 2.0122034e-17 -0.52282400
v -2.3914108e-2 9.5680247e-3 -0.52538774
v -1.8303066e-2 1.7679404e-2 -0.52756118
v -9.9055480e-3 2.3099255e-2 -0.52901343
v 1.6686399e-16 2.5002453e-2 -0.52952339
v 9.9055480e-3 2.3099255e-2 -0.52901343
v 1.8303066e-2 1.7679404e-2 -0.52756118
v 2.3914108e-2 9.5680247e-3 -0.52538774
v 2.5884444e-2 -3.4879628e-18 -0.52282400
v 2.3914108e-2 -9.5680247e-3 -0.52026026
v 1.8303066e-2 -1.7679404e-2 -0.51808682
v 9.9055480e-3 -2.3099255e-2 -0.51663457
v 1.6311219e-16 -2.5002453e-2 -0.51612461
v -9.9055480e-3 -2.3099255e-2 -0.51663457
v -1.8303066e-2 -1.7679404e-2 -0.51808682
v -2.3914108e-2 -9.5680247e-3 -0.52026026
v -4.0444444e-2 -2.9309819e-3 -0.53376257
v -3.7365794e-2 1.2019057e-2 -0.53776842
v -2.8598541e-2 2.4693087e-2 -0.54116442
v -1.5477419e-2 3.3161604e-2 -0.54343355
v 2.1240690e-16 3.6135352e-2 -0.54423037
v 1.5477419e-2 3.3161604e-2 -0.54343355
v 2.8598541e-2 2.4693087e-2 -0.54116442
v 3.7365794e-2 1.2019057e-2 -0.53776842
v 4.0444444e-2 -2.9309819e-3 -0.53376257
v 3.7365794e-2 -1.7881020e-2 -0.52975672
v 2.8598541e-2 -3.0555051e-2 -0.52636073
v 1.5477419e-2 -3.9023568e-2 -0.52409159
v 2.0654471e-16 -4.1997315e-2 -0.52329478
v -1.5477419e-2 -3.9023568e-2 -0.52409159
v -2.8598541e-2 -3.0555051e-2 -0.52636073
v -3.7365794e-2 -1.7881020e-2 -0.52975672
v -1.1209738e-2 -3.4213542e-2 -0.63257063
v -1.2133333e-2 -2.9728531e-2 -0.63377239
v -1.1209738e-2 -2.5243519e-2 -0.63497414
v -8.5795623e-3 -2.1441310e-2 -0.63599294
v -4.6432256e-3 -1.8900755e-2 -0.63667368
v 1.8369553e-16 -1.8008631e-2 -0.63691272
v 4.6432256e-3 -1.8900755e-2 -0.63667368
v 8.5795623e-3 -2.1441310e-2 -0.63599294
v 1.1209738e-2 -2.5243519e-2 -0.63497414
v 1.2133333e-2 -2.9728531e-2 -0.63377239
v 1.1209738e-2 -3.4213542e-2 -0.63257063
v 8.5795623e-3 -3.8015751e-2 -0.63155183
v 4.6432256e-3 -4.0556306e-2 -0.63087109
v 1.8193688e-16 -4.1448431e-2 -0.63063205
v -4.6432256e-3 -4.0556306e-2 -0.63087109
v -8.5795623e-3 -3.8015751e-2 -0.63155183
v -1.8589052e-2 -3.4285401e-2 -0.57895628
v -1.0060322e-2 -3.9789937e-2 -0.57748134
v 1.9424079e-16 -4.1722873e-2 -0.57696342
v 1.0060322e-2 -3.9789937e-2 -0.57748134
v 1.8589052e-2 -3.4285401e-2 -0.57895628
v 2.4287766e-2 -2.6047281e-2 -0.58116368
v 2.6288889e-2 -1.6329756e-2 -0.58376748
v 2.4287766e-2 -6.6122312e-3 -0.58637128
v 1.8589052e-2 1.6258887e-3 -0.58857868
v 1.0060322e-2 7.1304245e-3 -0.59005362
v 1.9805122e-16 9.0633604e-3 -0.59057155
v -1.0060322e-2 7.1304245e-3 -0.59005362
v -1.8589052e-2 1.6258887e-3 -0.58857868
v -2.4287766e-2 -6.6122312e-3 -0.58637128
v -2.6288889e-2 -1.6329756e-2 -0.58376748
v -2.4287766e-2 -2.6047281e-2 -0.58116368
v -1.7748752e-2 -3.0130412e-2 -0.60686715
v -1.9211111e-2 -2.3029143e-2 -0.60876993
v -1.7748752e-2 -1.5927875e-2 -0.61067271
v -1.3584307e-2 -9.9077106e-3 -0.61228581
v -7.3517739e-3 -5.8851652e-3 -0.61336365
v 1.9087337e-16 -4.4726351e-3 -0.61374213
v 7.3517739e-3 -5.8851652e-3 -0.61336365
v 1.3584307e-2 -9.9077106e-3 -0.61228581
v 1.7748752e-2 -1.5927875e-2 -0.61067271
v 1.9211111e-2 -2.3029143e-2 -0.60876993
v 1.7748752e-2 -3.0130412e-2 -0.60686715
v 1.3584307e-2 -3.6150576e-2 -0.60525406
v 7.3517739e-3 -4.0173122e-2 -0.60417622
v 1.8808884e-16 -4.1585652e-2 -0.60379773
v -7.3517739e-3 -4.0173122e-2 -0.60417622
v -1.3584307e-2 -3.6150576e-2 -0.60525406
v -1.2444444e-2 4.8512000e-18 -7.5222222e-2
v -8.7995511e-3 8.7995511e-3 -7.5222222e-2
v 3.3939990e-18 1.2444444e-2 -7.5222222e-2
v 8.7995511e-3 8.7995511e-3 -7.5222222e-2
v 1.2444444e-2 9.4207197e-19 -7.5222222e-2
v 8.7995511e-3 -8.7995511e-3 -7.5222222e-2
v 1.0088759e-18 -1.2444444e-2 -7.5222222e-2
v -8.7995511e-3 -8.7995511e-3 -7.5222222e-2
v -6.2429071e-3 -6.2429071e-3 -0.52115122
v 1.6506541e-16 -8.8344342e-3 -0.52045682
v 6.2429071e-3 -6.2429071e-3 -0.52115122
v 8.8152408e-3 2.8231179e-18 -0.52282400
v 6.2237554e-3 6.2237554e-3 -0.52449165
v 1.6849199e-16 8.7961307e-3 -0.52518092
v -6.2237554e-3 6.2237554e-3 -0.52449165
v -8.8152408e-3 5.5922174e-18 -0.52282400
vt 9.8113249e-2 0.43343595
vt 9.8113249e-2 0.43343595
vt 9.8113249e-2 0.43343595
vt 9.8113249e-2 0.43343595
vt 0.10254547 0.45693308
vt 0.10254547 0.45693308
vt 0.10254547 0.45693308
vt 0.10254547 0.45693308
vt 0.10392330 0.43343595
vt 0.10392330 0.43343595
vt 0.10392330 0.43343595
vt 0.10392330 0.43343595
vt 0.10476157 0.46868164
vt 0.10476157 0.46868164
vt 0.10476157 0.46868164
vt 0.10476157 0.46868164
vt 0.10632200 0.45693308
vt 0.10632200 0.45693308
vt 0.10632200 0.45693308
vt 0.10632200 0.45693308
vt 0.10697768 0.48043021
vt 0.10697768 0.48043021
vt 0.10697768 0.48043021
vt 0.10697768 0.48043021
vt 0.10752135 0.46868164
vt 0.10752135 0.46868164
vt 0.10752135 0.46868164
vt 0.10752135 0.46868164
vt 0.10872070 0.48043021
vt 0.10872070 0.48043021
vt 0.10872070 0.48043021
vt 0.10872070 0.48043021
vt 0.11077672 0.43343595
vt 0.11077672 0.43343595
vt 0.11077672 0.43343595
vt 0.11077672 0.45693308
vt 0.11077672 0.45693308
vt 0.11077672 0.45693308
vt 0.11077672 0.46868164
vt 0.11077672 0.46868164
vt 0.11077672 0.46868164
vt 0.11077672 0.48043021
vt 0.11077672 0.48043021
vt 0.11077672 0.48043021
vt 0.11077672 0.43343595
vt 0.11077672 0.45693308
vt 0.11077672 0.46868164
vt 0.11077672 0.48043021
vt 0.11283275 0.48043021
vt 0.11283275 0.48043021
vt 0.11283275 0.48043021
vt 0.11283275 0.48043021
vt 0.11403210 0.46868164
vt 0.11403210 0.46868164
vt 0.11403210 0.46868164
vt 0.11403210 0.46868164
vt 0.11457577 0.48043021
vt 0.11457577 0.48043021
vt 0.11457577 0.48043021
vt 0.11457577 0.48043021
vt 0.11523145 0.45693308
vt 0.11523145 0.45693308
vt 0.11523145 0.45693308
vt 0.11523145 0.45693308
vt 0.11679188 0.46868164
vt 0.11679188 0.46868164
vt 0.11679188 0.46868164
vt 0.11679188 0.46868164
vt 0.11763015 0.43343595
vt 0.11763015 0.43343595
vt 0.11763015 0.43343595
vt 0.11763015 0.43343595
vt 0.11900798 0.45693308
vt 0.11900798 0.45693308
vt 0.11900798 0.45693308
vt 0.11900798 0.45693308
vt 0.12344020 0.43343595
vt 0.12344020 0.43343595
vt 0.12344020 0.43343595
vt 0.12344020 0.43343595
vt 0.12557884 0.47372867
vt 0.12610736 0.47107160
vt 0.12610736 0.47638574
vt 0.12761247 0.46881904
vt 0.12761247 0.47863830
vt 0.12986503 0.46731393
vt 0.12986503 0.48014341
vt 0.13252210 0.46678541
vt 0.13252210 0.48067193
vt 0.13517917 0.46731393
vt 0.13517917 0.48014341
vt 0.13743172 0.46881904
vt 0.13743172 0.47863830
vt 0.13856355 0.44670359
vt 0.13893683 0.47107160
vt 0.13893683 0.47638574
vt 0.13946536 0.47372867
vt 0.13957288 0.44162933
vt 0.13957288 0.45177786
vt 0.14244723 0.45607962
vt 0.14244723 0.43732757
vt 0.14333704 0.44670359
vt 0.14333704 0.44670359
vt 0.14398302 0.44345606
vt 0.14398302 0.44995112
vt 0.14398302 0.44345606
vt 0.14398302 0.44995112
vt 0.14582259 0.45270425
vt 0.14582259 0.44070294
vt 0.14582259 0.44070294
vt 0.14582259 0.45270425
vt 0.14674898 0.43445323
vt 0.14674898 0.45895396
vt 0.14857572 0.43886336
vt 0.14857572 0.45454383
vt 0.14857572 0.43886336
vt 0.14857572 0.45454383
vt 0.15182325 0.43344390
vt 0.15182325 0.43821739
vt 0.15182325 0.45518980
vt 0.15182325 0.45996329
vt 0.15182325 0.43821739
vt 0.15182325 0.45518980
vt 0.15507078 0.43886336
vt 0.15507078 0.45454383
vt 0.15507078 0.43886336
vt 0.15507078 0.45454383
vt 0.15689752 0.43445323
vt 0.15689752 0.45895396
vt 0.15782390 0.44070294
vt 0.15782390 0.45270425
vt 0.15782390 0.44070294
vt 0.15782390 0.45270425
vt 0.15966348 0.44345606
vt 0.15966348 0.44995112
vt 0.15966348 0.44345606
vt 0.15966348 0.44995112
vt 0.16030946 0.44670359
vt 0.16030946 0.44670359
vt 0.16119927 0.43732757
vt 0.16119927 0.45607962
vt 0.16407361 0.44162933
vt 0.16407361 0.45177786
vt 0.16508295 0.44670359
vt 0.18853301 0.38422387
vt 0.18853301 0.36331776
vt 0.18853301 0.38412877
vt 0.18853301 0.38422387
vt 0.18853301 0.38422387
vt 0.19113438 0.41117279
vt 0.19113438 0.41117279
vt 0.19113438 0.41120020
vt 0.19113438 0.42680845
vt 0.20674264 0.41117279
vt 0.20674264 0.41117279
vt 0.20674264 0.41120020
vt 0.20674264 0.42680845
vt 0.20674264 0.41117279
vt 0.20934401 0.36331776
vt 0.20934401 0.38412877
vt 0.20934401 0.38422387
vt 0.20934401 0.38422387
vt 0.21739579 0.37591994
vt 0.21739579 0.37692025
vt 0.21739579 0.37933523
vt 0.21739579 0.38175020
vt 0.21739579 0.38275052
vt 0.30208959 0.37591994
vt 0.30208959 0.37692025
vt 0.30208959 0.37933523
vt 0.30208959 0.38175020
vt 0.30208959 0.38275052
vn -0.68206792 -0.72709184 -7.8235596e-2
vn -0.36913250 -0.92906380 -2.4117371e-2
vn 4.3099322e-16 -0.99998693 -5.1135775e-3
vn 0.36913250 -0.92906380 -2.4117371e-2
vn 0.68206792 -0.72709184 -7.8235596e-2
vn 0.89116469 -0.42481943 -0.15922924
vn 0.96458971 -6.8264817e-2 -0.25476776
vn 0.89116469 0.28828980 -0.35030629
vn 0.68206792 0.59056220 -0.43129993
vn 0.36913250 0.79253417 -0.48541816
vn 4.2392775e-17 0.86345729 -0.50442195
vn -0.36913250 0.79253417 -0.48541816
vn -0.68206792 0.59056220 -0.43129993
vn -0.89116469 0.28828980 -0.35030629
vn -0.96458971 -6.8264817e-2 -0.25476776
vn -0.89116469 -0.42481943 -0.15922924
vn -0.89116469 -0.42481943 -0.15922924
vn -0.96458971 -6.8264817e-2 -0.25476776
vn -0.89116469 0.28828980 -0.35030629
vn -0.68206792 0.59056220 -0.43129993
vn -0.36913250 0.79253417 -0.48541816
vn 8.4785551e-17 0.86345729 -0.50442195
vn 0.36913250 0.79253417 -0.48541816
vn 0.68206792 0.59056220 -0.43129993
vn 0.89116469 0.28828980 -0.35030629
vn 0.96458971 -6.8264817e-2 -0.25476776
vn 0.89116469 -0.42481943 -0.15922924
vn 0.68206792 -0.72709184 -7.8235596e-2
vn 0.36913250 -0.92906380 -2.4117371e-2
vn 1.1446049e-15 -0.99998693 -5.1135775e-3
vn -0.36913250 -0.92906380 -2.4117371e-2
vn -0.68206792 -0.72709184 -7.8235596e-2
vn -0.99996713 1.2016910e-16 -8.1078416e-3
vn -0.70708354 0.70708354 -8.1078416e-3
vn 2.4033819e-16 0.99996713 -8.1078416e-3
vn 0.70708354 0.70708354 -8.1078416e-3
vn 0.99996713 -9.0126822e-17 -8.1078416e-3
vn 0.70708354 -0.70708354 -8.1078416e-3
vn 0.0000000e+0 -0.99996713 -8.1078416e-3
vn -0.70708354 -0.70708354 -8.1078416e-3
vn -0.70708354 -0.70708354 -8.1078416e-3
vn 0.0000000e+0 -0.99996713 -8.1078416e-3
vn 0.70708354 -0.70708354 -8.1078416e-3
vn 0.99996713 -9.0126822e-17 -8.1078416e-3
vn 0.70708354 0.70708354 -8.1078416e-3
vn 2.4033819e-16 0.99996713 -8.1078416e-3
vn -0.70708354 0.70708354 -8.1078416e-3
vn -0.99996713 1.2016910e-16 -8.1078416e-3
vn 1.1716801e-16 0.99533009 -9.6529858e-2
vn 0.0000000e+0 0.0000000e+0 -1.00000000
vn 0.99533009 -1.1716801e-16 -9.6529858e-2
vn 1.1716801e-16 0.99533009 -9.6529858e-2
vn 0.0000000e+0 0.0000000e+0 1.00000000
vn 0.99533009 -1.1716801e-16 -9.6529858e-2
vn -1.4646001e-16 -0.99533009 -9.6529858e-2
vn 0.0000000e+0 0.0000000e+0 -1.00000000
vn 0.99533009 -1.1716801e-16 -9.6529858e-2
vn -1.4646001e-16 -0.99533009 -9.6529858e-2
vn 0.0000000e+0 0.0000000e+0 1.00000000
vn 0.99533009 -1.1716801e-16 -9.6529858e-2
vn 1.1716801e-16 0.99533009 -9.6529858e-2
vn 0.0000000e+0 0.0000000e+0 -1.00000000
vn -0.99533009 1.7575201e-16 -9.6529858e-2
vn 1.1716801e-16 0.99533009 -9.6529858e-2
vn 0.0000000e+0 0.0000000e+0 1.00000000
vn -0.99533009 1.7575201e-16 -9.6529858e-2
vn -1.4646001e-16 -0.99533009 -9.6529858e-2
vn 0.0000000e+0 0.0000000e+0 -1.00000000
vn -0.99533009 1.7575201e-16 -9.6529858e-2
vn -1.4646001e-16 -0.99533009 -9.6529858e-2
vn 0.0000000e+0 0.0000000e+0 1.00000000
vn -0.99533009 1.7575201e-16 -9.6529858e-2
vn 4.2285641e-16 0.25881905 0.96592583
vn -0.61394061 0.20429939 0.76245569
vn -0.61394061 0.20429939 0.76245569
vn 4.2285641e-16 0.25881905 0.96592583
vn -0.56720717 0.43123874 0.70164748
vn -0.56720717 0.43123874 0.70164748
vn 4.2285641e-16 0.25881905 0.96592583
vn -0.43412157 0.62362862 0.65009676
vn -0.43412157 0.62362862 0.65009676
vn 4.2285641e-16 0.25881905 0.96592583
vn -0.23494490 0.75217944 0.61565168
vn -0.23494490 0.75217944 0.61565168
vn 4.2285641e-16 0.25881905 0.96592583
vn -4.8933105e-17 0.79732048 0.60355617
vn -4.8933105e-17 0.79732048 0.60355617
vn 4.2285641e-16 0.25881905 0.96592583
vn 0.23494490 0.75217944 0.61565168
vn 0.23494490 0.75217944 0.61565168
vn 4.2285641e-16 0.25881905 0.96592583
vn 0.43412157 0.62362862 0.65009676
vn 0.43412157 0.62362862 0.65009676
vn 4.2285641e-16 0.25881905 0.96592583
vn 0.56720717 0.43123874 0.70164748
vn 0.56720717 0.43123874 0.70164748
vn 4.2285641e-16 0.25881905 0.96592583
vn 0.61394061 0.20429939 0.76245569
vn 0.61394061 0.20429939 0.76245569
vn 4.2285641e-16 0.25881905 0.96592583
vn 0.56720717 -2.2639961e-2 0.82326391
vn 0.56720717 -2.2639961e-2 0.82326391
vn 4.2285641e-16 0.25881905 0.96592583
vn 0.43412157 -0.21502985 0.87481462
vn 0.43412157 -0.21502985 0.87481462
vn 4.2285641e-16 0.25881905 0.96592583
vn 0.23494490 -0.34358066 0.90925971
vn 0.23494490 -0.34358066 0.90925971
vn 4.2285641e-16 0.25881905 0.96592583
vn -6.2913993e-17 -0.38872171 0.92135522
vn -6.2913993e-17 -0.38872171 0.92135522
vn 4.2285641e-16 0.25881905 0.96592583
vn -0.23494490 -0.34358066 0.90925971
vn -0.23494490 -0.34358066 0.90925971
vn 4.2285641e-16 0.25881905 0.96592583
vn -0.43412157 -0.21502985 0.87481462
vn -0.43412157 -0.21502985 0.87481462
vn 4.2285641e-16 0.25881905 0.96592583
vn -0.56720717 -2.2639961e-2 0.82326391
vn -0.56720717 -2.2639961e-2 0.82326391
vn -0.61394061 0.20429939 0.76245569
vn -0.61394061 0.20429939 0.76245569
vn -0.96458971 -6.8264817e-2 -0.25476776
vn -0.96458971 -6.8264817e-2 -0.25476776
vn -0.56720717 0.43123874 0.70164748
vn -0.56720717 0.43123874 0.70164748
vn -0.89116469 0.28828980 -0.35030629
vn -0.89116469 0.28828980 -0.35030629
vn -0.43412157 0.62362862 0.65009676
vn -0.43412157 0.62362862 0.65009676
vn -0.68206792 0.59056220 -0.43129993
vn -0.68206792 0.59056220 -0.43129993
vn -0.23494490 0.75217944 0.61565168
vn -0.23494490 0.75217944 0.61565168
vn -0.36913250 0.79253417 -0.48541816
vn -0.36913250 0.79253417 -0.48541816
vn -4.8933105e-17 0.79732048 0.60355617
vn -4.8933105e-17 0.79732048 0.60355617
vn -2.8261850e-17 0.86345729 -0.50442195
vn -2.8261850e-17 0.86345729 -0.50442195
vn 0.23494490 0.75217944 0.61565168
vn 0.23494490 0.75217944 0.61565168
vn 0.36913250 0.79253417 -0.48541816
vn 0.36913250 0.79253417 -0.48541816
vn 0.43412157 0.62362862 0.65009676
vn 0.43412157 0.62362862 0.65009676
vn 0.68206792 0.59056220 -0.43129993
vn 0.68206792 0.59056220 -0.43129993
vn 0.56720717 0.43123874 0.70164748
vn 0.56720717 0.43123874 0.70164748
vn 0.89116469 0.28828980 -0.35030629
vn 0.89116469 0.28828980 -0.35030629
vn 0.61394061 0.20429939 0.76245569
vn 0.61394061 0.20429939 0.76245569
vn 0.96458971 -6.8264817e-2 -0.25476776
vn 0.96458971 -6.8264817e-2 -0.25476776
vn 0.56720717 -2.2639961e-2 0.82326391
vn 0.56720717 -2.2639961e-2 0.82326391
vn 0.89116469 -0.42481943 -0.15922924
vn 0.89116469 -0.42481943 -0.15922924
vn 0.43412157 -0.21502985 0.87481462
vn 0.43412157 -0.21502985 0.87481462
vn 0.68206792 -0.72709184 -7.8235596e-2
vn 0.68206792 -0.72709184 -7.8235596e-2
vn 0.23494490 -0.34358066 0.90925971
vn 0.23494490 -0.34358066 0.90925971
vn 0.36913250 -0.92906380 -2.4117371e-2
vn 0.36913250 -0.92906380 -2.4117371e-2
vn -6.2913993e-17 -0.38872171 0.92135522
vn -6.2913993e-17 -0.38872171 0.92135522
vn -4.2392775e-17 -0.99998693 -5.1135775e-3
vn -4.2392775e-17 -0.99998693 -5.1135775e-3
vn -0.23494490 -0.34358066 0.90925971
vn -0.23494490 -0.34358066 0.90925971
vn -0.36913250 -0.92906380 -2.4117371e-2
vn -0.36913250 -0.92906380 -2.4117371e-2
vn -0.43412157 -0.21502985 0.87481462
vn -0.43412157 -0.21502985 0.87481462
vn -0.68206792 -0.72709184 -7.8235596e-2
vn -0.68206792 -0.72709184 -7.8235596e-2
vn -0.56720717 -2.2639961e-2 0.82326391
vn -0.56720717 -2.2639961e-2 0.82326391
vn -0.89116469 -0.42481943 -0.15922924
vn -0.89116469 -0.42481943 -0.15922924
vn 9.6223325e-16 -0.25881905 -0.96592583
vn -0.89116469 -0.42481943 -0.15922924
vn -0.89116469 -0.42481943 -0.15922924
vn 9.6223325e-16 -0.25881905 -0.96592583
vn -0.96458971 -6.8264817e-2 -0.25476776
vn -0.96458971 -6.8264817e-2 -0.25476776
vn 9.6223325e-16 -0.25881905 -0.96592583
vn -0.89116469 0.28828980 -0.35030629
vn -0.89116469 0.28828980 -0.35030629
vn 9.6223325e-16 -0.25881905 -0.96592583
vn -0.68206792 0.59056220 -0.43129993
vn -0.68206792 0.59056220 -0.43129993
vn 9.6223325e-16 -0.25881905 -0.96592583
vn -0.36913250 0.79253417 -0.48541816
vn -0.36913250 0.79253417 -0.48541816
vn 9.6223325e-16 -0.25881905 -0.96592583
vn 5.6523700e-17 0.86345729 -0.50442195
vn 5.6523700e-17 0.86345729 -0.50442195
vn 9.6223325e-16 -0.25881905 -0.96592583
vn 0.36913250 0.79253417 -0.48541816
vn 0.36913250 0.79253417 -0.48541816
vn 9.6223325e-16 -0.25881905 -0.96592583
vn 0.68206792 0.59056220 -0.43129993
vn 0.68206792 0.59056220 -0.43129993
vn 9.6223325e-16 -0.25881905 -0.96592583
vn 0.89116469 0.28828980 -0.35030629
vn 0.89116469 0.28828980 -0.35030629
vn 9.6223325e-16 -0.25881905 -0.96592583
vn 0.96458971 -6.8264817e-2 -0.25476776
vn 0.96458971 -6.8264817e-2 -0.25476776
vn 9.6223325e-16 -0.25881905 -0.96592583
vn 0.89116469 -0.42481943 -0.15922924
vn 0.89116469 -0.42481943 -0.15922924
vn 9.6223325e-16 -0.25881905 -0.96592583
vn 0.68206792 -0.72709184 -7.8235596e-2
vn 0.68206792 -0.72709184 -7.8235596e-2
vn 9.6223325e-16 -0.25881905 -0.96592583
vn 0.36913250 -0.92906380 -2.4117371e-2
vn 0.36913250 -0.92906380 -2.4117371e-2
vn 9.6223325e-16 -0.25881905 -0.96592583
vn 1.3848307e-15 -0.99998693 -5.1135775e-3
vn 1.3848307e-15 -0.99998693 -5.1135775e-3
vn 9.6223325e-16 -0.25881905 -0.96592583
vn -0.36913250 -0.92906380 -2.4117371e-2
vn -0.36913250 -0.92906380 -2.4117371e-2
vn 9.6223325e-16 -0.25881905 -0.96592583
vn -0.68206792 -0.72709184 -7.8235596e-2
vn -0.68206792 -0.72709184 -7.8235596e-2
g Libra_Antenna_1_Libra_Antenna_1_auv
usemtl Libra_Antenna_1_auv
s 1
f 2/160/53 6/147/65 8/146/71 4/159/59
f 3/152/56 7/156/68 5/157/62 1/153/50
f 9/103/73 24/106/118 23/110/115 22/116/112 21/122/109 20/126/106 19/132/103 18/136/100 17/139/97 16/137/94 15/133/91 14/127/88 13/123/85 12/117/82 11/111/79 10/107/76
f 25/34/123 71/37/15 72/17/16 40/10/183
f 26/71/127 70/62/14 71/37/15 25/34/124
f 27/78/131 69/74/13 70/62/14 26/71/128
f 28/11/135 68/19/12 69/7/13 27/3/132
f 29/35/139 67/38/11 68/19/12 28/11/136
f 30/69/143 66/63/10 67/38/11 29/35/140
f 31/79/147 65/75/9 66/63/10 30/69/144
f 32/9/151 64/18/8 65/5/9 31/1/148
f 33/33/155 63/36/7 64/18/8 32/9/152
f 34/70/159 62/61/6 63/36/7 33/33/156
f 35/77/163 61/73/5 62/61/6 34/70/160
f 36/12/167 60/20/4 61/8/5 35/4/164
f 37/45/171 59/46/3 60/20/4 36/12/168
f 38/72/175 58/64/2 59/46/3 37/45/172
f 39/80/179 57/76/1 58/64/2 38/72/176
f 40/10/184 72/17/16 57/6/1 39/2/180
f 41/30/186 73/25/17 74/40/18 42/43/189
f 42/43/190 74/40/18 75/53/19 43/49/192
f 43/49/193 75/53/19 76/66/20 44/58/195
f 44/23/196 76/15/20 77/27/21 45/31/198
f 45/31/199 77/27/21 78/41/22 46/44/201
f 46/44/202 78/41/22 79/55/23 47/51/204
f 47/51/205 79/55/23 80/67/24 48/59/207
f 48/21/208 80/13/24 81/26/25 49/29/210
f 49/29/211 81/26/25 82/39/26 50/42/213
f 50/42/214 82/39/26 83/54/27 51/50/216
f 51/50/217 83/54/27 84/65/28 52/57/219
f 52/24/220 84/16/28 85/28/29 53/32/222
f 53/32/223 85/28/29 86/47/30 54/48/225
f 54/48/226 86/47/30 87/56/31 55/52/228
f 55/52/229 87/56/31 88/68/32 56/60/231
f 56/22/232 88/14/32 73/25/17 41/30/187
f 57/6/1 72/17/16 73/25/17 88/14/32
f 74/40/18 73/25/17 72/17/16 71/37/15
f 75/53/19 74/40/18 71/37/15 70/62/14
f 76/66/20 75/53/19 70/62/14 69/74/13
f 77/27/21 76/15/20 69/7/13 68/19/12
f 78/41/22 77/27/21 68/19/12 67/38/11
f 79/55/23 78/41/22 67/38/11 66/63/10
f 80/67/24 79/55/23 66/63/10 65/75/9
f 81/26/25 80/13/24 65/5/9 64/18/8
f 82/39/26 81/26/25 64/18/8 63/36/7
f 83/54/27 82/39/26 63/36/7 62/61/6
f 84/65/28 83/54/27 62/61/6 61/73/5
f 85/28/29 84/16/28 61/8/5 60/20/4
f 86/47/30 85/28/29 60/20/4 59/46/3
f 87/56/31 86/47/30 59/46/3 58/64/2
f 88/68/32 87/56/31 58/64/2 57/76/1
f 89/167/33 104/172/48 97/171/41 96/166/40
f 90/166/34 103/171/47 104/172/48 89/167/33
f 91/165/35 102/170/46 103/171/47 90/166/34
f 92/164/36 101/169/45 102/170/46 91/165/35
f 93/163/37 100/168/44 101/169/45 92/164/36
f 94/164/38 99/169/43 100/168/44 93/163/37
f 95/165/39 98/170/42 99/169/43 94/164/38
f 96/166/40 97/171/41 98/170/42 95/165/39
s 2
f 1/154/49 5/150/61 6/149/64 2/162/52
f 4/149/58 8/162/70 7/155/67 3/151/55
f 9/102/74 25/94/121 40/98/181 24/104/119
f 10/105/78 26/99/126 25/94/122 9/102/75
f 11/108/81 27/100/130 26/99/125 10/105/77
f 12/115/84 28/113/134 27/100/129 11/108/80
f 13/120/87 29/121/138 28/113/133 12/115/83
f 14/125/90 30/129/142 29/121/137 13/120/86
f 15/131/93 31/141/146 30/129/141 14/125/89
f 16/135/96 32/143/150 31/141/145 15/131/92
f 17/138/99 33/144/154 32/143/149 16/135/95
f 18/134/102 34/142/158 33/144/153 17/138/98
f 19/130/105 35/140/162 34/142/157 18/134/101
f 20/124/108 36/128/166 35/140/161 19/130/104
f 21/119/111 37/118/170 36/128/165 20/124/107
f 22/114/114 38/112/174 37/118/169 21/119/110
f 23/109/117 39/101/178 38/112/173 22/114/113
f 24/104/120 40/98/182 39/101/177 23/109/116
f 42/97/188 43/96/191 44/93/194 45/91/197 46/89/200 47/87/203 48/85/206 49/83/209 50/81/212 51/82/215 52/84/218 53/86/221 54/88/224 55/90/227 56/92/230 41/95/185
s 3
f 2/145/54 4/162/60 3/155/57 1/150/51
f 5/158/63 7/150/69 8/148/72 6/161/66
