# Exported from Wings 3D 1.5.4
mtllib rotanev_crew_s2_1_2_flag.mtl
o rotanev_crew_s2_1_2_flag
#10 vertices, 4 faces
v -0.61333051 -0.40000000 -1.08986541
v -0.61333051 0.40000000 -1.08986541
v 0.61333051 -0.40000000 -1.08986541
v 0.61333051 0.40000000 -1.08986541
v 0.0000000e+0 0.40000000 -1.25250000
v 0.0000000e+0 -0.40000000 -1.25250000
v -0.32352381 0.40000000 -1.20990728
v -0.32352381 -0.40000000 -1.20990728
v 0.32352381 -0.40000000 -1.20990728
v 0.32352381 0.40000000 -1.20990728
vt 0.0000000e+0 1.00000000
vt 5.5511151e-16 0.0000000e+0
vt 0.23625655 1.00000000
vt 0.23625655 2.5535012e-16
vt 0.50000000 1.00000000
vt 0.50000000 4.2558354e-16
vt 0.76374345 1.00000000
vt 0.76374345 7.6605037e-16
vt 1.00000000 1.00000000
vt 1.00000000 1.1065172e-15
vn -0.38268343 1.5207922e-16 -0.92387953
vn -0.38268343 1.5207922e-16 -0.92387953
vn 0.38268343 -9.6777683e-17 -0.92387953
vn 0.38268343 -9.6777683e-17 -0.92387953
vn -5.5990155e-16 2.0777616e-16 -1.00000000
vn -5.5990155e-16 2.0777616e-16 -1.00000000
vn -5.5990155e-16 2.0777616e-16 -1.00000000
vn -5.5990155e-16 2.0777616e-16 -1.00000000
vn -0.25881905 1.6550330e-16 -0.96592583
vn -0.25881905 1.6550330e-16 -0.96592583
vn -0.25881905 1.6550330e-16 -0.96592583
vn -0.25881905 1.6550330e-16 -0.96592583
vn 0.25881905 7.0162222e-17 -0.96592583
vn 0.25881905 7.0162222e-17 -0.96592583
vn 0.25881905 7.0162222e-17 -0.96592583
vn 0.25881905 7.0162222e-17 -0.96592583
g rotanev_crew_s2_1_2_flag_rotanev_crew_s2_1_2_flag_auv
usemtl rotanev_crew_s2_1_2_flag_auv
s 2
f 2/9/2 7/7/9 8/8/11 1/10/1
f 3/2/3 9/4/13 10/3/15 4/1/4
f 6/6/7 8/8/12 7/7/10 5/5/5
f 10/3/16 9/4/14 6/6/8 5/5/6
