# Exported from Wings 3D 1.5.4
mtllib tv_cam_base.mtl
o base2
#49 vertices, 38 faces
v -3.7500000e-2 2.5000000e-2 -7.5000000e-2
v -3.7500000e-2 -2.5000000e-2 -7.5000000e-2
v -3.7500000e-2 -1.7677670e-2 -9.2677670e-2
v -3.7500000e-2 3.2326742e-17 -0.10000000
v -3.7500000e-2 1.7677670e-2 -9.2677670e-2
v 3.7500000e-2 2.5000000e-2 -7.5000000e-2
v 3.7500000e-2 -2.5000000e-2 -7.5000000e-2
v 3.7500000e-2 -1.7677670e-2 -9.2677670e-2
v 3.7500000e-2 2.8312459e-17 -0.10000000
v 3.7500000e-2 1.7677670e-2 -9.2677670e-2
v 3.7500000e-2 2.5000000e-2 -5.0000000e-2
v -3.7500000e-2 2.5000000e-2 -5.0000000e-2
v -3.7500000e-2 -2.5000000e-2 -5.0000000e-2
v 3.7500000e-2 -2.5000000e-2 -5.0000000e-2
v 3.7500000e-2 2.5000000e-2 2.5000000e-2
v -3.7500000e-2 2.5000000e-2 2.5000000e-2
v -3.7500000e-2 -2.5000000e-2 2.5000000e-2
v 3.7500000e-2 -2.5000000e-2 2.5000000e-2
v -2.5000000e-2 -2.5000000e-2 -5.0000000e-2
v 2.5000000e-2 -2.5000000e-2 -5.0000000e-2
v 2.5000000e-2 2.5000000e-2 -5.0000000e-2
v -2.5000000e-2 2.5000000e-2 -5.0000000e-2
v -2.5000000e-2 1.7677670e-2 -9.2677670e-2
v 2.5000000e-2 1.7677670e-2 -9.2677670e-2
v -2.5000000e-2 3.1207199e-17 -0.10000000
v 2.5000000e-2 3.0384668e-17 -0.10000000
v -2.5000000e-2 -1.7677670e-2 -9.2677670e-2
v 2.5000000e-2 -1.7677670e-2 -9.2677670e-2
v -2.5000000e-2 -2.5000000e-2 -7.5000000e-2
v 2.5000000e-2 -2.5000000e-2 -7.5000000e-2
v 2.5000000e-2 2.5000000e-2 -7.5000000e-2
v -2.5000000e-2 2.5000000e-2 -7.5000000e-2
v -3.7500000e-2 -1.2500000e-2 -7.5000000e-2
v -3.7500000e-2 -8.8388348e-3 -6.6161165e-2
v -3.7500000e-2 -1.6495488e-16 -6.2500000e-2
v -3.7500000e-2 8.8388348e-3 -6.6161165e-2
v -3.7500000e-2 1.2500000e-2 -7.5000000e-2
v -3.7500000e-2 8.8388348e-3 -8.3838835e-2
v -3.7500000e-2 -1.0595264e-16 -8.7500000e-2
v -3.7500000e-2 -8.8388348e-3 -8.3838835e-2
v -5.0000000e-2 -1.2500000e-2 -7.5000000e-2
v -5.0000000e-2 -8.8388348e-3 -6.6161165e-2
v -5.0000000e-2 -2.1001264e-16 -6.2500000e-2
v -5.0000000e-2 8.8388348e-3 -6.6161165e-2
v -5.0000000e-2 1.2500000e-2 -7.5000000e-2
v -5.0000000e-2 8.8388348e-3 -8.3838835e-2
v -5.0000000e-2 -1.5101040e-16 -8.7500000e-2
v -5.0000000e-2 -8.8388348e-3 -8.3838835e-2
v -5.0000000e-2 -1.8019440e-16 -7.5000000e-2
vt 0.61809119 0.74305583
vt 0.61809119 0.79004801
vt 0.61809119 0.79759544
vt 0.61809119 0.78250058
vt 0.61809119 0.77235943
vt 0.61809119 0.77235953
vt 0.61809119 0.78250068
vt 0.61809119 0.74305593
vt 0.61809119 0.79004811
vt 0.61809119 0.79759554
vt 0.62223256 0.78250058
vt 0.62223256 0.79759544
vt 0.62223256 0.79004801
vt 0.62223256 0.77235943
vt 0.62223256 0.77235953
vt 0.62223256 0.78250068
vt 0.62223256 0.79004811
vt 0.62223256 0.79759554
vt 0.63770079 0.77235953
vt 0.63770079 0.79759544
vt 0.63770079 0.78250058
vt 0.63770079 0.78250068
vt 0.63770079 0.79004801
vt 0.63770079 0.79759554
vt 0.63770079 0.77235943
vt 0.63770079 0.79004811
vt 0.64181149 0.77235953
vt 0.64181149 0.74305583
vt 0.64181149 0.79004801
vt 0.64181149 0.79759544
vt 0.64181149 0.78250058
vt 0.64181149 0.79004811
vt 0.64181149 0.78250068
vt 0.64181149 0.77235943
vt 0.64181149 0.79759554
vt 0.64181149 0.74305593
vt 0.66302472 0.74148877
vt 0.66302472 0.76269273
vt 0.68657390 0.74148877
vt 0.68657390 0.76269273
vt 0.70805907 0.74179546
vt 0.70805907 0.75658724
vt 0.70805907 0.75673536
vt 0.70805907 0.76644843
vt 0.70805907 0.76659655
vt 0.71094735 0.77342135
vt 0.71094735 0.77356947
vt 0.71792026 0.77645774
vt 0.71792026 0.77630962
vt 0.72489318 0.77356947
vt 0.72489318 0.77342135
vt 0.72778145 0.74179546
vt 0.72778145 0.75658724
vt 0.72778145 0.75673536
vt 0.72778145 0.76644843
vt 0.72778145 0.76659655
vt 0.74726361 0.73986071
vt 0.74726361 0.76991793
vt 0.74726361 0.78059177
vt 0.75018654 0.78764836
vt 0.75776599 0.79057129
vt 0.76548355 0.78764836
vt 0.76840649 0.73986071
vt 0.76840649 0.76991793
vt 0.76840649 0.78059177
vt 0.78621176 0.76991793
vt 0.78621176 0.78059177
vt 0.78621176 0.73929839
vt 0.78913469 0.78764836
vt 0.79619128 0.79057129
vt 0.80290259 0.78764836
vt 0.80582552 0.73929839
vt 0.80582552 0.76991793
vt 0.80582552 0.78059177
vt 0.82625727 0.76619735
vt 0.82625727 0.77042593
vt 0.82787548 0.76229065
vt 0.82787548 0.77433263
vt 0.83004877 0.76831164
vt 0.83086554 0.77732268
vt 0.83086554 0.75930059
vt 0.83205151 0.76347662
vt 0.83205151 0.77314666
vt 0.83477224 0.75768238
vt 0.83477224 0.77894089
vt 0.83688653 0.76147388
vt 0.83688653 0.77514939
vt 0.83688653 0.76831164
vt 0.83900082 0.75768238
vt 0.83900082 0.77894089
vt 0.84172155 0.76347662
vt 0.84172155 0.77314666
vt 0.84290752 0.77732268
vt 0.84290752 0.75930059
vt 0.84372428 0.76831164
vt 0.84589758 0.76229065
vt 0.84589758 0.77433263
vt 0.84751578 0.76619735
vt 0.84751578 0.77042593
vn 3.8332335e-15 -1.00000000 -2.2832238e-15
vn 7.5131377e-16 -0.70710678 0.70710678
vn -2.2079425e-15 -3.0342843e-15 1.00000000
vn -4.1092264e-15 0.70710678 0.70710678
vn -3.8179006e-15 1.00000000 2.7338601e-15
vn -2.3152731e-15 0.70710678 -0.70710678
vn 1.1039713e-15 1.6523330e-15 -1.00000000
vn 4.5845473e-15 -0.70710678 -0.70710678
vn -1.00000000 -3.6185725e-15 -2.2877924e-15
vn 5.7773233e-17 0.98078528 -0.19509032
vn -1.00000000 0.0000000e+0 0.0000000e+0
vn 5.7773233e-17 0.98078528 -0.19509032
vn -1.2852158e-16 -0.98078528 -0.19509032
vn -1.00000000 0.0000000e+0 0.0000000e+0
vn -1.2852158e-16 -0.98078528 -0.19509032
vn -6.1331737e-17 -0.70710678 -0.70710678
vn -6.1331737e-17 -0.70710678 -0.70710678
vn -1.00000000 0.0000000e+0 0.0000000e+0
vn 3.0665868e-17 -1.2016967e-16 -1.00000000
vn 3.0665868e-17 -1.2016967e-16 -1.00000000
vn -1.00000000 0.0000000e+0 0.0000000e+0
vn 9.1997605e-17 0.70710678 -0.70710678
vn 9.1997605e-17 0.70710678 -0.70710678
vn -1.00000000 0.0000000e+0 0.0000000e+0
vn 1.00000000 -1.5242662e-16 6.9388939e-17
vn 5.7773233e-17 0.98078528 -0.19509032
vn 5.7773233e-17 0.98078528 -0.19509032
vn 1.00000000 -1.5242662e-16 6.9388939e-17
vn -1.2852158e-16 -0.98078528 -0.19509032
vn -1.2852158e-16 -0.98078528 -0.19509032
vn 1.00000000 -1.5242662e-16 6.9388939e-17
vn -1.2266347e-16 -0.70710678 -0.70710678
vn -1.2266347e-16 -0.70710678 -0.70710678
vn 1.00000000 -1.5242662e-16 6.9388939e-17
vn -1.3341514e-32 -6.0084837e-17 -1.00000000
vn -1.3341514e-32 -6.0084837e-17 -1.00000000
vn 1.00000000 -1.5242662e-16 6.9388939e-17
vn 1.2266347e-16 0.70710678 -0.70710678
vn 1.2266347e-16 0.70710678 -0.70710678
vn 1.00000000 -1.4560225e-16 3.4694470e-17
vn 0.0000000e+0 1.00000000 9.6373526e-18
vn 0.0000000e+0 1.00000000 9.6373526e-18
vn 1.00000000 -1.4560225e-16 3.4694470e-17
vn -1.00000000 0.0000000e+0 0.0000000e+0
vn 0.0000000e+0 1.00000000 9.6373526e-18
vn -1.00000000 0.0000000e+0 0.0000000e+0
vn 0.0000000e+0 1.00000000 9.6373526e-18
vn -1.00000000 0.0000000e+0 0.0000000e+0
vn -9.2518585e-17 -1.00000000 5.8787851e-17
vn -1.00000000 0.0000000e+0 0.0000000e+0
vn -9.2518585e-17 -1.00000000 5.8787851e-17
vn 1.00000000 -1.4560225e-16 3.4694470e-17
vn -9.2518585e-17 -1.00000000 5.8787851e-17
vn 1.00000000 -1.4560225e-16 3.4694470e-17
vn -9.2518585e-17 -1.00000000 5.8787851e-17
vn 0.0000000e+0 0.0000000e+0 1.00000000
vn 0.0000000e+0 1.00000000 1.9274705e-17
vn 1.00000000 -1.3877788e-16 0.0000000e+0
vn 0.0000000e+0 0.0000000e+0 1.00000000
vn 0.0000000e+0 1.00000000 1.9274705e-17
vn -1.00000000 0.0000000e+0 0.0000000e+0
vn 0.0000000e+0 0.0000000e+0 1.00000000
vn -1.00000000 0.0000000e+0 0.0000000e+0
vn -4.6259293e-17 -1.00000000 4.8186763e-17
vn 0.0000000e+0 0.0000000e+0 1.00000000
vn -4.6259293e-17 -1.00000000 4.8186763e-17
vn 1.00000000 -1.3877788e-16 0.0000000e+0
vn -9.2518585e-17 -1.00000000 5.8787851e-17
vn -9.2518585e-17 -1.00000000 5.8787851e-17
vn 1.00000000 -1.0161775e-16 0.0000000e+0
vn 0.0000000e+0 0.0000000e+0 -1.00000000
vn -9.2518585e-17 -1.00000000 5.8787851e-17
vn -9.2518585e-17 -1.00000000 5.8787851e-17
vn 0.0000000e+0 0.0000000e+0 -1.00000000
vn -1.00000000 0.0000000e+0 0.0000000e+0
vn 0.0000000e+0 1.00000000 9.6373526e-18
vn 0.0000000e+0 1.00000000 9.6373526e-18
vn 0.0000000e+0 0.0000000e+0 -1.00000000
vn -1.00000000 0.0000000e+0 0.0000000e+0
vn 0.0000000e+0 1.00000000 9.6373526e-18
vn 0.0000000e+0 1.00000000 9.6373526e-18
vn 1.00000000 -1.0161775e-16 0.0000000e+0
vn 0.0000000e+0 0.0000000e+0 -1.00000000
vn 9.1997605e-17 0.70710678 -0.70710678
vn 9.1997605e-17 0.70710678 -0.70710678
vn 1.00000000 -1.0161775e-16 0.0000000e+0
vn 1.2266347e-16 0.70710678 -0.70710678
vn 1.2266347e-16 0.70710678 -0.70710678
vn -1.00000000 0.0000000e+0 0.0000000e+0
vn 3.0665868e-17 -1.2016967e-16 -1.00000000
vn 3.0665868e-17 -1.2016967e-16 -1.00000000
vn 1.00000000 -1.0161775e-16 0.0000000e+0
vn -1.3341514e-32 -6.0084837e-17 -1.00000000
vn -1.3341514e-32 -6.0084837e-17 -1.00000000
vn -1.00000000 0.0000000e+0 0.0000000e+0
vn -6.1331737e-17 -0.70710678 -0.70710678
vn -6.1331737e-17 -0.70710678 -0.70710678
vn 1.00000000 -1.0161775e-16 0.0000000e+0
vn -1.2266347e-16 -0.70710678 -0.70710678
vn -1.2266347e-16 -0.70710678 -0.70710678
vn -1.00000000 0.0000000e+0 0.0000000e+0
vn -1.2852158e-16 -0.98078528 -0.19509032
vn -1.2852158e-16 -0.98078528 -0.19509032
vn 1.00000000 -1.0161775e-16 0.0000000e+0
vn -1.2852158e-16 -0.98078528 -0.19509032
vn -1.2852158e-16 -0.98078528 -0.19509032
vn -1.00000000 0.0000000e+0 0.0000000e+0
vn 5.7773233e-17 0.98078528 -0.19509032
vn 5.7773233e-17 0.98078528 -0.19509032
vn -1.00000000 0.0000000e+0 0.0000000e+0
vn 5.7773233e-17 0.98078528 -0.19509032
vn 5.7773233e-17 0.98078528 -0.19509032
vn 1.00000000 -1.0161775e-16 0.0000000e+0
vn 3.8332335e-15 -1.00000000 -2.2832238e-15
vn 3.8332335e-15 -1.00000000 -2.2832238e-15
vn -1.00000000 -2.9439234e-15 -2.3551387e-15
vn -1.00000000 -2.9439234e-15 -2.3551387e-15
vn 7.5131377e-16 -0.70710678 0.70710678
vn 7.5131377e-16 -0.70710678 0.70710678
vn -1.00000000 -2.6985964e-15 -2.7755576e-15
vn -1.00000000 -2.6985964e-15 -2.7755576e-15
vn -2.2079425e-15 -3.0342843e-15 1.00000000
vn -2.2079425e-15 -3.0342843e-15 1.00000000
vn -1.00000000 -3.6799042e-15 -2.7755576e-15
vn -1.00000000 -3.6799042e-15 -2.7755576e-15
vn -4.1092264e-15 0.70710678 0.70710678
vn -4.1092264e-15 0.70710678 0.70710678
vn -1.00000000 -4.4158850e-15 -2.7000408e-15
vn -1.00000000 -4.4158850e-15 -2.7000408e-15
vn -3.8179006e-15 1.00000000 2.7338601e-15
vn -3.8179006e-15 1.00000000 2.7338601e-15
vn -1.00000000 -4.4158850e-15 -2.3551387e-15
vn -1.00000000 -4.4158850e-15 -2.3551387e-15
vn -2.3152731e-15 0.70710678 -0.70710678
vn -2.3152731e-15 0.70710678 -0.70710678
vn -1.00000000 -4.6612120e-15 -1.8755440e-15
vn -1.00000000 -4.6612120e-15 -1.8755440e-15
vn 1.1039713e-15 1.6523330e-15 -1.00000000
vn 1.1039713e-15 1.6523330e-15 -1.00000000
vn -1.00000000 -3.4345773e-15 -1.6653345e-15
vn -1.00000000 -3.4345773e-15 -1.6653345e-15
vn 4.5845473e-15 -0.70710678 -0.70710678
vn 4.5845473e-15 -0.70710678 -0.70710678
vn -1.00000000 -2.6985964e-15 -1.8000272e-15
vn -1.00000000 -2.6985964e-15 -1.8000272e-15
g base2_2_auv
usemtl 2_auv
s 1
f 16/38/59 17/37/62 18/39/65 15/40/56
f 22/42/82 19/53/70 29/55/104 27/51/98 25/49/92 23/46/86 32/44/113
f 30/56/107 20/54/75 21/43/79 31/45/110 24/47/89 26/48/95 28/50/101
f 41/82/117 49/88/9 48/79/145
f 42/86/120 49/88/9 41/82/116
f 43/91/124 49/88/9 42/86/121
f 44/95/128 49/88/9 43/91/125
f 45/92/132 49/88/9 44/95/129
f 46/87/136 49/88/9 45/92/133
f 47/83/140 49/88/9 46/87/137
f 48/79/144 49/88/9 47/83/141
s 2
f 5/71/24 4/70/21 3/69/18 2/67/14 13/66/48 12/73/44 1/74/11
f 6/59/25 11/58/40 14/64/52 7/65/28 8/62/31 9/61/34 10/60/37
f 11/58/43 15/57/58 18/63/67 14/64/54
f 13/66/50 17/68/63 16/72/61 12/73/46
f 21/41/78 20/52/74 19/53/71 22/42/83
f 33/77/1 41/82/114 48/79/142 40/75/8
f 34/84/2 42/86/119 41/82/115 33/81/1
f 35/94/3 43/91/123 42/86/118 34/89/2
f 36/98/4 44/95/127 43/91/122 35/96/3
f 37/97/5 45/92/131 44/95/126 36/99/4
f 38/90/6 46/87/135 45/92/130 37/93/5
f 39/80/7 47/83/139 46/87/134 38/85/6
f 40/76/8 48/79/143 47/83/138 39/78/7
s 3
f 1/7/12 12/6/47 22/15/81 32/16/112
f 1/7/10 32/16/111 23/17/84 5/9/22
f 3/2/17 27/13/97 29/11/102 2/4/13
f 4/3/20 25/12/91 27/13/96 3/2/16
f 5/9/23 23/17/85 25/18/90 4/10/19
f 6/33/26 31/22/108 21/19/76 11/27/41
f 7/31/29 30/21/105 28/23/100 8/29/33
f 8/29/32 28/23/99 26/20/94 9/30/36
f 9/35/35 26/24/93 24/26/88 10/32/39
f 10/32/38 24/26/87 31/22/109 6/33/27
f 12/6/45 16/8/60 15/36/57 11/27/42 21/19/77 22/15/80
f 14/34/53 18/28/66 17/1/64 13/5/51 19/14/69 20/25/72
f 20/25/73 30/21/106 7/31/30 14/34/55
f 29/11/103 19/14/68 13/5/49 2/4/15
