# Exported from Wings 3D 1.5.4
mtllib Alniyat_Crew_2_1_Interior.mtl
o Alniyat_Crew_2_1_Interior
#120 vertices, 98 faces
v 0.92489214 0.91250000 -1.3996770e-18
v 0.89337720 0.91250000 0.23937970
v 0.80098009 0.91250000 0.46244607
v 0.65399750 0.91250000 0.65399750
v 0.46244607 0.91250000 0.80098009
v 0.23937970 0.91250000 0.89337720
v 5.0133292e-17 0.91250000 0.92489214
v -0.23937970 0.91250000 0.89337720
v -0.46244607 0.91250000 0.80098009
v -0.65399750 0.91250000 0.65399750
v -0.80098009 0.91250000 0.46244607
v -0.89337720 0.91250000 0.23937970
v -0.92489214 0.91250000 1.0393288e-16
v -0.89337720 0.91250000 -0.23937970
v -0.80098009 0.91250000 -0.46244607
v -0.65399750 0.91250000 -0.65399750
v -0.46244607 0.91250000 -0.80098009
v -0.23937970 0.91250000 -0.89337720
v -1.7527723e-16 0.91250000 -0.92489214
v 0.23937970 0.91250000 -0.89337720
v 0.46244607 0.91250000 -0.80098009
v 0.65399750 0.91250000 -0.65399750
v 0.80098009 0.91250000 -0.46244607
v 0.89337720 0.91250000 -0.23937970
v 0.92489214 -0.91250000 -1.3996770e-18
v 0.89337720 -0.91250000 0.23937970
v 0.80098009 -0.91250000 0.46244607
v 0.65399750 -0.91250000 0.65399750
v 0.46244607 -0.91250000 0.80098009
v 0.23937970 -0.91250000 0.89337720
v 5.0133292e-17 -0.91250000 0.92489214
v -0.23937970 -0.91250000 0.89337720
v -0.46244607 -0.91250000 0.80098009
v -0.65399750 -0.91250000 0.65399750
v -0.80098009 -0.91250000 0.46244607
v -0.89337720 -0.91250000 0.23937970
v -0.92489214 -0.91250000 1.0393288e-16
v -0.89337720 -0.91250000 -0.23937970
v -0.80098009 -0.91250000 -0.46244607
v -0.65399750 -0.91250000 -0.65399750
v -0.46244607 -0.91250000 -0.80098009
v -0.23937970 -0.91250000 -0.89337720
v -1.7527723e-16 -0.91250000 -0.92489214
v 0.23937970 -0.91250000 -0.89337720
v 0.46244607 -0.91250000 -0.80098009
v 0.65399750 -0.91250000 -0.65399750
v 0.80098009 -0.91250000 -0.46244607
v 0.89337720 -0.91250000 -0.23937970
v 0.89337720 0.0000000e+0 -0.23937970
v 0.80098009 0.0000000e+0 -0.46244607
v 0.65399750 0.0000000e+0 -0.65399750
v 0.46244607 0.0000000e+0 -0.80098009
v 0.23937970 0.0000000e+0 -0.89337720
v -1.7488929e-16 0.0000000e+0 -0.92489214
v -0.23937970 0.0000000e+0 -0.89337720
v -0.46244607 0.0000000e+0 -0.80098009
v -0.65399750 0.0000000e+0 -0.65399750
v -0.80098009 0.0000000e+0 -0.46244607
v -0.89337720 0.0000000e+0 -0.23937970
v -0.92489214 0.0000000e+0 1.0830254e-16
v -0.89337720 0.0000000e+0 0.23937970
v -0.80098009 0.0000000e+0 0.46244607
v -0.65399750 0.0000000e+0 0.65399750
v -0.46244607 0.0000000e+0 0.80098009
v -0.23937970 0.0000000e+0 0.89337720
v 4.6790432e-17 0.0000000e+0 0.92489214
v 0.23937970 0.0000000e+0 0.89337720
v 0.46244607 0.0000000e+0 0.80098009
v 0.65399750 0.0000000e+0 0.65399750
v 0.80098009 0.0000000e+0 0.46244607
v 0.89337720 0.0000000e+0 0.23937970
v 0.92489214 0.0000000e+0 9.0401942e-19
v 0.89337720 0.46250000 -0.23937970
v 0.80098009 0.46250000 -0.46244607
v 0.65399750 0.46250000 -0.65399750
v 0.46244607 0.46250000 -0.80098009
v 0.23937970 0.46250000 -0.89337720
v -1.7488929e-16 0.46250000 -0.92489214
v -0.23937970 0.46250000 -0.89337720
v -0.46244607 0.46250000 -0.80098009
v -0.65399750 0.46250000 -0.65399750
v -0.80098009 0.46250000 -0.46244607
v -0.89337720 0.46250000 -0.23937970
v -0.92489214 0.46250000 1.0830254e-16
v -0.89337720 0.46250000 0.23937970
v -0.80098009 0.46250000 0.46244607
v -0.65399750 0.46250000 0.65399750
v -0.46244607 0.46250000 0.80098009
v -0.23937970 0.46250000 0.89337720
v 4.6790432e-17 0.46250000 0.92489214
v 0.23937970 0.46250000 0.89337720
v 0.46244607 0.46250000 0.80098009
v 0.65399750 0.46250000 0.65399750
v 0.80098009 0.46250000 0.46244607
v 0.89337720 0.46250000 0.23937970
v 0.92489214 0.46250000 9.0401942e-19
v 0.92489214 -0.46250000 9.0401942e-19
v 0.89337720 -0.46250000 0.23937970
v 0.80098009 -0.46250000 0.46244607
v 0.65399750 -0.46250000 0.65399750
v 0.46244607 -0.46250000 0.80098009
v 0.23937970 -0.46250000 0.89337720
v 4.6790432e-17 -0.46250000 0.92489214
v -0.23937970 -0.46250000 0.89337720
v -0.46244607 -0.46250000 0.80098009
v -0.65399750 -0.46250000 0.65399750
v -0.80098009 -0.46250000 0.46244607
v -0.89337720 -0.46250000 0.23937970
v -0.92489214 -0.46250000 1.0830254e-16
v -0.89337720 -0.46250000 -0.23937970
v -0.80098009 -0.46250000 -0.46244607
v -0.65399750 -0.46250000 -0.65399750
v -0.46244607 -0.46250000 -0.80098009
v -0.23937970 -0.46250000 -0.89337720
v -1.7488929e-16 -0.46250000 -0.92489214
v 0.23937970 -0.46250000 -0.89337720
v 0.46244607 -0.46250000 -0.80098009
v 0.65399750 -0.46250000 -0.65399750
v 0.80098009 -0.46250000 -0.46244607
v 0.89337720 -0.46250000 -0.23937970
vt 0.0000000e+0 0.20710678
vt 0.0000000e+0 0.62132034
vt 7.0569924e-3 0.26070996
vt 7.0569924e-3 0.56771716
vt 7.0569924e-3 0.15350360
vt 7.0569924e-3 0.67492352
vt 2.7747047e-2 0.31066017
vt 2.7747047e-2 0.51776695
vt 2.7747047e-2 0.72487373
vt 2.7747047e-2 0.10355339
vt 6.0660172e-2 0.35355339
vt 6.0660172e-2 6.0660172e-2
vt 6.0660172e-2 0.47487373
vt 6.0660172e-2 0.76776695
vt 0.10355339 0.38646651
vt 0.10355339 0.44196061
vt 0.10355339 2.7747047e-2
vt 0.10355339 0.80068008
vt 0.15350360 0.40715657
vt 0.15350360 0.42127055
vt 0.15350360 7.0569924e-3
vt 0.15350360 0.82137013
vt 0.20710678 0.41421356
vt 0.20710678 0.0000000e+0
vt 0.20710678 0.41421356
vt 0.20710678 0.82842712
vt 0.26070996 0.40715657
vt 0.26070996 0.42127055
vt 0.26070996 7.0569924e-3
vt 0.26070996 0.82137013
vt 0.31066017 0.38646651
vt 0.31066017 0.44196061
vt 0.31066017 2.7747047e-2
vt 0.31066017 0.80068008
vt 0.35355339 0.35355339
vt 0.35355339 6.0660172e-2
vt 0.35355339 0.47487373
vt 0.35355339 0.76776695
vt 0.38646651 0.31066017
vt 0.38646651 0.51776695
vt 0.38646651 0.10355339
vt 0.38646651 0.72487373
vt 0.40715657 0.26070996
vt 0.40715657 0.15350360
vt 0.40715657 0.56771716
vt 0.40715657 0.67492352
vt 0.41421356 2.7755576e-17
vt 0.41421356 0.20433187
vt 0.41421356 0.20710678
vt 0.41421356 0.30789733
vt 0.41421356 0.40866374
vt 0.41421356 0.40866374
vt 0.41421356 0.50943014
vt 0.41421356 0.61299560
vt 0.41421356 0.62132034
vt 0.41421356 0.71656107
vt 0.41421356 0.81732747
vt 0.41421356 0.10076640
vt 0.45710678 0.40866374
vt 0.45710678 0.50943014
vt 0.45710678 0.61299560
vt 0.45710678 0.71656107
vt 0.45710678 0.81732747
vt 0.45710678 0.0000000e+0
vt 0.45710678 0.10076640
vt 0.45710678 0.20433187
vt 0.45710678 0.30789733
vt 0.45710678 0.40866374
vt 0.50705699 0.40866374
vt 0.50705699 0.50943014
vt 0.50705699 0.61299560
vt 0.50705699 0.71656107
vt 0.50705699 0.81732747
vt 0.50705699 2.7755576e-17
vt 0.50705699 0.10076640
vt 0.50705699 0.20433187
vt 0.50705699 0.30789733
vt 0.50705699 0.40866374
vt 0.56066017 2.7755576e-17
vt 0.56066017 0.10076640
vt 0.56066017 0.20433187
vt 0.56066017 0.30789733
vt 0.56066017 0.40866374
vt 0.56066017 0.40866374
vt 0.56066017 0.50943014
vt 0.56066017 0.61299560
vt 0.56066017 0.71656107
vt 0.56066017 0.81732747
vt 0.61426335 2.7755576e-17
vt 0.61426335 0.10076640
vt 0.61426335 0.20433187
vt 0.61426335 0.30789733
vt 0.61426335 0.40866374
vt 0.61426335 0.40866374
vt 0.61426335 0.50943014
vt 0.61426335 0.61299560
vt 0.61426335 0.71656107
vt 0.61426335 0.81732747
vt 0.66421356 5.5511151e-17
vt 0.66421356 0.10076640
vt 0.66421356 0.20433187
vt 0.66421356 0.30789733
vt 0.66421356 0.40866374
vt 0.66421356 0.40866374
vt 0.66421356 0.50943014
vt 0.66421356 0.61299560
vt 0.66421356 0.71656107
vt 0.66421356 0.81732747
vt 0.70710678 0.0000000e+0
vt 0.70710678 2.7755576e-17
vt 0.70710678 0.10076640
vt 0.70710678 0.10076640
vt 0.70710678 0.20433187
vt 0.70710678 0.20433187
vt 0.70710678 0.30789733
vt 0.70710678 0.40866374
vt 0.70710678 0.40866374
vt 0.70710678 0.40866374
vt 0.70710678 0.50943014
vt 0.70710678 0.50943014
vt 0.70710678 0.61299560
vt 0.70710678 0.61299560
vt 0.70710678 0.71656107
vt 0.70710678 0.71656107
vt 0.70710678 0.81732747
vt 0.70710678 0.81732747
vt 0.75000000 0.0000000e+0
vt 0.75000000 0.10076640
vt 0.75000000 0.20433187
vt 0.75000000 0.30789733
vt 0.75000000 0.40866374
vt 0.75000000 0.40866374
vt 0.75000000 0.50943014
vt 0.75000000 0.61299560
vt 0.75000000 0.71656107
vt 0.75000000 0.81732747
vt 0.79995021 0.0000000e+0
vt 0.79995021 0.10076640
vt 0.79995021 0.20433187
vt 0.79995021 0.30789733
vt 0.79995021 0.40866374
vt 0.79995021 0.40866374
vt 0.79995021 0.50943014
vt 0.79995021 0.61299560
vt 0.79995021 0.71656107
vt 0.79995021 0.81732747
vt 0.85355339 0.0000000e+0
vt 0.85355339 0.10076640
vt 0.85355339 0.20433187
vt 0.85355339 0.30789733
vt 0.85355339 0.40866374
vt 0.85355339 0.40866374
vt 0.85355339 0.50943014
vt 0.85355339 0.61299560
vt 0.85355339 0.71656107
vt 0.85355339 0.81732747
vt 0.90715657 0.0000000e+0
vt 0.90715657 0.10076640
vt 0.90715657 0.20433187
vt 0.90715657 0.30789733
vt 0.90715657 0.40866374
vt 0.90715657 0.40866374
vt 0.90715657 0.50943014
vt 0.90715657 0.61299560
vt 0.90715657 0.71656107
vt 0.90715657 0.81732747
vt 0.95710678 0.0000000e+0
vt 0.95710678 0.10076640
vt 0.95710678 0.20433187
vt 0.95710678 0.30789733
vt 0.95710678 0.40866374
vt 0.95710678 0.40866374
vt 0.95710678 0.50943014
vt 0.95710678 0.61299560
vt 0.95710678 0.71656107
vt 0.95710678 0.81732747
vt 1.00000000 0.40866374
vt 1.00000000 0.50943014
vt 1.00000000 0.61299560
vt 1.00000000 0.71656107
vt 1.00000000 0.81732747
vt 1.00000000 0.0000000e+0
vt 1.00000000 0.10076640
vt 1.00000000 0.20433187
vt 1.00000000 0.30789733
vt 1.00000000 0.40866374
vn -0.96592583 0.0000000e+0 0.25881905
vn -0.86602540 0.0000000e+0 0.50000000
vn -0.70710678 0.0000000e+0 0.70710678
vn -0.50000000 0.0000000e+0 0.86602540
vn -0.25881905 0.0000000e+0 0.96592583
vn 4.7591632e-16 0.0000000e+0 1.00000000
vn 0.25881905 0.0000000e+0 0.96592583
vn 0.50000000 0.0000000e+0 0.86602540
vn 0.70710678 0.0000000e+0 0.70710678
vn 0.86602540 0.0000000e+0 0.50000000
vn 0.96592583 0.0000000e+0 0.25881905
vn 1.00000000 0.0000000e+0 -3.6393601e-16
vn 0.96592583 0.0000000e+0 -0.25881905
vn 0.86602540 0.0000000e+0 -0.50000000
vn 0.70710678 0.0000000e+0 -0.70710678
vn 0.50000000 0.0000000e+0 -0.86602540
vn 0.25881905 0.0000000e+0 -0.96592583
vn -1.6797046e-16 0.0000000e+0 -1.00000000
vn -0.25881905 0.0000000e+0 -0.96592583
vn -0.50000000 0.0000000e+0 -0.86602540
vn -0.70710678 0.0000000e+0 -0.70710678
vn -0.86602540 0.0000000e+0 -0.50000000
vn -0.96592583 0.0000000e+0 -0.25881905
vn -1.00000000 0.0000000e+0 2.5195570e-16
vn -0.96592583 0.0000000e+0 0.25881905
vn -0.86602540 0.0000000e+0 0.50000000
vn -0.70710678 0.0000000e+0 0.70710678
vn -0.50000000 0.0000000e+0 0.86602540
vn -0.25881905 0.0000000e+0 0.96592583
vn 4.6891755e-16 0.0000000e+0 1.00000000
vn 0.25881905 0.0000000e+0 0.96592583
vn 0.50000000 0.0000000e+0 0.86602540
vn 0.70710678 0.0000000e+0 0.70710678
vn 0.86602540 0.0000000e+0 0.50000000
vn 0.96592583 0.0000000e+0 0.25881905
vn 1.00000000 0.0000000e+0 -3.5693724e-16
vn 0.96592583 0.0000000e+0 -0.25881905
vn 0.86602540 0.0000000e+0 -0.50000000
vn 0.70710678 0.0000000e+0 -0.70710678
vn 0.50000000 0.0000000e+0 -0.86602540
vn 0.25881905 0.0000000e+0 -0.96592583
vn -1.6797046e-16 0.0000000e+0 -1.00000000
vn -0.25881905 0.0000000e+0 -0.96592583
vn -0.50000000 0.0000000e+0 -0.86602540
vn -0.70710678 0.0000000e+0 -0.70710678
vn -0.86602540 0.0000000e+0 -0.50000000
vn -0.96592583 0.0000000e+0 -0.25881905
vn -1.00000000 0.0000000e+0 2.5195570e-16
vn -1.00000000 0.0000000e+0 2.5195570e-16
vn -0.96592583 0.0000000e+0 -0.25881905
vn -0.86602540 0.0000000e+0 -0.50000000
vn -0.70710678 0.0000000e+0 -0.70710678
vn -0.50000000 0.0000000e+0 -0.86602540
vn -0.25881905 0.0000000e+0 -0.96592583
vn -1.6797046e-16 0.0000000e+0 -1.00000000
vn 0.25881905 0.0000000e+0 -0.96592583
vn 0.50000000 0.0000000e+0 -0.86602540
vn 0.70710678 0.0000000e+0 -0.70710678
vn 0.86602540 0.0000000e+0 -0.50000000
vn 0.96592583 0.0000000e+0 -0.25881905
vn 1.00000000 0.0000000e+0 -3.5693724e-16
vn 0.96592583 0.0000000e+0 0.25881905
vn 0.86602540 0.0000000e+0 0.50000000
vn 0.70710678 0.0000000e+0 0.70710678
vn 0.50000000 0.0000000e+0 0.86602540
vn 0.25881905 0.0000000e+0 0.96592583
vn 4.6191878e-16 0.0000000e+0 1.00000000
vn -0.25881905 0.0000000e+0 0.96592583
vn -0.50000000 0.0000000e+0 0.86602540
vn -0.70710678 0.0000000e+0 0.70710678
vn -0.86602540 0.0000000e+0 0.50000000
vn -0.96592583 0.0000000e+0 0.25881905
vn -1.00000000 0.0000000e+0 2.5195570e-16
vn -1.00000000 0.0000000e+0 2.5195570e-16
vn 0.0000000e+0 -1.00000000 -3.9176159e-17
vn -0.96592583 0.0000000e+0 -0.25881905
vn -0.96592583 0.0000000e+0 -0.25881905
vn 0.0000000e+0 -1.00000000 -3.9176159e-17
vn -0.86602540 0.0000000e+0 -0.50000000
vn -0.86602540 0.0000000e+0 -0.50000000
vn 0.0000000e+0 -1.00000000 -3.9176159e-17
vn -0.70710678 0.0000000e+0 -0.70710678
vn -0.70710678 0.0000000e+0 -0.70710678
vn 0.0000000e+0 -1.00000000 -3.9176159e-17
vn -0.50000000 0.0000000e+0 -0.86602540
vn -0.50000000 0.0000000e+0 -0.86602540
vn 0.0000000e+0 -1.00000000 -3.9176159e-17
vn -0.25881905 0.0000000e+0 -0.96592583
vn -0.25881905 0.0000000e+0 -0.96592583
vn 0.0000000e+0 -1.00000000 -3.9176159e-17
vn -1.6797046e-16 0.0000000e+0 -1.00000000
vn -1.6797046e-16 0.0000000e+0 -1.00000000
vn 0.0000000e+0 -1.00000000 -3.9176159e-17
vn 0.25881905 0.0000000e+0 -0.96592583
vn 0.25881905 0.0000000e+0 -0.96592583
vn 0.0000000e+0 -1.00000000 -3.9176159e-17
vn 0.50000000 0.0000000e+0 -0.86602540
vn 0.50000000 0.0000000e+0 -0.86602540
vn 0.0000000e+0 -1.00000000 -3.9176159e-17
vn 0.70710678 0.0000000e+0 -0.70710678
vn 0.70710678 0.0000000e+0 -0.70710678
vn 0.0000000e+0 -1.00000000 -3.9176159e-17
vn 0.86602540 0.0000000e+0 -0.50000000
vn 0.86602540 0.0000000e+0 -0.50000000
vn 0.0000000e+0 -1.00000000 -3.9176159e-17
vn 0.96592583 0.0000000e+0 -0.25881905
vn 0.96592583 0.0000000e+0 -0.25881905
vn 0.0000000e+0 -1.00000000 -3.9176159e-17
vn 1.00000000 0.0000000e+0 -3.4993847e-16
vn 1.00000000 0.0000000e+0 -3.4993847e-16
vn 0.0000000e+0 -1.00000000 -3.9176159e-17
vn 0.96592583 0.0000000e+0 0.25881905
vn 0.96592583 0.0000000e+0 0.25881905
vn 0.0000000e+0 -1.00000000 -3.9176159e-17
vn 0.86602540 0.0000000e+0 0.50000000
vn 0.86602540 0.0000000e+0 0.50000000
vn 0.0000000e+0 -1.00000000 -3.9176159e-17
vn 0.70710678 0.0000000e+0 0.70710678
vn 0.70710678 0.0000000e+0 0.70710678
vn 0.0000000e+0 -1.00000000 -3.9176159e-17
vn 0.50000000 0.0000000e+0 0.86602540
vn 0.50000000 0.0000000e+0 0.86602540
vn 0.0000000e+0 -1.00000000 -3.9176159e-17
vn 0.25881905 0.0000000e+0 0.96592583
vn 0.25881905 0.0000000e+0 0.96592583
vn 0.0000000e+0 -1.00000000 -3.9176159e-17
vn 4.6191878e-16 0.0000000e+0 1.00000000
vn 4.6191878e-16 0.0000000e+0 1.00000000
vn 0.0000000e+0 -1.00000000 -3.9176159e-17
vn -0.25881905 0.0000000e+0 0.96592583
vn -0.25881905 0.0000000e+0 0.96592583
vn 0.0000000e+0 -1.00000000 -3.9176159e-17
vn -0.50000000 0.0000000e+0 0.86602540
vn -0.50000000 0.0000000e+0 0.86602540
vn 0.0000000e+0 -1.00000000 -3.9176159e-17
vn -0.70710678 0.0000000e+0 0.70710678
vn -0.70710678 0.0000000e+0 0.70710678
vn 0.0000000e+0 -1.00000000 -3.9176159e-17
vn -0.86602540 0.0000000e+0 0.50000000
vn -0.86602540 0.0000000e+0 0.50000000
vn 0.0000000e+0 -1.00000000 -3.9176159e-17
vn -0.96592583 0.0000000e+0 0.25881905
vn -0.96592583 0.0000000e+0 0.25881905
vn 0.0000000e+0 -1.00000000 -3.9176159e-17
vn -1.00000000 0.0000000e+0 2.5195570e-16
vn -1.00000000 0.0000000e+0 2.5195570e-16
vn 0.0000000e+0 1.00000000 -7.8352318e-18
vn -0.96592583 0.0000000e+0 -0.25881905
vn -0.96592583 0.0000000e+0 -0.25881905
vn 0.0000000e+0 1.00000000 -7.8352318e-18
vn -0.86602540 0.0000000e+0 -0.50000000
vn -0.86602540 0.0000000e+0 -0.50000000
vn 0.0000000e+0 1.00000000 -7.8352318e-18
vn -0.70710678 0.0000000e+0 -0.70710678
vn -0.70710678 0.0000000e+0 -0.70710678
vn 0.0000000e+0 1.00000000 -7.8352318e-18
vn -0.50000000 0.0000000e+0 -0.86602540
vn -0.50000000 0.0000000e+0 -0.86602540
vn 0.0000000e+0 1.00000000 -7.8352318e-18
vn -0.25881905 0.0000000e+0 -0.96592583
vn -0.25881905 0.0000000e+0 -0.96592583
vn 0.0000000e+0 1.00000000 -7.8352318e-18
vn -1.6797046e-16 0.0000000e+0 -1.00000000
vn -1.6797046e-16 0.0000000e+0 -1.00000000
vn 0.0000000e+0 1.00000000 -7.8352318e-18
vn 0.25881905 0.0000000e+0 -0.96592583
vn 0.25881905 0.0000000e+0 -0.96592583
vn 0.0000000e+0 1.00000000 -7.8352318e-18
vn 0.50000000 0.0000000e+0 -0.86602540
vn 0.50000000 0.0000000e+0 -0.86602540
vn 0.0000000e+0 1.00000000 -7.8352318e-18
vn 0.70710678 0.0000000e+0 -0.70710678
vn 0.70710678 0.0000000e+0 -0.70710678
vn 0.0000000e+0 1.00000000 -7.8352318e-18
vn 0.86602540 0.0000000e+0 -0.50000000
vn 0.86602540 0.0000000e+0 -0.50000000
vn 0.0000000e+0 1.00000000 -7.8352318e-18
vn 0.96592583 0.0000000e+0 -0.25881905
vn 0.96592583 0.0000000e+0 -0.25881905
vn 0.0000000e+0 1.00000000 -7.8352318e-18
vn 1.00000000 0.0000000e+0 -3.4993847e-16
vn 1.00000000 0.0000000e+0 -3.4993847e-16
vn 0.0000000e+0 1.00000000 -7.8352318e-18
vn 0.96592583 0.0000000e+0 0.25881905
vn 0.96592583 0.0000000e+0 0.25881905
vn 0.0000000e+0 1.00000000 -7.8352318e-18
vn 0.86602540 0.0000000e+0 0.50000000
vn 0.86602540 0.0000000e+0 0.50000000
vn 0.0000000e+0 1.00000000 -7.8352318e-18
vn 0.70710678 0.0000000e+0 0.70710678
vn 0.70710678 0.0000000e+0 0.70710678
vn 0.0000000e+0 1.00000000 -7.8352318e-18
vn 0.50000000 0.0000000e+0 0.86602540
vn 0.50000000 0.0000000e+0 0.86602540
vn 0.0000000e+0 1.00000000 -7.8352318e-18
vn 0.25881905 0.0000000e+0 0.96592583
vn 0.25881905 0.0000000e+0 0.96592583
vn 0.0000000e+0 1.00000000 -7.8352318e-18
vn 4.6191878e-16 0.0000000e+0 1.00000000
vn 4.6191878e-16 0.0000000e+0 1.00000000
vn 0.0000000e+0 1.00000000 -7.8352318e-18
vn -0.25881905 0.0000000e+0 0.96592583
vn -0.25881905 0.0000000e+0 0.96592583
vn 0.0000000e+0 1.00000000 -7.8352318e-18
vn -0.50000000 0.0000000e+0 0.86602540
vn -0.50000000 0.0000000e+0 0.86602540
vn 0.0000000e+0 1.00000000 -7.8352318e-18
vn -0.70710678 0.0000000e+0 0.70710678
vn -0.70710678 0.0000000e+0 0.70710678
vn 0.0000000e+0 1.00000000 -7.8352318e-18
vn -0.86602540 0.0000000e+0 0.50000000
vn -0.86602540 0.0000000e+0 0.50000000
vn 0.0000000e+0 1.00000000 -7.8352318e-18
vn -0.96592583 0.0000000e+0 0.25881905
vn -0.96592583 0.0000000e+0 0.25881905
vn 0.0000000e+0 1.00000000 -7.8352318e-18
g Alniyat_Crew_2_1_Interior_Alniyat_Crew_2_1_Interior_auv
usemtl Alniyat_Crew_2_1_Interior_auv
s 1
f 2/4/78 3/8/81 4/13/84 5/16/87 6/20/90 7/25/93 8/28/96 9/32/99 10/37/102 11/40/105 12/45/108 13/55/111 14/46/114 15/42/117 16/38/120 17/34/123 18/30/126 19/26/129 20/22/132 21/18/135 22/14/138 23/9/141 24/6/144 1/2/75
f 25/49/147 48/43/216 47/39/213 46/35/210 45/31/207 44/27/204 43/23/201 42/19/198 41/15/195 40/11/192 39/7/189 38/3/186 37/1/183 36/5/180 35/10/177 34/12/174 33/17/171 32/21/168 31/24/165 30/29/162 29/33/159 28/36/156 27/41/153 26/44/150
s 2
f 1/88/74 96/87/48 95/97/47 2/98/77
f 2/98/76 95/97/47 94/107/46 3/108/80
f 3/108/79 94/107/46 93/124/45 4/126/83
f 4/51/82 93/50/45 92/67/44 5/68/86
f 5/68/85 92/67/44 91/77/43 6/78/89
f 6/78/88 91/77/43 90/82/42 7/83/92
f 7/83/91 90/82/42 89/92/41 8/93/95
f 8/93/94 89/92/41 88/102/40 9/103/98
f 9/103/97 88/102/40 87/115/39 10/116/101
f 10/125/100 87/123/39 86/135/38 11/136/104
f 11/136/103 86/135/38 85/145/37 12/146/107
f 12/146/106 85/145/37 84/155/36 13/156/110
f 13/156/109 84/155/36 83/165/35 14/166/113
f 14/166/112 83/165/35 82/175/34 15/176/116
f 15/176/115 82/175/34 81/180/33 16/181/119
f 16/116/118 81/115/33 80/130/32 17/131/122
f 17/131/121 80/130/32 79/140/31 18/141/125
f 18/141/124 79/140/31 78/150/30 19/151/128
f 19/151/127 78/150/30 77/160/29 20/161/131
f 20/161/130 77/160/29 76/170/28 21/171/134
f 21/171/133 76/170/28 75/185/27 22/186/137
f 22/57/136 75/56/27 74/62/26 23/63/140
f 23/63/139 74/62/26 73/72/25 24/73/143
f 24/73/142 73/72/25 96/87/48 1/88/73
f 25/84/145 97/85/49 120/70/72 48/69/214
f 26/94/149 98/95/50 97/85/49 25/84/146
f 27/104/152 99/105/51 98/95/50 26/94/148
f 28/118/155 100/120/52 99/105/51 27/104/151
f 29/64/158 101/65/53 100/58/52 28/47/154
f 30/74/161 102/75/54 101/65/53 29/64/157
f 31/79/164 103/80/55 102/75/54 30/74/160
f 32/89/167 104/90/56 103/80/55 31/79/163
f 33/99/170 105/100/57 104/90/56 32/89/166
f 34/110/173 106/112/58 105/100/57 33/99/169
f 35/132/176 107/133/59 106/119/58 34/117/172
f 36/142/179 108/143/60 107/133/59 35/132/175
f 37/152/182 109/153/61 108/143/60 36/142/178
f 38/162/185 110/163/62 109/153/61 37/152/181
f 39/172/188 111/173/63 110/163/62 38/162/184
f 40/177/191 112/178/64 111/173/63 39/172/187
f 41/127/194 113/128/65 112/111/64 40/109/190
f 42/137/197 114/138/66 113/128/65 41/127/193
f 43/147/200 115/148/67 114/138/66 42/137/196
f 44/157/203 116/158/68 115/148/67 43/147/199
f 45/167/206 117/168/69 116/158/68 44/157/202
f 46/182/209 118/183/70 117/168/69 45/167/205
f 47/59/212 119/60/71 118/53/70 46/52/208
f 48/69/215 120/70/72 119/60/71 47/59/211
f 49/71/1 50/61/2 119/60/71 120/70/72
f 49/71/1 73/72/25 74/62/26 50/61/2
f 50/61/2 51/54/3 118/53/70 119/60/71
f 50/61/2 74/62/26 75/56/27 51/54/3
f 51/184/3 52/169/4 117/168/69 118/183/70
f 51/184/3 75/185/27 76/170/28 52/169/4
f 52/169/4 53/159/5 116/158/68 117/168/69
f 52/169/4 76/170/28 77/160/29 53/159/5
f 53/159/5 54/149/6 115/148/67 116/158/68
f 53/159/5 77/160/29 78/150/30 54/149/6
f 54/149/6 55/139/7 114/138/66 115/148/67
f 54/149/6 78/150/30 79/140/31 55/139/7
f 55/139/7 56/129/8 113/128/65 114/138/66
f 55/139/7 79/140/31 80/130/32 56/129/8
f 56/129/8 57/113/9 112/111/64 113/128/65
f 56/129/8 80/130/32 81/115/33 57/113/9
f 57/179/9 58/174/10 111/173/63 112/178/64
f 57/179/9 81/180/33 82/175/34 58/174/10
f 58/174/10 59/164/11 110/163/62 111/173/63
f 58/174/10 82/175/34 83/165/35 59/164/11
f 59/164/11 60/154/12 109/153/61 110/163/62
f 59/164/11 83/165/35 84/155/36 60/154/12
f 60/154/12 61/144/13 108/143/60 109/153/61
f 60/154/12 84/155/36 85/145/37 61/144/13
f 61/144/13 62/134/14 107/133/59 108/143/60
f 61/144/13 85/145/37 86/135/38 62/134/14
f 62/134/14 63/121/15 106/119/58 107/133/59
f 62/134/14 86/135/38 87/123/39 63/121/15
f 63/114/15 64/101/16 105/100/57 106/112/58
f 63/114/15 87/115/39 88/102/40 64/101/16
f 64/101/16 65/91/17 104/90/56 105/100/57
f 64/101/16 88/102/40 89/92/41 65/91/17
f 65/91/17 66/81/18 103/80/55 104/90/56
f 65/91/17 89/92/41 90/82/42 66/81/18
f 66/81/18 67/76/19 102/75/54 103/80/55
f 66/81/18 90/82/42 91/77/43 67/76/19
f 67/76/19 68/66/20 101/65/53 102/75/54
f 67/76/19 91/77/43 92/67/44 68/66/20
f 68/66/20 69/48/21 100/58/52 101/65/53
f 68/66/20 92/67/44 93/50/45 69/48/21
f 69/122/21 70/106/22 99/105/51 100/120/52
f 69/122/21 93/124/45 94/107/46 70/106/22
f 70/106/22 71/96/23 98/95/50 99/105/51
f 70/106/22 94/107/46 95/97/47 71/96/23
f 71/96/23 72/86/24 97/85/49 98/95/50
f 71/96/23 95/97/47 96/87/48 72/86/24
f 72/86/24 96/87/48 73/72/25 49/71/1
f 120/70/72 97/85/49 72/86/24 49/71/1
