# Exported from Wings 3D 1.5.4
mtllib carpupper.mtl
o 1
#60 vertices, 62 faces
v -0.25000000 2.5000000e-2 0.75000000
v -0.23232233 1.7677670e-2 0.75000000
v -0.22500000 3.9028217e-17 0.75000000
v -0.23232233 -1.7677670e-2 0.75000000
v -0.25000000 -2.5000000e-2 0.75000000
v -0.26767767 -1.7677670e-2 0.75000000
v -0.27500000 3.2904983e-17 0.75000000
v -0.26767767 1.7677670e-2 0.75000000
v -0.25000000 2.5000000e-2 7.5000000e-2
v -0.23232233 1.7677670e-2 7.5000000e-2
v -0.22500000 3.5966600e-17 7.5000000e-2
v -0.23232233 -1.7677670e-2 7.5000000e-2
v -0.25000000 -2.5000000e-2 7.5000000e-2
v -0.26767767 -1.7677670e-2 7.5000000e-2
v -0.27500000 2.9843366e-17 7.5000000e-2
v -0.26767767 1.7677670e-2 7.5000000e-2
v -0.26250000 3.7500000e-2 0.0000000e+0
v -0.26250000 -3.7500000e-2 0.0000000e+0
v -0.26250000 -2.6516504e-2 -2.6516504e-2
v -0.26250000 3.1142878e-17 -3.7500000e-2
v -0.26250000 2.6516504e-2 -2.6516504e-2
v -0.23750000 3.7500000e-2 0.0000000e+0
v -0.23750000 -3.7500000e-2 0.0000000e+0
v -0.23750000 -2.6516504e-2 -2.6516504e-2
v -0.23750000 2.6550453e-17 -3.7500000e-2
v -0.23750000 2.6516504e-2 -2.6516504e-2
v -0.23750000 3.7500000e-2 3.7500000e-2
v -0.26250000 3.7500000e-2 3.7500000e-2
v -0.26250000 -3.7500000e-2 3.7500000e-2
v -0.23750000 -3.7500000e-2 3.7500000e-2
v 0.25000000 2.5000000e-2 0.75000000
v 0.26767767 1.7677670e-2 0.75000000
v 0.27500000 3.9028217e-17 0.75000000
v 0.26767767 -1.7677670e-2 0.75000000
v 0.25000000 -2.5000000e-2 0.75000000
v 0.23232233 -1.7677670e-2 0.75000000
v 0.22500000 3.2904983e-17 0.75000000
v 0.23232233 1.7677670e-2 0.75000000
v 0.25000000 2.5000000e-2 7.5000000e-2
v 0.26767767 1.7677670e-2 7.5000000e-2
v 0.27500000 3.5966600e-17 7.5000000e-2
v 0.26767767 -1.7677670e-2 7.5000000e-2
v 0.25000000 -2.5000000e-2 7.5000000e-2
v 0.23232233 -1.7677670e-2 7.5000000e-2
v 0.22500000 2.9843366e-17 7.5000000e-2
v 0.23232233 1.7677670e-2 7.5000000e-2
v 0.23750000 3.7500000e-2 0.0000000e+0
v 0.23750000 -3.7500000e-2 0.0000000e+0
v 0.23750000 -2.6516504e-2 -2.6516504e-2
v 0.23750000 3.1142878e-17 -3.7500000e-2
v 0.23750000 2.6516504e-2 -2.6516504e-2
v 0.26250000 3.7500000e-2 0.0000000e+0
v 0.26250000 -3.7500000e-2 0.0000000e+0
v 0.26250000 -2.6516504e-2 -2.6516504e-2
v 0.26250000 2.6550453e-17 -3.7500000e-2
v 0.26250000 2.6516504e-2 -2.6516504e-2
v 0.26250000 3.7500000e-2 3.7500000e-2
v 0.23750000 3.7500000e-2 3.7500000e-2
v 0.23750000 -3.7500000e-2 3.7500000e-2
v 0.26250000 -3.7500000e-2 3.7500000e-2
vt 0.83622388 0.45494747
vt 0.83622388 0.52314019
vt 0.83804545 0.45494747
vt 0.83804545 0.52314019
vt 0.83933689 0.44094022
vt 0.83933689 0.44094022
vt 0.83986703 0.45494747
vt 0.83986703 0.52314019
vt 0.83998888 0.52307180
vt 0.83999118 0.44368499
vt 0.83999118 0.44617489
vt 0.83999118 0.44808058
vt 0.83999118 0.44998627
vt 0.84068596 0.52305497
vt 0.84068596 0.52308863
vt 0.84126103 0.44094022
vt 0.84126103 0.44094022
vt 0.84168860 0.45494747
vt 0.84168860 0.52314019
vt 0.84236888 0.52304800
vt 0.84236888 0.52309560
vt 0.84253088 0.44368499
vt 0.84253088 0.44617489
vt 0.84253088 0.44808058
vt 0.84253088 0.44998627
vt 0.84254431 0.44365038
vt 0.84254431 0.44603073
vt 0.84254431 0.44365038
vt 0.84254431 0.44603073
vt 0.84297166 0.44118175
vt 0.84297166 0.44118175
vt 0.84318517 0.44094022
vt 0.84318517 0.44094022
vt 0.84324149 0.44771389
vt 0.84324149 0.44771389
vt 0.84351017 0.45494747
vt 0.84351017 0.52314019
vt 0.84405179 0.52305497
vt 0.84405179 0.52308863
vt 0.84474888 0.52307180
vt 0.84492465 0.44841107
vt 0.84492465 0.44118175
vt 0.84492465 0.44118175
vt 0.84492465 0.44841107
vt 0.84533175 0.45494747
vt 0.84533175 0.52314019
vt 0.84660781 0.44771389
vt 0.84660781 0.44771389
vt 0.84687765 0.44118175
vt 0.84687765 0.44118175
vt 0.84715332 0.45494747
vt 0.84715332 0.52314019
vt 0.84730500 0.44365038
vt 0.84730500 0.44603073
vt 0.84730500 0.44365038
vt 0.84897489 0.45494747
vt 0.84897489 0.52314019
vt 0.85079647 0.45494747
vt 0.85079647 0.52314019
vn -1.4397218e-16 0.97053831 0.24094686
vn 0.99935116 3.5874777e-17 -3.6017520e-2
vn 3.5993045e-17 -0.97053831 0.24094686
vn -0.99935116 1.4349911e-16 -3.6017520e-2
vn 3.7192813e-16 0.97053831 0.24094686
vn 0.99935116 3.5874777e-17 -3.6017520e-2
vn 5.8788640e-16 -0.97053831 0.24094686
vn -0.99935116 1.3154085e-16 -3.6017520e-2
vn -2.7038177e-16 1.00000000 5.6788645e-19
vn -2.7038177e-16 1.00000000 5.6788645e-19
vn 9.8130779e-16 0.0000000e+0 1.00000000
vn 0.70710678 0.70710678 3.1972007e-16
vn 0.70710678 0.70710678 3.1972007e-16
vn 9.8130779e-16 0.0000000e+0 1.00000000
vn 1.00000000 -3.0042419e-17 4.5146973e-16
vn 1.00000000 -3.0042419e-17 4.5146973e-16
vn 9.8130779e-16 0.0000000e+0 1.00000000
vn 0.70710678 -0.70710678 3.2653471e-16
vn 0.70710678 -0.70710678 3.2653471e-16
vn 9.8130779e-16 0.0000000e+0 1.00000000
vn 0.0000000e+0 -1.00000000 7.9504103e-18
vn 0.0000000e+0 -1.00000000 7.9504103e-18
vn 9.8130779e-16 0.0000000e+0 1.00000000
vn -0.70710678 -0.70710678 -2.9586884e-16
vn -0.70710678 -0.70710678 -2.9586884e-16
vn 9.8130779e-16 0.0000000e+0 1.00000000
vn -1.00000000 0.0000000e+0 -4.1058190e-16
vn -1.00000000 0.0000000e+0 -4.1058190e-16
vn 9.8130779e-16 0.0000000e+0 1.00000000
vn -0.70710678 0.70710678 -3.0097982e-16
vn -0.70710678 0.70710678 -3.0097982e-16
vn 9.8130779e-16 0.0000000e+0 1.00000000
vn 0.70705401 0.69512390 0.12991300
vn 0.70705401 0.69512390 0.12991300
vn 0.70705401 0.69512390 0.12991300
vn 0.70705401 0.69512390 0.12991300
vn 0.70705401 -0.69512390 0.12991300
vn 0.70705401 -0.69512390 0.12991300
vn 0.70705401 -0.69512390 0.12991300
vn 0.70705401 -0.69512390 0.12991300
vn -0.70705401 -0.69512390 0.12991300
vn -0.70705401 -0.69512390 0.12991300
vn -0.70705401 -0.69512390 0.12991300
vn -0.70705401 -0.69512390 0.12991300
vn -0.70705401 0.69512390 0.12991300
vn -0.70705401 0.69512390 0.12991300
vn -0.70705401 0.69512390 0.12991300
vn -0.70705401 0.69512390 0.12991300
vn -1.00000000 0.0000000e+0 0.0000000e+0
vn 5.7773233e-17 0.98078528 -0.19509032
vn 5.7773233e-17 0.98078528 -0.19509032
vn -1.00000000 0.0000000e+0 0.0000000e+0
vn -1.00000000 0.0000000e+0 0.0000000e+0
vn -9.6288721e-17 -0.98078528 -0.19509032
vn -1.00000000 0.0000000e+0 0.0000000e+0
vn -9.6288721e-17 -0.98078528 -0.19509032
vn -1.00000000 0.0000000e+0 0.0000000e+0
vn -1.6355130e-16 -0.70710678 -0.70710678
vn -1.6355130e-16 -0.70710678 -0.70710678
vn -1.00000000 0.0000000e+0 0.0000000e+0
vn -2.0443912e-17 -3.0042419e-17 -1.00000000
vn -2.0443912e-17 -3.0042419e-17 -1.00000000
vn -1.00000000 0.0000000e+0 0.0000000e+0
vn 1.0221956e-16 0.70710678 -0.70710678
vn 1.0221956e-16 0.70710678 -0.70710678
vn 5.7773233e-17 0.98078528 -0.19509032
vn 1.00000000 2.1806840e-16 0.0000000e+0
vn 5.7773233e-17 0.98078528 -0.19509032
vn 1.00000000 2.1806840e-16 0.0000000e+0
vn -9.6288721e-17 -0.98078528 -0.19509032
vn 1.00000000 2.1806840e-16 0.0000000e+0
vn -9.6288721e-17 -0.98078528 -0.19509032
vn 1.00000000 2.1806840e-16 0.0000000e+0
vn -1.6355130e-16 -0.70710678 -0.70710678
vn -1.6355130e-16 -0.70710678 -0.70710678
vn 1.00000000 4.3613679e-16 0.0000000e+0
vn -2.0443912e-17 -3.0042419e-17 -1.00000000
vn -2.0443912e-17 -3.0042419e-17 -1.00000000
vn 1.00000000 4.3613679e-16 0.0000000e+0
vn 1.0221956e-16 0.70710678 -0.70710678
vn 1.0221956e-16 0.70710678 -0.70710678
vn 1.00000000 4.3613679e-16 0.0000000e+0
vn 0.12068913 0.96169303 0.24613138
vn 0.98783863 0.13135165 -8.3196114e-2
vn 0.98783863 0.13135165 -8.3196114e-2
vn 0.12068913 0.96169303 0.24613138
vn 0.12068913 0.96169303 0.24613138
vn 0.98783863 0.13135165 -8.3196114e-2
vn -0.12068913 0.96169303 0.24613138
vn -0.98783863 0.13135165 -8.3196114e-2
vn -0.12068913 0.96169303 0.24613138
vn -0.98783863 0.13135165 -8.3196114e-2
vn -0.12068913 0.96169303 0.24613138
vn -0.98783863 0.13135165 -8.3196114e-2
vn -0.98783863 -0.13135165 -8.3196114e-2
vn -0.12068913 -0.96169303 0.24613138
vn -0.98783863 -0.13135165 -8.3196114e-2
vn -0.12068913 -0.96169303 0.24613138
vn -0.12068913 -0.96169303 0.24613138
vn -0.98783863 -0.13135165 -8.3196114e-2
vn 0.12068913 -0.96169303 0.24613138
vn 0.98783863 -0.13135165 -8.3196114e-2
vn 0.12068913 -0.96169303 0.24613138
vn 0.98783863 -0.13135165 -8.3196114e-2
vn 0.12068913 -0.96169303 0.24613138
vn 0.98783863 -0.13135165 -8.3196114e-2
vn -3.6050902e-16 1.00000000 4.5430916e-18
vn -3.6050902e-16 1.00000000 4.5430916e-18
vn 9.8130779e-16 0.0000000e+0 1.00000000
vn 0.70710678 0.70710678 3.2369528e-16
vn 0.70710678 0.70710678 3.2369528e-16
vn 9.8130779e-16 0.0000000e+0 1.00000000
vn 1.00000000 -3.0042419e-17 4.5146973e-16
vn 1.00000000 -3.0042419e-17 4.5146973e-16
vn 9.8130779e-16 0.0000000e+0 1.00000000
vn 0.70710678 -0.70710678 3.3107780e-16
vn 0.70710678 -0.70710678 3.3107780e-16
vn 9.8130779e-16 0.0000000e+0 1.00000000
vn -9.0127256e-17 -1.00000000 1.2493502e-17
vn -9.0127256e-17 -1.00000000 1.2493502e-17
vn 9.8130779e-16 0.0000000e+0 1.00000000
vn -0.70710678 -0.70710678 -2.9586884e-16
vn -0.70710678 -0.70710678 -2.9586884e-16
vn 9.8130779e-16 0.0000000e+0 1.00000000
vn -1.00000000 0.0000000e+0 -4.1058190e-16
vn -1.00000000 0.0000000e+0 -4.1058190e-16
vn 9.8130779e-16 0.0000000e+0 1.00000000
vn -0.70710678 0.70710678 -3.0097982e-16
vn -0.70710678 0.70710678 -3.0097982e-16
vn 9.8130779e-16 0.0000000e+0 1.00000000
vn 0.70705401 0.69512390 0.12991300
vn 0.70705401 0.69512390 0.12991300
vn 0.70705401 0.69512390 0.12991300
vn 0.70705401 0.69512390 0.12991300
vn 0.70705401 -0.69512390 0.12991300
vn 0.70705401 -0.69512390 0.12991300
vn 0.70705401 -0.69512390 0.12991300
vn 0.70705401 -0.69512390 0.12991300
vn -0.70705401 -0.69512390 0.12991300
vn -0.70705401 -0.69512390 0.12991300
vn -0.70705401 -0.69512390 0.12991300
vn -0.70705401 -0.69512390 0.12991300
vn -0.70705401 0.69512390 0.12991300
vn -0.70705401 0.69512390 0.12991300
vn -0.70705401 0.69512390 0.12991300
vn -0.70705401 0.69512390 0.12991300
vn -1.00000000 0.0000000e+0 0.0000000e+0
vn 5.7773233e-17 0.98078528 -0.19509032
vn 5.7773233e-17 0.98078528 -0.19509032
vn -1.00000000 0.0000000e+0 0.0000000e+0
vn -1.00000000 0.0000000e+0 0.0000000e+0
vn -9.6288721e-17 -0.98078528 -0.19509032
vn -1.00000000 0.0000000e+0 0.0000000e+0
vn -9.6288721e-17 -0.98078528 -0.19509032
vn -1.00000000 0.0000000e+0 0.0000000e+0
vn -1.6355130e-16 -0.70710678 -0.70710678
vn -1.6355130e-16 -0.70710678 -0.70710678
vn -1.00000000 0.0000000e+0 0.0000000e+0
vn -2.0443912e-17 -3.0042419e-17 -1.00000000
vn -2.0443912e-17 -3.0042419e-17 -1.00000000
vn -1.00000000 0.0000000e+0 0.0000000e+0
vn 1.0221956e-16 0.70710678 -0.70710678
vn 1.0221956e-16 0.70710678 -0.70710678
vn 5.7773233e-17 0.98078528 -0.19509032
vn 1.00000000 2.1806840e-16 0.0000000e+0
vn 5.7773233e-17 0.98078528 -0.19509032
vn 1.00000000 2.1806840e-16 0.0000000e+0
vn -9.6288721e-17 -0.98078528 -0.19509032
vn 1.00000000 2.1806840e-16 0.0000000e+0
vn -9.6288721e-17 -0.98078528 -0.19509032
vn 1.00000000 2.1806840e-16 0.0000000e+0
vn -1.6355130e-16 -0.70710678 -0.70710678
vn -1.6355130e-16 -0.70710678 -0.70710678
vn 1.00000000 4.3613679e-16 0.0000000e+0
vn -2.0443912e-17 -3.0042419e-17 -1.00000000
vn -2.0443912e-17 -3.0042419e-17 -1.00000000
vn 1.00000000 4.3613679e-16 0.0000000e+0
vn 1.0221956e-16 0.70710678 -0.70710678
vn 1.0221956e-16 0.70710678 -0.70710678
vn 1.00000000 4.3613679e-16 0.0000000e+0
vn 0.12068913 0.96169303 0.24613138
vn 0.98783863 0.13135165 -8.3196114e-2
vn 0.98783863 0.13135165 -8.3196114e-2
vn 0.12068913 0.96169303 0.24613138
vn 0.12068913 0.96169303 0.24613138
vn 0.98783863 0.13135165 -8.3196114e-2
vn -0.12068913 0.96169303 0.24613138
vn -0.98783863 0.13135165 -8.3196114e-2
vn -0.12068913 0.96169303 0.24613138
vn -0.98783863 0.13135165 -8.3196114e-2
vn -0.12068913 0.96169303 0.24613138
vn -0.98783863 0.13135165 -8.3196114e-2
vn -0.98783863 -0.13135165 -8.3196114e-2
vn -0.12068913 -0.96169303 0.24613138
vn -0.98783863 -0.13135165 -8.3196114e-2
vn -0.12068913 -0.96169303 0.24613138
vn -0.12068913 -0.96169303 0.24613138
vn -0.98783863 -0.13135165 -8.3196114e-2
vn 0.12068913 -0.96169303 0.24613138
vn 0.98783863 -0.13135165 -8.3196114e-2
vn 0.12068913 -0.96169303 0.24613138
vn 0.98783863 -0.13135165 -8.3196114e-2
vn 0.12068913 -0.96169303 0.24613138
vn 0.98783863 -0.13135165 -8.3196114e-2
g 1_1_auv
usemtl 1_auv
s 1
f 1/21/11 8/15/32 7/9/29 6/14/26 5/20/23 4/38/20 3/40/17 2/39/14
f 31/21/109 38/15/130 37/9/127 36/14/124 35/20/121 34/38/118 33/40/115 32/39/112
s 2
f 1/37/9 9/36/1 16/45/45 8/46/30
f 2/19/13 10/18/34 9/36/1 1/37/10
f 3/8/16 11/7/2 10/18/33 2/19/12
f 4/4/19 12/3/38 11/7/2 3/8/15
f 5/2/22 13/1/3 12/3/37 4/4/18
f 6/57/25 14/56/42 13/58/3 5/59/21
f 7/52/28 15/51/4 14/56/41 6/57/24
f 8/46/31 16/45/46 15/51/4 7/52/27
f 9/17/1 28/22/91 16/33/47
f 10/6/36 27/10/86 9/17/1
f 11/43/2 27/28/85 10/31/35
f 12/50/40 30/55/104 11/43/2
f 13/16/3 30/10/103 12/5/39
f 14/32/44 29/22/98 13/16/3
f 15/42/4 29/26/97 14/30/43
f 16/49/48 28/53/92 15/42/4
f 17/23/50 22/11/66 26/12/80 21/24/64
f 17/23/51 28/22/89 27/10/83 22/11/68
f 18/27/55 29/26/95 28/53/90 17/54/52
f 19/24/59 24/12/75 23/11/70 18/23/54
f 20/25/62 25/13/78 24/12/74 19/24/58
f 21/47/63 20/41/60 19/34/57 18/27/53 17/54/49
f 21/24/65 26/12/81 25/13/77 20/25/61
f 22/29/67 23/54/71 24/48/76 25/44/79 26/35/82
f 22/29/69 27/28/84 30/55/102 23/54/73
f 23/11/72 30/10/101 29/22/96 18/23/56
f 27/28/88 11/43/2 30/55/106
f 28/22/93 9/17/1 27/10/87
f 29/26/100 15/42/4 28/53/94
f 30/10/105 13/16/3 29/22/99
f 31/37/107 39/36/5 46/45/143 38/46/128
f 32/19/111 40/18/132 39/36/5 31/37/108
f 33/8/114 41/7/6 40/18/131 32/19/110
f 34/4/117 42/3/136 41/7/6 33/8/113
f 35/2/120 43/1/7 42/3/135 34/4/116
f 36/57/123 44/56/140 43/58/7 35/59/119
f 37/52/126 45/51/8 44/56/139 36/57/122
f 38/46/129 46/45/144 45/51/8 37/52/125
f 39/17/5 58/22/189 46/33/145
f 40/6/134 57/10/184 39/17/5
f 41/43/6 57/28/183 40/31/133
f 42/50/138 60/55/202 41/43/6
f 43/16/7 60/10/201 42/5/137
f 44/32/142 59/22/196 43/16/7
f 45/42/8 59/26/195 44/30/141
f 46/49/146 58/53/190 45/42/8
f 47/23/148 52/11/164 56/12/178 51/24/162
f 47/23/149 58/22/187 57/10/181 52/11/166
f 48/27/153 59/26/193 58/53/188 47/54/150
f 49/24/157 54/12/173 53/11/168 48/23/152
f 50/25/160 55/13/176 54/12/172 49/24/156
f 51/47/161 50/41/158 49/34/155 48/27/151 47/54/147
f 51/24/163 56/12/179 55/13/175 50/25/159
f 52/29/165 53/54/169 54/48/174 55/44/177 56/35/180
f 52/29/167 57/28/182 60/55/200 53/54/171
f 53/11/170 60/10/199 59/22/194 48/23/154
f 57/28/186 41/43/6 60/55/204
f 58/22/191 39/17/5 57/10/185
f 59/26/198 45/42/8 58/53/192
f 60/10/203 43/16/7 59/22/197
