# Exported from Wings 3D 1.5.4
mtllib rotanev_cap_s1_1.mtl
o 2
#97 vertices, 96 faces
v 0.62500000 6.2500000e-2 -4.0591574e-18
v 0.60370364 6.2500000e-2 0.16176190
v 0.54126588 6.2500000e-2 0.31250000
v 0.44194174 6.2500000e-2 0.44194174
v 0.31250000 6.2500000e-2 0.54126588
v 0.16176190 6.2500000e-2 0.60370364
v -3.7565934e-18 6.2500000e-2 0.62500000
v -0.16176190 6.2500000e-2 0.60370364
v -0.31250000 6.2500000e-2 0.54126588
v -0.44194174 6.2500000e-2 0.44194174
v -0.54126588 6.2500000e-2 0.31250000
v -0.60370364 6.2500000e-2 0.16176190
v -0.62500000 6.2500000e-2 7.2481268e-17
v -0.60370364 6.2500000e-2 -0.16176190
v -0.54126588 6.2500000e-2 -0.31250000
v -0.44194174 6.2500000e-2 -0.44194174
v -0.31250000 6.2500000e-2 -0.54126588
v -0.16176190 6.2500000e-2 -0.60370364
v -1.5683744e-16 6.2500000e-2 -0.62500000
v 0.16176190 6.2500000e-2 -0.60370364
v 0.31250000 6.2500000e-2 -0.54126588
v 0.44194174 6.2500000e-2 -0.44194174
v 0.54126588 6.2500000e-2 -0.31250000
v 0.60370364 6.2500000e-2 -0.16176190
v 0.62500000 -6.2500000e-2 -4.0591574e-18
v 0.60370364 -6.2500000e-2 0.16176190
v 0.54126588 -6.2500000e-2 0.31250000
v 0.44194174 -6.2500000e-2 0.44194174
v 0.31250000 -6.2500000e-2 0.54126588
v 0.16176190 -6.2500000e-2 0.60370364
v -3.7565934e-18 -6.2500000e-2 0.62500000
v -0.16176190 -6.2500000e-2 0.60370364
v -0.31250000 -6.2500000e-2 0.54126588
v -0.44194174 -6.2500000e-2 0.44194174
v -0.54126588 -6.2500000e-2 0.31250000
v -0.60370364 -6.2500000e-2 0.16176190
v -0.62500000 -6.2500000e-2 7.2481268e-17
v -0.60370364 -6.2500000e-2 -0.16176190
v -0.54126588 -6.2500000e-2 -0.31250000
v -0.44194174 -6.2500000e-2 -0.44194174
v -0.31250000 -6.2500000e-2 -0.54126588
v -0.16176190 -6.2500000e-2 -0.60370364
v -1.5683744e-16 -6.2500000e-2 -0.62500000
v 0.16176190 -6.2500000e-2 -0.60370364
v 0.31250000 -6.2500000e-2 -0.54126588
v 0.44194174 -6.2500000e-2 -0.44194174
v 0.54126588 -6.2500000e-2 -0.31250000
v 0.60370364 -6.2500000e-2 -0.16176190
v -1.1025926e-16 0.11250000 -2.5844317e-17
v 0.36122826 9.1648620e-2 0.20855523
v 0.29494164 9.1648620e-2 0.29494164
v 0.20855523 9.1648620e-2 0.36122826
v 0.10795613 9.1648620e-2 0.40289777
v -3.9257483e-17 9.1648620e-2 0.41711047
v -0.10795613 9.1648620e-2 0.40289777
v -0.20855523 9.1648620e-2 0.36122826
v -0.29494164 9.1648620e-2 0.29494164
v -0.36122826 9.1648620e-2 0.20855523
v -0.40289777 9.1648620e-2 0.10795613
v -0.41711047 9.1648620e-2 3.9814493e-17
v -0.40289777 9.1648620e-2 -0.10795613
v -0.36122826 9.1648620e-2 -0.20855523
v -0.29494164 9.1648620e-2 -0.29494164
v -0.20855523 9.1648620e-2 -0.36122826
v -0.10795613 9.1648620e-2 -0.40289777
v -1.4161135e-16 9.1648620e-2 -0.41711047
v 0.10795613 9.1648620e-2 -0.40289777
v 0.20855523 9.1648620e-2 -0.36122826
v 0.29494164 9.1648620e-2 -0.29494164
v 0.36122826 9.1648620e-2 -0.20855523
v 0.40289777 9.1648620e-2 -0.10795613
v 0.41711047 9.1648620e-2 -1.1505192e-17
v 0.40289777 9.1648620e-2 0.10795613
v 0.20166323 0.10831529 5.4035499e-2
v 0.20877714 0.10831529 -1.9193365e-17
v 0.20166323 0.10831529 -5.4035499e-2
v 0.18080630 0.10831529 -0.10438857
v 0.14762773 0.10831529 -0.14762773
v 0.10438857 0.10831529 -0.18080630
v 5.4035499e-2 0.10831529 -0.20166323
v -1.2612143e-16 0.10831529 -0.20877714
v -5.4035499e-2 0.10831529 -0.20166323
v -0.10438857 0.10831529 -0.18080630
v -0.14762773 0.10831529 -0.14762773
v -0.18080630 0.10831529 -0.10438857
v -0.20166323 0.10831529 -5.4035499e-2
v -0.20877714 0.10831529 7.2489102e-18
v -0.20166323 0.10831529 5.4035499e-2
v -0.18080630 0.10831529 0.10438857
v -0.14762773 0.10831529 0.14762773
v -0.10438857 0.10831529 0.18080630
v -5.4035499e-2 0.10831529 0.20166323
v -7.4794513e-17 0.10831529 0.20877714
v 5.4035499e-2 0.10831529 0.20166323
v 0.10438857 0.10831529 0.18080630
v 0.14762773 0.10831529 0.14762773
v 0.18080630 0.10831529 0.10438857
vt 0.31275163 0.10363372
vt 0.31275163 0.10363372
vt 0.31275375 0.26591272
vt 0.31275590 0.18485346
vt 0.31275590 0.18485346
vt 0.31275801 0.18484704
vt 0.31275801 0.18484704
vt 0.31276016 0.26591913
vt 0.31276016 0.26591913
vt 0.31276227 0.10362731
vt 0.31276227 0.10362731
vt 0.31293646 2.2107272e-2
vt 0.31293646 2.2107272e-2
vt 0.31295569 2.2100858e-2
vt 0.31295569 2.2100858e-2
vt 0.33375029 0.18761428
vt 0.33375029 0.18761428
vt 0.33375210 0.18761007
vt 0.33375210 0.18761007
vt 0.35331633 0.19570929
vt 0.35331730 0.19570714
vt 0.35331730 0.19570714
vt 0.35476445 0.10916410
vt 0.35476445 0.10916410
vt 0.35477451 0.10916210
vt 0.35477451 0.10916210
vt 0.37008707 0.20859910
vt 0.37008707 0.20859910
vt 0.37008746 0.20859949
vt 0.37008746 0.20859949
vt 0.37593863 3.0099280e-2
vt 0.37593863 3.0099280e-2
vt 0.37595699 3.0099506e-2
vt 0.37595699 3.0099506e-2
vt 0.38295061 0.22539954
vt 0.38295061 0.22539954
vt 0.38295276 0.22539858
vt 0.38295276 0.22539858
vt 0.39104229 0.24494255
vt 0.39104650 0.24494073
vt 0.39104650 0.24494073
vt 0.39379778 0.26591698
vt 0.39379778 0.26591698
vt 0.39380419 0.26591488
vt 0.39380419 0.26591488
vt 0.39391283 0.12535814
vt 0.39391283 0.12535814
vt 0.39392119 0.12536026
vt 0.39392119 0.12536026
vt 0.42752761 0.15113206
vt 0.42752761 0.15113206
vt 0.42753325 0.15113770
vt 0.42753325 0.15113770
vt 0.43483058 5.4478515e-2
vt 0.43483058 5.4478515e-2
vt 0.43484639 5.4484930e-2
vt 0.43484639 5.4484930e-2
vt 0.45330599 0.18474922
vt 0.45330599 0.18474922
vt 0.45330810 0.18475758
vt 0.45330810 0.18475758
vt 0.46950669 0.22390482
vt 0.46950669 0.22390482
vt 0.46950869 0.22389477
vt 0.46950869 0.22389477
vt 0.47503706 0.26592125
vt 0.47503706 0.26592125
vt 0.47504347 0.26591061
vt 0.47504347 0.26591061
vt 0.48600395 9.2626371e-2
vt 0.48600395 9.2626371e-2
vt 0.48601567 9.2638097e-2
vt 0.48601567 9.2638097e-2
vt 0.52435323 0.14359232
vt 0.52435323 0.14359232
vt 0.52435964 0.14360812
vt 0.52435964 0.14360812
vt 0.54787712 0.20303554
vt 0.54787712 0.20303554
vt 0.54787735 0.20305391
vt 0.54787735 0.20305391
vt 0.55778486 0.26592555
vt 0.55779127 0.26590631
vt 0.55779127 0.26590631
vt 0.56928375 0.64553538
vt 0.56928375 0.78878490
vt 0.56928375 0.64553538
vt 0.56928375 0.71716014
vt 0.56928375 0.78878490
vt 0.56928375 0.78878490
vt 0.56928375 0.86040966
vt 0.56928375 0.86040966
vt 0.56928375 0.93203442
vt 0.56928375 0.86040966
vt 0.56928375 0.93203442
vt 0.56928375 0.64553538
vt 0.56928375 0.64553538
vt 0.56928375 0.71716014
vt 0.56928375 0.71716014
vt 0.56928375 0.78878490
vt 0.56928375 0.78878490
vt 0.56928375 0.86040966
vt 0.56928375 0.93203442
vt 0.56928375 0.93203442
vt 0.56928375 0.71716014
vt 0.56928375 0.64553538
vt 0.56928375 0.71716014
vt 0.56928375 0.78878490
vt 0.56928375 0.64553538
vt 0.61811933 0.64553538
vt 0.61811933 0.64553538
vt 0.61811933 0.71716014
vt 0.61811933 0.78878490
vt 0.61811933 0.78878490
vt 0.61811933 0.86040966
vt 0.61811933 0.93203442
vt 0.61811933 0.86040966
vt 0.61811933 0.93203442
vt 0.61811933 0.64553538
vt 0.61811933 0.64553538
vt 0.61811933 0.71716014
vt 0.61811933 0.71716014
vt 0.61811933 0.78878490
vt 0.61811933 0.78878490
vt 0.61811933 0.86040966
vt 0.61811933 0.86040966
vt 0.61811933 0.93203442
vt 0.61811933 0.86040966
vt 0.61811933 0.93203442
vt 0.61811933 0.64553538
vt 0.61811933 0.71716014
vt 0.61811933 0.71716014
vt 0.61811933 0.78878490
vn -1.5904881e-18 1.00000000 1.6555535e-17
vn 9.4696593e-2 0.99400373 5.4673103e-2
vn 7.7319444e-2 0.99400373 7.7319444e-2
vn 5.4673103e-2 0.99400373 9.4696593e-2
vn 2.8300881e-2 0.99400373 0.10562032
vn 9.9801804e-18 0.99400373 0.10934621
vn -2.8300881e-2 0.99400373 0.10562032
vn -5.4673103e-2 0.99400373 9.4696593e-2
vn -7.7319444e-2 0.99400373 7.7319444e-2
vn -9.4696593e-2 0.99400373 5.4673103e-2
vn -0.10562032 0.99400373 2.8300881e-2
vn -0.10934621 0.99400373 3.4279750e-17
vn -0.10562032 0.99400373 -2.8300881e-2
vn -9.4696593e-2 0.99400373 -5.4673103e-2
vn -7.7319444e-2 0.99400373 -7.7319444e-2
vn -5.4673103e-2 0.99400373 -9.4696593e-2
vn -2.8300881e-2 0.99400373 -0.10562032
vn -7.2030867e-17 0.99400373 -0.10934621
vn 2.8300881e-2 0.99400373 -0.10562032
vn 5.4673103e-2 0.99400373 -9.4696593e-2
vn 7.7319444e-2 0.99400373 -7.7319444e-2
vn 9.4696593e-2 0.99400373 -5.4673103e-2
vn 0.10562032 0.99400373 -2.8300881e-2
vn 0.10934621 0.99400373 -3.8185038e-17
vn 0.10562032 0.99400373 2.8300881e-2
vn 4.8213311e-2 0.99875351 1.2918718e-2
vn 4.9914093e-2 0.99875351 -1.7496511e-16
vn 4.8213311e-2 0.99875351 -1.2918718e-2
vn 4.3226872e-2 0.99875351 -2.4957046e-2
vn 3.5294593e-2 0.99875351 -3.5294593e-2
vn 2.4957046e-2 0.99875351 -4.3226872e-2
vn 1.2918718e-2 0.99875351 -4.8213311e-2
vn -3.5144882e-17 0.99875351 -4.9914093e-2
vn -1.2918718e-2 0.99875351 -4.8213311e-2
vn -2.4957046e-2 0.99875351 -4.3226872e-2
vn -3.5294593e-2 0.99875351 -3.5294593e-2
vn -4.3226872e-2 0.99875351 -2.4957046e-2
vn -4.8213311e-2 0.99875351 -1.2918718e-2
vn -4.9914093e-2 0.99875351 1.1606489e-17
vn -4.8213311e-2 0.99875351 1.2918718e-2
vn -4.3226872e-2 0.99875351 2.4957046e-2
vn -3.5294593e-2 0.99875351 3.5294593e-2
vn -2.4957046e-2 0.99875351 4.3226872e-2
vn -1.2918718e-2 0.99875351 4.8213311e-2
vn -3.5795713e-18 0.99875351 4.9914093e-2
vn 1.2918718e-2 0.99875351 4.8213311e-2
vn 2.4957046e-2 0.99875351 4.3226872e-2
vn 3.5294593e-2 0.99875351 3.5294593e-2
vn 4.3226872e-2 0.99875351 2.4957046e-2
vn 1.00000000 0.0000000e+0 -1.2597785e-16
vn 1.00000000 0.0000000e+0 -1.2597785e-16
vn 0.13885381 0.99031289 -2.9495226e-17
vn 0.13885381 0.99031289 -2.9495226e-17
vn 0.96592583 0.0000000e+0 0.25881905
vn 0.96592583 0.0000000e+0 0.25881905
vn 0.13412248 0.99031289 3.5938011e-2
vn 0.13412248 0.99031289 3.5938011e-2
vn 0.86602540 0.0000000e+0 0.50000000
vn 0.86602540 0.0000000e+0 0.50000000
vn 0.12025093 0.99031289 6.9426907e-2
vn 0.12025093 0.99031289 6.9426907e-2
vn 0.70710678 0.0000000e+0 0.70710678
vn 0.70710678 0.0000000e+0 0.70710678
vn 9.8184473e-2 0.99031289 9.8184473e-2
vn 9.8184473e-2 0.99031289 9.8184473e-2
vn 0.50000000 0.0000000e+0 0.86602540
vn 0.50000000 0.0000000e+0 0.86602540
vn 6.9426907e-2 0.99031289 0.12025093
vn 6.9426907e-2 0.99031289 0.12025093
vn 0.25881905 0.0000000e+0 0.96592583
vn 0.25881905 0.0000000e+0 0.96592583
vn 3.5938011e-2 0.99031289 0.13412248
vn 3.5938011e-2 0.99031289 0.13412248
vn 2.7995077e-16 0.0000000e+0 1.00000000
vn 2.7995077e-16 0.0000000e+0 1.00000000
vn 2.6025200e-17 0.99031289 0.13885381
vn 2.6025200e-17 0.99031289 0.13885381
vn -0.25881905 0.0000000e+0 0.96592583
vn -0.25881905 0.0000000e+0 0.96592583
vn -3.5938011e-2 0.99031289 0.13412248
vn -3.5938011e-2 0.99031289 0.13412248
vn -0.50000000 0.0000000e+0 0.86602540
vn -0.50000000 0.0000000e+0 0.86602540
vn -6.9426907e-2 0.99031289 0.12025093
vn -6.9426907e-2 0.99031289 0.12025093
vn -0.70710678 0.0000000e+0 0.70710678
vn -0.70710678 0.0000000e+0 0.70710678
vn -9.8184473e-2 0.99031289 9.8184473e-2
vn -9.8184473e-2 0.99031289 9.8184473e-2
vn -0.86602540 0.0000000e+0 0.50000000
vn -0.86602540 0.0000000e+0 0.50000000
vn -0.12025093 0.99031289 6.9426907e-2
vn -0.12025093 0.99031289 6.9426907e-2
vn -0.96592583 0.0000000e+0 0.25881905
vn -0.96592583 0.0000000e+0 0.25881905
vn -0.13412248 0.99031289 3.5938011e-2
vn -0.13412248 0.99031289 3.5938011e-2
vn -1.00000000 0.0000000e+0 2.3795816e-16
vn -1.00000000 0.0000000e+0 2.3795816e-16
vn -0.13885381 0.99031289 4.3375333e-17
vn -0.13885381 0.99031289 4.3375333e-17
vn -0.96592583 0.0000000e+0 -0.25881905
vn -0.96592583 0.0000000e+0 -0.25881905
vn -0.13412248 0.99031289 -3.5938011e-2
vn -0.13412248 0.99031289 -3.5938011e-2
vn -0.86602540 0.0000000e+0 -0.50000000
vn -0.86602540 0.0000000e+0 -0.50000000
vn -0.12025093 0.99031289 -6.9426907e-2
vn -0.12025093 0.99031289 -6.9426907e-2
vn -0.70710678 0.0000000e+0 -0.70710678
vn -0.70710678 0.0000000e+0 -0.70710678
vn -9.8184473e-2 0.99031289 -9.8184473e-2
vn -9.8184473e-2 0.99031289 -9.8184473e-2
vn -0.50000000 0.0000000e+0 -0.86602540
vn -0.50000000 0.0000000e+0 -0.86602540
vn -6.9426907e-2 0.99031289 -0.12025093
vn -6.9426907e-2 0.99031289 -0.12025093
vn -0.25881905 0.0000000e+0 -0.96592583
vn -0.25881905 0.0000000e+0 -0.96592583
vn -3.5938011e-2 0.99031289 -0.13412248
vn -3.5938011e-2 0.99031289 -0.13412248
vn -4.6191878e-16 0.0000000e+0 -1.00000000
vn -4.6191878e-16 0.0000000e+0 -1.00000000
vn -8.3280639e-17 0.99031289 -0.13885381
vn -8.3280639e-17 0.99031289 -0.13885381
vn 0.25881905 0.0000000e+0 -0.96592583
vn 0.25881905 0.0000000e+0 -0.96592583
vn 3.5938011e-2 0.99031289 -0.13412248
vn 3.5938011e-2 0.99031289 -0.13412248
vn 0.50000000 0.0000000e+0 -0.86602540
vn 0.50000000 0.0000000e+0 -0.86602540
vn 6.9426907e-2 0.99031289 -0.12025093
vn 6.9426907e-2 0.99031289 -0.12025093
vn 0.70710678 0.0000000e+0 -0.70710678
vn 0.70710678 0.0000000e+0 -0.70710678
vn 9.8184473e-2 0.99031289 -9.8184473e-2
vn 9.8184473e-2 0.99031289 -9.8184473e-2
vn 0.86602540 0.0000000e+0 -0.50000000
vn 0.86602540 0.0000000e+0 -0.50000000
vn 0.12025093 0.99031289 -6.9426907e-2
vn 0.12025093 0.99031289 -6.9426907e-2
vn 0.96592583 0.0000000e+0 -0.25881905
vn 0.96592583 0.0000000e+0 -0.25881905
vn 0.13412248 0.99031289 -3.5938011e-2
vn 0.13412248 0.99031289 -3.5938011e-2
vn 1.00000000 0.0000000e+0 -1.2597785e-16
vn 1.00000000 0.0000000e+0 -1.2597785e-16
vn 0.96592583 0.0000000e+0 0.25881905
vn 0.96592583 0.0000000e+0 0.25881905
vn 0.86602540 0.0000000e+0 0.50000000
vn 0.86602540 0.0000000e+0 0.50000000
vn 0.70710678 0.0000000e+0 0.70710678
vn 0.70710678 0.0000000e+0 0.70710678
vn 0.50000000 0.0000000e+0 0.86602540
vn 0.50000000 0.0000000e+0 0.86602540
vn 0.25881905 0.0000000e+0 0.96592583
vn 0.25881905 0.0000000e+0 0.96592583
vn 2.7995077e-16 0.0000000e+0 1.00000000
vn 2.7995077e-16 0.0000000e+0 1.00000000
vn -0.25881905 0.0000000e+0 0.96592583
vn -0.25881905 0.0000000e+0 0.96592583
vn -0.50000000 0.0000000e+0 0.86602540
vn -0.50000000 0.0000000e+0 0.86602540
vn -0.70710678 0.0000000e+0 0.70710678
vn -0.70710678 0.0000000e+0 0.70710678
vn -0.86602540 0.0000000e+0 0.50000000
vn -0.86602540 0.0000000e+0 0.50000000
vn -0.96592583 0.0000000e+0 0.25881905
vn -0.96592583 0.0000000e+0 0.25881905
vn -1.00000000 0.0000000e+0 2.3795816e-16
vn -1.00000000 0.0000000e+0 2.3795816e-16
vn -0.96592583 0.0000000e+0 -0.25881905
vn -0.96592583 0.0000000e+0 -0.25881905
vn -0.86602540 0.0000000e+0 -0.50000000
vn -0.86602540 0.0000000e+0 -0.50000000
vn -0.70710678 0.0000000e+0 -0.70710678
vn -0.70710678 0.0000000e+0 -0.70710678
vn -0.50000000 0.0000000e+0 -0.86602540
vn -0.50000000 0.0000000e+0 -0.86602540
vn -0.25881905 0.0000000e+0 -0.96592583
vn -0.25881905 0.0000000e+0 -0.96592583
vn -4.6191878e-16 0.0000000e+0 -1.00000000
vn -4.6191878e-16 0.0000000e+0 -1.00000000
vn 0.25881905 0.0000000e+0 -0.96592583
vn 0.25881905 0.0000000e+0 -0.96592583
vn 0.50000000 0.0000000e+0 -0.86602540
vn 0.50000000 0.0000000e+0 -0.86602540
vn 0.70710678 0.0000000e+0 -0.70710678
vn 0.70710678 0.0000000e+0 -0.70710678
vn 0.86602540 0.0000000e+0 -0.50000000
vn 0.86602540 0.0000000e+0 -0.50000000
vn 0.96592583 0.0000000e+0 -0.25881905
vn 0.96592583 0.0000000e+0 -0.25881905
g 2_2_auv
usemtl 2_auv
s 1
f 1/82/52 72/67/24 73/63/25 2/80/56
f 2/80/57 73/63/25 50/60/2 3/77/61
f 3/77/60 50/60/2 51/52/3 4/72/65
f 4/72/64 51/52/3 52/48/4 5/57/69
f 5/57/68 52/48/4 53/26/5 6/33/73
f 6/33/72 53/26/5 54/11/6 7/15/77
f 7/12/76 54/2/6 55/24/7 8/32/81
f 8/32/80 55/24/7 56/47/8 9/55/85
f 9/55/84 56/47/8 57/51/9 10/71/89
f 10/71/88 57/51/9 58/59/10 11/75/93
f 11/75/92 58/59/10 59/65/11 12/79/97
f 12/79/96 59/65/11 60/69/12 13/84/101
f 13/82/100 60/66/12 61/62/13 14/81/105
f 14/81/104 61/62/13 62/61/14 15/76/109
f 15/76/108 62/61/14 63/53/15 16/73/113
f 16/73/112 63/53/15 64/49/16 17/56/117
f 17/56/116 64/49/16 65/25/17 18/34/121
f 18/34/120 65/25/17 66/10/18 19/14/125
f 19/13/124 66/1/18 67/23/19 20/31/129
f 20/31/128 67/23/19 68/46/20 21/54/133
f 21/54/132 68/46/20 69/50/21 22/70/137
f 22/70/136 69/50/21 70/58/22 23/74/141
f 23/74/140 70/58/22 71/64/23 24/78/145
f 24/78/144 71/64/23 72/68/24 1/83/53
f 49/3/1 97/36/49 74/39/26
f 50/60/2 73/63/25 74/39/26 97/36/49
f 74/39/26 75/43/27 49/3/1
f 75/43/27 74/39/26 73/63/25 72/67/24
f 75/44/27 76/40/28 49/8/1
f 76/40/28 75/44/27 72/68/24 71/64/23
f 76/40/28 77/37/29 49/8/1
f 77/37/29 76/40/28 71/64/23 70/58/22
f 77/37/29 78/29/30 49/8/1
f 78/29/30 77/37/29 70/58/22 69/50/21
f 78/29/30 79/20/31 49/8/1
f 79/20/31 78/29/30 69/50/21 68/46/20
f 79/20/31 80/16/32 49/8/1
f 80/16/32 79/20/31 68/46/20 67/23/19
f 80/16/32 81/4/33 49/8/1
f 81/4/33 80/16/32 67/23/19 66/1/18
f 81/6/33 82/19/34 49/3/1
f 82/19/34 81/6/33 66/10/18 65/25/17
f 82/19/34 83/21/35 49/3/1
f 83/21/35 82/19/34 65/25/17 64/49/16
f 83/21/35 84/28/36 49/3/1
f 84/28/36 83/21/35 64/49/16 63/53/15
f 84/28/36 85/35/37 49/3/1
f 85/35/37 84/28/36 63/53/15 62/61/14
f 85/35/37 86/39/38 49/3/1
f 86/39/38 85/35/37 62/61/14 61/62/13
f 86/39/38 87/42/39 49/3/1
f 87/42/39 86/39/38 61/62/13 60/66/12
f 87/45/39 88/41/40 49/9/1
f 88/41/40 87/45/39 60/69/12 59/65/11
f 88/41/40 89/38/41 49/9/1
f 89/38/41 88/41/40 59/65/11 58/59/10
f 89/38/41 90/30/42 49/9/1
f 90/30/42 89/38/41 58/59/10 57/51/9
f 90/30/42 91/20/43 49/9/1
f 91/20/43 90/30/42 57/51/9 56/47/8
f 91/20/43 92/17/44 49/9/1
f 92/17/44 91/20/43 56/47/8 55/24/7
f 92/17/44 93/5/45 49/9/1
f 93/5/45 92/17/44 55/24/7 54/2/6
f 93/7/45 94/18/46 49/3/1
f 94/18/46 93/7/45 54/11/6 53/26/5
f 94/18/46 95/22/47 49/3/1
f 95/22/47 94/18/46 53/26/5 52/48/4
f 95/22/47 96/27/48 49/3/1
f 96/27/48 95/22/47 52/48/4 51/52/3
f 96/27/48 97/36/49 49/3/1
f 97/36/49 96/27/48 51/52/3 50/60/2
s 2
f 1/96/50 25/119/146 48/121/192 24/98/142
f 2/91/55 26/117/149 25/127/147 1/93/51
f 3/101/59 27/124/151 26/117/148 2/91/54
f 4/99/63 28/122/153 27/124/150 3/101/58
f 5/97/67 29/120/155 28/122/152 4/99/62
f 6/91/71 30/125/157 29/116/154 5/93/66
f 7/89/75 31/113/159 30/125/156 6/91/70
f 8/88/79 32/112/161 31/113/158 7/89/74
f 9/85/83 33/110/163 32/112/160 8/88/78
f 10/92/87 34/126/165 33/127/162 9/93/82
f 11/90/91 35/123/167 34/126/164 10/92/86
f 12/105/95 36/131/169 35/123/166 11/90/90
f 13/106/99 37/130/171 36/131/168 12/105/94
f 14/102/103 38/128/173 37/129/170 13/103/98
f 15/108/107 39/133/175 38/128/172 14/102/102
f 16/107/111 40/132/177 39/133/174 15/108/106
f 17/109/115 41/130/179 40/132/176 16/107/110
f 18/94/119 42/115/181 41/127/178 17/95/114
f 19/86/123 43/114/183 42/115/180 18/94/118
f 20/88/127 44/112/185 43/114/182 19/86/122
f 21/87/131 45/111/187 44/112/184 20/88/126
f 22/102/135 46/125/189 45/118/186 21/104/130
f 23/100/139 47/123/191 46/125/188 22/102/134
f 24/98/143 48/121/193 47/123/190 23/100/138
