# Exported from Wings 3D 1.5.4
mtllib rotanev_nose_cone_s0p5_2.mtl
o 1
#145 vertices, 156 faces
v 0.12500000 0.68750000 0.34375000
v 0.12074073 0.68750000 0.37610238
v 0.10825318 0.68750000 0.40625000
v 8.8388348e-2 0.68750000 0.43213835
v 6.2500000e-2 0.68750000 0.45200318
v 3.2352381e-2 0.68750000 0.46449073
v 0.0000000e+0 0.68750000 0.46875000
v -3.2352381e-2 0.68750000 0.46449073
v -6.2500000e-2 0.68750000 0.45200318
v -8.8388348e-2 0.68750000 0.43213835
v -0.10825318 0.68750000 0.40625000
v -0.12074073 0.68750000 0.37610238
v -0.12500000 0.68750000 0.34375000
v -0.12074073 0.68750000 0.31139762
v -0.10825318 0.68750000 0.28125000
v -8.8388348e-2 0.68750000 0.25536165
v -6.2500000e-2 0.68750000 0.23549682
v -3.2352381e-2 0.68750000 0.22300927
v 0.0000000e+0 0.68750000 0.21875000
v 3.2352381e-2 0.68750000 0.22300927
v 6.2500000e-2 0.68750000 0.23549682
v 8.8388348e-2 0.68750000 0.25536165
v 0.10825318 0.68750000 0.28125000
v 0.12074073 0.68750000 0.31139762
v 0.46875000 -0.93750000 -1.7817056e-17
v 0.45277773 -0.93750000 0.12132143
v 0.40594941 -0.93750000 0.23437500
v 0.33145630 -0.93750000 0.33145630
v 0.23437500 -0.93750000 0.40594941
v 0.12132143 -0.93750000 0.45277773
v 0.0000000e+0 -0.93750000 0.46875000
v -0.12132143 -0.93750000 0.45277773
v -0.23437500 -0.93750000 0.40594941
v -0.33145630 -0.93750000 0.33145630
v -0.40594941 -0.93750000 0.23437500
v -0.45277773 -0.93750000 0.12132143
v -0.46875000 -0.93750000 3.9588263e-17
v -0.45277773 -0.93750000 -0.12132143
v -0.40594941 -0.93750000 -0.23437500
v -0.33145630 -0.93750000 -0.33145630
v -0.23437500 -0.93750000 -0.40594941
v -0.12132143 -0.93750000 -0.45277773
v -1.1102230e-16 -0.93750000 -0.46875000
v 0.12132143 -0.93750000 -0.45277773
v 0.23437500 -0.93750000 -0.40594941
v 0.33145630 -0.93750000 -0.33145630
v 0.40594941 -0.93750000 -0.23437500
v 0.45277773 -0.93750000 -0.12132143
v 0.0000000e+0 0.90625000 0.38750000
v 8.6592814e-2 0.77916105 0.41249438
v 4.9994385e-2 0.77916105 0.44909281
v 0.0000000e+0 0.77916105 0.46248877
v -4.9994385e-2 0.77916105 0.44909281
v -8.6592814e-2 0.77916105 0.41249438
v -9.9988769e-2 0.77916105 0.36250000
v -8.6592814e-2 0.77916105 0.31250562
v -4.9994385e-2 0.77916105 0.27590719
v 0.0000000e+0 0.77916105 0.26251123
v 4.9994385e-2 0.77916105 0.27590719
v 8.6592814e-2 0.77916105 0.31250562
v 9.9988769e-2 0.77916105 0.36250000
v 5.8322103e-2 0.86249438 0.38125000
v 5.0508423e-2 0.86249438 0.35208895
v 2.9161051e-2 0.86249438 0.33074158
v 0.0000000e+0 0.86249438 0.32292790
v -2.9161051e-2 0.86249438 0.33074158
v -5.0508423e-2 0.86249438 0.35208895
v -5.8322103e-2 0.86249438 0.38125000
v -5.0508423e-2 0.86249438 0.41041105
v -2.9161051e-2 0.86249438 0.43175842
v 0.0000000e+0 0.86249438 0.43957210
v 2.9161051e-2 0.86249438 0.43175842
v 5.0508423e-2 0.86249438 0.41041105
v 0.28675923 -0.12500000 9.5038096e-2
v 0.25710129 -0.12500000 2.3437500e-2
v 0.20992233 -0.12500000 -3.8047326e-2
v 0.14843750 -0.12500000 -8.5226292e-2
v 7.6836904e-2 -0.12500000 -0.11488423
v 0.0000000e+0 -0.12500000 -0.12500000
v -7.6836904e-2 -0.12500000 -0.11488423
v -0.14843750 -0.12500000 -8.5226292e-2
v -0.20992233 -0.12500000 -3.8047326e-2
v -0.25710129 -0.12500000 2.3437500e-2
v -0.28675923 -0.12500000 9.5038096e-2
v -0.29687500 -0.12500000 0.17187500
v -0.28675923 -0.12500000 0.24871190
v -0.25710129 -0.12500000 0.32031250
v -0.20992233 -0.12500000 0.38179733
v -0.14843750 -0.12500000 0.42897629
v -7.6836904e-2 -0.12500000 0.45863423
v 0.0000000e+0 -0.12500000 0.46875000
v 7.6836904e-2 -0.12500000 0.45863423
v 0.14843750 -0.12500000 0.42897629
v 0.20992233 -0.12500000 0.38179733
v 0.25710129 -0.12500000 0.32031250
v 0.28675923 -0.12500000 0.24871190
v 0.29687500 -0.12500000 0.17187500
v 0.20374998 0.28125000 0.20321786
v 0.18267723 0.28125000 0.15234375
v 0.14915534 0.28125000 0.10865716
v 0.10546875 0.28125000 7.5135266e-2
v 5.4594642e-2 0.28125000 5.4062521e-2
v 0.0000000e+0 0.28125000 4.6875000e-2
v -5.4594642e-2 0.28125000 5.4062521e-2
v -0.10546875 0.28125000 7.5135266e-2
v -0.14915534 0.28125000 0.10865716
v -0.18267723 0.28125000 0.15234375
v -0.20374998 0.28125000 0.20321786
v -0.21093750 0.28125000 0.25781250
v -0.20374998 0.28125000 0.31240714
v -0.18267723 0.28125000 0.36328125
v -0.14915534 0.28125000 0.40696784
v -0.10546875 0.28125000 0.44048973
v -5.4594642e-2 0.28125000 0.46156248
v 0.0000000e+0 0.28125000 0.46875000
v 5.4594642e-2 0.28125000 0.46156248
v 0.10546875 0.28125000 0.44048973
v 0.14915534 0.28125000 0.40696784
v 0.18267723 0.28125000 0.36328125
v 0.20374998 0.28125000 0.31240714
v 0.21093750 0.28125000 0.25781250
v 0.38281250 -0.53125000 8.5937500e-2
v 0.36976848 -0.53125000 0.18501667
v 0.33152535 -0.53125000 0.27734375
v 0.27068931 -0.53125000 0.35662681
v 0.19140625 -0.53125000 0.41746285
v 9.9079166e-2 -0.53125000 0.45570598
v 0.0000000e+0 -0.53125000 0.46875000
v -9.9079166e-2 -0.53125000 0.45570598
v -0.19140625 -0.53125000 0.41746285
v -0.27068931 -0.53125000 0.35662681
v -0.33152535 -0.53125000 0.27734375
v -0.36976848 -0.53125000 0.18501667
v -0.38281250 -0.53125000 8.5937500e-2
v -0.36976848 -0.53125000 -1.3141666e-2
v -0.33152535 -0.53125000 -0.10546875
v -0.27068931 -0.53125000 -0.18475181
v -0.19140625 -0.53125000 -0.24558785
v -9.9079166e-2 -0.53125000 -0.28383098
v -1.1102230e-16 -0.53125000 -0.29687500
v 9.9079166e-2 -0.53125000 -0.28383098
v 0.19140625 -0.53125000 -0.24558785
v 0.27068931 -0.53125000 -0.18475181
v 0.33152535 -0.53125000 -0.10546875
v 0.36976848 -0.53125000 -1.3141666e-2
vt 0.55434443 0.43612780
vt 0.55434443 0.43612780
vt 0.55451427 0.55663223
vt 0.55451427 0.55663223
vt 0.55451427 0.55950808
vt 0.55451427 0.56252703
vt 0.55451427 0.56567488
vt 0.55451427 0.56893995
vt 0.55451427 0.56893995
vt 0.55451427 0.57229661
vt 0.55451427 0.57572086
vt 0.55451427 0.57914511
vt 0.55451427 0.58250177
vt 0.55451427 0.58250177
vt 0.55451427 0.58576683
vt 0.55451427 0.58891468
vt 0.55451427 0.59193363
vt 0.55451427 0.59193363
vt 0.55451427 0.59480948
vt 0.55451427 0.59480948
vt 0.56362533 0.56201503
vt 0.56362533 0.56636282
vt 0.56362533 0.57096105
vt 0.56362533 0.57572086
vt 0.56362533 0.58048066
vt 0.56362533 0.58507889
vt 0.56362533 0.58942668
vt 0.56362533 0.56201503
vt 0.56362533 0.56636282
vt 0.56362533 0.57096105
vt 0.56362533 0.57572086
vt 0.56362533 0.58048066
vt 0.56362533 0.58507889
vt 0.56362533 0.58942668
vt 0.56578273 0.43612780
vt 0.56578273 0.43612780
vt 0.56725506 0.47588873
vt 0.56725506 0.47588873
vt 0.57144719 0.56848602
vt 0.57144719 0.57064884
vt 0.57144719 0.57311164
vt 0.57144719 0.57572086
vt 0.57144719 0.57833007
vt 0.57144719 0.58079287
vt 0.57144719 0.58295569
vt 0.57144719 0.56848602
vt 0.57144719 0.57064884
vt 0.57144719 0.57311164
vt 0.57144719 0.57572086
vt 0.57144719 0.57833007
vt 0.57144719 0.58079287
vt 0.57144719 0.58295569
vt 0.57659631 0.47588873
vt 0.57659631 0.47588873
vt 0.57691612 0.57572086
vt 0.57739612 0.43612780
vt 0.57739612 0.43612780
vt 0.58018183 0.51566502
vt 0.58018183 0.51566502
vt 0.58608013 0.47588873
vt 0.58608013 0.47588873
vt 0.58742569 0.51566502
vt 0.58742569 0.51566502
vt 0.58913837 0.43612780
vt 0.58913837 0.43612780
vt 0.59311214 0.55542189
vt 0.59311214 0.55542189
vt 0.59477865 0.51566502
vt 0.59477865 0.51566502
vt 0.59567612 0.47588873
vt 0.59567612 0.47588873
vt 0.59825830 0.55542189
vt 0.59825830 0.55542189
vt 0.60098248 0.43612780
vt 0.60098248 0.43612780
vt 0.60222104 0.51566502
vt 0.60222104 0.51566502
vt 0.60348322 0.55542189
vt 0.60348322 0.55542189
vt 0.60535459 0.47588873
vt 0.60535459 0.47588873
vt 0.60602139 0.59518828
vt 0.60877063 0.55542189
vt 0.60877063 0.55542189
vt 0.60907723 0.59518828
vt 0.60907723 0.59518828
vt 0.60972929 0.51566502
vt 0.60972929 0.51566502
vt 0.61217953 0.59518828
vt 0.61289780 0.43612780
vt 0.61289780 0.43612780
vt 0.61410382 0.55542189
vt 0.61410382 0.55542189
vt 0.61508977 0.47588873
vt 0.61508977 0.47588873
vt 0.61530586 0.59518828
vt 0.61530586 0.59518828
vt 0.61727891 0.51566502
vt 0.61727891 0.51566502
vt 0.61845955 0.59518828
vt 0.61845955 0.59518828
vt 0.61946862 0.55542189
vt 0.61946862 0.55542189
vt 0.62165050 0.59518828
vt 0.62165050 0.59518828
vt 0.62485058 0.43612780
vt 0.62485058 0.47588873
vt 0.62485058 0.55542189
vt 0.62485058 0.43612780
vt 0.62485058 0.47588873
vt 0.62485058 0.51566502
vt 0.62485058 0.55542189
vt 0.62485058 0.59518828
vt 0.62485058 0.51566502
vt 0.62805066 0.59518828
vt 0.62805066 0.59518828
vt 0.63023253 0.55542189
vt 0.63023253 0.55542189
vt 0.63124160 0.59518828
vt 0.63124160 0.59518828
vt 0.63242225 0.51566502
vt 0.63242225 0.51566502
vt 0.63439529 0.59518828
vt 0.63461138 0.47588873
vt 0.63461138 0.47588873
vt 0.63559733 0.55542189
vt 0.63559733 0.55542189
vt 0.63680336 0.43612780
vt 0.63680336 0.43612780
vt 0.63752162 0.59518828
vt 0.63752162 0.59518828
vt 0.63997186 0.51566502
vt 0.63997186 0.51566502
vt 0.64062392 0.59518828
vt 0.64093053 0.55542189
vt 0.64093053 0.55542189
vt 0.64367977 0.59518828
vt 0.64367977 0.59518828
vt 0.64434657 0.47588873
vt 0.64434657 0.47588873
vt 0.64621793 0.55542189
vt 0.64621793 0.55542189
vt 0.64748011 0.51566502
vt 0.64748011 0.51566502
vt 0.64871868 0.43612780
vt 0.64871868 0.43612780
vt 0.65144286 0.55542189
vt 0.65144286 0.55542189
vt 0.65402503 0.47588873
vt 0.65402503 0.47588873
vt 0.65492250 0.51566502
vt 0.65492250 0.51566502
vt 0.65658901 0.55542189
vt 0.65658901 0.55542189
vt 0.66056278 0.43612780
vt 0.66056278 0.43612780
vt 0.66227546 0.51566502
vt 0.66227546 0.51566502
vt 0.66362102 0.47588873
vt 0.66362102 0.47588873
vt 0.66951932 0.51566502
vt 0.66951932 0.51566502
vt 0.67230504 0.43612780
vt 0.67230504 0.43612780
vt 0.67310485 0.47588873
vt 0.67310485 0.47588873
vt 0.68244610 0.47588873
vt 0.68244610 0.47588873
vt 0.68391843 0.43612780
vt 0.68391843 0.43612780
vt 0.69535673 0.43612780
vt 0.69535673 0.43612780
vn 0.97198320 0.23504904 7.8450778e-4
vn 0.94671301 0.19781311 0.25417404
vn 0.85769452 0.13667031 0.49566252
vn 0.70280840 0.10840209 0.70307136
vn 0.49895000 6.1829077e-2 0.86442239
vn 0.25839293 5.5402768e-2 0.96444991
vn 3.9215132e-16 3.4095351e-2 0.99941858
vn -0.25839293 5.5402768e-2 0.96444991
vn -0.49895000 6.1829077e-2 0.86442239
vn -0.70280840 0.10840209 0.70307136
vn -0.85769452 0.13667031 0.49566252
vn -0.94671301 0.19781311 0.25417404
vn -0.97198320 0.23504904 7.8450778e-4
vn -0.92306233 0.29520466 -0.24659714
vn -0.81891808 0.32681365 -0.47176903
vn -0.65654395 0.37292060 -0.65565255
vn -0.46116123 0.38883098 -0.79758435
vn -0.23576280 0.41462861 -0.87891923
vn 1.7825741e-16 0.41034825 -0.91192890
vn 0.23576280 0.41462861 -0.87891923
vn 0.46116123 0.38883098 -0.79758435
vn 0.65654395 0.37292060 -0.65565255
vn 0.81891808 0.32681365 -0.47176903
vn 0.92306233 0.29520466 -0.24659714
vn -4.8117606e-16 0.99963730 2.6930843e-2
vn 0.83787545 0.24764533 0.48645301
vn 0.49125250 0.17642055 0.85296352
vn 3.8081333e-17 0.14956455 0.98875196
vn -0.49125250 0.17642055 0.85296352
vn -0.83787545 0.24764533 0.48645301
vn -0.94085612 0.33878962 3.3683128e-3
vn -0.78692743 0.42164219 -0.45051424
vn -0.44128987 0.47663978 -0.76031426
vn -1.8918173e-16 0.49555711 -0.86857536
vn 0.44128987 0.47663978 -0.76031426
vn 0.78692743 0.42164219 -0.45051424
vn 0.94085612 0.33878962 3.3683128e-3
vn 0.76699742 0.64163596 4.2725404e-3
vn 0.63452639 0.68289522 -0.36198118
vn 0.35409082 0.70978449 -0.60895457
vn -9.3164373e-17 0.71896775 -0.69504344
vn -0.35409082 0.70978449 -0.60895457
vn -0.63452639 0.68289522 -0.36198118
vn -0.76699742 0.64163596 4.2725404e-3
vn -0.69443258 0.59478785 0.40495778
vn -0.41370843 0.55678873 0.72029969
vn 4.4637915e-17 0.54208521 0.84032353
vn 0.41370843 0.55678873 0.72029969
vn 0.69443258 0.59478785 0.40495778
vn 0.93365642 0.25716181 -0.24930603
vn 0.82593441 0.30230395 -0.47586202
vn 0.66563850 0.33954922 -0.66455377
vn 0.46558483 0.36711341 -0.80526921
vn 0.23927474 0.38397337 -0.89180270
vn -1.6425823e-16 0.38963999 -0.92096725
vn -0.23927474 0.38397337 -0.89180270
vn -0.46558483 0.36711341 -0.80526921
vn -0.66563850 0.33954922 -0.66455377
vn -0.82593441 0.30230395 -0.47586202
vn -0.93365642 0.25716181 -0.24930603
vn -0.97838002 0.20681397 7.1397528e-4
vn -0.95414744 0.15479102 0.25620775
vn -0.86106457 0.10512372 0.49751061
vn -0.70564349 6.1816213e-2 0.70586544
vn -0.49975523 2.8324015e-2 0.86570345
vn -0.25880583 7.2074430e-3 0.96590248
vn -1.1897908e-16 4.5396005e-18 1.00000000
vn 0.25880583 7.2074430e-3 0.96590248
vn 0.49975523 2.8324015e-2 0.86570345
vn 0.70564349 6.1816213e-2 0.70586544
vn 0.86106457 0.10512372 0.49751061
vn 0.95414744 0.15479102 0.25620775
vn 0.97838002 0.20681397 7.1397528e-4
vn 0.93365642 0.25716181 -0.24930603
vn 0.82593441 0.30230395 -0.47586202
vn 0.66563850 0.33954922 -0.66455377
vn 0.46558483 0.36711341 -0.80526921
vn 0.23927474 0.38397337 -0.89180270
vn -7.6886833e-17 0.38963999 -0.92096725
vn -0.23927474 0.38397337 -0.89180270
vn -0.46558483 0.36711341 -0.80526921
vn -0.66563850 0.33954922 -0.66455377
vn -0.82593441 0.30230395 -0.47586202
vn -0.93365642 0.25716181 -0.24930603
vn -0.97838002 0.20681397 7.1397528e-4
vn -0.95414744 0.15479102 0.25620775
vn -0.86106457 0.10512372 0.49751061
vn -0.70564349 6.1816213e-2 0.70586544
vn -0.49975523 2.8324015e-2 0.86570345
vn -0.25880583 7.2074430e-3 0.96590248
vn 1.8896677e-16 -9.1847731e-18 1.00000000
vn 0.25880583 7.2074430e-3 0.96590248
vn 0.49975523 2.8324015e-2 0.86570345
vn 0.70564349 6.1816213e-2 0.70586544
vn 0.86106457 0.10512372 0.49751061
vn 0.95414744 0.15479102 0.25620775
vn 0.97838002 0.20681397 7.1397528e-4
vn 0.97838002 0.20681397 7.1397528e-4
vn 0.95414744 0.15479102 0.25620775
vn 0.86106457 0.10512372 0.49751061
vn 0.70564349 6.1816213e-2 0.70586544
vn 0.49975523 2.8324015e-2 0.86570345
vn 0.25880583 7.2074430e-3 0.96590248
vn 0.0000000e+0 2.7418969e-18 1.00000000
vn -0.25880583 7.2074430e-3 0.96590248
vn -0.49975523 2.8324015e-2 0.86570345
vn -0.70564349 6.1816213e-2 0.70586544
vn -0.86106457 0.10512372 0.49751061
vn -0.95414744 0.15479102 0.25620775
vn -0.97838002 0.20681397 7.1397528e-4
vn -0.93365642 0.25716181 -0.24930603
vn -0.82593441 0.30230395 -0.47586202
vn -0.66563850 0.33954922 -0.66455377
vn -0.46558483 0.36711341 -0.80526921
vn -0.23927474 0.38397337 -0.89180270
vn -2.9356791e-16 0.38963999 -0.92096725
vn 0.23927474 0.38397337 -0.89180270
vn 0.46558483 0.36711341 -0.80526921
vn 0.66563850 0.33954922 -0.66455377
vn 0.82593441 0.30230395 -0.47586202
vn 0.93365642 0.25716181 -0.24930603
vn 0.97838002 0.20681397 7.1397528e-4
vn 0.97838002 0.20681397 7.1397528e-4
vn 0.95414744 0.15479102 0.25620775
vn 0.95414744 0.15479102 0.25620775
vn 0.86106457 0.10512372 0.49751061
vn 0.86106457 0.10512372 0.49751061
vn 0.70564349 6.1816213e-2 0.70586544
vn 0.70564349 6.1816213e-2 0.70586544
vn 0.49975523 2.8324015e-2 0.86570345
vn 0.49975523 2.8324015e-2 0.86570345
vn 0.25880583 7.2074430e-3 0.96590248
vn 0.25880583 7.2074430e-3 0.96590248
vn 1.2597785e-16 -9.6871077e-18 1.00000000
vn 1.2597785e-16 -9.6871077e-18 1.00000000
vn -0.25880583 7.2074430e-3 0.96590248
vn -0.25880583 7.2074430e-3 0.96590248
vn -0.49975523 2.8324015e-2 0.86570345
vn -0.49975523 2.8324015e-2 0.86570345
vn -0.70564349 6.1816213e-2 0.70586544
vn -0.70564349 6.1816213e-2 0.70586544
vn -0.86106457 0.10512372 0.49751061
vn -0.86106457 0.10512372 0.49751061
vn -0.95414744 0.15479102 0.25620775
vn -0.95414744 0.15479102 0.25620775
vn -0.97838002 0.20681397 7.1397528e-4
vn -0.97838002 0.20681397 7.1397528e-4
vn -0.93365642 0.25716181 -0.24930603
vn -0.93365642 0.25716181 -0.24930603
vn -0.82593441 0.30230395 -0.47586202
vn -0.82593441 0.30230395 -0.47586202
vn -0.66563850 0.33954922 -0.66455377
vn -0.66563850 0.33954922 -0.66455377
vn -0.46558483 0.36711341 -0.80526921
vn -0.46558483 0.36711341 -0.80526921
vn -0.23927474 0.38397337 -0.89180270
vn -0.23927474 0.38397337 -0.89180270
vn -3.5647532e-16 0.38963999 -0.92096725
vn -3.5647532e-16 0.38963999 -0.92096725
vn 0.23927474 0.38397337 -0.89180270
vn 0.23927474 0.38397337 -0.89180270
vn 0.46558483 0.36711341 -0.80526921
vn 0.46558483 0.36711341 -0.80526921
vn 0.66563850 0.33954922 -0.66455377
vn 0.66563850 0.33954922 -0.66455377
vn 0.82593441 0.30230395 -0.47586202
vn 0.82593441 0.30230395 -0.47586202
vn 0.93365642 0.25716181 -0.24930603
vn 0.93365642 0.25716181 -0.24930603
g 1_1_auv
usemtl 1_auv
s 2
f 1/4/1 61/28/37 2/5/2
f 1/82/1 121/67/97 98/72/74 24/86/24
f 2/5/2 50/29/26 3/6/3
f 2/5/2 61/28/37 50/29/26
f 2/85/2 120/73/96 121/66/97 1/82/1
f 3/6/3 50/29/26 4/7/4
f 3/89/3 119/78/95 120/73/96 2/85/2
f 4/7/4 50/29/26 51/30/27
f 4/7/4 51/30/27 5/8/5
f 4/96/4 118/84/94 119/78/95 3/89/3
f 5/8/5 51/30/27 6/10/6
f 5/100/5 117/92/93 118/84/94 4/96/4
f 6/10/6 51/30/27 52/31/28
f 6/10/6 52/31/28 7/11/7
f 6/104/6 116/102/92 117/92/93 5/100/5
f 7/11/7 52/31/28 8/12/8
f 7/113/7 115/108/91 116/102/92 6/104/6
f 8/12/8 52/31/28 53/32/29
f 8/12/8 53/32/29 9/14/9
f 8/115/8 114/118/90 115/108/91 7/113/7
f 9/14/9 53/32/29 10/15/10
f 9/119/9 113/126/89 114/118/90 8/115/8
f 10/15/10 53/32/29 54/33/30
f 10/15/10 54/33/30 11/16/11
f 10/123/10 112/135/88 113/126/89 9/119/9
f 11/16/11 54/33/30 12/18/12
f 11/130/11 111/141/87 112/135/88 10/123/10
f 12/18/12 54/33/30 55/34/31
f 12/18/12 55/34/31 13/19/13
f 12/134/12 110/147/86 111/141/87 11/130/11
f 13/3/13 55/21/31 14/5/14
f 13/137/13 109/153/85 110/147/86 12/134/12
f 14/5/14 55/21/31 56/22/32
f 14/5/14 56/22/32 15/6/15
f 14/134/14 108/148/84 109/154/85 13/138/13
f 15/6/15 56/22/32 16/7/16
f 15/131/15 107/142/83 108/148/84 14/134/14
f 16/7/16 56/22/32 57/23/33
f 16/7/16 57/23/33 17/9/17
f 16/123/16 106/136/82 107/142/83 15/131/15
f 17/9/17 57/23/33 18/10/18
f 17/120/17 105/127/81 106/136/82 16/123/16
f 18/10/18 57/23/33 58/24/34
f 18/10/18 58/24/34 19/11/19
f 18/116/18 104/117/80 105/127/81 17/120/17
f 19/11/19 58/24/34 20/12/20
f 19/113/19 103/112/79 104/117/80 18/116/18
f 20/12/20 58/24/34 59/25/35
f 20/12/20 59/25/35 21/13/21
f 20/105/20 102/103/78 103/112/79 19/113/19
f 21/13/21 59/25/35 22/15/22
f 21/101/21 101/93/77 102/103/78 20/105/20
f 22/15/22 59/25/35 60/26/36
f 22/15/22 60/26/36 23/16/23
f 22/97/22 100/83/76 101/93/77 21/101/21
f 23/16/23 60/26/36 24/17/24
f 23/89/23 99/79/75 100/83/76 22/97/22
f 24/17/24 60/26/36 61/27/37
f 24/17/24 61/27/37 1/20/1
f 24/86/24 98/72/74 99/79/75 23/89/23
f 25/2/123 122/38/98 123/53/99 26/36/125
f 26/36/124 123/53/99 124/61/100 27/57/127
f 27/57/126 124/61/100 125/70/101 28/65/129
f 28/65/128 125/70/101 126/80/102 29/75/131
f 29/75/130 126/80/102 127/95/103 30/91/133
f 30/91/132 127/95/103 128/110/104 31/109/135
f 31/109/134 128/110/104 129/125/105 32/128/137
f 32/128/136 129/125/105 130/139/106 33/145/139
f 33/145/138 130/139/106 131/149/107 34/155/141
f 34/155/140 131/149/107 132/160/108 35/163/143
f 35/163/142 132/160/108 133/166/109 36/170/145
f 36/170/144 133/166/109 134/168/110 37/172/147
f 37/171/146 134/167/110 135/165/111 38/169/149
f 38/169/148 135/165/111 136/159/112 39/164/151
f 39/164/150 136/159/112 137/150/113 40/156/153
f 40/156/152 137/150/113 138/140/114 41/146/155
f 41/146/154 138/140/114 139/124/115 42/129/157
f 42/129/156 139/124/115 140/107/116 43/106/159
f 43/106/158 140/107/116 141/94/117 44/90/161
f 44/90/160 141/94/117 142/81/118 45/74/163
f 45/74/162 142/81/118 143/71/119 46/64/165
f 46/64/164 143/71/119 144/60/120 47/56/167
f 47/56/166 144/60/120 145/54/121 48/35/169
f 48/35/168 145/54/121 122/37/98 25/1/122
f 49/55/25 73/47/49 62/46/38
f 50/29/26 61/28/37 62/46/38 73/47/49
f 62/45/38 63/44/39 49/55/25
f 63/44/39 62/45/38 61/27/37 60/26/36
f 63/44/39 64/43/40 49/55/25
f 64/43/40 63/44/39 60/26/36 59/25/35
f 64/43/40 65/42/41 49/55/25
f 65/42/41 64/43/40 59/25/35 58/24/34
f 65/42/41 66/41/42 49/55/25
f 66/41/42 65/42/41 58/24/34 57/23/33
f 66/41/42 67/40/43 49/55/25
f 67/40/43 66/41/42 57/23/33 56/22/32
f 67/40/43 68/39/44 49/55/25
f 68/39/44 67/40/43 56/22/32 55/21/31
f 68/52/44 69/51/45 49/55/25
f 69/51/45 68/52/44 55/34/31 54/33/30
f 69/51/45 70/50/46 49/55/25
f 70/50/46 69/51/45 54/33/30 53/32/29
f 70/50/46 71/49/47 49/55/25
f 71/49/47 70/50/46 53/32/29 52/31/28
f 71/49/47 72/48/48 49/55/25
f 72/48/48 71/49/47 52/31/28 51/30/27
f 72/48/48 73/47/49 49/55/25
f 73/47/49 72/48/48 51/30/27 50/29/26
f 74/63/50 97/59/73 122/37/98 145/54/121
f 74/63/50 98/72/74 121/67/97 97/59/73
f 75/68/51 99/79/75 98/72/74 74/63/50
f 76/77/52 100/83/76 99/79/75 75/68/51
f 77/88/53 101/93/77 100/83/76 76/77/52
f 78/99/54 102/103/78 101/93/77 77/88/53
f 79/114/55 103/112/79 102/103/78 78/99/54
f 80/122/56 104/117/80 103/112/79 79/114/55
f 81/132/57 105/127/81 104/117/80 80/122/56
f 82/144/58 106/136/82 105/127/81 81/132/57
f 83/151/59 107/142/83 106/136/82 82/144/58
f 84/158/60 108/148/84 107/142/83 83/151/59
f 85/161/61 109/154/85 108/148/84 84/158/60
f 86/157/62 110/147/86 109/153/85 85/162/61
f 87/152/63 111/141/87 110/147/86 86/157/62
f 88/143/64 112/135/88 111/141/87 87/152/63
f 89/133/65 113/126/89 112/135/88 88/143/64
f 90/121/66 114/118/90 113/126/89 89/133/65
f 91/111/67 115/108/91 114/118/90 90/121/66
f 92/98/68 116/102/92 115/108/91 91/111/67
f 93/87/69 117/92/93 116/102/92 92/98/68
f 94/76/70 118/84/94 117/92/93 93/87/69
f 95/69/71 119/78/95 118/84/94 94/76/70
f 96/62/72 120/73/96 119/78/95 95/69/71
f 97/58/73 121/66/97 120/73/96 96/62/72
f 123/53/99 122/38/98 97/58/73 96/62/72
f 124/61/100 123/53/99 96/62/72 95/69/71
f 125/70/101 124/61/100 95/69/71 94/76/70
f 126/80/102 125/70/101 94/76/70 93/87/69
f 127/95/103 126/80/102 93/87/69 92/98/68
f 128/110/104 127/95/103 92/98/68 91/111/67
f 129/125/105 128/110/104 91/111/67 90/121/66
f 130/139/106 129/125/105 90/121/66 89/133/65
f 131/149/107 130/139/106 89/133/65 88/143/64
f 132/160/108 131/149/107 88/143/64 87/152/63
f 133/166/109 132/160/108 87/152/63 86/157/62
f 134/168/110 133/166/109 86/157/62 85/162/61
f 135/165/111 134/167/110 85/161/61 84/158/60
f 136/159/112 135/165/111 84/158/60 83/151/59
f 137/150/113 136/159/112 83/151/59 82/144/58
f 138/140/114 137/150/113 82/144/58 81/132/57
f 139/124/115 138/140/114 81/132/57 80/122/56
f 140/107/116 139/124/115 80/122/56 79/114/55
f 141/94/117 140/107/116 79/114/55 78/99/54
f 142/81/118 141/94/117 78/99/54 77/88/53
f 143/71/119 142/81/118 77/88/53 76/77/52
f 144/60/120 143/71/119 76/77/52 75/68/51
f 145/54/121 144/60/120 75/68/51 74/63/50
