# Exported from Wings 3D 1.5.4
mtllib rotanev_cap_s1p5_1.mtl
o 2
#97 vertices, 96 faces
v 0.93750000 6.2500000e-2 -2.0961242e-18
v 0.90555546 6.2500000e-2 0.24264285
v 0.81189882 6.2500000e-2 0.46875000
v 0.66291261 6.2500000e-2 0.66291261
v 0.46875000 6.2500000e-2 0.81189882
v 0.24264285 6.2500000e-2 0.90555546
v 4.8731701e-17 6.2500000e-2 0.93750000
v -0.24264285 6.2500000e-2 0.90555546
v -0.46875000 6.2500000e-2 0.81189882
v -0.66291261 6.2500000e-2 0.66291261
v -0.81189882 6.2500000e-2 0.46875000
v -0.90555546 6.2500000e-2 0.24264285
v -0.93750000 6.2500000e-2 1.1271451e-16
v -0.90555546 6.2500000e-2 -0.24264285
v -0.81189882 6.2500000e-2 -0.46875000
v -0.66291261 6.2500000e-2 -0.66291261
v -0.46875000 6.2500000e-2 -0.81189882
v -0.24264285 6.2500000e-2 -0.90555546
v -1.8088957e-16 6.2500000e-2 -0.93750000
v 0.24264285 6.2500000e-2 -0.90555546
v 0.46875000 6.2500000e-2 -0.81189882
v 0.66291261 6.2500000e-2 -0.66291261
v 0.81189882 6.2500000e-2 -0.46875000
v 0.90555546 6.2500000e-2 -0.24264285
v 0.93750000 -6.2500000e-2 -2.0961242e-18
v 0.90555546 -6.2500000e-2 0.24264285
v 0.81189882 -6.2500000e-2 0.46875000
v 0.66291261 -6.2500000e-2 0.66291261
v 0.46875000 -6.2500000e-2 0.81189882
v 0.24264285 -6.2500000e-2 0.90555546
v 4.8731701e-17 -6.2500000e-2 0.93750000
v -0.24264285 -6.2500000e-2 0.90555546
v -0.46875000 -6.2500000e-2 0.81189882
v -0.66291261 -6.2500000e-2 0.66291261
v -0.81189882 -6.2500000e-2 0.46875000
v -0.90555546 -6.2500000e-2 0.24264285
v -0.93750000 -6.2500000e-2 1.1271451e-16
v -0.90555546 -6.2500000e-2 -0.24264285
v -0.81189882 -6.2500000e-2 -0.46875000
v -0.66291261 -6.2500000e-2 -0.66291261
v -0.46875000 -6.2500000e-2 -0.81189882
v -0.24264285 -6.2500000e-2 -0.90555546
v -1.8088957e-16 -6.2500000e-2 -0.93750000
v 0.24264285 -6.2500000e-2 -0.90555546
v 0.46875000 -6.2500000e-2 -0.81189882
v 0.66291261 -6.2500000e-2 -0.66291261
v 0.81189882 -6.2500000e-2 -0.46875000
v 0.90555546 -6.2500000e-2 -0.24264285
v -1.1102230e-16 0.11250000 -3.4773864e-17
v 0.54184239 9.1648620e-2 0.31283285
v 0.44241246 9.1648620e-2 0.44241246
v 0.31283285 9.1648620e-2 0.54184239
v 0.16193420 9.1648620e-2 0.60434666
v -4.5196333e-18 9.1648620e-2 0.62566570
v -0.16193420 9.1648620e-2 0.60434666
v -0.31283285 9.1648620e-2 0.54184239
v -0.44241246 9.1648620e-2 0.44241246
v -0.54184239 9.1648620e-2 0.31283285
v -0.60434666 9.1648620e-2 0.16193420
v -0.62566570 9.1648620e-2 6.3714351e-17
v -0.60434666 9.1648620e-2 -0.16193420
v -0.54184239 9.1648620e-2 -0.31283285
v -0.44241246 9.1648620e-2 -0.44241246
v -0.31283285 9.1648620e-2 -0.54184239
v -0.16193420 9.1648620e-2 -0.60434666
v -1.5805043e-16 9.1648620e-2 -0.62566570
v 0.16193420 9.1648620e-2 -0.60434666
v 0.31283285 9.1648620e-2 -0.54184239
v 0.44241246 9.1648620e-2 -0.44241246
v 0.54184239 9.1648620e-2 -0.31283285
v 0.60434666 9.1648620e-2 -0.16193420
v 0.62566570 9.1648620e-2 -1.3265176e-17
v 0.60434666 9.1648620e-2 0.16193420
v 0.30249484 0.10831529 8.1053249e-2
v 0.31316570 0.10831529 -2.4797435e-17
v 0.30249484 0.10831529 -8.1053249e-2
v 0.27120946 0.10831529 -0.15658285
v 0.22144159 0.10831529 -0.22144159
v 0.15658285 0.10831529 -0.27120946
v 8.1053249e-2 0.10831529 -0.30249484
v -1.3481555e-16 0.10831529 -0.31316570
v -8.1053249e-2 0.10831529 -0.30249484
v -0.15658285 0.10831529 -0.27120946
v -0.22144159 0.10831529 -0.22144159
v -0.27120946 0.10831529 -0.15658285
v -0.30249484 0.10831529 -8.1053249e-2
v -0.31316570 0.10831529 1.4865977e-17
v -0.30249484 0.10831529 8.1053249e-2
v -0.27120946 0.10831529 0.15658285
v -0.22144159 0.10831529 0.22144159
v -0.15658285 0.10831529 0.27120946
v -8.1053249e-2 0.10831529 0.30249484
v -5.7825178e-17 0.10831529 0.31316570
v 8.1053249e-2 0.10831529 0.30249484
v 0.15658285 0.10831529 0.27120946
v 0.22144159 0.10831529 0.22144159
v 0.27120946 0.10831529 0.15658285
vt 0.53010580 2.0000000e-2
vt 0.53010580 2.0000000e-2
vt 0.53010580 2.0000000e-2
vt 0.54386977 0.11518230
vt 0.54386977 0.11518230
vt 0.54386977 0.11518230
vt 0.54386977 0.11518230
vt 0.54386977 0.11518230
vt 0.54386977 0.11518230
vt 0.54386977 0.11518230
vt 0.56928375 0.59778554
vt 0.56928375 0.78878490
vt 0.56928375 0.59778554
vt 0.56928375 0.69328522
vt 0.56928375 0.78878490
vt 0.56928375 0.78878490
vt 0.56928375 0.88428458
vt 0.56928375 0.88428458
vt 0.56928375 0.97978427
vt 0.56928375 0.97978427
vt 0.56928375 0.97978427
vt 0.56928375 0.88428458
vt 0.56928375 0.97978427
vt 0.56928375 0.59778554
vt 0.56928375 0.59778554
vt 0.56928375 0.69328522
vt 0.56928375 0.69328522
vt 0.56928375 0.78878490
vt 0.56928375 0.78878490
vt 0.56928375 0.88428458
vt 0.56928375 0.97978427
vt 0.56928375 0.97978427
vt 0.56928375 0.69328522
vt 0.56928375 0.59778554
vt 0.56928375 0.69328522
vt 0.56928375 0.78878490
vt 0.56928375 0.59778554
vt 0.57949461 0.20280191
vt 0.57949461 0.20280191
vt 0.57949461 0.20280191
vt 0.57949461 0.20280191
vt 0.57949461 0.20280191
vt 0.57949461 0.20280191
vt 0.57949461 0.20280191
vt 0.61811933 0.59778554
vt 0.61811933 0.59778554
vt 0.61811933 0.69328522
vt 0.61811933 0.78878490
vt 0.61811933 0.78878490
vt 0.61811933 0.88428458
vt 0.61811933 0.97978427
vt 0.61811933 0.88428458
vt 0.61811933 0.97978427
vt 0.61811933 0.59778554
vt 0.61811933 0.59778554
vt 0.61811933 0.69328522
vt 0.61811933 0.69328522
vt 0.61811933 0.78878490
vt 0.61811933 0.78878490
vt 0.61811933 0.78878490
vt 0.61811933 0.88428458
vt 0.61811933 0.88428458
vt 0.61811933 0.97978427
vt 0.61811933 0.97978427
vt 0.61811933 0.88428458
vt 0.61811933 0.97978427
vt 0.61811933 0.59778554
vt 0.61811933 0.69328522
vt 0.61811933 0.69328522
vt 0.61811933 0.78878490
vt 0.63805280 0.27867786
vt 0.63805280 0.27867786
vt 0.63805280 0.27867786
vt 0.63805280 0.27867786
vt 0.63805280 0.27867786
vt 0.63805280 0.27867786
vt 0.63805280 0.27867786
vt 0.65258707 2.0000000e-2
vt 0.65258707 2.0000000e-2
vt 0.65258707 2.0000000e-2
vt 0.65258707 2.0000000e-2
vt 0.66090606 8.3189012e-2
vt 0.66090606 8.3189012e-2
vt 0.66090606 8.3189012e-2
vt 0.66090606 8.3189012e-2
vt 0.66090606 8.3189012e-2
vt 0.66090606 8.3189012e-2
vt 0.66090606 8.3189012e-2
vt 0.68529611 0.14207180
vt 0.68529611 0.14207180
vt 0.68529611 0.14207180
vt 0.68529611 0.14207180
vt 0.68529611 0.14207180
vt 0.68529611 0.14207180
vt 0.72409507 0.19263559
vt 0.72409507 0.19263559
vt 0.72409507 0.19263559
vt 0.72409507 0.19263559
vt 0.72409507 0.19263559
vt 0.72409507 0.19263559
vt 0.77452898 2.0000000e-2
vt 0.77452898 2.0000000e-2
vt 0.77452898 2.0000000e-2
vt 0.77869291 5.1628122e-2
vt 0.77869291 5.1628122e-2
vt 0.77869291 5.1628122e-2
vt 0.77869291 5.1628122e-2
vt 0.77869291 5.1628122e-2
vt 0.79090090 8.1100841e-2
vt 0.79090090 8.1100841e-2
vt 0.79090090 8.1100841e-2
vt 0.79090090 8.1100841e-2
vt 0.81032103 0.10640964
vt 0.81032103 0.10640964
vt 0.81032103 0.10640964
vt 0.81032103 0.10640964
vt 0.81032103 0.10640964
vt 0.81032103 0.10640964
vt 0.81032103 0.10640964
vt 0.89673067 2.0000000e-2
vt 0.89673067 2.0000000e-2
vn -2.2408880e-18 1.00000000 -1.0915293e-17
vn 6.3373483e-2 0.99731894 3.6588697e-2
vn 5.1744232e-2 0.99731894 5.1744232e-2
vn 3.6588697e-2 0.99731894 6.3373483e-2
vn 1.8939703e-2 0.99731894 7.0683935e-2
vn 1.9520500e-18 0.99731894 7.3177395e-2
vn -1.8939703e-2 0.99731894 7.0683935e-2
vn -3.6588697e-2 0.99731894 6.3373483e-2
vn -5.1744232e-2 0.99731894 5.1744232e-2
vn -6.3373483e-2 0.99731894 3.6588697e-2
vn -7.0683935e-2 0.99731894 1.8939703e-2
vn -7.3177395e-2 0.99731894 2.1472550e-17
vn -7.0683935e-2 0.99731894 -1.8939703e-2
vn -6.3373483e-2 0.99731894 -3.6588697e-2
vn -5.1744232e-2 0.99731894 -5.1744232e-2
vn -3.6588697e-2 0.99731894 -6.3373483e-2
vn -1.8939703e-2 0.99731894 -7.0683935e-2
vn -4.8367461e-17 0.99731894 -7.3177395e-2
vn 1.8939703e-2 0.99731894 -7.0683935e-2
vn 3.6588697e-2 0.99731894 -6.3373483e-2
vn 5.1744232e-2 0.99731894 -5.1744232e-2
vn 6.3373483e-2 0.99731894 -3.6588697e-2
vn 7.0683935e-2 0.99731894 -1.8939703e-2
vn 7.3177395e-2 0.99731894 -2.8846961e-17
vn 7.0683935e-2 0.99731894 1.8939703e-2
vn 3.2180727e-2 0.99944487 8.6227999e-3
vn 3.3315941e-2 0.99944487 -9.9225561e-18
vn 3.2180727e-2 0.99944487 -8.6227999e-3
vn 2.8852451e-2 0.99944487 -1.6657970e-2
vn 2.3557928e-2 0.99944487 -2.3557928e-2
vn 1.6657970e-2 0.99944487 -2.8852451e-2
vn 8.6227999e-3 0.99944487 -3.2180727e-2
vn -2.0278885e-17 0.99944487 -3.3315941e-2
vn -8.6227999e-3 0.99944487 -3.2180727e-2
vn -1.6657970e-2 0.99944487 -2.8852451e-2
vn -2.3557928e-2 0.99944487 -2.3557928e-2
vn -2.8852451e-2 0.99944487 -1.6657970e-2
vn -3.2180727e-2 0.99944487 -8.6227999e-3
vn -3.3315941e-2 0.99944487 5.1510537e-18
vn -3.2180727e-2 0.99944487 8.6227999e-3
vn -2.8852451e-2 0.99944487 1.6657970e-2
vn -2.3557928e-2 0.99944487 2.3557928e-2
vn -1.6657970e-2 0.99944487 2.8852451e-2
vn -8.6227999e-3 0.99944487 3.2180727e-2
vn -2.4399728e-18 0.99944487 3.3315941e-2
vn 8.6227999e-3 0.99944487 3.2180727e-2
vn 1.6657970e-2 0.99944487 2.8852451e-2
vn 2.3557928e-2 0.99944487 2.3557928e-2
vn 2.8852451e-2 0.99944487 1.6657970e-2
vn 1.00000000 0.0000000e+0 -2.3795816e-16
vn 1.00000000 0.0000000e+0 -2.3795816e-16
vn 9.3068997e-2 0.99565966 -3.4697074e-17
vn 9.3068997e-2 0.99565966 -3.4697074e-17
vn 0.96592583 0.0000000e+0 0.25881905
vn 0.96592583 0.0000000e+0 0.25881905
vn 8.9897748e-2 0.99565966 2.4088029e-2
vn 8.9897748e-2 0.99565966 2.4088029e-2
vn 0.86602540 0.0000000e+0 0.50000000
vn 0.86602540 0.0000000e+0 0.50000000
vn 8.0600115e-2 0.99565966 4.6534498e-2
vn 8.0600115e-2 0.99565966 4.6534498e-2
vn 0.70710678 0.0000000e+0 0.70710678
vn 0.70710678 0.0000000e+0 0.70710678
vn 6.5809719e-2 0.99565966 6.5809719e-2
vn 6.5809719e-2 0.99565966 6.5809719e-2
vn 0.50000000 0.0000000e+0 0.86602540
vn 0.50000000 0.0000000e+0 0.86602540
vn 4.6534498e-2 0.99565966 8.0600115e-2
vn 4.6534498e-2 0.99565966 8.0600115e-2
vn 0.25881905 0.0000000e+0 0.96592583
vn 0.25881905 0.0000000e+0 0.96592583
vn 2.4088029e-2 0.99565966 8.9897748e-2
vn 2.4088029e-2 0.99565966 8.9897748e-2
vn 1.5397293e-16 0.0000000e+0 1.00000000
vn 1.5397293e-16 0.0000000e+0 1.00000000
vn 7.8068416e-18 0.99565966 9.3068997e-2
vn 7.8068416e-18 0.99565966 9.3068997e-2
vn -0.25881905 0.0000000e+0 0.96592583
vn -0.25881905 0.0000000e+0 0.96592583
vn -2.4088029e-2 0.99565966 8.9897748e-2
vn -2.4088029e-2 0.99565966 8.9897748e-2
vn -0.50000000 0.0000000e+0 0.86602540
vn -0.50000000 0.0000000e+0 0.86602540
vn -4.6534498e-2 0.99565966 8.0600115e-2
vn -4.6534498e-2 0.99565966 8.0600115e-2
vn -0.70710678 0.0000000e+0 0.70710678
vn -0.70710678 0.0000000e+0 0.70710678
vn -6.5809719e-2 0.99565966 6.5809719e-2
vn -6.5809719e-2 0.99565966 6.5809719e-2
vn -0.86602540 0.0000000e+0 0.50000000
vn -0.86602540 0.0000000e+0 0.50000000
vn -8.0600115e-2 0.99565966 4.6534498e-2
vn -8.0600115e-2 0.99565966 4.6534498e-2
vn -0.96592583 0.0000000e+0 0.25881905
vn -0.96592583 0.0000000e+0 0.25881905
vn -8.9897748e-2 0.99565966 2.4088029e-2
vn -8.9897748e-2 0.99565966 2.4088029e-2
vn -1.00000000 0.0000000e+0 3.4993847e-16
vn -1.00000000 0.0000000e+0 3.4993847e-16
vn -9.3068997e-2 0.99565966 3.1227366e-17
vn -9.3068997e-2 0.99565966 3.1227366e-17
vn -0.96592583 0.0000000e+0 -0.25881905
vn -0.96592583 0.0000000e+0 -0.25881905
vn -8.9897748e-2 0.99565966 -2.4088029e-2
vn -8.9897748e-2 0.99565966 -2.4088029e-2
vn -0.86602540 0.0000000e+0 -0.50000000
vn -0.86602540 0.0000000e+0 -0.50000000
vn -8.0600115e-2 0.99565966 -4.6534498e-2
vn -8.0600115e-2 0.99565966 -4.6534498e-2
vn -0.70710678 0.0000000e+0 -0.70710678
vn -0.70710678 0.0000000e+0 -0.70710678
vn -6.5809719e-2 0.99565966 -6.5809719e-2
vn -6.5809719e-2 0.99565966 -6.5809719e-2
vn -0.50000000 0.0000000e+0 -0.86602540
vn -0.50000000 0.0000000e+0 -0.86602540
vn -4.6534498e-2 0.99565966 -8.0600115e-2
vn -4.6534498e-2 0.99565966 -8.0600115e-2
vn -0.25881905 0.0000000e+0 -0.96592583
vn -0.25881905 0.0000000e+0 -0.96592583
vn -2.4088029e-2 0.99565966 -8.9897748e-2
vn -2.4088029e-2 0.99565966 -8.9897748e-2
vn -4.7591632e-16 0.0000000e+0 -1.00000000
vn -4.7591632e-16 0.0000000e+0 -1.00000000
vn -6.1587306e-17 0.99565966 -9.3068997e-2
vn -6.1587306e-17 0.99565966 -9.3068997e-2
vn 0.25881905 0.0000000e+0 -0.96592583
vn 0.25881905 0.0000000e+0 -0.96592583
vn 2.4088029e-2 0.99565966 -8.9897748e-2
vn 2.4088029e-2 0.99565966 -8.9897748e-2
vn 0.50000000 0.0000000e+0 -0.86602540
vn 0.50000000 0.0000000e+0 -0.86602540
vn 4.6534498e-2 0.99565966 -8.0600115e-2
vn 4.6534498e-2 0.99565966 -8.0600115e-2
vn 0.70710678 0.0000000e+0 -0.70710678
vn 0.70710678 0.0000000e+0 -0.70710678
vn 6.5809719e-2 0.99565966 -6.5809719e-2
vn 6.5809719e-2 0.99565966 -6.5809719e-2
vn 0.86602540 0.0000000e+0 -0.50000000
vn 0.86602540 0.0000000e+0 -0.50000000
vn 8.0600115e-2 0.99565966 -4.6534498e-2
vn 8.0600115e-2 0.99565966 -4.6534498e-2
vn 0.96592583 0.0000000e+0 -0.25881905
vn 0.96592583 0.0000000e+0 -0.25881905
vn 8.9897748e-2 0.99565966 -2.4088029e-2
vn 8.9897748e-2 0.99565966 -2.4088029e-2
vn 1.00000000 0.0000000e+0 -2.3795816e-16
vn 1.00000000 0.0000000e+0 -2.3795816e-16
vn 0.96592583 0.0000000e+0 0.25881905
vn 0.96592583 0.0000000e+0 0.25881905
vn 0.86602540 0.0000000e+0 0.50000000
vn 0.86602540 0.0000000e+0 0.50000000
vn 0.70710678 0.0000000e+0 0.70710678
vn 0.70710678 0.0000000e+0 0.70710678
vn 0.50000000 0.0000000e+0 0.86602540
vn 0.50000000 0.0000000e+0 0.86602540
vn 0.25881905 0.0000000e+0 0.96592583
vn 0.25881905 0.0000000e+0 0.96592583
vn 1.5397293e-16 0.0000000e+0 1.00000000
vn 1.5397293e-16 0.0000000e+0 1.00000000
vn -0.25881905 0.0000000e+0 0.96592583
vn -0.25881905 0.0000000e+0 0.96592583
vn -0.50000000 0.0000000e+0 0.86602540
vn -0.50000000 0.0000000e+0 0.86602540
vn -0.70710678 0.0000000e+0 0.70710678
vn -0.70710678 0.0000000e+0 0.70710678
vn -0.86602540 0.0000000e+0 0.50000000
vn -0.86602540 0.0000000e+0 0.50000000
vn -0.96592583 0.0000000e+0 0.25881905
vn -0.96592583 0.0000000e+0 0.25881905
vn -1.00000000 0.0000000e+0 3.4993847e-16
vn -1.00000000 0.0000000e+0 3.4993847e-16
vn -0.96592583 0.0000000e+0 -0.25881905
vn -0.96592583 0.0000000e+0 -0.25881905
vn -0.86602540 0.0000000e+0 -0.50000000
vn -0.86602540 0.0000000e+0 -0.50000000
vn -0.70710678 0.0000000e+0 -0.70710678
vn -0.70710678 0.0000000e+0 -0.70710678
vn -0.50000000 0.0000000e+0 -0.86602540
vn -0.50000000 0.0000000e+0 -0.86602540
vn -0.25881905 0.0000000e+0 -0.96592583
vn -0.25881905 0.0000000e+0 -0.96592583
vn -4.7591632e-16 0.0000000e+0 -1.00000000
vn -4.7591632e-16 0.0000000e+0 -1.00000000
vn 0.25881905 0.0000000e+0 -0.96592583
vn 0.25881905 0.0000000e+0 -0.96592583
vn 0.50000000 0.0000000e+0 -0.86602540
vn 0.50000000 0.0000000e+0 -0.86602540
vn 0.70710678 0.0000000e+0 -0.70710678
vn 0.70710678 0.0000000e+0 -0.70710678
vn 0.86602540 0.0000000e+0 -0.50000000
vn 0.86602540 0.0000000e+0 -0.50000000
vn 0.96592583 0.0000000e+0 -0.25881905
vn 0.96592583 0.0000000e+0 -0.25881905
g 2_2_auv
usemtl 2_auv
s 1
f 1/2/52 72/80/24 73/83/25 2/5/56
f 2/5/57 73/83/25 50/90/2 3/38/61
f 3/38/60 50/90/2 51/95/3 4/72/65
f 4/74/64 51/99/3 52/92/4 5/44/69
f 5/44/68 52/92/4 53/88/5 6/8/73
f 6/8/72 53/88/5 54/80/6 7/1/77
f 7/1/76 54/80/6 55/82/7 8/4/81
f 8/4/80 55/82/7 56/89/8 9/39/85
f 9/39/84 56/89/8 57/97/9 10/71/89
f 10/77/88 57/98/9 58/94/10 11/43/93
f 11/43/92 58/94/10 59/87/11 12/9/97
f 12/9/96 59/87/11 60/78/12 13/3/101
f 13/2/100 60/79/12 61/86/13 14/7/105
f 14/7/104 61/86/13 62/93/14 15/41/109
f 15/41/108 62/93/14 63/97/15 16/73/113
f 16/76/112 63/100/15 64/94/16 17/42/117
f 17/42/116 64/94/16 65/88/17 18/10/121
f 18/10/120 65/88/17 66/81/18 19/2/125
f 19/2/124 66/81/18 67/85/19 20/4/129
f 20/4/128 67/85/19 68/90/20 21/39/133
f 21/39/132 68/90/20 69/99/21 22/72/137
f 22/75/136 69/96/21 70/91/22 23/40/141
f 23/40/140 70/91/22 71/84/23 24/6/145
f 24/6/144 71/84/23 72/80/24 1/2/53
f 49/120/1 97/110/49 74/104/26
f 50/90/2 73/83/25 74/104/26 97/110/49
f 74/104/26 75/101/27 49/120/1
f 75/101/27 74/104/26 73/83/25 72/80/24
f 75/101/27 76/106/28 49/120/1
f 76/106/28 75/101/27 72/80/24 71/84/23
f 76/106/28 77/111/29 49/120/1
f 77/111/29 76/106/28 71/84/23 70/91/22
f 77/111/29 78/116/30 49/120/1
f 78/116/30 77/111/29 70/91/22 69/96/21
f 78/117/30 79/112/31 49/120/1
f 79/112/31 78/117/30 69/99/21 68/90/20
f 79/112/31 80/105/32 49/120/1
f 80/105/32 79/112/31 68/90/20 67/85/19
f 80/105/32 81/103/33 49/120/1
f 81/103/33 80/105/32 67/85/19 66/81/18
f 81/103/33 82/105/34 49/120/1
f 82/105/34 81/103/33 66/81/18 65/88/17
f 82/105/34 83/112/35 49/120/1
f 83/112/35 82/105/34 65/88/17 64/94/16
f 83/112/35 84/118/36 49/120/1
f 84/118/36 83/112/35 64/94/16 63/100/15
f 84/113/36 85/109/37 49/121/1
f 85/109/37 84/113/36 63/97/15 62/93/14
f 85/109/37 86/107/38 49/121/1
f 86/107/38 85/109/37 62/93/14 61/86/13
f 86/107/38 87/102/39 49/121/1
f 87/102/39 86/107/38 61/86/13 60/79/12
f 87/101/39 88/108/40 49/120/1
f 88/108/40 87/101/39 60/78/12 59/87/11
f 88/108/40 89/109/41 49/120/1
f 89/109/41 88/108/40 59/87/11 58/94/10
f 89/109/41 90/119/42 49/120/1
f 90/119/42 89/109/41 58/94/10 57/98/9
f 90/114/42 91/112/43 49/120/1
f 91/112/43 90/114/42 57/97/9 56/89/8
f 91/112/43 92/105/44 49/120/1
f 92/105/44 91/112/43 56/89/8 55/82/7
f 92/105/44 93/103/45 49/120/1
f 93/103/45 92/105/44 55/82/7 54/80/6
f 93/101/45 94/105/46 49/120/1
f 94/105/46 93/101/45 54/80/6 53/88/5
f 94/105/46 95/112/47 49/120/1
f 95/112/47 94/105/46 53/88/5 52/92/4
f 95/112/47 96/117/48 49/120/1
f 96/117/48 95/112/47 52/92/4 51/99/3
f 96/115/48 97/110/49 49/120/1
f 97/110/49 96/115/48 51/95/3 50/90/2
s 2
f 1/24/50 25/54/146 48/56/192 24/26/142
f 2/17/55 26/52/149 25/64/147 1/21/51
f 3/29/59 27/60/151 26/52/148 2/17/54
f 4/27/63 28/57/153 27/60/150 3/29/58
f 5/25/67 29/55/155 28/57/152 4/27/62
f 6/17/71 30/61/157 29/51/154 5/20/66
f 7/15/75 31/48/159 30/61/156 6/17/70
f 8/14/79 32/47/161 31/48/158 7/15/74
f 9/11/83 33/45/163 32/47/160 8/14/78
f 10/18/87 34/62/165 33/64/162 9/19/82
f 11/16/91 35/58/167 34/62/164 10/18/86
f 12/33/95 36/68/169 35/58/166 11/16/90
f 13/34/99 37/67/171 36/68/168 12/33/94
f 14/30/103 38/65/173 37/66/170 13/31/98
f 15/36/107 39/70/175 38/65/172 14/30/102
f 16/35/111 40/69/177 39/70/174 15/36/106
f 17/37/115 41/67/179 40/69/176 16/35/110
f 18/22/119 42/50/181 41/63/178 17/23/114
f 19/12/123 43/49/183 42/50/180 18/22/118
f 20/14/127 44/47/185 43/49/182 19/12/122
f 21/13/131 45/46/187 44/47/184 20/14/126
f 22/30/135 46/61/189 45/53/186 21/32/130
f 23/28/139 47/59/191 46/61/188 22/30/134
f 24/26/143 48/56/193 47/59/190 23/28/138
