# Exported from Wings 3D 1.5.4
mtllib rotanev_rcs_block_srf_2_collider.mtl
o collider
#12 vertices, 10 faces
v -0.43750000 -0.37500000 -0.53750000
v -0.43750000 -0.37500000 -3.7500000e-2
v -0.43750000 0.37500000 -0.53750000
v -0.43750000 0.37500000 -3.7500000e-2
v 0.43750000 -0.37500000 -0.53750000
v 0.43750000 -0.37500000 -3.7500000e-2
v 0.43750000 0.37500000 -0.53750000
v 0.43750000 0.37500000 -3.7500000e-2
v -9.8000000e-2 1.15000000 -0.20538554
v -9.8000000e-2 1.15000000 -3.7500000e-2
v 9.8000000e-2 1.15000000 -3.7500000e-2
v 9.8000000e-2 1.15000000 -0.20538554
vn 0.0000000e+0 -1.00000000 0.0000000e+0
vn 0.0000000e+0 0.0000000e+0 -1.00000000
vn -1.00000000 0.0000000e+0 0.0000000e+0
vn 0.0000000e+0 -1.00000000 0.0000000e+0
vn 0.0000000e+0 0.0000000e+0 1.00000000
vn -1.00000000 0.0000000e+0 0.0000000e+0
vn 0.0000000e+0 0.0000000e+0 -1.00000000
vn -1.00000000 0.0000000e+0 0.0000000e+0
vn -0.91596735 0.40125280 0.0000000e+0
vn 0.0000000e+0 0.39389085 -0.91915722
vn 0.0000000e+0 0.0000000e+0 1.00000000
vn -1.00000000 0.0000000e+0 0.0000000e+0
vn -0.91596735 0.40125280 0.0000000e+0
vn 0.0000000e+0 0.0000000e+0 1.00000000
vn 0.0000000e+0 -1.00000000 0.0000000e+0
vn 0.0000000e+0 0.0000000e+0 -1.00000000
vn 1.00000000 0.0000000e+0 0.0000000e+0
vn 0.0000000e+0 -1.00000000 0.0000000e+0
vn 0.0000000e+0 0.0000000e+0 1.00000000
vn 1.00000000 0.0000000e+0 0.0000000e+0
vn 0.0000000e+0 0.0000000e+0 -1.00000000
vn 1.00000000 0.0000000e+0 0.0000000e+0
vn 0.91596735 0.40125280 0.0000000e+0
vn 0.0000000e+0 0.39389085 -0.91915722
vn 0.0000000e+0 0.0000000e+0 1.00000000
vn 1.00000000 0.0000000e+0 0.0000000e+0
vn 0.0000000e+0 0.0000000e+0 1.00000000
vn 0.91596735 0.40125280 0.0000000e+0
vn 0.0000000e+0 1.00000000 0.0000000e+0
vn -0.91596735 0.40125280 0.0000000e+0
vn 0.0000000e+0 0.39389085 -0.91915722
vn 0.0000000e+0 1.00000000 0.0000000e+0
vn -0.91596735 0.40125280 0.0000000e+0
vn 0.0000000e+0 0.0000000e+0 1.00000000
vn 0.0000000e+0 1.00000000 0.0000000e+0
vn 0.0000000e+0 0.0000000e+0 1.00000000
vn 0.91596735 0.40125280 0.0000000e+0
vn 0.0000000e+0 1.00000000 0.0000000e+0
vn 0.91596735 0.40125280 0.0000000e+0
vn 0.0000000e+0 0.39389085 -0.91915722
g collider_default
usemtl default
s 1
f 2//6 4//12 3//8 1//3
f 5//17 7//22 8//26 6//20
f 10//32 11//35 12//38 9//29
s 2
f 2//5 6//19 8//25 4//11
f 3//7 7//21 5//16 1//2
f 4//13 10//33 9//30 3//9
f 7//23 12//39 11//37 8//28
s 3
f 1//1 5//15 6//18 2//4
f 3//10 9//31 12//40 7//24
f 8//27 11//36 10//34 4//14
