# Exported from Wings 3D 1.5.4
mtllib rotanev_cap_s0p5_1.mtl
o 2
#97 vertices, 96 faces
v 0.46875000 6.2500000e-2 -6.7816660e-18
v 0.45277773 6.2500000e-2 0.12132143
v 0.40594941 6.2500000e-2 0.23437500
v 0.33145630 6.2500000e-2 0.33145630
v 0.23437500 6.2500000e-2 0.40594941
v 0.12132143 6.2500000e-2 0.45277773
v -3.0573021e-17 6.2500000e-2 0.46875000
v -0.12132143 6.2500000e-2 0.45277773
v -0.23437500 6.2500000e-2 0.40594941
v -0.33145630 6.2500000e-2 0.33145630
v -0.40594941 6.2500000e-2 0.23437500
v -0.45277773 6.2500000e-2 0.12132143
v -0.46875000 6.2500000e-2 5.0623653e-17
v -0.45277773 6.2500000e-2 -0.12132143
v -0.40594941 6.2500000e-2 -0.23437500
v -0.33145630 6.2500000e-2 -0.33145630
v -0.23437500 6.2500000e-2 -0.40594941
v -0.12132143 6.2500000e-2 -0.45277773
v -1.4538366e-16 6.2500000e-2 -0.46875000
v 0.12132143 6.2500000e-2 -0.45277773
v 0.23437500 6.2500000e-2 -0.40594941
v 0.33145630 6.2500000e-2 -0.33145630
v 0.40594941 6.2500000e-2 -0.23437500
v 0.45277773 6.2500000e-2 -0.12132143
v 0.46875000 -6.2500000e-2 -6.7816660e-18
v 0.45277773 -6.2500000e-2 0.12132143
v 0.40594941 -6.2500000e-2 0.23437500
v 0.33145630 -6.2500000e-2 0.33145630
v 0.23437500 -6.2500000e-2 0.40594941
v 0.12132143 -6.2500000e-2 0.45277773
v -3.0573021e-17 -6.2500000e-2 0.46875000
v -0.12132143 -6.2500000e-2 0.45277773
v -0.23437500 -6.2500000e-2 0.40594941
v -0.33145630 -6.2500000e-2 0.33145630
v -0.40594941 -6.2500000e-2 0.23437500
v -0.45277773 -6.2500000e-2 0.12132143
v -0.46875000 -6.2500000e-2 5.0623653e-17
v -0.45277773 -6.2500000e-2 -0.12132143
v -0.40594941 -6.2500000e-2 -0.23437500
v -0.33145630 -6.2500000e-2 -0.33145630
v -0.23437500 -6.2500000e-2 -0.40594941
v -0.12132143 -6.2500000e-2 -0.45277773
v -1.4538366e-16 -6.2500000e-2 -0.46875000
v 0.12132143 -6.2500000e-2 -0.45277773
v 0.23437500 -6.2500000e-2 -0.40594941
v 0.33145630 -6.2500000e-2 -0.33145630
v 0.40594941 -6.2500000e-2 -0.23437500
v 0.45277773 -6.2500000e-2 -0.12132143
v -1.1045002e-16 0.11250000 -2.3120536e-17
v 0.27092120 9.1648620e-2 0.15641643
v 0.22120623 9.1648620e-2 0.22120623
v 0.15641643 9.1648620e-2 0.27092120
v 8.0967100e-2 9.1648620e-2 0.30217333
v -5.7198688e-17 9.1648620e-2 0.31283285
v -8.0967100e-2 9.1648620e-2 0.30217333
v -0.15641643 9.1648620e-2 0.27092120
v -0.22120623 9.1648620e-2 0.22120623
v -0.27092120 9.1648620e-2 0.15641643
v -0.30217333 9.1648620e-2 8.0967100e-2
v -0.31283285 9.1648620e-2 2.6123572e-17
v -0.30217333 9.1648620e-2 -8.0967100e-2
v -0.27092120 9.1648620e-2 -0.15641643
v -0.22120623 9.1648620e-2 -0.22120623
v -0.15641643 9.1648620e-2 -0.27092120
v -8.0967100e-2 9.1648620e-2 -0.30217333
v -1.3396408e-16 9.1648620e-2 -0.31283285
v 8.0967100e-2 9.1648620e-2 -0.30217333
v 0.15641643 9.1648620e-2 -0.27092120
v 0.22120623 9.1648620e-2 -0.22120623
v 0.27092120 9.1648620e-2 -0.15641643
v 0.30217333 9.1648620e-2 -8.0967100e-2
v 0.31283285 9.1648620e-2 -1.2366192e-17
v 0.30217333 9.1648620e-2 8.0967100e-2
v 0.15124742 0.10831529 4.0526624e-2
v 0.15658285 0.10831529 -1.8132321e-17
v 0.15124742 0.10831529 -4.0526624e-2
v 0.13560473 0.10831529 -7.8291426e-2
v 0.11072080 0.10831529 -0.11072080
v 7.8291426e-2 0.10831529 -0.13560473
v 4.0526624e-2 0.10831529 -0.15124742
v -1.2234664e-16 0.10831529 -0.15658285
v -4.0526624e-2 0.10831529 -0.15124742
v -7.8291426e-2 0.10831529 -0.13560473
v -0.11072080 0.10831529 -0.11072080
v -0.13560473 0.10831529 -7.8291426e-2
v -0.15124742 0.10831529 -4.0526624e-2
v -0.15658285 0.10831529 1.6993847e-18
v -0.15124742 0.10831529 4.0526624e-2
v -0.13560473 0.10831529 7.8291426e-2
v -0.11072080 0.10831529 0.11072080
v -7.8291426e-2 0.10831529 0.13560473
v -4.0526624e-2 0.10831529 0.15124742
v -8.3851460e-17 0.10831529 0.15658285
v 4.0526624e-2 0.10831529 0.15124742
v 7.8291426e-2 0.10831529 0.13560473
v 0.11072080 0.10831529 0.11072080
v 0.13560473 0.10831529 7.8291426e-2
vt 0.55745141 0.37573288
vt 0.56928375 0.69328522
vt 0.56928375 0.78878490
vt 0.56928375 0.69328522
vt 0.56928375 0.74103506
vt 0.56928375 0.78878490
vt 0.56928375 0.78878490
vt 0.56928375 0.83653474
vt 0.56928375 0.83653474
vt 0.56928375 0.88428458
vt 0.56928375 0.88428458
vt 0.56928375 0.83653474
vt 0.56928375 0.88428458
vt 0.56928375 0.69328522
vt 0.56928375 0.69328522
vt 0.56928375 0.74103506
vt 0.56928375 0.74103506
vt 0.56928375 0.78878490
vt 0.56928375 0.78878490
vt 0.56928375 0.83653474
vt 0.56928375 0.88428458
vt 0.56928375 0.88428458
vt 0.56928375 0.74103506
vt 0.56928375 0.69328522
vt 0.56928375 0.74103506
vt 0.56928375 0.78878490
vt 0.56928375 0.69328522
vt 0.59507042 0.34686681
vt 0.59507042 0.34686681
vt 0.59507042 0.34686681
vt 0.59507042 0.34686681
vt 0.60017332 0.41845479
vt 0.60017332 0.41845479
vt 0.61811933 0.69328522
vt 0.61811933 0.69328522
vt 0.61811933 0.74103506
vt 0.61811933 0.78878490
vt 0.61811933 0.78878490
vt 0.61811933 0.83653474
vt 0.61811933 0.88428458
vt 0.61811933 0.83653474
vt 0.61811933 0.88428458
vt 0.61811933 0.69328522
vt 0.61811933 0.69328522
vt 0.61811933 0.74103506
vt 0.61811933 0.74103506
vt 0.61811933 0.78878490
vt 0.61811933 0.78878490
vt 0.61811933 0.83653474
vt 0.61811933 0.83653474
vt 0.61811933 0.88428458
vt 0.61811933 0.88428458
vt 0.61811933 0.83653474
vt 0.61811933 0.88428458
vt 0.61811933 0.69328522
vt 0.61811933 0.74103506
vt 0.61811933 0.74103506
vt 0.61811933 0.78878490
vt 0.62527937 0.39919024
vt 0.62527937 0.39919024
vt 0.62527937 0.39919024
vt 0.63887868 0.32872083
vt 0.63887868 0.32872083
vt 0.63887868 0.32872083
vt 0.63887868 0.32872083
vt 0.64298642 0.46126789
vt 0.64298642 0.46126789
vt 0.65451598 0.38708004
vt 0.65451598 0.38708004
vt 0.65451598 0.38708004
vt 0.65451598 0.38708004
vt 0.65555280 0.45162537
vt 0.65555280 0.45162537
vt 0.65555280 0.45162537
vt 0.67018666 0.44556383
vt 0.67018666 0.44556383
vt 0.68589073 0.44349635
vt 0.68589073 0.38294947
vt 0.68589073 0.50417220
vt 0.68589073 0.32253158
vt 0.68589073 0.38294947
vt 0.68589073 0.44349635
vt 0.68589073 0.32253158
vn -2.7476432e-18 1.00000000 -2.3065742e-17
vn 0.12559393 0.98942823 7.2511691e-2
vn 0.10254702 0.98942823 0.10254702
vn 7.2511691e-2 0.98942823 0.12559393
vn 3.7534813e-2 0.98942823 0.14008183
vn 3.9069020e-18 0.98942823 0.14502338
vn -3.7534813e-2 0.98942823 0.14008183
vn -7.2511691e-2 0.98942823 0.12559393
vn -0.10254702 0.98942823 0.10254702
vn -0.12559393 0.98942823 7.2511691e-2
vn -0.14008183 0.98942823 3.7534813e-2
vn -0.14502338 0.98942823 4.7751025e-17
vn -0.14008183 0.98942823 -3.7534813e-2
vn -0.12559393 0.98942823 -7.2511691e-2
vn -0.10254702 0.98942823 -0.10254702
vn -7.2511691e-2 0.98942823 -0.12559393
vn -3.7534813e-2 0.98942823 -0.14008183
vn -1.0244765e-16 0.98942823 -0.14502338
vn 3.7534813e-2 0.98942823 -0.14008183
vn 7.2511691e-2 0.98942823 -0.12559393
vn 0.10254702 0.98942823 -0.10254702
vn 0.12559393 0.98942823 -7.2511691e-2
vn 0.14008183 0.98942823 -3.7534813e-2
vn 0.14502338 0.98942823 -6.9021936e-17
vn 0.14008183 0.98942823 3.7534813e-2
vn 6.4177147e-2 0.99779035 1.7196215e-2
vn 6.6441072e-2 0.99779035 2.4187247e-16
vn 6.4177147e-2 0.99779035 -1.7196215e-2
vn 5.7539656e-2 0.99779035 -3.3220536e-2
vn 4.6980932e-2 0.99779035 -4.6980932e-2
vn 3.3220536e-2 0.99779035 -5.7539656e-2
vn 1.7196215e-2 0.99779035 -6.4177147e-2
vn -4.6334476e-17 0.99779035 -6.6441072e-2
vn -1.7196215e-2 0.99779035 -6.4177147e-2
vn -3.3220536e-2 0.99779035 -5.7539656e-2
vn -4.6980932e-2 0.99779035 -4.6980932e-2
vn -5.7539656e-2 0.99779035 -3.3220536e-2
vn -6.4177147e-2 0.99779035 -1.7196215e-2
vn -6.6441072e-2 0.99779035 1.4757585e-17
vn -6.4177147e-2 0.99779035 1.7196215e-2
vn -5.7539656e-2 0.99779035 3.3220536e-2
vn -4.6980932e-2 0.99779035 4.6980932e-2
vn -3.3220536e-2 0.99779035 5.7539656e-2
vn -1.7196215e-2 0.99779035 6.4177147e-2
vn -4.8830244e-18 0.99779035 6.6441072e-2
vn 1.7196215e-2 0.99779035 6.4177147e-2
vn 3.3220536e-2 0.99779035 5.7539656e-2
vn 4.6980932e-2 0.99779035 4.6980932e-2
vn 5.7539656e-2 0.99779035 3.3220536e-2
vn 1.00000000 0.0000000e+0 -2.3795816e-16
vn 1.00000000 0.0000000e+0 -2.3795816e-16
vn 0.18376568 0.98297008 -6.9409243e-17
vn 0.18376568 0.98297008 -6.9409243e-17
vn 0.96592583 0.0000000e+0 0.25881905
vn 0.96592583 0.0000000e+0 0.25881905
vn 0.17750402 0.98297008 4.7562059e-2
vn 0.17750402 0.98297008 4.7562059e-2
vn 0.86602540 0.0000000e+0 0.50000000
vn 0.86602540 0.0000000e+0 0.50000000
vn 0.15914575 0.98297008 9.1882842e-2
vn 0.15914575 0.98297008 9.1882842e-2
vn 0.70710678 0.0000000e+0 0.70710678
vn 0.70710678 0.0000000e+0 0.70710678
vn 0.12994196 0.98297008 0.12994196
vn 0.12994196 0.98297008 0.12994196
vn 0.50000000 0.0000000e+0 0.86602540
vn 0.50000000 0.0000000e+0 0.86602540
vn 9.1882842e-2 0.98297008 0.15914575
vn 9.1882842e-2 0.98297008 0.15914575
vn 0.25881905 0.0000000e+0 0.96592583
vn 0.25881905 0.0000000e+0 0.96592583
vn 4.7562059e-2 0.98297008 0.17750402
vn 4.7562059e-2 0.98297008 0.17750402
vn 1.5397293e-16 0.0000000e+0 1.00000000
vn 1.5397293e-16 0.0000000e+0 1.00000000
vn 1.5617080e-17 0.98297008 0.18376568
vn 1.5617080e-17 0.98297008 0.18376568
vn -0.25881905 0.0000000e+0 0.96592583
vn -0.25881905 0.0000000e+0 0.96592583
vn -4.7562059e-2 0.98297008 0.17750402
vn -4.7562059e-2 0.98297008 0.17750402
vn -0.50000000 0.0000000e+0 0.86602540
vn -0.50000000 0.0000000e+0 0.86602540
vn -9.1882842e-2 0.98297008 0.15914575
vn -9.1882842e-2 0.98297008 0.15914575
vn -0.70710678 0.0000000e+0 0.70710678
vn -0.70710678 0.0000000e+0 0.70710678
vn -0.12994196 0.98297008 0.12994196
vn -0.12994196 0.98297008 0.12994196
vn -0.86602540 0.0000000e+0 0.50000000
vn -0.86602540 0.0000000e+0 0.50000000
vn -0.15914575 0.98297008 9.1882842e-2
vn -0.15914575 0.98297008 9.1882842e-2
vn -0.96592583 0.0000000e+0 0.25881905
vn -0.96592583 0.0000000e+0 0.25881905
vn -0.17750402 0.98297008 4.7562059e-2
vn -0.17750402 0.98297008 4.7562059e-2
vn -1.00000000 0.0000000e+0 3.4993847e-16
vn -1.00000000 0.0000000e+0 3.4993847e-16
vn -0.18376568 0.98297008 6.2468319e-17
vn -0.18376568 0.98297008 6.2468319e-17
vn -0.96592583 0.0000000e+0 -0.25881905
vn -0.96592583 0.0000000e+0 -0.25881905
vn -0.17750402 0.98297008 -4.7562059e-2
vn -0.17750402 0.98297008 -4.7562059e-2
vn -0.86602540 0.0000000e+0 -0.50000000
vn -0.86602540 0.0000000e+0 -0.50000000
vn -0.15914575 0.98297008 -9.1882842e-2
vn -0.15914575 0.98297008 -9.1882842e-2
vn -0.70710678 0.0000000e+0 -0.70710678
vn -0.70710678 0.0000000e+0 -0.70710678
vn -0.12994196 0.98297008 -0.12994196
vn -0.12994196 0.98297008 -0.12994196
vn -0.50000000 0.0000000e+0 -0.86602540
vn -0.50000000 0.0000000e+0 -0.86602540
vn -9.1882842e-2 0.98297008 -0.15914575
vn -9.1882842e-2 0.98297008 -0.15914575
vn -0.25881905 0.0000000e+0 -0.96592583
vn -0.25881905 0.0000000e+0 -0.96592583
vn -4.7562059e-2 0.98297008 -0.17750402
vn -4.7562059e-2 0.98297008 -0.17750402
vn -4.6191878e-16 0.0000000e+0 -1.00000000
vn -4.6191878e-16 0.0000000e+0 -1.00000000
vn -1.2320141e-16 0.98297008 -0.18376568
vn -1.2320141e-16 0.98297008 -0.18376568
vn 0.25881905 0.0000000e+0 -0.96592583
vn 0.25881905 0.0000000e+0 -0.96592583
vn 4.7562059e-2 0.98297008 -0.17750402
vn 4.7562059e-2 0.98297008 -0.17750402
vn 0.50000000 0.0000000e+0 -0.86602540
vn 0.50000000 0.0000000e+0 -0.86602540
vn 9.1882842e-2 0.98297008 -0.15914575
vn 9.1882842e-2 0.98297008 -0.15914575
vn 0.70710678 0.0000000e+0 -0.70710678
vn 0.70710678 0.0000000e+0 -0.70710678
vn 0.12994196 0.98297008 -0.12994196
vn 0.12994196 0.98297008 -0.12994196
vn 0.86602540 0.0000000e+0 -0.50000000
vn 0.86602540 0.0000000e+0 -0.50000000
vn 0.15914575 0.98297008 -9.1882842e-2
vn 0.15914575 0.98297008 -9.1882842e-2
vn 0.96592583 0.0000000e+0 -0.25881905
vn 0.96592583 0.0000000e+0 -0.25881905
vn 0.17750402 0.98297008 -4.7562059e-2
vn 0.17750402 0.98297008 -4.7562059e-2
vn 1.00000000 0.0000000e+0 -2.3795816e-16
vn 1.00000000 0.0000000e+0 -2.3795816e-16
vn 0.96592583 0.0000000e+0 0.25881905
vn 0.96592583 0.0000000e+0 0.25881905
vn 0.86602540 0.0000000e+0 0.50000000
vn 0.86602540 0.0000000e+0 0.50000000
vn 0.70710678 0.0000000e+0 0.70710678
vn 0.70710678 0.0000000e+0 0.70710678
vn 0.50000000 0.0000000e+0 0.86602540
vn 0.50000000 0.0000000e+0 0.86602540
vn 0.25881905 0.0000000e+0 0.96592583
vn 0.25881905 0.0000000e+0 0.96592583
vn 1.5397293e-16 0.0000000e+0 1.00000000
vn 1.5397293e-16 0.0000000e+0 1.00000000
vn -0.25881905 0.0000000e+0 0.96592583
vn -0.25881905 0.0000000e+0 0.96592583
vn -0.50000000 0.0000000e+0 0.86602540
vn -0.50000000 0.0000000e+0 0.86602540
vn -0.70710678 0.0000000e+0 0.70710678
vn -0.70710678 0.0000000e+0 0.70710678
vn -0.86602540 0.0000000e+0 0.50000000
vn -0.86602540 0.0000000e+0 0.50000000
vn -0.96592583 0.0000000e+0 0.25881905
vn -0.96592583 0.0000000e+0 0.25881905
vn -1.00000000 0.0000000e+0 3.4993847e-16
vn -1.00000000 0.0000000e+0 3.4993847e-16
vn -0.96592583 0.0000000e+0 -0.25881905
vn -0.96592583 0.0000000e+0 -0.25881905
vn -0.86602540 0.0000000e+0 -0.50000000
vn -0.86602540 0.0000000e+0 -0.50000000
vn -0.70710678 0.0000000e+0 -0.70710678
vn -0.70710678 0.0000000e+0 -0.70710678
vn -0.50000000 0.0000000e+0 -0.86602540
vn -0.50000000 0.0000000e+0 -0.86602540
vn -0.25881905 0.0000000e+0 -0.96592583
vn -0.25881905 0.0000000e+0 -0.96592583
vn -4.6191878e-16 0.0000000e+0 -1.00000000
vn -4.6191878e-16 0.0000000e+0 -1.00000000
vn 0.25881905 0.0000000e+0 -0.96592583
vn 0.25881905 0.0000000e+0 -0.96592583
vn 0.50000000 0.0000000e+0 -0.86602540
vn 0.50000000 0.0000000e+0 -0.86602540
vn 0.70710678 0.0000000e+0 -0.70710678
vn 0.70710678 0.0000000e+0 -0.70710678
vn 0.86602540 0.0000000e+0 -0.50000000
vn 0.86602540 0.0000000e+0 -0.50000000
vn 0.96592583 0.0000000e+0 -0.25881905
vn 0.96592583 0.0000000e+0 -0.25881905
g 2_2_auv
usemtl 2_auv
s 1
f 1/1/52 72/32/24 73/60/25 2/28/56
f 2/28/57 73/60/25 50/68/2 3/64/61
f 3/64/60 50/68/2 51/78/3 4/80/65
f 4/80/64 51/81/3 52/71/4 5/64/69
f 5/64/68 52/71/4 53/60/5 6/28/73
f 6/28/72 53/60/5 54/32/6 7/1/77
f 7/1/76 54/32/6 55/60/7 8/28/81
f 8/28/80 55/60/7 56/68/8 9/63/85
f 9/63/84 56/68/8 57/81/9 10/80/89
f 10/83/88 57/78/9 58/70/10 11/64/93
f 11/64/92 58/70/10 59/60/11 12/28/97
f 12/28/96 59/60/11 60/32/12 13/1/101
f 13/1/100 60/32/12 61/60/13 14/29/105
f 14/29/104 61/60/13 62/69/14 15/62/109
f 15/62/108 62/69/14 63/78/15 16/80/113
f 16/80/112 63/81/15 64/71/16 17/64/117
f 17/64/116 64/71/16 65/61/17 18/31/121
f 18/31/120 65/61/17 66/33/18 19/1/125
f 19/1/124 66/33/18 67/59/19 20/28/129
f 20/28/128 67/59/19 68/69/20 21/62/133
f 21/62/132 68/69/20 69/81/21 22/80/137
f 22/83/136 69/78/21 70/71/22 23/65/141
f 23/65/140 70/71/22 71/60/23 24/30/145
f 24/30/144 71/60/23 72/32/24 1/1/53
f 49/79/1 97/76/49 74/73/26
f 50/68/2 73/60/25 74/73/26 97/76/49
f 74/73/26 75/67/27 49/79/1
f 75/67/27 74/73/26 73/60/25 72/32/24
f 75/67/27 76/74/28 49/79/1
f 76/74/28 75/67/27 72/32/24 71/60/23
f 76/74/28 77/76/29 49/79/1
f 77/76/29 76/74/28 71/60/23 70/71/22
f 77/76/29 78/77/30 49/79/1
f 78/77/30 77/76/29 70/71/22 69/78/21
f 78/77/30 79/75/31 49/79/1
f 79/75/31 78/77/30 69/81/21 68/69/20
f 79/75/31 80/72/32 49/79/1
f 80/72/32 79/75/31 68/69/20 67/59/19
f 80/72/32 81/66/33 49/79/1
f 81/66/33 80/72/32 67/59/19 66/33/18
f 81/66/33 82/74/34 49/79/1
f 82/74/34 81/66/33 66/33/18 65/61/17
f 82/74/34 83/76/35 49/79/1
f 83/76/35 82/74/34 65/61/17 64/71/16
f 83/76/35 84/82/36 49/79/1
f 84/82/36 83/76/35 64/71/16 63/81/15
f 84/77/36 85/76/37 49/79/1
f 85/76/37 84/77/36 63/78/15 62/69/14
f 85/76/37 86/73/38 49/79/1
f 86/73/38 85/76/37 62/69/14 61/60/13
f 86/73/38 87/66/39 49/79/1
f 87/66/39 86/73/38 61/60/13 60/32/12
f 87/66/39 88/73/40 49/79/1
f 88/73/40 87/66/39 60/32/12 59/60/11
f 88/73/40 89/76/41 49/79/1
f 89/76/41 88/73/40 59/60/11 58/70/10
f 89/76/41 90/77/42 49/79/1
f 90/77/42 89/76/41 58/70/10 57/78/9
f 90/77/42 91/76/43 49/79/1
f 91/76/43 90/77/42 57/81/9 56/68/8
f 91/76/43 92/73/44 49/79/1
f 92/73/44 91/76/43 56/68/8 55/60/7
f 92/73/44 93/66/45 49/79/1
f 93/66/45 92/73/44 55/60/7 54/32/6
f 93/66/45 94/73/46 49/79/1
f 94/73/46 93/66/45 54/32/6 53/60/5
f 94/73/46 95/76/47 49/79/1
f 95/76/47 94/73/46 53/60/5 52/71/4
f 95/76/47 96/77/48 49/79/1
f 96/77/48 95/76/47 52/71/4 51/81/3
f 96/77/48 97/76/49 49/79/1
f 97/76/49 96/77/48 51/78/3 50/68/2
s 2
f 1/14/50 25/43/146 48/45/192 24/16/142
f 2/9/55 26/41/149 25/52/147 1/11/51
f 3/19/59 27/48/151 26/41/148 2/9/54
f 4/17/63 28/46/153 27/48/150 3/19/58
f 5/15/67 29/44/155 28/46/152 4/17/62
f 6/8/71 30/49/157 29/40/154 5/10/66
f 7/6/75 31/37/159 30/49/156 6/8/70
f 8/5/79 32/36/161 31/37/158 7/6/74
f 9/2/83 33/34/163 32/36/160 8/5/78
f 10/9/87 34/50/165 33/51/162 9/10/82
f 11/7/91 35/47/167 34/50/164 10/9/86
f 12/23/95 36/56/169 35/47/166 11/7/90
f 13/24/99 37/55/171 36/56/168 12/23/94
f 14/20/103 38/53/173 37/54/170 13/21/98
f 15/26/107 39/58/175 38/53/172 14/20/102
f 16/25/111 40/57/177 39/58/174 15/26/106
f 17/27/115 41/55/179 40/57/176 16/25/110
f 18/12/119 42/39/181 41/51/178 17/13/114
f 19/3/123 43/38/183 42/39/180 18/12/118
f 20/5/127 44/36/185 43/38/182 19/3/122
f 21/4/131 45/35/187 44/36/184 20/5/126
f 22/20/135 46/49/189 45/42/186 21/22/130
f 23/18/139 47/47/191 46/49/188 22/20/134
f 24/16/143 48/45/193 47/47/190 23/18/138
