# Exported from Wings 3D 1.5.4
mtllib tucana_adapter_s1_s0_1.mtl
o tucana_adapter_s1_s0p5_1
#48 vertices, 24 faces
v 0.22097087 0.28750000 0.22097087
v 0.15625000 0.28750000 0.27063294
v 8.0880952e-2 0.28750000 0.30185182
v -3.6503144e-17 0.28750000 0.31250000
v -8.0880952e-2 0.28750000 0.30185182
v -0.15625000 0.28750000 0.27063294
v -0.22097087 0.28750000 0.22097087
v -0.27063294 0.28750000 0.15625000
v -0.30185182 0.28750000 8.0880952e-2
v -0.31250000 0.28750000 6.0260688e-17
v -0.30185182 0.28750000 -8.0880952e-2
v -0.27063294 0.28750000 -0.15625000
v -0.22097087 0.28750000 -0.22097087
v -0.15625000 0.28750000 -0.27063294
v -8.0880952e-2 0.28750000 -0.30185182
v -2.9555518e-16 0.28750000 -0.31250000
v 8.0880952e-2 0.28750000 -0.30185182
v 0.15625000 0.28750000 -0.27063294
v 0.22097087 0.28750000 -0.22097087
v 0.27063294 0.28750000 -0.15625000
v 0.30185182 0.28750000 -8.0880952e-2
v 0.31250000 0.28750000 -8.7769049e-17
v 0.30185182 0.28750000 8.0880952e-2
v 0.27063294 0.28750000 0.15625000
v 0.44194174 -0.28750000 0.44194174
v 0.31250000 -0.28750000 0.54126588
v 0.16176190 -0.28750000 0.60370364
v 1.8103669e-17 -0.28750000 0.62500000
v -0.16176190 -0.28750000 0.60370364
v -0.31250000 -0.28750000 0.54126588
v -0.44194174 -0.28750000 0.44194174
v -0.54126588 -0.28750000 0.31250000
v -0.60370364 -0.28750000 0.16176190
v -0.62500000 -0.28750000 1.2624198e-16
v -0.60370364 -0.28750000 -0.16176190
v -0.54126588 -0.28750000 -0.31250000
v -0.44194174 -0.28750000 -0.44194174
v -0.31250000 -0.28750000 -0.54126588
v -0.16176190 -0.28750000 -0.60370364
v -4.8149669e-16 -0.28750000 -0.62500000
v 0.16176190 -0.28750000 -0.60370364
v 0.31250000 -0.28750000 -0.54126588
v 0.44194174 -0.28750000 -0.44194174
v 0.54126588 -0.28750000 -0.31250000
v 0.60370364 -0.28750000 -0.16176190
v 0.62500000 -0.28750000 -1.5131377e-16
v 0.60370364 -0.28750000 0.16176190
v 0.54126588 -0.28750000 0.31250000
vt 0.89489721 0.53490770
vt 0.89489721 0.53490770
vt 0.89489721 0.53490770
vt 0.89489721 0.53490770
vt 0.91053392 0.53490770
vt 0.91053392 0.53490770
vt 0.91053392 0.53490770
vt 0.91898531 0.59892828
vt 0.91898531 0.59892828
vt 0.91898531 0.59892828
vt 0.92667626 0.53490770
vt 0.92667626 0.53490770
vt 0.92667626 0.53490770
vt 0.92680366 0.59892828
vt 0.92680366 0.59892828
vt 0.92680366 0.59892828
vt 0.93487483 0.59892828
vt 0.93487483 0.59892828
vt 0.93487483 0.59892828
vt 0.93487483 0.59892828
vt 0.94307340 0.53490770
vt 0.94307340 0.59892828
vt 0.94307340 0.53490770
vt 0.94307340 0.59892828
vt 0.94307340 0.53490770
vt 0.94307340 0.59892828
vt 0.95127198 0.59892828
vt 0.95127198 0.59892828
vt 0.95127198 0.59892828
vt 0.95934315 0.59892828
vt 0.95934315 0.59892828
vt 0.95934315 0.59892828
vt 0.95934315 0.59892828
vt 0.95947055 0.53490770
vt 0.95947055 0.53490770
vt 0.95947055 0.53490770
vt 0.95947055 0.53490770
vt 0.96716150 0.59892828
vt 0.96716150 0.59892828
vt 0.96716150 0.59892828
vt 0.97561289 0.53490770
vt 0.97561289 0.53490770
vt 0.97561289 0.53490770
vt 0.99124960 0.53490770
vt 0.99124960 0.53490770
vt 0.99124960 0.53490770
vn 0.62128135 0.47751332 0.62128135
vn 0.62128135 0.47751332 0.62128135
vn 0.43931225 0.47751332 0.76091115
vn 0.43931225 0.47751332 0.76091115
vn 0.22740476 0.47751332 0.84868611
vn 0.22740476 0.47751332 0.84868611
vn -2.0955485e-17 0.47751332 0.87862451
vn -2.0955485e-17 0.47751332 0.87862451
vn -0.22740476 0.47751332 0.84868611
vn -0.22740476 0.47751332 0.84868611
vn -0.43931225 0.47751332 0.76091115
vn -0.43931225 0.47751332 0.76091115
vn -0.62128135 0.47751332 0.62128135
vn -0.62128135 0.47751332 0.62128135
vn -0.76091115 0.47751332 0.43931225
vn -0.76091115 0.47751332 0.43931225
vn -0.84868611 0.47751332 0.22740476
vn -0.84868611 0.47751332 0.22740476
vn -0.87862451 0.47751332 4.3308003e-16
vn -0.87862451 0.47751332 4.3308003e-16
vn -0.84868611 0.47751332 -0.22740476
vn -0.84868611 0.47751332 -0.22740476
vn -0.76091115 0.47751332 -0.43931225
vn -0.76091115 0.47751332 -0.43931225
vn -0.62128135 0.47751332 -0.62128135
vn -0.62128135 0.47751332 -0.62128135
vn -0.43931225 0.47751332 -0.76091115
vn -0.43931225 0.47751332 -0.76091115
vn -0.22740476 0.47751332 -0.84868611
vn -0.22740476 0.47751332 -0.84868611
vn -4.1910971e-16 0.47751332 -0.87862451
vn -4.1910971e-16 0.47751332 -0.87862451
vn 0.22740476 0.47751332 -0.84868611
vn 0.22740476 0.47751332 -0.84868611
vn 0.43931225 0.47751332 -0.76091115
vn 0.43931225 0.47751332 -0.76091115
vn 0.62128135 0.47751332 -0.62128135
vn 0.62128135 0.47751332 -0.62128135
vn 0.76091115 0.47751332 -0.43931225
vn 0.76091115 0.47751332 -0.43931225
vn 0.84868611 0.47751332 -0.22740476
vn 0.84868611 0.47751332 -0.22740476
vn 0.87862451 0.47751332 -6.0072391e-16
vn 0.87862451 0.47751332 -6.0072391e-16
vn 0.84868611 0.47751332 0.22740476
vn 0.84868611 0.47751332 0.22740476
vn 0.76091115 0.47751332 0.43931225
vn 0.76091115 0.47751332 0.43931225
vn 0.62128135 0.47751332 0.62128135
vn 0.62128135 0.47751332 0.62128135
vn 0.43931225 0.47751332 0.76091115
vn 0.43931225 0.47751332 0.76091115
vn 0.22740476 0.47751332 0.84868611
vn 0.22740476 0.47751332 0.84868611
vn -2.0955485e-17 0.47751332 0.87862451
vn -2.0955485e-17 0.47751332 0.87862451
vn -0.22740476 0.47751332 0.84868611
vn -0.22740476 0.47751332 0.84868611
vn -0.43931225 0.47751332 0.76091115
vn -0.43931225 0.47751332 0.76091115
vn -0.62128135 0.47751332 0.62128135
vn -0.62128135 0.47751332 0.62128135
vn -0.76091115 0.47751332 0.43931225
vn -0.76091115 0.47751332 0.43931225
vn -0.84868611 0.47751332 0.22740476
vn -0.84868611 0.47751332 0.22740476
vn -0.87862451 0.47751332 4.3308003e-16
vn -0.87862451 0.47751332 4.3308003e-16
vn -0.84868611 0.47751332 -0.22740476
vn -0.84868611 0.47751332 -0.22740476
vn -0.76091115 0.47751332 -0.43931225
vn -0.76091115 0.47751332 -0.43931225
vn -0.62128135 0.47751332 -0.62128135
vn -0.62128135 0.47751332 -0.62128135
vn -0.43931225 0.47751332 -0.76091115
vn -0.43931225 0.47751332 -0.76091115
vn -0.22740476 0.47751332 -0.84868611
vn -0.22740476 0.47751332 -0.84868611
vn -4.1910971e-16 0.47751332 -0.87862451
vn -4.1910971e-16 0.47751332 -0.87862451
vn 0.22740476 0.47751332 -0.84868611
vn 0.22740476 0.47751332 -0.84868611
vn 0.43931225 0.47751332 -0.76091115
vn 0.43931225 0.47751332 -0.76091115
vn 0.62128135 0.47751332 -0.62128135
vn 0.62128135 0.47751332 -0.62128135
vn 0.76091115 0.47751332 -0.43931225
vn 0.76091115 0.47751332 -0.43931225
vn 0.84868611 0.47751332 -0.22740476
vn 0.84868611 0.47751332 -0.22740476
vn 0.87862451 0.47751332 -6.0072391e-16
vn 0.87862451 0.47751332 -6.0072391e-16
vn 0.84868611 0.47751332 0.22740476
vn 0.84868611 0.47751332 0.22740476
vn 0.76091115 0.47751332 0.43931225
vn 0.76091115 0.47751332 0.43931225
g tucana_adapter_s1_s0p5_1_tucana_adapter_s1_s0p5_1_auv
usemtl tucana_adapter_s1_s0p5_1_auv
s 2
f 1/26/1 25/25/49 48/37/95 24/29/47
f 2/20/4 26/13/52 25/25/50 1/26/2
f 3/16/6 27/7/54 26/13/51 2/20/3
f 4/10/8 28/4/56 27/7/53 3/16/5
f 5/32/10 29/42/58 28/45/55 4/39/7
f 6/28/12 30/36/60 29/42/57 5/32/9
f 7/24/14 31/23/62 30/36/59 6/28/11
f 8/19/16 32/12/64 31/23/61 7/24/13
f 9/15/18 33/6/66 32/12/63 8/19/15
f 10/9/20 34/3/68 33/6/65 9/15/17
f 11/30/22 35/41/70 34/44/67 10/38/19
f 12/27/24 36/34/72 35/41/69 11/30/21
f 13/22/26 37/21/74 36/34/71 12/27/23
f 14/17/28 38/11/76 37/21/73 13/22/25
f 15/14/30 39/5/78 38/11/75 14/17/27
f 16/8/32 40/1/80 39/5/77 15/14/29
f 17/31/34 41/42/82 40/45/79 16/39/31
f 18/28/36 42/35/84 41/42/81 17/31/33
f 19/24/38 43/23/86 42/35/83 18/28/35
f 20/18/40 44/12/88 43/23/85 19/24/37
f 21/15/42 45/6/90 44/12/87 20/18/39
f 22/9/44 46/2/92 45/6/89 21/15/41
f 23/33/46 47/43/94 46/46/91 22/40/43
f 24/29/48 48/37/96 47/43/93 23/33/45
