# Exported from Wings 3D 1.5.4
mtllib octans_basic_high_gain_antenna_srf_1_arm.mtl
o mesh
#100 vertices, 80 faces
v -6.2500000e-2 1.8750000e-2 -0.92500000
v -6.2500000e-2 1.3258252e-2 -0.91174175
v -6.2500000e-2 -6.9388939e-18 -0.90625000
v -6.2500000e-2 -1.3258252e-2 -0.91174175
v -6.2500000e-2 -1.8750000e-2 -0.92500000
v -6.2500000e-2 -1.3258252e-2 -0.93825825
v -6.2500000e-2 -6.9388939e-18 -0.94375000
v -6.2500000e-2 1.3258252e-2 -0.93825825
v -3.7500000e-2 1.8750000e-2 -0.92500000
v -3.7500000e-2 1.3258252e-2 -0.91174175
v -3.7500000e-2 -6.9388939e-18 -0.90625000
v -3.7500000e-2 -1.3258252e-2 -0.91174175
v -3.7500000e-2 -1.8750000e-2 -0.92500000
v -3.7500000e-2 -1.3258252e-2 -0.93825825
v -3.7500000e-2 -1.3877788e-17 -0.94375000
v -3.7500000e-2 1.3258252e-2 -0.93825825
v -6.2500000e-2 1.8750000e-2 0.0000000e+0
v -6.2500000e-2 1.3258252e-2 1.3258252e-2
v -6.2500000e-2 -6.9388939e-18 1.8750000e-2
v -6.2500000e-2 -1.3258252e-2 1.3258252e-2
v -6.2500000e-2 -1.8750000e-2 0.0000000e+0
v -6.2500000e-2 -1.3258252e-2 -1.3258252e-2
v -6.2500000e-2 -6.9388939e-18 -1.8750000e-2
v -6.2500000e-2 1.3258252e-2 -1.3258252e-2
v -3.7500000e-2 1.8750000e-2 0.0000000e+0
v -3.7500000e-2 1.3258252e-2 1.3258252e-2
v -3.7500000e-2 -6.9388939e-18 1.8750000e-2
v -3.7500000e-2 -1.3258252e-2 1.3258252e-2
v -3.7500000e-2 -1.8750000e-2 0.0000000e+0
v -3.7500000e-2 -1.3258252e-2 -1.3258252e-2
v -3.7500000e-2 -1.3877788e-17 -1.8750000e-2
v -3.7500000e-2 1.3258252e-2 -1.3258252e-2
v -4.1161165e-2 8.8388348e-3 -0.90991117
v -5.0000000e-2 1.2500000e-2 -0.91142767
v -5.8838835e-2 8.8388348e-3 -0.90991117
v -6.2500000e-2 1.0755286e-15 -0.90625000
v -3.7500000e-2 1.0755286e-15 -0.90625000
v -5.8838835e-2 -8.8388348e-3 -0.90991117
v -5.0000000e-2 -1.2500000e-2 -0.91142767
v -4.1161165e-2 -8.8388348e-3 -0.90991117
v -4.1161165e-2 8.8388348e-3 -1.5088835e-2
v -5.0000000e-2 1.2500000e-2 -1.3572330e-2
v -5.8838835e-2 8.8388348e-3 -1.5088835e-2
v -6.2500000e-2 1.0755286e-15 -1.8750000e-2
v -3.7500000e-2 1.0755286e-15 -1.8750000e-2
v -5.8838835e-2 -8.8388348e-3 -1.5088835e-2
v -5.0000000e-2 -1.2500000e-2 -1.3572330e-2
v -4.1161165e-2 -8.8388348e-3 -1.5088835e-2
v -6.2500000e-2 0.0000000e+0 -0.92500000
v -6.2500000e-2 0.0000000e+0 0.0000000e+0
v 6.2500000e-2 1.8750000e-2 -0.92500000
v 6.2500000e-2 1.3258252e-2 -0.91174175
v 6.2500000e-2 -6.9388939e-18 -0.90625000
v 6.2500000e-2 -1.3258252e-2 -0.91174175
v 6.2500000e-2 -1.8750000e-2 -0.92500000
v 6.2500000e-2 -1.3258252e-2 -0.93825825
v 6.2500000e-2 -6.9388939e-18 -0.94375000
v 6.2500000e-2 1.3258252e-2 -0.93825825
v 3.7500000e-2 1.8750000e-2 -0.92500000
v 3.7500000e-2 1.3258252e-2 -0.91174175
v 3.7500000e-2 -6.9388939e-18 -0.90625000
v 3.7500000e-2 -1.3258252e-2 -0.91174175
v 3.7500000e-2 -1.8750000e-2 -0.92500000
v 3.7500000e-2 -1.3258252e-2 -0.93825825
v 3.7500000e-2 -1.3877788e-17 -0.94375000
v 3.7500000e-2 1.3258252e-2 -0.93825825
v 6.2500000e-2 1.8750000e-2 0.0000000e+0
v 6.2500000e-2 1.3258252e-2 1.3258252e-2
v 6.2500000e-2 -6.9388939e-18 1.8750000e-2
v 6.2500000e-2 -1.3258252e-2 1.3258252e-2
v 6.2500000e-2 -1.8750000e-2 0.0000000e+0
v 6.2500000e-2 -1.3258252e-2 -1.3258252e-2
v 6.2500000e-2 -6.9388939e-18 -1.8750000e-2
v 6.2500000e-2 1.3258252e-2 -1.3258252e-2
v 3.7500000e-2 1.8750000e-2 0.0000000e+0
v 3.7500000e-2 1.3258252e-2 1.3258252e-2
v 3.7500000e-2 -6.9388939e-18 1.8750000e-2
v 3.7500000e-2 -1.3258252e-2 1.3258252e-2
v 3.7500000e-2 -1.8750000e-2 0.0000000e+0
v 3.7500000e-2 -1.3258252e-2 -1.3258252e-2
v 3.7500000e-2 -1.3877788e-17 -1.8750000e-2
v 3.7500000e-2 1.3258252e-2 -1.3258252e-2
v 4.1161165e-2 8.8388348e-3 -0.90991117
v 5.0000000e-2 1.2500000e-2 -0.91142767
v 5.8838835e-2 8.8388348e-3 -0.90991117
v 6.2500000e-2 1.0755286e-15 -0.90625000
v 3.7500000e-2 1.0755286e-15 -0.90625000
v 5.8838835e-2 -8.8388348e-3 -0.90991117
v 5.0000000e-2 -1.2500000e-2 -0.91142767
v 4.1161165e-2 -8.8388348e-3 -0.90991117
v 4.1161165e-2 8.8388348e-3 -1.5088835e-2
v 5.0000000e-2 1.2500000e-2 -1.3572330e-2
v 5.8838835e-2 8.8388348e-3 -1.5088835e-2
v 6.2500000e-2 1.0755286e-15 -1.8750000e-2
v 3.7500000e-2 1.0755286e-15 -1.8750000e-2
v 5.8838835e-2 -8.8388348e-3 -1.5088835e-2
v 5.0000000e-2 -1.2500000e-2 -1.3572330e-2
v 4.1161165e-2 -8.8388348e-3 -1.5088835e-2
v 6.2500000e-2 0.0000000e+0 -0.92500000
v 6.2500000e-2 0.0000000e+0 0.0000000e+0
vn 0.70710678 0.70710678 -1.2854482e-18
vn 9.0127256e-17 1.00000000 -8.5530904e-19
vn -0.70710678 0.70710678 0.0000000e+0
vn -1.00000000 -4.8067870e-16 0.0000000e+0
vn 1.00000000 1.5021209e-16 -4.3013920e-19
vn -0.70710678 -0.70710678 0.0000000e+0
vn -1.5021209e-16 -1.00000000 0.0000000e+0
vn 0.70710678 -0.70710678 0.0000000e+0
vn 0.70710678 0.70710678 -1.2854482e-18
vn 9.0127256e-17 1.00000000 -8.5530904e-19
vn -0.70710678 0.70710678 0.0000000e+0
vn -1.00000000 -4.8067870e-16 0.0000000e+0
vn 1.00000000 1.5021209e-16 -4.3013920e-19
vn -0.70710678 -0.70710678 0.0000000e+0
vn -1.5021209e-16 -1.00000000 0.0000000e+0
vn 0.70710678 -0.70710678 0.0000000e+0
vn -1.00000000 -7.5804603e-31 -1.1894543e-30
vn -1.00000000 -3.6977855e-32 -1.2325952e-32
vn -0.70710678 0.70710678 -1.2854482e-18
vn -9.0127256e-17 1.00000000 -8.5530904e-19
vn 0.70710678 0.70710678 0.0000000e+0
vn 1.00000000 -4.8067870e-16 0.0000000e+0
vn -1.00000000 1.5021209e-16 -4.3013920e-19
vn 0.70710678 -0.70710678 0.0000000e+0
vn 1.5021209e-16 -1.00000000 0.0000000e+0
vn -0.70710678 -0.70710678 0.0000000e+0
vn -0.70710678 0.70710678 -1.2854482e-18
vn -9.0127256e-17 1.00000000 -8.5530904e-19
vn 0.70710678 0.70710678 0.0000000e+0
vn 1.00000000 -4.8067870e-16 0.0000000e+0
vn -1.00000000 1.5021209e-16 -4.3013920e-19
vn 0.70710678 -0.70710678 0.0000000e+0
vn 1.5021209e-16 -1.00000000 0.0000000e+0
vn -0.70710678 -0.70710678 0.0000000e+0
vn 1.00000000 -7.5804603e-31 -1.1894543e-30
vn 1.00000000 -3.6977855e-32 -1.2325952e-32
vn 1.0221956e-16 1.00000000 -1.5021209e-16
vn 1.0221956e-16 1.00000000 -1.5021209e-16
vn -1.00000000 0.0000000e+0 -5.9164568e-31
vn -1.00000000 0.0000000e+0 -5.9164568e-31
vn 6.1331737e-17 0.70710678 0.70710678
vn 6.1331737e-17 0.70710678 0.70710678
vn -1.00000000 2.1806840e-16 2.6168208e-16
vn -1.00000000 2.1806840e-16 2.6168208e-16
vn 2.0443912e-17 -1.5021209e-16 1.00000000
vn 2.0443912e-17 -1.5021209e-16 1.00000000
vn -1.00000000 -3.0321841e-30 3.7007434e-16
vn -1.00000000 -3.0321841e-30 3.7007434e-16
vn 0.0000000e+0 -0.70710678 0.70710678
vn 0.0000000e+0 -0.70710678 0.70710678
vn -1.00000000 -2.1806840e-16 2.6168208e-16
vn -1.00000000 -2.1806840e-16 2.6168208e-16
vn -7.1553693e-17 -1.00000000 1.2016967e-16
vn -7.1553693e-17 -1.00000000 1.2016967e-16
vn -1.00000000 0.0000000e+0 -1.6023737e-30
vn -1.00000000 0.0000000e+0 -1.6023737e-30
vn -1.2266347e-16 -0.70710678 -0.70710678
vn -1.2266347e-16 -0.70710678 -0.70710678
vn -1.00000000 -2.1806840e-16 -2.6168208e-16
vn -1.00000000 -2.1806840e-16 -2.6168208e-16
vn 1.0221956e-17 -9.0127256e-17 -1.00000000
vn 1.0221956e-17 -9.0127256e-17 -1.00000000
vn -1.00000000 0.0000000e+0 -3.7007434e-16
vn -1.00000000 0.0000000e+0 -3.7007434e-16
vn 1.2266347e-16 0.70710678 -0.70710678
vn 1.2266347e-16 0.70710678 -0.70710678
vn -1.00000000 2.1806840e-16 -2.6168208e-16
vn -1.00000000 2.1806840e-16 -2.6168208e-16
vn 1.0221956e-16 1.00000000 -1.5021209e-16
vn 1.0221956e-16 1.00000000 -1.5021209e-16
vn 6.1331737e-17 0.70710678 0.70710678
vn 6.1331737e-17 0.70710678 0.70710678
vn 2.0443912e-17 -1.5021209e-16 1.00000000
vn 2.0443912e-17 -1.5021209e-16 1.00000000
vn 0.0000000e+0 -0.70710678 0.70710678
vn 0.0000000e+0 -0.70710678 0.70710678
vn -7.1553693e-17 -1.00000000 1.2016967e-16
vn -7.1553693e-17 -1.00000000 1.2016967e-16
vn -1.2266347e-16 -0.70710678 -0.70710678
vn -1.2266347e-16 -0.70710678 -0.70710678
vn 1.0221956e-17 -9.0127256e-17 -1.00000000
vn 1.0221956e-17 -9.0127256e-17 -1.00000000
vn 1.2266347e-16 0.70710678 -0.70710678
vn 1.2266347e-16 0.70710678 -0.70710678
vn 1.0221956e-16 1.00000000 -1.5021209e-16
vn 1.0221956e-16 1.00000000 -1.5021209e-16
vn -1.00000000 0.0000000e+0 -4.9303807e-32
vn -1.00000000 0.0000000e+0 -4.9303807e-32
vn 6.1331737e-17 0.70710678 0.70710678
vn 6.1331737e-17 0.70710678 0.70710678
vn -1.00000000 2.1806840e-16 2.6168208e-16
vn -1.00000000 2.1806840e-16 2.6168208e-16
vn 2.0443912e-17 -1.5021209e-16 1.00000000
vn 2.0443912e-17 -1.5021209e-16 1.00000000
vn -1.00000000 -9.8607613e-32 3.7007434e-16
vn -1.00000000 -9.8607613e-32 3.7007434e-16
vn 0.0000000e+0 -0.70710678 0.70710678
vn 0.0000000e+0 -0.70710678 0.70710678
vn -1.00000000 -2.1806840e-16 2.6168208e-16
vn -1.00000000 -2.1806840e-16 2.6168208e-16
vn -7.1553693e-17 -1.00000000 1.2016967e-16
vn -7.1553693e-17 -1.00000000 1.2016967e-16
vn -1.00000000 0.0000000e+0 0.0000000e+0
vn -1.00000000 0.0000000e+0 0.0000000e+0
vn -1.2266347e-16 -0.70710678 -0.70710678
vn -1.2266347e-16 -0.70710678 -0.70710678
vn -1.00000000 -2.1806840e-16 -2.6168208e-16
vn -1.00000000 -2.1806840e-16 -2.6168208e-16
vn 1.0221956e-17 -9.0127256e-17 -1.00000000
vn 1.0221956e-17 -9.0127256e-17 -1.00000000
vn -1.00000000 -4.9303807e-32 -3.7007434e-16
vn -1.00000000 -4.9303807e-32 -3.7007434e-16
vn 1.2266347e-16 0.70710678 -0.70710678
vn 1.2266347e-16 0.70710678 -0.70710678
vn -1.00000000 2.1806840e-16 -2.6168208e-16
vn -1.00000000 2.1806840e-16 -2.6168208e-16
vn 1.0221956e-16 1.00000000 -1.5021209e-16
vn 1.0221956e-16 1.00000000 -1.5021209e-16
vn 6.1331737e-17 0.70710678 0.70710678
vn 6.1331737e-17 0.70710678 0.70710678
vn 2.0443912e-17 -1.5021209e-16 1.00000000
vn 2.0443912e-17 -1.5021209e-16 1.00000000
vn 0.0000000e+0 -0.70710678 0.70710678
vn 0.0000000e+0 -0.70710678 0.70710678
vn -7.1553693e-17 -1.00000000 1.2016967e-16
vn -7.1553693e-17 -1.00000000 1.2016967e-16
vn -1.2266347e-16 -0.70710678 -0.70710678
vn -1.2266347e-16 -0.70710678 -0.70710678
vn 1.0221956e-17 -9.0127256e-17 -1.00000000
vn 1.0221956e-17 -9.0127256e-17 -1.00000000
vn 1.2266347e-16 0.70710678 -0.70710678
vn 1.2266347e-16 0.70710678 -0.70710678
vn -1.0221956e-16 1.00000000 -1.5021209e-16
vn -1.0221956e-16 1.00000000 -1.5021209e-16
vn 1.00000000 0.0000000e+0 -5.9164568e-31
vn 1.00000000 0.0000000e+0 -5.9164568e-31
vn -6.1331737e-17 0.70710678 0.70710678
vn -6.1331737e-17 0.70710678 0.70710678
vn 1.00000000 2.1806840e-16 2.6168208e-16
vn 1.00000000 2.1806840e-16 2.6168208e-16
vn -2.0443912e-17 -1.5021209e-16 1.00000000
vn -2.0443912e-17 -1.5021209e-16 1.00000000
vn 1.00000000 -3.0321841e-30 3.7007434e-16
vn 1.00000000 -3.0321841e-30 3.7007434e-16
vn 0.0000000e+0 -0.70710678 0.70710678
vn 0.0000000e+0 -0.70710678 0.70710678
vn 1.00000000 -2.1806840e-16 2.6168208e-16
vn 1.00000000 -2.1806840e-16 2.6168208e-16
vn 7.1553693e-17 -1.00000000 1.2016967e-16
vn 7.1553693e-17 -1.00000000 1.2016967e-16
vn 1.00000000 0.0000000e+0 -1.6023737e-30
vn 1.00000000 0.0000000e+0 -1.6023737e-30
vn 1.2266347e-16 -0.70710678 -0.70710678
vn 1.2266347e-16 -0.70710678 -0.70710678
vn 1.00000000 -2.1806840e-16 -2.6168208e-16
vn 1.00000000 -2.1806840e-16 -2.6168208e-16
vn -1.0221956e-17 -9.0127256e-17 -1.00000000
vn -1.0221956e-17 -9.0127256e-17 -1.00000000
vn 1.00000000 0.0000000e+0 -3.7007434e-16
vn 1.00000000 0.0000000e+0 -3.7007434e-16
vn -1.2266347e-16 0.70710678 -0.70710678
vn -1.2266347e-16 0.70710678 -0.70710678
vn 1.00000000 2.1806840e-16 -2.6168208e-16
vn 1.00000000 2.1806840e-16 -2.6168208e-16
vn -1.0221956e-16 1.00000000 -1.5021209e-16
vn -1.0221956e-16 1.00000000 -1.5021209e-16
vn -6.1331737e-17 0.70710678 0.70710678
vn -6.1331737e-17 0.70710678 0.70710678
vn -2.0443912e-17 -1.5021209e-16 1.00000000
vn -2.0443912e-17 -1.5021209e-16 1.00000000
vn 0.0000000e+0 -0.70710678 0.70710678
vn 0.0000000e+0 -0.70710678 0.70710678
vn 7.1553693e-17 -1.00000000 1.2016967e-16
vn 7.1553693e-17 -1.00000000 1.2016967e-16
vn 1.2266347e-16 -0.70710678 -0.70710678
vn 1.2266347e-16 -0.70710678 -0.70710678
vn -1.0221956e-17 -9.0127256e-17 -1.00000000
vn -1.0221956e-17 -9.0127256e-17 -1.00000000
vn -1.2266347e-16 0.70710678 -0.70710678
vn -1.2266347e-16 0.70710678 -0.70710678
vn -1.0221956e-16 1.00000000 -1.5021209e-16
vn -1.0221956e-16 1.00000000 -1.5021209e-16
vn 1.00000000 0.0000000e+0 -4.9303807e-32
vn 1.00000000 0.0000000e+0 -4.9303807e-32
vn -6.1331737e-17 0.70710678 0.70710678
vn -6.1331737e-17 0.70710678 0.70710678
vn 1.00000000 2.1806840e-16 2.6168208e-16
vn 1.00000000 2.1806840e-16 2.6168208e-16
vn -2.0443912e-17 -1.5021209e-16 1.00000000
vn -2.0443912e-17 -1.5021209e-16 1.00000000
vn 1.00000000 -9.8607613e-32 3.7007434e-16
vn 1.00000000 -9.8607613e-32 3.7007434e-16
vn 0.0000000e+0 -0.70710678 0.70710678
vn 0.0000000e+0 -0.70710678 0.70710678
vn 1.00000000 -2.1806840e-16 2.6168208e-16
vn 1.00000000 -2.1806840e-16 2.6168208e-16
vn 7.1553693e-17 -1.00000000 1.2016967e-16
vn 7.1553693e-17 -1.00000000 1.2016967e-16
vn 1.00000000 0.0000000e+0 0.0000000e+0
vn 1.00000000 0.0000000e+0 0.0000000e+0
vn 1.2266347e-16 -0.70710678 -0.70710678
vn 1.2266347e-16 -0.70710678 -0.70710678
vn 1.00000000 -2.1806840e-16 -2.6168208e-16
vn 1.00000000 -2.1806840e-16 -2.6168208e-16
vn -1.0221956e-17 -9.0127256e-17 -1.00000000
vn -1.0221956e-17 -9.0127256e-17 -1.00000000
vn 1.00000000 -4.9303807e-32 -3.7007434e-16
vn 1.00000000 -4.9303807e-32 -3.7007434e-16
vn -1.2266347e-16 0.70710678 -0.70710678
vn -1.2266347e-16 0.70710678 -0.70710678
vn 1.00000000 2.1806840e-16 -2.6168208e-16
vn 1.00000000 2.1806840e-16 -2.6168208e-16
vn -1.0221956e-16 1.00000000 -1.5021209e-16
vn -1.0221956e-16 1.00000000 -1.5021209e-16
vn -6.1331737e-17 0.70710678 0.70710678
vn -6.1331737e-17 0.70710678 0.70710678
vn -2.0443912e-17 -1.5021209e-16 1.00000000
vn -2.0443912e-17 -1.5021209e-16 1.00000000
vn 0.0000000e+0 -0.70710678 0.70710678
vn 0.0000000e+0 -0.70710678 0.70710678
vn 7.1553693e-17 -1.00000000 1.2016967e-16
vn 7.1553693e-17 -1.00000000 1.2016967e-16
vn 1.2266347e-16 -0.70710678 -0.70710678
vn 1.2266347e-16 -0.70710678 -0.70710678
vn -1.0221956e-17 -9.0127256e-17 -1.00000000
vn -1.0221956e-17 -9.0127256e-17 -1.00000000
vn -1.2266347e-16 0.70710678 -0.70710678
vn -1.2266347e-16 0.70710678 -0.70710678
g mesh_default
usemtl default
s 1
f 1//39 49//17 2//43
f 2//44 49//17 3//48
f 3//47 49//17 4//52
f 4//51 49//17 5//56
f 5//55 49//17 6//60
f 6//59 49//17 7//64
f 7//63 49//17 8//68
f 8//67 49//17 1//40
f 17//87 50//18 18//91
f 18//92 50//18 19//96
f 19//95 50//18 20//100
f 20//99 50//18 21//104
f 21//103 50//18 22//108
f 22//107 50//18 23//112
f 23//111 50//18 24//116
f 24//115 50//18 17//88
f 33//1 41//9 45//13 37//5
f 34//2 42//10 41//9 33//1
f 35//3 43//11 42//10 34//2
f 36//4 44//12 43//11 35//3
f 37//5 45//13 48//16 40//8
f 38//6 46//14 44//12 36//4
f 39//7 47//15 46//14 38//6
f 40//8 48//16 47//15 39//7
f 51//136 99//35 58//163
f 52//139 99//35 51//135
f 53//144 99//35 52//140
f 54//148 99//35 53//143
f 55//152 99//35 54//147
f 56//156 99//35 55//151
f 57//160 99//35 56//155
f 58//164 99//35 57//159
f 67//184 100//36 74//211
f 68//187 100//36 67//183
f 69//192 100//36 68//188
f 70//196 100//36 69//191
f 71//200 100//36 70//195
f 72//204 100//36 71//199
f 73//208 100//36 72//203
f 74//212 100//36 73//207
f 83//19 91//27 92//28 84//20
f 84//20 92//28 93//29 85//21
f 85//21 93//29 94//30 86//22
f 86//22 94//30 96//32 88//24
f 87//23 95//31 91//27 83//19
f 88//24 96//32 97//33 89//25
f 89//25 97//33 98//34 90//26
f 90//26 98//34 95//31 87//23
s 2
f 1//37 9//69 16//83 8//65
f 2//42 10//72 9//70 1//38
f 3//46 11//74 10//71 2//41
f 4//50 12//76 11//73 3//45
f 5//54 13//78 12//75 4//49
f 6//58 14//80 13//77 5//53
f 7//62 15//82 14//79 6//57
f 8//66 16//84 15//81 7//61
f 17//85 25//117 32//131 24//113
f 18//90 26//120 25//118 17//86
f 19//94 27//122 26//119 18//89
f 20//98 28//124 27//121 19//93
f 21//102 29//126 28//123 20//97
f 22//106 30//128 29//125 21//101
f 23//110 31//130 30//127 22//105
f 24//114 32//132 31//129 23//109
f 51//134 59//166 60//168 52//138
f 52//137 60//167 61//170 53//142
f 53//141 61//169 62//172 54//146
f 54//145 62//171 63//174 55//150
f 55//149 63//173 64//176 56//154
f 56//153 64//175 65//178 57//158
f 57//157 65//177 66//180 58//162
f 58//161 66//179 59//165 51//133
f 67//182 75//214 76//216 68//186
f 68//185 76//215 77//218 69//190
f 69//189 77//217 78//220 70//194
f 70//193 78//219 79//222 71//198
f 71//197 79//221 80//224 72//202
f 72//201 80//223 81//226 73//206
f 73//205 81//225 82//228 74//210
f 74//209 82//227 75//213 67//181
