# Exported from Wings 3D 1.5.4
mtllib octans_basic_high_gain_antenna_srf_1_neck.mtl
o mesh
#144 vertices, 91 faces
v 2.5000000e-2 6.2500000e-2 -0.57500000
v 2.5000000e-2 1.2500000e-2 -0.57500000
v 2.5000000e-2 1.9822330e-2 -0.59267767
v 2.5000000e-2 3.7500000e-2 -0.60000000
v 2.5000000e-2 5.5177670e-2 -0.59267767
v 3.7500000e-2 6.2500000e-2 -0.57500000
v 3.7500000e-2 1.2500000e-2 -0.57500000
v 3.7500000e-2 1.9822330e-2 -0.59267767
v 3.7500000e-2 3.7500000e-2 -0.60000000
v 3.7500000e-2 5.5177670e-2 -0.59267767
v 2.5000000e-2 6.2500000e-2 -0.52500000
v 2.5000000e-2 1.2500000e-2 -0.52500000
v 3.7500000e-2 6.2500000e-2 -0.51250000
v 3.7500000e-2 1.2500000e-2 -0.51250000
v -2.5000000e-2 6.2500000e-2 -0.57500000
v -2.5000000e-2 1.2500000e-2 -0.57500000
v -2.5000000e-2 1.9822330e-2 -0.59267767
v -2.5000000e-2 3.7500000e-2 -0.60000000
v -2.5000000e-2 5.5177670e-2 -0.59267767
v -3.7500000e-2 6.2500000e-2 -0.57500000
v -3.7500000e-2 1.2500000e-2 -0.57500000
v -3.7500000e-2 1.9822330e-2 -0.59267767
v -3.7500000e-2 3.7500000e-2 -0.60000000
v -3.7500000e-2 5.5177670e-2 -0.59267767
v -2.5000000e-2 6.2500000e-2 -0.52500000
v -2.5000000e-2 1.2500000e-2 -0.52500000
v -3.7500000e-2 6.2500000e-2 -0.51250000
v -3.7500000e-2 1.2500000e-2 -0.51250000
v 6.2500000e-2 -2.5000000e-2 -0.35000000
v -6.2500000e-2 -2.5000000e-2 -0.35000000
v -6.2500000e-2 0.10000000 -0.35000000
v 6.2500000e-2 0.10000000 -0.35000000
v -3.7500000e-2 0.10000000 -0.32500000
v 3.7500000e-2 0.10000000 -0.32500000
v -3.7500000e-2 -2.5000000e-2 -0.32500000
v 3.7500000e-2 -2.5000000e-2 -0.32500000
v 3.7500000e-2 -2.5000000e-2 -5.0000000e-2
v 6.2500000e-2 -2.5000000e-2 -5.0000000e-2
v -3.7500000e-2 -2.5000000e-2 -5.0000000e-2
v -6.2500000e-2 -2.5000000e-2 -5.0000000e-2
v 3.7500000e-2 2.5000000e-2 -5.0000000e-2
v 3.7500000e-2 0.10000000 -0.12500000
v 6.2500000e-2 2.5000000e-2 -5.0000000e-2
v 6.2500000e-2 0.10000000 -0.12500000
v -3.7500000e-2 2.5000000e-2 -5.0000000e-2
v -3.7500000e-2 0.10000000 -0.12500000
v -6.2500000e-2 2.5000000e-2 -5.0000000e-2
v -6.2500000e-2 0.10000000 -0.12500000
v -6.2500000e-2 6.3258252e-2 -6.1741748e-2
v 6.2500000e-2 6.3258252e-2 -6.1741748e-2
v 3.7500000e-2 6.3258252e-2 -6.1741748e-2
v -3.7500000e-2 6.3258252e-2 -6.1741748e-2
v -3.7500000e-2 8.8258252e-2 -8.6741748e-2
v 6.2500000e-2 8.8258252e-2 -8.6741748e-2
v -6.2500000e-2 8.8258252e-2 -8.6741748e-2
v 3.7500000e-2 8.8258252e-2 -8.6741748e-2
v 9.8011876e-17 2.5000000e-2 -1.1102230e-16
v 9.8011876e-17 -2.5000000e-2 -1.1102230e-16
v 9.8011876e-17 2.5000000e-2 -7.5000000e-2
v 9.8011876e-17 -2.5000000e-2 -7.5000000e-2
v -1.7677670e-2 1.7677670e-2 -1.7677670e-2
v 1.7677670e-2 1.7677670e-2 -1.7677670e-2
v 1.7677670e-2 1.7677670e-2 -5.7322330e-2
v -1.7677670e-2 1.7677670e-2 -5.7322330e-2
v -2.5000000e-2 -6.9388939e-18 -5.0000000e-2
v 2.5000000e-2 0.0000000e+0 -5.0000000e-2
v -1.7677670e-2 -1.7677670e-2 -5.7322330e-2
v 1.7677670e-2 -1.7677670e-2 -5.7322330e-2
v -2.5000000e-2 0.0000000e+0 -2.5000000e-2
v -1.7677670e-2 -1.7677670e-2 -1.7677670e-2
v 1.7677670e-2 -1.7677670e-2 -1.7677670e-2
v 2.5000000e-2 0.0000000e+0 -2.5000000e-2
v -3.7500000e-2 2.5000000e-2 0.0000000e+0
v -3.7500000e-2 1.7677670e-2 1.7677670e-2
v -3.7500000e-2 6.9388939e-18 2.5000000e-2
v -3.7500000e-2 -1.7677670e-2 1.7677670e-2
v -3.7500000e-2 -2.5000000e-2 0.0000000e+0
v -3.7500000e-2 -1.7677670e-2 -1.7677670e-2
v -3.7500000e-2 0.0000000e+0 -2.5000000e-2
v -3.7500000e-2 1.7677670e-2 -1.7677670e-2
v 3.7500000e-2 2.5000000e-2 0.0000000e+0
v 3.7500000e-2 1.7677670e-2 1.7677670e-2
v 3.7500000e-2 0.0000000e+0 2.5000000e-2
v 3.7500000e-2 -1.7677670e-2 1.7677670e-2
v 3.7500000e-2 -2.5000000e-2 0.0000000e+0
v 3.7500000e-2 -1.7677670e-2 -1.7677670e-2
v 3.7500000e-2 -6.9388939e-18 -2.5000000e-2
v 3.7500000e-2 1.7677670e-2 -1.7677670e-2
v -3.7500000e-2 2.5000000e-2 -7.5000000e-2
v -3.7500000e-2 1.7677670e-2 -5.7322330e-2
v -3.7500000e-2 6.9388939e-18 -5.0000000e-2
v -3.7500000e-2 -1.7677670e-2 -5.7322330e-2
v -3.7500000e-2 -2.5000000e-2 -7.5000000e-2
v -3.7500000e-2 -1.7677670e-2 -9.2677670e-2
v -3.7500000e-2 0.0000000e+0 -1.0000000e-1
v -3.7500000e-2 1.7677670e-2 -9.2677670e-2
v 3.7500000e-2 2.5000000e-2 -7.5000000e-2
v 3.7500000e-2 1.7677670e-2 -5.7322330e-2
v 3.7500000e-2 0.0000000e+0 -5.0000000e-2
v 3.7500000e-2 -1.7677670e-2 -5.7322330e-2
v 3.7500000e-2 -2.5000000e-2 -7.5000000e-2
v 3.7500000e-2 -1.7677670e-2 -9.2677670e-2
v 3.7500000e-2 -6.9388939e-18 -1.0000000e-1
v 3.7500000e-2 1.7677670e-2 -9.2677670e-2
v 2.5000000e-2 3.7500000e-2 -0.47500000
v 2.1650635e-2 5.0000000e-2 -0.47500000
v 1.2500000e-2 5.9150635e-2 -0.47500000
v 4.3489433e-17 6.2500000e-2 -0.47500000
v -1.2500000e-2 5.9150635e-2 -0.47500000
v -2.1650635e-2 5.0000000e-2 -0.47500000
v -2.5000000e-2 3.7500000e-2 -0.47500000
v -2.1650635e-2 2.5000000e-2 -0.47500000
v -1.2500000e-2 1.5849365e-2 -0.47500000
v 3.7366199e-17 1.2500000e-2 -0.47500000
v 1.2500000e-2 1.5849365e-2 -0.47500000
v 2.1650635e-2 2.5000000e-2 -0.47500000
v 5.0000000e-2 3.7500000e-2 -0.35000000
v 4.3301270e-2 6.2500000e-2 -0.35000000
v 2.5000000e-2 8.0801270e-2 -0.35000000
v -3.7086232e-18 8.7500000e-2 -0.35000000
v -2.5000000e-2 8.0801270e-2 -0.35000000
v -4.3301270e-2 6.2500000e-2 -0.35000000
v -5.0000000e-2 3.7500000e-2 -0.35000000
v -4.3301270e-2 1.2500000e-2 -0.35000000
v -2.5000000e-2 -5.8012702e-3 -0.35000000
v -1.5955091e-17 -1.2500000e-2 -0.35000000
v 2.5000000e-2 -5.8012702e-3 -0.35000000
v 4.3301270e-2 1.2500000e-2 -0.35000000
v 1.8750000e-2 3.7500000e-2 -0.51250000
v 1.3258252e-2 5.0758252e-2 -0.51250000
v -1.0767276e-17 5.6250000e-2 -0.51250000
v -1.3258252e-2 5.0758252e-2 -0.51250000
v -1.8750000e-2 3.7500000e-2 -0.51250000
v -1.3258252e-2 2.4241748e-2 -0.51250000
v -1.5359701e-17 1.8750000e-2 -0.51250000
v 1.3258252e-2 2.4241748e-2 -0.51250000
v 1.8750000e-2 3.7500000e-2 -0.47500000
v 1.3258252e-2 5.0758252e-2 -0.47500000
v -1.0767276e-17 5.6250000e-2 -0.47500000
v -1.3258252e-2 5.0758252e-2 -0.47500000
v -1.8750000e-2 3.7500000e-2 -0.47500000
v -1.3258252e-2 2.4241748e-2 -0.47500000
v -1.5359701e-17 1.8750000e-2 -0.47500000
v 1.3258252e-2 2.4241748e-2 -0.47500000
vn -3.0042419e-17 1.00000000 -3.3435779e-17
vn 2.1029693e-16 -1.00000000 6.0184402e-17
vn -3.0042419e-17 1.00000000 -3.3435779e-17
vn 2.1029693e-16 -1.00000000 6.0184402e-17
vn -0.70710678 0.70710678 -5.5639659e-17
vn 0.70710678 0.70710678 -2.5233709e-17
vn 0.70710678 0.70710678 -2.5233709e-17
vn -0.70710678 0.70710678 -5.5639659e-17
vn -1.00000000 -6.0084837e-17 1.1859397e-17
vn 1.00000000 -1.2016967e-16 1.1859397e-17
vn -0.70710678 -0.70710678 7.4186212e-17
vn 0.70710678 -0.70710678 5.7154573e-17
vn -1.00000000 -6.0084837e-17 1.1859397e-17
vn -0.70710678 -0.70710678 7.4186212e-17
vn 0.70710678 -0.70710678 5.7154573e-17
vn 1.00000000 -1.2016967e-16 1.1859397e-17
vn 3.5776846e-17 1.00000000 4.2059386e-16
vn 2.5554890e-17 0.70710678 0.70710678
vn -5.1109781e-18 0.0000000e+0 1.00000000
vn -4.5998803e-17 -0.70710678 0.70710678
vn -4.5998803e-17 -1.00000000 6.9097563e-16
vn -4.0887824e-17 -0.70710678 -0.70710678
vn -3.3353785e-33 -6.0084837e-17 -1.00000000
vn 4.5998803e-17 0.70710678 -0.70710678
vn 3.5776846e-17 1.00000000 4.2059386e-16
vn 2.5554890e-17 0.70710678 0.70710678
vn -5.1109781e-18 0.0000000e+0 1.00000000
vn -4.5998803e-17 -0.70710678 0.70710678
vn -4.5998803e-17 -1.00000000 6.9097563e-16
vn -4.0887824e-17 -0.70710678 -0.70710678
vn -3.3353785e-33 -6.0084837e-17 -1.00000000
vn 4.5998803e-17 0.70710678 -0.70710678
vn 0.98058068 2.8697646e-17 -0.19611614
vn 0.84920778 0.49029034 -0.19611614
vn 0.49029034 0.84920778 -0.19611614
vn -2.8697646e-17 0.98058068 -0.19611614
vn -0.49029034 0.84920778 -0.19611614
vn -0.84920778 0.49029034 -0.19611614
vn -0.98058068 -2.8697646e-17 -0.19611614
vn -0.84920778 -0.49029034 -0.19611614
vn -0.49029034 -0.84920778 -0.19611614
vn -3.7306940e-16 -0.98058068 -0.19611614
vn 0.49029034 -0.84920778 -0.19611614
vn 0.84920778 -0.49029034 -0.19611614
vn 1.00000000 -1.2016967e-16 0.0000000e+0
vn 0.70710678 0.70710678 0.0000000e+0
vn 3.0042419e-17 1.00000000 0.0000000e+0
vn -0.70710678 0.70710678 0.0000000e+0
vn -1.00000000 9.0127256e-17 0.0000000e+0
vn -0.70710678 -0.70710678 0.0000000e+0
vn -9.0127256e-17 -1.00000000 0.0000000e+0
vn 0.70710678 -0.70710678 0.0000000e+0
vn 1.00000000 -1.2016967e-16 0.0000000e+0
vn 0.70710678 0.70710678 0.0000000e+0
vn 3.0042419e-17 1.00000000 0.0000000e+0
vn -0.70710678 0.70710678 0.0000000e+0
vn -1.00000000 9.0127256e-17 0.0000000e+0
vn -0.70710678 -0.70710678 0.0000000e+0
vn -9.0127256e-17 -1.00000000 0.0000000e+0
vn 0.70710678 -0.70710678 0.0000000e+0
vn -1.00000000 2.9210722e-16 -1.1424518e-16
vn -7.3115798e-17 0.98078528 -0.19509032
vn -7.3115798e-17 0.98078528 -0.19509032
vn -1.00000000 2.9210722e-16 -1.1424518e-16
vn -1.00000000 2.9210722e-16 -1.1424518e-16
vn -8.1545661e-17 -0.98078528 -0.19509032
vn -1.00000000 2.9210722e-16 -1.1424518e-16
vn -8.1545661e-17 -0.98078528 -0.19509032
vn -1.00000000 3.0665868e-16 4.9065389e-17
vn -2.1466108e-16 -0.70710678 -0.70710678
vn -2.1466108e-16 -0.70710678 -0.70710678
vn -1.00000000 3.0665868e-16 4.9065389e-17
vn -5.3366056e-32 -1.5021209e-16 -1.00000000
vn -5.3366056e-32 -1.5021209e-16 -1.00000000
vn -1.00000000 3.0665868e-16 4.9065389e-17
vn 1.8399521e-16 0.70710678 -0.70710678
vn 1.8399521e-16 0.70710678 -0.70710678
vn 1.00000000 -3.2277309e-16 4.1633363e-17
vn -7.3115798e-17 0.98078528 -0.19509032
vn -7.3115798e-17 0.98078528 -0.19509032
vn 1.00000000 -3.2277309e-16 4.1633363e-17
vn 1.00000000 -3.2277309e-16 4.1633363e-17
vn -8.1545661e-17 -0.98078528 -0.19509032
vn -8.1545661e-17 -0.98078528 -0.19509032
vn 1.00000000 -3.2277309e-16 4.1633363e-17
vn 1.00000000 -3.6799042e-16 -1.3877788e-16
vn -2.1466108e-16 -0.70710678 -0.70710678
vn -2.1466108e-16 -0.70710678 -0.70710678
vn 1.00000000 -3.6799042e-16 -1.3877788e-16
vn -5.3366056e-32 -1.5021209e-16 -1.00000000
vn -5.3366056e-32 -1.5021209e-16 -1.00000000
vn 1.00000000 -3.6799042e-16 -1.3877788e-16
vn 1.8399521e-16 0.70710678 -0.70710678
vn 1.8399521e-16 0.70710678 -0.70710678
vn -1.8503717e-16 1.00000000 -7.4014868e-16
vn -1.00000000 2.7755576e-16 -2.7755576e-16
vn 0.0000000e+0 0.0000000e+0 -1.00000000
vn -1.8503717e-16 1.00000000 -7.4014868e-16
vn -1.00000000 2.7755576e-16 -2.7755576e-16
vn 6.1679057e-17 -1.00000000 4.3175340e-16
vn 0.0000000e+0 0.0000000e+0 -1.00000000
vn 6.1679057e-17 -1.00000000 4.3175340e-16
vn -1.8503717e-16 1.00000000 -7.4014868e-16
vn 1.00000000 -2.7755576e-16 2.2204460e-16
vn 0.0000000e+0 0.0000000e+0 1.00000000
vn -1.8503717e-16 1.00000000 -7.4014868e-16
vn 6.1679057e-17 -1.00000000 4.3175340e-16
vn 1.00000000 -2.7755576e-16 2.2204460e-16
vn 0.0000000e+0 0.0000000e+0 1.00000000
vn 6.1679057e-17 -1.00000000 4.3175340e-16
vn 1.00000000 2.6144135e-16 -1.1424518e-16
vn 7.3115798e-17 0.98078528 -0.19509032
vn 7.3115798e-17 0.98078528 -0.19509032
vn 1.00000000 2.6144135e-16 -1.1424518e-16
vn 1.00000000 2.6144135e-16 -1.1424518e-16
vn 8.1545661e-17 -0.98078528 -0.19509032
vn 1.00000000 2.6144135e-16 -1.1424518e-16
vn 8.1545661e-17 -0.98078528 -0.19509032
vn 1.00000000 2.4532695e-16 4.9065389e-17
vn 2.1466108e-16 -0.70710678 -0.70710678
vn 2.1466108e-16 -0.70710678 -0.70710678
vn 1.00000000 2.4532695e-16 4.9065389e-17
vn 5.3366056e-32 -1.5021209e-16 -1.00000000
vn 5.3366056e-32 -1.5021209e-16 -1.00000000
vn 1.00000000 2.4532695e-16 4.9065389e-17
vn -1.8399521e-16 0.70710678 -0.70710678
vn -1.8399521e-16 0.70710678 -0.70710678
vn -1.00000000 -3.8410482e-16 4.1633363e-17
vn 7.3115798e-17 0.98078528 -0.19509032
vn 7.3115798e-17 0.98078528 -0.19509032
vn -1.00000000 -3.8410482e-16 4.1633363e-17
vn -1.00000000 -3.8410482e-16 4.1633363e-17
vn 8.1545661e-17 -0.98078528 -0.19509032
vn 8.1545661e-17 -0.98078528 -0.19509032
vn -1.00000000 -3.8410482e-16 4.1633363e-17
vn -1.00000000 -4.9065389e-16 -1.3877788e-16
vn 2.1466108e-16 -0.70710678 -0.70710678
vn 2.1466108e-16 -0.70710678 -0.70710678
vn -1.00000000 -4.9065389e-16 -1.3877788e-16
vn 5.3366056e-32 -1.5021209e-16 -1.00000000
vn 5.3366056e-32 -1.5021209e-16 -1.00000000
vn -1.00000000 -4.9065389e-16 -1.3877788e-16
vn -1.8399521e-16 0.70710678 -0.70710678
vn -1.8399521e-16 0.70710678 -0.70710678
vn 1.8503717e-16 1.00000000 -7.4014868e-16
vn 1.00000000 2.7755576e-16 -2.7755576e-16
vn 0.0000000e+0 0.0000000e+0 -1.00000000
vn 1.8503717e-16 1.00000000 -7.4014868e-16
vn 1.00000000 2.7755576e-16 -2.7755576e-16
vn -6.1679057e-17 -1.00000000 4.3175340e-16
vn 0.0000000e+0 0.0000000e+0 -1.00000000
vn -6.1679057e-17 -1.00000000 4.3175340e-16
vn 1.8503717e-16 1.00000000 -7.4014868e-16
vn -1.00000000 -2.7755576e-16 2.2204460e-16
vn 0.0000000e+0 0.0000000e+0 1.00000000
vn 1.8503717e-16 1.00000000 -7.4014868e-16
vn -6.1679057e-17 -1.00000000 4.3175340e-16
vn -1.00000000 -2.7755576e-16 2.2204460e-16
vn 0.0000000e+0 0.0000000e+0 1.00000000
vn -6.1679057e-17 -1.00000000 4.3175340e-16
vn 0.0000000e+0 -1.00000000 0.0000000e+0
vn 1.00000000 0.0000000e+0 0.0000000e+0
vn 0.0000000e+0 0.0000000e+0 -1.00000000
vn 0.0000000e+0 -1.00000000 0.0000000e+0
vn -1.00000000 0.0000000e+0 0.0000000e+0
vn 0.0000000e+0 -1.00000000 0.0000000e+0
vn 0.0000000e+0 0.0000000e+0 -1.00000000
vn 0.0000000e+0 -1.00000000 0.0000000e+0
vn -1.00000000 0.0000000e+0 0.0000000e+0
vn 0.0000000e+0 0.0000000e+0 -1.00000000
vn 0.0000000e+0 1.00000000 0.0000000e+0
vn 0.0000000e+0 1.00000000 0.0000000e+0
vn 0.0000000e+0 1.00000000 0.0000000e+0
vn 1.00000000 0.0000000e+0 0.0000000e+0
vn 0.0000000e+0 0.0000000e+0 -1.00000000
vn 0.0000000e+0 1.00000000 0.0000000e+0
vn 1.00000000 5.2745875e-17 0.0000000e+0
vn 0.0000000e+0 1.00000000 0.0000000e+0
vn 0.0000000e+0 1.00000000 0.0000000e+0
vn 0.0000000e+0 0.0000000e+0 1.00000000
vn 0.0000000e+0 1.00000000 0.0000000e+0
vn -1.00000000 -2.6372937e-17 0.0000000e+0
vn 0.0000000e+0 1.00000000 0.0000000e+0
vn 0.0000000e+0 0.0000000e+0 1.00000000
vn 1.00000000 5.2745875e-17 0.0000000e+0
vn 0.0000000e+0 -1.00000000 0.0000000e+0
vn 0.0000000e+0 -1.00000000 0.0000000e+0
vn 0.0000000e+0 0.0000000e+0 1.00000000
vn -1.00000000 -2.6372937e-17 0.0000000e+0
vn 0.0000000e+0 -1.00000000 0.0000000e+0
vn 0.0000000e+0 -1.00000000 0.0000000e+0
vn 0.0000000e+0 0.0000000e+0 1.00000000
vn -1.00000000 -2.6372937e-17 0.0000000e+0
vn 0.0000000e+0 -1.00000000 0.0000000e+0
vn 0.0000000e+0 0.0000000e+0 1.00000000
vn 0.0000000e+0 -1.00000000 0.0000000e+0
vn 1.00000000 0.0000000e+0 0.0000000e+0
vn 0.0000000e+0 0.0000000e+0 1.00000000
vn 0.0000000e+0 0.0000000e+0 1.00000000
vn 1.00000000 5.2745875e-17 0.0000000e+0
vn 0.0000000e+0 -1.00000000 0.0000000e+0
vn 0.0000000e+0 0.0000000e+0 1.00000000
vn -1.00000000 0.0000000e+0 0.0000000e+0
vn 0.0000000e+0 -1.00000000 0.0000000e+0
vn -1.00000000 -2.6372937e-17 0.0000000e+0
vn 0.0000000e+0 0.14834145 0.98893620
vn 0.0000000e+0 0.14834145 0.98893620
vn 0.0000000e+0 0.98893620 0.14834145
vn -1.00000000 -2.6372937e-17 0.0000000e+0
vn 0.0000000e+0 0.98893620 0.14834145
vn 1.00000000 0.0000000e+0 0.0000000e+0
vn 0.0000000e+0 0.14834145 0.98893620
vn 0.0000000e+0 0.14834145 0.98893620
vn 0.0000000e+0 0.98893620 0.14834145
vn 1.00000000 0.0000000e+0 0.0000000e+0
vn 0.0000000e+0 0.98893620 0.14834145
vn 0.0000000e+0 0.14834145 0.98893620
vn 1.00000000 5.2745875e-17 0.0000000e+0
vn 0.0000000e+0 0.14834145 0.98893620
vn 1.00000000 5.2745875e-17 0.0000000e+0
vn 0.0000000e+0 0.98893620 0.14834145
vn 0.0000000e+0 0.98893620 0.14834145
vn 0.0000000e+0 0.14834145 0.98893620
vn -1.00000000 0.0000000e+0 0.0000000e+0
vn 0.0000000e+0 0.14834145 0.98893620
vn -1.00000000 0.0000000e+0 0.0000000e+0
vn 0.0000000e+0 0.98893620 0.14834145
vn 0.0000000e+0 0.98893620 0.14834145
vn -1.00000000 0.0000000e+0 0.0000000e+0
vn 0.0000000e+0 0.51549913 0.85689010
vn 0.0000000e+0 0.51549913 0.85689010
vn 1.00000000 0.0000000e+0 0.0000000e+0
vn 0.0000000e+0 0.51549913 0.85689010
vn 0.0000000e+0 0.51549913 0.85689010
vn -1.00000000 -2.6372937e-17 0.0000000e+0
vn 0.0000000e+0 0.51549913 0.85689010
vn 0.0000000e+0 0.51549913 0.85689010
vn 1.00000000 5.2745875e-17 0.0000000e+0
vn 0.0000000e+0 0.51549913 0.85689010
vn 0.0000000e+0 0.51549913 0.85689010
vn 1.00000000 5.2745875e-17 0.0000000e+0
vn 0.0000000e+0 0.85689010 0.51549913
vn 0.0000000e+0 0.85689010 0.51549913
vn 1.00000000 0.0000000e+0 0.0000000e+0
vn 0.0000000e+0 0.85689010 0.51549913
vn 0.0000000e+0 0.85689010 0.51549913
vn -1.00000000 0.0000000e+0 0.0000000e+0
vn 0.0000000e+0 0.85689010 0.51549913
vn 0.0000000e+0 0.85689010 0.51549913
vn -1.00000000 -2.6372937e-17 0.0000000e+0
vn 0.0000000e+0 0.85689010 0.51549913
vn 0.0000000e+0 0.85689010 0.51549913
vn -1.00000000 -6.1331737e-17 0.0000000e+0
vn 3.5776846e-17 1.00000000 -1.5021209e-16
vn 3.5776846e-17 1.00000000 -1.5021209e-16
vn -1.00000000 -6.1331737e-17 0.0000000e+0
vn 2.5554890e-17 0.70710678 0.70710678
vn 2.5554890e-17 0.70710678 0.70710678
vn -1.00000000 -6.1331737e-17 0.0000000e+0
vn -5.1109781e-18 0.0000000e+0 1.00000000
vn -5.1109781e-18 0.0000000e+0 1.00000000
vn -1.00000000 -6.1331737e-17 0.0000000e+0
vn -4.5998803e-17 -0.70710678 0.70710678
vn -4.5998803e-17 -0.70710678 0.70710678
vn -1.00000000 -6.1331737e-17 0.0000000e+0
vn -4.5998803e-17 -1.00000000 1.5021209e-16
vn -4.5998803e-17 -1.00000000 1.5021209e-16
vn -1.00000000 -6.1331737e-17 0.0000000e+0
vn -4.0887824e-17 -0.70710678 -0.70710678
vn -4.0887824e-17 -0.70710678 -0.70710678
vn -1.00000000 -6.1331737e-17 0.0000000e+0
vn -6.6707570e-33 -6.0084837e-17 -1.00000000
vn -6.6707570e-33 -6.0084837e-17 -1.00000000
vn -1.00000000 -6.1331737e-17 0.0000000e+0
vn 4.5998803e-17 0.70710678 -0.70710678
vn 4.5998803e-17 0.70710678 -0.70710678
vn 1.00000000 0.0000000e+0 0.0000000e+0
vn 3.5776846e-17 1.00000000 -1.5021209e-16
vn 3.5776846e-17 1.00000000 -1.5021209e-16
vn 1.00000000 0.0000000e+0 0.0000000e+0
vn 2.5554890e-17 0.70710678 0.70710678
vn 2.5554890e-17 0.70710678 0.70710678
vn 1.00000000 0.0000000e+0 0.0000000e+0
vn -5.1109781e-18 0.0000000e+0 1.00000000
vn -5.1109781e-18 0.0000000e+0 1.00000000
vn 1.00000000 0.0000000e+0 0.0000000e+0
vn -4.5998803e-17 -0.70710678 0.70710678
vn -4.5998803e-17 -0.70710678 0.70710678
vn 1.00000000 0.0000000e+0 0.0000000e+0
vn -4.5998803e-17 -1.00000000 1.5021209e-16
vn -4.5998803e-17 -1.00000000 1.5021209e-16
vn 1.00000000 0.0000000e+0 0.0000000e+0
vn -4.0887824e-17 -0.70710678 -0.70710678
vn -4.0887824e-17 -0.70710678 -0.70710678
vn 1.00000000 0.0000000e+0 0.0000000e+0
vn -6.6707570e-33 -6.0084837e-17 -1.00000000
vn -6.6707570e-33 -6.0084837e-17 -1.00000000
vn 1.00000000 0.0000000e+0 0.0000000e+0
vn 4.5998803e-17 0.70710678 -0.70710678
vn 4.5998803e-17 0.70710678 -0.70710678
vn 4.6259293e-16 0.0000000e+0 -1.00000000
vn 0.98058068 2.8697646e-17 -0.19611614
vn 0.98058068 2.8697646e-17 -0.19611614
vn 4.6259293e-16 0.0000000e+0 -1.00000000
vn 0.84920778 0.49029034 -0.19611614
vn 0.84920778 0.49029034 -0.19611614
vn 4.6259293e-16 0.0000000e+0 -1.00000000
vn 0.49029034 0.84920778 -0.19611614
vn 0.49029034 0.84920778 -0.19611614
vn 4.6259293e-16 0.0000000e+0 -1.00000000
vn -2.8697646e-17 0.98058068 -0.19611614
vn -2.8697646e-17 0.98058068 -0.19611614
vn 4.6259293e-16 0.0000000e+0 -1.00000000
vn -0.49029034 0.84920778 -0.19611614
vn -0.49029034 0.84920778 -0.19611614
vn 4.6259293e-16 0.0000000e+0 -1.00000000
vn -0.84920778 0.49029034 -0.19611614
vn -0.84920778 0.49029034 -0.19611614
vn 4.6259293e-16 0.0000000e+0 -1.00000000
vn -0.98058068 -2.8697646e-17 -0.19611614
vn -0.98058068 -2.8697646e-17 -0.19611614
vn 4.6259293e-16 0.0000000e+0 -1.00000000
vn -0.84920778 -0.49029034 -0.19611614
vn -0.84920778 -0.49029034 -0.19611614
vn 4.6259293e-16 0.0000000e+0 -1.00000000
vn -0.49029034 -0.84920778 -0.19611614
vn -0.49029034 -0.84920778 -0.19611614
vn 4.6259293e-16 0.0000000e+0 -1.00000000
vn -3.7306940e-16 -0.98058068 -0.19611614
vn -3.7306940e-16 -0.98058068 -0.19611614
vn 4.6259293e-16 0.0000000e+0 -1.00000000
vn 0.49029034 -0.84920778 -0.19611614
vn 0.49029034 -0.84920778 -0.19611614
vn 4.6259293e-16 0.0000000e+0 -1.00000000
vn 0.84920778 -0.49029034 -0.19611614
vn 0.84920778 -0.49029034 -0.19611614
g mesh_default
usemtl default
s 1
f 12//101 26//151 25//147 11//97
f 27//155 28//159 14//109 13//105
f 30//165 40//203 47//224 49//229 55//247 48//226 31//169
f 32//174 44//215 54//244 50//232 43//211 38//197 29//162
f 33//177 46//220 53//241 52//238 45//218 39//200 35//185
f 36//189 37//193 41//205 51//235 56//250 42//209 34//182
f 57//1 62//6 63//7 59//3
f 58//2 70//14 67//11 60//4
f 59//3 64//8 61//5 57//1
f 60//4 68//12 71//15 58//2
f 62//6 72//16 66//10 63//7
f 64//8 65//9 69//13 61//5
f 66//10 72//16 71//15 68//12
f 67//11 70//14 69//13 65//9
f 73//253 80//274 79//271 78//268 77//265 76//262 75//259 74//256
f 82//280 83//283 84//286 85//289 86//292 87//295 88//298 81//277
f 89//17 97//25 104//32 96//24
f 90//18 98//26 97//25 89//17
f 91//19 99//27 98//26 90//18
f 92//20 100//28 99//27 91//19
f 93//21 101//29 100//28 92//20
f 94//22 102//30 101//29 93//21
f 95//23 103//31 102//30 94//22
f 96//24 104//32 103//31 95//23
f 105//301 116//334 115//331 114//328 113//325 112//322 111//319 110//316 109//313 108//310 107//307 106//304
f 129//45 137//53 144//60 136//52
f 130//46 138//54 137//53 129//45
f 131//47 139//55 138//54 130//46
f 132//48 140//56 139//55 131//47
f 133//49 141//57 140//56 132//48
f 134//50 142//58 141//57 133//49
f 135//51 143//59 142//58 134//50
f 136//52 144//60 143//59 135//51
s 2
f 2//67 12//99 11//96 1//64
f 5//75 4//72 3//69 2//65 1//61
f 6//78 7//82 8//86 9//89 10//92
f 6//81 13//104 14//108 7//85
f 15//111 16//115 17//119 18//122 19//125
f 15//114 25//146 26//149 16//117
f 21//135 28//158 27//154 20//131
f 24//142 23//139 22//136 21//132 20//128
f 30//167 31//170 32//175 29//163
f 33//180 35//188 36//192 34//184
f 73//254 81//278 88//299 80//275
f 74//258 82//282 81//279 73//255
f 75//261 83//285 82//281 74//257
f 76//264 84//288 83//284 75//260
f 77//267 85//291 84//287 76//263
f 78//270 86//294 85//290 77//266
f 79//273 87//297 86//293 78//269
f 80//276 88//300 87//296 79//272
f 105//302 117//33 128//44 116//335
f 106//306 118//34 117//33 105//303
f 107//309 119//35 118//34 106//305
f 108//312 120//36 119//35 107//308
f 109//315 121//37 120//36 108//311
f 110//318 122//38 121//37 109//314
f 111//321 123//39 122//38 110//317
f 112//324 124//40 123//39 111//320
f 113//327 125//41 124//40 112//323
f 114//330 126//42 125//41 113//326
f 115//333 127//43 126//42 114//329
f 116//336 128//44 127//43 115//332
s 3
f 1//62 6//79 10//93 5//76
f 1//63 11//95 13//103 6//80
f 3//71 8//88 7//83 2//66
f 4//74 9//91 8//87 3//70
f 5//77 10//94 9//90 4//73
f 7//84 14//107 12//100 2//68
f 13//106 11//98 25//148 27//156
f 16//116 21//133 22//138 17//121
f 16//118 26//150 28//157 21//134
f 17//120 22//137 23//141 18//124
f 18//123 23//140 24//144 19//127
f 19//126 24//143 20//129 15//112
f 20//130 27//153 25//145 15//113
f 28//160 26//152 12//102 14//110
f 29//164 36//191 35//187 30//168
f 30//166 35//186 39//201 40//204
f 37//194 36//190 29//161 38//196
s 4
f 31//171 33//178 34//183 32//176
f 33//179 31//172 48//227 46//221
f 37//195 38//198 43//212 41//206
f 40//202 39//199 45//217 47//223
f 42//208 44//214 32//173 34//181
f 42//210 56//252 54//246 44//216
f 43//213 50//233 51//236 41//207
f 48//228 55//249 53//243 46//222
f 52//240 49//231 47//225 45//219
f 53//242 55//248 49//230 52//239
f 54//245 56//251 51//237 50//234
