# Exported from Wings 3D 1.5.4
mtllib octans_basic_high_gain_antenna_srf_1_base.mtl
o mesh
#14 vertices, 11 faces
v -3.7500000e-2 2.5000000e-2 -7.5000000e-2
v -3.7500000e-2 -2.5000000e-2 -7.5000000e-2
v -3.7500000e-2 -1.7677670e-2 -9.2677670e-2
v -3.7500000e-2 3.2326742e-17 -0.10000000
v -3.7500000e-2 1.7677670e-2 -9.2677670e-2
v 3.7500000e-2 2.5000000e-2 -7.5000000e-2
v 3.7500000e-2 -2.5000000e-2 -7.5000000e-2
v 3.7500000e-2 -1.7677670e-2 -9.2677670e-2
v 3.7500000e-2 2.9265125e-17 -0.10000000
v 3.7500000e-2 1.7677670e-2 -9.2677670e-2
v 3.7500000e-2 2.5000000e-2 2.5000000e-2
v -3.7500000e-2 2.5000000e-2 2.5000000e-2
v -3.7500000e-2 -2.5000000e-2 2.5000000e-2
v 3.7500000e-2 -2.5000000e-2 2.5000000e-2
vt 3.8250982e-2 0.28593639
vt 4.1102466e-2 0.27216821
vt 4.1102466e-2 0.29970458
vt 4.7986559e-2 0.26646524
vt 4.7986559e-2 0.30540755
vt 8.6928866e-2 0.26646524
vt 8.6928866e-2 0.30540755
vt 0.11613560 0.26646524
vt 0.11613560 0.30540755
vt 0.15507790 0.26646524
vt 0.15507790 0.30540755
vt 0.16196200 0.27216821
vt 0.16196200 0.29970458
vt 0.16481348 0.28593639
vt 0.20645979 0.25505548
vt 0.20645979 0.31346894
vt 0.20645979 0.25505548
vt 0.20645979 0.31346894
vt 0.24540209 0.25505548
vt 0.24540209 0.31346894
vt 0.24540209 0.25505548
vt 0.24540209 0.31346894
vt 0.25285338 0.25505548
vt 0.25285338 0.31346894
vt 0.25285338 0.25505548
vt 0.25285338 0.31346894
vt 0.26030467 0.25505548
vt 0.26030467 0.31346894
vt 0.26030467 0.25505548
vt 0.26030467 0.31346894
vn -1.00000000 0.0000000e+0 0.0000000e+0
vn 1.9257744e-17 0.98078528 -0.19509032
vn 1.9257744e-17 0.98078528 -0.19509032
vn -1.00000000 0.0000000e+0 0.0000000e+0
vn -1.00000000 0.0000000e+0 0.0000000e+0
vn -4.7654963e-17 -0.98078528 -0.19509032
vn -1.00000000 0.0000000e+0 0.0000000e+0
vn -4.7654963e-17 -0.98078528 -0.19509032
vn -1.00000000 0.0000000e+0 0.0000000e+0
vn -3.5776846e-17 -0.70710678 -0.70710678
vn -3.5776846e-17 -0.70710678 -0.70710678
vn -1.00000000 0.0000000e+0 0.0000000e+0
vn 5.1109781e-18 -6.0084837e-17 -1.00000000
vn 5.1109781e-18 -6.0084837e-17 -1.00000000
vn -1.00000000 0.0000000e+0 0.0000000e+0
vn 3.5776846e-17 0.70710678 -0.70710678
vn 3.5776846e-17 0.70710678 -0.70710678
vn 1.00000000 0.0000000e+0 0.0000000e+0
vn 1.9257744e-17 0.98078528 -0.19509032
vn 1.9257744e-17 0.98078528 -0.19509032
vn 1.00000000 0.0000000e+0 0.0000000e+0
vn 1.00000000 0.0000000e+0 0.0000000e+0
vn -4.7654963e-17 -0.98078528 -0.19509032
vn -4.7654963e-17 -0.98078528 -0.19509032
vn 1.00000000 0.0000000e+0 0.0000000e+0
vn 1.00000000 0.0000000e+0 0.0000000e+0
vn -3.5776846e-17 -0.70710678 -0.70710678
vn -3.5776846e-17 -0.70710678 -0.70710678
vn 1.00000000 0.0000000e+0 0.0000000e+0
vn 5.1109781e-18 -6.0084837e-17 -1.00000000
vn 5.1109781e-18 -6.0084837e-17 -1.00000000
vn 1.00000000 0.0000000e+0 0.0000000e+0
vn 3.5776846e-17 0.70710678 -0.70710678
vn 3.5776846e-17 0.70710678 -0.70710678
vn 0.0000000e+0 0.0000000e+0 1.00000000
vn 0.0000000e+0 1.00000000 0.0000000e+0
vn 1.00000000 0.0000000e+0 0.0000000e+0
vn 0.0000000e+0 0.0000000e+0 1.00000000
vn 0.0000000e+0 1.00000000 0.0000000e+0
vn -1.00000000 0.0000000e+0 0.0000000e+0
vn 0.0000000e+0 0.0000000e+0 1.00000000
vn -1.00000000 0.0000000e+0 0.0000000e+0
vn -4.6259293e-17 -1.00000000 0.0000000e+0
vn 0.0000000e+0 0.0000000e+0 1.00000000
vn -4.6259293e-17 -1.00000000 0.0000000e+0
vn 1.00000000 0.0000000e+0 0.0000000e+0
g mesh_mesh_auv
usemtl mesh_auv
s 1
f 12/9/38 13/8/41 14/6/44 11/7/35
s 2
f 1/19/2 6/20/19 10/24/33 5/23/16
f 1/19/3 12/15/39 11/16/36 6/20/20
f 3/26/11 8/25/28 7/21/23 2/22/6
f 4/30/14 9/29/31 8/25/27 3/26/10
f 5/23/17 10/24/34 9/28/30 4/27/13
f 7/21/24 14/17/45 13/18/43 2/22/8
s 3
f 2/10/7 13/8/42 12/9/40 1/11/4
f 5/13/15 4/14/12 3/12/9 2/10/5 1/11/1
f 6/5/18 7/4/22 8/2/26 9/1/29 10/3/32
f 6/5/21 11/7/37 14/6/46 7/4/25
