# Exported from Wings 3D 1.5.4
mtllib virgo_radiator_fuel_tank_s1_1.mtl
o mesh
#96 vertices, 72 faces
v 0.62500000 0.25000000 -1.2576745e-17
v 0.60370364 0.25000000 0.16176190
v 0.54126588 0.25000000 0.31250000
v 0.44194174 0.25000000 0.44194174
v 0.31250000 0.25000000 0.54126588
v 0.16176190 0.25000000 0.60370364
v -1.3771492e-17 0.25000000 0.62500000
v -0.16176190 0.25000000 0.60370364
v -0.31250000 0.25000000 0.54126588
v -0.44194174 0.25000000 0.44194174
v -0.54126588 0.25000000 0.31250000
v -0.60370364 0.25000000 0.16176190
v -0.62500000 0.25000000 6.3963680e-17
v -0.60370364 0.25000000 -0.16176190
v -0.54126588 0.25000000 -0.31250000
v -0.44194174 0.25000000 -0.44194174
v -0.31250000 0.25000000 -0.54126588
v -0.16176190 0.25000000 -0.60370364
v -1.6685234e-16 0.25000000 -0.62500000
v 0.16176190 0.25000000 -0.60370364
v 0.31250000 0.25000000 -0.54126588
v 0.44194174 0.25000000 -0.44194174
v 0.54126588 0.25000000 -0.31250000
v 0.60370364 0.25000000 -0.16176190
v 0.62500000 -0.25000000 -1.2576745e-17
v 0.60370364 -0.25000000 0.16176190
v 0.54126588 -0.25000000 0.31250000
v 0.44194174 -0.25000000 0.44194174
v 0.31250000 -0.25000000 0.54126588
v 0.16176190 -0.25000000 0.60370364
v -1.3771492e-17 -0.25000000 0.62500000
v -0.16176190 -0.25000000 0.60370364
v -0.31250000 -0.25000000 0.54126588
v -0.44194174 -0.25000000 0.44194174
v -0.54126588 -0.25000000 0.31250000
v -0.60370364 -0.25000000 0.16176190
v -0.62500000 -0.25000000 6.3963680e-17
v -0.60370364 -0.25000000 -0.16176190
v -0.54126588 -0.25000000 -0.31250000
v -0.44194174 -0.25000000 -0.44194174
v -0.31250000 -0.25000000 -0.54126588
v -0.16176190 -0.25000000 -0.60370364
v -1.6685234e-16 -0.25000000 -0.62500000
v 0.16176190 -0.25000000 -0.60370364
v 0.31250000 -0.25000000 -0.54126588
v 0.44194174 -0.25000000 -0.44194174
v 0.54126588 -0.25000000 -0.31250000
v 0.60370364 -0.25000000 -0.16176190
v 0.63992586 0.21250000 -0.17146762
v 0.63992586 -0.21250000 -0.17146762
v 0.57374183 0.21250000 -0.33125000
v 0.57374183 -0.21250000 -0.33125000
v 0.46845824 0.21250000 -0.46845824
v 0.46845824 -0.21250000 -0.46845824
v 0.33125000 0.21250000 -0.57374183
v 0.33125000 -0.21250000 -0.57374183
v 0.17146762 0.21250000 -0.63992586
v 0.17146762 -0.21250000 -0.63992586
v -1.7020214e-16 0.21250000 -0.66250000
v -1.7020214e-16 -0.21250000 -0.66250000
v -0.17146762 0.21250000 -0.63992586
v -0.17146762 -0.21250000 -0.63992586
v -0.33125000 0.21250000 -0.57374183
v -0.33125000 -0.21250000 -0.57374183
v -0.46845824 0.21250000 -0.46845824
v -0.46845824 -0.21250000 -0.46845824
v -0.57374183 0.21250000 -0.33125000
v -0.57374183 -0.21250000 -0.33125000
v -0.63992586 0.21250000 -0.17146762
v -0.63992586 -0.21250000 -0.17146762
v -0.66250000 0.21250000 7.0299502e-17
v -0.66250000 -0.21250000 7.0299502e-17
v -0.63992586 0.21250000 0.17146762
v -0.63992586 -0.21250000 0.17146762
v -0.57374183 0.21250000 0.33125000
v -0.57374183 -0.21250000 0.33125000
v -0.46845824 0.21250000 0.46845824
v -0.46845824 -0.21250000 0.46845824
v -0.33125000 0.21250000 0.57374183
v -0.33125000 -0.21250000 0.57374183
v -0.17146762 0.21250000 0.63992586
v -0.17146762 -0.21250000 0.63992586
v -7.9364432e-18 0.21250000 0.66250000
v -7.9364432e-18 -0.21250000 0.66250000
v 0.17146762 0.21250000 0.63992586
v 0.17146762 -0.21250000 0.63992586
v 0.33125000 0.21250000 0.57374183
v 0.33125000 -0.21250000 0.57374183
v 0.46845824 0.21250000 0.46845824
v 0.46845824 -0.21250000 0.46845824
v 0.57374183 0.21250000 0.33125000
v 0.57374183 -0.21250000 0.33125000
v 0.63992586 0.21250000 0.17146762
v 0.63992586 -0.21250000 0.17146762
v 0.66250000 0.21250000 -1.0833348e-17
v 0.66250000 -0.21250000 -1.0833348e-17
vt 1.9006375e-2 0.12155014
vt 1.9006375e-2 0.12155014
vt 1.9006375e-2 0.12155099
vt 1.9006375e-2 0.13174631
vt 1.9006375e-2 0.13174898
vt 1.9006375e-2 0.21010030
vt 1.9006375e-2 0.21010298
vt 1.9006375e-2 0.22116901
vt 1.9006375e-2 0.22116986
vt 1.9006375e-2 0.22116986
vt 5.2013773e-2 0.22116901
vt 5.2015272e-2 0.13174631
vt 5.2015272e-2 0.21010298
vt 5.2016064e-2 0.12155014
vt 5.2016064e-2 0.13174898
vt 5.2016064e-2 0.21010030
vt 5.2016064e-2 0.22116986
vt 5.2016064e-2 0.22116986
vt 5.2016064e-2 0.12155014
vt 5.2016064e-2 0.13174898
vt 5.2016770e-2 0.12155099
vt 8.5421727e-2 0.12154958
vt 8.5421727e-2 0.12154958
vt 8.5421727e-2 0.13175023
vt 8.5421727e-2 0.13175023
vt 8.5421727e-2 0.13175023
vt 8.5421727e-2 0.21009906
vt 8.5421727e-2 0.21009906
vt 8.5421727e-2 0.22117042
vt 8.5421727e-2 0.22117042
vt 8.5421727e-2 0.22117042
vt 8.5430111e-2 0.12155099
vt 8.5430111e-2 0.13174631
vt 8.5430111e-2 0.21010298
vt 8.5430111e-2 0.22116901
vt 8.5431696e-2 0.12155014
vt 8.5431696e-2 0.13174898
vt 8.5431696e-2 0.21010030
vt 8.5431696e-2 0.22116986
vt 8.5431696e-2 0.12155014
vt 8.5431696e-2 0.13174898
vt 8.5431696e-2 0.21010030
vt 8.5431696e-2 0.22116986
vt 0.11853562 0.12154958
vt 0.11853562 0.12154958
vt 0.11853562 0.22117042
vt 0.11853562 0.22117042
vt 0.11853860 0.21009906
vt 0.11853860 0.13175023
vt 0.11853860 0.21009906
vt 0.11853860 0.13175023
vt 0.11853860 0.13175023
vt 0.11853860 0.21009906
vt 0.11854157 0.22117042
vt 0.11854157 0.12154958
vt 0.11854157 0.12154958
vt 0.11854157 0.22117042
vt 0.15180503 0.12154958
vt 0.15180503 0.13175023
vt 0.15180503 0.21009906
vt 0.15180503 0.22117042
vt 0.15180503 0.12154958
vt 0.15180503 0.12154958
vt 0.15180503 0.13175023
vt 0.15180503 0.13175023
vt 0.15180503 0.13175023
vt 0.15180503 0.21009906
vt 0.15180503 0.21009906
vt 0.15180503 0.22117042
vt 0.15180503 0.22117042
vt 0.15180503 0.22117042
vt 0.15182679 0.12154958
vt 0.15182679 0.12154958
vt 0.15182679 0.12154958
vt 0.15182679 0.13175023
vt 0.15182679 0.13175023
vt 0.15182679 0.13175023
vt 0.15182679 0.21009906
vt 0.15182679 0.21009906
vt 0.15182679 0.22117042
vt 0.15182679 0.22117042
vt 0.15182679 0.22117042
vt 0.18509025 0.22117042
vt 0.18509025 0.12154958
vt 0.18509025 0.22117042
vt 0.18509025 0.12154958
vt 0.18509323 0.21009906
vt 0.18509323 0.21009906
vt 0.18509323 0.13175023
vt 0.18509323 0.13175023
vt 0.18509323 0.21009906
vt 0.18509323 0.13175023
vt 0.18509323 0.21009906
vt 0.18509323 0.13175023
vt 0.18509621 0.12154958
vt 0.18509621 0.22117042
vt 0.18509621 0.22117042
vt 0.18509621 0.12154958
vt 0.21818538 0.12154958
vt 0.21818538 0.12154958
vt 0.21818538 0.13175023
vt 0.21818538 0.13175023
vt 0.21818538 0.21009906
vt 0.21818538 0.22117042
vt 0.21818538 0.22117042
vt 0.21818538 0.12154958
vt 0.21818538 0.13175023
vt 0.21818538 0.21009906
vt 0.21818538 0.22117042
vt 0.21818538 0.12154958
vt 0.21818538 0.13175023
vt 0.21818538 0.21009906
vt 0.21818538 0.22117042
vt 0.23682238 0.12154958
vt 0.23682238 0.13175023
vt 0.23682238 0.21009906
vt 0.23682238 0.22117042
vt 0.27031817 0.22117042
vt 0.27032115 0.13175023
vt 0.27032115 0.21009906
vt 0.27032412 0.12154958
vt 0.30316762 0.12154958
vt 0.30316762 0.13175023
vt 0.30316762 0.21009906
vt 0.30316762 0.22117042
vn 0.70710678 0.70710678 -9.0595647e-17
vn 0.70710678 0.70710678 -9.0595647e-17
vn 0.68301270 0.70710678 0.18301270
vn 0.68301270 0.70710678 0.18301270
vn 0.61237244 0.70710678 0.35355339
vn 0.61237244 0.70710678 0.35355339
vn 0.50000000 0.70710678 0.50000000
vn 0.50000000 0.70710678 0.50000000
vn 0.35355339 0.70710678 0.61237244
vn 0.35355339 0.70710678 0.61237244
vn 0.18301270 0.70710678 0.68301270
vn 0.18301270 0.70710678 0.68301270
vn 2.1603577e-16 0.70710678 0.70710678
vn 2.1603577e-16 0.70710678 0.70710678
vn -0.18301270 0.70710678 0.68301270
vn -0.18301270 0.70710678 0.68301270
vn -0.35355339 0.70710678 0.61237244
vn -0.35355339 0.70710678 0.61237244
vn -0.50000000 0.70710678 0.50000000
vn -0.50000000 0.70710678 0.50000000
vn -0.61237244 0.70710678 0.35355339
vn -0.61237244 0.70710678 0.35355339
vn -0.68301270 0.70710678 0.18301270
vn -0.68301270 0.70710678 0.18301270
vn -0.70710678 0.70710678 3.9025817e-16
vn -0.70710678 0.70710678 3.9025817e-16
vn -0.68301270 0.70710678 -0.18301270
vn -0.68301270 0.70710678 -0.18301270
vn -0.61237244 0.70710678 -0.35355339
vn -0.61237244 0.70710678 -0.35355339
vn -0.50000000 0.70710678 -0.50000000
vn -0.50000000 0.70710678 -0.50000000
vn -0.35355339 0.70710678 -0.61237244
vn -0.35355339 0.70710678 -0.61237244
vn -0.18301270 0.70710678 -0.68301270
vn -0.18301270 0.70710678 -0.68301270
vn -3.0663142e-16 0.70710678 -0.70710678
vn -3.0663142e-16 0.70710678 -0.70710678
vn 0.18301270 0.70710678 -0.68301270
vn 0.18301270 0.70710678 -0.68301270
vn 0.35355339 0.70710678 -0.61237244
vn 0.35355339 0.70710678 -0.61237244
vn 0.50000000 0.70710678 -0.50000000
vn 0.50000000 0.70710678 -0.50000000
vn 0.61237244 0.70710678 -0.35355339
vn 0.61237244 0.70710678 -0.35355339
vn 0.68301270 0.70710678 -0.18301270
vn 0.68301270 0.70710678 -0.18301270
vn 0.70710678 -0.70710678 -9.0595647e-17
vn 0.70710678 -0.70710678 -9.0595647e-17
vn 0.68301270 -0.70710678 0.18301270
vn 0.68301270 -0.70710678 0.18301270
vn 0.61237244 -0.70710678 0.35355339
vn 0.61237244 -0.70710678 0.35355339
vn 0.50000000 -0.70710678 0.50000000
vn 0.50000000 -0.70710678 0.50000000
vn 0.35355339 -0.70710678 0.61237244
vn 0.35355339 -0.70710678 0.61237244
vn 0.18301270 -0.70710678 0.68301270
vn 0.18301270 -0.70710678 0.68301270
vn 2.1603577e-16 -0.70710678 0.70710678
vn 2.1603577e-16 -0.70710678 0.70710678
vn -0.18301270 -0.70710678 0.68301270
vn -0.18301270 -0.70710678 0.68301270
vn -0.35355339 -0.70710678 0.61237244
vn -0.35355339 -0.70710678 0.61237244
vn -0.50000000 -0.70710678 0.50000000
vn -0.50000000 -0.70710678 0.50000000
vn -0.61237244 -0.70710678 0.35355339
vn -0.61237244 -0.70710678 0.35355339
vn -0.68301270 -0.70710678 0.18301270
vn -0.68301270 -0.70710678 0.18301270
vn -0.70710678 -0.70710678 3.9025817e-16
vn -0.70710678 -0.70710678 3.9025817e-16
vn -0.68301270 -0.70710678 -0.18301270
vn -0.68301270 -0.70710678 -0.18301270
vn -0.61237244 -0.70710678 -0.35355339
vn -0.61237244 -0.70710678 -0.35355339
vn -0.50000000 -0.70710678 -0.50000000
vn -0.50000000 -0.70710678 -0.50000000
vn -0.35355339 -0.70710678 -0.61237244
vn -0.35355339 -0.70710678 -0.61237244
vn -0.18301270 -0.70710678 -0.68301270
vn -0.18301270 -0.70710678 -0.68301270
vn -3.0663142e-16 -0.70710678 -0.70710678
vn -3.0663142e-16 -0.70710678 -0.70710678
vn 0.18301270 -0.70710678 -0.68301270
vn 0.18301270 -0.70710678 -0.68301270
vn 0.35355339 -0.70710678 -0.61237244
vn 0.35355339 -0.70710678 -0.61237244
vn 0.50000000 -0.70710678 -0.50000000
vn 0.50000000 -0.70710678 -0.50000000
vn 0.61237244 -0.70710678 -0.35355339
vn 0.61237244 -0.70710678 -0.35355339
vn 0.68301270 -0.70710678 -0.18301270
vn 0.68301270 -0.70710678 -0.18301270
vn 0.68301270 0.70710678 -0.18301270
vn 0.68301270 0.70710678 -0.18301270
vn 0.96592583 0.0000000e+0 -0.25881905
vn 0.96592583 0.0000000e+0 -0.25881905
vn 0.68301270 -0.70710678 -0.18301270
vn 0.68301270 -0.70710678 -0.18301270
vn 0.96592583 0.0000000e+0 -0.25881905
vn 0.96592583 0.0000000e+0 -0.25881905
vn 0.61237244 0.70710678 -0.35355339
vn 0.61237244 0.70710678 -0.35355339
vn 0.86602540 0.0000000e+0 -0.50000000
vn 0.86602540 0.0000000e+0 -0.50000000
vn 0.61237244 -0.70710678 -0.35355339
vn 0.61237244 -0.70710678 -0.35355339
vn 0.86602540 0.0000000e+0 -0.50000000
vn 0.86602540 0.0000000e+0 -0.50000000
vn 0.50000000 0.70710678 -0.50000000
vn 0.50000000 0.70710678 -0.50000000
vn 0.70710678 0.0000000e+0 -0.70710678
vn 0.70710678 0.0000000e+0 -0.70710678
vn 0.50000000 -0.70710678 -0.50000000
vn 0.50000000 -0.70710678 -0.50000000
vn 0.70710678 0.0000000e+0 -0.70710678
vn 0.70710678 0.0000000e+0 -0.70710678
vn 0.35355339 0.70710678 -0.61237244
vn 0.35355339 0.70710678 -0.61237244
vn 0.50000000 0.0000000e+0 -0.86602540
vn 0.50000000 0.0000000e+0 -0.86602540
vn 0.35355339 -0.70710678 -0.61237244
vn 0.35355339 -0.70710678 -0.61237244
vn 0.50000000 0.0000000e+0 -0.86602540
vn 0.50000000 0.0000000e+0 -0.86602540
vn 0.18301270 0.70710678 -0.68301270
vn 0.18301270 0.70710678 -0.68301270
vn 0.25881905 0.0000000e+0 -0.96592583
vn 0.25881905 0.0000000e+0 -0.96592583
vn 0.18301270 -0.70710678 -0.68301270
vn 0.18301270 -0.70710678 -0.68301270
vn 0.25881905 0.0000000e+0 -0.96592583
vn 0.25881905 0.0000000e+0 -0.96592583
vn -3.0663142e-16 0.70710678 -0.70710678
vn -3.0663142e-16 0.70710678 -0.70710678
vn -4.0592862e-16 0.0000000e+0 -1.00000000
vn -4.0592862e-16 0.0000000e+0 -1.00000000
vn -3.0663142e-16 -0.70710678 -0.70710678
vn -3.0663142e-16 -0.70710678 -0.70710678
vn -4.0592862e-16 0.0000000e+0 -1.00000000
vn -4.0592862e-16 0.0000000e+0 -1.00000000
vn -0.18301270 0.70710678 -0.68301270
vn -0.18301270 0.70710678 -0.68301270
vn -0.25881905 0.0000000e+0 -0.96592583
vn -0.25881905 0.0000000e+0 -0.96592583
vn -0.18301270 -0.70710678 -0.68301270
vn -0.18301270 -0.70710678 -0.68301270
vn -0.25881905 0.0000000e+0 -0.96592583
vn -0.25881905 0.0000000e+0 -0.96592583
vn -0.35355339 0.70710678 -0.61237244
vn -0.35355339 0.70710678 -0.61237244
vn -0.50000000 0.0000000e+0 -0.86602540
vn -0.50000000 0.0000000e+0 -0.86602540
vn -0.35355339 -0.70710678 -0.61237244
vn -0.35355339 -0.70710678 -0.61237244
vn -0.50000000 0.0000000e+0 -0.86602540
vn -0.50000000 0.0000000e+0 -0.86602540
vn -0.50000000 0.70710678 -0.50000000
vn -0.50000000 0.70710678 -0.50000000
vn -0.70710678 0.0000000e+0 -0.70710678
vn -0.70710678 0.0000000e+0 -0.70710678
vn -0.50000000 -0.70710678 -0.50000000
vn -0.50000000 -0.70710678 -0.50000000
vn -0.70710678 0.0000000e+0 -0.70710678
vn -0.70710678 0.0000000e+0 -0.70710678
vn -0.61237244 0.70710678 -0.35355339
vn -0.61237244 0.70710678 -0.35355339
vn -0.86602540 0.0000000e+0 -0.50000000
vn -0.86602540 0.0000000e+0 -0.50000000
vn -0.61237244 -0.70710678 -0.35355339
vn -0.61237244 -0.70710678 -0.35355339
vn -0.86602540 0.0000000e+0 -0.50000000
vn -0.86602540 0.0000000e+0 -0.50000000
vn -0.68301270 0.70710678 -0.18301270
vn -0.68301270 0.70710678 -0.18301270
vn -0.96592583 0.0000000e+0 -0.25881905
vn -0.96592583 0.0000000e+0 -0.25881905
vn -0.68301270 -0.70710678 -0.18301270
vn -0.68301270 -0.70710678 -0.18301270
vn -0.96592583 0.0000000e+0 -0.25881905
vn -0.96592583 0.0000000e+0 -0.25881905
vn -0.70710678 0.70710678 3.9025817e-16
vn -0.70710678 0.70710678 3.9025817e-16
vn -1.00000000 0.0000000e+0 5.4590401e-16
vn -1.00000000 0.0000000e+0 5.4590401e-16
vn -0.70710678 -0.70710678 3.9025817e-16
vn -0.70710678 -0.70710678 3.9025817e-16
vn -1.00000000 0.0000000e+0 5.4590401e-16
vn -1.00000000 0.0000000e+0 5.4590401e-16
vn -0.68301270 0.70710678 0.18301270
vn -0.68301270 0.70710678 0.18301270
vn -0.96592583 0.0000000e+0 0.25881905
vn -0.96592583 0.0000000e+0 0.25881905
vn -0.68301270 -0.70710678 0.18301270
vn -0.68301270 -0.70710678 0.18301270
vn -0.96592583 0.0000000e+0 0.25881905
vn -0.96592583 0.0000000e+0 0.25881905
vn -0.61237244 0.70710678 0.35355339
vn -0.61237244 0.70710678 0.35355339
vn -0.86602540 0.0000000e+0 0.50000000
vn -0.86602540 0.0000000e+0 0.50000000
vn -0.61237244 -0.70710678 0.35355339
vn -0.61237244 -0.70710678 0.35355339
vn -0.86602540 0.0000000e+0 0.50000000
vn -0.86602540 0.0000000e+0 0.50000000
vn -0.50000000 0.70710678 0.50000000
vn -0.50000000 0.70710678 0.50000000
vn -0.70710678 0.0000000e+0 0.70710678
vn -0.70710678 0.0000000e+0 0.70710678
vn -0.50000000 -0.70710678 0.50000000
vn -0.50000000 -0.70710678 0.50000000
vn -0.70710678 0.0000000e+0 0.70710678
vn -0.70710678 0.0000000e+0 0.70710678
vn -0.35355339 0.70710678 0.61237244
vn -0.35355339 0.70710678 0.61237244
vn -0.50000000 0.0000000e+0 0.86602540
vn -0.50000000 0.0000000e+0 0.86602540
vn -0.35355339 -0.70710678 0.61237244
vn -0.35355339 -0.70710678 0.61237244
vn -0.50000000 0.0000000e+0 0.86602540
vn -0.50000000 0.0000000e+0 0.86602540
vn -0.18301270 0.70710678 0.68301270
vn -0.18301270 0.70710678 0.68301270
vn -0.25881905 0.0000000e+0 0.96592583
vn -0.25881905 0.0000000e+0 0.96592583
vn -0.18301270 -0.70710678 0.68301270
vn -0.18301270 -0.70710678 0.68301270
vn -0.25881905 0.0000000e+0 0.96592583
vn -0.25881905 0.0000000e+0 0.96592583
vn 2.1603577e-16 0.70710678 0.70710678
vn 2.1603577e-16 0.70710678 0.70710678
vn 2.7995077e-16 0.0000000e+0 1.00000000
vn 2.7995077e-16 0.0000000e+0 1.00000000
vn 2.1603577e-16 -0.70710678 0.70710678
vn 2.1603577e-16 -0.70710678 0.70710678
vn 2.7995077e-16 0.0000000e+0 1.00000000
vn 2.7995077e-16 0.0000000e+0 1.00000000
vn 0.18301270 0.70710678 0.68301270
vn 0.18301270 0.70710678 0.68301270
vn 0.25881905 0.0000000e+0 0.96592583
vn 0.25881905 0.0000000e+0 0.96592583
vn 0.18301270 -0.70710678 0.68301270
vn 0.18301270 -0.70710678 0.68301270
vn 0.25881905 0.0000000e+0 0.96592583
vn 0.25881905 0.0000000e+0 0.96592583
vn 0.35355339 0.70710678 0.61237244
vn 0.35355339 0.70710678 0.61237244
vn 0.50000000 0.0000000e+0 0.86602540
vn 0.50000000 0.0000000e+0 0.86602540
vn 0.35355339 -0.70710678 0.61237244
vn 0.35355339 -0.70710678 0.61237244
vn 0.50000000 0.0000000e+0 0.86602540
vn 0.50000000 0.0000000e+0 0.86602540
vn 0.50000000 0.70710678 0.50000000
vn 0.50000000 0.70710678 0.50000000
vn 0.70710678 0.0000000e+0 0.70710678
vn 0.70710678 0.0000000e+0 0.70710678
vn 0.50000000 -0.70710678 0.50000000
vn 0.50000000 -0.70710678 0.50000000
vn 0.70710678 0.0000000e+0 0.70710678
vn 0.70710678 0.0000000e+0 0.70710678
vn 0.61237244 0.70710678 0.35355339
vn 0.61237244 0.70710678 0.35355339
vn 0.86602540 0.0000000e+0 0.50000000
vn 0.86602540 0.0000000e+0 0.50000000
vn 0.61237244 -0.70710678 0.35355339
vn 0.61237244 -0.70710678 0.35355339
vn 0.86602540 0.0000000e+0 0.50000000
vn 0.86602540 0.0000000e+0 0.50000000
vn 0.68301270 0.70710678 0.18301270
vn 0.68301270 0.70710678 0.18301270
vn 0.96592583 0.0000000e+0 0.25881905
vn 0.96592583 0.0000000e+0 0.25881905
vn 0.68301270 -0.70710678 0.18301270
vn 0.68301270 -0.70710678 0.18301270
vn 0.96592583 0.0000000e+0 0.25881905
vn 0.96592583 0.0000000e+0 0.25881905
vn 0.70710678 0.70710678 -9.0595647e-17
vn 0.70710678 0.70710678 -9.0595647e-17
vn 1.00000000 0.0000000e+0 -1.1198031e-16
vn 1.00000000 0.0000000e+0 -1.1198031e-16
vn 0.70710678 -0.70710678 -9.0595647e-17
vn 0.70710678 -0.70710678 -9.0595647e-17
vn 1.00000000 0.0000000e+0 -1.1198031e-16
vn 1.00000000 0.0000000e+0 -1.1198031e-16
g mesh_mesh_auv
usemtl mesh_auv
s 1
f 49/67/100 95/53/284 96/51/288 50/64/104
f 50/76/103 52/90/112 51/93/108 49/78/99
f 52/90/111 54/107/120 53/108/116 51/93/107
f 54/115/119 56/119/127 55/120/123 53/116/115
f 56/119/128 58/123/136 57/124/132 55/120/124
f 58/26/135 60/49/143 59/50/139 57/28/131
f 60/49/144 62/66/151 61/68/147 59/50/140
f 62/75/152 64/89/160 63/87/156 61/78/148
f 64/89/159 66/101/167 65/103/163 63/87/155
f 66/4/168 68/12/176 67/13/172 65/7/164
f 68/12/175 70/33/184 69/34/180 67/13/171
f 70/26/183 72/49/192 71/50/188 69/28/179
f 72/49/191 74/59/199 73/60/195 71/50/187
f 74/76/200 76/94/208 75/91/204 73/78/196
f 76/94/207 78/102/215 77/103/211 75/91/203
f 78/5/216 80/20/224 79/16/220 77/6/212
f 80/20/223 82/41/232 81/42/228 79/16/219
f 82/25/231 84/52/239 83/48/235 81/28/227
f 84/52/240 86/65/248 85/68/244 83/48/236
f 86/77/247 88/92/255 87/88/251 85/79/243
f 88/92/256 90/111/263 89/112/259 87/88/252
f 90/5/264 92/15/272 91/16/268 89/6/260
f 92/15/271 94/37/279 93/38/275 91/16/267
f 94/24/280 96/51/287 95/53/283 93/27/276
s 2
f 1/57/1 95/53/281 49/67/97 24/69/47
f 2/29/4 93/27/274 95/53/282 1/57/2
f 3/17/6 91/16/266 93/38/273 2/39/3
f 4/9/8 89/6/258 91/16/265 3/17/5
f 5/97/10 87/88/250 89/112/257 4/113/7
f 6/82/12 85/79/242 87/88/249 5/97/9
f 7/46/14 83/48/234 85/68/241 6/70/11
f 8/30/16 81/28/226 83/48/233 7/46/13
f 9/18/18 79/16/218 81/42/225 8/43/15
f 10/10/20 77/6/210 79/16/217 9/18/17
f 11/96/22 75/91/202 77/103/209 10/105/19
f 12/81/24 73/78/194 75/91/201 11/96/21
f 13/54/26 71/50/186 73/60/193 12/61/23
f 14/31/28 69/28/178 71/50/185 13/54/25
f 15/11/30 67/13/170 69/34/177 14/35/27
f 16/8/32 65/7/162 67/13/169 15/11/29
f 17/83/34 63/87/154 65/103/161 16/104/31
f 18/80/36 61/78/146 63/87/153 17/83/33
f 19/47/38 59/50/138 61/68/145 18/71/35
f 20/31/40 57/28/130 59/50/137 19/47/37
f 21/118/42 55/120/122 57/124/129 20/125/39
f 22/117/44 53/116/114 55/120/121 21/118/41
f 23/85/46 51/93/106 53/108/113 22/109/43
f 24/81/48 49/78/98 51/93/105 23/85/45
f 25/45/50 96/51/286 94/24/278 26/22/52
f 26/36/51 94/37/277 92/15/270 27/14/54
f 27/14/53 92/15/269 90/5/262 28/2/56
f 28/110/55 90/111/261 88/92/254 29/84/58
f 29/84/57 88/92/253 86/77/246 30/74/60
f 30/62/59 86/65/245 84/52/238 31/56/62
f 31/56/61 84/52/237 82/25/230 32/22/64
f 32/40/63 82/41/229 80/20/222 33/19/66
f 33/19/65 80/20/221 78/5/214 34/1/68
f 34/100/67 78/102/213 76/94/206 35/86/70
f 35/86/69 76/94/205 74/76/198 36/73/72
f 36/58/71 74/59/197 72/49/190 37/44/74
f 37/44/73 72/49/189 70/26/182 38/23/76
f 38/32/75 70/33/181 68/12/174 39/21/78
f 39/21/77 68/12/173 66/4/166 40/3/80
f 40/99/79 66/101/165 64/89/158 41/95/82
f 41/95/81 64/89/157 62/75/150 42/72/84
f 42/63/83 62/66/149 60/49/142 43/55/86
f 43/55/85 60/49/141 58/26/134 44/23/88
f 44/122/87 58/123/133 56/119/126 45/121/90
f 45/121/89 56/119/125 54/115/118 46/114/92
f 46/106/91 54/107/117 52/90/110 47/98/94
f 47/98/93 52/90/109 50/76/102 48/73/96
f 48/62/95 50/64/101 96/51/285 25/45/49
