# Exported from Wings 3D 1.5.4
mtllib aquila_active_radiator_srf_2.mtl
o aquila_active_radiator_srf_2
#68 vertices, 45 faces
v -0.59375000 0.50000000 -9.0905167e-2
v -0.30734762 0.50000000 -0.20953692
v 1.4791142e-31 0.50000000 -0.25000000
v 0.30734762 0.50000000 -0.20953692
v 0.59375000 0.50000000 -9.0905167e-2
v -0.59375000 -0.50000000 -9.0905167e-2
v -0.30734762 -0.50000000 -0.20953692
v 1.4791142e-31 -0.50000000 -0.25000000
v 0.30734762 -0.50000000 -0.20953692
v 0.59375000 -0.50000000 -9.0905167e-2
v -0.54375000 -0.50000000 -4.3026266e-3
v -0.28146571 -0.50000000 -0.11294434
v 3.7128103e-18 -0.50000000 -0.15000000
v 0.28146571 -0.50000000 -0.11294434
v 0.54375000 -0.50000000 -4.3026266e-3
v 0.54375000 0.50000000 -4.3026266e-3
v 0.28146571 0.50000000 -0.11294434
v 3.7128103e-18 0.50000000 -0.15000000
v -0.28146571 0.50000000 -0.11294434
v -0.54375000 0.50000000 -4.3026266e-3
v 2.5000000e-2 2.2902195e-17 -1.0000000e-1
v 1.7677670e-2 -1.7677670e-2 -1.0000000e-1
v 6.7639669e-17 -2.5000000e-2 -1.0000000e-1
v -1.7677670e-2 -1.7677670e-2 -1.0000000e-1
v -2.5000000e-2 -2.1120723e-17 -1.0000000e-1
v -1.7677670e-2 1.7677670e-2 -1.0000000e-1
v 2.0555134e-17 2.5000000e-2 -1.0000000e-1
v 1.7677670e-2 1.7677670e-2 -1.0000000e-1
v -3.6702516e-17 2.5000000e-2 -0.15000000
v -1.7677670e-2 1.7677670e-2 -0.14767269
v -2.5000000e-2 -2.1692740e-17 -0.14670869
v -1.7677670e-2 -1.7677670e-2 -0.14767269
v 1.0382020e-17 -2.5000000e-2 -0.15000000
v 1.7677670e-2 1.7677670e-2 -0.14767269
v 1.7677670e-2 -1.7677670e-2 -0.14767269
v 2.5000000e-2 2.2330179e-17 -0.14670869
v 1.2500000e-2 1.7590136e-17 -2.5000000e-2
v 8.8388348e-3 -8.8388348e-3 -2.5000000e-2
v -5.4593959e-17 -1.2500000e-2 -2.5000000e-2
v -8.8388348e-3 -8.8388348e-3 -2.5000000e-2
v -1.2500000e-2 1.6059327e-17 -2.5000000e-2
v -8.8388348e-3 8.8388348e-3 -2.5000000e-2
v -5.7655576e-17 1.2500000e-2 -2.5000000e-2
v 8.8388348e-3 8.8388348e-3 -2.5000000e-2
v 1.2500000e-2 9.1204333e-18 -0.10000000
v 8.8388348e-3 -8.8388348e-3 -0.10000000
v -6.6860306e-17 -1.2500000e-2 -0.10000000
v -8.8388348e-3 -8.8388348e-3 -0.10000000
v -1.2500000e-2 7.5896248e-18 -0.10000000
v -8.8388348e-3 8.8388348e-3 -0.10000000
v -6.9921923e-17 1.2500000e-2 -0.10000000
v 8.8388348e-3 8.8388348e-3 -0.10000000
v 2.5000000e-2 1.7600375e-17 2.5000000e-2
v 1.7677670e-2 -1.7677670e-2 2.5000000e-2
v -5.2592564e-17 -2.5000000e-2 2.5000000e-2
v -1.7677670e-2 -1.7677670e-2 2.5000000e-2
v -2.5000000e-2 1.4538758e-17 2.5000000e-2
v -1.7677670e-2 1.7677670e-2 2.5000000e-2
v -5.8715798e-17 2.5000000e-2 2.5000000e-2
v 1.7677670e-2 1.7677670e-2 2.5000000e-2
v 2.5000000e-2 1.4538758e-17 -2.5000000e-2
v 1.7677670e-2 -1.7677670e-2 -2.5000000e-2
v -5.2592564e-17 -2.5000000e-2 -2.5000000e-2
v -1.7677670e-2 -1.7677670e-2 -2.5000000e-2
v -2.5000000e-2 1.1477141e-17 -2.5000000e-2
v -1.7677670e-2 1.7677670e-2 -2.5000000e-2
v -5.8715798e-17 2.5000000e-2 -2.5000000e-2
v 1.7677670e-2 1.7677670e-2 -2.5000000e-2
vt 1.8750000e-2 0.47568092
vt 1.8750000e-2 0.67028092
vt 7.9075943e-2 0.47568092
vt 7.9075943e-2 0.67028092
vt 0.13940189 0.47568092
vt 0.13940189 0.67028092
vt 0.19972783 0.47568092
vt 0.19972783 0.67028092
vt 0.26005377 0.47568092
vt 0.26005377 0.67028092
vt 0.27886782 0.67028092
vt 0.27886782 0.47568092
vt 0.27886782 0.67028092
vt 0.27886782 0.47568092
vt 0.29832782 0.67028092
vt 0.29832782 0.47568092
vt 0.29832782 0.67028092
vt 0.29832782 0.47568092
vt 0.31700364 0.48054592
vt 0.31700364 0.48054592
vt 0.31700364 0.52513305
vt 0.31700364 0.52513305
vt 0.31700364 0.57298092
vt 0.31700364 0.57298092
vt 0.31700364 0.62082880
vt 0.31700364 0.62082880
vt 0.31700364 0.66541592
vt 0.31700364 0.66541592
vt 0.33640269 0.48832992
vt 0.33640269 0.52916234
vt 0.33640269 0.57298092
vt 0.33640269 0.61679951
vt 0.33640269 0.65763192
vt 0.33640269 0.48832992
vt 0.33640269 0.52916234
vt 0.33640269 0.57298092
vt 0.33640269 0.61679951
vt 0.33640269 0.65763192
vt 0.35492053 0.47568092
vt 0.35492053 0.67028092
vt 0.35492053 0.67028092
vt 0.35492053 0.47568092
vt 0.41016640 0.67028092
vt 0.41016640 0.47568092
vt 0.41016640 0.47568092
vt 0.41016640 0.67028092
vt 0.46541226 0.47568092
vt 0.46541226 0.67028092
vt 0.46541226 0.67028092
vt 0.46541226 0.47568092
vt 0.96468832 0.79408174
vt 0.96468832 0.79408174
vt 0.96468832 0.80352917
vt 0.96468832 0.80352917
vt 0.96468832 0.87593930
vt 0.96468832 0.87593930
vt 0.96468832 0.88569686
vt 0.96468832 0.88569686
vt 0.96727766 0.81807539
vt 0.96727766 0.86192063
vt 0.96727766 0.90010977
vt 0.96842238 0.79408174
vt 0.96842238 0.79408174
vt 0.96842238 0.80352917
vt 0.96842238 0.80352917
vt 0.96842238 0.83262280
vt 0.96842238 0.83262280
vt 0.96842238 0.84725914
vt 0.96842238 0.84725914
vt 0.96842238 0.87593930
vt 0.96842238 0.87593930
vt 0.96842238 0.88569686
vt 0.96842238 0.88569686
vt 0.96870662 0.81462558
vt 0.96870662 0.82152521
vt 0.96870662 0.85847081
vt 0.96870662 0.86537044
vt 0.96870662 0.89665995
vt 0.96870662 0.90355959
vt 0.97028941 0.83262280
vt 0.97028941 0.83262280
vt 0.97028941 0.84725914
vt 0.97028941 0.84725914
vt 0.97215644 0.79408174
vt 0.97215644 0.79408174
vt 0.97215644 0.80352917
vt 0.97215644 0.80352917
vt 0.97215644 0.81319661
vt 0.97215644 0.82295417
vt 0.97215644 0.83262280
vt 0.97215644 0.83262280
vt 0.97215644 0.84725914
vt 0.97215644 0.84725914
vt 0.97215644 0.85704185
vt 0.97215644 0.86679941
vt 0.97215644 0.87593930
vt 0.97215644 0.87593930
vt 0.97215644 0.88569686
vt 0.97215644 0.88569686
vt 0.97215644 0.89523099
vt 0.97215644 0.90498855
vt 0.97402346 0.83262280
vt 0.97402346 0.83262280
vt 0.97402346 0.84725914
vt 0.97402346 0.84725914
vt 0.97560625 0.81462558
vt 0.97560625 0.82152521
vt 0.97560625 0.85847081
vt 0.97560625 0.86537044
vt 0.97560625 0.89665995
vt 0.97560625 0.90355959
vt 0.97589049 0.79408174
vt 0.97589049 0.79408174
vt 0.97589049 0.80352917
vt 0.97589049 0.80352917
vt 0.97589049 0.83262280
vt 0.97589049 0.83262280
vt 0.97589049 0.84725914
vt 0.97589049 0.84725914
vt 0.97589049 0.87593930
vt 0.97589049 0.87593930
vt 0.97589049 0.88569686
vt 0.97589049 0.88569686
vt 0.97703522 0.81807539
vt 0.97703522 0.86192063
vt 0.97703522 0.90010977
vt 0.97962455 0.79408174
vt 0.97962455 0.79408174
vt 0.97962455 0.80352917
vt 0.97962455 0.80352917
vt 0.97962455 0.87593930
vt 0.97962455 0.87593930
vt 0.97962455 0.88569686
vt 0.97962455 0.88569686
vn -9.0127256e-16 1.00000000 -5.3366056e-32
vn -0.70710678 0.70710678 8.3629214e-16
vn -1.00000000 -9.9139981e-16 1.1778147e-15
vn -0.70710678 -0.70710678 8.2032014e-16
vn 9.0127256e-16 -1.00000000 -8.0049084e-32
vn 0.70710678 0.70710678 -8.3629214e-16
vn 0.70710678 -0.70710678 -8.2032014e-16
vn 1.00000000 8.4118772e-16 -1.1778147e-15
vn -0.38268343 0.0000000e+0 -0.92387953
vn 0.0000000e+0 1.00000000 0.0000000e+0
vn -0.86602540 0.0000000e+0 0.50000000
vn -0.25881905 0.0000000e+0 -0.96592583
vn -0.25881905 0.0000000e+0 -0.96592583
vn 0.0000000e+0 1.00000000 0.0000000e+0
vn 0.0000000e+0 1.00000000 0.0000000e+0
vn -4.7591632e-16 0.0000000e+0 -1.00000000
vn -4.7591632e-16 0.0000000e+0 -1.00000000
vn 0.0000000e+0 1.00000000 0.0000000e+0
vn 0.0000000e+0 1.00000000 0.0000000e+0
vn 0.25881905 0.0000000e+0 -0.96592583
vn 0.25881905 0.0000000e+0 -0.96592583
vn 0.0000000e+0 1.00000000 0.0000000e+0
vn 0.0000000e+0 1.00000000 0.0000000e+0
vn 0.38268343 0.0000000e+0 -0.92387953
vn 0.0000000e+0 1.00000000 0.0000000e+0
vn 0.86602540 0.0000000e+0 0.50000000
vn -0.38268343 0.0000000e+0 -0.92387953
vn 0.0000000e+0 -1.00000000 0.0000000e+0
vn -0.86602540 0.0000000e+0 0.50000000
vn -0.25881905 0.0000000e+0 -0.96592583
vn -0.25881905 0.0000000e+0 -0.96592583
vn 0.0000000e+0 -1.00000000 0.0000000e+0
vn 0.0000000e+0 -1.00000000 0.0000000e+0
vn -4.7591632e-16 0.0000000e+0 -1.00000000
vn -4.7591632e-16 0.0000000e+0 -1.00000000
vn 0.0000000e+0 -1.00000000 0.0000000e+0
vn 0.0000000e+0 -1.00000000 0.0000000e+0
vn 0.25881905 0.0000000e+0 -0.96592583
vn 0.25881905 0.0000000e+0 -0.96592583
vn 0.0000000e+0 -1.00000000 0.0000000e+0
vn 0.0000000e+0 -1.00000000 0.0000000e+0
vn 0.38268343 0.0000000e+0 -0.92387953
vn 0.0000000e+0 -1.00000000 0.0000000e+0
vn 0.86602540 0.0000000e+0 0.50000000
vn 0.0000000e+0 -1.00000000 0.0000000e+0
vn 0.38268343 0.0000000e+0 0.92387953
vn -0.86602540 0.0000000e+0 0.50000000
vn 0.0000000e+0 -1.00000000 0.0000000e+0
vn 0.0000000e+0 -1.00000000 0.0000000e+0
vn 0.25881905 0.0000000e+0 0.96592583
vn 0.25881905 0.0000000e+0 0.96592583
vn 0.0000000e+0 -1.00000000 0.0000000e+0
vn 0.0000000e+0 -1.00000000 0.0000000e+0
vn 5.7389909e-16 0.0000000e+0 1.00000000
vn 5.7389909e-16 0.0000000e+0 1.00000000
vn 0.0000000e+0 -1.00000000 0.0000000e+0
vn 0.0000000e+0 -1.00000000 0.0000000e+0
vn -0.25881905 0.0000000e+0 0.96592583
vn -0.25881905 0.0000000e+0 0.96592583
vn 0.0000000e+0 -1.00000000 0.0000000e+0
vn -0.38268343 0.0000000e+0 0.92387953
vn 0.86602540 0.0000000e+0 0.50000000
vn 0.0000000e+0 1.00000000 0.0000000e+0
vn -0.38268343 0.0000000e+0 0.92387953
vn 0.86602540 0.0000000e+0 0.50000000
vn 0.0000000e+0 1.00000000 0.0000000e+0
vn 0.0000000e+0 1.00000000 0.0000000e+0
vn -0.25881905 0.0000000e+0 0.96592583
vn -0.25881905 0.0000000e+0 0.96592583
vn 0.0000000e+0 1.00000000 0.0000000e+0
vn 0.0000000e+0 1.00000000 0.0000000e+0
vn 5.7389909e-16 0.0000000e+0 1.00000000
vn 5.7389909e-16 0.0000000e+0 1.00000000
vn 0.0000000e+0 1.00000000 0.0000000e+0
vn 0.0000000e+0 1.00000000 0.0000000e+0
vn 0.25881905 0.0000000e+0 0.96592583
vn 0.25881905 0.0000000e+0 0.96592583
vn 0.0000000e+0 1.00000000 0.0000000e+0
vn 0.38268343 0.0000000e+0 0.92387953
vn -0.86602540 0.0000000e+0 0.50000000
vn 6.1331737e-16 1.3877788e-16 1.00000000
vn 1.00000000 8.4118772e-16 -1.1778147e-15
vn 1.00000000 8.4118772e-16 -1.1778147e-15
vn 6.1331737e-16 1.3877788e-16 1.00000000
vn 0.70710678 -0.70710678 -8.2032014e-16
vn 0.70710678 -0.70710678 -8.2032014e-16
vn 6.1331737e-16 1.3877788e-16 1.00000000
vn 9.0127256e-16 -1.00000000 -8.0049084e-32
vn 9.0127256e-16 -1.00000000 -8.0049084e-32
vn 6.1331737e-16 1.3877788e-16 1.00000000
vn -0.70710678 -0.70710678 8.2032014e-16
vn -0.70710678 -0.70710678 8.2032014e-16
vn 6.1331737e-16 1.3877788e-16 1.00000000
vn -1.00000000 -9.9139981e-16 1.1778147e-15
vn -1.00000000 -9.9139981e-16 1.1778147e-15
vn 6.1331737e-16 1.3877788e-16 1.00000000
vn -0.70710678 0.70710678 8.3629214e-16
vn -0.70710678 0.70710678 8.3629214e-16
vn 6.1331737e-16 1.3877788e-16 1.00000000
vn -9.0127256e-16 1.00000000 -5.3366056e-32
vn -9.0127256e-16 1.00000000 -5.3366056e-32
vn 6.1331737e-16 1.3877788e-16 1.00000000
vn 0.70710678 0.70710678 -8.3629214e-16
vn 0.70710678 0.70710678 -8.3629214e-16
vn 1.00000000 9.0127256e-17 -1.5844032e-16
vn 1.00000000 9.0127256e-17 -1.5844032e-16
vn 0.70710678 -0.70710678 -2.5554890e-17
vn 0.70710678 -0.70710678 -2.5554890e-17
vn 6.0084837e-17 -1.00000000 1.2266347e-16
vn 6.0084837e-17 -1.00000000 1.2266347e-16
vn -0.70710678 -0.70710678 1.9932814e-16
vn -0.70710678 -0.70710678 1.9932814e-16
vn -1.00000000 -1.5021209e-16 1.6099581e-16
vn -1.00000000 -1.5021209e-16 1.6099581e-16
vn -0.70710678 0.70710678 2.5554890e-17
vn -0.70710678 0.70710678 2.5554890e-17
vn -1.8025451e-16 1.00000000 -1.2010798e-16
vn -1.8025451e-16 1.00000000 -1.2010798e-16
vn 0.70710678 0.70710678 -1.9421717e-16
vn 0.70710678 0.70710678 -1.9421717e-16
vn 1.00000000 9.0127256e-17 -1.5844032e-16
vn 1.00000000 9.0127256e-17 -1.5844032e-16
vn 0.70710678 -0.70710678 -2.5554890e-17
vn 0.70710678 -0.70710678 -2.5554890e-17
vn 6.0084837e-17 -1.00000000 1.2266347e-16
vn 6.0084837e-17 -1.00000000 1.2266347e-16
vn -0.70710678 -0.70710678 1.9932814e-16
vn -0.70710678 -0.70710678 1.9932814e-16
vn -1.00000000 -1.5021209e-16 1.6099581e-16
vn -1.00000000 -1.5021209e-16 1.6099581e-16
vn -0.70710678 0.70710678 2.5554890e-17
vn -0.70710678 0.70710678 2.5554890e-17
vn -1.8025451e-16 1.00000000 -1.2010798e-16
vn -1.8025451e-16 1.00000000 -1.2010798e-16
vn 0.70710678 0.70710678 -1.9421717e-16
vn 0.70710678 0.70710678 -1.9421717e-16
vn 0.0000000e+0 3.4694470e-17 1.00000000
vn 1.00000000 9.0127256e-17 7.6664671e-18
vn 1.00000000 9.0127256e-17 7.6664671e-18
vn 0.0000000e+0 3.4694470e-17 1.00000000
vn 0.70710678 -0.70710678 7.6664671e-17
vn 0.70710678 -0.70710678 7.6664671e-17
vn 0.0000000e+0 3.4694470e-17 1.00000000
vn 6.0084837e-17 -1.00000000 9.1997605e-17
vn 6.0084837e-17 -1.00000000 9.1997605e-17
vn 0.0000000e+0 3.4694470e-17 1.00000000
vn -0.70710678 -0.70710678 5.3665270e-17
vn -0.70710678 -0.70710678 5.3665270e-17
vn 0.0000000e+0 3.4694470e-17 1.00000000
vn -1.00000000 -1.8025451e-16 -7.6664671e-18
vn -1.00000000 -1.8025451e-16 -7.6664671e-18
vn 0.0000000e+0 3.4694470e-17 1.00000000
vn -0.70710678 0.70710678 -7.6664671e-17
vn -0.70710678 0.70710678 -7.6664671e-17
vn 0.0000000e+0 3.4694470e-17 1.00000000
vn -1.2016967e-16 1.00000000 -9.1997605e-17
vn -1.2016967e-16 1.00000000 -9.1997605e-17
vn 0.0000000e+0 3.4694470e-17 1.00000000
vn 0.70710678 0.70710678 -5.3665270e-17
vn 0.70710678 0.70710678 -5.3665270e-17
vn 1.5332934e-16 -3.4694470e-17 -1.00000000
vn 1.00000000 9.0127256e-17 7.6664671e-18
vn 1.00000000 9.0127256e-17 7.6664671e-18
vn 1.5332934e-16 -3.4694470e-17 -1.00000000
vn 0.70710678 -0.70710678 7.6664671e-17
vn 0.70710678 -0.70710678 7.6664671e-17
vn 1.5332934e-16 -3.4694470e-17 -1.00000000
vn 6.0084837e-17 -1.00000000 9.1997605e-17
vn 6.0084837e-17 -1.00000000 9.1997605e-17
vn 1.5332934e-16 -3.4694470e-17 -1.00000000
vn -0.70710678 -0.70710678 5.3665270e-17
vn -0.70710678 -0.70710678 5.3665270e-17
vn 1.5332934e-16 -3.4694470e-17 -1.00000000
vn -1.00000000 -1.8025451e-16 -7.6664671e-18
vn -1.00000000 -1.8025451e-16 -7.6664671e-18
vn 1.5332934e-16 -3.4694470e-17 -1.00000000
vn -0.70710678 0.70710678 -7.6664671e-17
vn -0.70710678 0.70710678 -7.6664671e-17
vn 1.5332934e-16 -3.4694470e-17 -1.00000000
vn -1.2016967e-16 1.00000000 -9.1997605e-17
vn -1.2016967e-16 1.00000000 -9.1997605e-17
vn 1.5332934e-16 -3.4694470e-17 -1.00000000
vn 0.70710678 0.70710678 -5.3665270e-17
vn 0.70710678 0.70710678 -5.3665270e-17
g aquila_active_radiator_srf_2_aquila_active_radiator_srf_2_auv
usemtl aquila_active_radiator_srf_2_auv
s 1
f 5/14/26 16/18/65 15/15/62 10/11/44
f 6/12/29 11/16/47 20/17/80 1/13/11
f 21/124/81 28/107/102 27/89/99 26/75/96 25/59/93 24/74/90 23/88/87 22/106/84
f 53/126/137 60/111/158 59/101/155 58/79/152 57/61/149 56/78/146 55/100/143 54/110/140
f 62/76/164 63/94/167 64/108/170 65/125/173 66/109/176 67/95/179 68/77/182 61/60/161
s 2
f 2/8/13 7/7/31 6/9/27 1/10/9
f 3/6/17 8/5/35 7/7/30 2/8/12
f 4/4/21 9/3/39 8/5/34 3/6/16
f 5/2/24 10/1/42 9/3/38 4/4/20
f 12/44/50 19/43/76 20/40/79 11/42/46
f 13/50/54 18/49/72 19/43/77 12/44/51
f 14/45/58 17/46/68 18/48/73 13/47/55
f 15/39/61 16/41/64 17/46/69 14/45/59
f 21/87/82 36/85/8 34/113/6 28/115/103
f 22/65/86 35/63/7 36/85/8 21/87/83
f 23/54/89 33/52/5 35/63/7 22/65/85
f 24/114/92 32/112/4 33/127/5 23/129/88
f 25/86/95 31/84/3 32/112/4 24/114/91
f 26/64/98 30/62/2 31/84/3 25/86/94
f 27/53/101 29/51/1 30/62/2 26/64/97
f 28/115/104 34/113/6 29/128/1 27/130/100
f 37/92/105 45/90/121 52/102/135 44/104/119
f 38/82/108 46/80/124 45/90/122 37/92/106
f 39/68/110 47/66/126 46/80/123 38/82/107
f 40/81/112 48/83/128 47/69/125 39/67/109
f 41/91/114 49/93/130 48/83/127 40/81/111
f 42/103/116 50/105/132 49/93/129 41/91/113
f 43/117/118 51/119/134 50/105/131 42/103/115
f 44/104/120 52/102/136 51/116/133 43/118/117
f 53/98/138 61/96/162 68/120/183 60/122/159
f 54/72/142 62/70/166 61/96/163 53/98/139
f 55/57/145 63/55/169 62/70/165 54/72/141
f 56/71/148 64/73/172 63/58/168 55/56/144
f 57/97/151 65/99/175 64/73/171 56/71/147
f 58/121/154 66/123/178 65/99/174 57/97/150
f 59/132/157 67/134/181 66/123/177 58/121/153
f 60/122/160 68/120/184 67/131/180 59/133/156
s 3
f 1/19/10 20/34/78 19/35/75 2/21/15
f 2/21/14 19/35/74 18/36/71 3/23/19
f 3/23/18 18/36/70 17/37/67 4/25/23
f 4/25/22 17/37/66 16/38/63 5/28/25
f 7/26/32 12/32/48 11/33/45 6/27/28
f 8/24/36 13/31/52 12/32/49 7/26/33
f 9/22/40 14/30/56 13/31/53 8/24/37
f 10/20/43 15/29/60 14/30/57 9/22/41
