# Exported from Wings 3D 1.5.4
mtllib grus_solar_srf_1_top.mtl
o 1
#24 vertices, 24 faces
v -3.7500000e-2 -1.2500000e-2 0.0000000e+0
v -3.7500000e-2 -8.8388348e-3 8.8388348e-3
v -3.7500000e-2 -3.6572223e-17 1.2500000e-2
v -3.7500000e-2 8.8388348e-3 8.8388348e-3
v -3.7500000e-2 1.2500000e-2 1.5308085e-18
v -3.7500000e-2 8.8388348e-3 -8.8388348e-3
v -3.7500000e-2 -3.3510606e-17 -1.2500000e-2
v 3.7500000e-2 -1.2500000e-2 0.0000000e+0
v 3.7500000e-2 -8.8388348e-3 8.8388348e-3
v 3.7500000e-2 -3.5041414e-17 1.2500000e-2
v 3.7500000e-2 8.8388348e-3 8.8388348e-3
v 3.7500000e-2 1.2500000e-2 1.5308085e-18
v 3.7500000e-2 8.8388348e-3 -8.8388348e-3
v 3.7500000e-2 -3.1979797e-17 -1.2500000e-2
v -3.7500000e-2 -3.6429193e-17 5.5975101e-19
v 3.7500000e-2 -3.4260789e-17 -2.1684043e-19
v -0.37500000 -2.5000000e-2 -0.50000000
v -0.37500000 -2.5000000e-2 0.0000000e+0
v -0.37500000 0.0000000e+0 -0.50000000
v -0.37500000 0.0000000e+0 0.0000000e+0
v 0.37500000 -2.5000000e-2 -0.50000000
v 0.37500000 -2.5000000e-2 0.0000000e+0
v 0.37500000 0.0000000e+0 -0.50000000
v 0.37500000 0.0000000e+0 0.0000000e+0
vt 2.0802211e-2 0.96975804
vt 2.0802211e-2 0.77427652
vt 3.0597157e-2 0.77427652
vt 3.0597157e-2 0.96975804
vt 3.0597157e-2 0.97955299
vt 3.0597157e-2 0.54773110
vt 3.0597157e-2 0.76448157
vt 3.0597157e-2 0.74352309
vt 3.1262820e-2 0.48490090
vt 3.1262820e-2 0.48864926
vt 3.1262820e-2 0.49239762
vt 3.1262820e-2 0.49614599
vt 3.1262820e-2 0.49989435
vt 3.1262820e-2 0.50364271
vt 3.1262820e-2 0.50739108
vt 6.0647657e-2 0.48490090
vt 6.0647657e-2 0.48864926
vt 6.0647657e-2 0.49239762
vt 6.0647657e-2 0.49614599
vt 6.0647657e-2 0.49989435
vt 6.0647657e-2 0.50364271
vt 6.0647657e-2 0.50739108
vt 8.1290110e-2 0.49644787
vt 8.1290110e-2 0.49644787
vt 8.2724547e-2 0.49298484
vt 8.2724547e-2 0.49991091
vt 8.2724547e-2 0.49298484
vt 8.2724547e-2 0.49991091
vt 8.6187583e-2 0.49155040
vt 8.6187583e-2 0.49644787
vt 8.6187583e-2 0.50134535
vt 8.6187583e-2 0.49155040
vt 8.6187583e-2 0.49644787
vt 8.6187583e-2 0.50134535
vt 8.9650619e-2 0.49298484
vt 8.9650619e-2 0.49298484
vt 9.1085056e-2 0.49644787
vt 9.1085056e-2 0.49644787
vt 0.32500483 0.54773110
vt 0.32500483 0.96975804
vt 0.32500483 0.97955299
vt 0.32500483 0.76448157
vt 0.32500483 0.77427652
vt 0.32500483 0.74352309
vt 0.33479978 0.96975804
vt 0.33479978 0.77427652
vn -1.00000000 -8.1775649e-17 0.0000000e+0
vn 1.00000000 8.1775649e-17 -1.3084104e-16
vn 1.4165784e-17 -0.92387953 0.38268343
vn -1.00000000 0.0000000e+0 0.0000000e+0
vn 1.2777445e-17 -0.70710678 0.70710678
vn 1.2777445e-17 -0.70710678 0.70710678
vn -1.00000000 0.0000000e+0 0.0000000e+0
vn -1.00000000 0.0000000e+0 0.0000000e+0
vn -2.5554890e-18 0.0000000e+0 1.00000000
vn -2.5554890e-18 0.0000000e+0 1.00000000
vn -1.00000000 -2.4532695e-16 0.0000000e+0
vn -1.00000000 -2.4532695e-16 0.0000000e+0
vn -2.5554890e-17 0.70710678 0.70710678
vn -2.5554890e-17 0.70710678 0.70710678
vn -1.00000000 2.4532695e-16 0.0000000e+0
vn -1.00000000 2.4532695e-16 0.0000000e+0
vn -3.0665868e-17 1.00000000 1.5021209e-16
vn -3.0665868e-17 1.00000000 1.5021209e-16
vn -1.00000000 9.8607613e-32 0.0000000e+0
vn -1.00000000 9.8607613e-32 0.0000000e+0
vn -1.7888423e-17 0.70710678 -0.70710678
vn -1.7888423e-17 0.70710678 -0.70710678
vn -1.00000000 -4.9065389e-16 0.0000000e+0
vn -1.00000000 -4.9065389e-16 0.0000000e+0
vn -9.4438560e-18 0.38268343 -0.92387953
vn -1.00000000 0.0000000e+0 0.0000000e+0
vn 1.4165784e-17 -0.92387953 0.38268343
vn 1.00000000 0.0000000e+0 -2.2993472e-16
vn 1.2777445e-17 -0.70710678 0.70710678
vn 1.2777445e-17 -0.70710678 0.70710678
vn 1.00000000 0.0000000e+0 -3.9252311e-16
vn 1.00000000 0.0000000e+0 -3.9252311e-16
vn -2.5554890e-18 0.0000000e+0 1.00000000
vn -2.5554890e-18 0.0000000e+0 1.00000000
vn 1.00000000 2.4532695e-16 -5.5511151e-16
vn 1.00000000 2.4532695e-16 -5.5511151e-16
vn -2.5554890e-17 0.70710678 0.70710678
vn -2.5554890e-17 0.70710678 0.70710678
vn 1.00000000 2.4532695e-16 -3.9252311e-16
vn 1.00000000 2.4532695e-16 -3.9252311e-16
vn -3.0665868e-17 1.00000000 1.5021209e-16
vn -3.0665868e-17 1.00000000 1.5021209e-16
vn 1.00000000 0.0000000e+0 -4.9303807e-32
vn 1.00000000 0.0000000e+0 -4.9303807e-32
vn -1.7888423e-17 0.70710678 -0.70710678
vn -1.7888423e-17 0.70710678 -0.70710678
vn 1.00000000 0.0000000e+0 3.9252311e-16
vn 1.00000000 0.0000000e+0 3.9252311e-16
vn -9.4438560e-18 0.38268343 -0.92387953
vn 1.00000000 0.0000000e+0 5.5511151e-16
vn 0.0000000e+0 -1.00000000 0.0000000e+0
vn 0.0000000e+0 0.0000000e+0 -1.00000000
vn -1.00000000 0.0000000e+0 0.0000000e+0
vn 0.0000000e+0 -1.00000000 0.0000000e+0
vn 0.0000000e+0 0.0000000e+0 1.00000000
vn -1.00000000 0.0000000e+0 0.0000000e+0
vn 0.0000000e+0 1.00000000 0.0000000e+0
vn 0.0000000e+0 0.0000000e+0 -1.00000000
vn -1.00000000 0.0000000e+0 0.0000000e+0
vn 0.0000000e+0 1.00000000 0.0000000e+0
vn 0.0000000e+0 0.0000000e+0 1.00000000
vn -1.00000000 0.0000000e+0 0.0000000e+0
vn 0.0000000e+0 -1.00000000 0.0000000e+0
vn 0.0000000e+0 0.0000000e+0 -1.00000000
vn 1.00000000 0.0000000e+0 0.0000000e+0
vn 0.0000000e+0 -1.00000000 0.0000000e+0
vn 0.0000000e+0 0.0000000e+0 1.00000000
vn 1.00000000 0.0000000e+0 0.0000000e+0
vn 0.0000000e+0 1.00000000 0.0000000e+0
vn 0.0000000e+0 0.0000000e+0 -1.00000000
vn 1.00000000 0.0000000e+0 0.0000000e+0
vn 0.0000000e+0 1.00000000 0.0000000e+0
vn 0.0000000e+0 0.0000000e+0 1.00000000
vn 1.00000000 0.0000000e+0 0.0000000e+0
g 1_1_auv
usemtl 1_auv
s 1
f 1/15/3 8/22/27 9/21/30 2/14/6
f 2/14/5 9/21/29 10/20/34 3/13/10
f 2/26/7 15/33/1 1/34/4
f 3/13/9 10/20/33 11/19/38 4/12/14
f 3/24/12 15/33/1 2/26/8
f 4/12/13 11/19/37 12/18/42 5/11/18
f 4/25/16 15/33/1 3/24/11
f 5/11/17 12/18/41 13/17/46 6/10/22
f 5/32/20 15/33/1 4/25/15
f 6/10/21 13/17/45 14/16/49 7/9/25
f 6/35/24 15/33/1 5/32/19
f 7/37/26 15/33/1 6/35/23
f 8/31/28 16/30/2 9/28/31
f 9/28/32 16/30/2 10/23/35
f 10/23/36 16/30/2 11/27/39
f 11/27/40 16/30/2 12/29/43
f 12/29/44 16/30/2 13/36/47
f 13/36/48 16/30/2 14/38/50
f 18/7/55 22/42/67 24/43/73 20/3/61
f 19/4/58 23/40/70 21/41/64 17/5/52
s 2
f 17/44/51 21/8/63 22/6/66 18/39/54
f 20/3/60 24/43/72 23/40/69 19/4/57
s 3
f 18/2/56 20/3/62 19/4/59 17/1/53
f 21/45/65 23/40/71 24/43/74 22/46/68
