# Exported from Wings 3D 1.5.4
mtllib grus_solar_srf_3_top.mtl
o 1
#40 vertices, 40 faces
v -0.37500000 -5.0000000e-2 -0.51250000
v -0.37500000 -5.0000000e-2 -1.2500000e-2
v -0.37500000 -2.5000000e-2 -0.51250000
v -0.37500000 -2.5000000e-2 -1.2500000e-2
v 0.37500000 -5.0000000e-2 -0.51250000
v 0.37500000 -5.0000000e-2 -1.2500000e-2
v 0.37500000 -2.5000000e-2 -0.51250000
v 0.37500000 -2.5000000e-2 -1.2500000e-2
v 1.2500000e-2 0.0000000e+0 -1.2500000e-2
v 1.2500000e-2 8.8388348e-3 -8.8388348e-3
v 1.2500000e-2 1.2500000e-2 0.0000000e+0
v 1.2500000e-2 8.8388348e-3 8.8388348e-3
v 1.2500000e-2 6.9388939e-18 1.2500000e-2
v 3.7500000e-2 0.0000000e+0 -1.2500000e-2
v 3.7500000e-2 8.8388348e-3 -8.8388348e-3
v 3.7500000e-2 1.2500000e-2 0.0000000e+0
v 3.7500000e-2 8.8388348e-3 8.8388348e-3
v 3.7500000e-2 6.9388939e-18 1.2500000e-2
v 1.2500000e-2 -5.0000000e-2 1.2500000e-2
v 1.2500000e-2 -5.0000000e-2 -1.2500000e-2
v 3.7500000e-2 -5.0000000e-2 -1.2500000e-2
v 3.7500000e-2 -5.0000000e-2 1.2500000e-2
v 1.2500000e-2 0.0000000e+0 0.0000000e+0
v 3.7500000e-2 6.9388939e-18 0.0000000e+0
v -1.2500000e-2 0.0000000e+0 -1.2500000e-2
v -1.2500000e-2 8.8388348e-3 -8.8388348e-3
v -1.2500000e-2 1.2500000e-2 0.0000000e+0
v -1.2500000e-2 8.8388348e-3 8.8388348e-3
v -1.2500000e-2 6.9388939e-18 1.2500000e-2
v -3.7500000e-2 0.0000000e+0 -1.2500000e-2
v -3.7500000e-2 8.8388348e-3 -8.8388348e-3
v -3.7500000e-2 1.2500000e-2 0.0000000e+0
v -3.7500000e-2 8.8388348e-3 8.8388348e-3
v -3.7500000e-2 6.9388939e-18 1.2500000e-2
v -1.2500000e-2 -5.0000000e-2 1.2500000e-2
v -1.2500000e-2 -5.0000000e-2 -1.2500000e-2
v -3.7500000e-2 -5.0000000e-2 -1.2500000e-2
v -3.7500000e-2 -5.0000000e-2 1.2500000e-2
v -1.2500000e-2 0.0000000e+0 0.0000000e+0
v -3.7500000e-2 6.9388939e-18 0.0000000e+0
vt 2.0802211e-2 0.77427652
vt 2.0802211e-2 0.96975804
vt 3.0597157e-2 0.54773110
vt 3.0597157e-2 0.74352309
vt 3.0597157e-2 0.76448157
vt 3.0597157e-2 0.77427652
vt 3.0597157e-2 0.96975804
vt 3.0597157e-2 0.97955299
vt 0.13574446 0.49607103
vt 0.13717484 0.49261778
vt 0.13717484 0.49952428
vt 0.14062809 0.49118740
vt 0.14062809 0.49607103
vt 0.14062809 0.50095467
vt 0.16504626 0.49118740
vt 0.16504626 0.50095467
vt 0.17481353 0.49118740
vt 0.17481353 0.50095467
vt 0.19923170 0.49118740
vt 0.19923170 0.49607103
vt 0.19923170 0.50095467
vt 0.20268495 0.49261778
vt 0.20268495 0.49952428
vt 0.20411533 0.49607103
vt 0.22390745 0.49115770
vt 0.22390745 0.50092497
vt 0.24832561 0.49115770
vt 0.24832561 0.50092497
vt 0.25206339 0.49115770
vt 0.25206339 0.50092497
vt 0.25580116 0.49115770
vt 0.25580116 0.50092497
vt 0.25953893 0.49115770
vt 0.25953893 0.50092497
vt 0.26327670 0.49115770
vt 0.26327670 0.50092497
vt 0.28769487 0.49115770
vt 0.28769487 0.50092497
vt 0.32500483 0.54773110
vt 0.32500483 0.74352309
vt 0.32500483 0.76448157
vt 0.32500483 0.77427652
vt 0.32500483 0.96975804
vt 0.32500483 0.97955299
vt 0.33479978 0.77427652
vt 0.33479978 0.96975804
vn -1.00000000 1.0846837e-31 0.0000000e+0
vn 1.00000000 1.5017248e-16 -2.3111159e-32
vn 1.00000000 1.0846837e-31 0.0000000e+0
vn -1.00000000 1.5017248e-16 -2.3111159e-32
vn -1.00000000 0.0000000e+0 0.0000000e+0
vn 0.0000000e+0 -1.00000000 0.0000000e+0
vn 0.0000000e+0 0.0000000e+0 -1.00000000
vn -1.00000000 0.0000000e+0 0.0000000e+0
vn 0.0000000e+0 -1.00000000 0.0000000e+0
vn 0.0000000e+0 0.0000000e+0 1.00000000
vn -1.00000000 0.0000000e+0 0.0000000e+0
vn 0.0000000e+0 1.00000000 0.0000000e+0
vn 0.0000000e+0 0.0000000e+0 -1.00000000
vn -1.00000000 0.0000000e+0 0.0000000e+0
vn 0.0000000e+0 1.00000000 0.0000000e+0
vn 0.0000000e+0 0.0000000e+0 1.00000000
vn 1.00000000 0.0000000e+0 0.0000000e+0
vn 0.0000000e+0 -1.00000000 0.0000000e+0
vn 0.0000000e+0 0.0000000e+0 -1.00000000
vn 1.00000000 0.0000000e+0 0.0000000e+0
vn 0.0000000e+0 -1.00000000 0.0000000e+0
vn 0.0000000e+0 0.0000000e+0 1.00000000
vn 1.00000000 0.0000000e+0 0.0000000e+0
vn 0.0000000e+0 1.00000000 0.0000000e+0
vn 0.0000000e+0 0.0000000e+0 -1.00000000
vn 1.00000000 0.0000000e+0 0.0000000e+0
vn 0.0000000e+0 1.00000000 0.0000000e+0
vn 0.0000000e+0 0.0000000e+0 1.00000000
vn -1.00000000 -6.1331737e-17 0.0000000e+0
vn -2.8886616e-17 0.19509032 -0.98078528
vn -1.00000000 -6.1331737e-17 0.0000000e+0
vn -2.8886616e-17 0.19509032 -0.98078528
vn -1.00000000 -6.1331737e-17 0.0000000e+0
vn -1.6866228e-16 0.70710678 -0.70710678
vn -1.6866228e-16 0.70710678 -0.70710678
vn -1.00000000 -6.1331737e-17 0.0000000e+0
vn -2.0699461e-16 1.00000000 -1.8025451e-16
vn -2.0699461e-16 1.00000000 -1.8025451e-16
vn -1.00000000 0.0000000e+0 0.0000000e+0
vn -1.00000000 0.0000000e+0 0.0000000e+0
vn -6.8998204e-17 0.70710678 0.70710678
vn -6.8998204e-17 0.70710678 0.70710678
vn -1.00000000 6.1331737e-17 0.0000000e+0
vn -1.00000000 6.1331737e-17 0.0000000e+0
vn 0.0000000e+0 0.19509032 0.98078528
vn -1.00000000 6.1331737e-17 0.0000000e+0
vn 0.0000000e+0 0.19509032 0.98078528
vn -1.00000000 6.1331737e-17 0.0000000e+0
vn -2.8886616e-17 0.19509032 -0.98078528
vn -2.8886616e-17 0.19509032 -0.98078528
vn 1.00000000 1.3010426e-16 -5.7777898e-32
vn 1.00000000 1.3010426e-16 -5.7777898e-32
vn -1.6866228e-16 0.70710678 -0.70710678
vn -1.6866228e-16 0.70710678 -0.70710678
vn 1.00000000 0.0000000e+0 0.0000000e+0
vn 1.00000000 0.0000000e+0 0.0000000e+0
vn -2.0699461e-16 1.00000000 -1.8025451e-16
vn -2.0699461e-16 1.00000000 -1.8025451e-16
vn 1.00000000 0.0000000e+0 0.0000000e+0
vn 1.00000000 0.0000000e+0 0.0000000e+0
vn 1.00000000 2.4532695e-16 0.0000000e+0
vn -6.8998204e-17 0.70710678 0.70710678
vn -6.8998204e-17 0.70710678 0.70710678
vn 1.00000000 2.4532695e-16 0.0000000e+0
vn 1.00000000 3.7543121e-16 -5.7777898e-32
vn 0.0000000e+0 0.19509032 0.98078528
vn 1.00000000 3.7543121e-16 -5.7777898e-32
vn 0.0000000e+0 0.19509032 0.98078528
vn 0.0000000e+0 -1.00000000 5.5511151e-16
vn -1.00000000 0.0000000e+0 0.0000000e+0
vn 0.0000000e+0 0.0000000e+0 1.00000000
vn 0.0000000e+0 -1.00000000 5.5511151e-16
vn -1.00000000 0.0000000e+0 0.0000000e+0
vn 0.0000000e+0 0.0000000e+0 -1.00000000
vn 0.0000000e+0 -1.00000000 5.5511151e-16
vn 0.0000000e+0 0.0000000e+0 -1.00000000
vn 1.00000000 2.6020852e-16 -1.1555580e-31
vn 0.0000000e+0 -1.00000000 5.5511151e-16
vn 1.00000000 2.6020852e-16 -1.1555580e-31
vn 0.0000000e+0 0.0000000e+0 1.00000000
vn 1.00000000 -6.1331737e-17 0.0000000e+0
vn 2.8886616e-17 0.19509032 -0.98078528
vn 1.00000000 -6.1331737e-17 0.0000000e+0
vn 2.8886616e-17 0.19509032 -0.98078528
vn 1.00000000 -6.1331737e-17 0.0000000e+0
vn 1.6866228e-16 0.70710678 -0.70710678
vn 1.6866228e-16 0.70710678 -0.70710678
vn 1.00000000 -6.1331737e-17 0.0000000e+0
vn 2.0699461e-16 1.00000000 -1.8025451e-16
vn 2.0699461e-16 1.00000000 -1.8025451e-16
vn 1.00000000 0.0000000e+0 0.0000000e+0
vn 1.00000000 0.0000000e+0 0.0000000e+0
vn 6.8998204e-17 0.70710678 0.70710678
vn 6.8998204e-17 0.70710678 0.70710678
vn 1.00000000 6.1331737e-17 0.0000000e+0
vn 1.00000000 6.1331737e-17 0.0000000e+0
vn 0.0000000e+0 0.19509032 0.98078528
vn 1.00000000 6.1331737e-17 0.0000000e+0
vn 0.0000000e+0 0.19509032 0.98078528
vn 1.00000000 6.1331737e-17 0.0000000e+0
vn 2.8886616e-17 0.19509032 -0.98078528
vn 2.8886616e-17 0.19509032 -0.98078528
vn -1.00000000 1.3010426e-16 -5.7777898e-32
vn -1.00000000 1.3010426e-16 -5.7777898e-32
vn 1.6866228e-16 0.70710678 -0.70710678
vn 1.6866228e-16 0.70710678 -0.70710678
vn -1.00000000 0.0000000e+0 0.0000000e+0
vn -1.00000000 0.0000000e+0 0.0000000e+0
vn 2.0699461e-16 1.00000000 -1.8025451e-16
vn 2.0699461e-16 1.00000000 -1.8025451e-16
vn -1.00000000 0.0000000e+0 0.0000000e+0
vn -1.00000000 0.0000000e+0 0.0000000e+0
vn -1.00000000 2.4532695e-16 0.0000000e+0
vn 6.8998204e-17 0.70710678 0.70710678
vn 6.8998204e-17 0.70710678 0.70710678
vn -1.00000000 2.4532695e-16 0.0000000e+0
vn -1.00000000 3.7543121e-16 -5.7777898e-32
vn 0.0000000e+0 0.19509032 0.98078528
vn -1.00000000 3.7543121e-16 -5.7777898e-32
vn 0.0000000e+0 0.19509032 0.98078528
vn 0.0000000e+0 -1.00000000 5.5511151e-16
vn 1.00000000 0.0000000e+0 0.0000000e+0
vn 0.0000000e+0 0.0000000e+0 1.00000000
vn 0.0000000e+0 -1.00000000 5.5511151e-16
vn 1.00000000 0.0000000e+0 0.0000000e+0
vn 0.0000000e+0 0.0000000e+0 -1.00000000
vn 0.0000000e+0 -1.00000000 5.5511151e-16
vn 0.0000000e+0 0.0000000e+0 -1.00000000
vn -1.00000000 2.6020852e-16 -1.1555580e-31
vn 0.0000000e+0 -1.00000000 5.5511151e-16
vn -1.00000000 2.6020852e-16 -1.1555580e-31
vn 0.0000000e+0 0.0000000e+0 1.00000000
g 1_1_auv
usemtl 1_auv
s 1
f 2/5/10 6/41/22 8/42/28 4/6/16
f 3/7/13 7/43/25 5/44/19 1/8/7
f 20/15/72 21/17/75 22/18/78 19/16/69
f 35/16/121 38/18/130 37/17/127 36/15/124
s 2
f 1/40/6 5/4/18 6/3/21 2/39/9
f 4/6/15 8/42/27 7/43/24 3/7/12
f 10/34/35 15/33/54 14/35/49 9/36/30
f 11/32/38 16/31/58 15/33/53 10/34/34
f 12/30/42 17/29/63 16/31/57 11/32/37
f 13/28/45 18/27/66 17/29/62 12/30/41
f 13/28/47 19/26/71 22/25/80 18/27/68
f 14/35/50 21/37/76 20/38/74 9/36/32
f 26/10/85 39/13/3 25/12/81
f 27/9/91 39/13/3 26/10/88
f 28/11/96 39/13/3 27/9/92
f 29/14/98 35/16/122 36/15/125 25/12/83 39/13/3
f 29/14/100 39/13/3 28/11/95
f 30/19/104 40/20/4 31/22/107
f 31/22/108 40/20/4 32/24/111
f 32/24/112 40/20/4 33/23/116
f 33/23/113 40/20/4 34/21/117
f 40/20/4 30/19/103 37/17/129 38/18/131 34/21/119
s 3
f 2/1/8 4/6/14 3/7/11 1/2/5
f 5/46/17 7/43/23 8/42/26 6/45/20
f 9/12/29 23/13/1 10/10/33
f 10/10/36 23/13/1 11/9/39
f 11/9/40 23/13/1 12/11/44
f 12/11/43 23/13/1 13/14/48
f 15/22/55 24/20/2 14/19/52
f 16/24/59 24/20/2 15/22/56
f 17/23/64 24/20/2 16/24/60
f 18/21/67 22/18/79 21/17/77 14/19/51 24/20/2
f 18/21/65 24/20/2 17/23/61
f 23/13/1 9/12/31 20/15/73 19/16/70 13/14/46
f 25/36/82 30/35/101 31/33/106 26/34/87
f 25/36/84 36/38/126 37/37/128 30/35/102
f 26/34/86 31/33/105 32/31/110 27/32/90
f 27/32/89 32/31/109 33/29/115 28/30/94
f 28/30/93 33/29/114 34/27/118 29/28/97
f 34/27/120 38/25/132 35/26/123 29/28/99
