# Exported from Wings 3D 1.5.4
mtllib grus_solar_srf_1.mtl
o 1
#24 vertices, 24 faces
v -0.37500000 0.0000000e+0 -0.50000000
v -0.37500000 0.0000000e+0 0.0000000e+0
v -0.37500000 2.5000000e-2 -0.50000000
v -0.37500000 2.5000000e-2 0.0000000e+0
v 0.37500000 0.0000000e+0 -0.50000000
v 0.37500000 0.0000000e+0 0.0000000e+0
v 0.37500000 2.5000000e-2 -0.50000000
v 0.37500000 2.5000000e-2 0.0000000e+0
v -3.7500000e-2 1.2500000e-2 0.0000000e+0
v -3.7500000e-2 8.8388348e-3 8.8388348e-3
v -3.7500000e-2 3.6572223e-17 1.2500000e-2
v -3.7500000e-2 -8.8388348e-3 8.8388348e-3
v -3.7500000e-2 -1.2500000e-2 1.5308085e-18
v -3.7500000e-2 -8.8388348e-3 -8.8388348e-3
v -3.7500000e-2 3.3510606e-17 -1.2500000e-2
v 3.7500000e-2 1.2500000e-2 0.0000000e+0
v 3.7500000e-2 8.8388348e-3 8.8388348e-3
v 3.7500000e-2 3.5041414e-17 1.2500000e-2
v 3.7500000e-2 -8.8388348e-3 8.8388348e-3
v 3.7500000e-2 -1.2500000e-2 1.5308085e-18
v 3.7500000e-2 -8.8388348e-3 -8.8388348e-3
v 3.7500000e-2 3.1979797e-17 -1.2500000e-2
v -3.7500000e-2 3.6429193e-17 5.5975101e-19
v 3.7500000e-2 3.4260789e-17 -2.1684043e-19
vt 2.0802211e-2 0.96975804
vt 2.0802211e-2 0.77427652
vt 3.0597157e-2 0.77427652
vt 3.0597157e-2 0.96975804
vt 3.0597157e-2 0.97955299
vt 3.0597157e-2 0.54773110
vt 3.0597157e-2 0.76448157
vt 3.0597157e-2 0.74352309
vt 3.1262820e-2 0.48490090
vt 3.1262820e-2 0.48864926
vt 3.1262820e-2 0.49239762
vt 3.1262820e-2 0.49614599
vt 3.1262820e-2 0.49989435
vt 3.1262820e-2 0.50364271
vt 3.1262820e-2 0.50739108
vt 6.0647657e-2 0.48490090
vt 6.0647657e-2 0.48864926
vt 6.0647657e-2 0.49239762
vt 6.0647657e-2 0.49614599
vt 6.0647657e-2 0.49989435
vt 6.0647657e-2 0.50364271
vt 6.0647657e-2 0.50739108
vt 8.1290110e-2 0.49644787
vt 8.1290110e-2 0.49644787
vt 8.2724547e-2 0.49298484
vt 8.2724547e-2 0.49991091
vt 8.2724547e-2 0.49298484
vt 8.2724547e-2 0.49991091
vt 8.6187583e-2 0.49155040
vt 8.6187583e-2 0.49644787
vt 8.6187583e-2 0.50134535
vt 8.6187583e-2 0.49155040
vt 8.6187583e-2 0.49644787
vt 8.6187583e-2 0.50134535
vt 8.9650619e-2 0.49298484
vt 8.9650619e-2 0.49298484
vt 9.1085056e-2 0.49644787
vt 9.1085056e-2 0.49644787
vt 0.32500483 0.54773110
vt 0.32500483 0.96975804
vt 0.32500483 0.97955299
vt 0.32500483 0.76448157
vt 0.32500483 0.77427652
vt 0.32500483 0.74352309
vt 0.33479978 0.96975804
vt 0.33479978 0.77427652
vn -1.00000000 8.1775649e-17 0.0000000e+0
vn 1.00000000 -8.1775649e-17 -1.3084104e-16
vn 0.0000000e+0 -1.00000000 0.0000000e+0
vn 0.0000000e+0 0.0000000e+0 -1.00000000
vn -1.00000000 0.0000000e+0 0.0000000e+0
vn 0.0000000e+0 -1.00000000 0.0000000e+0
vn 0.0000000e+0 0.0000000e+0 1.00000000
vn -1.00000000 0.0000000e+0 0.0000000e+0
vn 0.0000000e+0 1.00000000 0.0000000e+0
vn 0.0000000e+0 0.0000000e+0 -1.00000000
vn -1.00000000 0.0000000e+0 0.0000000e+0
vn 0.0000000e+0 1.00000000 0.0000000e+0
vn 0.0000000e+0 0.0000000e+0 1.00000000
vn -1.00000000 0.0000000e+0 0.0000000e+0
vn 0.0000000e+0 -1.00000000 0.0000000e+0
vn 0.0000000e+0 0.0000000e+0 -1.00000000
vn 1.00000000 0.0000000e+0 0.0000000e+0
vn 0.0000000e+0 -1.00000000 0.0000000e+0
vn 0.0000000e+0 0.0000000e+0 1.00000000
vn 1.00000000 0.0000000e+0 0.0000000e+0
vn 0.0000000e+0 1.00000000 0.0000000e+0
vn 0.0000000e+0 0.0000000e+0 -1.00000000
vn 1.00000000 0.0000000e+0 0.0000000e+0
vn 0.0000000e+0 1.00000000 0.0000000e+0
vn 0.0000000e+0 0.0000000e+0 1.00000000
vn 1.00000000 0.0000000e+0 0.0000000e+0
vn 1.4165784e-17 0.92387953 0.38268343
vn -1.00000000 0.0000000e+0 0.0000000e+0
vn 1.2777445e-17 0.70710678 0.70710678
vn 1.2777445e-17 0.70710678 0.70710678
vn -1.00000000 0.0000000e+0 0.0000000e+0
vn -1.00000000 0.0000000e+0 0.0000000e+0
vn -2.5554890e-18 0.0000000e+0 1.00000000
vn -2.5554890e-18 0.0000000e+0 1.00000000
vn -1.00000000 2.4532695e-16 0.0000000e+0
vn -1.00000000 2.4532695e-16 0.0000000e+0
vn -2.5554890e-17 -0.70710678 0.70710678
vn -2.5554890e-17 -0.70710678 0.70710678
vn -1.00000000 -2.4532695e-16 0.0000000e+0
vn -1.00000000 -2.4532695e-16 0.0000000e+0
vn -3.0665868e-17 -1.00000000 1.5021209e-16
vn -3.0665868e-17 -1.00000000 1.5021209e-16
vn -1.00000000 -9.8607613e-32 0.0000000e+0
vn -1.00000000 -9.8607613e-32 0.0000000e+0
vn -1.7888423e-17 -0.70710678 -0.70710678
vn -1.7888423e-17 -0.70710678 -0.70710678
vn -1.00000000 4.9065389e-16 0.0000000e+0
vn -1.00000000 4.9065389e-16 0.0000000e+0
vn -9.4438560e-18 -0.38268343 -0.92387953
vn -1.00000000 0.0000000e+0 0.0000000e+0
vn 1.4165784e-17 0.92387953 0.38268343
vn 1.00000000 0.0000000e+0 -2.2993472e-16
vn 1.2777445e-17 0.70710678 0.70710678
vn 1.2777445e-17 0.70710678 0.70710678
vn 1.00000000 0.0000000e+0 -3.9252311e-16
vn 1.00000000 0.0000000e+0 -3.9252311e-16
vn -2.5554890e-18 0.0000000e+0 1.00000000
vn -2.5554890e-18 0.0000000e+0 1.00000000
vn 1.00000000 -2.4532695e-16 -5.5511151e-16
vn 1.00000000 -2.4532695e-16 -5.5511151e-16
vn -2.5554890e-17 -0.70710678 0.70710678
vn -2.5554890e-17 -0.70710678 0.70710678
vn 1.00000000 -2.4532695e-16 -3.9252311e-16
vn 1.00000000 -2.4532695e-16 -3.9252311e-16
vn -3.0665868e-17 -1.00000000 1.5021209e-16
vn -3.0665868e-17 -1.00000000 1.5021209e-16
vn 1.00000000 0.0000000e+0 -4.9303807e-32
vn 1.00000000 0.0000000e+0 -4.9303807e-32
vn -1.7888423e-17 -0.70710678 -0.70710678
vn -1.7888423e-17 -0.70710678 -0.70710678
vn 1.00000000 0.0000000e+0 3.9252311e-16
vn 1.00000000 0.0000000e+0 3.9252311e-16
vn -9.4438560e-18 -0.38268343 -0.92387953
vn 1.00000000 0.0000000e+0 5.5511151e-16
g 1_1_auv
usemtl 1_auv
s 1
f 2/2/8 4/3/14 3/4/11 1/1/5
f 5/45/17 7/40/23 8/43/26 6/46/20
f 9/34/28 23/33/1 10/26/31
f 10/14/30 17/21/54 16/22/51 9/15/27
f 10/26/32 23/33/1 11/24/36
f 11/13/34 18/20/58 17/21/53 10/14/29
f 11/24/35 23/33/1 12/25/40
f 12/12/38 19/19/62 18/20/57 11/13/33
f 12/25/39 23/33/1 13/32/44
f 13/11/42 20/18/66 19/19/61 12/12/37
f 13/32/43 23/33/1 14/35/48
f 14/10/46 21/17/70 20/18/65 13/11/41
f 14/35/47 23/33/1 15/37/50
f 15/9/49 22/16/73 21/17/69 14/10/45
f 17/28/55 24/30/2 16/31/52
f 18/23/59 24/30/2 17/28/56
f 19/27/63 24/30/2 18/23/60
f 20/29/67 24/30/2 19/27/64
f 21/36/71 24/30/2 20/29/68
f 22/38/74 24/30/2 21/36/72
s 2
f 1/44/3 5/8/15 6/6/18 2/39/6
f 4/3/12 8/43/24 7/40/21 3/4/9
s 3
f 2/7/7 6/42/19 8/43/25 4/3/13
f 3/4/10 7/40/22 5/41/16 1/5/4
