# Exported from Wings 3D 1.5.4
mtllib rightpanel.mtl
o 1
#24 vertices, 24 faces
v 0.0000000e+0 0.0000000e+0 -0.50000000
v 0.0000000e+0 0.0000000e+0 0.0000000e+0
v 0.0000000e+0 2.5000000e-2 -0.50000000
v 0.0000000e+0 2.5000000e-2 0.0000000e+0
v -0.75000000 0.0000000e+0 -0.50000000
v -0.75000000 0.0000000e+0 0.0000000e+0
v -0.75000000 2.5000000e-2 -0.50000000
v -0.75000000 2.5000000e-2 0.0000000e+0
v 2.2962127e-18 1.2500000e-2 -0.28750000
v 8.8388348e-3 8.8388348e-3 -0.28750000
v 1.2500000e-2 1.7347235e-18 -0.28750000
v 8.8388348e-3 -8.8388348e-3 -0.28750000
v 3.8270212e-18 -1.2500000e-2 -0.28750000
v -8.8388348e-3 -8.8388348e-3 -0.28750000
v -1.2500000e-2 -1.7347235e-18 -0.28750000
v -2.2962127e-18 1.2500000e-2 -0.21250000
v 8.8388348e-3 8.8388348e-3 -0.21250000
v 1.2500000e-2 0.0000000e+0 -0.21250000
v 8.8388348e-3 -8.8388348e-3 -0.21250000
v -7.6540425e-19 -1.2500000e-2 -0.21250000
v -8.8388348e-3 -8.8388348e-3 -0.21250000
v -1.2500000e-2 -3.4694470e-18 -0.21250000
v 2.8559638e-18 1.7347235e-18 -0.28750000
v -2.5130532e-18 0.0000000e+0 -0.21250000
vt 2.0802211e-2 0.96975804
vt 2.0802211e-2 0.77427652
vt 3.0597157e-2 0.77427652
vt 3.0597157e-2 0.96975804
vt 3.0597157e-2 0.97955299
vt 3.0597157e-2 0.54773110
vt 3.0597157e-2 0.76448157
vt 3.0597157e-2 0.74352309
vt 3.1262820e-2 0.48490090
vt 3.1262820e-2 0.48864926
vt 3.1262820e-2 0.49239762
vt 3.1262820e-2 0.49614599
vt 3.1262820e-2 0.49989435
vt 3.1262820e-2 0.50364271
vt 3.1262820e-2 0.50739108
vt 6.0647657e-2 0.48490090
vt 6.0647657e-2 0.48864926
vt 6.0647657e-2 0.49239762
vt 6.0647657e-2 0.49614599
vt 6.0647657e-2 0.49989435
vt 6.0647657e-2 0.50364271
vt 6.0647657e-2 0.50739108
vt 8.1290110e-2 0.49644787
vt 8.1290110e-2 0.49644787
vt 8.2724547e-2 0.49298484
vt 8.2724547e-2 0.49991091
vt 8.2724547e-2 0.49298484
vt 8.2724547e-2 0.49991091
vt 8.6187583e-2 0.49155040
vt 8.6187583e-2 0.49644787
vt 8.6187583e-2 0.50134535
vt 8.6187583e-2 0.49155040
vt 8.6187583e-2 0.49644787
vt 8.6187583e-2 0.50134535
vt 8.9650619e-2 0.49298484
vt 8.9650619e-2 0.49298484
vt 9.1085056e-2 0.49644787
vt 9.1085056e-2 0.49644787
vt 0.32500483 0.54773110
vt 0.32500483 0.96975804
vt 0.32500483 0.97955299
vt 0.32500483 0.76448157
vt 0.32500483 0.77427652
vt 0.32500483 0.74352309
vt 0.33479978 0.96975804
vt 0.33479978 0.77427652
vn 0.0000000e+0 0.0000000e+0 -1.00000000
vn 3.2710260e-16 0.0000000e+0 1.00000000
vn 0.0000000e+0 -1.00000000 0.0000000e+0
vn 0.0000000e+0 0.0000000e+0 -1.00000000
vn 1.00000000 0.0000000e+0 0.0000000e+0
vn 0.0000000e+0 -1.00000000 0.0000000e+0
vn 0.0000000e+0 0.0000000e+0 1.00000000
vn 1.00000000 0.0000000e+0 0.0000000e+0
vn 0.0000000e+0 1.00000000 0.0000000e+0
vn 0.0000000e+0 0.0000000e+0 -1.00000000
vn 1.00000000 0.0000000e+0 0.0000000e+0
vn 0.0000000e+0 1.00000000 0.0000000e+0
vn 0.0000000e+0 0.0000000e+0 1.00000000
vn 1.00000000 0.0000000e+0 0.0000000e+0
vn 0.0000000e+0 -1.00000000 0.0000000e+0
vn 0.0000000e+0 0.0000000e+0 -1.00000000
vn -1.00000000 0.0000000e+0 0.0000000e+0
vn 0.0000000e+0 -1.00000000 0.0000000e+0
vn 0.0000000e+0 0.0000000e+0 1.00000000
vn -1.00000000 0.0000000e+0 0.0000000e+0
vn 0.0000000e+0 1.00000000 0.0000000e+0
vn 0.0000000e+0 0.0000000e+0 -1.00000000
vn -1.00000000 0.0000000e+0 0.0000000e+0
vn 0.0000000e+0 1.00000000 0.0000000e+0
vn 0.0000000e+0 0.0000000e+0 1.00000000
vn -1.00000000 0.0000000e+0 0.0000000e+0
vn 0.38268343 0.92387953 3.7775424e-17
vn 0.0000000e+0 0.0000000e+0 -1.00000000
vn 0.70710678 0.70710678 4.8554292e-17
vn 0.70710678 0.70710678 4.8554292e-17
vn 0.0000000e+0 0.0000000e+0 -1.00000000
vn 0.0000000e+0 0.0000000e+0 -1.00000000
vn 1.00000000 1.2016967e-16 4.3443313e-17
vn 1.00000000 1.2016967e-16 4.3443313e-17
vn 0.0000000e+0 0.0000000e+0 -1.00000000
vn 0.0000000e+0 0.0000000e+0 -1.00000000
vn 0.70710678 -0.70710678 7.6664671e-18
vn 0.70710678 -0.70710678 7.6664671e-18
vn 0.0000000e+0 0.0000000e+0 -1.00000000
vn 0.0000000e+0 0.0000000e+0 -1.00000000
vn 1.8025451e-16 -1.00000000 -3.0665868e-17
vn 1.8025451e-16 -1.00000000 -3.0665868e-17
vn 0.0000000e+0 0.0000000e+0 -1.00000000
vn 0.0000000e+0 0.0000000e+0 -1.00000000
vn -0.70710678 -0.70710678 -5.1109781e-17
vn -0.70710678 -0.70710678 -5.1109781e-17
vn 0.0000000e+0 0.0000000e+0 -1.00000000
vn 0.0000000e+0 0.0000000e+0 -1.00000000
vn -0.92387953 -0.38268343 -5.1941208e-17
vn 0.0000000e+0 0.0000000e+0 -1.00000000
vn 0.38268343 0.92387953 3.7775424e-17
vn -1.9626156e-15 0.0000000e+0 1.00000000
vn 0.70710678 0.70710678 4.8554292e-17
vn 0.70710678 0.70710678 4.8554292e-17
vn -9.8130779e-16 0.0000000e+0 1.00000000
vn -9.8130779e-16 0.0000000e+0 1.00000000
vn 1.00000000 1.2016967e-16 4.3443313e-17
vn 1.00000000 1.2016967e-16 4.3443313e-17
vn 0.0000000e+0 0.0000000e+0 1.00000000
vn 0.0000000e+0 0.0000000e+0 1.00000000
vn 0.70710678 -0.70710678 7.6664671e-18
vn 0.70710678 -0.70710678 7.6664671e-18
vn 0.0000000e+0 0.0000000e+0 1.00000000
vn 0.0000000e+0 0.0000000e+0 1.00000000
vn 1.8025451e-16 -1.00000000 -3.0665868e-17
vn 1.8025451e-16 -1.00000000 -3.0665868e-17
vn 1.9626156e-15 0.0000000e+0 1.00000000
vn 1.9626156e-15 0.0000000e+0 1.00000000
vn -0.70710678 -0.70710678 -5.1109781e-17
vn -0.70710678 -0.70710678 -5.1109781e-17
vn 1.9626156e-15 0.0000000e+0 1.00000000
vn 1.9626156e-15 0.0000000e+0 1.00000000
vn -0.92387953 -0.38268343 -5.1941208e-17
vn 0.0000000e+0 0.0000000e+0 1.00000000
g 1_1_auv
usemtl 1_auv
s 1
f 1/1/5 3/4/11 4/3/14 2/2/8
f 6/46/20 8/43/26 7/40/23 5/45/17
f 9/15/27 16/22/51 17/21/54 10/14/30
f 10/14/29 17/21/53 18/20/58 11/13/34
f 10/26/31 23/33/1 9/34/28
f 11/13/33 18/20/57 19/19/62 12/12/38
f 11/24/36 23/33/1 10/26/32
f 12/12/37 19/19/61 20/18/66 13/11/42
f 12/25/40 23/33/1 11/24/35
f 13/11/41 20/18/65 21/17/70 14/10/46
f 13/32/44 23/33/1 12/25/39
f 14/10/45 21/17/69 22/16/73 15/9/49
f 14/35/48 23/33/1 13/32/43
f 15/37/50 23/33/1 14/35/47
f 16/31/52 24/30/2 17/28/55
f 17/28/56 24/30/2 18/23/59
f 18/23/60 24/30/2 19/27/63
f 19/27/64 24/30/2 20/29/67
f 20/29/68 24/30/2 21/36/71
f 21/36/72 24/30/2 22/38/74
s 2
f 2/39/6 6/6/18 5/8/15 1/44/3
f 3/4/9 7/40/21 8/43/24 4/3/12
s 3
f 1/5/4 5/41/16 7/40/22 3/4/10
f 4/3/13 8/43/25 6/42/19 2/7/7
