# Exported from Wings 3D 1.5.4
mtllib Eridani_Node_1_Collider.mtl
o Eridani_Node_1_Collider
#72 vertices, 50 faces
v -0.49299107 -0.34312178 -0.34312178
v -0.49000000 -0.45937500 -0.15312500
v -0.49000000 -0.45937500 0.15312500
v -0.49299107 -0.34312178 0.34312178
v -0.49000000 -0.15312500 -0.45937500
v -0.49000000 -0.15312500 0.45937500
v -0.49000000 0.15312500 -0.45937500
v -0.49000000 0.15312500 0.45937500
v -0.49299107 0.34312178 -0.34312178
v -0.49000000 0.45937500 -0.15312500
v -0.49000000 0.45937500 0.15312500
v -0.49299107 0.34312178 0.34312178
v -0.34312178 -0.49299107 -0.34312178
v -0.45937500 -0.49000000 -0.15312500
v -0.45937500 -0.49000000 0.15312500
v -0.34312178 -0.49299107 0.34312178
v -0.34312178 -0.34312178 -0.49299107
v -0.34312178 -0.34312178 0.49299107
v -0.45937500 -0.15312500 -0.49000000
v -0.45937500 -0.15312500 0.49000000
v -0.45937500 0.15312500 -0.49000000
v -0.45937500 0.15312500 0.49000000
v -0.34312178 0.34312178 -0.49299107
v -0.34312178 0.34312178 0.49299107
v -0.34312178 0.49299107 -0.34312178
v -0.45937500 0.49000000 -0.15312500
v -0.45937500 0.49000000 0.15312500
v -0.34312178 0.49299107 0.34312178
v -0.15312500 -0.49000000 -0.45937500
v -0.15312500 -0.49000000 0.45937500
v -0.15312500 -0.45937500 -0.49000000
v -0.15312500 -0.45937500 0.49000000
v -0.15312500 0.45937500 -0.49000000
v -0.15312500 0.45937500 0.49000000
v -0.15312500 0.49000000 -0.45937500
v -0.15312500 0.49000000 0.45937500
v 0.15312500 -0.49000000 -0.45937500
v 0.15312500 -0.49000000 0.45937500
v 0.15312500 -0.45937500 -0.49000000
v 0.15312500 -0.45937500 0.49000000
v 0.15312500 0.45937500 -0.49000000
v 0.15312500 0.45937500 0.49000000
v 0.15312500 0.49000000 -0.45937500
v 0.15312500 0.49000000 0.45937500
v 0.34312178 -0.49299107 -0.34312178
v 0.45937500 -0.49000000 -0.15312500
v 0.45937500 -0.49000000 0.15312500
v 0.34312178 -0.49299107 0.34312178
v 0.34312178 -0.34312178 -0.49299107
v 0.34312178 -0.34312178 0.49299107
v 0.45937500 -0.15312500 -0.49000000
v 0.45937500 -0.15312500 0.49000000
v 0.45937500 0.15312500 -0.49000000
v 0.45937500 0.15312500 0.49000000
v 0.34312178 0.34312178 -0.49299107
v 0.34312178 0.34312178 0.49299107
v 0.34312178 0.49299107 -0.34312178
v 0.45937500 0.49000000 -0.15312500
v 0.45937500 0.49000000 0.15312500
v 0.34312178 0.49299107 0.34312178
v 0.49299107 -0.34312178 -0.34312178
v 0.49000000 -0.45937500 -0.15312500
v 0.49000000 -0.45937500 0.15312500
v 0.49299107 -0.34312178 0.34312178
v 0.49000000 -0.15312500 -0.45937500
v 0.49000000 -0.15312500 0.45937500
v 0.49000000 0.15312500 -0.45937500
v 0.49000000 0.15312500 0.45937500
v 0.49299107 0.34312178 -0.34312178
v 0.49000000 0.45937500 -0.15312500
v 0.49000000 0.45937500 0.15312500
v 0.49299107 0.34312178 0.34312178
vn -1.00000000 -5.9332871e-17 0.0000000e+0
vn -0.57735027 -0.57735027 -0.57735027
vn -0.65158444 -0.38842686 -0.65158444
vn -0.65158444 -0.65158444 -0.38842686
vn -1.00000000 -5.9332871e-17 0.0000000e+0
vn -0.70710678 -0.70710678 0.0000000e+0
vn -0.65158444 -0.65158444 -0.38842686
vn -1.00000000 -5.9332871e-17 0.0000000e+0
vn -0.70710678 -0.70710678 0.0000000e+0
vn -0.65158444 -0.65158444 0.38842686
vn -1.00000000 -5.9332871e-17 0.0000000e+0
vn -0.65158444 -0.65158444 0.38842686
vn -0.65158444 -0.38842686 0.65158444
vn -0.57735027 -0.57735027 0.57735027
vn -1.00000000 -5.9332871e-17 0.0000000e+0
vn -0.70710678 0.0000000e+0 -0.70710678
vn -0.65158444 -0.38842686 -0.65158444
vn -1.00000000 -5.9332871e-17 0.0000000e+0
vn -0.70710678 0.0000000e+0 0.70710678
vn -0.65158444 -0.38842686 0.65158444
vn -1.00000000 -5.9332871e-17 0.0000000e+0
vn -0.70710678 0.0000000e+0 -0.70710678
vn -0.65158444 0.38842686 -0.65158444
vn -1.00000000 -5.9332871e-17 0.0000000e+0
vn -0.65158444 0.38842686 0.65158444
vn -0.70710678 0.0000000e+0 0.70710678
vn -1.00000000 -5.9332871e-17 0.0000000e+0
vn -0.57735027 0.57735027 -0.57735027
vn -0.65158444 0.65158444 -0.38842686
vn -0.65158444 0.38842686 -0.65158444
vn -1.00000000 -5.9332871e-17 0.0000000e+0
vn -0.70710678 0.70710678 0.0000000e+0
vn -0.65158444 0.65158444 -0.38842686
vn -1.00000000 -5.9332871e-17 0.0000000e+0
vn -0.70710678 0.70710678 0.0000000e+0
vn -0.65158444 0.65158444 0.38842686
vn -1.00000000 -5.9332871e-17 0.0000000e+0
vn -0.65158444 0.38842686 0.65158444
vn -0.65158444 0.65158444 0.38842686
vn -0.57735027 0.57735027 0.57735027
vn 0.0000000e+0 -1.00000000 -1.9777624e-17
vn -0.57735027 -0.57735027 -0.57735027
vn -0.65158444 -0.65158444 -0.38842686
vn -0.38842686 -0.65158444 -0.65158444
vn 0.0000000e+0 -1.00000000 -1.9777624e-17
vn -0.70710678 -0.70710678 0.0000000e+0
vn -0.65158444 -0.65158444 -0.38842686
vn 0.0000000e+0 -1.00000000 -1.9777624e-17
vn -0.70710678 -0.70710678 0.0000000e+0
vn -0.65158444 -0.65158444 0.38842686
vn 0.0000000e+0 -1.00000000 -1.9777624e-17
vn -0.38842686 -0.65158444 0.65158444
vn -0.65158444 -0.65158444 0.38842686
vn -0.57735027 -0.57735027 0.57735027
vn -5.9332871e-17 0.0000000e+0 -1.00000000
vn -0.57735027 -0.57735027 -0.57735027
vn -0.65158444 -0.38842686 -0.65158444
vn -0.38842686 -0.65158444 -0.65158444
vn 1.9777624e-17 0.0000000e+0 1.00000000
vn -0.38842686 -0.65158444 0.65158444
vn -0.65158444 -0.38842686 0.65158444
vn -0.57735027 -0.57735027 0.57735027
vn -5.9332871e-17 0.0000000e+0 -1.00000000
vn -0.70710678 0.0000000e+0 -0.70710678
vn -0.65158444 -0.38842686 -0.65158444
vn 1.9777624e-17 0.0000000e+0 1.00000000
vn -0.70710678 0.0000000e+0 0.70710678
vn -0.65158444 -0.38842686 0.65158444
vn -5.9332871e-17 0.0000000e+0 -1.00000000
vn -0.70710678 0.0000000e+0 -0.70710678
vn -0.65158444 0.38842686 -0.65158444
vn 1.9777624e-17 0.0000000e+0 1.00000000
vn -0.65158444 0.38842686 0.65158444
vn -0.70710678 0.0000000e+0 0.70710678
vn -5.9332871e-17 0.0000000e+0 -1.00000000
vn -0.38842686 0.65158444 -0.65158444
vn -0.57735027 0.57735027 -0.57735027
vn -0.65158444 0.38842686 -0.65158444
vn 1.9777624e-17 0.0000000e+0 1.00000000
vn -0.65158444 0.38842686 0.65158444
vn -0.38842686 0.65158444 0.65158444
vn -0.57735027 0.57735027 0.57735027
vn 0.0000000e+0 1.00000000 -4.9444059e-17
vn -0.38842686 0.65158444 -0.65158444
vn -0.57735027 0.57735027 -0.57735027
vn -0.65158444 0.65158444 -0.38842686
vn 0.0000000e+0 1.00000000 -4.9444059e-17
vn -0.70710678 0.70710678 0.0000000e+0
vn -0.65158444 0.65158444 -0.38842686
vn 0.0000000e+0 1.00000000 -4.9444059e-17
vn -0.70710678 0.70710678 0.0000000e+0
vn -0.65158444 0.65158444 0.38842686
vn 0.0000000e+0 1.00000000 -4.9444059e-17
vn -0.65158444 0.65158444 0.38842686
vn -0.38842686 0.65158444 0.65158444
vn -0.57735027 0.57735027 0.57735027
vn 0.0000000e+0 -1.00000000 -1.9777624e-17
vn 0.0000000e+0 -0.70710678 -0.70710678
vn -0.38842686 -0.65158444 -0.65158444
vn 0.0000000e+0 -1.00000000 -1.9777624e-17
vn -0.38842686 -0.65158444 0.65158444
vn 0.0000000e+0 -0.70710678 0.70710678
vn -5.9332871e-17 0.0000000e+0 -1.00000000
vn 0.0000000e+0 -0.70710678 -0.70710678
vn -0.38842686 -0.65158444 -0.65158444
vn 1.9777624e-17 0.0000000e+0 1.00000000
vn -0.38842686 -0.65158444 0.65158444
vn 0.0000000e+0 -0.70710678 0.70710678
vn -5.9332871e-17 0.0000000e+0 -1.00000000
vn -0.38842686 0.65158444 -0.65158444
vn 0.0000000e+0 0.70710678 -0.70710678
vn 1.9777624e-17 0.0000000e+0 1.00000000
vn 0.0000000e+0 0.70710678 0.70710678
vn -0.38842686 0.65158444 0.65158444
vn 0.0000000e+0 1.00000000 -4.9444059e-17
vn -0.38842686 0.65158444 -0.65158444
vn 0.0000000e+0 0.70710678 -0.70710678
vn 0.0000000e+0 1.00000000 -4.9444059e-17
vn 0.0000000e+0 0.70710678 0.70710678
vn -0.38842686 0.65158444 0.65158444
vn 0.0000000e+0 -1.00000000 -1.9777624e-17
vn 0.38842686 -0.65158444 -0.65158444
vn 0.0000000e+0 -0.70710678 -0.70710678
vn 0.0000000e+0 -1.00000000 -1.9777624e-17
vn 0.0000000e+0 -0.70710678 0.70710678
vn 0.38842686 -0.65158444 0.65158444
vn -5.9332871e-17 0.0000000e+0 -1.00000000
vn 0.38842686 -0.65158444 -0.65158444
vn 0.0000000e+0 -0.70710678 -0.70710678
vn 1.9777624e-17 0.0000000e+0 1.00000000
vn 0.0000000e+0 -0.70710678 0.70710678
vn 0.38842686 -0.65158444 0.65158444
vn -5.9332871e-17 0.0000000e+0 -1.00000000
vn 0.0000000e+0 0.70710678 -0.70710678
vn 0.38842686 0.65158444 -0.65158444
vn 1.9777624e-17 0.0000000e+0 1.00000000
vn 0.0000000e+0 0.70710678 0.70710678
vn 0.38842686 0.65158444 0.65158444
vn 0.0000000e+0 1.00000000 -4.9444059e-17
vn 0.0000000e+0 0.70710678 -0.70710678
vn 0.38842686 0.65158444 -0.65158444
vn 0.0000000e+0 1.00000000 -4.9444059e-17
vn 0.0000000e+0 0.70710678 0.70710678
vn 0.38842686 0.65158444 0.65158444
vn 0.0000000e+0 -1.00000000 -1.9777624e-17
vn 0.38842686 -0.65158444 -0.65158444
vn 0.65158444 -0.65158444 -0.38842686
vn 0.57735027 -0.57735027 -0.57735027
vn 0.0000000e+0 -1.00000000 -1.9777624e-17
vn 0.70710678 -0.70710678 0.0000000e+0
vn 0.65158444 -0.65158444 -0.38842686
vn 0.0000000e+0 -1.00000000 -1.9777624e-17
vn 0.70710678 -0.70710678 0.0000000e+0
vn 0.65158444 -0.65158444 0.38842686
vn 0.0000000e+0 -1.00000000 -1.9777624e-17
vn 0.57735027 -0.57735027 0.57735027
vn 0.65158444 -0.65158444 0.38842686
vn 0.38842686 -0.65158444 0.65158444
vn -5.9332871e-17 0.0000000e+0 -1.00000000
vn 0.38842686 -0.65158444 -0.65158444
vn 0.65158444 -0.38842686 -0.65158444
vn 0.57735027 -0.57735027 -0.57735027
vn 1.9777624e-17 0.0000000e+0 1.00000000
vn 0.65158444 -0.38842686 0.65158444
vn 0.57735027 -0.57735027 0.57735027
vn 0.38842686 -0.65158444 0.65158444
vn -5.9332871e-17 0.0000000e+0 -1.00000000
vn 0.70710678 0.0000000e+0 -0.70710678
vn 0.65158444 -0.38842686 -0.65158444
vn 1.9777624e-17 0.0000000e+0 1.00000000
vn 0.65158444 -0.38842686 0.65158444
vn 0.70710678 0.0000000e+0 0.70710678
vn -5.9332871e-17 0.0000000e+0 -1.00000000
vn 0.70710678 0.0000000e+0 -0.70710678
vn 0.65158444 0.38842686 -0.65158444
vn 1.9777624e-17 0.0000000e+0 1.00000000
vn 0.70710678 0.0000000e+0 0.70710678
vn 0.65158444 0.38842686 0.65158444
vn -5.9332871e-17 0.0000000e+0 -1.00000000
vn 0.57735027 0.57735027 -0.57735027
vn 0.38842686 0.65158444 -0.65158444
vn 0.65158444 0.38842686 -0.65158444
vn 1.9777624e-17 0.0000000e+0 1.00000000
vn 0.57735027 0.57735027 0.57735027
vn 0.38842686 0.65158444 0.65158444
vn 0.65158444 0.38842686 0.65158444
vn 0.0000000e+0 1.00000000 -4.9444059e-17
vn 0.65158444 0.65158444 -0.38842686
vn 0.57735027 0.57735027 -0.57735027
vn 0.38842686 0.65158444 -0.65158444
vn 0.0000000e+0 1.00000000 -4.9444059e-17
vn 0.65158444 0.65158444 -0.38842686
vn 0.70710678 0.70710678 0.0000000e+0
vn 0.0000000e+0 1.00000000 -4.9444059e-17
vn 0.70710678 0.70710678 0.0000000e+0
vn 0.65158444 0.65158444 0.38842686
vn 0.0000000e+0 1.00000000 -4.9444059e-17
vn 0.57735027 0.57735027 0.57735027
vn 0.38842686 0.65158444 0.65158444
vn 0.65158444 0.65158444 0.38842686
vn 1.00000000 1.9777624e-17 0.0000000e+0
vn 0.65158444 -0.65158444 -0.38842686
vn 0.65158444 -0.38842686 -0.65158444
vn 0.57735027 -0.57735027 -0.57735027
vn 1.00000000 1.9777624e-17 0.0000000e+0
vn 0.70710678 -0.70710678 0.0000000e+0
vn 0.65158444 -0.65158444 -0.38842686
vn 1.00000000 1.9777624e-17 0.0000000e+0
vn 0.70710678 -0.70710678 0.0000000e+0
vn 0.65158444 -0.65158444 0.38842686
vn 1.00000000 1.9777624e-17 0.0000000e+0
vn 0.65158444 -0.38842686 0.65158444
vn 0.57735027 -0.57735027 0.57735027
vn 0.65158444 -0.65158444 0.38842686
vn 1.00000000 1.9777624e-17 0.0000000e+0
vn 0.70710678 0.0000000e+0 -0.70710678
vn 0.65158444 -0.38842686 -0.65158444
vn 1.00000000 1.9777624e-17 0.0000000e+0
vn 0.65158444 -0.38842686 0.65158444
vn 0.70710678 0.0000000e+0 0.70710678
vn 1.00000000 1.9777624e-17 0.0000000e+0
vn 0.70710678 0.0000000e+0 -0.70710678
vn 0.65158444 0.38842686 -0.65158444
vn 1.00000000 1.9777624e-17 0.0000000e+0
vn 0.70710678 0.0000000e+0 0.70710678
vn 0.65158444 0.38842686 0.65158444
vn 1.00000000 1.9777624e-17 0.0000000e+0
vn 0.65158444 0.65158444 -0.38842686
vn 0.57735027 0.57735027 -0.57735027
vn 0.65158444 0.38842686 -0.65158444
vn 1.00000000 1.9777624e-17 0.0000000e+0
vn 0.65158444 0.65158444 -0.38842686
vn 0.70710678 0.70710678 0.0000000e+0
vn 1.00000000 1.9777624e-17 0.0000000e+0
vn 0.70710678 0.70710678 0.0000000e+0
vn 0.65158444 0.65158444 0.38842686
vn 1.00000000 1.9777624e-17 0.0000000e+0
vn 0.57735027 0.57735027 0.57735027
vn 0.65158444 0.65158444 0.38842686
vn 0.65158444 0.38842686 0.65158444
g Eridani_Node_1_Collider_default
usemtl default
s 1
f 2//5 3//8 4//11 6//18 8//24 12//37 11//34 10//31 9//27 7//21 5//15 1//1
f 16//54 18//62 4//14
f 17//56 13//42 1//2
f 19//63 21//69 23//75 33//109 41//133 55//179 53//173 51//167 49//159 39//127 31//103 17//55
f 23//77 9//28 25//85
f 34//114 36//120 28//95 24//81
f 38//125 40//131 32//108 30//102
f 45//147 61//202 62//207 46//151
f 47//154 63//210 64//214 48//157
f 50//164 64//212 66//219 52//171
f 54//178 68//226 72//240 56//186
f 56//185 60//199 44//144 42//138
f 58//192 70//232 69//228 57//188
f 60//200 72//239 71//236 59//196
s 2
f 1//4 13//43 14//47 2//7
f 3//10 15//50 16//53 4//12
f 4//13 18//61 20//68 6//20
f 5//17 19//65 17//57 1//3
f 8//25 22//73 24//80 12//38
f 9//30 23//78 21//71 7//23
f 26//87 27//90 28//93 36//118 44//142 60//197 59//194 58//191 57//187 43//139 35//115 25//83
f 29//98 31//104 39//129 37//123
f 30//101 32//107 18//60 16//52
f 45//148 49//162 61//204
f 48//158 50//166 40//132 38//126
f 56//184 72//238 60//198
f 61//201 65//215 67//221 69//227 70//231 71//234 72//237 68//224 66//218 64//211 63//208 62//205
f 69//229 55//180 57//189
s 3
f 2//6 14//46 15//49 3//9
f 7//22 21//70 19//64 5//16
f 10//33 26//89 25//86 9//29
f 12//39 28//94 27//92 11//36
f 13//44 17//58 31//105 29//99
f 18//59 32//106 40//130 50//163 52//170 54//176 56//183 42//136 34//112 24//79 22//72 20//66
f 23//76 25//84 35//116 33//110
f 37//122 39//128 49//160 45//146
f 41//135 43//141 57//190 55//181
f 46//150 62//206 63//209 47//153
f 50//165 48//156 64//213
f 53//174 67//222 65//216 51//168
f 59//195 71//235 70//233 58//193
s 4
f 6//19 20//67 22//74 8//26
f 11//35 27//91 26//88 10//32
f 12//40 24//82 28//96
f 13//41 29//97 37//121 45//145 46//149 47//152 48//155 38//124 30//100 16//51 15//48 14//45
f 33//111 35//117 43//140 41//134
f 42//137 44//143 36//119 34//113
f 51//169 65//217 61//203 49//161
f 52//172 66//220 68//225 54//177
f 55//182 69//230 67//223 53//175
