# Exported from Wings 3D 1.5.4
mtllib Eridani_Antenna_4_Arm2.mtl
o Eridani_Antenna_4_Arm2
#34 vertices, 48 faces
v 7.5000000e-2 0.0000000e+0 -4.0115480e-17
v 6.9290965e-2 0.0000000e+0 2.8701257e-2
v 5.3033009e-2 0.0000000e+0 5.3033009e-2
v 2.8701257e-2 0.0000000e+0 6.9290965e-2
v 6.5006213e-18 0.0000000e+0 7.5000000e-2
v -2.8701257e-2 0.0000000e+0 6.9290965e-2
v -5.3033009e-2 0.0000000e+0 5.3033009e-2
v -6.9290965e-2 0.0000000e+0 2.8701257e-2
v -7.5000000e-2 0.0000000e+0 -3.0930629e-17
v -6.9290965e-2 0.0000000e+0 -2.8701257e-2
v -5.3033009e-2 0.0000000e+0 -5.3033009e-2
v -2.8701257e-2 0.0000000e+0 -6.9290965e-2
v -1.1869081e-17 0.0000000e+0 -7.5000000e-2
v 2.8701257e-2 0.0000000e+0 -6.9290965e-2
v 5.3033009e-2 0.0000000e+0 -5.3033009e-2
v 6.9290965e-2 0.0000000e+0 -2.8701257e-2
v 7.5000000e-2 -1.00000000 -4.0115480e-17
v 6.9290965e-2 -1.00000000 2.8701257e-2
v 5.3033009e-2 -1.00000000 5.3033009e-2
v 2.8701257e-2 -1.00000000 6.9290965e-2
v 6.5006213e-18 -1.00000000 7.5000000e-2
v -2.8701257e-2 -1.00000000 6.9290965e-2
v -5.3033009e-2 -1.00000000 5.3033009e-2
v -6.9290965e-2 -1.00000000 2.8701257e-2
v -7.5000000e-2 -1.00000000 -3.0930629e-17
v -6.9290965e-2 -1.00000000 -2.8701257e-2
v -5.3033009e-2 -1.00000000 -5.3033009e-2
v -2.8701257e-2 -1.00000000 -6.9290965e-2
v -1.1869081e-17 -1.00000000 -7.5000000e-2
v 2.8701257e-2 -1.00000000 -6.9290965e-2
v 5.3033009e-2 -1.00000000 -5.3033009e-2
v 6.9290965e-2 -1.00000000 -2.8701257e-2
v -8.6736174e-19 0.0000000e+0 -4.6739435e-17
v -1.7347235e-18 -1.00000000 -4.1850204e-17
vt 0.82007003 0.60476994
vt 0.82007003 0.69976994
vt 0.82222098 0.71654061
vt 0.82222098 0.71654061
vt 0.82238154 0.60476994
vt 0.82238154 0.69976994
vt 0.82276334 0.71381399
vt 0.82276334 0.71926723
vt 0.82276334 0.71381399
vt 0.82276334 0.71926723
vt 0.82430784 0.71150248
vt 0.82430784 0.72157875
vt 0.82430784 0.71150248
vt 0.82430784 0.72157875
vt 0.82510816 0.60476994
vt 0.82510816 0.69976994
vt 0.82661936 0.70995797
vt 0.82661936 0.72312326
vt 0.82661936 0.70995797
vt 0.82661936 0.72312326
vt 0.82783478 0.60476994
vt 0.82783478 0.69976994
vt 0.82934598 0.70941561
vt 0.82934598 0.71654061
vt 0.82934598 0.72366561
vt 0.82934598 0.70941561
vt 0.82934598 0.71654061
vt 0.82934598 0.72366561
vt 0.83014630 0.60476994
vt 0.83014630 0.69976994
vt 0.83015566 0.60476994
vt 0.83015566 0.69976994
vt 0.83207260 0.70995797
vt 0.83207260 0.72312326
vt 0.83207260 0.70995797
vt 0.83207260 0.72312326
vt 0.83246718 0.60476994
vt 0.83246718 0.69976994
vt 0.83438412 0.71150248
vt 0.83438412 0.72157875
vt 0.83438412 0.71150248
vt 0.83438412 0.72157875
vt 0.83519380 0.60476994
vt 0.83519380 0.69976994
vt 0.83592862 0.71381399
vt 0.83592862 0.71926723
vt 0.83592862 0.71381399
vt 0.83592862 0.71926723
vt 0.83647098 0.71654061
vt 0.83647098 0.71654061
vt 0.83792042 0.60476994
vt 0.83792042 0.69976994
vt 0.84023194 0.60476994
vt 0.84023194 0.69976994
vn 0.0000000e+0 1.00000000 0.0000000e+0
vn 0.0000000e+0 -1.00000000 0.0000000e+0
vn 1.00000000 0.0000000e+0 -2.9714306e-16
vn 1.00000000 0.0000000e+0 -2.9714306e-16
vn 0.0000000e+0 1.00000000 0.0000000e+0
vn 0.0000000e+0 1.00000000 0.0000000e+0
vn 0.92387953 0.0000000e+0 0.38268343
vn 0.92387953 0.0000000e+0 0.38268343
vn 0.0000000e+0 1.00000000 0.0000000e+0
vn 0.0000000e+0 1.00000000 0.0000000e+0
vn 0.70710678 0.0000000e+0 0.70710678
vn 0.70710678 0.0000000e+0 0.70710678
vn 0.0000000e+0 1.00000000 0.0000000e+0
vn 0.0000000e+0 1.00000000 0.0000000e+0
vn 0.38268343 0.0000000e+0 0.92387953
vn 0.38268343 0.0000000e+0 0.92387953
vn 0.0000000e+0 1.00000000 0.0000000e+0
vn 0.0000000e+0 1.00000000 0.0000000e+0
vn 1.4149670e-17 0.0000000e+0 1.00000000
vn 1.4149670e-17 0.0000000e+0 1.00000000
vn 0.0000000e+0 1.00000000 0.0000000e+0
vn 0.0000000e+0 1.00000000 0.0000000e+0
vn -0.38268343 0.0000000e+0 0.92387953
vn -0.38268343 0.0000000e+0 0.92387953
vn 0.0000000e+0 1.00000000 0.0000000e+0
vn 0.0000000e+0 1.00000000 0.0000000e+0
vn -0.70710678 0.0000000e+0 0.70710678
vn -0.70710678 0.0000000e+0 0.70710678
vn 0.0000000e+0 1.00000000 0.0000000e+0
vn 0.0000000e+0 1.00000000 0.0000000e+0
vn -0.92387953 0.0000000e+0 0.38268343
vn -0.92387953 0.0000000e+0 0.38268343
vn 0.0000000e+0 1.00000000 0.0000000e+0
vn 0.0000000e+0 1.00000000 0.0000000e+0
vn -1.00000000 0.0000000e+0 0.0000000e+0
vn -1.00000000 0.0000000e+0 0.0000000e+0
vn 0.0000000e+0 1.00000000 0.0000000e+0
vn 0.0000000e+0 1.00000000 0.0000000e+0
vn -0.92387953 0.0000000e+0 -0.38268343
vn -0.92387953 0.0000000e+0 -0.38268343
vn 0.0000000e+0 1.00000000 0.0000000e+0
vn 0.0000000e+0 1.00000000 0.0000000e+0
vn -0.70710678 0.0000000e+0 -0.70710678
vn -0.70710678 0.0000000e+0 -0.70710678
vn 0.0000000e+0 1.00000000 0.0000000e+0
vn 0.0000000e+0 1.00000000 0.0000000e+0
vn -0.38268343 0.0000000e+0 -0.92387953
vn -0.38268343 0.0000000e+0 -0.92387953
vn 0.0000000e+0 1.00000000 0.0000000e+0
vn 0.0000000e+0 1.00000000 0.0000000e+0
vn -2.2639472e-16 0.0000000e+0 -1.00000000
vn -2.2639472e-16 0.0000000e+0 -1.00000000
vn 0.0000000e+0 1.00000000 0.0000000e+0
vn 0.0000000e+0 1.00000000 0.0000000e+0
vn 0.38268343 0.0000000e+0 -0.92387953
vn 0.38268343 0.0000000e+0 -0.92387953
vn 0.0000000e+0 1.00000000 0.0000000e+0
vn 0.0000000e+0 1.00000000 0.0000000e+0
vn 0.70710678 0.0000000e+0 -0.70710678
vn 0.70710678 0.0000000e+0 -0.70710678
vn 0.0000000e+0 1.00000000 0.0000000e+0
vn 0.0000000e+0 1.00000000 0.0000000e+0
vn 0.92387953 0.0000000e+0 -0.38268343
vn 0.92387953 0.0000000e+0 -0.38268343
vn 0.0000000e+0 1.00000000 0.0000000e+0
vn 0.0000000e+0 1.00000000 0.0000000e+0
vn 1.00000000 0.0000000e+0 -2.9714306e-16
vn 1.00000000 0.0000000e+0 -2.9714306e-16
vn 0.0000000e+0 -1.00000000 0.0000000e+0
vn 0.0000000e+0 -1.00000000 0.0000000e+0
vn 0.92387953 0.0000000e+0 0.38268343
vn 0.92387953 0.0000000e+0 0.38268343
vn 0.0000000e+0 -1.00000000 0.0000000e+0
vn 0.0000000e+0 -1.00000000 0.0000000e+0
vn 0.70710678 0.0000000e+0 0.70710678
vn 0.70710678 0.0000000e+0 0.70710678
vn 0.0000000e+0 -1.00000000 0.0000000e+0
vn 0.0000000e+0 -1.00000000 0.0000000e+0
vn 0.38268343 0.0000000e+0 0.92387953
vn 0.38268343 0.0000000e+0 0.92387953
vn 0.0000000e+0 -1.00000000 0.0000000e+0
vn 0.0000000e+0 -1.00000000 0.0000000e+0
vn 1.4149670e-17 0.0000000e+0 1.00000000
vn 1.4149670e-17 0.0000000e+0 1.00000000
vn 0.0000000e+0 -1.00000000 0.0000000e+0
vn 0.0000000e+0 -1.00000000 0.0000000e+0
vn -0.38268343 0.0000000e+0 0.92387953
vn -0.38268343 0.0000000e+0 0.92387953
vn 0.0000000e+0 -1.00000000 0.0000000e+0
vn 0.0000000e+0 -1.00000000 0.0000000e+0
vn -0.70710678 0.0000000e+0 0.70710678
vn -0.70710678 0.0000000e+0 0.70710678
vn 0.0000000e+0 -1.00000000 0.0000000e+0
vn 0.0000000e+0 -1.00000000 0.0000000e+0
vn -0.92387953 0.0000000e+0 0.38268343
vn -0.92387953 0.0000000e+0 0.38268343
vn 0.0000000e+0 -1.00000000 0.0000000e+0
vn 0.0000000e+0 -1.00000000 0.0000000e+0
vn -1.00000000 0.0000000e+0 0.0000000e+0
vn -1.00000000 0.0000000e+0 0.0000000e+0
vn 0.0000000e+0 -1.00000000 0.0000000e+0
vn 0.0000000e+0 -1.00000000 0.0000000e+0
vn -0.92387953 0.0000000e+0 -0.38268343
vn -0.92387953 0.0000000e+0 -0.38268343
vn 0.0000000e+0 -1.00000000 0.0000000e+0
vn 0.0000000e+0 -1.00000000 0.0000000e+0
vn -0.70710678 0.0000000e+0 -0.70710678
vn -0.70710678 0.0000000e+0 -0.70710678
vn 0.0000000e+0 -1.00000000 0.0000000e+0
vn 0.0000000e+0 -1.00000000 0.0000000e+0
vn -0.38268343 0.0000000e+0 -0.92387953
vn -0.38268343 0.0000000e+0 -0.92387953
vn 0.0000000e+0 -1.00000000 0.0000000e+0
vn 0.0000000e+0 -1.00000000 0.0000000e+0
vn -2.2639472e-16 0.0000000e+0 -1.00000000
vn -2.2639472e-16 0.0000000e+0 -1.00000000
vn 0.0000000e+0 -1.00000000 0.0000000e+0
vn 0.0000000e+0 -1.00000000 0.0000000e+0
vn 0.38268343 0.0000000e+0 -0.92387953
vn 0.38268343 0.0000000e+0 -0.92387953
vn 0.0000000e+0 -1.00000000 0.0000000e+0
vn 0.0000000e+0 -1.00000000 0.0000000e+0
vn 0.70710678 0.0000000e+0 -0.70710678
vn 0.70710678 0.0000000e+0 -0.70710678
vn 0.0000000e+0 -1.00000000 0.0000000e+0
vn 0.0000000e+0 -1.00000000 0.0000000e+0
vn 0.92387953 0.0000000e+0 -0.38268343
vn 0.92387953 0.0000000e+0 -0.38268343
vn 0.0000000e+0 -1.00000000 0.0000000e+0
vn 0.0000000e+0 -1.00000000 0.0000000e+0
g Eridani_Antenna_4_Arm2_Eridani_Antenna_4_Arm2_auv
usemtl Eridani_Antenna_4_Arm2_auv
s 1
f 1/28/5 33/27/1 2/36/9
f 2/36/10 33/27/1 3/42/14
f 3/42/13 33/27/1 4/48/18
f 4/48/17 33/27/1 5/50/22
f 5/50/21 33/27/1 6/47/26
f 6/47/25 33/27/1 7/41/30
f 7/41/29 33/27/1 8/35/34
f 8/35/33 33/27/1 9/26/38
f 9/26/37 33/27/1 10/19/42
f 10/19/41 33/27/1 11/13/46
f 11/13/45 33/27/1 12/9/50
f 12/9/49 33/27/1 13/4/54
f 13/4/53 33/27/1 14/10/58
f 14/10/57 33/27/1 15/14/62
f 15/14/61 33/27/1 16/20/66
f 16/20/65 33/27/1 1/28/6
f 17/23/70 34/24/2 32/17/130
f 18/33/73 34/24/2 17/23/69
f 19/39/77 34/24/2 18/33/74
f 20/45/81 34/24/2 19/39/78
f 21/49/85 34/24/2 20/45/82
f 22/46/89 34/24/2 21/49/86
f 23/40/93 34/24/2 22/46/90
f 24/34/97 34/24/2 23/40/94
f 25/25/101 34/24/2 24/34/98
f 26/18/105 34/24/2 25/25/102
f 27/12/109 34/24/2 26/18/106
f 28/8/113 34/24/2 27/12/110
f 29/3/117 34/24/2 28/8/114
f 30/7/121 34/24/2 29/3/118
f 31/11/125 34/24/2 30/7/122
f 32/17/129 34/24/2 31/11/126
s 2
f 1/44/3 17/43/67 32/37/127 16/38/63
f 2/52/8 18/51/72 17/43/68 1/44/4
f 3/54/12 19/53/76 18/51/71 2/52/7
f 4/22/16 20/21/80 19/29/75 3/30/11
f 5/16/20 21/15/84 20/21/79 4/22/15
f 6/6/24 22/5/88 21/15/83 5/16/19
f 7/2/28 23/1/92 22/5/87 6/6/23
f 8/38/32 24/37/96 23/31/91 7/32/27
f 9/44/36 25/43/100 24/37/95 8/38/31
f 10/52/40 26/51/104 25/43/99 9/44/35
f 11/54/44 27/53/108 26/51/103 10/52/39
f 12/22/48 28/21/112 27/29/107 11/30/43
f 13/16/52 29/15/116 28/21/111 12/22/47
f 14/6/56 30/5/120 29/15/115 13/16/51
f 15/2/60 31/1/124 30/5/119 14/6/55
f 16/38/64 32/37/128 31/31/123 15/32/59
