# Exported from Wings 3D 1.5.4
mtllib Eridani_Antenna_4_Arm3.mtl
o Eridani_Antenna_4_Arm3
#48 vertices, 28 faces
v -5.0000000e-2 -8.5000000e-2 6.2500000e-2
v -5.0000000e-2 -8.5000000e-2 -6.2500000e-2
v 5.0000000e-2 -8.5000000e-2 6.2500000e-2
v 5.0000000e-2 -8.5000000e-2 -6.2500000e-2
v -7.5000000e-2 -8.5000000e-2 6.2500000e-2
v -7.5000000e-2 -6.2500000e-2 6.2500000e-2
v -7.5000000e-2 -8.5000000e-2 -6.2500000e-2
v 7.5000000e-2 -6.2500000e-2 6.2500000e-2
v 7.5000000e-2 -8.5000000e-2 6.2500000e-2
v 7.5000000e-2 -8.5000000e-2 -6.2500000e-2
v -7.5000000e-2 -0.14750000 -6.2500000e-2
v -7.5000000e-2 -0.14750000 6.2500000e-2
v -7.5000000e-2 -0.19169417 4.4194174e-2
v -7.5000000e-2 -0.21000000 1.5265567e-15
v -7.5000000e-2 -0.19169417 -4.4194174e-2
v -5.0000000e-2 -0.14750000 -6.2500000e-2
v -5.0000000e-2 -0.14750000 6.2500000e-2
v -5.0000000e-2 -0.19169417 4.4194174e-2
v -5.0000000e-2 -0.21000000 1.4710455e-15
v -5.0000000e-2 -0.19169417 -4.4194174e-2
v 5.0000000e-2 -0.14750000 -6.2500000e-2
v 5.0000000e-2 -0.14750000 6.2500000e-2
v 5.0000000e-2 -0.19169417 4.4194174e-2
v 5.0000000e-2 -0.21000000 1.2073675e-15
v 5.0000000e-2 -0.19169417 -4.4194174e-2
v 7.5000000e-2 -0.14750000 -6.2500000e-2
v 7.5000000e-2 -0.14750000 6.2500000e-2
v 7.5000000e-2 -0.19169417 4.4194174e-2
v 7.5000000e-2 -0.21000000 1.1657342e-15
v 7.5000000e-2 -0.19169417 -4.4194174e-2
v -7.5000000e-2 -6.2500000e-2 -6.2500000e-2
v 7.5000000e-2 -6.2500000e-2 -6.2500000e-2
v 4.6875000e-2 0.0000000e+0 1.2367073e-15
v 3.3145631e-2 0.0000000e+0 3.3145630e-2
v -1.1733721e-16 0.0000000e+0 4.6875000e-2
v -3.3145631e-2 0.0000000e+0 3.3145630e-2
v -4.6875000e-2 0.0000000e+0 9.9899709e-16
v -3.3145631e-2 0.0000000e+0 -3.3145631e-2
v 1.1463244e-16 0.0000000e+0 -4.6875000e-2
v 3.3145631e-2 0.0000000e+0 -3.3145631e-2
v 3.3145630e-2 -6.2500000e-2 3.3145630e-2
v 4.6875000e-2 -6.2500000e-2 1.1014179e-15
v 3.3145630e-2 -6.2500000e-2 -3.3145630e-2
v 1.2002454e-16 -6.2500000e-2 -4.6875000e-2
v -3.3145630e-2 -6.2500000e-2 -3.3145630e-2
v -4.6875000e-2 -6.2500000e-2 8.6370777e-16
v -3.3145630e-2 -6.2500000e-2 3.3145630e-2
v -1.1194511e-16 -6.2500000e-2 4.6875000e-2
vt 0.78897695 0.69546639
vt 0.78897695 0.69546639
vt 0.78897695 0.69846925
vt 0.78897695 0.70307984
vt 0.78897695 0.70882725
vt 0.78897695 0.71088951
vt 0.78897695 0.71089631
vt 0.78897695 0.72297501
vt 0.79018550 0.64659692
vt 0.79018550 0.64659692
vt 0.79018550 0.65263967
vt 0.79018550 0.65263967
vt 0.79018550 0.67788027
vt 0.79018550 0.68392302
vt 0.79018550 0.68609841
vt 0.79018550 0.65265933
vt 0.79018550 0.66232773
vt 0.79139405 0.69546639
vt 0.79139405 0.69546639
vt 0.79139405 0.69846925
vt 0.79139405 0.70307984
vt 0.79139405 0.70882725
vt 0.79195538 0.64232405
vt 0.79195538 0.64232405
vt 0.79195538 0.67360740
vt 0.79301903 0.63105451
vt 0.79301903 0.62501176
vt 0.79622369 0.62501176
vt 0.79622369 0.62501176
vt 0.79622369 0.63105451
vt 0.79622369 0.62501176
vt 0.79622369 0.63105451
vt 0.79622825 0.67183752
vt 0.79622825 0.64055417
vt 0.79622825 0.67183752
vt 0.79622825 0.64055417
vt 0.79942834 0.62501176
vt 0.79942834 0.63105451
vt 0.80050112 0.67360740
vt 0.80050112 0.64232405
vt 0.80050112 0.64232405
vt 0.80106245 0.69546639
vt 0.80106245 0.69546639
vt 0.80106245 0.69846925
vt 0.80106245 0.70307984
vt 0.80106245 0.70882725
vt 0.80227100 0.65265933
vt 0.80227100 0.66232773
vt 0.80227100 0.64659692
vt 0.80227100 0.64659692
vt 0.80227100 0.65263967
vt 0.80227100 0.65263967
vt 0.80227100 0.67788027
vt 0.80227100 0.68392302
vt 0.80227100 0.68609841
vt 0.80347955 0.69546639
vt 0.80347955 0.69546639
vt 0.80347955 0.69846925
vt 0.80347955 0.70307984
vt 0.80347955 0.70882725
vt 0.80347955 0.71088951
vt 0.80347955 0.71089631
vt 0.80347955 0.72297501
vn 1.00000000 -6.5035360e-17 0.0000000e+0
vn 0.0000000e+0 -1.00000000 0.0000000e+0
vn 0.0000000e+0 0.0000000e+0 1.00000000
vn 0.0000000e+0 0.0000000e+0 1.00000000
vn 1.00000000 -6.5035360e-17 0.0000000e+0
vn 0.0000000e+0 -1.00000000 0.0000000e+0
vn 0.0000000e+0 0.0000000e+0 -1.00000000
vn 0.0000000e+0 0.0000000e+0 -1.00000000
vn -1.00000000 0.0000000e+0 0.0000000e+0
vn 0.0000000e+0 -1.00000000 0.0000000e+0
vn 0.0000000e+0 0.0000000e+0 1.00000000
vn 0.0000000e+0 0.0000000e+0 1.00000000
vn -1.00000000 0.0000000e+0 0.0000000e+0
vn 0.0000000e+0 -1.00000000 0.0000000e+0
vn 0.0000000e+0 0.0000000e+0 -1.00000000
vn 0.0000000e+0 0.0000000e+0 -1.00000000
vn -1.00000000 6.7136290e-17 0.0000000e+0
vn 0.0000000e+0 0.0000000e+0 1.00000000
vn 0.0000000e+0 0.0000000e+0 1.00000000
vn -1.00000000 6.7136290e-17 0.0000000e+0
vn 0.0000000e+0 1.00000000 0.0000000e+0
vn 0.0000000e+0 0.0000000e+0 1.00000000
vn -1.00000000 6.7136290e-17 0.0000000e+0
vn 0.0000000e+0 0.0000000e+0 -1.00000000
vn 0.0000000e+0 0.0000000e+0 -1.00000000
vn 1.00000000 0.0000000e+0 0.0000000e+0
vn 0.0000000e+0 1.00000000 0.0000000e+0
vn 0.0000000e+0 0.0000000e+0 1.00000000
vn 1.00000000 0.0000000e+0 0.0000000e+0
vn 0.0000000e+0 0.0000000e+0 1.00000000
vn 0.0000000e+0 0.0000000e+0 1.00000000
vn 1.00000000 0.0000000e+0 0.0000000e+0
vn 0.0000000e+0 0.0000000e+0 -1.00000000
vn 0.0000000e+0 0.0000000e+0 -1.00000000
vn -1.00000000 6.7136290e-17 0.0000000e+0
vn 0.0000000e+0 -0.19509034 -0.98078528
vn 0.0000000e+0 -0.19509034 -0.98078528
vn -1.00000000 6.7136290e-17 0.0000000e+0
vn 0.0000000e+0 -0.19509034 0.98078528
vn 0.0000000e+0 -0.19509034 0.98078528
vn -1.00000000 6.7136290e-17 0.0000000e+0
vn 2.2079424e-16 -0.70710677 0.70710680
vn 2.2079424e-16 -0.70710677 0.70710680
vn -1.00000000 6.7136290e-17 0.0000000e+0
vn 1.2807854e-29 -1.00000000 1.2016968e-14
vn 1.2807854e-29 -1.00000000 1.2016968e-14
vn -1.00000000 6.7136290e-17 0.0000000e+0
vn -2.2079424e-16 -0.70710677 -0.70710680
vn -2.2079424e-16 -0.70710677 -0.70710680
vn 1.00000000 -6.5035360e-17 0.0000000e+0
vn 0.0000000e+0 -0.19509034 -0.98078528
vn 0.0000000e+0 -0.19509034 -0.98078528
vn 1.00000000 -6.5035360e-17 0.0000000e+0
vn 0.0000000e+0 -0.19509034 0.98078528
vn 0.0000000e+0 -0.19509034 0.98078528
vn 1.00000000 -6.5035360e-17 0.0000000e+0
vn 2.2079424e-16 -0.70710677 0.70710680
vn 2.2079424e-16 -0.70710677 0.70710680
vn 1.00000000 -6.5035360e-17 0.0000000e+0
vn 1.2807854e-29 -1.00000000 1.2016968e-14
vn 1.2807854e-29 -1.00000000 1.2016968e-14
vn 1.00000000 -6.5035360e-17 0.0000000e+0
vn -2.2079424e-16 -0.70710677 -0.70710680
vn -2.2079424e-16 -0.70710677 -0.70710680
vn -1.00000000 0.0000000e+0 0.0000000e+0
vn 0.0000000e+0 -0.19509034 -0.98078528
vn 0.0000000e+0 -0.19509034 -0.98078528
vn -1.00000000 0.0000000e+0 0.0000000e+0
vn 0.0000000e+0 -0.19509034 0.98078528
vn 0.0000000e+0 -0.19509034 0.98078528
vn -1.00000000 0.0000000e+0 0.0000000e+0
vn 1.7172885e-16 -0.70710677 0.70710680
vn 1.7172885e-16 -0.70710677 0.70710680
vn -1.00000000 0.0000000e+0 0.0000000e+0
vn 7.9248595e-30 -1.00000000 9.5234470e-15
vn 7.9248595e-30 -1.00000000 9.5234470e-15
vn -1.00000000 0.0000000e+0 0.0000000e+0
vn -1.7172885e-16 -0.70710677 -0.70710680
vn -1.7172885e-16 -0.70710677 -0.70710680
vn 1.00000000 0.0000000e+0 0.0000000e+0
vn 0.0000000e+0 -0.19509034 -0.98078528
vn 0.0000000e+0 -0.19509034 -0.98078528
vn 1.00000000 0.0000000e+0 0.0000000e+0
vn 0.0000000e+0 -0.19509034 0.98078528
vn 0.0000000e+0 -0.19509034 0.98078528
vn 1.00000000 0.0000000e+0 0.0000000e+0
vn 1.7172885e-16 -0.70710677 0.70710680
vn 1.7172885e-16 -0.70710677 0.70710680
vn 1.00000000 0.0000000e+0 0.0000000e+0
vn 7.9248595e-30 -1.00000000 9.5234470e-15
vn 7.9248595e-30 -1.00000000 9.5234470e-15
vn 1.00000000 0.0000000e+0 0.0000000e+0
vn -1.7172885e-16 -0.70710677 -0.70710680
vn -1.7172885e-16 -0.70710677 -0.70710680
vn -1.00000000 6.7136290e-17 0.0000000e+0
vn 0.0000000e+0 1.00000000 0.0000000e+0
vn 0.0000000e+0 0.0000000e+0 -1.00000000
vn 1.00000000 0.0000000e+0 0.0000000e+0
vn 0.0000000e+0 1.00000000 0.0000000e+0
vn 0.0000000e+0 0.0000000e+0 -1.00000000
vn 1.00000000 -5.6568543e-9 1.3038410e-14
vn 1.00000000 -5.6568543e-9 1.3038410e-14
vn 0.70710678 -5.6568534e-9 0.70710678
vn 0.70710678 -5.6568534e-9 0.70710678
vn -1.1416119e-15 -5.6568526e-9 1.00000000
vn -1.1416119e-15 -5.6568526e-9 1.00000000
vn -0.70710678 -5.6568535e-9 0.70710678
vn -0.70710678 -5.6568535e-9 0.70710678
vn -1.00000000 -5.6568543e-9 1.0484804e-14
vn -1.00000000 -5.6568543e-9 1.0484804e-14
vn -0.70710678 -5.6568550e-9 -0.70710678
vn -0.70710678 -5.6568550e-9 -0.70710678
vn 1.2617816e-15 -5.6568559e-9 -1.00000000
vn 1.2617816e-15 -5.6568559e-9 -1.00000000
vn 0.70710678 -5.6568550e-9 -0.70710678
vn 0.70710678 -5.6568550e-9 -0.70710678
vn 0.70710678 -5.6568534e-9 0.70710678
vn 0.70710678 -5.6568534e-9 0.70710678
vn 1.00000000 -5.6568543e-9 1.3038410e-14
vn 1.00000000 -5.6568543e-9 1.3038410e-14
vn 0.70710678 -5.6568550e-9 -0.70710678
vn 0.70710678 -5.6568550e-9 -0.70710678
vn 1.2617816e-15 -5.6568559e-9 -1.00000000
vn 1.2617816e-15 -5.6568559e-9 -1.00000000
vn -0.70710678 -5.6568550e-9 -0.70710678
vn -0.70710678 -5.6568550e-9 -0.70710678
vn -1.00000000 -5.6568543e-9 1.0484804e-14
vn -1.00000000 -5.6568543e-9 1.0484804e-14
vn -0.70710678 -5.6568535e-9 0.70710678
vn -0.70710678 -5.6568535e-9 0.70710678
vn -1.1416119e-15 -5.6568526e-9 1.00000000
vn -1.1416119e-15 -5.6568526e-9 1.00000000
g Eridani_Antenna_4_Arm3_Eridani_Antenna_4_Arm3_auv
usemtl Eridani_Antenna_4_Arm3_auv
s 1
f 1/12/1 17/10/53 18/24/56 19/34/59 20/41/62 16/50/50 2/52/5
f 4/11/13 21/9/65 25/23/77 24/36/74 23/40/71 22/49/68 3/51/9
f 6/55/20 31/15/95 7/14/23 11/13/35 15/25/47 14/35/44 13/39/41 12/53/38 5/54/17
f 9/14/29 27/13/83 28/25/86 29/33/89 30/39/92 26/53/80 10/54/32 32/55/98 8/15/26
s 2
f 2/17/6 4/16/14 3/47/10 1/48/2
f 8/61/27 32/63/99 31/8/96 6/6/21
f 33/30/101 42/28/119 43/37/121 40/38/115
f 34/26/103 41/27/117 42/28/120 33/30/102
f 35/30/105 48/29/131 41/37/118 34/38/104
f 36/26/107 47/27/129 48/29/132 35/30/106
f 37/32/109 46/31/127 47/37/130 36/38/108
f 38/26/111 45/27/125 46/31/128 37/32/110
f 39/32/113 44/31/123 45/37/126 38/38/112
f 40/26/116 43/27/122 44/31/124 39/32/114
s 3
f 2/46/7 7/60/24 31/62/97 32/7/100 10/5/33 4/22/15
f 2/46/8 16/45/51 11/59/36 7/60/25
f 3/46/11 9/60/30 8/62/28 6/7/22 5/5/18 1/22/3
f 3/46/12 22/45/69 27/59/84 9/60/31
f 5/5/19 12/4/39 17/21/54 1/22/4
f 10/5/34 26/4/81 21/21/66 4/22/16
f 11/59/37 16/45/52 20/44/63 15/58/48
f 13/3/42 18/20/57 17/21/55 12/4/40
f 14/2/45 19/19/60 18/20/58 13/3/43
f 15/58/49 20/44/64 19/42/61 14/56/46
f 21/21/67 26/4/82 30/3/94 25/20/79
f 23/44/72 28/58/87 27/59/85 22/45/70
f 24/43/75 29/57/90 28/58/88 23/44/73
f 25/20/78 30/3/93 29/1/91 24/18/76
