# Exported from Wings 3D 1.5.4
mtllib tantares_adapter_s1_s0p5_1.mtl
o mesh
#48 vertices, 24 faces
v 0.46875000 0.12500000 -7.2506020e-18
v 0.45277773 0.12500000 0.12132143
v 0.40594941 0.12500000 0.23437500
v 0.33145630 0.12500000 0.33145630
v 0.23437500 0.12500000 0.40594941
v 0.12132143 0.12500000 0.45277773
v -3.6927712e-17 0.12500000 0.46875000
v -0.12132143 0.12500000 0.45277773
v -0.23437500 0.12500000 0.40594941
v -0.33145630 0.12500000 0.33145630
v -0.40594941 0.12500000 0.23437500
v -0.45277773 0.12500000 0.12132143
v -0.46875000 0.12500000 5.0154717e-17
v -0.45277773 0.12500000 -0.12132143
v -0.40594941 0.12500000 -0.23437500
v -0.33145630 0.12500000 -0.33145630
v -0.23437500 0.12500000 -0.40594941
v -0.12132143 0.12500000 -0.45277773
v -1.5173835e-16 0.12500000 -0.46875000
v 0.12132143 0.12500000 -0.45277773
v 0.23437500 0.12500000 -0.40594941
v 0.33145630 0.12500000 -0.33145630
v 0.40594941 0.12500000 -0.23437500
v 0.45277773 0.12500000 -0.12132143
v 0.62500000 -0.12500000 -1.2576745e-17
v 0.60370364 -0.12500000 0.16176190
v 0.54126588 -0.12500000 0.31250000
v 0.44194174 -0.12500000 0.44194174
v 0.31250000 -0.12500000 0.54126588
v 0.16176190 -0.12500000 0.60370364
v -1.3771492e-17 -0.12500000 0.62500000
v -0.16176190 -0.12500000 0.60370364
v -0.31250000 -0.12500000 0.54126588
v -0.44194174 -0.12500000 0.44194174
v -0.54126588 -0.12500000 0.31250000
v -0.60370364 -0.12500000 0.16176190
v -0.62500000 -0.12500000 6.3963680e-17
v -0.60370364 -0.12500000 -0.16176190
v -0.54126588 -0.12500000 -0.31250000
v -0.44194174 -0.12500000 -0.44194174
v -0.31250000 -0.12500000 -0.54126588
v -0.16176190 -0.12500000 -0.60370364
v -1.6685234e-16 -0.12500000 -0.62500000
v 0.16176190 -0.12500000 -0.60370364
v 0.31250000 -0.12500000 -0.54126588
v 0.44194174 -0.12500000 -0.44194174
v 0.54126588 -0.12500000 -0.31250000
v 0.60370364 -0.12500000 -0.16176190
vt 0.82769312 0.57663733
vt 0.82769312 0.57663733
vt 0.82769312 0.57663733
vt 0.82769312 0.57663733
vt 0.82769312 0.57663733
vt 0.84378218 0.63429366
vt 0.84378218 0.63429366
vt 0.84378218 0.63429366
vt 0.84378218 0.63429366
vt 0.84378218 0.63429366
vt 0.85956027 0.57663733
vt 0.85956027 0.57663733
vt 0.85956027 0.57663733
vt 0.85956027 0.57663733
vt 0.86768254 0.63429366
vt 0.86768254 0.63429366
vt 0.86768254 0.63429366
vt 0.86768254 0.63429366
vt 0.86768254 0.63429366
vt 0.89204935 0.57663733
vt 0.89204935 0.63429366
vt 0.89204935 0.57663733
vt 0.89204935 0.63429366
vt 0.89204935 0.57663733
vt 0.89204935 0.63429366
vt 0.89204935 0.57663733
vt 0.89204935 0.63429366
vt 0.89204935 0.63429366
vt 0.91641616 0.63429366
vt 0.91641616 0.63429366
vt 0.91641616 0.63429366
vt 0.91641616 0.63429366
vt 0.91641616 0.63429366
vt 0.92453843 0.57663733
vt 0.92453843 0.57663733
vt 0.92453843 0.57663733
vt 0.92453843 0.57663733
vt 0.92453843 0.57663733
vt 0.94031652 0.63429366
vt 0.94031652 0.63429366
vt 0.94031652 0.63429366
vt 0.94031652 0.63429366
vt 0.94031652 0.63429366
vt 0.95640558 0.57663733
vt 0.95640558 0.57663733
vt 0.95640558 0.57663733
vt 0.95640558 0.57663733
vt 0.95640558 0.57663733
vn 0.84799830 0.52999894 -1.5360405e-16
vn 0.84799830 0.52999894 -1.5360405e-16
vn 0.81910346 0.52999894 0.21947811
vn 0.81910346 0.52999894 0.21947811
vn 0.73438807 0.52999894 0.42399915
vn 0.73438807 0.52999894 0.42399915
vn 0.59962535 0.52999894 0.59962535
vn 0.59962535 0.52999894 0.59962535
vn 0.42399915 0.52999894 0.73438807
vn 0.42399915 0.52999894 0.73438807
vn 0.21947811 0.52999894 0.81910346
vn 0.21947811 0.52999894 0.81910346
vn 3.0022610e-16 0.52999894 0.84799830
vn 3.0022610e-16 0.52999894 0.84799830
vn -0.21947811 0.52999894 0.81910346
vn -0.21947811 0.52999894 0.81910346
vn -0.42399915 0.52999894 0.73438807
vn -0.42399915 0.52999894 0.73438807
vn -0.59962535 0.52999894 0.59962535
vn -0.59962535 0.52999894 0.59962535
vn -0.73438807 0.52999894 0.42399915
vn -0.73438807 0.52999894 0.42399915
vn -0.81910346 0.52999894 0.21947811
vn -0.81910346 0.52999894 0.21947811
vn -0.84799830 0.52999894 4.8874016e-16
vn -0.84799830 0.52999894 4.8874016e-16
vn -0.81910346 0.52999894 -0.21947811
vn -0.81910346 0.52999894 -0.21947811
vn -0.73438807 0.52999894 -0.42399915
vn -0.73438807 0.52999894 -0.42399915
vn -0.59962535 0.52999894 -0.59962535
vn -0.59962535 0.52999894 -0.59962535
vn -0.42399915 0.52999894 -0.73438807
vn -0.42399915 0.52999894 -0.73438807
vn -0.21947811 0.52999894 -0.81910346
vn -0.21947811 0.52999894 -0.81910346
vn -3.7702812e-16 0.52999894 -0.84799830
vn -3.7702812e-16 0.52999894 -0.84799830
vn 0.21947811 0.52999894 -0.81910346
vn 0.21947811 0.52999894 -0.81910346
vn 0.42399915 0.52999894 -0.73438807
vn 0.42399915 0.52999894 -0.73438807
vn 0.59962535 0.52999894 -0.59962535
vn 0.59962535 0.52999894 -0.59962535
vn 0.73438807 0.52999894 -0.42399915
vn 0.73438807 0.52999894 -0.42399915
vn 0.81910346 0.52999894 -0.21947811
vn 0.81910346 0.52999894 -0.21947811
vn 0.84799830 0.52999894 -1.5360405e-16
vn 0.84799830 0.52999894 -1.5360405e-16
vn 0.81910346 0.52999894 0.21947811
vn 0.81910346 0.52999894 0.21947811
vn 0.73438807 0.52999894 0.42399915
vn 0.73438807 0.52999894 0.42399915
vn 0.59962535 0.52999894 0.59962535
vn 0.59962535 0.52999894 0.59962535
vn 0.42399915 0.52999894 0.73438807
vn 0.42399915 0.52999894 0.73438807
vn 0.21947811 0.52999894 0.81910346
vn 0.21947811 0.52999894 0.81910346
vn 3.0022610e-16 0.52999894 0.84799830
vn 3.0022610e-16 0.52999894 0.84799830
vn -0.21947811 0.52999894 0.81910346
vn -0.21947811 0.52999894 0.81910346
vn -0.42399915 0.52999894 0.73438807
vn -0.42399915 0.52999894 0.73438807
vn -0.59962535 0.52999894 0.59962535
vn -0.59962535 0.52999894 0.59962535
vn -0.73438807 0.52999894 0.42399915
vn -0.73438807 0.52999894 0.42399915
vn -0.81910346 0.52999894 0.21947811
vn -0.81910346 0.52999894 0.21947811
vn -0.84799830 0.52999894 4.8874016e-16
vn -0.84799830 0.52999894 4.8874016e-16
vn -0.81910346 0.52999894 -0.21947811
vn -0.81910346 0.52999894 -0.21947811
vn -0.73438807 0.52999894 -0.42399915
vn -0.73438807 0.52999894 -0.42399915
vn -0.59962535 0.52999894 -0.59962535
vn -0.59962535 0.52999894 -0.59962535
vn -0.42399915 0.52999894 -0.73438807
vn -0.42399915 0.52999894 -0.73438807
vn -0.21947811 0.52999894 -0.81910346
vn -0.21947811 0.52999894 -0.81910346
vn -3.7702812e-16 0.52999894 -0.84799830
vn -3.7702812e-16 0.52999894 -0.84799830
vn 0.21947811 0.52999894 -0.81910346
vn 0.21947811 0.52999894 -0.81910346
vn 0.42399915 0.52999894 -0.73438807
vn 0.42399915 0.52999894 -0.73438807
vn 0.59962535 0.52999894 -0.59962535
vn 0.59962535 0.52999894 -0.59962535
vn 0.73438807 0.52999894 -0.42399915
vn 0.73438807 0.52999894 -0.42399915
vn 0.81910346 0.52999894 -0.21947811
vn 0.81910346 0.52999894 -0.21947811
g mesh_mesh_auv
usemtl mesh_auv
s 2
f 1/41/1 25/47/49 48/36/95 24/31/47
f 2/29/4 26/34/52 25/44/50 1/39/2
f 3/21/6 27/20/54 26/34/51 2/29/3
f 4/15/8 28/11/56 27/20/53 3/21/5
f 5/6/10 29/1/58 28/11/55 4/15/7
f 6/16/12 30/12/60 29/2/57 5/7/9
f 7/23/14 31/22/62 30/12/59 6/16/11
f 8/30/16 32/35/64 31/22/61 7/23/13
f 9/40/18 33/46/66 32/35/63 8/30/15
f 10/29/20 34/34/68 33/45/65 9/39/17
f 11/21/22 35/20/70 34/34/67 10/29/19
f 12/15/24 36/11/72 35/20/69 11/21/21
f 13/6/26 37/1/74 36/11/71 12/15/23
f 14/18/28 38/14/76 37/4/73 13/9/25
f 15/27/30 39/26/78 38/14/75 14/18/27
f 16/32/32 40/37/80 39/26/77 15/27/29
f 17/42/34 41/48/82 40/37/79 16/32/31
f 18/33/36 42/38/84 41/48/81 17/43/33
f 19/28/38 43/26/86 42/38/83 18/33/35
f 20/19/40 44/14/88 43/26/85 19/28/37
f 21/10/42 45/5/90 44/14/87 20/19/39
f 22/17/44 46/13/92 45/3/89 21/8/41
f 23/25/46 47/24/94 46/13/91 22/17/43
f 24/31/48 48/36/96 47/24/93 23/25/45
