# Exported from Wings 3D 1.5.4
mtllib Tantares_SolarBasic_A_Base.mtl
o Tantares_SolarBasic_A_Base
#20 vertices, 18 faces
v -5.0000000e-2 -5.0000000e-2 -3.5000000e-2
v -5.0000000e-2 -5.0000000e-2 1.3000000e-2
v -5.0000000e-2 5.0000000e-2 -3.5000000e-2
v -5.0000000e-2 5.0000000e-2 1.3000000e-2
v 5.0000000e-2 -5.0000000e-2 -3.5000000e-2
v 5.0000000e-2 -5.0000000e-2 1.3000000e-2
v 5.0000000e-2 5.0000000e-2 -3.5000000e-2
v 5.0000000e-2 5.0000000e-2 1.3000000e-2
v -2.2500000e-2 -2.2500000e-2 -7.9000000e-2
v -2.2500000e-2 2.2500000e-2 -7.9000000e-2
v 2.2500000e-2 2.2500000e-2 -7.9000000e-2
v 2.2500000e-2 -2.2500000e-2 -7.9000000e-2
v -4.0000000e-2 4.0000000e-2 1.3000000e-2
v -4.0000000e-2 -4.0000000e-2 1.3000000e-2
v 4.0000000e-2 -4.0000000e-2 1.3000000e-2
v 4.0000000e-2 4.0000000e-2 1.3000000e-2
v -2.8000000e-2 2.8000000e-2 3.1000000e-2
v -2.8000000e-2 -2.8000000e-2 3.1000000e-2
v 2.8000000e-2 -2.8000000e-2 3.1000000e-2
v 2.8000000e-2 2.8000000e-2 3.1000000e-2
vt 0.10674055 0.29419598
vt 0.10674055 0.31821409
vt 0.10674055 0.24393079
vt 0.10674055 0.29396852
vt 0.10674055 0.29419598
vt 0.10674055 0.31821409
vt 0.10674055 0.31845047
vt 0.11174433 0.24893456
vt 0.11174433 0.28896474
vt 0.11774885 0.25493909
vt 0.11774885 0.28296022
vt 0.12050093 0.34429375
vt 0.12050093 0.36681073
vt 0.12050093 0.34441349
vt 0.14301791 0.34429375
vt 0.14301791 0.34441349
vt 0.14301791 0.36681073
vt 0.14576998 0.25493909
vt 0.14576998 0.28296022
vt 0.15177451 0.24893456
vt 0.15177451 0.28896474
vt 0.15677828 0.24393079
vt 0.15677828 0.29396852
vt 0.15677828 0.29419598
vt 0.15677828 0.31821409
vt 0.15677828 0.31821409
vt 0.15677828 0.31845047
vn 0.0000000e+0 -1.00000000 0.0000000e+0
vn -1.00000000 0.0000000e+0 0.0000000e+0
vn -0.84799830 0.0000000e+0 -0.52999894
vn 0.0000000e+0 -0.84799830 -0.52999894
vn 0.0000000e+0 -1.00000000 0.0000000e+0
vn -1.00000000 0.0000000e+0 0.0000000e+0
vn 0.0000000e+0 0.0000000e+0 1.00000000
vn 0.0000000e+0 0.0000000e+0 1.00000000
vn 0.0000000e+0 1.00000000 0.0000000e+0
vn -1.00000000 0.0000000e+0 0.0000000e+0
vn -0.84799830 0.0000000e+0 -0.52999894
vn 0.0000000e+0 0.84799830 -0.52999894
vn 0.0000000e+0 1.00000000 0.0000000e+0
vn -1.00000000 0.0000000e+0 0.0000000e+0
vn 0.0000000e+0 0.0000000e+0 1.00000000
vn 0.0000000e+0 0.0000000e+0 1.00000000
vn 0.0000000e+0 -1.00000000 0.0000000e+0
vn 1.00000000 0.0000000e+0 0.0000000e+0
vn 0.84799830 0.0000000e+0 -0.52999894
vn 0.0000000e+0 -0.84799830 -0.52999894
vn 0.0000000e+0 -1.00000000 0.0000000e+0
vn 1.00000000 0.0000000e+0 0.0000000e+0
vn 0.0000000e+0 0.0000000e+0 1.00000000
vn 0.0000000e+0 0.0000000e+0 1.00000000
vn 0.0000000e+0 1.00000000 0.0000000e+0
vn 1.00000000 0.0000000e+0 0.0000000e+0
vn 0.0000000e+0 0.84799830 -0.52999894
vn 0.84799830 0.0000000e+0 -0.52999894
vn 0.0000000e+0 1.00000000 0.0000000e+0
vn 1.00000000 0.0000000e+0 0.0000000e+0
vn 0.0000000e+0 0.0000000e+0 1.00000000
vn 0.0000000e+0 0.0000000e+0 1.00000000
vn 0.0000000e+0 0.0000000e+0 -1.00000000
vn -0.84799830 0.0000000e+0 -0.52999894
vn 0.0000000e+0 -0.84799830 -0.52999894
vn 0.0000000e+0 0.0000000e+0 -1.00000000
vn -0.84799830 0.0000000e+0 -0.52999894
vn 0.0000000e+0 0.84799830 -0.52999894
vn 0.0000000e+0 0.0000000e+0 -1.00000000
vn 0.0000000e+0 0.84799830 -0.52999894
vn 0.84799830 0.0000000e+0 -0.52999894
vn 0.0000000e+0 0.0000000e+0 -1.00000000
vn 0.84799830 0.0000000e+0 -0.52999894
vn 0.0000000e+0 -0.84799830 -0.52999894
vn 0.0000000e+0 0.0000000e+0 1.00000000
vn 0.0000000e+0 0.0000000e+0 1.00000000
vn -0.83205029 0.0000000e+0 0.55470020
vn 0.0000000e+0 0.83205029 0.55470020
vn 0.0000000e+0 0.0000000e+0 1.00000000
vn 0.0000000e+0 0.0000000e+0 1.00000000
vn -0.83205029 0.0000000e+0 0.55470020
vn 0.0000000e+0 -0.83205029 0.55470020
vn 0.0000000e+0 0.0000000e+0 1.00000000
vn 0.0000000e+0 0.0000000e+0 1.00000000
vn 0.0000000e+0 -0.83205029 0.55470020
vn 0.83205029 0.0000000e+0 0.55470020
vn 0.0000000e+0 0.0000000e+0 1.00000000
vn 0.0000000e+0 0.0000000e+0 1.00000000
vn 0.83205029 0.0000000e+0 0.55470020
vn 0.0000000e+0 0.83205029 0.55470020
vn 0.0000000e+0 0.0000000e+0 1.00000000
vn -0.83205029 0.0000000e+0 0.55470020
vn 0.0000000e+0 0.83205029 0.55470020
vn 0.0000000e+0 0.0000000e+0 1.00000000
vn -0.83205029 0.0000000e+0 0.55470020
vn 0.0000000e+0 -0.83205029 0.55470020
vn 0.0000000e+0 0.0000000e+0 1.00000000
vn 0.0000000e+0 -0.83205029 0.55470020
vn 0.83205029 0.0000000e+0 0.55470020
vn 0.0000000e+0 0.0000000e+0 1.00000000
vn 0.83205029 0.0000000e+0 0.55470020
vn 0.0000000e+0 0.83205029 0.55470020
g Tantares_SolarBasic_A_Base_Tantares_SolarBasic_A_Base_auv
usemtl Tantares_SolarBasic_A_Base_auv
s 1
f 1/27/4 9/16/35 12/14/44 5/7/20
f 2/1/6 4/24/14 3/26/10 1/2/2
f 5/25/18 7/2/26 8/1/30 6/24/22
f 7/27/27 11/16/40 10/14/38 3/7/12
f 18/10/64 19/18/67 20/19/70 17/11/61
s 2
f 1/26/1 5/6/17 6/5/21 2/24/5
f 3/27/11 10/16/37 9/14/34 1/7/3
f 4/5/13 8/24/29 7/26/25 3/6/9
f 5/27/19 12/16/43 11/14/41 7/7/28
f 13/9/48 17/11/63 20/19/72 16/21/60
f 15/20/55 19/18/68 18/10/66 14/8/52
s 3
f 10/17/36 11/13/39 12/12/42 9/15/33
f 14/8/51 18/10/65 17/11/62 13/9/47
f 16/21/59 20/19/71 19/18/69 15/20/56
s 4
f 2/3/7 14/8/49 13/9/45 4/4/15
f 4/4/16 13/9/46 16/21/58 8/23/32
f 6/22/23 15/20/53 14/8/50 2/3/8
f 8/23/31 16/21/57 15/20/54 6/22/24
