# Exported from Wings 3D 1.5.4
mtllib ./default collider.mtl
o 1
#32 vertices, 18 faces
v 0.37500000 7.5000000e-2 -7.4592138e-2
v 0.37500000 7.5000000e-2 7.4592138e-2
v 0.31790965 7.5000000e-2 0.21242044
v 0.21242044 7.5000000e-2 0.31790965
v 7.4592138e-2 7.5000000e-2 0.37500000
v -7.4592138e-2 7.5000000e-2 0.37500000
v -0.21242044 7.5000000e-2 0.31790965
v -0.31790965 7.5000000e-2 0.21242044
v -0.37500000 7.5000000e-2 7.4592138e-2
v -0.37500000 7.5000000e-2 -7.4592138e-2
v -0.31790965 7.5000000e-2 -0.21242044
v -0.21242044 7.5000000e-2 -0.31790965
v -7.4592138e-2 7.5000000e-2 -0.37500000
v 7.4592138e-2 7.5000000e-2 -0.37500000
v 0.21242044 7.5000000e-2 -0.31790965
v 0.31790965 7.5000000e-2 -0.21242044
v 0.37500000 -7.5000000e-2 -7.4592138e-2
v 0.37500000 -7.5000000e-2 7.4592138e-2
v 0.31790965 -7.5000000e-2 0.21242044
v 0.21242044 -7.5000000e-2 0.31790965
v 7.4592138e-2 -7.5000000e-2 0.37500000
v -7.4592138e-2 -7.5000000e-2 0.37500000
v -0.21242044 -7.5000000e-2 0.31790965
v -0.31790965 -7.5000000e-2 0.21242044
v -0.37500000 -7.5000000e-2 7.4592138e-2
v -0.37500000 -7.5000000e-2 -7.4592138e-2
v -0.31790965 -7.5000000e-2 -0.21242044
v -0.21242044 -7.5000000e-2 -0.31790965
v -7.4592138e-2 -7.5000000e-2 -0.37500000
v 7.4592138e-2 -7.5000000e-2 -0.37500000
v 0.21242044 -7.5000000e-2 -0.31790965
v 0.31790965 -7.5000000e-2 -0.21242044
vn 0.0000000e+0 1.00000000 -1.9380097e-18
vn 0.92387953 0.0000000e+0 -0.38268343
vn 1.00000000 0.0000000e+0 0.0000000e+0
vn 0.0000000e+0 1.00000000 -1.9380097e-18
vn 0.92387953 0.0000000e+0 0.38268343
vn 1.00000000 0.0000000e+0 0.0000000e+0
vn 0.0000000e+0 1.00000000 -1.9380097e-18
vn 0.70710678 0.0000000e+0 0.70710678
vn 0.92387953 0.0000000e+0 0.38268343
vn 0.0000000e+0 1.00000000 -1.9380097e-18
vn 0.38268343 0.0000000e+0 0.92387953
vn 0.70710678 0.0000000e+0 0.70710678
vn 0.0000000e+0 1.00000000 -1.9380097e-18
vn -3.7209787e-16 0.0000000e+0 1.00000000
vn 0.38268343 0.0000000e+0 0.92387953
vn 0.0000000e+0 1.00000000 -1.9380097e-18
vn -0.38268343 0.0000000e+0 0.92387953
vn -3.7209787e-16 0.0000000e+0 1.00000000
vn 0.0000000e+0 1.00000000 -1.9380097e-18
vn -0.70710678 0.0000000e+0 0.70710678
vn -0.38268343 0.0000000e+0 0.92387953
vn 0.0000000e+0 1.00000000 -1.9380097e-18
vn -0.92387953 0.0000000e+0 0.38268343
vn -0.70710678 0.0000000e+0 0.70710678
vn 0.0000000e+0 1.00000000 -1.9380097e-18
vn -1.00000000 0.0000000e+0 0.0000000e+0
vn -0.92387953 0.0000000e+0 0.38268343
vn 0.0000000e+0 1.00000000 -1.9380097e-18
vn -0.92387953 0.0000000e+0 -0.38268343
vn -1.00000000 0.0000000e+0 0.0000000e+0
vn 0.0000000e+0 1.00000000 -1.9380097e-18
vn -0.70710678 0.0000000e+0 -0.70710678
vn -0.92387953 0.0000000e+0 -0.38268343
vn 0.0000000e+0 1.00000000 -1.9380097e-18
vn -0.38268343 0.0000000e+0 -0.92387953
vn -0.70710678 0.0000000e+0 -0.70710678
vn 0.0000000e+0 1.00000000 -1.9380097e-18
vn 3.7209787e-16 0.0000000e+0 -1.00000000
vn -0.38268343 0.0000000e+0 -0.92387953
vn 0.0000000e+0 1.00000000 -1.9380097e-18
vn 0.38268343 0.0000000e+0 -0.92387953
vn 3.7209787e-16 0.0000000e+0 -1.00000000
vn 0.0000000e+0 1.00000000 -1.9380097e-18
vn 0.70710678 0.0000000e+0 -0.70710678
vn 0.38268343 0.0000000e+0 -0.92387953
vn 0.0000000e+0 1.00000000 -1.9380097e-18
vn 0.92387953 0.0000000e+0 -0.38268343
vn 0.70710678 0.0000000e+0 -0.70710678
vn 0.92387953 0.0000000e+0 -0.38268343
vn 1.00000000 0.0000000e+0 0.0000000e+0
vn 0.0000000e+0 -1.00000000 9.6900487e-18
vn 0.92387953 0.0000000e+0 0.38268343
vn 1.00000000 0.0000000e+0 0.0000000e+0
vn 0.0000000e+0 -1.00000000 9.6900487e-18
vn 0.70710678 0.0000000e+0 0.70710678
vn 0.92387953 0.0000000e+0 0.38268343
vn 0.0000000e+0 -1.00000000 9.6900487e-18
vn 0.38268343 0.0000000e+0 0.92387953
vn 0.70710678 0.0000000e+0 0.70710678
vn 0.0000000e+0 -1.00000000 9.6900487e-18
vn -3.7209787e-16 0.0000000e+0 1.00000000
vn 0.38268343 0.0000000e+0 0.92387953
vn 0.0000000e+0 -1.00000000 9.6900487e-18
vn -0.38268343 0.0000000e+0 0.92387953
vn -3.7209787e-16 0.0000000e+0 1.00000000
vn 0.0000000e+0 -1.00000000 9.6900487e-18
vn -0.70710678 0.0000000e+0 0.70710678
vn -0.38268343 0.0000000e+0 0.92387953
vn 0.0000000e+0 -1.00000000 9.6900487e-18
vn -0.92387953 0.0000000e+0 0.38268343
vn -0.70710678 0.0000000e+0 0.70710678
vn 0.0000000e+0 -1.00000000 9.6900487e-18
vn -1.00000000 0.0000000e+0 0.0000000e+0
vn -0.92387953 0.0000000e+0 0.38268343
vn 0.0000000e+0 -1.00000000 9.6900487e-18
vn -0.92387953 0.0000000e+0 -0.38268343
vn -1.00000000 0.0000000e+0 0.0000000e+0
vn 0.0000000e+0 -1.00000000 9.6900487e-18
vn -0.70710678 0.0000000e+0 -0.70710678
vn -0.92387953 0.0000000e+0 -0.38268343
vn 0.0000000e+0 -1.00000000 9.6900487e-18
vn -0.38268343 0.0000000e+0 -0.92387953
vn -0.70710678 0.0000000e+0 -0.70710678
vn 0.0000000e+0 -1.00000000 9.6900487e-18
vn 3.7209787e-16 0.0000000e+0 -1.00000000
vn -0.38268343 0.0000000e+0 -0.92387953
vn 0.0000000e+0 -1.00000000 9.6900487e-18
vn 0.38268343 0.0000000e+0 -0.92387953
vn 3.7209787e-16 0.0000000e+0 -1.00000000
vn 0.0000000e+0 -1.00000000 9.6900487e-18
vn 0.70710678 0.0000000e+0 -0.70710678
vn 0.38268343 0.0000000e+0 -0.92387953
vn 0.0000000e+0 -1.00000000 9.6900487e-18
vn 0.92387953 0.0000000e+0 -0.38268343
vn 0.70710678 0.0000000e+0 -0.70710678
vn 0.0000000e+0 -1.00000000 9.6900487e-18
g 1_default
usemtl default
s 1
f 2//6 18//53 17//50 1//3
f 4//12 20//59 19//55 3//8
f 6//18 22//65 21//61 5//14
f 8//24 24//71 23//67 7//20
f 11//33 27//80 26//76 10//29
f 13//39 29//86 28//82 12//35
f 16//48 32//95 31//91 15//44
s 2
f 1//2 17//49 32//94 16//47
f 3//9 19//56 18//52 2//5
f 5//15 21//62 20//58 4//11
f 7//21 23//68 22//64 6//17
f 9//27 25//74 24//70 8//23
f 12//36 28//83 27//79 11//32
f 14//42 30//89 29//85 13//38
s 3
f 1//1 16//46 15//43 14//40 13//37 12//34 11//31 10//28 9//25 8//22 7//19 6//16 5//13 4//10 3//7 2//4
f 18//54 19//57 20//60 21//63 22//66 23//69 24//72 25//75 26//78 27//81 28//84 29//87 30//90 31//93 32//96 17//51
s 4
f 10//30 26//77 25//73 9//26
f 15//45 31//92 30//88 14//41
o 2
#32 vertices, 18 faces
v 0.37500000 -7.5000000e-2 -7.4592138e-2
v 0.37500000 -7.5000000e-2 7.4592138e-2
v 0.31790965 -7.5000000e-2 0.21242044
v 0.21242044 -7.5000000e-2 0.31790965
v 7.4592138e-2 -7.5000000e-2 0.37500000
v -7.4592138e-2 -7.5000000e-2 0.37500000
v -0.21242044 -7.5000000e-2 0.31790965
v -0.31790965 -7.5000000e-2 0.21242044
v -0.37500000 -7.5000000e-2 7.4592138e-2
v -0.37500000 -7.5000000e-2 -7.4592138e-2
v -0.31790965 -7.5000000e-2 -0.21242044
v -0.21242044 -7.5000000e-2 -0.31790965
v -7.4592138e-2 -7.5000000e-2 -0.37500000
v 7.4592138e-2 -7.5000000e-2 -0.37500000
v 0.21242044 -7.5000000e-2 -0.31790965
v 0.31790965 -7.5000000e-2 -0.21242044
v 0.46875000 -0.17500000 -9.3240172e-2
v 0.46875000 -0.17500000 9.3240172e-2
v 0.39738706 -0.17500000 0.26552555
v 0.26552555 -0.17500000 0.39738706
v 9.3240172e-2 -0.17500000 0.46875000
v -9.3240172e-2 -0.17500000 0.46875000
v -0.26552555 -0.17500000 0.39738706
v -0.39738706 -0.17500000 0.26552555
v -0.46875000 -0.17500000 9.3240172e-2
v -0.46875000 -0.17500000 -9.3240172e-2
v -0.39738706 -0.17500000 -0.26552555
v -0.26552555 -0.17500000 -0.39738706
v -9.3240172e-2 -0.17500000 -0.46875000
v 9.3240172e-2 -0.17500000 -0.46875000
v 0.26552555 -0.17500000 -0.39738706
v 0.39738706 -0.17500000 -0.26552555
vn 0.72953720 0.68394113 0.0000000e+0
vn 0.67400449 0.68394113 -0.27918180
vn 0.0000000e+0 1.00000000 1.9380097e-18
vn 0.72953720 0.68394113 0.0000000e+0
vn 0.67400449 0.68394113 0.27918180
vn 0.0000000e+0 1.00000000 1.9380097e-18
vn 0.67400449 0.68394113 0.27918180
vn 0.51586070 0.68394113 0.51586070
vn 0.0000000e+0 1.00000000 1.9380097e-18
vn 0.51586070 0.68394113 0.51586070
vn 0.27918180 0.68394113 0.67400449
vn 0.0000000e+0 1.00000000 1.9380097e-18
vn 0.27918180 0.68394113 0.67400449
vn -2.2621603e-16 0.68394113 0.72953720
vn 0.0000000e+0 1.00000000 1.9380097e-18
vn -2.2621603e-16 0.68394113 0.72953720
vn -0.27918180 0.68394113 0.67400449
vn 0.0000000e+0 1.00000000 1.9380097e-18
vn -0.27918180 0.68394113 0.67400449
vn -0.51586070 0.68394113 0.51586070
vn 0.0000000e+0 1.00000000 1.9380097e-18
vn -0.51586070 0.68394113 0.51586070
vn -0.67400449 0.68394113 0.27918180
vn 0.0000000e+0 1.00000000 1.9380097e-18
vn -0.67400449 0.68394113 0.27918180
vn -0.72953720 0.68394113 0.0000000e+0
vn 0.0000000e+0 1.00000000 1.9380097e-18
vn -0.72953720 0.68394113 0.0000000e+0
vn -0.67400449 0.68394113 -0.27918180
vn 0.0000000e+0 1.00000000 1.9380097e-18
vn -0.67400449 0.68394113 -0.27918180
vn -0.51586070 0.68394113 -0.51586070
vn 0.0000000e+0 1.00000000 1.9380097e-18
vn -0.51586070 0.68394113 -0.51586070
vn -0.27918180 0.68394113 -0.67400449
vn 0.0000000e+0 1.00000000 1.9380097e-18
vn -0.27918180 0.68394113 -0.67400449
vn 2.2621603e-16 0.68394113 -0.72953720
vn 0.0000000e+0 1.00000000 1.9380097e-18
vn 2.2621603e-16 0.68394113 -0.72953720
vn 0.27918180 0.68394113 -0.67400449
vn 0.0000000e+0 1.00000000 1.9380097e-18
vn 0.27918180 0.68394113 -0.67400449
vn 0.51586070 0.68394113 -0.51586070
vn 0.0000000e+0 1.00000000 1.9380097e-18
vn 0.51586070 0.68394113 -0.51586070
vn 0.67400449 0.68394113 -0.27918180
vn 0.0000000e+0 1.00000000 1.9380097e-18
vn 0.0000000e+0 -1.00000000 -3.2248482e-17
vn 0.72953720 0.68394113 0.0000000e+0
vn 0.67400449 0.68394113 -0.27918180
vn 0.0000000e+0 -1.00000000 -3.2248482e-17
vn 0.72953720 0.68394113 0.0000000e+0
vn 0.67400449 0.68394113 0.27918180
vn 0.0000000e+0 -1.00000000 -3.2248482e-17
vn 0.67400449 0.68394113 0.27918180
vn 0.51586070 0.68394113 0.51586070
vn 0.0000000e+0 -1.00000000 -3.2248482e-17
vn 0.51586070 0.68394113 0.51586070
vn 0.27918180 0.68394113 0.67400449
vn 0.0000000e+0 -1.00000000 -3.2248482e-17
vn 0.27918180 0.68394113 0.67400449
vn -2.2621603e-16 0.68394113 0.72953720
vn 0.0000000e+0 -1.00000000 -3.2248482e-17
vn -2.2621603e-16 0.68394113 0.72953720
vn -0.27918180 0.68394113 0.67400449
vn 0.0000000e+0 -1.00000000 -3.2248482e-17
vn -0.27918180 0.68394113 0.67400449
vn -0.51586070 0.68394113 0.51586070
vn 0.0000000e+0 -1.00000000 -3.2248482e-17
vn -0.51586070 0.68394113 0.51586070
vn -0.67400449 0.68394113 0.27918180
vn 0.0000000e+0 -1.00000000 -3.2248482e-17
vn -0.67400449 0.68394113 0.27918180
vn -0.72953720 0.68394113 0.0000000e+0
vn 0.0000000e+0 -1.00000000 -3.2248482e-17
vn -0.72953720 0.68394113 0.0000000e+0
vn -0.67400449 0.68394113 -0.27918180
vn 0.0000000e+0 -1.00000000 -3.2248482e-17
vn -0.67400449 0.68394113 -0.27918180
vn -0.51586070 0.68394113 -0.51586070
vn 0.0000000e+0 -1.00000000 -3.2248482e-17
vn -0.51586070 0.68394113 -0.51586070
vn -0.27918180 0.68394113 -0.67400449
vn 0.0000000e+0 -1.00000000 -3.2248482e-17
vn -0.27918180 0.68394113 -0.67400449
vn 2.2621603e-16 0.68394113 -0.72953720
vn 0.0000000e+0 -1.00000000 -3.2248482e-17
vn 2.2621603e-16 0.68394113 -0.72953720
vn 0.27918180 0.68394113 -0.67400449
vn 0.0000000e+0 -1.00000000 -3.2248482e-17
vn 0.27918180 0.68394113 -0.67400449
vn 0.51586070 0.68394113 -0.51586070
vn 0.0000000e+0 -1.00000000 -3.2248482e-17
vn 0.51586070 0.68394113 -0.51586070
vn 0.67400449 0.68394113 -0.27918180
g 2_default
usemtl default
s 1
f 33//98 49//147 64//192 48//143
f 35//103 51//152 50//150 34//101
f 38//112 54//161 53//159 37//110
f 40//118 56//167 55//165 39//116
f 42//124 58//173 57//171 41//122
f 45//133 61//182 60//180 44//131
f 47//139 63//188 62//186 46//137
s 2
f 34//100 50//149 49//146 33//97
f 37//109 53//158 52//156 36//107
f 39//115 55//164 54//162 38//113
f 41//121 57//170 56//168 40//119
f 43//127 59//176 58//174 42//125
f 46//136 62//185 61//183 45//134
f 48//142 64//191 63//189 47//140
s 3
f 33//99 48//144 47//141 46//138 45//135 44//132 43//129 42//126 41//123 40//120 39//117 38//114 37//111 36//108 35//105 34//102
f 50//148 51//151 52//154 53//157 54//160 55//163 56//166 57//169 58//172 59//175 60//178 61//181 62//184 63//187 64//190 49//145
s 4
f 36//106 52//155 51//153 35//104
f 44//130 60//179 59//177 43//128
