# Exported from Wings 3D 1.5.4
mtllib vega_solar_srf_1_pivot.mtl
o vega_solar_srf_1_pivot
#32 vertices, 17 faces
v 1.2500000e-2 1.7218911e-17 1.7347235e-18
v 8.8388348e-3 -8.8388348e-3 1.7347235e-18
v 2.1098149e-18 -1.2500000e-2 1.7347235e-18
v -8.8388348e-3 -8.8388348e-3 1.7347235e-18
v -1.2500000e-2 1.5688103e-17 1.7347235e-18
v -8.8388348e-3 8.8388348e-3 1.7347235e-18
v -9.5180205e-19 1.2500000e-2 0.0000000e+0
v 8.8388348e-3 8.8388348e-3 1.7347235e-18
v 1.2500000e-2 1.5688103e-17 -2.0000000e-2
v 8.8388348e-3 -8.8388348e-3 -2.0000000e-2
v 2.3266554e-18 -1.2500000e-2 -2.0000000e-2
v -8.8388348e-3 -8.8388348e-3 -2.0000000e-2
v -1.2500000e-2 1.4157294e-17 -2.0000000e-2
v -8.8388348e-3 8.8388348e-3 -2.0000000e-2
v -7.3496162e-19 1.2500000e-2 -2.0000000e-2
v 8.8388348e-3 8.8388348e-3 -2.0000000e-2
v -0.37500000 5.0000000e-3 -1.2500000e-2
v -0.37500000 7.9652298e-19 -7.5000000e-3
v -0.37500000 -5.0000000e-3 -1.2500000e-2
v -0.37500000 -4.2812382e-19 -1.7500000e-2
v 0.37500000 5.0000000e-3 -1.2500000e-2
v 0.37500000 1.8419958e-19 -7.5000000e-3
v 0.37500000 -5.0000000e-3 -1.2500000e-2
v 0.37500000 -1.0404472e-18 -1.7500000e-2
v -1.2500000e-2 -7.2816229e-19 -1.7500000e-2
v -1.2500000e-2 4.9648451e-19 -7.5000000e-3
v -1.0428932e-2 5.0000000e-3 -1.2500000e-2
v -1.0428932e-2 -5.0000000e-3 -1.2500000e-2
v 1.0428932e-2 5.0000000e-3 -1.2500000e-2
v 1.2500000e-2 4.8423804e-19 -7.5000000e-3
v 1.2500000e-2 -7.4040876e-19 -1.7500000e-2
v 1.0428932e-2 -5.0000000e-3 -1.2500000e-2
vn 9.3199467e-19 1.00000000 7.8504623e-17
vn 0.0000000e+0 0.0000000e+0 1.00000000
vn -4.6599733e-19 -1.00000000 1.5700925e-16
vn 4.6599733e-19 -1.5700925e-16 -1.00000000
vn 2.3299867e-18 1.00000000 -7.8504623e-17
vn 4.6599733e-19 7.8504623e-17 1.00000000
vn -1.3979920e-18 -1.00000000 1.5700925e-16
vn 4.6599733e-19 -7.8504623e-17 -1.00000000
vn 4.6599733e-19 -1.5700925e-16 -1.00000000
vn 0.0000000e+0 0.0000000e+0 1.00000000
vn 9.3199467e-19 1.00000000 7.8504623e-17
vn -4.6599733e-19 -1.00000000 1.5700925e-16
vn 2.3299867e-18 1.00000000 -7.8504623e-17
vn 4.6599733e-19 7.8504623e-17 1.00000000
vn 4.6599733e-19 -7.8504623e-17 -1.00000000
vn -1.3979920e-18 -1.00000000 1.5700925e-16
vn 1.00000000 1.2016967e-16 9.5830839e-18
vn 1.00000000 1.2016967e-16 9.5830839e-18
vn 0.70710678 -0.70710678 9.5830839e-17
vn 0.70710678 -0.70710678 9.5830839e-17
vn 6.0084837e-17 -1.00000000 1.1499701e-16
vn 6.0084837e-17 -1.00000000 1.1499701e-16
vn -0.70710678 -0.70710678 6.7081587e-17
vn -0.70710678 -0.70710678 6.7081587e-17
vn -1.00000000 -1.8025451e-16 -9.5830839e-18
vn -1.00000000 -1.8025451e-16 -9.5830839e-18
vn -0.70710678 0.70710678 -1.0541392e-16
vn -0.70710678 0.70710678 -1.0541392e-16
vn -9.0127256e-17 1.00000000 -1.1499701e-16
vn -9.0127256e-17 1.00000000 -1.1499701e-16
vn 0.70710678 0.70710678 -5.7498503e-17
vn 0.70710678 0.70710678 -5.7498503e-17
vn 6.1331737e-17 -6.9388939e-17 -1.00000000
vn 1.00000000 1.2016967e-16 9.5830839e-18
vn 1.00000000 1.2016967e-16 9.5830839e-18
vn 6.1331737e-17 -6.9388939e-17 -1.00000000
vn 0.70710678 -0.70710678 9.5830839e-17
vn 0.70710678 -0.70710678 9.5830839e-17
vn 6.1331737e-17 -6.9388939e-17 -1.00000000
vn 6.0084837e-17 -1.00000000 1.1499701e-16
vn 6.0084837e-17 -1.00000000 1.1499701e-16
vn 6.1331737e-17 -6.9388939e-17 -1.00000000
vn -0.70710678 -0.70710678 6.7081587e-17
vn -0.70710678 -0.70710678 6.7081587e-17
vn 6.1331737e-17 -6.9388939e-17 -1.00000000
vn -1.00000000 -1.8025451e-16 -9.5830839e-18
vn -1.00000000 -1.8025451e-16 -9.5830839e-18
vn 6.1331737e-17 -6.9388939e-17 -1.00000000
vn -0.70710678 0.70710678 -1.0541392e-16
vn -0.70710678 0.70710678 -1.0541392e-16
vn 6.1331737e-17 -6.9388939e-17 -1.00000000
vn -9.0127256e-17 1.00000000 -1.1499701e-16
vn -9.0127256e-17 1.00000000 -1.1499701e-16
vn 6.1331737e-17 -6.9388939e-17 -1.00000000
vn 0.70710678 0.70710678 -5.7498503e-17
vn 0.70710678 0.70710678 -5.7498503e-17
g vega_solar_srf_1_pivot_default
usemtl default
s 1
f 10//36 11//39 12//42 13//45 14//48 15//51 16//54 9//33
f 17//1 27//11 25//9 20//4
f 18//2 26//10 27//11 17//1
f 19//3 28//12 26//10 18//2
f 20//4 25//9 28//12 19//3
f 21//5 29//13 30//14 22//6
f 22//6 30//14 32//16 23//7
f 23//7 32//16 31//15 24//8
f 24//8 31//15 29//13 21//5
s 2
f 1//17 9//34 16//55 8//31
f 2//20 10//38 9//35 1//18
f 3//22 11//41 10//37 2//19
f 4//24 12//44 11//40 3//21
f 5//26 13//47 12//43 4//23
f 6//28 14//50 13//46 5//25
f 7//30 15//53 14//49 6//27
f 8//32 16//56 15//52 7//29
