# Exported from Wings 3D 1.5.4
mtllib vega_solar_srf_1_panel_2.mtl
o vega_solar_srf_1_panel_2
#18 vertices, 14 faces
v -0.37500000 -1.2500000e-2 -0.48750000
v -0.37500000 -1.2500000e-2 1.2500000e-2
v -0.37500000 1.2500000e-2 -0.48750000
v -0.37500000 1.2500000e-2 1.2500000e-2
v 0.37500000 -1.2500000e-2 -0.48750000
v 0.37500000 -1.2500000e-2 1.2500000e-2
v 0.37500000 1.2500000e-2 -0.48750000
v 0.37500000 1.2500000e-2 1.2500000e-2
v -1.2500000e-2 -6.2500000e-2 -0.50000000
v -1.2500000e-2 -6.2500000e-2 -0.48750000
v -1.2500000e-2 1.2500000e-2 -0.50000000
v -1.2500000e-2 1.2500000e-2 -0.48750000
v 1.2500000e-2 -6.2500000e-2 -0.50000000
v 1.2500000e-2 -6.2500000e-2 -0.48750000
v 1.2500000e-2 1.2500000e-2 -0.50000000
v 1.2500000e-2 1.2500000e-2 -0.48750000
v 1.2500000e-2 -1.2500000e-2 -0.48750000
v -1.2500000e-2 -1.2500000e-2 -0.48750000
vt 3.8039640e-2 0.67665260
vt 3.8039640e-2 0.96154667
vt 0.22937601 0.67665260
vt 0.22937601 0.96154667
vt 0.26452519 0.67665260
vt 0.26452519 0.96154667
vt 0.45744191 0.67665260
vt 0.45744191 0.96154667
vt 0.49282777 0.67665260
vt 0.49282777 0.96154667
vt 0.50000000 0.50000000
vt 0.50312816 0.67665260
vt 0.50312816 0.96154667
vt 0.53952874 0.67665260
vt 0.53952874 0.96154667
vt 0.54983350 0.67665260
vt 0.54983350 0.96154667
vt 0.58873726 0.77280036
vt 0.58873726 0.96154667
vt 0.59846405 0.77280036
vt 0.59846405 0.96154667
vt 0.63534323 0.77280036
vt 0.63534323 0.96154667
vt 0.64562609 0.77280036
vt 0.64562609 0.96154667
vn 0.0000000e+0 -1.00000000 0.0000000e+0
vn 0.0000000e+0 0.0000000e+0 -1.00000000
vn -1.00000000 0.0000000e+0 0.0000000e+0
vn 0.0000000e+0 -1.00000000 0.0000000e+0
vn 0.0000000e+0 0.0000000e+0 1.00000000
vn -1.00000000 0.0000000e+0 0.0000000e+0
vn 0.0000000e+0 1.00000000 0.0000000e+0
vn 0.0000000e+0 0.0000000e+0 -1.00000000
vn -1.00000000 0.0000000e+0 0.0000000e+0
vn 0.0000000e+0 1.00000000 0.0000000e+0
vn 0.0000000e+0 0.0000000e+0 1.00000000
vn -1.00000000 0.0000000e+0 0.0000000e+0
vn 0.0000000e+0 -1.00000000 0.0000000e+0
vn 0.0000000e+0 0.0000000e+0 -1.00000000
vn 1.00000000 0.0000000e+0 0.0000000e+0
vn 0.0000000e+0 -1.00000000 0.0000000e+0
vn 0.0000000e+0 0.0000000e+0 1.00000000
vn 1.00000000 0.0000000e+0 0.0000000e+0
vn 0.0000000e+0 1.00000000 0.0000000e+0
vn 0.0000000e+0 0.0000000e+0 -1.00000000
vn 1.00000000 0.0000000e+0 0.0000000e+0
vn 0.0000000e+0 1.00000000 0.0000000e+0
vn 0.0000000e+0 0.0000000e+0 1.00000000
vn 1.00000000 0.0000000e+0 0.0000000e+0
vn 0.0000000e+0 -1.00000000 0.0000000e+0
vn 0.0000000e+0 0.0000000e+0 -1.00000000
vn -1.00000000 0.0000000e+0 0.0000000e+0
vn 0.0000000e+0 -1.00000000 0.0000000e+0
vn -1.00000000 0.0000000e+0 0.0000000e+0
vn 0.0000000e+0 0.0000000e+0 1.00000000
vn 0.0000000e+0 1.00000000 0.0000000e+0
vn 0.0000000e+0 0.0000000e+0 -1.00000000
vn -1.00000000 0.0000000e+0 0.0000000e+0
vn -1.00000000 0.0000000e+0 0.0000000e+0
vn 0.0000000e+0 1.00000000 0.0000000e+0
vn -1.00000000 0.0000000e+0 0.0000000e+0
vn 0.0000000e+0 -1.00000000 0.0000000e+0
vn 0.0000000e+0 0.0000000e+0 -1.00000000
vn 1.00000000 0.0000000e+0 0.0000000e+0
vn 0.0000000e+0 -1.00000000 0.0000000e+0
vn 0.0000000e+0 0.0000000e+0 1.00000000
vn 1.00000000 0.0000000e+0 0.0000000e+0
vn 0.0000000e+0 1.00000000 0.0000000e+0
vn 0.0000000e+0 0.0000000e+0 -1.00000000
vn 1.00000000 0.0000000e+0 0.0000000e+0
vn 1.00000000 0.0000000e+0 0.0000000e+0
vn 0.0000000e+0 1.00000000 0.0000000e+0
vn 1.00000000 0.0000000e+0 0.0000000e+0
vn 1.00000000 0.0000000e+0 0.0000000e+0
vn 0.0000000e+0 0.0000000e+0 1.00000000
vn 1.00000000 0.0000000e+0 0.0000000e+0
vn -1.00000000 0.0000000e+0 0.0000000e+0
vn 0.0000000e+0 0.0000000e+0 1.00000000
vn -1.00000000 0.0000000e+0 0.0000000e+0
g vega_solar_srf_1_panel_2_vega_solar_srf_1_panel_2_auv
usemtl vega_solar_srf_1_panel_2_auv
s 1
f 2/25/6 4/23/12 3/22/9 1/24/3
f 5/21/15 7/19/21 8/18/24 6/20/18
f 10/11/30 14/11/41 17/11/50 18/11/53
f 11/11/32 15/11/44 13/11/38 9/11/26
s 2
f 1/7/1 5/8/13 6/6/16 2/5/4
f 4/2/10 8/1/22 7/3/19 3/4/7
f 9/11/25 13/11/37 14/11/40 10/11/28
f 12/11/35 16/11/47 15/11/43 11/11/31
s 3
f 2/12/5 6/13/17 8/10/23 4/9/11
f 3/15/8 7/14/20 5/16/14 1/17/2
f 10/11/29 18/11/52 11/11/33 9/11/27
f 11/11/34 18/11/54 12/11/36
f 13/11/39 15/11/46 17/11/51 14/11/42
f 16/11/48 17/11/49 15/11/45
