# Exported from Wings 3D 1.5.4
mtllib vega_solar_srf_1_hinge.mtl
o vega_solar_srf_1_hinge
#40 vertices, 24 faces
v -0.38125000 6.2500000e-3 0.0000000e+0
v -0.38125000 4.4194174e-3 4.4194174e-3
v -0.38125000 1.8957096e-17 6.2500000e-3
v -0.38125000 -4.4194174e-3 4.4194174e-3
v -0.38125000 -6.2500000e-3 0.0000000e+0
v -0.37500000 6.2500000e-3 0.0000000e+0
v -0.37500000 4.4194174e-3 4.4194174e-3
v -0.37500000 2.8969882e-17 6.2500000e-3
v -0.37500000 -4.4194174e-3 4.4194174e-3
v -0.37500000 -6.2500000e-3 0.0000000e+0
v -0.38125000 -4.4194174e-3 -2.3169417e-2
v -0.38125000 1.7426288e-17 -2.5000000e-2
v -0.38125000 4.4194174e-3 -2.3169417e-2
v -0.37500000 -4.4194174e-3 -2.3169417e-2
v -0.37500000 2.7439074e-17 -2.5000000e-2
v -0.37500000 4.4194174e-3 -2.3169417e-2
v -0.38125000 6.2500000e-3 -1.8750000e-2
v -0.37500000 6.2500000e-3 -1.8750000e-2
v -0.37500000 -6.2500000e-3 -1.8750000e-2
v -0.38125000 -6.2500000e-3 -1.8750000e-2
v 0.38125000 6.2500000e-3 0.0000000e+0
v 0.38125000 4.4194174e-3 4.4194174e-3
v 0.38125000 1.5364366e-17 6.2500000e-3
v 0.38125000 -4.4194174e-3 4.4194174e-3
v 0.38125000 -6.2500000e-3 0.0000000e+0
v 0.37500000 6.2500000e-3 0.0000000e+0
v 0.37500000 4.4194174e-3 4.4194174e-3
v 0.37500000 2.8969882e-17 6.2500000e-3
v 0.37500000 -4.4194174e-3 4.4194174e-3
v 0.37500000 -6.2500000e-3 0.0000000e+0
v 0.38125000 -4.4194174e-3 -2.3169417e-2
v 0.38125000 1.3833558e-17 -2.5000000e-2
v 0.38125000 4.4194174e-3 -2.3169417e-2
v 0.37500000 -4.4194174e-3 -2.3169417e-2
v 0.37500000 2.7439074e-17 -2.5000000e-2
v 0.37500000 4.4194174e-3 -2.3169417e-2
v 0.38125000 6.2500000e-3 -1.8750000e-2
v 0.37500000 6.2500000e-3 -1.8750000e-2
v 0.37500000 -6.2500000e-3 -1.8750000e-2
v 0.38125000 -6.2500000e-3 -1.8750000e-2
vt 0.68344318 0.90761946
vt 0.68344318 0.95633270
vt 0.68420727 0.80353908
vt 0.68420727 0.81525337
vt 0.68420727 0.85233432
vt 0.68420727 0.86404860
vt 0.68515870 0.90347783
vt 0.68515870 0.91176108
vt 0.68515870 0.95219107
vt 0.68515870 0.96047432
vt 0.68678055 0.85233432
vt 0.68678055 0.86404860
vt 0.68678055 0.80353908
vt 0.68678055 0.81525337
vt 0.68930033 0.90176232
vt 0.68930033 0.91347660
vt 0.68930033 0.95047555
vt 0.68930033 0.96218984
vt 0.69299299 0.85233432
vt 0.69299299 0.86404860
vt 0.69299299 0.80353908
vt 0.69299299 0.81525337
vt 0.70177870 0.85233432
vt 0.70177870 0.86404860
vt 0.70177870 0.80353908
vt 0.70177870 0.81525337
vt 0.70547136 0.90176232
vt 0.70547136 0.91347660
vt 0.70547136 0.95047555
vt 0.70547136 0.96218984
vt 0.70799114 0.85233432
vt 0.70799114 0.86404860
vt 0.70799114 0.80353908
vt 0.70799114 0.81525337
vt 0.70961299 0.90347783
vt 0.70961299 0.91176108
vt 0.70961299 0.95219107
vt 0.70961299 0.96047432
vt 0.71056441 0.80353908
vt 0.71056441 0.81525337
vt 0.71056441 0.85233432
vt 0.71056441 0.86404860
vt 0.71132850 0.90761946
vt 0.71132850 0.95633270
vn -1.6000322e-15 0.98078528 0.19509032
vn -1.6000322e-15 0.98078528 0.19509032
vn -1.00000000 0.0000000e+0 0.0000000e+0
vn -1.1039713e-15 0.70710678 0.70710678
vn -1.1039713e-15 0.70710678 0.70710678
vn -1.00000000 0.0000000e+0 0.0000000e+0
vn 1.0673211e-31 0.0000000e+0 1.00000000
vn 1.0673211e-31 0.0000000e+0 1.00000000
vn -1.00000000 0.0000000e+0 0.0000000e+0
vn 1.0426395e-15 -0.70710678 0.70710678
vn 1.0426395e-15 -0.70710678 0.70710678
vn -1.00000000 0.0000000e+0 0.0000000e+0
vn 1.4715106e-15 -0.98078528 0.19509032
vn 1.4715106e-15 -0.98078528 0.19509032
vn -1.00000000 0.0000000e+0 0.0000000e+0
vn -1.6000322e-15 0.98078528 0.19509032
vn -1.6000322e-15 0.98078528 0.19509032
vn 1.00000000 4.4014415e-15 0.0000000e+0
vn -1.1039713e-15 0.70710678 0.70710678
vn -1.1039713e-15 0.70710678 0.70710678
vn 1.00000000 4.4014415e-15 0.0000000e+0
vn 1.0673211e-31 0.0000000e+0 1.00000000
vn 1.0673211e-31 0.0000000e+0 1.00000000
vn 1.00000000 4.4014415e-15 0.0000000e+0
vn 1.0426395e-15 -0.70710678 0.70710678
vn 1.0426395e-15 -0.70710678 0.70710678
vn 1.00000000 4.4014415e-15 0.0000000e+0
vn 1.4715106e-15 -0.98078528 0.19509032
vn 1.4715106e-15 -0.98078528 0.19509032
vn 1.00000000 4.4014415e-15 0.0000000e+0
vn 1.0886383e-15 -0.70710678 -0.70710678
vn 1.0886383e-15 -0.70710678 -0.70710678
vn -1.00000000 0.0000000e+0 0.0000000e+0
vn 1.5332934e-17 -6.0084837e-17 -1.00000000
vn 1.5332934e-17 -6.0084837e-17 -1.00000000
vn -1.00000000 0.0000000e+0 0.0000000e+0
vn -1.0733054e-15 0.70710678 -0.70710678
vn -1.0733054e-15 0.70710678 -0.70710678
vn -1.00000000 0.0000000e+0 0.0000000e+0
vn 1.0886383e-15 -0.70710678 -0.70710678
vn 1.0886383e-15 -0.70710678 -0.70710678
vn 1.00000000 4.4014415e-15 0.0000000e+0
vn 1.5332934e-17 -6.0084837e-17 -1.00000000
vn 1.5332934e-17 -6.0084837e-17 -1.00000000
vn 1.00000000 4.4014415e-15 0.0000000e+0
vn -1.0733054e-15 0.70710678 -0.70710678
vn -1.0733054e-15 0.70710678 -0.70710678
vn 1.00000000 4.4014415e-15 0.0000000e+0
vn -1.5711456e-15 0.98078528 -0.19509032
vn -1.5711456e-15 0.98078528 -0.19509032
vn -1.00000000 0.0000000e+0 0.0000000e+0
vn -1.5711456e-15 0.98078528 -0.19509032
vn -1.5711456e-15 0.98078528 -0.19509032
vn 1.00000000 4.4014415e-15 0.0000000e+0
vn 1.5003972e-15 -0.98078528 -0.19509032
vn 1.5003972e-15 -0.98078528 -0.19509032
vn 1.00000000 4.4014415e-15 0.0000000e+0
vn 1.5003972e-15 -0.98078528 -0.19509032
vn 1.5003972e-15 -0.98078528 -0.19509032
vn -1.00000000 0.0000000e+0 0.0000000e+0
vn 2.2859700e-15 0.98078528 0.19509032
vn 2.2859700e-15 0.98078528 0.19509032
vn 1.00000000 3.7726642e-15 0.0000000e+0
vn 1.5946252e-15 0.70710678 0.70710678
vn 1.5946252e-15 0.70710678 0.70710678
vn 1.00000000 3.7726642e-15 0.0000000e+0
vn 1.5332934e-17 9.0127256e-17 1.00000000
vn 1.5332934e-17 9.0127256e-17 1.00000000
vn 1.00000000 3.7726642e-15 0.0000000e+0
vn -1.5026275e-15 -0.70710678 0.70710678
vn -1.5026275e-15 -0.70710678 0.70710678
vn 1.00000000 3.7726642e-15 0.0000000e+0
vn -2.1430052e-15 -0.98078528 0.19509032
vn -2.1430052e-15 -0.98078528 0.19509032
vn 1.00000000 3.7726642e-15 0.0000000e+0
vn 2.2859700e-15 0.98078528 0.19509032
vn 2.2859700e-15 0.98078528 0.19509032
vn -1.00000000 6.2877736e-16 0.0000000e+0
vn 1.5946252e-15 0.70710678 0.70710678
vn 1.5946252e-15 0.70710678 0.70710678
vn -1.00000000 6.2877736e-16 0.0000000e+0
vn 1.5332934e-17 9.0127256e-17 1.00000000
vn 1.5332934e-17 9.0127256e-17 1.00000000
vn -1.00000000 6.2877736e-16 0.0000000e+0
vn -1.5026275e-15 -0.70710678 0.70710678
vn -1.5026275e-15 -0.70710678 0.70710678
vn -1.00000000 6.2877736e-16 0.0000000e+0
vn -2.1430052e-15 -0.98078528 0.19509032
vn -2.1430052e-15 -0.98078528 0.19509032
vn -1.00000000 6.2877736e-16 0.0000000e+0
vn -1.5792922e-15 -0.70710678 -0.70710678
vn -1.5792922e-15 -0.70710678 -0.70710678
vn 1.00000000 3.7726642e-15 0.0000000e+0
vn -1.5332934e-17 0.0000000e+0 -1.00000000
vn -1.5332934e-17 0.0000000e+0 -1.00000000
vn 1.00000000 3.7726642e-15 0.0000000e+0
vn 1.5486264e-15 0.70710678 -0.70710678
vn 1.5486264e-15 0.70710678 -0.70710678
vn 1.00000000 3.7726642e-15 0.0000000e+0
vn -1.5792922e-15 -0.70710678 -0.70710678
vn -1.5792922e-15 -0.70710678 -0.70710678
vn -1.00000000 6.2877736e-16 0.0000000e+0
vn -1.5332934e-17 0.0000000e+0 -1.00000000
vn -1.5332934e-17 0.0000000e+0 -1.00000000
vn -1.00000000 6.2877736e-16 0.0000000e+0
vn 1.5486264e-15 0.70710678 -0.70710678
vn 1.5486264e-15 0.70710678 -0.70710678
vn -1.00000000 6.2877736e-16 0.0000000e+0
vn 2.2426401e-15 0.98078528 -0.19509032
vn 2.2426401e-15 0.98078528 -0.19509032
vn 1.00000000 3.7726642e-15 0.0000000e+0
vn 2.2426401e-15 0.98078528 -0.19509032
vn 2.2426401e-15 0.98078528 -0.19509032
vn -1.00000000 6.2877736e-16 0.0000000e+0
vn -2.1863351e-15 -0.98078528 -0.19509032
vn -2.1863351e-15 -0.98078528 -0.19509032
vn -1.00000000 6.2877736e-16 0.0000000e+0
vn -2.1863351e-15 -0.98078528 -0.19509032
vn -2.1863351e-15 -0.98078528 -0.19509032
vn 1.00000000 3.7726642e-15 0.0000000e+0
g vega_solar_srf_1_hinge_vega_solar_srf_1_hinge_auv
usemtl vega_solar_srf_1_hinge_auv
s 1
f 1/17/3 17/29/51 13/37/39 12/44/36 11/38/33 20/30/60 5/18/15 4/10/12 3/2/9 2/9/6
f 7/35/21 8/43/24 9/36/27 10/28/30 19/16/57 14/8/42 15/1/45 16/7/48 18/15/54 6/27/18
f 22/9/66 23/2/69 24/10/72 25/18/75 40/30/120 31/38/93 32/44/96 33/37/99 37/29/111 21/17/63
f 26/27/78 38/15/114 36/7/108 35/1/105 34/8/102 39/16/117 30/28/90 29/36/87 28/43/84 27/35/81
s 2
f 2/12/5 7/11/20 6/19/16 1/20/1
f 3/6/8 8/5/23 7/11/19 2/12/4
f 4/13/11 9/14/26 8/4/22 3/3/7
f 5/21/13 10/22/28 9/14/25 4/13/10
f 5/21/14 20/25/59 19/26/56 10/22/29
f 6/19/17 18/23/53 17/24/50 1/20/2
f 11/33/31 12/39/35 15/40/44 14/34/40
f 12/42/34 13/32/38 16/31/47 15/41/43
f 13/32/37 17/24/49 18/23/52 16/31/46
f 14/34/41 19/26/55 20/25/58 11/33/32
f 21/20/61 26/19/76 27/11/80 22/12/65
f 21/20/62 37/24/110 38/23/113 26/19/77
f 22/12/64 27/11/79 28/5/83 23/6/68
f 23/3/67 28/4/82 29/14/86 24/13/71
f 24/13/70 29/14/85 30/22/88 25/21/73
f 30/22/89 39/26/116 40/25/119 25/21/74
f 31/33/92 40/25/118 39/26/115 34/34/101
f 34/34/100 35/40/104 32/39/95 31/33/91
f 35/41/103 36/31/107 33/32/98 32/42/94
f 36/31/106 38/23/112 37/24/109 33/32/97
