# Exported from Wings 3D 1.5.4
mtllib dorsal_frame.mtl
o mesh1
#96 vertices, 64 faces
v 3.7500000e-2 1.2500000e-2 0.0000000e+0
v 2.8661165e-2 8.8388348e-3 0.0000000e+0
v 2.5000000e-2 2.2976589e-19 0.0000000e+0
v 2.8661165e-2 -8.8388348e-3 0.0000000e+0
v 3.7500000e-2 -1.2500000e-2 0.0000000e+0
v 4.6338835e-2 -8.8388348e-3 0.0000000e+0
v 5.0000000e-2 -4.3626596e-18 -2.2204460e-16
v 4.6338835e-2 8.8388348e-3 0.0000000e+0
v 3.7500000e-2 1.2500000e-2 -3.00000000
v 2.8661165e-2 8.8388348e-3 -3.00000000
v 2.5000000e-2 2.2976589e-19 -3.00000000
v 2.8661165e-2 -8.8388348e-3 -3.00000000
v 3.7500000e-2 -1.2500000e-2 -3.00000000
v 4.6338835e-2 -8.8388348e-3 -3.00000000
v 5.0000000e-2 -4.3626596e-18 -3.00000000
v 4.6338835e-2 8.8388348e-3 -3.00000000
v 1.2500000e-2 3.7500000e-2 0.0000000e+0
v 8.8388348e-3 2.8661165e-2 0.0000000e+0
v 3.0616170e-18 2.5000000e-2 0.0000000e+0
v -8.8388348e-3 2.8661165e-2 0.0000000e+0
v -1.2500000e-2 3.7500000e-2 0.0000000e+0
v -8.8388348e-3 4.6338835e-2 0.0000000e+0
v 0.0000000e+0 5.0000000e-2 -2.2204460e-16
v 8.8388348e-3 4.6338835e-2 0.0000000e+0
v 1.2500000e-2 3.7500000e-2 -3.00000000
v 8.8388348e-3 2.8661165e-2 -3.00000000
v 3.0616170e-18 2.5000000e-2 -3.00000000
v -8.8388348e-3 2.8661165e-2 -3.00000000
v -1.2500000e-2 3.7500000e-2 -3.00000000
v -8.8388348e-3 4.6338835e-2 -3.00000000
v 0.0000000e+0 5.0000000e-2 -3.00000000
v 8.8388348e-3 4.6338835e-2 -3.00000000
v 1.2500000e-2 -3.7500000e-2 0.0000000e+0
v 8.8388348e-3 -2.8661165e-2 0.0000000e+0
v 3.0616170e-18 -2.5000000e-2 0.0000000e+0
v -8.8388348e-3 -2.8661165e-2 0.0000000e+0
v -1.2500000e-2 -3.7500000e-2 0.0000000e+0
v -8.8388348e-3 -4.6338835e-2 0.0000000e+0
v 0.0000000e+0 -5.0000000e-2 -2.2204460e-16
v 8.8388348e-3 -4.6338835e-2 0.0000000e+0
v 1.2500000e-2 -3.7500000e-2 -3.00000000
v 8.8388348e-3 -2.8661165e-2 -3.00000000
v 3.0616170e-18 -2.5000000e-2 -3.00000000
v -8.8388348e-3 -2.8661165e-2 -3.00000000
v -1.2500000e-2 -3.7500000e-2 -3.00000000
v -8.8388348e-3 -4.6338835e-2 -3.00000000
v 0.0000000e+0 -5.0000000e-2 -3.00000000
v 8.8388348e-3 -4.6338835e-2 -3.00000000
v -3.7500000e-2 1.2500000e-2 0.0000000e+0
v -2.8661165e-2 8.8388348e-3 0.0000000e+0
v -2.5000000e-2 3.2913829e-18 0.0000000e+0
v -2.8661165e-2 -8.8388348e-3 0.0000000e+0
v -3.7500000e-2 -1.2500000e-2 0.0000000e+0
v -4.6338835e-2 -8.8388348e-3 0.0000000e+0
v -5.0000000e-2 1.7605744e-18 -2.2204460e-16
v -4.6338835e-2 8.8388348e-3 0.0000000e+0
v -3.7500000e-2 1.2500000e-2 -3.00000000
v -2.8661165e-2 8.8388348e-3 -3.00000000
v -2.5000000e-2 3.2913829e-18 -3.00000000
v -2.8661165e-2 -8.8388348e-3 -3.00000000
v -3.7500000e-2 -1.2500000e-2 -3.00000000
v -4.6338835e-2 -8.8388348e-3 -3.00000000
v -5.0000000e-2 1.7605744e-18 -3.00000000
v -4.6338835e-2 8.8388348e-3 -3.00000000
v -4.6338835e-2 8.8388348e-3 -1.50000000
v -5.0000000e-2 1.7605744e-18 -1.50000000
v -4.6338835e-2 -8.8388348e-3 -1.50000000
v -3.7500000e-2 -1.2500000e-2 -1.50000000
v -2.8661165e-2 -8.8388348e-3 -1.50000000
v -2.5000000e-2 3.2913829e-18 -1.50000000
v -2.8661165e-2 8.8388348e-3 -1.50000000
v -3.7500000e-2 1.2500000e-2 -1.50000000
v 8.8388348e-3 -4.6338835e-2 -1.50000000
v 0.0000000e+0 -5.0000000e-2 -1.50000000
v -8.8388348e-3 -4.6338835e-2 -1.50000000
v -1.2500000e-2 -3.7500000e-2 -1.50000000
v -8.8388348e-3 -2.8661165e-2 -1.50000000
v 3.0616170e-18 -2.5000000e-2 -1.50000000
v 8.8388348e-3 -2.8661165e-2 -1.50000000
v 1.2500000e-2 -3.7500000e-2 -1.50000000
v 8.8388348e-3 4.6338835e-2 -1.50000000
v 0.0000000e+0 5.0000000e-2 -1.50000000
v -8.8388348e-3 4.6338835e-2 -1.50000000
v -1.2500000e-2 3.7500000e-2 -1.50000000
v -8.8388348e-3 2.8661165e-2 -1.50000000
v 3.0616170e-18 2.5000000e-2 -1.50000000
v 8.8388348e-3 2.8661165e-2 -1.50000000
v 1.2500000e-2 3.7500000e-2 -1.50000000
v 4.6338835e-2 8.8388348e-3 -1.50000000
v 5.0000000e-2 -4.3626596e-18 -1.50000000
v 4.6338835e-2 -8.8388348e-3 -1.50000000
v 3.7500000e-2 -1.2500000e-2 -1.50000000
v 2.8661165e-2 -8.8388348e-3 -1.50000000
v 2.5000000e-2 2.2976589e-19 -1.50000000
v 2.8661165e-2 8.8388348e-3 -1.50000000
v 3.7500000e-2 1.2500000e-2 -1.50000000
vt 3.9655040e-2 0.52823401
vt 3.9655040e-2 0.53199308
vt 3.9655040e-2 0.55078841
vt 3.9655040e-2 0.53575214
vt 3.9655040e-2 0.53951121
vt 3.9655040e-2 0.54327028
vt 3.9655040e-2 0.54702935
vt 3.9655040e-2 0.55454748
vt 3.9655040e-2 0.55830655
vt 3.9655040e-2 0.52823401
vt 3.9655040e-2 0.53199308
vt 3.9655040e-2 0.53575214
vt 3.9655040e-2 0.53951121
vt 3.9655040e-2 0.52823401
vt 3.9655040e-2 0.54327028
vt 3.9655040e-2 0.54702935
vt 3.9655040e-2 0.55078841
vt 3.9655040e-2 0.55078841
vt 3.9655040e-2 0.55078841
vt 3.9655040e-2 0.55454748
vt 3.9655040e-2 0.55830655
vt 3.9655040e-2 0.55078841
vt 3.9655040e-2 0.52823401
vt 3.9655040e-2 0.53199308
vt 3.9655040e-2 0.53199308
vt 3.9655040e-2 0.53575214
vt 3.9655040e-2 0.53575214
vt 3.9655040e-2 0.53575214
vt 3.9655040e-2 0.53951121
vt 3.9655040e-2 0.53951121
vt 3.9655040e-2 0.53951121
vt 3.9655040e-2 0.53951121
vt 3.9655040e-2 0.54327028
vt 3.9655040e-2 0.54327028
vt 3.9655040e-2 0.54327028
vt 3.9655040e-2 0.54702935
vt 3.9655040e-2 0.54702935
vt 3.9655040e-2 0.54702935
vt 3.9655040e-2 0.55454748
vt 3.9655040e-2 0.55454748
vt 3.9655040e-2 0.55454748
vt 3.9655040e-2 0.55830655
vt 3.9655040e-2 0.55830655
vt 3.9655040e-2 0.55830655
vt 3.9655040e-2 0.55830655
vt 3.9655040e-2 0.52823401
vt 3.9655040e-2 0.52823401
vt 3.9655040e-2 0.52823401
vt 3.9655040e-2 0.53199308
vt 3.9655040e-2 0.53199308
vt 3.9655040e-2 0.53199308
vt 3.9655040e-2 0.53575214
vt 3.9655040e-2 0.53575214
vt 3.9655040e-2 0.53951121
vt 3.9655040e-2 0.54327028
vt 3.9655040e-2 0.54327028
vt 3.9655040e-2 0.54702935
vt 3.9655040e-2 0.54702935
vt 3.9655040e-2 0.55078841
vt 3.9655040e-2 0.55078841
vt 3.9655040e-2 0.55454748
vt 3.9655040e-2 0.55454748
vt 3.9655040e-2 0.55830655
vt 3.9655040e-2 0.54702935
vt 3.9655040e-2 0.53951121
vt 3.9655040e-2 0.55830655
vt 3.9655040e-2 0.53199308
vt 3.9655040e-2 0.53575214
vt 3.9655040e-2 0.54327028
vt 3.9655040e-2 0.55078841
vt 3.9655040e-2 0.55454748
vt 3.9655040e-2 0.52823401
vt 0.62903004 0.52823401
vt 0.62903004 0.53575214
vt 0.62903004 0.55078841
vt 0.62903004 0.55830655
vt 0.62903004 0.52823401
vt 0.62903004 0.53199308
vt 0.62903004 0.53199308
vt 0.62903004 0.53575214
vt 0.62903004 0.53951121
vt 0.62903004 0.53951121
vt 0.62903004 0.54327028
vt 0.62903004 0.54327028
vt 0.62903004 0.54702935
vt 0.62903004 0.54702935
vt 0.62903004 0.55078841
vt 0.62903004 0.55454748
vt 0.62903004 0.55454748
vt 0.62903004 0.55830655
vt 0.62903004 0.52823401
vt 0.62903004 0.52823401
vt 0.62903004 0.53199308
vt 0.62903004 0.53199308
vt 0.62903004 0.53199308
vt 0.62903004 0.53575214
vt 0.62903004 0.53575214
vt 0.62903004 0.53575214
vt 0.62903004 0.53951121
vt 0.62903004 0.53951121
vt 0.62903004 0.54327028
vt 0.62903004 0.54702935
vt 0.62903004 0.54702935
vt 0.62903004 0.55078841
vt 0.62903004 0.55078841
vt 0.62903004 0.55078841
vt 0.62903004 0.55078841
vt 0.62903004 0.55454748
vt 0.62903004 0.55454748
vt 0.62903004 0.55454748
vt 0.62903004 0.55830655
vt 0.62903004 0.55830655
vt 0.62903004 0.52823401
vt 0.62903004 0.52823401
vt 0.62903004 0.53199308
vt 0.62903004 0.53575214
vt 0.62903004 0.53951121
vt 0.62903004 0.53951121
vt 0.62903004 0.54327028
vt 0.62903004 0.54327028
vt 0.62903004 0.54702935
vt 0.62903004 0.54702935
vt 0.62903004 0.55454748
vt 0.62903004 0.55830655
vt 0.62903004 0.55830655
vt 0.62903004 0.53199308
vt 0.62903004 0.53575214
vt 0.62903004 0.53951121
vt 0.62903004 0.55078841
vt 0.62903004 0.55454748
vt 0.62903004 0.52823401
vt 0.62903004 0.54327028
vt 0.62903004 0.54702935
vt 0.62903004 0.55830655
vt 0.62903004 0.53951121
vt 0.62903004 0.52823401
vt 0.62903004 0.53199308
vt 0.62903004 0.53575214
vt 0.62903004 0.54327028
vt 0.62903004 0.54702935
vt 0.62903004 0.55078841
vt 0.62903004 0.55454748
vt 0.62903004 0.55830655
vn 6.0084837e-17 1.00000000 0.0000000e+0
vn -0.70710678 0.70710678 0.0000000e+0
vn -1.00000000 3.0042419e-17 0.0000000e+0
vn -0.70710678 -0.70710678 0.0000000e+0
vn -3.9055144e-16 -1.00000000 0.0000000e+0
vn 0.70710678 -0.70710678 0.0000000e+0
vn 1.00000000 0.0000000e+0 0.0000000e+0
vn 0.70710678 0.70710678 0.0000000e+0
vn 6.0084837e-17 1.00000000 0.0000000e+0
vn -0.70710678 0.70710678 0.0000000e+0
vn -1.00000000 3.0042419e-17 0.0000000e+0
vn -0.70710678 -0.70710678 0.0000000e+0
vn -3.9055144e-16 -1.00000000 0.0000000e+0
vn 0.70710678 -0.70710678 0.0000000e+0
vn 1.00000000 0.0000000e+0 0.0000000e+0
vn 0.70710678 0.70710678 0.0000000e+0
vn 1.00000000 3.0042419e-17 0.0000000e+0
vn 0.70710678 -0.70710678 0.0000000e+0
vn 3.0042419e-17 -1.00000000 0.0000000e+0
vn -0.70710678 -0.70710678 0.0000000e+0
vn -1.00000000 -2.1029693e-16 0.0000000e+0
vn -0.70710678 0.70710678 0.0000000e+0
vn 0.0000000e+0 1.00000000 0.0000000e+0
vn 0.70710678 0.70710678 0.0000000e+0
vn 1.00000000 3.0042419e-17 0.0000000e+0
vn 0.70710678 -0.70710678 0.0000000e+0
vn 3.0042419e-17 -1.00000000 0.0000000e+0
vn -0.70710678 -0.70710678 0.0000000e+0
vn -1.00000000 -2.1029693e-16 0.0000000e+0
vn -0.70710678 0.70710678 0.0000000e+0
vn 0.0000000e+0 1.00000000 0.0000000e+0
vn 0.70710678 0.70710678 0.0000000e+0
vn 1.00000000 -3.0042419e-17 0.0000000e+0
vn 0.70710678 0.70710678 0.0000000e+0
vn 3.0042419e-17 1.00000000 0.0000000e+0
vn -0.70710678 0.70710678 0.0000000e+0
vn -1.00000000 2.1029693e-16 0.0000000e+0
vn -0.70710678 -0.70710678 0.0000000e+0
vn 0.0000000e+0 -1.00000000 0.0000000e+0
vn 0.70710678 -0.70710678 0.0000000e+0
vn 1.00000000 -3.0042419e-17 0.0000000e+0
vn 0.70710678 0.70710678 0.0000000e+0
vn 3.0042419e-17 1.00000000 0.0000000e+0
vn -0.70710678 0.70710678 0.0000000e+0
vn -1.00000000 2.1029693e-16 0.0000000e+0
vn -0.70710678 -0.70710678 0.0000000e+0
vn 0.0000000e+0 -1.00000000 0.0000000e+0
vn 0.70710678 -0.70710678 0.0000000e+0
vn -3.0042419e-17 1.00000000 0.0000000e+0
vn 0.70710678 0.70710678 0.0000000e+0
vn 1.00000000 3.0042419e-17 0.0000000e+0
vn 0.70710678 -0.70710678 0.0000000e+0
vn 9.0127256e-17 -1.00000000 0.0000000e+0
vn -0.70710678 -0.70710678 0.0000000e+0
vn -1.00000000 0.0000000e+0 0.0000000e+0
vn -0.70710678 0.70710678 0.0000000e+0
vn -3.0042419e-17 1.00000000 0.0000000e+0
vn 0.70710678 0.70710678 0.0000000e+0
vn 1.00000000 3.0042419e-17 0.0000000e+0
vn 0.70710678 -0.70710678 0.0000000e+0
vn 9.0127256e-17 -1.00000000 0.0000000e+0
vn -0.70710678 -0.70710678 0.0000000e+0
vn -1.00000000 0.0000000e+0 0.0000000e+0
vn -0.70710678 0.70710678 0.0000000e+0
vn -0.70710678 0.70710678 0.0000000e+0
vn -0.70710678 0.70710678 0.0000000e+0
vn -0.70710678 0.70710678 0.0000000e+0
vn -0.70710678 0.70710678 0.0000000e+0
vn -1.00000000 0.0000000e+0 0.0000000e+0
vn -1.00000000 0.0000000e+0 0.0000000e+0
vn -1.00000000 0.0000000e+0 0.0000000e+0
vn -1.00000000 0.0000000e+0 0.0000000e+0
vn -0.70710678 -0.70710678 0.0000000e+0
vn -0.70710678 -0.70710678 0.0000000e+0
vn -0.70710678 -0.70710678 0.0000000e+0
vn -0.70710678 -0.70710678 0.0000000e+0
vn 9.0127256e-17 -1.00000000 0.0000000e+0
vn 9.0127256e-17 -1.00000000 0.0000000e+0
vn 9.0127256e-17 -1.00000000 0.0000000e+0
vn 9.0127256e-17 -1.00000000 0.0000000e+0
vn 0.70710678 -0.70710678 0.0000000e+0
vn 0.70710678 -0.70710678 0.0000000e+0
vn 0.70710678 -0.70710678 0.0000000e+0
vn 0.70710678 -0.70710678 0.0000000e+0
vn 1.00000000 3.0042419e-17 0.0000000e+0
vn 1.00000000 3.0042419e-17 0.0000000e+0
vn 1.00000000 3.0042419e-17 0.0000000e+0
vn 1.00000000 3.0042419e-17 0.0000000e+0
vn 0.70710678 0.70710678 0.0000000e+0
vn 0.70710678 0.70710678 0.0000000e+0
vn 0.70710678 0.70710678 0.0000000e+0
vn 0.70710678 0.70710678 0.0000000e+0
vn -3.0042419e-17 1.00000000 0.0000000e+0
vn -3.0042419e-17 1.00000000 0.0000000e+0
vn -3.0042419e-17 1.00000000 0.0000000e+0
vn -3.0042419e-17 1.00000000 0.0000000e+0
vn 0.70710678 -0.70710678 0.0000000e+0
vn 0.70710678 -0.70710678 0.0000000e+0
vn 0.70710678 -0.70710678 0.0000000e+0
vn 0.70710678 -0.70710678 0.0000000e+0
vn 0.0000000e+0 -1.00000000 0.0000000e+0
vn 0.0000000e+0 -1.00000000 0.0000000e+0
vn 0.0000000e+0 -1.00000000 0.0000000e+0
vn 0.0000000e+0 -1.00000000 0.0000000e+0
vn -0.70710678 -0.70710678 0.0000000e+0
vn -0.70710678 -0.70710678 0.0000000e+0
vn -0.70710678 -0.70710678 0.0000000e+0
vn -0.70710678 -0.70710678 0.0000000e+0
vn -1.00000000 2.1029693e-16 0.0000000e+0
vn -1.00000000 2.1029693e-16 0.0000000e+0
vn -1.00000000 2.1029693e-16 0.0000000e+0
vn -1.00000000 2.1029693e-16 0.0000000e+0
vn -0.70710678 0.70710678 0.0000000e+0
vn -0.70710678 0.70710678 0.0000000e+0
vn -0.70710678 0.70710678 0.0000000e+0
vn -0.70710678 0.70710678 0.0000000e+0
vn 3.0042419e-17 1.00000000 0.0000000e+0
vn 3.0042419e-17 1.00000000 0.0000000e+0
vn 3.0042419e-17 1.00000000 0.0000000e+0
vn 3.0042419e-17 1.00000000 0.0000000e+0
vn 0.70710678 0.70710678 0.0000000e+0
vn 0.70710678 0.70710678 0.0000000e+0
vn 0.70710678 0.70710678 0.0000000e+0
vn 0.70710678 0.70710678 0.0000000e+0
vn 1.00000000 -3.0042419e-17 0.0000000e+0
vn 1.00000000 -3.0042419e-17 0.0000000e+0
vn 1.00000000 -3.0042419e-17 0.0000000e+0
vn 1.00000000 -3.0042419e-17 0.0000000e+0
vn 0.70710678 0.70710678 0.0000000e+0
vn 0.70710678 0.70710678 0.0000000e+0
vn 0.70710678 0.70710678 0.0000000e+0
vn 0.70710678 0.70710678 0.0000000e+0
vn 0.0000000e+0 1.00000000 0.0000000e+0
vn 0.0000000e+0 1.00000000 0.0000000e+0
vn 0.0000000e+0 1.00000000 0.0000000e+0
vn 0.0000000e+0 1.00000000 0.0000000e+0
vn -0.70710678 0.70710678 0.0000000e+0
vn -0.70710678 0.70710678 0.0000000e+0
vn -0.70710678 0.70710678 0.0000000e+0
vn -0.70710678 0.70710678 0.0000000e+0
vn -1.00000000 -2.1029693e-16 0.0000000e+0
vn -1.00000000 -2.1029693e-16 0.0000000e+0
vn -1.00000000 -2.1029693e-16 0.0000000e+0
vn -1.00000000 -2.1029693e-16 0.0000000e+0
vn -0.70710678 -0.70710678 0.0000000e+0
vn -0.70710678 -0.70710678 0.0000000e+0
vn -0.70710678 -0.70710678 0.0000000e+0
vn -0.70710678 -0.70710678 0.0000000e+0
vn 3.0042419e-17 -1.00000000 0.0000000e+0
vn 3.0042419e-17 -1.00000000 0.0000000e+0
vn 3.0042419e-17 -1.00000000 0.0000000e+0
vn 3.0042419e-17 -1.00000000 0.0000000e+0
vn 0.70710678 -0.70710678 0.0000000e+0
vn 0.70710678 -0.70710678 0.0000000e+0
vn 0.70710678 -0.70710678 0.0000000e+0
vn 0.70710678 -0.70710678 0.0000000e+0
vn 1.00000000 3.0042419e-17 0.0000000e+0
vn 1.00000000 3.0042419e-17 0.0000000e+0
vn 1.00000000 3.0042419e-17 0.0000000e+0
vn 1.00000000 3.0042419e-17 0.0000000e+0
vn 0.70710678 0.70710678 0.0000000e+0
vn 0.70710678 0.70710678 0.0000000e+0
vn 0.70710678 0.70710678 0.0000000e+0
vn 0.70710678 0.70710678 0.0000000e+0
vn 1.00000000 0.0000000e+0 0.0000000e+0
vn 1.00000000 0.0000000e+0 0.0000000e+0
vn 1.00000000 0.0000000e+0 0.0000000e+0
vn 1.00000000 0.0000000e+0 0.0000000e+0
vn 0.70710678 -0.70710678 0.0000000e+0
vn 0.70710678 -0.70710678 0.0000000e+0
vn 0.70710678 -0.70710678 0.0000000e+0
vn 0.70710678 -0.70710678 0.0000000e+0
vn -3.9055144e-16 -1.00000000 0.0000000e+0
vn -3.9055144e-16 -1.00000000 0.0000000e+0
vn -3.9055144e-16 -1.00000000 0.0000000e+0
vn -3.9055144e-16 -1.00000000 0.0000000e+0
vn -0.70710678 -0.70710678 0.0000000e+0
vn -0.70710678 -0.70710678 0.0000000e+0
vn -0.70710678 -0.70710678 0.0000000e+0
vn -0.70710678 -0.70710678 0.0000000e+0
vn -1.00000000 3.0042419e-17 0.0000000e+0
vn -1.00000000 3.0042419e-17 0.0000000e+0
vn -1.00000000 3.0042419e-17 0.0000000e+0
vn -1.00000000 3.0042419e-17 0.0000000e+0
vn -0.70710678 0.70710678 0.0000000e+0
vn -0.70710678 0.70710678 0.0000000e+0
vn -0.70710678 0.70710678 0.0000000e+0
vn -0.70710678 0.70710678 0.0000000e+0
vn 6.0084837e-17 1.00000000 0.0000000e+0
vn 6.0084837e-17 1.00000000 0.0000000e+0
vn 6.0084837e-17 1.00000000 0.0000000e+0
vn 6.0084837e-17 1.00000000 0.0000000e+0
g mesh1_mesh1_auv
usemtl mesh1_auv
s 1
f 9/52/9 10/49/10 95/126/188 96/127/192
f 10/49/10 11/46/11 94/131/184 95/126/187
f 11/42/11 12/39/12 93/130/180 94/134/183
f 12/39/12 13/22/13 92/129/176 93/130/179
f 13/22/13 14/36/14 91/133/172 92/129/175
f 14/36/14 15/33/15 90/132/168 91/133/171
f 15/33/15 16/29/16 89/128/164 90/132/167
f 17/27/17 88/116/157 81/117/129 24/31/24
f 18/51/18 87/115/154 88/116/158 17/27/17
f 19/23/19 86/113/150 87/115/153 18/51/18
f 20/41/20 85/123/146 86/124/149 19/44/19
f 21/18/21 84/105/142 85/123/145 20/41/20
f 22/38/22 83/102/138 84/105/141 21/18/21
f 23/35/23 82/119/134 83/102/137 22/38/22
f 24/31/24 81/117/130 82/119/133 23/35/23
f 41/12/41 42/11/42 79/93/124 80/96/128
f 42/11/42 43/10/43 78/91/120 79/93/123
f 43/21/43 44/20/44 77/108/116 78/111/119
f 44/20/44 45/19/45 76/104/112 77/108/115
f 45/19/45 46/16/46 75/121/108 76/104/111
f 46/16/46 47/15/47 74/119/104 75/121/107
f 47/15/47 48/13/48 73/99/100 74/119/103
f 49/28/49 72/80/93 65/81/65 56/32/56
f 50/25/50 71/78/90 72/80/94 49/28/49
f 51/48/51 70/77/86 71/78/89 50/25/50
f 52/62/52 69/88/82 70/90/85 51/45/51
f 53/60/53 68/87/78 69/88/81 52/62/52
f 54/58/54 67/85/74 68/87/77 53/60/53
f 55/56/55 66/83/70 67/85/73 54/58/54
f 56/32/56 65/81/66 66/83/69 55/56/55
f 80/96/127 73/99/99 48/13/48 41/12/41
f 96/127/191 89/128/163 16/29/16 9/52/9
s 2
f 1/17/1 96/107/190 95/110/186 2/40/2
f 2/40/2 95/110/185 94/125/182 3/43/3
f 3/14/3 94/114/181 93/95/178 4/24/4
f 4/24/4 93/95/177 92/98/174 5/26/5
f 5/26/5 92/98/173 91/118/170 6/30/6
f 6/30/6 91/118/169 90/120/166 7/34/7
f 7/34/7 90/120/165 89/122/162 8/37/8
f 8/37/8 89/122/161 96/107/189 1/17/1
f 25/3/25 88/141/160 87/142/156 26/8/26
f 26/8/26 87/142/155 86/143/152 27/9/27
f 27/1/27 86/136/151 85/137/148 28/2/28
f 28/2/28 85/137/147 84/138/144 29/4/29
f 29/4/29 84/138/143 83/135/140 30/5/30
f 30/5/30 83/135/139 82/139/136 31/6/31
f 31/6/31 82/139/135 81/140/132 32/7/32
f 32/7/32 81/140/131 88/141/159 25/3/25
f 33/70/33 80/75/126 79/89/122 34/71/34
f 34/71/34 79/89/121 78/76/118 35/66/35
f 35/72/35 78/73/117 77/79/114 36/67/36
f 36/67/36 77/79/113 76/74/110 37/68/37
f 37/68/37 76/74/109 75/82/106 38/65/38
f 38/65/38 75/82/105 74/84/102 39/69/39
f 39/69/39 74/84/101 73/86/98 40/64/40
f 40/64/40 73/86/97 80/75/125 33/70/33
f 57/59/57 72/106/96 71/109/92 58/61/58
f 58/61/58 71/109/91 70/112/88 59/63/59
f 59/47/59 70/92/87 69/94/84 60/50/60
f 60/50/60 69/94/83 68/97/80 61/53/61
f 61/53/61 68/97/79 67/100/76 62/54/62
f 62/54/62 67/100/75 66/101/72 63/55/63
f 63/55/63 66/101/71 65/103/68 64/57/64
f 64/57/64 65/103/67 72/106/95 57/59/57
