# Exported from Wings 3D 1.5.4
mtllib dorsal_extra_pivot.mtl
o mesh1
#54 vertices, 66 faces
v 5.0000000e-2 3.0908492e-17 -3.4694470e-18
v 4.6193977e-2 -1.9134172e-2 -3.4694470e-18
v 3.5355339e-2 -3.5355339e-2 -3.4694470e-18
v 1.9134172e-2 -4.6193977e-2 -3.4694470e-18
v 7.6586342e-18 -5.0000000e-2 -3.4694470e-18
v -1.9134172e-2 -4.6193977e-2 -3.4694470e-18
v -3.5355339e-2 -3.5355339e-2 -3.4694470e-18
v -4.6193977e-2 -1.9134172e-2 -3.4694470e-18
v -5.0000000e-2 2.4785258e-17 -3.4694470e-18
v -4.6193977e-2 1.9134172e-2 -3.4694470e-18
v -3.5355339e-2 3.5355339e-2 -3.4694470e-18
v -1.9134172e-2 4.6193977e-2 -6.9388939e-18
v -4.5878338e-18 5.0000000e-2 -6.9388939e-18
v 1.9134172e-2 4.6193977e-2 -6.9388939e-18
v 3.5355339e-2 3.5355339e-2 -3.4694470e-18
v 4.6193977e-2 1.9134172e-2 -3.4694470e-18
v 5.0000000e-2 2.4167749e-17 -7.5000000e-2
v 4.6193977e-2 -1.9134172e-2 -7.5000000e-2
v 3.5355339e-2 -3.5355339e-2 -7.5000000e-2
v 1.9134172e-2 -4.6193977e-2 -7.5000000e-2
v 7.8357065e-18 -5.0000000e-2 -7.5000000e-2
v -1.9134172e-2 -4.6193977e-2 -7.5000000e-2
v -3.5355339e-2 -3.5355339e-2 -7.5000000e-2
v -4.6193977e-2 -1.9134172e-2 -7.5000000e-2
v -5.0000000e-2 1.8044515e-17 -7.5000000e-2
v -4.6193977e-2 1.9134172e-2 -7.5000000e-2
v -3.5355339e-2 3.5355339e-2 -7.5000000e-2
v -1.9134172e-2 4.6193977e-2 -7.5000000e-2
v -4.4107615e-18 5.0000000e-2 -7.5000000e-2
v 1.9134172e-2 4.6193977e-2 -7.5000000e-2
v 3.5355339e-2 3.5355339e-2 -7.5000000e-2
v 4.6193977e-2 1.9134172e-2 -7.5000000e-2
v -6.5052130e-19 2.1900884e-17 -7.5000000e-2
v -0.93750000 -1.2500000e-2 -7.5000000e-2
v -0.93750000 -1.2500000e-2 -5.0000000e-2
v -0.93750000 1.2500000e-2 -7.5000000e-2
v -0.93750000 1.2500000e-2 -5.0000000e-2
v -4.7513595e-2 1.2500000e-2 -5.0000000e-2
v -4.7513595e-2 1.2500000e-2 -7.5000000e-2
v -5.0000000e-2 2.6888214e-16 -7.5000000e-2
v -5.0000000e-2 2.6888214e-16 -5.0000000e-2
v -4.7513595e-2 -1.2500000e-2 -5.0000000e-2
v -4.7513595e-2 -1.2500000e-2 -7.5000000e-2
v 0.93750000 -1.2500000e-2 -7.5000000e-2
v 0.93750000 -1.2500000e-2 -5.0000000e-2
v 0.93750000 1.2500000e-2 -7.5000000e-2
v 0.93750000 1.2500000e-2 -5.0000000e-2
v 4.7513595e-2 1.2500000e-2 -5.0000000e-2
v 4.7513595e-2 1.2500000e-2 -7.5000000e-2
v 5.0000000e-2 2.6888214e-16 -7.5000000e-2
v 5.0000000e-2 2.6888214e-16 -5.0000000e-2
v 4.7513595e-2 -1.2500000e-2 -5.0000000e-2
v 4.7513595e-2 -1.2500000e-2 -7.5000000e-2
v 1.5354002e-18 3.1225023e-17 -5.2041704e-18
vt 4.0129460e-2 0.42320971
vt 4.0129460e-2 0.43286795
vt 4.0129460e-2 0.47534304
vt 4.0129460e-2 0.48500128
vt 4.0129460e-2 0.43286795
vt 4.0129460e-2 0.48500128
vt 4.0129460e-2 0.42320971
vt 4.0129460e-2 0.47534304
vt 0.38299701 0.42803883
vt 0.38299701 0.48017216
vt 0.38299701 0.42803883
vt 0.38299701 0.48017216
vt 0.38395759 0.42320971
vt 0.38395759 0.43286795
vt 0.38395759 0.43286795
vt 0.38395759 0.47534304
vt 0.38395759 0.48500128
vt 0.38395759 0.48500128
vt 0.38395759 0.42320971
vt 0.38395759 0.47534304
vt 0.42420719 0.47561990
vt 0.42420719 0.47561990
vt 0.42420719 0.48527814
vt 0.43386543 0.47561990
vt 0.43386543 0.47561990
vt 0.43386543 0.48527814
vt 0.43389869 0.47556160
vt 0.43389869 0.48521984
vt 0.43389869 0.47556160
vt 0.43389869 0.47556160
vt 0.43389869 0.48521984
vt 0.43389869 0.48521984
vt 0.43389869 0.47556160
vt 0.77772681 0.47556160
vt 0.77772681 0.47556160
vt 0.77772681 0.48521984
vt 0.77772681 0.48521984
vt 0.77772681 0.47556160
vt 0.77772681 0.48521984
vt 0.77772681 0.47556160
vt 0.77772681 0.48521984
vt 0.82401277 0.86419916
vt 0.82403888 0.86426814
vt 0.82548315 0.85680706
vt 0.82548315 0.87159126
vt 0.82551177 0.85686344
vt 0.82551177 0.87167283
vt 0.82967044 0.85054034
vt 0.82967044 0.87785797
vt 0.82970619 0.85058605
vt 0.82970619 0.87795023
vt 0.83593716 0.84635306
vt 0.83593716 0.88204526
vt 0.83598359 0.84639162
vt 0.83598359 0.88214465
vt 0.84332925 0.84488268
vt 0.84332925 0.86419916
vt 0.84332925 0.88351564
vt 0.84338828 0.84491874
vt 0.84338828 0.86426814
vt 0.84338828 0.88361754
vt 0.85072135 0.84635306
vt 0.85072135 0.88204526
vt 0.85079298 0.84639162
vt 0.85079298 0.88214465
vt 0.85698807 0.85054034
vt 0.85698807 0.87785797
vt 0.85707038 0.85058605
vt 0.85707038 0.87795023
vt 0.86117536 0.85680706
vt 0.86117536 0.87159126
vt 0.86126480 0.85686344
vt 0.86126480 0.87167283
vt 0.86264574 0.86419916
vt 0.86273768 0.86426814
vt 0.90314324 0.77090844
vt 0.90314324 0.77090844
vt 0.90314324 0.79988316
vt 0.90314324 0.79988316
vt 0.91068016 0.77090844
vt 0.91068016 0.77090844
vt 0.91068016 0.79988316
vt 0.91068016 0.79988316
vt 0.91821708 0.77090844
vt 0.91821708 0.77090844
vt 0.91821708 0.79988316
vt 0.91821708 0.79988316
vt 0.92575400 0.77090844
vt 0.92575400 0.77090844
vt 0.92575400 0.79988316
vt 0.92575400 0.79988316
vt 0.93329091 0.77090844
vt 0.93329091 0.77090844
vt 0.93329091 0.79988316
vt 0.93329091 0.79988316
vt 0.94082783 0.77090844
vt 0.94082783 0.77090844
vt 0.94082783 0.79988316
vt 0.94082783 0.79988316
vt 0.94836475 0.77090844
vt 0.94836475 0.77090844
vt 0.94836475 0.79988316
vt 0.94836475 0.79988316
vt 0.95590166 0.77090844
vt 0.95590166 0.77090844
vt 0.95590166 0.79988316
vt 0.95590166 0.79988316
vt 0.96343858 0.77090844
vt 0.96343858 0.77090844
vt 0.96343858 0.79988316
vt 0.96343858 0.79988316
vn -7.0828920e-18 -2.7733391e-32 -1.00000000
vn 6.5153933e-18 0.0000000e+0 -1.00000000
vn 0.0000000e+0 0.0000000e+0 1.00000000
vn -6.5153933e-18 0.0000000e+0 -1.00000000
vn 0.0000000e+0 0.0000000e+0 1.00000000
vn -5.2000108e-33 2.4700373e-17 1.00000000
vn 1.00000000 2.1224505e-16 2.3609640e-18
vn 1.00000000 2.1224505e-16 2.3609640e-18
vn -3.4694470e-17 -7.3185338e-33 1.00000000
vn -3.4694470e-17 -7.3185338e-33 1.00000000
vn 0.92387953 -0.38268343 4.7219280e-17
vn 0.92387953 -0.38268343 4.7219280e-17
vn -3.2053510e-17 1.3276999e-17 1.00000000
vn -3.2053510e-17 1.3276999e-17 1.00000000
vn 0.70710678 -0.70710678 1.1332627e-16
vn 0.70710678 -0.70710678 1.1332627e-16
vn -2.4532695e-17 2.4532695e-17 1.00000000
vn -2.4532695e-17 2.4532695e-17 1.00000000
vn 0.38268343 -0.92387953 1.4401880e-16
vn 0.38268343 -0.92387953 1.4401880e-16
vn -1.3276999e-17 3.2053510e-17 1.00000000
vn -1.3276999e-17 3.2053510e-17 1.00000000
vn -2.8299339e-17 -1.00000000 1.3693591e-16
vn -2.8299339e-17 -1.00000000 1.3693591e-16
vn 1.1555580e-33 3.4694470e-17 1.00000000
vn 1.1555580e-33 3.4694470e-17 1.00000000
vn -0.38268343 -0.92387953 1.2985302e-16
vn -0.38268343 -0.92387953 1.2985302e-16
vn 1.3276999e-17 3.2053510e-17 1.00000000
vn 1.3276999e-17 3.2053510e-17 1.00000000
vn -0.70710678 -0.70710678 8.0272776e-17
vn -0.70710678 -0.70710678 8.0272776e-17
vn 2.4532695e-17 2.4532695e-17 1.00000000
vn 2.4532695e-17 2.4532695e-17 1.00000000
vn -0.92387953 -0.38268343 2.5970604e-17
vn -0.92387953 -0.38268343 2.5970604e-17
vn 3.2053510e-17 1.3276999e-17 1.00000000
vn 3.2053510e-17 1.3276999e-17 1.00000000
vn -1.00000000 -1.6979604e-16 0.0000000e+0
vn -1.00000000 -1.6979604e-16 0.0000000e+0
vn 3.4694470e-17 5.0074179e-33 1.00000000
vn 3.4694470e-17 5.0074179e-33 1.00000000
vn -0.92387953 0.38268343 -4.0136388e-17
vn -0.92387953 0.38268343 -4.0136388e-17
vn 3.2053510e-17 -1.3276999e-17 1.00000000
vn 3.2053510e-17 -1.3276999e-17 1.00000000
vn -0.70710678 0.70710678 -1.1332627e-16
vn -0.70710678 0.70710678 -1.1332627e-16
vn 8.8639715e-17 3.9574326e-17 1.00000000
vn 8.8639715e-17 3.9574326e-17 1.00000000
vn -0.38268343 0.92387953 -1.5110170e-16
vn -0.38268343 0.92387953 -1.5110170e-16
vn 7.0482860e-17 6.6747980e-17 1.00000000
vn 7.0482860e-17 6.6747980e-17 1.00000000
vn -4.8533435e-32 3.4694470e-17 1.00000000
vn -2.1224505e-16 1.00000000 -1.3929688e-16
vn -2.1224505e-16 1.00000000 -1.3929688e-16
vn -4.8533435e-32 3.4694470e-17 1.00000000
vn -7.0482860e-17 6.6747980e-17 1.00000000
vn 0.38268343 0.92387953 -1.2985302e-16
vn 0.38268343 0.92387953 -1.2985302e-16
vn -7.0482860e-17 6.6747980e-17 1.00000000
vn 0.70710678 0.70710678 -8.0272776e-17
vn 0.70710678 0.70710678 -8.0272776e-17
vn -8.8639715e-17 3.9574326e-17 1.00000000
vn -8.8639715e-17 3.9574326e-17 1.00000000
vn 0.92387953 0.38268343 -2.5970604e-17
vn 0.92387953 0.38268343 -2.5970604e-17
vn -3.2053510e-17 -1.3276999e-17 1.00000000
vn -3.2053510e-17 -1.3276999e-17 1.00000000
vn 1.00000000 2.1224505e-16 2.3609640e-18
vn 1.00000000 2.1224505e-16 2.3609640e-18
vn -6.7995763e-16 -1.0477059e-31 -1.00000000
vn -6.7995763e-16 -1.0477059e-31 -1.00000000
vn 0.92387953 -0.38268343 4.7219280e-17
vn 0.92387953 -0.38268343 4.7219280e-17
vn -6.7995763e-16 2.1243198e-16 -1.00000000
vn -6.7995763e-16 2.1243198e-16 -1.00000000
vn 0.70710678 -0.70710678 1.1332627e-16
vn 0.70710678 -0.70710678 1.1332627e-16
vn -1.1332627e-16 3.9252311e-16 -1.00000000
vn -1.1332627e-16 3.9252311e-16 -1.00000000
vn 0.38268343 -0.92387953 1.4401880e-16
vn 0.38268343 -0.92387953 1.4401880e-16
vn -2.2665254e-16 5.1285616e-16 -1.00000000
vn -2.2665254e-16 5.1285616e-16 -1.00000000
vn -2.8299339e-17 -1.00000000 1.3693591e-16
vn -2.8299339e-17 -1.00000000 1.3693591e-16
vn 1.9721523e-31 5.5511151e-16 -1.00000000
vn 1.9721523e-31 5.5511151e-16 -1.00000000
vn -0.38268343 -0.92387953 1.2985302e-16
vn -0.38268343 -0.92387953 1.2985302e-16
vn 2.2665254e-16 5.1285616e-16 -1.00000000
vn 2.2665254e-16 5.1285616e-16 -1.00000000
vn -0.70710678 -0.70710678 8.0272776e-17
vn -0.70710678 -0.70710678 8.0272776e-17
vn 3.3997882e-16 3.9252311e-16 -1.00000000
vn 3.3997882e-16 3.9252311e-16 -1.00000000
vn -0.92387953 -0.38268343 2.5970604e-17
vn -0.92387953 -0.38268343 2.5970604e-17
vn 6.7995763e-16 2.1243198e-16 -1.00000000
vn 6.7995763e-16 2.1243198e-16 -1.00000000
vn -1.00000000 -1.6979604e-16 0.0000000e+0
vn -1.00000000 -1.6979604e-16 0.0000000e+0
vn 6.7995763e-16 9.8607613e-32 -1.00000000
vn 6.7995763e-16 9.8607613e-32 -1.00000000
vn -0.92387953 0.38268343 -4.0136388e-17
vn -0.92387953 0.38268343 -4.0136388e-17
vn 6.7995763e-16 -2.1243198e-16 -1.00000000
vn 6.7995763e-16 -2.1243198e-16 -1.00000000
vn -0.70710678 0.70710678 -1.1332627e-16
vn -0.70710678 0.70710678 -1.1332627e-16
vn 3.3997882e-16 -3.9252311e-16 -1.00000000
vn 3.3997882e-16 -3.9252311e-16 -1.00000000
vn -0.38268343 0.92387953 -1.5110170e-16
vn -0.38268343 0.92387953 -1.5110170e-16
vn 2.2665254e-16 -5.1285616e-16 -1.00000000
vn 2.2665254e-16 -5.1285616e-16 -1.00000000
vn -2.1224505e-16 1.00000000 -1.3929688e-16
vn -2.1224505e-16 1.00000000 -1.3929688e-16
vn -3.9664195e-16 -5.5511151e-16 -1.00000000
vn -3.9664195e-16 -5.5511151e-16 -1.00000000
vn 0.38268343 0.92387953 -1.2985302e-16
vn 0.38268343 0.92387953 -1.2985302e-16
vn -5.0996823e-16 -5.1285616e-16 -1.00000000
vn -5.0996823e-16 -5.1285616e-16 -1.00000000
vn 0.70710678 0.70710678 -8.0272776e-17
vn 0.70710678 0.70710678 -8.0272776e-17
vn -2.2665254e-16 -3.9252311e-16 -1.00000000
vn -2.2665254e-16 -3.9252311e-16 -1.00000000
vn 0.92387953 0.38268343 -2.5970604e-17
vn 0.92387953 0.38268343 -2.5970604e-17
vn -4.5330509e-16 -2.1243198e-16 -1.00000000
vn -4.5330509e-16 -2.1243198e-16 -1.00000000
vn -1.00000000 0.0000000e+0 0.0000000e+0
vn 0.0000000e+0 -1.00000000 0.0000000e+0
vn 9.7730900e-18 0.0000000e+0 -1.00000000
vn 9.7730900e-18 0.0000000e+0 -1.00000000
vn -1.00000000 0.0000000e+0 0.0000000e+0
vn 0.0000000e+0 -1.00000000 0.0000000e+0
vn 0.0000000e+0 0.0000000e+0 1.00000000
vn 0.0000000e+0 0.0000000e+0 1.00000000
vn -1.00000000 0.0000000e+0 0.0000000e+0
vn 0.0000000e+0 1.00000000 0.0000000e+0
vn 9.7730900e-18 0.0000000e+0 -1.00000000
vn 9.7730900e-18 0.0000000e+0 -1.00000000
vn -1.00000000 0.0000000e+0 0.0000000e+0
vn 0.0000000e+0 0.0000000e+0 1.00000000
vn 0.0000000e+0 1.00000000 0.0000000e+0
vn 0.0000000e+0 0.0000000e+0 1.00000000
vn 0.0000000e+0 1.00000000 0.0000000e+0
vn 0.0000000e+0 0.0000000e+0 1.00000000
vn 0.0000000e+0 1.00000000 0.0000000e+0
vn 0.0000000e+0 0.0000000e+0 -1.00000000
vn 0.0000000e+0 -1.00000000 0.0000000e+0
vn 0.0000000e+0 0.0000000e+0 1.00000000
vn 0.0000000e+0 -1.00000000 0.0000000e+0
vn 0.0000000e+0 0.0000000e+0 -1.00000000
vn 1.00000000 0.0000000e+0 0.0000000e+0
vn 0.0000000e+0 -1.00000000 0.0000000e+0
vn -9.7730900e-18 0.0000000e+0 -1.00000000
vn -9.7730900e-18 0.0000000e+0 -1.00000000
vn 1.00000000 0.0000000e+0 0.0000000e+0
vn 0.0000000e+0 -1.00000000 0.0000000e+0
vn 0.0000000e+0 0.0000000e+0 1.00000000
vn 0.0000000e+0 0.0000000e+0 1.00000000
vn 1.00000000 0.0000000e+0 0.0000000e+0
vn 0.0000000e+0 1.00000000 0.0000000e+0
vn -9.7730900e-18 0.0000000e+0 -1.00000000
vn -9.7730900e-18 0.0000000e+0 -1.00000000
vn 1.00000000 0.0000000e+0 0.0000000e+0
vn 0.0000000e+0 0.0000000e+0 1.00000000
vn 0.0000000e+0 1.00000000 0.0000000e+0
vn 0.0000000e+0 0.0000000e+0 1.00000000
vn 0.0000000e+0 1.00000000 0.0000000e+0
vn 0.0000000e+0 0.0000000e+0 1.00000000
vn 0.0000000e+0 1.00000000 0.0000000e+0
vn 0.0000000e+0 0.0000000e+0 -1.00000000
vn 0.0000000e+0 -1.00000000 0.0000000e+0
vn 0.0000000e+0 0.0000000e+0 1.00000000
vn 0.0000000e+0 -1.00000000 0.0000000e+0
vn 0.0000000e+0 0.0000000e+0 -1.00000000
g mesh1_mesh1_auv
usemtl mesh1_auv
s 1
f 1/75/9 54/60/6 2/72/14
f 2/72/13 54/60/6 3/68/18
f 3/68/17 54/60/6 4/64/22
f 4/64/21 54/60/6 5/59/26
f 5/59/25 54/60/6 6/54/29
f 6/54/30 54/60/6 7/50/34
f 7/50/33 54/60/6 8/46/38
f 8/46/37 54/60/6 9/43/42
f 9/43/41 54/60/6 10/47/46
f 10/47/45 54/60/6 11/51/50
f 11/51/49 54/60/6 12/55/54
f 12/55/53 54/60/6 13/61/58
f 13/61/55 54/60/6 14/65/59
f 14/65/62 54/60/6 15/69/65
f 15/69/66 54/60/6 16/73/70
f 16/73/69 54/60/6 1/75/10
f 17/42/74 33/57/1 32/45/134
f 18/44/77 33/57/1 17/42/73
f 19/48/81 33/57/1 18/44/78
f 20/52/85 33/57/1 19/48/82
f 21/56/89 33/57/1 20/52/86
f 22/62/93 33/57/1 21/56/90
f 23/66/97 33/57/1 22/62/94
f 24/70/101 33/57/1 23/66/98
f 25/74/105 33/57/1 24/70/102
f 26/71/109 33/57/1 25/74/106
f 27/67/113 33/57/1 26/71/110
f 28/63/117 33/57/1 27/67/114
f 29/58/121 33/57/1 28/63/118
f 30/53/125 33/57/1 29/58/122
f 31/49/129 33/57/1 30/53/126
f 32/45/133 33/57/1 31/49/130
f 35/24/139 37/26/147 36/23/143 34/21/135
f 44/25/159 46/26/167 47/23/171 45/22/163
s 2
f 1/92/7 17/94/71 32/90/131 16/88/67
f 2/96/12 18/98/76 17/94/72 1/92/8
f 3/100/16 19/102/80 18/98/75 2/96/11
f 4/104/20 20/106/84 19/102/79 3/100/15
f 5/108/24 21/110/88 20/106/83 4/104/19
f 6/81/28 22/83/92 21/79/87 5/77/23
f 7/85/32 23/87/96 22/83/91 6/81/27
f 8/89/36 24/91/100 23/87/95 7/85/31
f 9/93/40 25/95/104 24/91/99 8/89/35
f 10/97/44 26/99/108 25/95/103 9/93/39
f 11/101/48 27/103/112 26/99/107 10/97/43
f 12/105/52 28/107/116 27/103/111 11/101/47
f 13/109/57 29/111/120 28/107/115 12/105/51
f 14/80/61 30/82/124 29/78/119 13/76/56
f 15/84/64 31/86/128 30/82/123 14/80/60
f 16/88/68 32/90/132 31/86/127 15/84/63
f 34/28/136 43/41/157 42/40/155 35/33/140
f 35/3/141 41/10/3 37/4/148
f 36/5/145 40/11/2 34/7/137
f 37/30/149 38/34/151 39/36/153 36/32/144
f 38/18/152 37/4/150 41/10/3
f 40/11/2 36/5/146 39/14/154
f 41/10/3 35/3/142 42/16/156
f 43/19/158 34/7/138 40/11/2
f 44/1/161 50/9/4 46/2/169
f 45/29/164 52/35/179 53/37/181 44/31/160
f 46/28/168 49/39/177 48/38/175 47/27/173
f 47/6/172 51/12/5 45/8/165
f 49/15/178 46/2/170 50/9/4
f 50/9/4 44/1/162 53/13/182
f 51/12/5 47/6/174 48/17/176
f 52/20/180 45/8/166 51/12/5
