# Exported from Wings 3D 1.5.4
mtllib dorsal_base.mtl
o mesh1
#34 vertices, 48 faces
v 7.5000000e-2 2.9265015e-17 3.7500000e-2
v 6.9290965e-2 -2.8701257e-2 3.7500000e-2
v 5.3033009e-2 -5.3033009e-2 3.7500000e-2
v 2.8701257e-2 -6.9290965e-2 3.7500000e-2
v -1.9744724e-17 -7.5000000e-2 3.7500000e-2
v -2.8701257e-2 -6.9290965e-2 3.7500000e-2
v -5.3033009e-2 -5.3033009e-2 3.7500000e-2
v -6.9290965e-2 -2.8701257e-2 3.7500000e-2
v -7.5000000e-2 2.0080164e-17 3.7500000e-2
v -6.9290965e-2 2.8701257e-2 3.7500000e-2
v -5.3033009e-2 5.3033009e-2 3.7500000e-2
v -2.8701257e-2 6.9290965e-2 3.7500000e-2
v -3.8114426e-17 7.5000000e-2 3.7500000e-2
v 2.8701257e-2 6.9290965e-2 3.7500000e-2
v 5.3033009e-2 5.3033009e-2 3.7500000e-2
v 6.9290965e-2 2.8701257e-2 3.7500000e-2
v 7.5000000e-2 2.0080164e-17 -3.7500000e-2
v 6.9290965e-2 -2.8701257e-2 -3.7500000e-2
v 5.3033009e-2 -5.3033009e-2 -3.7500000e-2
v 2.8701257e-2 -6.9290965e-2 -3.7500000e-2
v -1.7036003e-18 -7.5000000e-2 -3.7500000e-2
v -2.8701257e-2 -6.9290965e-2 -3.7500000e-2
v -5.3033009e-2 -5.3033009e-2 -3.7500000e-2
v -6.9290965e-2 -2.8701257e-2 -3.7500000e-2
v -7.5000000e-2 1.0895313e-17 -3.7500000e-2
v -6.9290965e-2 2.8701257e-2 -3.7500000e-2
v -5.3033009e-2 5.3033009e-2 -3.7500000e-2
v -2.8701257e-2 6.9290965e-2 -3.7500000e-2
v -2.0073302e-17 7.5000000e-2 -3.7500000e-2
v 2.8701257e-2 6.9290965e-2 -3.7500000e-2
v 5.3033009e-2 5.3033009e-2 -3.7500000e-2
v 6.9290965e-2 2.8701257e-2 -3.7500000e-2
v -1.8786035e-17 3.1229102e-17 3.7500000e-2
v -2.6531065e-18 2.0151624e-17 -3.7500000e-2
vt 0.82378832 0.54071424
vt 0.82471680 0.63845710
vt 0.82600436 0.52957342
vt 0.82600436 0.55185506
vt 0.82693284 0.62731628
vt 0.82693284 0.64959792
vt 0.83231513 0.52012869
vt 0.83231513 0.56129980
vt 0.83324361 0.61787155
vt 0.83324361 0.65904265
vt 0.84175986 0.51381792
vt 0.84175986 0.56761057
vt 0.84268835 0.61156078
vt 0.84268835 0.66535342
vt 0.85290068 0.51160187
vt 0.85290068 0.54071424
vt 0.85290068 0.56982661
vt 0.85382917 0.60934473
vt 0.85382917 0.63845710
vt 0.85382917 0.66756947
vt 0.86404151 0.51381792
vt 0.86404151 0.56761057
vt 0.86496999 0.61156078
vt 0.86496999 0.66535342
vt 0.87348624 0.52012869
vt 0.87348624 0.56129980
vt 0.87441472 0.61787155
vt 0.87441472 0.65904265
vt 0.87979701 0.52957342
vt 0.87979701 0.55185506
vt 0.88072549 0.62731628
vt 0.88072549 0.64959792
vt 0.88201305 0.54071424
vt 0.88294154 0.63845710
vt 0.90364475 0.61573894
vt 0.90364475 0.61573894
vt 0.90364475 0.62709802
vt 0.90364475 0.62709802
vt 0.90364475 0.63845710
vt 0.90364475 0.63845710
vt 0.90364475 0.64981618
vt 0.90364475 0.64981618
vt 0.90364475 0.66117527
vt 0.90364475 0.66117527
vt 0.90364475 0.61573894
vt 0.90364475 0.62709802
vt 0.90364475 0.63845710
vt 0.90364475 0.64981618
vt 0.90364475 0.66117527
vt 0.93275712 0.61573894
vt 0.93275712 0.61573894
vt 0.93275712 0.62709802
vt 0.93275712 0.62709802
vt 0.93275712 0.63845710
vt 0.93275712 0.63845710
vt 0.93275712 0.64981618
vt 0.93275712 0.64981618
vt 0.93275712 0.66117527
vt 0.93275712 0.66117527
vt 0.93275712 0.61573894
vt 0.93275712 0.62709802
vt 0.93275712 0.63845710
vt 0.93275712 0.64981618
vt 0.93275712 0.66117527
vn 1.2591808e-17 3.2933830e-17 1.00000000
vn -7.8698800e-18 -6.5867660e-17 -1.00000000
vn 1.00000000 -4.2449009e-17 2.3294845e-16
vn 1.00000000 -4.2449009e-17 2.3294845e-16
vn 1.6023737e-31 0.0000000e+0 1.00000000
vn 1.6023737e-31 0.0000000e+0 1.00000000
vn 0.92387953 -0.38268343 3.3053496e-16
vn 0.92387953 -0.38268343 3.3053496e-16
vn 1.5110170e-16 0.0000000e+0 1.00000000
vn 1.5110170e-16 0.0000000e+0 1.00000000
vn 0.70710678 -0.70710678 3.0849930e-16
vn 0.70710678 -0.70710678 3.0849930e-16
vn -1.0073446e-16 0.0000000e+0 1.00000000
vn -1.0073446e-16 0.0000000e+0 1.00000000
vn 0.38268343 -0.92387953 1.4795374e-16
vn 0.38268343 -0.92387953 1.4795374e-16
vn -1.2591808e-16 0.0000000e+0 1.00000000
vn -1.2591808e-16 0.0000000e+0 1.00000000
vn 2.8299339e-17 -1.00000000 -3.1479520e-18
vn 2.8299339e-17 -1.00000000 -3.1479520e-18
vn -3.0814879e-33 0.0000000e+0 1.00000000
vn -3.0814879e-33 0.0000000e+0 1.00000000
vn -0.38268343 -0.92387953 -6.2959040e-17
vn -0.38268343 -0.92387953 -6.2959040e-17
vn 2.5183616e-17 0.0000000e+0 1.00000000
vn 2.5183616e-17 0.0000000e+0 1.00000000
vn -0.70710678 -0.70710678 -1.5739760e-16
vn -0.70710678 -0.70710678 -1.5739760e-16
vn 5.0367232e-17 0.0000000e+0 1.00000000
vn 5.0367232e-17 0.0000000e+0 1.00000000
vn -0.92387953 -0.38268343 -2.4868821e-16
vn -0.92387953 -0.38268343 -2.4868821e-16
vn 1.0073446e-16 0.0000000e+0 1.00000000
vn 1.0073446e-16 0.0000000e+0 1.00000000
vn -1.00000000 -2.5469406e-16 -2.8331568e-16
vn -1.00000000 -2.5469406e-16 -2.8331568e-16
vn 1.0073446e-16 0.0000000e+0 1.00000000
vn 1.0073446e-16 0.0000000e+0 1.00000000
vn -0.92387953 0.38268343 -3.3683087e-16
vn -0.92387953 0.38268343 -3.3683087e-16
vn 5.0367232e-17 0.0000000e+0 1.00000000
vn 5.0367232e-17 0.0000000e+0 1.00000000
vn -0.70710678 0.70710678 -3.3368291e-16
vn -0.70710678 0.70710678 -3.3368291e-16
vn -5.0367232e-17 8.5476027e-17 1.00000000
vn -5.0367232e-17 8.5476027e-17 1.00000000
vn -0.38268343 0.92387953 -2.2035664e-16
vn -0.38268343 0.92387953 -2.2035664e-16
vn -1.3850989e-16 1.3173532e-16 1.00000000
vn -1.3850989e-16 1.3173532e-16 1.00000000
vn -1.1319736e-16 1.00000000 -4.4071328e-17
vn -1.1319736e-16 1.00000000 -4.4071328e-17
vn -6.1629758e-33 9.2518585e-17 1.00000000
vn -6.1629758e-33 9.2518585e-17 1.00000000
vn 0.38268343 0.92387953 3.7775424e-17
vn 0.38268343 0.92387953 3.7775424e-17
vn 8.8142656e-17 1.3173532e-16 1.00000000
vn 8.8142656e-17 1.3173532e-16 1.00000000
vn 0.70710678 0.70710678 6.2959040e-17
vn 0.70710678 0.70710678 6.2959040e-17
vn 1.0073446e-16 8.5476027e-17 1.00000000
vn 1.0073446e-16 8.5476027e-17 1.00000000
vn 0.92387953 0.38268343 1.3536194e-16
vn 0.92387953 0.38268343 1.3536194e-16
vn -5.0367232e-17 0.0000000e+0 1.00000000
vn -5.0367232e-17 0.0000000e+0 1.00000000
vn 1.00000000 -4.2449009e-17 2.3294845e-16
vn 1.00000000 -4.2449009e-17 2.3294845e-16
vn 0.0000000e+0 0.0000000e+0 -1.00000000
vn 0.0000000e+0 0.0000000e+0 -1.00000000
vn 0.92387953 -0.38268343 3.3053496e-16
vn 0.92387953 -0.38268343 3.3053496e-16
vn -1.5110170e-16 0.0000000e+0 -1.00000000
vn -1.5110170e-16 0.0000000e+0 -1.00000000
vn 0.70710678 -0.70710678 3.0849930e-16
vn 0.70710678 -0.70710678 3.0849930e-16
vn -3.0220339e-16 -1.7095205e-16 -1.00000000
vn -3.0220339e-16 -1.7095205e-16 -1.00000000
vn 0.38268343 -0.92387953 1.4795374e-16
vn 0.38268343 -0.92387953 1.4795374e-16
vn -8.8142656e-17 -2.6347064e-16 -1.00000000
vn -8.8142656e-17 -2.6347064e-16 -1.00000000
vn 2.8299339e-17 -1.00000000 -3.1479520e-18
vn 2.8299339e-17 -1.00000000 -3.1479520e-18
vn 4.9303807e-32 -1.8503717e-16 -1.00000000
vn 4.9303807e-32 -1.8503717e-16 -1.00000000
vn -0.38268343 -0.92387953 -6.2959040e-17
vn -0.38268343 -0.92387953 -6.2959040e-17
vn 8.8142656e-17 -2.6347064e-16 -1.00000000
vn 8.8142656e-17 -2.6347064e-16 -1.00000000
vn -0.70710678 -0.70710678 -1.5739760e-16
vn -0.70710678 -0.70710678 -1.5739760e-16
vn 2.5183616e-16 -1.7095205e-16 -1.00000000
vn 2.5183616e-16 -1.7095205e-16 -1.00000000
vn -0.92387953 -0.38268343 -2.4868821e-16
vn -0.92387953 -0.38268343 -2.4868821e-16
vn 1.0073446e-16 0.0000000e+0 -1.00000000
vn 1.0073446e-16 0.0000000e+0 -1.00000000
vn -1.00000000 -2.5469406e-16 -2.8331568e-16
vn -1.00000000 -2.5469406e-16 -2.8331568e-16
vn 0.0000000e+0 0.0000000e+0 -1.00000000
vn 0.0000000e+0 0.0000000e+0 -1.00000000
vn -0.92387953 0.38268343 -3.3683087e-16
vn -0.92387953 0.38268343 -3.3683087e-16
vn 0.0000000e+0 0.0000000e+0 -1.00000000
vn 0.0000000e+0 0.0000000e+0 -1.00000000
vn -0.70710678 0.70710678 -3.3368291e-16
vn -0.70710678 0.70710678 -3.3368291e-16
vn -1.0073446e-16 0.0000000e+0 -1.00000000
vn -1.0073446e-16 0.0000000e+0 -1.00000000
vn -0.38268343 0.92387953 -2.2035664e-16
vn -0.38268343 0.92387953 -2.2035664e-16
vn -8.8142656e-17 0.0000000e+0 -1.00000000
vn -8.8142656e-17 0.0000000e+0 -1.00000000
vn -1.1319736e-16 1.00000000 -4.4071328e-17
vn -1.1319736e-16 1.00000000 -4.4071328e-17
vn 3.7775424e-17 0.0000000e+0 -1.00000000
vn 3.7775424e-17 0.0000000e+0 -1.00000000
vn 0.38268343 0.92387953 3.7775424e-17
vn 0.38268343 0.92387953 3.7775424e-17
vn 1.2591808e-16 0.0000000e+0 -1.00000000
vn 1.2591808e-16 0.0000000e+0 -1.00000000
vn 0.70710678 0.70710678 6.2959040e-17
vn 0.70710678 0.70710678 6.2959040e-17
vn 5.0367232e-17 0.0000000e+0 -1.00000000
vn 5.0367232e-17 0.0000000e+0 -1.00000000
vn 0.92387953 0.38268343 1.3536194e-16
vn 0.92387953 0.38268343 1.3536194e-16
vn -5.0367232e-17 0.0000000e+0 -1.00000000
vn -5.0367232e-17 0.0000000e+0 -1.00000000
g mesh1_mesh1_auv
usemtl mesh1_auv
s 1
f 1/34/5 33/19/1 2/31/9
f 2/31/10 33/19/1 3/27/14
f 3/27/13 33/19/1 4/23/18
f 4/23/17 33/19/1 5/18/22
f 5/18/21 33/19/1 6/13/26
f 6/13/25 33/19/1 7/9/30
f 7/9/29 33/19/1 8/5/34
f 8/5/33 33/19/1 9/2/38
f 9/2/37 33/19/1 10/6/42
f 10/6/41 33/19/1 11/10/46
f 11/10/45 33/19/1 12/14/50
f 12/14/49 33/19/1 13/20/54
f 13/20/53 33/19/1 14/24/58
f 14/24/57 33/19/1 15/28/62
f 15/28/61 33/19/1 16/32/66
f 16/32/65 33/19/1 1/34/6
f 17/1/69 34/16/2 32/4/129
f 18/3/73 34/16/2 17/1/70
f 19/7/77 34/16/2 18/3/74
f 20/11/81 34/16/2 19/7/78
f 21/15/85 34/16/2 20/11/82
f 22/21/89 34/16/2 21/15/86
f 23/25/93 34/16/2 22/21/90
f 24/29/97 34/16/2 23/25/94
f 25/33/101 34/16/2 24/29/98
f 26/30/105 34/16/2 25/33/102
f 27/26/109 34/16/2 26/30/106
f 28/22/113 34/16/2 27/26/110
f 29/17/117 34/16/2 28/22/114
f 30/12/121 34/16/2 29/17/118
f 31/8/125 34/16/2 30/12/122
f 32/4/130 34/16/2 31/8/126
s 2
f 1/49/3 17/64/67 32/63/127 16/48/63
f 2/41/8 18/56/72 17/58/68 1/43/4
f 3/39/12 19/54/76 18/56/71 2/41/7
f 4/37/16 20/52/80 19/54/75 3/39/11
f 5/35/20 21/50/84 20/52/79 4/37/15
f 6/37/24 22/52/88 21/50/83 5/35/19
f 7/39/28 23/54/92 22/52/87 6/37/23
f 8/41/32 24/56/96 23/54/91 7/39/27
f 9/43/36 25/58/100 24/56/95 8/41/31
f 10/42/40 26/57/104 25/59/99 9/44/35
f 11/40/44 27/55/108 26/57/103 10/42/39
f 12/38/48 28/53/112 27/55/107 11/40/43
f 13/36/52 29/51/116 28/53/111 12/38/47
f 14/46/56 30/61/120 29/60/115 13/45/51
f 15/47/60 31/62/124 30/61/119 14/46/55
f 16/48/64 32/63/128 31/62/123 15/47/59
