# Exported from Wings 3D 1.5.4
mtllib Eridani_Antenna_3_Base.mtl
o Eridani_Antenna_3_Base
#16 vertices, 10 faces
v 2.5000000e-2 6.5000000e-2 2.4326786e-18
v 1.7677670e-2 6.5000000e-2 1.7677670e-2
v 4.0678228e-18 6.5000000e-2 2.5000000e-2
v -1.7677670e-2 6.5000000e-2 1.7677670e-2
v -2.5000000e-2 6.5000000e-2 2.4326786e-18
v -1.7677670e-2 6.5000000e-2 -1.7677670e-2
v -2.0554313e-18 6.5000000e-2 -2.5000000e-2
v 1.7677670e-2 6.5000000e-2 -1.7677670e-2
v 2.5000000e-2 -2.2500000e-2 2.4326786e-18
v 1.7677670e-2 -2.2500000e-2 1.7677670e-2
v 4.0678228e-18 -2.2500000e-2 2.5000000e-2
v -1.7677670e-2 -2.2500000e-2 1.7677670e-2
v -2.5000000e-2 -2.2500000e-2 2.4326786e-18
v -1.7677670e-2 -2.2500000e-2 -1.7677670e-2
v -2.0554313e-18 -2.2500000e-2 -2.5000000e-2
v 1.7677670e-2 -2.2500000e-2 -1.7677670e-2
vt 0.92776412 0.28818792
vt 0.92776412 0.36760395
vt 0.93061184 0.28131292
vt 0.93061184 0.29506292
vt 0.93061184 0.31086558
vt 0.93061184 0.31086558
vt 0.93061184 0.34489509
vt 0.93061184 0.34489509
vt 0.93061184 0.36072895
vt 0.93061184 0.37447895
vt 0.93748684 0.27846520
vt 0.93748684 0.29791064
vt 0.93748684 0.31086558
vt 0.93748684 0.31086558
vt 0.93748684 0.34489509
vt 0.93748684 0.34489509
vt 0.93748684 0.35788123
vt 0.93748684 0.37732666
vt 0.94436184 0.34489509
vt 0.94436184 0.28131292
vt 0.94436184 0.29506292
vt 0.94436184 0.31086558
vt 0.94436184 0.31086558
vt 0.94436184 0.34489509
vt 0.94436184 0.34489509
vt 0.94436184 0.36072895
vt 0.94436184 0.37447895
vt 0.94720956 0.28818792
vt 0.94720956 0.36760395
vn 0.0000000e+0 1.00000000 -1.2266347e-16
vn 1.00000000 4.3808383e-18 6.0084837e-17
vn 1.00000000 4.3808383e-18 6.0084837e-17
vn 0.0000000e+0 1.00000000 -1.2266347e-16
vn 0.70710678 2.1904192e-17 0.70710678
vn 0.70710678 2.1904192e-17 0.70710678
vn 0.0000000e+0 1.00000000 -1.2266347e-16
vn 1.8025451e-16 3.9427545e-17 1.00000000
vn 1.8025451e-16 3.9427545e-17 1.00000000
vn 0.0000000e+0 1.00000000 -1.2266347e-16
vn -0.70710678 2.6285030e-17 0.70710678
vn -0.70710678 2.6285030e-17 0.70710678
vn 0.0000000e+0 1.00000000 -1.2266347e-16
vn -1.00000000 -4.3808383e-18 9.0127256e-17
vn -1.00000000 -4.3808383e-18 9.0127256e-17
vn 0.0000000e+0 1.00000000 -1.2266347e-16
vn -0.70710678 -3.0665868e-17 -0.70710678
vn -0.70710678 -3.0665868e-17 -0.70710678
vn 0.0000000e+0 1.00000000 -1.2266347e-16
vn -9.0127256e-17 -2.1904192e-17 -1.00000000
vn -9.0127256e-17 -2.1904192e-17 -1.00000000
vn 0.0000000e+0 1.00000000 -1.2266347e-16
vn 0.70710678 0.0000000e+0 -0.70710678
vn 0.70710678 0.0000000e+0 -0.70710678
vn 0.0000000e+0 -1.00000000 4.5998803e-17
vn 1.00000000 4.3808383e-18 6.0084837e-17
vn 1.00000000 4.3808383e-18 6.0084837e-17
vn 0.0000000e+0 -1.00000000 4.5998803e-17
vn 0.70710678 2.1904192e-17 0.70710678
vn 0.70710678 2.1904192e-17 0.70710678
vn 0.0000000e+0 -1.00000000 4.5998803e-17
vn 1.8025451e-16 3.9427545e-17 1.00000000
vn 1.8025451e-16 3.9427545e-17 1.00000000
vn 0.0000000e+0 -1.00000000 4.5998803e-17
vn -0.70710678 2.6285030e-17 0.70710678
vn -0.70710678 2.6285030e-17 0.70710678
vn 0.0000000e+0 -1.00000000 4.5998803e-17
vn -1.00000000 -4.3808383e-18 9.0127256e-17
vn -1.00000000 -4.3808383e-18 9.0127256e-17
vn 0.0000000e+0 -1.00000000 4.5998803e-17
vn -0.70710678 -3.0665868e-17 -0.70710678
vn -0.70710678 -3.0665868e-17 -0.70710678
vn 0.0000000e+0 -1.00000000 4.5998803e-17
vn -9.0127256e-17 -2.1904192e-17 -1.00000000
vn -9.0127256e-17 -2.1904192e-17 -1.00000000
vn 0.0000000e+0 -1.00000000 4.5998803e-17
vn 0.70710678 0.0000000e+0 -0.70710678
vn 0.70710678 0.0000000e+0 -0.70710678
g Eridani_Antenna_3_Base_Eridani_Antenna_3_Base_auv
usemtl Eridani_Antenna_3_Base_auv
s 1
f 1/2/1 8/9/22 7/17/19 6/26/16 5/29/13 4/27/10 3/18/7 2/10/4
f 10/21/28 11/12/31 12/4/34 13/1/37 14/3/40 15/11/43 16/20/46 9/28/25
s 2
f 1/8/2 9/6/26 16/14/47 8/16/23
f 2/16/6 10/14/30 9/23/27 1/25/3
f 3/8/9 11/6/33 10/14/29 2/16/5
f 4/16/12 12/14/36 11/23/32 3/19/8
f 5/8/15 13/6/39 12/14/35 4/16/11
f 6/15/18 14/13/42 13/22/38 5/24/14
f 7/7/21 15/5/45 14/13/41 6/15/17
f 8/16/24 16/14/48 15/23/44 7/25/20
