# Exported from Wings 3D 1.5.4
mtllib Tantares_SolarBasic_1_1.mtl
o Tantares_SolarBasic_1_1
#8 vertices, 6 faces
v -0.50000000 -5.0000000e-3 -0.19500000
v -0.50000000 -5.0000000e-3 5.0000000e-3
v -0.50000000 5.0000000e-3 -0.19500000
v -0.50000000 5.0000000e-3 5.0000000e-3
v 0.50000000 -5.0000000e-3 -0.19500000
v 0.50000000 -5.0000000e-3 5.0000000e-3
v 0.50000000 5.0000000e-3 -0.19500000
v 0.50000000 5.0000000e-3 5.0000000e-3
vt 0.78240649 0.59375000
vt 0.78240649 0.59375000
vt 0.78240649 0.98125000
vt 0.79015649 0.59375000
vt 0.79015649 0.59375000
vt 0.79015649 0.98125000
vt 0.80902222 0.59375000
vt 0.80902222 0.98125000
vt 0.88652222 0.59375000
vt 0.88652222 0.98125000
vt 0.90375000 0.59375000
vt 0.90375000 0.98125000
vt 0.90378159 0.56743149
vt 0.90378159 0.57518149
vt 0.98125000 0.59375000
vt 0.98125000 0.98125000
vt 0.98128159 0.56743149
vt 0.98128159 0.57518149
vn 0.0000000e+0 -1.00000000 0.0000000e+0
vn 0.0000000e+0 0.0000000e+0 -1.00000000
vn -1.00000000 0.0000000e+0 0.0000000e+0
vn 0.0000000e+0 -1.00000000 0.0000000e+0
vn 0.0000000e+0 0.0000000e+0 1.00000000
vn -1.00000000 0.0000000e+0 0.0000000e+0
vn 0.0000000e+0 1.00000000 0.0000000e+0
vn 0.0000000e+0 0.0000000e+0 -1.00000000
vn -1.00000000 0.0000000e+0 0.0000000e+0
vn 0.0000000e+0 1.00000000 0.0000000e+0
vn 0.0000000e+0 0.0000000e+0 1.00000000
vn -1.00000000 0.0000000e+0 0.0000000e+0
vn 0.0000000e+0 -1.00000000 0.0000000e+0
vn 0.0000000e+0 0.0000000e+0 -1.00000000
vn 1.00000000 0.0000000e+0 0.0000000e+0
vn 0.0000000e+0 -1.00000000 0.0000000e+0
vn 0.0000000e+0 0.0000000e+0 1.00000000
vn 1.00000000 0.0000000e+0 0.0000000e+0
vn 0.0000000e+0 1.00000000 0.0000000e+0
vn 0.0000000e+0 0.0000000e+0 -1.00000000
vn 1.00000000 0.0000000e+0 0.0000000e+0
vn 0.0000000e+0 1.00000000 0.0000000e+0
vn 0.0000000e+0 0.0000000e+0 1.00000000
vn 1.00000000 0.0000000e+0 0.0000000e+0
g Tantares_SolarBasic_1_1_Tantares_SolarBasic_1_1_auv
usemtl Tantares_SolarBasic_1_1_auv
s 1
f 2/14/6 4/13/12 3/17/9 1/18/3
f 5/14/15 7/13/21 8/17/24 6/18/18
s 2
f 2/5/5 6/6/17 8/3/23 4/2/11
f 3/3/8 7/1/20 5/4/14 1/6/2
s 3
f 1/8/1 5/7/13 6/9/16 2/10/4
f 4/15/10 8/16/22 7/12/19 3/11/7
