# Exported from Wings 3D 1.5.4
mtllib Eridani_Antenna_4_Arm.mtl
o Eridani_Antenna_4_Arm
#104 vertices, 64 faces
v 5.0000000e-2 -1.37500000 -3.1250000e-2
v 5.0000000e-2 -1.39709709 -2.2097087e-2
v 5.0000000e-2 -1.40625000 -3.6449123e-18
v 5.0000000e-2 -1.39709709 2.2097087e-2
v 5.0000000e-2 -1.37500000 3.1250000e-2
v 5.0000000e-2 -1.35290291 2.2097087e-2
v 5.0000000e-2 -1.34375000 4.0091301e-18
v 5.0000000e-2 -1.35290291 -2.2097087e-2
v -5.0000000e-2 -1.37500000 -3.1250000e-2
v -5.0000000e-2 -1.39709709 -2.2097087e-2
v -5.0000000e-2 -1.40625000 -6.0368006e-18
v -5.0000000e-2 -1.39709709 2.2097087e-2
v -5.0000000e-2 -1.37500000 3.1250000e-2
v -5.0000000e-2 -1.35290291 2.2097087e-2
v -5.0000000e-2 -1.34375000 1.6172419e-18
v -5.0000000e-2 -1.35290291 -2.2097087e-2
v 5.0000000e-2 0.0000000e+0 -3.1250000e-2
v 5.0000000e-2 2.2097087e-2 -2.2097087e-2
v 5.0000000e-2 3.1250000e-2 5.3159140e-16
v 5.0000000e-2 2.2097087e-2 2.2097087e-2
v 5.0000000e-2 0.0000000e+0 3.1250000e-2
v 5.0000000e-2 -2.2097087e-2 2.2097087e-2
v 5.0000000e-2 -3.1250000e-2 7.0154591e-16
v 5.0000000e-2 -2.2097087e-2 -2.2097087e-2
v -5.0000000e-2 0.0000000e+0 -3.1250000e-2
v -5.0000000e-2 2.2097087e-2 -2.2097087e-2
v -5.0000000e-2 3.1250000e-2 2.6951875e-16
v -5.0000000e-2 2.2097087e-2 2.2097087e-2
v -5.0000000e-2 0.0000000e+0 3.1250000e-2
v -5.0000000e-2 -2.2097087e-2 2.2097087e-2
v -5.0000000e-2 -3.1250000e-2 4.3947327e-16
v -5.0000000e-2 -2.2097087e-2 -2.2097087e-2
v 3.1250000e-2 -0.12500000 8.9229735e-16
v 2.2097087e-2 -0.12500000 2.2097087e-2
v 1.1547136e-17 -0.12500000 3.1250000e-2
v -2.2097087e-2 -0.12500000 2.2097087e-2
v -3.1250000e-2 -0.12500000 7.3382390e-16
v -2.2097087e-2 -0.12500000 -2.2097087e-2
v 1.6619357e-16 -0.12500000 -3.1250000e-2
v 2.2097087e-2 -0.12500000 -2.2097087e-2
v 1.1547136e-17 0.0000000e+0 3.1250000e-2
v 1.6619357e-16 0.0000000e+0 -3.1250000e-2
v 2.2097087e-2 -2.2097087e-2 -2.2097087e-2
v -2.2097087e-2 -2.2097087e-2 -2.2097087e-2
v -3.1250000e-2 -3.1250000e-2 4.9037319e-16
v 3.1250000e-2 -3.1250000e-2 6.4884664e-16
v -2.2097087e-2 -2.2097087e-2 2.2097087e-2
v 2.2097087e-2 -2.2097087e-2 2.2097087e-2
v 3.3145630e-2 -0.18750000 3.3145630e-2
v 4.6875000e-2 -0.18750000 1.1014179e-15
v 3.3145630e-2 -0.18750000 -3.3145630e-2
v 2.0979648e-16 -0.18750000 -4.6875000e-2
v -3.3145630e-2 -0.18750000 -3.3145630e-2
v -4.6875000e-2 -0.18750000 8.6370777e-16
v -3.3145630e-2 -0.18750000 3.3145630e-2
v -2.2173167e-17 -0.18750000 4.6875000e-2
v 7.5000000e-2 -0.18750000 1.0209545e-15
v 6.4951905e-2 -0.18750000 3.7500000e-2
v 3.7500000e-2 -0.18750000 6.4951905e-2
v 1.6534794e-16 -0.18750000 7.5000000e-2
v -3.7500000e-2 -0.18750000 6.4951905e-2
v -6.4951905e-2 -0.18750000 3.7500000e-2
v -7.5000000e-2 -0.18750000 1.1471843e-15
v -6.4951905e-2 -0.18750000 -3.7500000e-2
v -3.7500000e-2 -0.18750000 -6.4951905e-2
v 2.9933283e-17 -0.18750000 -7.5000000e-2
v 3.7500000e-2 -0.18750000 -6.4951905e-2
v 6.4951905e-2 -0.18750000 -3.7500000e-2
v 7.5000000e-2 -1.18750000 -1.4949502e-16
v 6.4951905e-2 -1.18750000 3.7500000e-2
v 3.7500000e-2 -1.18750000 6.4951905e-2
v 1.6534794e-16 -1.18750000 7.5000000e-2
v -3.7500000e-2 -1.18750000 6.4951905e-2
v -6.4951905e-2 -1.18750000 3.7500000e-2
v -7.5000000e-2 -1.18750000 -2.3265212e-17
v -6.4951905e-2 -1.18750000 -3.7500000e-2
v -3.7500000e-2 -1.18750000 -6.4951905e-2
v 2.9933283e-17 -1.18750000 -7.5000000e-2
v 3.7500000e-2 -1.18750000 -6.4951905e-2
v 6.4951905e-2 -1.18750000 -3.7500000e-2
v 3.1250000e-2 -1.25000000 0.0000000e+0
v 2.2097087e-2 -1.25000000 2.2097087e-2
v 9.0384408e-17 -1.25000000 3.1250000e-2
v -2.2097087e-2 -1.25000000 2.2097087e-2
v -3.1250000e-2 -1.25000000 3.8270212e-18
v -2.2097087e-2 -1.25000000 -2.2097087e-2
v 8.2730365e-17 -1.25000000 -3.1250000e-2
v 2.2097087e-2 -1.25000000 -2.2097087e-2
v 9.0384408e-17 -1.37500000 3.1250000e-2
v 8.2730365e-17 -1.37500000 -3.1250000e-2
v 2.2097087e-2 -1.35290291 -2.2097087e-2
v -2.2097087e-2 -1.35290291 -2.2097087e-2
v -3.1250000e-2 -1.34375000 3.8270212e-18
v 3.1250000e-2 -1.34375000 0.0000000e+0
v -2.2097087e-2 -1.35290291 2.2097087e-2
v 2.2097087e-2 -1.35290291 2.2097087e-2
v 3.3145630e-2 -1.18750000 3.3145630e-2
v 4.6875000e-2 -1.18750000 6.2450045e-18
v 3.3145630e-2 -1.18750000 -3.3145630e-2
v 8.5758159e-17 -1.18750000 -4.6875000e-2
v -3.3145630e-2 -1.18750000 -3.3145630e-2
v -4.6875000e-2 -1.18750000 1.1985536e-17
v -3.3145630e-2 -1.18750000 3.3145630e-2
v 9.7239223e-17 -1.18750000 4.6875000e-2
vn 0.0000000e+0 2.4033935e-16 -1.00000000
vn 3.0665868e-18 -0.70710678 -0.70710678
vn 8.3384462e-34 -1.00000000 -3.0042419e-17
vn -3.0665868e-18 -0.70710678 0.70710678
vn 0.0000000e+0 -1.5021209e-16 1.00000000
vn -3.0665868e-18 0.70710678 0.70710678
vn 8.3384462e-34 1.00000000 -3.0042419e-17
vn 3.0665868e-18 0.70710678 -0.70710678
vn 0.0000000e+0 2.4033935e-16 -1.00000000
vn 3.0665868e-18 -0.70710678 -0.70710678
vn 8.3384462e-34 -1.00000000 -3.0042419e-17
vn -3.0665868e-18 -0.70710678 0.70710678
vn 0.0000000e+0 -1.5021209e-16 1.00000000
vn -3.0665868e-18 0.70710678 0.70710678
vn 8.3384462e-34 1.00000000 -3.0042419e-17
vn 3.0665868e-18 0.70710678 -0.70710678
vn 2.6188652e-15 -2.4334359e-15 -1.00000000
vn 1.8491519e-15 0.70710678 -0.70710678
vn 3.0665868e-18 1.00000000 -3.6050902e-16
vn -1.8276858e-15 0.70710678 0.70710678
vn -2.5820661e-15 2.3733511e-15 1.00000000
vn -1.8307523e-15 -0.70710678 0.70710678
vn -9.6058900e-31 -1.00000000 3.6050902e-16
vn 1.8491519e-15 -0.70710678 -0.70710678
vn 2.6188652e-15 -2.4334359e-15 -1.00000000
vn 1.8491519e-15 0.70710678 -0.70710678
vn 3.0665868e-18 1.00000000 -3.6050902e-16
vn -1.8276858e-15 0.70710678 0.70710678
vn -2.5820661e-15 2.3733511e-15 1.00000000
vn -1.8307523e-15 -0.70710678 0.70710678
vn -9.6058900e-31 -1.00000000 3.6050902e-16
vn 1.8491519e-15 -0.70710678 -0.70710678
vn -2.4935207e-15 2.6023270e-15 1.00000000
vn 2.4334359e-15 -2.6023270e-15 -1.00000000
vn 0.70710678 -1.8389394e-15 -0.70710678
vn -0.70710678 -1.8424858e-15 -0.70710678
vn -1.00000000 -3.1187810e-18 -2.4033935e-15
vn 1.00000000 2.1346422e-31 2.6437328e-15
vn -0.70710678 1.8393670e-15 0.70710678
vn 0.70710678 1.8389394e-15 0.70710678
vn 9.0127256e-17 0.0000000e+0 1.00000000
vn -1.5021209e-16 0.0000000e+0 -1.00000000
vn 0.70710678 0.0000000e+0 -0.70710678
vn -0.70710678 0.0000000e+0 -0.70710678
vn -1.00000000 0.0000000e+0 1.5021209e-16
vn 1.00000000 0.0000000e+0 -6.0084837e-17
vn -0.70710678 0.0000000e+0 0.70710678
vn 0.70710678 0.0000000e+0 0.70710678
vn 1.00000000 2.1346422e-31 2.6437328e-15
vn 1.00000000 2.1346422e-31 2.6437328e-15
vn 0.97014250 0.24253563 2.3032809e-15
vn 0.97014250 0.24253563 2.3032809e-15
vn 0.70710678 1.8389394e-15 0.70710678
vn 0.70710678 1.8389394e-15 0.70710678
vn 0.68599434 0.24253563 0.68599434
vn 0.68599434 0.24253563 0.68599434
vn -2.4935207e-15 2.6023270e-15 1.00000000
vn -2.4935207e-15 2.6023270e-15 1.00000000
vn -2.4229318e-15 0.24253563 0.97014250
vn -2.4229318e-15 0.24253563 0.97014250
vn -0.70710678 1.8393670e-15 0.70710678
vn -0.70710678 1.8393670e-15 0.70710678
vn -0.68599434 0.24253563 0.68599434
vn -0.68599434 0.24253563 0.68599434
vn -1.00000000 -3.1187810e-18 -2.4033935e-15
vn -1.00000000 -3.1187810e-18 -2.4033935e-15
vn -0.97014250 0.24253563 -2.5126700e-15
vn -0.97014250 0.24253563 -2.5126700e-15
vn -0.70710678 -1.8424858e-15 -0.70710678
vn -0.70710678 -1.8424858e-15 -0.70710678
vn -0.68599434 0.24253563 -0.68599434
vn -0.68599434 0.24253563 -0.68599434
vn 2.4334359e-15 -2.6023270e-15 -1.00000000
vn 2.4334359e-15 -2.6023270e-15 -1.00000000
vn 2.3631063e-15 0.24253563 -0.97014250
vn 2.3631063e-15 0.24253563 -0.97014250
vn 0.70710678 -1.8389394e-15 -0.70710678
vn 0.70710678 -1.8389394e-15 -0.70710678
vn 0.68599434 0.24253563 -0.68599434
vn 0.68599434 0.24253563 -0.68599434
vn 0.68599434 0.24253563 0.68599434
vn 0.68599434 0.24253563 0.68599434
vn -5.9499616e-30 -1.00000000 2.5121479e-15
vn 0.97014250 0.24253563 2.3032809e-15
vn 0.97014250 0.24253563 2.3032809e-15
vn -5.9499616e-30 -1.00000000 2.5121479e-15
vn 0.68599434 0.24253563 -0.68599434
vn 0.68599434 0.24253563 -0.68599434
vn -5.9499616e-30 -1.00000000 2.5121479e-15
vn 2.3631063e-15 0.24253563 -0.97014250
vn 2.3631063e-15 0.24253563 -0.97014250
vn -5.9499616e-30 -1.00000000 2.5121479e-15
vn -0.68599434 0.24253563 -0.68599434
vn -0.68599434 0.24253563 -0.68599434
vn -5.9499616e-30 -1.00000000 2.5121479e-15
vn -0.97014250 0.24253563 -2.5126700e-15
vn -0.97014250 0.24253563 -2.5126700e-15
vn -5.9499616e-30 -1.00000000 2.5121479e-15
vn -0.68599434 0.24253563 0.68599434
vn -0.68599434 0.24253563 0.68599434
vn -5.9499616e-30 -1.00000000 2.5121479e-15
vn -2.4229318e-15 0.24253563 0.97014250
vn -2.4229318e-15 0.24253563 0.97014250
vn -5.9499616e-30 -1.00000000 2.5121479e-15
vn 0.0000000e+0 1.00000000 0.0000000e+0
vn 1.00000000 3.6140072e-19 -9.7697933e-16
vn 1.00000000 3.6140072e-19 -9.7697933e-16
vn 0.0000000e+0 1.00000000 0.0000000e+0
vn 0.86602540 -5.8402357e-16 0.50000000
vn 0.86602540 -5.8402357e-16 0.50000000
vn 0.0000000e+0 1.00000000 0.0000000e+0
vn 0.50000000 -1.0101150e-15 0.86602540
vn 0.50000000 -1.0101150e-15 0.86602540
vn 0.0000000e+0 1.00000000 0.0000000e+0
vn 8.6204059e-16 -1.1658787e-15 1.00000000
vn 8.6204059e-16 -1.1658787e-15 1.00000000
vn 0.0000000e+0 1.00000000 0.0000000e+0
vn -0.50000000 -1.0101150e-15 0.86602540
vn -0.50000000 -1.0101150e-15 0.86602540
vn 0.0000000e+0 1.00000000 0.0000000e+0
vn -0.86602540 -5.8330077e-16 0.50000000
vn -0.86602540 -5.8330077e-16 0.50000000
vn 0.0000000e+0 1.00000000 0.0000000e+0
vn -1.00000000 7.2280145e-19 9.7697933e-16
vn -1.00000000 7.2280145e-19 9.7697933e-16
vn 0.0000000e+0 1.00000000 0.0000000e+0
vn -0.86602540 5.8836038e-16 -0.50000000
vn -0.86602540 5.8836038e-16 -0.50000000
vn 0.0000000e+0 1.00000000 0.0000000e+0
vn -0.50000000 1.0180658e-15 -0.86602540
vn -0.50000000 1.0180658e-15 -0.86602540
vn 0.0000000e+0 1.00000000 0.0000000e+0
vn -1.2643262e-15 1.1731068e-15 -1.00000000
vn -1.2643262e-15 1.1731068e-15 -1.00000000
vn 0.0000000e+0 1.00000000 0.0000000e+0
vn 0.50000000 1.0173430e-15 -0.86602540
vn 0.50000000 1.0173430e-15 -0.86602540
vn 0.0000000e+0 1.00000000 0.0000000e+0
vn 0.86602540 5.8799898e-16 -0.50000000
vn 0.86602540 5.8799898e-16 -0.50000000
vn 0.0000000e+0 -1.00000000 -1.1307827e-15
vn 1.00000000 3.6140072e-19 -9.7697933e-16
vn 1.00000000 3.6140072e-19 -9.7697933e-16
vn 0.0000000e+0 -1.00000000 -1.1307827e-15
vn 0.86602540 -5.8402357e-16 0.50000000
vn 0.86602540 -5.8402357e-16 0.50000000
vn 0.0000000e+0 -1.00000000 -1.1307827e-15
vn 0.50000000 -1.0101150e-15 0.86602540
vn 0.50000000 -1.0101150e-15 0.86602540
vn 0.0000000e+0 -1.00000000 -1.1307827e-15
vn 8.6204059e-16 -1.1658787e-15 1.00000000
vn 8.6204059e-16 -1.1658787e-15 1.00000000
vn 0.0000000e+0 -1.00000000 -1.1307827e-15
vn -0.50000000 -1.0101150e-15 0.86602540
vn -0.50000000 -1.0101150e-15 0.86602540
vn 0.0000000e+0 -1.00000000 -1.1307827e-15
vn -0.86602540 -5.8330077e-16 0.50000000
vn -0.86602540 -5.8330077e-16 0.50000000
vn 0.0000000e+0 -1.00000000 -1.1307827e-15
vn -1.00000000 7.2280145e-19 9.7697933e-16
vn -1.00000000 7.2280145e-19 9.7697933e-16
vn 0.0000000e+0 -1.00000000 -1.1307827e-15
vn -0.86602540 5.8836038e-16 -0.50000000
vn -0.86602540 5.8836038e-16 -0.50000000
vn 0.0000000e+0 -1.00000000 -1.1307827e-15
vn -0.50000000 1.0180658e-15 -0.86602540
vn -0.50000000 1.0180658e-15 -0.86602540
vn 0.0000000e+0 -1.00000000 -1.1307827e-15
vn -1.2643262e-15 1.1731068e-15 -1.00000000
vn -1.2643262e-15 1.1731068e-15 -1.00000000
vn 0.0000000e+0 -1.00000000 -1.1307827e-15
vn 0.50000000 1.0173430e-15 -0.86602540
vn 0.50000000 1.0173430e-15 -0.86602540
vn 0.0000000e+0 -1.00000000 -1.1307827e-15
vn 0.86602540 5.8799898e-16 -0.50000000
vn 0.86602540 5.8799898e-16 -0.50000000
vn 1.00000000 0.0000000e+0 -6.0084837e-17
vn 1.00000000 0.0000000e+0 -6.0084837e-17
vn 0.97014250 -0.24253563 -1.1965095e-16
vn 0.97014250 -0.24253563 -1.1965095e-16
vn 0.70710678 0.0000000e+0 0.70710678
vn 0.70710678 0.0000000e+0 0.70710678
vn 0.68599434 -0.24253563 0.68599434
vn 0.68599434 -0.24253563 0.68599434
vn 9.0127256e-17 0.0000000e+0 1.00000000
vn 9.0127256e-17 0.0000000e+0 1.00000000
vn 8.9738215e-17 -0.24253563 0.97014250
vn 8.9738215e-17 -0.24253563 0.97014250
vn -0.70710678 0.0000000e+0 0.70710678
vn -0.70710678 0.0000000e+0 0.70710678
vn -0.68599434 -0.24253563 0.68599434
vn -0.68599434 -0.24253563 0.68599434
vn -1.00000000 0.0000000e+0 1.5021209e-16
vn -1.00000000 0.0000000e+0 1.5021209e-16
vn -0.97014250 -0.24253563 5.9825477e-17
vn -0.97014250 -0.24253563 5.9825477e-17
vn -0.70710678 0.0000000e+0 -0.70710678
vn -0.70710678 0.0000000e+0 -0.70710678
vn -0.68599434 -0.24253563 -0.68599434
vn -0.68599434 -0.24253563 -0.68599434
vn -1.5021209e-16 0.0000000e+0 -1.00000000
vn -1.5021209e-16 0.0000000e+0 -1.00000000
vn -1.7947643e-16 -0.24253563 -0.97014250
vn -1.7947643e-16 -0.24253563 -0.97014250
vn 0.70710678 0.0000000e+0 -0.70710678
vn 0.70710678 0.0000000e+0 -0.70710678
vn 0.68599434 -0.24253563 -0.68599434
vn 0.68599434 -0.24253563 -0.68599434
vn 0.68599434 -0.24253563 0.68599434
vn 0.68599434 -0.24253563 0.68599434
vn 0.0000000e+0 1.00000000 -1.1165102e-15
vn 0.97014250 -0.24253563 -1.1965095e-16
vn 0.97014250 -0.24253563 -1.1965095e-16
vn 0.0000000e+0 1.00000000 -1.1165102e-15
vn 0.68599434 -0.24253563 -0.68599434
vn 0.68599434 -0.24253563 -0.68599434
vn 0.0000000e+0 1.00000000 -1.1165102e-15
vn -1.7947643e-16 -0.24253563 -0.97014250
vn -1.7947643e-16 -0.24253563 -0.97014250
vn 0.0000000e+0 1.00000000 -1.1165102e-15
vn -0.68599434 -0.24253563 -0.68599434
vn -0.68599434 -0.24253563 -0.68599434
vn 0.0000000e+0 1.00000000 -1.1165102e-15
vn -0.97014250 -0.24253563 5.9825477e-17
vn -0.97014250 -0.24253563 5.9825477e-17
vn 0.0000000e+0 1.00000000 -1.1165102e-15
vn -0.68599434 -0.24253563 0.68599434
vn -0.68599434 -0.24253563 0.68599434
vn 0.0000000e+0 1.00000000 -1.1165102e-15
vn 8.9738215e-17 -0.24253563 0.97014250
vn 8.9738215e-17 -0.24253563 0.97014250
vn 0.0000000e+0 1.00000000 -1.1165102e-15
g Eridani_Antenna_4_Arm_default
usemtl default
s 1
f 1//1 9//9 16//16 8//8
f 2//2 10//10 9//9 1//1
f 3//3 11//11 10//10 2//2
f 4//4 12//12 11//11 3//3
f 5//5 13//13 12//12 4//4
f 6//6 14//14 13//13 5//5
f 7//7 15//15 14//14 6//6
f 8//8 16//16 15//15 7//7
f 17//17 25//25 26//26 18//18
f 18//18 26//26 27//27 19//19
f 19//19 27//27 28//28 20//20
f 20//20 28//28 29//29 21//21
f 21//21 29//29 30//30 22//22
f 22//22 30//30 31//31 23//23
f 23//23 31//31 32//32 24//24
f 24//24 32//32 25//25 17//17
f 33//50 46//38 48//40 34//54
f 34//53 48//40 41//33 35//58
f 35//57 41//33 47//39 36//62
f 36//61 47//39 45//37 37//66
f 37//65 45//37 44//36 38//70
f 38//69 44//36 42//34 39//74
f 39//73 42//34 43//35 40//78
f 40//77 43//35 46//38 33//49
f 49//83 56//104 55//101 54//98 53//95 52//92 51//89 50//86
f 57//105 68//138 67//135 66//132 65//129 64//126 63//123 62//120 61//117 60//114 59//111 58//108
f 70//144 71//147 72//150 73//153 74//156 75//159 76//162 77//165 78//168 79//171 80//174 69//141
f 81//177 94//46 91//43 88//205
f 82//182 96//48 94//46 81//178
f 83//186 89//41 96//48 82//181
f 84//190 95//47 89//41 83//185
f 85//194 93//45 95//47 84//189
f 86//198 92//44 93//45 85//193
f 87//202 90//42 92//44 86//197
f 88//206 91//43 90//42 87//201
f 98//214 99//217 100//220 101//223 102//226 103//229 104//232 97//211
s 2
f 33//52 50//85 51//87 40//79
f 34//55 49//81 50//84 33//51
f 35//60 56//103 49//82 34//56
f 36//64 55//100 56//102 35//59
f 37//68 54//97 55//99 36//63
f 38//72 53//94 54//96 37//67
f 39//76 52//91 53//93 38//71
f 40//80 51//88 52//90 39//75
f 57//106 69//142 80//175 68//139
f 58//110 70//146 69//143 57//107
f 59//113 71//149 70//145 58//109
f 60//116 72//152 71//148 59//112
f 61//119 73//155 72//151 60//115
f 62//122 74//158 73//154 61//118
f 63//125 75//161 74//157 62//121
f 64//128 76//164 75//160 63//124
f 65//131 77//167 76//163 64//127
f 66//134 78//170 77//166 65//130
f 67//137 79//173 78//169 66//133
f 68//140 80//176 79//172 67//136
f 81//179 98//212 97//209 82//183
f 82//184 97//210 104//231 83//188
f 83//187 104//230 103//228 84//192
f 84//191 103//227 102//225 85//196
f 85//195 102//224 101//222 86//200
f 86//199 101//221 100//219 87//204
f 87//203 100//218 99//216 88//208
f 88//207 99//215 98//213 81//180
