# Exported from Wings 3D 1.5.4
mtllib Eridani_Antenna_4_Arm.mtl
o Eridani_Antenna_4_Arm
#24 vertices, 14 faces
v 7.5000000e-2 0.0000000e+0 1.0209545e-15
v 6.4951905e-2 0.0000000e+0 3.7500000e-2
v 3.7500000e-2 0.0000000e+0 6.4951905e-2
v 6.3577496e-17 0.0000000e+0 7.5000000e-2
v -3.7500000e-2 0.0000000e+0 6.4951905e-2
v -6.4951905e-2 0.0000000e+0 3.7500000e-2
v -7.5000000e-2 0.0000000e+0 1.1471843e-15
v -6.4951905e-2 0.0000000e+0 -3.7500000e-2
v -3.7500000e-2 0.0000000e+0 -6.4951905e-2
v -7.1837161e-17 0.0000000e+0 -7.5000000e-2
v 3.7500000e-2 0.0000000e+0 -6.4951905e-2
v 6.4951905e-2 0.0000000e+0 -3.7500000e-2
v 7.5000000e-2 -1.00000000 -1.4949502e-16
v 6.4951905e-2 -1.00000000 3.7500000e-2
v 3.7500000e-2 -1.00000000 6.4951905e-2
v 6.3577496e-17 -1.00000000 7.5000000e-2
v -3.7500000e-2 -1.00000000 6.4951905e-2
v -6.4951905e-2 -1.00000000 3.7500000e-2
v -7.5000000e-2 -1.00000000 -2.3265212e-17
v -6.4951905e-2 -1.00000000 -3.7500000e-2
v -3.7500000e-2 -1.00000000 -6.4951905e-2
v -7.1837161e-17 -1.00000000 -7.5000000e-2
v 3.7500000e-2 -1.00000000 -6.4951905e-2
v 6.4951905e-2 -1.00000000 -3.7500000e-2
vn 0.0000000e+0 1.00000000 0.0000000e+0
vn 1.00000000 3.6140072e-19 -9.7697933e-16
vn 1.00000000 3.6140072e-19 -9.7697933e-16
vn 0.0000000e+0 1.00000000 0.0000000e+0
vn 0.86602540 -5.8330077e-16 0.50000000
vn 0.86602540 -5.8330077e-16 0.50000000
vn 0.0000000e+0 1.00000000 0.0000000e+0
vn 0.50000000 -1.0093922e-15 0.86602540
vn 0.50000000 -1.0093922e-15 0.86602540
vn 0.0000000e+0 1.00000000 0.0000000e+0
vn 8.6204059e-16 -1.1658787e-15 1.00000000
vn 8.6204059e-16 -1.1658787e-15 1.00000000
vn 0.0000000e+0 1.00000000 0.0000000e+0
vn -0.50000000 -1.0093922e-15 0.86602540
vn -0.50000000 -1.0093922e-15 0.86602540
vn 0.0000000e+0 1.00000000 0.0000000e+0
vn -0.86602540 -5.8257797e-16 0.50000000
vn -0.86602540 -5.8257797e-16 0.50000000
vn 0.0000000e+0 1.00000000 0.0000000e+0
vn -1.00000000 7.2280145e-19 9.7697933e-16
vn -1.00000000 7.2280145e-19 9.7697933e-16
vn 0.0000000e+0 1.00000000 0.0000000e+0
vn -0.86602540 5.8908318e-16 -0.50000000
vn -0.86602540 5.8908318e-16 -0.50000000
vn 0.0000000e+0 1.00000000 0.0000000e+0
vn -0.50000000 1.0184272e-15 -0.86602540
vn -0.50000000 1.0184272e-15 -0.86602540
vn 0.0000000e+0 1.00000000 0.0000000e+0
vn -1.2068568e-15 1.1723839e-15 -1.00000000
vn -1.2068568e-15 1.1723839e-15 -1.00000000
vn 0.0000000e+0 1.00000000 0.0000000e+0
vn 0.50000000 1.0169816e-15 -0.86602540
vn 0.50000000 1.0169816e-15 -0.86602540
vn 0.0000000e+0 1.00000000 0.0000000e+0
vn 0.86602540 5.8799898e-16 -0.50000000
vn 0.86602540 5.8799898e-16 -0.50000000
vn 0.0000000e+0 -1.00000000 0.0000000e+0
vn 1.00000000 3.6140072e-19 -9.7697933e-16
vn 1.00000000 3.6140072e-19 -9.7697933e-16
vn 0.0000000e+0 -1.00000000 0.0000000e+0
vn 0.86602540 -5.8330077e-16 0.50000000
vn 0.86602540 -5.8330077e-16 0.50000000
vn 0.0000000e+0 -1.00000000 0.0000000e+0
vn 0.50000000 -1.0093922e-15 0.86602540
vn 0.50000000 -1.0093922e-15 0.86602540
vn 0.0000000e+0 -1.00000000 0.0000000e+0
vn 8.6204059e-16 -1.1658787e-15 1.00000000
vn 8.6204059e-16 -1.1658787e-15 1.00000000
vn 0.0000000e+0 -1.00000000 0.0000000e+0
vn -0.50000000 -1.0093922e-15 0.86602540
vn -0.50000000 -1.0093922e-15 0.86602540
vn 0.0000000e+0 -1.00000000 0.0000000e+0
vn -0.86602540 -5.8257797e-16 0.50000000
vn -0.86602540 -5.8257797e-16 0.50000000
vn 0.0000000e+0 -1.00000000 0.0000000e+0
vn -1.00000000 7.2280145e-19 9.7697933e-16
vn -1.00000000 7.2280145e-19 9.7697933e-16
vn 0.0000000e+0 -1.00000000 0.0000000e+0
vn -0.86602540 5.8908318e-16 -0.50000000
vn -0.86602540 5.8908318e-16 -0.50000000
vn 0.0000000e+0 -1.00000000 0.0000000e+0
vn -0.50000000 1.0184272e-15 -0.86602540
vn -0.50000000 1.0184272e-15 -0.86602540
vn 0.0000000e+0 -1.00000000 0.0000000e+0
vn -1.2068568e-15 1.1723839e-15 -1.00000000
vn -1.2068568e-15 1.1723839e-15 -1.00000000
vn 0.0000000e+0 -1.00000000 0.0000000e+0
vn 0.50000000 1.0169816e-15 -0.86602540
vn 0.50000000 1.0169816e-15 -0.86602540
vn 0.0000000e+0 -1.00000000 0.0000000e+0
vn 0.86602540 5.8799898e-16 -0.50000000
vn 0.86602540 5.8799898e-16 -0.50000000
g Eridani_Antenna_4_Arm_default
usemtl default
s 1
f 1//1 12//34 11//31 10//28 9//25 8//22 7//19 6//16 5//13 4//10 3//7 2//4
f 14//40 15//43 16//46 17//49 18//52 19//55 20//58 21//61 22//64 23//67 24//70 13//37
s 2
f 1//2 13//38 24//71 12//35
f 2//6 14//42 13//39 1//3
f 3//9 15//45 14//41 2//5
f 4//12 16//48 15//44 3//8
f 5//15 17//51 16//47 4//11
f 6//18 18//54 17//50 5//14
f 7//21 19//57 18//53 6//17
f 8//24 20//60 19//56 7//20
f 9//27 21//63 20//59 8//23
f 10//30 22//66 21//62 9//26
f 11//33 23//69 22//65 10//29
f 12//36 24//72 23//68 11//32
