# Exported from Wings 3D 1.5.4
mtllib Eridani_Antenna_4_Base.mtl
o Eridani_Antenna_4_Base
#32 vertices, 20 faces
v -5.0000000e-2 -6.2500000e-2 -0.20750000
v -5.0000000e-2 6.2500000e-2 -0.20750000
v 5.0000000e-2 -6.2500000e-2 -0.20750000
v 5.0000000e-2 6.2500000e-2 -0.20750000
v -7.5000000e-2 -6.2500000e-2 -0.20750000
v -7.5000000e-2 -6.2500000e-2 2.2500000e-2
v -7.5000000e-2 6.2500000e-2 2.2500000e-2
v -7.5000000e-2 6.2500000e-2 -0.20750000
v 7.5000000e-2 -6.2500000e-2 2.2500000e-2
v 7.5000000e-2 -6.2500000e-2 -0.20750000
v 7.5000000e-2 6.2500000e-2 -0.20750000
v 7.5000000e-2 6.2500000e-2 2.2500000e-2
v -7.5000000e-2 6.2500000e-2 -0.27000000
v -7.5000000e-2 -6.2500000e-2 -0.27000000
v -7.5000000e-2 -4.4194174e-2 -0.31419417
v -7.5000000e-2 -7.6540425e-18 -0.33250000
v -7.5000000e-2 4.4194174e-2 -0.31419417
v -5.0000000e-2 6.2500000e-2 -0.27000000
v -5.0000000e-2 -6.2500000e-2 -0.27000000
v -5.0000000e-2 -4.4194174e-2 -0.31419417
v -5.0000000e-2 -1.5308085e-17 -0.33250000
v -5.0000000e-2 4.4194174e-2 -0.31419417
v 5.0000000e-2 6.2500000e-2 -0.27000000
v 5.0000000e-2 -6.2500000e-2 -0.27000000
v 5.0000000e-2 -4.4194174e-2 -0.31419417
v 5.0000000e-2 -7.6540425e-18 -0.33250000
v 5.0000000e-2 4.4194174e-2 -0.31419417
v 7.5000000e-2 6.2500000e-2 -0.27000000
v 7.5000000e-2 -6.2500000e-2 -0.27000000
v 7.5000000e-2 -4.4194174e-2 -0.31419417
v 7.5000000e-2 -1.5308085e-17 -0.33250000
v 7.5000000e-2 4.4194174e-2 -0.31419417
vn 0.0000000e+0 0.0000000e+0 -1.00000000
vn -6.9388939e-17 -1.00000000 -1.5185116e-17
vn -6.9388939e-17 -1.00000000 -1.5185116e-17
vn 1.00000000 3.2517680e-17 0.0000000e+0
vn 0.0000000e+0 0.0000000e+0 -1.00000000
vn 0.0000000e+0 1.00000000 1.2570460e-17
vn 0.0000000e+0 1.00000000 1.2570460e-17
vn 1.00000000 3.2517680e-17 0.0000000e+0
vn 0.0000000e+0 0.0000000e+0 -1.00000000
vn -6.9388939e-17 -1.00000000 -1.5185116e-17
vn -1.00000000 -3.2517680e-17 0.0000000e+0
vn -6.9388939e-17 -1.00000000 -1.5185116e-17
vn 0.0000000e+0 0.0000000e+0 -1.00000000
vn 0.0000000e+0 1.00000000 1.2570460e-17
vn -1.00000000 -3.2517680e-17 0.0000000e+0
vn 0.0000000e+0 1.00000000 1.2570460e-17
vn -6.9388939e-17 -1.00000000 -1.5185116e-17
vn -6.9388939e-17 -1.00000000 -1.5185116e-17
vn -1.00000000 -8.2435568e-17 -3.5181579e-17
vn 0.0000000e+0 -1.00000000 2.5140920e-17
vn 0.0000000e+0 0.0000000e+0 1.00000000
vn -1.00000000 -8.2435568e-17 -3.5181579e-17
vn 0.0000000e+0 0.0000000e+0 1.00000000
vn 0.0000000e+0 1.00000000 2.5140920e-17
vn -1.00000000 -8.2435568e-17 -3.5181579e-17
vn 0.0000000e+0 1.00000000 1.2570460e-17
vn -1.00000000 -8.2435568e-17 -3.5181579e-17
vn 0.0000000e+0 1.00000000 1.2570460e-17
vn 0.0000000e+0 -1.00000000 2.5140920e-17
vn 0.0000000e+0 0.0000000e+0 1.00000000
vn 1.00000000 0.0000000e+0 -3.5181579e-17
vn -6.9388939e-17 -1.00000000 -1.5185116e-17
vn 1.00000000 0.0000000e+0 -3.5181579e-17
vn -6.9388939e-17 -1.00000000 -1.5185116e-17
vn 0.0000000e+0 1.00000000 1.2570460e-17
vn 0.0000000e+0 1.00000000 1.2570460e-17
vn 1.00000000 0.0000000e+0 -3.5181579e-17
vn 0.0000000e+0 0.0000000e+0 1.00000000
vn 0.0000000e+0 1.00000000 2.5140920e-17
vn 1.00000000 0.0000000e+0 -3.5181579e-17
vn -1.00000000 -8.2435568e-17 -3.5181579e-17
vn 1.3865576e-16 0.98078528 -0.19509032
vn 1.3865576e-16 0.98078528 -0.19509032
vn -2.7873199e-16 -0.98078528 -0.19509032
vn -1.00000000 -8.2435568e-17 -3.5181579e-17
vn -2.7873199e-16 -0.98078528 -0.19509032
vn -1.00000000 -8.2435568e-17 -3.5181579e-17
vn -2.9439234e-16 -0.70710678 -0.70710678
vn -2.9439234e-16 -0.70710678 -0.70710678
vn -1.00000000 -8.2435568e-17 -3.5181579e-17
vn -2.6683028e-32 -6.0084837e-17 -1.00000000
vn -2.6683028e-32 -6.0084837e-17 -1.00000000
vn -1.00000000 -8.2435568e-17 -3.5181579e-17
vn 2.2079425e-16 0.70710678 -0.70710678
vn 2.2079425e-16 0.70710678 -0.70710678
vn 1.3865576e-16 0.98078528 -0.19509032
vn 1.00000000 3.2517680e-17 0.0000000e+0
vn 1.3865576e-16 0.98078528 -0.19509032
vn -2.7873199e-16 -0.98078528 -0.19509032
vn 1.00000000 3.2517680e-17 0.0000000e+0
vn -2.7873199e-16 -0.98078528 -0.19509032
vn 1.00000000 3.2517680e-17 0.0000000e+0
vn -2.9439234e-16 -0.70710678 -0.70710678
vn -2.9439234e-16 -0.70710678 -0.70710678
vn 1.00000000 3.2517680e-17 0.0000000e+0
vn -2.6683028e-32 -6.0084837e-17 -1.00000000
vn -2.6683028e-32 -6.0084837e-17 -1.00000000
vn 1.00000000 3.2517680e-17 0.0000000e+0
vn 2.2079425e-16 0.70710678 -0.70710678
vn 2.2079425e-16 0.70710678 -0.70710678
vn -1.00000000 -3.2517680e-17 0.0000000e+0
vn 1.3865576e-16 0.98078528 -0.19509032
vn 1.3865576e-16 0.98078528 -0.19509032
vn -1.00000000 -3.2517680e-17 0.0000000e+0
vn -2.7873199e-16 -0.98078528 -0.19509032
vn -2.7873199e-16 -0.98078528 -0.19509032
vn -1.00000000 -3.2517680e-17 0.0000000e+0
vn -2.9439234e-16 -0.70710678 -0.70710678
vn -2.9439234e-16 -0.70710678 -0.70710678
vn -1.00000000 -3.2517680e-17 0.0000000e+0
vn -2.6683028e-32 -6.0084837e-17 -1.00000000
vn -2.6683028e-32 -6.0084837e-17 -1.00000000
vn -1.00000000 -3.2517680e-17 0.0000000e+0
vn 2.2079425e-16 0.70710678 -0.70710678
vn 2.2079425e-16 0.70710678 -0.70710678
vn 1.3865576e-16 0.98078528 -0.19509032
vn 1.00000000 0.0000000e+0 -3.5181579e-17
vn 1.3865576e-16 0.98078528 -0.19509032
vn 1.00000000 0.0000000e+0 -3.5181579e-17
vn -2.7873199e-16 -0.98078528 -0.19509032
vn -2.7873199e-16 -0.98078528 -0.19509032
vn 1.00000000 0.0000000e+0 -3.5181579e-17
vn -2.9439234e-16 -0.70710678 -0.70710678
vn -2.9439234e-16 -0.70710678 -0.70710678
vn 1.00000000 0.0000000e+0 -3.5181579e-17
vn -2.6683028e-32 -6.0084837e-17 -1.00000000
vn -2.6683028e-32 -6.0084837e-17 -1.00000000
vn 1.00000000 0.0000000e+0 -3.5181579e-17
vn 2.2079425e-16 0.70710678 -0.70710678
vn 2.2079425e-16 0.70710678 -0.70710678
g Eridani_Antenna_4_Base_default
usemtl default
s 1
f 2//5 4//13 3//9 1//1
f 6//21 9//30 12//38 7//23
s 2
f 1//4 19//60 20//62 21//65 22//68 18//57 2//8
f 4//15 23//71 27//83 26//80 25//77 24//74 3//11
f 6//22 7//25 8//27 13//41 17//53 16//50 15//47 14//45 5//19
f 10//33 29//89 30//92 31//95 32//98 28//87 11//37 12//40 9//31
s 3
f 2//6 8//26 7//24 12//39 11//35 4//14
f 2//7 18//56 13//42 8//28
f 3//10 10//32 9//29 6//20 5//17 1//2
f 3//12 24//75 29//90 10//34
f 5//18 14//44 19//59 1//3
f 11//36 28//86 23//72 4//16
f 13//43 18//58 22//69 17//54
f 15//49 20//64 19//61 14//46
f 16//52 21//67 20//63 15//48
f 17//55 22//70 21//66 16//51
f 24//76 25//79 30//94 29//91
f 26//82 31//97 30//93 25//78
f 27//85 32//100 31//96 26//81
f 28//88 32//99 27//84 23//73
