# Exported from Wings 3D 1.5.4
mtllib Eridani_Antenna_4_Pivot.mtl
o Eridani_Antenna_4_Pivot
#40 vertices, 25 faces
v 3.1250000e-2 -0.12500000 8.9229735e-16
v 2.2097087e-2 -0.12500000 2.2097087e-2
v 1.1547136e-17 -0.12500000 3.1250000e-2
v -2.2097087e-2 -0.12500000 2.2097087e-2
v -3.1250000e-2 -0.12500000 7.3382390e-16
v -2.2097087e-2 -0.12500000 -2.2097087e-2
v 1.6619357e-16 -0.12500000 -3.1250000e-2
v 2.2097087e-2 -0.12500000 -2.2097087e-2
v 1.1547136e-17 0.0000000e+0 3.1250000e-2
v 1.6619357e-16 0.0000000e+0 -3.1250000e-2
v 2.2097087e-2 -2.2097087e-2 -2.2097087e-2
v -2.2097087e-2 -2.2097087e-2 -2.2097087e-2
v -3.1250000e-2 -3.1250000e-2 4.9037319e-16
v 3.1250000e-2 -3.1250000e-2 6.4884664e-16
v -2.2097087e-2 -2.2097087e-2 2.2097087e-2
v 2.2097087e-2 -2.2097087e-2 2.2097087e-2
v 3.3145630e-2 -0.18750000 3.3145630e-2
v 4.6875000e-2 -0.18750000 1.1014179e-15
v 3.3145630e-2 -0.18750000 -3.3145630e-2
v 2.0979648e-16 -0.18750000 -4.6875000e-2
v -3.3145630e-2 -0.18750000 -3.3145630e-2
v -4.6875000e-2 -0.18750000 8.6370777e-16
v -3.3145630e-2 -0.18750000 3.3145630e-2
v -2.2173167e-17 -0.18750000 4.6875000e-2
v 5.0000000e-2 0.0000000e+0 -3.1250000e-2
v 5.0000000e-2 2.2097087e-2 -2.2097087e-2
v 5.0000000e-2 3.1250000e-2 5.3159140e-16
v 5.0000000e-2 2.2097087e-2 2.2097087e-2
v 5.0000000e-2 0.0000000e+0 3.1250000e-2
v 5.0000000e-2 -2.2097087e-2 2.2097087e-2
v 5.0000000e-2 -3.1250000e-2 7.0154591e-16
v 5.0000000e-2 -2.2097087e-2 -2.2097087e-2
v -5.0000000e-2 0.0000000e+0 -3.1250000e-2
v -5.0000000e-2 2.2097087e-2 -2.2097087e-2
v -5.0000000e-2 3.1250000e-2 2.6951875e-16
v -5.0000000e-2 2.2097087e-2 2.2097087e-2
v -5.0000000e-2 0.0000000e+0 3.1250000e-2
v -5.0000000e-2 -2.2097087e-2 2.2097087e-2
v -5.0000000e-2 -3.1250000e-2 4.3947327e-16
v -5.0000000e-2 -2.2097087e-2 -2.2097087e-2
vn -2.4935207e-15 2.6023270e-15 1.00000000
vn 2.4334359e-15 -2.6023270e-15 -1.00000000
vn 0.70710678 -1.8389394e-15 -0.70710678
vn -0.70710678 -1.8424858e-15 -0.70710678
vn -1.00000000 -3.1187810e-18 -2.4033935e-15
vn 1.00000000 2.1346422e-31 2.6437328e-15
vn -0.70710678 1.8393670e-15 0.70710678
vn 0.70710678 1.8389394e-15 0.70710678
vn 2.6188652e-15 -2.4334359e-15 -1.00000000
vn 1.8491519e-15 0.70710678 -0.70710678
vn 3.0665868e-18 1.00000000 -3.6050902e-16
vn -1.8276858e-15 0.70710678 0.70710678
vn -2.5820661e-15 2.3733511e-15 1.00000000
vn -1.8307523e-15 -0.70710678 0.70710678
vn -9.6058900e-31 -1.00000000 3.6050902e-16
vn 1.8491519e-15 -0.70710678 -0.70710678
vn 2.6188652e-15 -2.4334359e-15 -1.00000000
vn 1.8491519e-15 0.70710678 -0.70710678
vn 3.0665868e-18 1.00000000 -3.6050902e-16
vn -1.8276858e-15 0.70710678 0.70710678
vn -2.5820661e-15 2.3733511e-15 1.00000000
vn -1.8307523e-15 -0.70710678 0.70710678
vn -9.6058900e-31 -1.00000000 3.6050902e-16
vn 1.8491519e-15 -0.70710678 -0.70710678
vn 1.00000000 2.1346422e-31 2.6437328e-15
vn 1.00000000 2.1346422e-31 2.6437328e-15
vn 0.97014250 0.24253563 2.3032809e-15
vn 0.97014250 0.24253563 2.3032809e-15
vn 0.70710678 1.8389394e-15 0.70710678
vn 0.70710678 1.8389394e-15 0.70710678
vn 0.68599434 0.24253563 0.68599434
vn 0.68599434 0.24253563 0.68599434
vn -2.4935207e-15 2.6023270e-15 1.00000000
vn -2.4935207e-15 2.6023270e-15 1.00000000
vn -2.4229318e-15 0.24253563 0.97014250
vn -2.4229318e-15 0.24253563 0.97014250
vn -0.70710678 1.8393670e-15 0.70710678
vn -0.70710678 1.8393670e-15 0.70710678
vn -0.68599434 0.24253563 0.68599434
vn -0.68599434 0.24253563 0.68599434
vn -1.00000000 -3.1187810e-18 -2.4033935e-15
vn -1.00000000 -3.1187810e-18 -2.4033935e-15
vn -0.97014250 0.24253563 -2.5126700e-15
vn -0.97014250 0.24253563 -2.5126700e-15
vn -0.70710678 -1.8424858e-15 -0.70710678
vn -0.70710678 -1.8424858e-15 -0.70710678
vn -0.68599434 0.24253563 -0.68599434
vn -0.68599434 0.24253563 -0.68599434
vn 2.4334359e-15 -2.6023270e-15 -1.00000000
vn 2.4334359e-15 -2.6023270e-15 -1.00000000
vn 2.3631063e-15 0.24253563 -0.97014250
vn 2.3631063e-15 0.24253563 -0.97014250
vn 0.70710678 -1.8389394e-15 -0.70710678
vn 0.70710678 -1.8389394e-15 -0.70710678
vn 0.68599434 0.24253563 -0.68599434
vn 0.68599434 0.24253563 -0.68599434
vn 0.68599434 0.24253563 0.68599434
vn 0.68599434 0.24253563 0.68599434
vn -5.9499616e-30 -1.00000000 2.5121479e-15
vn 0.97014250 0.24253563 2.3032809e-15
vn 0.97014250 0.24253563 2.3032809e-15
vn -5.9499616e-30 -1.00000000 2.5121479e-15
vn 0.68599434 0.24253563 -0.68599434
vn 0.68599434 0.24253563 -0.68599434
vn -5.9499616e-30 -1.00000000 2.5121479e-15
vn 2.3631063e-15 0.24253563 -0.97014250
vn 2.3631063e-15 0.24253563 -0.97014250
vn -5.9499616e-30 -1.00000000 2.5121479e-15
vn -0.68599434 0.24253563 -0.68599434
vn -0.68599434 0.24253563 -0.68599434
vn -5.9499616e-30 -1.00000000 2.5121479e-15
vn -0.97014250 0.24253563 -2.5126700e-15
vn -0.97014250 0.24253563 -2.5126700e-15
vn -5.9499616e-30 -1.00000000 2.5121479e-15
vn -0.68599434 0.24253563 0.68599434
vn -0.68599434 0.24253563 0.68599434
vn -5.9499616e-30 -1.00000000 2.5121479e-15
vn -2.4229318e-15 0.24253563 0.97014250
vn -2.4229318e-15 0.24253563 0.97014250
vn -5.9499616e-30 -1.00000000 2.5121479e-15
g Eridani_Antenna_4_Pivot_default
usemtl default
s 1
f 1//26 14//6 16//8 2//30
f 2//29 16//8 9//1 3//34
f 3//33 9//1 15//7 4//38
f 4//37 15//7 13//5 5//42
f 5//41 13//5 12//4 6//46
f 6//45 12//4 10//2 7//50
f 7//49 10//2 11//3 8//54
f 8//53 11//3 14//6 1//25
f 17//59 24//80 23//77 22//74 21//71 20//68 19//65 18//62
f 25//9 33//17 34//18 26//10
f 26//10 34//18 35//19 27//11
f 27//11 35//19 36//20 28//12
f 28//12 36//20 37//21 29//13
f 29//13 37//21 38//22 30//14
f 30//14 38//22 39//23 31//15
f 31//15 39//23 40//24 32//16
f 32//16 40//24 33//17 25//9
s 2
f 1//28 18//61 19//63 8//55
f 2//31 17//57 18//60 1//27
f 3//36 24//79 17//58 2//32
f 4//40 23//76 24//78 3//35
f 5//44 22//73 23//75 4//39
f 6//48 21//70 22//72 5//43
f 7//52 20//67 21//69 6//47
f 8//56 19//64 20//66 7//51
