# Exported from Wings 3D 1.5.4
mtllib Eridani_Antenna_4_Base.mtl
o Eridani_Antenna_4_Base
#32 vertices, 20 faces
v -5.0000000e-2 -6.2500000e-2 -4.5000000e-2
v -5.0000000e-2 6.2500000e-2 -4.5000000e-2
v 5.0000000e-2 -6.2500000e-2 -4.5000000e-2
v 5.0000000e-2 6.2500000e-2 -4.5000000e-2
v -7.5000000e-2 -6.2500000e-2 -4.5000000e-2
v -7.5000000e-2 -6.2500000e-2 2.2500000e-2
v -7.5000000e-2 6.2500000e-2 -4.5000000e-2
v 7.5000000e-2 -6.2500000e-2 2.2500000e-2
v 7.5000000e-2 -6.2500000e-2 -4.5000000e-2
v 7.5000000e-2 6.2500000e-2 -4.5000000e-2
v -7.5000000e-2 6.2500000e-2 -0.10750000
v -7.5000000e-2 -6.2500000e-2 -0.10750000
v -7.5000000e-2 -4.4194174e-2 -0.15169417
v -7.5000000e-2 -6.1756271e-16 -0.17000000
v -7.5000000e-2 4.4194174e-2 -0.15169417
v -5.0000000e-2 6.2500000e-2 -0.10750000
v -5.0000000e-2 -6.2500000e-2 -0.10750000
v -5.0000000e-2 -4.4194174e-2 -0.15169417
v -5.0000000e-2 -5.6205156e-16 -0.17000000
v -5.0000000e-2 4.4194174e-2 -0.15169417
v 5.0000000e-2 6.2500000e-2 -0.10750000
v 5.0000000e-2 -6.2500000e-2 -0.10750000
v 5.0000000e-2 -4.4194174e-2 -0.15169417
v 5.0000000e-2 -2.9837359e-16 -0.17000000
v 5.0000000e-2 4.4194174e-2 -0.15169417
v 7.5000000e-2 6.2500000e-2 -0.10750000
v 7.5000000e-2 -6.2500000e-2 -0.10750000
v 7.5000000e-2 -4.4194174e-2 -0.15169417
v 7.5000000e-2 -2.5674023e-16 -0.17000000
v 7.5000000e-2 4.4194174e-2 -0.15169417
v -7.5000000e-2 6.2500000e-2 2.2500000e-2
v 7.5000000e-2 6.2500000e-2 2.2500000e-2
vt 0.78824869 0.76577299
vt 0.78824869 0.78074625
vt 0.78845186 0.79624008
vt 0.78845186 0.79624008
vt 0.79027918 0.79182854
vt 0.79027918 0.80065162
vt 0.79027918 0.80065162
vt 0.79469072 0.79000122
vt 0.79469072 0.80247894
vt 0.79469072 0.79000122
vt 0.79469072 0.80247894
vt 0.80071558 0.76573848
vt 0.80071558 0.78071175
vt 0.80071558 0.76573848
vt 0.80071558 0.78071175
vt 0.80072641 0.76577299
vt 0.80072641 0.78074625
vt 0.80092958 0.79000122
vt 0.80092958 0.80247894
vt 0.80101070 0.81809274
vt 0.80283802 0.82250428
vt 0.80283802 0.81368120
vt 0.80283802 0.82250428
vt 0.80724956 0.81185388
vt 0.80724956 0.82433160
vt 0.80724956 0.81185388
vt 0.80724956 0.82433160
vt 0.80733410 0.76573848
vt 0.80733410 0.76823403
vt 0.80733410 0.77821620
vt 0.80733410 0.78071175
vt 0.80733410 0.76573848
vt 0.80733410 0.76823403
vt 0.80733410 0.77821620
vt 0.80733410 0.78071175
vt 0.81034706 0.79002517
vt 0.81034706 0.80250289
vt 0.81346236 0.76573848
vt 0.81346236 0.76823403
vt 0.81346236 0.76573848
vt 0.81346236 0.76823403
vt 0.81346236 0.77821620
vt 0.81346236 0.78071175
vt 0.81346236 0.77821620
vt 0.81346236 0.78071175
vt 0.81348842 0.81185388
vt 0.81348842 0.82433160
vt 0.81813824 0.76573848
vt 0.81813824 0.76823403
vt 0.81813824 0.77821620
vt 0.81813824 0.78071175
vt 0.81813824 0.76573848
vt 0.81813824 0.76823403
vt 0.81813824 0.77821620
vt 0.81813824 0.78071175
vt 0.82022639 0.81185388
vt 0.82022639 0.82433160
vt 0.82032923 0.79002517
vt 0.82032923 0.80250289
vt 0.82076014 0.76573848
vt 0.82076014 0.76823403
vt 0.82076014 0.77821620
vt 0.82076014 0.78071175
vt 0.82076014 0.76573848
vt 0.82076014 0.76823403
vt 0.82076014 0.77821620
vt 0.82076014 0.78071175
vn 6.4094949e-30 -2.7755576e-15 -1.00000000
vn 2.5095666e-15 -1.00000000 2.3222165e-15
vn 2.5095666e-15 -1.00000000 2.3222165e-15
vn 1.00000000 2.4388260e-15 1.1496736e-17
vn 6.4094949e-30 -2.7755576e-15 -1.00000000
vn -2.6714742e-15 1.00000000 -2.3777276e-15
vn 1.00000000 2.4388260e-15 1.1496736e-17
vn -2.6714742e-15 1.00000000 -2.3777276e-15
vn 6.4094949e-30 -2.7755576e-15 -1.00000000
vn 2.5095666e-15 -1.00000000 2.3222165e-15
vn -1.00000000 -2.5038613e-15 -1.1496736e-17
vn 2.5095666e-15 -1.00000000 2.3222165e-15
vn 6.4094949e-30 -2.7755576e-15 -1.00000000
vn -1.00000000 -2.5038613e-15 -1.1496736e-17
vn -2.6714742e-15 1.00000000 -2.3777276e-15
vn -2.6714742e-15 1.00000000 -2.3777276e-15
vn 2.5095666e-15 -1.00000000 2.3222165e-15
vn 2.5095666e-15 -1.00000000 2.3222165e-15
vn -1.00000000 -2.3900549e-15 -6.8001315e-17
vn 2.5211315e-15 -1.00000000 2.3129646e-15
vn -1.00000000 -2.3900549e-15 -6.8001315e-17
vn -6.7381869e-30 2.7200464e-15 1.00000000
vn -2.6714742e-15 1.00000000 -2.3777276e-15
vn -2.6714742e-15 1.00000000 -2.3777276e-15
vn -1.00000000 -2.3900549e-15 -6.8001315e-17
vn 2.5211315e-15 -1.00000000 2.3129646e-15
vn 1.00000000 2.4298891e-15 -6.8001315e-17
vn -6.7381869e-30 2.7200464e-15 1.00000000
vn 2.5095666e-15 -1.00000000 2.3222165e-15
vn 2.5095666e-15 -1.00000000 2.3222165e-15
vn 1.00000000 2.4298891e-15 -6.8001315e-17
vn -2.6714742e-15 1.00000000 -2.3777276e-15
vn -2.6714742e-15 1.00000000 -2.3777276e-15
vn 1.00000000 2.4298891e-15 -6.8001315e-17
vn -2.2006829e-15 0.98078528 -0.19509032
vn -2.2006829e-15 0.98078528 -0.19509032
vn -1.00000000 -2.3900549e-15 -6.8001315e-17
vn 2.1978420e-15 -0.98078528 -0.19509032
vn 2.1978420e-15 -0.98078528 -0.19509032
vn -1.00000000 -2.3900549e-15 -6.8001315e-17
vn 1.3738309e-15 -0.70710678 -0.70710678
vn 1.3738309e-15 -0.70710678 -0.70710678
vn -1.00000000 -2.3900549e-15 -6.8001315e-17
vn 4.9065389e-17 -2.5836480e-15 -1.00000000
vn 4.9065389e-17 -2.5836480e-15 -1.00000000
vn -1.00000000 -2.3900549e-15 -6.8001315e-17
vn -1.1775693e-15 0.70710678 -0.70710678
vn -1.1775693e-15 0.70710678 -0.70710678
vn -1.00000000 -2.3900549e-15 -6.8001315e-17
vn -2.2006829e-15 0.98078528 -0.19509032
vn 1.00000000 2.4388260e-15 1.1496736e-17
vn -2.2006829e-15 0.98078528 -0.19509032
vn 2.1978420e-15 -0.98078528 -0.19509032
vn 1.00000000 2.4388260e-15 1.1496736e-17
vn 2.1978420e-15 -0.98078528 -0.19509032
vn 1.00000000 2.4388260e-15 1.1496736e-17
vn 1.3738309e-15 -0.70710678 -0.70710678
vn 1.3738309e-15 -0.70710678 -0.70710678
vn 1.00000000 2.4388260e-15 1.1496736e-17
vn 4.9065389e-17 -2.5836480e-15 -1.00000000
vn 4.9065389e-17 -2.5836480e-15 -1.00000000
vn 1.00000000 2.4388260e-15 1.1496736e-17
vn -1.1775693e-15 0.70710678 -0.70710678
vn -1.1775693e-15 0.70710678 -0.70710678
vn -1.00000000 -2.5038613e-15 -1.1496736e-17
vn -2.2006829e-15 0.98078528 -0.19509032
vn -2.2006829e-15 0.98078528 -0.19509032
vn -1.00000000 -2.5038613e-15 -1.1496736e-17
vn 2.3133885e-15 -0.98078528 -0.19509032
vn 2.3133885e-15 -0.98078528 -0.19509032
vn -1.00000000 -2.5038613e-15 -1.1496736e-17
vn 1.4964944e-15 -0.70710678 -0.70710678
vn 1.4964944e-15 -0.70710678 -0.70710678
vn -1.00000000 -2.5038613e-15 -1.1496736e-17
vn 9.8130779e-17 -2.6136904e-15 -1.00000000
vn 9.8130779e-17 -2.6136904e-15 -1.00000000
vn -1.00000000 -2.5038613e-15 -1.1496736e-17
vn -1.1285040e-15 0.70710678 -0.70710678
vn -1.1285040e-15 0.70710678 -0.70710678
vn -2.2006829e-15 0.98078528 -0.19509032
vn -2.2006829e-15 0.98078528 -0.19509032
vn 1.00000000 2.4298891e-15 -6.8001315e-17
vn 2.3133885e-15 -0.98078528 -0.19509032
vn 2.3133885e-15 -0.98078528 -0.19509032
vn 1.00000000 2.4298891e-15 -6.8001315e-17
vn 1.4964944e-15 -0.70710678 -0.70710678
vn 1.4964944e-15 -0.70710678 -0.70710678
vn 1.00000000 2.4298891e-15 -6.8001315e-17
vn 9.8130779e-17 -2.6136904e-15 -1.00000000
vn 9.8130779e-17 -2.6136904e-15 -1.00000000
vn 1.00000000 2.4298891e-15 -6.8001315e-17
vn -1.1285040e-15 0.70710678 -0.70710678
vn -1.1285040e-15 0.70710678 -0.70710678
vn 1.00000000 2.4298891e-15 -6.8001315e-17
vn -2.5673907e-15 1.00000000 -2.3129646e-15
vn -1.00000000 -2.3900549e-15 -6.8001315e-17
vn -6.7381869e-30 2.7200464e-15 1.00000000
vn -2.5673907e-15 1.00000000 -2.3129646e-15
vn 1.00000000 2.4298891e-15 -6.8001315e-17
vn -6.7381869e-30 2.7200464e-15 1.00000000
g Eridani_Antenna_4_Base_Eridani_Antenna_4_Base_auv
usemtl Eridani_Antenna_4_Base_auv
s 1
f 1/19/4 17/11/54 18/6/56 19/3/59 20/5/62 16/8/51 2/18/7
f 4/19/14 21/9/65 25/7/77 24/4/74 23/5/71 22/10/68 3/18/11
f 6/56/21 31/57/96 7/47/25 11/25/37 15/21/49 14/20/46 13/22/43 12/24/40 5/46/19
f 9/47/31 27/27/85 28/23/88 29/20/91 30/22/94 26/26/82 10/46/34 32/56/99 8/57/27
s 2
f 2/59/5 4/37/13 3/36/9 1/58/1
f 8/1/28 32/16/100 31/17/97 6/2/22
s 3
f 2/34/8 7/35/24 31/15/95 32/14/98 10/32/33 4/33/16
f 2/34/6 16/44/50 11/45/35 7/35/23
f 3/30/10 9/31/29 8/13/26 6/12/20 5/28/17 1/29/2
f 3/30/12 22/42/69 27/43/83 9/31/30
f 5/28/18 12/40/38 17/41/53 1/29/3
f 10/32/32 26/38/80 21/39/66 4/33/15
f 11/45/36 16/44/52 20/54/63 15/55/47
f 13/48/42 18/49/58 17/41/55 12/40/39
f 14/60/45 19/61/61 18/49/57 13/48/41
f 15/55/48 20/54/64 19/66/60 14/67/44
f 22/42/70 23/50/73 28/51/87 27/43/84
f 24/62/76 29/63/90 28/51/86 23/50/72
f 25/53/79 30/52/93 29/64/89 24/65/75
f 26/38/81 30/52/92 25/53/78 21/39/67
