# Exported from Wings 3D 1.5.4
mtllib Eridani_Antenna_4_Base.mtl
o Eridani_Antenna_4_Base
#32 vertices, 20 faces
v -5.0000000e-2 -6.2500000e-2 -4.5000000e-2
v -5.0000000e-2 6.2500000e-2 -4.5000000e-2
v 5.0000000e-2 -6.2500000e-2 -4.5000000e-2
v 5.0000000e-2 6.2500000e-2 -4.5000000e-2
v -7.5000000e-2 -6.2500000e-2 -4.5000000e-2
v -7.5000000e-2 -6.2500000e-2 2.2500000e-2
v -7.5000000e-2 6.2500000e-2 -4.5000000e-2
v 7.5000000e-2 -6.2500000e-2 2.2500000e-2
v 7.5000000e-2 -6.2500000e-2 -4.5000000e-2
v 7.5000000e-2 6.2500000e-2 -4.5000000e-2
v -7.5000000e-2 6.2500000e-2 -0.10750000
v -7.5000000e-2 -6.2500000e-2 -0.10750000
v -7.5000000e-2 -4.4194174e-2 -0.15169417
v -7.5000000e-2 -6.1756271e-16 -0.17000000
v -7.5000000e-2 4.4194174e-2 -0.15169417
v -5.0000000e-2 6.2500000e-2 -0.10750000
v -5.0000000e-2 -6.2500000e-2 -0.10750000
v -5.0000000e-2 -4.4194174e-2 -0.15169417
v -5.0000000e-2 -5.6205156e-16 -0.17000000
v -5.0000000e-2 4.4194174e-2 -0.15169417
v 5.0000000e-2 6.2500000e-2 -0.10750000
v 5.0000000e-2 -6.2500000e-2 -0.10750000
v 5.0000000e-2 -4.4194174e-2 -0.15169417
v 5.0000000e-2 -2.9837359e-16 -0.17000000
v 5.0000000e-2 4.4194174e-2 -0.15169417
v 7.5000000e-2 6.2500000e-2 -0.10750000
v 7.5000000e-2 -6.2500000e-2 -0.10750000
v 7.5000000e-2 -4.4194174e-2 -0.15169417
v 7.5000000e-2 -2.5674023e-16 -0.17000000
v 7.5000000e-2 4.4194174e-2 -0.15169417
v -7.5000000e-2 6.2500000e-2 2.2500000e-2
v 7.5000000e-2 6.2500000e-2 2.2500000e-2
vn 6.4094949e-30 -2.7755576e-15 -1.00000000
vn 2.5095666e-15 -1.00000000 2.3222165e-15
vn 2.5095666e-15 -1.00000000 2.3222165e-15
vn 1.00000000 2.4388260e-15 1.1496736e-17
vn 6.4094949e-30 -2.7755576e-15 -1.00000000
vn -2.6714742e-15 1.00000000 -2.3777276e-15
vn 1.00000000 2.4388260e-15 1.1496736e-17
vn -2.6714742e-15 1.00000000 -2.3777276e-15
vn 6.4094949e-30 -2.7755576e-15 -1.00000000
vn 2.5095666e-15 -1.00000000 2.3222165e-15
vn -1.00000000 -2.5038613e-15 -1.1496736e-17
vn 2.5095666e-15 -1.00000000 2.3222165e-15
vn 6.4094949e-30 -2.7755576e-15 -1.00000000
vn -1.00000000 -2.5038613e-15 -1.1496736e-17
vn -2.6714742e-15 1.00000000 -2.3777276e-15
vn -2.6714742e-15 1.00000000 -2.3777276e-15
vn 2.5095666e-15 -1.00000000 2.3222165e-15
vn 2.5095666e-15 -1.00000000 2.3222165e-15
vn -1.00000000 -2.3900549e-15 -6.8001315e-17
vn 2.5211315e-15 -1.00000000 2.3129646e-15
vn -1.00000000 -2.3900549e-15 -6.8001315e-17
vn -6.7381869e-30 2.7200464e-15 1.00000000
vn -2.6714742e-15 1.00000000 -2.3777276e-15
vn -2.6714742e-15 1.00000000 -2.3777276e-15
vn -1.00000000 -2.3900549e-15 -6.8001315e-17
vn 2.5211315e-15 -1.00000000 2.3129646e-15
vn 1.00000000 2.4298891e-15 -6.8001315e-17
vn -6.7381869e-30 2.7200464e-15 1.00000000
vn 2.5095666e-15 -1.00000000 2.3222165e-15
vn 2.5095666e-15 -1.00000000 2.3222165e-15
vn 1.00000000 2.4298891e-15 -6.8001315e-17
vn -2.6714742e-15 1.00000000 -2.3777276e-15
vn -2.6714742e-15 1.00000000 -2.3777276e-15
vn 1.00000000 2.4298891e-15 -6.8001315e-17
vn -2.2006829e-15 0.98078528 -0.19509032
vn -2.2006829e-15 0.98078528 -0.19509032
vn -1.00000000 -2.3900549e-15 -6.8001315e-17
vn 2.1978420e-15 -0.98078528 -0.19509032
vn 2.1978420e-15 -0.98078528 -0.19509032
vn -1.00000000 -2.3900549e-15 -6.8001315e-17
vn 1.3738309e-15 -0.70710678 -0.70710678
vn 1.3738309e-15 -0.70710678 -0.70710678
vn -1.00000000 -2.3900549e-15 -6.8001315e-17
vn 4.9065389e-17 -2.5836480e-15 -1.00000000
vn 4.9065389e-17 -2.5836480e-15 -1.00000000
vn -1.00000000 -2.3900549e-15 -6.8001315e-17
vn -1.1775693e-15 0.70710678 -0.70710678
vn -1.1775693e-15 0.70710678 -0.70710678
vn -1.00000000 -2.3900549e-15 -6.8001315e-17
vn -2.2006829e-15 0.98078528 -0.19509032
vn 1.00000000 2.4388260e-15 1.1496736e-17
vn -2.2006829e-15 0.98078528 -0.19509032
vn 2.1978420e-15 -0.98078528 -0.19509032
vn 1.00000000 2.4388260e-15 1.1496736e-17
vn 2.1978420e-15 -0.98078528 -0.19509032
vn 1.00000000 2.4388260e-15 1.1496736e-17
vn 1.3738309e-15 -0.70710678 -0.70710678
vn 1.3738309e-15 -0.70710678 -0.70710678
vn 1.00000000 2.4388260e-15 1.1496736e-17
vn 4.9065389e-17 -2.5836480e-15 -1.00000000
vn 4.9065389e-17 -2.5836480e-15 -1.00000000
vn 1.00000000 2.4388260e-15 1.1496736e-17
vn -1.1775693e-15 0.70710678 -0.70710678
vn -1.1775693e-15 0.70710678 -0.70710678
vn -1.00000000 -2.5038613e-15 -1.1496736e-17
vn -2.2006829e-15 0.98078528 -0.19509032
vn -2.2006829e-15 0.98078528 -0.19509032
vn -1.00000000 -2.5038613e-15 -1.1496736e-17
vn 2.3133885e-15 -0.98078528 -0.19509032
vn 2.3133885e-15 -0.98078528 -0.19509032
vn -1.00000000 -2.5038613e-15 -1.1496736e-17
vn 1.4964944e-15 -0.70710678 -0.70710678
vn 1.4964944e-15 -0.70710678 -0.70710678
vn -1.00000000 -2.5038613e-15 -1.1496736e-17
vn 9.8130779e-17 -2.6136904e-15 -1.00000000
vn 9.8130779e-17 -2.6136904e-15 -1.00000000
vn -1.00000000 -2.5038613e-15 -1.1496736e-17
vn -1.1285040e-15 0.70710678 -0.70710678
vn -1.1285040e-15 0.70710678 -0.70710678
vn -2.2006829e-15 0.98078528 -0.19509032
vn -2.2006829e-15 0.98078528 -0.19509032
vn 1.00000000 2.4298891e-15 -6.8001315e-17
vn 2.3133885e-15 -0.98078528 -0.19509032
vn 2.3133885e-15 -0.98078528 -0.19509032
vn 1.00000000 2.4298891e-15 -6.8001315e-17
vn 1.4964944e-15 -0.70710678 -0.70710678
vn 1.4964944e-15 -0.70710678 -0.70710678
vn 1.00000000 2.4298891e-15 -6.8001315e-17
vn 9.8130779e-17 -2.6136904e-15 -1.00000000
vn 9.8130779e-17 -2.6136904e-15 -1.00000000
vn 1.00000000 2.4298891e-15 -6.8001315e-17
vn -1.1285040e-15 0.70710678 -0.70710678
vn -1.1285040e-15 0.70710678 -0.70710678
vn 1.00000000 2.4298891e-15 -6.8001315e-17
vn -2.5673907e-15 1.00000000 -2.3129646e-15
vn -1.00000000 -2.3900549e-15 -6.8001315e-17
vn -6.7381869e-30 2.7200464e-15 1.00000000
vn -2.5673907e-15 1.00000000 -2.3129646e-15
vn 1.00000000 2.4298891e-15 -6.8001315e-17
vn -6.7381869e-30 2.7200464e-15 1.00000000
g Eridani_Antenna_4_Base_default
usemtl default
s 1
f 1//4 17//54 18//56 19//59 20//62 16//51 2//7
f 4//14 21//65 25//77 24//74 23//71 22//68 3//11
f 6//21 31//96 7//25 11//37 15//49 14//46 13//43 12//40 5//19
f 9//31 27//85 28//88 29//91 30//94 26//82 10//34 32//99 8//27
s 2
f 2//5 4//13 3//9 1//1
f 8//28 32//100 31//97 6//22
s 3
f 2//8 7//24 31//95 32//98 10//33 4//16
f 2//6 16//50 11//35 7//23
f 3//10 9//29 8//26 6//20 5//17 1//2
f 3//12 22//69 27//83 9//30
f 5//18 12//38 17//53 1//3
f 10//32 26//80 21//66 4//15
f 11//36 16//52 20//63 15//47
f 13//42 18//58 17//55 12//39
f 14//45 19//61 18//57 13//41
f 15//48 20//64 19//60 14//44
f 22//70 23//73 28//87 27//84
f 24//76 29//90 28//86 23//72
f 25//79 30//93 29//89 24//75
f 26//81 30//92 25//78 21//67
