# Exported from Wings 3D 1.5.4
mtllib vega_adapter_s1p5_s0p5_1.mtl
o mesh1
#72 vertices, 48 faces
v 0.93750000 0.0000000e+0 -2.0961242e-18
v 0.90555546 0.0000000e+0 0.24264285
v 0.81189882 0.0000000e+0 0.46875000
v 0.66291261 0.0000000e+0 0.66291261
v 0.46875000 0.0000000e+0 0.81189882
v 0.24264285 0.0000000e+0 0.90555546
v 4.8731701e-17 0.0000000e+0 0.93750000
v -0.24264285 0.0000000e+0 0.90555546
v -0.46875000 0.0000000e+0 0.81189882
v -0.66291261 0.0000000e+0 0.66291261
v -0.81189882 0.0000000e+0 0.46875000
v -0.90555546 0.0000000e+0 0.24264285
v -0.93750000 0.0000000e+0 1.1271451e-16
v -0.90555546 0.0000000e+0 -0.24264285
v -0.81189882 0.0000000e+0 -0.46875000
v -0.66291261 0.0000000e+0 -0.66291261
v -0.46875000 0.0000000e+0 -0.81189882
v -0.24264285 0.0000000e+0 -0.90555546
v -1.8088957e-16 0.0000000e+0 -0.93750000
v 0.24264285 0.0000000e+0 -0.90555546
v 0.46875000 0.0000000e+0 -0.81189882
v 0.66291261 0.0000000e+0 -0.66291261
v 0.81189882 0.0000000e+0 -0.46875000
v 0.90555546 0.0000000e+0 -0.24264285
v 0.93750000 -0.12500000 -2.0961242e-18
v 0.90555546 -0.12500000 0.24264285
v 0.81189882 -0.12500000 0.46875000
v 0.66291261 -0.12500000 0.66291261
v 0.46875000 -0.12500000 0.81189882
v 0.24264285 -0.12500000 0.90555546
v 4.8731701e-17 -0.12500000 0.93750000
v -0.24264285 -0.12500000 0.90555546
v -0.46875000 -0.12500000 0.81189882
v -0.66291261 -0.12500000 0.66291261
v -0.81189882 -0.12500000 0.46875000
v -0.90555546 -0.12500000 0.24264285
v -0.93750000 -0.12500000 1.1271451e-16
v -0.90555546 -0.12500000 -0.24264285
v -0.81189882 -0.12500000 -0.46875000
v -0.66291261 -0.12500000 -0.66291261
v -0.46875000 -0.12500000 -0.81189882
v -0.24264285 -0.12500000 -0.90555546
v -1.8088957e-16 -0.12500000 -0.93750000
v 0.24264285 -0.12500000 -0.90555546
v 0.46875000 -0.12500000 -0.81189882
v 0.66291261 -0.12500000 -0.66291261
v 0.81189882 -0.12500000 -0.46875000
v 0.90555546 -0.12500000 -0.24264285
v 0.45277773 0.12500000 0.12132143
v 0.46875000 0.12500000 -7.4087148e-18
v 0.45277773 0.12500000 -0.12132143
v 0.40594941 0.12500000 -0.23437500
v 0.33145630 0.12500000 -0.33145630
v 0.23437500 0.12500000 -0.40594941
v 0.12132143 0.12500000 -0.45277773
v -1.1473092e-16 0.12500000 -0.46875000
v -0.12132143 0.12500000 -0.45277773
v -0.23437500 0.12500000 -0.40594941
v -0.33145630 0.12500000 -0.33145630
v -0.40594941 0.12500000 -0.23437500
v -0.45277773 0.12500000 -0.12132143
v -0.46875000 0.12500000 4.9996604e-17
v -0.45277773 0.12500000 0.12132143
v -0.40594941 0.12500000 0.23437500
v -0.33145630 0.12500000 0.33145630
v -0.23437500 0.12500000 0.40594941
v -0.12132143 0.12500000 0.45277773
v 7.9722001e-20 0.12500000 0.46875000
v 0.12132143 0.12500000 0.45277773
v 0.23437500 0.12500000 0.40594941
v 0.33145630 0.12500000 0.33145630
v 0.40594941 0.12500000 0.23437500
vt 0.89937794 0.11107337
vt 0.89937794 0.11107337
vt 0.89937794 0.12271932
vt 0.89937794 0.12271932
vt 0.89937794 0.12271932
vt 0.89942936 0.12271744
vt 0.89942936 0.12271744
vt 0.89942936 0.12271744
vt 0.92223826 0.11107337
vt 0.92223826 0.12271932
vt 0.92223826 0.12271932
vt 0.92223826 0.11107337
vt 0.92223826 0.11107337
vt 0.92223826 0.12271932
vt 0.92223826 0.12271932
vt 0.92242079 0.12271744
vt 0.92242079 0.12271744
vt 0.92242079 0.12271744
vt 0.92242079 0.12271744
vt 0.92314222 0.16523218
vt 0.92314222 0.16523218
vt 0.92314222 0.16523218
vt 0.92314222 0.16523218
vt 0.92314222 0.16523218
vt 0.93375968 0.16523218
vt 0.93375968 0.16523218
vt 0.93375968 0.16523218
vt 0.93375968 0.16523218
vt 0.93375968 0.16523218
vt 0.94509857 0.11107337
vt 0.94509857 0.12271744
vt 0.94509857 0.12271932
vt 0.94509857 0.12271932
vt 0.94509857 0.16523218
vt 0.94509857 0.16523218
vt 0.94509857 0.11107337
vt 0.94509857 0.11107337
vt 0.94509857 0.12271744
vt 0.94509857 0.12271932
vt 0.94509857 0.12271932
vt 0.94509857 0.16523218
vt 0.94509857 0.12271744
vt 0.94509857 0.12271744
vt 0.94509857 0.16523218
vt 0.94509857 0.16523218
vt 0.95643746 0.16523218
vt 0.95643746 0.16523218
vt 0.95643746 0.16523218
vt 0.95643746 0.16523218
vt 0.95643746 0.16523218
vt 0.95643746 0.16523218
vt 0.96705492 0.16523218
vt 0.96705492 0.16523218
vt 0.96705492 0.16523218
vt 0.96705492 0.16523218
vt 0.96777635 0.12271744
vt 0.96777635 0.12271744
vt 0.96777635 0.12271744
vt 0.96795888 0.11107337
vt 0.96795888 0.11107337
vt 0.96795888 0.12271932
vt 0.96795888 0.12271932
vt 0.96795888 0.12271932
vt 0.99076778 0.12271744
vt 0.99076778 0.12271744
vt 0.99076778 0.12271744
vt 0.99081920 0.12271932
vt 0.99081920 0.12271932
vt 0.99081920 0.11107337
vt 0.99081920 0.11107337
vt 0.99081920 0.11107337
vt 0.99081920 0.12271932
vt 0.99081920 0.12271932
vn 1.00000000 0.0000000e+0 -2.3795816e-16
vn 1.00000000 0.0000000e+0 -2.3795816e-16
vn 0.25766265 0.96623494 -6.2485965e-17
vn 0.25766265 0.96623494 -6.2485965e-17
vn 0.96592583 0.0000000e+0 0.25881905
vn 0.96592583 0.0000000e+0 0.25881905
vn 0.24888301 0.96623494 6.6688001e-2
vn 0.24888301 0.96623494 6.6688001e-2
vn 0.86602540 0.0000000e+0 0.50000000
vn 0.86602540 0.0000000e+0 0.50000000
vn 0.22314240 0.96623494 0.12883133
vn 0.22314240 0.96623494 0.12883133
vn 0.70710678 0.0000000e+0 0.70710678
vn 0.70710678 0.0000000e+0 0.70710678
vn 0.18219501 0.96623494 0.18219501
vn 0.18219501 0.96623494 0.18219501
vn 0.50000000 0.0000000e+0 0.86602540
vn 0.50000000 0.0000000e+0 0.86602540
vn 0.12883133 0.96623494 0.22314240
vn 0.12883133 0.96623494 0.22314240
vn 0.25881905 0.0000000e+0 0.96592583
vn 0.25881905 0.0000000e+0 0.96592583
vn 6.6688001e-2 0.96623494 0.24888301
vn 6.6688001e-2 0.96623494 0.24888301
vn 1.5397293e-16 0.0000000e+0 1.00000000
vn 1.5397293e-16 0.0000000e+0 1.00000000
vn 6.5957408e-17 0.96623494 0.25766265
vn 6.5957408e-17 0.96623494 0.25766265
vn -0.25881905 0.0000000e+0 0.96592583
vn -0.25881905 0.0000000e+0 0.96592583
vn -6.6688001e-2 0.96623494 0.24888301
vn -6.6688001e-2 0.96623494 0.24888301
vn -0.50000000 0.0000000e+0 0.86602540
vn -0.50000000 0.0000000e+0 0.86602540
vn -0.12883133 0.96623494 0.22314240
vn -0.12883133 0.96623494 0.22314240
vn -0.70710678 0.0000000e+0 0.70710678
vn -0.70710678 0.0000000e+0 0.70710678
vn -0.18219501 0.96623494 0.18219501
vn -0.18219501 0.96623494 0.18219501
vn -0.86602540 0.0000000e+0 0.50000000
vn -0.86602540 0.0000000e+0 0.50000000
vn -0.22314240 0.96623494 0.12883133
vn -0.22314240 0.96623494 0.12883133
vn -0.96592583 0.0000000e+0 0.25881905
vn -0.96592583 0.0000000e+0 0.25881905
vn -0.24888301 0.96623494 6.6688001e-2
vn -0.24888301 0.96623494 6.6688001e-2
vn -1.00000000 0.0000000e+0 3.4993847e-16
vn -1.00000000 0.0000000e+0 3.4993847e-16
vn -0.25766265 0.96623494 1.1108616e-16
vn -0.25766265 0.96623494 1.1108616e-16
vn -0.96592583 0.0000000e+0 -0.25881905
vn -0.96592583 0.0000000e+0 -0.25881905
vn -0.24888301 0.96623494 -6.6688001e-2
vn -0.24888301 0.96623494 -6.6688001e-2
vn -0.86602540 0.0000000e+0 -0.50000000
vn -0.86602540 0.0000000e+0 -0.50000000
vn -0.22314240 0.96623494 -0.12883133
vn -0.22314240 0.96623494 -0.12883133
vn -0.70710678 0.0000000e+0 -0.70710678
vn -0.70710678 0.0000000e+0 -0.70710678
vn -0.18219501 0.96623494 -0.18219501
vn -0.18219501 0.96623494 -0.18219501
vn -0.50000000 0.0000000e+0 -0.86602540
vn -0.50000000 0.0000000e+0 -0.86602540
vn -0.12883133 0.96623494 -0.22314240
vn -0.12883133 0.96623494 -0.22314240
vn -0.25881905 0.0000000e+0 -0.96592583
vn -0.25881905 0.0000000e+0 -0.96592583
vn -6.6688001e-2 0.96623494 -0.24888301
vn -6.6688001e-2 0.96623494 -0.24888301
vn -4.7591632e-16 0.0000000e+0 -1.00000000
vn -4.7591632e-16 0.0000000e+0 -1.00000000
vn -1.2150049e-16 0.96623494 -0.25766265
vn -1.2150049e-16 0.96623494 -0.25766265
vn 0.25881905 0.0000000e+0 -0.96592583
vn 0.25881905 0.0000000e+0 -0.96592583
vn 6.6688001e-2 0.96623494 -0.24888301
vn 6.6688001e-2 0.96623494 -0.24888301
vn 0.50000000 0.0000000e+0 -0.86602540
vn 0.50000000 0.0000000e+0 -0.86602540
vn 0.12883133 0.96623494 -0.22314240
vn 0.12883133 0.96623494 -0.22314240
vn 0.70710678 0.0000000e+0 -0.70710678
vn 0.70710678 0.0000000e+0 -0.70710678
vn 0.18219501 0.96623494 -0.18219501
vn 0.18219501 0.96623494 -0.18219501
vn 0.86602540 0.0000000e+0 -0.50000000
vn 0.86602540 0.0000000e+0 -0.50000000
vn 0.22314240 0.96623494 -0.12883133
vn 0.22314240 0.96623494 -0.12883133
vn 0.96592583 0.0000000e+0 -0.25881905
vn 0.96592583 0.0000000e+0 -0.25881905
vn 0.24888301 0.96623494 -6.6688001e-2
vn 0.24888301 0.96623494 -6.6688001e-2
vn 1.00000000 0.0000000e+0 -2.3795816e-16
vn 1.00000000 0.0000000e+0 -2.3795816e-16
vn 0.96592583 0.0000000e+0 0.25881905
vn 0.96592583 0.0000000e+0 0.25881905
vn 0.86602540 0.0000000e+0 0.50000000
vn 0.86602540 0.0000000e+0 0.50000000
vn 0.70710678 0.0000000e+0 0.70710678
vn 0.70710678 0.0000000e+0 0.70710678
vn 0.50000000 0.0000000e+0 0.86602540
vn 0.50000000 0.0000000e+0 0.86602540
vn 0.25881905 0.0000000e+0 0.96592583
vn 0.25881905 0.0000000e+0 0.96592583
vn 1.5397293e-16 0.0000000e+0 1.00000000
vn 1.5397293e-16 0.0000000e+0 1.00000000
vn -0.25881905 0.0000000e+0 0.96592583
vn -0.25881905 0.0000000e+0 0.96592583
vn -0.50000000 0.0000000e+0 0.86602540
vn -0.50000000 0.0000000e+0 0.86602540
vn -0.70710678 0.0000000e+0 0.70710678
vn -0.70710678 0.0000000e+0 0.70710678
vn -0.86602540 0.0000000e+0 0.50000000
vn -0.86602540 0.0000000e+0 0.50000000
vn -0.96592583 0.0000000e+0 0.25881905
vn -0.96592583 0.0000000e+0 0.25881905
vn -1.00000000 0.0000000e+0 3.4993847e-16
vn -1.00000000 0.0000000e+0 3.4993847e-16
vn -0.96592583 0.0000000e+0 -0.25881905
vn -0.96592583 0.0000000e+0 -0.25881905
vn -0.86602540 0.0000000e+0 -0.50000000
vn -0.86602540 0.0000000e+0 -0.50000000
vn -0.70710678 0.0000000e+0 -0.70710678
vn -0.70710678 0.0000000e+0 -0.70710678
vn -0.50000000 0.0000000e+0 -0.86602540
vn -0.50000000 0.0000000e+0 -0.86602540
vn -0.25881905 0.0000000e+0 -0.96592583
vn -0.25881905 0.0000000e+0 -0.96592583
vn -4.7591632e-16 0.0000000e+0 -1.00000000
vn -4.7591632e-16 0.0000000e+0 -1.00000000
vn 0.25881905 0.0000000e+0 -0.96592583
vn 0.25881905 0.0000000e+0 -0.96592583
vn 0.50000000 0.0000000e+0 -0.86602540
vn 0.50000000 0.0000000e+0 -0.86602540
vn 0.70710678 0.0000000e+0 -0.70710678
vn 0.70710678 0.0000000e+0 -0.70710678
vn 0.86602540 0.0000000e+0 -0.50000000
vn 0.86602540 0.0000000e+0 -0.50000000
vn 0.96592583 0.0000000e+0 -0.25881905
vn 0.96592583 0.0000000e+0 -0.25881905
vn 0.24888301 0.96623494 6.6688001e-2
vn 0.24888301 0.96623494 6.6688001e-2
vn 0.25766265 0.96623494 -6.2485965e-17
vn 0.25766265 0.96623494 -6.2485965e-17
vn 0.24888301 0.96623494 -6.6688001e-2
vn 0.24888301 0.96623494 -6.6688001e-2
vn 0.22314240 0.96623494 -0.12883133
vn 0.22314240 0.96623494 -0.12883133
vn 0.18219501 0.96623494 -0.18219501
vn 0.18219501 0.96623494 -0.18219501
vn 0.12883133 0.96623494 -0.22314240
vn 0.12883133 0.96623494 -0.22314240
vn 6.6688001e-2 0.96623494 -0.24888301
vn 6.6688001e-2 0.96623494 -0.24888301
vn -1.2150049e-16 0.96623494 -0.25766265
vn -1.2150049e-16 0.96623494 -0.25766265
vn -6.6688001e-2 0.96623494 -0.24888301
vn -6.6688001e-2 0.96623494 -0.24888301
vn -0.12883133 0.96623494 -0.22314240
vn -0.12883133 0.96623494 -0.22314240
vn -0.18219501 0.96623494 -0.18219501
vn -0.18219501 0.96623494 -0.18219501
vn -0.22314240 0.96623494 -0.12883133
vn -0.22314240 0.96623494 -0.12883133
vn -0.24888301 0.96623494 -6.6688001e-2
vn -0.24888301 0.96623494 -6.6688001e-2
vn -0.25766265 0.96623494 1.1108616e-16
vn -0.25766265 0.96623494 1.1108616e-16
vn -0.24888301 0.96623494 6.6688001e-2
vn -0.24888301 0.96623494 6.6688001e-2
vn -0.22314240 0.96623494 0.12883133
vn -0.22314240 0.96623494 0.12883133
vn -0.18219501 0.96623494 0.18219501
vn -0.18219501 0.96623494 0.18219501
vn -0.12883133 0.96623494 0.22314240
vn -0.12883133 0.96623494 0.22314240
vn -6.6688001e-2 0.96623494 0.24888301
vn -6.6688001e-2 0.96623494 0.24888301
vn 6.5957408e-17 0.96623494 0.25766265
vn 6.5957408e-17 0.96623494 0.25766265
vn 6.6688001e-2 0.96623494 0.24888301
vn 6.6688001e-2 0.96623494 0.24888301
vn 0.12883133 0.96623494 0.22314240
vn 0.12883133 0.96623494 0.22314240
vn 0.18219501 0.96623494 0.18219501
vn 0.18219501 0.96623494 0.18219501
vn 0.22314240 0.96623494 0.12883133
vn 0.22314240 0.96623494 0.12883133
g mesh1_vega_adapter_s1p5_s0p5_1_auv
usemtl vega_adapter_s1p5_s0p5_1_auv
s 2
f 1/64/3 50/52/147 49/47/145 2/57/7
f 2/57/8 49/47/146 72/34/192 3/31/12
f 3/31/11 72/34/191 71/25/190 4/18/16
f 4/18/15 71/25/189 70/20/188 5/7/20
f 5/7/19 70/21/187 69/26/186 6/16/24
f 6/16/23 69/26/185 68/35/184 7/31/28
f 7/31/27 68/35/183 67/46/182 8/56/32
f 8/56/31 67/46/181 66/53/180 9/64/36
f 9/65/35 66/53/179 65/49/178 10/57/40
f 10/57/39 65/49/177 64/41/176 11/38/44
f 11/38/43 64/41/175 63/27/174 12/18/48
f 12/18/47 63/27/173 62/22/172 13/6/52
f 13/8/51 62/23/171 61/28/170 14/19/56
f 14/19/55 61/28/169 60/44/168 15/42/60
f 15/42/59 60/44/167 59/50/166 16/58/64
f 16/58/63 59/50/165 58/54/164 17/66/68
f 17/64/67 58/53/163 57/48/162 18/57/72
f 18/57/71 57/48/161 56/35/160 19/31/76
f 19/31/75 56/35/159 55/26/158 20/17/80
f 20/17/79 55/26/157 54/21/156 21/7/84
f 21/8/83 54/24/155 53/29/154 22/19/88
f 22/19/87 53/29/153 52/45/152 23/43/92
f 23/43/91 52/45/151 51/51/150 24/58/96
f 24/58/95 51/51/149 50/55/148 1/66/4
s 3
f 1/72/1 25/70/97 48/60/143 24/61/93
f 2/62/6 26/60/100 25/70/98 1/73/2
f 3/32/10 27/30/102 26/60/99 2/62/5
f 4/14/14 28/12/104 27/30/101 3/32/9
f 5/3/18 29/1/106 28/12/103 4/14/13
f 6/15/22 30/13/108 29/2/105 5/4/17
f 7/39/26 31/37/110 30/13/107 6/15/21
f 8/63/30 32/60/112 31/37/109 7/39/25
f 9/73/34 33/71/114 32/60/111 8/63/29
f 10/62/38 34/60/116 33/70/113 9/68/33
f 11/33/42 35/30/118 34/60/115 10/62/37
f 12/10/46 36/9/120 35/30/117 11/33/41
f 13/3/50 37/1/122 36/9/119 12/10/45
f 14/15/54 38/13/124 37/2/121 13/5/49
f 15/39/58 39/36/126 38/13/123 14/15/53
f 16/61/62 40/59/128 39/36/125 15/39/57
f 17/72/66 41/69/130 40/59/127 16/61/61
f 18/61/70 42/60/132 41/69/129 17/67/65
f 19/33/74 43/30/134 42/60/131 18/61/69
f 20/11/78 44/9/136 43/30/133 19/33/73
f 21/4/82 45/2/138 44/9/135 20/11/77
f 22/14/86 46/13/140 45/2/137 21/3/81
f 23/40/90 47/37/142 46/13/139 22/14/85
f 24/61/94 48/60/144 47/37/141 23/40/89
