# Exported from Wings 3D 1.5.4
mtllib Auriga_Parachute_1_Cap.mtl
o Auriga_Parachute_1_Cap
#73 vertices, 72 faces
v 0.27166621 0.11375000 7.2792856e-2
v 0.28124957 0.11375000 -1.0415656e-17
v 0.27166621 0.11375000 -7.2792856e-2
v 0.24356922 0.11375000 -0.14062500
v 0.19887335 0.11375000 -0.19887378
v 0.14062457 0.11375000 -0.24356964
v 7.2792428e-2 0.11375000 -0.27166664
v -4.2821754e-7 0.11375000 -0.28125000
v -7.2793285e-2 0.11375000 -0.27166664
v -0.14062543 0.11375000 -0.24356964
v -0.19887421 0.11375000 -0.19887378
v -0.24357007 0.11375000 -0.14062500
v -0.27166707 0.11375000 -7.2792856e-2
v -0.28125043 0.11375000 -3.7771390e-18
v -0.27166707 0.11375000 7.2792856e-2
v -0.24357007 0.11375000 0.14062500
v -0.19887421 0.11375000 0.19887378
v -0.14062543 0.11375000 0.24356964
v -7.2793285e-2 0.11375000 0.27166664
v -4.2821754e-7 0.11375000 0.28125000
v 7.2792428e-2 0.11375000 0.27166664
v 0.14062457 0.11375000 0.24356964
v 0.19887335 0.11375000 0.19887378
v 0.24356922 0.11375000 0.14062500
v -4.2821754e-7 0.14500000 -3.7909472e-17
v 0.18111066 0.12937500 4.8528571e-2
v 0.16237933 0.12937500 9.3750000e-2
v 0.13258209 0.12937500 0.13258252
v 9.3749572e-2 0.12937500 0.16237976
v 4.8528143e-2 0.12937500 0.18111109
v -4.2821754e-7 0.12937500 0.18750000
v -4.8528999e-2 0.12937500 0.18111109
v -9.3750428e-2 0.12937500 0.16237976
v -0.13258295 0.12937500 0.13258252
v -0.16238019 0.12937500 9.3750000e-2
v -0.18111152 0.12937500 4.8528571e-2
v -0.18750043 0.12937500 -1.5154583e-17
v -0.18111152 0.12937500 -4.8528571e-2
v -0.16238019 0.12937500 -9.3750000e-2
v -0.13258295 0.12937500 -0.13258252
v -9.3750428e-2 0.12937500 -0.16237976
v -4.8528999e-2 0.12937500 -0.18111109
v -4.2821754e-7 0.12937500 -0.18750000
v 4.8528143e-2 0.12937500 -0.18111109
v 9.3749572e-2 0.12937500 -0.16237976
v 0.13258209 0.12937500 -0.13258252
v 0.16237933 0.12937500 -9.3750000e-2
v 0.18111066 0.12937500 -4.8528571e-2
v 0.18749957 0.12937500 -1.9580262e-17
v 9.3749572e-2 0.13979167 -2.8744867e-17
v 9.0555118e-2 0.13979167 -2.4264285e-2
v 8.1189453e-2 0.13979167 -4.6875000e-2
v 6.6290833e-2 0.13979167 -6.6291261e-2
v 4.6874572e-2 0.13979167 -8.1189882e-2
v 2.4263857e-2 0.13979167 -9.0555546e-2
v -4.2821754e-7 0.13979167 -9.3750000e-2
v -2.4264714e-2 0.13979167 -9.0555546e-2
v -4.6875428e-2 0.13979167 -8.1189882e-2
v -6.6291689e-2 0.13979167 -6.6291261e-2
v -8.1190310e-2 0.13979167 -4.6875000e-2
v -9.0555974e-2 0.13979167 -2.4264285e-2
v -9.3750428e-2 0.13979167 -2.6532028e-17
v -9.0555974e-2 0.13979167 2.4264285e-2
v -8.1190310e-2 0.13979167 4.6875000e-2
v -6.6291689e-2 0.13979167 6.6291261e-2
v -4.6875428e-2 0.13979167 8.1189882e-2
v -2.4264714e-2 0.13979167 9.0555546e-2
v -4.2821754e-7 0.13979167 9.3750000e-2
v 2.4263857e-2 0.13979167 9.0555546e-2
v 4.6874572e-2 0.13979167 8.1189882e-2
v 6.6290833e-2 0.13979167 6.6291261e-2
v 8.1189453e-2 0.13979167 4.6875000e-2
v 9.0555118e-2 0.13979167 2.4264285e-2
vt 0.83631431 0.97697945
vt 0.83631431 0.97697945
vt 0.83631431 0.97697945
vt 0.83631431 0.97697945
vt 0.83813727 0.96313264
vt 0.83813727 0.96313264
vt 0.83813727 0.96313264
vt 0.83813727 0.96313264
vt 0.84348195 0.95022945
vt 0.84348195 0.95022945
vt 0.84348195 0.95022945
vt 0.84348195 0.95022945
vt 0.85198409 0.93914924
vt 0.85198409 0.93914924
vt 0.85198409 0.93914924
vt 0.85198409 0.93914924
vt 0.85414764 0.97697945
vt 0.85414764 0.97697945
vt 0.85414764 0.97697945
vt 0.85414764 0.97697945
vt 0.85536295 0.96774824
vt 0.85536295 0.96774824
vt 0.85536295 0.96774824
vt 0.85536295 0.96774824
vt 0.85892607 0.95914612
vt 0.85892607 0.95914612
vt 0.85892607 0.95914612
vt 0.85892607 0.95914612
vt 0.86306431 0.93064710
vt 0.86306431 0.93064710
vt 0.86306431 0.93064710
vt 0.86306431 0.93064710
vt 0.86459416 0.95175931
vt 0.86459416 0.95175931
vt 0.86459416 0.95175931
vt 0.86459416 0.95175931
vt 0.87198097 0.94609122
vt 0.87198097 0.94609122
vt 0.87198097 0.97697945
vt 0.87198097 0.94609122
vt 0.87198097 0.97697945
vt 0.87198097 0.97697945
vt 0.87198097 0.94609122
vt 0.87258863 0.97236385
vt 0.87258863 0.97236385
vt 0.87258863 0.97236385
vt 0.87258863 0.97236385
vt 0.87437019 0.96806279
vt 0.87437019 0.96806279
vt 0.87437019 0.96806279
vt 0.87437019 0.96806279
vt 0.87596749 0.92530242
vt 0.87596749 0.92530242
vt 0.87596749 0.92530242
vt 0.87596749 0.92530242
vt 0.87720423 0.96436938
vt 0.87720423 0.96436938
vt 0.87720423 0.96436938
vt 0.88058309 0.94252810
vt 0.88058309 0.94252810
vt 0.88058309 0.94252810
vt 0.88058309 0.94252810
vt 0.88089764 0.96153534
vt 0.88089764 0.96153534
vt 0.88089764 0.96153534
vt 0.88519870 0.95975378
vt 0.88519870 0.95975378
vt 0.88519870 0.95975378
vt 0.88519870 0.95975378
vt 0.88981431 0.92347945
vt 0.88981431 0.92347945
vt 0.88981431 0.94131279
vt 0.88981431 0.94131279
vt 0.88981431 0.95914612
vt 0.88981431 0.95914612
vt 0.88981431 0.97697945
vt 0.88981431 0.92347945
vt 0.88981431 0.94131279
vt 0.88981431 0.95914612
vt 0.88981431 0.95914612
vt 0.88981431 0.97697945
vt 0.88981431 0.97697945
vn -1.4478707e-18 1.00000000 -5.3571214e-18
vn 0.13278055 0.99050669 3.5578441e-2
vn 0.11904779 0.99050669 6.8732271e-2
vn 9.7202110e-2 0.99050669 9.7202110e-2
vn 6.8732271e-2 0.99050669 0.11904779
vn 3.5578441e-2 0.99050669 0.13278055
vn 2.1695780e-17 0.99050669 0.13746454
vn -3.5578441e-2 0.99050669 0.13278055
vn -6.8732271e-2 0.99050669 0.11904779
vn -9.7202110e-2 0.99050669 9.7202110e-2
vn -0.11904779 0.99050669 6.8732271e-2
vn -0.13278055 0.99050669 3.5578441e-2
vn -0.13746454 0.99050669 8.0708303e-17
vn -0.13278055 0.99050669 -3.5578441e-2
vn -0.11904779 0.99050669 -6.8732271e-2
vn -9.7202110e-2 0.99050669 -9.7202110e-2
vn -6.8732271e-2 0.99050669 -0.11904779
vn -3.5578441e-2 0.99050669 -0.13278055
vn -1.1889288e-16 0.99050669 -0.13746454
vn 3.5578441e-2 0.99050669 -0.13278055
vn 6.8732271e-2 0.99050669 -0.11904779
vn 9.7202110e-2 0.99050669 -9.7202110e-2
vn 0.11904779 0.99050669 -6.8732271e-2
vn 0.13278055 0.99050669 -3.5578441e-2
vn 0.13746454 0.99050669 -4.7730717e-17
vn 8.2981244e-2 0.99655111 -4.1218083e-18
vn 8.0153727e-2 0.99655111 -2.1477126e-2
vn 7.1863865e-2 0.99655111 -4.1490622e-2
vn 5.8676600e-2 0.99655111 -5.8676600e-2
vn 4.1490622e-2 0.99655111 -7.1863865e-2
vn 2.1477126e-2 0.99655111 -8.0153727e-2
vn -8.1785355e-17 0.99655111 -8.2981244e-2
vn -2.1477126e-2 0.99655111 -8.0153727e-2
vn -4.1490622e-2 0.99655111 -7.1863865e-2
vn -5.8676600e-2 0.99655111 -5.8676600e-2
vn -7.1863865e-2 0.99655111 -4.1490622e-2
vn -8.0153727e-2 0.99655111 -2.1477126e-2
vn -8.2981244e-2 0.99655111 4.0784209e-16
vn -8.0153727e-2 0.99655111 2.1477126e-2
vn -7.1863865e-2 0.99655111 4.1490622e-2
vn -5.8676600e-2 0.99655111 5.8676600e-2
vn -4.1490622e-2 0.99655111 7.1863865e-2
vn -2.1477126e-2 0.99655111 8.0153727e-2
vn 2.8201847e-17 0.99655111 8.2981244e-2
vn 2.1477126e-2 0.99655111 8.0153727e-2
vn 4.1490622e-2 0.99655111 7.1863865e-2
vn 5.8676600e-2 0.99655111 5.8676600e-2
vn 7.1863865e-2 0.99655111 4.1490622e-2
vn 8.0153727e-2 0.99655111 2.1477126e-2
vn 0.15879723 0.98639392 4.2549589e-2
vn 0.15879723 0.98639392 4.2549589e-2
vn 0.16439899 0.98639392 -6.9405190e-17
vn 0.16439899 0.98639392 -6.9405190e-17
vn 0.15879723 0.98639392 -4.2549589e-2
vn 0.15879723 0.98639392 -4.2549589e-2
vn 0.14237370 0.98639392 -8.2199494e-2
vn 0.14237370 0.98639392 -8.2199494e-2
vn 0.11624764 0.98639392 -0.11624764
vn 0.11624764 0.98639392 -0.11624764
vn 8.2199494e-2 0.98639392 -0.14237370
vn 8.2199494e-2 0.98639392 -0.14237370
vn 4.2549589e-2 0.98639392 -0.15879723
vn 4.2549589e-2 0.98639392 -0.15879723
vn -1.4228064e-16 0.98639392 -0.16439899
vn -1.4228064e-16 0.98639392 -0.16439899
vn -4.2549589e-2 0.98639392 -0.15879723
vn -4.2549589e-2 0.98639392 -0.15879723
vn -8.2199494e-2 0.98639392 -0.14237370
vn -8.2199494e-2 0.98639392 -0.14237370
vn -0.11624764 0.98639392 -0.11624764
vn -0.11624764 0.98639392 -0.11624764
vn -0.14237370 0.98639392 -8.2199494e-2
vn -0.14237370 0.98639392 -8.2199494e-2
vn -0.15879723 0.98639392 -4.2549589e-2
vn -0.15879723 0.98639392 -4.2549589e-2
vn -0.16439899 0.98639392 1.0063752e-16
vn -0.16439899 0.98639392 1.0063752e-16
vn -0.15879723 0.98639392 4.2549589e-2
vn -0.15879723 0.98639392 4.2549589e-2
vn -0.14237370 0.98639392 8.2199494e-2
vn -0.14237370 0.98639392 8.2199494e-2
vn -0.11624764 0.98639392 0.11624764
vn -0.11624764 0.98639392 0.11624764
vn -8.2199494e-2 0.98639392 0.14237370
vn -8.2199494e-2 0.98639392 0.14237370
vn -4.2549589e-2 0.98639392 0.15879723
vn -4.2549589e-2 0.98639392 0.15879723
vn 8.6756487e-18 0.98639392 0.16439899
vn 8.6756487e-18 0.98639392 0.16439899
vn 4.2549589e-2 0.98639392 0.15879723
vn 4.2549589e-2 0.98639392 0.15879723
vn 8.2199494e-2 0.98639392 0.14237370
vn 8.2199494e-2 0.98639392 0.14237370
vn 0.11624764 0.98639392 0.11624764
vn 0.11624764 0.98639392 0.11624764
vn 0.14237370 0.98639392 8.2199494e-2
vn 0.14237370 0.98639392 8.2199494e-2
g Auriga_Parachute_1_Cap_Auriga_Parachute_1_Cap_auv
usemtl Auriga_Parachute_1_Cap_auv
s 2
f 1/7/51 26/23/2 27/28/3 24/12/97
f 2/4/52 49/20/25 26/23/2 1/7/50
f 3/8/54 48/24/24 49/19/25 2/3/53
f 4/11/56 47/25/23 48/24/24 3/8/55
f 5/15/58 46/35/22 47/25/23 4/11/57
f 6/32/60 45/43/21 46/35/22 5/15/59
f 7/54/62 44/61/20 45/43/21 6/32/61
f 8/70/64 43/72/19 44/61/20 7/54/63
f 9/53/66 42/60/18 43/78/19 8/77/65
f 10/31/68 41/40/17 42/60/18 9/53/67
f 11/14/70 40/34/16 41/40/17 10/31/69
f 12/10/72 39/27/15 40/34/16 11/14/71
f 13/6/74 38/22/14 39/27/15 12/10/73
f 14/2/76 37/18/13 38/22/14 13/6/75
f 15/5/78 36/21/12 37/17/13 14/1/77
f 16/9/80 35/26/11 36/21/12 15/5/79
f 17/13/82 34/33/10 35/26/11 16/9/81
f 18/29/84 33/37/9 34/33/10 17/13/83
f 19/52/86 32/59/8 33/37/9 18/29/85
f 20/70/88 31/72/7 32/59/8 19/52/87
f 21/55/90 30/62/6 31/73/7 20/71/89
f 22/30/92 29/38/5 30/62/6 21/55/91
f 23/16/94 28/36/4 29/38/5 22/30/93
f 24/12/96 27/28/3 28/36/4 23/16/95
f 25/82/1 73/47/49 50/42/26
f 26/23/2 49/20/25 50/42/26 73/47/49
f 50/39/26 51/44/27 25/76/1
f 51/44/27 50/39/26 49/19/25 48/24/24
f 51/44/27 52/50/28 25/76/1
f 52/50/28 51/44/27 48/24/24 47/25/23
f 52/50/28 53/57/29 25/76/1
f 53/57/29 52/50/28 47/25/23 46/35/22
f 53/57/29 54/63/30 25/76/1
f 54/63/30 53/57/29 46/35/22 45/43/21
f 54/63/30 55/69/31 25/76/1
f 55/69/31 54/63/30 45/43/21 44/61/20
f 55/69/31 56/74/32 25/76/1
f 56/74/32 55/69/31 44/61/20 43/72/19
f 56/79/32 57/67/33 25/81/1
f 57/67/33 56/79/32 43/78/19 42/60/18
f 57/67/33 58/64/34 25/81/1
f 58/64/34 57/67/33 42/60/18 41/40/17
f 58/64/34 59/56/35 25/81/1
f 59/56/35 58/64/34 41/40/17 40/34/16
f 59/56/35 60/49/36 25/81/1
f 60/49/36 59/56/35 40/34/16 39/27/15
f 60/49/36 61/46/37 25/81/1
f 61/46/37 60/49/36 39/27/15 38/22/14
f 61/46/37 62/41/38 25/81/1
f 62/41/38 61/46/37 38/22/14 37/18/13
f 62/39/38 63/45/39 25/76/1
f 63/45/39 62/39/38 37/17/13 36/21/12
f 63/45/39 64/48/40 25/76/1
f 64/48/40 63/45/39 36/21/12 35/26/11
f 64/48/40 65/57/41 25/76/1
f 65/57/41 64/48/40 35/26/11 34/33/10
f 65/57/41 66/63/42 25/76/1
f 66/63/42 65/57/41 34/33/10 33/37/9
f 66/63/42 67/66/43 25/76/1
f 67/66/43 66/63/42 33/37/9 32/59/8
f 67/66/43 68/75/44 25/76/1
f 68/75/44 67/66/43 32/59/8 31/72/7
f 68/80/44 69/68/45 25/82/1
f 69/68/45 68/80/44 31/73/7 30/62/6
f 69/68/45 70/65/46 25/82/1
f 70/65/46 69/68/45 30/62/6 29/38/5
f 70/65/46 71/58/47 25/82/1
f 71/58/47 70/65/46 29/38/5 28/36/4
f 71/58/47 72/51/48 25/82/1
f 72/51/48 71/58/47 28/36/4 27/28/3
f 72/51/48 73/47/49 25/82/1
f 73/47/49 72/51/48 27/28/3 26/23/2
