# Exported from Wings 3D 1.5.4
mtllib octans_solar_srf_1_panel.mtl
o mesh
#8 vertices, 6 faces
v -0.40000000 -6.2500000e-3 -0.49375000
v -0.40000000 -6.2500000e-3 6.2500000e-3
v -0.40000000 6.2500000e-3 -0.49375000
v -0.40000000 6.2500000e-3 6.2500000e-3
v 0.40000000 -6.2500000e-3 -0.49375000
v 0.40000000 -6.2500000e-3 6.2500000e-3
v 0.40000000 6.2500000e-3 -0.49375000
v 0.40000000 6.2500000e-3 6.2500000e-3
vt 3.7500000e-2 0.68867897
vt 3.7500000e-2 0.70739005
vt 3.7500000e-2 0.70739005
vt 3.7500000e-2 0.71715567
vt 3.7500000e-2 0.71715567
vt 3.7500000e-2 0.73673685
vt 3.7500000e-2 0.73673685
vt 3.7500000e-2 0.74650248
vt 3.7500000e-2 0.74650248
vt 3.7500000e-2 0.76637312
vt 3.7500000e-2 0.96168562
vt 3.7500000e-2 0.49336647
vt 0.23281250 0.70739005
vt 0.23281250 0.71715567
vt 0.23281250 0.70739005
vt 0.23281250 0.71715567
vt 0.35000000 0.68867897
vt 0.35000000 0.76637312
vt 0.35000000 0.96168562
vt 0.35000000 0.49336647
vt 0.35000000 0.73673685
vt 0.35000000 0.74650248
vt 0.35000000 0.74650248
vn 0.0000000e+0 -1.00000000 0.0000000e+0
vn 0.0000000e+0 0.0000000e+0 -1.00000000
vn -1.00000000 0.0000000e+0 0.0000000e+0
vn 0.0000000e+0 -1.00000000 0.0000000e+0
vn 0.0000000e+0 0.0000000e+0 1.00000000
vn -1.00000000 0.0000000e+0 0.0000000e+0
vn 0.0000000e+0 1.00000000 0.0000000e+0
vn 0.0000000e+0 0.0000000e+0 -1.00000000
vn -1.00000000 0.0000000e+0 0.0000000e+0
vn 0.0000000e+0 1.00000000 0.0000000e+0
vn 0.0000000e+0 0.0000000e+0 1.00000000
vn -1.00000000 0.0000000e+0 0.0000000e+0
vn 0.0000000e+0 -1.00000000 0.0000000e+0
vn 0.0000000e+0 0.0000000e+0 -1.00000000
vn 1.00000000 0.0000000e+0 0.0000000e+0
vn 0.0000000e+0 -1.00000000 0.0000000e+0
vn 0.0000000e+0 0.0000000e+0 1.00000000
vn 1.00000000 0.0000000e+0 0.0000000e+0
vn 0.0000000e+0 1.00000000 0.0000000e+0
vn 0.0000000e+0 0.0000000e+0 -1.00000000
vn 1.00000000 0.0000000e+0 0.0000000e+0
vn 0.0000000e+0 1.00000000 0.0000000e+0
vn 0.0000000e+0 0.0000000e+0 1.00000000
vn 1.00000000 0.0000000e+0 0.0000000e+0
g mesh_mesh_auv
usemtl mesh_auv
s 1
f 2/15/6 4/16/12 3/4/9 1/2/3
f 5/13/15 7/14/21 8/5/24 6/3/18
s 2
f 2/7/5 6/21/17 8/22/23 4/9/11
f 3/23/8 7/8/20 5/6/14 1/21/2
s 3
f 1/17/1 5/1/13 6/12/16 2/20/4
f 4/10/10 8/18/22 7/19/19 3/11/7
