# Exported from Wings 3D 1.5.4
mtllib octans_solar_srf_1_base.mtl
o hinge
#28 vertices, 22 faces
v -0.40000000 1.2500000e-2 -7.5000000e-2
v -0.40000000 -1.2500000e-2 -7.5000000e-2
v -0.40000000 -8.8388348e-3 -8.3838835e-2
v -0.40000000 3.3510606e-17 -8.7500000e-2
v -0.40000000 8.8388348e-3 -8.3838835e-2
v -0.41250000 1.2500000e-2 -7.5000000e-2
v -0.41250000 -1.2500000e-2 -7.5000000e-2
v -0.41250000 -8.8388348e-3 -8.3838835e-2
v -0.41250000 3.1979797e-17 -8.7500000e-2
v -0.41250000 8.8388348e-3 -8.3838835e-2
v -0.41250000 1.2500000e-2 2.5000000e-2
v -0.40000000 1.2500000e-2 2.5000000e-2
v -0.40000000 -1.2500000e-2 2.5000000e-2
v -0.41250000 -1.2500000e-2 2.5000000e-2
v 0.40000000 1.2500000e-2 -7.5000000e-2
v 0.40000000 -1.2500000e-2 -7.5000000e-2
v 0.40000000 -8.8388348e-3 -8.3838835e-2
v 0.40000000 3.3510606e-17 -8.7500000e-2
v 0.40000000 8.8388348e-3 -8.3838835e-2
v 0.41250000 1.2500000e-2 -7.5000000e-2
v 0.41250000 -1.2500000e-2 -7.5000000e-2
v 0.41250000 -8.8388348e-3 -8.3838835e-2
v 0.41250000 3.1979797e-17 -8.7500000e-2
v 0.41250000 8.8388348e-3 -8.3838835e-2
v 0.41250000 1.2500000e-2 2.5000000e-2
v 0.40000000 1.2500000e-2 2.5000000e-2
v 0.40000000 -1.2500000e-2 2.5000000e-2
v 0.41250000 -1.2500000e-2 2.5000000e-2
vt 0.57989735 0.33708678
vt 0.57989735 0.33708678
vt 0.57989735 0.35198060
vt 0.57989735 0.35198060
vt 0.63947261 0.33708678
vt 0.63947261 0.33708678
vt 0.63947261 0.35198060
vt 0.63947261 0.35198060
vt 0.64473837 0.33926793
vt 0.64473837 0.33926793
vt 0.64473837 0.34979945
vt 0.64473837 0.34979945
vt 0.64691952 0.34453369
vt 0.64691952 0.34453369
vt 0.68519677 0.35207691
vt 0.68519677 0.33718309
vt 0.68519677 0.33718309
vt 0.68519677 0.35207691
vt 0.69089638 0.33718309
vt 0.69089638 0.35207691
vt 0.69089638 0.33718309
vt 0.69089638 0.35207691
vt 0.69659600 0.33718309
vt 0.69659600 0.33718309
vt 0.69659600 0.35207691
vt 0.69659600 0.35207691
vt 0.75617126 0.33718309
vt 0.75617126 0.33718309
vt 0.75617126 0.35207691
vt 0.75617126 0.35207691
vt 0.75625791 0.33718309
vt 0.75625791 0.35207691
vt 0.77115173 0.33718309
vt 0.77115173 0.35207691
vn 1.00000000 0.0000000e+0 -5.5511151e-16
vn -5.7773233e-17 0.98078528 -0.19509032
vn -5.7773233e-17 0.98078528 -0.19509032
vn 1.00000000 0.0000000e+0 -5.5511151e-16
vn 1.00000000 0.0000000e+0 -5.5511151e-16
vn 1.4296489e-16 -0.98078528 -0.19509032
vn 1.00000000 0.0000000e+0 -5.5511151e-16
vn 1.4296489e-16 -0.98078528 -0.19509032
vn 1.00000000 0.0000000e+0 0.0000000e+0
vn 1.0733054e-16 -0.70710678 -0.70710678
vn 1.0733054e-16 -0.70710678 -0.70710678
vn 1.00000000 0.0000000e+0 0.0000000e+0
vn -1.5332934e-17 -9.0127256e-17 -1.00000000
vn -1.5332934e-17 -9.0127256e-17 -1.00000000
vn 1.00000000 0.0000000e+0 0.0000000e+0
vn -1.0733054e-16 0.70710678 -0.70710678
vn -1.0733054e-16 0.70710678 -0.70710678
vn -1.00000000 0.0000000e+0 5.5511151e-16
vn -5.7773233e-17 0.98078528 -0.19509032
vn -5.7773233e-17 0.98078528 -0.19509032
vn -1.00000000 0.0000000e+0 5.5511151e-16
vn -1.00000000 0.0000000e+0 5.5511151e-16
vn 1.4296489e-16 -0.98078528 -0.19509032
vn 1.4296489e-16 -0.98078528 -0.19509032
vn -1.00000000 0.0000000e+0 5.5511151e-16
vn -1.00000000 0.0000000e+0 0.0000000e+0
vn 1.0733054e-16 -0.70710678 -0.70710678
vn 1.0733054e-16 -0.70710678 -0.70710678
vn -1.00000000 0.0000000e+0 0.0000000e+0
vn -1.5332934e-17 -9.0127256e-17 -1.00000000
vn -1.5332934e-17 -9.0127256e-17 -1.00000000
vn -1.00000000 0.0000000e+0 0.0000000e+0
vn -1.0733054e-16 0.70710678 -0.70710678
vn -1.0733054e-16 0.70710678 -0.70710678
vn 0.0000000e+0 0.0000000e+0 1.00000000
vn 0.0000000e+0 1.00000000 0.0000000e+0
vn -1.00000000 0.0000000e+0 1.1102230e-15
vn 0.0000000e+0 0.0000000e+0 1.00000000
vn 0.0000000e+0 1.00000000 0.0000000e+0
vn 1.00000000 0.0000000e+0 -1.1102230e-15
vn 0.0000000e+0 0.0000000e+0 1.00000000
vn 1.00000000 0.0000000e+0 -1.1102230e-15
vn 1.3877788e-16 -1.00000000 -1.5407440e-31
vn 0.0000000e+0 0.0000000e+0 1.00000000
vn 1.3877788e-16 -1.00000000 -1.5407440e-31
vn -1.00000000 0.0000000e+0 1.1102230e-15
vn -1.00000000 0.0000000e+0 -5.5511151e-16
vn 5.7773233e-17 0.98078528 -0.19509032
vn 5.7773233e-17 0.98078528 -0.19509032
vn -1.00000000 0.0000000e+0 -5.5511151e-16
vn -1.00000000 0.0000000e+0 -5.5511151e-16
vn -1.4296489e-16 -0.98078528 -0.19509032
vn -1.00000000 0.0000000e+0 -5.5511151e-16
vn -1.4296489e-16 -0.98078528 -0.19509032
vn -1.00000000 0.0000000e+0 0.0000000e+0
vn -1.0733054e-16 -0.70710678 -0.70710678
vn -1.0733054e-16 -0.70710678 -0.70710678
vn -1.00000000 0.0000000e+0 0.0000000e+0
vn 1.5332934e-17 -9.0127256e-17 -1.00000000
vn 1.5332934e-17 -9.0127256e-17 -1.00000000
vn -1.00000000 0.0000000e+0 0.0000000e+0
vn 1.0733054e-16 0.70710678 -0.70710678
vn 1.0733054e-16 0.70710678 -0.70710678
vn 1.00000000 -9.8130779e-16 5.5511151e-16
vn 5.7773233e-17 0.98078528 -0.19509032
vn 5.7773233e-17 0.98078528 -0.19509032
vn 1.00000000 -9.8130779e-16 5.5511151e-16
vn 1.00000000 -9.8130779e-16 5.5511151e-16
vn -1.4296489e-16 -0.98078528 -0.19509032
vn -1.4296489e-16 -0.98078528 -0.19509032
vn 1.00000000 -9.8130779e-16 5.5511151e-16
vn 1.00000000 -1.9626156e-15 0.0000000e+0
vn -1.0733054e-16 -0.70710678 -0.70710678
vn -1.0733054e-16 -0.70710678 -0.70710678
vn 1.00000000 -1.9626156e-15 0.0000000e+0
vn 1.5332934e-17 -9.0127256e-17 -1.00000000
vn 1.5332934e-17 -9.0127256e-17 -1.00000000
vn 1.00000000 -1.9626156e-15 0.0000000e+0
vn 1.0733054e-16 0.70710678 -0.70710678
vn 1.0733054e-16 0.70710678 -0.70710678
vn 0.0000000e+0 0.0000000e+0 1.00000000
vn 0.0000000e+0 1.00000000 0.0000000e+0
vn 1.00000000 0.0000000e+0 1.1102230e-15
vn 0.0000000e+0 0.0000000e+0 1.00000000
vn 0.0000000e+0 1.00000000 0.0000000e+0
vn -1.00000000 0.0000000e+0 -1.1102230e-15
vn 0.0000000e+0 0.0000000e+0 1.00000000
vn -1.00000000 0.0000000e+0 -1.1102230e-15
vn -1.3877788e-16 -1.00000000 -1.5407440e-31
vn 0.0000000e+0 0.0000000e+0 1.00000000
vn -1.3877788e-16 -1.00000000 -1.5407440e-31
vn 1.00000000 0.0000000e+0 1.1102230e-15
g hinge_hinge_auv
usemtl hinge_auv
s 1
f 11/31/35 14/33/44 13/34/41 12/32/38
f 26/32/84 27/34/87 28/33/90 25/31/81
s 2
f 2/23/6 7/25/23 8/22/28 3/21/11
f 2/23/8 13/27/43 14/29/45 7/25/24
f 3/21/10 8/22/27 9/18/31 4/16/14
f 4/15/13 9/17/30 10/19/34 5/20/17
f 5/20/16 10/19/33 6/24/19 1/26/2
f 6/24/20 11/28/36 12/30/39 1/26/3
f 16/6/53 27/2/88 26/3/86 15/7/50
f 19/12/61 18/13/58 17/9/55 16/6/51 15/7/47
f 20/5/64 21/8/68 22/11/72 23/14/75 24/10/78
f 20/5/67 25/1/83 28/4/92 21/8/71
s 3
f 1/7/1 2/6/5 3/9/9 4/13/12 5/12/15
f 1/7/4 12/3/40 13/2/42 2/6/7
f 7/8/25 14/4/46 11/1/37 6/5/21
f 10/10/32 9/14/29 8/11/26 7/8/22 6/5/18
f 15/26/48 20/24/65 24/19/79 19/20/62
f 15/26/49 26/30/85 25/28/82 20/24/66
f 17/21/57 22/22/74 21/25/69 16/23/52
f 18/16/60 23/18/77 22/22/73 17/21/56
f 19/20/63 24/19/80 23/17/76 18/15/59
f 21/25/70 28/29/91 27/27/89 16/23/54
