# Exported from Wings 3D 1.5.4
mtllib octans_solar_srf_2_panel_3.mtl
o mesh
#8 vertices, 6 faces
v -0.50000000 -6.2500000e-3 -0.61875000
v -0.50000000 -6.2500000e-3 6.2500000e-3
v -0.50000000 6.2500000e-3 -0.61875000
v -0.50000000 6.2500000e-3 6.2500000e-3
v 0.50000000 -6.2500000e-3 -0.61875000
v 0.50000000 -6.2500000e-3 6.2500000e-3
v 0.50000000 6.2500000e-3 -0.61875000
v 0.50000000 6.2500000e-3 6.2500000e-3
vt 3.9301598e-2 0.43807161
vt 3.9301598e-2 4.9823746e-2
vt 0.28119002 0.43807161
vt 0.28119002 4.9823746e-2
vt 0.30070922 4.9823746e-2
vt 0.30070922 0.43807161
vt 0.38968988 0.74867132
vt 0.38968988 0.75837752
vt 0.38968988 0.71938963
vt 0.38968988 0.72909583
vt 0.38968988 0.75837752
vt 0.38968988 0.74867132
vt 0.53528283 0.71938963
vt 0.53528283 0.72909583
vt 0.53528283 0.71938963
vt 0.53528283 0.72909583
vt 0.54259765 0.43807161
vt 0.54259765 4.9823746e-2
vt 0.77793774 0.74867132
vt 0.77793774 0.74867132
vt 0.77793774 0.75837752
vt 0.77793774 0.75837752
vn 0.0000000e+0 -1.00000000 0.0000000e+0
vn 0.0000000e+0 0.0000000e+0 -1.00000000
vn -1.00000000 0.0000000e+0 0.0000000e+0
vn 0.0000000e+0 -1.00000000 0.0000000e+0
vn 0.0000000e+0 0.0000000e+0 1.00000000
vn -1.00000000 0.0000000e+0 0.0000000e+0
vn 0.0000000e+0 1.00000000 0.0000000e+0
vn 0.0000000e+0 0.0000000e+0 -1.00000000
vn -1.00000000 0.0000000e+0 0.0000000e+0
vn 0.0000000e+0 1.00000000 0.0000000e+0
vn 0.0000000e+0 0.0000000e+0 1.00000000
vn -1.00000000 0.0000000e+0 0.0000000e+0
vn 0.0000000e+0 -1.00000000 0.0000000e+0
vn 0.0000000e+0 0.0000000e+0 -1.00000000
vn 1.00000000 0.0000000e+0 0.0000000e+0
vn 0.0000000e+0 -1.00000000 0.0000000e+0
vn 0.0000000e+0 0.0000000e+0 1.00000000
vn 1.00000000 0.0000000e+0 0.0000000e+0
vn 0.0000000e+0 1.00000000 0.0000000e+0
vn 0.0000000e+0 0.0000000e+0 -1.00000000
vn 1.00000000 0.0000000e+0 0.0000000e+0
vn 0.0000000e+0 1.00000000 0.0000000e+0
vn 0.0000000e+0 0.0000000e+0 1.00000000
vn 1.00000000 0.0000000e+0 0.0000000e+0
g mesh_mesh_auv
usemtl mesh_auv
s 1
f 2/15/6 4/16/12 3/10/9 1/9/3
f 5/13/15 7/14/21 8/10/24 6/9/18
s 2
f 2/19/5 6/7/17 8/8/23 4/21/11
f 3/22/8 7/11/20 5/12/14 1/20/2
s 3
f 1/5/1 5/6/13 6/17/16 2/18/4
f 4/4/10 8/3/22 7/1/19 3/2/7
