# Exported from Wings 3D 1.5.4
mtllib octans_solar_srf_2_base.mtl
o hinge
#60 vertices, 42 faces
v -0.50000000 1.2500000e-2 -7.5000000e-2
v -0.50000000 -1.2500000e-2 -7.5000000e-2
v -0.50000000 -8.8388348e-3 -8.3838835e-2
v -0.50000000 3.3510606e-17 -8.7500000e-2
v -0.50000000 8.8388348e-3 -8.3838835e-2
v -0.51250000 1.2500000e-2 -7.5000000e-2
v -0.51250000 -1.2500000e-2 -7.5000000e-2
v -0.51250000 -8.8388348e-3 -8.3838835e-2
v -0.51250000 3.1979797e-17 -8.7500000e-2
v -0.51250000 8.8388348e-3 -8.3838835e-2
v -0.51250000 1.2500000e-2 2.5000000e-2
v -0.50000000 1.2500000e-2 2.5000000e-2
v -0.50000000 -1.2500000e-2 2.5000000e-2
v -0.51250000 -1.2500000e-2 2.5000000e-2
v 0.50000000 1.2500000e-2 -7.5000000e-2
v 0.50000000 -1.2500000e-2 -7.5000000e-2
v 0.50000000 -8.8388348e-3 -8.3838835e-2
v 0.50000000 3.3510606e-17 -8.7500000e-2
v 0.50000000 8.8388348e-3 -8.3838835e-2
v 0.51250000 1.2500000e-2 -7.5000000e-2
v 0.51250000 -1.2500000e-2 -7.5000000e-2
v 0.51250000 -8.8388348e-3 -8.3838835e-2
v 0.51250000 3.1979797e-17 -8.7500000e-2
v 0.51250000 8.8388348e-3 -8.3838835e-2
v 0.51250000 1.2500000e-2 2.5000000e-2
v 0.50000000 1.2500000e-2 2.5000000e-2
v 0.50000000 -1.2500000e-2 2.5000000e-2
v 0.51250000 -1.2500000e-2 2.5000000e-2
v -0.42500000 1.2500000e-2 -7.5000000e-2
v -0.42500000 8.8388348e-3 -6.6161165e-2
v -0.42500000 3.6572223e-17 -6.2500000e-2
v -0.42500000 -8.8388348e-3 -6.6161165e-2
v -0.42500000 -1.2500000e-2 -7.5000000e-2
v -0.42500000 -8.8388348e-3 -8.3838835e-2
v -0.42500000 3.3510606e-17 -8.7500000e-2
v -0.42500000 8.8388348e-3 -8.3838835e-2
v -0.47500000 1.2500000e-2 -7.5000000e-2
v -0.47500000 8.8388348e-3 -6.6161165e-2
v -0.47500000 3.5041414e-17 -6.2500000e-2
v -0.47500000 -8.8388348e-3 -6.6161165e-2
v -0.47500000 -1.2500000e-2 -7.5000000e-2
v -0.47500000 -8.8388348e-3 -8.3838835e-2
v -0.47500000 3.1979797e-17 -8.7500000e-2
v -0.47500000 8.8388348e-3 -8.3838835e-2
v 0.42500000 1.2500000e-2 -7.5000000e-2
v 0.42500000 8.8388348e-3 -6.6161165e-2
v 0.42500000 3.6572223e-17 -6.2500000e-2
v 0.42500000 -8.8388348e-3 -6.6161165e-2
v 0.42500000 -1.2500000e-2 -7.5000000e-2
v 0.42500000 -8.8388348e-3 -8.3838835e-2
v 0.42500000 3.3510606e-17 -8.7500000e-2
v 0.42500000 8.8388348e-3 -8.3838835e-2
v 0.47500000 1.2500000e-2 -7.5000000e-2
v 0.47500000 8.8388348e-3 -6.6161165e-2
v 0.47500000 3.5041414e-17 -6.2500000e-2
v 0.47500000 -8.8388348e-3 -6.6161165e-2
v 0.47500000 -1.2500000e-2 -7.5000000e-2
v 0.47500000 -8.8388348e-3 -8.3838835e-2
v 0.47500000 3.1979797e-17 -8.7500000e-2
v 0.47500000 8.8388348e-3 -8.3838835e-2
vt 0.57903902 0.28461277
vt 0.57903902 0.28461277
vt 0.57989735 0.33708678
vt 0.57989735 0.33708678
vt 0.57989735 0.35198060
vt 0.57989735 0.35198060
vt 0.58153276 0.27859235
vt 0.58153276 0.29063320
vt 0.58153276 0.27859235
vt 0.58153276 0.29063320
vt 0.58755319 0.27609861
vt 0.58755319 0.29312694
vt 0.58755319 0.27609861
vt 0.58755319 0.29312694
vt 0.59357361 0.27859235
vt 0.59357361 0.29063320
vt 0.59357361 0.27859235
vt 0.59357361 0.29063320
vt 0.59606735 0.28461277
vt 0.59606735 0.28461277
vt 0.63415850 0.27157986
vt 0.63415850 0.27809631
vt 0.63415850 0.28461277
vt 0.63415850 0.29112923
vt 0.63415850 0.29764569
vt 0.63415850 0.27157986
vt 0.63415850 0.27809631
vt 0.63415850 0.28461277
vt 0.63415850 0.29112923
vt 0.63415850 0.29764569
vt 0.63415850 0.27157986
vt 0.63415850 0.27809631
vt 0.63415850 0.28461277
vt 0.63415850 0.29112923
vt 0.63415850 0.29764569
vt 0.63415850 0.27157986
vt 0.63415850 0.27809631
vt 0.63415850 0.28461277
vt 0.63415850 0.29112923
vt 0.63415850 0.29764569
vt 0.63947261 0.33708678
vt 0.63947261 0.33708678
vt 0.63947261 0.35198060
vt 0.63947261 0.35198060
vt 0.64473837 0.33926793
vt 0.64473837 0.33926793
vt 0.64473837 0.34979945
vt 0.64473837 0.34979945
vt 0.64691952 0.34453369
vt 0.64691952 0.34453369
vt 0.66821516 0.27157986
vt 0.66821516 0.27809631
vt 0.66821516 0.28461277
vt 0.66821516 0.29112923
vt 0.66821516 0.29764569
vt 0.66821516 0.27157986
vt 0.66821516 0.27809631
vt 0.66821516 0.28461277
vt 0.66821516 0.29112923
vt 0.66821516 0.29764569
vt 0.66821516 0.27157986
vt 0.66821516 0.27809631
vt 0.66821516 0.28461277
vt 0.66821516 0.29112923
vt 0.66821516 0.29764569
vt 0.66821516 0.27157986
vt 0.66821516 0.27809631
vt 0.66821516 0.28461277
vt 0.66821516 0.29112923
vt 0.66821516 0.29764569
vt 0.68519677 0.35207691
vt 0.68519677 0.33718309
vt 0.68519677 0.33718309
vt 0.68519677 0.35207691
vt 0.69089638 0.33718309
vt 0.69089638 0.35207691
vt 0.69089638 0.33718309
vt 0.69089638 0.35207691
vt 0.69659600 0.33718309
vt 0.69659600 0.33718309
vt 0.69659600 0.35207691
vt 0.69659600 0.35207691
vt 0.75617126 0.33718309
vt 0.75617126 0.33718309
vt 0.75617126 0.35207691
vt 0.75617126 0.35207691
vt 0.75625791 0.33718309
vt 0.75625791 0.35207691
vt 0.77115173 0.33718309
vt 0.77115173 0.35207691
vn 1.00000000 0.0000000e+0 -5.5511151e-16
vn -5.7773233e-17 0.98078528 -0.19509032
vn -5.7773233e-17 0.98078528 -0.19509032
vn 1.00000000 0.0000000e+0 -5.5511151e-16
vn 1.00000000 0.0000000e+0 -5.5511151e-16
vn 1.4296489e-16 -0.98078528 -0.19509032
vn 1.00000000 0.0000000e+0 -5.5511151e-16
vn 1.4296489e-16 -0.98078528 -0.19509032
vn 1.00000000 0.0000000e+0 0.0000000e+0
vn 1.0733054e-16 -0.70710678 -0.70710678
vn 1.0733054e-16 -0.70710678 -0.70710678
vn 1.00000000 0.0000000e+0 0.0000000e+0
vn -1.5332934e-17 -9.0127256e-17 -1.00000000
vn -1.5332934e-17 -9.0127256e-17 -1.00000000
vn 1.00000000 0.0000000e+0 0.0000000e+0
vn -1.0733054e-16 0.70710678 -0.70710678
vn -1.0733054e-16 0.70710678 -0.70710678
vn -1.00000000 0.0000000e+0 5.5511151e-16
vn -5.7773233e-17 0.98078528 -0.19509032
vn -5.7773233e-17 0.98078528 -0.19509032
vn -1.00000000 0.0000000e+0 5.5511151e-16
vn -1.00000000 0.0000000e+0 5.5511151e-16
vn 1.4296489e-16 -0.98078528 -0.19509032
vn 1.4296489e-16 -0.98078528 -0.19509032
vn -1.00000000 0.0000000e+0 5.5511151e-16
vn -1.00000000 0.0000000e+0 0.0000000e+0
vn 1.0733054e-16 -0.70710678 -0.70710678
vn 1.0733054e-16 -0.70710678 -0.70710678
vn -1.00000000 0.0000000e+0 0.0000000e+0
vn -1.5332934e-17 -9.0127256e-17 -1.00000000
vn -1.5332934e-17 -9.0127256e-17 -1.00000000
vn -1.00000000 0.0000000e+0 0.0000000e+0
vn -1.0733054e-16 0.70710678 -0.70710678
vn -1.0733054e-16 0.70710678 -0.70710678
vn 0.0000000e+0 0.0000000e+0 1.00000000
vn 0.0000000e+0 1.00000000 0.0000000e+0
vn -1.00000000 0.0000000e+0 1.1102230e-15
vn 0.0000000e+0 0.0000000e+0 1.00000000
vn 0.0000000e+0 1.00000000 0.0000000e+0
vn 1.00000000 0.0000000e+0 -1.1102230e-15
vn 0.0000000e+0 0.0000000e+0 1.00000000
vn 1.00000000 0.0000000e+0 -1.1102230e-15
vn 1.3877788e-16 -1.00000000 -1.5407440e-31
vn 0.0000000e+0 0.0000000e+0 1.00000000
vn 1.3877788e-16 -1.00000000 -1.5407440e-31
vn -1.00000000 0.0000000e+0 1.1102230e-15
vn -1.00000000 0.0000000e+0 -5.5511151e-16
vn 5.7773233e-17 0.98078528 -0.19509032
vn 5.7773233e-17 0.98078528 -0.19509032
vn -1.00000000 0.0000000e+0 -5.5511151e-16
vn -1.00000000 0.0000000e+0 -5.5511151e-16
vn -1.4296489e-16 -0.98078528 -0.19509032
vn -1.00000000 0.0000000e+0 -5.5511151e-16
vn -1.4296489e-16 -0.98078528 -0.19509032
vn -1.00000000 0.0000000e+0 0.0000000e+0
vn -1.0733054e-16 -0.70710678 -0.70710678
vn -1.0733054e-16 -0.70710678 -0.70710678
vn -1.00000000 0.0000000e+0 0.0000000e+0
vn 1.5332934e-17 -9.0127256e-17 -1.00000000
vn 1.5332934e-17 -9.0127256e-17 -1.00000000
vn -1.00000000 0.0000000e+0 0.0000000e+0
vn 1.0733054e-16 0.70710678 -0.70710678
vn 1.0733054e-16 0.70710678 -0.70710678
vn 1.00000000 0.0000000e+0 5.5511151e-16
vn 5.7773233e-17 0.98078528 -0.19509032
vn 5.7773233e-17 0.98078528 -0.19509032
vn 1.00000000 0.0000000e+0 5.5511151e-16
vn 1.00000000 0.0000000e+0 5.5511151e-16
vn -1.4296489e-16 -0.98078528 -0.19509032
vn -1.4296489e-16 -0.98078528 -0.19509032
vn 1.00000000 0.0000000e+0 5.5511151e-16
vn 1.00000000 0.0000000e+0 0.0000000e+0
vn -1.0733054e-16 -0.70710678 -0.70710678
vn -1.0733054e-16 -0.70710678 -0.70710678
vn 1.00000000 0.0000000e+0 0.0000000e+0
vn 1.5332934e-17 -9.0127256e-17 -1.00000000
vn 1.5332934e-17 -9.0127256e-17 -1.00000000
vn 1.00000000 0.0000000e+0 0.0000000e+0
vn 1.0733054e-16 0.70710678 -0.70710678
vn 1.0733054e-16 0.70710678 -0.70710678
vn 0.0000000e+0 0.0000000e+0 1.00000000
vn 0.0000000e+0 1.00000000 0.0000000e+0
vn 1.00000000 0.0000000e+0 1.1102230e-15
vn 0.0000000e+0 0.0000000e+0 1.00000000
vn 0.0000000e+0 1.00000000 0.0000000e+0
vn -1.00000000 0.0000000e+0 -1.1102230e-15
vn 0.0000000e+0 0.0000000e+0 1.00000000
vn -1.00000000 0.0000000e+0 -1.1102230e-15
vn -1.3877788e-16 -1.00000000 -1.5407440e-31
vn 0.0000000e+0 0.0000000e+0 1.00000000
vn -1.3877788e-16 -1.00000000 -1.5407440e-31
vn 1.00000000 0.0000000e+0 1.1102230e-15
vn 1.00000000 -1.9626156e-15 0.0000000e+0
vn -2.2999401e-17 1.00000000 -1.2016967e-16
vn -2.2999401e-17 1.00000000 -1.2016967e-16
vn 1.00000000 -1.9626156e-15 0.0000000e+0
vn -1.5332934e-17 0.70710678 0.70710678
vn -1.5332934e-17 0.70710678 0.70710678
vn 1.00000000 -1.9626156e-15 0.0000000e+0
vn 3.8332335e-18 -3.0042419e-17 1.00000000
vn 3.8332335e-18 -3.0042419e-17 1.00000000
vn 1.00000000 -1.9626156e-15 0.0000000e+0
vn 3.4499102e-17 -0.70710678 0.70710678
vn 3.4499102e-17 -0.70710678 0.70710678
vn 1.00000000 -1.9626156e-15 0.0000000e+0
vn 4.2165569e-17 -1.00000000 1.2016967e-16
vn 4.2165569e-17 -1.00000000 1.2016967e-16
vn 1.00000000 -1.9626156e-15 0.0000000e+0
vn 2.6832635e-17 -0.70710678 -0.70710678
vn 2.6832635e-17 -0.70710678 -0.70710678
vn 1.00000000 -1.9626156e-15 0.0000000e+0
vn -3.8332335e-18 -9.0127256e-17 -1.00000000
vn -3.8332335e-18 -9.0127256e-17 -1.00000000
vn 1.00000000 -1.9626156e-15 0.0000000e+0
vn -2.6832635e-17 0.70710678 -0.70710678
vn -2.6832635e-17 0.70710678 -0.70710678
vn -1.00000000 0.0000000e+0 0.0000000e+0
vn -2.2999401e-17 1.00000000 -1.2016967e-16
vn -2.2999401e-17 1.00000000 -1.2016967e-16
vn -1.00000000 0.0000000e+0 0.0000000e+0
vn -1.5332934e-17 0.70710678 0.70710678
vn -1.5332934e-17 0.70710678 0.70710678
vn -1.00000000 0.0000000e+0 0.0000000e+0
vn 3.8332335e-18 -3.0042419e-17 1.00000000
vn 3.8332335e-18 -3.0042419e-17 1.00000000
vn -1.00000000 0.0000000e+0 0.0000000e+0
vn 3.4499102e-17 -0.70710678 0.70710678
vn 3.4499102e-17 -0.70710678 0.70710678
vn -1.00000000 0.0000000e+0 0.0000000e+0
vn 4.2165569e-17 -1.00000000 1.2016967e-16
vn 4.2165569e-17 -1.00000000 1.2016967e-16
vn -1.00000000 0.0000000e+0 0.0000000e+0
vn 2.6832635e-17 -0.70710678 -0.70710678
vn 2.6832635e-17 -0.70710678 -0.70710678
vn -1.00000000 0.0000000e+0 0.0000000e+0
vn -3.8332335e-18 -9.0127256e-17 -1.00000000
vn -3.8332335e-18 -9.0127256e-17 -1.00000000
vn -1.00000000 0.0000000e+0 0.0000000e+0
vn -2.6832635e-17 0.70710678 -0.70710678
vn -2.6832635e-17 0.70710678 -0.70710678
vn -1.00000000 0.0000000e+0 0.0000000e+0
vn 2.2999401e-17 1.00000000 -1.2016967e-16
vn 2.2999401e-17 1.00000000 -1.2016967e-16
vn -1.00000000 0.0000000e+0 0.0000000e+0
vn 1.5332934e-17 0.70710678 0.70710678
vn 1.5332934e-17 0.70710678 0.70710678
vn -1.00000000 0.0000000e+0 0.0000000e+0
vn -3.8332335e-18 -3.0042419e-17 1.00000000
vn -3.8332335e-18 -3.0042419e-17 1.00000000
vn -1.00000000 0.0000000e+0 0.0000000e+0
vn -3.4499102e-17 -0.70710678 0.70710678
vn -3.4499102e-17 -0.70710678 0.70710678
vn -1.00000000 0.0000000e+0 0.0000000e+0
vn -4.2165569e-17 -1.00000000 1.2016967e-16
vn -4.2165569e-17 -1.00000000 1.2016967e-16
vn -1.00000000 0.0000000e+0 0.0000000e+0
vn -2.6832635e-17 -0.70710678 -0.70710678
vn -2.6832635e-17 -0.70710678 -0.70710678
vn -1.00000000 0.0000000e+0 0.0000000e+0
vn 3.8332335e-18 -9.0127256e-17 -1.00000000
vn 3.8332335e-18 -9.0127256e-17 -1.00000000
vn -1.00000000 0.0000000e+0 0.0000000e+0
vn 2.6832635e-17 0.70710678 -0.70710678
vn 2.6832635e-17 0.70710678 -0.70710678
vn 1.00000000 -3.9252311e-15 0.0000000e+0
vn 2.2999401e-17 1.00000000 -1.2016967e-16
vn 2.2999401e-17 1.00000000 -1.2016967e-16
vn 1.00000000 -3.9252311e-15 0.0000000e+0
vn 1.5332934e-17 0.70710678 0.70710678
vn 1.5332934e-17 0.70710678 0.70710678
vn 1.00000000 -3.9252311e-15 0.0000000e+0
vn -3.8332335e-18 -3.0042419e-17 1.00000000
vn -3.8332335e-18 -3.0042419e-17 1.00000000
vn 1.00000000 -3.9252311e-15 0.0000000e+0
vn -3.4499102e-17 -0.70710678 0.70710678
vn -3.4499102e-17 -0.70710678 0.70710678
vn 1.00000000 -3.9252311e-15 0.0000000e+0
vn -4.2165569e-17 -1.00000000 1.2016967e-16
vn -4.2165569e-17 -1.00000000 1.2016967e-16
vn 1.00000000 -3.9252311e-15 0.0000000e+0
vn -2.6832635e-17 -0.70710678 -0.70710678
vn -2.6832635e-17 -0.70710678 -0.70710678
vn 1.00000000 -3.9252311e-15 0.0000000e+0
vn 3.8332335e-18 -9.0127256e-17 -1.00000000
vn 3.8332335e-18 -9.0127256e-17 -1.00000000
vn 1.00000000 -3.9252311e-15 0.0000000e+0
vn 2.6832635e-17 0.70710678 -0.70710678
vn 2.6832635e-17 0.70710678 -0.70710678
g hinge_hinge_auv
usemtl hinge_auv
s 1
f 11/87/35 14/89/44 13/90/41 12/88/38
f 26/88/84 27/90/87 28/89/90 25/87/81
f 30/10/96 31/2/99 32/9/102 33/13/105 34/17/108 35/20/111 36/18/114 29/14/93
f 37/14/117 44/10/138 43/2/135 42/9/132 41/13/129 40/17/126 39/20/123 38/18/120
f 45/12/141 52/8/162 51/1/159 50/7/156 49/11/153 48/15/150 47/19/147 46/16/144
f 54/10/168 55/2/171 56/9/174 57/13/177 58/17/180 59/20/183 60/18/186 53/14/165
s 2
f 2/79/6 7/81/23 8/78/28 3/77/11
f 2/79/8 13/83/43 14/85/45 7/81/24
f 3/77/10 8/78/27 9/74/31 4/72/14
f 4/71/13 9/73/30 10/75/34 5/76/17
f 5/76/16 10/75/33 6/80/19 1/82/2
f 6/80/20 11/84/36 12/86/39 1/82/3
f 16/42/53 27/4/88 26/5/86 15/43/50
f 19/48/61 18/49/58 17/45/55 16/42/51 15/43/47
f 20/41/64 21/44/68 22/47/72 23/50/75 24/46/78
f 20/41/67 25/3/83 28/6/92 21/44/71
f 29/53/95 37/23/119 38/22/122 30/52/98
f 30/52/97 38/22/121 39/21/125 31/51/101
f 31/70/100 39/40/124 40/39/128 32/69/104
f 32/69/103 40/39/127 41/38/131 33/68/107
f 33/68/106 41/38/130 42/37/134 34/67/110
f 34/67/109 42/37/133 43/36/137 35/66/113
f 35/55/112 43/25/136 44/24/140 36/54/116
f 36/54/115 44/24/139 37/23/118 29/53/94
f 45/28/142 53/58/166 60/59/187 52/29/163
f 46/27/146 54/57/170 53/58/167 45/28/143
f 47/26/149 55/56/173 54/57/169 46/27/145
f 48/34/152 56/64/176 55/65/172 47/35/148
f 49/33/155 57/63/179 56/64/175 48/34/151
f 50/32/158 58/62/182 57/63/178 49/33/154
f 51/31/161 59/61/185 58/62/181 50/32/157
f 52/29/164 60/59/188 59/60/184 51/30/160
s 3
f 1/43/1 2/42/5 3/45/9 4/49/12 5/48/15
f 1/43/4 12/5/40 13/4/42 2/42/7
f 7/44/25 14/6/46 11/3/37 6/41/21
f 10/46/32 9/50/29 8/47/26 7/44/22 6/41/18
f 15/82/48 20/80/65 24/75/79 19/76/62
f 15/82/49 26/86/85 25/84/82 20/80/66
f 17/77/57 22/78/74 21/81/69 16/79/52
f 18/72/60 23/74/77 22/78/73 17/77/56
f 19/76/63 24/75/80 23/73/76 18/71/59
f 21/81/70 28/85/91 27/83/89 16/79/54
