# Exported from Wings 3D 1.5.4
mtllib octans_solar_basic_srf_1_panel_2.mtl
o mesh
#12 vertices, 10 faces
v -0.50000000 -6.2500000e-3 -0.49375000
v -0.50000000 -6.2500000e-3 6.2500000e-3
v -0.50000000 6.2500000e-3 -0.49375000
v -0.50000000 6.2500000e-3 6.2500000e-3
v 0.50000000 -6.2500000e-3 -0.49375000
v 0.50000000 -6.2500000e-3 6.2500000e-3
v 0.50000000 6.2500000e-3 -0.49375000
v 0.50000000 6.2500000e-3 6.2500000e-3
v 0.50000000 -4.3750000e-2 -0.24375000
v 0.50000000 -5.6250000e-2 -0.24375000
v -0.50000000 -4.3750000e-2 -0.24375000
v -0.50000000 -5.6250000e-2 -0.24375000
vt 3.7970499e-2 0.73716926
vt 3.7970499e-2 0.74697209
vt 3.7970499e-2 0.74697209
vt 3.7970499e-2 0.73716926
vt 0.42633500 0.73716926
vt 0.42633500 0.74697209
vt 0.42633500 0.73716926
vt 0.42633500 0.74697209
vt 0.44121521 0.45386300
vt 0.44121521 0.25613920
vt 0.44121521 0.35438024
vt 0.44121521 0.45386300
vt 0.44121521 0.25613920
vt 0.45101804 0.45386300
vt 0.45101804 0.25613920
vt 0.45101804 0.35438024
vt 0.45101804 0.45386300
vt 0.45101804 0.25613920
vt 0.46588016 0.23676946
vt 0.46588016 0.35431675
vt 0.46588016 3.8385732e-2
vt 0.46588016 0.13757760
vt 0.46588016 0.25554161
vt 0.46588016 0.45392533
vt 0.85494266 3.8385732e-2
vt 0.85494266 0.13757760
vt 0.85494266 0.23676946
vt 0.85494266 0.25554161
vt 0.85494266 0.35431675
vt 0.85494266 0.45392533
vn 0.0000000e+0 -0.98058068 -0.19611614
vn 0.0000000e+0 0.0000000e+0 -1.00000000
vn -1.00000000 0.0000000e+0 0.0000000e+0
vn 0.0000000e+0 0.0000000e+0 1.00000000
vn -1.00000000 0.0000000e+0 0.0000000e+0
vn 0.0000000e+0 -0.98058068 0.19611614
vn 0.0000000e+0 0.0000000e+0 -1.00000000
vn 0.0000000e+0 0.98058068 0.19611614
vn -1.00000000 0.0000000e+0 0.0000000e+0
vn 0.0000000e+0 0.98058068 -0.19611614
vn 0.0000000e+0 0.0000000e+0 1.00000000
vn -1.00000000 0.0000000e+0 0.0000000e+0
vn 0.0000000e+0 -0.98058068 -0.19611614
vn 0.0000000e+0 0.0000000e+0 -1.00000000
vn 1.00000000 0.0000000e+0 0.0000000e+0
vn 0.0000000e+0 0.0000000e+0 1.00000000
vn 0.0000000e+0 -0.98058068 0.19611614
vn 1.00000000 0.0000000e+0 0.0000000e+0
vn 0.0000000e+0 0.0000000e+0 -1.00000000
vn 1.00000000 0.0000000e+0 0.0000000e+0
vn 0.0000000e+0 0.98058068 0.19611614
vn 0.0000000e+0 0.98058068 -0.19611614
vn 0.0000000e+0 0.0000000e+0 1.00000000
vn 1.00000000 0.0000000e+0 0.0000000e+0
vn 0.0000000e+0 0.98058068 -0.19611614
vn 1.00000000 0.0000000e+0 0.0000000e+0
vn 0.0000000e+0 0.98058068 0.19611614
vn 1.00000000 0.0000000e+0 0.0000000e+0
vn 0.0000000e+0 -0.98058068 -0.19611614
vn 1.00000000 0.0000000e+0 0.0000000e+0
vn 0.0000000e+0 -0.98058068 0.19611614
vn 1.00000000 0.0000000e+0 0.0000000e+0
vn 0.0000000e+0 0.98058068 -0.19611614
vn -1.00000000 0.0000000e+0 0.0000000e+0
vn 0.0000000e+0 0.98058068 0.19611614
vn -1.00000000 0.0000000e+0 0.0000000e+0
vn 0.0000000e+0 -0.98058068 -0.19611614
vn -1.00000000 0.0000000e+0 0.0000000e+0
vn 0.0000000e+0 -0.98058068 0.19611614
vn -1.00000000 0.0000000e+0 0.0000000e+0
g mesh_mesh_auv
usemtl mesh_auv
s 1
f 1/27/1 5/19/13 10/22/29 12/26/37
f 2/1/4 6/7/16 8/8/23 4/3/11
f 11/20/35 9/29/27 7/30/21 3/24/8
s 2
f 2/25/6 12/26/39 10/22/31 6/21/17
f 3/6/7 7/2/19 5/4/14 1/5/2
f 8/28/22 9/29/25 11/20/33 4/23/10
s 3
f 4/12/12 11/11/34 12/16/38 2/17/5
f 5/14/15 7/9/20 9/11/26 10/16/30
f 6/18/18 10/16/32 9/11/28 8/13/24
f 12/16/40 11/11/36 3/10/9 1/15/3
