# Exported from Wings 3D 1.5.4
mtllib octans_solar_basic_srf_1_panel_1.mtl
o mesh
#12 vertices, 10 faces
v -0.50000000 -6.2500000e-3 -0.49375000
v -0.50000000 -6.2500000e-3 6.2500000e-3
v -0.50000000 6.2500000e-3 -0.49375000
v -0.50000000 6.2500000e-3 6.2500000e-3
v 0.50000000 -6.2500000e-3 -0.49375000
v 0.50000000 -6.2500000e-3 6.2500000e-3
v 0.50000000 6.2500000e-3 -0.49375000
v 0.50000000 6.2500000e-3 6.2500000e-3
v 0.50000000 5.6250000e-2 -0.24375000
v 0.50000000 4.3750000e-2 -0.24375000
v -0.50000000 5.6250000e-2 -0.24375000
v -0.50000000 4.3750000e-2 -0.24375000
vt 3.7500000e-2 0.23663346
vt 3.7500000e-2 0.35459747
vt 3.7500000e-2 3.8249734e-2
vt 3.7500000e-2 0.13744160
vt 3.7500000e-2 0.25540561
vt 3.7500000e-2 0.45378934
vt 3.7970499e-2 0.73716926
vt 3.7970499e-2 0.74697209
vt 3.7970499e-2 0.74697209
vt 3.7970499e-2 0.73716926
vt 0.42633500 0.73716926
vt 0.42633500 0.74697209
vt 0.42633500 0.73716926
vt 0.42633500 0.74697209
vt 0.42656250 3.8249734e-2
vt 0.42656250 0.13744160
vt 0.42656250 0.23663346
vt 0.42656250 0.25540561
vt 0.42656250 0.35459747
vt 0.42656250 0.45378934
vt 0.44123453 0.45392253
vt 0.44123453 0.25533508
vt 0.44123453 0.35431075
vt 0.44123453 0.45392253
vt 0.44123453 0.25533508
vt 0.45103736 0.45392253
vt 0.45103736 0.25533508
vt 0.45103736 0.35431075
vt 0.45103736 0.45392253
vt 0.45103736 0.25533508
vn 0.0000000e+0 -0.98058068 0.19611614
vn 0.0000000e+0 0.0000000e+0 -1.00000000
vn -1.00000000 0.0000000e+0 0.0000000e+0
vn 0.0000000e+0 0.0000000e+0 1.00000000
vn -1.00000000 0.0000000e+0 0.0000000e+0
vn 0.0000000e+0 -0.98058068 -0.19611614
vn 0.0000000e+0 0.0000000e+0 -1.00000000
vn 0.0000000e+0 0.98058068 -0.19611614
vn -1.00000000 0.0000000e+0 0.0000000e+0
vn 0.0000000e+0 0.98058068 0.19611614
vn 0.0000000e+0 0.0000000e+0 1.00000000
vn -1.00000000 0.0000000e+0 0.0000000e+0
vn 0.0000000e+0 -0.98058068 0.19611614
vn 0.0000000e+0 0.0000000e+0 -1.00000000
vn 1.00000000 0.0000000e+0 0.0000000e+0
vn 0.0000000e+0 0.0000000e+0 1.00000000
vn 0.0000000e+0 -0.98058068 -0.19611614
vn 1.00000000 0.0000000e+0 0.0000000e+0
vn 0.0000000e+0 0.0000000e+0 -1.00000000
vn 1.00000000 0.0000000e+0 0.0000000e+0
vn 0.0000000e+0 0.98058068 -0.19611614
vn 0.0000000e+0 0.98058068 0.19611614
vn 0.0000000e+0 0.0000000e+0 1.00000000
vn 1.00000000 0.0000000e+0 0.0000000e+0
vn 0.0000000e+0 0.98058068 0.19611614
vn 1.00000000 0.0000000e+0 0.0000000e+0
vn 0.0000000e+0 0.98058068 -0.19611614
vn 1.00000000 0.0000000e+0 0.0000000e+0
vn 0.0000000e+0 -0.98058068 0.19611614
vn 1.00000000 0.0000000e+0 0.0000000e+0
vn 0.0000000e+0 -0.98058068 -0.19611614
vn 1.00000000 0.0000000e+0 0.0000000e+0
vn 0.0000000e+0 0.98058068 0.19611614
vn -1.00000000 0.0000000e+0 0.0000000e+0
vn 0.0000000e+0 0.98058068 -0.19611614
vn -1.00000000 0.0000000e+0 0.0000000e+0
vn 0.0000000e+0 -0.98058068 0.19611614
vn -1.00000000 0.0000000e+0 0.0000000e+0
vn 0.0000000e+0 -0.98058068 -0.19611614
vn -1.00000000 0.0000000e+0 0.0000000e+0
g mesh_mesh_auv
usemtl mesh_auv
s 1
f 1/17/1 5/1/13 10/4/29 12/16/37
f 2/7/4 6/13/16 8/14/23 4/9/11
f 11/2/35 9/19/27 7/20/21 3/6/8
s 2
f 2/15/6 12/16/39 10/4/31 6/3/17
f 3/12/7 7/8/19 5/10/14 1/11/2
f 8/18/22 9/19/25 11/2/33 4/5/10
s 3
f 4/24/12 11/23/34 12/28/38 2/29/5
f 5/26/15 7/21/20 9/23/26 10/28/30
f 6/30/18 10/28/32 9/23/28 8/25/24
f 12/28/40 11/23/36 3/22/9 1/27/3
