# Exported from Wings 3D 1.5.4
mtllib octans_solar_srf_1_hinge.mtl
o hinge
#40 vertices, 24 faces
v -0.41250000 6.2500000e-3 0.0000000e+0
v -0.41250000 4.4194174e-3 4.4194174e-3
v -0.41250000 3.5633346e-17 6.2500000e-3
v -0.41250000 -4.4194174e-3 4.4194174e-3
v -0.41250000 -6.2500000e-3 7.6540425e-19
v -0.40000000 6.2500000e-3 0.0000000e+0
v -0.40000000 4.4194174e-3 4.4194174e-3
v -0.40000000 3.4867942e-17 6.2500000e-3
v -0.40000000 -4.4194174e-3 4.4194174e-3
v -0.40000000 -6.2500000e-3 7.6540425e-19
v -0.41250000 6.2500000e-3 -2.5000000e-2
v -0.41250000 4.4194174e-3 -2.9419417e-2
v -0.41250000 3.5633346e-17 -3.1250000e-2
v -0.41250000 -4.4194174e-3 -2.9419417e-2
v -0.41250000 -6.2500000e-3 -2.5000000e-2
v -0.40000000 6.2500000e-3 -2.5000000e-2
v -0.40000000 4.4194174e-3 -2.9419417e-2
v -0.40000000 3.4867942e-17 -3.1250000e-2
v -0.40000000 -4.4194174e-3 -2.9419417e-2
v -0.40000000 -6.2500000e-3 -2.5000000e-2
v 0.41250000 6.2500000e-3 0.0000000e+0
v 0.41250000 4.4194174e-3 4.4194174e-3
v 0.41250000 3.5633346e-17 6.2500000e-3
v 0.41250000 -4.4194174e-3 4.4194174e-3
v 0.41250000 -6.2500000e-3 7.6540425e-19
v 0.40000000 6.2500000e-3 0.0000000e+0
v 0.40000000 4.4194174e-3 4.4194174e-3
v 0.40000000 3.4867942e-17 6.2500000e-3
v 0.40000000 -4.4194174e-3 4.4194174e-3
v 0.40000000 -6.2500000e-3 7.6540425e-19
v 0.41250000 6.2500000e-3 -2.5000000e-2
v 0.41250000 4.4194174e-3 -2.9419417e-2
v 0.41250000 3.5633346e-17 -3.1250000e-2
v 0.41250000 -4.4194174e-3 -2.9419417e-2
v 0.41250000 -6.2500000e-3 -2.5000000e-2
v 0.40000000 6.2500000e-3 -2.5000000e-2
v 0.40000000 4.4194174e-3 -2.9419417e-2
v 0.40000000 3.4867942e-17 -3.1250000e-2
v 0.40000000 -4.4194174e-3 -2.9419417e-2
v 0.40000000 -6.2500000e-3 -2.5000000e-2
vt 0.58074757 0.39885803
vt 0.58074757 0.39885803
vt 0.58074757 0.39885803
vt 0.58255675 0.39449029
vt 0.58255675 0.40322578
vt 0.58255675 0.40322578
vt 0.58255675 0.39449029
vt 0.58255675 0.40322578
vt 0.58692449 0.39268111
vt 0.58692449 0.40503496
vt 0.58692449 0.40503496
vt 0.58692449 0.39268111
vt 0.58692449 0.40503496
vt 0.60545526 0.39268111
vt 0.60545526 0.40503496
vt 0.60545526 0.40503496
vt 0.60545526 0.39268111
vt 0.60545526 0.40503496
vt 0.60982301 0.39449029
vt 0.60982301 0.40322578
vt 0.60982301 0.40322578
vt 0.60982301 0.39449029
vt 0.60982301 0.40322578
vt 0.61163219 0.39885803
vt 0.61163219 0.39885803
vt 0.61163219 0.39885803
vt 0.64931985 0.39268111
vt 0.64931985 0.39268111
vt 0.64931985 0.39268111
vt 0.64931985 0.40503496
vt 0.64931985 0.40503496
vt 0.64931985 0.39268111
vt 0.64931985 0.40503496
vt 0.65404746 0.39268111
vt 0.65404746 0.40503496
vt 0.65404746 0.39268111
vt 0.65404746 0.39268111
vt 0.65404746 0.40503496
vt 0.65404746 0.40503496
vt 0.65404746 0.39268111
vt 0.65404746 0.40503496
vt 0.65877507 0.39268111
vt 0.65877507 0.40503496
vt 0.65877507 0.39268111
vt 0.65877507 0.39268111
vt 0.65877507 0.40503496
vt 0.65877507 0.40503496
vt 0.65877507 0.39268111
vt 0.65877507 0.40503496
vt 0.67730584 0.39268111
vt 0.67730584 0.39268111
vt 0.67730584 0.39268111
vt 0.67730584 0.40503496
vt 0.67730584 0.40503496
vt 0.67730584 0.39268111
vt 0.67730584 0.40503496
vt 0.68203345 0.39268111
vt 0.68203345 0.39268111
vt 0.68203345 0.39268111
vt 0.68203345 0.40503496
vt 0.68203345 0.40503496
vt 0.68203345 0.39268111
vt 0.68203345 0.40503496
vt 0.68676107 0.39268111
vt 0.68676107 0.40503496
vt 0.68676107 0.39268111
vt 0.68676107 0.39268111
vt 0.68676107 0.40503496
vt 0.68676107 0.40503496
vt 0.68676107 0.39268111
vt 0.68676107 0.40503496
vn 2.1664962e-17 0.98078528 0.19509032
vn 2.1664962e-17 0.98078528 0.19509032
vn -1.00000000 -5.1264279e-16 0.0000000e+0
vn 3.8332335e-17 0.70710678 0.70710678
vn 3.8332335e-17 0.70710678 0.70710678
vn -1.00000000 -5.1264279e-16 0.0000000e+0
vn -7.6664671e-18 6.0084837e-17 1.00000000
vn -7.6664671e-18 6.0084837e-17 1.00000000
vn -1.00000000 -5.1264279e-16 0.0000000e+0
vn -7.6664671e-17 -0.70710678 0.70710678
vn -7.6664671e-17 -0.70710678 0.70710678
vn -1.00000000 -5.1264279e-16 0.0000000e+0
vn -8.5925753e-17 -0.98078528 0.19509032
vn -8.5925753e-17 -0.98078528 0.19509032
vn -1.00000000 -5.1264279e-16 0.0000000e+0
vn 2.1664962e-17 0.98078528 0.19509032
vn 2.1664962e-17 0.98078528 0.19509032
vn 1.00000000 2.5632140e-15 0.0000000e+0
vn 3.8332335e-17 0.70710678 0.70710678
vn 3.8332335e-17 0.70710678 0.70710678
vn 1.00000000 2.5632140e-15 0.0000000e+0
vn -7.6664671e-18 6.0084837e-17 1.00000000
vn -7.6664671e-18 6.0084837e-17 1.00000000
vn 1.00000000 2.5632140e-15 0.0000000e+0
vn -7.6664671e-17 -0.70710678 0.70710678
vn -7.6664671e-17 -0.70710678 0.70710678
vn 1.00000000 2.5632140e-15 0.0000000e+0
vn -8.5925753e-17 -0.98078528 0.19509032
vn -8.5925753e-17 -0.98078528 0.19509032
vn 1.00000000 2.5632140e-15 0.0000000e+0
vn 1.4443308e-17 0.98078528 -0.19509032
vn -1.00000000 -5.1264279e-16 0.0000000e+0
vn 1.4443308e-17 0.98078528 -0.19509032
vn -1.00000000 -5.1264279e-16 0.0000000e+0
vn 3.0665868e-17 0.70710678 -0.70710678
vn 3.0665868e-17 0.70710678 -0.70710678
vn -1.00000000 -5.1264279e-16 0.0000000e+0
vn -7.6664671e-18 -3.0042419e-17 -1.00000000
vn -7.6664671e-18 -3.0042419e-17 -1.00000000
vn -1.00000000 -5.1264279e-16 0.0000000e+0
vn -6.8998204e-17 -0.70710678 -0.70710678
vn -6.8998204e-17 -0.70710678 -0.70710678
vn -7.8704099e-17 -0.98078528 -0.19509032
vn -1.00000000 -5.1264279e-16 0.0000000e+0
vn -7.8704099e-17 -0.98078528 -0.19509032
vn 1.4443308e-17 0.98078528 -0.19509032
vn 1.00000000 2.5632140e-15 0.0000000e+0
vn 1.4443308e-17 0.98078528 -0.19509032
vn 1.00000000 2.5632140e-15 0.0000000e+0
vn 3.0665868e-17 0.70710678 -0.70710678
vn 3.0665868e-17 0.70710678 -0.70710678
vn 1.00000000 2.5632140e-15 0.0000000e+0
vn -7.6664671e-18 -3.0042419e-17 -1.00000000
vn -7.6664671e-18 -3.0042419e-17 -1.00000000
vn 1.00000000 2.5632140e-15 0.0000000e+0
vn -6.8998204e-17 -0.70710678 -0.70710678
vn -6.8998204e-17 -0.70710678 -0.70710678
vn -7.8704099e-17 -0.98078528 -0.19509032
vn 1.00000000 2.5632140e-15 0.0000000e+0
vn -7.8704099e-17 -0.98078528 -0.19509032
vn -2.1664962e-17 0.98078528 0.19509032
vn -2.1664962e-17 0.98078528 0.19509032
vn 1.00000000 -3.0758568e-15 0.0000000e+0
vn -3.8332335e-17 0.70710678 0.70710678
vn -3.8332335e-17 0.70710678 0.70710678
vn 1.00000000 -3.0758568e-15 0.0000000e+0
vn 7.6664671e-18 6.0084837e-17 1.00000000
vn 7.6664671e-18 6.0084837e-17 1.00000000
vn 1.00000000 -3.0758568e-15 0.0000000e+0
vn 7.6664671e-17 -0.70710678 0.70710678
vn 7.6664671e-17 -0.70710678 0.70710678
vn 1.00000000 -3.0758568e-15 0.0000000e+0
vn 8.5925753e-17 -0.98078528 0.19509032
vn 8.5925753e-17 -0.98078528 0.19509032
vn 1.00000000 -3.0758568e-15 0.0000000e+0
vn -2.1664962e-17 0.98078528 0.19509032
vn -2.1664962e-17 0.98078528 0.19509032
vn -1.00000000 1.5379284e-15 0.0000000e+0
vn -3.8332335e-17 0.70710678 0.70710678
vn -3.8332335e-17 0.70710678 0.70710678
vn -1.00000000 1.5379284e-15 0.0000000e+0
vn 7.6664671e-18 6.0084837e-17 1.00000000
vn 7.6664671e-18 6.0084837e-17 1.00000000
vn -1.00000000 1.5379284e-15 0.0000000e+0
vn 7.6664671e-17 -0.70710678 0.70710678
vn 7.6664671e-17 -0.70710678 0.70710678
vn -1.00000000 1.5379284e-15 0.0000000e+0
vn 8.5925753e-17 -0.98078528 0.19509032
vn 8.5925753e-17 -0.98078528 0.19509032
vn -1.00000000 1.5379284e-15 0.0000000e+0
vn -1.4443308e-17 0.98078528 -0.19509032
vn 1.00000000 -3.0758568e-15 0.0000000e+0
vn -1.4443308e-17 0.98078528 -0.19509032
vn 1.00000000 -3.0758568e-15 0.0000000e+0
vn -3.0665868e-17 0.70710678 -0.70710678
vn -3.0665868e-17 0.70710678 -0.70710678
vn 1.00000000 -3.0758568e-15 0.0000000e+0
vn 7.6664671e-18 -3.0042419e-17 -1.00000000
vn 7.6664671e-18 -3.0042419e-17 -1.00000000
vn 1.00000000 -3.0758568e-15 0.0000000e+0
vn 6.8998204e-17 -0.70710678 -0.70710678
vn 6.8998204e-17 -0.70710678 -0.70710678
vn 7.8704099e-17 -0.98078528 -0.19509032
vn 1.00000000 -3.0758568e-15 0.0000000e+0
vn 7.8704099e-17 -0.98078528 -0.19509032
vn -1.4443308e-17 0.98078528 -0.19509032
vn -1.00000000 1.5379284e-15 0.0000000e+0
vn -1.4443308e-17 0.98078528 -0.19509032
vn -1.00000000 1.5379284e-15 0.0000000e+0
vn -3.0665868e-17 0.70710678 -0.70710678
vn -3.0665868e-17 0.70710678 -0.70710678
vn -1.00000000 1.5379284e-15 0.0000000e+0
vn 7.6664671e-18 -3.0042419e-17 -1.00000000
vn 7.6664671e-18 -3.0042419e-17 -1.00000000
vn -1.00000000 1.5379284e-15 0.0000000e+0
vn 6.8998204e-17 -0.70710678 -0.70710678
vn 6.8998204e-17 -0.70710678 -0.70710678
vn 7.8704099e-17 -0.98078528 -0.19509032
vn -1.00000000 1.5379284e-15 0.0000000e+0
vn 7.8704099e-17 -0.98078528 -0.19509032
g hinge_hinge_auv
usemtl hinge_auv
s 1
f 1/15/3 11/10/32 12/5/34 13/1/37 14/4/40 15/9/44 5/14/15 4/19/12 3/24/9 2/20/6
f 7/8/21 8/3/24 9/7/27 10/12/30 20/17/59 19/22/55 18/26/52 17/23/49 16/18/47 6/13/18
f 22/8/66 23/3/69 24/7/72 25/12/75 35/17/104 34/22/100 33/26/97 32/23/94 31/18/92 21/13/63
f 26/16/78 36/11/107 37/6/109 38/2/112 39/4/115 40/9/119 30/14/90 29/19/87 28/25/84 27/21/81
s 2
f 2/57/5 7/60/20 6/53/16 1/50/1
f 3/66/8 8/69/23 7/60/19 2/57/4
f 4/61/11 9/59/26 8/67/22 3/68/7
f 5/54/13 10/52/28 9/59/25 4/61/10
f 5/54/14 15/47/43 20/45/58 10/52/29
f 6/53/17 16/46/46 11/44/31 1/50/2
f 11/44/33 16/46/48 17/38/51 12/36/36
f 12/36/35 17/38/50 18/30/54 13/27/39
f 13/31/38 18/29/53 19/37/57 14/39/42
f 14/39/41 19/37/56 20/45/60 15/47/45
f 21/56/61 26/55/76 27/62/80 22/63/65
f 21/56/62 31/49/91 36/48/106 26/55/77
f 22/63/64 27/62/79 28/70/83 23/71/68
f 23/64/67 28/65/82 29/61/86 24/58/71
f 24/58/70 29/61/85 30/54/88 25/51/73
f 30/54/89 40/43/118 35/42/103 25/51/74
f 32/41/96 37/40/111 36/48/108 31/49/93
f 33/33/99 38/32/114 37/40/110 32/41/95
f 34/34/102 39/35/117 38/31/113 33/28/98
f 35/42/105 40/43/120 39/35/116 34/34/101
