# Exported from Wings 3D 1.5.4
mtllib octans_solar_srf_1_panel_base.mtl
o mesh
#28 vertices, 18 faces
v -0.41250000 6.2500000e-3 2.5000000e-2
v -0.41250000 -6.2500000e-3 2.5000000e-2
v -0.40000000 6.2500000e-3 2.5000000e-2
v -0.40000000 -6.2500000e-3 2.5000000e-2
v -0.41250000 6.2500000e-3 -3.7500000e-2
v -0.41250000 4.4194174e-3 -4.1919417e-2
v -0.41250000 3.5633346e-17 -4.3750000e-2
v -0.41250000 -4.4194174e-3 -4.1919417e-2
v -0.41250000 -6.2500000e-3 -3.7500000e-2
v -0.40000000 6.2500000e-3 -3.7500000e-2
v -0.40000000 4.4194174e-3 -4.1919417e-2
v -0.40000000 3.4867942e-17 -4.3750000e-2
v -0.40000000 -4.4194174e-3 -4.1919417e-2
v -0.40000000 -6.2500000e-3 -3.7500000e-2
v 0.41250000 6.2500000e-3 2.5000000e-2
v 0.41250000 -6.2500000e-3 2.5000000e-2
v 0.40000000 6.2500000e-3 2.5000000e-2
v 0.40000000 -6.2500000e-3 2.5000000e-2
v 0.41250000 6.2500000e-3 -3.7500000e-2
v 0.41250000 4.4194174e-3 -4.1919417e-2
v 0.41250000 3.5633346e-17 -4.3750000e-2
v 0.41250000 -4.4194174e-3 -4.1919417e-2
v 0.41250000 -6.2500000e-3 -3.7500000e-2
v 0.40000000 6.2500000e-3 -3.7500000e-2
v 0.40000000 4.4194174e-3 -4.1919417e-2
v 0.40000000 3.4867942e-17 -4.3750000e-2
v 0.40000000 -4.4194174e-3 -4.1919417e-2
v 0.40000000 -6.2500000e-3 -3.7500000e-2
vt 0.66183932 0.44409007
vt 0.66183932 0.45402074
vt 0.66183932 0.44409007
vt 0.66183932 0.44409007
vt 0.66183932 0.45402074
vt 0.71149266 0.44409007
vt 0.71149266 0.45402074
vt 0.71149266 0.44409007
vt 0.71149266 0.44409007
vt 0.71149266 0.45402074
vt 0.71500368 0.44554438
vt 0.71500368 0.44554438
vt 0.71500368 0.45256643
vt 0.71500368 0.44554438
vt 0.71500368 0.44554438
vt 0.71500368 0.45256643
vt 0.71500368 0.45256643
vt 0.71645799 0.44905541
vt 0.71645799 0.44905541
vn 0.0000000e+0 1.00000000 0.0000000e+0
vn -1.00000000 0.0000000e+0 1.6590447e-15
vn 0.0000000e+0 0.0000000e+0 1.00000000
vn -6.9388939e-17 -1.00000000 1.2325952e-31
vn -1.00000000 0.0000000e+0 1.6590447e-15
vn 0.0000000e+0 0.0000000e+0 1.00000000
vn 0.0000000e+0 1.00000000 0.0000000e+0
vn 1.00000000 0.0000000e+0 -1.6590447e-15
vn 0.0000000e+0 0.0000000e+0 1.00000000
vn -6.9388939e-17 -1.00000000 1.2325952e-31
vn 1.00000000 0.0000000e+0 -1.6590447e-15
vn 0.0000000e+0 0.0000000e+0 1.00000000
vn 1.4443308e-17 0.98078528 -0.19509032
vn -1.00000000 0.0000000e+0 1.6590447e-15
vn 1.4443308e-17 0.98078528 -0.19509032
vn -1.00000000 0.0000000e+0 1.6590447e-15
vn 3.0665868e-17 0.70710678 -0.70710678
vn 3.0665868e-17 0.70710678 -0.70710678
vn -1.00000000 0.0000000e+0 1.6590447e-15
vn -7.6664671e-18 -3.0042419e-17 -1.00000000
vn -7.6664671e-18 -3.0042419e-17 -1.00000000
vn -1.00000000 0.0000000e+0 1.6590447e-15
vn -6.8998204e-17 -0.70710678 -0.70710678
vn -6.8998204e-17 -0.70710678 -0.70710678
vn -7.8704099e-17 -0.98078528 -0.19509032
vn -1.00000000 0.0000000e+0 1.6590447e-15
vn -7.8704099e-17 -0.98078528 -0.19509032
vn 1.4443308e-17 0.98078528 -0.19509032
vn 1.00000000 0.0000000e+0 -1.6590447e-15
vn 1.4443308e-17 0.98078528 -0.19509032
vn 1.00000000 0.0000000e+0 -1.6590447e-15
vn 3.0665868e-17 0.70710678 -0.70710678
vn 3.0665868e-17 0.70710678 -0.70710678
vn 1.00000000 0.0000000e+0 -1.6590447e-15
vn -7.6664671e-18 -3.0042419e-17 -1.00000000
vn -7.6664671e-18 -3.0042419e-17 -1.00000000
vn 1.00000000 0.0000000e+0 -1.6590447e-15
vn -6.8998204e-17 -0.70710678 -0.70710678
vn -6.8998204e-17 -0.70710678 -0.70710678
vn -7.8704099e-17 -0.98078528 -0.19509032
vn 1.00000000 0.0000000e+0 -1.6590447e-15
vn -7.8704099e-17 -0.98078528 -0.19509032
vn 0.0000000e+0 1.00000000 0.0000000e+0
vn 1.00000000 0.0000000e+0 1.6590447e-15
vn 0.0000000e+0 0.0000000e+0 1.00000000
vn 6.9388939e-17 -1.00000000 1.2325952e-31
vn 1.00000000 0.0000000e+0 1.6590447e-15
vn 0.0000000e+0 0.0000000e+0 1.00000000
vn 0.0000000e+0 1.00000000 0.0000000e+0
vn -1.00000000 0.0000000e+0 -1.6590447e-15
vn 0.0000000e+0 0.0000000e+0 1.00000000
vn 6.9388939e-17 -1.00000000 1.2325952e-31
vn -1.00000000 0.0000000e+0 -1.6590447e-15
vn 0.0000000e+0 0.0000000e+0 1.00000000
vn -1.4443308e-17 0.98078528 -0.19509032
vn 1.00000000 0.0000000e+0 1.6590447e-15
vn -1.4443308e-17 0.98078528 -0.19509032
vn 1.00000000 0.0000000e+0 1.6590447e-15
vn -3.0665868e-17 0.70710678 -0.70710678
vn -3.0665868e-17 0.70710678 -0.70710678
vn 1.00000000 0.0000000e+0 1.6590447e-15
vn 7.6664671e-18 -3.0042419e-17 -1.00000000
vn 7.6664671e-18 -3.0042419e-17 -1.00000000
vn 1.00000000 0.0000000e+0 1.6590447e-15
vn 6.8998204e-17 -0.70710678 -0.70710678
vn 6.8998204e-17 -0.70710678 -0.70710678
vn 7.8704099e-17 -0.98078528 -0.19509032
vn 1.00000000 0.0000000e+0 1.6590447e-15
vn 7.8704099e-17 -0.98078528 -0.19509032
vn -1.4443308e-17 0.98078528 -0.19509032
vn -1.00000000 0.0000000e+0 -1.6590447e-15
vn -1.4443308e-17 0.98078528 -0.19509032
vn -1.00000000 0.0000000e+0 -1.6590447e-15
vn -3.0665868e-17 0.70710678 -0.70710678
vn -3.0665868e-17 0.70710678 -0.70710678
vn -1.00000000 0.0000000e+0 -1.6590447e-15
vn 7.6664671e-18 -3.0042419e-17 -1.00000000
vn 7.6664671e-18 -3.0042419e-17 -1.00000000
vn -1.00000000 0.0000000e+0 -1.6590447e-15
vn 6.8998204e-17 -0.70710678 -0.70710678
vn 6.8998204e-17 -0.70710678 -0.70710678
vn 7.8704099e-17 -0.98078528 -0.19509032
vn -1.00000000 0.0000000e+0 -1.6590447e-15
vn 7.8704099e-17 -0.98078528 -0.19509032
g mesh_mesh_auv
usemtl mesh_auv
s 1
f 1/1/2 5/6/14 6/11/16 7/18/19 8/13/22 9/7/26 2/2/5
f 4/1/11 14/6/41 13/12/37 12/18/34 11/13/31 10/7/29 3/2/8
f 17/5/51 18/4/54 16/3/48 15/5/45
s 2
f 2/4/4 9/9/25 14/9/40 4/4/10
f 3/5/7 10/10/28 5/10/13 1/5/1
f 5/10/15 10/10/30 11/16/33 6/16/18
f 6/16/17 11/16/32 12/19/36 7/19/21
f 7/19/20 12/19/35 13/14/39 8/14/24
f 8/14/23 13/14/38 14/9/42 9/9/27
f 16/1/47 23/6/68 22/12/64 21/18/61 20/13/58 19/7/56 15/2/44
f 17/1/50 24/6/71 25/12/73 26/18/76 27/13/79 28/7/83 18/2/53
s 3
f 1/5/3 2/4/6 4/4/12 3/5/9
f 15/5/43 19/10/55 24/10/70 17/5/49
f 18/4/52 28/9/82 23/8/67 16/3/46
f 20/16/60 25/17/75 24/10/72 19/10/57
f 21/19/63 26/19/78 25/17/74 20/16/59
f 22/14/66 27/15/81 26/19/77 21/19/62
f 23/8/69 28/9/84 27/15/80 22/14/65
