# Exported from Wings 3D 1.5.4
mtllib tantares_adapter_s1_s0_1.mtl
o mesh
#48 vertices, 24 faces
v 0.31250000 0.12500000 -3.7779552e-18
v 0.30185182 0.12500000 8.0880952e-2
v 0.27063294 0.12500000 0.15625000
v 0.22097087 0.12500000 0.22097087
v 0.15625000 0.12500000 0.27063294
v 8.0880952e-2 0.12500000 0.30185182
v -5.5458003e-17 0.12500000 0.31250000
v -8.0880952e-2 0.12500000 0.30185182
v -0.15625000 0.12500000 0.27063294
v -0.22097087 0.12500000 0.22097087
v -0.27063294 0.12500000 0.15625000
v -0.30185182 0.12500000 8.0880952e-2
v -0.31250000 0.12500000 3.4492257e-17
v -0.30185182 0.12500000 -8.0880952e-2
v -0.27063294 0.12500000 -0.15625000
v -0.22097087 0.12500000 -0.22097087
v -0.15625000 0.12500000 -0.27063294
v -8.0880952e-2 0.12500000 -0.30185182
v -1.3199843e-16 0.12500000 -0.31250000
v 8.0880952e-2 0.12500000 -0.30185182
v 0.15625000 0.12500000 -0.27063294
v 0.22097087 0.12500000 -0.22097087
v 0.27063294 0.12500000 -0.15625000
v 0.30185182 0.12500000 -8.0880952e-2
v 0.62500000 -0.12500000 -1.2576745e-17
v 0.60370364 -0.12500000 0.16176190
v 0.54126588 -0.12500000 0.31250000
v 0.44194174 -0.12500000 0.44194174
v 0.31250000 -0.12500000 0.54126588
v 0.16176190 -0.12500000 0.60370364
v -1.3771492e-17 -0.12500000 0.62500000
v -0.16176190 -0.12500000 0.60370364
v -0.31250000 -0.12500000 0.54126588
v -0.44194174 -0.12500000 0.44194174
v -0.54126588 -0.12500000 0.31250000
v -0.60370364 -0.12500000 0.16176190
v -0.62500000 -0.12500000 6.3963680e-17
v -0.60370364 -0.12500000 -0.16176190
v -0.54126588 -0.12500000 -0.31250000
v -0.44194174 -0.12500000 -0.44194174
v -0.31250000 -0.12500000 -0.54126588
v -0.16176190 -0.12500000 -0.60370364
v -1.6685234e-16 -0.12500000 -0.62500000
v 0.16176190 -0.12500000 -0.60370364
v 0.31250000 -0.12500000 -0.54126588
v 0.44194174 -0.12500000 -0.44194174
v 0.54126588 -0.12500000 -0.31250000
v 0.60370364 -0.12500000 -0.16176190
vt 0.82769312 0.47995586
vt 0.82769312 0.47995586
vt 0.82769312 0.47995586
vt 0.82769312 0.47995586
vt 0.82769312 0.47995586
vt 0.85956027 0.47995586
vt 0.85956027 0.47995586
vt 0.85956027 0.47995586
vt 0.85956027 0.47995586
vt 0.85987124 0.55714587
vt 0.85987124 0.55714587
vt 0.85987124 0.55714587
vt 0.85987124 0.55714587
vt 0.85987124 0.55714587
vt 0.87580481 0.55714587
vt 0.87580481 0.55714587
vt 0.87580481 0.55714587
vt 0.87580481 0.55714587
vt 0.87580481 0.55714587
vt 0.89204935 0.47995586
vt 0.89204935 0.55714587
vt 0.89204935 0.55714587
vt 0.89204935 0.47995586
vt 0.89204935 0.55714587
vt 0.89204935 0.47995586
vt 0.89204935 0.55714587
vt 0.89204935 0.55714587
vt 0.89204935 0.47995586
vt 0.90829389 0.55714587
vt 0.90829389 0.55714587
vt 0.90829389 0.55714587
vt 0.90829389 0.55714587
vt 0.90829389 0.55714587
vt 0.92422746 0.55714587
vt 0.92422746 0.55714587
vt 0.92422746 0.55714587
vt 0.92422746 0.55714587
vt 0.92422746 0.55714587
vt 0.92453843 0.47995586
vt 0.92453843 0.47995586
vt 0.92453843 0.47995586
vt 0.92453843 0.47995586
vt 0.92453843 0.47995586
vt 0.95640558 0.47995586
vt 0.95640558 0.47995586
vt 0.95640558 0.47995586
vt 0.95640558 0.47995586
vt 0.95640558 0.47995586
vn 0.62469505 0.78086881 -8.3547854e-17
vn 0.62469505 0.78086881 -8.3547854e-17
vn 0.60340908 0.78086881 0.16168298
vn 0.60340908 0.78086881 0.16168298
vn 0.54100178 0.78086881 0.31234752
vn 0.54100178 0.78086881 0.31234752
vn 0.44172610 0.78086881 0.44172610
vn 0.44172610 0.78086881 0.44172610
vn 0.31234752 0.78086881 0.54100178
vn 0.31234752 0.78086881 0.54100178
vn 0.16168298 0.78086881 0.60340908
vn 0.16168298 0.78086881 0.60340908
vn 1.8798267e-16 0.78086881 0.62469505
vn 1.8798267e-16 0.78086881 0.62469505
vn -0.16168298 0.78086881 0.60340908
vn -0.16168298 0.78086881 0.60340908
vn -0.31234752 0.78086881 0.54100178
vn -0.31234752 0.78086881 0.54100178
vn -0.44172610 0.78086881 0.44172610
vn -0.44172610 0.78086881 0.44172610
vn -0.54100178 0.78086881 0.31234752
vn -0.54100178 0.78086881 0.31234752
vn -0.60340908 0.78086881 0.16168298
vn -0.60340908 0.78086881 0.16168298
vn -0.62469505 0.78086881 3.5507838e-16
vn -0.62469505 0.78086881 3.5507838e-16
vn -0.60340908 0.78086881 -0.16168298
vn -0.60340908 0.78086881 -0.16168298
vn -0.54100178 0.78086881 -0.31234752
vn -0.54100178 0.78086881 -0.31234752
vn -0.44172610 0.78086881 -0.44172610
vn -0.44172610 0.78086881 -0.44172610
vn -0.31234752 0.78086881 -0.54100178
vn -0.31234752 0.78086881 -0.54100178
vn -0.16168298 0.78086881 -0.60340908
vn -0.16168298 0.78086881 -0.60340908
vn -2.8545517e-16 0.78086881 -0.62469505
vn -2.8545517e-16 0.78086881 -0.62469505
vn 0.16168298 0.78086881 -0.60340908
vn 0.16168298 0.78086881 -0.60340908
vn 0.31234752 0.78086881 -0.54100178
vn 0.31234752 0.78086881 -0.54100178
vn 0.44172610 0.78086881 -0.44172610
vn 0.44172610 0.78086881 -0.44172610
vn 0.54100178 0.78086881 -0.31234752
vn 0.54100178 0.78086881 -0.31234752
vn 0.60340908 0.78086881 -0.16168298
vn 0.60340908 0.78086881 -0.16168298
vn 0.62469505 0.78086881 -8.3547854e-17
vn 0.62469505 0.78086881 -8.3547854e-17
vn 0.60340908 0.78086881 0.16168298
vn 0.60340908 0.78086881 0.16168298
vn 0.54100178 0.78086881 0.31234752
vn 0.54100178 0.78086881 0.31234752
vn 0.44172610 0.78086881 0.44172610
vn 0.44172610 0.78086881 0.44172610
vn 0.31234752 0.78086881 0.54100178
vn 0.31234752 0.78086881 0.54100178
vn 0.16168298 0.78086881 0.60340908
vn 0.16168298 0.78086881 0.60340908
vn 1.8798267e-16 0.78086881 0.62469505
vn 1.8798267e-16 0.78086881 0.62469505
vn -0.16168298 0.78086881 0.60340908
vn -0.16168298 0.78086881 0.60340908
vn -0.31234752 0.78086881 0.54100178
vn -0.31234752 0.78086881 0.54100178
vn -0.44172610 0.78086881 0.44172610
vn -0.44172610 0.78086881 0.44172610
vn -0.54100178 0.78086881 0.31234752
vn -0.54100178 0.78086881 0.31234752
vn -0.60340908 0.78086881 0.16168298
vn -0.60340908 0.78086881 0.16168298
vn -0.62469505 0.78086881 3.5507838e-16
vn -0.62469505 0.78086881 3.5507838e-16
vn -0.60340908 0.78086881 -0.16168298
vn -0.60340908 0.78086881 -0.16168298
vn -0.54100178 0.78086881 -0.31234752
vn -0.54100178 0.78086881 -0.31234752
vn -0.44172610 0.78086881 -0.44172610
vn -0.44172610 0.78086881 -0.44172610
vn -0.31234752 0.78086881 -0.54100178
vn -0.31234752 0.78086881 -0.54100178
vn -0.16168298 0.78086881 -0.60340908
vn -0.16168298 0.78086881 -0.60340908
vn -2.8545517e-16 0.78086881 -0.62469505
vn -2.8545517e-16 0.78086881 -0.62469505
vn 0.16168298 0.78086881 -0.60340908
vn 0.16168298 0.78086881 -0.60340908
vn 0.31234752 0.78086881 -0.54100178
vn 0.31234752 0.78086881 -0.54100178
vn 0.44172610 0.78086881 -0.44172610
vn 0.44172610 0.78086881 -0.44172610
vn 0.54100178 0.78086881 -0.31234752
vn 0.54100178 0.78086881 -0.31234752
vn 0.60340908 0.78086881 -0.16168298
vn 0.60340908 0.78086881 -0.16168298
g mesh_mesh_auv
usemtl mesh_auv
s 2
f 1/36/1 25/47/49 48/41/95 24/31/47
f 2/29/4 26/39/52 25/44/50 1/34/2
f 3/21/6 27/20/54 26/39/51 2/29/3
f 4/15/8 28/6/56 27/20/53 3/21/5
f 5/10/10 29/1/58 28/6/55 4/15/7
f 6/16/12 30/7/60 29/2/57 5/11/9
f 7/22/14 31/23/62 30/7/59 6/16/11
f 8/30/16 32/40/64 31/23/61 7/22/13
f 9/35/18 33/46/66 32/40/63 8/30/15
f 10/29/20 34/39/68 33/45/65 9/34/17
f 11/21/22 35/20/70 34/39/67 10/29/19
f 12/15/24 36/6/72 35/20/69 11/21/21
f 13/10/26 37/1/74 36/6/71 12/15/23
f 14/18/28 38/9/76 37/4/73 13/13/25
f 15/26/30 39/28/78 38/9/75 14/18/27
f 16/32/32 40/42/80 39/28/77 15/26/29
f 17/37/34 41/48/82 40/42/79 16/32/31
f 18/33/36 42/43/84 41/48/81 17/38/33
f 19/27/38 43/28/86 42/43/83 18/33/35
f 20/19/40 44/9/88 43/28/85 19/27/37
f 21/14/42 45/5/90 44/9/87 20/19/39
f 22/17/44 46/8/92 45/3/89 21/12/41
f 23/24/46 47/25/94 46/8/91 22/17/43
f 24/31/48 48/41/96 47/25/93 23/24/45
