# Exported from Wings 3D 1.5.4
mtllib tantares_adapter_s0p5_s0_1.mtl
o mesh
#48 vertices, 24 faces
v 0.31250000 0.12500000 -5.4046372e-18
v 0.30185182 0.12500000 8.0880952e-2
v 0.27063294 0.12500000 0.15625000
v 0.22097087 0.12500000 0.22097087
v 0.15625000 0.12500000 0.27063294
v 8.0880952e-2 0.12500000 0.30185182
v -5.6228991e-17 0.12500000 0.31250000
v -8.0880952e-2 0.12500000 0.30185182
v -0.15625000 0.12500000 0.27063294
v -0.22097087 0.12500000 0.22097087
v -0.27063294 0.12500000 0.15625000
v -0.30185182 0.12500000 8.0880952e-2
v -0.31250000 0.12500000 3.2865575e-17
v -0.30185182 0.12500000 -8.0880952e-2
v -0.27063294 0.12500000 -0.15625000
v -0.22097087 0.12500000 -0.22097087
v -0.15625000 0.12500000 -0.27063294
v -8.0880952e-2 0.12500000 -0.30185182
v -1.3276942e-16 0.12500000 -0.31250000
v 8.0880952e-2 0.12500000 -0.30185182
v 0.15625000 0.12500000 -0.27063294
v 0.22097087 0.12500000 -0.22097087
v 0.27063294 0.12500000 -0.15625000
v 0.30185182 0.12500000 -8.0880952e-2
v 0.46875000 -0.12500000 -9.0366416e-18
v 0.45277773 -0.12500000 0.12132143
v 0.40594941 -0.12500000 0.23437500
v 0.33145630 -0.12500000 0.33145630
v 0.23437500 -0.12500000 0.40594941
v 0.12132143 -0.12500000 0.45277773
v -3.5771230e-17 -0.12500000 0.46875000
v -0.12132143 -0.12500000 0.45277773
v -0.23437500 -0.12500000 0.40594941
v -0.33145630 -0.12500000 0.33145630
v -0.40594941 -0.12500000 0.23437500
v -0.45277773 -0.12500000 0.12132143
v -0.46875000 -0.12500000 4.8368677e-17
v -0.45277773 -0.12500000 -0.12132143
v -0.40594941 -0.12500000 -0.23437500
v -0.33145630 -0.12500000 -0.33145630
v -0.23437500 -0.12500000 -0.40594941
v -0.12132143 -0.12500000 -0.45277773
v -1.5058187e-16 -0.12500000 -0.46875000
v 0.12132143 -0.12500000 -0.45277773
v 0.23437500 -0.12500000 -0.40594941
v 0.33145630 -0.12500000 -0.33145630
v 0.40594941 -0.12500000 -0.23437500
v 0.45277773 -0.12500000 -0.12132143
vt 0.84378218 0.40271318
vt 0.84378218 0.40271318
vt 0.84378218 0.40271318
vt 0.84378218 0.40271318
vt 0.84378218 0.40271318
vt 0.85987124 0.46036951
vt 0.85987124 0.46036951
vt 0.85987124 0.46036951
vt 0.85987124 0.46036951
vt 0.85987124 0.46036951
vt 0.86768254 0.40271318
vt 0.86768254 0.40271318
vt 0.86768254 0.40271318
vt 0.86768254 0.40271318
vt 0.87580481 0.46036951
vt 0.87580481 0.46036951
vt 0.87580481 0.46036951
vt 0.87580481 0.46036951
vt 0.87580481 0.46036951
vt 0.89204935 0.46036951
vt 0.89204935 0.40271318
vt 0.89204935 0.46036951
vt 0.89204935 0.40271318
vt 0.89204935 0.46036951
vt 0.89204935 0.40271318
vt 0.89204935 0.46036951
vt 0.89204935 0.46036951
vt 0.89204935 0.40271318
vt 0.90829389 0.46036951
vt 0.90829389 0.46036951
vt 0.90829389 0.46036951
vt 0.90829389 0.46036951
vt 0.90829389 0.46036951
vt 0.91641616 0.40271318
vt 0.91641616 0.40271318
vt 0.91641616 0.40271318
vt 0.91641616 0.40271318
vt 0.91641616 0.40271318
vt 0.92422746 0.46036951
vt 0.92422746 0.46036951
vt 0.92422746 0.46036951
vt 0.92422746 0.46036951
vt 0.92422746 0.46036951
vt 0.94031652 0.40271318
vt 0.94031652 0.40271318
vt 0.94031652 0.40271318
vt 0.94031652 0.40271318
vn 0.84799830 0.52999894 -1.6756805e-16
vn 0.84799830 0.52999894 -1.6756805e-16
vn 0.81910346 0.52999894 0.21947811
vn 0.81910346 0.52999894 0.21947811
vn 0.73438807 0.52999894 0.42399915
vn 0.73438807 0.52999894 0.42399915
vn 0.59962535 0.52999894 0.59962535
vn 0.59962535 0.52999894 0.59962535
vn 0.42399915 0.52999894 0.73438807
vn 0.42399915 0.52999894 0.73438807
vn 0.21947811 0.52999894 0.81910346
vn 0.21947811 0.52999894 0.81910346
vn 3.1419010e-16 0.52999894 0.84799830
vn 3.1419010e-16 0.52999894 0.84799830
vn -0.21947811 0.52999894 0.81910346
vn -0.21947811 0.52999894 0.81910346
vn -0.42399915 0.52999894 0.73438807
vn -0.42399915 0.52999894 0.73438807
vn -0.59962535 0.52999894 0.59962535
vn -0.59962535 0.52999894 0.59962535
vn -0.73438807 0.52999894 0.42399915
vn -0.73438807 0.52999894 0.42399915
vn -0.81910346 0.52999894 0.21947811
vn -0.81910346 0.52999894 0.21947811
vn -0.84799830 0.52999894 4.6081215e-16
vn -0.84799830 0.52999894 4.6081215e-16
vn -0.81910346 0.52999894 -0.21947811
vn -0.81910346 0.52999894 -0.21947811
vn -0.73438807 0.52999894 -0.42399915
vn -0.73438807 0.52999894 -0.42399915
vn -0.59962535 0.52999894 -0.59962535
vn -0.59962535 0.52999894 -0.59962535
vn -0.42399915 0.52999894 -0.73438807
vn -0.42399915 0.52999894 -0.73438807
vn -0.21947811 0.52999894 -0.81910346
vn -0.21947811 0.52999894 -0.81910346
vn -3.8401012e-16 0.52999894 -0.84799830
vn -3.8401012e-16 0.52999894 -0.84799830
vn 0.21947811 0.52999894 -0.81910346
vn 0.21947811 0.52999894 -0.81910346
vn 0.42399915 0.52999894 -0.73438807
vn 0.42399915 0.52999894 -0.73438807
vn 0.59962535 0.52999894 -0.59962535
vn 0.59962535 0.52999894 -0.59962535
vn 0.73438807 0.52999894 -0.42399915
vn 0.73438807 0.52999894 -0.42399915
vn 0.81910346 0.52999894 -0.21947811
vn 0.81910346 0.52999894 -0.21947811
vn 0.84799830 0.52999894 -1.6756805e-16
vn 0.84799830 0.52999894 -1.6756805e-16
vn 0.81910346 0.52999894 0.21947811
vn 0.81910346 0.52999894 0.21947811
vn 0.73438807 0.52999894 0.42399915
vn 0.73438807 0.52999894 0.42399915
vn 0.59962535 0.52999894 0.59962535
vn 0.59962535 0.52999894 0.59962535
vn 0.42399915 0.52999894 0.73438807
vn 0.42399915 0.52999894 0.73438807
vn 0.21947811 0.52999894 0.81910346
vn 0.21947811 0.52999894 0.81910346
vn 3.1419010e-16 0.52999894 0.84799830
vn 3.1419010e-16 0.52999894 0.84799830
vn -0.21947811 0.52999894 0.81910346
vn -0.21947811 0.52999894 0.81910346
vn -0.42399915 0.52999894 0.73438807
vn -0.42399915 0.52999894 0.73438807
vn -0.59962535 0.52999894 0.59962535
vn -0.59962535 0.52999894 0.59962535
vn -0.73438807 0.52999894 0.42399915
vn -0.73438807 0.52999894 0.42399915
vn -0.81910346 0.52999894 0.21947811
vn -0.81910346 0.52999894 0.21947811
vn -0.84799830 0.52999894 4.6081215e-16
vn -0.84799830 0.52999894 4.6081215e-16
vn -0.81910346 0.52999894 -0.21947811
vn -0.81910346 0.52999894 -0.21947811
vn -0.73438807 0.52999894 -0.42399915
vn -0.73438807 0.52999894 -0.42399915
vn -0.59962535 0.52999894 -0.59962535
vn -0.59962535 0.52999894 -0.59962535
vn -0.42399915 0.52999894 -0.73438807
vn -0.42399915 0.52999894 -0.73438807
vn -0.21947811 0.52999894 -0.81910346
vn -0.21947811 0.52999894 -0.81910346
vn -3.8401012e-16 0.52999894 -0.84799830
vn -3.8401012e-16 0.52999894 -0.84799830
vn 0.21947811 0.52999894 -0.81910346
vn 0.21947811 0.52999894 -0.81910346
vn 0.42399915 0.52999894 -0.73438807
vn 0.42399915 0.52999894 -0.73438807
vn 0.59962535 0.52999894 -0.59962535
vn 0.59962535 0.52999894 -0.59962535
vn 0.73438807 0.52999894 -0.42399915
vn 0.73438807 0.52999894 -0.42399915
vn 0.81910346 0.52999894 -0.21947811
vn 0.81910346 0.52999894 -0.21947811
g mesh_mesh_auv
usemtl mesh_auv
s 2
f 1/41/1 25/47/49 48/36/95 24/31/47
f 2/29/4 26/34/52 25/44/50 1/39/2
f 3/20/6 27/21/54 26/34/51 2/29/3
f 4/15/8 28/11/56 27/21/53 3/20/5
f 5/6/10 29/1/58 28/11/55 4/15/7
f 6/16/12 30/12/60 29/2/57 5/7/9
f 7/22/14 31/23/62 30/12/59 6/16/11
f 8/30/16 32/35/64 31/23/61 7/22/13
f 9/40/18 33/45/66 32/35/63 8/30/15
f 10/29/20 34/34/68 33/44/65 9/39/17
f 11/20/22 35/21/70 34/34/67 10/29/19
f 12/15/24 36/11/72 35/21/69 11/20/21
f 13/6/26 37/1/74 36/11/71 12/15/23
f 14/18/28 38/14/76 37/4/73 13/9/25
f 15/26/30 39/28/78 38/14/75 14/18/27
f 16/32/32 40/37/80 39/28/77 15/26/29
f 17/42/34 41/46/82 40/37/79 16/32/31
f 18/33/36 42/38/84 41/46/81 17/43/33
f 19/27/38 43/28/86 42/38/83 18/33/35
f 20/19/40 44/14/88 43/28/85 19/27/37
f 21/10/42 45/5/90 44/14/87 20/19/39
f 22/17/44 46/13/92 45/3/89 21/8/41
f 23/24/46 47/25/94 46/13/91 22/17/43
f 24/31/48 48/36/96 47/25/93 23/24/45
