# Exported from Wings 3D 1.5.4
mtllib Eridani_Antenna_1_Base.mtl
o Eridani_Antenna_1_Base
#18 vertices, 24 faces
v 3.1250000e-2 1.7791107e-17 2.2500000e-2
v 2.2097087e-2 -2.2097087e-2 2.2500000e-2
v -5.1862917e-17 -3.1250000e-2 2.2500000e-2
v -2.2097087e-2 -2.2097087e-2 2.2500000e-2
v -3.1250000e-2 1.3964086e-17 2.2500000e-2
v -2.2097087e-2 2.2097087e-2 2.2500000e-2
v -5.9516960e-17 3.1250000e-2 2.2500000e-2
v 2.2097087e-2 2.2097087e-2 2.2500000e-2
v 3.1250000e-2 -2.6393317e-18 -6.7500000e-2
v 2.2097087e-2 -2.2097087e-2 -6.7500000e-2
v 4.0344692e-18 -3.1250000e-2 -6.7500000e-2
v -2.2097087e-2 -2.2097087e-2 -6.7500000e-2
v -3.1250000e-2 -6.4663529e-18 -6.7500000e-2
v -2.2097087e-2 2.2097087e-2 -6.7500000e-2
v -3.6195733e-18 3.1250000e-2 -6.7500000e-2
v 2.2097087e-2 2.2097087e-2 -6.7500000e-2
v -5.5294311e-17 1.8211404e-17 2.2500000e-2
v 1.0842022e-18 -3.2526065e-18 -6.7500000e-2
vt 0.53496747 0.59343585
vt 0.53496747 0.90254604
vt 0.54986756 0.55746385
vt 0.54986756 0.62940785
vt 0.54986756 0.67667699
vt 0.54986756 0.67667699
vt 0.54986756 0.82318861
vt 0.54986756 0.86657404
vt 0.54986756 0.93851804
vt 0.54986756 0.67667699
vt 0.54986756 0.67667699
vt 0.54986756 0.82318861
vt 0.54986756 0.82318861
vt 0.58583956 0.67667699
vt 0.58583956 0.67667699
vt 0.58583956 0.82318861
vt 0.58583956 0.54256376
vt 0.58583956 0.59343585
vt 0.58583956 0.64430794
vt 0.58583956 0.67667699
vt 0.58583956 0.67667699
vt 0.58583956 0.82318861
vt 0.58583956 0.82318861
vt 0.58583956 0.85167395
vt 0.58583956 0.90254604
vt 0.58583956 0.95341813
vt 0.62181156 0.67667699
vt 0.62181156 0.67667699
vt 0.62181156 0.82318861
vt 0.62181156 0.55746385
vt 0.62181156 0.62940785
vt 0.62181156 0.67667699
vt 0.62181156 0.67667699
vt 0.62181156 0.82318861
vt 0.62181156 0.82318861
vt 0.62181156 0.86657404
vt 0.62181156 0.93851804
vt 0.63671166 0.59343585
vt 0.63671166 0.90254604
vn -9.8130779e-18 2.7755576e-17 1.00000000
vn 3.9252311e-17 0.0000000e+0 -1.00000000
vn 1.00000000 6.0084837e-17 6.2013200e-16
vn 1.00000000 6.0084837e-17 6.2013200e-16
vn 0.0000000e+0 -6.1629758e-33 1.00000000
vn 0.0000000e+0 -6.1629758e-33 1.00000000
vn 0.70710678 -0.70710678 6.1331737e-16
vn 0.70710678 -0.70710678 6.1331737e-16
vn -3.9252311e-17 7.8504623e-17 1.00000000
vn -3.9252311e-17 7.8504623e-17 1.00000000
vn 6.0084837e-17 -1.00000000 2.5214158e-16
vn 6.0084837e-17 -1.00000000 2.5214158e-16
vn 3.9252311e-17 1.1102230e-16 1.00000000
vn 3.9252311e-17 1.1102230e-16 1.00000000
vn -0.70710678 -0.70710678 -2.6577086e-16
vn -0.70710678 -0.70710678 -2.6577086e-16
vn 7.8504623e-17 7.8504623e-17 1.00000000
vn 7.8504623e-17 7.8504623e-17 1.00000000
vn -1.00000000 -1.5021209e-16 -6.3376128e-16
vn -1.00000000 -1.5021209e-16 -6.3376128e-16
vn 0.0000000e+0 2.4651903e-32 1.00000000
vn 0.0000000e+0 2.4651903e-32 1.00000000
vn -0.70710678 0.70710678 -6.0991005e-16
vn -0.70710678 0.70710678 -6.0991005e-16
vn 1.5700925e-16 -2.2993472e-17 1.00000000
vn 1.5700925e-16 -2.2993472e-17 1.00000000
vn -1.8025451e-16 1.00000000 -2.2829035e-16
vn -1.8025451e-16 1.00000000 -2.2829035e-16
vn -7.8504623e-17 0.0000000e+0 1.00000000
vn -7.8504623e-17 0.0000000e+0 1.00000000
vn 0.70710678 0.70710678 2.7258550e-16
vn 0.70710678 0.70710678 2.7258550e-16
vn -2.3551387e-16 -2.2993472e-17 1.00000000
vn -2.3551387e-16 -2.2993472e-17 1.00000000
vn 1.00000000 6.0084837e-17 6.2013200e-16
vn 1.00000000 6.0084837e-17 6.2013200e-16
vn 0.0000000e+0 0.0000000e+0 -1.00000000
vn 0.0000000e+0 0.0000000e+0 -1.00000000
vn 0.70710678 -0.70710678 6.1331737e-16
vn 0.70710678 -0.70710678 6.1331737e-16
vn -1.5700925e-16 0.0000000e+0 -1.00000000
vn -1.5700925e-16 0.0000000e+0 -1.00000000
vn 6.0084837e-17 -1.00000000 2.5214158e-16
vn 6.0084837e-17 -1.00000000 2.5214158e-16
vn -2.4651903e-32 0.0000000e+0 -1.00000000
vn -2.4651903e-32 0.0000000e+0 -1.00000000
vn -0.70710678 -0.70710678 -2.6577086e-16
vn -0.70710678 -0.70710678 -2.6577086e-16
vn 1.5700925e-16 0.0000000e+0 -1.00000000
vn 1.5700925e-16 0.0000000e+0 -1.00000000
vn -1.00000000 -1.5021209e-16 -6.3376128e-16
vn -1.00000000 -1.5021209e-16 -6.3376128e-16
vn 0.0000000e+0 0.0000000e+0 -1.00000000
vn 0.0000000e+0 0.0000000e+0 -1.00000000
vn -0.70710678 0.70710678 -6.0991005e-16
vn -0.70710678 0.70710678 -6.0991005e-16
vn 0.0000000e+0 0.0000000e+0 -1.00000000
vn 0.0000000e+0 0.0000000e+0 -1.00000000
vn -1.8025451e-16 1.00000000 -2.2829035e-16
vn -1.8025451e-16 1.00000000 -2.2829035e-16
vn 1.5700925e-16 0.0000000e+0 -1.00000000
vn 1.5700925e-16 0.0000000e+0 -1.00000000
vn 0.70710678 0.70710678 2.7258550e-16
vn 0.70710678 0.70710678 2.7258550e-16
vn 1.5700925e-16 0.0000000e+0 -1.00000000
vn 1.5700925e-16 0.0000000e+0 -1.00000000
g Eridani_Antenna_1_Base_Eridani_Antenna_1_Base_auv
usemtl Eridani_Antenna_1_Base_auv
s 1
f 1/16/3 9/14/35 16/27/63 8/29/31
f 2/7/8 10/5/40 9/14/36 1/16/4
f 3/23/12 11/21/44 10/33/39 2/35/7
f 4/13/16 12/11/48 11/21/43 3/23/11
f 5/22/20 13/20/52 12/32/47 4/34/15
f 6/12/24 14/10/56 13/20/51 5/22/19
f 7/16/28 15/15/60 14/28/55 6/29/23
f 8/7/32 16/6/64 15/15/59 7/16/27
s 2
f 1/39/5 17/25/1 2/36/9
f 2/36/10 17/25/1 3/24/14
f 3/24/13 17/25/1 4/8/18
f 4/8/17 17/25/1 5/2/22
f 5/2/21 17/25/1 6/9/26
f 6/9/25 17/25/1 7/26/30
f 7/26/29 17/25/1 8/37/34
f 8/37/33 17/25/1 1/39/6
f 9/1/38 18/18/2 16/4/66
f 10/3/41 18/18/2 9/1/37
f 11/17/45 18/18/2 10/3/42
f 12/30/49 18/18/2 11/17/46
f 13/38/53 18/18/2 12/30/50
f 14/31/57 18/18/2 13/38/54
f 15/19/61 18/18/2 14/31/58
f 16/4/65 18/18/2 15/19/62
