# Exported from Wings 3D 1.5.4
mtllib Tantares_Antenna_1_Base.mtl
o Tantares_Antenna_1_Base
#32 vertices, 26 faces
v -1.2500000e-2 1.5625000e-2 -6.2500000e-2
v -1.2500000e-2 -1.5625000e-2 -6.2500000e-2
v -1.2500000e-2 -1.1048543e-2 -7.3548543e-2
v -1.2500000e-2 3.3214640e-17 -7.8125000e-2
v -1.2500000e-2 1.1048543e-2 -7.3548543e-2
v 1.2500000e-2 1.5625000e-2 -6.2500000e-2
v 1.2500000e-2 -1.5625000e-2 -6.2500000e-2
v 1.2500000e-2 -1.1048543e-2 -7.3548543e-2
v 1.2500000e-2 3.1301129e-17 -7.8125000e-2
v 1.2500000e-2 1.1048543e-2 -7.3548543e-2
v 2.5000000e-2 1.5625000e-2 -6.2500000e-2
v 2.5000000e-2 -1.5625000e-2 -6.2500000e-2
v 2.5000000e-2 -1.1048543e-2 -7.3548543e-2
v 2.5000000e-2 3.1301129e-17 -7.8125000e-2
v 2.5000000e-2 1.1048543e-2 -7.3548543e-2
v -2.5000000e-2 1.5625000e-2 -6.2500000e-2
v -2.5000000e-2 1.1048543e-2 -7.3548543e-2
v -2.5000000e-2 3.3214640e-17 -7.8125000e-2
v -2.5000000e-2 -1.1048543e-2 -7.3548543e-2
v -2.5000000e-2 -1.5625000e-2 -6.2500000e-2
v 1.2500000e-2 1.5625000e-2 -4.6875000e-2
v -1.2500000e-2 1.5625000e-2 -4.6875000e-2
v -2.5000000e-2 1.5625000e-2 -4.6875000e-2
v -2.5000000e-2 -1.5625000e-2 -4.6875000e-2
v -1.2500000e-2 -1.5625000e-2 -4.6875000e-2
v 1.2500000e-2 -1.5625000e-2 -4.6875000e-2
v 2.5000000e-2 -1.5625000e-2 -4.6875000e-2
v 2.5000000e-2 1.5625000e-2 -4.6875000e-2
v 2.5000000e-2 -1.5625000e-2 2.2500000e-2
v 2.5000000e-2 1.5625000e-2 2.2500000e-2
v -2.5000000e-2 1.5625000e-2 2.2500000e-2
v -2.5000000e-2 -1.5625000e-2 2.2500000e-2
vt 0.71359637 0.96418336
vt 0.71359637 0.98089301
vt 0.73920971 0.96418336
vt 0.73920971 0.98089301
vt 0.75844010 0.92976242
vt 0.75844010 0.94384171
vt 0.75844010 0.98066904
vt 0.75844010 0.94384171
vt 0.75844010 0.92348362
vt 0.75844010 0.92976242
vt 0.75844010 0.93604122
vt 0.75844010 0.92348362
vt 0.75844010 0.98066904
vt 0.75844010 0.93604122
vt 0.76461106 0.92976242
vt 0.76461106 0.92976242
vt 0.76461106 0.94384171
vt 0.76461106 0.92348362
vt 0.76461106 0.92348362
vt 0.76461106 0.93604122
vt 0.76461106 0.94384171
vt 0.76461106 0.93604122
vt 0.77773690 0.92348362
vt 0.77773690 0.92348362
vt 0.77773690 0.92976242
vt 0.77773690 0.93604122
vt 0.77773690 0.93604122
vt 0.77773690 0.94384171
vt 0.77773690 0.92976242
vt 0.77773690 0.94384171
vt 0.78396385 0.92348362
vt 0.78396385 0.92976242
vt 0.78396385 0.93604122
vt 0.78396385 0.98066904
vt 0.78396385 0.92348362
vt 0.78396385 0.94384171
vt 0.78396385 0.98066904
vt 0.78396385 0.93604122
vt 0.78396385 0.94384171
vt 0.78396385 0.92976242
vt 0.80272619 0.93604122
vt 0.80272619 0.94424486
vt 0.80272619 0.94424486
vt 0.80272619 0.98066904
vt 0.80272619 0.93604122
vt 0.80272619 0.98066904
vt 0.80512899 0.93024036
vt 0.80512899 0.93024036
vt 0.81092984 0.92783757
vt 0.81092984 0.92783757
vt 0.81673069 0.93024036
vt 0.81673069 0.93024036
vt 0.81913348 0.93604122
vt 0.81913348 0.94424486
vt 0.81913348 0.98066904
vt 0.81913348 0.93604122
vt 0.81913348 0.94424486
vt 0.81913348 0.98066904
vt 0.83798182 0.97246540
vt 0.83798182 0.98113938
vt 0.83798182 0.97246540
vt 0.83798182 0.98113938
vt 0.83810708 0.93263460
vt 0.83810708 0.94591721
vt 0.84038461 0.96666454
vt 0.84038461 0.96666454
vt 0.84618546 0.96426175
vt 0.84618546 0.96426175
vt 0.85198632 0.96666454
vt 0.85198632 0.96666454
vt 0.85438911 0.97246540
vt 0.85438911 0.98113938
vt 0.85438911 0.97246540
vt 0.85438911 0.98113938
vt 0.85451437 0.93263460
vt 0.85451437 0.94591721
vn 0.0000000e+0 0.98078528 -0.19509032
vn 0.0000000e+0 0.98078528 -0.19509032
vn 1.00000000 0.0000000e+0 -6.5035359e-17
vn 0.0000000e+0 -0.98078528 -0.19509032
vn 0.0000000e+0 -0.98078528 -0.19509032
vn 1.00000000 0.0000000e+0 -6.5035359e-17
vn 0.0000000e+0 -0.70710678 -0.70710678
vn 0.0000000e+0 -0.70710678 -0.70710678
vn 1.00000000 0.0000000e+0 -6.5035359e-17
vn 0.0000000e+0 -3.0042419e-17 -1.00000000
vn 0.0000000e+0 -3.0042419e-17 -1.00000000
vn 1.00000000 0.0000000e+0 -6.5035359e-17
vn 0.0000000e+0 0.70710678 -0.70710678
vn 0.0000000e+0 0.70710678 -0.70710678
vn 1.00000000 0.0000000e+0 -6.5035359e-17
vn 0.0000000e+0 0.98078528 -0.19509032
vn 0.0000000e+0 0.98078528 -0.19509032
vn -1.00000000 -3.2517680e-17 3.7279783e-17
vn 0.0000000e+0 -0.98078528 -0.19509032
vn 0.0000000e+0 -0.98078528 -0.19509032
vn -1.00000000 -3.2517680e-17 3.7279783e-17
vn 0.0000000e+0 -0.70710678 -0.70710678
vn 0.0000000e+0 -0.70710678 -0.70710678
vn -1.00000000 -3.2517680e-17 3.7279783e-17
vn 0.0000000e+0 0.0000000e+0 -1.00000000
vn 0.0000000e+0 0.0000000e+0 -1.00000000
vn -1.00000000 -3.2517680e-17 3.7279783e-17
vn 0.0000000e+0 0.70710678 -0.70710678
vn 0.0000000e+0 0.70710678 -0.70710678
vn -1.00000000 -3.2517680e-17 3.7279783e-17
vn 0.0000000e+0 0.98078528 -0.19509032
vn 1.00000000 -6.5035359e-17 -1.3007072e-16
vn 0.0000000e+0 0.98078528 -0.19509032
vn 0.0000000e+0 -0.98078528 -0.19509032
vn 0.0000000e+0 -0.98078528 -0.19509032
vn 1.00000000 -6.5035359e-17 -1.3007072e-16
vn 0.0000000e+0 -0.70710678 -0.70710678
vn 0.0000000e+0 -0.70710678 -0.70710678
vn 1.00000000 -6.5035359e-17 -1.3007072e-16
vn 0.0000000e+0 0.0000000e+0 -1.00000000
vn 0.0000000e+0 0.0000000e+0 -1.00000000
vn 1.00000000 -6.5035359e-17 -1.3007072e-16
vn 0.0000000e+0 0.70710678 -0.70710678
vn 0.0000000e+0 0.70710678 -0.70710678
vn 1.00000000 -6.5035359e-17 -1.3007072e-16
vn 0.0000000e+0 0.98078528 -0.19509032
vn 0.0000000e+0 0.98078528 -0.19509032
vn -1.00000000 6.5035359e-17 1.3007072e-16
vn 0.0000000e+0 0.70710678 -0.70710678
vn 0.0000000e+0 0.70710678 -0.70710678
vn -1.00000000 6.5035359e-17 1.3007072e-16
vn 0.0000000e+0 -3.0042419e-17 -1.00000000
vn 0.0000000e+0 -3.0042419e-17 -1.00000000
vn -1.00000000 6.5035359e-17 1.3007072e-16
vn 0.0000000e+0 -0.70710678 -0.70710678
vn 0.0000000e+0 -0.70710678 -0.70710678
vn -1.00000000 6.5035359e-17 1.3007072e-16
vn 0.0000000e+0 -0.98078528 -0.19509032
vn -1.00000000 6.5035359e-17 1.3007072e-16
vn 0.0000000e+0 -0.98078528 -0.19509032
vn 0.0000000e+0 1.00000000 0.0000000e+0
vn -1.00000000 -3.2517680e-17 3.7279783e-17
vn 0.0000000e+0 1.00000000 0.0000000e+0
vn 0.0000000e+0 0.0000000e+0 -1.00000000
vn 0.0000000e+0 1.00000000 0.0000000e+0
vn 0.0000000e+0 1.00000000 0.0000000e+0
vn 1.00000000 0.0000000e+0 -6.5035359e-17
vn 0.0000000e+0 0.0000000e+0 -1.00000000
vn 0.0000000e+0 1.00000000 0.0000000e+0
vn 0.0000000e+0 1.00000000 0.0000000e+0
vn 0.0000000e+0 1.00000000 0.0000000e+0
vn -1.00000000 3.2517680e-17 4.0030336e-17
vn -1.00000000 3.2517680e-17 4.0030336e-17
vn 0.0000000e+0 1.00000000 0.0000000e+0
vn -1.00000000 3.2517680e-17 4.0030336e-17
vn 0.0000000e+0 -1.00000000 0.0000000e+0
vn -1.00000000 3.2517680e-17 4.0030336e-17
vn 0.0000000e+0 -1.00000000 0.0000000e+0
vn -1.5419764e-17 -1.00000000 -7.7114312e-34
vn 1.00000000 0.0000000e+0 -6.5035359e-17
vn -1.5419764e-17 -1.00000000 -7.7114312e-34
vn 0.0000000e+0 0.0000000e+0 -1.00000000
vn -1.5419764e-17 -1.00000000 -7.7114312e-34
vn -1.5419764e-17 -1.00000000 -7.7114312e-34
vn -1.00000000 -3.2517680e-17 3.7279783e-17
vn -1.5419764e-17 -1.00000000 -7.7114312e-34
vn 0.0000000e+0 0.0000000e+0 -1.00000000
vn -1.5419764e-17 -1.00000000 -7.7114312e-34
vn 0.0000000e+0 -1.00000000 0.0000000e+0
vn 1.00000000 -3.2517680e-17 -4.0030336e-17
vn 1.00000000 -3.2517680e-17 -4.0030336e-17
vn 0.0000000e+0 -1.00000000 0.0000000e+0
vn 1.00000000 -3.2517680e-17 -4.0030336e-17
vn 0.0000000e+0 1.00000000 0.0000000e+0
vn 1.00000000 -3.2517680e-17 -4.0030336e-17
vn 0.0000000e+0 1.00000000 0.0000000e+0
vn 0.0000000e+0 0.0000000e+0 1.00000000
vn 1.00000000 0.0000000e+0 5.0010046e-17
vn -2.3129646e-17 -1.00000000 -1.1567147e-33
vn -2.3129646e-17 -1.00000000 -1.1567147e-33
vn 0.0000000e+0 0.0000000e+0 1.00000000
vn 1.00000000 0.0000000e+0 5.0010046e-17
vn 0.0000000e+0 1.00000000 0.0000000e+0
vn 0.0000000e+0 1.00000000 0.0000000e+0
vn 0.0000000e+0 0.0000000e+0 1.00000000
vn -1.00000000 0.0000000e+0 -5.0010046e-17
vn 0.0000000e+0 1.00000000 0.0000000e+0
vn 0.0000000e+0 1.00000000 0.0000000e+0
vn 0.0000000e+0 0.0000000e+0 1.00000000
vn -1.00000000 0.0000000e+0 -5.0010046e-17
vn -2.3129646e-17 -1.00000000 -1.1567147e-33
vn -2.3129646e-17 -1.00000000 -1.1567147e-33
g Tantares_Antenna_1_Base_Tantares_Antenna_1_Base_auv
usemtl Tantares_Antenna_1_Base_auv
s 1
f 1/71/3 22/72/67 25/60/80 2/59/6 3/65/9 4/67/12 5/69/15
f 10/66/30 9/68/27 8/70/24 7/73/21 26/74/85 21/62/62 6/61/18
f 13/48/39 14/50/42 15/52/45 11/56/32 28/57/93 27/43/90 12/45/36
f 17/47/51 18/49/54 19/51/57 20/53/59 24/54/75 23/42/72 16/41/48
f 24/54/77 32/55/110 31/44/106 23/42/73
f 28/57/95 30/58/102 29/46/98 27/43/91
s 2
f 22/75/68 21/76/64 26/64/87 25/63/82
f 30/4/101 31/2/105 32/1/109 29/3/97
s 3
f 2/20/4 20/11/58 19/5/56 3/15/8
f 2/20/5 25/17/79 24/8/76 20/11/60
f 3/15/7 19/5/55 18/12/53 4/19/11
f 4/23/10 18/31/52 17/40/50 5/29/14
f 5/29/13 17/40/49 16/38/46 1/27/1
f 6/22/16 11/14/31 15/10/44 10/16/29
f 6/22/17 21/21/61 28/6/94 11/14/33
f 8/25/22 13/32/37 12/33/34 7/26/19
f 9/24/25 14/35/40 13/32/38 8/25/23
f 10/16/28 15/10/43 14/9/41 9/18/26
f 12/33/35 27/36/89 26/28/84 7/26/20
f 16/38/47 23/39/71 22/30/66 1/27/2
f 21/21/63 30/13/103 28/6/96
f 23/39/74 31/34/108 22/30/70
f 25/17/83 32/7/112 24/8/78
f 27/36/92 29/37/100 26/28/88
f 30/13/104 21/21/65 22/30/69 31/34/107
f 32/7/111 25/17/81 26/28/86 29/37/99
