# Exported from Wings 3D 1.5.4
mtllib Hamal_Control_2_Collider.mtl
o Hamal_Control_2_Collider
#80 vertices, 66 faces
v 0.62500000 -0.11250000 -0.12432023
v 0.62500000 -0.11250000 0.12432023
v 0.52984942 -0.11250000 0.35403406
v 0.35403406 -0.11250000 0.52984942
v 0.12432023 -0.11250000 0.62500000
v -0.12432023 -0.11250000 0.62500000
v -0.35403406 -0.11250000 0.52984942
v -0.52984942 -0.11250000 0.35403406
v -0.62500000 -0.11250000 0.12432023
v -0.62500000 -0.11250000 -0.12432023
v -0.52984942 -0.11250000 -0.35403406
v -0.35403406 -0.11250000 -0.52984942
v -0.12432023 -0.11250000 -0.62500000
v 0.12432023 -0.11250000 -0.62500000
v 0.35403406 -0.11250000 -0.52984942
v 0.52984942 -0.11250000 -0.35403406
v 0.62500000 -0.53750000 -0.12432023
v 0.62500000 -0.53750000 0.12432023
v 0.52984942 -0.53750000 0.35403406
v 0.35403406 -0.53750000 0.52984942
v 0.12432023 -0.53750000 0.62500000
v -0.12432023 -0.53750000 0.62500000
v -0.35403406 -0.53750000 0.52984942
v -0.52984942 -0.53750000 0.35403406
v -0.62500000 -0.53750000 0.12432023
v -0.62500000 -0.53750000 -0.12432023
v -0.52984942 -0.53750000 -0.35403406
v -0.35403406 -0.53750000 -0.52984942
v -0.12432023 -0.53750000 -0.62500000
v 0.12432023 -0.53750000 -0.62500000
v 0.35403406 -0.53750000 -0.52984942
v 0.52984942 -0.53750000 -0.35403406
v 0.46875000 0.53750000 9.3240172e-2
v 0.46875000 0.53750000 -9.3240172e-2
v 0.39738706 0.53750000 -0.26552555
v 0.26552555 0.53750000 -0.39738706
v 9.3240172e-2 0.53750000 -0.46875000
v -9.3240172e-2 0.53750000 -0.46875000
v -0.26552555 0.53750000 -0.39738706
v -0.39738706 0.53750000 -0.26552555
v -0.46875000 0.53750000 -9.3240172e-2
v -0.46875000 0.53750000 9.3240172e-2
v -0.39738706 0.53750000 0.26552555
v -0.26552555 0.53750000 0.39738706
v -9.3240172e-2 0.53750000 0.46875000
v 9.3240172e-2 0.53750000 0.46875000
v 0.26552555 0.53750000 0.39738706
v 0.39738706 0.53750000 0.26552555
v 0.51344701 0.11234710 0.34307432
v 0.34307432 0.11234710 0.51344701
v 0.12047168 0.11234710 0.60565204
v -0.12047168 0.11234710 0.60565204
v -0.34307432 0.11234710 0.51344701
v -0.51344701 0.11234710 0.34307432
v -0.60565204 0.11234710 0.12047168
v -0.60565204 0.11234710 -0.12047168
v -0.51344701 0.11234710 -0.34307432
v -0.34307432 0.11234710 -0.51344701
v -0.12047168 0.11234710 -0.60565204
v 0.12047168 0.11234710 -0.60565204
v 0.34307432 0.11234710 -0.51344701
v 0.51344701 0.11234710 -0.34307432
v 0.60565204 0.11234710 -0.12047168
v 0.60565204 0.11234710 0.12047168
v 0.55356870 0.32901376 0.11011166
v 0.55356870 0.32901376 -0.11011166
v 0.46929289 0.32901376 -0.31357148
v 0.31357148 0.32901376 -0.46929289
v 0.11011166 0.32901376 -0.55356870
v -0.11011166 0.32901376 -0.55356870
v -0.31357148 0.32901376 -0.46929289
v -0.46929289 0.32901376 -0.31357148
v -0.55356870 0.32901376 -0.11011166
v -0.55356870 0.32901376 0.11011166
v -0.46929289 0.32901376 0.31357148
v -0.31357148 0.32901376 0.46929289
v -0.11011166 0.32901376 0.55356870
v 0.11011166 0.32901376 0.55356870
v 0.31357148 0.32901376 0.46929289
v 0.46929289 0.32901376 0.31357148
vn 0.92387953 0.0000000e+0 -0.38268343
vn 1.00000000 0.0000000e+0 0.0000000e+0
vn 0.99631818 8.5732602e-2 0.0000000e+0
vn 0.92047798 8.5732602e-2 -0.38127446
vn 0.92387953 0.0000000e+0 0.38268343
vn 1.00000000 0.0000000e+0 0.0000000e+0
vn 0.99631818 8.5732602e-2 0.0000000e+0
vn 0.92047798 8.5732602e-2 0.38127446
vn 0.70710678 0.0000000e+0 0.70710678
vn 0.92387953 0.0000000e+0 0.38268343
vn 0.70450334 8.5732602e-2 0.70450334
vn 0.92047798 8.5732602e-2 0.38127446
vn 0.38268343 0.0000000e+0 0.92387953
vn 0.70710678 0.0000000e+0 0.70710678
vn 0.38127446 8.5732602e-2 0.92047798
vn 0.70450334 8.5732602e-2 0.70450334
vn 0.0000000e+0 0.0000000e+0 1.00000000
vn 0.38268343 0.0000000e+0 0.92387953
vn 0.0000000e+0 8.5732602e-2 0.99631818
vn 0.38127446 8.5732602e-2 0.92047798
vn -0.38268343 0.0000000e+0 0.92387953
vn 0.0000000e+0 0.0000000e+0 1.00000000
vn -0.38127446 8.5732602e-2 0.92047798
vn 0.0000000e+0 8.5732602e-2 0.99631818
vn -0.70710678 0.0000000e+0 0.70710678
vn -0.38268343 0.0000000e+0 0.92387953
vn -0.70450334 8.5732602e-2 0.70450334
vn -0.38127446 8.5732602e-2 0.92047798
vn -0.92387953 0.0000000e+0 0.38268343
vn -0.70710678 0.0000000e+0 0.70710678
vn -0.92047798 8.5732602e-2 0.38127446
vn -0.70450334 8.5732602e-2 0.70450334
vn -1.00000000 0.0000000e+0 0.0000000e+0
vn -0.92387953 0.0000000e+0 0.38268343
vn -0.99631818 8.5732602e-2 0.0000000e+0
vn -0.92047798 8.5732602e-2 0.38127446
vn -0.92387953 0.0000000e+0 -0.38268343
vn -1.00000000 0.0000000e+0 0.0000000e+0
vn -0.92047798 8.5732602e-2 -0.38127446
vn -0.99631818 8.5732602e-2 0.0000000e+0
vn -0.70710678 0.0000000e+0 -0.70710678
vn -0.92387953 0.0000000e+0 -0.38268343
vn -0.70450334 8.5732602e-2 -0.70450334
vn -0.92047798 8.5732602e-2 -0.38127446
vn -0.38268343 0.0000000e+0 -0.92387953
vn -0.70710678 0.0000000e+0 -0.70710678
vn -0.38127446 8.5732602e-2 -0.92047798
vn -0.70450334 8.5732602e-2 -0.70450334
vn 0.0000000e+0 0.0000000e+0 -1.00000000
vn -0.38268343 0.0000000e+0 -0.92387953
vn 0.0000000e+0 8.5732602e-2 -0.99631818
vn -0.38127446 8.5732602e-2 -0.92047798
vn 0.38268343 0.0000000e+0 -0.92387953
vn 0.0000000e+0 0.0000000e+0 -1.00000000
vn 0.38127446 8.5732602e-2 -0.92047798
vn 0.0000000e+0 8.5732602e-2 -0.99631818
vn 0.70710678 0.0000000e+0 -0.70710678
vn 0.38268343 0.0000000e+0 -0.92387953
vn 0.70450334 8.5732602e-2 -0.70450334
vn 0.38127446 8.5732602e-2 -0.92047798
vn 0.92387953 0.0000000e+0 -0.38268343
vn 0.70710678 0.0000000e+0 -0.70710678
vn 0.92047798 8.5732602e-2 -0.38127446
vn 0.70450334 8.5732602e-2 -0.70450334
vn 0.0000000e+0 -1.00000000 1.0046643e-16
vn 0.92387953 0.0000000e+0 -0.38268343
vn 1.00000000 0.0000000e+0 0.0000000e+0
vn 0.0000000e+0 -1.00000000 1.0046643e-16
vn 0.92387953 0.0000000e+0 0.38268343
vn 1.00000000 0.0000000e+0 0.0000000e+0
vn 0.0000000e+0 -1.00000000 1.0046643e-16
vn 0.70710678 0.0000000e+0 0.70710678
vn 0.92387953 0.0000000e+0 0.38268343
vn 0.0000000e+0 -1.00000000 1.0046643e-16
vn 0.38268343 0.0000000e+0 0.92387953
vn 0.70710678 0.0000000e+0 0.70710678
vn 0.0000000e+0 -1.00000000 1.0046643e-16
vn 0.0000000e+0 0.0000000e+0 1.00000000
vn 0.38268343 0.0000000e+0 0.92387953
vn 0.0000000e+0 -1.00000000 1.0046643e-16
vn -0.38268343 0.0000000e+0 0.92387953
vn 0.0000000e+0 0.0000000e+0 1.00000000
vn 0.0000000e+0 -1.00000000 1.0046643e-16
vn -0.70710678 0.0000000e+0 0.70710678
vn -0.38268343 0.0000000e+0 0.92387953
vn 0.0000000e+0 -1.00000000 1.0046643e-16
vn -0.92387953 0.0000000e+0 0.38268343
vn -0.70710678 0.0000000e+0 0.70710678
vn 0.0000000e+0 -1.00000000 1.0046643e-16
vn -1.00000000 0.0000000e+0 0.0000000e+0
vn -0.92387953 0.0000000e+0 0.38268343
vn 0.0000000e+0 -1.00000000 1.0046643e-16
vn -0.92387953 0.0000000e+0 -0.38268343
vn -1.00000000 0.0000000e+0 0.0000000e+0
vn 0.0000000e+0 -1.00000000 1.0046643e-16
vn -0.70710678 0.0000000e+0 -0.70710678
vn -0.92387953 0.0000000e+0 -0.38268343
vn 0.0000000e+0 -1.00000000 1.0046643e-16
vn -0.38268343 0.0000000e+0 -0.92387953
vn -0.70710678 0.0000000e+0 -0.70710678
vn 0.0000000e+0 -1.00000000 1.0046643e-16
vn 0.0000000e+0 0.0000000e+0 -1.00000000
vn -0.38268343 0.0000000e+0 -0.92387953
vn 0.0000000e+0 -1.00000000 1.0046643e-16
vn 0.38268343 0.0000000e+0 -0.92387953
vn 0.0000000e+0 0.0000000e+0 -1.00000000
vn 0.0000000e+0 -1.00000000 1.0046643e-16
vn 0.70710678 0.0000000e+0 -0.70710678
vn 0.38268343 0.0000000e+0 -0.92387953
vn 0.0000000e+0 -1.00000000 1.0046643e-16
vn 0.92387953 0.0000000e+0 -0.38268343
vn 0.70710678 0.0000000e+0 -0.70710678
vn 0.0000000e+0 1.00000000 4.9613049e-17
vn 0.92627874 0.37683908 0.0000000e+0
vn 0.85576997 0.37683908 0.35447153
vn 0.0000000e+0 1.00000000 4.9613049e-17
vn 0.92627874 0.37683908 0.0000000e+0
vn 0.85576997 0.37683908 -0.35447153
vn 0.0000000e+0 1.00000000 4.9613049e-17
vn 0.85576997 0.37683908 -0.35447153
vn 0.65497798 0.37683908 -0.65497798
vn 0.0000000e+0 1.00000000 4.9613049e-17
vn 0.65497798 0.37683908 -0.65497798
vn 0.35447153 0.37683908 -0.85576997
vn 0.0000000e+0 1.00000000 4.9613049e-17
vn 0.35447153 0.37683908 -0.85576997
vn 0.0000000e+0 0.37683908 -0.92627874
vn 0.0000000e+0 1.00000000 4.9613049e-17
vn 0.0000000e+0 0.37683908 -0.92627874
vn -0.35447153 0.37683908 -0.85576997
vn 0.0000000e+0 1.00000000 4.9613049e-17
vn -0.35447153 0.37683908 -0.85576997
vn -0.65497798 0.37683908 -0.65497798
vn 0.0000000e+0 1.00000000 4.9613049e-17
vn -0.65497798 0.37683908 -0.65497798
vn -0.85576997 0.37683908 -0.35447153
vn 0.0000000e+0 1.00000000 4.9613049e-17
vn -0.85576997 0.37683908 -0.35447153
vn -0.92627874 0.37683908 0.0000000e+0
vn 0.0000000e+0 1.00000000 4.9613049e-17
vn -0.92627874 0.37683908 0.0000000e+0
vn -0.85576997 0.37683908 0.35447153
vn 0.0000000e+0 1.00000000 4.9613049e-17
vn -0.85576997 0.37683908 0.35447153
vn -0.65497798 0.37683908 0.65497798
vn 0.0000000e+0 1.00000000 4.9613049e-17
vn -0.65497798 0.37683908 0.65497798
vn -0.35447153 0.37683908 0.85576997
vn 0.0000000e+0 1.00000000 4.9613049e-17
vn -0.35447153 0.37683908 0.85576997
vn 0.0000000e+0 0.37683908 0.92627874
vn 0.0000000e+0 1.00000000 4.9613049e-17
vn 0.0000000e+0 0.37683908 0.92627874
vn 0.35447153 0.37683908 0.85576997
vn 0.0000000e+0 1.00000000 4.9613049e-17
vn 0.35447153 0.37683908 0.85576997
vn 0.65497798 0.37683908 0.65497798
vn 0.0000000e+0 1.00000000 4.9613049e-17
vn 0.65497798 0.37683908 0.65497798
vn 0.85576997 0.37683908 0.35447153
vn 0.68752160 0.23372653 0.68752160
vn 0.89829026 0.23372653 0.37208401
vn 0.70450334 8.5732602e-2 0.70450334
vn 0.92047798 8.5732602e-2 0.38127446
vn 0.37208401 0.23372653 0.89829026
vn 0.68752160 0.23372653 0.68752160
vn 0.38127446 8.5732602e-2 0.92047798
vn 0.70450334 8.5732602e-2 0.70450334
vn 0.0000000e+0 0.23372653 0.97230237
vn 0.37208401 0.23372653 0.89829026
vn 0.0000000e+0 8.5732602e-2 0.99631818
vn 0.38127446 8.5732602e-2 0.92047798
vn -0.37208401 0.23372653 0.89829026
vn 0.0000000e+0 0.23372653 0.97230237
vn -0.38127446 8.5732602e-2 0.92047798
vn 0.0000000e+0 8.5732602e-2 0.99631818
vn -0.68752160 0.23372653 0.68752160
vn -0.37208401 0.23372653 0.89829026
vn -0.70450334 8.5732602e-2 0.70450334
vn -0.38127446 8.5732602e-2 0.92047798
vn -0.89829026 0.23372653 0.37208401
vn -0.68752160 0.23372653 0.68752160
vn -0.92047798 8.5732602e-2 0.38127446
vn -0.70450334 8.5732602e-2 0.70450334
vn -0.97230237 0.23372653 0.0000000e+0
vn -0.89829026 0.23372653 0.37208401
vn -0.99631818 8.5732602e-2 0.0000000e+0
vn -0.92047798 8.5732602e-2 0.38127446
vn -0.89829026 0.23372653 -0.37208401
vn -0.97230237 0.23372653 0.0000000e+0
vn -0.92047798 8.5732602e-2 -0.38127446
vn -0.99631818 8.5732602e-2 0.0000000e+0
vn -0.68752160 0.23372653 -0.68752160
vn -0.89829026 0.23372653 -0.37208401
vn -0.70450334 8.5732602e-2 -0.70450334
vn -0.92047798 8.5732602e-2 -0.38127446
vn -0.37208401 0.23372653 -0.89829026
vn -0.68752160 0.23372653 -0.68752160
vn -0.38127446 8.5732602e-2 -0.92047798
vn -0.70450334 8.5732602e-2 -0.70450334
vn 0.0000000e+0 0.23372653 -0.97230237
vn -0.37208401 0.23372653 -0.89829026
vn 0.0000000e+0 8.5732602e-2 -0.99631818
vn -0.38127446 8.5732602e-2 -0.92047798
vn 0.37208401 0.23372653 -0.89829026
vn 0.0000000e+0 0.23372653 -0.97230237
vn 0.38127446 8.5732602e-2 -0.92047798
vn 0.0000000e+0 8.5732602e-2 -0.99631818
vn 0.68752160 0.23372653 -0.68752160
vn 0.37208401 0.23372653 -0.89829026
vn 0.70450334 8.5732602e-2 -0.70450334
vn 0.38127446 8.5732602e-2 -0.92047798
vn 0.89829026 0.23372653 -0.37208401
vn 0.68752160 0.23372653 -0.68752160
vn 0.92047798 8.5732602e-2 -0.38127446
vn 0.70450334 8.5732602e-2 -0.70450334
vn 0.97230237 0.23372653 0.0000000e+0
vn 0.89829026 0.23372653 -0.37208401
vn 0.99631818 8.5732602e-2 0.0000000e+0
vn 0.92047798 8.5732602e-2 -0.38127446
vn 0.97230237 0.23372653 0.0000000e+0
vn 0.89829026 0.23372653 0.37208401
vn 0.99631818 8.5732602e-2 0.0000000e+0
vn 0.92047798 8.5732602e-2 0.38127446
vn 0.97230237 0.23372653 0.0000000e+0
vn 0.89829026 0.23372653 0.37208401
vn 0.92627874 0.37683908 0.0000000e+0
vn 0.85576997 0.37683908 0.35447153
vn 0.97230237 0.23372653 0.0000000e+0
vn 0.89829026 0.23372653 -0.37208401
vn 0.92627874 0.37683908 0.0000000e+0
vn 0.85576997 0.37683908 -0.35447153
vn 0.89829026 0.23372653 -0.37208401
vn 0.68752160 0.23372653 -0.68752160
vn 0.85576997 0.37683908 -0.35447153
vn 0.65497798 0.37683908 -0.65497798
vn 0.68752160 0.23372653 -0.68752160
vn 0.37208401 0.23372653 -0.89829026
vn 0.65497798 0.37683908 -0.65497798
vn 0.35447153 0.37683908 -0.85576997
vn 0.37208401 0.23372653 -0.89829026
vn 0.0000000e+0 0.23372653 -0.97230237
vn 0.35447153 0.37683908 -0.85576997
vn 0.0000000e+0 0.37683908 -0.92627874
vn 0.0000000e+0 0.23372653 -0.97230237
vn -0.37208401 0.23372653 -0.89829026
vn 0.0000000e+0 0.37683908 -0.92627874
vn -0.35447153 0.37683908 -0.85576997
vn -0.37208401 0.23372653 -0.89829026
vn -0.68752160 0.23372653 -0.68752160
vn -0.35447153 0.37683908 -0.85576997
vn -0.65497798 0.37683908 -0.65497798
vn -0.68752160 0.23372653 -0.68752160
vn -0.89829026 0.23372653 -0.37208401
vn -0.65497798 0.37683908 -0.65497798
vn -0.85576997 0.37683908 -0.35447153
vn -0.89829026 0.23372653 -0.37208401
vn -0.97230237 0.23372653 0.0000000e+0
vn -0.85576997 0.37683908 -0.35447153
vn -0.92627874 0.37683908 0.0000000e+0
vn -0.97230237 0.23372653 0.0000000e+0
vn -0.89829026 0.23372653 0.37208401
vn -0.92627874 0.37683908 0.0000000e+0
vn -0.85576997 0.37683908 0.35447153
vn -0.89829026 0.23372653 0.37208401
vn -0.68752160 0.23372653 0.68752160
vn -0.85576997 0.37683908 0.35447153
vn -0.65497798 0.37683908 0.65497798
vn -0.68752160 0.23372653 0.68752160
vn -0.37208401 0.23372653 0.89829026
vn -0.65497798 0.37683908 0.65497798
vn -0.35447153 0.37683908 0.85576997
vn -0.37208401 0.23372653 0.89829026
vn 0.0000000e+0 0.23372653 0.97230237
vn -0.35447153 0.37683908 0.85576997
vn 0.0000000e+0 0.37683908 0.92627874
vn 0.0000000e+0 0.23372653 0.97230237
vn 0.37208401 0.23372653 0.89829026
vn 0.0000000e+0 0.37683908 0.92627874
vn 0.35447153 0.37683908 0.85576997
vn 0.37208401 0.23372653 0.89829026
vn 0.68752160 0.23372653 0.68752160
vn 0.35447153 0.37683908 0.85576997
vn 0.65497798 0.37683908 0.65497798
vn 0.68752160 0.23372653 0.68752160
vn 0.89829026 0.23372653 0.37208401
vn 0.65497798 0.37683908 0.65497798
vn 0.85576997 0.37683908 0.35447153
g Hamal_Control_2_Collider_default
usemtl default
s 1
f 1//1 17//66 32//111 16//61
f 3//10 19//73 18//69 2//5
f 3//11 49//163 50//168 4//16
f 5//18 21//79 20//75 4//13
f 7//26 23//85 22//81 6//21
f 9//34 25//91 24//87 8//29
f 9//35 55//187 56//192 10//40
f 12//46 28//100 27//96 11//41
f 12//47 58//199 59//204 13//52
f 14//54 30//106 29//102 13//49
f 14//55 60//207 61//212 15//60
f 34//118 66//232 67//235 35//120
f 36//124 68//240 69//243 37//126
f 38//130 70//248 71//251 39//132
f 40//136 72//256 73//259 41//138
f 42//142 74//264 75//267 43//144
f 44//148 76//272 77//275 45//150
f 46//154 78//280 79//283 47//156
f 48//160 80//288 65//228 33//115
f 66//229 65//225 64//221 63//217
f 68//237 67//234 62//214 61//209
f 70//245 69//242 60//206 59//201
f 72//253 71//250 58//198 57//193
f 76//269 75//266 54//182 53//177
f 78//277 77//274 52//174 51//169
s 2
f 2//6 18//70 17//67 1//2
f 4//14 20//76 19//72 3//9
f 5//19 51//171 52//176 6//24
f 7//27 53//179 54//184 8//32
f 10//38 26//94 25//90 9//33
f 10//39 56//191 57//196 11//44
f 13//50 29//103 28//99 12//45
f 13//51 59//203 60//208 14//56
f 15//58 31//109 30//105 14//53
f 15//59 61//211 62//216 16//64
f 34//116 35//119 36//122 37//125 38//128 39//131 40//134 41//137 42//140 43//143 44//146 45//149 46//152 47//155 48//158 33//113
f 49//162 64//222 65//226 80//286
f 67//233 66//230 63//218 62//213
f 69//241 68//238 61//210 60//205
f 71//249 70//246 59//202 58//197
f 75//265 74//262 55//186 54//181
f 77//273 76//270 53//178 52//173
f 79//281 78//278 51//170 50//165
s 3
f 2//8 64//224 49//164 3//12
f 4//15 50//167 51//172 5//20
f 6//22 22//82 21//78 5//17
f 6//23 52//175 53//180 7//28
f 8//30 24//88 23//84 7//25
f 8//31 54//183 55//188 9//36
f 11//42 27//97 26//93 10//37
f 11//43 57//195 58//200 12//48
f 16//62 32//112 31//108 15//57
f 16//63 62//215 63//220 1//4
f 33//114 65//227 66//231 34//117
f 35//121 67//236 68//239 36//123
f 37//127 69//244 70//247 38//129
f 39//133 71//252 72//255 40//135
f 43//145 75//268 76//271 44//147
f 45//151 77//276 78//279 46//153
f 74//261 73//258 56//190 55//185
f 80//285 79//282 50//166 49//161
s 4
f 1//3 63//219 64//223 2//7
f 18//68 19//71 20//74 21//77 22//80 23//83 24//86 25//89 26//92 27//95 28//98 29//101 30//104 31//107 32//110 17//65
f 41//139 73//260 74//263 42//141
f 47//157 79//284 80//287 48//159
f 73//257 72//254 57//194 56//189
