# Exported from Wings 3D 1.5.4
mtllib hamal_cargo_module_s1_1_ex_collider.mtl
o collider
#32 vertices, 18 faces
v 0.93750000 1.00000000 -0.18648034
v 0.93750000 1.00000000 0.18648034
v 0.79477412 1.00000000 0.53105109
v 0.53105109 1.00000000 0.79477412
v 0.18648034 1.00000000 0.93750000
v -0.18648034 1.00000000 0.93750000
v -0.53105109 1.00000000 0.79477412
v -0.79477412 1.00000000 0.53105109
v -0.93750000 1.00000000 0.18648034
v -0.93750000 1.00000000 -0.18648034
v -0.79477412 1.00000000 -0.53105109
v -0.53105109 1.00000000 -0.79477412
v -0.18648034 1.00000000 -0.93750000
v 0.18648034 1.00000000 -0.93750000
v 0.53105109 1.00000000 -0.79477412
v 0.79477412 1.00000000 -0.53105109
v 0.93750000 -0.75000000 -0.18648034
v 0.93750000 -0.75000000 0.18648034
v 0.79477412 -0.75000000 0.53105109
v 0.53105109 -0.75000000 0.79477412
v 0.18648034 -0.75000000 0.93750000
v -0.18648034 -0.75000000 0.93750000
v -0.53105109 -0.75000000 0.79477412
v -0.79477412 -0.75000000 0.53105109
v -0.93750000 -0.75000000 0.18648034
v -0.93750000 -0.75000000 -0.18648034
v -0.79477412 -0.75000000 -0.53105109
v -0.53105109 -0.75000000 -0.79477412
v -0.18648034 -0.75000000 -0.93750000
v 0.18648034 -0.75000000 -0.93750000
v 0.53105109 -0.75000000 -0.79477412
v 0.79477412 -0.75000000 -0.53105109
vn 0.92387953 0.0000000e+0 -0.38268343
vn 1.00000000 0.0000000e+0 0.0000000e+0
vn 0.0000000e+0 1.00000000 0.0000000e+0
vn 0.92387953 0.0000000e+0 0.38268343
vn 1.00000000 0.0000000e+0 0.0000000e+0
vn 0.0000000e+0 1.00000000 0.0000000e+0
vn 0.70710678 0.0000000e+0 0.70710678
vn 0.92387953 0.0000000e+0 0.38268343
vn 0.0000000e+0 1.00000000 0.0000000e+0
vn 0.38268343 0.0000000e+0 0.92387953
vn 0.70710678 0.0000000e+0 0.70710678
vn 0.0000000e+0 1.00000000 0.0000000e+0
vn -2.9767830e-16 0.0000000e+0 1.00000000
vn 0.38268343 0.0000000e+0 0.92387953
vn 0.0000000e+0 1.00000000 0.0000000e+0
vn -0.38268343 0.0000000e+0 0.92387953
vn -2.9767830e-16 0.0000000e+0 1.00000000
vn 0.0000000e+0 1.00000000 0.0000000e+0
vn -0.70710678 0.0000000e+0 0.70710678
vn -0.38268343 0.0000000e+0 0.92387953
vn 0.0000000e+0 1.00000000 0.0000000e+0
vn -0.92387953 0.0000000e+0 0.38268343
vn -0.70710678 0.0000000e+0 0.70710678
vn 0.0000000e+0 1.00000000 0.0000000e+0
vn -1.00000000 0.0000000e+0 0.0000000e+0
vn -0.92387953 0.0000000e+0 0.38268343
vn 0.0000000e+0 1.00000000 0.0000000e+0
vn -0.92387953 0.0000000e+0 -0.38268343
vn -1.00000000 0.0000000e+0 0.0000000e+0
vn 0.0000000e+0 1.00000000 0.0000000e+0
vn -0.70710678 0.0000000e+0 -0.70710678
vn -0.92387953 0.0000000e+0 -0.38268343
vn 0.0000000e+0 1.00000000 0.0000000e+0
vn -0.38268343 0.0000000e+0 -0.92387953
vn -0.70710678 0.0000000e+0 -0.70710678
vn 0.0000000e+0 1.00000000 0.0000000e+0
vn 2.9767830e-16 0.0000000e+0 -1.00000000
vn -0.38268343 0.0000000e+0 -0.92387953
vn 0.0000000e+0 1.00000000 0.0000000e+0
vn 0.38268343 0.0000000e+0 -0.92387953
vn 2.9767830e-16 0.0000000e+0 -1.00000000
vn 0.0000000e+0 1.00000000 0.0000000e+0
vn 0.70710678 0.0000000e+0 -0.70710678
vn 0.38268343 0.0000000e+0 -0.92387953
vn 0.0000000e+0 1.00000000 0.0000000e+0
vn 0.92387953 0.0000000e+0 -0.38268343
vn 0.70710678 0.0000000e+0 -0.70710678
vn 0.0000000e+0 1.00000000 0.0000000e+0
vn 0.0000000e+0 -1.00000000 1.9845220e-17
vn 0.92387953 0.0000000e+0 -0.38268343
vn 1.00000000 0.0000000e+0 0.0000000e+0
vn 0.0000000e+0 -1.00000000 1.9845220e-17
vn 0.92387953 0.0000000e+0 0.38268343
vn 1.00000000 0.0000000e+0 0.0000000e+0
vn 0.0000000e+0 -1.00000000 1.9845220e-17
vn 0.70710678 0.0000000e+0 0.70710678
vn 0.92387953 0.0000000e+0 0.38268343
vn 0.0000000e+0 -1.00000000 1.9845220e-17
vn 0.38268343 0.0000000e+0 0.92387953
vn 0.70710678 0.0000000e+0 0.70710678
vn 0.0000000e+0 -1.00000000 1.9845220e-17
vn -2.9767830e-16 0.0000000e+0 1.00000000
vn 0.38268343 0.0000000e+0 0.92387953
vn 0.0000000e+0 -1.00000000 1.9845220e-17
vn -0.38268343 0.0000000e+0 0.92387953
vn -2.9767830e-16 0.0000000e+0 1.00000000
vn 0.0000000e+0 -1.00000000 1.9845220e-17
vn -0.70710678 0.0000000e+0 0.70710678
vn -0.38268343 0.0000000e+0 0.92387953
vn 0.0000000e+0 -1.00000000 1.9845220e-17
vn -0.92387953 0.0000000e+0 0.38268343
vn -0.70710678 0.0000000e+0 0.70710678
vn 0.0000000e+0 -1.00000000 1.9845220e-17
vn -1.00000000 0.0000000e+0 0.0000000e+0
vn -0.92387953 0.0000000e+0 0.38268343
vn 0.0000000e+0 -1.00000000 1.9845220e-17
vn -0.92387953 0.0000000e+0 -0.38268343
vn -1.00000000 0.0000000e+0 0.0000000e+0
vn 0.0000000e+0 -1.00000000 1.9845220e-17
vn -0.70710678 0.0000000e+0 -0.70710678
vn -0.92387953 0.0000000e+0 -0.38268343
vn 0.0000000e+0 -1.00000000 1.9845220e-17
vn -0.38268343 0.0000000e+0 -0.92387953
vn -0.70710678 0.0000000e+0 -0.70710678
vn 0.0000000e+0 -1.00000000 1.9845220e-17
vn 2.9767830e-16 0.0000000e+0 -1.00000000
vn -0.38268343 0.0000000e+0 -0.92387953
vn 0.0000000e+0 -1.00000000 1.9845220e-17
vn 0.38268343 0.0000000e+0 -0.92387953
vn 2.9767830e-16 0.0000000e+0 -1.00000000
vn 0.0000000e+0 -1.00000000 1.9845220e-17
vn 0.70710678 0.0000000e+0 -0.70710678
vn 0.38268343 0.0000000e+0 -0.92387953
vn 0.0000000e+0 -1.00000000 1.9845220e-17
vn 0.92387953 0.0000000e+0 -0.38268343
vn 0.70710678 0.0000000e+0 -0.70710678
g collider_default
usemtl default
s 1
f 2//5 18//54 17//51 1//2
f 4//11 20//60 19//56 3//7
f 6//17 22//66 21//62 5//13
f 8//23 24//72 23//68 7//19
f 11//32 27//81 26//77 10//28
f 13//38 29//87 28//83 12//34
f 16//47 32//96 31//92 15//43
s 2
f 1//1 17//50 32//95 16//46
f 3//8 19//57 18//53 2//4
f 5//14 21//63 20//59 4//10
f 7//20 23//69 22//65 6//16
f 9//26 25//75 24//71 8//22
f 12//35 28//84 27//80 11//31
f 14//41 30//90 29//86 13//37
s 3
f 1//3 16//48 15//45 14//42 13//39 12//36 11//33 10//30 9//27 8//24 7//21 6//18 5//15 4//12 3//9 2//6
f 18//52 19//55 20//58 21//61 22//64 23//67 24//70 25//73 26//76 27//79 28//82 29//85 30//88 31//91 32//94 17//49
s 4
f 10//29 26//78 25//74 9//25
f 15//44 31//93 30//89 14//40
