# Exported from Wings 3D 1.5.4
mtllib hamal_avionics_s1_1_collider.mtl
o collider
#48 vertices, 34 faces
v 0.62500000 -0.68750000 -0.12432023
v 0.62500000 -0.68750000 0.12432023
v 0.52984942 -0.68750000 0.35403406
v 0.35403406 -0.68750000 0.52984942
v 0.12432023 -0.68750000 0.62500000
v -0.12432023 -0.68750000 0.62500000
v -0.35403406 -0.68750000 0.52984942
v -0.52984942 -0.68750000 0.35403406
v -0.62500000 -0.68750000 0.12432023
v -0.62500000 -0.68750000 -0.12432023
v -0.52984942 -0.68750000 -0.35403406
v -0.35403406 -0.68750000 -0.52984942
v -0.12432023 -0.68750000 -0.62500000
v 0.12432023 -0.68750000 -0.62500000
v 0.35403406 -0.68750000 -0.52984942
v 0.52984942 -0.68750000 -0.35403406
v 0.62500000 0.10000000 0.12432023
v 0.62500000 0.10000000 -0.12432023
v 0.52984942 0.10000000 -0.35403406
v 0.35403406 0.10000000 -0.52984942
v 0.12432023 0.10000000 -0.62500000
v -0.12432023 0.10000000 -0.62500000
v -0.35403406 0.10000000 -0.52984942
v -0.52984942 0.10000000 -0.35403406
v -0.62500000 0.10000000 -0.12432023
v -0.62500000 0.10000000 0.12432023
v -0.52984942 0.10000000 0.35403406
v -0.35403406 0.10000000 0.52984942
v -0.12432023 0.10000000 0.62500000
v 0.12432023 0.10000000 0.62500000
v 0.35403406 0.10000000 0.52984942
v 0.52984942 0.10000000 0.35403406
v 0.46875000 0.68750000 9.3240172e-2
v 0.46875000 0.68750000 -9.3240172e-2
v 0.39738706 0.68750000 -0.26552555
v 0.26552555 0.68750000 -0.39738706
v 9.3240172e-2 0.68750000 -0.46875000
v -9.3240172e-2 0.68750000 -0.46875000
v -0.26552555 0.68750000 -0.39738706
v -0.39738706 0.68750000 -0.26552555
v -0.46875000 0.68750000 -9.3240172e-2
v -0.46875000 0.68750000 9.3240172e-2
v -0.39738706 0.68750000 0.26552555
v -0.26552555 0.68750000 0.39738706
v -9.3240172e-2 0.68750000 0.46875000
v 9.3240172e-2 0.68750000 0.46875000
v 0.26552555 0.68750000 0.39738706
v 0.39738706 0.68750000 0.26552555
vn 1.00000000 0.0000000e+0 0.0000000e+0
vn 0.0000000e+0 -1.00000000 -1.1162936e-17
vn 0.92387954 0.0000000e+0 -0.38268342
vn 1.00000000 0.0000000e+0 0.0000000e+0
vn 0.92387954 0.0000000e+0 0.38268342
vn 0.0000000e+0 -1.00000000 -1.1162936e-17
vn 0.70710678 0.0000000e+0 0.70710678
vn 0.92387954 0.0000000e+0 0.38268342
vn 0.0000000e+0 -1.00000000 -1.1162936e-17
vn 0.70710678 0.0000000e+0 0.70710678
vn 0.0000000e+0 -1.00000000 -1.1162936e-17
vn 0.38268342 0.0000000e+0 0.92387954
vn 0.0000000e+0 0.0000000e+0 1.00000000
vn 0.0000000e+0 -1.00000000 -1.1162936e-17
vn 0.38268342 0.0000000e+0 0.92387954
vn 0.0000000e+0 0.0000000e+0 1.00000000
vn 0.0000000e+0 -1.00000000 -1.1162936e-17
vn -0.38268342 0.0000000e+0 0.92387954
vn -0.70710678 0.0000000e+0 0.70710678
vn 0.0000000e+0 -1.00000000 -1.1162936e-17
vn -0.38268342 0.0000000e+0 0.92387954
vn -0.70710678 0.0000000e+0 0.70710678
vn -0.92387954 0.0000000e+0 0.38268342
vn 0.0000000e+0 -1.00000000 -1.1162936e-17
vn -1.00000000 0.0000000e+0 0.0000000e+0
vn -0.92387954 0.0000000e+0 0.38268342
vn 0.0000000e+0 -1.00000000 -1.1162936e-17
vn -1.00000000 0.0000000e+0 0.0000000e+0
vn -0.92387954 0.0000000e+0 -0.38268342
vn 0.0000000e+0 -1.00000000 -1.1162936e-17
vn -0.92387954 0.0000000e+0 -0.38268342
vn 0.0000000e+0 -1.00000000 -1.1162936e-17
vn -0.70710678 0.0000000e+0 -0.70710678
vn -0.38268342 0.0000000e+0 -0.92387954
vn 0.0000000e+0 -1.00000000 -1.1162936e-17
vn -0.70710678 0.0000000e+0 -0.70710678
vn -0.38268342 0.0000000e+0 -0.92387954
vn 0.0000000e+0 0.0000000e+0 -1.00000000
vn 0.0000000e+0 -1.00000000 -1.1162936e-17
vn 0.38268342 0.0000000e+0 -0.92387954
vn 0.0000000e+0 0.0000000e+0 -1.00000000
vn 0.0000000e+0 -1.00000000 -1.1162936e-17
vn 0.38268342 0.0000000e+0 -0.92387954
vn 0.70710678 0.0000000e+0 -0.70710678
vn 0.0000000e+0 -1.00000000 -1.1162936e-17
vn 0.70710678 0.0000000e+0 -0.70710678
vn 0.0000000e+0 -1.00000000 -1.1162936e-17
vn 0.92387954 0.0000000e+0 -0.38268342
vn 1.00000000 0.0000000e+0 0.0000000e+0
vn 0.89284214 0.25702271 0.36982731
vn 0.92387954 0.0000000e+0 0.38268342
vn 0.96640537 0.25702270 0.0000000e+0
vn 1.00000000 0.0000000e+0 0.0000000e+0
vn 0.89284214 0.25702271 -0.36982731
vn 0.96640537 0.25702270 0.0000000e+0
vn 0.92387954 0.0000000e+0 -0.38268342
vn 0.89284214 0.25702271 -0.36982731
vn 0.70710678 0.0000000e+0 -0.70710678
vn 0.68335179 0.25702270 -0.68335179
vn 0.92387954 0.0000000e+0 -0.38268342
vn 0.38268342 0.0000000e+0 -0.92387954
vn 0.70710678 0.0000000e+0 -0.70710678
vn 0.36982731 0.25702271 -0.89284214
vn 0.68335179 0.25702270 -0.68335179
vn 0.38268342 0.0000000e+0 -0.92387954
vn 0.0000000e+0 0.25702270 -0.96640537
vn 0.0000000e+0 0.0000000e+0 -1.00000000
vn 0.36982731 0.25702271 -0.89284214
vn -0.38268342 0.0000000e+0 -0.92387954
vn 0.0000000e+0 0.25702270 -0.96640537
vn 0.0000000e+0 0.0000000e+0 -1.00000000
vn -0.36982731 0.25702271 -0.89284214
vn -0.38268342 0.0000000e+0 -0.92387954
vn -0.68335179 0.25702270 -0.68335179
vn -0.36982731 0.25702271 -0.89284214
vn -0.70710678 0.0000000e+0 -0.70710678
vn -0.68335179 0.25702270 -0.68335179
vn -0.92387954 0.0000000e+0 -0.38268342
vn -0.89284214 0.25702271 -0.36982731
vn -0.70710678 0.0000000e+0 -0.70710678
vn -1.00000000 0.0000000e+0 0.0000000e+0
vn -0.92387954 0.0000000e+0 -0.38268342
vn -0.96640537 0.25702270 0.0000000e+0
vn -0.89284214 0.25702271 -0.36982731
vn -1.00000000 0.0000000e+0 0.0000000e+0
vn -0.89284214 0.25702271 0.36982731
vn -0.92387954 0.0000000e+0 0.38268342
vn -0.96640537 0.25702270 0.0000000e+0
vn -0.70710678 0.0000000e+0 0.70710678
vn -0.89284214 0.25702271 0.36982731
vn -0.92387954 0.0000000e+0 0.38268342
vn -0.68335179 0.25702270 0.68335179
vn -0.70710678 0.0000000e+0 0.70710678
vn -0.36982731 0.25702271 0.89284214
vn -0.68335179 0.25702270 0.68335179
vn -0.38268342 0.0000000e+0 0.92387954
vn 0.0000000e+0 0.25702270 0.96640537
vn 0.0000000e+0 0.0000000e+0 1.00000000
vn -0.36982731 0.25702271 0.89284214
vn -0.38268342 0.0000000e+0 0.92387954
vn 0.0000000e+0 0.25702270 0.96640537
vn 0.0000000e+0 0.0000000e+0 1.00000000
vn 0.36982731 0.25702271 0.89284214
vn 0.38268342 0.0000000e+0 0.92387954
vn 0.70710678 0.0000000e+0 0.70710678
vn 0.36982731 0.25702271 0.89284214
vn 0.68335179 0.25702270 0.68335179
vn 0.38268342 0.0000000e+0 0.92387954
vn 0.70710678 0.0000000e+0 0.70710678
vn 0.89284214 0.25702271 0.36982731
vn 0.92387954 0.0000000e+0 0.38268342
vn 0.68335179 0.25702270 0.68335179
vn 0.89284214 0.25702271 0.36982731
vn 0.96640537 0.25702270 0.0000000e+0
vn 0.0000000e+0 1.00000000 -1.1907132e-16
vn 0.89284214 0.25702271 -0.36982731
vn 0.96640537 0.25702270 0.0000000e+0
vn 0.0000000e+0 1.00000000 -1.1907132e-16
vn 0.89284214 0.25702271 -0.36982731
vn 0.68335179 0.25702270 -0.68335179
vn 0.0000000e+0 1.00000000 -1.1907132e-16
vn 0.36982731 0.25702271 -0.89284214
vn 0.68335179 0.25702270 -0.68335179
vn 0.0000000e+0 1.00000000 -1.1907132e-16
vn 0.0000000e+0 0.25702270 -0.96640537
vn 0.36982731 0.25702271 -0.89284214
vn 0.0000000e+0 1.00000000 -1.1907132e-16
vn 0.0000000e+0 0.25702270 -0.96640537
vn -0.36982731 0.25702271 -0.89284214
vn 0.0000000e+0 1.00000000 -1.1907132e-16
vn -0.68335179 0.25702270 -0.68335179
vn -0.36982731 0.25702271 -0.89284214
vn 0.0000000e+0 1.00000000 -1.1907132e-16
vn -0.68335179 0.25702270 -0.68335179
vn -0.89284214 0.25702271 -0.36982731
vn 0.0000000e+0 1.00000000 -1.1907132e-16
vn -0.96640537 0.25702270 0.0000000e+0
vn -0.89284214 0.25702271 -0.36982731
vn 0.0000000e+0 1.00000000 -1.1907132e-16
vn -0.89284214 0.25702271 0.36982731
vn -0.96640537 0.25702270 0.0000000e+0
vn 0.0000000e+0 1.00000000 -1.1907132e-16
vn -0.89284214 0.25702271 0.36982731
vn -0.68335179 0.25702270 0.68335179
vn 0.0000000e+0 1.00000000 -1.1907132e-16
vn -0.36982731 0.25702271 0.89284214
vn -0.68335179 0.25702270 0.68335179
vn 0.0000000e+0 1.00000000 -1.1907132e-16
vn 0.0000000e+0 0.25702270 0.96640537
vn -0.36982731 0.25702271 0.89284214
vn 0.0000000e+0 1.00000000 -1.1907132e-16
vn 0.0000000e+0 0.25702270 0.96640537
vn 0.36982731 0.25702271 0.89284214
vn 0.0000000e+0 1.00000000 -1.1907132e-16
vn 0.36982731 0.25702271 0.89284214
vn 0.68335179 0.25702270 0.68335179
vn 0.0000000e+0 1.00000000 -1.1907132e-16
vn 0.89284214 0.25702271 0.36982731
vn 0.68335179 0.25702270 0.68335179
vn 0.0000000e+0 1.00000000 -1.1907132e-16
g collider_default2
usemtl default2
s 1
f 1//1 18//53 17//49 2//4
f 4//12 31//108 30//104 5//15
f 6//18 29//100 28//96 7//21
f 9//25 26//85 25//81 10//28
f 11//33 24//80 23//76 12//36
f 14//40 21//65 20//61 15//43
f 17//50 33//113 48//158 32//110
f 19//57 35//119 34//116 18//54
f 23//75 39//132 38//129 22//72
f 25//84 41//138 40//135 24//79
f 28//95 44//147 43//144 27//92
f 30//101 46//152 45//149 29//97
s 2
f 2//5 17//51 32//111 3//8
f 5//13 30//102 29//98 6//16
f 7//19 28//93 27//89 8//22
f 10//29 25//82 24//78 11//31
f 12//34 23//73 22//69 13//37
f 15//44 20//62 19//58 16//46
f 18//55 34//117 33//114 17//52
f 21//68 37//126 36//122 20//63
f 24//77 40//134 39//131 23//74
f 27//90 43//143 42//140 26//86
f 29//99 45//150 44//146 28//94
f 31//106 47//155 46//153 30//103
s 3
f 3//7 32//109 31//105 4//10
f 8//23 27//91 26//87 9//26
f 13//38 22//71 21//67 14//41
f 16//48 19//60 18//56 1//3
f 34//118 35//121 36//124 37//127 38//130 39//133 40//136 41//139 42//142 43//145 44//148 45//151 46//154 47//157 48//160 33//115
s 4
f 2//6 3//9 4//11 5//14 6//17 7//20 8//24 9//27 10//30 11//32 12//35 13//39 14//42 15//45 16//47 1//2
f 20//64 36//123 35//120 19//59
f 22//70 38//128 37//125 21//66
f 26//88 42//141 41//137 25//83
f 32//112 48//159 47//156 31//107
