# Exported from Wings 3D 1.5.4
mtllib ./kvant2_airlock windows.mtl
o w6
#147 vertices, 144 faces
v -0.58750000 -0.18750000 5.0000000e-2
v -0.58750000 -0.20663417 4.6193977e-2
v -0.58750000 -0.22285534 3.5355339e-2
v -0.58750000 -0.23369398 1.9134172e-2
v -0.58750000 -0.23750000 -1.2408861e-16
v -0.58750000 -0.23369398 -1.9134172e-2
v -0.58750000 -0.22285534 -3.5355339e-2
v -0.58750000 -0.20663417 -4.6193977e-2
v -0.58750000 -0.18750000 -5.0000000e-2
v -0.58750000 -0.16836583 -4.6193977e-2
v -0.58750000 -0.15214466 -3.5355339e-2
v -0.58750000 -0.14130602 -1.9134172e-2
v -0.58750000 -0.13750000 -1.0260553e-16
v -0.58750000 -0.14130602 1.9134172e-2
v -0.58750000 -0.15214466 3.5355339e-2
v -0.58750000 -0.16836583 4.6193977e-2
v -0.59375000 -0.18750000 -1.1971595e-16
v -0.59290664 -0.18106263 1.5541190e-2
v -0.59290664 -0.17560529 1.1894712e-2
v -0.59290664 -0.17195881 6.4373717e-3
v -0.59290664 -0.17067834 -1.1409904e-16
v -0.59290664 -0.17195881 -6.4373717e-3
v -0.59290664 -0.17560529 -1.1894712e-2
v -0.59290664 -0.18106263 -1.5541190e-2
v -0.59290664 -0.18750000 -1.6821663e-2
v -0.59290664 -0.19393737 -1.5541190e-2
v -0.59290664 -0.19939471 -1.1894712e-2
v -0.59290664 -0.20304119 -6.4373717e-3
v -0.59290664 -0.20432166 -1.2129734e-16
v -0.59290664 -0.20304119 6.4373717e-3
v -0.59290664 -0.19939471 1.1894712e-2
v -0.59290664 -0.19393737 1.5541190e-2
v -0.59290664 -0.18750000 1.6821663e-2
v -0.59082330 -0.17468457 3.0939182e-2
v -0.59082330 -0.16382018 2.3679825e-2
v -0.59082330 -0.15656082 1.2815429e-2
v -0.59082330 -0.15401167 -1.0839557e-16
v -0.59082330 -0.15656082 -1.2815429e-2
v -0.59082330 -0.16382018 -2.3679825e-2
v -0.59082330 -0.17468457 -3.0939182e-2
v -0.59082330 -0.18750000 -3.3488330e-2
v -0.59082330 -0.20031543 -3.0939182e-2
v -0.59082330 -0.21117982 -2.3679825e-2
v -0.59082330 -0.21843918 -1.2815429e-2
v -0.59082330 -0.22098833 -1.2268984e-16
v -0.59082330 -0.21843918 1.2815429e-2
v -0.59082330 -0.21117982 2.3679825e-2
v -0.59082330 -0.20031543 3.0939182e-2
v -0.59082330 -0.18750000 3.3488330e-2
v 5.0000000e-2 -0.18750000 -0.58750000
v 4.6193977e-2 -0.20663417 -0.58750000
v 3.5355339e-2 -0.22285534 -0.58750000
v 1.9134172e-2 -0.23369398 -0.58750000
v -2.1938961e-16 -0.23750000 -0.58750000
v -1.9134172e-2 -0.23369398 -0.58750000
v -3.5355339e-2 -0.22285534 -0.58750000
v -4.6193977e-2 -0.20663417 -0.58750000
v -5.0000000e-2 -0.18750000 -0.58750000
v -4.6193977e-2 -0.16836583 -0.58750000
v -3.5355339e-2 -0.15214466 -0.58750000
v -1.9134172e-2 -0.14130602 -0.58750000
v -1.9104321e-16 -0.13750000 -0.58750000
v 1.9134172e-2 -0.14130602 -0.58750000
v 3.5355339e-2 -0.15214466 -0.58750000
v 4.6193977e-2 -0.16836583 -0.58750000
v -2.1120258e-16 -0.18750000 -0.59375000
v 1.5541190e-2 -0.18106263 -0.59290664
v 1.1894712e-2 -0.17560529 -0.59290664
v 6.4373717e-3 -0.17195881 -0.59290664
v -2.0448279e-16 -0.17067834 -0.59290664
v -6.4373717e-3 -0.17195881 -0.59290664
v -1.1894712e-2 -0.17560529 -0.59290664
v -1.5541190e-2 -0.18106263 -0.59290664
v -1.6821663e-2 -0.18750000 -0.59290664
v -1.5541190e-2 -0.19393737 -0.59290664
v -1.1894712e-2 -0.19939471 -0.59290664
v -6.4373717e-3 -0.20304119 -0.59290664
v -2.1399014e-16 -0.20432166 -0.59290664
v 6.4373717e-3 -0.20304119 -0.59290664
v 1.1894712e-2 -0.19939471 -0.59290664
v 1.5541190e-2 -0.19393737 -0.59290664
v 1.6821663e-2 -0.18750000 -0.59290664
v 3.0939182e-2 -0.17468457 -0.59082330
v 2.3679825e-2 -0.16382018 -0.59082330
v 1.2815429e-2 -0.15656082 -0.59082330
v -1.9776300e-16 -0.15401167 -0.59082330
v -1.2815429e-2 -0.15656082 -0.59082330
v -2.3679825e-2 -0.16382018 -0.59082330
v -3.0939182e-2 -0.17468457 -0.59082330
v -3.3488330e-2 -0.18750000 -0.59082330
v -3.0939182e-2 -0.20031543 -0.59082330
v -2.3679825e-2 -0.21117982 -0.59082330
v -1.2815429e-2 -0.21843918 -0.59082330
v -2.1665409e-16 -0.22098833 -0.59082330
v 1.2815429e-2 -0.21843918 -0.59082330
v 2.3679825e-2 -0.21117982 -0.59082330
v 3.0939182e-2 -0.20031543 -0.59082330
v 3.3488330e-2 -0.18750000 -0.59082330
v 0.58750000 -0.18750000 5.0000000e-2
v 0.58750000 -0.20663417 4.6193977e-2
v 0.58750000 -0.22285534 3.5355339e-2
v 0.58750000 -0.23369398 1.9134172e-2
v 0.58750000 -0.23750000 -1.2408861e-16
v 0.58750000 -0.23369398 -1.9134172e-2
v 0.58750000 -0.22285534 -3.5355339e-2
v 0.58750000 -0.20663417 -4.6193977e-2
v 0.58750000 -0.18750000 -5.0000000e-2
v 0.58750000 -0.16836583 -4.6193977e-2
v 0.58750000 -0.15214466 -3.5355339e-2
v 0.58750000 -0.14130602 -1.9134172e-2
v 0.58750000 -0.13750000 -1.0260553e-16
v 0.58750000 -0.14130602 1.9134172e-2
v 0.58750000 -0.15214466 3.5355339e-2
v 0.58750000 -0.16836583 4.6193977e-2
v 0.59375000 -0.18750000 -1.1971595e-16
v 0.59290664 -0.18106263 1.5541190e-2
v 0.59290664 -0.17560529 1.1894712e-2
v 0.59290664 -0.17195881 6.4373717e-3
v 0.59290664 -0.17067834 -1.1409904e-16
v 0.59290664 -0.17195881 -6.4373717e-3
v 0.59290664 -0.17560529 -1.1894712e-2
v 0.59290664 -0.18106263 -1.5541190e-2
v 0.59290664 -0.18750000 -1.6821663e-2
v 0.59290664 -0.19393737 -1.5541190e-2
v 0.59290664 -0.19939471 -1.1894712e-2
v 0.59290664 -0.20304119 -6.4373717e-3
v 0.59290664 -0.20432166 -1.2129734e-16
v 0.59290664 -0.20304119 6.4373717e-3
v 0.59290664 -0.19939471 1.1894712e-2
v 0.59290664 -0.19393737 1.5541190e-2
v 0.59290664 -0.18750000 1.6821663e-2
v 0.59082330 -0.17468457 3.0939182e-2
v 0.59082330 -0.16382018 2.3679825e-2
v 0.59082330 -0.15656082 1.2815429e-2
v 0.59082330 -0.15401167 -1.0839557e-16
v 0.59082330 -0.15656082 -1.2815429e-2
v 0.59082330 -0.16382018 -2.3679825e-2
v 0.59082330 -0.17468457 -3.0939182e-2
v 0.59082330 -0.18750000 -3.3488330e-2
v 0.59082330 -0.20031543 -3.0939182e-2
v 0.59082330 -0.21117982 -2.3679825e-2
v 0.59082330 -0.21843918 -1.2815429e-2
v 0.59082330 -0.22098833 -1.2268984e-16
v 0.59082330 -0.21843918 1.2815429e-2
v 0.59082330 -0.21117982 2.3679825e-2
v 0.59082330 -0.20031543 3.0939182e-2
v 0.59082330 -0.18750000 3.3488330e-2
vt 0.95722383 0.36896263
vt 0.95722383 0.36896263
vt 0.95722383 0.36896263
vt 0.95847651 0.36266500
vt 0.95847651 0.36266500
vt 0.95847651 0.37526026
vt 0.95847651 0.37526026
vt 0.95847651 0.36266500
vt 0.95847651 0.37526026
vt 0.96204383 0.35732613
vt 0.96204383 0.35732613
vt 0.96204383 0.38059913
vt 0.96204383 0.38059913
vt 0.96204383 0.35732613
vt 0.96204383 0.38059913
vt 0.96265832 0.36896263
vt 0.96265832 0.36896263
vt 0.96265832 0.36896263
vt 0.96349732 0.36474469
vt 0.96349732 0.36474469
vt 0.96349732 0.37318057
vt 0.96349732 0.37318057
vt 0.96349732 0.36474469
vt 0.96349732 0.37318057
vt 0.96588659 0.36116889
vt 0.96588659 0.36116889
vt 0.96588659 0.37675637
vt 0.96588659 0.37675637
vt 0.96588659 0.36116889
vt 0.96588659 0.37675637
vt 0.96738270 0.38416646
vt 0.96738270 0.35375881
vt 0.96738270 0.35375881
vt 0.96738270 0.38416646
vt 0.96738270 0.35375881
vt 0.96738270 0.38416646
vt 0.96814382 0.36896263
vt 0.96814382 0.36896263
vt 0.96814382 0.36896263
vt 0.96856526 0.36684390
vt 0.96856526 0.36684390
vt 0.96856526 0.37108136
vt 0.96856526 0.37108136
vt 0.96856526 0.36684390
vt 0.96856526 0.37108136
vt 0.96946239 0.35877962
vt 0.96946239 0.35877962
vt 0.96946239 0.37914564
vt 0.96946239 0.37914564
vt 0.96946239 0.35877962
vt 0.96946239 0.37914564
vt 0.96976543 0.36504773
vt 0.96976543 0.36504773
vt 0.96976543 0.37287754
vt 0.96976543 0.37287754
vt 0.96976543 0.36504773
vt 0.96976543 0.37287754
vt 0.97156160 0.36384756
vt 0.97156160 0.36384756
vt 0.97156160 0.37407770
vt 0.97156160 0.37407770
vt 0.97156160 0.36384756
vt 0.97156160 0.37407770
vt 0.97368033 0.35250613
vt 0.97368033 0.35250613
vt 0.97368033 0.35794062
vt 0.97368033 0.35794062
vt 0.97368033 0.36342612
vt 0.97368033 0.36342612
vt 0.97368033 0.36896263
vt 0.97368033 0.36896263
vt 0.97368033 0.37449915
vt 0.97368033 0.37449915
vt 0.97368033 0.37998465
vt 0.97368033 0.37998465
vt 0.97368033 0.38541913
vt 0.97368033 0.38541913
vt 0.97368033 0.35250613
vt 0.97368033 0.35794062
vt 0.97368033 0.36342612
vt 0.97368033 0.36896263
vt 0.97368033 0.37449915
vt 0.97368033 0.37998465
vt 0.97368033 0.38541913
vt 0.97579907 0.36384756
vt 0.97579907 0.36384756
vt 0.97579907 0.37407770
vt 0.97579907 0.37407770
vt 0.97579907 0.36384756
vt 0.97579907 0.37407770
vt 0.97759524 0.36504773
vt 0.97759524 0.36504773
vt 0.97759524 0.37287754
vt 0.97759524 0.37287754
vt 0.97759524 0.36504773
vt 0.97759524 0.37287754
vt 0.97789828 0.35877962
vt 0.97789828 0.35877962
vt 0.97789828 0.37914564
vt 0.97789828 0.37914564
vt 0.97789828 0.35877962
vt 0.97789828 0.37914564
vt 0.97879541 0.36684390
vt 0.97879541 0.36684390
vt 0.97879541 0.37108136
vt 0.97879541 0.37108136
vt 0.97879541 0.36684390
vt 0.97879541 0.37108136
vt 0.97921685 0.36896263
vt 0.97921685 0.36896263
vt 0.97921685 0.36896263
vt 0.97997796 0.35375881
vt 0.97997796 0.35375881
vt 0.97997796 0.38416646
vt 0.97997796 0.38416646
vt 0.97997796 0.35375881
vt 0.97997796 0.38416646
vt 0.98147408 0.37675637
vt 0.98147408 0.37675637
vt 0.98147408 0.36116889
vt 0.98147408 0.36116889
vt 0.98147408 0.36116889
vt 0.98147408 0.37675637
vt 0.98386335 0.36474469
vt 0.98386335 0.36474469
vt 0.98386335 0.37318057
vt 0.98386335 0.37318057
vt 0.98386335 0.36474469
vt 0.98386335 0.37318057
vt 0.98470235 0.36896263
vt 0.98470235 0.36896263
vt 0.98470235 0.36896263
vt 0.98531684 0.35732613
vt 0.98531684 0.35732613
vt 0.98531684 0.38059913
vt 0.98531684 0.38059913
vt 0.98531684 0.35732613
vt 0.98531684 0.38059913
vt 0.98888416 0.36266500
vt 0.98888416 0.36266500
vt 0.98888416 0.37526026
vt 0.98888416 0.37526026
vt 0.98888416 0.36266500
vt 0.98888416 0.37526026
vt 0.99013683 0.36896263
vt 0.99013683 0.36896263
vt 0.99013683 0.36896263
vn -1.00000000 1.5543875e-15 -2.9789352e-16
vn -0.99619878 3.3335182e-2 8.0478249e-2
vn -0.99619878 6.1595385e-2 6.1595385e-2
vn -0.99619878 8.0478249e-2 3.3335182e-2
vn -0.99619878 8.7109029e-2 8.2470789e-18
vn -0.99619878 8.0478249e-2 -3.3335182e-2
vn -0.99619878 6.1595385e-2 -6.1595385e-2
vn -0.99619878 3.3335182e-2 -8.0478249e-2
vn -0.99619878 -4.7746246e-18 -8.7109029e-2
vn -0.99619878 -3.3335182e-2 -8.0478249e-2
vn -0.99619878 -6.1595385e-2 -6.1595385e-2
vn -0.99619878 -8.0478249e-2 -3.3335182e-2
vn -0.99619878 -8.7109029e-2 3.4724543e-18
vn -0.99619878 -8.0478249e-2 3.3335182e-2
vn -0.99619878 -6.1595385e-2 6.1595385e-2
vn -0.99619878 -3.3335182e-2 8.0478249e-2
vn -0.99619878 -3.9065111e-18 8.7109029e-2
vn -0.98699089 6.1526392e-2 0.14853785
vn -0.98699089 0.11368595 0.11368595
vn -0.98699089 0.14853785 6.1526392e-2
vn -0.98699089 0.16077621 8.6842613e-18
vn -0.98699089 0.14853785 -6.1526392e-2
vn -0.98699089 0.11368595 -0.11368595
vn -0.98699089 6.1526392e-2 -0.14853785
vn -0.98699089 -1.2157966e-17 -0.16077621
vn -0.98699089 -6.1526392e-2 -0.14853785
vn -0.98699089 -0.11368595 -0.11368595
vn -0.98699089 -0.14853785 -6.1526392e-2
vn -0.98699089 -0.16077621 1.7368523e-18
vn -0.98699089 -0.14853785 6.1526392e-2
vn -0.98699089 -0.11368595 0.11368595
vn -0.98699089 -6.1526392e-2 0.14853785
vn -0.98699089 3.4737045e-18 0.16077621
vn -2.6489074e-16 -2.0952423e-16 -1.00000000
vn 8.0478249e-2 3.3335182e-2 -0.99619878
vn 6.1595385e-2 6.1595385e-2 -0.99619878
vn 3.3335182e-2 8.0478249e-2 -0.99619878
vn 9.5492492e-18 8.7109029e-2 -0.99619878
vn -3.3335182e-2 8.0478249e-2 -0.99619878
vn -6.1595385e-2 6.1595385e-2 -0.99619878
vn -8.0478249e-2 3.3335182e-2 -0.99619878
vn -8.7109029e-2 -9.5492492e-18 -0.99619878
vn -8.0478249e-2 -3.3335182e-2 -0.99619878
vn -6.1595385e-2 -6.1595385e-2 -0.99619878
vn -3.3335182e-2 -8.0478249e-2 -0.99619878
vn -2.6043407e-18 -8.7109029e-2 -0.99619878
vn 3.3335182e-2 -8.0478249e-2 -0.99619878
vn 6.1595385e-2 -6.1595385e-2 -0.99619878
vn 8.0478249e-2 -3.3335182e-2 -0.99619878
vn 8.7109029e-2 -1.7796328e-17 -0.99619878
vn 0.14853785 6.1526392e-2 -0.98699089
vn 0.11368595 0.11368595 -0.98699089
vn 6.1526392e-2 0.14853785 -0.98699089
vn 5.2105568e-18 0.16077621 -0.98699089
vn -6.1526392e-2 0.14853785 -0.98699089
vn -0.11368595 0.11368595 -0.98699089
vn -0.14853785 6.1526392e-2 -0.98699089
vn -0.16077621 -8.6842613e-18 -0.98699089
vn -0.14853785 -6.1526392e-2 -0.98699089
vn -0.11368595 -0.11368595 -0.98699089
vn -6.1526392e-2 -0.14853785 -0.98699089
vn 5.2105568e-18 -0.16077621 -0.98699089
vn 6.1526392e-2 -0.14853785 -0.98699089
vn 0.11368595 -0.11368595 -0.98699089
vn 0.14853785 -6.1526392e-2 -0.98699089
vn 0.16077621 -1.9105375e-17 -0.98699089
vn 1.00000000 1.5543875e-15 -2.9789352e-16
vn 0.99619878 3.3335182e-2 8.0478249e-2
vn 0.99619878 6.1595385e-2 6.1595385e-2
vn 0.99619878 8.0478249e-2 3.3335182e-2
vn 0.99619878 8.7109029e-2 8.2470789e-18
vn 0.99619878 8.0478249e-2 -3.3335182e-2
vn 0.99619878 6.1595385e-2 -6.1595385e-2
vn 0.99619878 3.3335182e-2 -8.0478249e-2
vn 0.99619878 -4.7746246e-18 -8.7109029e-2
vn 0.99619878 -3.3335182e-2 -8.0478249e-2
vn 0.99619878 -6.1595385e-2 -6.1595385e-2
vn 0.99619878 -8.0478249e-2 -3.3335182e-2
vn 0.99619878 -8.7109029e-2 3.4724543e-18
vn 0.99619878 -8.0478249e-2 3.3335182e-2
vn 0.99619878 -6.1595385e-2 6.1595385e-2
vn 0.99619878 -3.3335182e-2 8.0478249e-2
vn 0.99619878 -3.9065111e-18 8.7109029e-2
vn 0.98699089 6.1526392e-2 0.14853785
vn 0.98699089 0.11368595 0.11368595
vn 0.98699089 0.14853785 6.1526392e-2
vn 0.98699089 0.16077621 8.6842613e-18
vn 0.98699089 0.14853785 -6.1526392e-2
vn 0.98699089 0.11368595 -0.11368595
vn 0.98699089 6.1526392e-2 -0.14853785
vn 0.98699089 -1.2157966e-17 -0.16077621
vn 0.98699089 -6.1526392e-2 -0.14853785
vn 0.98699089 -0.11368595 -0.11368595
vn 0.98699089 -0.14853785 -6.1526392e-2
vn 0.98699089 -0.16077621 1.7368523e-18
vn 0.98699089 -0.14853785 6.1526392e-2
vn 0.98699089 -0.11368595 0.11368595
vn 0.98699089 -6.1526392e-2 0.14853785
vn 0.98699089 3.4737045e-18 0.16077621
vn -0.98034052 1.3888472e-17 0.19731310
vn -0.98034052 1.3888472e-17 0.19731310
vn -0.98034052 -7.5508456e-2 0.18229354
vn -0.98034052 -7.5508456e-2 0.18229354
vn -0.98034052 -0.13952143 0.13952143
vn -0.98034052 -0.13952143 0.13952143
vn -0.98034052 -0.18229354 7.5508456e-2
vn -0.98034052 -0.18229354 7.5508456e-2
vn -0.98034052 -0.19731310 3.4721181e-18
vn -0.98034052 -0.19731310 3.4721181e-18
vn -0.98034052 -0.18229354 -7.5508456e-2
vn -0.98034052 -0.18229354 -7.5508456e-2
vn -0.98034052 -0.13952143 -0.13952143
vn -0.98034052 -0.13952143 -0.13952143
vn -0.98034052 -7.5508456e-2 -0.18229354
vn -0.98034052 -7.5508456e-2 -0.18229354
vn -0.98034052 -1.3888472e-17 -0.19731310
vn -0.98034052 -1.3888472e-17 -0.19731310
vn -0.98034052 7.5508456e-2 -0.18229354
vn -0.98034052 7.5508456e-2 -0.18229354
vn -0.98034052 0.13952143 -0.13952143
vn -0.98034052 0.13952143 -0.13952143
vn -0.98034052 0.18229354 -7.5508456e-2
vn -0.98034052 0.18229354 -7.5508456e-2
vn -0.98034052 0.19731310 1.0416354e-17
vn -0.98034052 0.19731310 1.0416354e-17
vn -0.98034052 0.18229354 7.5508456e-2
vn -0.98034052 0.18229354 7.5508456e-2
vn -0.98034052 0.13952143 0.13952143
vn -0.98034052 0.13952143 0.13952143
vn -0.98034052 7.5508456e-2 0.18229354
vn -0.98034052 7.5508456e-2 0.18229354
vn 0.19731310 0.0000000e+0 -0.98034052
vn 0.19731310 0.0000000e+0 -0.98034052
vn 0.18229354 -7.5508456e-2 -0.98034052
vn 0.18229354 -7.5508456e-2 -0.98034052
vn 0.13952143 -0.13952143 -0.98034052
vn 0.13952143 -0.13952143 -0.98034052
vn 7.5508456e-2 -0.18229354 -0.98034052
vn 7.5508456e-2 -0.18229354 -0.98034052
vn 6.9442362e-18 -0.19731310 -0.98034052
vn 6.9442362e-18 -0.19731310 -0.98034052
vn -7.5508456e-2 -0.18229354 -0.98034052
vn -7.5508456e-2 -0.18229354 -0.98034052
vn -0.13952143 -0.13952143 -0.98034052
vn -0.13952143 -0.13952143 -0.98034052
vn -0.18229354 -7.5508456e-2 -0.98034052
vn -0.18229354 -7.5508456e-2 -0.98034052
vn -0.19731310 0.0000000e+0 -0.98034052
vn -0.19731310 0.0000000e+0 -0.98034052
vn -0.18229354 7.5508456e-2 -0.98034052
vn -0.18229354 7.5508456e-2 -0.98034052
vn -0.13952143 0.13952143 -0.98034052
vn -0.13952143 0.13952143 -0.98034052
vn -7.5508456e-2 0.18229354 -0.98034052
vn -7.5508456e-2 0.18229354 -0.98034052
vn 3.4721181e-18 0.19731310 -0.98034052
vn 3.4721181e-18 0.19731310 -0.98034052
vn 7.5508456e-2 0.18229354 -0.98034052
vn 7.5508456e-2 0.18229354 -0.98034052
vn 0.13952143 0.13952143 -0.98034052
vn 0.13952143 0.13952143 -0.98034052
vn 0.18229354 7.5508456e-2 -0.98034052
vn 0.18229354 7.5508456e-2 -0.98034052
vn 0.98034052 1.3888472e-17 0.19731310
vn 0.98034052 1.3888472e-17 0.19731310
vn 0.98034052 -7.5508456e-2 0.18229354
vn 0.98034052 -7.5508456e-2 0.18229354
vn 0.98034052 -0.13952143 0.13952143
vn 0.98034052 -0.13952143 0.13952143
vn 0.98034052 -0.18229354 7.5508456e-2
vn 0.98034052 -0.18229354 7.5508456e-2
vn 0.98034052 -0.19731310 3.4721181e-18
vn 0.98034052 -0.19731310 3.4721181e-18
vn 0.98034052 -0.18229354 -7.5508456e-2
vn 0.98034052 -0.18229354 -7.5508456e-2
vn 0.98034052 -0.13952143 -0.13952143
vn 0.98034052 -0.13952143 -0.13952143
vn 0.98034052 -7.5508456e-2 -0.18229354
vn 0.98034052 -7.5508456e-2 -0.18229354
vn 0.98034052 -1.3888472e-17 -0.19731310
vn 0.98034052 -1.3888472e-17 -0.19731310
vn 0.98034052 7.5508456e-2 -0.18229354
vn 0.98034052 7.5508456e-2 -0.18229354
vn 0.98034052 0.13952143 -0.13952143
vn 0.98034052 0.13952143 -0.13952143
vn 0.98034052 0.18229354 -7.5508456e-2
vn 0.98034052 0.18229354 -7.5508456e-2
vn 0.98034052 0.19731310 1.0416354e-17
vn 0.98034052 0.19731310 1.0416354e-17
vn 0.98034052 0.18229354 7.5508456e-2
vn 0.98034052 0.18229354 7.5508456e-2
vn 0.98034052 0.13952143 0.13952143
vn 0.98034052 0.13952143 0.13952143
vn 0.98034052 7.5508456e-2 0.18229354
vn 0.98034052 7.5508456e-2 0.18229354
g w6_w6_auv
usemtl w6_auv
s 2
f 1/147/100 49/132/33 48/128/32 2/143/102
f 2/143/103 48/128/32 47/122/31 3/137/104
f 3/137/105 47/122/31 46/101/30 4/116/106
f 4/116/107 46/101/30 45/79/29 5/78/108
f 5/78/109 45/79/29 44/50/28 6/35/110
f 6/35/111 44/50/28 43/29/27 7/14/112
f 7/14/113 43/29/27 42/23/26 8/8/114
f 8/8/115 42/23/26 41/18/25 9/3/116
f 9/3/117 41/18/25 40/24/24 10/9/118
f 10/9/119 40/24/24 39/30/23 11/15/120
f 11/15/121 39/30/23 38/51/22 12/36/122
f 12/36/123 38/51/22 37/83/21 13/84/124
f 13/84/125 37/83/21 36/102/20 14/117/126
f 14/117/127 36/102/20 35/123/19 15/138/128
f 15/138/129 35/123/19 34/129/18 16/144/130
f 16/144/131 34/129/18 49/132/33 1/147/101
f 17/81/1 33/111/17 18/108/2
f 18/108/2 19/96/3 17/81/1
f 18/108/2 34/129/18 35/123/19 19/96/3
f 19/96/3 20/90/4 17/81/1
f 19/96/3 35/123/19 36/102/20 20/90/4
f 20/90/4 21/82/5 17/81/1
f 20/90/4 36/102/20 37/83/21 21/82/5
f 21/82/5 22/63/6 17/81/1
f 21/82/5 37/83/21 38/51/22 22/63/6
f 22/63/6 23/57/7 17/81/1
f 22/63/6 38/51/22 39/30/23 23/57/7
f 23/57/7 24/45/8 17/81/1
f 23/57/7 39/30/23 40/24/24 24/45/8
f 24/45/8 25/39/9 17/81/1
f 24/45/8 40/24/24 41/18/25 25/39/9
f 25/39/9 26/44/10 17/81/1
f 25/39/9 41/18/25 42/23/26 26/44/10
f 26/44/10 27/56/11 17/81/1
f 26/44/10 42/23/26 43/29/27 27/56/11
f 27/56/11 28/62/12 17/81/1
f 27/56/11 43/29/27 44/50/28 28/62/12
f 28/62/12 29/80/13 17/81/1
f 28/62/12 44/50/28 45/79/29 29/80/13
f 29/80/13 30/89/14 17/81/1
f 29/80/13 45/79/29 46/101/30 30/89/14
f 30/89/14 31/95/15 17/81/1
f 30/89/14 46/101/30 47/122/31 31/95/15
f 31/95/15 32/107/16 17/81/1
f 31/95/15 47/122/31 48/128/32 32/107/16
f 32/107/16 33/111/17 17/81/1
f 32/107/16 48/128/32 49/132/33 33/111/17
f 33/111/17 49/132/33 34/129/18 18/108/2
f 50/2/133 98/17/66 83/22/51 65/7/163
f 51/5/134 97/20/65 98/17/66 50/2/132
f 52/11/136 96/26/64 97/20/65 51/5/135
f 53/33/138 95/47/63 96/26/64 52/11/137
f 54/65/140 94/67/62 95/47/63 53/33/139
f 55/113/142 93/98/61 94/67/62 54/65/141
f 56/134/144 92/121/60 93/98/61 55/113/143
f 57/140/146 91/125/59 92/121/60 56/134/145
f 58/146/148 90/131/58 91/125/59 57/140/147
f 59/142/150 89/127/57 90/131/58 58/146/149
f 60/136/152 88/119/56 89/127/57 59/142/151
f 61/115/154 87/100/55 88/119/56 60/136/153
f 62/77/156 86/75/54 87/100/55 61/115/155
f 63/31/158 85/49/53 86/75/54 62/77/157
f 64/13/160 84/28/52 85/49/53 63/31/159
f 65/7/162 83/22/51 84/28/52 64/13/161
f 66/71/34 68/55/36 67/43/35
f 66/71/34 69/61/37 68/55/36
f 66/71/34 70/73/38 69/61/37
f 66/71/34 71/88/39 70/73/38
f 66/71/34 72/94/40 71/88/39
f 66/71/34 73/106/41 72/94/40
f 66/71/34 74/110/42 73/106/41
f 66/71/34 75/104/43 74/110/42
f 66/71/34 76/92/44 75/104/43
f 66/71/34 77/86/45 76/92/44
f 66/71/34 78/69/46 77/86/45
f 66/71/34 79/59/47 78/69/46
f 66/71/34 80/53/48 79/59/47
f 66/71/34 81/41/49 80/53/48
f 66/71/34 82/38/50 81/41/49
f 67/43/35 82/38/50 66/71/34
f 67/43/35 83/22/51 98/17/66 82/38/50
f 68/55/36 84/28/52 83/22/51 67/43/35
f 69/61/37 85/49/53 84/28/52 68/55/36
f 70/73/38 86/75/54 85/49/53 69/61/37
f 71/88/39 87/100/55 86/75/54 70/73/38
f 72/94/40 88/119/56 87/100/55 71/88/39
f 73/106/41 89/127/57 88/119/56 72/94/40
f 74/110/42 90/131/58 89/127/57 73/106/41
f 75/104/43 91/125/59 90/131/58 74/110/42
f 76/92/44 92/121/60 91/125/59 75/104/43
f 77/86/45 93/98/61 92/121/60 76/92/44
f 78/69/46 94/67/62 93/98/61 77/86/45
f 79/59/47 95/47/63 94/67/62 78/69/46
f 80/53/48 96/26/64 95/47/63 79/59/47
f 81/41/49 97/20/65 96/26/64 80/53/48
f 82/38/50 98/17/66 97/20/65 81/41/49
f 99/1/165 147/16/99 132/21/84 114/6/195
f 100/4/166 146/19/98 147/16/99 99/1/164
f 101/10/168 145/25/97 146/19/98 100/4/167
f 102/32/170 144/46/96 145/25/97 101/10/169
f 103/64/172 143/66/95 144/46/96 102/32/171
f 104/112/174 142/97/94 143/66/95 103/64/173
f 105/133/176 141/120/93 142/97/94 104/112/175
f 106/139/178 140/124/92 141/120/93 105/133/177
f 107/145/180 139/130/91 140/124/92 106/139/179
f 108/141/182 138/126/90 139/130/91 107/145/181
f 109/135/184 137/118/89 138/126/90 108/141/183
f 110/114/186 136/99/88 137/118/89 109/135/185
f 111/76/188 135/74/87 136/99/88 110/114/187
f 112/34/190 134/48/86 135/74/87 111/76/189
f 113/12/192 133/27/85 134/48/86 112/34/191
f 114/6/194 132/21/84 133/27/85 113/12/193
f 115/70/67 117/54/69 116/42/68
f 115/70/67 118/60/70 117/54/69
f 115/70/67 119/72/71 118/60/70
f 115/70/67 120/87/72 119/72/71
f 115/70/67 121/93/73 120/87/72
f 115/70/67 122/105/74 121/93/73
f 115/70/67 123/109/75 122/105/74
f 115/70/67 124/103/76 123/109/75
f 115/70/67 125/91/77 124/103/76
f 115/70/67 126/85/78 125/91/77
f 115/70/67 127/68/79 126/85/78
f 115/70/67 128/58/80 127/68/79
f 115/70/67 129/52/81 128/58/80
f 115/70/67 130/40/82 129/52/81
f 115/70/67 131/37/83 130/40/82
f 116/42/68 131/37/83 115/70/67
f 116/42/68 132/21/84 147/16/99 131/37/83
f 117/54/69 133/27/85 132/21/84 116/42/68
f 118/60/70 134/48/86 133/27/85 117/54/69
f 119/72/71 135/74/87 134/48/86 118/60/70
f 120/87/72 136/99/88 135/74/87 119/72/71
f 121/93/73 137/118/89 136/99/88 120/87/72
f 122/105/74 138/126/90 137/118/89 121/93/73
f 123/109/75 139/130/91 138/126/90 122/105/74
f 124/103/76 140/124/92 139/130/91 123/109/75
f 125/91/77 141/120/93 140/124/92 124/103/76
f 126/85/78 142/97/94 141/120/93 125/91/77
f 127/68/79 143/66/95 142/97/94 126/85/78
f 128/58/80 144/46/96 143/66/95 127/68/79
f 129/52/81 145/25/97 144/46/96 128/58/80
f 130/40/82 146/19/98 145/25/97 129/52/81
f 131/37/83 147/16/99 146/19/98 130/40/82
