# Exported from Wings 3D 1.5.4
mtllib rotanev_cap_s0p5_1.mtl
o rotanev_cap_s0p5_1
#97 vertices, 97 faces
v 0.46875000 6.2500000e-2 -1.7817056e-17
v 0.45277773 6.2500000e-2 0.12132143
v 0.40594941 6.2500000e-2 0.23437500
v 0.33145630 6.2500000e-2 0.33145630
v 0.23437500 6.2500000e-2 0.40594941
v 0.12132143 6.2500000e-2 0.45277773
v -4.5023088e-17 6.2500000e-2 0.46875000
v -0.12132143 6.2500000e-2 0.45277773
v -0.23437500 6.2500000e-2 0.40594941
v -0.33145630 6.2500000e-2 0.33145630
v -0.40594941 6.2500000e-2 0.23437500
v -0.45277773 6.2500000e-2 0.12132143
v -0.46875000 6.2500000e-2 3.9588263e-17
v -0.45277773 6.2500000e-2 -0.12132143
v -0.40594941 6.2500000e-2 -0.23437500
v -0.33145630 6.2500000e-2 -0.33145630
v -0.23437500 6.2500000e-2 -0.40594941
v -0.12132143 6.2500000e-2 -0.45277773
v -1.5983373e-16 6.2500000e-2 -0.46875000
v 0.12132143 6.2500000e-2 -0.45277773
v 0.23437500 6.2500000e-2 -0.40594941
v 0.33145630 6.2500000e-2 -0.33145630
v 0.40594941 6.2500000e-2 -0.23437500
v 0.45277773 6.2500000e-2 -0.12132143
v 0.46875000 -6.2500000e-2 -1.7817056e-17
v 0.45277773 -6.2500000e-2 0.12132143
v 0.40594941 -6.2500000e-2 0.23437500
v 0.33145630 -6.2500000e-2 0.33145630
v 0.23437500 -6.2500000e-2 0.40594941
v 0.12132143 -6.2500000e-2 0.45277773
v -4.5023088e-17 -6.2500000e-2 0.46875000
v -0.12132143 -6.2500000e-2 0.45277773
v -0.23437500 -6.2500000e-2 0.40594941
v -0.33145630 -6.2500000e-2 0.33145630
v -0.40594941 -6.2500000e-2 0.23437500
v -0.45277773 -6.2500000e-2 0.12132143
v -0.46875000 -6.2500000e-2 3.9588263e-17
v -0.45277773 -6.2500000e-2 -0.12132143
v -0.40594941 -6.2500000e-2 -0.23437500
v -0.33145630 -6.2500000e-2 -0.33145630
v -0.23437500 -6.2500000e-2 -0.40594941
v -0.12132143 -6.2500000e-2 -0.45277773
v -1.5983373e-16 -6.2500000e-2 -0.46875000
v 0.12132143 -6.2500000e-2 -0.45277773
v 0.23437500 -6.2500000e-2 -0.40594941
v 0.33145630 -6.2500000e-2 -0.33145630
v 0.40594941 -6.2500000e-2 -0.23437500
v 0.45277773 -6.2500000e-2 -0.12132143
v -1.1102230e-16 0.12500000 -1.9804476e-17
v 0.27206344 9.5721807e-2 0.15707590
v 0.22213887 9.5721807e-2 0.22213887
v 0.15707590 9.5721807e-2 0.27206344
v 8.1308468e-2 9.5721807e-2 0.30344733
v -6.7087879e-17 9.5721807e-2 0.31415180
v -8.1308468e-2 9.5721807e-2 0.30344733
v -0.15707590 9.5721807e-2 0.27206344
v -0.22213887 9.5721807e-2 0.22213887
v -0.27206344 9.5721807e-2 0.15707590
v -0.30344733 9.5721807e-2 8.1308468e-2
v -0.31415180 9.5721807e-2 2.0527941e-17
v -0.30344733 9.5721807e-2 -8.1308468e-2
v -0.27206344 9.5721807e-2 -0.15707590
v -0.22213887 9.5721807e-2 -0.22213887
v -0.15707590 9.5721807e-2 -0.27206344
v -8.1308468e-2 9.5721807e-2 -0.30344733
v -1.4434388e-16 9.5721807e-2 -0.31415180
v 8.1308468e-2 9.5721807e-2 -0.30344733
v 0.15707590 9.5721807e-2 -0.27206344
v 0.22213887 9.5721807e-2 -0.22213887
v 0.27206344 9.5721807e-2 -0.15707590
v 0.30344733 9.5721807e-2 -8.1308468e-2
v 0.31415180 9.5721807e-2 -1.8718054e-17
v 0.30344733 9.5721807e-2 8.1308468e-2
v 0.15252142 0.11655514 4.0867992e-2
v 0.15790180 0.11655514 -1.9011899e-17
v 0.15252142 0.11655514 -4.0867992e-2
v 0.13674697 0.11655514 -7.8950898e-2
v 0.11165343 0.11655514 -0.11165343
v 7.8950898e-2 0.11655514 -0.13674697
v 4.0867992e-2 0.11655514 -0.15252142
v -1.2816014e-16 0.11655514 -0.15790180
v -4.0867992e-2 0.11655514 -0.15252142
v -7.8950898e-2 0.11655514 -0.13674697
v -0.11165343 0.11655514 -0.11165343
v -0.13674697 0.11655514 -7.8950898e-2
v -0.15252142 0.11655514 -4.0867992e-2
v -0.15790180 0.11655514 7.7372895e-19
v -0.15252142 0.11655514 4.0867992e-2
v -0.13674697 0.11655514 7.8950898e-2
v -0.11165343 0.11655514 0.11165343
v -7.8950898e-2 0.11655514 0.13674697
v -4.0867992e-2 0.11655514 0.15252142
v -8.9651402e-17 0.11655514 0.15790180
v 4.0867992e-2 0.11655514 0.15252142
v 7.8950898e-2 0.11655514 0.13674697
v 0.11165343 0.11655514 0.11165343
v 0.13674697 0.11655514 7.8950898e-2
vt 0.83053007 0.80324410
vt 0.83053007 0.82661963
vt 0.83053007 0.80324410
vt 0.83053007 0.82661963
vt 0.83700780 0.84521658
vt 0.83706015 0.84521658
vt 0.83706015 0.84521658
vt 0.85373001 0.80324410
vt 0.85373001 0.80324410
vt 0.85373001 0.82661963
vt 0.85373001 0.80324410
vt 0.85373001 0.82661963
vt 0.85556111 0.84521658
vt 0.85556111 0.84521658
vt 0.85566432 0.84521658
vt 0.85566432 0.84521658
vt 0.85795069 0.87132229
vt 0.85795069 0.87132229
vt 0.85797682 0.87132229
vt 0.85797682 0.87132229
vt 0.87038297 0.87132229
vt 0.87039098 0.87132229
vt 0.87039098 0.87132229
vt 0.87692996 0.80324410
vt 0.87692996 0.80324410
vt 0.87692996 0.82661963
vt 0.87705649 0.84521658
vt 0.87705649 0.84521658
vt 0.87719165 0.84521658
vt 0.87719165 0.84521658
vt 0.87890579 0.89734333
vt 0.87890579 0.89734333
vt 0.87900976 0.89734333
vt 0.87900976 0.89734333
vt 0.88475059 0.87132229
vt 0.88475059 0.87132229
vt 0.88478001 0.87132229
vt 0.88478001 0.87132229
vt 0.88514114 0.89734333
vt 0.88514114 0.89734333
vt 0.88522783 0.89734333
vt 0.88522783 0.89734333
vt 0.89237395 0.89734333
vt 0.89237395 0.89734333
vt 0.89244981 0.89734333
vt 0.89244981 0.89734333
vt 0.90006528 0.92341873
vt 0.90006528 0.92341873
vt 0.90008305 0.84521658
vt 0.90008305 0.84521658
vt 0.90012000 0.89734333
vt 0.90012000 0.89734333
vt 0.90012990 0.80324410
vt 0.90012990 0.80324410
vt 0.90012990 0.82661963
vt 0.90013772 0.87132229
vt 0.90013772 0.87132229
vt 0.90017444 0.87132229
vt 0.90017444 0.87132229
vt 0.90019216 0.89734333
vt 0.90019216 0.89734333
vt 0.90022910 0.84521658
vt 0.90022910 0.84521658
vt 0.90024687 0.92341873
vt 0.90024687 0.92341873
vt 0.90786235 0.89734333
vt 0.90786235 0.89734333
vt 0.90793820 0.89734333
vt 0.90793820 0.89734333
vt 0.91508432 0.89734333
vt 0.91508432 0.89734333
vt 0.91517102 0.89734333
vt 0.91517102 0.89734333
vt 0.91553214 0.87132229
vt 0.91553214 0.87132229
vt 0.91556156 0.87132229
vt 0.91556156 0.87132229
vt 0.92130239 0.89734333
vt 0.92130239 0.89734333
vt 0.92140636 0.89734333
vt 0.92312051 0.84521658
vt 0.92312051 0.84521658
vt 0.92325566 0.84521658
vt 0.92325566 0.84521658
vt 0.92332985 0.80324410
vt 0.92332985 0.82661963
vt 0.92332985 0.80324410
vt 0.92332985 0.80324410
vt 0.92332985 0.82661963
vt 0.92992118 0.87132229
vt 0.92992118 0.87132229
vt 0.92992919 0.87132229
vt 0.92992919 0.87132229
vt 0.94233533 0.87132229
vt 0.94233533 0.87132229
vt 0.94236146 0.87132229
vt 0.94236146 0.87132229
vt 0.94464784 0.84521658
vt 0.94464784 0.84521658
vt 0.94475104 0.84521658
vt 0.94475104 0.84521658
vt 0.94652979 0.80324410
vt 0.94652979 0.82661963
vt 0.94652979 0.80324410
vt 0.94652979 0.80324410
vt 0.94652979 0.82661963
vt 0.94652979 0.80324410
vt 0.94652979 0.82661963
vt 0.96325200 0.84521658
vt 0.96325200 0.84521658
vt 0.96330435 0.84521658
vt 0.96330435 0.84521658
vt 0.96972974 0.80324410
vt 0.96972974 0.80324410
vt 0.96972974 0.82661963
vt 0.96972974 0.82661963
vt 0.96972974 0.80324410
vt 0.96972974 0.82661963
vn -1.1292096e-17 1.00000000 -1.8820160e-18
vn 0.14831457 0.98522606 8.5629456e-2
vn 0.12109834 0.98522606 0.12109834
vn 8.5629456e-2 0.98522606 0.14831457
vn 4.4325068e-2 0.98522606 0.16542341
vn -8.6827258e-18 0.98522606 0.17125891
vn -4.4325068e-2 0.98522606 0.16542341
vn -8.5629456e-2 0.98522606 0.14831457
vn -0.12109834 0.98522606 0.12109834
vn -0.14831457 0.98522606 8.5629456e-2
vn -0.16542341 0.98522606 4.4325068e-2
vn -0.17125891 0.98522606 8.2485895e-17
vn -0.16542341 0.98522606 -4.4325068e-2
vn -0.14831457 0.98522606 -8.5629456e-2
vn -0.12109834 0.98522606 -0.12109834
vn -8.5629456e-2 0.98522606 -0.14831457
vn -4.4325068e-2 0.98522606 -0.16542341
vn -8.2485895e-17 0.98522606 -0.17125891
vn 4.4325068e-2 0.98522606 -0.16542341
vn 8.5629456e-2 0.98522606 -0.14831457
vn 0.12109834 0.98522606 -0.12109834
vn 0.14831457 0.98522606 -8.5629456e-2
vn 0.16542341 0.98522606 -4.4325068e-2
vn 0.17125891 0.98522606 -2.3443360e-17
vn 0.16542341 0.98522606 4.4325068e-2
vn 8.9690768e-2 0.99567967 2.4032569e-2
vn 9.2854716e-2 0.99567967 6.7279092e-18
vn 8.9690768e-2 0.99567967 -2.4032569e-2
vn 8.0414543e-2 0.99567967 -4.6427358e-2
vn 6.5658199e-2 0.99567967 -6.5658199e-2
vn 4.6427358e-2 0.99567967 -8.0414543e-2
vn 2.4032569e-2 0.99567967 -8.9690768e-2
vn -3.6243898e-17 0.99567967 -9.2854716e-2
vn -2.4032569e-2 0.99567967 -8.9690768e-2
vn -4.6427358e-2 0.99567967 -8.0414543e-2
vn -6.5658199e-2 0.99567967 -6.5658199e-2
vn -8.0414543e-2 0.99567967 -4.6427358e-2
vn -8.9690768e-2 0.99567967 -2.4032569e-2
vn -9.2854716e-2 0.99567967 2.3005109e-17
vn -8.9690768e-2 0.99567967 2.4032569e-2
vn -8.0414543e-2 0.99567967 4.6427358e-2
vn -6.5658199e-2 0.99567967 6.5658199e-2
vn -4.6427358e-2 0.99567967 8.0414543e-2
vn -2.4032569e-2 0.99567967 8.9690768e-2
vn -2.5175402e-17 0.99567967 9.2854716e-2
vn 2.4032569e-2 0.99567967 8.9690768e-2
vn 4.6427358e-2 0.99567967 8.0414543e-2
vn 6.5658199e-2 0.99567967 6.5658199e-2
vn 8.0414543e-2 0.99567967 4.6427358e-2
vn 1.00000000 0.0000000e+0 -2.3795816e-16
vn 1.00000000 0.0000000e+0 -2.3795816e-16
vn 0.21009512 0.97768095 -5.0326221e-17
vn 0.21009512 0.97768095 -5.0326221e-17
vn 0.96592583 0.0000000e+0 0.25881905
vn 0.96592583 0.0000000e+0 0.25881905
vn 0.20293630 0.97768095 5.4376618e-2
vn 0.20293630 0.97768095 5.4376618e-2
vn 0.86602540 0.0000000e+0 0.50000000
vn 0.86602540 0.0000000e+0 0.50000000
vn 0.18194771 0.97768095 0.10504756
vn 0.18194771 0.97768095 0.10504756
vn 0.70710678 0.0000000e+0 0.70710678
vn 0.70710678 0.0000000e+0 0.70710678
vn 0.14855968 0.97768095 0.14855968
vn 0.14855968 0.97768095 0.14855968
vn 0.50000000 0.0000000e+0 0.86602540
vn 0.50000000 0.0000000e+0 0.86602540
vn 0.10504756 0.97768095 0.18194771
vn 0.10504756 0.97768095 0.18194771
vn 0.25881905 0.0000000e+0 0.96592583
vn 0.25881905 0.0000000e+0 0.96592583
vn 5.4376618e-2 0.97768095 0.20293630
vn 5.4376618e-2 0.97768095 0.20293630
vn 1.5397293e-16 0.0000000e+0 1.00000000
vn 1.5397293e-16 0.0000000e+0 1.00000000
vn 1.2147708e-17 0.97768095 0.21009512
vn 1.2147708e-17 0.97768095 0.21009512
vn -0.25881905 0.0000000e+0 0.96592583
vn -0.25881905 0.0000000e+0 0.96592583
vn -5.4376618e-2 0.97768095 0.20293630
vn -5.4376618e-2 0.97768095 0.20293630
vn -0.50000000 0.0000000e+0 0.86602540
vn -0.50000000 0.0000000e+0 0.86602540
vn -0.10504756 0.97768095 0.18194771
vn -0.10504756 0.97768095 0.18194771
vn -0.70710678 0.0000000e+0 0.70710678
vn -0.70710678 0.0000000e+0 0.70710678
vn -0.14855968 0.97768095 0.14855968
vn -0.14855968 0.97768095 0.14855968
vn -0.86602540 0.0000000e+0 0.50000000
vn -0.86602540 0.0000000e+0 0.50000000
vn -0.18194771 0.97768095 0.10504756
vn -0.18194771 0.97768095 0.10504756
vn -0.96592583 0.0000000e+0 0.25881905
vn -0.96592583 0.0000000e+0 0.25881905
vn -0.20293630 0.97768095 5.4376618e-2
vn -0.20293630 0.97768095 5.4376618e-2
vn -1.00000000 0.0000000e+0 3.4993847e-16
vn -1.00000000 0.0000000e+0 3.4993847e-16
vn -0.21009512 0.97768095 1.1106476e-16
vn -0.21009512 0.97768095 1.1106476e-16
vn -0.96592583 0.0000000e+0 -0.25881905
vn -0.96592583 0.0000000e+0 -0.25881905
vn -0.20293630 0.97768095 -5.4376618e-2
vn -0.20293630 0.97768095 -5.4376618e-2
vn -0.86602540 0.0000000e+0 -0.50000000
vn -0.86602540 0.0000000e+0 -0.50000000
vn -0.18194771 0.97768095 -0.10504756
vn -0.18194771 0.97768095 -0.10504756
vn -0.70710678 0.0000000e+0 -0.70710678
vn -0.70710678 0.0000000e+0 -0.70710678
vn -0.14855968 0.97768095 -0.14855968
vn -0.14855968 0.97768095 -0.14855968
vn -0.50000000 0.0000000e+0 -0.86602540
vn -0.50000000 0.0000000e+0 -0.86602540
vn -0.10504756 0.97768095 -0.18194771
vn -0.10504756 0.97768095 -0.18194771
vn -0.25881905 0.0000000e+0 -0.96592583
vn -0.25881905 0.0000000e+0 -0.96592583
vn -5.4376618e-2 0.97768095 -0.20293630
vn -5.4376618e-2 0.97768095 -0.20293630
vn -4.7591632e-16 0.0000000e+0 -1.00000000
vn -4.7591632e-16 0.0000000e+0 -1.00000000
vn -1.1453554e-16 0.97768095 -0.21009512
vn -1.1453554e-16 0.97768095 -0.21009512
vn 0.25881905 0.0000000e+0 -0.96592583
vn 0.25881905 0.0000000e+0 -0.96592583
vn 5.4376618e-2 0.97768095 -0.20293630
vn 5.4376618e-2 0.97768095 -0.20293630
vn 0.50000000 0.0000000e+0 -0.86602540
vn 0.50000000 0.0000000e+0 -0.86602540
vn 0.10504756 0.97768095 -0.18194771
vn 0.10504756 0.97768095 -0.18194771
vn 0.70710678 0.0000000e+0 -0.70710678
vn 0.70710678 0.0000000e+0 -0.70710678
vn 0.14855968 0.97768095 -0.14855968
vn 0.14855968 0.97768095 -0.14855968
vn 0.86602540 0.0000000e+0 -0.50000000
vn 0.86602540 0.0000000e+0 -0.50000000
vn 0.18194771 0.97768095 -0.10504756
vn 0.18194771 0.97768095 -0.10504756
vn 0.96592583 0.0000000e+0 -0.25881905
vn 0.96592583 0.0000000e+0 -0.25881905
vn 0.20293630 0.97768095 -5.4376618e-2
vn 0.20293630 0.97768095 -5.4376618e-2
vn 1.00000000 0.0000000e+0 -2.3795816e-16
vn 1.00000000 0.0000000e+0 -2.3795816e-16
vn 0.0000000e+0 -1.00000000 2.5419688e-18
vn 0.96592583 0.0000000e+0 0.25881905
vn 0.96592583 0.0000000e+0 0.25881905
vn 0.0000000e+0 -1.00000000 2.5419688e-18
vn 0.86602540 0.0000000e+0 0.50000000
vn 0.86602540 0.0000000e+0 0.50000000
vn 0.0000000e+0 -1.00000000 2.5419688e-18
vn 0.70710678 0.0000000e+0 0.70710678
vn 0.70710678 0.0000000e+0 0.70710678
vn 0.0000000e+0 -1.00000000 2.5419688e-18
vn 0.50000000 0.0000000e+0 0.86602540
vn 0.50000000 0.0000000e+0 0.86602540
vn 0.0000000e+0 -1.00000000 2.5419688e-18
vn 0.25881905 0.0000000e+0 0.96592583
vn 0.25881905 0.0000000e+0 0.96592583
vn 0.0000000e+0 -1.00000000 2.5419688e-18
vn 1.5397293e-16 0.0000000e+0 1.00000000
vn 1.5397293e-16 0.0000000e+0 1.00000000
vn 0.0000000e+0 -1.00000000 2.5419688e-18
vn -0.25881905 0.0000000e+0 0.96592583
vn -0.25881905 0.0000000e+0 0.96592583
vn 0.0000000e+0 -1.00000000 2.5419688e-18
vn -0.50000000 0.0000000e+0 0.86602540
vn -0.50000000 0.0000000e+0 0.86602540
vn 0.0000000e+0 -1.00000000 2.5419688e-18
vn -0.70710678 0.0000000e+0 0.70710678
vn -0.70710678 0.0000000e+0 0.70710678
vn 0.0000000e+0 -1.00000000 2.5419688e-18
vn -0.86602540 0.0000000e+0 0.50000000
vn -0.86602540 0.0000000e+0 0.50000000
vn 0.0000000e+0 -1.00000000 2.5419688e-18
vn -0.96592583 0.0000000e+0 0.25881905
vn -0.96592583 0.0000000e+0 0.25881905
vn 0.0000000e+0 -1.00000000 2.5419688e-18
vn -1.00000000 0.0000000e+0 3.4993847e-16
vn -1.00000000 0.0000000e+0 3.4993847e-16
vn 0.0000000e+0 -1.00000000 2.5419688e-18
vn -0.96592583 0.0000000e+0 -0.25881905
vn -0.96592583 0.0000000e+0 -0.25881905
vn 0.0000000e+0 -1.00000000 2.5419688e-18
vn -0.86602540 0.0000000e+0 -0.50000000
vn -0.86602540 0.0000000e+0 -0.50000000
vn 0.0000000e+0 -1.00000000 2.5419688e-18
vn -0.70710678 0.0000000e+0 -0.70710678
vn -0.70710678 0.0000000e+0 -0.70710678
vn 0.0000000e+0 -1.00000000 2.5419688e-18
vn -0.50000000 0.0000000e+0 -0.86602540
vn -0.50000000 0.0000000e+0 -0.86602540
vn 0.0000000e+0 -1.00000000 2.5419688e-18
vn -0.25881905 0.0000000e+0 -0.96592583
vn -0.25881905 0.0000000e+0 -0.96592583
vn 0.0000000e+0 -1.00000000 2.5419688e-18
vn -4.7591632e-16 0.0000000e+0 -1.00000000
vn -4.7591632e-16 0.0000000e+0 -1.00000000
vn 0.0000000e+0 -1.00000000 2.5419688e-18
vn 0.25881905 0.0000000e+0 -0.96592583
vn 0.25881905 0.0000000e+0 -0.96592583
vn 0.0000000e+0 -1.00000000 2.5419688e-18
vn 0.50000000 0.0000000e+0 -0.86602540
vn 0.50000000 0.0000000e+0 -0.86602540
vn 0.0000000e+0 -1.00000000 2.5419688e-18
vn 0.70710678 0.0000000e+0 -0.70710678
vn 0.70710678 0.0000000e+0 -0.70710678
vn 0.0000000e+0 -1.00000000 2.5419688e-18
vn 0.86602540 0.0000000e+0 -0.50000000
vn 0.86602540 0.0000000e+0 -0.50000000
vn 0.0000000e+0 -1.00000000 2.5419688e-18
vn 0.96592583 0.0000000e+0 -0.25881905
vn 0.96592583 0.0000000e+0 -0.25881905
vn 0.0000000e+0 -1.00000000 2.5419688e-18
g rotanev_cap_s0p5_1_default
usemtl default
s 1
f 26//151 27//154 28//157 29//160 30//163 31//166 32//169 33//172 34//175 35//178 36//181 37//184 38//187 39//190 40//193 41//196 42//199 43//202 44//205 45//208 46//211 47//214 48//217 25//148
g rotanev_cap_s0p5_1_rotanev_cap_s0p5_1_auv
usemtl rotanev_cap_s0p5_1_auv
s 1
f 1/62/52 72/58/24 73/76/25 2/83/56
f 2/83/57 73/76/25 50/92/2 3/100/61
f 3/100/60 50/92/2 51/94/3 4/111/65
f 4/109/64 51/96/3 52/90/4 5/99/69
f 5/99/68 52/90/4 53/75/5 6/81/73
f 6/81/72 53/75/5 54/56/6 7/49/77
f 7/49/76 54/56/6 55/35/7 8/27/81
f 8/27/80 55/35/7 56/21/8 9/14/85
f 9/14/84 56/21/8 57/19/9 10/5/89
f 10/7/88 57/18/9 58/23/10 11/16/93
f 11/16/92 58/23/10 59/38/11 12/30/97
f 12/30/96 59/38/11 60/59/12 13/63/101
f 13/63/100 60/59/12 61/77/13 14/84/105
f 14/84/104 61/77/13 62/93/14 15/101/109
f 15/101/108 62/93/14 63/95/15 16/112/113
f 16/110/112 63/97/15 64/91/16 17/98/117
f 17/98/116 64/91/16 65/74/17 18/82/121
f 18/82/120 65/74/17 66/57/18 19/50/125
f 19/50/124 66/57/18 67/36/19 20/28/129
f 20/28/128 67/36/19 68/21/20 21/13/133
f 21/13/132 68/21/20 69/20/21 22/5/137
f 22/6/136 69/17/21 70/22/22 23/15/141
f 23/15/140 70/22/22 71/37/23 24/29/145
f 24/29/144 71/37/23 72/58/24 1/62/53
f 49/47/1 97/70/49 74/66/26
f 50/92/2 73/76/25 74/66/26 97/70/49
f 74/66/26 75/51/27 49/47/1
f 75/51/27 74/66/26 73/76/25 72/58/24
f 75/51/27 76/43/28 49/47/1
f 76/43/28 75/51/27 72/58/24 71/37/23
f 76/43/28 77/40/29 49/47/1
f 77/40/29 76/43/28 71/37/23 70/22/22
f 77/40/29 78/31/30 49/47/1
f 78/31/30 77/40/29 70/22/22 69/17/21
f 78/34/30 79/42/31 49/65/1
f 79/42/31 78/34/30 69/20/21 68/21/20
f 79/42/31 80/46/32 49/65/1
f 80/46/32 79/42/31 68/21/20 67/36/19
f 80/46/32 81/61/33 49/65/1
f 81/61/33 80/46/32 67/36/19 66/57/18
f 81/61/33 82/69/34 49/65/1
f 82/69/34 81/61/33 66/57/18 65/74/17
f 82/69/34 83/73/35 49/65/1
f 83/73/35 82/69/34 65/74/17 64/91/16
f 83/73/35 84/80/36 49/65/1
f 84/80/36 83/73/35 64/91/16 63/97/15
f 84/79/36 85/71/37 49/48/1
f 85/71/37 84/79/36 63/95/15 62/93/14
f 85/71/37 86/67/38 49/48/1
f 86/67/38 85/71/37 62/93/14 61/77/13
f 86/67/38 87/52/39 49/48/1
f 87/52/39 86/67/38 61/77/13 60/59/12
f 87/52/39 88/44/40 49/48/1
f 88/44/40 87/52/39 60/59/12 59/38/11
f 88/44/40 89/39/41 49/48/1
f 89/39/41 88/44/40 59/38/11 58/23/10
f 89/39/41 90/32/42 49/48/1
f 90/32/42 89/39/41 58/23/10 57/18/9
f 90/33/42 91/41/43 49/64/1
f 91/41/43 90/33/42 57/19/9 56/21/8
f 91/41/43 92/45/44 49/64/1
f 92/45/44 91/41/43 56/21/8 55/35/7
f 92/45/44 93/60/45 49/64/1
f 93/60/45 92/45/44 55/35/7 54/56/6
f 93/60/45 94/68/46 49/64/1
f 94/68/46 93/60/45 54/56/6 53/75/5
f 94/68/46 95/72/47 49/64/1
f 95/72/47 94/68/46 53/75/5 52/90/4
f 95/72/47 96/80/48 49/64/1
f 96/80/48 95/72/47 52/90/4 51/96/3
f 96/78/48 97/70/49 49/47/1
f 97/70/49 96/78/48 51/94/3 50/92/2
s 2
f 1/55/50 25/54/146 48/25/215 24/26/142
f 2/89/55 26/88/150 25/54/147 1/55/51
f 3/108/59 27/104/153 26/88/149 2/89/54
f 4/118/63 28/117/156 27/104/152 3/108/58
f 5/108/67 29/107/159 28/113/155 4/115/62
f 6/89/71 30/87/162 29/107/158 5/108/66
f 7/55/75 31/53/165 30/87/161 6/89/70
f 8/26/79 32/24/168 31/53/164 7/55/74
f 9/10/83 33/8/171 32/24/167 8/26/78
f 10/2/87 34/1/174 33/8/170 9/10/82
f 11/10/91 35/8/177 34/3/173 10/4/86
f 12/26/95 36/24/180 35/8/176 11/10/90
f 13/55/99 37/54/183 36/24/179 12/26/94
f 14/86/103 38/85/186 37/54/182 13/55/98
f 15/106/107 39/105/189 38/85/185 14/86/102
f 16/116/111 40/114/192 39/105/188 15/106/106
f 17/103/115 41/102/195 40/113/191 16/115/110
f 18/89/119 42/87/198 41/102/194 17/103/114
f 19/55/123 43/53/201 42/87/197 18/89/118
f 20/26/127 44/24/204 43/53/200 19/55/122
f 21/12/131 45/11/207 44/24/203 20/26/126
f 22/2/135 46/1/210 45/11/206 21/12/130
f 23/10/139 47/9/213 46/3/209 22/4/134
f 24/26/143 48/25/216 47/9/212 23/10/138
