# Exported from Wings 3D 1.5.4
mtllib Tantares_Antenna_2_1_Stem.mtl
o Tantares_Antenna_2_1_Stem
#20 vertices, 16 faces
v -2.5000000e-2 1.5625000e-2 0.0000000e+0
v -2.5000000e-2 1.1048543e-2 1.1048543e-2
v -2.5000000e-2 3.7041661e-17 1.5625000e-2
v -2.5000000e-2 -1.1048543e-2 1.1048543e-2
v -2.5000000e-2 -1.5625000e-2 1.9135106e-18
v 2.5000000e-2 1.5625000e-2 0.0000000e+0
v 2.5000000e-2 1.1048543e-2 1.1048543e-2
v 2.5000000e-2 3.5128150e-17 1.5625000e-2
v 2.5000000e-2 -1.1048543e-2 1.1048543e-2
v 2.5000000e-2 -1.5625000e-2 1.9135106e-18
v -2.5000000e-2 1.5625000e-2 -0.13125000
v -2.5000000e-2 -1.5625000e-2 -0.13125000
v -2.5000000e-2 -1.1048543e-2 -0.14229854
v -2.5000000e-2 3.3214640e-17 -0.14687500
v -2.5000000e-2 1.1048543e-2 -0.14229854
v 2.5000000e-2 1.5625000e-2 -0.13125000
v 2.5000000e-2 -1.5625000e-2 -0.13125000
v 2.5000000e-2 -1.1048543e-2 -0.14229854
v 2.5000000e-2 3.1301129e-17 -0.14687500
v 2.5000000e-2 1.1048543e-2 -0.14229854
vt 0.24472580 0.76632717
vt 0.24472580 0.82382717
vt 0.24673073 0.76148685
vt 0.24673073 0.82866748
vt 0.25157104 0.75948193
vt 0.25157104 0.83067240
vt 0.25641136 0.76148685
vt 0.25641136 0.82866748
vt 0.25841628 0.76632717
vt 0.25841628 0.82382717
vt 0.29584114 0.75948193
vt 0.29584114 0.76148685
vt 0.29584114 0.76632717
vt 0.29584114 0.82382717
vt 0.29584114 0.82866748
vt 0.29584114 0.83067240
vt 0.31721957 0.75948193
vt 0.31721957 0.76148685
vt 0.31721957 0.76632717
vt 0.31721957 0.82382717
vt 0.31721957 0.82866748
vt 0.31721957 0.83067240
vn -1.00000000 0.0000000e+0 0.0000000e+0
vn 1.4443308e-17 0.98078528 0.19509032
vn 1.4443308e-17 0.98078528 0.19509032
vn -1.00000000 0.0000000e+0 0.0000000e+0
vn -1.00000000 0.0000000e+0 0.0000000e+0
vn 2.7599282e-17 0.70710678 0.70710678
vn 2.7599282e-17 0.70710678 0.70710678
vn -1.00000000 0.0000000e+0 0.0000000e+0
vn -1.6676892e-33 3.0042419e-17 1.00000000
vn -1.6676892e-33 3.0042419e-17 1.00000000
vn -1.00000000 0.0000000e+0 0.0000000e+0
vn -3.6799042e-17 -0.70710678 0.70710678
vn -3.6799042e-17 -0.70710678 0.70710678
vn -1.00000000 0.0000000e+0 0.0000000e+0
vn -4.0796380e-17 -0.98078528 0.19509032
vn -1.00000000 0.0000000e+0 0.0000000e+0
vn -4.0796380e-17 -0.98078528 0.19509032
vn 1.00000000 -1.3401577e-16 -6.7007887e-17
vn 1.4443308e-17 0.98078528 0.19509032
vn 1.4443308e-17 0.98078528 0.19509032
vn 1.00000000 -1.3401577e-16 -6.7007887e-17
vn 1.00000000 -1.5700925e-16 -1.3401577e-16
vn 2.7599282e-17 0.70710678 0.70710678
vn 2.7599282e-17 0.70710678 0.70710678
vn 1.00000000 -1.5700925e-16 -1.3401577e-16
vn -1.6676892e-33 3.0042419e-17 1.00000000
vn -1.6676892e-33 3.0042419e-17 1.00000000
vn 1.00000000 -1.5700925e-16 -1.3401577e-16
vn -3.6799042e-17 -0.70710678 0.70710678
vn -3.6799042e-17 -0.70710678 0.70710678
vn 1.00000000 -1.3401577e-16 -6.7007887e-17
vn -4.0796380e-17 -0.98078528 0.19509032
vn -4.0796380e-17 -0.98078528 0.19509032
vn 1.00000000 -1.3401577e-16 -6.7007887e-17
vn -1.00000000 0.0000000e+0 0.0000000e+0
vn 1.7331970e-17 0.98078528 -0.19509032
vn 1.7331970e-17 0.98078528 -0.19509032
vn -1.00000000 0.0000000e+0 0.0000000e+0
vn -1.00000000 0.0000000e+0 0.0000000e+0
vn -4.0796380e-17 -0.98078528 -0.19509032
vn -1.00000000 0.0000000e+0 0.0000000e+0
vn -4.0796380e-17 -0.98078528 -0.19509032
vn -1.00000000 0.0000000e+0 0.0000000e+0
vn -3.3732455e-17 -0.70710678 -0.70710678
vn -3.3732455e-17 -0.70710678 -0.70710678
vn -1.00000000 0.0000000e+0 0.0000000e+0
vn 0.0000000e+0 0.0000000e+0 -1.00000000
vn 0.0000000e+0 0.0000000e+0 -1.00000000
vn -1.00000000 0.0000000e+0 0.0000000e+0
vn 2.7599282e-17 0.70710678 -0.70710678
vn 2.7599282e-17 0.70710678 -0.70710678
vn 1.00000000 -1.3401577e-16 6.7007887e-17
vn 1.7331970e-17 0.98078528 -0.19509032
vn 1.7331970e-17 0.98078528 -0.19509032
vn 1.00000000 -1.3401577e-16 6.7007887e-17
vn 1.00000000 -1.3401577e-16 6.7007887e-17
vn -4.0796380e-17 -0.98078528 -0.19509032
vn -4.0796380e-17 -0.98078528 -0.19509032
vn 1.00000000 -1.3401577e-16 6.7007887e-17
vn 1.00000000 -1.5700925e-16 1.3401577e-16
vn -3.3732455e-17 -0.70710678 -0.70710678
vn -3.3732455e-17 -0.70710678 -0.70710678
vn 1.00000000 -1.5700925e-16 1.3401577e-16
vn 0.0000000e+0 0.0000000e+0 -1.00000000
vn 0.0000000e+0 0.0000000e+0 -1.00000000
vn 1.00000000 -1.5700925e-16 1.3401577e-16
vn 2.7599282e-17 0.70710678 -0.70710678
vn 2.7599282e-17 0.70710678 -0.70710678
g Tantares_Antenna_2_1_Stem_Tantares_Antenna_2_1_Stem_auv
usemtl Tantares_Antenna_2_1_Stem_auv
s 1
f 2/12/7 7/18/24 6/19/19 1/13/2
f 3/11/10 8/17/27 7/18/23 2/12/6
f 4/18/13 9/12/30 8/11/26 3/17/9
f 5/19/15 10/13/32 9/12/29 4/18/12
f 5/19/17 12/20/42 17/14/58 10/13/33
f 6/19/20 16/20/54 11/14/37 1/13/3
f 11/14/36 16/20/53 20/21/67 15/15/50
f 13/21/45 18/15/62 17/14/57 12/20/40
f 14/22/48 19/16/65 18/15/61 13/21/44
f 15/15/51 20/21/68 19/22/64 14/16/47
s 2
f 1/2/1 5/10/14 4/8/11 3/6/8 2/4/5
f 1/2/4 11/1/38 12/9/41 5/10/16
f 7/3/22 8/5/25 9/7/28 10/9/31 6/1/18
f 10/9/34 17/10/59 16/2/55 6/1/21
f 15/3/49 14/5/46 13/7/43 12/9/39 11/1/35
f 16/2/52 17/10/56 18/8/60 19/6/63 20/4/66
