# Blender v2.92.0 OBJ File: 'SSVP.blend'
# www.blender.org
mtllib male  probe tip.mtl
g SSVP_probe_Tip_ssvp_m_03
v -0.011808 0.391969 0.006817
v -0.006818 0.391969 0.011808
v -0.014696 0.435878 0.008485
v -0.027387 0.421723 0.015812
v -0.023670 0.431732 0.013666
v -0.008485 0.435878 0.014696
v -0.015812 0.421723 0.027386
v -0.013666 0.431732 0.023669
v -0.027387 0.397694 0.015812
v -0.022006 0.391969 0.012705
v -0.015812 0.397694 0.027386
v -0.012705 0.391969 0.022005
v 0.011808 0.391969 0.006817
v 0.006817 0.391969 0.011808
v -0.000000 0.391969 0.013635
v 0.014696 0.435878 0.008485
v 0.027386 0.421723 0.015812
v 0.023669 0.431732 0.013666
v 0.008484 0.435878 0.014696
v 0.015811 0.421723 0.027386
v 0.013665 0.431732 0.023669
v -0.000000 0.435878 0.016969
v -0.000000 0.421723 0.031623
v -0.000000 0.431732 0.027331
v 0.027386 0.397694 0.015812
v 0.022005 0.391969 0.012705
v 0.015811 0.397694 0.027386
v 0.012705 0.391969 0.022005
v -0.000000 0.397694 0.031623
v -0.000000 0.391969 0.025410
v -0.013635 0.391969 0.000000
v -0.011808 0.391969 -0.006817
v -0.006818 0.391969 -0.011808
v -0.016970 0.435878 0.000000
v -0.031623 0.421723 0.000000
v -0.027331 0.431732 0.000000
v -0.014696 0.435878 -0.008485
v -0.027387 0.421723 -0.015812
v -0.023670 0.431732 -0.013666
v -0.008485 0.435878 -0.014696
v -0.015812 0.421723 -0.027386
v -0.013666 0.431732 -0.023669
v -0.031623 0.397694 0.000000
v -0.025410 0.391969 0.000000
v -0.027387 0.397694 -0.015812
v -0.022006 0.391969 -0.012705
v -0.015812 0.397694 -0.027386
v -0.012705 0.391969 -0.022005
v 0.013634 0.391969 0.000000
v 0.011808 0.391969 -0.006817
v 0.006817 0.391969 -0.011808
v -0.000000 0.391969 -0.013635
v 0.016969 0.435878 0.000000
v 0.031623 0.421723 0.000000
v 0.027331 0.431732 0.000000
v 0.014696 0.435878 -0.008485
v 0.027386 0.421723 -0.015812
v 0.023669 0.431732 -0.013666
v 0.008484 0.435878 -0.014696
v 0.015811 0.421723 -0.027386
v 0.013665 0.431732 -0.023669
v -0.000000 0.435878 -0.016969
v -0.000000 0.421723 -0.031623
v -0.000000 0.431732 -0.027331
v 0.031623 0.397694 0.000000
v 0.025409 0.391969 0.000000
v 0.027386 0.397694 -0.015812
v 0.022005 0.391969 -0.012705
v 0.015811 0.397694 -0.027386
v 0.012705 0.391969 -0.022005
v -0.000000 0.397694 -0.031623
v -0.000000 0.391969 -0.025410
v -0.000000 0.435878 0.000000
vt 0.861905 0.712904
vt 0.810294 0.712904
vt 0.810294 0.748062
vt 0.861905 0.748062
vt 0.861905 0.677746
vt 0.810294 0.677746
vt 0.861905 0.642588
vt 0.810294 0.642588
vt 0.826951 0.825428
vt 0.840628 0.844640
vt 0.868743 0.833453
vt 0.860966 0.809460
vt 0.852725 0.863930
vt 0.870907 0.858260
vt 0.801421 0.851158
vt 0.820196 0.864118
vt 0.839370 0.876859
vt 0.785726 0.882944
vt 0.807828 0.891174
vt 0.832877 0.895045
vt 0.829713 0.535348
vt 0.812214 0.539433
vt 0.827204 0.571393
vt 0.841925 0.560658
vt 0.829972 0.508037
vt 0.812218 0.504083
vt 0.842651 0.483035
vt 0.827775 0.471765
vt 0.861418 0.543339
vt 0.854241 0.529539
vt 0.854205 0.514101
vt 0.861418 0.500522
vt 0.870907 0.896161
vt 0.861905 0.712904
vt 0.861905 0.748062
vt 0.810294 0.748062
vt 0.810294 0.712904
vt 0.861905 0.677746
vt 0.810294 0.677746
vt 0.826951 0.825428
vt 0.860966 0.809460
vt 0.868743 0.833453
vt 0.840628 0.844640
vt 0.870907 0.858260
vt 0.852725 0.863930
vt 0.801421 0.851158
vt 0.820196 0.864118
vt 0.839370 0.876859
vt 0.829713 0.535348
vt 0.841925 0.560658
vt 0.827204 0.571393
vt 0.812214 0.539433
vt 0.829972 0.508037
vt 0.812218 0.504083
vt 0.854241 0.529539
vt 0.861418 0.543339
vt 0.854205 0.514101
vt 0.861905 0.712904
vt 0.810294 0.712904
vt 0.861905 0.677746
vt 0.810294 0.677746
vt 0.861905 0.642588
vt 0.810294 0.642588
vt 0.826951 0.825428
vt 0.840628 0.844640
vt 0.852725 0.863930
vt 0.801421 0.851158
vt 0.820196 0.864118
vt 0.839370 0.876859
vt 0.785726 0.882944
vt 0.807828 0.891174
vt 0.832877 0.895045
vt 0.829713 0.535348
vt 0.812214 0.539433
vt 0.829972 0.508037
vt 0.812218 0.504083
vt 0.842651 0.483035
vt 0.827775 0.471765
vt 0.854241 0.529539
vt 0.854205 0.514101
vt 0.861418 0.500522
vt 0.861905 0.712904
vt 0.810294 0.712904
vt 0.861905 0.677746
vt 0.810294 0.677746
vt 0.826951 0.825428
vt 0.840628 0.844640
vt 0.852725 0.863930
vt 0.801421 0.851158
vt 0.820196 0.864118
vt 0.839370 0.876859
vt 0.829713 0.535348
vt 0.812214 0.539433
vt 0.829972 0.508037
vt 0.812218 0.504083
vt 0.854241 0.529539
vt 0.854205 0.514101
vn -0.8660 0.0000 0.5000
vn -0.8494 0.1949 0.4904
vn -0.9808 0.1949 -0.0000
vn -1.0000 0.0000 -0.0000
vn -0.5000 0.0000 0.8660
vn -0.4904 0.1949 0.8494
vn 0.0000 0.0000 1.0000
vn -0.0000 0.1949 0.9808
vn -0.6306 0.6854 0.3641
vn -0.7282 0.6854 -0.0000
vn -0.1898 0.9757 0.1096
vn -0.2192 0.9757 -0.0000
vn -0.3641 0.6854 0.6306
vn -0.1096 0.9757 0.1898
vn -0.0000 0.6854 0.7282
vn 0.0000 0.9757 0.2192
vn -0.5868 -0.7355 0.3388
vn -0.6776 -0.7355 0.0000
vn -0.3388 -0.7355 0.5868
vn 0.0000 -0.7355 0.6776
vn 0.0000 -1.0000 0.0000
vn 0.0000 1.0000 -0.0000
vn 0.8660 0.0000 0.5000
vn 1.0000 0.0000 -0.0000
vn 0.9808 0.1949 -0.0000
vn 0.8494 0.1949 0.4904
vn 0.5000 0.0000 0.8660
vn 0.4904 0.1949 0.8494
vn 0.7282 0.6854 -0.0000
vn 0.6306 0.6854 0.3641
vn 0.2192 0.9757 -0.0000
vn 0.1898 0.9757 0.1096
vn 0.4595 0.3941 0.7959
vn 0.1857 0.9284 0.3217
vn 0.1096 0.9757 0.1898
vn 0.5868 -0.7355 0.3388
vn 0.6776 -0.7355 -0.0000
vn 0.3388 -0.7355 0.5868
vn -0.8660 0.0000 -0.5000
vn -0.8494 0.1949 -0.4904
vn -0.5000 0.0000 -0.8660
vn -0.4904 0.1949 -0.8494
vn 0.0000 0.0000 -1.0000
vn -0.0000 0.1949 -0.9808
vn -0.6306 0.6854 -0.3641
vn -0.1898 0.9757 -0.1096
vn -0.3641 0.6854 -0.6306
vn -0.1096 0.9757 -0.1898
vn -0.0000 0.6854 -0.7282
vn 0.0000 0.9757 -0.2192
vn -0.5868 -0.7355 -0.3388
vn -0.3388 -0.7355 -0.5868
vn 0.0000 -0.7355 -0.6776
vn 0.8660 0.0000 -0.5000
vn 0.8494 0.1949 -0.4904
vn 0.5000 0.0000 -0.8660
vn 0.4904 0.1949 -0.8494
vn 0.6306 0.6854 -0.3641
vn 0.1898 0.9757 -0.1096
vn 0.4595 0.3941 -0.7959
vn 0.1857 0.9284 -0.3217
vn 0.1096 0.9757 -0.1898
vn 0.5868 -0.7355 -0.3388
vn 0.3388 -0.7355 -0.5868
usemtl SSVP_bumpedSpec
s 1
f 9/1/1 4/2/2 35/3/3 43/4/4
f 11/5/5 7/6/6 4/2/2 9/1/1
f 29/7/7 23/8/8 7/6/6 11/5/5
f 4/9/2 5/10/9 36/11/10 35/12/3
f 5/10/9 3/13/11 34/14/12 36/11/10
f 7/15/6 8/16/13 5/10/9 4/9/2
f 8/16/13 6/17/14 3/13/11 5/10/9
f 23/18/8 24/19/15 8/16/13 7/15/6
f 24/19/15 22/20/16 6/17/14 8/16/13
f 10/21/17 9/22/17 43/23/18 44/24/18
f 12/25/19 11/26/19 9/22/17 10/21/17
f 30/27/20 29/28/20 11/26/19 12/25/19
f 44/24/21 31/29/21 1/30/21 10/21/21
f 10/21/21 1/30/21 2/31/21 12/25/21
f 12/25/21 2/31/21 15/32/21 30/27/21
f 34/14/12 3/13/11 6/17/14 22/20/16 73/33/22
f 25/34/23 65/35/24 54/36/25 17/37/26
f 27/38/27 25/34/23 17/37/26 20/39/28
f 29/7/7 27/38/27 20/39/28 23/8/8
f 17/40/26 54/41/25 55/42/29 18/43/30
f 18/43/30 55/42/29 53/44/31 16/45/32
f 20/46/28 17/40/26 18/43/30 21/47/33
f 21/47/34 18/43/30 16/45/32 19/48/35
f 23/18/8 20/46/28 21/47/33 24/19/15
f 24/19/15 21/47/34 19/48/35 22/20/16
f 26/49/36 66/50/37 65/51/37 25/52/36
f 28/53/38 26/49/36 25/52/36 27/54/38
f 30/27/20 28/53/38 27/54/38 29/28/20
f 66/50/21 26/49/21 13/55/21 49/56/21
f 26/49/21 28/53/21 14/57/21 13/55/21
f 28/53/21 30/27/21 15/32/21 14/57/21
f 53/44/31 73/33/22 22/20/16 19/48/35 16/45/32
f 45/58/39 43/4/4 35/3/3 38/59/40
f 47/60/41 45/58/39 38/59/40 41/61/42
f 71/62/43 47/60/41 41/61/42 63/63/44
f 38/64/40 35/12/3 36/11/10 39/65/45
f 39/65/45 36/11/10 34/14/12 37/66/46
f 41/67/42 38/64/40 39/65/45 42/68/47
f 42/68/47 39/65/45 37/66/46 40/69/48
f 63/70/44 41/67/42 42/68/47 64/71/49
f 64/71/49 42/68/47 40/69/48 62/72/50
f 46/73/51 44/24/18 43/23/18 45/74/51
f 48/75/52 46/73/51 45/74/51 47/76/52
f 72/77/53 48/75/52 47/76/52 71/78/53
f 44/24/21 46/73/21 32/79/21 31/29/21
f 46/73/21 48/75/21 33/80/21 32/79/21
f 48/75/21 72/77/21 52/81/21 33/80/21
f 34/14/12 73/33/22 62/72/50 40/69/48 37/66/46
f 67/82/54 57/83/55 54/36/25 65/35/24
f 69/84/56 60/85/57 57/83/55 67/82/54
f 71/62/43 63/63/44 60/85/57 69/84/56
f 57/86/55 58/87/58 55/42/29 54/41/25
f 58/87/58 56/88/59 53/44/31 55/42/29
f 60/89/57 61/90/60 58/87/58 57/86/55
f 61/90/61 59/91/62 56/88/59 58/87/58
f 63/70/44 64/71/49 61/90/60 60/89/57
f 64/71/49 62/72/50 59/91/62 61/90/61
f 68/92/63 67/93/63 65/51/37 66/50/37
f 70/94/64 69/95/64 67/93/63 68/92/63
f 72/77/53 71/78/53 69/95/64 70/94/64
f 66/50/21 49/56/21 50/96/21 68/92/21
f 68/92/21 50/96/21 51/97/21 70/94/21
f 70/94/21 51/97/21 52/81/21 72/77/21
f 53/44/31 56/88/59 59/91/62 62/72/50 73/33/22
