# Exported from Wings 3D 1.5.4
mtllib octans_star_tracker_srf_1.mtl
o mesh
#113 vertices, 84 faces
v 6.2500000e-2 -3.7500000e-2 -0.17500000
v 3.7500000e-2 -6.2500000e-2 -0.17500000
v -3.7500000e-2 -6.2500000e-2 -0.17500000
v -6.2500000e-2 -3.7500000e-2 -0.17500000
v 6.2500000e-2 3.7500000e-2 -0.17500000
v 3.7500000e-2 6.2500000e-2 -0.17500000
v -3.7500000e-2 6.2500000e-2 -0.17500000
v -6.2500000e-2 3.7500000e-2 -0.17500000
v 6.2500000e-2 -3.7500000e-2 2.5000000e-2
v 3.7500000e-2 -6.2500000e-2 2.5000000e-2
v -3.7500000e-2 -6.2500000e-2 2.5000000e-2
v -6.2500000e-2 -3.7500000e-2 2.5000000e-2
v 6.2500000e-2 3.7500000e-2 2.5000000e-2
v 3.7500000e-2 6.2500000e-2 2.5000000e-2
v -3.7500000e-2 6.2500000e-2 2.5000000e-2
v -6.2500000e-2 3.7500000e-2 2.5000000e-2
v -5.4419417e-2 5.4419417e-2 -0.17500000
v 5.4419417e-2 -5.4419417e-2 2.5000000e-2
v 5.4419417e-2 5.4419417e-2 -0.17500000
v -5.4419417e-2 -5.4419417e-2 2.5000000e-2
v -5.4419417e-2 -5.4419417e-2 -0.17500000
v -5.4419417e-2 5.4419417e-2 2.5000000e-2
v 5.4419417e-2 5.4419417e-2 2.5000000e-2
v 5.4419417e-2 -5.4419417e-2 -0.17500000
v 9.6152440e-17 1.4350629e-2 -0.28464548
v -7.1753144e-3 1.2428009e-2 -0.28464548
v -1.2428009e-2 7.1753144e-3 -0.28464548
v -1.4350629e-2 0.0000000e+0 -0.28464548
v -1.2428009e-2 -7.1753144e-3 -0.28464548
v -7.1753144e-3 -1.2428009e-2 -0.28464548
v 9.4394995e-17 -1.4350629e-2 -0.28464548
v 7.1753144e-3 -1.2428009e-2 -0.28464548
v 1.2428009e-2 -7.1753144e-3 -0.28464548
v 1.4350629e-2 0.0000000e+0 -0.28464548
v 1.2428009e-2 7.1753144e-3 -0.28464548
v 7.1753144e-3 1.2428009e-2 -0.28464548
v 9.6650196e-17 2.6516504e-2 -0.27651650
v -1.3258252e-2 2.2963966e-2 -0.27651650
v -2.2963966e-2 1.3258252e-2 -0.27651650
v -2.6516504e-2 0.0000000e+0 -0.27651650
v -2.2963966e-2 -1.3258252e-2 -0.27651650
v -1.3258252e-2 -2.2963966e-2 -0.27651650
v 9.3402861e-17 -2.6516504e-2 -0.27651650
v 1.3258252e-2 -2.2963966e-2 -0.27651650
v 2.2963966e-2 -1.3258252e-2 -0.27651650
v 2.6516504e-2 0.0000000e+0 -0.27651650
v 2.2963966e-2 1.3258252e-2 -0.27651650
v 1.3258252e-2 2.2963966e-2 -0.27651650
v 9.7395141e-17 3.4645482e-2 -0.26435063
v -1.7322741e-2 3.0003868e-2 -0.26435063
v -3.0003868e-2 1.7322741e-2 -0.26435063
v -3.4645482e-2 0.0000000e+0 -0.26435063
v -3.0003868e-2 -1.7322741e-2 -0.26435063
v -1.7322741e-2 -3.0003868e-2 -0.26435063
v 9.3152294e-17 -3.4645482e-2 -0.26435063
v 1.7322741e-2 -3.0003868e-2 -0.26435063
v 3.0003868e-2 -1.7322741e-2 -0.26435063
v 3.4645482e-2 0.0000000e+0 -0.26435063
v 3.0003868e-2 1.7322741e-2 -0.26435063
v 1.7322741e-2 3.0003868e-2 -0.26435063
v 9.8273864e-17 3.7500000e-2 -0.25000000
v -1.8750000e-2 3.2475953e-2 -0.25000000
v -3.2475953e-2 1.8750000e-2 -0.25000000
v -3.7500000e-2 0.0000000e+0 -0.25000000
v -3.2475953e-2 -1.8750000e-2 -0.25000000
v -1.8750000e-2 -3.2475953e-2 -0.25000000
v 9.3681439e-17 -3.7500000e-2 -0.25000000
v 1.8750000e-2 -3.2475953e-2 -0.25000000
v 3.2475953e-2 -1.8750000e-2 -0.25000000
v 3.7500000e-2 0.0000000e+0 -0.25000000
v 3.2475953e-2 1.8750000e-2 -0.25000000
v 1.8750000e-2 3.2475953e-2 -0.25000000
v 9.5977651e-17 0.0000000e+0 -0.28750000
v 9.6956131e-17 2.5000000e-2 -0.25000000
v -1.7677670e-2 1.7677670e-2 -0.25000000
v -2.5000000e-2 0.0000000e+0 -0.25000000
v -1.7677670e-2 -1.7677670e-2 -0.25000000
v 9.7727747e-17 -2.5000000e-2 -0.25000000
v 1.7677670e-2 -1.7677670e-2 -0.25000000
v 2.5000000e-2 0.0000000e+0 -0.25000000
v 1.7677670e-2 1.7677670e-2 -0.25000000
v 9.6570323e-17 2.5000000e-2 -0.22500000
v -1.7677670e-2 1.7677670e-2 -0.22500000
v -2.5000000e-2 0.0000000e+0 -0.22500000
v -1.7677670e-2 -1.7677670e-2 -0.22500000
v 9.7341939e-17 -2.5000000e-2 -0.22500000
v 1.7677670e-2 -1.7677670e-2 -0.22500000
v 2.5000000e-2 0.0000000e+0 -0.22500000
v 1.7677670e-2 1.7677670e-2 -0.22500000
v 9.8270199e-17 3.7500000e-2 -0.22500000
v -1.8750000e-2 3.2475953e-2 -0.22500000
v -3.2475953e-2 1.8750000e-2 -0.22500000
v -3.7500000e-2 0.0000000e+0 -0.22500000
v -3.2475953e-2 -1.8750000e-2 -0.22500000
v -1.8750000e-2 -3.2475953e-2 -0.22500000
v 9.4761976e-17 -3.7500000e-2 -0.22500000
v 1.8750000e-2 -3.2475953e-2 -0.22500000
v 3.2475953e-2 -1.8750000e-2 -0.22500000
v 3.7500000e-2 0.0000000e+0 -0.22500000
v 3.2475953e-2 1.8750000e-2 -0.22500000
v 1.8750000e-2 3.2475953e-2 -0.22500000
v 1.0091380e-16 5.0000000e-2 -0.17500000
v -2.5000000e-2 4.3301270e-2 -0.17500000
v -4.3301270e-2 2.5000000e-2 -0.17500000
v -5.0000000e-2 0.0000000e+0 -0.17500000
v -4.3301270e-2 -2.5000000e-2 -0.17500000
v -2.5000000e-2 -4.3301270e-2 -0.17500000
v 9.6236165e-17 -5.0000000e-2 -0.17500000
v 2.5000000e-2 -4.3301270e-2 -0.17500000
v 4.3301270e-2 -2.5000000e-2 -0.17500000
v 5.0000000e-2 0.0000000e+0 -0.17500000
v 4.3301270e-2 2.5000000e-2 -0.17500000
v 2.5000000e-2 4.3301270e-2 -0.17500000
vt 7.4273867e-2 0.11085976
vt 7.4273867e-2 0.22759095
vt 7.4273867e-2 0.38171703
vt 7.4273867e-2 0.49844822
vt 7.4579830e-2 0.61371682
vt 7.4579830e-2 0.61371682
vt 7.4579830e-2 0.92500000
vt 7.4579830e-2 0.92500000
vt 7.5000000e-2 0.61371682
vt 7.5000000e-2 0.92500000
vt 8.6850614e-2 8.4526113e-2
vt 8.6850614e-2 0.25392460
vt 8.6850614e-2 0.35538338
vt 8.6850614e-2 0.52478187
vt 0.10376263 0.61371682
vt 0.10376263 0.61371682
vt 0.10376263 0.92500000
vt 0.10376263 0.92500000
vt 0.10418280 0.61371682
vt 0.10418280 0.92500000
vt 0.11318426 0.34280663
vt 0.11318426 0.53735862
vt 0.11318426 7.1949366e-2
vt 0.11318426 0.26650135
vt 0.22049382 0.61371682
vt 0.22049382 0.61371682
vt 0.22049382 0.92500000
vt 0.22091399 0.61371682
vt 0.22091399 0.92500000
vt 0.22991545 7.1949366e-2
vt 0.22991545 0.26650135
vt 0.22991545 0.34280663
vt 0.22991545 0.53735862
vt 0.24967662 0.61371682
vt 0.24967662 0.61371682
vt 0.24967662 0.92500000
vt 0.24967662 0.92500000
vt 0.25009679 0.92500000
vt 0.25009679 0.61371682
vt 0.25624910 8.4526113e-2
vt 0.25624910 0.25392460
vt 0.25624910 0.35538338
vt 0.25624910 0.52478187
vt 0.26882585 0.11085976
vt 0.26882585 0.22759095
vt 0.26882585 0.38171703
vt 0.26882585 0.49844822
vt 0.39815088 0.92500000
vt 0.39815088 0.61371682
vt 0.42733368 0.61371682
vt 0.42733368 0.92500000
vt 0.54406487 0.61371682
vt 0.54406487 0.92500000
vt 0.57324767 0.61371682
vt 0.57324767 0.92500000
vt 0.73251025 7.1999019e-2
vt 0.73251025 7.1999019e-2
vt 0.73305584 0.46284612
vt 0.73305584 0.51895492
vt 0.73425170 0.28843055
vt 0.73425170 0.70316586
vt 0.74207121 0.25924775
vt 0.74207121 0.73234866
vt 0.74207121 0.31761334
vt 0.74207121 0.67398307
vt 0.74639711 0.83955822
vt 0.74639711 0.83955822
vt 0.74639711 0.83955822
vt 0.74639711 0.83955822
vt 0.74753701 0.15142574
vt 0.74753701 0.15142574
vt 0.74753701 0.15142574
vt 0.75227156 0.86217805
vt 0.75227156 0.86217805
vt 0.75227156 0.86217805
vt 0.75227156 0.86217805
vt 0.76179808 0.88375779
vt 0.76179808 0.88375779
vt 0.76179808 0.88375779
vt 0.76179808 0.88375779
vt 0.76283657 0.46284612
vt 0.76283657 0.51895492
vt 0.76283657 0.46284612
vt 0.76283657 0.51895492
vt 0.76343450 0.23788446
vt 0.76343450 0.75371195
vt 0.76343450 0.33897663
vt 0.76343450 0.65261978
vt 0.77247579 7.1999019e-2
vt 0.77247579 7.1999019e-2
vt 0.77247579 7.1999019e-2
vt 0.77543591 0.90464373
vt 0.77543591 0.90464373
vt 0.77543591 0.90464373
vt 0.77543591 0.90464373
vt 0.77687611 0.83955822
vt 0.77687611 0.83955822
vt 0.77687611 0.83955822
vt 0.77687611 0.83955822
vt 0.77751117 0.15142574
vt 0.77751117 0.15142574
vt 0.77751117 0.15142574
vt 0.77914108 0.86217805
vt 0.77914108 0.86217805
vt 0.77914108 0.86217805
vt 0.77914108 0.86217805
vt 0.78207606 0.88375779
vt 0.78207606 0.88375779
vt 0.78207606 0.88375779
vt 0.78207606 0.88375779
vt 0.78631027 0.90464373
vt 0.78631027 0.90464373
vt 0.78631027 0.90464373
vt 0.78631027 0.90464373
vt 0.79206471 0.92500000
vt 0.79206471 0.92500000
vt 0.79206471 0.92500000
vt 0.79206471 0.92500000
vt 0.79261729 0.23006495
vt 0.79261729 0.46284612
vt 0.79261729 0.51895492
vt 0.79261729 0.76153146
vt 0.79261729 0.46284612
vt 0.79261729 0.51895492
vt 0.79261729 0.64480027
vt 0.79261729 0.34679614
vt 0.79799441 0.90464373
vt 0.79799441 0.90464373
vt 0.79799441 0.90464373
vt 0.79799441 0.90464373
vt 0.80242503 0.88375779
vt 0.80242503 0.88375779
vt 0.80242503 0.88375779
vt 0.80242503 0.88375779
vt 0.80560396 0.86217805
vt 0.80560396 0.86217805
vt 0.80560396 0.86217805
vt 0.80560396 0.86217805
vt 0.80772342 0.15142574
vt 0.80772342 0.15142574
vt 0.80802833 0.83955822
vt 0.80802833 0.83955822
vt 0.80802833 0.83955822
vt 0.80802833 0.83955822
vt 0.80881921 0.90464373
vt 0.80881921 0.90464373
vt 0.80881921 0.90464373
vt 0.80881921 0.90464373
vt 0.81275880 7.1999019e-2
vt 0.81275880 7.1999019e-2
vt 0.81275880 7.1999019e-2
vt 0.82180009 0.23788446
vt 0.82180009 0.65261978
vt 0.82180009 0.75371195
vt 0.82180009 0.33897663
vt 0.82239802 0.46284612
vt 0.82239802 0.51895492
vt 0.82239802 0.46284612
vt 0.82239802 0.51895492
vt 0.82258711 0.88375779
vt 0.82258711 0.88375779
vt 0.82258711 0.88375779
vt 0.82258711 0.88375779
vt 0.83255499 0.86217805
vt 0.83255499 0.86217805
vt 0.83255499 0.86217805
vt 0.83255499 0.86217805
vt 0.83769758 0.15142574
vt 0.83769758 0.15142574
vt 0.83769758 0.15142574
vt 0.83883748 0.83955822
vt 0.83883748 0.83955822
vt 0.83883748 0.83955822
vt 0.83883748 0.83955822
vt 0.84316338 0.25924775
vt 0.84316338 0.73234866
vt 0.84316338 0.67398307
vt 0.84316338 0.31761334
vt 0.85098289 0.70316586
vt 0.85098289 0.28843055
vt 0.85217875 0.46284612
vt 0.85217875 0.51895492
vt 0.85272434 7.1999019e-2
vt 0.85272434 7.1999019e-2
vn -4.9829351e-17 0.38180163 -0.92424429
vn -0.19090082 0.33064991 -0.92424429
vn -0.33064991 0.19090082 -0.92424429
vn -0.38180163 5.3032666e-15 -0.92424429
vn -0.33064991 -0.19090082 -0.92424429
vn -0.19090082 -0.33064991 -0.92424429
vn 4.2710872e-17 -0.38180163 -0.92424429
vn 0.19090082 -0.33064991 -0.92424429
vn 0.33064991 -0.19090082 -0.92424429
vn 0.38180163 5.0256459e-15 -0.92424429
vn 0.33064991 0.19090082 -0.92424429
vn 0.19090082 0.33064991 -0.92424429
vn -9.3602881e-17 0.70617349 -0.70803885
vn -0.35308674 0.61156418 -0.70803885
vn -0.61156418 0.35308674 -0.70803885
vn -0.70617349 2.8152866e-15 -0.70803885
vn -0.61156418 -0.35308674 -0.70803885
vn -0.35308674 -0.61156418 -0.70803885
vn -1.5840488e-15 -0.70617349 -0.70803885
vn 0.35308674 -0.61156418 -0.70803885
vn 0.61156418 -0.35308674 -0.70803885
vn 0.70617349 2.2896705e-15 -0.70803885
vn 0.61156418 0.35308674 -0.70803885
vn 0.35308674 0.61156418 -0.70803885
vn 1.3689262e-15 0.92353014 -0.38352586
vn -0.46176507 0.79980056 -0.38352586
vn -0.79980056 0.46176507 -0.38352586
vn -0.92353014 1.3398001e-15 -0.38352586
vn -0.79980056 -0.46176507 -0.38352586
vn -0.46176507 -0.79980056 -0.38352586
vn -2.9417351e-15 -0.92353014 -0.38352586
vn 0.46176507 -0.79980056 -0.38352586
vn 0.79980056 -0.46176507 -0.38352586
vn 0.92353014 1.0485392e-15 -0.38352586
vn 0.79980056 0.46176507 -0.38352586
vn 0.46176507 0.79980056 -0.38352586
vn -2.9518728e-18 4.3026497e-15 -1.00000000
vn -6.0084837e-17 1.00000000 -3.3353785e-33
vn -0.70710678 0.70710678 -6.1331737e-17
vn -1.00000000 0.0000000e+0 -9.1997605e-17
vn -0.70710678 -0.70710678 -6.1331737e-17
vn -6.0084837e-17 -1.00000000 -1.5332934e-17
vn 0.70710678 -0.70710678 4.5998803e-17
vn 1.00000000 0.0000000e+0 9.1997605e-17
vn 0.70710678 0.70710678 6.1331737e-17
vn -6.0084837e-17 1.00000000 -3.3353785e-33
vn -0.70710678 0.70710678 -6.1331737e-17
vn -1.00000000 0.0000000e+0 -9.1997605e-17
vn -0.70710678 -0.70710678 -6.1331737e-17
vn -6.0084837e-17 -1.00000000 -1.5332934e-17
vn 0.70710678 -0.70710678 4.5998803e-17
vn 1.00000000 0.0000000e+0 9.1997605e-17
vn 0.70710678 0.70710678 6.1331737e-17
vn -1.7206810e-16 0.97014250 -0.24253563
vn -0.48507125 0.84016805 -0.24253563
vn -0.84016805 0.48507125 -0.24253563
vn -0.97014250 8.0298447e-16 -0.24253563
vn -0.84016805 -0.48507125 -0.24253563
vn -0.48507125 -0.84016805 -0.24253563
vn -4.5024487e-15 -0.97014250 -0.24253563
vn 0.48507125 -0.84016805 -0.24253563
vn 0.84016805 -0.48507125 -0.24253563
vn 0.97014250 -2.8678017e-17 -0.24253563
vn 0.84016805 0.48507125 -0.24253563
vn 0.48507125 0.84016805 -0.24253563
vn 0.97528686 -0.22094238 -6.8923860e-17
vn 0.97528686 -0.22094238 -6.8923860e-17
vn -1.1707703e-16 0.0000000e+0 -1.00000000
vn 0.22094238 -0.97528686 -1.4822335e-17
vn 0.22094238 -0.97528686 -1.4822335e-17
vn -1.1707703e-16 0.0000000e+0 -1.00000000
vn -0.22094238 -0.97528686 1.4822335e-17
vn -0.22094238 -0.97528686 1.4822335e-17
vn -1.1707703e-16 0.0000000e+0 -1.00000000
vn -0.97528686 -0.22094238 6.8923860e-17
vn -0.97528686 -0.22094238 6.8923860e-17
vn -1.1707703e-16 0.0000000e+0 -1.00000000
vn 0.97528686 0.22094238 -6.8923860e-17
vn 0.97528686 0.22094238 -6.8923860e-17
vn -1.1707703e-16 0.0000000e+0 -1.00000000
vn 0.22094238 0.97528686 -1.4822335e-17
vn 0.22094238 0.97528686 -1.4822335e-17
vn -1.1707703e-16 0.0000000e+0 -1.00000000
vn -0.22094238 0.97528686 1.4822335e-17
vn -0.22094238 0.97528686 1.4822335e-17
vn -1.1707703e-16 0.0000000e+0 -1.00000000
vn -0.97528686 0.22094238 6.8923860e-17
vn -0.97528686 0.22094238 6.8923860e-17
vn -1.1707703e-16 0.0000000e+0 -1.00000000
vn 0.97528686 -0.22094238 -6.8923860e-17
vn 0.97528686 -0.22094238 -6.8923860e-17
vn 5.8538513e-17 0.0000000e+0 1.00000000
vn 0.22094238 -0.97528686 -1.4822335e-17
vn 0.22094238 -0.97528686 -1.4822335e-17
vn 5.8538513e-17 0.0000000e+0 1.00000000
vn -0.22094238 -0.97528686 1.4822335e-17
vn -0.22094238 -0.97528686 1.4822335e-17
vn 5.8538513e-17 0.0000000e+0 1.00000000
vn -0.97528686 -0.22094238 6.8923860e-17
vn -0.97528686 -0.22094238 6.8923860e-17
vn 5.8538513e-17 0.0000000e+0 1.00000000
vn 0.97528686 0.22094238 -6.8923860e-17
vn 0.97528686 0.22094238 -6.8923860e-17
vn 5.8538513e-17 0.0000000e+0 1.00000000
vn 0.22094238 0.97528686 -1.4822335e-17
vn 0.22094238 0.97528686 -1.4822335e-17
vn 5.8538513e-17 0.0000000e+0 1.00000000
vn -0.22094238 0.97528686 1.4822335e-17
vn -0.22094238 0.97528686 1.4822335e-17
vn 5.8538513e-17 0.0000000e+0 1.00000000
vn -0.97528686 0.22094238 6.8923860e-17
vn -0.97528686 0.22094238 6.8923860e-17
vn 5.8538513e-17 0.0000000e+0 1.00000000
vn -0.70710678 0.70710678 4.9832036e-17
vn -0.70710678 0.70710678 4.9832036e-17
vn -1.1707703e-16 0.0000000e+0 -1.00000000
vn 0.70710678 -0.70710678 -4.9832036e-17
vn 0.70710678 -0.70710678 -4.9832036e-17
vn 5.8538513e-17 0.0000000e+0 1.00000000
vn 0.70710678 0.70710678 -4.9832036e-17
vn 0.70710678 0.70710678 -4.9832036e-17
vn -1.1707703e-16 0.0000000e+0 -1.00000000
vn -0.70710678 -0.70710678 4.9832036e-17
vn -0.70710678 -0.70710678 4.9832036e-17
vn 5.8538513e-17 0.0000000e+0 1.00000000
vn -0.70710678 -0.70710678 4.9832036e-17
vn -0.70710678 -0.70710678 4.9832036e-17
vn -1.1707703e-16 0.0000000e+0 -1.00000000
vn -0.70710678 0.70710678 4.9832036e-17
vn -0.70710678 0.70710678 4.9832036e-17
vn 5.8538513e-17 0.0000000e+0 1.00000000
vn 0.70710678 0.70710678 -4.9832036e-17
vn 0.70710678 0.70710678 -4.9832036e-17
vn 5.8538513e-17 0.0000000e+0 1.00000000
vn 0.70710678 -0.70710678 -4.9832036e-17
vn 0.70710678 -0.70710678 -4.9832036e-17
vn -1.1707703e-16 0.0000000e+0 -1.00000000
vn 2.8124072e-15 0.98078528 -0.19509032
vn 2.8124072e-15 0.98078528 -0.19509032
vn -2.0559686e-16 -3.6830300e-15 1.00000000
vn -0.49039264 0.84938497 -0.19509032
vn -0.49039264 0.84938497 -0.19509032
vn -2.0559686e-16 -3.6830300e-15 1.00000000
vn -0.84938497 0.49039264 -0.19509032
vn -0.84938497 0.49039264 -0.19509032
vn -2.0559686e-16 -3.6830300e-15 1.00000000
vn -0.98078528 6.8875278e-16 -0.19509032
vn -0.98078528 6.8875278e-16 -0.19509032
vn -2.0559686e-16 -3.6830300e-15 1.00000000
vn -0.84938497 -0.49039264 -0.19509032
vn -0.84938497 -0.49039264 -0.19509032
vn -2.0559686e-16 -3.6830300e-15 1.00000000
vn -0.49039264 -0.84938497 -0.19509032
vn -0.49039264 -0.84938497 -0.19509032
vn -2.0559686e-16 -3.6830300e-15 1.00000000
vn -2.5828229e-15 -0.98078528 -0.19509032
vn -2.5828229e-15 -0.98078528 -0.19509032
vn -2.0559686e-16 -3.6830300e-15 1.00000000
vn 0.49039264 -0.84938497 -0.19509032
vn 0.49039264 -0.84938497 -0.19509032
vn -2.0559686e-16 -3.6830300e-15 1.00000000
vn 0.84938497 -0.49039264 -0.19509032
vn 0.84938497 -0.49039264 -0.19509032
vn -2.0559686e-16 -3.6830300e-15 1.00000000
vn 0.98078528 7.7484688e-16 -0.19509032
vn 0.98078528 7.7484688e-16 -0.19509032
vn -2.0559686e-16 -3.6830300e-15 1.00000000
vn 0.84938497 0.49039264 -0.19509032
vn 0.84938497 0.49039264 -0.19509032
vn -2.0559686e-16 -3.6830300e-15 1.00000000
vn 0.49039264 0.84938497 -0.19509032
vn 0.49039264 0.84938497 -0.19509032
vn -2.0559686e-16 -3.6830300e-15 1.00000000
vn -3.5979450e-16 0.0000000e+0 -1.00000000
vn -1.7206810e-16 0.97014250 -0.24253563
vn -1.7206810e-16 0.97014250 -0.24253563
vn -3.5979450e-16 0.0000000e+0 -1.00000000
vn -0.48507125 0.84016805 -0.24253563
vn -0.48507125 0.84016805 -0.24253563
vn -3.5979450e-16 0.0000000e+0 -1.00000000
vn -0.84016805 0.48507125 -0.24253563
vn -0.84016805 0.48507125 -0.24253563
vn -3.5979450e-16 0.0000000e+0 -1.00000000
vn -0.97014250 8.0298447e-16 -0.24253563
vn -0.97014250 8.0298447e-16 -0.24253563
vn -3.5979450e-16 0.0000000e+0 -1.00000000
vn -0.84016805 -0.48507125 -0.24253563
vn -0.84016805 -0.48507125 -0.24253563
vn -3.5979450e-16 0.0000000e+0 -1.00000000
vn -0.48507125 -0.84016805 -0.24253563
vn -0.48507125 -0.84016805 -0.24253563
vn -3.5979450e-16 0.0000000e+0 -1.00000000
vn -4.5024487e-15 -0.97014250 -0.24253563
vn -4.5024487e-15 -0.97014250 -0.24253563
vn -3.5979450e-16 0.0000000e+0 -1.00000000
vn 0.48507125 -0.84016805 -0.24253563
vn 0.48507125 -0.84016805 -0.24253563
vn -3.5979450e-16 0.0000000e+0 -1.00000000
vn 0.84016805 -0.48507125 -0.24253563
vn 0.84016805 -0.48507125 -0.24253563
vn -3.5979450e-16 0.0000000e+0 -1.00000000
vn 0.97014250 -2.8678017e-17 -0.24253563
vn 0.97014250 -2.8678017e-17 -0.24253563
vn -3.5979450e-16 0.0000000e+0 -1.00000000
vn 0.84016805 0.48507125 -0.24253563
vn 0.84016805 0.48507125 -0.24253563
vn -3.5979450e-16 0.0000000e+0 -1.00000000
vn 0.48507125 0.84016805 -0.24253563
vn 0.48507125 0.84016805 -0.24253563
g mesh_mesh_auv
usemtl mesh_auv
s 1
f 1/3/68 24/13/137 2/21/71 3/32/74 21/42/128 4/46/77 8/47/89 17/43/116 7/33/86 6/22/83 19/14/122 5/4/80
f 13/45/104 23/41/134 14/31/107 15/24/110 22/12/131 16/2/113 12/1/101 20/11/125 11/23/98 10/30/95 18/40/119 9/44/92
f 62/86/143 63/63/146 64/61/149 65/65/152 66/88/155 67/125/158 68/153/161 69/177/164 70/179/167 71/176/170 72/154/173 61/122/140
f 74/58/38 82/59/46 89/82/53 81/81/45
f 75/83/39 83/84/47 82/59/46 74/58/38
f 76/123/40 84/124/48 83/84/47 75/83/39
f 77/158/41 85/159/49 84/124/48 76/123/40
f 78/181/42 86/182/50 85/159/49 77/158/41
f 79/156/43 87/157/51 86/182/50 78/181/42
f 80/120/44 88/121/52 87/157/51 79/156/43
f 81/81/45 89/82/53 88/121/52 80/120/44
f 90/70/175 102/57/54 113/90/65 101/100/208
f 91/140/179 103/150/55 102/184/54 90/170/176
f 92/102/182 104/89/56 103/150/55 91/140/178
f 93/71/185 105/57/57 104/89/56 92/102/181
f 94/139/188 106/149/58 105/184/57 93/170/184
f 95/102/191 107/90/59 106/149/58 94/139/187
f 96/72/194 108/56/60 107/90/59 95/102/190
f 97/140/197 109/151/61 108/184/60 96/169/193
f 98/101/200 110/91/62 109/151/61 97/140/196
f 99/70/203 111/56/63 110/91/62 98/101/199
f 100/139/206 112/151/64 111/183/63 99/168/202
f 101/100/209 113/90/65 112/151/64 100/139/205
s 2
f 2/20/69 10/19/93 11/28/96 3/29/72
f 2/20/70 24/10/135 18/9/117 10/19/94
f 4/18/75 12/15/99 16/25/111 8/27/87
f 5/17/78 13/16/102 9/26/90 1/27/66
f 7/51/84 15/50/108 14/52/105 6/53/81
f 11/28/97 20/39/124 21/38/127 3/29/73
f 14/52/106 23/54/133 19/55/121 6/53/82
f 17/48/114 22/49/129 15/50/109 7/51/85
f 18/35/118 24/36/136 1/27/67 9/26/91
f 19/7/120 23/5/132 13/16/103 5/17/79
f 21/8/126 20/6/123 12/15/100 4/18/76
f 22/34/130 17/37/115 8/27/88 16/25/112
f 25/146/1 37/160/13 48/131/24 36/127/12
f 25/95/1 73/118/37 26/114/2
f 26/114/2 38/110/14 37/80/13 25/95/1
f 26/114/2 73/118/37 27/130/3
f 27/130/3 39/133/15 38/110/14 26/114/2
f 27/130/3 73/118/37 28/148/4
f 28/148/4 40/163/16 39/133/15 27/130/3
f 28/94/4 73/117/37 29/111/5
f 29/111/5 41/107/17 40/77/16 28/94/4
f 29/111/5 73/117/37 30/129/6
f 30/129/6 42/132/18 41/107/17 29/111/5
f 30/129/6 73/117/37 31/147/7
f 31/147/7 43/162/19 42/132/18 30/129/6
f 31/145/7 73/115/37 32/128/8
f 32/128/8 44/134/20 43/161/19 31/145/7
f 32/128/8 73/115/37 33/112/9
f 33/112/9 45/108/21 44/134/20 32/128/8
f 33/112/9 73/115/37 34/92/10
f 34/92/10 46/78/22 45/108/21 33/112/9
f 34/93/10 73/116/37 35/113/11
f 35/113/11 47/109/23 46/79/22 34/93/10
f 35/113/11 73/116/37 36/127/12
f 36/127/12 48/131/24 47/109/23 35/113/11
f 36/127/12 73/116/37 25/146/1
f 37/160/13 49/164/25 60/135/36 48/131/24
f 38/110/14 50/104/26 49/74/25 37/80/13
f 39/133/15 51/137/27 50/104/26 38/110/14
f 40/163/16 52/166/28 51/137/27 39/133/15
f 41/107/17 53/106/29 52/73/28 40/77/16
f 42/132/18 54/136/30 53/106/29 41/107/17
f 43/162/19 55/167/31 54/136/30 42/132/18
f 44/134/20 56/138/32 55/165/31 43/161/19
f 45/108/21 57/105/33 56/138/32 44/134/20
f 46/78/22 58/75/34 57/105/33 45/108/21
f 47/109/23 59/103/35 58/76/34 46/79/22
f 48/131/24 60/135/36 59/103/35 47/109/23
f 49/164/25 61/172/139 72/141/172 60/135/36
f 50/104/26 62/99/141 61/69/138 49/74/25
f 51/137/27 63/142/144 62/99/142 50/104/26
f 52/166/28 64/171/147 63/142/145 51/137/27
f 53/106/29 65/97/150 64/66/148 52/73/28
f 54/136/30 66/144/153 65/97/151 53/106/29
f 55/167/31 67/173/156 66/144/154 54/136/30
f 56/138/32 68/143/159 67/174/157 55/165/31
f 57/105/33 69/98/162 68/143/160 56/138/32
f 58/75/34 70/67/165 69/98/163 57/105/33
f 59/103/35 71/96/168 70/68/166 58/76/34
f 60/135/36 72/141/171 71/96/169 59/103/35
f 90/126/174 101/87/207 100/64/204 99/60/201 98/62/198 97/85/195 96/119/192 95/152/189 94/175/186 93/180/183 92/178/180 91/155/177
