# Exported from Wings 3D 1.5.4
mtllib tantares_crew_s1_1_collider.mtl
o collider
#64 vertices, 50 faces
v 0.31250000 0.50000000 -6.2160115e-2
v 0.31250000 0.50000000 6.2160115e-2
v 0.26492471 0.50000000 0.17701703
v 0.17701703 0.50000000 0.26492471
v 6.2160115e-2 0.50000000 0.31250000
v -6.2160115e-2 0.50000000 0.31250000
v -0.17701703 0.50000000 0.26492471
v -0.26492471 0.50000000 0.17701703
v -0.31250000 0.50000000 6.2160115e-2
v -0.31250000 0.50000000 -6.2160115e-2
v -0.26492471 0.50000000 -0.17701703
v -0.17701703 0.50000000 -0.26492471
v -6.2160115e-2 0.50000000 -0.31250000
v 6.2160115e-2 0.50000000 -0.31250000
v 0.17701703 0.50000000 -0.26492471
v 0.26492471 0.50000000 -0.17701703
v 0.62500000 -0.50000000 -0.12432023
v 0.62500000 -0.50000000 0.12432023
v 0.52984942 -0.50000000 0.35403406
v 0.35403406 -0.50000000 0.52984942
v 0.12432023 -0.50000000 0.62500000
v -0.12432023 -0.50000000 0.62500000
v -0.35403406 -0.50000000 0.52984942
v -0.52984942 -0.50000000 0.35403406
v -0.62500000 -0.50000000 0.12432023
v -0.62500000 -0.50000000 -0.12432023
v -0.52984942 -0.50000000 -0.35403406
v -0.35403406 -0.50000000 -0.52984942
v -0.12432023 -0.50000000 -0.62500000
v 0.12432023 -0.50000000 -0.62500000
v 0.35403406 -0.50000000 -0.52984942
v 0.52984942 -0.50000000 -0.35403406
v 0.45567050 1.0000000e-1 -0.30446929
v 0.30446929 1.0000000e-1 -0.45567050
v 0.10691540 1.0000000e-1 -0.53750000
v -0.10691540 1.0000000e-1 -0.53750000
v -0.30446929 1.0000000e-1 -0.45567050
v -0.45567050 1.0000000e-1 -0.30446929
v -0.53750000 1.0000000e-1 -0.10691540
v -0.53750000 1.0000000e-1 0.10691540
v -0.45567050 1.0000000e-1 0.30446929
v -0.30446929 1.0000000e-1 0.45567050
v -0.10691540 1.0000000e-1 0.53750000
v 0.10691540 1.0000000e-1 0.53750000
v 0.30446929 1.0000000e-1 0.45567050
v 0.45567050 1.0000000e-1 0.30446929
v 0.53750000 1.0000000e-1 0.10691540
v 0.53750000 1.0000000e-1 -0.10691540
v 0.39583580 0.32451306 -0.26448902
v 0.26448902 0.32451306 -0.39583580
v 9.2876194e-2 0.32451306 -0.46692016
v -9.2876194e-2 0.32451306 -0.46692016
v -0.26448902 0.32451306 -0.39583580
v -0.39583580 0.32451306 -0.26448902
v -0.46692016 0.32451306 -9.2876194e-2
v -0.46692016 0.32451306 9.2876194e-2
v -0.39583580 0.32451306 0.26448902
v -0.26448902 0.32451306 0.39583580
v -9.2876194e-2 0.32451306 0.46692016
v 9.2876194e-2 0.32451306 0.46692016
v 0.26448902 0.32451306 0.39583580
v 0.39583580 0.32451306 0.26448902
v 0.46692016 0.32451306 9.2876194e-2
v 0.46692016 0.32451306 -9.2876194e-2
vn 0.0000000e+0 1.00000000 -8.9303489e-17
vn 0.69358521 0.66060777 -0.28729240
vn 0.75073123 0.66060777 0.0000000e+0
vn 0.0000000e+0 1.00000000 -8.9303489e-17
vn 0.69358521 0.66060777 0.28729240
vn 0.75073123 0.66060777 0.0000000e+0
vn 0.0000000e+0 1.00000000 -8.9303489e-17
vn 0.53084714 0.66060777 0.53084714
vn 0.69358521 0.66060777 0.28729240
vn 0.0000000e+0 1.00000000 -8.9303489e-17
vn 0.28729240 0.66060777 0.69358521
vn 0.53084714 0.66060777 0.53084714
vn 0.0000000e+0 1.00000000 -8.9303489e-17
vn 0.0000000e+0 0.66060777 0.75073123
vn 0.28729240 0.66060777 0.69358521
vn 0.0000000e+0 1.00000000 -8.9303489e-17
vn -0.28729240 0.66060777 0.69358521
vn 0.0000000e+0 0.66060777 0.75073123
vn 0.0000000e+0 1.00000000 -8.9303489e-17
vn -0.53084714 0.66060777 0.53084714
vn -0.28729240 0.66060777 0.69358521
vn 0.0000000e+0 1.00000000 -8.9303489e-17
vn -0.69358521 0.66060777 0.28729240
vn -0.53084714 0.66060777 0.53084714
vn 0.0000000e+0 1.00000000 -8.9303489e-17
vn -0.75073123 0.66060777 0.0000000e+0
vn -0.69358521 0.66060777 0.28729240
vn 0.0000000e+0 1.00000000 -8.9303489e-17
vn -0.69358521 0.66060777 -0.28729240
vn -0.75073123 0.66060777 0.0000000e+0
vn 0.0000000e+0 1.00000000 -8.9303489e-17
vn -0.53084714 0.66060777 -0.53084714
vn -0.69358521 0.66060777 -0.28729240
vn 0.0000000e+0 1.00000000 -8.9303489e-17
vn -0.28729240 0.66060777 -0.69358521
vn -0.53084714 0.66060777 -0.53084714
vn 0.0000000e+0 1.00000000 -8.9303489e-17
vn 0.0000000e+0 0.66060777 -0.75073123
vn -0.28729240 0.66060777 -0.69358521
vn 0.0000000e+0 1.00000000 -8.9303489e-17
vn 0.28729240 0.66060777 -0.69358521
vn 0.0000000e+0 0.66060777 -0.75073123
vn 0.0000000e+0 1.00000000 -8.9303489e-17
vn 0.53084714 0.66060777 -0.53084714
vn 0.28729240 0.66060777 -0.69358521
vn 0.0000000e+0 1.00000000 -8.9303489e-17
vn 0.69358521 0.66060777 -0.28729240
vn 0.53084714 0.66060777 -0.53084714
vn 0.0000000e+0 -1.00000000 4.4651744e-17
vn 0.91420927 0.14430689 -0.37867788
vn 0.98953298 0.14430689 0.0000000e+0
vn 0.0000000e+0 -1.00000000 4.4651744e-17
vn 0.91420927 0.14430689 0.37867788
vn 0.98953298 0.14430689 0.0000000e+0
vn 0.0000000e+0 -1.00000000 4.4651744e-17
vn 0.69970548 0.14430689 0.69970548
vn 0.91420927 0.14430689 0.37867788
vn 0.0000000e+0 -1.00000000 4.4651744e-17
vn 0.37867788 0.14430689 0.91420927
vn 0.69970548 0.14430689 0.69970548
vn 0.0000000e+0 -1.00000000 4.4651744e-17
vn 0.0000000e+0 0.14430689 0.98953298
vn 0.37867788 0.14430689 0.91420927
vn 0.0000000e+0 -1.00000000 4.4651744e-17
vn -0.37867788 0.14430689 0.91420927
vn 0.0000000e+0 0.14430689 0.98953298
vn 0.0000000e+0 -1.00000000 4.4651744e-17
vn -0.69970548 0.14430689 0.69970548
vn -0.37867788 0.14430689 0.91420927
vn 0.0000000e+0 -1.00000000 4.4651744e-17
vn -0.91420927 0.14430689 0.37867788
vn -0.69970548 0.14430689 0.69970548
vn 0.0000000e+0 -1.00000000 4.4651744e-17
vn -0.98953298 0.14430689 0.0000000e+0
vn -0.91420927 0.14430689 0.37867788
vn 0.0000000e+0 -1.00000000 4.4651744e-17
vn -0.91420927 0.14430689 -0.37867788
vn -0.98953298 0.14430689 0.0000000e+0
vn 0.0000000e+0 -1.00000000 4.4651744e-17
vn -0.69970548 0.14430689 -0.69970548
vn -0.91420927 0.14430689 -0.37867788
vn 0.0000000e+0 -1.00000000 4.4651744e-17
vn -0.37867788 0.14430689 -0.91420927
vn -0.69970548 0.14430689 -0.69970548
vn 0.0000000e+0 -1.00000000 4.4651744e-17
vn 0.0000000e+0 0.14430689 -0.98953298
vn -0.37867788 0.14430689 -0.91420927
vn 0.0000000e+0 -1.00000000 4.4651744e-17
vn 0.37867788 0.14430689 -0.91420927
vn 0.0000000e+0 0.14430689 -0.98953298
vn 0.0000000e+0 -1.00000000 4.4651744e-17
vn 0.69970548 0.14430689 -0.69970548
vn 0.37867788 0.14430689 -0.91420927
vn 0.0000000e+0 -1.00000000 4.4651744e-17
vn 0.91420927 0.14430689 -0.37867788
vn 0.69970548 0.14430689 -0.69970548
vn 0.91420927 0.14430689 -0.37867788
vn 0.69970548 0.14430689 -0.69970548
vn 0.88135439 0.29989850 -0.36506894
vn 0.67455945 0.29989850 -0.67455945
vn 0.69970548 0.14430689 -0.69970548
vn 0.37867788 0.14430689 -0.91420927
vn 0.67455945 0.29989850 -0.67455945
vn 0.36506894 0.29989850 -0.88135439
vn 0.37867788 0.14430689 -0.91420927
vn 0.0000000e+0 0.14430689 -0.98953298
vn 0.36506894 0.29989850 -0.88135439
vn 0.0000000e+0 0.29989850 -0.95397112
vn 0.0000000e+0 0.14430689 -0.98953298
vn -0.37867788 0.14430689 -0.91420927
vn 0.0000000e+0 0.29989850 -0.95397112
vn -0.36506894 0.29989850 -0.88135439
vn -0.37867788 0.14430689 -0.91420927
vn -0.69970548 0.14430689 -0.69970548
vn -0.36506894 0.29989850 -0.88135439
vn -0.67455945 0.29989850 -0.67455945
vn -0.69970548 0.14430689 -0.69970548
vn -0.91420927 0.14430689 -0.37867788
vn -0.67455945 0.29989850 -0.67455945
vn -0.88135439 0.29989850 -0.36506894
vn -0.91420927 0.14430689 -0.37867788
vn -0.98953298 0.14430689 0.0000000e+0
vn -0.88135439 0.29989850 -0.36506894
vn -0.95397112 0.29989850 0.0000000e+0
vn -0.98953298 0.14430689 0.0000000e+0
vn -0.91420927 0.14430689 0.37867788
vn -0.95397112 0.29989850 0.0000000e+0
vn -0.88135439 0.29989850 0.36506894
vn -0.91420927 0.14430689 0.37867788
vn -0.69970548 0.14430689 0.69970548
vn -0.88135439 0.29989850 0.36506894
vn -0.67455945 0.29989850 0.67455945
vn -0.69970548 0.14430689 0.69970548
vn -0.37867788 0.14430689 0.91420927
vn -0.67455945 0.29989850 0.67455945
vn -0.36506894 0.29989850 0.88135439
vn -0.37867788 0.14430689 0.91420927
vn 0.0000000e+0 0.14430689 0.98953298
vn -0.36506894 0.29989850 0.88135439
vn 0.0000000e+0 0.29989850 0.95397112
vn 0.0000000e+0 0.14430689 0.98953298
vn 0.37867788 0.14430689 0.91420927
vn 0.0000000e+0 0.29989850 0.95397112
vn 0.36506894 0.29989850 0.88135439
vn 0.37867788 0.14430689 0.91420927
vn 0.69970548 0.14430689 0.69970548
vn 0.36506894 0.29989850 0.88135439
vn 0.67455945 0.29989850 0.67455945
vn 0.69970548 0.14430689 0.69970548
vn 0.91420927 0.14430689 0.37867788
vn 0.67455945 0.29989850 0.67455945
vn 0.88135439 0.29989850 0.36506894
vn 0.91420927 0.14430689 0.37867788
vn 0.98953298 0.14430689 0.0000000e+0
vn 0.88135439 0.29989850 0.36506894
vn 0.95397112 0.29989850 0.0000000e+0
vn 0.91420927 0.14430689 -0.37867788
vn 0.98953298 0.14430689 0.0000000e+0
vn 0.88135439 0.29989850 -0.36506894
vn 0.95397112 0.29989850 0.0000000e+0
vn 0.69358521 0.66060777 -0.28729240
vn 0.53084714 0.66060777 -0.53084714
vn 0.88135439 0.29989850 -0.36506894
vn 0.67455945 0.29989850 -0.67455945
vn 0.53084714 0.66060777 -0.53084714
vn 0.28729240 0.66060777 -0.69358521
vn 0.67455945 0.29989850 -0.67455945
vn 0.36506894 0.29989850 -0.88135439
vn 0.28729240 0.66060777 -0.69358521
vn 0.0000000e+0 0.66060777 -0.75073123
vn 0.36506894 0.29989850 -0.88135439
vn 0.0000000e+0 0.29989850 -0.95397112
vn 0.0000000e+0 0.66060777 -0.75073123
vn -0.28729240 0.66060777 -0.69358521
vn 0.0000000e+0 0.29989850 -0.95397112
vn -0.36506894 0.29989850 -0.88135439
vn -0.28729240 0.66060777 -0.69358521
vn -0.53084714 0.66060777 -0.53084714
vn -0.36506894 0.29989850 -0.88135439
vn -0.67455945 0.29989850 -0.67455945
vn -0.53084714 0.66060777 -0.53084714
vn -0.69358521 0.66060777 -0.28729240
vn -0.67455945 0.29989850 -0.67455945
vn -0.88135439 0.29989850 -0.36506894
vn -0.69358521 0.66060777 -0.28729240
vn -0.75073123 0.66060777 0.0000000e+0
vn -0.88135439 0.29989850 -0.36506894
vn -0.95397112 0.29989850 0.0000000e+0
vn -0.75073123 0.66060777 0.0000000e+0
vn -0.69358521 0.66060777 0.28729240
vn -0.95397112 0.29989850 0.0000000e+0
vn -0.88135439 0.29989850 0.36506894
vn -0.69358521 0.66060777 0.28729240
vn -0.53084714 0.66060777 0.53084714
vn -0.88135439 0.29989850 0.36506894
vn -0.67455945 0.29989850 0.67455945
vn -0.53084714 0.66060777 0.53084714
vn -0.28729240 0.66060777 0.69358521
vn -0.67455945 0.29989850 0.67455945
vn -0.36506894 0.29989850 0.88135439
vn -0.28729240 0.66060777 0.69358521
vn 0.0000000e+0 0.66060777 0.75073123
vn -0.36506894 0.29989850 0.88135439
vn 0.0000000e+0 0.29989850 0.95397112
vn 0.0000000e+0 0.66060777 0.75073123
vn 0.28729240 0.66060777 0.69358521
vn 0.0000000e+0 0.29989850 0.95397112
vn 0.36506894 0.29989850 0.88135439
vn 0.28729240 0.66060777 0.69358521
vn 0.53084714 0.66060777 0.53084714
vn 0.36506894 0.29989850 0.88135439
vn 0.67455945 0.29989850 0.67455945
vn 0.53084714 0.66060777 0.53084714
vn 0.69358521 0.66060777 0.28729240
vn 0.67455945 0.29989850 0.67455945
vn 0.88135439 0.29989850 0.36506894
vn 0.69358521 0.66060777 0.28729240
vn 0.75073123 0.66060777 0.0000000e+0
vn 0.88135439 0.29989850 0.36506894
vn 0.95397112 0.29989850 0.0000000e+0
vn 0.69358521 0.66060777 -0.28729240
vn 0.75073123 0.66060777 0.0000000e+0
vn 0.88135439 0.29989850 -0.36506894
vn 0.95397112 0.29989850 0.0000000e+0
g collider_default
usemtl default
s 1
f 1//2 64//221 49//161 16//47
f 5//15 60//206 61//209 4//11
f 7//21 58//198 59//201 6//17
f 9//27 56//190 57//193 8//23
f 12//36 53//178 54//181 11//32
f 14//42 51//170 52//173 13//38
f 20//59 45//145 44//142 21//63
f 23//68 42//133 41//130 24//72
f 27//80 38//117 37//114 28//84
f 30//89 35//105 34//102 31//93
f 32//95 33//97 48//157 17//50
f 34//103 50//167 49//164 33//100
f 37//115 53//179 52//176 36//112
f 40//127 56//191 55//188 39//124
f 44//143 60//207 59//204 43//140
f 47//155 63//219 62//216 46//152
s 2
f 2//6 63//218 64//222 1//3
f 4//12 61//210 62//213 3//8
f 6//18 59//202 60//205 5//14
f 8//24 57//194 58//197 7//20
f 10//30 55//186 56//189 9//26
f 13//39 52//174 53//177 12//35
f 15//45 50//166 51//169 14//41
f 17//51 48//158 47//154 18//54
f 19//56 46//149 45//146 20//60
f 21//62 44//141 43//138 22//66
f 26//77 39//121 38//118 27//81
f 28//83 37//113 36//110 29//87
f 31//92 34//101 33//98 32//96
f 33//99 49//163 64//223 48//159
f 36//111 52//175 51//172 35//108
f 38//119 54//183 53//180 37//116
f 41//131 57//195 56//192 40//128
f 43//139 59//203 58//200 42//136
f 45//147 61//211 60//208 44//144
s 3
f 1//1 16//46 15//43 14//40 13//37 12//34 11//31 10//28 9//25 8//22 7//19 6//16 5//13 4//10 3//7 2//4
f 18//53 47//153 46//150 19//57
f 22//65 43//137 42//134 23//69
f 24//71 41//129 40//126 25//75
f 29//86 36//109 35//106 30//90
f 35//107 51//171 50//168 34//104
f 39//123 55//187 54//184 38//120
f 42//135 58//199 57//196 41//132
f 46//151 62//215 61//212 45//148
f 48//160 64//224 63//220 47//156
s 4
f 3//9 62//214 63//217 2//5
f 11//33 54//182 55//185 10//29
f 16//48 49//162 50//165 15//44
f 18//52 19//55 20//58 21//61 22//64 23//67 24//70 25//73 26//76 27//79 28//82 29//85 30//88 31//91 32//94 17//49
s 5
f 25//74 40//125 39//122 26//78
