# Exported from Wings 3D 1.5.4
mtllib lepus_landing_leg_srf_1_lower_suspend.mtl
o lepus_landing_leg_srf_1_lower_suspend
#16 vertices, 8 faces
v 1.2500000e-2 -4.1633363e-17 2.7755576e-17
v 8.8388348e-3 8.8388348e-3 -2.7214353e-17
v 1.8294579e-17 1.2500000e-2 -2.6990171e-17
v -8.8388348e-3 8.8388348e-3 -2.7214353e-17
v -1.2500000e-2 0.0000000e+0 2.7755576e-17
v -8.8388348e-3 -8.8388348e-3 2.7214353e-17
v -1.7136566e-17 -1.2500000e-2 2.6990171e-17
v 8.8388348e-3 -8.8388348e-3 2.7214353e-17
v 1.2500000e-2 2.3602290e-16 0.37500000
v 8.8388348e-3 8.8388348e-3 0.37500000
v 1.8294579e-17 1.2500000e-2 0.37500000
v -8.8388348e-3 8.8388348e-3 0.37500000
v -1.2500000e-2 2.7765627e-16 0.37500000
v -8.8388348e-3 -8.8388348e-3 0.37500000
v -1.7136566e-17 -1.2500000e-2 0.37500000
v 8.8388348e-3 -8.8388348e-3 0.37500000
vt 0.89822813 0.26004600
vt 0.89822813 0.76824200
vt 0.89822813 0.26004600
vt 0.89822813 0.76824200
vt 0.90318971 0.26004600
vt 0.90318971 0.76824200
vt 0.90318971 0.26004600
vt 0.90318971 0.76824200
vt 0.91516800 0.26004600
vt 0.91516800 0.76824200
vt 0.91516800 0.26004600
vt 0.91516800 0.76824200
vt 0.92714629 0.26004600
vt 0.92714629 0.76824200
vt 0.92714629 0.26004600
vt 0.92714629 0.76824200
vt 0.93210787 0.26004600
vt 0.93210787 0.76824200
vt 0.93210787 0.26004600
vt 0.93210787 0.76824200
vn 1.00000000 -1.6523330e-15 5.1109781e-19
vn 0.70710678 0.70710678 -5.2285306e-16
vn 1.5622058e-15 1.00000000 -7.4006962e-16
vn -0.70710678 0.70710678 -5.2336415e-16
vn -1.00000000 1.5321633e-15 -5.1109781e-19
vn -0.70710678 -0.70710678 5.2285306e-16
vn -1.5021209e-15 -1.00000000 7.4006962e-16
vn 0.70710678 -0.70710678 5.2336415e-16
vn 1.00000000 -1.6523330e-15 5.1109781e-19
vn 0.70710678 0.70710678 -5.2285306e-16
vn 1.5622058e-15 1.00000000 -7.4006962e-16
vn -0.70710678 0.70710678 -5.2336415e-16
vn -1.00000000 1.5321633e-15 -5.1109781e-19
vn -0.70710678 -0.70710678 5.2285306e-16
vn -1.5021209e-15 -1.00000000 7.4006962e-16
vn 0.70710678 -0.70710678 5.2336415e-16
g lepus_landing_leg_srf_1_lower_suspend_lepus_landing_leg_srf_1_lower_suspend_auv
usemtl lepus_landing_leg_srf_1_lower_suspend_auv
s 1
f 1/4/1 9/1/9 16/5/16 8/8/8
f 2/14/2 10/15/10 9/19/9 1/18/1
f 3/10/3 11/11/11 10/15/10 2/14/2
f 4/6/4 12/7/12 11/11/11 3/10/3
f 5/2/5 13/3/13 12/7/12 4/6/4
f 6/16/6 14/13/14 13/17/13 5/20/5
f 7/12/7 15/9/15 14/13/14 6/16/6
f 8/8/8 16/5/16 15/9/15 7/12/7
