# Exported from Wings 3D 1.5.4
mtllib lepus_landing_leg_srf_1_upper_leg.mtl
o lepus_landing_leg_srf_1_upper_leg
#56 vertices, 43 faces
v -1.8750000e-2 1.8750000e-2 0.0000000e+0
v -1.8750000e-2 1.3258252e-2 1.3258252e-2
v -1.8750000e-2 0.0000000e+0 1.8750000e-2
v -1.8750000e-2 -1.3258252e-2 1.3258252e-2
v -1.8750000e-2 -1.8750000e-2 0.0000000e+0
v 1.8750000e-2 1.8750000e-2 0.0000000e+0
v 1.8750000e-2 1.3258252e-2 1.3258252e-2
v 1.8750000e-2 0.0000000e+0 1.8750000e-2
v 1.8750000e-2 -1.3258252e-2 1.3258252e-2
v 1.8750000e-2 -1.8750000e-2 0.0000000e+0
v 1.8750000e-2 -1.8750000e-2 -3.0024047e-2
v 1.8750000e-2 1.8750000e-2 -3.0024047e-2
v 0.0000000e+0 -1.8750000e-2 -2.5000000e-2
v 0.0000000e+0 1.8750000e-2 -2.5000000e-2
v -1.8750000e-2 -1.8750000e-2 -3.0024047e-2
v -1.8750000e-2 1.8750000e-2 -3.0024047e-2
v -1.8750000e-2 -0.68125000 0.0000000e+0
v -1.8750000e-2 -0.68674175 1.3258252e-2
v -1.8750000e-2 -0.70000000 1.8750000e-2
v -1.8750000e-2 -0.71325825 1.3258252e-2
v -1.8750000e-2 -0.71875000 0.0000000e+0
v 1.8750000e-2 -0.68125000 0.0000000e+0
v 1.8750000e-2 -0.68674175 1.3258252e-2
v 1.8750000e-2 -0.70000000 1.8750000e-2
v 1.8750000e-2 -0.71325825 1.3258252e-2
v 1.8750000e-2 -0.71875000 0.0000000e+0
v 1.8750000e-2 -0.71875000 -3.0024047e-2
v 1.8750000e-2 -0.68125000 -3.0024047e-2
v 0.0000000e+0 -0.71875000 -2.5000000e-2
v 0.0000000e+0 -0.68125000 -2.5000000e-2
v -1.8750000e-2 -0.71875000 -3.0024047e-2
v -1.8750000e-2 -0.68125000 -3.0024047e-2
v 3.7500000e-2 2.5000000e-2 -6.2500000e-2
v 3.2475953e-2 2.5000000e-2 -4.3750000e-2
v 1.8750000e-2 2.5000000e-2 -3.0024047e-2
v 0.0000000e+0 2.5000000e-2 -2.5000000e-2
v -1.8750000e-2 2.5000000e-2 -3.0024047e-2
v -3.2475953e-2 2.5000000e-2 -4.3750000e-2
v -3.7500000e-2 2.5000000e-2 -6.2500000e-2
v -3.2475953e-2 2.5000000e-2 -8.1250000e-2
v -1.8750000e-2 2.5000000e-2 -9.4975953e-2
v -9.1848510e-18 2.5000000e-2 -0.10000000
v 1.8750000e-2 2.5000000e-2 -9.4975953e-2
v 3.2475953e-2 2.5000000e-2 -8.1250000e-2
v 3.7500000e-2 -0.72500000 -6.2500000e-2
v 3.2475953e-2 -0.72500000 -4.3750000e-2
v 1.8750000e-2 -0.72500000 -3.0024047e-2
v 0.0000000e+0 -0.72500000 -2.5000000e-2
v -1.8750000e-2 -0.72500000 -3.0024047e-2
v -3.2475953e-2 -0.72500000 -4.3750000e-2
v -3.7500000e-2 -0.72500000 -6.2500000e-2
v -3.2475953e-2 -0.72500000 -8.1250000e-2
v -1.8750000e-2 -0.72500000 -9.4975953e-2
v -9.1848510e-18 -0.72500000 -0.10000000
v 1.8750000e-2 -0.72500000 -9.4975953e-2
v 3.2475953e-2 -0.72500000 -8.1250000e-2
vn 0.0000000e+0 -1.00000000 0.0000000e+0
vn 0.0000000e+0 1.00000000 0.0000000e+0
vn -9.7523152e-17 -0.94868330 -0.31622777
vn -9.7523152e-17 0.94868330 -0.31622777
vn -1.00000000 0.0000000e+0 0.0000000e+0
vn 0.0000000e+0 0.99154343 0.12977527
vn -1.00000000 0.0000000e+0 0.0000000e+0
vn 0.0000000e+0 0.99154343 0.12977527
vn 0.0000000e+0 0.99154343 0.12977527
vn -1.00000000 0.0000000e+0 0.0000000e+0
vn 0.0000000e+0 0.70710678 0.70710678
vn 0.0000000e+0 0.70710678 0.70710678
vn -1.00000000 0.0000000e+0 0.0000000e+0
vn 0.0000000e+0 0.0000000e+0 1.00000000
vn 0.0000000e+0 0.0000000e+0 1.00000000
vn -1.00000000 0.0000000e+0 0.0000000e+0
vn 0.0000000e+0 -0.70710678 0.70710678
vn 0.0000000e+0 -0.70710678 0.70710678
vn -1.00000000 0.0000000e+0 0.0000000e+0
vn 0.0000000e+0 -0.99154343 0.12977527
vn -1.00000000 0.0000000e+0 0.0000000e+0
vn 0.0000000e+0 -0.99154343 0.12977527
vn 0.0000000e+0 -0.99154343 0.12977527
vn 1.00000000 0.0000000e+0 0.0000000e+0
vn 0.0000000e+0 0.99154343 0.12977527
vn 0.0000000e+0 0.99154343 0.12977527
vn 0.0000000e+0 0.99154343 0.12977527
vn 1.00000000 0.0000000e+0 0.0000000e+0
vn 1.00000000 0.0000000e+0 0.0000000e+0
vn 0.0000000e+0 0.70710678 0.70710678
vn 0.0000000e+0 0.70710678 0.70710678
vn 1.00000000 0.0000000e+0 0.0000000e+0
vn 0.0000000e+0 0.0000000e+0 1.00000000
vn 0.0000000e+0 0.0000000e+0 1.00000000
vn 1.00000000 0.0000000e+0 0.0000000e+0
vn 0.0000000e+0 -0.70710678 0.70710678
vn 0.0000000e+0 -0.70710678 0.70710678
vn 1.00000000 0.0000000e+0 0.0000000e+0
vn 0.0000000e+0 -0.99154343 0.12977527
vn 1.00000000 0.0000000e+0 0.0000000e+0
vn 0.0000000e+0 -0.99154343 0.12977527
vn 0.0000000e+0 -0.99154343 0.12977527
vn 1.00000000 0.0000000e+0 0.0000000e+0
vn 0.0000000e+0 -1.00000000 0.0000000e+0
vn 0.0000000e+0 1.00000000 0.0000000e+0
vn 1.00000000 0.0000000e+0 0.0000000e+0
vn -1.00000000 0.0000000e+0 0.0000000e+0
vn 0.0000000e+0 -1.00000000 0.0000000e+0
vn -1.00000000 0.0000000e+0 0.0000000e+0
vn 0.0000000e+0 1.00000000 0.0000000e+0
vn -1.00000000 0.0000000e+0 0.0000000e+0
vn 0.0000000e+0 0.99154343 0.12977527
vn -1.00000000 0.0000000e+0 0.0000000e+0
vn 0.0000000e+0 0.99154343 0.12977527
vn 0.0000000e+0 0.99154343 0.12977527
vn -1.00000000 0.0000000e+0 0.0000000e+0
vn 0.0000000e+0 0.70710678 0.70710678
vn 0.0000000e+0 0.70710678 0.70710678
vn -1.00000000 0.0000000e+0 0.0000000e+0
vn 0.0000000e+0 0.0000000e+0 1.00000000
vn 0.0000000e+0 0.0000000e+0 1.00000000
vn -1.00000000 0.0000000e+0 0.0000000e+0
vn 0.0000000e+0 -0.70710678 0.70710678
vn 0.0000000e+0 -0.70710678 0.70710678
vn -1.00000000 0.0000000e+0 0.0000000e+0
vn 0.0000000e+0 -0.99154343 0.12977527
vn -1.00000000 0.0000000e+0 0.0000000e+0
vn 0.0000000e+0 -0.99154343 0.12977527
vn 0.0000000e+0 -0.99154343 0.12977527
vn 1.00000000 0.0000000e+0 0.0000000e+0
vn 0.0000000e+0 0.99154343 0.12977527
vn 0.0000000e+0 0.99154343 0.12977527
vn 0.0000000e+0 0.99154343 0.12977527
vn 1.00000000 0.0000000e+0 0.0000000e+0
vn 1.00000000 0.0000000e+0 0.0000000e+0
vn 0.0000000e+0 0.70710678 0.70710678
vn 0.0000000e+0 0.70710678 0.70710678
vn 1.00000000 0.0000000e+0 0.0000000e+0
vn 0.0000000e+0 0.0000000e+0 1.00000000
vn 0.0000000e+0 0.0000000e+0 1.00000000
vn 1.00000000 0.0000000e+0 0.0000000e+0
vn 0.0000000e+0 -0.70710678 0.70710678
vn 0.0000000e+0 -0.70710678 0.70710678
vn 1.00000000 0.0000000e+0 0.0000000e+0
vn 0.0000000e+0 -0.99154343 0.12977527
vn 1.00000000 0.0000000e+0 0.0000000e+0
vn 0.0000000e+0 -0.99154343 0.12977527
vn 0.0000000e+0 -0.99154343 0.12977527
vn -2.1806840e-16 -0.70710678 -0.70710678
vn 1.00000000 0.0000000e+0 0.0000000e+0
vn -2.1806840e-16 -0.70710678 -0.70710678
vn -2.1806840e-16 0.70710678 -0.70710678
vn -2.1806840e-16 0.70710678 -0.70710678
vn 1.00000000 0.0000000e+0 0.0000000e+0
vn -2.1806840e-16 -0.70710678 -0.70710678
vn -1.00000000 0.0000000e+0 0.0000000e+0
vn -2.1806840e-16 -0.70710678 -0.70710678
vn -2.1806840e-16 0.70710678 -0.70710678
vn -1.00000000 0.0000000e+0 0.0000000e+0
vn -2.1806840e-16 0.70710678 -0.70710678
vn 1.00000000 0.0000000e+0 -2.5861218e-16
vn 1.00000000 0.0000000e+0 -2.5861218e-16
vn 0.0000000e+0 1.00000000 -6.4249018e-18
vn 0.86602540 0.0000000e+0 0.50000000
vn 0.86602540 0.0000000e+0 0.50000000
vn 0.0000000e+0 1.00000000 -6.4249018e-18
vn 0.50000000 0.0000000e+0 0.86602540
vn 0.50000000 0.0000000e+0 0.86602540
vn 0.0000000e+0 1.00000000 -6.4249018e-18
vn 3.1608155e-16 0.0000000e+0 1.00000000
vn 3.1608155e-16 0.0000000e+0 1.00000000
vn 0.0000000e+0 1.00000000 -6.4249018e-18
vn -0.50000000 0.0000000e+0 0.86602540
vn -0.50000000 0.0000000e+0 0.86602540
vn 0.0000000e+0 1.00000000 -6.4249018e-18
vn -0.86602540 0.0000000e+0 0.50000000
vn -0.86602540 0.0000000e+0 0.50000000
vn 0.0000000e+0 1.00000000 -6.4249018e-18
vn -1.00000000 0.0000000e+0 1.7240812e-16
vn -1.00000000 0.0000000e+0 1.7240812e-16
vn 0.0000000e+0 1.00000000 -6.4249018e-18
vn -0.86602540 0.0000000e+0 -0.50000000
vn -0.86602540 0.0000000e+0 -0.50000000
vn 0.0000000e+0 1.00000000 -6.4249018e-18
vn -0.50000000 0.0000000e+0 -0.86602540
vn -0.50000000 0.0000000e+0 -0.86602540
vn 0.0000000e+0 1.00000000 -6.4249018e-18
vn 2.0114280e-16 0.0000000e+0 -1.00000000
vn 2.0114280e-16 0.0000000e+0 -1.00000000
vn 0.0000000e+0 1.00000000 -6.4249018e-18
vn 0.50000000 0.0000000e+0 -0.86602540
vn 0.50000000 0.0000000e+0 -0.86602540
vn 0.0000000e+0 1.00000000 -6.4249018e-18
vn 0.86602540 0.0000000e+0 -0.50000000
vn 0.86602540 0.0000000e+0 -0.50000000
vn 0.0000000e+0 1.00000000 -6.4249018e-18
vn 0.0000000e+0 -1.00000000 -2.5699607e-15
vn 1.00000000 0.0000000e+0 -2.5861218e-16
vn 1.00000000 0.0000000e+0 -2.5861218e-16
vn 0.0000000e+0 -1.00000000 -2.5699607e-15
vn 0.86602540 0.0000000e+0 0.50000000
vn 0.86602540 0.0000000e+0 0.50000000
vn 0.0000000e+0 -1.00000000 -2.5699607e-15
vn 0.50000000 0.0000000e+0 0.86602540
vn 0.50000000 0.0000000e+0 0.86602540
vn 0.0000000e+0 -1.00000000 -2.5699607e-15
vn 3.1608155e-16 0.0000000e+0 1.00000000
vn 3.1608155e-16 0.0000000e+0 1.00000000
vn 0.0000000e+0 -1.00000000 -2.5699607e-15
vn -0.50000000 0.0000000e+0 0.86602540
vn -0.50000000 0.0000000e+0 0.86602540
vn 0.0000000e+0 -1.00000000 -2.5699607e-15
vn -0.86602540 0.0000000e+0 0.50000000
vn -0.86602540 0.0000000e+0 0.50000000
vn 0.0000000e+0 -1.00000000 -2.5699607e-15
vn -1.00000000 0.0000000e+0 1.7240812e-16
vn -1.00000000 0.0000000e+0 1.7240812e-16
vn 0.0000000e+0 -1.00000000 -2.5699607e-15
vn -0.86602540 0.0000000e+0 -0.50000000
vn -0.86602540 0.0000000e+0 -0.50000000
vn 0.0000000e+0 -1.00000000 -2.5699607e-15
vn -0.50000000 0.0000000e+0 -0.86602540
vn -0.50000000 0.0000000e+0 -0.86602540
vn 0.0000000e+0 -1.00000000 -2.5699607e-15
vn 2.0114280e-16 0.0000000e+0 -1.00000000
vn 2.0114280e-16 0.0000000e+0 -1.00000000
vn 0.0000000e+0 -1.00000000 -2.5699607e-15
vn 0.50000000 0.0000000e+0 -0.86602540
vn 0.50000000 0.0000000e+0 -0.86602540
vn 0.0000000e+0 -1.00000000 -2.5699607e-15
vn 0.86602540 0.0000000e+0 -0.50000000
vn 0.86602540 0.0000000e+0 -0.50000000
g lepus_landing_leg_srf_1_upper_leg_default
usemtl default
s 1
f 1//5 5//19 4//16 3//13 2//10
f 1//7 16//49 15//47 5//21
f 7//29 8//32 9//35 10//38 6//24
f 10//40 11//43 12//46 6//28
f 17//51 21//65 20//62 19//59 18//56
f 17//53 32//99 31//96 21//67
f 23//75 24//78 25//81 26//84 22//70
f 26//86 27//90 28//94 22//74
f 33//103 44//136 43//133 42//130 41//127 40//124 39//121 38//118 37//115 36//112 35//109 34//106
f 46//140 47//143 48//146 49//149 50//152 51//155 52//158 53//161 54//164 55//167 56//170 45//137
s 2
f 2//12 7//31 6//25 1//6
f 3//15 8//34 7//30 2//11
f 4//18 9//37 8//33 3//14
f 5//20 10//39 9//36 4//17
f 5//22 13//1 10//41
f 6//26 14//2 1//8
f 11//44 10//42 13//1
f 13//1 5//23 15//48
f 14//2 6//27 12//45
f 16//50 1//9 14//2
f 18//58 23//77 22//71 17//52
f 19//61 24//80 23//76 18//57
f 20//64 25//83 24//79 19//60
f 21//66 26//85 25//82 20//63
f 21//68 29//3 26//87
f 22//72 30//4 17//54
f 27//91 26//88 29//3
f 28//92 27//89 29//3 31//95 32//98 30//4
f 29//3 21//69 31//97
f 30//4 22//73 28//93
f 32//100 17//55 30//4
f 33//101 45//138 56//171 44//134
f 34//105 46//142 45//139 33//102
f 35//108 47//145 46//141 34//104
f 36//111 48//148 47//144 35//107
f 37//114 49//151 48//147 36//110
f 38//117 50//154 49//150 37//113
f 39//120 51//157 50//153 38//116
f 40//123 52//160 51//156 39//119
f 41//126 53//163 52//159 40//122
f 42//129 54//166 53//162 41//125
f 43//132 55//169 54//165 42//128
f 44//135 56//172 55//168 43//131
