# Exported from Wings 3D 1.5.4
mtllib lepus_landing_leg_srf_1_upper_suspend.mtl
o lepus_landing_leg_srf_1_upper_suspend
#25 vertices, 25 faces
v 1.8750000e-2 0.0000000e+0 0.0000000e+0
v 1.3258252e-2 1.3258252e-2 8.1183380e-19
v 1.7552596e-18 1.8750000e-2 1.1481064e-18
v -1.3258252e-2 1.3258252e-2 8.1183380e-19
v -1.8750000e-2 0.0000000e+0 0.0000000e+0
v -1.3258252e-2 -1.3258252e-2 -8.1183380e-19
v -2.8371659e-18 -1.8750000e-2 -1.1481064e-18
v 1.3258252e-2 -1.3258252e-2 -8.1183380e-19
v 1.8750000e-2 -1.3777276e-17 0.22500000
v 1.3258252e-2 1.3258252e-2 0.22500000
v 1.7552596e-18 1.8750000e-2 0.22500000
v -1.3258252e-2 1.3258252e-2 0.22500000
v -1.8750000e-2 -1.3777276e-17 0.22500000
v -1.3258252e-2 -1.3258252e-2 0.22500000
v -2.8371659e-18 -1.8750000e-2 0.22500000
v 1.3258252e-2 -1.3258252e-2 0.22500000
v 8.6736174e-19 1.1481064e-18 -1.8750000e-2
v 2.3521447e-18 1.2555930e-2 -1.2555930e-2
v -8.8783831e-3 8.8783831e-3 -1.2555930e-2
v -1.2555930e-2 7.6882896e-19 -1.2555930e-2
v -8.8783831e-3 -8.8783831e-3 -1.2555930e-2
v -4.6448504e-19 -1.2555930e-2 -1.2555930e-2
v 8.8783831e-3 -8.8783831e-3 -1.2555930e-2
v 1.2555930e-2 7.6882896e-19 -1.2555930e-2
v 8.8783831e-3 8.8783831e-3 -1.2555930e-2
vt 0.51015031 0.10870299
vt 0.51015031 0.10870299
vt 0.51774119 9.3291654e-2
vt 0.51774119 0.12411433
vt 0.51834844 9.7805531e-2
vt 0.51834844 9.7805531e-2
vt 0.51834844 0.11960045
vt 0.51859997 0.10870299
vt 0.53312858 8.5688959e-2
vt 0.53312858 8.5688959e-2
vt 0.53312858 0.13171703
vt 0.53403540 9.2429613e-2
vt 0.53403540 0.12497637
vt 0.53441102 0.10870299
vt 0.63713627 0.10870299
vt 0.64387693 9.2429613e-2
vt 0.64387693 0.12497637
vt 0.66015031 8.5688959e-2
vt 0.66015031 0.13171703
vt 0.67642368 9.2429613e-2
vt 0.67642368 0.12497637
vt 0.68316434 0.10870299
vt 0.80886786 8.5688959e-2
vt 0.80886786 8.5688959e-2
vt 0.80886786 0.13171703
vt 0.80977469 9.2429613e-2
vt 0.80977469 0.12497637
vt 0.81015031 0.10870299
vn 0.97347460 -7.6561092e-17 -0.22879512
vn 0.68835049 0.68835049 -0.22879512
vn -1.2249775e-16 0.97347460 -0.22879512
vn -0.68835049 0.68835049 -0.22879512
vn -0.97347460 1.5312218e-16 -0.22879512
vn -0.68835049 -0.68835049 -0.22879512
vn -1.0718553e-16 -0.97347460 -0.22879512
vn 0.68835049 -0.68835049 -0.22879512
vn -6.2929118e-17 1.4945666e-16 -1.00000000
vn -3.2039217e-16 0.70131240 -0.71285406
vn -0.49590275 0.49590275 -0.71285406
vn -0.70131240 1.5256770e-16 -0.71285406
vn -0.49590275 -0.49590275 -0.71285406
vn -1.9070963e-16 -0.70131240 -0.71285406
vn 0.49590275 -0.49590275 -0.71285406
vn 0.70131240 -7.6283850e-18 -0.71285406
vn 0.49590275 0.49590275 -0.71285406
vn 0.0000000e+0 0.0000000e+0 1.00000000
vn 1.00000000 -9.0127256e-17 1.1357729e-18
vn 1.00000000 -9.0127256e-17 1.1357729e-18
vn 0.0000000e+0 0.0000000e+0 1.00000000
vn 0.70710678 0.70710678 4.4295143e-17
vn 0.70710678 0.70710678 4.4295143e-17
vn 0.0000000e+0 0.0000000e+0 1.00000000
vn -3.0042419e-17 1.00000000 6.1331737e-17
vn -3.0042419e-17 1.00000000 6.1331737e-17
vn 0.0000000e+0 0.0000000e+0 1.00000000
vn -0.70710678 0.70710678 4.4295143e-17
vn -0.70710678 0.70710678 4.4295143e-17
vn 0.0000000e+0 0.0000000e+0 1.00000000
vn -1.00000000 1.2016967e-16 -5.0030677e-33
vn -1.00000000 1.2016967e-16 -5.0030677e-33
vn 0.0000000e+0 0.0000000e+0 1.00000000
vn -0.70710678 -0.70710678 -4.4295143e-17
vn -0.70710678 -0.70710678 -4.4295143e-17
vn 0.0000000e+0 0.0000000e+0 1.00000000
vn -3.0042419e-17 -1.00000000 -6.1331737e-17
vn -3.0042419e-17 -1.00000000 -6.1331737e-17
vn 0.0000000e+0 0.0000000e+0 1.00000000
vn 0.70710678 -0.70710678 -4.3159370e-17
vn 0.70710678 -0.70710678 -4.3159370e-17
g lepus_landing_leg_srf_1_upper_suspend_lepus_landing_leg_srf_1_upper_suspend_auv
usemtl lepus_landing_leg_srf_1_upper_suspend_auv
s 1
f 10/17/21 11/15/24 12/16/27 13/18/30 14/20/33 15/22/36 16/21/39 9/19/18
s 2
f 1/9/1 9/24/19 16/26/40 8/12/8
f 1/11/1 24/4/16 25/7/17 2/13/2
f 2/13/2 10/27/23 9/25/20 1/11/1
f 2/13/2 25/7/17 18/8/10 3/14/3
f 3/14/3 11/28/26 10/27/22 2/13/2
f 3/14/3 18/8/10 19/6/11 4/12/4
f 4/12/4 12/26/29 11/28/25 3/14/3
f 4/12/4 19/6/11 20/3/12 5/10/5
f 5/10/5 13/23/32 12/26/28 4/12/4
f 5/11/5 20/4/12 21/7/13 6/13/6
f 6/13/6 14/27/35 13/25/31 5/11/5
f 6/13/6 21/7/13 22/8/14 7/14/7
f 7/14/7 15/28/38 14/27/34 6/13/6
f 7/14/7 22/8/14 23/5/15 8/12/8
f 8/12/8 16/26/41 15/28/37 7/14/7
f 8/12/8 23/5/15 24/3/16 1/9/1
f 17/1/9 19/6/11 18/8/10
f 17/1/9 20/3/12 19/6/11
f 17/2/9 21/7/13 20/4/12
f 17/2/9 22/8/14 21/7/13
f 17/2/9 23/5/15 22/8/14
f 17/2/9 24/3/16 23/5/15
f 17/1/9 25/7/17 24/4/16
f 18/8/10 25/7/17 17/1/9
