# Exported from Wings 3D 1.5.4
mtllib lepus_landing_leg_srf_1_upper_suspend.mtl
o lepus_landing_leg_srf_1_upper_suspend
#25 vertices, 25 faces
v 1.8750000e-2 0.0000000e+0 0.0000000e+0
v 1.3258252e-2 1.3258252e-2 8.1183380e-19
v 1.7552596e-18 1.8750000e-2 1.1481064e-18
v -1.3258252e-2 1.3258252e-2 8.1183380e-19
v -1.8750000e-2 0.0000000e+0 0.0000000e+0
v -1.3258252e-2 -1.3258252e-2 -8.1183380e-19
v -2.8371659e-18 -1.8750000e-2 -1.1481064e-18
v 1.3258252e-2 -1.3258252e-2 -8.1183380e-19
v 1.8750000e-2 -1.3777276e-17 0.22500000
v 1.3258252e-2 1.3258252e-2 0.22500000
v 1.7552596e-18 1.8750000e-2 0.22500000
v -1.3258252e-2 1.3258252e-2 0.22500000
v -1.8750000e-2 -1.3777276e-17 0.22500000
v -1.3258252e-2 -1.3258252e-2 0.22500000
v -2.8371659e-18 -1.8750000e-2 0.22500000
v 1.3258252e-2 -1.3258252e-2 0.22500000
v 8.6736174e-19 1.1481064e-18 -1.8750000e-2
v 2.3521447e-18 1.2555930e-2 -1.2555930e-2
v -8.8783831e-3 8.8783831e-3 -1.2555930e-2
v -1.2555930e-2 7.6882896e-19 -1.2555930e-2
v -8.8783831e-3 -8.8783831e-3 -1.2555930e-2
v -4.6448504e-19 -1.2555930e-2 -1.2555930e-2
v 8.8783831e-3 -8.8783831e-3 -1.2555930e-2
v 1.2555930e-2 7.6882896e-19 -1.2555930e-2
v 8.8783831e-3 8.8783831e-3 -1.2555930e-2
vn 0.97347460 -7.6561092e-17 -0.22879512
vn 0.68835049 0.68835049 -0.22879512
vn -1.2249775e-16 0.97347460 -0.22879512
vn -0.68835049 0.68835049 -0.22879512
vn -0.97347460 1.5312218e-16 -0.22879512
vn -0.68835049 -0.68835049 -0.22879512
vn -1.0718553e-16 -0.97347460 -0.22879512
vn 0.68835049 -0.68835049 -0.22879512
vn -6.2929118e-17 1.4945666e-16 -1.00000000
vn -3.2039217e-16 0.70131240 -0.71285406
vn -0.49590275 0.49590275 -0.71285406
vn -0.70131240 1.5256770e-16 -0.71285406
vn -0.49590275 -0.49590275 -0.71285406
vn -1.9070963e-16 -0.70131240 -0.71285406
vn 0.49590275 -0.49590275 -0.71285406
vn 0.70131240 -7.6283850e-18 -0.71285406
vn 0.49590275 0.49590275 -0.71285406
vn 0.0000000e+0 0.0000000e+0 1.00000000
vn 1.00000000 -9.0127256e-17 1.1357729e-18
vn 1.00000000 -9.0127256e-17 1.1357729e-18
vn 0.0000000e+0 0.0000000e+0 1.00000000
vn 0.70710678 0.70710678 4.4295143e-17
vn 0.70710678 0.70710678 4.4295143e-17
vn 0.0000000e+0 0.0000000e+0 1.00000000
vn -3.0042419e-17 1.00000000 6.1331737e-17
vn -3.0042419e-17 1.00000000 6.1331737e-17
vn 0.0000000e+0 0.0000000e+0 1.00000000
vn -0.70710678 0.70710678 4.4295143e-17
vn -0.70710678 0.70710678 4.4295143e-17
vn 0.0000000e+0 0.0000000e+0 1.00000000
vn -1.00000000 1.2016967e-16 -5.0030677e-33
vn -1.00000000 1.2016967e-16 -5.0030677e-33
vn 0.0000000e+0 0.0000000e+0 1.00000000
vn -0.70710678 -0.70710678 -4.4295143e-17
vn -0.70710678 -0.70710678 -4.4295143e-17
vn 0.0000000e+0 0.0000000e+0 1.00000000
vn -3.0042419e-17 -1.00000000 -6.1331737e-17
vn -3.0042419e-17 -1.00000000 -6.1331737e-17
vn 0.0000000e+0 0.0000000e+0 1.00000000
vn 0.70710678 -0.70710678 -4.3159370e-17
vn 0.70710678 -0.70710678 -4.3159370e-17
g lepus_landing_leg_srf_1_upper_suspend_default
usemtl default
s 1
f 10//21 11//24 12//27 13//30 14//33 15//36 16//39 9//18
s 2
f 1//1 9//19 16//40 8//8
f 1//1 24//16 25//17 2//2
f 2//2 10//23 9//20 1//1
f 2//2 25//17 18//10 3//3
f 3//3 11//26 10//22 2//2
f 3//3 18//10 19//11 4//4
f 4//4 12//29 11//25 3//3
f 4//4 19//11 20//12 5//5
f 5//5 13//32 12//28 4//4
f 5//5 20//12 21//13 6//6
f 6//6 14//35 13//31 5//5
f 6//6 21//13 22//14 7//7
f 7//7 15//38 14//34 6//6
f 7//7 22//14 23//15 8//8
f 8//8 16//41 15//37 7//7
f 8//8 23//15 24//16 1//1
f 17//9 19//11 18//10
f 17//9 20//12 19//11
f 17//9 21//13 20//12
f 17//9 22//14 21//13
f 17//9 23//15 22//14
f 17//9 24//16 23//15
f 17//9 25//17 24//16
f 18//10 25//17 17//9
