# Exported from Wings 3D 2.0.1.2016-07-19---10-17.mlab
mtllib Tantares_Crew_1_Interior_Mask.mtl
o Tantares_Crew_1_Interior_Mask
#152 vertices, 97 faces
v -0.55626023 5.1671279e-2 -9.3750000e-2
v -0.55090779 8.7146339e-2 -8.6613706e-2
v -0.54637022 0.11722064 -6.6291261e-2
v -0.54333831 0.13731565 -3.5876572e-2
v -0.54227365 0.14437208 -2.5300483e-16
v -0.54333831 0.13731565 3.5876572e-2
v -0.54637022 0.11722064 6.6291261e-2
v -0.55090779 8.7146339e-2 8.6613706e-2
v -0.55626023 5.1671279e-2 9.3750000e-2
v -0.56161266 1.6196220e-2 8.6613706e-2
v -0.56615023 -1.3878084e-2 6.6291261e-2
v -0.56918214 -3.3973091e-2 3.5876572e-2
v -0.57024681 -4.1029519e-2 -2.9414415e-16
v -0.56918214 -3.3973091e-2 -3.5876572e-2
v -0.56615023 -1.3878084e-2 -6.6291261e-2
v -0.56161266 1.6196220e-2 -8.6613706e-2
v -0.55144304 8.3598833e-2 -7.7952336e-2
v -0.55626023 5.1671279e-2 -8.4375000e-2
v -0.56107742 1.9743725e-2 -7.7952336e-2
v -0.56516123 -7.3231477e-3 -5.9662135e-2
v -0.56788995 -2.5408654e-2 -3.2288915e-2
v -0.56884815 -3.1759439e-2 -2.8861774e-16
v -0.56788995 -2.5408654e-2 3.2288915e-2
v -0.56516123 -7.3231477e-3 5.9662135e-2
v -0.56107742 1.9743725e-2 7.7952336e-2
v -0.55626023 5.1671279e-2 8.4375000e-2
v -0.55144304 8.3598833e-2 7.7952336e-2
v -0.54735922 0.11066571 5.9662135e-2
v -0.54463050 0.12875121 3.2288915e-2
v -0.54367230 0.13510200 -2.5853124e-16
v -0.54463050 0.12875121 -3.2288915e-2
v -0.54735922 0.11066571 -5.9662135e-2
v -0.53602339 1.2712539e-2 -8.6613706e-2
v -0.54318237 -1.6966250e-2 -6.6291261e-2
v -0.55013291 -3.6470019e-2 -3.5876572e-2
v -0.55581685 -4.2829496e-2 -2.9222876e-16
v -0.52780963 0.14256696 -2.2421783e-16
v -0.52425760 0.13481397 -3.5876572e-2
v -0.52337827 0.11412884 -6.6291261e-2
v -0.52530549 8.3660692e-2 -8.6613706e-2
v -0.52974587 4.8048022e-2 -9.3750000e-2
v -0.55013291 -3.6470019e-2 3.5876572e-2
v -0.54318237 -1.6966250e-2 6.6291261e-2
v -0.53602339 1.2712539e-2 8.6613706e-2
v -0.52974587 4.8048022e-2 9.3750000e-2
v -0.52530549 8.3660692e-2 8.6613706e-2
v -0.52337827 0.11412884 6.6291261e-2
v -0.52425760 0.13481397 3.5876572e-2
v 0.55625945 5.1671279e-2 9.3750000e-2
v 0.55090702 8.7146339e-2 8.6613706e-2
v 0.54636945 0.11722064 6.6291261e-2
v 0.54333754 0.13731565 3.5876572e-2
v 0.54227287 0.14437208 8.2517856e-18
v 0.54333754 0.13731565 -3.5876572e-2
v 0.54636945 0.11722064 -6.6291261e-2
v 0.55090702 8.7146339e-2 -8.6613706e-2
v 0.55625945 5.1671279e-2 -9.3750000e-2
v 0.56161189 1.6196220e-2 -8.6613706e-2
v 0.56614946 -1.3878084e-2 -6.6291261e-2
v 0.56918137 -3.3973091e-2 -3.5876572e-2
v 0.57024603 -4.1029519e-2 -5.7909697e-17
v 0.56918137 -3.3973091e-2 3.5876572e-2
v 0.56614946 -1.3878084e-2 6.6291261e-2
v 0.56161189 1.6196220e-2 8.6613706e-2
v 0.55144226 8.3598833e-2 7.7952336e-2
v 0.55625945 5.1671279e-2 8.4375000e-2
v 0.56107664 1.9743725e-2 7.7952336e-2
v 0.56516046 -7.3231477e-3 5.9662135e-2
v 0.56788918 -2.5408654e-2 3.2288915e-2
v 0.56884738 -3.1759439e-2 -5.8071070e-17
v 0.56788918 -2.5408654e-2 -3.2288915e-2
v 0.56516046 -7.3231477e-3 -5.9662135e-2
v 0.56107664 1.9743725e-2 -7.7952336e-2
v 0.55625945 5.1671279e-2 -8.4375000e-2
v 0.55144226 8.3598833e-2 -7.7952336e-2
v 0.54735845 0.11066571 -5.9662135e-2
v 0.54462973 0.12875121 -3.2288915e-2
v 0.54367153 0.13510200 8.4131585e-18
v 0.54462973 0.12875121 3.2288915e-2
v 0.54735845 0.11066571 5.9662135e-2
v 0.53602262 1.2712539e-2 8.6613706e-2
v 0.54318159 -1.6966250e-2 6.6291261e-2
v 0.55013213 -3.6470019e-2 3.5876572e-2
v 0.55581608 -4.2829496e-2 -5.9372563e-17
v 0.52780885 0.14256696 -2.0081391e-17
v 0.52425683 0.13481397 3.5876572e-2
v 0.52337749 0.11412884 6.6291261e-2
v 0.52530472 8.3660692e-2 8.6613706e-2
v 0.52974509 4.8048022e-2 9.3750000e-2
v 0.55013213 -3.6470019e-2 -3.5876572e-2
v 0.54318159 -1.6966250e-2 -6.6291261e-2
v 0.53602262 1.2712539e-2 -8.6613706e-2
v 0.52974509 4.8048022e-2 -9.3750000e-2
v 0.52530472 8.3660692e-2 -8.6613706e-2
v 0.52337749 0.11412884 -6.6291261e-2
v 0.52425683 0.13481397 -3.5876572e-2
v 0.29784108 0.48437500 7.9806380e-2
v 0.30834779 0.48437500 2.5099152e-17
v 0.29784108 0.48437500 -7.9806380e-2
v 0.26703697 0.48437500 -0.15417409
v 0.21803470 0.48437500 -0.21803508
v 0.15417370 0.48437500 -0.26703735
v 7.9805993e-2 0.48437500 -0.29784146
v -3.8651126e-7 0.48437500 -0.30834817
v -7.9806766e-2 0.48437500 -0.29784146
v -0.15417447 0.48437500 -0.26703735
v -0.21803547 0.48437500 -0.21803508
v -0.26703774 0.48437500 -0.15417409
v -0.29784185 0.48437500 -7.9806380e-2
v -0.30834856 0.48437500 5.9094043e-17
v -0.29784185 0.48437500 7.9806380e-2
v -0.26703774 0.48437500 0.15417409
v -0.21803547 0.48437500 0.21803508
v -0.15417447 0.48437500 0.26703735
v -7.9806766e-2 0.48437500 0.29784146
v -3.8651126e-7 0.48437500 0.30834817
v 7.9805993e-2 0.48437500 0.29784146
v 0.15417370 0.48437500 0.26703735
v 0.21803470 0.48437500 0.21803508
v 0.26703697 0.48437500 0.15417409
v -0.54847661 8.3151263e-2 -7.7952336e-2
v -0.55329380 5.1223709e-2 -8.4375000e-2
v -0.55811099 1.9296155e-2 -7.7952336e-2
v -0.56219481 -7.7707183e-3 -5.9662135e-2
v -0.56492353 -2.5856225e-2 -3.2288915e-2
v -0.56588172 -3.2207010e-2 -2.8806556e-16
v -0.56492353 -2.5856225e-2 3.2288915e-2
v -0.56219481 -7.7707183e-3 5.9662135e-2
v -0.55811099 1.9296155e-2 7.7952336e-2
v -0.55329380 5.1223709e-2 8.4375000e-2
v -0.54847661 8.3151263e-2 7.7952336e-2
v -0.54439280 0.11021814 5.9662135e-2
v -0.54166408 0.12830364 3.2288915e-2
v -0.54070588 0.13465443 -2.5797907e-16
v -0.54166408 0.12830364 -3.2288915e-2
v -0.54439280 0.11021814 -5.9662135e-2
v 0.54847584 8.3151263e-2 7.7952336e-2
v 0.55329303 5.1223709e-2 8.4375000e-2
v 0.55811022 1.9296155e-2 7.7952336e-2
v 0.56219403 -7.7707183e-3 5.9662135e-2
v 0.56492275 -2.5856225e-2 3.2288915e-2
v 0.56588095 -3.2207010e-2 -5.8891869e-17
v 0.56492275 -2.5856225e-2 -3.2288915e-2
v 0.56219403 -7.7707183e-3 -5.9662135e-2
v 0.55811022 1.9296155e-2 -7.7952336e-2
v 0.55329303 5.1223709e-2 -8.4375000e-2
v 0.54847584 8.3151263e-2 -7.7952336e-2
v 0.54439202 0.11021814 -5.9662135e-2
v 0.54166330 0.12830364 -3.2288915e-2
v 0.54070511 0.13465443 7.5923591e-18
v 0.54166330 0.12830364 3.2288915e-2
v 0.54439202 0.11021814 5.9662135e-2
vt 0.92492592 0.49904469
vt 0.92492592 0.49904469
vt 0.92492592 0.51819156
vt 0.92492592 0.53873868
vt 0.92492592 0.55928581
vt 0.92492592 0.55928581
vt 0.92492592 0.57843268
vt 0.92492592 0.57843268
vt 0.92492592 0.59487448
vt 0.92492592 0.59487448
vn -5.1453464e-2 -0.37940194 -0.92380015
vn -9.3896462e-2 -0.70128137 -0.70667382
vn -0.11956059 -0.91655268 -0.38162344
vn -0.12730133 -0.99186409 -3.5364143e-16
vn 0.12734429 0.99185857 6.5105810e-16
vn 0.11948373 0.91572383 -0.38363199
vn 9.3806604e-2 0.70051058 -0.70744982
vn 5.1414795e-2 0.37908930 -0.92393064
vn -4.3998783e-6 -3.4873335e-5 -1.00000000
vn -0.11956059 -0.91655268 0.38162344
vn -9.3896462e-2 -0.70128137 0.70667382
vn -5.1453464e-2 -0.37940194 0.92380015
vn -4.3998783e-6 -3.4873335e-5 1.00000000
vn 5.1414795e-2 0.37908930 0.92393064
vn 9.3806604e-2 0.70051058 0.70744982
vn 0.11948373 0.91572383 0.38363199
vn 5.1453464e-2 -0.37940194 0.92380015
vn 9.3896462e-2 -0.70128137 0.70667382
vn 0.11956059 -0.91655268 0.38162344
vn 0.12730133 -0.99186409 -1.8389354e-16
vn -0.12734429 0.99185857 1.1322750e-16
vn -0.11948373 0.91572383 0.38363199
vn -9.3806604e-2 0.70051058 0.70744982
vn -5.1414795e-2 0.37908930 0.92393064
vn 4.3998783e-6 -3.4873335e-5 1.00000000
vn 0.11956059 -0.91655268 -0.38162344
vn 9.3896462e-2 -0.70128137 -0.70667382
vn 5.1453464e-2 -0.37940194 -0.92380015
vn 4.3998783e-6 -3.4873335e-5 -1.00000000
vn -5.1414795e-2 0.37908930 -0.92393064
vn -9.3806604e-2 0.70051058 -0.70744982
vn -0.11948373 0.91572383 -0.38363199
vn -5.7092615e-2 -0.37840064 0.92387953
vn -1.7687087e-16 -4.1034042e-16 1.00000000
vn 5.7092615e-2 0.37840064 0.92387953
vn 0.10549340 0.69919321 0.70710678
vn 0.13783377 0.91353995 0.38268343
vn 0.14919019 0.98880852 3.9619075e-16
vn 0.13783377 0.91353995 -0.38268343
vn 0.10549340 0.69919321 -0.70710678
vn 5.7092615e-2 0.37840064 -0.92387953
vn -2.6530631e-17 -1.4149670e-17 -1.00000000
vn -5.7092615e-2 -0.37840064 -0.92387953
vn -0.10549340 -0.69919321 -0.70710678
vn -0.13783377 -0.91353995 -0.38268343
vn -0.14919019 -0.98880852 -8.2068085e-16
vn -0.13783377 -0.91353995 0.38268343
vn -0.10549340 -0.69919321 0.70710678
vn 5.7092615e-2 -0.37840064 -0.92387953
vn -2.8299339e-17 1.9809538e-16 -1.00000000
vn -5.7092615e-2 0.37840064 -0.92387953
vn -0.10549340 0.69919321 -0.70710678
vn -0.13783377 0.91353995 -0.38268343
vn -0.14919019 0.98880852 1.6979604e-16
vn -0.13783377 0.91353995 0.38268343
vn -0.10549340 0.69919321 0.70710678
vn -5.7092615e-2 0.37840064 0.92387953
vn 9.9047688e-17 -6.5088481e-16 1.00000000
vn 5.7092615e-2 -0.37840064 0.92387953
vn 0.10549340 -0.69919321 0.70710678
vn 0.13783377 -0.91353995 0.38268343
vn 0.14919019 -0.98880852 0.0000000e+0
vn 0.13783377 -0.91353995 -0.38268343
vn 0.10549340 -0.69919321 -0.70710678
vn -4.3998783e-6 -3.4873335e-5 -1.00000000
vn -4.3998783e-6 -3.4873335e-5 -1.00000000
vn -0.98880852 0.14919019 9.9249956e-15
vn -0.98880852 0.14919019 4.7928398e-15
vn 5.1414795e-2 0.37908930 -0.92393064
vn 5.1414795e-2 0.37908930 -0.92393064
vn -0.98880852 0.14919019 9.9249956e-15
vn -0.98880852 0.14919019 8.4616950e-15
vn 9.3806604e-2 0.70051058 -0.70744982
vn 9.3806604e-2 0.70051058 -0.70744982
vn -0.98880852 0.14919019 -3.3931609e-15
vn -0.98880852 0.14919019 8.4616950e-15
vn 0.11948373 0.91572383 -0.38363199
vn 0.11948373 0.91572383 -0.38363199
vn -0.98880852 0.14919019 -7.8069210e-16
vn -0.98880852 0.14919019 -3.3931609e-15
vn 0.12734429 0.99185857 6.5105810e-16
vn 0.12734429 0.99185857 6.5105810e-16
vn -0.98880852 0.14919019 1.0139719e-15
vn -0.98880852 0.14919019 -7.8069210e-16
vn 0.11948373 0.91572383 0.38363199
vn 0.11948373 0.91572383 0.38363199
vn -0.98880852 0.14919019 3.5734226e-15
vn -0.98880852 0.14919019 1.0139719e-15
vn 9.3806604e-2 0.70051058 0.70744982
vn 9.3806604e-2 0.70051058 0.70744982
vn -0.98880852 0.14919019 -8.2496224e-15
vn -0.98880852 0.14919019 3.5734226e-15
vn 5.1414795e-2 0.37908930 0.92393064
vn 5.1414795e-2 0.37908930 0.92393064
vn -0.98880852 0.14919019 -1.0009825e-14
vn -0.98880852 0.14919019 -8.2496224e-15
vn -4.3998783e-6 -3.4873335e-5 1.00000000
vn -4.3998783e-6 -3.4873335e-5 1.00000000
vn -0.98880852 0.14919019 8.1011717e-15
vn -0.98880852 0.14919019 -1.0009825e-14
vn -5.1453464e-2 -0.37940194 0.92380015
vn -5.1453464e-2 -0.37940194 0.92380015
vn -0.98880852 0.14919019 6.2773477e-15
vn -0.98880852 0.14919019 8.1011717e-15
vn -9.3896462e-2 -0.70128137 0.70667382
vn -9.3896462e-2 -0.70128137 0.70667382
vn -0.98880852 0.14919019 2.1737437e-15
vn -0.98880852 0.14919019 6.2773477e-15
vn -0.11956059 -0.91655268 0.38162344
vn -0.11956059 -0.91655268 0.38162344
vn -0.98880852 0.14919019 1.3572644e-15
vn -0.98880852 0.14919019 2.1737437e-15
vn -0.12730133 -0.99186409 -3.5364143e-16
vn -0.12730133 -0.99186409 -3.5364143e-16
vn -0.98880852 0.14919019 -1.1849554e-15
vn -0.98880852 0.14919019 1.3572644e-15
vn -0.11956059 -0.91655268 -0.38162344
vn -0.11956059 -0.91655268 -0.38162344
vn -0.98880852 0.14919019 -2.0146893e-15
vn -0.98880852 0.14919019 -1.1849554e-15
vn -9.3896462e-2 -0.70128137 -0.70667382
vn -9.3896462e-2 -0.70128137 -0.70667382
vn -0.98880852 0.14919019 4.2202439e-15
vn -0.98880852 0.14919019 -2.0146893e-15
vn -5.1453464e-2 -0.37940194 -0.92380015
vn -5.1453464e-2 -0.37940194 -0.92380015
vn -0.98880852 0.14919019 4.7928398e-15
vn -0.98880852 0.14919019 4.2202439e-15
vn -0.98880852 0.14919019 9.9249956e-15
vn -0.98880852 0.14919019 8.4616950e-15
vn -5.7092615e-2 -0.37840064 0.92387953
vn -5.7092615e-2 -0.37840064 0.92387953
vn -0.98880852 0.14919019 9.9249956e-15
vn -0.98880852 0.14919019 4.7928398e-15
vn -1.7687087e-16 -4.1034042e-16 1.00000000
vn -1.7687087e-16 -4.1034042e-16 1.00000000
vn -0.98880852 0.14919019 4.7928398e-15
vn -0.98880852 0.14919019 4.2202439e-15
vn 5.7092615e-2 0.37840064 0.92387953
vn 5.7092615e-2 0.37840064 0.92387953
vn -0.98880852 0.14919019 4.2202439e-15
vn -0.98880852 0.14919019 -2.0146893e-15
vn 0.10549340 0.69919321 0.70710678
vn 0.10549340 0.69919321 0.70710678
vn -0.98880852 0.14919019 -2.0146893e-15
vn -0.98880852 0.14919019 -1.1849554e-15
vn 0.13783377 0.91353995 0.38268343
vn 0.13783377 0.91353995 0.38268343
vn -0.98880852 0.14919019 -1.1849554e-15
vn -0.98880852 0.14919019 1.3572644e-15
vn 0.14919019 0.98880852 3.9619075e-16
vn 0.14919019 0.98880852 3.9619075e-16
vn -0.98880852 0.14919019 1.3572644e-15
vn -0.98880852 0.14919019 2.1737437e-15
vn 0.13783377 0.91353995 -0.38268343
vn 0.13783377 0.91353995 -0.38268343
vn -0.98880852 0.14919019 2.1737437e-15
vn -0.98880852 0.14919019 6.2773477e-15
vn 0.10549340 0.69919321 -0.70710678
vn 0.10549340 0.69919321 -0.70710678
vn -0.98880852 0.14919019 6.2773477e-15
vn -0.98880852 0.14919019 8.1011717e-15
vn 5.7092615e-2 0.37840064 -0.92387953
vn 5.7092615e-2 0.37840064 -0.92387953
vn -0.98880852 0.14919019 8.1011717e-15
vn -0.98880852 0.14919019 -1.0009825e-14
vn -2.6530631e-17 -1.4149670e-17 -1.00000000
vn -2.6530631e-17 -1.4149670e-17 -1.00000000
vn -0.98880852 0.14919019 -1.0009825e-14
vn -0.98880852 0.14919019 -8.2496224e-15
vn -5.7092615e-2 -0.37840064 -0.92387953
vn -5.7092615e-2 -0.37840064 -0.92387953
vn -0.98880852 0.14919019 -8.2496224e-15
vn -0.98880852 0.14919019 3.5734226e-15
vn -0.10549340 -0.69919321 -0.70710678
vn -0.10549340 -0.69919321 -0.70710678
vn -0.98880852 0.14919019 3.5734226e-15
vn -0.98880852 0.14919019 1.0139719e-15
vn -0.13783377 -0.91353995 -0.38268343
vn -0.13783377 -0.91353995 -0.38268343
vn -0.98880852 0.14919019 1.0139719e-15
vn -0.98880852 0.14919019 -7.8069210e-16
vn -0.14919019 -0.98880852 -8.2068085e-16
vn -0.14919019 -0.98880852 -8.2068085e-16
vn -0.98880852 0.14919019 -7.8069210e-16
vn -0.98880852 0.14919019 -3.3931609e-15
vn -0.13783377 -0.91353995 0.38268343
vn -0.13783377 -0.91353995 0.38268343
vn -0.98880852 0.14919019 -3.3931609e-15
vn -0.98880852 0.14919019 8.4616950e-15
vn -0.10549340 -0.69919321 0.70710678
vn -0.10549340 -0.69919321 0.70710678
vn 4.3998783e-6 -3.4873335e-5 1.00000000
vn 4.3998783e-6 -3.4873335e-5 1.00000000
vn 0.98880852 0.14919019 -9.8825811e-15
vn 0.98880852 0.14919019 -4.7504253e-15
vn -5.1414795e-2 0.37908930 0.92393064
vn -5.1414795e-2 0.37908930 0.92393064
vn 0.98880852 0.14919019 -9.8825811e-15
vn 0.98880852 0.14919019 -8.3556587e-15
vn -9.3806604e-2 0.70051058 0.70744982
vn -9.3806604e-2 0.70051058 0.70744982
vn 0.98880852 0.14919019 3.4885936e-15
vn 0.98880852 0.14919019 -8.3556587e-15
vn -0.11948373 0.91572383 0.38363199
vn -0.11948373 0.91572383 0.38363199
vn 0.98880852 0.14919019 8.9733200e-16
vn 0.98880852 0.14919019 3.4885936e-15
vn -0.12734429 0.99185857 1.1322750e-16
vn -0.12734429 0.99185857 1.1322750e-16
vn 0.98880852 0.14919019 -8.9733200e-16
vn 0.98880852 0.14919019 8.9733200e-16
vn -0.11948373 0.91572383 -0.38363199
vn -0.11948373 0.91572383 -0.38363199
vn 0.98880852 0.14919019 -3.4885936e-15
vn 0.98880852 0.14919019 -8.9733200e-16
vn -9.3806604e-2 0.70051058 -0.70744982
vn -9.3806604e-2 0.70051058 -0.70744982
vn 0.98880852 0.14919019 8.3556587e-15
vn 0.98880852 0.14919019 -3.4885936e-15
vn -5.1414795e-2 0.37908930 -0.92393064
vn -5.1414795e-2 0.37908930 -0.92393064
vn 0.98880852 0.14919019 1.0094654e-14
vn 0.98880852 0.14919019 8.3556587e-15
vn 4.3998783e-6 -3.4873335e-5 -1.00000000
vn 4.3998783e-6 -3.4873335e-5 -1.00000000
vn 0.98880852 0.14919019 -8.0163426e-15
vn 0.98880852 0.14919019 1.0094654e-14
vn 5.1453464e-2 -0.37940194 -0.92380015
vn 5.1453464e-2 -0.37940194 -0.92380015
vn 0.98880852 0.14919019 -6.2137259e-15
vn 0.98880852 0.14919019 -8.0163426e-15
vn 9.3896462e-2 -0.70128137 -0.70667382
vn 9.3896462e-2 -0.70128137 -0.70667382
vn 0.98880852 0.14919019 -2.0889147e-15
vn 0.98880852 0.14919019 -6.2137259e-15
vn 0.11956059 -0.91655268 -0.38162344
vn 0.11956059 -0.91655268 -0.38162344
vn 0.98880852 0.14919019 -1.2711099e-15
vn 0.98880852 0.14919019 -2.0889147e-15
vn 0.12730133 -0.99186409 -1.8389354e-16
vn 0.12730133 -0.99186409 -1.8389354e-16
vn 0.98880852 0.14919019 1.2711099e-15
vn 0.98880852 0.14919019 -1.2711099e-15
vn 0.11956059 -0.91655268 0.38162344
vn 0.11956059 -0.91655268 0.38162344
vn 0.98880852 0.14919019 2.0889147e-15
vn 0.98880852 0.14919019 1.2711099e-15
vn 9.3896462e-2 -0.70128137 0.70667382
vn 9.3896462e-2 -0.70128137 0.70667382
vn 0.98880852 0.14919019 -4.1354149e-15
vn 0.98880852 0.14919019 2.0889147e-15
vn 5.1453464e-2 -0.37940194 0.92380015
vn 5.1453464e-2 -0.37940194 0.92380015
vn 0.98880852 0.14919019 -4.7504253e-15
vn 0.98880852 0.14919019 -4.1354149e-15
vn 0.98880852 0.14919019 -9.8825811e-15
vn 0.98880852 0.14919019 -8.3556587e-15
vn 5.7092615e-2 -0.37840064 -0.92387953
vn 5.7092615e-2 -0.37840064 -0.92387953
vn 0.98880852 0.14919019 -9.8825811e-15
vn 0.98880852 0.14919019 -4.7504253e-15
vn -2.8299339e-17 1.9809538e-16 -1.00000000
vn -2.8299339e-17 1.9809538e-16 -1.00000000
vn 0.98880852 0.14919019 -4.7504253e-15
vn 0.98880852 0.14919019 -4.1354149e-15
vn -5.7092615e-2 0.37840064 -0.92387953
vn -5.7092615e-2 0.37840064 -0.92387953
vn 0.98880852 0.14919019 -4.1354149e-15
vn 0.98880852 0.14919019 2.0889147e-15
vn -0.10549340 0.69919321 -0.70710678
vn -0.10549340 0.69919321 -0.70710678
vn 0.98880852 0.14919019 2.0889147e-15
vn 0.98880852 0.14919019 1.2711099e-15
vn -0.13783377 0.91353995 -0.38268343
vn -0.13783377 0.91353995 -0.38268343
vn 0.98880852 0.14919019 1.2711099e-15
vn 0.98880852 0.14919019 -1.2711099e-15
vn -0.14919019 0.98880852 1.6979604e-16
vn -0.14919019 0.98880852 1.6979604e-16
vn 0.98880852 0.14919019 -1.2711099e-15
vn 0.98880852 0.14919019 -2.0889147e-15
vn -0.13783377 0.91353995 0.38268343
vn -0.13783377 0.91353995 0.38268343
vn 0.98880852 0.14919019 -2.0889147e-15
vn 0.98880852 0.14919019 -6.2137259e-15
vn -0.10549340 0.69919321 0.70710678
vn -0.10549340 0.69919321 0.70710678
vn 0.98880852 0.14919019 -6.2137259e-15
vn 0.98880852 0.14919019 -8.0163426e-15
vn -5.7092615e-2 0.37840064 0.92387953
vn -5.7092615e-2 0.37840064 0.92387953
vn 0.98880852 0.14919019 -8.0163426e-15
vn 0.98880852 0.14919019 1.0094654e-14
vn 9.9047688e-17 -6.5088481e-16 1.00000000
vn 9.9047688e-17 -6.5088481e-16 1.00000000
vn 0.98880852 0.14919019 1.0094654e-14
vn 0.98880852 0.14919019 8.3556587e-15
vn 5.7092615e-2 -0.37840064 0.92387953
vn 5.7092615e-2 -0.37840064 0.92387953
vn 0.98880852 0.14919019 8.3556587e-15
vn 0.98880852 0.14919019 -3.4885936e-15
vn 0.10549340 -0.69919321 0.70710678
vn 0.10549340 -0.69919321 0.70710678
vn 0.98880852 0.14919019 -3.4885936e-15
vn 0.98880852 0.14919019 -8.9733200e-16
vn 0.13783377 -0.91353995 0.38268343
vn 0.13783377 -0.91353995 0.38268343
vn 0.98880852 0.14919019 -8.9733200e-16
vn 0.98880852 0.14919019 8.9733200e-16
vn 0.14919019 -0.98880852 0.0000000e+0
vn 0.14919019 -0.98880852 0.0000000e+0
vn 0.98880852 0.14919019 8.9733200e-16
vn 0.98880852 0.14919019 3.4885936e-15
vn 0.13783377 -0.91353995 -0.38268343
vn 0.13783377 -0.91353995 -0.38268343
vn 0.98880852 0.14919019 3.4885936e-15
vn 0.98880852 0.14919019 -8.3556587e-15
vn 0.10549340 -0.69919321 -0.70710678
vn 0.10549340 -0.69919321 -0.70710678
vn 0.0000000e+0 1.00000000 -5.5807636e-17
vn 0.0000000e+0 1.00000000 -5.5807636e-17
vn 0.0000000e+0 1.00000000 -5.5807636e-17
vn 0.0000000e+0 1.00000000 -5.5807636e-17
vn 0.0000000e+0 1.00000000 -5.5807636e-17
vn 0.0000000e+0 1.00000000 -5.5807636e-17
vn 0.0000000e+0 1.00000000 -5.5807636e-17
vn 0.0000000e+0 1.00000000 -5.5807636e-17
vn 0.0000000e+0 1.00000000 -5.5807636e-17
vn 0.0000000e+0 1.00000000 -5.5807636e-17
vn 0.0000000e+0 1.00000000 -5.5807636e-17
vn 0.0000000e+0 1.00000000 -5.5807636e-17
vn 0.0000000e+0 1.00000000 -5.5807636e-17
vn 0.0000000e+0 1.00000000 -5.5807636e-17
vn 0.0000000e+0 1.00000000 -5.5807636e-17
vn 0.0000000e+0 1.00000000 -5.5807636e-17
vn 0.0000000e+0 1.00000000 -5.5807636e-17
vn 0.0000000e+0 1.00000000 -5.5807636e-17
vn 0.0000000e+0 1.00000000 -5.5807636e-17
vn 0.0000000e+0 1.00000000 -5.5807636e-17
vn 0.0000000e+0 1.00000000 -5.5807636e-17
vn 0.0000000e+0 1.00000000 -5.5807636e-17
vn 0.0000000e+0 1.00000000 -5.5807636e-17
vn 0.0000000e+0 1.00000000 -5.5807636e-17
g Tantares_Crew_1_Interior_Mask_default
usemtl default
s 1
f 3//75 32//189 31//186 4//80
f 5//83 30//181 29//178 6//88
f 8//95 27//169 26//166 9//100
f 11//107 24//157 23//154 12//112
f 14//119 21//145 20//142 15//124
f 16//127 19//137 18//134 1//68
f 49//195 66//261 65//257 50//199
f 52//207 79//313 78//310 53//212
f 54//215 77//305 76//302 55//220
f 56//223 75//297 74//294 57//228
f 59//235 72//285 71//282 60//240
f 61//243 70//277 69//274 62//248
f 63//251 68//269 67//266 64//256
f 98/4/322 99/3/323 100/2/324 101/10/325 102/8/326 103/6/327 104/4/328 105/3/329 106/2/330 107/9/331 108/7/332 109/5/333 110/4/334 111/3/335 112/1/336 113/10/337 114/8/338 115/6/339 116/4/340 117/3/341 118/2/342 119/10/343 120/8/344 97/6/321
s 2
f 2//72 17//130 32//190 3//76
f 4//79 31//185 30//182 5//84
f 7//91 28//173 27//170 8//96
f 9//99 26//165 25//162 10//104
f 12//111 23//153 22//150 13//116
f 15//123 20//141 19//138 16//128
f 51//203 80//317 79//314 52//208
f 53//211 78//309 77//306 54//216
f 55//219 76//301 75//298 56//224
f 57//227 74//293 73//290 58//232
f 60//239 71//281 70//278 61//244
f 62//247 69//273 68//270 63//252
f 64//255 67//265 66//262 49//196
s 3
f 1//67 18//133 17//129 2//71
f 6//87 29//177 28//174 7//92
f 10//103 25//161 24//158 11//108
f 13//115 22//149 21//146 14//120
f 50//200 65//258 80//318 51//204
f 58//231 73//289 72//286 59//236
s 4
f 1//65 41//9 33//1 16//125
f 2//70 40//8 41//9 1//66
f 3//74 39//7 40//8 2//69
f 4//78 38//6 39//7 3//73
f 5//82 37//5 38//6 4//77
f 6//86 48//16 37//5 5//81
f 7//90 47//15 48//16 6//85
f 8//94 46//14 47//15 7//89
f 9//98 45//13 46//14 8//93
f 10//102 44//12 45//13 9//97
f 11//106 43//11 44//12 10//101
f 12//110 42//10 43//11 11//105
f 13//114 36//4 42//10 12//109
f 14//118 35//3 36//4 13//113
f 15//122 34//2 35//3 14//117
f 16//126 33//1 34//2 15//121
f 17//132 121//33 136//48 32//192
f 18//135 122//34 121//33 17//131
f 19//139 123//35 122//34 18//136
f 20//143 124//36 123//35 19//140
f 21//147 125//37 124//36 20//144
f 22//151 126//38 125//37 21//148
f 23//155 127//39 126//38 22//152
f 24//159 128//40 127//39 23//156
f 25//163 129//41 128//40 24//160
f 26//167 130//42 129//41 25//164
f 27//171 131//43 130//42 26//168
f 28//175 132//44 131//43 27//172
f 29//179 133//45 132//44 28//176
f 30//183 134//46 133//45 29//180
f 31//187 135//47 134//46 30//184
f 32//191 136//48 135//47 31//188
f 49//193 89//25 81//17 64//253
f 50//198 88//24 89//25 49//194
f 51//202 87//23 88//24 50//197
f 52//206 86//22 87//23 51//201
f 53//210 85//21 86//22 52//205
f 54//214 96//32 85//21 53//209
f 55//218 95//31 96//32 54//213
f 56//222 94//30 95//31 55//217
f 57//226 93//29 94//30 56//221
f 58//230 92//28 93//29 57//225
f 59//234 91//27 92//28 58//229
f 60//238 90//26 91//27 59//233
f 61//242 84//20 90//26 60//237
f 62//246 83//19 84//20 61//241
f 63//250 82//18 83//19 62//245
f 64//254 81//17 82//18 63//249
f 65//260 137//49 152//64 80//320
f 66//263 138//50 137//49 65//259
f 67//267 139//51 138//50 66//264
f 68//271 140//52 139//51 67//268
f 69//275 141//53 140//52 68//272
f 70//279 142//54 141//53 69//276
f 71//283 143//55 142//54 70//280
f 72//287 144//56 143//55 71//284
f 73//291 145//57 144//56 72//288
f 74//295 146//58 145//57 73//292
f 75//299 147//59 146//58 74//296
f 76//303 148//60 147//59 75//300
f 77//307 149//61 148//60 76//304
f 78//311 150//62 149//61 77//308
f 79//315 151//63 150//62 78//312
f 80//319 152//64 151//63 79//316
