# Exported from Wings 3D 1.5.4
mtllib eridani_satellite_neck_rotator.mtl
o mesh1
#54 vertices, 38 faces
v 7.5000000e-2 1.0103836e-17 -0.22500000
v 7.5000000e-2 -3.7500000e-2 -0.21495191
v 7.5000000e-2 -6.4951905e-2 -0.18750000
v 7.5000000e-2 -7.5000000e-2 -0.15000000
v 7.5000000e-2 7.5000000e-2 -0.15000000
v 7.5000000e-2 6.4951905e-2 -0.18750000
v 7.5000000e-2 3.7500000e-2 -0.21495191
v 7.5000000e-2 -7.5000000e-2 -7.5000000e-2
v 7.5000000e-2 7.5000000e-2 -7.5000000e-2
v 5.0000000e-2 3.7500000e-2 -0.21495191
v 5.0000000e-2 9.0024245e-18 -0.22500000
v 5.0000000e-2 -3.7500000e-2 -0.21495191
v 5.0000000e-2 -6.4951905e-2 -0.18750000
v 5.0000000e-2 -7.5000000e-2 -0.15000000
v 5.0000000e-2 7.5000000e-2 -0.15000000
v 5.0000000e-2 6.4951905e-2 -0.18750000
v 5.0000000e-2 7.5000000e-2 -0.10000000
v 5.0000000e-2 -7.5000000e-2 -0.10000000
v 1.1102230e-16 7.5000000e-2 -0.10000000
v 1.2490009e-16 -7.5000000e-2 -0.10000000
v -7.5000000e-2 -3.7739516e-18 -0.22500000
v -7.5000000e-2 -3.7500000e-2 -0.21495191
v -7.5000000e-2 -6.4951905e-2 -0.18750000
v -7.5000000e-2 -7.5000000e-2 -0.15000000
v -7.5000000e-2 7.5000000e-2 -0.15000000
v -7.5000000e-2 6.4951905e-2 -0.18750000
v -7.5000000e-2 3.7500000e-2 -0.21495191
v -7.5000000e-2 -7.5000000e-2 -7.5000000e-2
v -7.5000000e-2 7.5000000e-2 -7.5000000e-2
v -5.0000000e-2 3.7500000e-2 -0.21495191
v -5.0000000e-2 -2.4943402e-19 -0.22500000
v -5.0000000e-2 -3.7500000e-2 -0.21495191
v -5.0000000e-2 -6.4951905e-2 -0.18750000
v -5.0000000e-2 -7.5000000e-2 -0.15000000
v -5.0000000e-2 7.5000000e-2 -0.15000000
v -5.0000000e-2 6.4951905e-2 -0.18750000
v -5.0000000e-2 7.5000000e-2 -0.10000000
v -5.0000000e-2 -7.5000000e-2 -0.10000000
v 3.7500000e-2 1.7981839e-17 0.0000000e+0
v 2.6516504e-2 -2.6516504e-2 0.0000000e+0
v -5.1133270e-17 -3.7500000e-2 0.0000000e+0
v -2.6516504e-2 -2.6516504e-2 0.0000000e+0
v -3.7500000e-2 1.3389413e-17 0.0000000e+0
v -2.6516504e-2 2.6516504e-2 0.0000000e+0
v -6.0318121e-17 3.7500000e-2 -6.9388939e-18
v 2.6516504e-2 2.6516504e-2 0.0000000e+0
v 3.7500000e-2 1.3389413e-17 -7.5000000e-2
v 2.6516504e-2 -2.6516504e-2 -7.5000000e-2
v -5.1133270e-17 -3.7500000e-2 -7.5000000e-2
v -2.6516504e-2 -2.6516504e-2 -7.5000000e-2
v -3.7500000e-2 8.7969878e-18 -7.5000000e-2
v -2.6516504e-2 2.6516504e-2 -7.5000000e-2
v -6.0318121e-17 3.7500000e-2 -7.5000000e-2
v 2.6516504e-2 2.6516504e-2 -7.5000000e-2
vt 3.8252451e-2 0.48503651
vt 3.8252451e-2 0.54362209
vt 3.8857199e-2 0.64152182
vt 3.8857199e-2 0.58293625
vt 3.9207456e-2 0.37617840
vt 3.9207456e-2 0.43476398
vt 3.9207456e-2 0.37617840
vt 3.9207456e-2 0.43476398
vt 4.8971718e-2 0.42499971
vt 4.8971718e-2 0.38594266
vt 4.8971718e-2 0.40547119
vt 4.8971718e-2 0.42499971
vt 4.8971718e-2 0.40547119
vt 4.8971718e-2 0.38594266
vt 6.8500243e-2 0.43476398
vt 6.8500243e-2 0.37617840
vt 6.8500243e-2 0.42499971
vt 6.8500243e-2 0.38594266
vt 6.8500243e-2 0.37617840
vt 6.8500243e-2 0.43476398
vt 6.8500243e-2 0.38594266
vt 6.8500243e-2 0.42499971
vt 7.7309501e-2 0.48503651
vt 7.7309501e-2 0.54362209
vt 7.7383083e-2 0.48503651
vt 7.7383083e-2 0.54362209
vt 8.3663306e-2 0.42499971
vt 8.3663306e-2 0.43476398
vt 8.3663306e-2 0.38594266
vt 8.3663306e-2 0.37617840
vt 8.3663306e-2 0.42499971
vt 8.3663306e-2 0.43476398
vt 8.3663306e-2 0.38594266
vt 8.3663306e-2 0.37617840
vt 9.6838026e-2 0.48503651
vt 9.6838026e-2 0.54362209
vt 9.6911608e-2 0.54362209
vt 9.6911608e-2 0.48503651
vt 9.7285385e-2 0.58293625
vt 9.7285385e-2 0.64152182
vt 9.7442774e-2 0.58293625
vt 9.7442774e-2 0.64152182
vt 9.8826368e-2 0.38594266
vt 9.8826368e-2 0.43476398
vt 9.8826368e-2 0.37617840
vt 9.8826368e-2 0.42499971
vt 9.8826368e-2 0.43476398
vt 9.8826368e-2 0.38594266
vt 9.8826368e-2 0.37617840
vt 9.8826368e-2 0.42499971
vt 0.11148442 0.53969760
vt 0.11148442 0.48896100
vt 0.11155800 0.53969760
vt 0.11155800 0.48896100
vt 0.11398943 0.38594266
vt 0.11398943 0.43476398
vt 0.11398943 0.42499971
vt 0.11398943 0.37617840
vt 0.11398943 0.42499971
vt 0.11398943 0.37617840
vt 0.11398943 0.43476398
vt 0.11398943 0.38594266
vt 0.12220632 0.49968291
vt 0.12220632 0.52897569
vt 0.12227991 0.49968291
vt 0.12227991 0.52897569
vt 0.12613081 0.51432930
vt 0.12620440 0.51432930
vt 0.12657817 0.58293625
vt 0.12657817 0.64152182
vt 0.12673556 0.58293625
vt 0.12673556 0.64152182
vt 0.14122457 0.63759733
vt 0.14122457 0.58686074
vt 0.14138196 0.58686074
vt 0.14138196 0.63759733
vt 0.15194647 0.59758264
vt 0.15194647 0.62687543
vt 0.15210386 0.59758264
vt 0.15210386 0.62687543
vt 0.15587096 0.61222903
vt 0.15602835 0.61222903
vt 0.16703440 0.51378030
vt 0.16703440 0.52499016
vt 0.16703440 0.53620002
vt 0.16703440 0.49136057
vt 0.16703440 0.50257043
vt 0.16703440 0.49136057
vt 0.16703440 0.50257043
vt 0.16703440 0.51378030
vt 0.16703440 0.52499016
vt 0.16703440 0.53620002
vt 0.19632718 0.50257043
vt 0.19632718 0.51378030
vt 0.19632718 0.52499016
vt 0.19632718 0.49136057
vt 0.19632718 0.53620002
vt 0.19632718 0.49136057
vt 0.19632718 0.50257043
vt 0.19632718 0.51378030
vt 0.19632718 0.52499016
vt 0.19632718 0.53620002
vn 0.0000000e+0 0.0000000e+0 0.0000000e+0
vn 0.0000000e+0 0.0000000e+0 0.0000000e+0
vn 1.00000000 3.0042419e-17 5.0030677e-33
vn 0.70710678 -0.70710678 6.1331737e-17
vn 3.0042419e-17 -1.00000000 1.0903420e-16
vn -0.70710678 -0.70710678 8.1775649e-17
vn -1.00000000 -1.5021209e-16 6.8146374e-18
vn -0.70710678 0.70710678 -6.1331737e-17
vn -1.8025451e-16 1.00000000 -1.0221956e-16
vn 0.70710678 0.70710678 -6.8146374e-17
vn 1.00000000 3.0042419e-17 5.0030677e-33
vn 0.70710678 -0.70710678 6.1331737e-17
vn 3.0042419e-17 -1.00000000 1.0903420e-16
vn -0.70710678 -0.70710678 8.1775649e-17
vn -1.00000000 -1.5021209e-16 6.8146374e-18
vn -0.70710678 0.70710678 -6.1331737e-17
vn -1.8025451e-16 1.00000000 -1.0221956e-16
vn 0.70710678 0.70710678 -6.8146374e-17
vn 1.00000000 2.5699607e-17 0.0000000e+0
vn 0.0000000e+0 2.2987749e-16 -1.00000000
vn 0.0000000e+0 2.2987749e-16 -1.00000000
vn 1.00000000 2.5699607e-17 0.0000000e+0
vn 0.0000000e+0 -0.50000000 -0.86602540
vn 0.0000000e+0 -0.50000000 -0.86602540
vn 1.00000000 2.5699607e-17 0.0000000e+0
vn 0.0000000e+0 -0.86602540 -0.50000000
vn 0.0000000e+0 -0.86602540 -0.50000000
vn 1.00000000 1.2849804e-17 0.0000000e+0
vn 1.00000000 1.2849804e-17 0.0000000e+0
vn 5.5990155e-17 -0.99144486 -0.13052619
vn 5.5990155e-17 -0.99144486 -0.13052619
vn 1.00000000 1.2849804e-17 0.0000000e+0
vn 1.00000000 1.2849804e-17 0.0000000e+0
vn -5.5990155e-17 0.99144486 -0.13052619
vn -5.5990155e-17 0.99144486 -0.13052619
vn 1.00000000 2.5699607e-17 0.0000000e+0
vn 0.0000000e+0 0.86602540 -0.50000000
vn 0.0000000e+0 0.86602540 -0.50000000
vn 1.00000000 2.5699607e-17 0.0000000e+0
vn 0.0000000e+0 0.50000000 -0.86602540
vn 0.0000000e+0 0.50000000 -0.86602540
vn 1.00000000 0.0000000e+0 0.0000000e+0
vn 1.1102230e-16 -1.00000000 -1.1102230e-16
vn 8.5596886e-33 -9.2518585e-17 1.00000000
vn 1.1102230e-16 -1.00000000 -1.1102230e-16
vn 1.00000000 0.0000000e+0 0.0000000e+0
vn -1.1102230e-16 1.00000000 1.1102230e-16
vn 8.5596886e-33 -9.2518585e-17 1.00000000
vn -1.1102230e-16 1.00000000 1.1102230e-16
vn -1.00000000 -8.1634046e-17 -6.0932481e-17
vn 0.0000000e+0 0.50000000 -0.86602540
vn 0.0000000e+0 0.50000000 -0.86602540
vn -1.00000000 -8.1634046e-17 -6.0932481e-17
vn 0.0000000e+0 2.2987749e-16 -1.00000000
vn 0.0000000e+0 2.2987749e-16 -1.00000000
vn -1.00000000 -8.1634046e-17 -6.0932481e-17
vn 0.0000000e+0 -0.50000000 -0.86602540
vn 0.0000000e+0 -0.50000000 -0.86602540
vn -1.00000000 -8.1634046e-17 -6.0932481e-17
vn 0.0000000e+0 -0.86602540 -0.50000000
vn 0.0000000e+0 -0.86602540 -0.50000000
vn -1.00000000 -8.1634046e-17 -6.0932481e-17
vn 5.5990155e-17 -0.99144486 -0.13052619
vn 5.5990155e-17 -0.99144486 -0.13052619
vn -1.00000000 -8.1634046e-17 -6.0932481e-17
vn -5.5990155e-17 0.99144486 -0.13052619
vn -5.5990155e-17 0.99144486 -0.13052619
vn -1.00000000 -8.1634046e-17 -6.0932481e-17
vn 0.0000000e+0 0.86602540 -0.50000000
vn 0.0000000e+0 0.86602540 -0.50000000
vn -1.00000000 -8.1634046e-17 -6.0932481e-17
vn -1.1102230e-16 1.00000000 1.1102230e-16
vn 0.0000000e+0 0.0000000e+0 0.0000000e+0
vn -1.1102230e-16 1.00000000 1.1102230e-16
vn 0.0000000e+0 0.0000000e+0 0.0000000e+0
vn 0.0000000e+0 0.0000000e+0 -1.00000000
vn -1.00000000 -8.1634046e-17 -6.0932481e-17
vn 1.1102230e-16 -1.00000000 -1.1102230e-16
vn 0.0000000e+0 0.0000000e+0 0.0000000e+0
vn 0.0000000e+0 0.0000000e+0 0.0000000e+0
vn 1.1102230e-16 -1.00000000 -1.1102230e-16
vn 0.0000000e+0 0.0000000e+0 -1.00000000
vn -1.00000000 -1.9274705e-16 1.6851032e-16
vn 1.4456029e-17 2.0114280e-16 -1.00000000
vn 1.4456029e-17 2.0114280e-16 -1.00000000
vn -1.00000000 -1.9274705e-16 1.6851032e-16
vn 7.2280145e-17 -0.50000000 -0.86602540
vn 7.2280145e-17 -0.50000000 -0.86602540
vn -1.00000000 -1.9274705e-16 1.6851032e-16
vn 2.8912058e-17 -0.86602540 -0.50000000
vn 2.8912058e-17 -0.86602540 -0.50000000
vn -1.00000000 -1.8889211e-16 8.4255159e-17
vn -1.00000000 -1.8889211e-16 8.4255159e-17
vn -5.5990155e-17 -0.99144486 -0.13052619
vn -5.5990155e-17 -0.99144486 -0.13052619
vn -1.00000000 -1.8889211e-16 8.4255159e-17
vn -1.00000000 -1.8889211e-16 8.4255159e-17
vn 5.5990155e-17 0.99144486 -0.13052619
vn 5.5990155e-17 0.99144486 -0.13052619
vn -1.00000000 -1.9274705e-16 1.6851032e-16
vn -2.8912058e-17 0.86602540 -0.50000000
vn -2.8912058e-17 0.86602540 -0.50000000
vn -1.00000000 -1.9274705e-16 1.6851032e-16
vn -5.7824116e-17 0.50000000 -0.86602540
vn -5.7824116e-17 0.50000000 -0.86602540
vn -1.00000000 -1.8503717e-16 -3.4238755e-32
vn 1.3558547e-31 -1.00000000 -1.1102230e-16
vn 8.5596886e-33 -9.2518585e-17 1.00000000
vn 1.3558547e-31 -1.00000000 -1.1102230e-16
vn -1.00000000 -1.8503717e-16 -3.4238755e-32
vn 8.5596886e-33 -9.2518585e-17 1.00000000
vn -1.1093356e-31 1.00000000 1.1102230e-16
vn -1.1093356e-31 1.00000000 1.1102230e-16
vn 1.00000000 1.4285958e-16 -6.0932481e-17
vn -5.7824116e-17 0.50000000 -0.86602540
vn -5.7824116e-17 0.50000000 -0.86602540
vn 1.00000000 1.4285958e-16 -6.0932481e-17
vn 1.4456029e-17 2.0114280e-16 -1.00000000
vn 1.4456029e-17 2.0114280e-16 -1.00000000
vn 1.00000000 1.4285958e-16 -6.0932481e-17
vn 7.2280145e-17 -0.50000000 -0.86602540
vn 7.2280145e-17 -0.50000000 -0.86602540
vn 1.00000000 1.4285958e-16 -6.0932481e-17
vn 2.8912058e-17 -0.86602540 -0.50000000
vn 2.8912058e-17 -0.86602540 -0.50000000
vn 1.00000000 1.4285958e-16 -6.0932481e-17
vn -5.5990155e-17 -0.99144486 -0.13052619
vn -5.5990155e-17 -0.99144486 -0.13052619
vn 1.00000000 1.4285958e-16 -6.0932481e-17
vn 5.5990155e-17 0.99144486 -0.13052619
vn 5.5990155e-17 0.99144486 -0.13052619
vn 1.00000000 1.4285958e-16 -6.0932481e-17
vn -2.8912058e-17 0.86602540 -0.50000000
vn -2.8912058e-17 0.86602540 -0.50000000
vn 0.0000000e+0 0.0000000e+0 0.0000000e+0
vn 1.00000000 1.4285958e-16 -6.0932481e-17
vn -1.1093356e-31 1.00000000 1.1102230e-16
vn -1.1093356e-31 1.00000000 1.1102230e-16
vn 0.0000000e+0 0.0000000e+0 0.0000000e+0
vn 0.0000000e+0 0.0000000e+0 -1.00000000
vn 0.0000000e+0 0.0000000e+0 0.0000000e+0
vn 0.0000000e+0 0.0000000e+0 0.0000000e+0
vn 1.00000000 1.4285958e-16 -6.0932481e-17
vn 1.3558547e-31 -1.00000000 -1.1102230e-16
vn 1.3558547e-31 -1.00000000 -1.1102230e-16
vn 0.0000000e+0 0.0000000e+0 -1.00000000
g mesh1_mesh1_auv
usemtl mesh1_auv
s 1
f 1/82/19 7/80/39 6/76/36 5/72/32 4/71/28 3/75/25 2/79/22
f 5/72/33 9/42/46 8/41/42 4/71/29
f 18/1/82 38/23/146 37/24/140 17/2/76
f 22/77/86 23/74/89 24/69/92 25/70/96 26/73/100 27/78/103 21/81/83
f 24/69/93 28/39/106 29/40/110 25/70/97
f 39/90/3 47/100/11 54/101/18 46/91/10
f 40/89/4 48/99/12 47/100/11 39/90/3
f 41/88/5 49/98/13 48/99/12 40/89/4
f 42/84/6 50/95/14 49/97/13 41/85/5
f 43/83/7 51/94/15 50/95/14 42/84/6
f 44/87/8 52/93/16 51/94/15 43/83/7
f 45/86/9 53/96/17 52/93/16 44/87/8
f 46/91/10 54/101/18 53/102/17 45/92/9
s 2
f 9/42/48 29/3/111 28/4/108 8/41/44
f 11/68/53 12/65/56 13/54/59 14/38/62 18/25/77 17/26/71 15/37/65 16/53/68 10/66/50
f 30/64/114 36/51/132 35/36/129 37/24/136 38/23/143 34/35/126 33/52/123 32/63/120 31/67/117
s 3
f 1/60/20 11/62/54 10/48/51 7/49/40
f 2/45/23 12/43/57 11/55/55 1/58/21
f 3/30/26 13/29/60 12/43/58 2/45/24
f 4/16/30 14/18/63 13/29/61 3/30/27
f 5/19/34 15/21/66 17/14/72 9/7/47
f 6/34/37 16/33/69 15/21/67 5/19/35
f 7/49/41 10/48/52 16/33/70 6/34/38
f 8/5/43 18/10/78 14/18/64 4/16/31
f 17/14/75 37/12/139 19/13/1
f 18/10/80 38/9/142 20/11/2
f 19/13/1 37/12/135 17/14/73
f 20/11/2 38/9/141 18/10/79
f 21/56/85 31/57/119 32/46/121 22/44/87
f 22/44/88 32/46/122 33/27/124 23/28/90
f 23/28/91 33/27/125 34/17/127 24/15/94
f 24/15/95 34/17/128 38/9/144 28/6/107
f 25/20/99 35/22/131 36/31/133 26/32/101
f 26/32/102 36/31/134 30/50/116 27/47/105
f 27/47/104 30/50/115 31/59/118 21/61/84
f 29/8/113 9/7/49 17/14/74 37/12/138
f 29/8/112 37/12/137 35/22/130 25/20/98
f 38/9/145 18/10/81 8/5/45 28/6/109
