# Exported from Wings 3D 1.5.4
mtllib eridani_satellite_antenna_srf_1_neck_hinge.mtl
o mesh1
#56 vertices, 32 faces
v -5.9555013e-17 3.7500000e-2 0.0000000e+0
v -5.4962587e-17 -3.7500000e-2 0.0000000e+0
v -2.6516504e-2 2.6516504e-2 -2.6516504e-2
v 2.6516504e-2 2.6516504e-2 -2.6516504e-2
v -3.7500000e-2 2.9420719e-17 -3.7500000e-2
v 3.7500000e-2 3.8605570e-17 -3.7500000e-2
v -2.6516504e-2 -2.6516504e-2 -2.6516504e-2
v 2.6516504e-2 -2.6516504e-2 -2.6516504e-2
v 2.6516504e-2 -2.6516504e-2 -7.5000000e-2
v -2.6516504e-2 -2.6516504e-2 -7.5000000e-2
v 3.7500000e-2 3.7648814e-17 -7.5000000e-2
v -3.7500000e-2 2.8463963e-17 -7.5000000e-2
v 2.6516504e-2 2.6516504e-2 -7.5000000e-2
v -2.6516504e-2 2.6516504e-2 -7.5000000e-2
v -2.3985976e-17 -3.7500000e-2 -7.5000000e-2
v -2.8578401e-17 3.7500000e-2 -7.5000000e-2
v -6.2500000e-2 3.7500000e-2 0.0000000e+0
v -6.2500000e-2 2.6516504e-2 2.6516504e-2
v -6.2500000e-2 4.0327729e-17 3.7500000e-2
v -6.2500000e-2 -2.6516504e-2 2.6516504e-2
v -6.2500000e-2 -3.7500000e-2 4.5924255e-18
v -6.2500000e-2 -2.6516504e-2 -2.6516504e-2
v -6.2500000e-2 3.1142878e-17 -3.7500000e-2
v -6.2500000e-2 2.6516504e-2 -2.6516504e-2
v 6.2500000e-2 3.7500000e-2 0.0000000e+0
v 6.2500000e-2 2.6516504e-2 2.6516504e-2
v 6.2500000e-2 3.5735304e-17 3.7500000e-2
v 6.2500000e-2 -2.6516504e-2 2.6516504e-2
v 6.2500000e-2 -3.7500000e-2 4.5924255e-18
v 6.2500000e-2 -2.6516504e-2 -2.6516504e-2
v 6.2500000e-2 2.6550453e-17 -3.7500000e-2
v 6.2500000e-2 2.6516504e-2 -2.6516504e-2
v -8.8176490e-17 3.7500000e-2 -0.15000000
v -8.3584065e-17 -3.7500000e-2 -0.15000000
v -2.6516504e-2 2.6516504e-2 -0.12348350
v 2.6516504e-2 2.6516504e-2 -0.12348350
v -3.7500000e-2 2.9420719e-17 -0.11250000
v 3.7500000e-2 3.8605570e-17 -0.11250000
v -2.6516504e-2 -2.6516504e-2 -0.12348350
v 2.6516504e-2 -2.6516504e-2 -0.12348350
v -6.2500000e-2 3.7500000e-2 -0.15000000
v -6.2500000e-2 2.6516504e-2 -0.17651650
v -6.2500000e-2 4.0327729e-17 -0.18750000
v -6.2500000e-2 -2.6516504e-2 -0.17651650
v -6.2500000e-2 -3.7500000e-2 -0.15000000
v -6.2500000e-2 -2.6516504e-2 -0.12348350
v -6.2500000e-2 3.1142878e-17 -0.11250000
v -6.2500000e-2 2.6516504e-2 -0.12348350
v 6.2500000e-2 3.7500000e-2 -0.15000000
v 6.2500000e-2 2.6516504e-2 -0.17651650
v 6.2500000e-2 3.5735304e-17 -0.18750000
v 6.2500000e-2 -2.6516504e-2 -0.17651650
v 6.2500000e-2 -3.7500000e-2 -0.15000000
v 6.2500000e-2 -2.6516504e-2 -0.12348350
v 6.2500000e-2 2.6550453e-17 -0.11250000
v 6.2500000e-2 2.6516504e-2 -0.12348350
vt 0.24304762 0.61326334
vt 0.24304762 0.61752257
vt 0.24304762 0.62780525
vt 0.24304762 0.63808793
vt 0.24304762 0.64234715
vt 0.24304762 0.61326334
vt 0.24304762 0.61752257
vt 0.24304762 0.62780525
vt 0.24304762 0.63808793
vt 0.24304762 0.64234715
vt 0.25274222 0.56255410
vt 0.25274222 0.57709601
vt 0.25274222 0.56255410
vt 0.25274222 0.57709601
vt 0.25700144 0.58135523
vt 0.25700144 0.56255410
vt 0.25700144 0.56255410
vt 0.25700144 0.58135523
vt 0.26728412 0.56255410
vt 0.26728412 0.59163791
vt 0.26728412 0.56255410
vt 0.26728412 0.59163791
vt 0.27756680 0.56255410
vt 0.27756680 0.58135523
vt 0.27756680 0.56255410
vt 0.27756680 0.58135523
vt 0.28182602 0.56255410
vt 0.28182602 0.57709601
vt 0.28182602 0.56255410
vt 0.28182602 0.57709601
vt 0.29152063 0.61326334
vt 0.29152063 0.61752257
vt 0.29152063 0.62780525
vt 0.29152063 0.63808793
vt 0.29152063 0.64234715
vt 0.29152063 0.61326334
vt 0.29152063 0.61752257
vt 0.29152063 0.62780525
vt 0.29152063 0.63808793
vt 0.29152063 0.64234715
vn -1.5021209e-16 1.00000000 -1.6555988e-17
vn 6.0084837e-17 -1.00000000 8.2779938e-18
vn -0.70710678 0.70710678 -2.7299237e-16
vn 0.70710678 0.70710678 2.3265983e-16
vn -1.00000000 -2.4033935e-16 -3.6853659e-16
vn 1.00000000 3.0042419e-17 3.4476003e-16
vn -0.70710678 -0.70710678 -2.5282610e-16
vn 0.70710678 -0.70710678 2.6110409e-16
vn 0.70710678 -0.70710678 -1.2641305e-16
vn -0.70710678 -0.70710678 1.1632991e-16
vn 1.00000000 3.0042419e-17 -1.8426829e-16
vn -1.00000000 -2.1029693e-16 1.6643588e-16
vn 0.70710678 0.70710678 -1.3235719e-16
vn -0.70710678 0.70710678 1.2046891e-16
vn 4.5063628e-17 -1.00000000 -4.1389969e-18
vn -1.5021209e-16 1.00000000 2.6683028e-32
vn 3.6799042e-17 1.00000000 -3.0042419e-17
vn 3.6799042e-17 0.70710678 0.70710678
vn 4.0887824e-18 3.0042419e-17 1.00000000
vn -2.4532695e-17 -0.70710678 0.70710678
vn -3.2710260e-17 -1.00000000 1.5021209e-16
vn -3.2710260e-17 -0.70710678 -0.70710678
vn -4.0887824e-18 -2.1029693e-16 -1.00000000
vn 2.4532695e-17 0.70710678 -0.70710678
vn 3.6799042e-17 1.00000000 -3.0042419e-17
vn 3.6799042e-17 0.70710678 0.70710678
vn 4.0887824e-18 3.0042419e-17 1.00000000
vn -2.4532695e-17 -0.70710678 0.70710678
vn -3.2710260e-17 -1.00000000 1.5021209e-16
vn -3.2710260e-17 -0.70710678 -0.70710678
vn -4.0887824e-18 -2.1029693e-16 -1.00000000
vn 2.4532695e-17 0.70710678 -0.70710678
vn -1.5021209e-16 1.00000000 1.6555988e-17
vn 3.0042419e-17 -1.00000000 -1.6555988e-17
vn -0.70710678 0.70710678 5.1393019e-16
vn 0.70710678 0.70710678 -4.9737420e-16
vn -1.00000000 -1.8025451e-16 7.0140834e-16
vn 1.00000000 3.0042419e-17 -7.1329662e-16
vn -0.70710678 -0.70710678 4.8548593e-16
vn 0.70710678 -0.70710678 -5.1393019e-16
vn 3.2710260e-17 1.00000000 1.5021209e-16
vn -2.7803721e-16 0.70710678 -0.70710678
vn -4.3749972e-16 -3.0042419e-17 -1.00000000
vn -3.3936894e-16 -0.70710678 -0.70710678
vn -4.9065389e-17 -1.00000000 -1.2016967e-16
vn 2.1261669e-16 -0.70710678 0.70710678
vn 3.5572407e-16 -1.8025451e-16 1.00000000
vn 3.0665868e-16 0.70710678 0.70710678
vn 3.2710260e-17 1.00000000 1.5021209e-16
vn -2.7803721e-16 0.70710678 -0.70710678
vn -4.3749972e-16 -3.0042419e-17 -1.00000000
vn -3.3936894e-16 -0.70710678 -0.70710678
vn -4.9065389e-17 -1.00000000 -1.2016967e-16
vn 2.1261669e-16 -0.70710678 0.70710678
vn 3.5572407e-16 -1.8025451e-16 1.00000000
vn 3.0665868e-16 0.70710678 0.70710678
g mesh1_mesh1_auv
usemtl mesh1_auv
s 1
f 1/22/1 4/26/4 13/25/13 16/21/16
f 2/20/2 7/15/7 10/16/10 15/19/15
f 4/26/4 6/30/6 11/29/11 13/25/13
f 6/28/6 8/24/8 9/23/9 11/27/11
f 9/23/9 40/24/40 38/28/38 11/27/11
f 10/16/10 39/15/39 34/20/34 15/19/15
f 11/29/11 38/30/38 36/26/36 13/25/13
f 12/11/12 10/16/10 7/15/7 5/12/5
f 12/11/12 37/12/37 39/15/39 10/16/10
f 13/25/13 36/26/36 33/22/33 16/21/16
f 14/17/14 12/13/12 5/14/5 3/18/3
f 14/17/14 35/18/35 37/14/37 12/13/12
f 15/19/15 9/23/9 8/24/8 2/20/2
f 15/19/15 34/20/34 40/24/40 9/23/9
f 16/21/16 14/17/14 3/18/3 1/22/1
f 16/21/16 33/22/33 35/18/35 14/17/14
f 17/33/17 25/3/25 32/2/32 24/32/24
f 18/34/18 26/4/26 25/3/25 17/33/17
f 19/35/19 27/5/27 26/4/26 18/34/18
f 20/39/20 28/9/28 27/10/27 19/40/19
f 21/38/21 29/8/29 28/9/28 20/39/20
f 22/37/22 30/7/30 29/8/29 21/38/21
f 23/36/23 31/6/31 30/7/30 22/37/22
f 24/32/24 32/2/32 31/1/31 23/31/23
f 41/33/41 49/3/49 50/4/50 42/34/42
f 42/34/42 50/4/50 51/5/51 43/35/43
f 43/40/43 51/10/51 52/9/52 44/39/44
f 44/39/44 52/9/52 53/8/53 45/38/45
f 45/38/45 53/8/53 54/7/54 46/37/46
f 46/37/46 54/7/54 55/6/55 47/36/47
f 47/31/47 55/1/55 56/2/56 48/32/48
f 48/32/48 56/2/56 49/3/49 41/33/41
