# Exported from Wings 3D 1.5.4
mtllib eridani_satellite_antenna_srf_1_arm.mtl
o mesh1
#26 vertices, 36 faces
v 7.5000000e-2 1.0103836e-17 0.0000000e+0
v 6.4951905e-2 -3.7500000e-2 0.0000000e+0
v 3.7500000e-2 -6.4951905e-2 0.0000000e+0
v 2.2794609e-18 -7.5000000e-2 0.0000000e+0
v -3.7500000e-2 -6.4951905e-2 0.0000000e+0
v -6.4951905e-2 -3.7500000e-2 0.0000000e+0
v -7.5000000e-2 9.1898525e-19 0.0000000e+0
v -6.4951905e-2 3.7500000e-2 0.0000000e+0
v -3.7500000e-2 6.4951905e-2 0.0000000e+0
v -1.6090241e-17 7.5000000e-2 -5.5511151e-17
v 3.7500000e-2 6.4951905e-2 0.0000000e+0
v 6.4951905e-2 3.7500000e-2 0.0000000e+0
v 7.5000000e-2 9.1898525e-19 -1.00000000
v 6.4951905e-2 -3.7500000e-2 -1.00000000
v 3.7500000e-2 -6.4951905e-2 -1.00000000
v 2.2794609e-18 -7.5000000e-2 -1.00000000
v -3.7500000e-2 -6.4951905e-2 -1.00000000
v -6.4951905e-2 -3.7500000e-2 -1.00000000
v -7.5000000e-2 -8.2658657e-18 -1.00000000
v -6.4951905e-2 3.7500000e-2 -1.00000000
v -3.7500000e-2 6.4951905e-2 -1.00000000
v -1.6090241e-17 7.5000000e-2 -1.00000000
v 3.7500000e-2 6.4951905e-2 -1.00000000
v 6.4951905e-2 3.7500000e-2 -1.00000000
v 0.0000000e+0 7.1619847e-18 0.0000000e+0
v -5.7824116e-19 -9.8300997e-18 -1.00000000
vt 0.33281759 0.56288982
vt 0.33281759 0.62355053
vt 0.33281759 0.63871571
vt 0.33281759 0.54772464
vt 0.33281759 0.57805500
vt 0.33281759 0.59322018
vt 0.33281759 0.60838535
vt 0.33281759 0.54772464
vt 0.33281759 0.56288982
vt 0.33281759 0.57805500
vt 0.33281759 0.59322018
vt 0.33281759 0.60838535
vt 0.33281759 0.62355053
vt 0.33281759 0.63871571
vt 0.72344259 0.54772464
vt 0.72344259 0.54772464
vt 0.72344259 0.56288982
vt 0.72344259 0.57805500
vt 0.72344259 0.57805500
vt 0.72344259 0.59322018
vt 0.72344259 0.59322018
vt 0.72344259 0.60838535
vt 0.72344259 0.60838535
vt 0.72344259 0.62355053
vt 0.72344259 0.62355053
vt 0.72344259 0.63871571
vt 0.72344259 0.63871571
vt 0.72344259 0.56288982
vt 0.76382895 0.59360574
vt 0.76382895 0.59360574
vt 0.76775398 0.57895730
vt 0.76775398 0.57895730
vt 0.76775398 0.60825418
vt 0.76775398 0.60825418
vt 0.77847738 0.56823390
vt 0.77847738 0.56823390
vt 0.77847738 0.61897758
vt 0.77847738 0.61897758
vt 0.79312582 0.56430887
vt 0.79312582 0.59360574
vt 0.79312582 0.62290262
vt 0.79312582 0.62290262
vt 0.80777426 0.56823390
vt 0.80777426 0.61897758
vt 0.80777426 0.61897758
vt 0.81849766 0.57895730
vt 0.81849766 0.60825418
vt 0.82242270 0.59360574
vn -2.9582284e-31 1.2335811e-16 1.00000000
vn 3.2869204e-31 0.0000000e+0 -1.00000000
vn 1.00000000 2.2987749e-16 -7.2280145e-19
vn 1.00000000 2.2987749e-16 -7.2280145e-19
vn 0.0000000e+0 0.0000000e+0 1.00000000
vn 0.0000000e+0 0.0000000e+0 1.00000000
vn 0.86602540 -0.50000000 7.2280145e-18
vn 0.86602540 -0.50000000 7.2280145e-18
vn 0.0000000e+0 0.0000000e+0 1.00000000
vn 0.0000000e+0 0.0000000e+0 1.00000000
vn 0.50000000 -0.86602540 1.6624433e-17
vn 0.50000000 -0.86602540 1.6624433e-17
vn 0.0000000e+0 0.0000000e+0 1.00000000
vn 0.0000000e+0 0.0000000e+0 1.00000000
vn 2.8734686e-17 -1.00000000 1.6985834e-17
vn 2.8734686e-17 -1.00000000 1.6985834e-17
vn 0.0000000e+0 0.0000000e+0 1.00000000
vn 0.0000000e+0 0.0000000e+0 1.00000000
vn -0.50000000 -0.86602540 1.3371827e-17
vn -0.50000000 -0.86602540 1.3371827e-17
vn 0.0000000e+0 0.0000000e+0 1.00000000
vn 0.0000000e+0 0.0000000e+0 1.00000000
vn -0.86602540 -0.50000000 8.6736174e-18
vn -0.86602540 -0.50000000 8.6736174e-18
vn 0.0000000e+0 0.0000000e+0 1.00000000
vn 0.0000000e+0 0.0000000e+0 1.00000000
vn -1.00000000 -2.0114280e-16 7.2280145e-19
vn -1.00000000 -2.0114280e-16 7.2280145e-19
vn 0.0000000e+0 0.0000000e+0 1.00000000
vn 0.0000000e+0 0.0000000e+0 1.00000000
vn -0.86602540 0.50000000 -6.5052130e-18
vn -0.86602540 0.50000000 -6.5052130e-18
vn 0.0000000e+0 0.0000000e+0 1.00000000
vn 0.0000000e+0 0.0000000e+0 1.00000000
vn -0.50000000 0.86602540 -1.2287625e-17
vn -0.50000000 0.86602540 -1.2287625e-17
vn 6.4098756e-16 3.7007434e-16 1.00000000
vn 6.4098756e-16 3.7007434e-16 1.00000000
vn -4.8848967e-16 1.00000000 -1.4456029e-17
vn -4.8848967e-16 1.00000000 -1.4456029e-17
vn -1.7749370e-30 7.4014868e-16 1.00000000
vn -1.7749370e-30 7.4014868e-16 1.00000000
vn 0.50000000 0.86602540 -1.2287625e-17
vn 0.50000000 0.86602540 -1.2287625e-17
vn -6.4098756e-16 3.7007434e-16 1.00000000
vn -6.4098756e-16 3.7007434e-16 1.00000000
vn 0.86602540 0.50000000 -6.5052130e-18
vn 0.86602540 0.50000000 -6.5052130e-18
vn 0.0000000e+0 0.0000000e+0 1.00000000
vn 0.0000000e+0 0.0000000e+0 1.00000000
vn 1.00000000 2.2987749e-16 -7.2280145e-19
vn 1.00000000 2.2987749e-16 -7.2280145e-19
vn 2.3665827e-30 0.0000000e+0 -1.00000000
vn 2.3665827e-30 0.0000000e+0 -1.00000000
vn 0.86602540 -0.50000000 7.2280145e-18
vn 0.86602540 -0.50000000 7.2280145e-18
vn 1.5777218e-30 0.0000000e+0 -1.00000000
vn 1.5777218e-30 0.0000000e+0 -1.00000000
vn 0.50000000 -0.86602540 1.6624433e-17
vn 0.50000000 -0.86602540 1.6624433e-17
vn -2.4671623e-15 0.0000000e+0 -1.00000000
vn -2.4671623e-15 0.0000000e+0 -1.00000000
vn 2.8734686e-17 -1.00000000 1.6985834e-17
vn 2.8734686e-17 -1.00000000 1.6985834e-17
vn 0.0000000e+0 0.0000000e+0 -1.00000000
vn 0.0000000e+0 0.0000000e+0 -1.00000000
vn -0.50000000 -0.86602540 1.3371827e-17
vn -0.50000000 -0.86602540 1.3371827e-17
vn 2.4671623e-15 0.0000000e+0 -1.00000000
vn 2.4671623e-15 0.0000000e+0 -1.00000000
vn -0.86602540 -0.50000000 8.6736174e-18
vn -0.86602540 -0.50000000 8.6736174e-18
vn 2.4671623e-15 0.0000000e+0 -1.00000000
vn 2.4671623e-15 0.0000000e+0 -1.00000000
vn -1.00000000 -2.0114280e-16 7.2280145e-19
vn -1.00000000 -2.0114280e-16 7.2280145e-19
vn 0.0000000e+0 0.0000000e+0 -1.00000000
vn 0.0000000e+0 0.0000000e+0 -1.00000000
vn -0.86602540 0.50000000 -6.5052130e-18
vn -0.86602540 0.50000000 -6.5052130e-18
vn -2.4671623e-15 0.0000000e+0 -1.00000000
vn -2.4671623e-15 0.0000000e+0 -1.00000000
vn -0.50000000 0.86602540 -1.2287625e-17
vn -0.50000000 0.86602540 -1.2287625e-17
vn -2.4671623e-15 0.0000000e+0 -1.00000000
vn -2.4671623e-15 0.0000000e+0 -1.00000000
vn -4.8848967e-16 1.00000000 -1.4456029e-17
vn -4.8848967e-16 1.00000000 -1.4456029e-17
vn 0.0000000e+0 0.0000000e+0 -1.00000000
vn 0.0000000e+0 0.0000000e+0 -1.00000000
vn 0.50000000 0.86602540 -1.2287625e-17
vn 0.50000000 0.86602540 -1.2287625e-17
vn 2.4671623e-15 0.0000000e+0 -1.00000000
vn 2.4671623e-15 0.0000000e+0 -1.00000000
vn 0.86602540 0.50000000 -6.5052130e-18
vn 0.86602540 0.50000000 -6.5052130e-18
vn 1.1832914e-30 0.0000000e+0 -1.00000000
vn 1.1832914e-30 0.0000000e+0 -1.00000000
g mesh1_mesh1_auv
usemtl mesh1_auv
s 1
f 1/6/3 13/20/51 24/22/95 12/12/47
f 2/5/8 14/18/56 13/20/52 1/6/4
f 3/1/12 15/28/60 14/18/55 2/5/7
f 4/4/16 16/15/64 15/28/59 3/1/11
f 5/17/20 17/9/68 16/8/63 4/16/15
f 6/19/24 18/10/72 17/9/67 5/17/19
f 7/21/28 19/11/76 18/10/71 6/19/23
f 8/23/32 20/7/80 19/11/75 7/21/27
f 9/25/36 21/2/84 20/7/79 8/23/31
f 10/27/40 22/3/88 21/2/83 9/25/35
f 11/13/44 23/24/92 22/26/87 10/14/39
f 12/12/48 24/22/96 23/24/91 11/13/43
s 2
f 1/48/5 25/40/1 2/46/9
f 2/46/10 25/40/1 3/43/14
f 3/43/13 25/40/1 4/39/18
f 4/39/17 25/40/1 5/35/22
f 5/35/21 25/40/1 6/31/26
f 6/31/25 25/40/1 7/29/30
f 7/29/29 25/40/1 8/33/34
f 8/33/33 25/40/1 9/37/38
f 9/37/37 25/40/1 10/41/42
f 10/41/41 25/40/1 11/44/46
f 11/44/45 25/40/1 12/47/50
f 12/47/49 25/40/1 1/48/6
f 13/30/54 26/40/2 24/34/98
f 14/32/57 26/40/2 13/30/53
f 15/36/61 26/40/2 14/32/58
f 16/39/65 26/40/2 15/36/62
f 17/43/69 26/40/2 16/39/66
f 18/46/73 26/40/2 17/43/70
f 19/48/77 26/40/2 18/46/74
f 20/47/81 26/40/2 19/48/78
f 21/45/85 26/40/2 20/47/82
f 22/42/89 26/40/2 21/45/86
f 23/38/93 26/40/2 22/42/90
f 24/34/97 26/40/2 23/38/94
