# Exported from Wings 3D 1.5.4
mtllib eridani_low_gain_antenna_srf_2.mtl
o mesh1
#30 vertices, 20 faces
v 1.2500000e-2 2.4831674e-17 -5.6250000e-2
v 8.8388348e-3 -8.8388348e-3 -5.6250000e-2
v -5.8717891e-17 -1.2500000e-2 -5.6250000e-2
v -8.8388348e-3 -8.8388348e-3 -5.6250000e-2
v -1.2500000e-2 2.4831674e-17 -5.6250000e-2
v -8.8388348e-3 8.8388348e-3 -5.6250000e-2
v -6.1988420e-17 1.2500000e-2 -5.6250000e-2
v 8.8388348e-3 8.8388348e-3 -5.6250000e-2
v 1.2500000e-2 -2.6180842e-16 -0.43125000
v 8.8388348e-3 -8.8388348e-3 -0.43125000
v -1.1641176e-16 -1.2500000e-2 -0.43125000
v -8.8388348e-3 -8.8388348e-3 -0.43125000
v -1.2500000e-2 -2.6180842e-16 -0.43125000
v -8.8388348e-3 8.8388348e-3 -0.43125000
v -1.1968229e-16 1.2500000e-2 -0.43125000
v 8.8388348e-3 8.8388348e-3 -0.43125000
v -1.8750000e-2 3.6362993e-17 1.8750000e-2
v -1.8750000e-2 -1.3258252e-2 1.3258252e-2
v -1.8750000e-2 -1.8750000e-2 3.4443191e-18
v -1.8750000e-2 1.8750000e-2 -3.4443191e-18
v -1.8750000e-2 1.3258252e-2 1.3258252e-2
v 1.8750000e-2 3.6362993e-17 1.8750000e-2
v 1.8750000e-2 -1.3258252e-2 1.3258252e-2
v 1.8750000e-2 -1.8750000e-2 1.1481064e-18
v 1.8750000e-2 1.8750000e-2 -5.7405319e-18
v 1.8750000e-2 1.3258252e-2 1.3258252e-2
v 1.8750000e-2 -1.8750000e-2 -5.6250000e-2
v -1.8750000e-2 -1.8750000e-2 -5.6250000e-2
v -1.8750000e-2 1.8750000e-2 -5.6250000e-2
v 1.8750000e-2 1.8750000e-2 -5.6250000e-2
vt 4.0608413e-2 0.13027481
vt 4.2750195e-2 0.12510410
vt 4.2750195e-2 0.13544553
vt 4.7920913e-2 0.12296231
vt 4.7920913e-2 0.13758731
vt 6.9858413e-2 0.12296231
vt 6.9858413e-2 0.13758731
vt 8.4483413e-2 0.12296231
vt 8.4483413e-2 0.13758731
vt 0.10642091 0.12296231
vt 0.10642091 0.13758731
vt 0.11159163 0.12510410
vt 0.11159163 0.13544553
vt 0.11373341 0.13027481
vt 0.15541629 0.12277496
vt 0.15541629 0.12277496
vt 0.15541629 0.13739996
vt 0.15541629 0.13739996
vt 0.17735379 0.12277496
vt 0.17735379 0.12277496
vt 0.17735379 0.13739996
vt 0.17735379 0.13739996
vt 0.18295053 0.12277496
vt 0.18295053 0.12277496
vt 0.18295053 0.13739996
vt 0.18295053 0.13739996
vt 0.18854728 0.12277496
vt 0.18854728 0.12277496
vt 0.18854728 0.13739996
vt 0.18854728 0.13739996
vt 0.24509895 0.33743039
vt 0.24509895 0.48459054
vt 0.24509895 0.33743039
vt 0.24885333 0.33743039
vt 0.24885333 0.48459054
vt 0.24885333 0.33743039
vt 0.24898433 0.31352235
vt 0.25042107 0.31005375
vt 0.25042107 0.31699095
vt 0.25260772 0.48459054
vt 0.25260772 0.33743039
vt 0.25260772 0.33743039
vt 0.25260772 0.48459054
vt 0.25388967 0.30861701
vt 0.25388967 0.31842769
vt 0.25636210 0.33743039
vt 0.25636210 0.48459054
vt 0.25636210 0.48459054
vt 0.25735826 0.31005375
vt 0.25735826 0.31699095
vt 0.25879500 0.31352235
vt 0.26011649 0.48459054
vt 0.26011649 0.33743039
vn 1.00000000 -3.0042419e-17 -1.6304020e-16
vn 0.70710678 -0.70710678 3.8587884e-16
vn 0.0000000e+0 -1.00000000 6.9407082e-16
vn -0.70710678 -0.70710678 6.0513980e-16
vn -1.00000000 -3.6050902e-16 1.4412958e-16
vn -0.70710678 0.70710678 -4.2216679e-16
vn 0.0000000e+0 1.00000000 -7.4415840e-16
vn 0.70710678 0.70710678 -6.3785006e-16
vn 9.8130779e-16 0.0000000e+0 -1.00000000
vn 1.00000000 -3.0042419e-17 -1.6304020e-16
vn 1.00000000 -3.0042419e-17 -1.6304020e-16
vn 9.8130779e-16 0.0000000e+0 -1.00000000
vn 0.70710678 -0.70710678 3.8587884e-16
vn 0.70710678 -0.70710678 3.8587884e-16
vn 9.8130779e-16 0.0000000e+0 -1.00000000
vn 0.0000000e+0 -1.00000000 6.9407082e-16
vn 0.0000000e+0 -1.00000000 6.9407082e-16
vn 9.8130779e-16 0.0000000e+0 -1.00000000
vn -0.70710678 -0.70710678 6.0513980e-16
vn -0.70710678 -0.70710678 6.0513980e-16
vn 9.8130779e-16 0.0000000e+0 -1.00000000
vn -1.00000000 -3.6050902e-16 1.4412958e-16
vn -1.00000000 -3.6050902e-16 1.4412958e-16
vn 9.8130779e-16 0.0000000e+0 -1.00000000
vn -0.70710678 0.70710678 -4.2216679e-16
vn -0.70710678 0.70710678 -4.2216679e-16
vn 9.8130779e-16 0.0000000e+0 -1.00000000
vn 0.0000000e+0 1.00000000 -7.4415840e-16
vn 0.0000000e+0 1.00000000 -7.4415840e-16
vn 9.8130779e-16 0.0000000e+0 -1.00000000
vn 0.70710678 0.70710678 -6.3785006e-16
vn 0.70710678 0.70710678 -6.3785006e-16
vn -1.00000000 -5.4517099e-17 0.0000000e+0
vn 5.4517099e-17 1.2016967e-16 1.00000000
vn 5.4517099e-17 1.2016967e-16 1.00000000
vn -1.00000000 -5.4517099e-17 0.0000000e+0
vn 5.4517099e-17 -0.70710678 0.70710678
vn 5.4517099e-17 -0.70710678 0.70710678
vn -1.00000000 -2.7258550e-17 3.0839528e-17
vn 1.9257744e-17 -0.98078528 0.19509032
vn 1.9257744e-17 -0.98078528 0.19509032
vn -1.00000000 -2.7258550e-17 3.0839528e-17
vn -1.00000000 -2.7258550e-17 3.0839528e-17
vn 1.2838496e-17 0.98078528 0.19509032
vn -1.00000000 -2.7258550e-17 3.0839528e-17
vn 1.2838496e-17 0.98078528 0.19509032
vn -1.00000000 -5.4517099e-17 0.0000000e+0
vn 3.4073187e-17 0.70710678 0.70710678
vn 3.4073187e-17 0.70710678 0.70710678
vn 1.00000000 -2.7258550e-17 0.0000000e+0
vn 5.4517099e-17 1.2016967e-16 1.00000000
vn 5.4517099e-17 1.2016967e-16 1.00000000
vn 1.00000000 -2.7258550e-17 0.0000000e+0
vn 5.4517099e-17 -0.70710678 0.70710678
vn 5.4517099e-17 -0.70710678 0.70710678
vn 1.00000000 -1.3629275e-17 -3.0839528e-17
vn 1.9257744e-17 -0.98078528 0.19509032
vn 1.9257744e-17 -0.98078528 0.19509032
vn 1.00000000 -1.3629275e-17 -3.0839528e-17
vn 1.00000000 -1.3629275e-17 -3.0839528e-17
vn 1.2838496e-17 0.98078528 0.19509032
vn 1.2838496e-17 0.98078528 0.19509032
vn 1.00000000 -1.3629275e-17 -3.0839528e-17
vn 1.00000000 -2.7258550e-17 0.0000000e+0
vn 3.4073187e-17 0.70710678 0.70710678
vn 3.4073187e-17 0.70710678 0.70710678
vn -9.2518585e-17 -9.2518585e-17 -1.00000000
vn 0.0000000e+0 -1.00000000 1.8503717e-16
vn 1.00000000 -1.1412918e-32 -6.1679057e-17
vn -9.2518585e-17 -9.2518585e-17 -1.00000000
vn 0.0000000e+0 -1.00000000 1.8503717e-16
vn -1.00000000 0.0000000e+0 6.1679057e-17
vn -9.2518585e-17 -9.2518585e-17 -1.00000000
vn -1.00000000 0.0000000e+0 6.1679057e-17
vn -4.5651673e-32 1.00000000 -1.8503717e-16
vn -9.2518585e-17 -9.2518585e-17 -1.00000000
vn -4.5651673e-32 1.00000000 -1.8503717e-16
vn 1.00000000 -1.1412918e-32 -6.1679057e-17
g mesh1_mesh1_auv
usemtl mesh1_auv
s 1
f 10/38/12 11/44/15 12/49/18 13/51/21 14/50/24 15/45/27 16/39/30 9/37/9
f 17/14/33 21/13/47 20/11/43 19/10/39 18/12/36
f 20/11/45 29/9/74 28/8/72 19/10/42
f 23/2/53 24/4/56 25/5/60 26/3/64 22/1/50
f 24/4/59 27/6/69 30/7/78 25/5/63
s 2
f 1/43/1 9/41/10 16/46/31 8/47/8
f 2/35/2 10/36/14 9/41/11 1/43/1
f 3/32/3 11/33/17 10/36/13 2/35/2
f 4/48/4 12/46/20 11/53/16 3/52/3
f 5/40/5 13/42/23 12/46/19 4/48/4
f 6/35/6 14/34/26 13/42/22 5/40/5
f 7/32/7 15/31/29 14/34/25 6/35/6
f 8/47/8 16/46/32 15/53/28 7/52/7
f 28/8/70 29/9/73 30/7/76 27/6/67
s 3
f 17/28/34 22/30/51 26/26/65 21/24/48
f 18/25/38 23/23/55 22/27/52 17/29/35
f 19/21/40 24/19/57 23/23/54 18/25/37
f 19/21/41 28/17/71 27/15/68 24/19/58
f 21/24/49 26/26/66 25/22/61 20/20/44
f 25/22/62 30/18/77 29/16/75 20/20/46
