# Exported from Wings 3D 1.5.4
mtllib eridani_low_gain_antenna_srf_2_base.mtl
o mesh1
#28 vertices, 28 faces
v 1.8750000e-2 2.5000000e-2 -6.2500000e-2
v 1.8750000e-2 -2.5000000e-2 -6.2500000e-2
v 1.8750000e-2 -1.7677670e-2 -8.0177670e-2
v 1.8750000e-2 2.6791293e-17 -8.7500000e-2
v 1.8750000e-2 1.7677670e-2 -8.0177670e-2
v 3.1250000e-2 2.5000000e-2 -6.2500000e-2
v 3.1250000e-2 -2.5000000e-2 -6.2500000e-2
v 3.1250000e-2 -1.7677670e-2 -8.0177670e-2
v 3.1250000e-2 2.3440013e-17 -8.7500000e-2
v 3.1250000e-2 1.7677670e-2 -8.0177670e-2
v 1.8750000e-2 2.5000000e-2 -3.7500000e-2
v 1.8750000e-2 -2.5000000e-2 -3.7500000e-2
v 3.1250000e-2 2.5000000e-2 2.5000000e-2
v 3.1250000e-2 -2.5000000e-2 2.5000000e-2
v -1.8750000e-2 2.5000000e-2 -6.2500000e-2
v -1.8750000e-2 -2.5000000e-2 -6.2500000e-2
v -1.8750000e-2 -1.7677670e-2 -8.0177670e-2
v -1.8750000e-2 2.6791293e-17 -8.7500000e-2
v -1.8750000e-2 1.7677670e-2 -8.0177670e-2
v -3.1250000e-2 2.5000000e-2 -6.2500000e-2
v -3.1250000e-2 -2.5000000e-2 -6.2500000e-2
v -3.1250000e-2 -1.7677670e-2 -8.0177670e-2
v -3.1250000e-2 2.3440013e-17 -8.7500000e-2
v -3.1250000e-2 1.7677670e-2 -8.0177670e-2
v -1.8750000e-2 2.5000000e-2 -3.7500000e-2
v -1.8750000e-2 -2.5000000e-2 -3.7500000e-2
v -3.1250000e-2 2.5000000e-2 2.5000000e-2
v -3.1250000e-2 -2.5000000e-2 2.5000000e-2
vt 4.0807653e-2 7.5079583e-2
vt 4.3630133e-2 6.8265514e-2
vt 4.3630133e-2 8.1893652e-2
vt 5.0444202e-2 6.5443034e-2
vt 5.0444202e-2 8.4716132e-2
vt 8.4172123e-2 6.5443034e-2
vt 8.4172123e-2 8.4716132e-2
vt 0.10826350 6.5443034e-2
vt 0.10826350 8.4716132e-2
vt 0.14199142 6.5443034e-2
vt 0.14199142 8.4716132e-2
vt 0.14880549 6.8265514e-2
vt 0.14880549 8.1893652e-2
vt 0.15162797 7.5079583e-2
vt 0.24298601 0.26594016
vt 0.24298601 0.23221224
vt 0.24298601 0.26594016
vt 0.24298601 0.23221224
vt 0.24298601 0.22483675
vt 0.24298601 0.22483675
vt 0.24298601 0.21746125
vt 0.24298601 0.21746125
vt 0.24572044 0.13331702
vt 0.24572044 0.14295357
vt 0.24572044 0.15740839
vt 0.24572044 0.16704494
vt 0.24780429 0.22483675
vt 0.24780429 0.22483675
vt 0.24780429 0.23221224
vt 0.24780429 0.24184879
vt 0.24780429 0.21746125
vt 0.24780429 0.21746125
vt 0.24780429 0.23221224
vt 0.24780429 0.24184879
vt 0.24854292 0.17385901
vt 0.24854292 0.12650295
vt 0.25535699 0.12368047
vt 0.25535699 0.17668149
vt 0.26217106 0.17385901
vt 0.26217106 0.12650295
vt 0.26225911 0.24184879
vt 0.26225911 0.23221224
vt 0.26225911 0.22483675
vt 0.26225911 0.24184879
vt 0.26225911 0.21746125
vt 0.26225911 0.23221224
vt 0.26225911 0.22483675
vt 0.26225911 0.21746125
vt 0.26499354 0.14295357
vt 0.26499354 0.15740839
vt 0.26499354 0.16704494
vt 0.26499354 0.13331702
vt 0.26707738 0.23221224
vt 0.26707738 0.22483675
vt 0.26707738 0.21746125
vt 0.26707738 0.26594016
vt 0.26707738 0.23221224
vt 0.26707738 0.22483675
vt 0.26707738 0.21746125
vt 0.26707738 0.26594016
vn -1.00000000 6.5360338e-17 -4.1879929e-17
vn 1.1554647e-16 0.98078528 -0.19509032
vn 1.1554647e-16 0.98078528 -0.19509032
vn -1.00000000 6.5360338e-17 -4.1879929e-17
vn -1.00000000 6.5360338e-17 -4.1879929e-17
vn -2.5704316e-16 -0.98078528 -0.19509032
vn -1.00000000 6.5360338e-17 -4.1879929e-17
vn -2.5704316e-16 -0.98078528 -0.19509032
vn -1.00000000 6.1331737e-17 -8.3759859e-17
vn -1.8399521e-16 -0.70710678 -0.70710678
vn -1.8399521e-16 -0.70710678 -0.70710678
vn -1.00000000 6.1331737e-17 -8.3759859e-17
vn 3.0665868e-17 -3.9055144e-16 -1.00000000
vn 3.0665868e-17 -3.9055144e-16 -1.00000000
vn -1.00000000 6.1331737e-17 -8.3759859e-17
vn 2.1466108e-16 0.70710678 -0.70710678
vn 2.1466108e-16 0.70710678 -0.70710678
vn 1.00000000 0.0000000e+0 -3.5685740e-16
vn 6.3415858e-17 0.99154343 -0.12977527
vn 6.3415858e-17 0.99154343 -0.12977527
vn 1.00000000 0.0000000e+0 -3.5685740e-16
vn 6.3415858e-17 0.99154343 -0.12977527
vn 1.00000000 0.0000000e+0 -3.5685740e-16
vn -2.5166478e-16 -0.99154343 -0.12977527
vn -2.5166478e-16 -0.99154343 -0.12977527
vn 1.00000000 0.0000000e+0 -3.5685740e-16
vn -2.5166478e-16 -0.99154343 -0.12977527
vn 1.00000000 0.0000000e+0 0.0000000e+0
vn -1.8399521e-16 -0.70710678 -0.70710678
vn -1.8399521e-16 -0.70710678 -0.70710678
vn 1.00000000 0.0000000e+0 0.0000000e+0
vn 3.0665868e-17 -3.9055144e-16 -1.00000000
vn 3.0665868e-17 -3.9055144e-16 -1.00000000
vn 1.00000000 0.0000000e+0 0.0000000e+0
vn 2.1466108e-16 0.70710678 -0.70710678
vn 2.1466108e-16 0.70710678 -0.70710678
vn -1.3216941e-17 1.00000000 -8.8553503e-17
vn -1.00000000 6.9388939e-17 -9.6296497e-33
vn 0.0000000e+0 -1.3877788e-16 -1.00000000
vn -1.3216941e-17 1.00000000 -8.8553503e-17
vn -1.3216941e-17 1.00000000 -8.8553503e-17
vn -1.00000000 6.9388939e-17 -9.6296497e-33
vn -1.7182023e-16 -1.00000000 2.1874037e-16
vn 0.0000000e+0 -1.3877788e-16 -1.00000000
vn -1.7182023e-16 -1.00000000 2.1874037e-16
vn -1.7182023e-16 -1.00000000 2.1874037e-16
vn 1.00000000 0.0000000e+0 -7.1371480e-16
vn 0.0000000e+0 1.3877788e-16 1.00000000
vn -1.9825411e-17 1.00000000 -1.3283025e-16
vn -1.9825411e-17 1.00000000 -1.3283025e-16
vn 1.00000000 0.0000000e+0 -7.1371480e-16
vn 0.0000000e+0 1.3877788e-16 1.00000000
vn -1.1895247e-16 -1.00000000 1.5463821e-16
vn -1.1895247e-16 -1.00000000 1.5463821e-16
vn 1.00000000 6.5360338e-17 -4.1879929e-17
vn -1.1554647e-16 0.98078528 -0.19509032
vn -1.1554647e-16 0.98078528 -0.19509032
vn 1.00000000 6.5360338e-17 -4.1879929e-17
vn 1.00000000 6.5360338e-17 -4.1879929e-17
vn 2.5704316e-16 -0.98078528 -0.19509032
vn 1.00000000 6.5360338e-17 -4.1879929e-17
vn 2.5704316e-16 -0.98078528 -0.19509032
vn 1.00000000 6.1331737e-17 -8.3759859e-17
vn 1.8399521e-16 -0.70710678 -0.70710678
vn 1.8399521e-16 -0.70710678 -0.70710678
vn 1.00000000 6.1331737e-17 -8.3759859e-17
vn -3.0665868e-17 -3.9055144e-16 -1.00000000
vn -3.0665868e-17 -3.9055144e-16 -1.00000000
vn 1.00000000 6.1331737e-17 -8.3759859e-17
vn -2.1466108e-16 0.70710678 -0.70710678
vn -2.1466108e-16 0.70710678 -0.70710678
vn -1.00000000 0.0000000e+0 -3.5685740e-16
vn -6.3415858e-17 0.99154343 -0.12977527
vn -6.3415858e-17 0.99154343 -0.12977527
vn -1.00000000 0.0000000e+0 -3.5685740e-16
vn -6.3415858e-17 0.99154343 -0.12977527
vn -1.00000000 0.0000000e+0 -3.5685740e-16
vn 2.5166478e-16 -0.99154343 -0.12977527
vn 2.5166478e-16 -0.99154343 -0.12977527
vn -1.00000000 0.0000000e+0 -3.5685740e-16
vn 2.5166478e-16 -0.99154343 -0.12977527
vn -1.00000000 0.0000000e+0 0.0000000e+0
vn 1.8399521e-16 -0.70710678 -0.70710678
vn 1.8399521e-16 -0.70710678 -0.70710678
vn -1.00000000 0.0000000e+0 0.0000000e+0
vn -3.0665868e-17 -3.9055144e-16 -1.00000000
vn -3.0665868e-17 -3.9055144e-16 -1.00000000
vn -1.00000000 0.0000000e+0 0.0000000e+0
vn -2.1466108e-16 0.70710678 -0.70710678
vn -2.1466108e-16 0.70710678 -0.70710678
vn 1.3216941e-17 1.00000000 -8.8553503e-17
vn 1.00000000 6.9388939e-17 -9.6296497e-33
vn 0.0000000e+0 -1.3877788e-16 -1.00000000
vn 1.3216941e-17 1.00000000 -8.8553503e-17
vn 1.3216941e-17 1.00000000 -8.8553503e-17
vn 1.00000000 6.9388939e-17 -9.6296497e-33
vn 1.7182023e-16 -1.00000000 2.1874037e-16
vn 0.0000000e+0 -1.3877788e-16 -1.00000000
vn 1.7182023e-16 -1.00000000 2.1874037e-16
vn 1.7182023e-16 -1.00000000 2.1874037e-16
vn -1.00000000 0.0000000e+0 -7.1371480e-16
vn 0.0000000e+0 1.3877788e-16 1.00000000
vn 1.9825411e-17 1.00000000 -1.3283025e-16
vn 1.9825411e-17 1.00000000 -1.3283025e-16
vn -1.00000000 0.0000000e+0 -7.1371480e-16
vn 0.0000000e+0 1.3877788e-16 1.00000000
vn 1.1895247e-16 -1.00000000 1.5463821e-16
vn 1.1895247e-16 -1.00000000 1.5463821e-16
g mesh1_mesh1_auv
usemtl mesh1_auv
s 1
f 2/52/7 12/49/42 11/24/38 1/23/4
f 5/36/15 4/37/12 3/40/9 2/52/5 1/23/1
f 6/11/18 7/10/23 8/12/28 9/14/31 10/13/34
f 6/11/21 13/9/47 14/8/51 7/10/26
f 15/26/55 16/51/59 17/39/63 18/38/66 19/35/69
f 15/26/58 25/25/92 26/50/96 16/51/61
f 21/4/80 28/6/105 27/7/101 20/5/75
f 24/3/88 23/1/85 22/2/82 21/4/77 20/5/72
s 2
f 12/49/44 26/50/98 25/25/93 11/24/39
f 13/9/48 27/7/102 28/6/106 14/8/52
s 3
f 1/29/2 6/16/19 10/19/35 5/27/16
f 1/29/3 11/30/37 6/16/20
f 3/47/11 8/58/30 7/57/24 2/46/6
f 4/48/14 9/59/33 8/58/29 3/47/10
f 5/27/17 10/19/36 9/21/32 4/31/13
f 7/57/25 12/44/43 2/46/8
f 12/44/46 7/57/27 14/60/54
f 12/44/45 14/60/53 28/17/107 26/34/99
f 13/15/50 6/16/22 11/30/41
f 16/33/60 21/18/78 22/20/84 17/28/65
f 16/33/62 26/34/97 21/18/79
f 17/28/64 22/20/83 23/22/87 18/32/68
f 18/45/67 23/55/86 24/54/90 19/43/71
f 19/43/70 24/54/89 20/53/73 15/42/56
f 20/53/74 25/41/91 15/42/57
f 25/41/95 20/53/76 27/56/104
f 25/41/94 27/56/103 13/15/49 11/30/40
f 28/17/108 21/18/81 26/34/100
