# Exported from Wings 3D 1.5.4
mtllib ./food_can_crab.mtl
o food_can_crab_Cylindre
#48 vertices, 38 faces
v 0.0000000e+0 0.0000000e+0 -5.0000000e-2
v 0.0000000e+0 4.0000000e-2 -5.0000000e-2
v 2.5000000e-2 0.0000000e+0 -4.3301000e-2
v 2.5000000e-2 4.0000000e-2 -4.3301000e-2
v 4.3301000e-2 0.0000000e+0 -2.5000000e-2
v 4.3301000e-2 4.0000000e-2 -2.5000000e-2
v 5.0000000e-2 0.0000000e+0 0.0000000e+0
v 5.0000000e-2 4.0000000e-2 0.0000000e+0
v 4.3301000e-2 0.0000000e+0 2.5000000e-2
v 4.3301000e-2 4.0000000e-2 2.5000000e-2
v 2.5000000e-2 0.0000000e+0 4.3301000e-2
v 2.5000000e-2 4.0000000e-2 4.3301000e-2
v 0.0000000e+0 0.0000000e+0 5.0000000e-2
v 0.0000000e+0 4.0000000e-2 5.0000000e-2
v -2.5000000e-2 0.0000000e+0 4.3301000e-2
v -2.5000000e-2 4.0000000e-2 4.3301000e-2
v -4.3301000e-2 0.0000000e+0 2.5000000e-2
v -4.3301000e-2 4.0000000e-2 2.5000000e-2
v -5.0000000e-2 0.0000000e+0 0.0000000e+0
v -5.0000000e-2 4.0000000e-2 0.0000000e+0
v -4.3301000e-2 0.0000000e+0 -2.5000000e-2
v -4.3301000e-2 4.0000000e-2 -2.5000000e-2
v -2.5000000e-2 0.0000000e+0 -4.3301000e-2
v -2.5000000e-2 4.0000000e-2 -4.3301000e-2
v 0.0000000e+0 9.5800000e-4 -4.6704000e-2
v 2.3352000e-2 9.5800000e-4 -4.0447000e-2
v 2.3352000e-2 3.9042000e-2 -4.0447000e-2
v 0.0000000e+0 3.9042000e-2 -4.6704000e-2
v 4.0447000e-2 9.5800000e-4 -2.3352000e-2
v 4.0447000e-2 3.9042000e-2 -2.3352000e-2
v 4.6704000e-2 9.5800000e-4 0.0000000e+0
v 4.6704000e-2 3.9042000e-2 0.0000000e+0
v 4.0447000e-2 9.5800000e-4 2.3352000e-2
v 4.0447000e-2 3.9042000e-2 2.3352000e-2
v 2.3352000e-2 9.5800000e-4 4.0447000e-2
v 2.3352000e-2 3.9042000e-2 4.0447000e-2
v 0.0000000e+0 9.5800000e-4 4.6704000e-2
v 0.0000000e+0 3.9042000e-2 4.6704000e-2
v -2.3352000e-2 9.5800000e-4 4.0447000e-2
v -2.3352000e-2 3.9042000e-2 4.0447000e-2
v -4.0447000e-2 9.5800000e-4 2.3352000e-2
v -4.0447000e-2 3.9042000e-2 2.3352000e-2
v -4.6704000e-2 9.5800000e-4 0.0000000e+0
v -4.6704000e-2 3.9042000e-2 0.0000000e+0
v -4.0447000e-2 9.5800000e-4 -2.3352000e-2
v -4.0447000e-2 3.9042000e-2 -2.3352000e-2
v -2.3352000e-2 9.5800000e-4 -4.0447000e-2
v -2.3352000e-2 3.9042000e-2 -4.0447000e-2
vt 1.4714000e-2 0.19166200
vt 1.4714000e-2 0.31666200
vt 9.5595000e-2 0.19166200
vt 9.5595000e-2 0.31666200
vt 0.13866400 0.69220100
vt 0.13866500 0.77331000
vt 0.14903800 0.69498200
vt 0.14903900 0.77053100
vt 0.17647600 0.19166200
vt 0.17647600 0.31666200
vt 0.17921900 0.62195900
vt 0.17922000 0.84355200
vt 0.18681200 0.62955400
vt 0.18681400 0.83595900
vt 0.24946200 0.58140500
vt 0.24946200 0.88410600
vt 0.25224000 0.59177800
vt 0.25224300 0.87373300
vt 0.25735700 0.19166200
vt 0.25735700 0.31666200
vt 0.32779000 0.59177800
vt 0.32779200 0.87373300
vt 0.33057000 0.58140500
vt 0.33057100 0.88410600
vt 0.33823800 0.19166200
vt 0.33823800 0.31666200
vt 0.39321800 0.62955200
vt 0.39322000 0.83595700
vt 0.40081200 0.62195900
vt 0.40081300 0.84355200
vt 0.41911900 0.19166200
vt 0.41911900 0.31666200
vt 0.43099400 0.69497900
vt 0.43099500 0.77052900
vt 0.44136700 0.69220100
vt 0.44136800 0.77331000
vt 0.50000000 0.19166200
vt 0.50000000 0.31666200
vt 0.57766300 0.69220100
vt 0.57766400 0.77331000
vt 0.58088100 0.19166200
vt 0.58088100 0.31666200
vt 0.58803600 0.69498200
vt 0.58803700 0.77053100
vt 0.61821800 0.62195900
vt 0.61821900 0.84355200
vt 0.62581100 0.62955400
vt 0.62581300 0.83595900
vt 0.66176200 0.19166200
vt 0.66176200 0.31666100
vt 0.68846000 0.58140500
vt 0.68846100 0.88410600
vt 0.69123900 0.59177800
vt 0.69124100 0.87373300
vt 0.74264300 0.19166100
vt 0.74264300 0.31666100
vt 0.76678900 0.59177800
vt 0.76679100 0.87373300
vt 0.76956900 0.58140500
vt 0.76957000 0.88410600
vt 0.82352400 0.19166100
vt 0.82352400 0.31666100
vt 0.83221700 0.62955200
vt 0.83221900 0.83595800
vt 0.83981100 0.62195900
vt 0.83981200 0.84355200
vt 0.86999300 0.69498000
vt 0.86999400 0.77052900
vt 0.88036600 0.69220100
vt 0.88036700 0.77331000
vt 0.90440500 0.19166100
vt 0.90440500 0.31666100
vt 0.98528600 0.19166100
vt 0.98528600 0.31666100
vn 0.0000000e+0 0.0000000e+0 -1.00000000
vn 0.0000000e+0 0.0000000e+0 -1.00000000
vn 0.0000000e+0 -0.96025591 0.27912111
vn 0.0000000e+0 -0.96025591 0.27912111
vn 0.0000000e+0 0.0000000e+0 -1.00000000
vn 0.0000000e+0 0.0000000e+0 -1.00000000
vn 0.0000000e+0 0.96025591 0.27912111
vn 0.0000000e+0 0.96025591 0.27912111
vn 0.50000437 0.0000000e+0 -0.86602288
vn 0.50000437 0.0000000e+0 -0.86602288
vn -0.13956373 -0.96025473 0.24172880
vn -0.13956373 -0.96025473 0.24172880
vn 0.50000437 0.0000000e+0 -0.86602288
vn 0.50000437 0.0000000e+0 -0.86602288
vn -0.13956373 0.96025473 0.24172880
vn -0.13956373 0.96025473 0.24172880
vn 0.86602288 0.0000000e+0 -0.50000437
vn 0.86602288 0.0000000e+0 -0.50000437
vn -0.24172880 -0.96025473 0.13956373
vn -0.24172880 -0.96025473 0.13956373
vn 0.86602288 0.0000000e+0 -0.50000437
vn 0.86602288 0.0000000e+0 -0.50000437
vn -0.24172880 0.96025473 0.13956373
vn -0.24172880 0.96025473 0.13956373
vn 1.00000000 0.0000000e+0 0.0000000e+0
vn 1.00000000 0.0000000e+0 0.0000000e+0
vn -0.27912111 -0.96025591 0.0000000e+0
vn -0.27912111 -0.96025591 0.0000000e+0
vn 1.00000000 0.0000000e+0 0.0000000e+0
vn 1.00000000 0.0000000e+0 0.0000000e+0
vn -0.27912111 0.96025591 0.0000000e+0
vn -0.27912111 0.96025591 0.0000000e+0
vn 0.86602288 0.0000000e+0 0.50000437
vn 0.86602288 0.0000000e+0 0.50000437
vn -0.24172880 -0.96025473 -0.13956373
vn -0.24172880 -0.96025473 -0.13956373
vn 0.86602288 0.0000000e+0 0.50000437
vn 0.86602288 0.0000000e+0 0.50000437
vn -0.24172880 0.96025473 -0.13956373
vn -0.24172880 0.96025473 -0.13956373
vn 0.50000437 0.0000000e+0 0.86602288
vn 0.50000437 0.0000000e+0 0.86602288
vn -0.13956373 -0.96025473 -0.24172880
vn -0.13956373 -0.96025473 -0.24172880
vn 0.50000437 0.0000000e+0 0.86602288
vn 0.50000437 0.0000000e+0 0.86602288
vn -0.13956373 0.96025473 -0.24172880
vn -0.13956373 0.96025473 -0.24172880
vn 0.0000000e+0 0.0000000e+0 1.00000000
vn 0.0000000e+0 0.0000000e+0 1.00000000
vn 0.0000000e+0 -0.96025591 -0.27912111
vn 0.0000000e+0 -0.96025591 -0.27912111
vn 0.0000000e+0 0.0000000e+0 1.00000000
vn 0.0000000e+0 0.0000000e+0 1.00000000
vn 0.0000000e+0 0.96025591 -0.27912111
vn 0.0000000e+0 0.96025591 -0.27912111
vn -0.50000437 0.0000000e+0 0.86602288
vn -0.50000437 0.0000000e+0 0.86602288
vn 0.13956373 -0.96025473 -0.24172880
vn 0.13956373 -0.96025473 -0.24172880
vn -0.50000437 0.0000000e+0 0.86602288
vn -0.50000437 0.0000000e+0 0.86602288
vn 0.13956373 0.96025473 -0.24172880
vn 0.13956373 0.96025473 -0.24172880
vn -0.86602288 0.0000000e+0 0.50000437
vn -0.86602288 0.0000000e+0 0.50000437
vn 0.24172880 -0.96025473 -0.13956373
vn 0.24172880 -0.96025473 -0.13956373
vn -0.86602288 0.0000000e+0 0.50000437
vn -0.86602288 0.0000000e+0 0.50000437
vn 0.24172880 0.96025473 -0.13956373
vn 0.24172880 0.96025473 -0.13956373
vn -1.00000000 0.0000000e+0 0.0000000e+0
vn -1.00000000 0.0000000e+0 0.0000000e+0
vn 0.27912111 -0.96025591 0.0000000e+0
vn 0.27912111 -0.96025591 0.0000000e+0
vn -1.00000000 0.0000000e+0 0.0000000e+0
vn -1.00000000 0.0000000e+0 0.0000000e+0
vn 0.27912111 0.96025591 0.0000000e+0
vn 0.27912111 0.96025591 0.0000000e+0
vn -0.86602288 0.0000000e+0 -0.50000437
vn -0.86602288 0.0000000e+0 -0.50000437
vn 0.24172880 -0.96025473 0.13956373
vn 0.24172880 -0.96025473 0.13956373
vn -0.86602288 0.0000000e+0 -0.50000437
vn -0.86602288 0.0000000e+0 -0.50000437
vn 0.24172880 0.96025473 0.13956373
vn 0.24172880 0.96025473 0.13956373
vn -0.50000437 0.0000000e+0 -0.86602288
vn -0.50000437 0.0000000e+0 -0.86602288
vn 0.13956373 -0.96025473 0.24172880
vn 0.13956373 -0.96025473 0.24172880
vn -0.50000437 0.0000000e+0 -0.86602288
vn -0.50000437 0.0000000e+0 -0.86602288
vn 0.13956373 0.96025473 0.24172880
vn 0.13956373 0.96025473 0.24172880
vn 0.0000000e+0 -1.00000000 0.0000000e+0
vn 0.0000000e+0 -0.96025591 0.27912111
vn 0.0000000e+0 -0.96025591 0.27912111
vn 0.0000000e+0 -1.00000000 0.0000000e+0
vn -0.13956373 -0.96025473 0.24172880
vn -0.13956373 -0.96025473 0.24172880
vn 0.0000000e+0 1.00000000 0.0000000e+0
vn -0.13956373 0.96025473 0.24172880
vn -0.13956373 0.96025473 0.24172880
vn 0.0000000e+0 1.00000000 0.0000000e+0
vn 0.0000000e+0 0.96025591 0.27912111
vn 0.0000000e+0 0.96025591 0.27912111
vn 0.0000000e+0 -1.00000000 0.0000000e+0
vn -0.24172880 -0.96025473 0.13956373
vn -0.24172880 -0.96025473 0.13956373
vn 0.0000000e+0 1.00000000 0.0000000e+0
vn -0.24172880 0.96025473 0.13956373
vn -0.24172880 0.96025473 0.13956373
vn 0.0000000e+0 -1.00000000 0.0000000e+0
vn -0.27912111 -0.96025591 0.0000000e+0
vn -0.27912111 -0.96025591 0.0000000e+0
vn 0.0000000e+0 1.00000000 0.0000000e+0
vn -0.27912111 0.96025591 0.0000000e+0
vn -0.27912111 0.96025591 0.0000000e+0
vn 0.0000000e+0 -1.00000000 0.0000000e+0
vn -0.24172880 -0.96025473 -0.13956373
vn -0.24172880 -0.96025473 -0.13956373
vn 0.0000000e+0 1.00000000 0.0000000e+0
vn -0.24172880 0.96025473 -0.13956373
vn -0.24172880 0.96025473 -0.13956373
vn 0.0000000e+0 -1.00000000 0.0000000e+0
vn -0.13956373 -0.96025473 -0.24172880
vn -0.13956373 -0.96025473 -0.24172880
vn 0.0000000e+0 1.00000000 0.0000000e+0
vn -0.13956373 0.96025473 -0.24172880
vn -0.13956373 0.96025473 -0.24172880
vn 0.0000000e+0 -1.00000000 0.0000000e+0
vn 0.0000000e+0 -0.96025591 -0.27912111
vn 0.0000000e+0 -0.96025591 -0.27912111
vn 0.0000000e+0 1.00000000 0.0000000e+0
vn 0.0000000e+0 0.96025591 -0.27912111
vn 0.0000000e+0 0.96025591 -0.27912111
vn 0.0000000e+0 -1.00000000 0.0000000e+0
vn 0.13956373 -0.96025473 -0.24172880
vn 0.13956373 -0.96025473 -0.24172880
vn 0.0000000e+0 1.00000000 0.0000000e+0
vn 0.13956373 0.96025473 -0.24172880
vn 0.13956373 0.96025473 -0.24172880
vn 0.0000000e+0 -1.00000000 0.0000000e+0
vn 0.24172880 -0.96025473 -0.13956373
vn 0.24172880 -0.96025473 -0.13956373
vn 0.0000000e+0 1.00000000 0.0000000e+0
vn 0.24172880 0.96025473 -0.13956373
vn 0.24172880 0.96025473 -0.13956373
vn 0.0000000e+0 -1.00000000 0.0000000e+0
vn 0.27912111 -0.96025591 0.0000000e+0
vn 0.27912111 -0.96025591 0.0000000e+0
vn 0.0000000e+0 1.00000000 0.0000000e+0
vn 0.27912111 0.96025591 0.0000000e+0
vn 0.27912111 0.96025591 0.0000000e+0
vn 0.0000000e+0 -1.00000000 0.0000000e+0
vn 0.24172880 -0.96025473 0.13956373
vn 0.24172880 -0.96025473 0.13956373
vn 0.0000000e+0 1.00000000 0.0000000e+0
vn 0.24172880 0.96025473 0.13956373
vn 0.24172880 0.96025473 0.13956373
vn 0.0000000e+0 -1.00000000 0.0000000e+0
vn 0.13956373 -0.96025473 0.24172880
vn 0.13956373 -0.96025473 0.24172880
vn 0.0000000e+0 1.00000000 0.0000000e+0
vn 0.13956373 0.96025473 0.24172880
vn 0.13956373 0.96025473 0.24172880
g food_can_crab_Cylindre_None
usemtl None
s 1
f 1/37/2 23/41/90 24/42/94 2/38/6
f 2/38/5 4/32/13 3/31/9 1/37/1
f 4/32/14 6/26/21 5/25/17 3/31/10
f 6/26/22 8/20/29 7/19/25 5/25/18
f 8/20/30 10/10/37 9/9/33 7/19/26
f 10/10/38 12/4/45 11/3/41 9/9/34
f 12/4/46 14/2/53 13/1/49 11/3/42
f 14/74/54 16/72/61 15/71/57 13/73/50
f 16/72/62 18/62/69 17/61/65 15/71/58
f 18/62/70 20/56/77 19/55/73 17/61/66
f 20/56/78 22/50/85 21/49/81 19/55/74
f 22/50/86 24/42/93 23/41/89 21/49/82
f 26/27/100 29/33/109 31/34/115 33/28/121 35/22/127 37/18/133 39/14/139 41/8/145 43/7/151 45/13/157 47/17/163 25/21/97
f 28/54/106 48/48/166 46/44/160 44/43/154 42/47/148 40/53/142 38/57/136 36/63/130 34/67/124 32/68/118 30/64/112 27/58/103
s 2
f 1/23/3 25/21/98 47/17/164 23/15/91
f 2/52/8 28/54/108 27/58/105 4/60/16
f 3/29/12 26/27/102 25/21/99 1/23/4
f 4/60/15 27/58/104 30/64/113 6/66/23
f 5/35/19 29/33/110 26/27/101 3/29/11
f 6/66/24 30/64/114 32/68/119 8/70/31
f 7/36/27 31/34/116 29/33/111 5/35/20
f 8/70/32 32/68/120 34/67/126 10/69/40
f 9/30/36 33/28/123 31/34/117 7/36/28
f 10/69/39 34/67/125 36/63/131 12/65/47
f 11/24/43 35/22/128 33/28/122 9/30/35
f 12/65/48 36/63/132 38/57/138 14/59/56
f 13/16/52 37/18/135 35/22/129 11/24/44
f 14/59/55 38/57/137 40/53/143 16/51/63
f 15/12/59 39/14/140 37/18/134 13/16/51
f 16/51/64 40/53/144 42/47/150 18/45/72
f 17/6/67 41/8/146 39/14/141 15/12/60
f 18/45/71 42/47/149 44/43/155 20/39/79
f 19/5/76 43/7/153 41/8/147 17/6/68
f 20/39/80 44/43/156 46/44/161 22/40/87
f 21/11/83 45/13/158 43/7/152 19/5/75
f 22/40/88 46/44/162 48/48/168 24/46/96
f 23/15/92 47/17/165 45/13/159 21/11/84
f 24/46/95 48/48/167 28/54/107 2/52/7
