# Blender v2.92.0 OBJ File: 'food_can_crab.blend'
# www.blender.org
mtllib food_can_crab.mtl
o food_can_crab_Cylindre
v 0.000000 -0.020000 -0.050000
v 0.000000 0.020000 -0.050000
v 0.025000 -0.020000 -0.043301
v 0.025000 0.020000 -0.043301
v 0.043301 -0.020000 -0.025000
v 0.043301 0.020000 -0.025000
v 0.050000 -0.020000 -0.000000
v 0.050000 0.020000 -0.000000
v 0.043301 -0.020000 0.025000
v 0.043301 0.020000 0.025000
v 0.025000 -0.020000 0.043301
v 0.025000 0.020000 0.043301
v 0.000000 -0.020000 0.050000
v 0.000000 0.020000 0.050000
v -0.025000 -0.020000 0.043301
v -0.025000 0.020000 0.043301
v -0.043301 -0.020000 0.025000
v -0.043301 0.020000 0.025000
v -0.050000 -0.020000 0.000000
v -0.050000 0.020000 0.000000
v -0.043301 -0.020000 -0.025000
v -0.043301 0.020000 -0.025000
v -0.025000 -0.020000 -0.043301
v -0.025000 0.020000 -0.043301
v -0.000000 -0.019042 -0.046704
v 0.023352 -0.019042 -0.040447
v 0.023352 0.019042 -0.040447
v -0.000000 0.019042 -0.046704
v 0.040447 -0.019042 -0.023352
v 0.040447 0.019042 -0.023352
v 0.046704 -0.019042 -0.000000
v 0.046704 0.019042 -0.000000
v 0.040447 -0.019042 0.023352
v 0.040447 0.019042 0.023352
v 0.023352 -0.019042 0.040447
v 0.023352 0.019042 0.040447
v 0.000000 -0.019042 0.046704
v 0.000000 0.019042 0.046704
v -0.023352 -0.019042 0.040447
v -0.023352 0.019042 0.040447
v -0.040447 -0.019042 0.023352
v -0.040447 0.019042 0.023352
v -0.046704 -0.019042 0.000000
v -0.046704 0.019042 0.000000
v -0.040447 -0.019042 -0.023352
v -0.040447 0.019042 -0.023352
v -0.023352 -0.019042 -0.040447
v -0.023352 0.019042 -0.040447
vt 0.766791 0.873733
vt 0.691241 0.873733
vt 0.625813 0.835959
vt 0.588037 0.770531
vt 0.588036 0.694982
vt 0.625811 0.629554
vt 0.691239 0.591778
vt 0.766789 0.591778
vt 0.832217 0.629552
vt 0.869993 0.694980
vt 0.869994 0.770529
vt 0.832219 0.835958
vt 0.327790 0.591778
vt 0.393218 0.629552
vt 0.430994 0.694979
vt 0.430995 0.770529
vt 0.393220 0.835957
vt 0.327792 0.873733
vt 0.252243 0.873733
vt 0.186814 0.835959
vt 0.149039 0.770531
vt 0.149038 0.694982
vt 0.186812 0.629554
vt 0.252240 0.591778
vt 0.500000 0.191662
vt 0.500000 0.316662
vt 0.419119 0.316662
vt 0.419119 0.191662
vt 0.338238 0.316662
vt 0.338238 0.191662
vt 0.257357 0.316662
vt 0.257357 0.191662
vt 0.176476 0.316662
vt 0.176476 0.191662
vt 0.095595 0.316662
vt 0.095595 0.191662
vt 0.014714 0.316662
vt 0.014714 0.191662
vt 0.985286 0.191661
vt 0.985286 0.316661
vt 0.904405 0.316661
vt 0.904405 0.191661
vt 0.823524 0.316661
vt 0.823524 0.191661
vt 0.742643 0.316661
vt 0.742643 0.191661
vt 0.661762 0.316661
vt 0.661762 0.191662
vt 0.400812 0.621959
vt 0.441367 0.692201
vt 0.580881 0.316662
vt 0.580881 0.191662
vt 0.577663 0.692201
vt 0.618218 0.621959
vt 0.249462 0.884106
vt 0.179220 0.843552
vt 0.249462 0.581405
vt 0.330570 0.581405
vt 0.839812 0.843552
vt 0.769570 0.884106
vt 0.688460 0.581405
vt 0.769569 0.581405
vt 0.688461 0.884106
vt 0.618219 0.843552
vt 0.400813 0.843552
vt 0.330571 0.884106
vt 0.138664 0.692201
vt 0.179219 0.621959
vt 0.839811 0.621959
vt 0.880366 0.692201
vt 0.577664 0.773310
vt 0.441368 0.773310
vt 0.138665 0.773310
vt 0.880367 0.773310
vn 0.0000 1.0000 0.0000
vn 0.0000 -1.0000 0.0000
vn -0.0000 0.0000 -1.0000
vn 0.5000 -0.0000 -0.8660
vn 0.8660 -0.0000 -0.5000
vn 1.0000 0.0000 0.0000
vn 0.8660 0.0000 0.5000
vn 0.5000 0.0000 0.8660
vn 0.0000 0.0000 1.0000
vn -0.5000 -0.0000 0.8660
vn -0.8660 -0.0000 0.5000
vn -1.0000 -0.0000 0.0000
vn -0.8660 -0.0000 -0.5000
vn -0.1395 -0.9603 0.2416
vn -0.2416 -0.9603 0.1395
vn -0.5000 0.0000 -0.8660
vn 0.2790 0.9603 -0.0000
vn 0.2416 0.9603 -0.1395
vn -0.0000 -0.9603 -0.2790
vn 0.1395 -0.9603 -0.2416
vn 0.1395 -0.9603 0.2416
vn 0.0000 -0.9603 0.2790
vn -0.2416 0.9603 0.1395
vn -0.1395 0.9603 0.2416
vn 0.1395 0.9603 -0.2416
vn -0.0000 0.9603 -0.2790
vn 0.0000 0.9603 0.2790
vn 0.1395 0.9603 0.2416
vn -0.2416 -0.9603 -0.1395
vn -0.1395 -0.9603 -0.2416
vn 0.2790 -0.9603 -0.0000
vn 0.2416 -0.9603 0.1395
vn -0.1395 0.9603 -0.2416
vn -0.2416 0.9603 -0.1395
vn 0.2416 0.9603 0.1395
vn -0.2790 -0.9603 -0.0000
vn 0.2416 -0.9603 -0.1395
vn -0.2790 0.9603 -0.0000
usemtl None
s off
f 27/1/1 28/2/1 48/3/1 46/4/1 44/5/1 42/6/1 40/7/1 38/8/1 36/9/1 34/10/1 32/11/1 30/12/1
f 25/13/2 26/14/2 29/15/2 31/16/2 33/17/2 35/18/2 37/19/2 39/20/2 41/21/2 43/22/2 45/23/2 47/24/2
s 1
f 1/25/3 2/26/3 4/27/4 3/28/4
f 3/28/4 4/27/4 6/29/5 5/30/5
f 5/30/5 6/29/5 8/31/6 7/32/6
f 7/32/6 8/31/6 10/33/7 9/34/7
f 9/34/7 10/33/7 12/35/8 11/36/8
f 11/36/8 12/35/8 14/37/9 13/38/9
f 13/39/9 14/40/9 16/41/10 15/42/10
f 15/42/10 16/41/10 18/43/11 17/44/11
f 17/44/11 18/43/11 20/45/12 19/46/12
f 19/46/12 20/45/12 22/47/13 21/48/13
f 3/49/14 5/50/15 29/15/15 26/14/14
f 21/48/13 22/47/13 24/51/16 23/52/16
f 23/52/16 24/51/16 2/26/3 1/25/3
f 20/53/17 18/54/18 42/6/18 44/5/17
f 13/55/19 15/56/20 39/20/20 37/19/19
f 23/57/21 1/58/22 25/13/22 47/24/21
f 6/59/23 4/60/24 27/1/24 30/12/23
f 16/61/25 14/62/26 38/8/26 40/7/25
f 2/63/27 24/64/28 48/3/28 28/2/27
f 9/65/29 11/66/30 35/18/30 33/17/29
f 19/67/31 21/68/32 45/23/32 43/22/31
f 12/69/33 10/70/34 34/10/34 36/9/33
f 22/71/35 20/53/17 44/5/17 46/4/35
f 5/50/15 7/72/36 31/16/36 29/15/15
f 15/56/20 17/73/37 41/21/37 39/20/20
f 1/58/22 3/49/14 26/14/14 25/13/22
f 8/74/38 6/59/23 30/12/23 32/11/38
f 18/54/18 16/61/25 40/7/25 42/6/18
f 4/60/24 2/63/27 28/2/27 27/1/24
f 11/66/30 13/55/19 37/19/19 35/18/30
f 21/68/32 23/57/21 47/24/21 45/23/32
f 14/62/26 12/69/33 36/9/33 38/8/26
f 24/64/28 22/71/35 46/4/35 48/3/28
f 7/72/36 9/65/29 33/17/29 31/16/36
f 17/73/37 19/67/31 43/22/31 41/21/37
f 10/70/34 8/74/38 32/11/38 34/10/34
