# Exported from Wings 3D 1.5.4
mtllib Tantares_SolarStandard_A_Base.mtl
o Tantares_SolarBasic_A_Base
#20 vertices, 18 faces
v -5.0000000e-2 -5.0000000e-2 -3.5000000e-2
v -5.0000000e-2 -5.0000000e-2 1.3000000e-2
v -5.0000000e-2 5.0000000e-2 -3.5000000e-2
v -5.0000000e-2 5.0000000e-2 1.3000000e-2
v 5.0000000e-2 -5.0000000e-2 -3.5000000e-2
v 5.0000000e-2 -5.0000000e-2 1.3000000e-2
v 5.0000000e-2 5.0000000e-2 -3.5000000e-2
v 5.0000000e-2 5.0000000e-2 1.3000000e-2
v -2.2500000e-2 -2.2500000e-2 -7.9000000e-2
v -2.2500000e-2 2.2500000e-2 -7.9000000e-2
v 2.2500000e-2 2.2500000e-2 -7.9000000e-2
v 2.2500000e-2 -2.2500000e-2 -7.9000000e-2
v -4.0000000e-2 4.0000000e-2 1.3000000e-2
v -4.0000000e-2 -4.0000000e-2 1.3000000e-2
v 4.0000000e-2 -4.0000000e-2 1.3000000e-2
v 4.0000000e-2 4.0000000e-2 1.3000000e-2
v -2.8000000e-2 2.8000000e-2 3.1000000e-2
v -2.8000000e-2 -2.8000000e-2 3.1000000e-2
v 2.8000000e-2 -2.8000000e-2 3.1000000e-2
v 2.8000000e-2 2.8000000e-2 3.1000000e-2
vt 0.17207970 0.20362812
vt 0.17207970 0.12857152
vt 0.17958536 0.19612246
vt 0.17958536 0.13607718
vt 0.18859215 0.14508397
vt 0.18859215 0.18711567
vt 0.23062384 0.14508397
vt 0.23062384 0.18711567
vt 0.23963063 0.19612246
vt 0.23963063 0.13607718
vt 0.24706536 0.12857152
vt 0.24706536 0.20362812
vt 0.24706536 0.12857152
vt 0.24706536 0.20362812
vt 0.24713629 0.12857152
vt 0.24713629 0.20362812
vt 0.28309253 0.12857152
vt 0.28309253 0.12857152
vt 0.28309253 0.20362812
vt 0.28309253 0.20362812
vt 0.28314065 0.12857152
vt 0.28314065 0.20362812
vt 0.32200334 0.14921209
vt 0.32200334 0.18298755
vt 0.32208518 0.14921209
vt 0.32208518 0.18298755
vt 0.35577881 0.14921209
vt 0.35577881 0.18298755
vn 0.0000000e+0 -1.00000000 0.0000000e+0
vn -1.00000000 0.0000000e+0 0.0000000e+0
vn -0.84799830 0.0000000e+0 -0.52999894
vn 0.0000000e+0 -0.84799830 -0.52999894
vn 0.0000000e+0 -1.00000000 0.0000000e+0
vn -1.00000000 0.0000000e+0 0.0000000e+0
vn 0.0000000e+0 0.0000000e+0 1.00000000
vn 0.0000000e+0 0.0000000e+0 1.00000000
vn 0.0000000e+0 1.00000000 0.0000000e+0
vn -1.00000000 0.0000000e+0 0.0000000e+0
vn -0.84799830 0.0000000e+0 -0.52999894
vn 0.0000000e+0 0.84799830 -0.52999894
vn 0.0000000e+0 1.00000000 0.0000000e+0
vn -1.00000000 0.0000000e+0 0.0000000e+0
vn 0.0000000e+0 0.0000000e+0 1.00000000
vn 0.0000000e+0 0.0000000e+0 1.00000000
vn 0.0000000e+0 -1.00000000 0.0000000e+0
vn 1.00000000 0.0000000e+0 0.0000000e+0
vn 0.84799830 0.0000000e+0 -0.52999894
vn 0.0000000e+0 -0.84799830 -0.52999894
vn 0.0000000e+0 -1.00000000 0.0000000e+0
vn 1.00000000 0.0000000e+0 0.0000000e+0
vn 0.0000000e+0 0.0000000e+0 1.00000000
vn 0.0000000e+0 0.0000000e+0 1.00000000
vn 0.0000000e+0 1.00000000 0.0000000e+0
vn 1.00000000 0.0000000e+0 0.0000000e+0
vn 0.0000000e+0 0.84799830 -0.52999894
vn 0.84799830 0.0000000e+0 -0.52999894
vn 0.0000000e+0 1.00000000 0.0000000e+0
vn 1.00000000 0.0000000e+0 0.0000000e+0
vn 0.0000000e+0 0.0000000e+0 1.00000000
vn 0.0000000e+0 0.0000000e+0 1.00000000
vn 0.0000000e+0 0.0000000e+0 -1.00000000
vn -0.84799830 0.0000000e+0 -0.52999894
vn 0.0000000e+0 -0.84799830 -0.52999894
vn 0.0000000e+0 0.0000000e+0 -1.00000000
vn -0.84799830 0.0000000e+0 -0.52999894
vn 0.0000000e+0 0.84799830 -0.52999894
vn 0.0000000e+0 0.0000000e+0 -1.00000000
vn 0.0000000e+0 0.84799830 -0.52999894
vn 0.84799830 0.0000000e+0 -0.52999894
vn 0.0000000e+0 0.0000000e+0 -1.00000000
vn 0.84799830 0.0000000e+0 -0.52999894
vn 0.0000000e+0 -0.84799830 -0.52999894
vn 0.0000000e+0 0.0000000e+0 1.00000000
vn 0.0000000e+0 0.0000000e+0 1.00000000
vn -0.83205029 0.0000000e+0 0.55470020
vn 0.0000000e+0 0.83205029 0.55470020
vn 0.0000000e+0 0.0000000e+0 1.00000000
vn 0.0000000e+0 0.0000000e+0 1.00000000
vn -0.83205029 0.0000000e+0 0.55470020
vn 0.0000000e+0 -0.83205029 0.55470020
vn 0.0000000e+0 0.0000000e+0 1.00000000
vn 0.0000000e+0 0.0000000e+0 1.00000000
vn 0.0000000e+0 -0.83205029 0.55470020
vn 0.83205029 0.0000000e+0 0.55470020
vn 0.0000000e+0 0.0000000e+0 1.00000000
vn 0.0000000e+0 0.0000000e+0 1.00000000
vn 0.83205029 0.0000000e+0 0.55470020
vn 0.0000000e+0 0.83205029 0.55470020
vn 0.0000000e+0 0.0000000e+0 1.00000000
vn -0.83205029 0.0000000e+0 0.55470020
vn 0.0000000e+0 0.83205029 0.55470020
vn 0.0000000e+0 0.0000000e+0 1.00000000
vn -0.83205029 0.0000000e+0 0.55470020
vn 0.0000000e+0 -0.83205029 0.55470020
vn 0.0000000e+0 0.0000000e+0 1.00000000
vn 0.0000000e+0 -0.83205029 0.55470020
vn 0.83205029 0.0000000e+0 0.55470020
vn 0.0000000e+0 0.0000000e+0 1.00000000
vn 0.83205029 0.0000000e+0 0.55470020
vn 0.0000000e+0 0.83205029 0.55470020
g Tantares_SolarBasic_A_Base_Tantares_SolarNormal_A_Base
usemtl Tantares_SolarNormal_A_Base
s 1
f 1/21/4 9/25/35 12/26/44 5/22/20
f 2/12/6 4/11/14 3/18/10 1/19/2
f 5/17/18 7/20/26 8/14/30 6/13/22
f 7/21/27 11/25/40 10/26/38 3/22/12
f 18/6/64 19/5/67 20/7/70 17/8/61
s 2
f 1/18/1 5/19/17 6/12/21 2/11/5
f 3/21/11 10/25/37 9/26/34 1/22/3
f 4/12/13 8/11/29 7/18/25 3/19/9
f 5/21/19 12/25/43 11/26/41 7/22/28
f 13/9/48 17/8/63 20/7/72 16/10/60
f 15/4/55 19/5/68 18/6/66 14/3/52
s 3
f 10/27/36 11/28/39 12/24/42 9/23/33
f 14/3/51 18/6/65 17/8/62 13/9/47
f 16/10/59 20/7/71 19/5/69 15/4/56
s 4
f 2/1/7 14/3/49 13/9/45 4/16/15
f 4/16/16 13/9/46 16/10/58 8/15/32
f 6/2/23 15/4/53 14/3/50 2/1/8
f 8/15/31 16/10/57 15/4/54 6/2/24
