# Exported from Wings 3D 1.5.4
mtllib Hamal_Habitation_1_Flag.mtl
o Hamal_Habitation_1_Flag
#9 vertices, 4 faces
v -0.14258416 0.45953875 -0.53441058
v 5.0992438e-19 0.45956478 -0.55316931
v 0.14258416 0.45953875 -0.53441058
v -0.15339567 0.37466005 -0.57483845
v -1.8868080e-19 0.37466005 -0.59503338
v 0.15339567 0.37466005 -0.57483845
v -0.16043930 0.28331759 -0.60117655
v -3.7427579e-19 0.28333678 -0.62229306
v 0.16043930 0.28331759 -0.60117655
vt 6.9388939e-18 -3.4694470e-17
vt 6.9388939e-18 0.50221087
vt 6.9388939e-18 1.00000000
vt 0.50000000 1.00000000
vt 0.50000000 -3.4694470e-17
vt 0.50000000 0.50221087
vt 1.00000000 -3.4694470e-17
vt 1.00000000 0.50221087
vt 1.00000000 1.00000000
vn -0.11726436 0.43918397 -0.89071124
vn 5.5896798e-17 0.44223507 -0.89689918
vn 0.11726436 0.43918397 -0.89071124
vn -0.12163592 0.36274360 -0.92391655
vn 2.8060928e-17 0.36545720 -0.93082815
vn 0.12163592 0.36274360 -0.92391655
vn -0.12516031 0.28377678 -0.95068693
vn 0.0000000e+0 0.28602593 -0.95822188
vn 0.12516031 0.28377678 -0.95068693
g Hamal_Habitation_1_Flag_Hamal_Habitation_1_Flag_auv
usemtl Hamal_Habitation_1_Flag_auv
s 1
f 2/4/2 5/6/5 4/8/4 1/9/1
f 3/3/3 6/2/6 5/6/5 2/4/2
f 5/6/5 8/5/8 7/7/7 4/8/4
f 6/2/6 9/1/9 8/5/8 5/6/5
