# Exported from Wings 3D 1.5.4
mtllib Tantares_SolarBasic_A_2.mtl
o Tantares_SolarBasic_A_2
#8 vertices, 6 faces
v -0.50000000 -5.0000000e-3 -0.26500000
v -0.50000000 -5.0000000e-3 5.0000000e-3
v -0.50000000 5.0000000e-3 -0.26500000
v -0.50000000 5.0000000e-3 5.0000000e-3
v 0.50000000 -5.0000000e-3 -0.26500000
v 0.50000000 -5.0000000e-3 5.0000000e-3
v 0.50000000 5.0000000e-3 -0.26500000
v 0.50000000 5.0000000e-3 5.0000000e-3
vt 2.3107132e-2 2.5000000e-2
vt 2.3107132e-2 2.5000000e-2
vt 2.3107132e-2 2.5000000e-2
vt 2.3107132e-2 0.97500000
vt 2.3107132e-2 0.97500000
vt 2.3107132e-2 0.97500000
vt 4.2927132e-2 2.5000000e-2
vt 4.2927132e-2 2.5000000e-2
vt 4.2927132e-2 2.5000000e-2
vt 4.2927132e-2 0.97500000
vt 4.2927132e-2 0.97500000
vt 0.59596024 2.0330160e-2
vt 0.59596024 0.51465624
vt 0.59596024 0.48395416
vt 0.59596024 0.97828024
vt 0.72113872 2.0330160e-2
vt 0.72113872 0.48395416
vt 0.72113872 0.51465624
vt 0.72113872 0.97828024
vn 0.0000000e+0 -1.00000000 0.0000000e+0
vn 0.0000000e+0 0.0000000e+0 -1.00000000
vn -1.00000000 0.0000000e+0 0.0000000e+0
vn 0.0000000e+0 -1.00000000 0.0000000e+0
vn 0.0000000e+0 0.0000000e+0 1.00000000
vn -1.00000000 0.0000000e+0 0.0000000e+0
vn 0.0000000e+0 1.00000000 0.0000000e+0
vn 0.0000000e+0 0.0000000e+0 -1.00000000
vn -1.00000000 0.0000000e+0 0.0000000e+0
vn 0.0000000e+0 1.00000000 0.0000000e+0
vn 0.0000000e+0 0.0000000e+0 1.00000000
vn -1.00000000 0.0000000e+0 0.0000000e+0
vn 0.0000000e+0 -1.00000000 0.0000000e+0
vn 0.0000000e+0 0.0000000e+0 -1.00000000
vn 1.00000000 0.0000000e+0 0.0000000e+0
vn 0.0000000e+0 -1.00000000 0.0000000e+0
vn 0.0000000e+0 0.0000000e+0 1.00000000
vn 1.00000000 0.0000000e+0 0.0000000e+0
vn 0.0000000e+0 1.00000000 0.0000000e+0
vn 0.0000000e+0 0.0000000e+0 -1.00000000
vn 1.00000000 0.0000000e+0 0.0000000e+0
vn 0.0000000e+0 1.00000000 0.0000000e+0
vn 0.0000000e+0 0.0000000e+0 1.00000000
vn 1.00000000 0.0000000e+0 0.0000000e+0
g Tantares_SolarBasic_A_2_Tantares_SolarBasic_A_2_auv
usemtl Tantares_SolarBasic_A_2_auv
s 1
f 2/11/6 4/4/12 3/3/9 1/9/3
f 5/11/15 7/4/21 8/3/24 6/9/18
s 2
f 2/8/5 6/10/17 8/5/23 4/2/11
f 3/6/8 7/1/20 5/7/14 1/11/2
s 3
f 1/14/1 5/12/13 6/16/16 2/17/4
f 4/18/10 8/19/22 7/15/19 3/13/7
