# Exported from Wings 3D 1.5.4
mtllib Andromeda_Antenna_1.mtl
o Andromeda_Antenna_1
#45 vertices, 42 faces
v 1.4592936e-18 1.2500000e-2 -2.2500000e-2
v -1.2500000e-2 1.1123489e-18 -2.2500000e-2
v -1.6023234e-18 -1.2500000e-2 -2.2500000e-2
v 1.2500000e-2 -4.1845955e-19 -2.2500000e-2
v 3.2554212e-17 1.2500000e-2 -0.37250000
v 1.2500000e-2 7.6524011e-17 -0.37250000
v 3.2554212e-17 -1.2500000e-2 -0.37250000
v -1.2500000e-2 7.8054819e-17 -0.37250000
v 2.4900169e-17 -0.11250000 -0.37250000
v 1.2500000e-2 -1.0000000e-1 -0.37250000
v 2.7961786e-17 -8.7500000e-2 -0.37250000
v -1.2500000e-2 -1.0000000e-1 -0.37250000
v 2.7326404e-17 -0.10412659 -0.40375000
v 1.2500000e-2 -9.3301270e-2 -0.39750000
v 2.9417527e-17 -8.2475953e-2 -0.39125000
v -1.2500000e-2 -9.3301270e-2 -0.39750000
v 3.0127978e-17 -8.1250000e-2 -0.42662659
v 1.2500000e-2 -7.5000000e-2 -0.41580127
v 3.1098471e-17 -6.8750000e-2 -0.40497595
v -1.2500000e-2 -7.5000000e-2 -0.41580127
v 3.2554212e-17 -5.0000000e-2 -0.43500000
v 1.2500000e-2 -5.0000000e-2 -0.42250000
v 3.2554212e-17 -5.0000000e-2 -0.41000000
v -1.2500000e-2 -5.0000000e-2 -0.42250000
v 3.3954999e-17 -1.8750000e-2 -0.42662659
v 1.2500000e-2 -2.5000000e-2 -0.41580127
v 3.3394684e-17 -3.1250000e-2 -0.40497595
v -1.2500000e-2 -2.5000000e-2 -0.41580127
v 3.3954999e-17 4.1265877e-3 -0.40375000
v 1.2500000e-2 -6.6987298e-3 -0.39750000
v 3.3394684e-17 -1.7524047e-2 -0.39125000
v -1.2500000e-2 -6.6987298e-3 -0.39750000
v 2.4900169e-17 -0.11250000 -7.2500000e-2
v 1.2500000e-2 -1.0000000e-1 -7.2500000e-2
v 2.7961786e-17 -8.7500000e-2 -7.2500000e-2
v -1.2500000e-2 -1.0000000e-1 -7.2500000e-2
v 2.5882414e-17 -1.0000000e-1 -6.6250000e-2
v 2.2255210e-18 1.8750000e-2 -2.2500000e-2
v -1.8750000e-2 1.5601032e-18 -2.2500000e-2
v -2.3669045e-18 -1.8750000e-2 -2.2500000e-2
v 1.8750000e-2 -7.3610955e-19 -2.2500000e-2
v 2.5365025e-18 1.8750000e-2 2.2500000e-2
v -1.8750000e-2 1.5601032e-18 2.2500000e-2
v -2.0559230e-18 -1.8750000e-2 2.2500000e-2
v 1.8750000e-2 -7.3610955e-19 2.2500000e-2
vt 0.75763532 0.30363592
vt 0.75763532 0.30693297
vt 0.75763532 0.31023002
vt 0.76323061 0.30363592
vt 0.76323061 0.30693297
vt 0.76323061 0.31023002
vt 0.77257408 0.30693297
vt 0.77490545 0.30460160
vt 0.77490545 0.30926434
vt 0.77723682 0.30693297
vt 0.81634081 0.12082158
vt 0.81634081 2.2895413e-2
vt 0.81634082 0.12082158
vt 0.81634082 2.2895411e-2
vt 0.81634571 8.3519687e-2
vt 0.81634571 6.6414291e-2
vt 0.81634572 8.3519685e-2
vt 0.81634572 6.6414289e-2
vt 0.81635061 8.0870709e-2
vt 0.81635061 7.8130783e-2
vt 0.81635061 7.4966989e-2
vt 0.81635061 7.1803195e-2
vt 0.81635061 6.9063268e-2
vt 0.81635061 8.0870708e-2
vt 0.81635061 7.8130782e-2
vt 0.81635061 7.4966988e-2
vt 0.81635061 7.1803194e-2
vt 0.81635061 6.9063267e-2
vt 0.81687221 0.13189999
vt 0.81853885 0.12082158
vt 0.81853885 8.3519687e-2
vt 0.81853885 8.0870709e-2
vt 0.81853885 7.8130783e-2
vt 0.81853885 7.4966989e-2
vt 0.81853885 2.2895413e-2
vt 0.81853885 7.1803195e-2
vt 0.81853885 6.6414291e-2
vt 0.81853885 6.9063268e-2
vt 0.81853885 0.12082158
vt 0.81853885 8.3519685e-2
vt 0.81853885 8.0870708e-2
vt 0.81853885 7.8130782e-2
vt 0.81853885 7.4966988e-2
vt 0.81853885 7.1803194e-2
vt 0.81853885 6.9063267e-2
vt 0.81853885 6.6414289e-2
vt 0.81853885 2.2895411e-2
vt 0.81855697 0.13365498
vt 0.81857471 0.13191737
vt 0.81859244 0.13017976
vt 0.82027721 0.13193474
vt 0.82072709 8.0870709e-2
vt 0.82072709 7.8130783e-2
vt 0.82072709 7.4966989e-2
vt 0.82072709 7.1803195e-2
vt 0.82072709 6.9063268e-2
vt 0.82072709 8.0870708e-2
vt 0.82072709 7.8130782e-2
vt 0.82072709 7.4966987e-2
vt 0.82072709 7.1803194e-2
vt 0.82072709 6.9063267e-2
vt 0.82073199 8.3519687e-2
vt 0.82073199 6.6414291e-2
vt 0.82073199 8.3519685e-2
vt 0.82073199 6.6414289e-2
vt 0.82073688 0.12082158
vt 0.82073688 2.2895413e-2
vt 0.82073689 0.12082158
vt 0.82073689 2.2895411e-2
vn 7.8507621e-17 0.99129789 -0.13163775
vn 1.00000000 -3.5638560e-16 -1.1751829e-17
vn 3.9253811e-17 -0.99129789 0.13163775
vn -1.00000000 -1.5839360e-16 -1.8809240e-16
vn 7.8507621e-17 -0.99129789 -0.13163775
vn 1.00000000 3.9598400e-16 2.5830107e-16
vn 7.8507621e-17 0.99129789 0.13163775
vn -1.00000000 6.7317281e-16 1.7910427e-16
vn 7.9901293e-17 -0.86602540 -0.50000000
vn 1.00000000 1.5980259e-15 5.1935841e-16
vn 1.1985194e-16 0.86602540 0.50000000
vn -1.00000000 1.8377298e-15 3.5955582e-16
vn 0.0000000e+0 -0.50000000 -0.86602540
vn 1.00000000 1.0686798e-15 3.1960517e-16
vn 1.1985194e-16 0.50000000 0.86602540
vn -1.00000000 1.1885317e-15 2.3970388e-16
vn 3.9950647e-17 2.7965453e-16 -1.00000000
vn 1.00000000 -5.9925970e-17 3.9950647e-17
vn 3.9950647e-17 -2.7965453e-16 1.00000000
vn -1.00000000 5.9925970e-17 7.9901293e-17
vn 3.9950647e-17 0.50000000 -0.86602540
vn 1.00000000 -8.3896358e-16 2.7965453e-16
vn -7.9901293e-17 -0.50000000 0.86602540
vn -1.00000000 -7.5906229e-16 3.1960517e-16
vn -3.9950647e-17 0.86602540 -0.50000000
vn 1.00000000 -1.2384700e-15 2.5967920e-16
vn -3.9950647e-17 -0.86602540 0.50000000
vn -1.00000000 -1.1186181e-15 1.3982726e-16
vn -2.2095774e-16 -2.0396099e-16 1.00000000
vn 2.3551387e-16 1.00000000 2.1684043e-16
vn 2.3551387e-16 1.00000000 2.1684043e-16
vn -1.00000000 2.3551387e-16 -9.2931615e-17
vn -1.00000000 2.3551387e-16 -9.2931615e-17
vn 0.0000000e+0 -1.00000000 -2.1838929e-16
vn 0.0000000e+0 -1.00000000 -2.1838929e-16
vn 1.00000000 0.0000000e+0 9.1382755e-17
vn 1.00000000 0.0000000e+0 9.1382755e-17
vn 0.0000000e+0 -1.00000000 -9.0350181e-17
vn 0.0000000e+0 -1.00000000 -9.0350181e-17
vn -8.2092716e-16 -0.44721360 0.89442719
vn -8.2092716e-16 -0.44721360 0.89442719
vn 1.00000000 -7.8504623e-17 1.8070036e-18
vn 1.00000000 -7.8504623e-17 1.8070036e-18
vn 0.44721360 3.6485652e-16 0.89442719
vn 0.44721360 3.6485652e-16 0.89442719
vn 7.8504623e-17 1.00000000 9.3964188e-17
vn 7.8504623e-17 1.00000000 9.3964188e-17
vn 4.5607065e-16 0.44721360 0.89442719
vn 4.5607065e-16 0.44721360 0.89442719
vn -1.00000000 7.8504623e-17 1.8070036e-18
vn -1.00000000 7.8504623e-17 1.8070036e-18
vn -0.44721360 -7.2971303e-16 0.89442719
vn -0.44721360 -7.2971303e-16 0.89442719
vn 0.0000000e+0 0.0000000e+0 -1.00000000
vn 1.5700925e-16 1.00000000 0.0000000e+0
vn 1.5700925e-16 1.00000000 0.0000000e+0
vn 0.0000000e+0 0.0000000e+0 -1.00000000
vn -1.00000000 7.8504623e-17 0.0000000e+0
vn -1.00000000 7.8504623e-17 0.0000000e+0
vn 0.0000000e+0 0.0000000e+0 -1.00000000
vn -1.5700925e-16 -1.00000000 0.0000000e+0
vn -1.5700925e-16 -1.00000000 0.0000000e+0
vn 0.0000000e+0 0.0000000e+0 -1.00000000
vn 1.00000000 -7.8504623e-17 0.0000000e+0
vn 1.00000000 -7.8504623e-17 0.0000000e+0
vn 0.0000000e+0 0.0000000e+0 1.00000000
vn 1.5700925e-16 1.00000000 0.0000000e+0
vn 1.5700925e-16 1.00000000 0.0000000e+0
vn 0.0000000e+0 0.0000000e+0 1.00000000
vn -1.00000000 7.8504623e-17 0.0000000e+0
vn -1.00000000 7.8504623e-17 0.0000000e+0
vn 0.0000000e+0 0.0000000e+0 1.00000000
vn -1.5700925e-16 -1.00000000 0.0000000e+0
vn -1.5700925e-16 -1.00000000 0.0000000e+0
vn 0.0000000e+0 0.0000000e+0 1.00000000
vn 1.00000000 -7.8504623e-17 0.0000000e+0
vn 1.00000000 -7.8504623e-17 0.0000000e+0
g Andromeda_Antenna_1_Andromeda_Antenna_1_auv
usemtl Andromeda_Antenna_1_auv
s 1
f 33/50/41 37/49/29 36/29/53
f 34/51/44 37/49/29 33/50/40
f 35/48/48 37/49/29 34/51/45
f 36/29/52 37/49/29 35/48/49
f 38/9/54 41/7/63 40/8/60 39/10/57
f 43/7/69 44/8/72 45/10/75 42/9/66
s 2
f 1/14/31 4/47/37 6/46/2 5/18/1
f 2/35/32 8/37/4 7/63/3 3/67/35
f 4/47/36 3/69/34 7/65/3 6/46/2
f 5/16/1 8/37/4 2/35/33 1/12/30
f 5/16/1 29/23/25 32/38/28 8/37/4
f 6/46/2 30/45/26 29/28/25 5/18/1
f 7/65/3 31/61/27 30/45/26 6/46/2
f 8/37/4 32/38/28 31/56/27 7/63/3
f 9/17/5 13/24/9 14/41/10 10/40/6
f 9/15/5 33/11/39 36/30/51 12/31/8
f 10/40/6 14/41/10 15/57/11 11/64/7
f 10/40/6 34/39/42 33/13/38 9/17/5
f 11/62/7 15/52/11 16/32/12 12/31/8
f 11/64/7 35/68/46 34/39/43 10/40/6
f 12/31/8 16/32/12 13/19/9 9/15/5
f 12/31/8 36/30/50 35/66/47 11/62/7
f 13/24/9 17/25/13 18/42/14 14/41/10
f 14/41/10 18/42/14 19/58/15 15/57/11
f 15/52/11 19/53/15 20/33/16 16/32/12
f 16/32/12 20/33/16 17/20/13 13/19/9
f 17/25/13 21/26/17 22/43/18 18/42/14
f 18/42/14 22/43/18 23/59/19 19/58/15
f 19/53/15 23/54/19 24/34/20 20/33/16
f 20/33/16 24/34/20 21/21/17 17/20/13
f 21/26/17 25/27/21 26/44/22 22/43/18
f 22/43/18 26/44/22 27/60/23 23/59/19
f 23/54/19 27/55/23 28/36/24 24/34/20
f 24/34/20 28/36/24 25/22/21 21/21/17
f 25/27/21 29/28/25 30/45/26 26/44/22
f 26/44/22 30/45/26 31/61/27 27/60/23
f 27/55/23 31/56/27 32/38/28 28/36/24
f 28/36/24 32/38/28 29/23/25 25/22/21
f 38/6/56 42/3/68 45/2/77 41/5/65
f 39/2/58 43/5/70 42/6/67 38/3/55
f 40/1/61 44/4/73 43/5/71 39/2/59
f 41/5/64 45/2/76 44/1/74 40/4/62
