# Exported from Wings 3D 1.5.4
mtllib eridani_adapter_s1p5_s1_1.mtl
o mesh1
#120 vertices, 96 faces
v 0.93750000 -0.20000000 -2.0961242e-18
v 0.90555546 -0.20000000 0.24264285
v 0.81189882 -0.20000000 0.46875000
v 0.66291261 -0.20000000 0.66291261
v 0.46875000 -0.20000000 0.81189882
v 0.24264285 -0.20000000 0.90555546
v 4.8731701e-17 -0.20000000 0.93750000
v -0.24264285 -0.20000000 0.90555546
v -0.46875000 -0.20000000 0.81189882
v -0.66291261 -0.20000000 0.66291261
v -0.81189882 -0.20000000 0.46875000
v -0.90555546 -0.20000000 0.24264285
v -0.93750000 -0.20000000 1.1271451e-16
v -0.90555546 -0.20000000 -0.24264285
v -0.81189882 -0.20000000 -0.46875000
v -0.66291261 -0.20000000 -0.66291261
v -0.46875000 -0.20000000 -0.81189882
v -0.24264285 -0.20000000 -0.90555546
v -1.8088957e-16 -0.20000000 -0.93750000
v 0.24264285 -0.20000000 -0.90555546
v 0.46875000 -0.20000000 -0.81189882
v 0.66291261 -0.20000000 -0.66291261
v 0.81189882 -0.20000000 -0.46875000
v 0.90555546 -0.20000000 -0.24264285
v 0.60370364 0.20000000 0.16176190
v 0.62500000 0.20000000 -7.5653218e-18
v 0.60370364 0.20000000 -0.16176190
v 0.54126588 0.20000000 -0.31250000
v 0.44194174 0.20000000 -0.44194174
v 0.31250000 0.20000000 -0.54126588
v 0.16176190 0.20000000 -0.60370364
v -1.3601281e-16 0.20000000 -0.62500000
v -0.16176190 0.20000000 -0.60370364
v -0.31250000 0.20000000 -0.54126588
v -0.44194174 0.20000000 -0.44194174
v -0.54126588 0.20000000 -0.31250000
v -0.60370364 0.20000000 -0.16176190
v -0.62500000 0.20000000 6.8975103e-17
v -0.60370364 0.20000000 0.16176190
v -0.54126588 0.20000000 0.31250000
v -0.44194174 0.20000000 0.44194174
v -0.31250000 0.20000000 0.54126588
v -0.16176190 0.20000000 0.60370364
v 1.7068037e-17 0.20000000 0.62500000
v 0.16176190 0.20000000 0.60370364
v 0.31250000 0.20000000 0.54126588
v 0.44194174 0.20000000 0.44194174
v 0.54126588 0.20000000 0.31250000
v 0.93750000 2.5000000e-2 -2.0961242e-18
v 0.91496192 6.0818277e-2 -2.4905728e-18
v 0.88378535 6.0818277e-2 0.23680957
v 0.90555546 2.5000000e-2 0.24264285
v 0.79238027 6.0818277e-2 0.45748096
v 0.81189882 2.5000000e-2 0.46875000
v 0.64697578 6.0818277e-2 0.64697578
v 0.66291261 2.5000000e-2 0.66291261
v 0.45748096 6.0818277e-2 0.79238027
v 0.46875000 2.5000000e-2 0.81189882
v 0.23680957 6.0818277e-2 0.88378535
v 0.24264285 2.5000000e-2 0.90555546
v 4.6448059e-17 6.0818277e-2 0.91496192
v 4.8731701e-17 2.5000000e-2 0.93750000
v -0.23680957 6.0818277e-2 0.88378535
v -0.24264285 2.5000000e-2 0.90555546
v -0.45748096 6.0818277e-2 0.79238027
v -0.46875000 2.5000000e-2 0.81189882
v -0.64697578 6.0818277e-2 0.64697578
v -0.66291261 2.5000000e-2 0.66291261
v -0.79238027 6.0818277e-2 0.45748096
v -0.81189882 2.5000000e-2 0.46875000
v -0.88378535 6.0818277e-2 0.23680957
v -0.90555546 2.5000000e-2 0.24264285
v -0.91496192 6.0818277e-2 1.0955995e-16
v -0.93750000 2.5000000e-2 1.1271451e-16
v -0.88378535 6.0818277e-2 -0.23680957
v -0.90555546 2.5000000e-2 -0.24264285
v -0.79238027 6.0818277e-2 -0.45748096
v -0.81189882 2.5000000e-2 -0.46875000
v -0.64697578 6.0818277e-2 -0.64697578
v -0.66291261 2.5000000e-2 -0.66291261
v -0.45748096 6.0818277e-2 -0.79238027
v -0.46875000 2.5000000e-2 -0.81189882
v -0.23680957 6.0818277e-2 -0.88378535
v -0.24264285 2.5000000e-2 -0.90555546
v -1.7765298e-16 6.0818277e-2 -0.91496192
v -1.8088957e-16 2.5000000e-2 -0.93750000
v 0.23680957 6.0818277e-2 -0.88378535
v 0.24264285 2.5000000e-2 -0.90555546
v 0.45748096 6.0818277e-2 -0.79238027
v 0.46875000 2.5000000e-2 -0.81189882
v 0.64697578 6.0818277e-2 -0.64697578
v 0.66291261 2.5000000e-2 -0.66291261
v 0.79238027 6.0818277e-2 -0.45748096
v 0.81189882 2.5000000e-2 -0.46875000
v 0.88378535 6.0818277e-2 -0.23680957
v 0.90555546 2.5000000e-2 -0.24264285
v 0.80669255 4.6217248e-2 0.46574416
v 0.65866171 4.6217248e-2 0.65866171
v 0.46574416 4.6217248e-2 0.80669255
v 0.24108692 4.6217248e-2 0.89974863
v 4.8413874e-17 4.6217248e-2 0.93148832
v -0.24108692 4.6217248e-2 0.89974863
v -0.46574416 4.6217248e-2 0.80669255
v -0.65866171 4.6217248e-2 0.65866171
v -0.80669255 4.6217248e-2 0.46574416
v -0.89974863 4.6217248e-2 0.24108692
v -0.93148832 4.6217248e-2 1.1300206e-16
v -0.89974863 4.6217248e-2 -0.24108692
v -0.80669255 4.6217248e-2 -0.46574416
v -0.65866171 4.6217248e-2 -0.65866171
v -0.46574416 4.6217248e-2 -0.80669255
v -0.24108692 4.6217248e-2 -0.89974863
v -1.8169989e-16 4.6217248e-2 -0.93148832
v 0.24108692 4.6217248e-2 -0.89974863
v 0.46574416 4.6217248e-2 -0.80669255
v 0.65866171 4.6217248e-2 -0.65866171
v 0.80669255 4.6217248e-2 -0.46574416
v 0.89974863 4.6217248e-2 0.24108692
v 0.89974863 4.6217248e-2 -0.24108692
v 0.93148832 4.6217248e-2 -3.5076549e-18
vt 0.18371413 0.55300298
vt 0.18371413 0.57464158
vt 0.18371413 0.57678084
vt 0.18371413 0.55300298
vt 0.18371413 0.57464158
vt 0.18371413 0.57678084
vt 0.18371413 0.55300298
vt 0.18371413 0.57464158
vt 0.18371413 0.57678084
vt 0.18371413 0.55300298
vt 0.18371413 0.57464158
vt 0.18371413 0.57678084
vt 0.18371413 0.55300298
vt 0.18371413 0.57464158
vt 0.18371413 0.57678084
vt 0.18371413 0.55300298
vt 0.18371413 0.57464158
vt 0.18371413 0.57678084
vt 0.18546785 0.58683988
vt 0.18546785 0.58683988
vt 0.18546785 0.58683988
vt 0.18546785 0.58683988
vt 0.18546785 0.58683988
vt 0.18546785 0.58683988
vt 0.18639786 0.58887143
vt 0.18639786 0.58887143
vt 0.18639786 0.58887143
vt 0.18639786 0.58887143
vt 0.18639786 0.58887143
vt 0.18639786 0.58887143
vt 0.20053995 0.61843853
vt 0.20053995 0.61843853
vt 0.20053995 0.61843853
vt 0.20053995 0.61843853
vt 0.20053995 0.61843853
vt 0.20053995 0.61843853
vt 0.20741520 0.55300298
vt 0.20741520 0.57464158
vt 0.20741520 0.57678084
vt 0.20741520 0.55300298
vt 0.20741520 0.57464158
vt 0.20741520 0.57678084
vt 0.20741520 0.55300298
vt 0.20741520 0.57464158
vt 0.20741520 0.57678084
vt 0.20741520 0.55300298
vt 0.20741520 0.57464158
vt 0.20741520 0.57678084
vt 0.20741520 0.55300298
vt 0.20741520 0.57464158
vt 0.20741520 0.57678084
vt 0.20741520 0.55300298
vt 0.20741520 0.57464158
vt 0.20741520 0.57678084
vt 0.20764024 0.58683988
vt 0.20764024 0.58683988
vt 0.20764024 0.58683988
vt 0.20764024 0.58683988
vt 0.20764024 0.58683988
vt 0.20764024 0.58683988
vt 0.20813676 0.58887143
vt 0.20813676 0.58887143
vt 0.20813676 0.58887143
vt 0.20813676 0.58887143
vt 0.20813676 0.58887143
vt 0.20813676 0.58887143
vt 0.21539517 0.61843853
vt 0.21539517 0.61843853
vt 0.21539517 0.61843853
vt 0.21539517 0.61843853
vt 0.21539517 0.61843853
vt 0.21539517 0.61843853
vt 0.23111423 0.58887143
vt 0.23111423 0.61843853
vt 0.23111423 0.58887143
vt 0.23111423 0.61843853
vt 0.23111423 0.58683988
vt 0.23111423 0.58683988
vt 0.23111423 0.55300298
vt 0.23111423 0.57464158
vt 0.23111423 0.57678084
vt 0.23111423 0.55300298
vt 0.23111423 0.57464158
vt 0.23111423 0.57678084
vt 0.23111423 0.55300298
vt 0.23111423 0.57464158
vt 0.23111423 0.57678084
vt 0.23111423 0.58887143
vt 0.23111423 0.61843853
vt 0.23111423 0.58683988
vt 0.23111423 0.58887143
vt 0.23111423 0.61843853
vt 0.23111423 0.58683988
vt 0.23111423 0.55300298
vt 0.23111423 0.57464158
vt 0.23111423 0.57678084
vt 0.23111423 0.58683988
vt 0.23111423 0.58887143
vt 0.23111423 0.61843853
vt 0.23111423 0.55300298
vt 0.23111423 0.57464158
vt 0.23111423 0.57678084
vt 0.23111423 0.55300298
vt 0.23111423 0.57464158
vt 0.23111423 0.57678084
vt 0.23111423 0.58683988
vt 0.23111423 0.58887143
vt 0.23111423 0.61843853
vt 0.24683330 0.61843853
vt 0.24683330 0.61843853
vt 0.24683330 0.61843853
vt 0.24683330 0.61843853
vt 0.24683330 0.61843853
vt 0.24683330 0.61843853
vt 0.25409171 0.58887143
vt 0.25409171 0.58887143
vt 0.25409171 0.58887143
vt 0.25409171 0.58887143
vt 0.25409171 0.58887143
vt 0.25409171 0.58887143
vt 0.25458823 0.58683988
vt 0.25458823 0.58683988
vt 0.25458823 0.58683988
vt 0.25458823 0.58683988
vt 0.25458823 0.58683988
vt 0.25458823 0.58683988
vt 0.25481326 0.55300298
vt 0.25481326 0.57464158
vt 0.25481326 0.57678084
vt 0.25481326 0.55300298
vt 0.25481326 0.57464158
vt 0.25481326 0.57678084
vt 0.25481326 0.55300298
vt 0.25481326 0.57464158
vt 0.25481326 0.57678084
vt 0.25481326 0.55300298
vt 0.25481326 0.57464158
vt 0.25481326 0.57678084
vt 0.25481326 0.55300298
vt 0.25481326 0.57464158
vt 0.25481326 0.57678084
vt 0.25481326 0.55300298
vt 0.25481326 0.57464158
vt 0.25481326 0.57678084
vt 0.26168852 0.61843853
vt 0.26168852 0.61843853
vt 0.26168852 0.61843853
vt 0.26168852 0.61843853
vt 0.26168852 0.61843853
vt 0.26168852 0.61843853
vt 0.27583061 0.58887143
vt 0.27583061 0.58887143
vt 0.27583061 0.58887143
vt 0.27583061 0.58887143
vt 0.27583061 0.58887143
vt 0.27583061 0.58887143
vt 0.27676061 0.58683988
vt 0.27676061 0.58683988
vt 0.27676061 0.58683988
vt 0.27676061 0.58683988
vt 0.27676061 0.58683988
vt 0.27676061 0.58683988
vt 0.27851434 0.55300298
vt 0.27851434 0.57464158
vt 0.27851434 0.57678084
vt 0.27851434 0.55300298
vt 0.27851434 0.57464158
vt 0.27851434 0.57678084
vt 0.27851434 0.55300298
vt 0.27851434 0.57464158
vt 0.27851434 0.57678084
vt 0.27851434 0.55300298
vt 0.27851434 0.57464158
vt 0.27851434 0.57678084
vt 0.27851434 0.55300298
vt 0.27851434 0.57464158
vt 0.27851434 0.57678084
vt 0.27851434 0.55300298
vt 0.27851434 0.57464158
vt 0.27851434 0.57678084
vn 1.00000000 0.0000000e+0 -2.3795816e-16
vn 0.96592583 0.0000000e+0 0.25881905
vn 0.86602540 0.0000000e+0 0.50000000
vn 0.70710678 0.0000000e+0 0.70710678
vn 0.50000000 0.0000000e+0 0.86602540
vn 0.25881905 0.0000000e+0 0.96592583
vn 1.6797046e-16 0.0000000e+0 1.00000000
vn -0.25881905 0.0000000e+0 0.96592583
vn -0.50000000 0.0000000e+0 0.86602540
vn -0.70710678 0.0000000e+0 0.70710678
vn -0.86602540 0.0000000e+0 0.50000000
vn -0.96592583 0.0000000e+0 0.25881905
vn -1.00000000 0.0000000e+0 3.4993847e-16
vn -0.96592583 0.0000000e+0 -0.25881905
vn -0.86602540 0.0000000e+0 -0.50000000
vn -0.70710678 0.0000000e+0 -0.70710678
vn -0.50000000 0.0000000e+0 -0.86602540
vn -0.25881905 0.0000000e+0 -0.96592583
vn -4.7591632e-16 0.0000000e+0 -1.00000000
vn 0.25881905 0.0000000e+0 -0.96592583
vn 0.50000000 0.0000000e+0 -0.86602540
vn 0.70710678 0.0000000e+0 -0.70710678
vn 0.86602540 0.0000000e+0 -0.50000000
vn 0.96592583 0.0000000e+0 -0.25881905
vn 0.41798611 0.90152306 0.11199904
vn 0.43273107 0.90152306 -1.2857769e-16
vn 0.41798611 0.90152306 -0.11199904
vn 0.37475610 0.90152306 -0.21636553
vn 0.30598707 0.90152306 -0.30598707
vn 0.21636553 0.90152306 -0.37475610
vn 0.11199904 0.90152306 -0.41798611
vn -2.3282986e-16 0.90152306 -0.43273107
vn -0.11199904 0.90152306 -0.41798611
vn -0.21636553 0.90152306 -0.37475610
vn -0.30598707 0.90152306 -0.30598707
vn -0.37475610 0.90152306 -0.21636553
vn -0.41798611 0.90152306 -0.11199904
vn -0.43273107 0.90152306 1.9460407e-16
vn -0.41798611 0.90152306 0.11199904
vn -0.37475610 0.90152306 0.21636553
vn -0.30598707 0.90152306 0.30598707
vn -0.21636553 0.90152306 0.37475610
vn -0.11199904 0.90152306 0.41798611
vn 1.1467740e-16 0.90152306 0.43273107
vn 0.11199904 0.90152306 0.41798611
vn 0.21636553 0.90152306 0.37475610
vn 0.30598707 0.90152306 0.30598707
vn 0.37475610 0.90152306 0.21636553
vn 0.99048000 0.13765671 -2.4723149e-16
vn 0.55255017 0.83347964 -1.4751445e-16
vn 0.53372248 0.83347964 0.14301051
vn 0.95673021 0.13765671 0.25635509
vn 0.47852249 0.83347964 0.27627509
vn 0.85778084 0.13765671 0.49524000
vn 0.39071197 0.83347964 0.39071197
vn 0.70037512 0.13765671 0.70037512
vn 0.27627509 0.83347964 0.47852249
vn 0.49524000 0.13765671 0.85778084
vn 0.14301051 0.83347964 0.53372248
vn 0.25635509 0.13765671 0.95673021
vn 1.0887972e-16 0.83347964 0.55255017
vn 1.6246641e-16 0.13765671 0.99048000
vn -0.14301051 0.83347964 0.53372248
vn -0.25635509 0.13765671 0.95673021
vn -0.27627509 0.83347964 0.47852249
vn -0.49524000 0.13765671 0.85778084
vn -0.39071197 0.83347964 0.39071197
vn -0.70037512 0.13765671 0.70037512
vn -0.47852249 0.83347964 0.27627509
vn -0.85778084 0.13765671 0.49524000
vn -0.53372248 0.83347964 0.14301051
vn -0.95673021 0.13765671 0.25635509
vn -0.55255017 0.83347964 2.1424718e-16
vn -0.99048000 0.13765671 3.3906033e-16
vn -0.53372248 0.83347964 -0.14301051
vn -0.95673021 0.13765671 -0.25635509
vn -0.47852249 0.83347964 -0.27627509
vn -0.85778084 0.13765671 -0.49524000
vn -0.39071197 0.83347964 -0.39071197
vn -0.70037512 0.13765671 -0.70037512
vn -0.27627509 0.83347964 -0.47852249
vn -0.49524000 0.13765671 -0.85778084
vn -0.14301051 0.83347964 -0.53372248
vn -0.25635509 0.13765671 -0.95673021
vn -2.7746766e-16 0.83347964 -0.55255017
vn -4.7327171e-16 0.13765671 -0.99048000
vn 0.14301051 0.83347964 -0.53372248
vn 0.25635509 0.13765671 -0.95673021
vn 0.27627509 0.83347964 -0.47852249
vn 0.49524000 0.13765671 -0.85778084
vn 0.39071197 0.83347964 -0.39071197
vn 0.70037512 0.13765671 -0.70037512
vn 0.47852249 0.83347964 -0.27627509
vn 0.85778084 0.13765671 -0.49524000
vn 0.53372248 0.83347964 -0.14301051
vn 0.95673021 0.13765671 -0.25635509
vn 0.73270718 0.53309185 0.42302869
vn 0.59825291 0.53309185 0.59825291
vn 0.42302869 0.53309185 0.73270718
vn 0.21897576 0.53309185 0.81722867
vn 1.3457397e-16 0.53309185 0.84605738
vn -0.21897576 0.53309185 0.81722867
vn -0.42302869 0.53309185 0.73270718
vn -0.59825291 0.53309185 0.59825291
vn -0.73270718 0.53309185 0.42302869
vn -0.81722867 0.53309185 0.21897576
vn -0.84605738 0.53309185 2.8733360e-16
vn -0.81722867 0.53309185 -0.21897576
vn -0.73270718 0.53309185 -0.42302869
vn -0.59825291 0.53309185 -0.59825291
vn -0.42302869 0.53309185 -0.73270718
vn -0.21897576 0.53309185 -0.81722867
vn -4.0372190e-16 0.53309185 -0.84605738
vn 0.21897576 0.53309185 -0.81722867
vn 0.42302869 0.53309185 -0.73270718
vn 0.59825291 0.53309185 -0.59825291
vn 0.73270718 0.53309185 -0.42302869
vn 0.81722867 0.53309185 0.21897576
vn 0.81722867 0.53309185 -0.21897576
vn 0.84605738 0.53309185 -2.1822805e-16
g mesh1_mesh1_auv
usemtl mesh1_auv
s 1
f 1/163/1 49/164/49 52/128/52 2/127/2
f 2/127/2 52/128/52 54/80/54 3/79/3
f 3/79/3 54/80/54 56/38/56 4/37/4
f 4/37/4 56/38/56 58/2/58 5/1/5
f 5/172/5 58/173/58 60/137/60 6/136/6
f 6/136/6 60/137/60 62/95/62 7/94/7
f 7/94/7 62/95/62 64/47/64 8/46/8
f 8/46/8 64/47/64 66/11/66 9/10/9
f 9/166/9 66/167/66 68/131/68 10/130/10
f 10/130/10 68/131/68 70/86/70 11/85/11
f 11/85/11 70/86/70 72/44/72 12/43/12
f 12/43/12 72/44/72 74/8/74 13/7/13
f 13/178/13 74/179/74 76/143/76 14/142/14
f 14/142/14 76/143/76 78/104/78 15/103/15
f 15/103/15 78/104/78 80/53/80 16/52/16
f 16/52/16 80/53/80 82/17/82 17/16/17
f 17/169/17 82/170/82 84/134/84 18/133/18
f 18/133/18 84/134/84 86/83/86 19/82/19
f 19/82/19 86/83/86 88/41/88 20/40/20
f 20/40/20 88/41/88 90/5/90 21/4/21
f 21/175/21 90/176/90 92/140/92 22/139/22
f 22/139/22 92/140/92 94/101/94 23/100/23
f 23/100/23 94/101/94 96/50/96 24/49/24
f 24/49/24 96/50/96 49/14/49 1/13/1
f 25/109/25 51/115/51 50/152/50 26/145/26
f 26/35/26 50/29/50 95/65/95 27/71/27
f 27/71/27 95/65/95 93/98/93 28/99/28
f 28/99/28 93/98/93 91/119/91 29/113/29
f 29/113/29 91/119/91 89/155/89 30/149/30
f 30/32/30 89/26/89 87/61/87 31/68/31
f 31/68/31 87/61/87 85/75/85 32/76/32
f 32/76/32 85/75/85 83/116/83 33/110/33
f 33/110/33 83/116/83 81/151/81 34/146/34
f 34/34/34 81/28/81 79/64/79 35/70/35
f 35/70/35 79/64/79 77/91/77 36/92/36
f 36/92/36 77/91/77 75/118/75 37/112/37
f 37/112/37 75/118/75 73/154/73 38/148/38
f 38/33/38 73/27/73 71/63/71 39/69/39
f 39/69/39 71/63/71 69/88/69 40/89/40
f 40/89/40 69/88/69 67/117/67 41/111/41
f 41/111/41 67/117/67 65/153/65 42/147/42
f 42/36/42 65/30/65 63/66/63 43/72/43
f 43/72/43 63/66/63 61/107/61 44/108/44
f 44/108/44 61/107/61 59/120/59 45/114/45
f 45/114/45 59/120/59 57/156/57 46/150/46
f 46/31/46 57/25/57 55/62/55 47/67/47
f 47/67/47 55/62/55 53/73/53 48/74/48
f 48/74/48 53/73/53 51/115/51 25/109/25
f 50/152/50 51/115/51 118/122/118 120/158/120
f 52/128/52 49/164/49 120/165/120 118/129/118
f 53/73/53 97/78/97 118/122/118 51/115/51
f 55/62/55 98/56/98 97/78/97 53/73/53
f 56/38/56 54/80/54 97/81/97 98/39/98
f 57/25/57 99/19/99 98/56/98 55/62/55
f 58/2/58 56/38/56 98/39/98 99/3/99
f 59/120/59 100/126/100 99/162/99 57/156/57
f 60/137/60 58/173/58 99/174/99 100/138/100
f 61/107/61 101/106/101 100/126/100 59/120/59
f 62/95/62 60/137/60 100/138/100 101/96/101
f 63/66/63 102/60/102 101/106/101 61/107/61
f 64/47/64 62/95/62 101/96/101 102/48/102
f 65/30/65 103/24/103 102/60/102 63/66/63
f 66/11/66 64/47/64 102/48/102 103/12/103
f 67/117/67 104/123/104 103/159/103 65/153/65
f 68/131/68 66/167/66 103/168/103 104/132/104
f 69/88/69 105/90/105 104/123/104 67/117/67
f 70/86/70 68/131/68 104/132/104 105/87/105
f 71/63/71 106/57/106 105/90/105 69/88/69
f 72/44/72 70/86/70 105/87/105 106/45/106
f 73/27/73 107/21/107 106/57/106 71/63/71
f 74/8/74 72/44/72 106/45/106 107/9/107
f 75/118/75 108/124/108 107/160/107 73/154/73
f 76/143/76 74/179/74 107/180/107 108/144/108
f 77/91/77 109/93/109 108/124/108 75/118/75
f 78/104/78 76/143/76 108/144/108 109/105/109
f 79/64/79 110/58/110 109/93/109 77/91/77
f 80/53/80 78/104/78 109/105/109 110/54/110
f 81/28/81 111/22/111 110/58/110 79/64/79
f 82/17/82 80/53/80 110/54/110 111/18/111
f 83/116/83 112/121/112 111/157/111 81/151/81
f 84/134/84 82/170/82 111/171/111 112/135/112
f 85/75/85 113/77/113 112/121/112 83/116/83
f 86/83/86 84/134/84 112/135/112 113/84/113
f 87/61/87 114/55/114 113/77/113 85/75/85
f 88/41/88 86/83/86 113/84/113 114/42/114
f 89/26/89 115/20/115 114/55/114 87/61/87
f 90/5/90 88/41/88 114/42/114 115/6/115
f 91/119/91 116/125/116 115/161/115 89/155/89
f 92/140/92 90/176/90 115/177/115 116/141/116
f 93/98/93 117/97/117 116/125/116 91/119/91
f 94/101/94 92/140/92 116/141/116 117/102/117
f 96/50/96 119/51/119 120/15/120 49/14/49
f 117/102/117 119/51/119 96/50/96 94/101/94
f 118/129/118 97/81/97 54/80/54 52/128/52
f 119/59/119 117/97/117 93/98/93 95/65/95
f 120/23/120 119/59/119 95/65/95 50/29/50
