# Exported from Wings 3D 1.5.4
mtllib eridani_node_s0p5_1_collider.mtl
o collider
#24 vertices, 14 faces
v -0.50000000 -0.50000000 -0.15000000
v -0.50000000 -0.15000000 -0.50000000
v -0.15000000 -0.50000000 -0.50000000
v -0.50000000 -0.50000000 0.15000000
v -0.50000000 -0.15000000 0.50000000
v -0.15000000 -0.50000000 0.50000000
v -0.50000000 0.15000000 -0.50000000
v -0.15000000 0.50000000 -0.50000000
v -0.50000000 0.50000000 -0.15000000
v -0.50000000 0.15000000 0.50000000
v -0.50000000 0.50000000 0.15000000
v -0.15000000 0.50000000 0.50000000
v 0.15000000 -0.50000000 -0.50000000
v 0.50000000 -0.50000000 -0.15000000
v 0.50000000 -0.15000000 -0.50000000
v 0.15000000 -0.50000000 0.50000000
v 0.50000000 -0.15000000 0.50000000
v 0.50000000 -0.50000000 0.15000000
v 0.15000000 0.50000000 -0.50000000
v 0.50000000 0.15000000 -0.50000000
v 0.50000000 0.50000000 -0.15000000
v 0.15000000 0.50000000 0.50000000
v 0.50000000 0.50000000 0.15000000
v 0.50000000 0.15000000 0.50000000
vn 0.0000000e+0 -1.00000000 0.0000000e+0
vn -1.00000000 0.0000000e+0 0.0000000e+0
vn -0.57735027 -0.57735027 -0.57735027
vn 0.0000000e+0 0.0000000e+0 -1.00000000
vn -1.00000000 0.0000000e+0 0.0000000e+0
vn -0.57735027 -0.57735027 -0.57735027
vn 0.0000000e+0 -1.00000000 0.0000000e+0
vn 0.0000000e+0 0.0000000e+0 -1.00000000
vn -0.57735027 -0.57735027 -0.57735027
vn 0.0000000e+0 -1.00000000 0.0000000e+0
vn -1.00000000 0.0000000e+0 0.0000000e+0
vn -0.57735027 -0.57735027 0.57735027
vn 0.0000000e+0 0.0000000e+0 1.00000000
vn -1.00000000 0.0000000e+0 0.0000000e+0
vn -0.57735027 -0.57735027 0.57735027
vn 0.0000000e+0 -1.00000000 0.0000000e+0
vn 0.0000000e+0 0.0000000e+0 1.00000000
vn -0.57735027 -0.57735027 0.57735027
vn 0.0000000e+0 0.0000000e+0 -1.00000000
vn -1.00000000 0.0000000e+0 0.0000000e+0
vn -0.57735027 0.57735027 -0.57735027
vn 0.0000000e+0 1.00000000 0.0000000e+0
vn 0.0000000e+0 0.0000000e+0 -1.00000000
vn -0.57735027 0.57735027 -0.57735027
vn 0.0000000e+0 1.00000000 0.0000000e+0
vn -1.00000000 0.0000000e+0 0.0000000e+0
vn -0.57735027 0.57735027 -0.57735027
vn 0.0000000e+0 0.0000000e+0 1.00000000
vn -1.00000000 0.0000000e+0 0.0000000e+0
vn -0.57735027 0.57735027 0.57735027
vn 0.0000000e+0 1.00000000 0.0000000e+0
vn -1.00000000 0.0000000e+0 0.0000000e+0
vn -0.57735027 0.57735027 0.57735027
vn 0.0000000e+0 1.00000000 0.0000000e+0
vn 0.0000000e+0 0.0000000e+0 1.00000000
vn -0.57735027 0.57735027 0.57735027
vn 0.0000000e+0 -1.00000000 0.0000000e+0
vn 0.0000000e+0 0.0000000e+0 -1.00000000
vn 0.57735027 -0.57735027 -0.57735027
vn 0.0000000e+0 -1.00000000 0.0000000e+0
vn 1.00000000 0.0000000e+0 0.0000000e+0
vn 0.57735027 -0.57735027 -0.57735027
vn 0.0000000e+0 0.0000000e+0 -1.00000000
vn 1.00000000 0.0000000e+0 0.0000000e+0
vn 0.57735027 -0.57735027 -0.57735027
vn 0.0000000e+0 -1.00000000 0.0000000e+0
vn 0.0000000e+0 0.0000000e+0 1.00000000
vn 0.57735027 -0.57735027 0.57735027
vn 0.0000000e+0 0.0000000e+0 1.00000000
vn 1.00000000 0.0000000e+0 0.0000000e+0
vn 0.57735027 -0.57735027 0.57735027
vn 0.0000000e+0 -1.00000000 0.0000000e+0
vn 1.00000000 0.0000000e+0 0.0000000e+0
vn 0.57735027 -0.57735027 0.57735027
vn 0.0000000e+0 1.00000000 0.0000000e+0
vn 0.0000000e+0 0.0000000e+0 -1.00000000
vn 0.57735027 0.57735027 -0.57735027
vn 0.0000000e+0 0.0000000e+0 -1.00000000
vn 1.00000000 0.0000000e+0 0.0000000e+0
vn 0.57735027 0.57735027 -0.57735027
vn 0.0000000e+0 1.00000000 0.0000000e+0
vn 1.00000000 0.0000000e+0 0.0000000e+0
vn 0.57735027 0.57735027 -0.57735027
vn 0.0000000e+0 1.00000000 0.0000000e+0
vn 0.0000000e+0 0.0000000e+0 1.00000000
vn 0.57735027 0.57735027 0.57735027
vn 0.0000000e+0 1.00000000 0.0000000e+0
vn 1.00000000 0.0000000e+0 0.0000000e+0
vn 0.57735027 0.57735027 0.57735027
vn 0.0000000e+0 0.0000000e+0 1.00000000
vn 1.00000000 0.0000000e+0 0.0000000e+0
vn 0.57735027 0.57735027 0.57735027
g collider_default
usemtl default
s 1
f 4//11 5//14 10//29 11//32 9//26 7//20 2//5 1//2
f 14//41 15//44 20//59 21//62 23//68 24//71 17//50 18//53
s 2
f 1//3 2//6 3//9
f 5//13 6//17 16//47 17//49 24//70 22//65 12//35 10//28
f 7//21 9//27 8//24
f 13//39 15//45 14//42
f 19//57 21//63 20//60
s 3
f 4//12 6//18 5//15
f 11//31 12//34 22//64 23//67 21//61 19//55 8//22 9//25
f 16//48 18//54 17//51
s 4
f 7//19 8//23 19//56 20//58 15//43 13//38 3//8 2//4
f 10//30 12//36 11//33
f 22//66 24//72 23//69
s 5
f 1//1 3//7 13//37 14//40 18//52 16//46 6//16 4//10
