# Exported from Wings 3D 1.5.4
mtllib eridani_adapter_s1p5_s0p5_1.mtl
o mesh1
#120 vertices, 96 faces
v 0.93750000 -0.20000000 -2.0961242e-18
v 0.90555546 -0.20000000 0.24264285
v 0.81189882 -0.20000000 0.46875000
v 0.66291261 -0.20000000 0.66291261
v 0.46875000 -0.20000000 0.81189882
v 0.24264285 -0.20000000 0.90555546
v 0.0000000e+0 -0.20000000 0.93750000
v -0.24264285 -0.20000000 0.90555546
v -0.46875000 -0.20000000 0.81189882
v -0.66291261 -0.20000000 0.66291261
v -0.81189882 -0.20000000 0.46875000
v -0.90555546 -0.20000000 0.24264285
v -0.93750000 -0.20000000 1.1271451e-16
v -0.90555546 -0.20000000 -0.24264285
v -0.81189882 -0.20000000 -0.46875000
v -0.66291261 -0.20000000 -0.66291261
v -0.46875000 -0.20000000 -0.81189882
v -0.24264285 -0.20000000 -0.90555546
v -2.2962127e-16 -0.20000000 -0.93750000
v 0.24264285 -0.20000000 -0.90555546
v 0.46875000 -0.20000000 -0.81189882
v 0.66291261 -0.20000000 -0.66291261
v 0.81189882 -0.20000000 -0.46875000
v 0.90555546 -0.20000000 -0.24264285
v 0.45277773 0.20000000 0.12132143
v 0.46875000 0.20000000 -1.0299921e-17
v 0.45277773 0.20000000 -0.12132143
v 0.40594941 0.20000000 -0.23437500
v 0.33145630 0.20000000 -0.33145630
v 0.23437500 0.20000000 -0.40594941
v 0.12132143 0.20000000 -0.45277773
v -1.6230613e-16 0.20000000 -0.46875000
v -0.12132143 0.20000000 -0.45277773
v -0.23437500 0.20000000 -0.40594941
v -0.33145630 0.20000000 -0.33145630
v -0.40594941 0.20000000 -0.23437500
v -0.45277773 0.20000000 -0.12132143
v -0.46875000 0.20000000 4.7105398e-17
v -0.45277773 0.20000000 0.12132143
v -0.40594941 0.20000000 0.23437500
v -0.33145630 0.20000000 0.33145630
v -0.23437500 0.20000000 0.40594941
v -0.12132143 0.20000000 0.45277773
v -4.7495497e-17 0.20000000 0.46875000
v 0.12132143 0.20000000 0.45277773
v 0.23437500 0.20000000 0.40594941
v 0.33145630 0.20000000 0.33145630
v 0.40594941 0.20000000 0.23437500
v 0.93750000 2.5000000e-2 -2.0961242e-18
v 0.91368940 5.7619393e-2 -2.5128439e-18
v 0.88255619 5.7619393e-2 0.23648022
v 0.90555546 2.5000000e-2 0.24264285
v 0.79127823 5.7619393e-2 0.45684470
v 0.81189882 2.5000000e-2 0.46875000
v 0.64607597 5.7619393e-2 0.64607597
v 0.66291261 2.5000000e-2 0.66291261
v 0.45684470 5.7619393e-2 0.79127823
v 0.46875000 2.5000000e-2 0.81189882
v 0.23648022 5.7619393e-2 0.88255619
v 0.24264285 2.5000000e-2 0.90555546
v -2.4125791e-18 5.7619393e-2 0.91368940
v 0.0000000e+0 2.5000000e-2 0.93750000
v -0.23648022 5.7619393e-2 0.88255619
v -0.24264285 2.5000000e-2 0.90555546
v -0.45684470 5.7619393e-2 0.79127823
v -0.46875000 2.5000000e-2 0.81189882
v -0.64607597 5.7619393e-2 0.64607597
v -0.66291261 2.5000000e-2 0.66291261
v -0.79127823 5.7619393e-2 0.45684470
v -0.81189882 2.5000000e-2 0.46875000
v -0.88255619 5.7619393e-2 0.23648022
v -0.90555546 2.5000000e-2 0.24264285
v -0.91368940 5.7619393e-2 1.0938184e-16
v -0.93750000 2.5000000e-2 1.1271451e-16
v -0.88255619 5.7619393e-2 -0.23648022
v -0.90555546 2.5000000e-2 -0.24264285
v -0.79127823 5.7619393e-2 -0.45684470
v -0.81189882 2.5000000e-2 -0.46875000
v -0.64607597 5.7619393e-2 -0.64607597
v -0.66291261 2.5000000e-2 -0.66291261
v -0.45684470 5.7619393e-2 -0.79127823
v -0.46875000 2.5000000e-2 -0.81189882
v -0.23648022 5.7619393e-2 -0.88255619
v -0.24264285 2.5000000e-2 -0.90555546
v -2.2620194e-16 5.7619393e-2 -0.91368940
v -2.2962127e-16 2.5000000e-2 -0.93750000
v 0.23648022 5.7619393e-2 -0.88255619
v 0.24264285 2.5000000e-2 -0.90555546
v 0.45684470 5.7619393e-2 -0.79127823
v 0.46875000 2.5000000e-2 -0.81189882
v 0.64607597 5.7619393e-2 -0.64607597
v 0.66291261 2.5000000e-2 -0.66291261
v 0.79127823 5.7619393e-2 -0.45684470
v 0.81189882 2.5000000e-2 -0.46875000
v 0.88255619 5.7619393e-2 -0.23648022
v 0.90555546 2.5000000e-2 -0.24264285
v 0.80593585 4.4973953e-2 0.46530728
v 0.65804386 4.4973953e-2 0.65804386
v 0.46530728 4.4973953e-2 0.80593585
v 0.24086077 4.4973953e-2 0.89890463
v -4.6903208e-19 4.4973953e-2 0.93061456
v -0.24086077 4.4973953e-2 0.89890463
v -0.46530728 4.4973953e-2 0.80593585
v -0.65804386 4.4973953e-2 0.65804386
v -0.80593585 4.4973953e-2 0.46530728
v -0.89890463 4.4973953e-2 0.24086077
v -0.93061456 4.4973953e-2 1.1278290e-16
v -0.89890463 4.4973953e-2 -0.24086077
v -0.80593585 4.4973953e-2 -0.46530728
v -0.65804386 4.4973953e-2 -0.65804386
v -0.46530728 4.4973953e-2 -0.80593585
v -0.24086077 4.4973953e-2 -0.89890463
v -2.3029685e-16 4.4973953e-2 -0.93061456
v 0.24086077 4.4973953e-2 -0.89890463
v 0.46530728 4.4973953e-2 -0.80593585
v 0.65804386 4.4973953e-2 -0.65804386
v 0.80593585 4.4973953e-2 -0.46530728
v 0.89890463 4.4973953e-2 0.24086077
v 0.89890463 4.4973953e-2 -0.24086077
v 0.93061456 4.4973953e-2 -3.5187905e-18
vt 0.18363922 0.46405553
vt 0.18363922 0.48611867
vt 0.18363922 0.48817566
vt 0.18363922 0.46405553
vt 0.18363922 0.48611867
vt 0.18363922 0.48817566
vt 0.18363922 0.46405553
vt 0.18363922 0.48611867
vt 0.18363922 0.48817566
vt 0.18363922 0.46405553
vt 0.18363922 0.48611867
vt 0.18363922 0.48817566
vt 0.18363922 0.46405553
vt 0.18363922 0.48611867
vt 0.18363922 0.48817566
vt 0.18363922 0.46405553
vt 0.18363922 0.48611867
vt 0.18363922 0.48817566
vt 0.18562749 0.49823675
vt 0.18562749 0.49823675
vt 0.18562749 0.49823675
vt 0.18562749 0.49823675
vt 0.18562749 0.49823675
vt 0.18562749 0.49823675
vt 0.18657448 0.50017744
vt 0.18657448 0.50017744
vt 0.18657448 0.50017744
vt 0.18657448 0.50017744
vt 0.18657448 0.50017744
vt 0.18657448 0.50017744
vt 0.20742487 0.46405553
vt 0.20742487 0.48611867
vt 0.20742487 0.48817566
vt 0.20742487 0.46405553
vt 0.20742487 0.48611867
vt 0.20742487 0.48817566
vt 0.20742487 0.46405553
vt 0.20742487 0.48611867
vt 0.20742487 0.48817566
vt 0.20742487 0.46405553
vt 0.20742487 0.48611867
vt 0.20742487 0.48817566
vt 0.20742487 0.46405553
vt 0.20742487 0.48611867
vt 0.20742487 0.48817566
vt 0.20742487 0.46405553
vt 0.20742487 0.48611867
vt 0.20742487 0.48817566
vt 0.20767130 0.49823675
vt 0.20767130 0.49823675
vt 0.20767130 0.49823675
vt 0.20767130 0.49823675
vt 0.20767130 0.49823675
vt 0.20767130 0.49823675
vt 0.20817799 0.50017744
vt 0.20817799 0.50017744
vt 0.20817799 0.50017744
vt 0.20817799 0.50017744
vt 0.20817799 0.50017744
vt 0.20817799 0.50017744
vt 0.20826321 0.54272136
vt 0.20826321 0.54272136
vt 0.20826321 0.54272136
vt 0.20826321 0.54272136
vt 0.20826321 0.54272136
vt 0.20826321 0.54272136
vt 0.21934564 0.54272136
vt 0.21934564 0.54272136
vt 0.21934564 0.54272136
vt 0.21934564 0.54272136
vt 0.21934564 0.54272136
vt 0.21934564 0.54272136
vt 0.23120887 0.46405553
vt 0.23120887 0.48611867
vt 0.23120887 0.48817566
vt 0.23120887 0.48817566
vt 0.23120887 0.48817566
vt 0.23120887 0.48817566
vt 0.23120887 0.50017744
vt 0.23120887 0.54272136
vt 0.23120887 0.49823675
vt 0.23120887 0.49823675
vt 0.23120887 0.50017744
vt 0.23120887 0.54272136
vt 0.23120887 0.46405553
vt 0.23120887 0.48611867
vt 0.23120887 0.49823675
vt 0.23120887 0.50017744
vt 0.23120887 0.54272136
vt 0.23120887 0.49823675
vt 0.23120887 0.50017744
vt 0.23120887 0.54272136
vt 0.23120887 0.48817566
vt 0.23120887 0.50017744
vt 0.23120887 0.54272136
vt 0.23120887 0.49823675
vt 0.23120887 0.49823675
vt 0.23120887 0.50017744
vt 0.23120887 0.54272136
vt 0.23120887 0.48611867
vt 0.23120887 0.46405553
vt 0.23120887 0.46405553
vt 0.23120887 0.48611867
vt 0.23120887 0.46405553
vt 0.23120887 0.48611867
vt 0.23120887 0.46405553
vt 0.23120887 0.48611867
vt 0.23120887 0.48817566
vt 0.24307209 0.54272136
vt 0.24307209 0.54272136
vt 0.24307209 0.54272136
vt 0.24307209 0.54272136
vt 0.24307209 0.54272136
vt 0.24307209 0.54272136
vt 0.25415452 0.54272136
vt 0.25415452 0.54272136
vt 0.25415452 0.54272136
vt 0.25415452 0.54272136
vt 0.25415452 0.54272136
vt 0.25415452 0.54272136
vt 0.25423974 0.50017744
vt 0.25423974 0.50017744
vt 0.25423974 0.50017744
vt 0.25423974 0.50017744
vt 0.25423974 0.50017744
vt 0.25423974 0.50017744
vt 0.25474643 0.49823675
vt 0.25474643 0.49823675
vt 0.25474643 0.49823675
vt 0.25474643 0.49823675
vt 0.25474643 0.49823675
vt 0.25474643 0.49823675
vt 0.25499287 0.46405553
vt 0.25499287 0.48611867
vt 0.25499287 0.48817566
vt 0.25499287 0.46405553
vt 0.25499287 0.48611867
vt 0.25499287 0.48817566
vt 0.25499287 0.46405553
vt 0.25499287 0.48611867
vt 0.25499287 0.48817566
vt 0.25499287 0.46405553
vt 0.25499287 0.48611867
vt 0.25499287 0.48817566
vt 0.25499287 0.46405553
vt 0.25499287 0.48611867
vt 0.25499287 0.48817566
vt 0.25499287 0.46405553
vt 0.25499287 0.48611867
vt 0.25499287 0.48817566
vt 0.27584325 0.50017744
vt 0.27584325 0.50017744
vt 0.27584325 0.50017744
vt 0.27584325 0.50017744
vt 0.27584325 0.50017744
vt 0.27584325 0.50017744
vt 0.27679024 0.49823675
vt 0.27679024 0.49823675
vt 0.27679024 0.49823675
vt 0.27679024 0.49823675
vt 0.27679024 0.49823675
vt 0.27877851 0.46405553
vt 0.27877851 0.48611867
vt 0.27877851 0.48817566
vt 0.27877851 0.46405553
vt 0.27877851 0.48611867
vt 0.27877851 0.48817566
vt 0.27877851 0.46405553
vt 0.27877851 0.48611867
vt 0.27877851 0.48817566
vt 0.27877851 0.46405553
vt 0.27877851 0.48611867
vt 0.27877851 0.48817566
vt 0.27877851 0.46405553
vt 0.27877851 0.48611867
vt 0.27877851 0.48817566
vt 0.27877851 0.46405553
vt 0.27877851 0.48611867
vt 0.27877851 0.48817566
vn 1.00000000 0.0000000e+0 -2.3795816e-16
vn 0.96592583 0.0000000e+0 0.25881905
vn 0.86602540 0.0000000e+0 0.50000000
vn 0.70710678 0.0000000e+0 0.70710678
vn 0.50000000 0.0000000e+0 0.86602540
vn 0.25881905 0.0000000e+0 0.96592583
vn 1.6797046e-16 0.0000000e+0 1.00000000
vn -0.25881905 0.0000000e+0 0.96592583
vn -0.50000000 0.0000000e+0 0.86602540
vn -0.70710678 0.0000000e+0 0.70710678
vn -0.86602540 0.0000000e+0 0.50000000
vn -0.96592583 0.0000000e+0 0.25881905
vn -1.00000000 0.0000000e+0 3.4993847e-16
vn -0.96592583 0.0000000e+0 -0.25881905
vn -0.86602540 0.0000000e+0 -0.50000000
vn -0.70710678 0.0000000e+0 -0.70710678
vn -0.50000000 0.0000000e+0 -0.86602540
vn -0.25881905 0.0000000e+0 -0.96592583
vn -4.6191878e-16 0.0000000e+0 -1.00000000
vn 0.25881905 0.0000000e+0 -0.96592583
vn 0.50000000 0.0000000e+0 -0.86602540
vn 0.70710678 0.0000000e+0 -0.70710678
vn 0.86602540 0.0000000e+0 -0.50000000
vn 0.96592583 0.0000000e+0 -0.25881905
vn 0.29439075 0.95242415 7.8881763e-2
vn 0.30477573 0.95242415 -1.2500059e-16
vn 0.29439075 0.95242415 -7.8881763e-2
vn 0.26394352 0.95242415 -0.15238786
vn 0.21550898 0.95242415 -0.21550898
vn 0.15238786 0.95242415 -0.26394352
vn 7.8881763e-2 0.95242415 -0.29439075
vn -1.6319522e-16 0.95242415 -0.30477573
vn -7.8881763e-2 0.95242415 -0.29439075
vn -0.15238786 0.95242415 -0.26394352
vn -0.21550898 0.95242415 -0.21550898
vn -0.26394352 0.95242415 -0.15238786
vn -0.29439075 0.95242415 -7.8881763e-2
vn -0.30477573 0.95242415 1.1458388e-16
vn -0.29439075 0.95242415 7.8881763e-2
vn -0.26394352 0.95242415 0.15238786
vn -0.21550898 0.95242415 0.21550898
vn -0.15238786 0.95242415 0.26394352
vn -7.8881763e-2 0.95242415 0.29439075
vn 2.0833432e-17 0.95242415 0.30477573
vn 7.8881763e-2 0.95242415 0.29439075
vn 0.15238786 0.95242415 0.26394352
vn 0.21550898 0.95242415 0.21550898
vn 0.26394352 0.95242415 0.15238786
vn 0.98624402 0.16529591 -2.4116485e-16
vn 0.45777704 0.88906703 -1.4451091e-16
vn 0.44217867 0.88906703 0.11848142
vn 0.95263857 0.16529591 0.25525874
vn 0.39644655 0.88906703 0.22888852
vn 0.85411237 0.16529591 0.49312201
vn 0.32369725 0.88906703 0.32369725
vn 0.69737983 0.16529591 0.69737983
vn 0.22888852 0.88906703 0.39644655
vn 0.49312201 0.16529591 0.85411237
vn 0.11848142 0.88906703 0.44217867
vn 0.25525874 0.16529591 0.95263857
vn 6.6968471e-17 0.88906703 0.45777704
vn 1.6668747e-16 0.16529591 0.98624402
vn -0.11848142 0.88906703 0.44217867
vn -0.25525874 0.16529591 0.95263857
vn -0.22888852 0.88906703 0.39644655
vn -0.49312201 0.16529591 0.85411237
vn -0.32369725 0.88906703 0.32369725
vn -0.69737983 0.16529591 0.69737983
vn -0.39644655 0.88906703 0.22888852
vn -0.85411237 0.16529591 0.49312201
vn -0.44217867 0.88906703 0.11848142
vn -0.95263857 0.16529591 0.25525874
vn -0.45777704 0.88906703 1.7270816e-16
vn -0.98624402 0.16529591 3.4401456e-16
vn -0.44217867 0.88906703 -0.11848142
vn -0.95263857 0.16529591 -0.25525874
vn -0.39644655 0.88906703 -0.22888852
vn -0.85411237 0.16529591 -0.49312201
vn -0.32369725 0.88906703 -0.32369725
vn -0.69737983 0.16529591 -0.69737983
vn -0.22888852 0.88906703 -0.39644655
vn -0.49312201 0.16529591 -0.85411237
vn -0.11848142 0.88906703 -0.44217867
vn -0.25525874 0.16529591 -0.95263857
vn -2.2910266e-16 0.88906703 -0.45777704
vn -4.5041082e-16 0.16529591 -0.98624402
vn 0.11848142 0.88906703 -0.44217867
vn 0.25525874 0.16529591 -0.95263857
vn 0.22888852 0.88906703 -0.39644655
vn 0.49312201 0.16529591 -0.85411237
vn 0.32369725 0.88906703 -0.32369725
vn 0.69737983 0.16529591 -0.69737983
vn 0.39644655 0.88906703 -0.22888852
vn 0.85411237 0.16529591 -0.49312201
vn 0.44217867 0.88906703 -0.11848142
vn 0.95263857 0.16529591 -0.25525874
vn 0.69913237 0.59015697 0.40364426
vn 0.57083919 0.59015697 0.57083919
vn 0.40364426 0.59015697 0.69913237
vn 0.20894164 0.59015697 0.77978083
vn 1.4233719e-16 0.59015697 0.80728852
vn -0.20894164 0.59015697 0.77978083
vn -0.40364426 0.59015697 0.69913237
vn -0.57083919 0.59015697 0.57083919
vn -0.69913237 0.59015697 0.40364426
vn -0.77978083 0.59015697 0.20894164
vn -0.80728852 0.59015697 2.8832406e-16
vn -0.77978083 0.59015697 -0.20894164
vn -0.69913237 0.59015697 -0.40364426
vn -0.57083919 0.59015697 -0.57083919
vn -0.40364426 0.59015697 -0.69913237
vn -0.20894164 0.59015697 -0.77978083
vn -3.7226651e-16 0.59015697 -0.80728852
vn 0.20894164 0.59015697 -0.77978083
vn 0.40364426 0.59015697 -0.69913237
vn 0.57083919 0.59015697 -0.57083919
vn 0.69913237 0.59015697 -0.40364426
vn 0.77978083 0.59015697 0.20894164
vn 0.77978083 0.59015697 -0.20894164
vn 0.80728852 0.59015697 -2.0803128e-16
g mesh1_mesh1_auv
usemtl mesh1_auv
s 1
f 1/174/1 49/175/49 52/143/52 2/142/2
f 2/142/2 52/143/52 54/107/54 3/106/3
f 3/106/3 54/107/54 56/41/56 4/40/4
f 4/40/4 56/41/56 58/11/58 5/10/5
f 5/7/5 58/8/58 60/38/60 6/37/6
f 6/37/6 60/38/60 62/86/62 7/85/7
f 7/85/7 62/86/62 64/149/64 8/148/8
f 8/148/8 64/149/64 66/178/66 9/177/9
f 9/168/9 66/169/66 68/140/68 10/139/10
f 10/139/10 68/140/68 70/103/70 11/102/11
f 11/102/11 70/103/70 72/47/72 12/46/12
f 12/46/12 72/47/72 74/17/74 13/16/13
f 13/4/13 74/5/74 76/35/76 14/34/14
f 14/34/14 76/35/76 78/100/78 15/101/15
f 15/101/15 78/100/78 80/137/80 16/136/16
f 16/136/16 80/137/80 82/166/82 17/165/17
f 17/171/17 82/172/82 84/146/84 18/145/18
f 18/145/18 84/146/84 86/74/86 19/73/19
f 19/73/19 86/74/86 88/44/88 20/43/20
f 20/43/20 88/44/88 90/14/90 21/13/21
f 21/1/21 90/2/90 92/32/92 22/31/22
f 22/31/22 92/32/92 94/105/94 23/104/23
f 23/104/23 94/105/94 96/134/96 24/133/24
f 24/133/24 96/134/96 49/163/49 1/162/1
f 25/109/25 51/122/51 50/154/50 26/115/26
f 26/116/26 50/156/50 95/125/95 27/110/27
f 27/110/27 95/125/95 93/98/93 28/99/28
f 28/99/28 93/98/93 91/60/91 29/71/29
f 29/71/29 91/60/91 89/30/89 30/62/30
f 30/64/30 89/28/89 87/58/87 31/70/31
f 31/70/31 87/58/87 85/91/85 32/92/32
f 32/92/32 85/91/85 83/124/83 33/112/33
f 33/112/33 83/124/83 81/153/81 34/117/34
f 34/119/34 81/151/81 79/121/79 35/111/35
f 35/111/35 79/121/79 77/79/77 36/80/36
f 36/80/36 77/79/77 75/56/75 37/68/37
f 37/68/37 75/56/75 73/25/73 38/63/38
f 38/66/38 73/27/73 71/59/71 39/72/39
f 39/72/39 71/59/71 69/94/69 40/95/40
f 40/95/40 69/94/69 67/126/67 41/114/41
f 41/114/41 67/126/67 65/155/65 42/120/42
f 42/118/42 65/152/65 63/123/63 43/113/43
f 43/113/43 63/123/63 61/88/61 44/89/44
f 44/89/44 61/88/61 59/57/59 45/69/45
f 45/69/45 59/57/59 57/29/57 46/65/46
f 46/61/46 57/26/57 55/55/55 47/67/47
f 47/67/47 55/55/55 53/83/53 48/84/48
f 48/84/48 53/83/53 51/122/51 25/109/25
f 50/154/50 51/122/51 118/128/118 120/159/120
f 52/143/52 49/175/49 120/176/120 118/144/118
f 53/83/53 97/82/97 118/128/118 51/122/51
f 55/55/55 98/49/98 97/82/97 53/83/53
f 56/41/56 54/107/54 97/76/97 98/42/98
f 57/26/57 99/21/99 98/49/98 55/55/55
f 58/11/58 56/41/56 98/42/98 99/12/99
f 59/57/59 100/51/100 99/23/99 57/29/57
f 60/38/60 58/8/58 99/9/99 100/39/100
f 61/88/61 101/87/101 100/51/100 59/57/59
f 62/86/62 60/38/60 100/39/100 101/93/101
f 63/123/63 102/129/102 101/87/101 61/88/61
f 64/149/64 62/86/62 101/93/101 102/150/102
f 65/152/65 103/158/103 102/129/102 63/123/63
f 66/178/66 64/149/64 102/150/102 103/179/103
f 67/126/67 104/132/104 103/160/103 65/155/65
f 68/140/68 66/169/66 103/170/103 104/141/104
f 69/94/69 105/96/105 104/132/104 67/126/67
f 70/103/70 68/140/68 104/141/104 105/77/105
f 71/59/71 106/53/106 105/96/105 69/94/69
f 72/47/72 70/103/70 105/77/105 106/48/106
f 73/27/73 107/20/107 106/53/106 71/59/71
f 74/17/74 72/47/72 106/48/106 107/18/107
f 75/56/75 108/50/108 107/19/107 73/25/73
f 76/35/76 74/5/74 107/6/107 108/36/108
f 77/79/77 109/81/109 108/50/108 75/56/75
f 78/100/78 76/35/76 108/36/108 109/78/109
f 79/121/79 110/127/110 109/81/109 77/79/77
f 80/137/80 78/100/78 109/78/109 110/138/110
f 81/151/81 111/157/111 110/127/110 79/121/79
f 82/166/82 80/137/80 110/138/110 111/167/111
f 83/124/83 112/130/112 111/159/111 81/153/81
f 84/146/84 82/172/82 111/173/111 112/147/112
f 85/91/85 113/90/113 112/130/112 83/124/83
f 86/74/86 84/146/84 112/147/112 113/108/113
f 87/58/87 114/52/114 113/90/113 85/91/85
f 88/44/88 86/74/86 113/108/113 114/45/114
f 89/28/89 115/22/115 114/52/114 87/58/87
f 90/14/90 88/44/88 114/45/114 115/15/115
f 91/60/91 116/54/116 115/24/115 89/30/89
f 92/32/92 90/2/90 115/3/115 116/33/116
f 93/98/93 117/97/117 116/54/116 91/60/91
f 94/105/94 92/32/92 116/33/116 117/75/117
f 96/134/96 119/135/119 120/164/120 49/163/49
f 117/75/117 119/135/119 96/134/96 94/105/94
f 118/144/118 97/76/97 54/107/54 52/143/52
f 119/131/119 117/97/117 93/98/93 95/125/95
f 120/161/120 119/131/119 95/125/95 50/156/50
