# Exported from Wings 3D 1.5.4
mtllib Eridani_Solar_1_Base.mtl
o Eridani_Solar_1_Base
#64 vertices, 50 faces
v 5.2500000e-2 3.1041283e-17 -6.2500000e-2
v 4.8503675e-2 -2.0090880e-2 -6.2500000e-2
v 3.7123106e-2 -3.7123106e-2 -6.2500000e-2
v 2.0090880e-2 -4.8503675e-2 -6.2500000e-2
v 7.4994648e-18 -5.2500000e-2 -6.2500000e-2
v -2.0090880e-2 -4.8503675e-2 -6.2500000e-2
v -3.7123106e-2 -3.7123106e-2 -6.2500000e-2
v -4.8503675e-2 -2.0090880e-2 -6.2500000e-2
v -5.2500000e-2 2.4611887e-17 -6.2500000e-2
v -4.8503675e-2 2.0090880e-2 -6.2500000e-2
v -3.7123106e-2 3.7123106e-2 -6.2500000e-2
v -2.0090880e-2 4.8503675e-2 -6.2500000e-2
v -5.3593266e-18 5.2500000e-2 -6.2500000e-2
v 2.0090880e-2 4.8503675e-2 -6.2500000e-2
v 3.7123106e-2 3.7123106e-2 -6.2500000e-2
v 4.8503675e-2 2.0090880e-2 -6.2500000e-2
v 5.2500000e-2 2.4376646e-17 -0.11250000
v 4.8503675e-2 -2.0090880e-2 -0.11250000
v 3.7123106e-2 -3.7123106e-2 -0.11250000
v 2.0090880e-2 -4.8503675e-2 -0.11250000
v 7.4352209e-18 -5.2500000e-2 -0.11250000
v -2.0090880e-2 -4.8503675e-2 -0.11250000
v -3.7123106e-2 -3.7123106e-2 -0.11250000
v -4.8503675e-2 -2.0090880e-2 -0.11250000
v -5.2500000e-2 1.7947250e-17 -0.11250000
v -4.8503675e-2 2.0090880e-2 -0.11250000
v -3.7123106e-2 3.7123106e-2 -0.11250000
v -2.0090880e-2 4.8503675e-2 -0.11250000
v -5.4235705e-18 5.2500000e-2 -0.11250000
v 2.0090880e-2 4.8503675e-2 -0.11250000
v 3.7123106e-2 3.7123106e-2 -0.11250000
v 4.8503675e-2 2.0090880e-2 -0.11250000
v 5.5432772e-2 -2.2961006e-2 -6.2500000e-2
v 6.0000000e-2 3.0433616e-17 -6.2500000e-2
v 5.5432772e-2 2.2961006e-2 -6.2500000e-2
v 4.2426407e-2 4.2426407e-2 -6.2500000e-2
v 2.2961006e-2 5.5432772e-2 -6.2500000e-2
v -6.1249446e-18 6.0000000e-2 -6.2500000e-2
v -2.2961006e-2 5.5432772e-2 -6.2500000e-2
v -4.2426407e-2 4.2426407e-2 -6.2500000e-2
v -5.5432772e-2 2.2961006e-2 -6.2500000e-2
v -6.0000000e-2 2.3085735e-17 -6.2500000e-2
v -5.5432772e-2 -2.2961006e-2 -6.2500000e-2
v -4.2426407e-2 -4.2426407e-2 -6.2500000e-2
v -2.2961006e-2 -5.5432772e-2 -6.2500000e-2
v 8.5708170e-18 -6.0000000e-2 -6.2500000e-2
v 2.2961006e-2 -5.5432772e-2 -6.2500000e-2
v 4.2426407e-2 -4.2426407e-2 -6.2500000e-2
v 4.2426407e-2 -4.2426407e-2 2.2500000e-2
v 5.5432772e-2 -2.2961006e-2 2.2500000e-2
v 6.0000000e-2 3.0871019e-17 2.2500000e-2
v 5.5432772e-2 2.2961006e-2 2.2500000e-2
v 4.2426407e-2 4.2426407e-2 2.2500000e-2
v 2.2961006e-2 5.5432772e-2 2.2500000e-2
v -7.3792068e-18 6.0000000e-2 2.2500000e-2
v -2.2961006e-2 5.5432772e-2 2.2500000e-2
v -4.2426407e-2 4.2426407e-2 2.2500000e-2
v -5.5432772e-2 2.2961006e-2 2.2500000e-2
v -6.0000000e-2 2.3523138e-17 2.2500000e-2
v -5.5432772e-2 -2.2961006e-2 2.2500000e-2
v -4.2426407e-2 -4.2426407e-2 2.2500000e-2
v -2.2961006e-2 -5.5432772e-2 2.2500000e-2
v 7.3165548e-18 -6.0000000e-2 2.2500000e-2
v 2.2961006e-2 -5.5432772e-2 2.2500000e-2
vt 0.75929745 0.68871027
vt 0.75929745 0.68871027
vt 0.75929745 0.69832981
vt 0.75929745 0.69832981
vt 0.75929745 0.70967682
vt 0.75929745 0.70967682
vt 0.75929745 0.72102383
vt 0.75929745 0.72102383
vt 0.75929745 0.73064337
vt 0.75929745 0.73064337
vt 0.75929745 0.68871027
vt 0.75929745 0.69832981
vt 0.75929745 0.70967682
vt 0.75929745 0.72102383
vt 0.75929745 0.73064337
vt 0.77362095 0.77858847
vt 0.77542659 0.76951086
vt 0.77542659 0.78766608
vt 0.78056865 0.76181524
vt 0.78056865 0.79536171
vt 0.78724696 0.68871027
vt 0.78724696 0.68871027
vt 0.78724696 0.69832981
vt 0.78724696 0.69832981
vt 0.78724696 0.70967682
vt 0.78724696 0.70967682
vt 0.78724696 0.72102383
vt 0.78724696 0.72102383
vt 0.78724696 0.73064337
vt 0.78724696 0.73064337
vt 0.78724696 0.68871027
vt 0.78724696 0.69832981
vt 0.78724696 0.70967682
vt 0.78724696 0.72102383
vt 0.78724696 0.73064337
vt 0.78725030 0.68871027
vt 0.78725030 0.68871027
vt 0.78725030 0.69832981
vt 0.78725030 0.70967682
vt 0.78725030 0.72102383
vt 0.78725030 0.72102383
vt 0.78725030 0.73064337
vt 0.78725030 0.73064337
vt 0.78725030 0.68871027
vt 0.78725030 0.69832981
vt 0.78725030 0.70967682
vt 0.78725030 0.72102383
vt 0.78725030 0.73064337
vt 0.78826427 0.75667318
vt 0.78826427 0.80050376
vt 0.79718073 0.68571505
vt 0.79718073 0.68571505
vt 0.79718073 0.69670880
vt 0.79718073 0.69670880
vt 0.79718073 0.70967682
vt 0.79718073 0.70967682
vt 0.79718073 0.72264484
vt 0.79718073 0.73363859
vt 0.79718073 0.68571505
vt 0.79718073 0.69670880
vt 0.79718073 0.70967682
vt 0.79718073 0.72264484
vt 0.79718073 0.73363859
vt 0.79718073 0.68571505
vt 0.79718073 0.69670880
vt 0.79718073 0.70967682
vt 0.79718073 0.72264484
vt 0.79718073 0.73363859
vt 0.79719750 0.68571505
vt 0.79719750 0.68571505
vt 0.79719750 0.69670880
vt 0.79719750 0.69670880
vt 0.79719750 0.70967682
vt 0.79719750 0.72264484
vt 0.79719750 0.73363859
vt 0.79719750 0.68571505
vt 0.79719750 0.69670880
vt 0.79719750 0.70967682
vt 0.79719750 0.72264484
vt 0.79719750 0.73363859
vt 0.79734189 0.75486753
vt 0.79734189 0.80230941
vt 0.80641950 0.75667318
vt 0.80641950 0.80050376
vt 0.81411512 0.76181524
vt 0.81411512 0.79536171
vt 0.81925718 0.76951086
vt 0.81925718 0.78766608
vt 0.82106283 0.77858847
vt 0.84573612 0.68571505
vt 0.84573612 0.68571505
vt 0.84573612 0.69670880
vt 0.84573612 0.69670880
vt 0.84573612 0.70967682
vt 0.84573612 0.70967682
vt 0.84573612 0.72264484
vt 0.84573612 0.73363859
vt 0.84573612 0.68571505
vt 0.84573612 0.69670880
vt 0.84573612 0.70967682
vt 0.84573612 0.70967682
vt 0.84573612 0.72264484
vt 0.84573612 0.73363859
vt 0.86539708 0.70967682
vt 0.86746068 0.69930241
vt 0.86746068 0.72005123
vt 0.87333731 0.69050741
vt 0.87333731 0.72884623
vt 0.88213232 0.68463077
vt 0.88213232 0.73472287
vt 0.89250673 0.68256717
vt 0.89250673 0.73678647
vt 0.90288114 0.68463077
vt 0.90288114 0.73472287
vt 0.91167614 0.69050741
vt 0.91167614 0.72884623
vt 0.91755278 0.69930241
vt 0.91755278 0.72005123
vt 0.91961637 0.70967682
vn 1.00000000 1.6979604e-16 3.3728057e-18
vn 1.00000000 1.6979604e-16 3.3728057e-18
vn 0.0000000e+0 0.0000000e+0 -1.00000000
vn 0.0000000e+0 0.0000000e+0 -1.00000000
vn 0.92387953 -0.38268343 6.7456115e-17
vn 0.92387953 -0.38268343 6.7456115e-17
vn 0.0000000e+0 0.0000000e+0 -1.00000000
vn 0.0000000e+0 0.0000000e+0 -1.00000000
vn 0.70710678 -0.70710678 1.7538590e-16
vn 0.70710678 -0.70710678 1.7538590e-16
vn 0.0000000e+0 0.0000000e+0 -1.00000000
vn 0.0000000e+0 0.0000000e+0 -1.00000000
vn 0.38268343 -0.92387953 2.2597798e-16
vn 0.38268343 -0.92387953 2.2597798e-16
vn 0.0000000e+0 0.0000000e+0 -1.00000000
vn 0.0000000e+0 0.0000000e+0 -1.00000000
vn -4.2449009e-17 -1.00000000 2.0911396e-16
vn -4.2449009e-17 -1.00000000 2.0911396e-16
vn 0.0000000e+0 0.0000000e+0 -1.00000000
vn 0.0000000e+0 0.0000000e+0 -1.00000000
vn -0.38268343 -0.92387953 2.1923237e-16
vn -0.38268343 -0.92387953 2.1923237e-16
vn 0.0000000e+0 0.0000000e+0 -1.00000000
vn 0.0000000e+0 0.0000000e+0 -1.00000000
vn -0.70710678 -0.70710678 1.7538590e-16
vn -0.70710678 -0.70710678 1.7538590e-16
vn 0.0000000e+0 0.0000000e+0 -1.00000000
vn 0.0000000e+0 0.0000000e+0 -1.00000000
vn -0.92387953 -0.38268343 7.4201726e-17
vn -0.92387953 -0.38268343 7.4201726e-17
vn 0.0000000e+0 0.0000000e+0 -1.00000000
vn 0.0000000e+0 0.0000000e+0 -1.00000000
vn -1.00000000 -1.6979604e-16 0.0000000e+0
vn -1.00000000 -1.6979604e-16 0.0000000e+0
vn 0.0000000e+0 0.0000000e+0 -1.00000000
vn 0.0000000e+0 0.0000000e+0 -1.00000000
vn -0.92387953 0.38268343 -6.0710503e-17
vn -0.92387953 0.38268343 -6.0710503e-17
vn 0.0000000e+0 0.0000000e+0 -1.00000000
vn 0.0000000e+0 0.0000000e+0 -1.00000000
vn -0.70710678 0.70710678 -1.6189467e-16
vn -0.70710678 0.70710678 -1.6189467e-16
vn 0.0000000e+0 0.0000000e+0 -1.00000000
vn 0.0000000e+0 0.0000000e+0 -1.00000000
vn -0.38268343 0.92387953 -2.1923237e-16
vn -0.38268343 0.92387953 -2.1923237e-16
vn 0.0000000e+0 0.0000000e+0 -1.00000000
vn 0.0000000e+0 0.0000000e+0 -1.00000000
vn -1.9809538e-16 1.00000000 -2.0911396e-16
vn -1.9809538e-16 1.00000000 -2.0911396e-16
vn 0.0000000e+0 0.0000000e+0 -1.00000000
vn 0.0000000e+0 0.0000000e+0 -1.00000000
vn 0.38268343 0.92387953 -2.2597798e-16
vn 0.38268343 0.92387953 -2.2597798e-16
vn 0.0000000e+0 0.0000000e+0 -1.00000000
vn 0.0000000e+0 0.0000000e+0 -1.00000000
vn 0.70710678 0.70710678 -1.7538590e-16
vn 0.70710678 0.70710678 -1.7538590e-16
vn 0.0000000e+0 0.0000000e+0 -1.00000000
vn 0.0000000e+0 0.0000000e+0 -1.00000000
vn 0.92387953 0.38268343 -6.4083309e-17
vn 0.92387953 0.38268343 -6.4083309e-17
vn 0.0000000e+0 0.0000000e+0 -1.00000000
vn 0.0000000e+0 0.0000000e+0 -1.00000000
vn -1.5418540e-16 0.0000000e+0 -1.00000000
vn 1.00000000 1.6979604e-16 3.3728057e-18
vn 1.00000000 1.6979604e-16 3.3728057e-18
vn -1.5418540e-16 0.0000000e+0 -1.00000000
vn 0.92387953 -0.38268343 6.7456115e-17
vn 0.92387953 -0.38268343 6.7456115e-17
vn -1.5418540e-16 0.0000000e+0 -1.00000000
vn 0.70710678 -0.70710678 1.7538590e-16
vn 0.70710678 -0.70710678 1.7538590e-16
vn -1.5418540e-16 0.0000000e+0 -1.00000000
vn 0.38268343 -0.92387953 2.2597798e-16
vn 0.38268343 -0.92387953 2.2597798e-16
vn -1.5418540e-16 0.0000000e+0 -1.00000000
vn -4.2449009e-17 -1.00000000 2.0911396e-16
vn -4.2449009e-17 -1.00000000 2.0911396e-16
vn -1.5418540e-16 0.0000000e+0 -1.00000000
vn -0.38268343 -0.92387953 2.1923237e-16
vn -0.38268343 -0.92387953 2.1923237e-16
vn -1.5418540e-16 0.0000000e+0 -1.00000000
vn -0.70710678 -0.70710678 1.7538590e-16
vn -0.70710678 -0.70710678 1.7538590e-16
vn -1.5418540e-16 0.0000000e+0 -1.00000000
vn -0.92387953 -0.38268343 7.4201726e-17
vn -0.92387953 -0.38268343 7.4201726e-17
vn -1.5418540e-16 0.0000000e+0 -1.00000000
vn -1.00000000 -1.6979604e-16 0.0000000e+0
vn -1.00000000 -1.6979604e-16 0.0000000e+0
vn -1.5418540e-16 0.0000000e+0 -1.00000000
vn -0.92387953 0.38268343 -6.0710503e-17
vn -0.92387953 0.38268343 -6.0710503e-17
vn -1.5418540e-16 0.0000000e+0 -1.00000000
vn -0.70710678 0.70710678 -1.6189467e-16
vn -0.70710678 0.70710678 -1.6189467e-16
vn -1.5418540e-16 0.0000000e+0 -1.00000000
vn -0.38268343 0.92387953 -2.1923237e-16
vn -0.38268343 0.92387953 -2.1923237e-16
vn -1.5418540e-16 0.0000000e+0 -1.00000000
vn -1.9809538e-16 1.00000000 -2.0911396e-16
vn -1.9809538e-16 1.00000000 -2.0911396e-16
vn -1.5418540e-16 0.0000000e+0 -1.00000000
vn 0.38268343 0.92387953 -2.2597798e-16
vn 0.38268343 0.92387953 -2.2597798e-16
vn -1.5418540e-16 0.0000000e+0 -1.00000000
vn 0.70710678 0.70710678 -1.7538590e-16
vn 0.70710678 0.70710678 -1.7538590e-16
vn -1.5418540e-16 0.0000000e+0 -1.00000000
vn 0.92387953 0.38268343 -6.4083309e-17
vn 0.92387953 0.38268343 -6.4083309e-17
vn 0.0000000e+0 0.0000000e+0 -1.00000000
vn 0.0000000e+0 0.0000000e+0 -1.00000000
vn 0.92387953 -0.38268343 0.0000000e+0
vn 0.92387953 -0.38268343 0.0000000e+0
vn 0.0000000e+0 0.0000000e+0 -1.00000000
vn 0.0000000e+0 0.0000000e+0 -1.00000000
vn 1.00000000 1.5564637e-16 0.0000000e+0
vn 1.00000000 1.5564637e-16 0.0000000e+0
vn 0.0000000e+0 0.0000000e+0 -1.00000000
vn 0.0000000e+0 0.0000000e+0 -1.00000000
vn 0.92387953 0.38268343 0.0000000e+0
vn 0.92387953 0.38268343 0.0000000e+0
vn 0.0000000e+0 0.0000000e+0 -1.00000000
vn 0.0000000e+0 0.0000000e+0 -1.00000000
vn 0.70710678 0.70710678 0.0000000e+0
vn 0.70710678 0.70710678 0.0000000e+0
vn 0.0000000e+0 0.0000000e+0 -1.00000000
vn 0.0000000e+0 0.0000000e+0 -1.00000000
vn 0.38268343 0.92387953 0.0000000e+0
vn 0.38268343 0.92387953 0.0000000e+0
vn 0.0000000e+0 0.0000000e+0 -1.00000000
vn 0.0000000e+0 0.0000000e+0 -1.00000000
vn -1.4149670e-16 1.00000000 0.0000000e+0
vn -1.4149670e-16 1.00000000 0.0000000e+0
vn 0.0000000e+0 0.0000000e+0 -1.00000000
vn 0.0000000e+0 0.0000000e+0 -1.00000000
vn -0.38268343 0.92387953 0.0000000e+0
vn -0.38268343 0.92387953 0.0000000e+0
vn 0.0000000e+0 0.0000000e+0 -1.00000000
vn 0.0000000e+0 0.0000000e+0 -1.00000000
vn -0.70710678 0.70710678 0.0000000e+0
vn -0.70710678 0.70710678 0.0000000e+0
vn 0.0000000e+0 0.0000000e+0 -1.00000000
vn 0.0000000e+0 0.0000000e+0 -1.00000000
vn -0.92387953 0.38268343 0.0000000e+0
vn -0.92387953 0.38268343 0.0000000e+0
vn 0.0000000e+0 0.0000000e+0 -1.00000000
vn 0.0000000e+0 0.0000000e+0 -1.00000000
vn -1.00000000 -1.2734703e-16 0.0000000e+0
vn -1.00000000 -1.2734703e-16 0.0000000e+0
vn 0.0000000e+0 0.0000000e+0 -1.00000000
vn 0.0000000e+0 0.0000000e+0 -1.00000000
vn -0.92387953 -0.38268343 0.0000000e+0
vn -0.92387953 -0.38268343 0.0000000e+0
vn 0.0000000e+0 0.0000000e+0 -1.00000000
vn 0.0000000e+0 0.0000000e+0 -1.00000000
vn -0.70710678 -0.70710678 0.0000000e+0
vn -0.70710678 -0.70710678 0.0000000e+0
vn 0.0000000e+0 0.0000000e+0 -1.00000000
vn 0.0000000e+0 0.0000000e+0 -1.00000000
vn -0.38268343 -0.92387953 0.0000000e+0
vn -0.38268343 -0.92387953 0.0000000e+0
vn 0.0000000e+0 0.0000000e+0 -1.00000000
vn 0.0000000e+0 0.0000000e+0 -1.00000000
vn 0.0000000e+0 -1.00000000 0.0000000e+0
vn 0.0000000e+0 -1.00000000 0.0000000e+0
vn 0.0000000e+0 0.0000000e+0 -1.00000000
vn 0.0000000e+0 0.0000000e+0 -1.00000000
vn 0.38268343 -0.92387953 0.0000000e+0
vn 0.38268343 -0.92387953 0.0000000e+0
vn 0.0000000e+0 0.0000000e+0 -1.00000000
vn 0.0000000e+0 0.0000000e+0 -1.00000000
vn 0.70710678 -0.70710678 0.0000000e+0
vn 0.70710678 -0.70710678 0.0000000e+0
vn 1.4756025e-17 0.0000000e+0 1.00000000
vn 0.70710678 -0.70710678 0.0000000e+0
vn 0.70710678 -0.70710678 0.0000000e+0
vn 1.4756025e-17 0.0000000e+0 1.00000000
vn 0.92387953 -0.38268343 0.0000000e+0
vn 0.92387953 -0.38268343 0.0000000e+0
vn 1.4756025e-17 0.0000000e+0 1.00000000
vn 1.00000000 1.5564637e-16 0.0000000e+0
vn 1.00000000 1.5564637e-16 0.0000000e+0
vn 1.4756025e-17 0.0000000e+0 1.00000000
vn 0.92387953 0.38268343 0.0000000e+0
vn 0.92387953 0.38268343 0.0000000e+0
vn 1.4756025e-17 0.0000000e+0 1.00000000
vn 0.70710678 0.70710678 0.0000000e+0
vn 0.70710678 0.70710678 0.0000000e+0
vn 1.4756025e-17 0.0000000e+0 1.00000000
vn 0.38268343 0.92387953 0.0000000e+0
vn 0.38268343 0.92387953 0.0000000e+0
vn 1.4756025e-17 0.0000000e+0 1.00000000
vn -1.4149670e-16 1.00000000 0.0000000e+0
vn -1.4149670e-16 1.00000000 0.0000000e+0
vn 1.4756025e-17 0.0000000e+0 1.00000000
vn -0.38268343 0.92387953 0.0000000e+0
vn -0.38268343 0.92387953 0.0000000e+0
vn 1.4756025e-17 0.0000000e+0 1.00000000
vn -0.70710678 0.70710678 0.0000000e+0
vn -0.70710678 0.70710678 0.0000000e+0
vn 1.4756025e-17 0.0000000e+0 1.00000000
vn -0.92387953 0.38268343 0.0000000e+0
vn -0.92387953 0.38268343 0.0000000e+0
vn 1.4756025e-17 0.0000000e+0 1.00000000
vn -1.00000000 -1.2734703e-16 0.0000000e+0
vn -1.00000000 -1.2734703e-16 0.0000000e+0
vn 1.4756025e-17 0.0000000e+0 1.00000000
vn -0.92387953 -0.38268343 0.0000000e+0
vn -0.92387953 -0.38268343 0.0000000e+0
vn 1.4756025e-17 0.0000000e+0 1.00000000
vn -0.70710678 -0.70710678 0.0000000e+0
vn -0.70710678 -0.70710678 0.0000000e+0
vn 1.4756025e-17 0.0000000e+0 1.00000000
vn -0.38268343 -0.92387953 0.0000000e+0
vn -0.38268343 -0.92387953 0.0000000e+0
vn 1.4756025e-17 0.0000000e+0 1.00000000
vn 0.0000000e+0 -1.00000000 0.0000000e+0
vn 0.0000000e+0 -1.00000000 0.0000000e+0
vn 1.4756025e-17 0.0000000e+0 1.00000000
vn 0.38268343 -0.92387953 0.0000000e+0
vn 0.38268343 -0.92387953 0.0000000e+0
g Eridani_Solar_1_Base_Eridani_Solar_1_Base_auv
usemtl Eridani_Solar_1_Base_auv
s 1
f 1/39/3 34/73/117 33/74/113 2/41/7
f 2/41/8 33/74/114 48/75/174 3/42/12
f 3/37/11 48/70/173 47/72/170 4/38/16
f 4/38/15 47/72/169 46/73/166 5/39/20
f 5/39/19 46/73/165 45/74/162 6/41/24
f 6/41/23 45/74/161 44/75/158 7/43/28
f 7/37/27 44/70/157 43/72/154 8/38/32
f 8/38/31 43/72/153 42/73/150 9/39/36
f 9/39/35 42/73/149 41/74/146 10/40/40
f 10/40/39 41/74/145 40/75/142 11/42/44
f 11/44/43 40/76/141 39/77/138 12/45/48
f 12/45/47 39/77/137 38/78/134 13/46/52
f 13/46/51 38/78/133 37/79/130 14/47/56
f 14/47/55 37/79/129 36/80/126 15/48/60
f 15/36/59 36/69/125 35/71/122 16/38/64
f 16/38/63 35/71/121 34/73/118 1/39/4
f 18/17/68 19/19/71 20/49/74 21/81/77 22/83/80 23/85/83 24/87/86 25/89/89 26/88/92 27/86/95 28/84/98 29/82/101 30/50/104 31/20/107 32/18/110 17/16/65
f 50/117/180 51/119/183 52/118/186 53/116/189 54/114/192 55/112/195 56/110/198 57/108/201 58/106/204 59/104/207 60/105/210 61/107/213 62/109/216 63/111/219 64/113/222 49/115/177
s 2
f 1/33/1 17/13/66 32/12/111 16/32/61
f 2/34/6 18/14/70 17/13/67 1/33/2
f 3/35/10 19/15/73 18/14/69 2/34/5
f 4/23/14 20/3/76 19/1/72 3/21/9
f 5/25/18 21/5/79 20/3/75 4/23/13
f 6/27/22 22/7/82 21/5/78 5/25/17
f 7/29/26 23/9/85 22/7/81 6/27/21
f 8/23/30 24/3/88 23/2/84 7/22/25
f 9/25/34 25/5/91 24/3/87 8/23/29
f 10/27/38 26/7/94 25/5/90 9/25/33
f 11/30/42 27/10/97 26/7/93 10/27/37
f 12/24/46 28/4/100 27/2/96 11/22/41
f 13/26/50 29/6/103 28/4/99 12/24/45
f 14/28/54 30/8/106 29/6/102 13/26/49
f 15/30/58 31/10/109 30/8/105 14/28/53
f 16/32/62 32/12/112 31/11/108 15/31/57
f 33/99/115 50/60/181 49/59/178 48/98/175
f 34/101/119 51/61/184 50/60/182 33/99/116
f 35/102/123 52/62/187 51/61/185 34/101/120
f 36/103/127 53/63/190 52/62/188 35/102/124
f 37/57/131 54/96/193 53/97/191 36/58/128
f 38/56/135 55/95/196 54/96/194 37/57/132
f 39/54/139 56/93/199 55/95/197 38/56/136
f 40/52/143 57/91/202 56/93/200 39/54/140
f 41/67/147 58/102/205 57/103/203 40/68/144
f 42/66/151 59/100/208 58/102/206 41/67/148
f 43/65/155 60/99/211 59/100/209 42/66/152
f 44/64/159 61/98/214 60/99/212 43/65/156
f 45/57/163 62/96/217 61/97/215 44/58/160
f 46/55/167 63/94/220 62/96/218 45/57/164
f 47/53/171 64/92/223 63/94/221 46/55/168
f 48/51/176 49/90/179 64/92/224 47/53/172
