# Exported from Wings 3D 1.5.4
mtllib Eridani_Solar_1_Pivot_1.mtl
o Eridani_Solar_1_Pivot_1
#16 vertices, 10 faces
v -1.2500000e-2 5.0000000e-3 6.5000000e-3
v -1.2500000e-2 6.5000000e-3 5.0000000e-3
v -1.2500000e-2 -6.5000000e-3 5.0000000e-3
v -1.2500000e-2 -5.0000000e-3 6.5000000e-3
v 1.2500000e-2 5.0000000e-3 6.5000000e-3
v 1.2500000e-2 6.5000000e-3 5.0000000e-3
v 1.2500000e-2 -6.5000000e-3 5.0000000e-3
v 1.2500000e-2 -5.0000000e-3 6.5000000e-3
v -1.2500000e-2 -5.0000000e-3 -5.1500000e-2
v -1.2500000e-2 -6.5000000e-3 -5.0000000e-2
v -1.2500000e-2 5.0000000e-3 -5.1500000e-2
v -1.2500000e-2 6.5000000e-3 -5.0000000e-2
v 1.2500000e-2 -5.0000000e-3 -5.1500000e-2
v 1.2500000e-2 -6.5000000e-3 -5.0000000e-2
v 1.2500000e-2 6.5000000e-3 -5.0000000e-2
v 1.2500000e-2 5.0000000e-3 -5.1500000e-2
vt 0.76222131 0.88179260
vt 0.76222131 0.95672448
vt 0.76222131 0.88179260
vt 0.76222131 0.95672448
vt 0.76426491 0.87974900
vt 0.76426491 0.95876808
vt 0.76426491 0.87974900
vt 0.76426491 0.95876808
vt 0.77788889 0.87974900
vt 0.77788889 0.95876808
vt 0.77788889 0.87974900
vt 0.77788889 0.95876808
vt 0.77993248 0.88179260
vt 0.77993248 0.95672448
vt 0.77993248 0.88179260
vt 0.77993248 0.95672448
vt 0.80015689 0.88129511
vt 0.80015689 0.95130076
vt 0.80015689 0.95366128
vt 0.80015689 0.95521182
vt 0.80015689 0.95666978
vt 0.80015689 0.88129511
vt 0.80015689 0.95130076
vt 0.80015689 0.95366128
vt 0.80015689 0.95521182
vt 0.80015689 0.95666978
vt 0.83285444 0.88129511
vt 0.83285444 0.95130076
vt 0.83285444 0.95366128
vt 0.83285444 0.95521182
vt 0.83285444 0.95666978
vt 0.83285444 0.88129511
vt 0.83285444 0.95130076
vt 0.83285444 0.95366128
vt 0.83285444 0.95521182
vt 0.83285444 0.95666978
vn 0.0000000e+0 0.38268343 0.92387953
vn -1.00000000 0.0000000e+0 0.0000000e+0
vn 0.0000000e+0 0.38268343 0.92387953
vn 0.0000000e+0 0.92387953 0.38268343
vn -1.00000000 0.0000000e+0 0.0000000e+0
vn 0.0000000e+0 0.92387953 0.38268343
vn 0.0000000e+0 -0.92387953 0.38268343
vn -1.00000000 0.0000000e+0 0.0000000e+0
vn 0.0000000e+0 -0.92387953 0.38268343
vn 0.0000000e+0 -0.38268343 0.92387953
vn -1.00000000 0.0000000e+0 0.0000000e+0
vn 0.0000000e+0 -0.38268343 0.92387953
vn 0.0000000e+0 0.38268343 0.92387953
vn 1.00000000 0.0000000e+0 0.0000000e+0
vn 0.0000000e+0 0.38268343 0.92387953
vn 0.0000000e+0 0.92387953 0.38268343
vn 1.00000000 0.0000000e+0 0.0000000e+0
vn 0.0000000e+0 0.92387953 0.38268343
vn 0.0000000e+0 -0.92387953 0.38268343
vn 1.00000000 0.0000000e+0 0.0000000e+0
vn 0.0000000e+0 -0.92387953 0.38268343
vn 0.0000000e+0 -0.38268343 0.92387953
vn 1.00000000 0.0000000e+0 0.0000000e+0
vn 0.0000000e+0 -0.38268343 0.92387953
vn 0.0000000e+0 -0.38268343 -0.92387953
vn -1.00000000 0.0000000e+0 0.0000000e+0
vn 0.0000000e+0 -0.38268343 -0.92387953
vn 0.0000000e+0 -0.92387953 -0.38268343
vn -1.00000000 0.0000000e+0 0.0000000e+0
vn 0.0000000e+0 -0.92387953 -0.38268343
vn 0.0000000e+0 0.38268343 -0.92387953
vn -1.00000000 0.0000000e+0 0.0000000e+0
vn 0.0000000e+0 0.38268343 -0.92387953
vn 0.0000000e+0 0.92387953 -0.38268343
vn -1.00000000 0.0000000e+0 0.0000000e+0
vn 0.0000000e+0 0.92387953 -0.38268343
vn 0.0000000e+0 -0.38268343 -0.92387953
vn 1.00000000 0.0000000e+0 0.0000000e+0
vn 0.0000000e+0 -0.38268343 -0.92387953
vn 0.0000000e+0 -0.92387953 -0.38268343
vn 1.00000000 0.0000000e+0 0.0000000e+0
vn 0.0000000e+0 -0.92387953 -0.38268343
vn 0.0000000e+0 0.92387953 -0.38268343
vn 1.00000000 0.0000000e+0 0.0000000e+0
vn 0.0000000e+0 0.92387953 -0.38268343
vn 0.0000000e+0 0.38268343 -0.92387953
vn 1.00000000 0.0000000e+0 0.0000000e+0
vn 0.0000000e+0 0.38268343 -0.92387953
g Eridani_Solar_1_Pivot_1_Eridani_Solar_1_Pivot_1_auv
usemtl Eridani_Solar_1_Pivot_1_auv
s 1
f 6/1/17 5/5/14 8/9/23 7/13/20 14/14/41 13/10/38 16/6/47 15/2/44
f 12/3/35 11/7/32 9/11/26 10/15/29 3/16/8 4/12/11 1/8/2 2/4/5
s 2
f 1/19/3 5/29/15 6/28/18 2/18/6
f 2/18/4 6/28/16 15/27/43 12/17/34
f 4/21/10 8/31/22 5/29/13 1/19/1
f 8/31/24 4/21/12 3/20/9 7/30/21
f 10/33/28 14/23/40 7/22/19 3/32/7
f 11/36/31 16/26/46 13/24/37 9/34/25
f 12/35/36 15/25/45 16/26/48 11/36/33
f 13/24/39 14/23/42 10/33/30 9/34/27
