# Exported from Wings 3D 1.5.4
mtllib Eridani_Engine_1_Collider.mtl
o Eridani_Engine_1_Collider
#24 vertices, 14 faces
v 0.11625000 1.2500000e-2 -3.1149094e-2
v 0.11625000 1.2500000e-2 3.1149094e-2
v 8.5100906e-2 1.2500000e-2 8.5100906e-2
v 3.1149094e-2 1.2500000e-2 0.11625000
v -3.1149094e-2 1.2500000e-2 0.11625000
v -8.5100906e-2 1.2500000e-2 8.5100906e-2
v -0.11625000 1.2500000e-2 3.1149094e-2
v -0.11625000 1.2500000e-2 -3.1149094e-2
v -8.5100906e-2 1.2500000e-2 -8.5100906e-2
v -3.1149094e-2 1.2500000e-2 -0.11625000
v 3.1149094e-2 1.2500000e-2 -0.11625000
v 8.5100906e-2 1.2500000e-2 -8.5100906e-2
v 0.11250000 -0.20750000 -3.0144284e-2
v 0.11250000 -0.20750000 3.0144284e-2
v 8.2355716e-2 -0.20750000 8.2355716e-2
v 3.0144284e-2 -0.20750000 0.11250000
v -3.0144284e-2 -0.20750000 0.11250000
v -8.2355716e-2 -0.20750000 8.2355716e-2
v -0.11250000 -0.20750000 3.0144284e-2
v -0.11250000 -0.20750000 -3.0144284e-2
v -8.2355716e-2 -0.20750000 -8.2355716e-2
v -3.0144284e-2 -0.20750000 -0.11250000
v 3.0144284e-2 -0.20750000 -0.11250000
v 8.2355716e-2 -0.20750000 -8.2355716e-2
vn 0.0000000e+0 1.00000000 3.7426732e-18
vn 0.86589962 -1.7042979e-2 -0.49992738
vn 0.99985476 -1.7042979e-2 0.0000000e+0
vn 0.0000000e+0 1.00000000 3.7426732e-18
vn 0.86589962 -1.7042979e-2 0.49992738
vn 0.99985476 -1.7042979e-2 0.0000000e+0
vn 0.0000000e+0 1.00000000 3.7426732e-18
vn 0.49992738 -1.7042979e-2 0.86589962
vn 0.86589962 -1.7042979e-2 0.49992738
vn 0.0000000e+0 1.00000000 3.7426732e-18
vn -2.2509663e-16 -1.7042979e-2 0.99985476
vn 0.49992738 -1.7042979e-2 0.86589962
vn 0.0000000e+0 1.00000000 3.7426732e-18
vn -0.49992738 -1.7042979e-2 0.86589962
vn -2.2509663e-16 -1.7042979e-2 0.99985476
vn 0.0000000e+0 1.00000000 3.7426732e-18
vn -0.86589962 -1.7042979e-2 0.49992738
vn -0.49992738 -1.7042979e-2 0.86589962
vn 0.0000000e+0 1.00000000 3.7426732e-18
vn -0.99985476 -1.7042979e-2 0.0000000e+0
vn -0.86589962 -1.7042979e-2 0.49992738
vn 0.0000000e+0 1.00000000 3.7426732e-18
vn -0.86589962 -1.7042979e-2 -0.49992738
vn -0.99985476 -1.7042979e-2 0.0000000e+0
vn 0.0000000e+0 1.00000000 3.7426732e-18
vn -0.49992738 -1.7042979e-2 -0.86589962
vn -0.86589962 -1.7042979e-2 -0.49992738
vn 0.0000000e+0 1.00000000 3.7426732e-18
vn -2.2509663e-16 -1.7042979e-2 -0.99985476
vn -0.49992738 -1.7042979e-2 -0.86589962
vn 0.0000000e+0 1.00000000 3.7426732e-18
vn 0.49992738 -1.7042979e-2 -0.86589962
vn -2.2509663e-16 -1.7042979e-2 -0.99985476
vn 0.0000000e+0 1.00000000 3.7426732e-18
vn 0.86589962 -1.7042979e-2 -0.49992738
vn 0.49992738 -1.7042979e-2 -0.86589962
vn 0.0000000e+0 -1.00000000 0.0000000e+0
vn 0.86589962 -1.7042979e-2 -0.49992738
vn 0.99985476 -1.7042979e-2 0.0000000e+0
vn 0.0000000e+0 -1.00000000 0.0000000e+0
vn 0.86589962 -1.7042979e-2 0.49992738
vn 0.99985476 -1.7042979e-2 0.0000000e+0
vn 0.0000000e+0 -1.00000000 0.0000000e+0
vn 0.49992738 -1.7042979e-2 0.86589962
vn 0.86589962 -1.7042979e-2 0.49992738
vn 0.0000000e+0 -1.00000000 0.0000000e+0
vn -2.2509663e-16 -1.7042979e-2 0.99985476
vn 0.49992738 -1.7042979e-2 0.86589962
vn 0.0000000e+0 -1.00000000 0.0000000e+0
vn -0.49992738 -1.7042979e-2 0.86589962
vn -2.2509663e-16 -1.7042979e-2 0.99985476
vn 0.0000000e+0 -1.00000000 0.0000000e+0
vn -0.86589962 -1.7042979e-2 0.49992738
vn -0.49992738 -1.7042979e-2 0.86589962
vn 0.0000000e+0 -1.00000000 0.0000000e+0
vn -0.99985476 -1.7042979e-2 0.0000000e+0
vn -0.86589962 -1.7042979e-2 0.49992738
vn 0.0000000e+0 -1.00000000 0.0000000e+0
vn -0.86589962 -1.7042979e-2 -0.49992738
vn -0.99985476 -1.7042979e-2 0.0000000e+0
vn 0.0000000e+0 -1.00000000 0.0000000e+0
vn -0.49992738 -1.7042979e-2 -0.86589962
vn -0.86589962 -1.7042979e-2 -0.49992738
vn 0.0000000e+0 -1.00000000 0.0000000e+0
vn -2.2509663e-16 -1.7042979e-2 -0.99985476
vn -0.49992738 -1.7042979e-2 -0.86589962
vn 0.0000000e+0 -1.00000000 0.0000000e+0
vn 0.49992738 -1.7042979e-2 -0.86589962
vn -2.2509663e-16 -1.7042979e-2 -0.99985476
vn 0.0000000e+0 -1.00000000 0.0000000e+0
vn 0.86589962 -1.7042979e-2 -0.49992738
vn 0.49992738 -1.7042979e-2 -0.86589962
g Eridani_Engine_1_Collider_default
usemtl default
s 1
f 1//2 13//38 24//71 12//35
f 3//9 15//45 14//41 2//5
f 5//15 17//51 16//47 4//11
f 8//24 20//60 19//56 7//20
f 10//30 22//66 21//62 9//26
s 2
f 2//6 14//42 13//39 1//3
f 4//12 16//48 15//44 3//8
f 6//18 18//54 17//50 5//14
f 9//27 21//63 20//59 8//23
f 11//33 23//69 22//65 10//29
s 3
f 1//1 12//34 11//31 10//28 9//25 8//22 7//19 6//16 5//13 4//10 3//7 2//4
f 14//40 15//43 16//46 17//49 18//52 19//55 20//58 21//61 22//64 23//67 24//70 13//37
s 4
f 7//21 19//57 18//53 6//17
f 12//36 24//72 23//68 11//32
