# Exported from Wings 3D 1.5.4
mtllib atria_antenna_2_arm_1.mtl
o atria_antenna_2_arm_1
#16 vertices, 8 faces
v 1.2500000e-2 1.7218911e-17 0.0000000e+0
v 8.8388348e-3 -8.8388348e-3 0.0000000e+0
v -5.4051858e-17 -1.2500000e-2 0.0000000e+0
v -8.8388348e-3 -8.8388348e-3 0.0000000e+0
v -1.2500000e-2 1.5688103e-17 0.0000000e+0
v -8.8388348e-3 8.8388348e-3 0.0000000e+0
v -5.7113475e-17 1.2500000e-2 -1.7347235e-18
v 8.8388348e-3 8.8388348e-3 0.0000000e+0
v 1.2500000e-2 1.5688103e-17 -0.37500000
v 8.8388348e-3 -8.8388348e-3 -0.37500000
v -1.1119642e-17 -1.2500000e-2 -0.37500000
v -8.8388348e-3 -8.8388348e-3 -0.37500000
v -1.2500000e-2 1.4157294e-17 -0.37500000
v -8.8388348e-3 8.8388348e-3 -0.37500000
v -1.4181259e-17 1.2500000e-2 -0.37500000
v 8.8388348e-3 8.8388348e-3 -0.37500000
vt 0.45904115 0.79780675
vt 0.45904115 0.77739696
vt 0.45904115 0.78249941
vt 0.45904115 0.78760186
vt 0.45904115 0.79270430
vt 0.45904115 0.79780675
vt 0.45904115 0.80290919
vt 0.45904115 0.80801164
vt 0.45904115 0.81311408
vt 0.45904115 0.81821653
vt 0.74834598 0.79780675
vt 0.74834598 0.80290919
vt 0.74834598 0.80801164
vt 0.74834598 0.81311408
vt 0.74834598 0.81821653
vt 0.74834598 0.77739696
vt 0.74834598 0.78249941
vt 0.74834598 0.78760186
vt 0.74834598 0.79270430
vt 0.74834598 0.79780675
vn 1.00000000 9.0127256e-17 1.1653030e-16
vn 0.70710678 -0.70710678 8.6886627e-17
vn 3.0042419e-17 -1.00000000 5.6220759e-18
vn -0.70710678 -0.70710678 -7.9220160e-17
vn -1.00000000 -1.8025451e-16 -1.1653030e-16
vn -0.70710678 0.70710678 -8.6886627e-17
vn -9.0127256e-17 1.00000000 -5.6220759e-18
vn 0.70710678 0.70710678 7.9220160e-17
vn 1.00000000 9.0127256e-17 1.1653030e-16
vn 0.70710678 -0.70710678 8.6886627e-17
vn 3.0042419e-17 -1.00000000 5.6220759e-18
vn -0.70710678 -0.70710678 -7.9220160e-17
vn -1.00000000 -1.8025451e-16 -1.1653030e-16
vn -0.70710678 0.70710678 -8.6886627e-17
vn -9.0127256e-17 1.00000000 -5.6220759e-18
vn 0.70710678 0.70710678 7.9220160e-17
g atria_antenna_2_arm_1_atria_antenna_2_arm_1_auv
usemtl atria_antenna_2_arm_1_auv
s 1
f 1/4/1 9/18/9 16/19/16 8/5/8
f 2/3/2 10/17/10 9/18/9 1/4/1
f 3/2/3 11/16/11 10/17/10 2/3/2
f 4/12/4 12/7/12 11/6/11 3/11/3
f 5/13/5 13/8/13 12/7/12 4/12/4
f 6/14/6 14/9/14 13/8/13 5/13/5
f 7/15/7 15/10/15 14/9/14 6/14/6
f 8/5/8 16/19/16 15/20/15 7/1/7
