# Exported from Wings 3D 2.0.1.2016-07-19---10-17.mlab
mtllib Libra_Engine_1_Collider.mtl
o Libra_Engine_1_Collider
#32 vertices, 18 faces
v 0.46875000 5.2500000e-2 -9.3240172e-2
v 0.46875000 5.2500000e-2 9.3240172e-2
v 0.39738706 5.2500000e-2 0.26552555
v 0.26552555 5.2500000e-2 0.39738706
v 9.3240172e-2 5.2500000e-2 0.46875000
v -9.3240172e-2 5.2500000e-2 0.46875000
v -0.26552555 5.2500000e-2 0.39738706
v -0.39738706 5.2500000e-2 0.26552555
v -0.46875000 5.2500000e-2 9.3240172e-2
v -0.46875000 5.2500000e-2 -9.3240172e-2
v -0.39738706 5.2500000e-2 -0.26552555
v -0.26552555 5.2500000e-2 -0.39738706
v -9.3240172e-2 5.2500000e-2 -0.46875000
v 9.3240172e-2 5.2500000e-2 -0.46875000
v 0.26552555 5.2500000e-2 -0.39738706
v 0.39738706 5.2500000e-2 -0.26552555
v 0.30468750 -5.2500000e-2 -6.0606112e-2
v 0.30468750 -5.2500000e-2 6.0606112e-2
v 0.25830159 -5.2500000e-2 0.17259160
v 0.17259160 -5.2500000e-2 0.25830159
v 6.0606112e-2 -5.2500000e-2 0.30468750
v -6.0606112e-2 -5.2500000e-2 0.30468750
v -0.17259160 -5.2500000e-2 0.25830159
v -0.25830159 -5.2500000e-2 0.17259160
v -0.30468750 -5.2500000e-2 6.0606112e-2
v -0.30468750 -5.2500000e-2 -6.0606112e-2
v -0.25830159 -5.2500000e-2 -0.17259160
v -0.17259160 -5.2500000e-2 -0.25830159
v -6.0606112e-2 -5.2500000e-2 -0.30468750
v 6.0606112e-2 -5.2500000e-2 -0.30468750
v 0.17259160 -5.2500000e-2 -0.25830159
v 0.25830159 -5.2500000e-2 -0.17259160
vn 0.0000000e+0 1.00000000 -9.9226099e-18
vn 0.49802068 -0.84227140 -0.20628692
vn 0.53905370 -0.84227140 0.0000000e+0
vn 0.0000000e+0 1.00000000 -9.9226099e-18
vn 0.49802068 -0.84227140 0.20628692
vn 0.53905370 -0.84227140 0.0000000e+0
vn 0.0000000e+0 1.00000000 -9.9226099e-18
vn 0.38116852 -0.84227140 0.38116852
vn 0.49802068 -0.84227140 0.20628692
vn 0.0000000e+0 1.00000000 -9.9226099e-18
vn 0.20628692 -0.84227140 0.49802068
vn 0.38116852 -0.84227140 0.38116852
vn 0.0000000e+0 1.00000000 -9.9226099e-18
vn -1.1577531e-16 -0.84227140 0.53905370
vn 0.20628692 -0.84227140 0.49802068
vn 0.0000000e+0 1.00000000 -9.9226099e-18
vn -0.20628692 -0.84227140 0.49802068
vn -1.1577531e-16 -0.84227140 0.53905370
vn 0.0000000e+0 1.00000000 -9.9226099e-18
vn -0.38116852 -0.84227140 0.38116852
vn -0.20628692 -0.84227140 0.49802068
vn 0.0000000e+0 1.00000000 -9.9226099e-18
vn -0.49802068 -0.84227140 0.20628692
vn -0.38116852 -0.84227140 0.38116852
vn 0.0000000e+0 1.00000000 -9.9226099e-18
vn -0.53905370 -0.84227140 0.0000000e+0
vn -0.49802068 -0.84227140 0.20628692
vn 0.0000000e+0 1.00000000 -9.9226099e-18
vn -0.49802068 -0.84227140 -0.20628692
vn -0.53905370 -0.84227140 0.0000000e+0
vn 0.0000000e+0 1.00000000 -9.9226099e-18
vn -0.38116852 -0.84227140 -0.38116852
vn -0.49802068 -0.84227140 -0.20628692
vn 0.0000000e+0 1.00000000 -9.9226099e-18
vn -0.20628692 -0.84227140 -0.49802068
vn -0.38116852 -0.84227140 -0.38116852
vn 0.0000000e+0 1.00000000 -9.9226099e-18
vn 1.1577531e-16 -0.84227140 -0.53905370
vn -0.20628692 -0.84227140 -0.49802068
vn 0.0000000e+0 1.00000000 -9.9226099e-18
vn 0.20628692 -0.84227140 -0.49802068
vn 1.1577531e-16 -0.84227140 -0.53905370
vn 0.0000000e+0 1.00000000 -9.9226099e-18
vn 0.38116852 -0.84227140 -0.38116852
vn 0.20628692 -0.84227140 -0.49802068
vn 0.0000000e+0 1.00000000 -9.9226099e-18
vn 0.49802068 -0.84227140 -0.20628692
vn 0.38116852 -0.84227140 -0.38116852
vn 0.0000000e+0 -1.00000000 1.0274892e-17
vn 0.49802068 -0.84227140 -0.20628692
vn 0.53905370 -0.84227140 0.0000000e+0
vn 0.0000000e+0 -1.00000000 1.0274892e-17
vn 0.49802068 -0.84227140 0.20628692
vn 0.53905370 -0.84227140 0.0000000e+0
vn 0.0000000e+0 -1.00000000 1.0274892e-17
vn 0.38116852 -0.84227140 0.38116852
vn 0.49802068 -0.84227140 0.20628692
vn 0.0000000e+0 -1.00000000 1.0274892e-17
vn 0.20628692 -0.84227140 0.49802068
vn 0.38116852 -0.84227140 0.38116852
vn 0.0000000e+0 -1.00000000 1.0274892e-17
vn -1.1577531e-16 -0.84227140 0.53905370
vn 0.20628692 -0.84227140 0.49802068
vn 0.0000000e+0 -1.00000000 1.0274892e-17
vn -0.20628692 -0.84227140 0.49802068
vn -1.1577531e-16 -0.84227140 0.53905370
vn 0.0000000e+0 -1.00000000 1.0274892e-17
vn -0.38116852 -0.84227140 0.38116852
vn -0.20628692 -0.84227140 0.49802068
vn 0.0000000e+0 -1.00000000 1.0274892e-17
vn -0.49802068 -0.84227140 0.20628692
vn -0.38116852 -0.84227140 0.38116852
vn 0.0000000e+0 -1.00000000 1.0274892e-17
vn -0.53905370 -0.84227140 0.0000000e+0
vn -0.49802068 -0.84227140 0.20628692
vn 0.0000000e+0 -1.00000000 1.0274892e-17
vn -0.49802068 -0.84227140 -0.20628692
vn -0.53905370 -0.84227140 0.0000000e+0
vn 0.0000000e+0 -1.00000000 1.0274892e-17
vn -0.38116852 -0.84227140 -0.38116852
vn -0.49802068 -0.84227140 -0.20628692
vn 0.0000000e+0 -1.00000000 1.0274892e-17
vn -0.20628692 -0.84227140 -0.49802068
vn -0.38116852 -0.84227140 -0.38116852
vn 0.0000000e+0 -1.00000000 1.0274892e-17
vn 1.1577531e-16 -0.84227140 -0.53905370
vn -0.20628692 -0.84227140 -0.49802068
vn 0.0000000e+0 -1.00000000 1.0274892e-17
vn 0.20628692 -0.84227140 -0.49802068
vn 1.1577531e-16 -0.84227140 -0.53905370
vn 0.0000000e+0 -1.00000000 1.0274892e-17
vn 0.38116852 -0.84227140 -0.38116852
vn 0.20628692 -0.84227140 -0.49802068
vn 0.0000000e+0 -1.00000000 1.0274892e-17
vn 0.49802068 -0.84227140 -0.20628692
vn 0.38116852 -0.84227140 -0.38116852
g Libra_Engine_1_Collider_default2
usemtl default2
s 1
f 1//2 17//50 32//95 16//47
f 3//9 19//57 18//53 2//5
f 5//15 21//63 20//59 4//11
f 7//21 23//69 22//65 6//17
f 9//27 25//75 24//71 8//23
f 12//36 28//84 27//80 11//32
f 14//42 30//90 29//86 13//38
s 2
f 2//6 18//54 17//51 1//3
f 4//12 20//60 19//56 3//8
f 6//18 22//66 21//62 5//14
f 8//24 24//72 23//68 7//20
f 10//30 26//78 25//74 9//26
f 13//39 29//87 28//83 12//35
f 15//45 31//93 30//89 14//41
s 3
f 1//1 16//46 15//43 14//40 13//37 12//34 11//31 10//28 9//25 8//22 7//19 6//16 5//13 4//10 3//7 2//4
f 18//52 19//55 20//58 21//61 22//64 23//67 24//70 25//73 26//76 27//79 28//82 29//85 30//88 31//91 32//94 17//49
s 4
f 11//33 27//81 26//77 10//29
f 16//48 32//96 31//92 15//44
