# Exported from Wings 3D 1.5.4
mtllib vela_landing_leg_srf_1_suspend_upper.mtl
o suspend_upper
#16 vertices, 10 faces
v 2.5000000e-2 1.7600375e-17 1.50000000
v 1.7677670e-2 -1.7677670e-2 1.50000000
v 4.2196299e-18 -2.5000000e-2 1.50000000
v -1.7677670e-2 -1.7677670e-2 1.50000000
v -2.5000000e-2 1.4538758e-17 1.50000000
v -1.7677670e-2 1.7677670e-2 1.50000000
v -1.9036041e-18 2.5000000e-2 1.50000000
v 1.7677670e-2 1.7677670e-2 1.50000000
v 2.5000000e-2 1.4538758e-17 0.0000000e+0
v 1.7677670e-2 -1.7677670e-2 0.0000000e+0
v 4.2196299e-18 -2.5000000e-2 1.1102230e-16
v -1.7677670e-2 -1.7677670e-2 0.0000000e+0
v -2.5000000e-2 1.1477141e-17 0.0000000e+0
v -1.7677670e-2 1.7677670e-2 0.0000000e+0
v -1.9036041e-18 2.5000000e-2 0.0000000e+0
v 1.7677670e-2 1.7677670e-2 0.0000000e+0
vt 0.32110554 4.6788263e-2
vt 0.32391194 4.0013013e-2
vt 0.32391194 5.3563513e-2
vt 0.33068719 3.7206613e-2
vt 0.33068719 5.6369913e-2
vt 0.33746244 4.0013013e-2
vt 0.33746244 5.3563513e-2
vt 0.34026884 4.6788263e-2
vt 0.37813624 4.0027650e-2
vt 0.37813624 4.0027650e-2
vt 0.37813624 4.6906667e-2
vt 0.37813624 4.6906667e-2
vt 0.37813624 5.3785683e-2
vt 0.37813624 5.3785683e-2
vt 0.37813624 4.0027650e-2
vt 0.37813624 4.0027650e-2
vt 0.37813624 4.6906667e-2
vt 0.37813624 4.6906667e-2
vt 0.37813624 5.3785683e-2
vt 0.37813624 5.3785683e-2
vt 0.96184017 4.0027650e-2
vt 0.96184017 4.0027650e-2
vt 0.96184017 4.6906667e-2
vt 0.96184017 4.6906667e-2
vt 0.96184017 5.3785683e-2
vt 0.96184017 5.3785683e-2
vt 0.96184017 4.0027650e-2
vt 0.96184017 4.0027650e-2
vt 0.96184017 4.6906667e-2
vt 0.96184017 4.6906667e-2
vt 0.96184017 5.3785683e-2
vt 0.96184017 5.3785683e-2
vn -3.9252311e-15 0.0000000e+0 1.00000000
vn 1.00000000 9.0127256e-17 2.5554890e-19
vn 1.00000000 9.0127256e-17 2.5554890e-19
vn -3.9252311e-15 0.0000000e+0 1.00000000
vn 0.70710678 -0.70710678 2.5554890e-18
vn 0.70710678 -0.70710678 2.5554890e-18
vn -3.9252311e-15 0.0000000e+0 1.00000000
vn 3.0042419e-17 -1.00000000 3.0665868e-18
vn 3.0042419e-17 -1.00000000 3.0665868e-18
vn -3.9252311e-15 0.0000000e+0 1.00000000
vn -0.70710678 -0.70710678 1.7888423e-18
vn -0.70710678 -0.70710678 1.7888423e-18
vn -3.9252311e-15 0.0000000e+0 1.00000000
vn -1.00000000 -1.8025451e-16 -2.5554890e-19
vn -1.00000000 -1.8025451e-16 -2.5554890e-19
vn -3.9252311e-15 0.0000000e+0 1.00000000
vn -0.70710678 0.70710678 -2.5554890e-18
vn -0.70710678 0.70710678 -2.5554890e-18
vn -3.9252311e-15 0.0000000e+0 1.00000000
vn -9.0127256e-17 1.00000000 -3.0665868e-18
vn -9.0127256e-17 1.00000000 -3.0665868e-18
vn -3.9252311e-15 0.0000000e+0 1.00000000
vn 0.70710678 0.70710678 -1.7888423e-18
vn 0.70710678 0.70710678 -1.7888423e-18
vn 0.0000000e+0 -1.1102230e-15 -1.00000000
vn 1.00000000 9.0127256e-17 2.5554890e-19
vn 1.00000000 9.0127256e-17 2.5554890e-19
vn 0.0000000e+0 -1.1102230e-15 -1.00000000
vn 0.70710678 -0.70710678 2.5554890e-18
vn 0.70710678 -0.70710678 2.5554890e-18
vn 0.0000000e+0 -1.1102230e-15 -1.00000000
vn 3.0042419e-17 -1.00000000 3.0665868e-18
vn 3.0042419e-17 -1.00000000 3.0665868e-18
vn 0.0000000e+0 -1.1102230e-15 -1.00000000
vn -0.70710678 -0.70710678 1.7888423e-18
vn -0.70710678 -0.70710678 1.7888423e-18
vn 0.0000000e+0 -1.1102230e-15 -1.00000000
vn -1.00000000 -1.8025451e-16 -2.5554890e-19
vn -1.00000000 -1.8025451e-16 -2.5554890e-19
vn 0.0000000e+0 -1.1102230e-15 -1.00000000
vn -0.70710678 0.70710678 -2.5554890e-18
vn -0.70710678 0.70710678 -2.5554890e-18
vn 0.0000000e+0 -1.1102230e-15 -1.00000000
vn -9.0127256e-17 1.00000000 -3.0665868e-18
vn -9.0127256e-17 1.00000000 -3.0665868e-18
vn 0.0000000e+0 -1.1102230e-15 -1.00000000
vn 0.70710678 0.70710678 -1.7888423e-18
vn 0.70710678 0.70710678 -1.7888423e-18
g suspend_upper_suspend_upper_auv
usemtl suspend_upper_auv
s 1
f 1/8/1 8/7/22 7/5/19 6/3/16 5/1/13 4/2/10 3/4/7 2/6/4
f 10/2/28 11/4/31 12/6/34 13/8/37 14/7/40 15/5/43 16/3/46 9/1/25
s 2
f 1/18/2 9/29/26 16/31/47 8/20/23
f 2/16/6 10/27/30 9/29/27 1/18/3
f 3/24/9 11/12/33 10/10/29 2/22/5
f 4/26/12 12/14/36 11/12/32 3/24/8
f 5/30/15 13/17/39 12/15/35 4/28/11
f 6/32/18 14/19/42 13/17/38 5/30/14
f 7/23/21 15/11/45 14/9/41 6/21/17
f 8/25/24 16/13/48 15/11/44 7/23/20
