# Exported from Wings 3D 1.5.4
mtllib vela_landing_leg_srf_1_base.mtl
o vela_landing_leg_srf_1_base
#28 vertices, 22 faces
v -3.7500000e-2 0.37500000 -3.7500000e-2
v -3.7500000e-2 0.30000000 -3.7500000e-2
v -3.7500000e-2 0.31098350 -6.4016504e-2
v -3.7500000e-2 0.33750000 -7.5000000e-2
v -3.7500000e-2 0.36401650 -6.4016504e-2
v 3.7500000e-2 0.37500000 -3.7500000e-2
v 3.7500000e-2 0.30000000 -3.7500000e-2
v 3.7500000e-2 0.31098350 -6.4016504e-2
v 3.7500000e-2 0.33750000 -7.5000000e-2
v 3.7500000e-2 0.36401650 -6.4016504e-2
v 3.7500000e-2 0.37500000 2.5000000e-2
v -3.7500000e-2 0.37500000 2.5000000e-2
v -3.7500000e-2 0.30000000 2.5000000e-2
v 3.7500000e-2 0.30000000 2.5000000e-2
v -3.7500000e-2 -0.37500000 -3.7500000e-2
v -3.7500000e-2 -0.30000000 -3.7500000e-2
v -3.7500000e-2 -0.31098350 -6.4016504e-2
v -3.7500000e-2 -0.33750000 -7.5000000e-2
v -3.7500000e-2 -0.36401650 -6.4016504e-2
v 3.7500000e-2 -0.37500000 -3.7500000e-2
v 3.7500000e-2 -0.30000000 -3.7500000e-2
v 3.7500000e-2 -0.31098350 -6.4016504e-2
v 3.7500000e-2 -0.33750000 -7.5000000e-2
v 3.7500000e-2 -0.36401650 -6.4016504e-2
v 3.7500000e-2 -0.37500000 2.5000000e-2
v -3.7500000e-2 -0.37500000 2.5000000e-2
v -3.7500000e-2 -0.30000000 2.5000000e-2
v 3.7500000e-2 -0.30000000 2.5000000e-2
vt 0.86520582 0.55030810
vt 0.86520582 0.55030810
vt 0.86520582 0.57661248
vt 0.86520582 0.57661248
vt 0.86520582 0.58869198
vt 0.86520582 0.58869198
vt 0.86520582 0.60077148
vt 0.86520582 0.60077148
vt 0.86520582 0.61285098
vt 0.86520582 0.61285098
vt 0.86520582 0.62493047
vt 0.86520582 0.62493047
vt 0.86520582 0.65123485
vt 0.89677107 0.55030810
vt 0.89677107 0.55030810
vt 0.89677107 0.57661248
vt 0.89677107 0.57661248
vt 0.89677107 0.58869198
vt 0.89677107 0.58869198
vt 0.89677107 0.60077148
vt 0.89677107 0.60077148
vt 0.89677107 0.61285098
vt 0.89677107 0.61285098
vt 0.89677107 0.62493047
vt 0.89677107 0.62493047
vt 0.89677107 0.65123485
vt 0.93064591 0.57684832
vt 0.93064591 0.60862237
vt 0.93074437 0.60859724
vt 0.93074437 0.60859724
vt 0.93074437 0.60859724
vt 0.93074437 0.63490162
vt 0.93074437 0.63490162
vt 0.93074437 0.63490162
vt 0.93536700 0.64606162
vt 0.93536700 0.64606162
vt 0.93536700 0.64606162
vt 0.94652700 0.65068425
vt 0.94652700 0.65068425
vt 0.94652700 0.65068425
vt 0.94652700 0.65068425
vt 0.95768700 0.64606162
vt 0.95768700 0.64606162
vt 0.95768700 0.64606162
vt 0.95768700 0.64606162
vt 0.96230962 0.60859724
vt 0.96230962 0.60859724
vt 0.96230962 0.60859724
vt 0.96230962 0.63490162
vt 0.96230962 0.63490162
vt 0.96230962 0.63490162
vt 0.96241997 0.57684832
vt 0.96241997 0.60862237
vn -1.00000000 0.0000000e+0 0.0000000e+0
vn 1.7331970e-16 0.98078528 -0.19509032
vn 1.7331970e-16 0.98078528 -0.19509032
vn -1.00000000 0.0000000e+0 0.0000000e+0
vn -1.00000000 0.0000000e+0 0.0000000e+0
vn 0.0000000e+0 -0.98078528 -0.19509032
vn -1.00000000 0.0000000e+0 0.0000000e+0
vn 0.0000000e+0 -0.98078528 -0.19509032
vn -1.00000000 0.0000000e+0 0.0000000e+0
vn -7.4961011e-17 -0.70710678 -0.70710678
vn -7.4961011e-17 -0.70710678 -0.70710678
vn -1.00000000 0.0000000e+0 0.0000000e+0
vn 8.1775649e-17 -4.5063628e-16 -1.00000000
vn 8.1775649e-17 -4.5063628e-16 -1.00000000
vn -1.00000000 0.0000000e+0 0.0000000e+0
vn 3.4073187e-16 0.70710678 -0.70710678
vn 3.4073187e-16 0.70710678 -0.70710678
vn 1.00000000 5.4517099e-17 0.0000000e+0
vn 1.7331970e-16 0.98078528 -0.19509032
vn 1.7331970e-16 0.98078528 -0.19509032
vn 1.00000000 5.4517099e-17 0.0000000e+0
vn 1.00000000 5.4517099e-17 0.0000000e+0
vn 0.0000000e+0 -0.98078528 -0.19509032
vn 0.0000000e+0 -0.98078528 -0.19509032
vn 1.00000000 5.4517099e-17 0.0000000e+0
vn 1.00000000 1.0903420e-16 0.0000000e+0
vn -7.4961011e-17 -0.70710678 -0.70710678
vn -7.4961011e-17 -0.70710678 -0.70710678
vn 1.00000000 1.0903420e-16 0.0000000e+0
vn 8.1775649e-17 -4.5063628e-16 -1.00000000
vn 8.1775649e-17 -4.5063628e-16 -1.00000000
vn 1.00000000 1.0903420e-16 0.0000000e+0
vn 3.4073187e-16 0.70710678 -0.70710678
vn 3.4073187e-16 0.70710678 -0.70710678
vn 0.0000000e+0 0.0000000e+0 1.00000000
vn 0.0000000e+0 1.00000000 0.0000000e+0
vn 1.00000000 0.0000000e+0 0.0000000e+0
vn 0.0000000e+0 0.0000000e+0 1.00000000
vn 0.0000000e+0 1.00000000 0.0000000e+0
vn -1.00000000 0.0000000e+0 0.0000000e+0
vn 0.0000000e+0 0.0000000e+0 1.00000000
vn -1.00000000 0.0000000e+0 0.0000000e+0
vn 0.0000000e+0 -1.00000000 8.8817842e-16
vn 0.0000000e+0 0.0000000e+0 1.00000000
vn 0.0000000e+0 -1.00000000 8.8817842e-16
vn 1.00000000 0.0000000e+0 0.0000000e+0
vn -1.00000000 -5.4517099e-17 0.0000000e+0
vn 1.7331970e-16 -0.98078528 -0.19509032
vn 1.7331970e-16 -0.98078528 -0.19509032
vn -1.00000000 -5.4517099e-17 0.0000000e+0
vn -1.00000000 -5.4517099e-17 0.0000000e+0
vn 0.0000000e+0 0.98078528 -0.19509032
vn -1.00000000 -5.4517099e-17 0.0000000e+0
vn 0.0000000e+0 0.98078528 -0.19509032
vn -1.00000000 -1.0903420e-16 0.0000000e+0
vn -7.4961011e-17 0.70710678 -0.70710678
vn -7.4961011e-17 0.70710678 -0.70710678
vn -1.00000000 -1.0903420e-16 0.0000000e+0
vn 8.1775649e-17 4.5063628e-16 -1.00000000
vn 8.1775649e-17 4.5063628e-16 -1.00000000
vn -1.00000000 -1.0903420e-16 0.0000000e+0
vn 3.4073187e-16 -0.70710678 -0.70710678
vn 3.4073187e-16 -0.70710678 -0.70710678
vn 1.00000000 0.0000000e+0 0.0000000e+0
vn 1.7331970e-16 -0.98078528 -0.19509032
vn 1.7331970e-16 -0.98078528 -0.19509032
vn 1.00000000 0.0000000e+0 0.0000000e+0
vn 1.00000000 0.0000000e+0 0.0000000e+0
vn 0.0000000e+0 0.98078528 -0.19509032
vn 0.0000000e+0 0.98078528 -0.19509032
vn 1.00000000 0.0000000e+0 0.0000000e+0
vn 1.00000000 0.0000000e+0 0.0000000e+0
vn -7.4961011e-17 0.70710678 -0.70710678
vn -7.4961011e-17 0.70710678 -0.70710678
vn 1.00000000 0.0000000e+0 0.0000000e+0
vn 8.1775649e-17 4.5063628e-16 -1.00000000
vn 8.1775649e-17 4.5063628e-16 -1.00000000
vn 1.00000000 0.0000000e+0 0.0000000e+0
vn 3.4073187e-16 -0.70710678 -0.70710678
vn 3.4073187e-16 -0.70710678 -0.70710678
vn 0.0000000e+0 0.0000000e+0 1.00000000
vn 0.0000000e+0 -1.00000000 0.0000000e+0
vn 1.00000000 0.0000000e+0 0.0000000e+0
vn 0.0000000e+0 0.0000000e+0 1.00000000
vn 0.0000000e+0 -1.00000000 0.0000000e+0
vn -1.00000000 0.0000000e+0 0.0000000e+0
vn 0.0000000e+0 0.0000000e+0 1.00000000
vn -1.00000000 0.0000000e+0 0.0000000e+0
vn 0.0000000e+0 1.00000000 8.8817842e-16
vn 0.0000000e+0 0.0000000e+0 1.00000000
vn 0.0000000e+0 1.00000000 8.8817842e-16
vn 1.00000000 0.0000000e+0 0.0000000e+0
g vela_landing_leg_srf_1_base_vela_landing_leg_srf_1_base_auv
usemtl vela_landing_leg_srf_1_base_auv
s 1
f 12/28/38 13/27/41 14/52/44 11/53/35
f 25/52/81 28/53/90 27/28/87 26/27/84
s 2
f 1/24/2 6/11/19 10/9/33 5/22/16
f 1/24/3 12/26/39 11/13/36 6/11/20
f 3/18/11 8/5/28 7/3/23 2/16/6
f 4/20/14 9/7/31 8/5/27 3/18/10
f 5/22/17 10/9/34 9/7/30 4/20/13
f 7/3/24 14/1/45 13/14/43 2/16/8
f 15/34/47 16/51/51 17/42/55 18/39/58 19/37/61
f 15/34/50 26/31/86 27/48/88 16/51/53
f 21/32/71 28/29/92 25/46/83 20/49/67
f 24/43/78 23/38/75 22/35/72 21/32/68 20/49/64
s 3
f 2/33/7 13/30/42 12/47/40 1/50/4
f 5/44/15 4/40/12 3/36/9 2/33/5 1/50/1
f 6/34/18 7/51/22 8/45/26 9/41/29 10/37/32
f 6/34/21 11/31/37 14/48/46 7/51/25
f 16/25/52 21/12/69 22/10/74 17/23/57
f 16/25/54 27/26/89 28/13/91 21/12/70
f 17/23/56 22/10/73 23/8/77 18/21/60
f 18/21/59 23/8/76 24/6/80 19/19/63
f 19/19/62 24/6/79 20/4/65 15/17/48
f 20/4/66 25/2/82 26/15/85 15/17/49
