# Exported from Wings 3D 1.5.4
mtllib vela_landing_leg_srf_1_piston_upper.mtl
o piston_upper
#16 vertices, 10 faces
v 2.5000000e-2 1.7600375e-17 0.27500000
v 1.7677670e-2 -1.7677670e-2 0.27500000
v 4.6533108e-18 -2.5000000e-2 0.27500000
v -1.7677670e-2 -1.7677670e-2 0.27500000
v -2.5000000e-2 1.4538758e-17 0.27500000
v -1.7677670e-2 1.7677670e-2 0.27500000
v -1.4699232e-18 2.5000000e-2 0.27500000
v 1.7677670e-2 1.7677670e-2 0.27500000
v 2.5000000e-2 1.4538758e-17 1.1102230e-16
v 1.7677670e-2 -1.7677670e-2 1.1102230e-16
v 4.6533108e-18 -2.5000000e-2 1.1102230e-16
v -1.7677670e-2 -1.7677670e-2 1.1102230e-16
v -2.5000000e-2 1.1477141e-17 1.1102230e-16
v -1.7677670e-2 1.7677670e-2 1.1102230e-16
v -1.4699232e-18 2.5000000e-2 1.1102230e-16
v 1.7677670e-2 1.7677670e-2 1.1102230e-16
vt 0.79942151 0.10270560
vt 0.80222791 9.5930346e-2
vt 0.80222791 0.10948085
vt 0.80900316 9.3123946e-2
vt 0.80900316 0.11228725
vt 0.81577841 9.5930346e-2
vt 0.81577841 0.10948085
vt 0.81858481 0.10270560
vt 0.85645221 9.5944983e-2
vt 0.85645221 9.5944983e-2
vt 0.85645221 9.5944983e-2
vt 0.85645221 0.10282400
vt 0.85645221 0.10282400
vt 0.85645221 0.10282400
vt 0.85645221 0.10970302
vt 0.85645221 0.10970302
vt 0.85645221 0.10970302
vt 0.96184017 9.5944983e-2
vt 0.96184017 9.5944983e-2
vt 0.96184017 0.10282400
vt 0.96184017 0.10970302
vt 0.96184017 0.10970302
vt 0.96184017 9.5944983e-2
vt 0.96184017 9.5944983e-2
vt 0.96184017 0.10282400
vt 0.96184017 0.10282400
vt 0.96184017 0.10970302
vt 0.96184017 0.10970302
vn 4.9065389e-16 0.0000000e+0 1.00000000
vn 1.00000000 1.2016967e-16 1.3939031e-18
vn 1.00000000 1.2016967e-16 1.3939031e-18
vn 4.9065389e-16 0.0000000e+0 1.00000000
vn 0.70710678 -0.70710678 1.3939031e-17
vn 0.70710678 -0.70710678 1.3939031e-17
vn 4.9065389e-16 0.0000000e+0 1.00000000
vn 6.0084837e-17 -1.00000000 1.6726837e-17
vn 6.0084837e-17 -1.00000000 1.6726837e-17
vn 4.9065389e-16 0.0000000e+0 1.00000000
vn -0.70710678 -0.70710678 9.7573217e-18
vn -0.70710678 -0.70710678 9.7573217e-18
vn 4.9065389e-16 0.0000000e+0 1.00000000
vn -1.00000000 -2.4033935e-16 -1.3939031e-18
vn -1.00000000 -2.4033935e-16 -1.3939031e-18
vn 4.9065389e-16 0.0000000e+0 1.00000000
vn -0.70710678 0.70710678 -1.3939031e-17
vn -0.70710678 0.70710678 -1.3939031e-17
vn 4.9065389e-16 0.0000000e+0 1.00000000
vn -6.0084837e-17 1.00000000 -1.6726837e-17
vn -6.0084837e-17 1.00000000 -1.6726837e-17
vn 4.9065389e-16 0.0000000e+0 1.00000000
vn 0.70710678 0.70710678 -9.7573217e-18
vn 0.70710678 0.70710678 -9.7573217e-18
vn 0.0000000e+0 0.0000000e+0 -1.00000000
vn 1.00000000 1.2016967e-16 1.3939031e-18
vn 1.00000000 1.2016967e-16 1.3939031e-18
vn 0.0000000e+0 0.0000000e+0 -1.00000000
vn 0.70710678 -0.70710678 1.3939031e-17
vn 0.70710678 -0.70710678 1.3939031e-17
vn 0.0000000e+0 0.0000000e+0 -1.00000000
vn 6.0084837e-17 -1.00000000 1.6726837e-17
vn 6.0084837e-17 -1.00000000 1.6726837e-17
vn 0.0000000e+0 0.0000000e+0 -1.00000000
vn -0.70710678 -0.70710678 9.7573217e-18
vn -0.70710678 -0.70710678 9.7573217e-18
vn 0.0000000e+0 0.0000000e+0 -1.00000000
vn -1.00000000 -2.4033935e-16 -1.3939031e-18
vn -1.00000000 -2.4033935e-16 -1.3939031e-18
vn 0.0000000e+0 0.0000000e+0 -1.00000000
vn -0.70710678 0.70710678 -1.3939031e-17
vn -0.70710678 0.70710678 -1.3939031e-17
vn 0.0000000e+0 0.0000000e+0 -1.00000000
vn -6.0084837e-17 1.00000000 -1.6726837e-17
vn -6.0084837e-17 1.00000000 -1.6726837e-17
vn 0.0000000e+0 0.0000000e+0 -1.00000000
vn 0.70710678 0.70710678 -9.7573217e-18
vn 0.70710678 0.70710678 -9.7573217e-18
g piston_upper_piston_upper_auv
usemtl piston_upper_auv
s 1
f 1/8/1 8/7/22 7/5/19 6/3/16 5/1/13 4/2/10 3/4/7 2/6/4
f 10/2/28 11/4/31 12/6/34 13/8/37 14/7/40 15/5/43 16/3/46 9/1/25
s 2
f 1/14/2 9/25/26 16/27/47 8/17/23
f 2/11/6 10/23/30 9/25/27 1/14/3
f 3/20/9 11/13/33 10/11/29 2/19/5
f 4/22/12 12/17/36 11/13/32 3/20/8
f 5/26/15 13/13/39 12/9/35 4/24/11
f 6/28/18 14/16/42 13/13/38 5/26/14
f 7/20/21 15/12/45 14/10/41 6/18/17
f 8/21/24 16/15/48 15/12/44 7/20/20
