# Exported from Wings 3D 1.5.4
mtllib Alnair_Control_1_Collider.mtl
o Alnair_Control_1_Collider
#64 vertices, 50 faces
v 0.25000000 3.1250000e-2 -4.9728092e-2
v 0.25000000 3.1250000e-2 4.9728092e-2
v 0.21193977 3.1250000e-2 0.14161362
v 0.14161362 3.1250000e-2 0.21193977
v 4.9728092e-2 3.1250000e-2 0.25000000
v -4.9728092e-2 3.1250000e-2 0.25000000
v -0.14161362 3.1250000e-2 0.21193977
v -0.21193977 3.1250000e-2 0.14161362
v -0.25000000 3.1250000e-2 4.9728092e-2
v -0.25000000 3.1250000e-2 -4.9728092e-2
v -0.21193977 3.1250000e-2 -0.14161362
v -0.14161362 3.1250000e-2 -0.21193977
v -4.9728092e-2 3.1250000e-2 -0.25000000
v 4.9728092e-2 3.1250000e-2 -0.25000000
v 0.14161362 3.1250000e-2 -0.21193977
v 0.21193977 3.1250000e-2 -0.14161362
v 0.25000000 -0.28125000 -4.9728092e-2
v 0.25000000 -0.28125000 4.9728092e-2
v 0.21193977 -0.28125000 0.14161362
v 0.14161362 -0.28125000 0.21193977
v 4.9728092e-2 -0.28125000 0.25000000
v -4.9728092e-2 -0.28125000 0.25000000
v -0.14161362 -0.28125000 0.21193977
v -0.21193977 -0.28125000 0.14161362
v -0.25000000 -0.28125000 4.9728092e-2
v -0.25000000 -0.28125000 -4.9728092e-2
v -0.21193977 -0.28125000 -0.14161362
v -0.14161362 -0.28125000 -0.21193977
v -4.9728092e-2 -0.28125000 -0.25000000
v 4.9728092e-2 -0.28125000 -0.25000000
v 0.14161362 -0.28125000 -0.21193977
v 0.21193977 -0.28125000 -0.14161362
v 0.20000000 0.18125000 3.9782473e-2
v 0.20000000 0.18125000 -3.9782473e-2
v 0.16955181 0.18125000 -0.11329090
v 0.11329090 0.18125000 -0.16955181
v 3.9782473e-2 0.18125000 -0.20000000
v -3.9782473e-2 0.18125000 -0.20000000
v -0.11329090 0.18125000 -0.16955181
v -0.16955181 0.18125000 -0.11329090
v -0.20000000 0.18125000 -3.9782473e-2
v -0.20000000 0.18125000 3.9782473e-2
v -0.16955181 0.18125000 0.11329090
v -0.11329090 0.18125000 0.16955181
v -3.9782473e-2 0.18125000 0.20000000
v 3.9782473e-2 0.18125000 0.20000000
v 0.11329090 0.18125000 0.16955181
v 0.16955181 0.18125000 0.11329090
v 9.0000000e-2 0.27125000 1.7902113e-2
v 9.0000000e-2 0.27125000 -1.7902113e-2
v 7.6298316e-2 0.27125000 -5.0980905e-2
v 5.0980905e-2 0.27125000 -7.6298316e-2
v 1.7902113e-2 0.27125000 -9.0000000e-2
v -1.7902113e-2 0.27125000 -9.0000000e-2
v -5.0980905e-2 0.27125000 -7.6298316e-2
v -7.6298316e-2 0.27125000 -5.0980905e-2
v -9.0000000e-2 0.27125000 -1.7902113e-2
v -9.0000000e-2 0.27125000 1.7902113e-2
v -7.6298316e-2 0.27125000 5.0980905e-2
v -5.0980905e-2 0.27125000 7.6298316e-2
v -1.7902113e-2 0.27125000 9.0000000e-2
v 1.7902113e-2 0.27125000 9.0000000e-2
v 5.0980905e-2 0.27125000 7.6298316e-2
v 7.6298316e-2 0.27125000 5.0980905e-2
vn 0.92387953 0.0000000e+0 -0.38268343
vn 1.00000000 0.0000000e+0 0.0000000e+0
vn 0.94868330 0.31622777 0.0000000e+0
vn 0.87646908 0.31622777 -0.36304538
vn 0.92387953 -1.3953670e-17 0.38268343
vn 1.00000000 0.0000000e+0 0.0000000e+0
vn 0.94868330 0.31622777 0.0000000e+0
vn 0.87646908 0.31622777 0.36304538
vn 0.70710678 0.0000000e+0 0.70710678
vn 0.92387953 -1.3953670e-17 0.38268343
vn 0.67082039 0.31622777 0.67082039
vn 0.87646908 0.31622777 0.36304538
vn 0.38268343 0.0000000e+0 0.92387953
vn 0.70710678 0.0000000e+0 0.70710678
vn 0.36304538 0.31622777 0.87646908
vn 0.67082039 0.31622777 0.67082039
vn -2.7907340e-16 -6.1966743e-33 1.00000000
vn 0.38268343 0.0000000e+0 0.92387953
vn -3.0642625e-16 0.31622777 0.94868330
vn 0.36304538 0.31622777 0.87646908
vn -0.38268343 -1.3953670e-17 0.92387953
vn -2.7907340e-16 -6.1966743e-33 1.00000000
vn -0.36304538 0.31622777 0.87646908
vn -3.0642625e-16 0.31622777 0.94868330
vn -0.70710678 0.0000000e+0 0.70710678
vn -0.38268343 -1.3953670e-17 0.92387953
vn -0.67082039 0.31622777 0.67082039
vn -0.36304538 0.31622777 0.87646908
vn -0.92387953 -6.9768351e-18 0.38268343
vn -0.70710678 0.0000000e+0 0.70710678
vn -0.87646908 0.31622777 0.36304538
vn -0.67082039 0.31622777 0.67082039
vn -1.00000000 0.0000000e+0 0.0000000e+0
vn -0.92387953 -6.9768351e-18 0.38268343
vn -0.94868330 0.31622777 0.0000000e+0
vn -0.87646908 0.31622777 0.36304538
vn -0.92387953 0.0000000e+0 -0.38268343
vn -1.00000000 0.0000000e+0 0.0000000e+0
vn -0.87646908 0.31622777 -0.36304538
vn -0.94868330 0.31622777 0.0000000e+0
vn -0.70710678 0.0000000e+0 -0.70710678
vn -0.92387953 0.0000000e+0 -0.38268343
vn -0.67082039 0.31622777 -0.67082039
vn -0.87646908 0.31622777 -0.36304538
vn -0.38268343 -6.9768351e-18 -0.92387953
vn -0.70710678 0.0000000e+0 -0.70710678
vn -0.36304538 0.31622777 -0.87646908
vn -0.67082039 0.31622777 -0.67082039
vn 2.7907340e-16 0.0000000e+0 -1.00000000
vn -0.38268343 -6.9768351e-18 -0.92387953
vn 3.0642625e-16 0.31622777 -0.94868330
vn -0.36304538 0.31622777 -0.87646908
vn 0.38268343 6.9768351e-18 -0.92387953
vn 2.7907340e-16 0.0000000e+0 -1.00000000
vn 0.36304538 0.31622777 -0.87646908
vn 3.0642625e-16 0.31622777 -0.94868330
vn 0.70710678 0.0000000e+0 -0.70710678
vn 0.38268343 6.9768351e-18 -0.92387953
vn 0.67082039 0.31622777 -0.67082039
vn 0.36304538 0.31622777 -0.87646908
vn 0.92387953 0.0000000e+0 -0.38268343
vn 0.70710678 0.0000000e+0 -0.70710678
vn 0.87646908 0.31622777 -0.36304538
vn 0.67082039 0.31622777 -0.67082039
vn 0.0000000e+0 -1.00000000 -5.2326263e-17
vn 0.92387953 0.0000000e+0 -0.38268343
vn 1.00000000 0.0000000e+0 0.0000000e+0
vn 0.0000000e+0 -1.00000000 -5.2326263e-17
vn 0.92387953 -1.3953670e-17 0.38268343
vn 1.00000000 0.0000000e+0 0.0000000e+0
vn 0.0000000e+0 -1.00000000 -5.2326263e-17
vn 0.70710678 0.0000000e+0 0.70710678
vn 0.92387953 -1.3953670e-17 0.38268343
vn 0.0000000e+0 -1.00000000 -5.2326263e-17
vn 0.38268343 0.0000000e+0 0.92387953
vn 0.70710678 0.0000000e+0 0.70710678
vn 0.0000000e+0 -1.00000000 -5.2326263e-17
vn -2.7907340e-16 -6.1966743e-33 1.00000000
vn 0.38268343 0.0000000e+0 0.92387953
vn 0.0000000e+0 -1.00000000 -5.2326263e-17
vn -0.38268343 -1.3953670e-17 0.92387953
vn -2.7907340e-16 -6.1966743e-33 1.00000000
vn 0.0000000e+0 -1.00000000 -5.2326263e-17
vn -0.70710678 0.0000000e+0 0.70710678
vn -0.38268343 -1.3953670e-17 0.92387953
vn 0.0000000e+0 -1.00000000 -5.2326263e-17
vn -0.92387953 -6.9768351e-18 0.38268343
vn -0.70710678 0.0000000e+0 0.70710678
vn 0.0000000e+0 -1.00000000 -5.2326263e-17
vn -1.00000000 0.0000000e+0 0.0000000e+0
vn -0.92387953 -6.9768351e-18 0.38268343
vn 0.0000000e+0 -1.00000000 -5.2326263e-17
vn -0.92387953 0.0000000e+0 -0.38268343
vn -1.00000000 0.0000000e+0 0.0000000e+0
vn 0.0000000e+0 -1.00000000 -5.2326263e-17
vn -0.70710678 0.0000000e+0 -0.70710678
vn -0.92387953 0.0000000e+0 -0.38268343
vn 0.0000000e+0 -1.00000000 -5.2326263e-17
vn -0.38268343 -6.9768351e-18 -0.92387953
vn -0.70710678 0.0000000e+0 -0.70710678
vn 0.0000000e+0 -1.00000000 -5.2326263e-17
vn 2.7907340e-16 0.0000000e+0 -1.00000000
vn -0.38268343 -6.9768351e-18 -0.92387953
vn 0.0000000e+0 -1.00000000 -5.2326263e-17
vn 0.38268343 6.9768351e-18 -0.92387953
vn 2.7907340e-16 0.0000000e+0 -1.00000000
vn 0.0000000e+0 -1.00000000 -5.2326263e-17
vn 0.70710678 0.0000000e+0 -0.70710678
vn 0.38268343 6.9768351e-18 -0.92387953
vn 0.0000000e+0 -1.00000000 -5.2326263e-17
vn 0.92387953 0.0000000e+0 -0.38268343
vn 0.70710678 0.0000000e+0 -0.70710678
vn 0.94868330 0.31622777 0.0000000e+0
vn 0.87646908 0.31622777 0.36304538
vn 0.63323779 0.77395730 0.0000000e+0
vn 0.58503543 0.77395730 0.24232961
vn 0.94868330 0.31622777 0.0000000e+0
vn 0.87646908 0.31622777 -0.36304538
vn 0.63323779 0.77395730 0.0000000e+0
vn 0.58503543 0.77395730 -0.24232961
vn 0.87646908 0.31622777 -0.36304538
vn 0.67082039 0.31622777 -0.67082039
vn 0.58503543 0.77395730 -0.24232961
vn 0.44776674 0.77395730 -0.44776674
vn 0.67082039 0.31622777 -0.67082039
vn 0.36304538 0.31622777 -0.87646908
vn 0.44776674 0.77395730 -0.44776674
vn 0.24232961 0.77395730 -0.58503543
vn 0.36304538 0.31622777 -0.87646908
vn 3.0642625e-16 0.31622777 -0.94868330
vn 0.24232961 0.77395730 -0.58503543
vn 2.1158983e-16 0.77395730 -0.63323779
vn 3.0642625e-16 0.31622777 -0.94868330
vn -0.36304538 0.31622777 -0.87646908
vn 2.1158983e-16 0.77395730 -0.63323779
vn -0.24232961 0.77395730 -0.58503543
vn -0.36304538 0.31622777 -0.87646908
vn -0.67082039 0.31622777 -0.67082039
vn -0.24232961 0.77395730 -0.58503543
vn -0.44776674 0.77395730 -0.44776674
vn -0.67082039 0.31622777 -0.67082039
vn -0.87646908 0.31622777 -0.36304538
vn -0.44776674 0.77395730 -0.44776674
vn -0.58503543 0.77395730 -0.24232961
vn -0.87646908 0.31622777 -0.36304538
vn -0.94868330 0.31622777 0.0000000e+0
vn -0.58503543 0.77395730 -0.24232961
vn -0.63323779 0.77395730 0.0000000e+0
vn -0.94868330 0.31622777 0.0000000e+0
vn -0.87646908 0.31622777 0.36304538
vn -0.63323779 0.77395730 0.0000000e+0
vn -0.58503543 0.77395730 0.24232961
vn -0.87646908 0.31622777 0.36304538
vn -0.67082039 0.31622777 0.67082039
vn -0.58503543 0.77395730 0.24232961
vn -0.44776674 0.77395730 0.44776674
vn -0.67082039 0.31622777 0.67082039
vn -0.36304538 0.31622777 0.87646908
vn -0.44776674 0.77395730 0.44776674
vn -0.24232961 0.77395730 0.58503543
vn -0.36304538 0.31622777 0.87646908
vn -3.0642625e-16 0.31622777 0.94868330
vn -0.24232961 0.77395730 0.58503543
vn -2.1158983e-16 0.77395730 0.63323779
vn -3.0642625e-16 0.31622777 0.94868330
vn 0.36304538 0.31622777 0.87646908
vn -2.1158983e-16 0.77395730 0.63323779
vn 0.24232961 0.77395730 0.58503543
vn 0.36304538 0.31622777 0.87646908
vn 0.67082039 0.31622777 0.67082039
vn 0.24232961 0.77395730 0.58503543
vn 0.44776674 0.77395730 0.44776674
vn 0.67082039 0.31622777 0.67082039
vn 0.87646908 0.31622777 0.36304538
vn 0.44776674 0.77395730 0.44776674
vn 0.58503543 0.77395730 0.24232961
vn 0.0000000e+0 1.00000000 1.0093801e-16
vn 0.63323779 0.77395730 0.0000000e+0
vn 0.58503543 0.77395730 0.24232961
vn 0.0000000e+0 1.00000000 1.0093801e-16
vn 0.63323779 0.77395730 0.0000000e+0
vn 0.58503543 0.77395730 -0.24232961
vn 0.0000000e+0 1.00000000 1.0093801e-16
vn 0.58503543 0.77395730 -0.24232961
vn 0.44776674 0.77395730 -0.44776674
vn 0.0000000e+0 1.00000000 1.0093801e-16
vn 0.44776674 0.77395730 -0.44776674
vn 0.24232961 0.77395730 -0.58503543
vn 0.0000000e+0 1.00000000 1.0093801e-16
vn 0.24232961 0.77395730 -0.58503543
vn 2.1158983e-16 0.77395730 -0.63323779
vn 0.0000000e+0 1.00000000 1.0093801e-16
vn 2.1158983e-16 0.77395730 -0.63323779
vn -0.24232961 0.77395730 -0.58503543
vn 0.0000000e+0 1.00000000 1.0093801e-16
vn -0.24232961 0.77395730 -0.58503543
vn -0.44776674 0.77395730 -0.44776674
vn 0.0000000e+0 1.00000000 1.0093801e-16
vn -0.44776674 0.77395730 -0.44776674
vn -0.58503543 0.77395730 -0.24232961
vn 0.0000000e+0 1.00000000 1.0093801e-16
vn -0.58503543 0.77395730 -0.24232961
vn -0.63323779 0.77395730 0.0000000e+0
vn 0.0000000e+0 1.00000000 1.0093801e-16
vn -0.63323779 0.77395730 0.0000000e+0
vn -0.58503543 0.77395730 0.24232961
vn 0.0000000e+0 1.00000000 1.0093801e-16
vn -0.58503543 0.77395730 0.24232961
vn -0.44776674 0.77395730 0.44776674
vn 0.0000000e+0 1.00000000 1.0093801e-16
vn -0.44776674 0.77395730 0.44776674
vn -0.24232961 0.77395730 0.58503543
vn 0.0000000e+0 1.00000000 1.0093801e-16
vn -0.24232961 0.77395730 0.58503543
vn -2.1158983e-16 0.77395730 0.63323779
vn 0.0000000e+0 1.00000000 1.0093801e-16
vn -2.1158983e-16 0.77395730 0.63323779
vn 0.24232961 0.77395730 0.58503543
vn 0.0000000e+0 1.00000000 1.0093801e-16
vn 0.24232961 0.77395730 0.58503543
vn 0.44776674 0.77395730 0.44776674
vn 0.0000000e+0 1.00000000 1.0093801e-16
vn 0.44776674 0.77395730 0.44776674
vn 0.58503543 0.77395730 0.24232961
g Alnair_Control_1_Collider_default
usemtl default
s 1
f 1//1 17//66 32//111 16//61
f 1//3 34//117 33//113 2//7
f 3//10 19//73 18//69 2//5
f 5//18 21//79 20//75 4//13
f 5//19 46//165 45//162 6//24
f 7//26 23//85 22//81 6//21
f 8//31 43//153 42//150 9//36
f 10//38 26//94 25//90 9//33
f 10//39 41//145 40//142 11//44
f 12//46 28//100 27//96 11//41
f 14//54 30//106 29//102 13//49
f 15//59 36//125 35//122 16//64
f 35//123 51//184 50//182 34//120
f 37//131 53//190 52//188 36//128
f 39//139 55//196 54//194 38//136
f 42//151 58//205 57//203 41//148
f 44//159 60//211 59//209 43//156
f 48//175 64//223 63//221 47//172
s 2
f 2//6 18//70 17//67 1//2
f 2//8 33//114 48//174 3//12
f 4//14 20//76 19//72 3//9
f 4//15 47//169 46//166 5//20
f 6//22 22//82 21//78 5//17
f 6//23 45//161 44//158 7//28
f 9//34 25//91 24//87 8//29
f 9//35 42//149 41//146 10//40
f 11//42 27//97 26//93 10//37
f 11//43 40//141 39//138 12//48
f 13//50 29//103 28//99 12//45
f 13//51 38//133 37//130 14//56
f 15//58 31//109 30//105 14//53
f 16//63 35//121 34//118 1//4
f 50//180 51//183 52//186 53//189 54//192 55//195 56//198 57//201 58//204 59//207 60//210 61//213 62//216 63//219 64//222 49//177
s 3
f 3//11 48//173 47//170 4//16
f 7//27 44//157 43//154 8//32
f 12//47 39//137 38//134 13//52
f 14//55 37//129 36//126 15//60
f 16//62 32//112 31//108 15//57
f 33//116 49//179 64//224 48//176
f 36//127 52//187 51//185 35//124
f 38//135 54//193 53//191 37//132
f 41//147 57//202 56//200 40//144
f 43//155 59//208 58//206 42//152
f 46//167 62//217 61//215 45//164
s 4
f 18//68 19//71 20//74 21//77 22//80 23//83 24//86 25//89 26//92 27//95 28//98 29//101 30//104 31//107 32//110 17//65
f 34//119 50//181 49//178 33//115
f 40//143 56//199 55//197 39//140
f 45//163 61//214 60//212 44//160
f 47//171 63//220 62//218 46//168
s 5
f 8//30 24//88 23//84 7//25
