# Exported from Wings 3D 1.5.4
mtllib lepus_cone_antenna_srf_1.mtl
o lepus_cone_antenna_srf_1
#52 vertices, 30 faces
v 1.8750000e-2 2.5000000e-2 -3.4694470e-18
v 1.8750000e-2 1.7677670e-2 1.7677670e-2
v 1.8750000e-2 -5.5238874e-18 2.5000000e-2
v 1.8750000e-2 -1.7677670e-2 1.7677670e-2
v 1.8750000e-2 -2.5000000e-2 -3.4694470e-18
v 3.1250000e-2 2.5000000e-2 -3.4694470e-18
v 3.1250000e-2 1.7677670e-2 1.7677670e-2
v 3.1250000e-2 -8.5855044e-18 2.5000000e-2
v 3.1250000e-2 -1.7677670e-2 1.7677670e-2
v 3.1250000e-2 -2.5000000e-2 -3.4694470e-18
v 1.8750000e-2 -2.5000000e-2 -2.5000000e-2
v 1.8750000e-2 2.5000000e-2 -2.5000000e-2
v 3.1250000e-2 2.5000000e-2 -2.5000000e-2
v 3.1250000e-2 -2.5000000e-2 -2.5000000e-2
v -1.8750000e-2 2.5000000e-2 -3.4694470e-18
v -1.8750000e-2 1.7677670e-2 1.7677670e-2
v -1.8750000e-2 -5.5238874e-18 2.5000000e-2
v -1.8750000e-2 -1.7677670e-2 1.7677670e-2
v -1.8750000e-2 -2.5000000e-2 -3.4694470e-18
v -3.1250000e-2 2.5000000e-2 -3.4694470e-18
v -3.1250000e-2 1.7677670e-2 1.7677670e-2
v -3.1250000e-2 -8.5855044e-18 2.5000000e-2
v -3.1250000e-2 -1.7677670e-2 1.7677670e-2
v -3.1250000e-2 -2.5000000e-2 -3.4694470e-18
v -1.8750000e-2 -2.5000000e-2 -2.5000000e-2
v -1.8750000e-2 2.5000000e-2 -2.5000000e-2
v -3.1250000e-2 2.5000000e-2 -2.5000000e-2
v -3.1250000e-2 -2.5000000e-2 -2.5000000e-2
v 6.2500000e-2 9.0378352e-18 -2.5000000e-2
v 5.4126588e-2 -3.1250000e-2 -2.5000000e-2
v 3.1250000e-2 -5.4126588e-2 -2.5000000e-2
v -8.2909153e-17 -6.2500000e-2 -2.5000000e-2
v -3.1250000e-2 -5.4126588e-2 -2.5000000e-2
v -5.4126588e-2 -3.1250000e-2 -2.5000000e-2
v -6.2500000e-2 1.3837927e-18 -2.5000000e-2
v -5.4126588e-2 3.1250000e-2 -2.5000000e-2
v -3.1250000e-2 5.4126588e-2 -2.5000000e-2
v -9.8217238e-17 6.2500000e-2 -2.5000000e-2
v 3.1250000e-2 5.4126588e-2 -2.5000000e-2
v 5.4126588e-2 3.1250000e-2 -2.5000000e-2
v 3.1250000e-2 -8.4060882e-19 -0.20000000
v 2.7063294e-2 -1.5625000e-2 -0.20000000
v 1.5625000e-2 -2.7063294e-2 -0.20000000
v -9.0431602e-17 -3.1250000e-2 -0.20000000
v -1.5625000e-2 -2.7063294e-2 -0.20000000
v -2.7063294e-2 -1.5625000e-2 -0.20000000
v -3.1250000e-2 -4.6676301e-18 -0.20000000
v -2.7063294e-2 1.5625000e-2 -0.20000000
v -1.5625000e-2 2.7063294e-2 -0.20000000
v -9.8085645e-17 3.1250000e-2 -0.20000000
v 1.5625000e-2 2.7063294e-2 -0.20000000
v 2.7063294e-2 1.5625000e-2 -0.20000000
vt 0.14604212 8.9401453e-2
vt 0.14604212 0.12815145
vt 0.16541712 8.9401453e-2
vt 0.16541712 0.12815145
vt 0.17911731 9.5076259e-2
vt 0.17911731 0.12247665
vt 0.18479212 0.10877645
vt 0.22505030 8.9401453e-2
vt 0.22505030 0.10393270
vt 0.22505030 0.10535140
vt 0.22505030 0.10877645
vt 0.22505030 0.11220150
vt 0.22505030 0.11362020
vt 0.22505030 0.12815145
vt 0.23473780 8.9401453e-2
vt 0.23473780 0.10393270
vt 0.23473780 0.10535140
vt 0.23473780 0.10877645
vt 0.23473780 0.11220150
vt 0.23473780 0.11362020
vt 0.23473780 0.12815145
vt 0.27229254 0.10877645
vt 0.27796734 9.5076259e-2
vt 0.27796734 0.12247665
vt 0.29166754 8.9401453e-2
vt 0.29166754 0.12815145
vt 0.31104254 8.9401453e-2
vt 0.31104254 0.12815145
vt 0.76807319 0.42555660
vt 0.77456404 0.40133243
vt 0.77456404 0.44978077
vt 0.78226339 0.51274604
vt 0.78226339 0.51274604
vt 0.78226339 0.51274604
vt 0.79229737 0.38359910
vt 0.79229737 0.46751410
vt 0.79229737 0.71194133
vt 0.79554279 0.69982924
vt 0.79554279 0.72405341
vt 0.79939246 0.64980276
vt 0.79939246 0.64980276
vt 0.80398219 0.51274604
vt 0.80398219 0.51274604
vt 0.80398219 0.51274604
vt 0.80440945 0.69096258
vt 0.80440945 0.73292008
vt 0.81025186 0.64980276
vt 0.81025186 0.64980276
vt 0.81652154 0.37710825
vt 0.81652154 0.47400494
vt 0.81652154 0.68771715
vt 0.81652154 0.73616550
vt 0.82279122 0.64980276
vt 0.82279122 0.64980276
vt 0.82863363 0.69096258
vt 0.82863363 0.73292008
vt 0.82906090 0.51274604
vt 0.82906090 0.51274604
vt 0.82906090 0.51274604
vt 0.83365062 0.64980276
vt 0.83365062 0.64980276
vt 0.83750029 0.69982924
vt 0.83750029 0.72405341
vt 0.84074571 0.71194133
vt 0.84074571 0.38359910
vt 0.84074571 0.46751410
vt 0.85077969 0.51274604
vt 0.85077969 0.51274604
vt 0.85077969 0.51274604
vt 0.85077969 0.51274604
vt 0.85847904 0.40133243
vt 0.85847904 0.44978077
vt 0.86496989 0.42555660
vn 1.4443308e-16 0.98078528 0.19509032
vn -1.00000000 0.0000000e+0 0.0000000e+0
vn 1.4443308e-16 0.98078528 0.19509032
vn 2.1466108e-16 0.70710678 0.70710678
vn 2.1466108e-16 0.70710678 0.70710678
vn -1.00000000 0.0000000e+0 0.0000000e+0
vn 3.0665868e-17 -6.0084837e-17 1.00000000
vn 3.0665868e-17 -6.0084837e-17 1.00000000
vn -1.00000000 0.0000000e+0 0.0000000e+0
vn -9.1997605e-17 -0.70710678 0.70710678
vn -9.1997605e-17 -0.70710678 0.70710678
vn -1.00000000 0.0000000e+0 0.0000000e+0
vn -5.7773233e-17 -0.98078528 0.19509032
vn -1.00000000 0.0000000e+0 0.0000000e+0
vn -5.7773233e-17 -0.98078528 0.19509032
vn 1.00000000 -5.0808874e-17 0.0000000e+0
vn 1.4443308e-16 0.98078528 0.19509032
vn 1.4443308e-16 0.98078528 0.19509032
vn 1.00000000 -5.0808874e-17 0.0000000e+0
vn 2.1466108e-16 0.70710678 0.70710678
vn 2.1466108e-16 0.70710678 0.70710678
vn 1.00000000 -5.0808874e-17 0.0000000e+0
vn 3.0665868e-17 -6.0084837e-17 1.00000000
vn 3.0665868e-17 -6.0084837e-17 1.00000000
vn 1.00000000 -5.0808874e-17 0.0000000e+0
vn -9.1997605e-17 -0.70710678 0.70710678
vn -9.1997605e-17 -0.70710678 0.70710678
vn 1.00000000 -5.0808874e-17 0.0000000e+0
vn -5.7773233e-17 -0.98078528 0.19509032
vn -5.7773233e-17 -0.98078528 0.19509032
vn -1.00000000 0.0000000e+0 0.0000000e+0
vn 0.0000000e+0 -1.00000000 0.0000000e+0
vn -1.00000000 0.0000000e+0 0.0000000e+0
vn 0.0000000e+0 1.00000000 0.0000000e+0
vn 1.00000000 -5.0808874e-17 0.0000000e+0
vn 0.0000000e+0 1.00000000 0.0000000e+0
vn 1.00000000 -5.0808874e-17 0.0000000e+0
vn 0.0000000e+0 -1.00000000 0.0000000e+0
vn -1.4443308e-16 0.98078528 0.19509032
vn 1.00000000 0.0000000e+0 0.0000000e+0
vn -1.4443308e-16 0.98078528 0.19509032
vn -2.1466108e-16 0.70710678 0.70710678
vn -2.1466108e-16 0.70710678 0.70710678
vn 1.00000000 0.0000000e+0 0.0000000e+0
vn -3.0665868e-17 -6.0084837e-17 1.00000000
vn -3.0665868e-17 -6.0084837e-17 1.00000000
vn 1.00000000 0.0000000e+0 0.0000000e+0
vn 9.1997605e-17 -0.70710678 0.70710678
vn 9.1997605e-17 -0.70710678 0.70710678
vn 1.00000000 0.0000000e+0 0.0000000e+0
vn 5.7773233e-17 -0.98078528 0.19509032
vn 1.00000000 0.0000000e+0 0.0000000e+0
vn 5.7773233e-17 -0.98078528 0.19509032
vn -1.00000000 0.0000000e+0 0.0000000e+0
vn -1.4443308e-16 0.98078528 0.19509032
vn -1.4443308e-16 0.98078528 0.19509032
vn -1.00000000 0.0000000e+0 0.0000000e+0
vn -2.1466108e-16 0.70710678 0.70710678
vn -2.1466108e-16 0.70710678 0.70710678
vn -1.00000000 0.0000000e+0 0.0000000e+0
vn -3.0665868e-17 -6.0084837e-17 1.00000000
vn -3.0665868e-17 -6.0084837e-17 1.00000000
vn -1.00000000 0.0000000e+0 0.0000000e+0
vn 9.1997605e-17 -0.70710678 0.70710678
vn 9.1997605e-17 -0.70710678 0.70710678
vn -1.00000000 0.0000000e+0 0.0000000e+0
vn 5.7773233e-17 -0.98078528 0.19509032
vn 5.7773233e-17 -0.98078528 0.19509032
vn 1.00000000 0.0000000e+0 0.0000000e+0
vn 0.0000000e+0 -1.00000000 0.0000000e+0
vn 1.00000000 0.0000000e+0 0.0000000e+0
vn 0.0000000e+0 1.00000000 0.0000000e+0
vn -1.00000000 0.0000000e+0 0.0000000e+0
vn 0.0000000e+0 1.00000000 0.0000000e+0
vn -1.00000000 0.0000000e+0 0.0000000e+0
vn 0.0000000e+0 -1.00000000 0.0000000e+0
vn 0.0000000e+0 1.8503717e-17 1.00000000
vn 0.98442758 2.0093451e-16 -0.17579064
vn 0.98442758 2.0093451e-16 -0.17579064
vn 0.0000000e+0 1.8503717e-17 1.00000000
vn 0.85253929 -0.49221379 -0.17579064
vn 0.85253929 -0.49221379 -0.17579064
vn 0.0000000e+0 1.8503717e-17 1.00000000
vn 0.49221379 -0.85253929 -0.17579064
vn 0.49221379 -0.85253929 -0.17579064
vn 0.0000000e+0 1.8503717e-17 1.00000000
vn 2.8704930e-17 -0.98442758 -0.17579064
vn 2.8704930e-17 -0.98442758 -0.17579064
vn 0.0000000e+0 1.8503717e-17 1.00000000
vn -0.49221379 -0.85253929 -0.17579064
vn -0.49221379 -0.85253929 -0.17579064
vn 0.0000000e+0 1.8503717e-17 1.00000000
vn -0.85253929 -0.49221379 -0.17579064
vn -0.85253929 -0.49221379 -0.17579064
vn 0.0000000e+0 1.8503717e-17 1.00000000
vn -0.98442758 -3.1575423e-16 -0.17579064
vn -0.98442758 -3.1575423e-16 -0.17579064
vn 0.0000000e+0 1.8503717e-17 1.00000000
vn -0.85253929 0.49221379 -0.17579064
vn -0.85253929 0.49221379 -0.17579064
vn 0.0000000e+0 1.8503717e-17 1.00000000
vn -0.49221379 0.85253929 -0.17579064
vn -0.49221379 0.85253929 -0.17579064
vn 0.0000000e+0 1.8503717e-17 1.00000000
vn -3.4445915e-16 0.98442758 -0.17579064
vn -3.4445915e-16 0.98442758 -0.17579064
vn 0.0000000e+0 1.8503717e-17 1.00000000
vn 0.49221379 0.85253929 -0.17579064
vn 0.49221379 0.85253929 -0.17579064
vn 0.0000000e+0 1.8503717e-17 1.00000000
vn 0.85253929 0.49221379 -0.17579064
vn 0.85253929 0.49221379 -0.17579064
vn 5.9211895e-16 0.0000000e+0 -1.00000000
vn 0.98442758 2.0093451e-16 -0.17579064
vn 0.98442758 2.0093451e-16 -0.17579064
vn 5.9211895e-16 0.0000000e+0 -1.00000000
vn 0.85253929 -0.49221379 -0.17579064
vn 0.85253929 -0.49221379 -0.17579064
vn 5.9211895e-16 0.0000000e+0 -1.00000000
vn 0.49221379 -0.85253929 -0.17579064
vn 0.49221379 -0.85253929 -0.17579064
vn 5.9211895e-16 0.0000000e+0 -1.00000000
vn 2.8704930e-17 -0.98442758 -0.17579064
vn 2.8704930e-17 -0.98442758 -0.17579064
vn 5.9211895e-16 0.0000000e+0 -1.00000000
vn -0.49221379 -0.85253929 -0.17579064
vn -0.49221379 -0.85253929 -0.17579064
vn 5.9211895e-16 0.0000000e+0 -1.00000000
vn -0.85253929 -0.49221379 -0.17579064
vn -0.85253929 -0.49221379 -0.17579064
vn 5.9211895e-16 0.0000000e+0 -1.00000000
vn -0.98442758 -3.1575423e-16 -0.17579064
vn -0.98442758 -3.1575423e-16 -0.17579064
vn 5.9211895e-16 0.0000000e+0 -1.00000000
vn -0.85253929 0.49221379 -0.17579064
vn -0.85253929 0.49221379 -0.17579064
vn 5.9211895e-16 0.0000000e+0 -1.00000000
vn -0.49221379 0.85253929 -0.17579064
vn -0.49221379 0.85253929 -0.17579064
vn 5.9211895e-16 0.0000000e+0 -1.00000000
vn -3.4445915e-16 0.98442758 -0.17579064
vn -3.4445915e-16 0.98442758 -0.17579064
vn 5.9211895e-16 0.0000000e+0 -1.00000000
vn 0.49221379 0.85253929 -0.17579064
vn 0.49221379 0.85253929 -0.17579064
vn 5.9211895e-16 0.0000000e+0 -1.00000000
vn 0.85253929 0.49221379 -0.17579064
vn 0.85253929 0.49221379 -0.17579064
g lepus_cone_antenna_srf_1_lepus_cone_antenna_srf_1_auv
usemtl lepus_cone_antenna_srf_1_auv
s 1
f 1/4/2 12/2/33 11/1/31 5/3/14 4/5/12 3/7/9 2/6/6
f 7/24/19 8/22/22 9/23/25 10/25/28 14/27/37 13/28/35 6/26/16
f 29/73/77 40/72/110 39/66/107 38/50/104 37/36/101 36/31/98 35/29/95 34/30/92 33/35/89 32/49/86 31/65/83 30/71/80
f 42/38/116 43/45/119 44/51/122 45/55/125 46/62/128 47/64/131 48/63/134 49/56/137 50/52/140 51/46/143 52/39/146 41/37/113
s 2
f 16/5/44 17/7/47 18/6/50 19/4/52 25/2/69 26/1/71 15/3/40
f 20/25/54 27/27/73 28/28/75 24/26/66 23/24/63 22/22/60 21/23/57
f 29/68/78 41/61/114 52/54/147 40/57/111
f 30/42/82 42/47/118 41/40/115 29/32/79
f 31/58/85 43/53/121 42/47/117 30/42/81
f 32/67/88 44/60/124 43/53/120 31/58/84
f 33/44/91 45/48/127 44/41/123 32/34/87
f 34/57/94 46/54/130 45/48/126 33/44/90
f 35/70/97 47/61/133 46/54/129 34/57/93
f 36/43/100 48/47/136 47/40/132 35/33/96
f 37/59/103 49/53/139 48/47/135 36/43/99
f 38/69/106 50/60/142 49/53/138 37/59/102
f 39/44/109 51/48/145 50/41/141 38/34/105
f 40/57/112 52/54/148 51/48/144 39/44/108
s 3
f 2/12/5 7/19/21 6/20/17 1/13/1
f 3/11/8 8/18/24 7/19/20 2/12/4
f 4/10/11 9/17/27 8/18/23 3/11/7
f 5/9/13 10/16/29 9/17/26 4/10/10
f 5/9/15 11/8/32 14/15/38 10/16/30
f 6/20/18 13/21/36 12/14/34 1/13/3
f 15/20/39 20/13/55 21/12/59 16/19/43
f 15/20/41 26/21/72 27/14/74 20/13/56
f 16/19/42 21/12/58 22/11/62 17/18/46
f 17/18/45 22/11/61 23/10/65 18/17/49
f 18/17/48 23/10/64 24/9/67 19/16/51
f 24/9/68 28/8/76 25/15/70 19/16/53
