# Exported from Wings 3D 1.5.4
mtllib end_basic_s1p5.mtl
o end
#121 vertices, 120 faces
v 0.93750000 0.0000000e+0 -4.9224107e-18
v 0.90555546 0.0000000e+0 0.24264285
v 0.81189882 0.0000000e+0 0.46875000
v 0.66291261 0.0000000e+0 0.66291261
v 0.46875000 0.0000000e+0 0.81189882
v 0.24264285 0.0000000e+0 0.90555546
v 2.8462995e-17 0.0000000e+0 0.93750000
v -0.24264285 0.0000000e+0 0.90555546
v -0.46875000 0.0000000e+0 0.81189882
v -0.66291261 0.0000000e+0 0.66291261
v -0.81189882 0.0000000e+0 0.46875000
v -0.90555546 0.0000000e+0 0.24264285
v -0.93750000 0.0000000e+0 1.0988823e-16
v -0.90555546 0.0000000e+0 -0.24264285
v -0.81189882 0.0000000e+0 -0.46875000
v -0.66291261 0.0000000e+0 -0.66291261
v -0.46875000 0.0000000e+0 -0.81189882
v -0.24264285 0.0000000e+0 -0.90555546
v -2.0115828e-16 0.0000000e+0 -0.93750000
v 0.24264285 0.0000000e+0 -0.90555546
v 0.46875000 0.0000000e+0 -0.81189882
v 0.66291261 0.0000000e+0 -0.66291261
v 0.81189882 0.0000000e+0 -0.46875000
v 0.90555546 0.0000000e+0 -0.24264285
v 0.78481473 0.0000000e+0 0.21029047
v 0.81250000 0.0000000e+0 6.7606161e-18
v 0.78481473 0.0000000e+0 -0.21029047
v 0.70364564 0.0000000e+0 -0.40625000
v 0.57452426 0.0000000e+0 -0.57452426
v 0.40625000 0.0000000e+0 -0.70364564
v 0.21029047 0.0000000e+0 -0.78481473
v -2.0136041e-16 0.0000000e+0 -0.81250000
v -0.21029047 0.0000000e+0 -0.78481473
v -0.40625000 0.0000000e+0 -0.70364564
v -0.57452426 0.0000000e+0 -0.57452426
v -0.70364564 0.0000000e+0 -0.40625000
v -0.78481473 0.0000000e+0 -0.21029047
v -0.81250000 0.0000000e+0 1.0626317e-16
v -0.78481473 0.0000000e+0 0.21029047
v -0.70364564 0.0000000e+0 0.40625000
v -0.57452426 0.0000000e+0 0.57452426
v -0.40625000 0.0000000e+0 0.70364564
v -0.21029047 0.0000000e+0 0.78481473
v -2.3553017e-18 0.0000000e+0 0.81250000
v 0.21029047 0.0000000e+0 0.78481473
v 0.40625000 0.0000000e+0 0.70364564
v 0.57452426 0.0000000e+0 0.57452426
v 0.70364564 0.0000000e+0 0.40625000
v 0.78481473 -6.2500000e-2 0.21029047
v 0.81250000 -6.2500000e-2 7.3600745e-18
v 0.78481473 -6.2500000e-2 -0.21029047
v 0.70364564 -6.2500000e-2 -0.40625000
v 0.57452426 -6.2500000e-2 -0.57452426
v 0.40625000 -6.2500000e-2 -0.70364564
v 0.21029047 -6.2500000e-2 -0.78481473
v -2.0185321e-16 -6.2500000e-2 -0.81250000
v -0.21029047 -6.2500000e-2 -0.78481473
v -0.40625000 -6.2500000e-2 -0.70364564
v -0.57452426 -6.2500000e-2 -0.57452426
v -0.70364564 -6.2500000e-2 -0.40625000
v -0.78481473 -6.2500000e-2 -0.21029047
v -0.81250000 -6.2500000e-2 1.0686263e-16
v -0.78481473 -6.2500000e-2 0.21029047
v -0.70364564 -6.2500000e-2 0.40625000
v -0.57452426 -6.2500000e-2 0.57452426
v -0.40625000 -6.2500000e-2 0.70364564
v -0.21029047 -6.2500000e-2 0.78481473
v -2.8481080e-18 -6.2500000e-2 0.81250000
v 0.21029047 -6.2500000e-2 0.78481473
v 0.40625000 -6.2500000e-2 0.70364564
v 0.57452426 -6.2500000e-2 0.57452426
v 0.70364564 -6.2500000e-2 0.40625000
v -5.0885222e-17 0.0000000e+0 1.7347235e-17
v 0.38386351 -2.6088484e-2 0.38386351
v 0.27143249 -2.6088484e-2 0.47013487
v 0.14050380 -2.6088484e-2 0.52436731
v -1.8914689e-17 -2.6088484e-2 0.54286499
v -0.14050380 -2.6088484e-2 0.52436731
v -0.27143249 -2.6088484e-2 0.47013487
v -0.38386351 -2.6088484e-2 0.38386351
v -0.47013487 -2.6088484e-2 0.27143249
v -0.52436731 -2.6088484e-2 0.14050380
v -0.54286499 -2.6088484e-2 7.6915743e-17
v -0.52436731 -2.6088484e-2 -0.14050380
v -0.47013487 -2.6088484e-2 -0.27143249
v -0.38386351 -2.6088484e-2 -0.38386351
v -0.27143249 -2.6088484e-2 -0.47013487
v -0.14050380 -2.6088484e-2 -0.52436731
v -1.5123239e-16 -2.6088484e-2 -0.54286499
v 0.14050380 -2.6088484e-2 -0.52436731
v 0.27143249 -2.6088484e-2 -0.47013487
v 0.38386351 -2.6088484e-2 -0.38386351
v 0.47013487 -2.6088484e-2 -0.27143249
v 0.52436731 -2.6088484e-2 -0.14050380
v 0.54286499 -2.6088484e-2 1.1231229e-17
v 0.52436731 -2.6088484e-2 0.14050380
v 0.47013487 -2.6088484e-2 0.27143249
v 0.23558632 -5.2551511e-3 0.13601583
v 0.26276240 -5.2551511e-3 7.0406973e-2
v 0.27203166 -5.2551511e-3 1.4668703e-17
v 0.26276240 -5.2551511e-3 -7.0406973e-2
v 0.23558632 -5.2551511e-3 -0.13601583
v 0.19235543 -5.2551511e-3 -0.19235543
v 0.13601583 -5.2551511e-3 -0.23558632
v 7.0406973e-2 -5.2551511e-3 -0.26276240
v -1.0092328e-16 -5.2551511e-3 -0.27203166
v -7.0406973e-2 -5.2551511e-3 -0.26276240
v -0.13601583 -5.2551511e-3 -0.23558632
v -0.19235543 -5.2551511e-3 -0.19235543
v -0.23558632 -5.2551511e-3 -0.13601583
v -0.26276240 -5.2551511e-3 -7.0406973e-2
v -0.27203166 -5.2551511e-3 4.7077279e-17
v -0.26276240 -5.2551511e-3 7.0406973e-2
v -0.23558632 -5.2551511e-3 0.13601583
v -0.19235543 -5.2551511e-3 0.19235543
v -0.13601583 -5.2551511e-3 0.23558632
v -7.0406973e-2 -5.2551511e-3 0.26276240
v -3.4899956e-17 -5.2551511e-3 0.27203166
v 7.0406973e-2 -5.2551511e-3 0.26276240
v 0.13601583 -5.2551511e-3 0.23558632
v 0.19235543 -5.2551511e-3 0.19235543
vt 3.8079527e-2 0.30949771
vt 3.8079527e-2 0.30949771
vt 3.8079527e-2 0.41576008
vt 3.8079527e-2 0.41576008
vt 3.8079527e-2 0.52155435
vt 3.8079527e-2 0.52155435
vt 3.8079527e-2 0.62688053
vt 3.8079527e-2 0.41576008
vt 3.8079527e-2 0.52155435
vt 3.8079527e-2 0.62688053
vt 6.5582251e-2 0.41213928
vt 6.5582251e-2 0.41213928
vt 6.5582251e-2 0.41213928
vt 7.9759024e-2 0.82902064
vt 7.9759024e-2 0.82902064
vt 7.9759024e-2 0.82902064
vt 7.9759024e-2 0.82902064
vt 8.6188875e-2 0.78172780
vt 8.6188875e-2 0.76786582
vt 8.6188875e-2 0.76786582
vt 8.6188875e-2 0.78172780
vt 8.6188875e-2 0.78172780
vt 8.6188875e-2 0.78172780
vt 8.6188875e-2 0.78172780
vt 8.6188875e-2 0.76786582
vt 8.6188875e-2 0.76786582
vt 8.6188875e-2 0.76786582
vt 8.6188875e-2 0.78172780
vt 8.6188875e-2 0.78172780
vt 8.6188875e-2 0.78172780
vt 8.6188875e-2 0.78172780
vt 9.1210710e-2 0.40152362
vt 9.1210710e-2 0.40152362
vt 9.1210710e-2 0.40152362
vt 9.1210710e-2 0.40152362
vt 9.2963823e-2 0.51432870
vt 9.2963823e-2 0.51432870
vt 9.2963823e-2 0.51432870
vt 0.11321837 0.38463655
vt 0.11321837 0.38463655
vt 0.11321837 0.38463655
vt 0.12022424 0.61606597
vt 0.12022424 0.61606597
vt 0.12022424 0.61606597
vt 0.12022424 0.61606597
vt 0.13010543 0.36262890
vt 0.13010543 0.36262890
vt 0.13010543 0.36262890
vt 0.14072109 0.33700044
vt 0.14072109 0.33700044
vt 0.14072109 0.33700044
vt 0.14410785 0.49314415
vt 0.14410785 0.49314415
vt 0.14410785 0.49314415
vt 0.14434189 0.30949771
vt 0.14434189 0.30949771
vt 0.14434189 0.30949771
vt 0.16977695 0.76786582
vt 0.16977695 0.76786582
vt 0.16977695 0.78172780
vt 0.16977695 0.76786582
vt 0.16977695 0.76786582
vt 0.16977695 0.76786582
vt 0.16977695 0.78172780
vt 0.16977695 0.78172780
vt 0.16977695 0.78172780
vt 0.16977695 0.78172780
vt 0.16977695 0.76786582
vt 0.16977695 0.76786582
vt 0.16977695 0.78172780
vt 0.16977695 0.78172780
vt 0.16977695 0.78172780
vt 0.17620680 0.82902064
vt 0.17620680 0.82902064
vt 0.17620680 0.82902064
vt 0.17620680 0.82902064
vt 0.18802621 0.45944440
vt 0.18802621 0.45944440
vt 0.18802621 0.45944440
vt 0.19677093 0.58435929
vt 0.19677093 0.58435929
vt 0.19677093 0.58435929
vt 0.19677093 0.58435929
vt 0.22172596 0.41552603
vt 0.22172596 0.41552603
vt 0.22172596 0.41552603
vt 0.22172596 0.41552603
vt 0.24291051 0.36438201
vt 0.24291051 0.36438201
vt 0.24291051 0.36438201
vt 0.24291051 0.36438201
vt 0.25013616 0.30949771
vt 0.25013616 0.30949771
vt 0.25013616 0.30949771
vt 0.26250307 0.53392125
vt 0.26250307 0.53392125
vt 0.26250307 0.53392125
vt 0.26250307 0.53392125
vt 0.31294111 0.46818912
vt 0.31294111 0.46818912
vt 0.31294111 0.46818912
vt 0.31294111 0.46818912
vt 0.34464778 0.39164243
vt 0.34464778 0.39164243
vt 0.34464778 0.39164243
vt 0.34464778 0.39164243
vt 0.35546234 0.30949771
vt 0.35546234 0.30949771
vt 0.35546234 0.30949771
vn -8.9644392e-18 1.00000000 3.8315748e-18
vn 7.4460374e-2 0.99444020 7.4460374e-2
vn 5.2651436e-2 0.99444020 9.1194962e-2
vn 2.7254389e-2 0.99444020 0.10171476
vn -6.9424738e-18 0.99444020 0.10530287
vn -2.7254389e-2 0.99444020 0.10171476
vn -5.2651436e-2 0.99444020 9.1194962e-2
vn -7.4460374e-2 0.99444020 7.4460374e-2
vn -9.1194962e-2 0.99444020 5.2651436e-2
vn -0.10171476 0.99444020 2.7254389e-2
vn -0.10530287 0.99444020 -1.0413711e-17
vn -0.10171476 0.99444020 -2.7254389e-2
vn -9.1194962e-2 0.99444020 -5.2651436e-2
vn -7.4460374e-2 0.99444020 -7.4460374e-2
vn -5.2651436e-2 0.99444020 -9.1194962e-2
vn -2.7254389e-2 0.99444020 -0.10171476
vn 1.9091803e-17 0.99444020 -0.10530287
vn 2.7254389e-2 0.99444020 -0.10171476
vn 5.2651436e-2 0.99444020 -9.1194962e-2
vn 7.4460374e-2 0.99444020 -7.4460374e-2
vn 9.1194962e-2 0.99444020 -5.2651436e-2
vn 0.10171476 0.99444020 -2.7254389e-2
vn 0.10530287 0.99444020 3.3844560e-17
vn 0.10171476 0.99444020 2.7254389e-2
vn 9.1194962e-2 0.99444020 5.2651436e-2
vn 4.1590575e-2 0.99884615 2.4012329e-2
vn 4.6388258e-2 0.99884615 1.2429696e-2
vn 4.8024659e-2 0.99884615 2.7767786e-17
vn 4.6388258e-2 0.99884615 -1.2429696e-2
vn 4.1590575e-2 0.99884615 -2.4012329e-2
vn 3.3958562e-2 0.99884615 -3.3958562e-2
vn 2.4012329e-2 0.99884615 -4.1590575e-2
vn 1.2429696e-2 0.99884615 -4.6388258e-2
vn 9.7621121e-19 0.99884615 -4.8024659e-2
vn -1.2429696e-2 0.99884615 -4.6388258e-2
vn -2.4012329e-2 0.99884615 -4.1590575e-2
vn -3.3958562e-2 0.99884615 -3.3958562e-2
vn -4.1590575e-2 0.99884615 -2.4012329e-2
vn -4.6388258e-2 0.99884615 -1.2429696e-2
vn -4.8024659e-2 0.99884615 -4.2302486e-18
vn -4.6388258e-2 0.99884615 1.2429696e-2
vn -4.1590575e-2 0.99884615 2.4012329e-2
vn -3.3958562e-2 0.99884615 3.3958562e-2
vn -2.4012329e-2 0.99884615 4.1590575e-2
vn -1.2429696e-2 0.99884615 4.6388258e-2
vn -1.0195984e-17 0.99884615 4.8024659e-2
vn 1.2429696e-2 0.99884615 4.6388258e-2
vn 2.4012329e-2 0.99884615 4.1590575e-2
vn 3.3958562e-2 0.99884615 3.3958562e-2
vn 0.0000000e+0 1.00000000 0.0000000e+0
vn 0.0000000e+0 1.00000000 0.0000000e+0
vn 0.0000000e+0 1.00000000 0.0000000e+0
vn 0.0000000e+0 1.00000000 0.0000000e+0
vn 0.0000000e+0 1.00000000 0.0000000e+0
vn 0.0000000e+0 1.00000000 0.0000000e+0
vn 0.0000000e+0 1.00000000 0.0000000e+0
vn 0.0000000e+0 1.00000000 0.0000000e+0
vn 0.0000000e+0 1.00000000 0.0000000e+0
vn 0.0000000e+0 1.00000000 0.0000000e+0
vn 0.0000000e+0 1.00000000 0.0000000e+0
vn 0.0000000e+0 1.00000000 0.0000000e+0
vn 0.0000000e+0 1.00000000 0.0000000e+0
vn 0.0000000e+0 1.00000000 0.0000000e+0
vn 0.0000000e+0 1.00000000 0.0000000e+0
vn 0.0000000e+0 1.00000000 0.0000000e+0
vn 0.0000000e+0 1.00000000 0.0000000e+0
vn 0.0000000e+0 1.00000000 0.0000000e+0
vn 0.0000000e+0 1.00000000 0.0000000e+0
vn 0.0000000e+0 1.00000000 0.0000000e+0
vn 0.0000000e+0 1.00000000 0.0000000e+0
vn 0.0000000e+0 1.00000000 0.0000000e+0
vn 0.0000000e+0 1.00000000 0.0000000e+0
vn 0.0000000e+0 1.00000000 0.0000000e+0
vn 0.0000000e+0 1.00000000 0.0000000e+0
vn 0.0000000e+0 1.00000000 0.0000000e+0
vn 0.0000000e+0 1.00000000 0.0000000e+0
vn 0.0000000e+0 1.00000000 0.0000000e+0
vn 0.0000000e+0 1.00000000 0.0000000e+0
vn 0.0000000e+0 1.00000000 0.0000000e+0
vn 0.0000000e+0 1.00000000 0.0000000e+0
vn 0.0000000e+0 1.00000000 0.0000000e+0
vn 0.0000000e+0 1.00000000 0.0000000e+0
vn 0.0000000e+0 1.00000000 0.0000000e+0
vn 0.0000000e+0 1.00000000 0.0000000e+0
vn 0.0000000e+0 1.00000000 0.0000000e+0
vn 0.0000000e+0 1.00000000 0.0000000e+0
vn 0.0000000e+0 1.00000000 0.0000000e+0
vn 0.0000000e+0 1.00000000 0.0000000e+0
vn 0.0000000e+0 1.00000000 0.0000000e+0
vn 0.0000000e+0 1.00000000 0.0000000e+0
vn 0.0000000e+0 1.00000000 0.0000000e+0
vn 0.0000000e+0 1.00000000 0.0000000e+0
vn 0.0000000e+0 1.00000000 0.0000000e+0
vn 0.0000000e+0 1.00000000 0.0000000e+0
vn 0.0000000e+0 1.00000000 0.0000000e+0
vn 0.0000000e+0 1.00000000 0.0000000e+0
vn 0.0000000e+0 1.00000000 0.0000000e+0
vn 0.0000000e+0 1.00000000 0.0000000e+0
vn 0.0000000e+0 1.00000000 0.0000000e+0
vn -0.96592583 1.1218882e-15 -0.25881905
vn -0.96592583 1.1218882e-15 -0.25881905
vn 0.0000000e+0 1.00000000 0.0000000e+0
vn 0.0000000e+0 1.00000000 0.0000000e+0
vn -1.00000000 0.0000000e+0 -1.8196800e-16
vn -1.00000000 0.0000000e+0 -1.8196800e-16
vn 0.0000000e+0 1.00000000 0.0000000e+0
vn 0.0000000e+0 1.00000000 0.0000000e+0
vn -0.96592583 0.0000000e+0 0.25881905
vn -0.96592583 0.0000000e+0 0.25881905
vn 0.0000000e+0 1.00000000 0.0000000e+0
vn 0.0000000e+0 1.00000000 0.0000000e+0
vn -0.86602540 0.0000000e+0 0.50000000
vn -0.86602540 0.0000000e+0 0.50000000
vn 0.0000000e+0 1.00000000 0.0000000e+0
vn 0.0000000e+0 1.00000000 0.0000000e+0
vn -0.70710678 1.9798026e-16 0.70710678
vn -0.70710678 1.9798026e-16 0.70710678
vn 0.0000000e+0 1.00000000 0.0000000e+0
vn 0.0000000e+0 1.00000000 0.0000000e+0
vn -0.50000000 5.2794737e-16 0.86602540
vn -0.50000000 5.2794737e-16 0.86602540
vn 0.0000000e+0 1.00000000 0.0000000e+0
vn 0.0000000e+0 1.00000000 0.0000000e+0
vn -0.25881905 3.2996711e-16 0.96592583
vn -0.25881905 3.2996711e-16 0.96592583
vn 0.0000000e+0 1.00000000 0.0000000e+0
vn 0.0000000e+0 1.00000000 0.0000000e+0
vn -2.3795816e-16 3.2996711e-17 1.00000000
vn -2.3795816e-16 3.2996711e-17 1.00000000
vn 0.0000000e+0 1.00000000 0.0000000e+0
vn 0.0000000e+0 1.00000000 0.0000000e+0
vn 0.25881905 9.8990132e-17 0.96592583
vn 0.25881905 9.8990132e-17 0.96592583
vn 0.0000000e+0 1.00000000 0.0000000e+0
vn 0.0000000e+0 1.00000000 0.0000000e+0
vn 0.50000000 6.5993421e-17 0.86602540
vn 0.50000000 6.5993421e-17 0.86602540
vn 0.0000000e+0 1.00000000 0.0000000e+0
vn 0.0000000e+0 1.00000000 0.0000000e+0
vn 0.70710678 1.3198684e-16 0.70710678
vn 0.70710678 1.3198684e-16 0.70710678
vn 0.0000000e+0 1.00000000 0.0000000e+0
vn 0.0000000e+0 1.00000000 0.0000000e+0
vn 0.86602540 2.6397368e-16 0.50000000
vn 0.86602540 2.6397368e-16 0.50000000
vn 0.0000000e+0 1.00000000 0.0000000e+0
vn 0.0000000e+0 1.00000000 0.0000000e+0
vn 0.96592583 1.3198684e-16 0.25881905
vn 0.96592583 1.3198684e-16 0.25881905
vn 0.0000000e+0 1.00000000 0.0000000e+0
vn 0.0000000e+0 1.00000000 0.0000000e+0
vn 1.00000000 0.0000000e+0 8.3985232e-17
vn 1.00000000 0.0000000e+0 8.3985232e-17
vn 0.0000000e+0 1.00000000 0.0000000e+0
vn 0.0000000e+0 1.00000000 0.0000000e+0
vn 0.96592583 0.0000000e+0 -0.25881905
vn 0.96592583 0.0000000e+0 -0.25881905
vn 0.0000000e+0 1.00000000 0.0000000e+0
vn 0.0000000e+0 1.00000000 0.0000000e+0
vn 0.86602540 5.9394079e-16 -0.50000000
vn 0.86602540 5.9394079e-16 -0.50000000
vn 0.0000000e+0 1.00000000 0.0000000e+0
vn 0.0000000e+0 1.00000000 0.0000000e+0
vn 0.70710678 1.9138092e-15 -0.70710678
vn 0.70710678 1.9138092e-15 -0.70710678
vn 0.0000000e+0 1.00000000 0.0000000e+0
vn 0.0000000e+0 1.00000000 0.0000000e+0
vn 0.50000000 2.1117895e-15 -0.86602540
vn 0.50000000 2.1117895e-15 -0.86602540
vn 0.0000000e+0 1.00000000 0.0000000e+0
vn 0.0000000e+0 1.00000000 0.0000000e+0
vn 0.25881905 7.9192105e-16 -0.96592583
vn 0.25881905 7.9192105e-16 -0.96592583
vn 0.0000000e+0 1.00000000 0.0000000e+0
vn 0.0000000e+0 1.00000000 0.0000000e+0
vn 2.7995077e-17 0.0000000e+0 -1.00000000
vn 2.7995077e-17 0.0000000e+0 -1.00000000
vn 0.0000000e+0 1.00000000 0.0000000e+0
vn 0.0000000e+0 1.00000000 0.0000000e+0
vn -0.25881905 0.0000000e+0 -0.96592583
vn -0.25881905 0.0000000e+0 -0.96592583
vn 0.0000000e+0 1.00000000 0.0000000e+0
vn 0.0000000e+0 1.00000000 0.0000000e+0
vn -0.50000000 6.5993421e-16 -0.86602540
vn -0.50000000 6.5993421e-16 -0.86602540
vn 0.0000000e+0 1.00000000 0.0000000e+0
vn 0.0000000e+0 1.00000000 0.0000000e+0
vn -0.70710678 2.4417566e-15 -0.70710678
vn -0.70710678 2.4417566e-15 -0.70710678
vn 0.0000000e+0 1.00000000 0.0000000e+0
vn 0.0000000e+0 1.00000000 0.0000000e+0
vn -0.86602540 2.9037105e-15 -0.50000000
vn -0.86602540 2.9037105e-15 -0.50000000
vn -0.96592583 1.1218882e-15 -0.25881905
vn -0.96592583 1.1218882e-15 -0.25881905
vn 0.12926533 0.99100494 3.4636541e-2
vn 0.12926533 0.99100494 3.4636541e-2
vn -1.00000000 0.0000000e+0 -1.8196800e-16
vn -1.00000000 0.0000000e+0 -1.8196800e-16
vn 0.13382532 0.99100494 3.8169839e-17
vn 0.13382532 0.99100494 3.8169839e-17
vn -0.96592583 0.0000000e+0 0.25881905
vn -0.96592583 0.0000000e+0 0.25881905
vn 0.12926533 0.99100494 -3.4636541e-2
vn 0.12926533 0.99100494 -3.4636541e-2
vn -0.86602540 0.0000000e+0 0.50000000
vn -0.86602540 0.0000000e+0 0.50000000
vn 0.11589613 0.99100494 -6.6912660e-2
vn 0.11589613 0.99100494 -6.6912660e-2
vn -0.70710678 1.9798026e-16 0.70710678
vn -0.70710678 1.9798026e-16 0.70710678
vn 9.4628791e-2 0.99100494 -9.4628791e-2
vn 9.4628791e-2 0.99100494 -9.4628791e-2
vn -0.50000000 5.2794737e-16 0.86602540
vn -0.50000000 5.2794737e-16 0.86602540
vn 6.6912660e-2 0.99100494 -0.11589613
vn 6.6912660e-2 0.99100494 -0.11589613
vn -0.25881905 3.2996711e-16 0.96592583
vn -0.25881905 3.2996711e-16 0.96592583
vn 3.4636541e-2 0.99100494 -0.12926533
vn 3.4636541e-2 0.99100494 -0.12926533
vn -2.3795816e-16 3.2996711e-17 1.00000000
vn -2.3795816e-16 3.2996711e-17 1.00000000
vn 2.9494876e-17 0.99100494 -0.13382532
vn 2.9494876e-17 0.99100494 -0.13382532
vn 0.25881905 9.8990132e-17 0.96592583
vn 0.25881905 9.8990132e-17 0.96592583
vn -3.4636541e-2 0.99100494 -0.12926533
vn -3.4636541e-2 0.99100494 -0.12926533
vn 0.50000000 6.5993421e-17 0.86602540
vn 0.50000000 6.5993421e-17 0.86602540
vn -6.6912660e-2 0.99100494 -0.11589613
vn -6.6912660e-2 0.99100494 -0.11589613
vn 0.70710678 1.3198684e-16 0.70710678
vn 0.70710678 1.3198684e-16 0.70710678
vn -9.4628791e-2 0.99100494 -9.4628791e-2
vn -9.4628791e-2 0.99100494 -9.4628791e-2
vn 0.86602540 2.6397368e-16 0.50000000
vn 0.86602540 2.6397368e-16 0.50000000
vn -0.11589613 0.99100494 -6.6912660e-2
vn -0.11589613 0.99100494 -6.6912660e-2
vn 0.96592583 1.3198684e-16 0.25881905
vn 0.96592583 1.3198684e-16 0.25881905
vn -0.12926533 0.99100494 -3.4636541e-2
vn -0.12926533 0.99100494 -3.4636541e-2
vn 1.00000000 0.0000000e+0 8.3985232e-17
vn 1.00000000 0.0000000e+0 8.3985232e-17
vn -0.13382532 0.99100494 -1.3879942e-17
vn -0.13382532 0.99100494 -1.3879942e-17
vn 0.96592583 0.0000000e+0 -0.25881905
vn 0.96592583 0.0000000e+0 -0.25881905
vn -0.12926533 0.99100494 3.4636541e-2
vn -0.12926533 0.99100494 3.4636541e-2
vn 0.86602540 5.9394079e-16 -0.50000000
vn 0.86602540 5.9394079e-16 -0.50000000
vn -0.11589613 0.99100494 6.6912660e-2
vn -0.11589613 0.99100494 6.6912660e-2
vn 0.70710678 1.9138092e-15 -0.70710678
vn 0.70710678 1.9138092e-15 -0.70710678
vn -9.4628791e-2 0.99100494 9.4628791e-2
vn -9.4628791e-2 0.99100494 9.4628791e-2
vn 0.50000000 2.1117895e-15 -0.86602540
vn 0.50000000 2.1117895e-15 -0.86602540
vn -6.6912660e-2 0.99100494 0.11589613
vn -6.6912660e-2 0.99100494 0.11589613
vn 0.25881905 7.9192105e-16 -0.96592583
vn 0.25881905 7.9192105e-16 -0.96592583
vn -3.4636541e-2 0.99100494 0.12926533
vn -3.4636541e-2 0.99100494 0.12926533
vn 2.7995077e-17 0.0000000e+0 -1.00000000
vn 2.7995077e-17 0.0000000e+0 -1.00000000
vn -5.2049781e-18 0.99100494 0.13382532
vn -5.2049781e-18 0.99100494 0.13382532
vn -0.25881905 0.0000000e+0 -0.96592583
vn -0.25881905 0.0000000e+0 -0.96592583
vn 3.4636541e-2 0.99100494 0.12926533
vn 3.4636541e-2 0.99100494 0.12926533
vn -0.50000000 6.5993421e-16 -0.86602540
vn -0.50000000 6.5993421e-16 -0.86602540
vn 6.6912660e-2 0.99100494 0.11589613
vn 6.6912660e-2 0.99100494 0.11589613
vn -0.70710678 2.4417566e-15 -0.70710678
vn -0.70710678 2.4417566e-15 -0.70710678
vn 9.4628791e-2 0.99100494 9.4628791e-2
vn 9.4628791e-2 0.99100494 9.4628791e-2
vn -0.86602540 2.9037105e-15 -0.50000000
vn -0.86602540 2.9037105e-15 -0.50000000
vn 0.11589613 0.99100494 6.6912660e-2
vn 0.11589613 0.99100494 6.6912660e-2
g end_end_auv
usemtl end_auv
s 1
f 25/67/101 49/63/195 72/27/287 48/31/193
f 26/30/104 50/26/198 49/63/194 25/66/100
f 27/72/108 51/69/202 50/20/199 26/24/105
f 28/21/112 52/19/206 51/61/203 27/64/109
f 29/64/116 53/62/210 52/25/207 28/28/113
f 30/22/120 54/19/214 53/61/211 29/70/117
f 31/64/124 55/68/218 54/25/215 30/28/121
f 32/22/128 56/19/222 55/61/219 31/65/125
f 33/67/132 57/63/226 56/20/223 32/18/129
f 34/22/136 58/19/230 57/59/227 33/65/133
f 35/65/140 59/68/234 58/26/231 34/29/137
f 36/22/144 60/19/238 59/58/235 35/60/141
f 37/71/148 61/62/242 60/26/239 36/23/145
f 38/28/152 62/26/246 61/61/243 37/65/149
f 39/66/156 63/68/250 62/26/247 38/30/153
f 40/24/160 64/20/254 63/62/251 39/71/157
f 41/65/164 65/61/258 64/26/255 40/29/161
f 42/23/168 66/19/262 65/61/259 41/71/165
f 43/66/172 67/63/266 66/27/263 42/30/169
f 44/30/176 68/19/270 67/69/267 43/71/173
f 45/66/180 69/62/274 68/19/271 44/23/177
f 46/31/184 70/20/278 69/63/275 45/66/181
f 47/66/188 71/62/282 70/20/279 46/30/185
f 48/30/192 72/26/286 71/68/283 47/71/189
s 2
f 1/15/50 26/30/102 25/66/98 2/76/52
f 2/76/53 25/67/99 48/31/191 3/16/55
f 3/15/54 48/30/190 47/71/187 4/76/57
f 4/75/56 47/66/186 46/30/183 5/17/59
f 5/17/58 46/31/182 45/66/179 6/73/61
f 6/75/60 45/66/178 44/23/175 7/17/63
f 7/15/62 44/30/174 43/71/171 8/76/65
f 8/76/64 43/66/170 42/30/167 9/17/67
f 9/15/66 42/23/166 41/71/163 10/76/69
f 10/75/68 41/65/162 40/29/159 11/17/71
f 11/17/70 40/24/158 39/71/155 12/75/73
f 12/75/72 39/66/154 38/30/151 13/17/75
f 13/17/74 38/28/150 37/65/147 14/76/77
f 14/76/76 37/71/146 36/23/143 15/17/79
f 15/17/78 36/22/142 35/60/139 16/75/81
f 16/76/80 35/65/138 34/29/135 17/16/83
f 17/17/82 34/22/134 33/65/131 18/75/85
f 18/76/84 33/67/130 32/18/127 19/14/87
f 19/17/86 32/22/126 31/65/123 20/75/89
f 20/76/88 31/64/122 30/28/119 21/17/91
f 21/14/90 30/22/118 29/70/115 22/75/93
f 22/74/92 29/64/114 28/28/111 23/15/95
f 23/17/94 28/21/110 27/64/107 24/75/97
f 24/76/96 27/72/106 26/24/103 1/14/51
f 49/105/196 96/90/24 97/86/25 72/101/288
f 50/109/200 95/94/23 96/90/24 49/105/197
f 51/106/204 94/91/22 95/94/23 50/109/201
f 52/102/208 93/87/21 94/91/22 51/106/205
f 53/97/212 92/79/20 93/87/21 52/102/209
f 54/80/216 91/53/19 92/79/20 53/97/213
f 55/42/220 90/37/18 91/53/19 54/80/217
f 56/7/224 89/6/17 90/37/18 55/42/221
f 57/45/228 88/38/16 89/9/17 56/10/225
f 58/83/232 87/54/15 88/38/16 57/45/229
f 59/98/236 86/79/14 87/54/15 58/83/233
f 60/99/240 85/84/13 86/79/14 59/98/237
f 61/103/244 84/88/12 85/84/13 60/99/241
f 62/107/248 83/92/11 84/88/12 61/103/245
f 63/104/252 82/89/10 83/93/11 62/108/249
f 64/100/256 81/85/9 82/89/10 63/104/253
f 65/95/260 80/77/8 81/85/9 64/100/257
f 66/81/264 79/53/7 80/77/8 65/95/261
f 67/43/268 78/37/6 79/53/7 66/81/265
f 68/7/272 77/5/5 78/37/6 67/43/269
f 69/44/276 76/36/4 77/5/5 68/7/273
f 70/82/280 75/52/3 76/36/4 69/44/277
f 71/96/284 74/78/2 75/52/3 70/82/281
f 72/101/289 97/86/25 74/78/2 71/96/285
f 73/1/1 121/40/49 98/47/26
f 74/78/2 97/86/25 98/47/26 121/40/49
f 98/47/26 99/50/27 73/1/1
f 99/50/27 98/47/26 97/86/25 96/90/24
f 99/50/27 100/57/28 73/1/1
f 100/57/28 99/50/27 96/90/24 95/94/23
f 100/57/28 101/51/29 73/1/1
f 101/51/29 100/57/28 95/94/23 94/91/22
f 101/51/29 102/48/30 73/1/1
f 102/48/30 101/51/29 94/91/22 93/87/21
f 102/48/30 103/41/31 73/1/1
f 103/41/31 102/48/30 93/87/21 92/79/20
f 103/41/31 104/35/32 73/1/1
f 104/35/32 103/41/31 92/79/20 91/53/19
f 104/35/32 105/11/33 73/1/1
f 105/11/33 104/35/32 91/53/19 90/37/18
f 105/11/33 106/3/34 73/1/1
f 106/3/34 105/11/33 90/37/18 89/6/17
f 106/8/34 107/12/35 73/1/1
f 107/12/35 106/8/34 89/9/17 88/38/16
f 107/12/35 108/33/36 73/1/1
f 108/33/36 107/12/35 88/38/16 87/54/15
f 108/33/36 109/39/37 73/1/1
f 109/39/37 108/33/36 87/54/15 86/79/14
f 109/39/37 110/46/38 73/1/1
f 110/46/38 109/39/37 86/79/14 85/84/13
f 110/46/38 111/49/39 73/1/1
f 111/49/39 110/46/38 85/84/13 84/88/12
f 111/49/39 112/55/40 73/1/1
f 112/55/40 111/49/39 84/88/12 83/92/11
f 112/56/40 113/49/41 73/2/1
f 113/49/41 112/56/40 83/93/11 82/89/10
f 113/49/41 114/46/42 73/2/1
f 114/46/42 113/49/41 82/89/10 81/85/9
f 114/46/42 115/39/43 73/2/1
f 115/39/43 114/46/42 81/85/9 80/77/8
f 115/39/43 116/32/44 73/2/1
f 116/32/44 115/39/43 80/77/8 79/53/7
f 116/32/44 117/12/45 73/2/1
f 117/12/45 116/32/44 79/53/7 78/37/6
f 117/12/45 118/4/46 73/2/1
f 118/4/46 117/12/45 78/37/6 77/5/5
f 118/3/46 119/13/47 73/1/1
f 119/13/47 118/3/46 77/5/5 76/36/4
f 119/13/47 120/34/48 73/1/1
f 120/34/48 119/13/47 76/36/4 75/52/3
f 120/34/48 121/40/49 73/1/1
f 121/40/49 120/34/48 75/52/3 74/78/2
