# Exported from Wings 3D 1.5.4
mtllib Eridani_Solar_1_Panel_0_1_R.mtl
o Eridani_Solar_1_Panel_0_1_R
#8 vertices, 6 faces
v -5.0000000e-3 -5.0000000e-3 5.0000000e-3
v -5.0000000e-3 5.0000000e-3 5.0000000e-3
v -5.0000000e-3 -5.0000000e-3 -0.83250000
v -5.0000000e-3 5.0000000e-3 -0.83250000
v 0.46525000 5.0000000e-3 -0.83250000
v 0.46525000 -5.0000000e-3 -0.83250000
v 0.46525000 5.0000000e-3 5.0000000e-3
v 0.46525000 -5.0000000e-3 5.0000000e-3
vt 4.1303921e-2 0.63028456
vt 4.1303921e-2 0.63887852
vt 4.1303921e-2 0.63028456
vt 4.1303921e-2 0.63887852
vt 4.1374988e-2 0.65900593
vt 4.1374988e-2 0.96000000
vt 0.21030985 0.63028456
vt 0.21030985 0.63887852
vt 0.21030985 0.63028456
vt 0.21030985 0.63887852
vt 0.21038091 0.65900593
vt 0.21038091 0.96000000
vt 0.23057282 0.65900593
vt 0.23057282 0.96000000
vt 0.39957875 0.65900593
vt 0.39957875 0.96000000
vt 0.41985528 0.65895293
vt 0.41985528 0.95994701
vt 0.42844924 0.65895293
vt 0.42844924 0.65895293
vt 0.42844924 0.95994701
vn -1.00000000 0.0000000e+0 0.0000000e+0
vn 0.0000000e+0 0.0000000e+0 1.00000000
vn 0.0000000e+0 -1.00000000 0.0000000e+0
vn -1.00000000 0.0000000e+0 0.0000000e+0
vn 0.0000000e+0 0.0000000e+0 1.00000000
vn 0.0000000e+0 1.00000000 -1.2427870e-17
vn -1.00000000 0.0000000e+0 0.0000000e+0
vn 0.0000000e+0 0.0000000e+0 -1.00000000
vn 0.0000000e+0 -1.00000000 0.0000000e+0
vn -1.00000000 0.0000000e+0 0.0000000e+0
vn 0.0000000e+0 0.0000000e+0 -1.00000000
vn 0.0000000e+0 1.00000000 -1.2427870e-17
vn 0.0000000e+0 0.0000000e+0 -1.00000000
vn 0.0000000e+0 1.00000000 -1.2427870e-17
vn 1.00000000 0.0000000e+0 0.0000000e+0
vn 0.0000000e+0 0.0000000e+0 -1.00000000
vn 0.0000000e+0 -1.00000000 0.0000000e+0
vn 1.00000000 0.0000000e+0 0.0000000e+0
vn 0.0000000e+0 0.0000000e+0 1.00000000
vn 0.0000000e+0 1.00000000 -1.2427870e-17
vn 1.00000000 0.0000000e+0 0.0000000e+0
vn 0.0000000e+0 0.0000000e+0 1.00000000
vn 0.0000000e+0 -1.00000000 0.0000000e+0
vn 1.00000000 0.0000000e+0 0.0000000e+0
g Eridani_Solar_1_Panel_0_1_R_Eridani_Solar_1_Panel_0_1_R_auv
usemtl Eridani_Solar_1_Panel_0_1_R_auv
s 1
f 3/20/7 1/21/1 2/18/4 4/17/10
f 8/19/24 6/21/18 5/18/15 7/17/21
s 2
f 3/7/8 4/8/11 5/4/13 6/3/16
f 8/9/22 7/10/19 2/2/5 1/1/2
s 3
f 1/15/3 3/16/9 6/14/17 8/13/23
f 7/11/20 5/12/14 4/6/12 2/5/6
