# Exported from Wings 3D 1.5.4
mtllib vega_adapter_s1p5_s1_1.mtl
o vega_adapter_s1p5_s1_1
#72 vertices, 48 faces
v 0.93750000 0.0000000e+0 -2.0961242e-18
v 0.90555546 0.0000000e+0 0.24264285
v 0.81189882 0.0000000e+0 0.46875000
v 0.66291261 0.0000000e+0 0.66291261
v 0.46875000 0.0000000e+0 0.81189882
v 0.24264285 0.0000000e+0 0.90555546
v 4.8731701e-17 0.0000000e+0 0.93750000
v -0.24264285 0.0000000e+0 0.90555546
v -0.46875000 0.0000000e+0 0.81189882
v -0.66291261 0.0000000e+0 0.66291261
v -0.81189882 0.0000000e+0 0.46875000
v -0.90555546 0.0000000e+0 0.24264285
v -0.93750000 0.0000000e+0 1.1271451e-16
v -0.90555546 0.0000000e+0 -0.24264285
v -0.81189882 0.0000000e+0 -0.46875000
v -0.66291261 0.0000000e+0 -0.66291261
v -0.46875000 0.0000000e+0 -0.81189882
v -0.24264285 0.0000000e+0 -0.90555546
v -1.8088957e-16 0.0000000e+0 -0.93750000
v 0.24264285 0.0000000e+0 -0.90555546
v 0.46875000 0.0000000e+0 -0.81189882
v 0.66291261 0.0000000e+0 -0.66291261
v 0.81189882 0.0000000e+0 -0.46875000
v 0.90555546 0.0000000e+0 -0.24264285
v 0.93750000 -0.12500000 -2.0961242e-18
v 0.90555546 -0.12500000 0.24264285
v 0.81189882 -0.12500000 0.46875000
v 0.66291261 -0.12500000 0.66291261
v 0.46875000 -0.12500000 0.81189882
v 0.24264285 -0.12500000 0.90555546
v 4.8731701e-17 -0.12500000 0.93750000
v -0.24264285 -0.12500000 0.90555546
v -0.46875000 -0.12500000 0.81189882
v -0.66291261 -0.12500000 0.66291261
v -0.81189882 -0.12500000 0.46875000
v -0.90555546 -0.12500000 0.24264285
v -0.93750000 -0.12500000 1.1271451e-16
v -0.90555546 -0.12500000 -0.24264285
v -0.81189882 -0.12500000 -0.46875000
v -0.66291261 -0.12500000 -0.66291261
v -0.46875000 -0.12500000 -0.81189882
v -0.24264285 -0.12500000 -0.90555546
v -1.8088957e-16 -0.12500000 -0.93750000
v 0.24264285 -0.12500000 -0.90555546
v 0.46875000 -0.12500000 -0.81189882
v 0.66291261 -0.12500000 -0.66291261
v 0.81189882 -0.12500000 -0.46875000
v 0.90555546 -0.12500000 -0.24264285
v 0.60370364 0.12500000 0.16176190
v 0.62500000 0.12500000 -7.5653218e-18
v 0.60370364 0.12500000 -0.16176190
v 0.54126588 0.12500000 -0.31250000
v 0.44194174 0.12500000 -0.44194174
v 0.31250000 0.12500000 -0.54126588
v 0.16176190 0.12500000 -0.60370364
v -1.3601281e-16 0.12500000 -0.62500000
v -0.16176190 0.12500000 -0.60370364
v -0.31250000 0.12500000 -0.54126588
v -0.44194174 0.12500000 -0.44194174
v -0.54126588 0.12500000 -0.31250000
v -0.60370364 0.12500000 -0.16176190
v -0.62500000 0.12500000 6.8975103e-17
v -0.60370364 0.12500000 0.16176190
v -0.54126588 0.12500000 0.31250000
v -0.44194174 0.12500000 0.44194174
v -0.31250000 0.12500000 0.54126588
v -0.16176190 0.12500000 0.60370364
v 1.7068037e-17 0.12500000 0.62500000
v 0.16176190 0.12500000 0.60370364
v 0.31250000 0.12500000 0.54126588
v 0.44194174 0.12500000 0.44194174
v 0.54126588 0.12500000 0.31250000
vt 0.89910125 0.18641068
vt 0.89910125 0.18641068
vt 0.89910125 0.18641068
vt 0.89910975 0.17457009
vt 0.89910975 0.17457009
vt 0.89910975 0.18641020
vt 0.89910975 0.18641020
vt 0.89910975 0.17457009
vt 0.89910975 0.18641020
vt 0.91444276 0.21753945
vt 0.91444276 0.21753945
vt 0.91444276 0.21753945
vt 0.91444276 0.21753945
vt 0.91444276 0.21753945
vt 0.92211776 0.17457009
vt 0.92211776 0.17457009
vt 0.92211776 0.18641020
vt 0.92211776 0.17457009
vt 0.92211776 0.17457009
vt 0.92211776 0.18641020
vt 0.92211776 0.18641020
vt 0.92211776 0.17457009
vt 0.92211776 0.18641020
vt 0.92212835 0.18641068
vt 0.92212835 0.18641068
vt 0.92212835 0.18641068
vt 0.92212835 0.18641068
vt 0.92212835 0.18641068
vt 0.92931998 0.21753945
vt 0.92931998 0.21753945
vt 0.92931998 0.21753945
vt 0.92931998 0.21753945
vt 0.92931998 0.21753945
vt 0.94512577 0.17457009
vt 0.94512577 0.18641020
vt 0.94512577 0.18641068
vt 0.94512577 0.21753945
vt 0.94512577 0.21753945
vt 0.94512577 0.17457009
vt 0.94512577 0.17457009
vt 0.94512577 0.18641020
vt 0.94512577 0.18641020
vt 0.94512577 0.18641068
vt 0.94512577 0.18641068
vt 0.94512577 0.21753945
vt 0.94512577 0.21753945
vt 0.94512577 0.17457009
vt 0.94512577 0.18641020
vt 0.96093156 0.21753945
vt 0.96093156 0.21753945
vt 0.96093156 0.21753945
vt 0.96093156 0.21753945
vt 0.96812320 0.18641068
vt 0.96812320 0.18641068
vt 0.96812320 0.18641068
vt 0.96812320 0.18641068
vt 0.96813379 0.17457009
vt 0.96813379 0.18641020
vt 0.96813379 0.18641020
vt 0.96813379 0.17457009
vt 0.96813379 0.17457009
vt 0.96813379 0.18641020
vt 0.96813379 0.18641020
vt 0.96813379 0.17457009
vt 0.96813379 0.18641020
vt 0.97580879 0.21753945
vt 0.97580879 0.21753945
vt 0.97580879 0.21753945
vt 0.99114180 0.17457009
vt 0.99114180 0.18641020
vt 0.99114180 0.17457009
vt 0.99114180 0.17457009
vt 0.99114180 0.18641020
vt 0.99114180 0.18641020
vt 0.99114180 0.17457009
vt 0.99114180 0.18641020
vt 0.99115029 0.18641068
vt 0.99115029 0.18641068
vt 0.99115029 0.18641068
vn 1.00000000 0.0000000e+0 -2.3795816e-16
vn 1.00000000 0.0000000e+0 -2.3795816e-16
vn 0.37139068 0.92847669 -8.3366199e-17
vn 0.37139068 0.92847669 -8.3366199e-17
vn 0.96592583 0.0000000e+0 0.25881905
vn 0.96592583 0.0000000e+0 0.25881905
vn 0.35873585 0.92847669 9.6122980e-2
vn 0.35873585 0.92847669 9.6122980e-2
vn 0.86602540 0.0000000e+0 0.50000000
vn 0.86602540 0.0000000e+0 0.50000000
vn 0.32163376 0.92847669 0.18569534
vn 0.32163376 0.92847669 0.18569534
vn 0.70710678 0.0000000e+0 0.70710678
vn 0.70710678 0.0000000e+0 0.70710678
vn 0.26261287 0.92847669 0.26261287
vn 0.26261287 0.92847669 0.26261287
vn 0.50000000 0.0000000e+0 0.86602540
vn 0.50000000 0.0000000e+0 0.86602540
vn 0.18569534 0.92847669 0.32163376
vn 0.18569534 0.92847669 0.32163376
vn 0.25881905 0.0000000e+0 0.96592583
vn 0.25881905 0.0000000e+0 0.96592583
vn 9.6122980e-2 0.92847669 0.35873585
vn 9.6122980e-2 0.92847669 0.35873585
vn 1.5397293e-16 0.0000000e+0 1.00000000
vn 1.5397293e-16 0.0000000e+0 1.00000000
vn 8.3366199e-17 0.92847669 0.37139068
vn 8.3366199e-17 0.92847669 0.37139068
vn -0.25881905 0.0000000e+0 0.96592583
vn -0.25881905 0.0000000e+0 0.96592583
vn -9.6122980e-2 0.92847669 0.35873585
vn -9.6122980e-2 0.92847669 0.35873585
vn -0.50000000 0.0000000e+0 0.86602540
vn -0.50000000 0.0000000e+0 0.86602540
vn -0.18569534 0.92847669 0.32163376
vn -0.18569534 0.92847669 0.32163376
vn -0.70710678 0.0000000e+0 0.70710678
vn -0.70710678 0.0000000e+0 0.70710678
vn -0.26261287 0.92847669 0.26261287
vn -0.26261287 0.92847669 0.26261287
vn -0.86602540 0.0000000e+0 0.50000000
vn -0.86602540 0.0000000e+0 0.50000000
vn -0.32163376 0.92847669 0.18569534
vn -0.32163376 0.92847669 0.18569534
vn -0.96592583 0.0000000e+0 0.25881905
vn -0.96592583 0.0000000e+0 0.25881905
vn -0.35873585 0.92847669 9.6122980e-2
vn -0.35873585 0.92847669 9.6122980e-2
vn -1.00000000 0.0000000e+0 3.4993847e-16
vn -1.00000000 0.0000000e+0 3.4993847e-16
vn -0.37139068 0.92847669 1.5978522e-16
vn -0.37139068 0.92847669 1.5978522e-16
vn -0.96592583 0.0000000e+0 -0.25881905
vn -0.96592583 0.0000000e+0 -0.25881905
vn -0.35873585 0.92847669 -9.6122980e-2
vn -0.35873585 0.92847669 -9.6122980e-2
vn -0.86602540 0.0000000e+0 -0.50000000
vn -0.86602540 0.0000000e+0 -0.50000000
vn -0.32163376 0.92847669 -0.18569534
vn -0.32163376 0.92847669 -0.18569534
vn -0.70710678 0.0000000e+0 -0.70710678
vn -0.70710678 0.0000000e+0 -0.70710678
vn -0.26261287 0.92847669 -0.26261287
vn -0.26261287 0.92847669 -0.26261287
vn -0.50000000 0.0000000e+0 -0.86602540
vn -0.50000000 0.0000000e+0 -0.86602540
vn -0.18569534 0.92847669 -0.32163376
vn -0.18569534 0.92847669 -0.32163376
vn -0.25881905 0.0000000e+0 -0.96592583
vn -0.25881905 0.0000000e+0 -0.96592583
vn -9.6122980e-2 0.92847669 -0.35873585
vn -9.6122980e-2 0.92847669 -0.35873585
vn -4.7591632e-16 0.0000000e+0 -1.00000000
vn -4.7591632e-16 0.0000000e+0 -1.00000000
vn -1.7715317e-16 0.92847669 -0.37139068
vn -1.7715317e-16 0.92847669 -0.37139068
vn 0.25881905 0.0000000e+0 -0.96592583
vn 0.25881905 0.0000000e+0 -0.96592583
vn 9.6122980e-2 0.92847669 -0.35873585
vn 9.6122980e-2 0.92847669 -0.35873585
vn 0.50000000 0.0000000e+0 -0.86602540
vn 0.50000000 0.0000000e+0 -0.86602540
vn 0.18569534 0.92847669 -0.32163376
vn 0.18569534 0.92847669 -0.32163376
vn 0.70710678 0.0000000e+0 -0.70710678
vn 0.70710678 0.0000000e+0 -0.70710678
vn 0.26261287 0.92847669 -0.26261287
vn 0.26261287 0.92847669 -0.26261287
vn 0.86602540 0.0000000e+0 -0.50000000
vn 0.86602540 0.0000000e+0 -0.50000000
vn 0.32163376 0.92847669 -0.18569534
vn 0.32163376 0.92847669 -0.18569534
vn 0.96592583 0.0000000e+0 -0.25881905
vn 0.96592583 0.0000000e+0 -0.25881905
vn 0.35873585 0.92847669 -9.6122980e-2
vn 0.35873585 0.92847669 -9.6122980e-2
vn 1.00000000 0.0000000e+0 -2.3795816e-16
vn 1.00000000 0.0000000e+0 -2.3795816e-16
vn 0.96592583 0.0000000e+0 0.25881905
vn 0.96592583 0.0000000e+0 0.25881905
vn 0.86602540 0.0000000e+0 0.50000000
vn 0.86602540 0.0000000e+0 0.50000000
vn 0.70710678 0.0000000e+0 0.70710678
vn 0.70710678 0.0000000e+0 0.70710678
vn 0.50000000 0.0000000e+0 0.86602540
vn 0.50000000 0.0000000e+0 0.86602540
vn 0.25881905 0.0000000e+0 0.96592583
vn 0.25881905 0.0000000e+0 0.96592583
vn 1.5397293e-16 0.0000000e+0 1.00000000
vn 1.5397293e-16 0.0000000e+0 1.00000000
vn -0.25881905 0.0000000e+0 0.96592583
vn -0.25881905 0.0000000e+0 0.96592583
vn -0.50000000 0.0000000e+0 0.86602540
vn -0.50000000 0.0000000e+0 0.86602540
vn -0.70710678 0.0000000e+0 0.70710678
vn -0.70710678 0.0000000e+0 0.70710678
vn -0.86602540 0.0000000e+0 0.50000000
vn -0.86602540 0.0000000e+0 0.50000000
vn -0.96592583 0.0000000e+0 0.25881905
vn -0.96592583 0.0000000e+0 0.25881905
vn -1.00000000 0.0000000e+0 3.4993847e-16
vn -1.00000000 0.0000000e+0 3.4993847e-16
vn -0.96592583 0.0000000e+0 -0.25881905
vn -0.96592583 0.0000000e+0 -0.25881905
vn -0.86602540 0.0000000e+0 -0.50000000
vn -0.86602540 0.0000000e+0 -0.50000000
vn -0.70710678 0.0000000e+0 -0.70710678
vn -0.70710678 0.0000000e+0 -0.70710678
vn -0.50000000 0.0000000e+0 -0.86602540
vn -0.50000000 0.0000000e+0 -0.86602540
vn -0.25881905 0.0000000e+0 -0.96592583
vn -0.25881905 0.0000000e+0 -0.96592583
vn -4.7591632e-16 0.0000000e+0 -1.00000000
vn -4.7591632e-16 0.0000000e+0 -1.00000000
vn 0.25881905 0.0000000e+0 -0.96592583
vn 0.25881905 0.0000000e+0 -0.96592583
vn 0.50000000 0.0000000e+0 -0.86602540
vn 0.50000000 0.0000000e+0 -0.86602540
vn 0.70710678 0.0000000e+0 -0.70710678
vn 0.70710678 0.0000000e+0 -0.70710678
vn 0.86602540 0.0000000e+0 -0.50000000
vn 0.86602540 0.0000000e+0 -0.50000000
vn 0.96592583 0.0000000e+0 -0.25881905
vn 0.96592583 0.0000000e+0 -0.25881905
vn 0.35873585 0.92847669 9.6122980e-2
vn 0.35873585 0.92847669 9.6122980e-2
vn 0.37139068 0.92847669 -8.3366199e-17
vn 0.37139068 0.92847669 -8.3366199e-17
vn 0.35873585 0.92847669 -9.6122980e-2
vn 0.35873585 0.92847669 -9.6122980e-2
vn 0.32163376 0.92847669 -0.18569534
vn 0.32163376 0.92847669 -0.18569534
vn 0.26261287 0.92847669 -0.26261287
vn 0.26261287 0.92847669 -0.26261287
vn 0.18569534 0.92847669 -0.32163376
vn 0.18569534 0.92847669 -0.32163376
vn 9.6122980e-2 0.92847669 -0.35873585
vn 9.6122980e-2 0.92847669 -0.35873585
vn -1.7715317e-16 0.92847669 -0.37139068
vn -1.7715317e-16 0.92847669 -0.37139068
vn -9.6122980e-2 0.92847669 -0.35873585
vn -9.6122980e-2 0.92847669 -0.35873585
vn -0.18569534 0.92847669 -0.32163376
vn -0.18569534 0.92847669 -0.32163376
vn -0.26261287 0.92847669 -0.26261287
vn -0.26261287 0.92847669 -0.26261287
vn -0.32163376 0.92847669 -0.18569534
vn -0.32163376 0.92847669 -0.18569534
vn -0.35873585 0.92847669 -9.6122980e-2
vn -0.35873585 0.92847669 -9.6122980e-2
vn -0.37139068 0.92847669 1.5978522e-16
vn -0.37139068 0.92847669 1.5978522e-16
vn -0.35873585 0.92847669 9.6122980e-2
vn -0.35873585 0.92847669 9.6122980e-2
vn -0.32163376 0.92847669 0.18569534
vn -0.32163376 0.92847669 0.18569534
vn -0.26261287 0.92847669 0.26261287
vn -0.26261287 0.92847669 0.26261287
vn -0.18569534 0.92847669 0.32163376
vn -0.18569534 0.92847669 0.32163376
vn -9.6122980e-2 0.92847669 0.35873585
vn -9.6122980e-2 0.92847669 0.35873585
vn 8.3366199e-17 0.92847669 0.37139068
vn 8.3366199e-17 0.92847669 0.37139068
vn 9.6122980e-2 0.92847669 0.35873585
vn 9.6122980e-2 0.92847669 0.35873585
vn 0.18569534 0.92847669 0.32163376
vn 0.18569534 0.92847669 0.32163376
vn 0.26261287 0.92847669 0.26261287
vn 0.26261287 0.92847669 0.26261287
vn 0.32163376 0.92847669 0.18569534
vn 0.32163376 0.92847669 0.18569534
g vega_adapter_s1p5_s1_1_vega_adapter_s1p5_s1_1_auv
usemtl vega_adapter_s1p5_s1_1_auv
s 2
f 1/77/3 50/68/147 49/52/145 2/55/7
f 2/55/8 49/52/146 72/46/192 3/43/12
f 3/43/11 72/46/191 71/32/190 4/26/16
f 4/26/15 71/32/189 70/11/188 5/2/20
f 5/1/19 70/13/187 69/32/186 6/24/24
f 6/24/23 69/32/185 68/37/184 7/36/28
f 7/36/27 68/37/183 67/52/182 8/55/32
f 8/55/31 67/52/181 66/67/180 9/77/36
f 9/79/35 66/66/179 65/51/178 10/56/40
f 10/56/39 65/51/177 64/38/176 11/44/44
f 11/44/43 64/38/175 63/31/174 12/28/48
f 12/28/47 63/31/173 62/12/172 13/3/52
f 13/2/51 62/13/171 61/30/170 14/24/56
f 14/24/55 61/30/169 60/37/168 15/36/60
f 15/36/59 60/37/167 59/49/166 16/53/64
f 16/53/63 59/49/165 58/67/164 17/77/68
f 17/77/67 58/68/163 57/52/162 18/55/72
f 18/55/71 57/52/161 56/46/160 19/43/76
f 19/43/75 56/46/159 55/33/158 20/27/80
f 20/27/79 55/33/157 54/14/156 21/2/84
f 21/3/83 54/10/155 53/29/154 22/25/88
f 22/25/87 53/29/153 52/45/152 23/44/92
f 23/44/91 52/45/151 51/50/150 24/54/96
f 24/54/95 51/50/149 50/66/148 1/78/4
s 3
f 1/76/1 25/75/97 48/64/143 24/65/93
f 2/59/6 26/57/100 25/72/98 1/74/2
f 3/41/10 27/40/102 26/57/99 2/59/5
f 4/20/14 28/19/104 27/40/101 3/41/9
f 5/6/18 29/5/106 28/19/103 4/20/13
f 6/17/22 30/15/108 29/4/105 5/6/17
f 7/41/26 31/40/110 30/15/107 6/17/21
f 8/62/30 32/61/112 31/40/109 7/41/25
f 9/74/34 33/72/114 32/61/111 8/62/29
f 10/63/38 34/61/116 33/72/113 9/74/33
f 11/42/42 35/40/118 34/61/115 10/63/37
f 12/20/46 36/19/120 35/40/117 11/42/41
f 13/6/50 37/5/122 36/19/119 12/20/45
f 14/21/54 38/16/124 37/4/121 13/7/49
f 15/35/58 39/34/126 38/16/123 14/21/53
f 16/58/62 40/57/128 39/34/125 15/35/57
f 17/70/66 41/69/130 40/57/127 16/58/61
f 18/62/70 42/60/132 41/71/129 17/73/65
f 19/41/74 43/39/134 42/60/131 18/62/69
f 20/20/78 44/18/136 43/39/133 19/41/73
f 21/6/82 45/5/138 44/18/135 20/20/77
f 22/23/86 46/22/140 45/8/137 21/9/81
f 23/48/90 47/47/142 46/22/139 22/23/85
f 24/65/94 48/64/144 47/47/141 23/48/89
