# Exported from Wings 3D 1.5.4
mtllib ./fgb node cap.mtl
o 1
#145 vertices, 144 faces
v -8.6527458e-2 7.0618632e-2 3.0557223e-17
v -8.3579107e-2 7.0618632e-2 2.2394954e-2
v -7.4934977e-2 7.0618632e-2 4.3263729e-2
v -6.1184153e-2 7.0618632e-2 6.1184153e-2
v -4.3263729e-2 7.0618632e-2 7.4934977e-2
v -2.2394954e-2 7.0618632e-2 8.3579107e-2
v 0.0000000e+0 7.0618632e-2 8.6527458e-2
v 2.2394954e-2 7.0618632e-2 8.3579107e-2
v 4.3263729e-2 7.0618632e-2 7.4934977e-2
v 6.1184153e-2 7.0618632e-2 6.1184153e-2
v 7.4934977e-2 7.0618632e-2 4.3263729e-2
v 8.3579107e-2 7.0618632e-2 2.2394954e-2
v 8.6527458e-2 7.0618632e-2 3.6314878e-17
v 8.3579107e-2 7.0618632e-2 -2.2394954e-2
v 7.4934977e-2 7.0618632e-2 -4.3263729e-2
v 6.1184153e-2 7.0618632e-2 -6.1184153e-2
v 4.3263729e-2 7.0618632e-2 -7.4934977e-2
v 2.2394954e-2 7.0618632e-2 -8.3579107e-2
v 0.0000000e+0 7.0618632e-2 -8.6527458e-2
v -2.2394954e-2 7.0618632e-2 -8.3579107e-2
v -4.3263729e-2 7.0618632e-2 -7.4934977e-2
v -6.1184153e-2 7.0618632e-2 -6.1184153e-2
v -7.4934977e-2 7.0618632e-2 -4.3263729e-2
v -8.3579107e-2 7.0618632e-2 -2.2394954e-2
v -0.17157441 5.7549515e-2 3.3239805e-17
v -0.16572815 5.7549515e-2 4.4406724e-2
v -0.14858780 5.7549515e-2 8.5787204e-2
v -0.12132143 5.7549515e-2 0.12132143
v -8.5787204e-2 5.7549515e-2 0.14858780
v -4.4406724e-2 5.7549515e-2 0.16572815
v 0.0000000e+0 5.7549515e-2 0.17157441
v 4.4406724e-2 5.7549515e-2 0.16572815
v 8.5787204e-2 5.7549515e-2 0.14858780
v 0.12132143 5.7549515e-2 0.12132143
v 0.14858780 5.7549515e-2 8.5787204e-2
v 0.16572815 5.7549515e-2 4.4406724e-2
v 0.17157441 5.7549515e-2 4.4656600e-17
v 0.16572815 5.7549515e-2 -4.4406724e-2
v 0.14858780 5.7549515e-2 -8.5787204e-2
v 0.12132143 5.7549515e-2 -0.12132143
v 8.5787204e-2 5.7549515e-2 -0.14858780
v 4.4406724e-2 5.7549515e-2 -0.16572815
v 0.0000000e+0 5.7549515e-2 -0.17157441
v -4.4406724e-2 5.7549515e-2 -0.16572815
v -8.5787204e-2 5.7549515e-2 -0.14858780
v -0.12132143 5.7549515e-2 -0.12132143
v -0.14858780 5.7549515e-2 -8.5787204e-2
v -0.16572815 5.7549515e-2 -4.4406724e-2
v -0.25368567 3.6016269e-2 3.6037526e-17
v -0.24504154 3.6016269e-2 6.5658683e-2
v -0.21969824 3.6016269e-2 0.12684284
v -0.17938286 3.6016269e-2 0.17938286
v -0.12684284 3.6016269e-2 0.21969824
v -6.5658683e-2 3.6016269e-2 0.24504154
v 0.0000000e+0 3.6016269e-2 0.25368567
v 6.5658683e-2 3.6016269e-2 0.24504154
v 0.12684284 3.6016269e-2 0.21969824
v 0.17938286 3.6016269e-2 0.17938286
v 0.21969824 3.6016269e-2 0.12684284
v 0.24504154 3.6016269e-2 6.5658683e-2
v 0.25368567 3.6016269e-2 5.2918117e-17
v 0.24504154 3.6016269e-2 -6.5658683e-2
v 0.21969824 3.6016269e-2 -0.12684284
v 0.17938286 3.6016269e-2 -0.17938286
v 0.12684284 3.6016269e-2 -0.21969824
v 6.5658683e-2 3.6016269e-2 -0.24504154
v 0.0000000e+0 3.6016269e-2 -0.25368567
v -6.5658683e-2 3.6016269e-2 -0.24504154
v -0.12684284 3.6016269e-2 -0.21969824
v -0.17938286 3.6016269e-2 -0.17938286
v -0.21969824 3.6016269e-2 -0.12684284
v -0.24504154 3.6016269e-2 -6.5658683e-2
v -0.33145630 6.3873065e-3 3.8902517e-17
v -0.32016220 6.3873065e-3 8.5787204e-2
v -0.28704958 6.3873065e-3 0.16572815
v -0.23437500 6.3873065e-3 0.23437500
v -0.16572815 6.3873065e-3 0.28704958
v -8.5787204e-2 6.3873065e-3 0.32016220
v 0.0000000e+0 6.3873065e-3 0.33145630
v 8.5787204e-2 6.3873065e-3 0.32016220
v 0.16572815 6.3873065e-3 0.28704958
v 0.23437500 6.3873065e-3 0.23437500
v 0.28704958 6.3873065e-3 0.16572815
v 0.32016220 6.3873065e-3 8.5787204e-2
v 0.33145630 6.3873065e-3 6.0958073e-17
v 0.32016220 6.3873065e-3 -8.5787204e-2
v 0.28704958 6.3873065e-3 -0.16572815
v 0.23437500 6.3873065e-3 -0.23437500
v 0.16572815 6.3873065e-3 -0.28704958
v 8.5787204e-2 6.3873065e-3 -0.32016220
v 0.0000000e+0 6.3873065e-3 -0.33145630
v -8.5787204e-2 6.3873065e-3 -0.32016220
v -0.16572815 6.3873065e-3 -0.28704958
v -0.23437500 6.3873065e-3 -0.23437500
v -0.28704958 6.3873065e-3 -0.16572815
v -0.32016220 6.3873065e-3 -8.5787204e-2
v -0.40355563 -3.0830384e-2 4.1785758e-17
v -0.38980480 -3.0830384e-2 0.10444788
v -0.34948942 -3.0830384e-2 0.20177781
v -0.28535692 -3.0830384e-2 0.28535692
v -0.20177781 -3.0830384e-2 0.34948942
v -0.10444788 -3.0830384e-2 0.38980480
v 0.0000000e+0 -3.0830384e-2 0.40355563
v 0.10444788 -3.0830384e-2 0.38980480
v 0.20177781 -3.0830384e-2 0.34948942
v 0.28535692 -3.0830384e-2 0.28535692
v 0.34948942 -3.0830384e-2 0.20177781
v 0.38980480 -3.0830384e-2 0.10444788
v 0.40355563 -3.0830384e-2 6.8638900e-17
v 0.38980480 -3.0830384e-2 -0.10444788
v 0.34948942 -3.0830384e-2 -0.20177781
v 0.28535692 -3.0830384e-2 -0.28535692
v 0.20177781 -3.0830384e-2 -0.34948942
v 0.10444788 -3.0830384e-2 -0.38980480
v 0.0000000e+0 -3.0830384e-2 -0.40355563
v -0.10444788 -3.0830384e-2 -0.38980480
v -0.20177781 -3.0830384e-2 -0.34948942
v -0.28535692 -3.0830384e-2 -0.28535692
v -0.34948942 -3.0830384e-2 -0.20177781
v -0.38980480 -3.0830384e-2 -0.10444788
v -0.46875000 -7.5000000e-2 5.1285606e-17
v -0.45277773 -7.5000000e-2 0.12132143
v -0.40594941 -7.5000000e-2 0.23437500
v -0.33145630 -7.5000000e-2 0.33145630
v -0.23437500 -7.5000000e-2 0.40594941
v -0.12132143 -7.5000000e-2 0.45277773
v 0.0000000e+0 -7.5000000e-2 0.46875000
v 0.12132143 -7.5000000e-2 0.45277773
v 0.23437500 -7.5000000e-2 0.40594941
v 0.33145630 -7.5000000e-2 0.33145630
v 0.40594941 -7.5000000e-2 0.23437500
v 0.45277773 -7.5000000e-2 0.12132143
v 0.46875000 -7.5000000e-2 6.7112340e-17
v 0.45277773 -7.5000000e-2 -0.12132143
v 0.40594941 -7.5000000e-2 -0.23437500
v 0.33145630 -7.5000000e-2 -0.33145630
v 0.23437500 -7.5000000e-2 -0.40594941
v 0.12132143 -7.5000000e-2 -0.45277773
v 0.0000000e+0 -7.5000000e-2 -0.46875000
v -0.12132143 -7.5000000e-2 -0.45277773
v -0.23437500 -7.5000000e-2 -0.40594941
v -0.33145630 -7.5000000e-2 -0.33145630
v -0.40594941 -7.5000000e-2 -0.23437500
v -0.45277773 -7.5000000e-2 -0.12132143
v 0.0000000e+0 7.5000000e-2 2.8035680e-17
vt 0.21822906 1.0000000e-2
vt 0.21822906 1.0160701e-2
vt 0.22121130 3.3673997e-2
vt 0.22131939 3.3809689e-2
vt 0.23042357 5.5676270e-2
vt 0.23060689 5.5689893e-2
vt 0.23324260 1.0032531e-2
vt 0.23324260 1.0128170e-2
vt 0.23581097 2.9803736e-2
vt 0.23588259 2.9886339e-2
vt 0.24341527 4.8272767e-2
vt 0.24352423 4.8280804e-2
vt 0.24497222 7.4781027e-2
vt 0.24511512 7.4638125e-2
vt 0.24841550 1.0051423e-2
vt 0.24841550 1.0109278e-2
vt 0.25047654 2.5886538e-2
vt 0.25052546 2.5943542e-2
vt 0.25557132 6.4161131e-2
vt 0.25565228 6.4080175e-2
vt 0.25658608 4.0689276e-2
vt 0.25664846 4.0694914e-2
vt 0.26364887 1.0074869e-2
vt 0.26364887 1.0085832e-2
vt 0.26402178 8.9146355e-2
vt 0.26403540 8.9329673e-2
vt 0.26520584 2.1973934e-2
vt 0.26522862 2.1990738e-2
vt 0.26632791 5.3404548e-2
vt 0.26637211 5.3360348e-2
vt 0.26979735 3.3078420e-2
vt 0.26983244 3.3079392e-2
vt 0.27145165 7.6208227e-2
vt 0.27145969 7.6317181e-2
vt 0.27711329 4.2619170e-2
vt 0.27713548 4.2596979e-2
vt 0.27894451 1.0078899e-2
vt 0.27894451 1.0081802e-2
vt 0.27903754 6.3083991e-2
vt 0.27904318 6.3146378e-2
vt 0.27998842 1.8024900e-2
vt 0.27999481 1.8027297e-2
vt 0.28305108 2.5435957e-2
vt 0.28306565 2.5430707e-2
vt 0.28593893 9.8186716e-2
vt 0.28607463 9.8294810e-2
vt 0.28665306 4.9900018e-2
vt 0.28665404 4.9935101e-2
vt 0.28793225 3.1800210e-2
vt 0.28794346 3.1788995e-2
vt 0.28984612 8.3849869e-2
vt 0.28992872 8.3921484e-2
vt 0.29378891 6.9206995e-2
vt 0.29384592 6.9255911e-2
vt 0.29428366 1.0083162e-2
vt 0.29428366 1.0077538e-2
vt 0.29429650 3.6681380e-2
vt 0.29430175 3.6666809e-2
vt 0.29479845 1.4063481e-2
vt 0.29481584 1.4049809e-2
vt 0.29632364 1.7773875e-2
vt 0.29636014 1.7750042e-2
vt 0.29774172 5.4503839e-2
vt 0.29775852 5.4526615e-2
vt 0.29877152 2.0960936e-2
vt 0.29880029 2.0932161e-2
vt 0.30170516 3.9737649e-2
vt 0.30170756 3.9744040e-2
vt 0.30195858 2.3408811e-2
vt 0.30198241 2.3372311e-2
vt 0.30566897 2.4934009e-2
vt 0.30568265 2.4916619e-2
vt 0.30960429 8.6489852e-2
vt 0.30962318 7.1316957e-2
vt 0.30964105 0.10208312
vt 0.30964662 5.6083585e-2
vt 0.30964929 2.5448797e-2
vt 0.30965065 4.0787948e-2
vt 0.30965211 1.0080350e-2
vt 0.30965211 1.0080350e-2
vt 0.30965356 4.0787948e-2
vt 0.30965492 2.5448797e-2
vt 0.30965759 5.6083585e-2
vt 0.30968103 7.1316957e-2
vt 0.30969992 8.6489852e-2
vt 0.30980175 0.10208312
vt 0.31362156 2.4916619e-2
vt 0.31363524 2.4934009e-2
vt 0.31732180 2.3372311e-2
vt 0.31734563 2.3408811e-2
vt 0.31759665 3.9744040e-2
vt 0.31759905 3.9737649e-2
vt 0.32050392 2.0932161e-2
vt 0.32053269 2.0960936e-2
vt 0.32154569 5.4526615e-2
vt 0.32156249 5.4503839e-2
vt 0.32294407 1.7750042e-2
vt 0.32298057 1.7773875e-2
vt 0.32448837 1.4049809e-2
vt 0.32450576 1.4063481e-2
vt 0.32500246 3.6666809e-2
vt 0.32500771 3.6681380e-2
vt 0.32502055 1.0077538e-2
vt 0.32502055 1.0083162e-2
vt 0.32545829 6.9255911e-2
vt 0.32551530 6.9206995e-2
vt 0.32937549 8.3921484e-2
vt 0.32945809 8.3849869e-2
vt 0.33136075 3.1788995e-2
vt 0.33137196 3.1800210e-2
vt 0.33265017 4.9935101e-2
vt 0.33265115 4.9900018e-2
vt 0.33325037 9.8498063e-2
vt 0.33338606 9.8389968e-2
vt 0.33623856 2.5430707e-2
vt 0.33625313 2.5435957e-2
vt 0.33930940 1.8027297e-2
vt 0.33931579 1.8024900e-2
vt 0.34026103 6.3146378e-2
vt 0.34026667 6.3083991e-2
vt 0.34035970 1.0081802e-2
vt 0.34035970 1.0078899e-2
vt 0.34216873 4.2596979e-2
vt 0.34219092 4.2619170e-2
vt 0.34784452 7.6317181e-2
vt 0.34785256 7.6208227e-2
vt 0.34947177 3.3079392e-2
vt 0.34950686 3.3078420e-2
vt 0.35293210 5.3360348e-2
vt 0.35297630 5.3404548e-2
vt 0.35407559 2.1990738e-2
vt 0.35409837 2.1973934e-2
vt 0.35544204 8.9505209e-2
vt 0.35545566 8.9321891e-2
vt 0.35565534 1.0085832e-2
vt 0.35565534 1.0074869e-2
vt 0.36265575 4.0694914e-2
vt 0.36271813 4.0689276e-2
vt 0.36365193 6.4080175e-2
vt 0.36373289 6.4161131e-2
vt 0.36877875 2.5943542e-2
vt 0.36882767 2.5886538e-2
vt 0.37088871 1.0109278e-2
vt 0.37088871 1.0051423e-2
vt 0.37421219 7.4675080e-2
vt 0.37435509 7.4817982e-2
vt 0.37577998 4.8280804e-2
vt 0.37588894 4.8272767e-2
vt 0.38342162 2.9886339e-2
vt 0.38349324 2.9803736e-2
vt 0.38606161 1.0128170e-2
vt 0.38606161 1.0032531e-2
vt 0.38886362 5.5846952e-2
vt 0.38904694 5.5833329e-2
vt 0.39794107 3.3792261e-2
vt 0.39804917 3.3656569e-2
vt 0.40091955 1.0160701e-2
vt 0.40091955 1.0000000e-2
vn -0.10135566 0.99485026 1.2160188e-17
vn -9.7902049e-2 0.99485026 2.6232774e-2
vn -8.7776576e-2 0.99485026 5.0677825e-2
vn -7.1669272e-2 0.99485026 7.1669272e-2
vn -5.0677825e-2 0.99485026 8.7776576e-2
vn -2.6232774e-2 0.99485026 9.7902049e-2
vn -3.1269054e-17 0.99485026 0.10135566
vn 2.6232774e-2 0.99485026 9.7902049e-2
vn 5.0677825e-2 0.99485026 8.7776576e-2
vn 7.1669272e-2 0.99485026 7.1669272e-2
vn 8.7776576e-2 0.99485026 5.0677825e-2
vn 9.7902049e-2 0.99485026 2.6232774e-2
vn 0.10135566 0.99485026 1.7154550e-17
vn 9.7902049e-2 0.99485026 -2.6232774e-2
vn 8.7776576e-2 0.99485026 -5.0677825e-2
vn 7.1669272e-2 0.99485026 -7.1669272e-2
vn 5.0677825e-2 0.99485026 -8.7776576e-2
vn 2.6232774e-2 0.99485026 -9.7902049e-2
vn -3.1269054e-17 0.99485026 -0.10135566
vn -2.6232774e-2 0.99485026 -9.7902049e-2
vn -5.0677825e-2 0.99485026 -8.7776576e-2
vn -7.1669272e-2 0.99485026 -7.1669272e-2
vn -8.7776576e-2 0.99485026 -5.0677825e-2
vn -9.7902049e-2 0.99485026 -2.6232774e-2
vn -0.20304215 0.97917000 1.9115018e-17
vn -0.19612366 0.97917000 5.2551171e-2
vn -0.17583966 0.97917000 0.10152107
vn -0.14357248 0.97917000 0.14357248
vn -0.10152107 0.97917000 0.17583966
vn -5.2551171e-2 0.97917000 0.19612366
vn -3.1279120e-17 0.97917000 0.20304215
vn 5.2551171e-2 0.97917000 0.19612366
vn 0.10152107 0.97917000 0.17583966
vn 0.14357248 0.97917000 0.14357248
vn 0.17583966 0.97917000 0.10152107
vn 0.19612366 0.97917000 5.2551171e-2
vn 0.20304215 0.97917000 2.6065934e-17
vn 0.19612366 0.97917000 -5.2551171e-2
vn 0.17583966 0.97917000 -0.10152107
vn 0.14357248 0.97917000 -0.14357248
vn 0.10152107 0.97917000 -0.17583966
vn 5.2551171e-2 0.97917000 -0.19612366
vn -3.1279120e-17 0.97917000 -0.20304215
vn -5.2551171e-2 0.97917000 -0.19612366
vn -0.10152107 0.97917000 -0.17583966
vn -0.14357248 0.97917000 -0.14357248
vn -0.17583966 0.97917000 -0.10152107
vn -0.19612366 0.97917000 -5.2551171e-2
vn -0.30526933 0.95226605 2.2602731e-17
vn -0.29486753 0.95226605 7.9009505e-2
vn -0.26437099 0.95226606 0.15263465
vn -0.21585801 0.95226605 0.21585801
vn -0.15263465 0.95226606 0.26437099
vn -7.9009505e-2 0.95226605 0.29486753
vn -3.1296088e-17 0.95226605 0.30526933
vn 7.9009505e-2 0.95226605 0.29486753
vn 0.15263465 0.95226606 0.26437099
vn 0.21585801 0.95226605 0.21585801
vn 0.26437099 0.95226606 0.15263465
vn 0.29486753 0.95226605 7.9009505e-2
vn 0.30526933 0.95226605 2.9557417e-17
vn 0.29486753 0.95226605 -7.9009505e-2
vn 0.26437099 0.95226606 -0.15263465
vn 0.21585801 0.95226605 -0.21585801
vn 0.15263465 0.95226606 -0.26437099
vn 7.9009505e-2 0.95226605 -0.29486753
vn -3.1296088e-17 0.95226605 -0.30526933
vn -7.9009505e-2 0.95226605 -0.29486753
vn -0.15263465 0.95226606 -0.26437099
vn -0.21585801 0.95226605 -0.21585801
vn -0.26437099 0.95226606 -0.15263465
vn -0.29486753 0.95226605 -7.9009505e-2
vn -0.40798186 0.91299003 2.2620112e-17
vn -0.39408023 0.91299003 0.10559348
vn -0.35332268 0.91299003 0.20399093
vn -0.28848675 0.91299002 0.28848675
vn -0.20399093 0.91299003 0.35332268
vn -0.10559348 0.91299003 0.39408023
vn -1.3920069e-17 0.91299003 0.40798186
vn 0.10559348 0.91299003 0.39408023
vn 0.20399093 0.91299003 0.35332268
vn 0.28848675 0.91299002 0.28848675
vn 0.35332268 0.91299003 0.20399093
vn 0.39408023 0.91299003 0.10559348
vn 0.40798186 0.91299003 3.6540181e-17
vn 0.39408023 0.91299003 -0.10559348
vn 0.35332268 0.91299003 -0.20399093
vn 0.28848675 0.91299002 -0.28848675
vn 0.20399093 0.91299003 -0.35332268
vn 0.10559348 0.91299003 -0.39408023
vn -1.3920069e-17 0.91299003 -0.40798186
vn -0.10559348 0.91299003 -0.39408023
vn -0.20399093 0.91299003 -0.35332268
vn -0.28848675 0.91299002 -0.28848675
vn -0.35332268 0.91299003 -0.20399093
vn -0.39408023 0.91299003 -0.10559348
vn -0.51067516 0.85977374 2.7867907e-17
vn -0.49327433 0.85977373 0.13217247
vn -0.44225767 0.85977373 0.25533758
vn -0.36110188 0.85977373 0.36110188
vn -0.25533758 0.85977373 0.44225767
vn -0.13217247 0.85977373 0.49327433
vn 0.0000000e+0 0.85977374 0.51067516
vn 0.13217247 0.85977373 0.49327433
vn 0.25533758 0.85977373 0.44225767
vn 0.36110188 0.85977373 0.36110188
vn 0.44225767 0.85977373 0.25533758
vn 0.49327433 0.85977373 0.13217247
vn 0.51067516 0.85977374 3.8318372e-17
vn 0.49327433 0.85977373 -0.13217247
vn 0.44225767 0.85977373 -0.25533758
vn 0.36110188 0.85977373 -0.36110188
vn 0.25533758 0.85977373 -0.44225767
vn 0.13217247 0.85977373 -0.49327433
vn 0.0000000e+0 0.85977374 -0.51067516
vn -0.13217247 0.85977373 -0.49327433
vn -0.25533758 0.85977373 -0.44225767
vn -0.36110188 0.85977373 -0.36110188
vn -0.44225767 0.85977373 -0.25533758
vn -0.49327433 0.85977373 -0.13217247
vn -3.6766170e-17 1.00000000 1.1435148e-17
vn -0.56089763 0.82788516 3.4788933e-17
vn -0.56089763 0.82788516 3.4788933e-17
vn -0.54178549 0.82788517 0.14517099
vn -0.54178549 0.82788517 0.14517099
vn -0.48575158 0.82788518 0.28044881
vn -0.48575158 0.82788518 0.28044881
vn -0.39661451 0.82788517 0.39661451
vn -0.39661451 0.82788517 0.39661451
vn -0.28044881 0.82788518 0.48575158
vn -0.28044881 0.82788518 0.48575158
vn -0.14517099 0.82788517 0.54178549
vn -0.14517099 0.82788517 0.54178549
vn 0.0000000e+0 0.82788516 0.56089763
vn 0.0000000e+0 0.82788516 0.56089763
vn 0.14517099 0.82788517 0.54178549
vn 0.14517099 0.82788517 0.54178549
vn 0.28044881 0.82788518 0.48575158
vn 0.28044881 0.82788518 0.48575158
vn 0.39661451 0.82788517 0.39661451
vn 0.39661451 0.82788517 0.39661451
vn 0.48575158 0.82788518 0.28044881
vn 0.48575158 0.82788518 0.28044881
vn 0.54178549 0.82788517 0.14517099
vn 0.54178549 0.82788517 0.14517099
vn 0.56089763 0.82788516 3.4788933e-17
vn 0.56089763 0.82788516 3.4788933e-17
vn 0.54178549 0.82788517 -0.14517099
vn 0.54178549 0.82788517 -0.14517099
vn 0.48575158 0.82788518 -0.28044881
vn 0.48575158 0.82788518 -0.28044881
vn 0.39661451 0.82788517 -0.39661451
vn 0.39661451 0.82788517 -0.39661451
vn 0.28044881 0.82788518 -0.48575158
vn 0.28044881 0.82788518 -0.48575158
vn 0.14517099 0.82788517 -0.54178549
vn 0.14517099 0.82788517 -0.54178549
vn 0.0000000e+0 0.82788516 -0.56089763
vn 0.0000000e+0 0.82788516 -0.56089763
vn -0.14517099 0.82788517 -0.54178549
vn -0.14517099 0.82788517 -0.54178549
vn -0.28044881 0.82788518 -0.48575158
vn -0.28044881 0.82788518 -0.48575158
vn -0.39661451 0.82788517 -0.39661451
vn -0.39661451 0.82788517 -0.39661451
vn -0.48575158 0.82788518 -0.28044881
vn -0.48575158 0.82788518 -0.28044881
vn -0.54178549 0.82788517 -0.14517099
vn -0.54178549 0.82788517 -0.14517099
g 1_1_auv
usemtl 1_auv
s 2
f 1/104/1 25/122/25 26/118/26 2/100/2
f 1/103/1 145/79/121 24/99/24
f 2/100/2 26/118/26 27/116/27 3/98/3
f 2/100/2 145/80/121 1/104/1
f 3/98/3 27/116/27 28/110/28 4/94/4
f 3/98/3 145/80/121 2/100/2
f 4/94/4 28/110/28 29/102/29 5/90/5
f 4/94/4 145/80/121 3/98/3
f 5/90/5 29/102/29 30/91/30 6/88/6
f 5/90/5 145/80/121 4/94/4
f 6/88/6 30/91/30 31/78/31 7/82/7
f 6/88/6 145/80/121 5/90/5
f 7/82/7 31/78/31 32/67/32 8/72/8
f 7/82/7 145/80/121 6/88/6
f 8/72/8 32/67/32 33/58/33 9/70/9
f 8/72/8 145/80/121 7/82/7
f 9/70/9 33/58/33 34/50/34 10/66/10
f 9/70/9 145/80/121 8/72/8
f 10/66/10 34/50/34 35/44/35 11/62/11
f 10/66/10 145/80/121 9/70/9
f 11/62/11 35/44/35 36/42/36 12/60/12
f 11/62/11 145/80/121 10/66/10
f 12/60/12 36/42/36 37/38/37 13/56/13
f 12/60/12 145/80/121 11/62/11
f 13/55/13 37/37/37 38/41/38 14/59/14
f 13/56/13 145/80/121 12/60/12
f 14/59/14 38/41/38 39/43/39 15/61/15
f 14/59/14 145/79/121 13/55/13
f 15/61/15 39/43/39 40/49/40 16/65/16
f 15/61/15 145/79/121 14/59/14
f 16/65/16 40/49/40 41/57/41 17/69/17
f 16/65/16 145/79/121 15/61/15
f 17/69/17 41/57/41 42/68/42 18/71/18
f 17/69/17 145/79/121 16/65/16
f 18/71/18 42/68/42 43/81/43 19/77/19
f 18/71/18 145/79/121 17/69/17
f 19/77/19 43/81/43 44/92/44 20/87/20
f 19/77/19 145/79/121 18/71/18
f 20/87/20 44/92/44 45/101/45 21/89/21
f 20/87/20 145/79/121 19/77/19
f 21/89/21 45/101/45 46/109/46 22/93/22
f 21/89/21 145/79/121 20/87/20
f 22/93/22 46/109/46 47/115/47 23/97/23
f 22/93/22 145/79/121 21/89/21
f 23/97/23 47/115/47 48/117/48 24/99/24
f 23/97/23 145/79/121 22/93/22
f 24/99/24 48/117/48 25/121/25 1/103/1
f 24/99/24 145/79/121 23/97/23
f 25/122/25 49/136/49 50/132/50 26/118/26
f 26/118/26 50/132/50 51/128/51 27/116/27
f 27/116/27 51/128/51 52/124/52 28/110/28
f 28/110/28 52/124/52 53/111/53 29/102/29
f 29/102/29 53/111/53 54/95/54 30/91/30
f 30/91/30 54/95/54 55/76/55 31/78/31
f 31/78/31 55/76/55 56/63/56 32/67/32
f 32/67/32 56/63/56 57/47/57 33/58/33
f 33/58/33 57/47/57 58/36/58 34/50/34
f 34/50/34 58/36/58 59/32/59 35/44/35
f 35/44/35 59/32/59 60/28/60 36/42/36
f 36/42/36 60/28/60 61/24/61 37/38/37
f 37/37/37 61/23/61 62/27/62 38/41/38
f 38/41/38 62/27/62 63/31/63 39/43/39
f 39/43/39 63/31/63 64/35/64 40/49/40
f 40/49/40 64/35/64 65/48/65 41/57/41
f 41/57/41 65/48/65 66/64/66 42/68/42
f 42/68/42 66/64/66 67/83/67 43/81/43
f 43/81/43 67/83/67 68/96/68 44/92/44
f 44/92/44 68/96/68 69/112/69 45/101/45
f 45/101/45 69/112/69 70/123/70 46/109/46
f 46/109/46 70/123/70 71/127/71 47/115/47
f 47/115/47 71/127/71 72/131/72 48/117/48
f 48/117/48 72/131/72 49/135/49 25/121/25
f 49/136/49 73/144/73 74/142/74 50/132/50
f 50/132/50 74/142/74 75/138/75 51/128/51
f 51/128/51 75/138/75 76/130/76 52/124/52
f 52/124/52 76/130/76 77/119/77 53/111/53
f 53/111/53 77/119/77 78/105/78 54/95/54
f 54/95/54 78/105/78 79/74/79 55/76/55
f 55/76/55 79/74/79 80/53/80 56/63/56
f 56/63/56 80/53/80 81/39/81 57/47/57
f 57/47/57 81/39/81 82/30/82 58/36/58
f 58/36/58 82/30/82 83/22/83 59/32/59
f 59/32/59 83/22/83 84/18/84 60/28/60
f 60/28/60 84/18/84 85/16/85 61/24/61
f 61/23/61 85/15/85 86/17/86 62/27/62
f 62/27/62 86/17/86 87/21/87 63/31/63
f 63/31/63 87/21/87 88/29/88 64/35/64
f 64/35/64 88/29/88 89/40/89 65/48/65
f 65/48/65 89/40/89 90/54/90 66/64/66
f 66/64/66 90/54/90 91/84/91 67/83/67
f 67/83/67 91/84/91 92/106/92 68/96/68
f 68/96/68 92/106/92 93/120/93 69/112/69
f 69/112/69 93/120/93 94/129/94 70/123/70
f 70/123/70 94/129/94 95/137/95 71/127/71
f 71/127/71 95/137/95 96/141/96 72/131/72
f 72/131/72 96/141/96 73/143/73 49/135/49
f 73/144/73 97/152/97 98/150/98 74/142/74
f 74/142/74 98/150/98 99/148/99 75/138/75
f 75/138/75 99/148/99 100/140/100 76/130/76
f 76/130/76 100/140/100 101/125/101 77/119/77
f 77/119/77 101/125/101 102/107/102 78/105/78
f 78/105/78 102/107/102 103/73/103 79/74/79
f 79/74/79 103/73/103 104/51/104 80/53/80
f 80/53/80 104/51/104 105/33/105 81/39/81
f 81/39/81 105/33/105 106/20/106 82/30/82
f 82/30/82 106/20/106 107/12/107 83/22/83
f 83/22/83 107/12/107 108/10/108 84/18/84
f 84/18/84 108/10/108 109/8/109 85/16/85
f 85/15/85 109/7/109 110/9/110 86/17/86
f 86/17/86 110/9/110 111/11/111 87/21/87
f 87/21/87 111/11/111 112/19/112 88/29/88
f 88/29/88 112/19/112 113/34/113 89/40/89
f 89/40/89 113/34/113 114/52/114 90/54/90
f 90/54/90 114/52/114 115/85/115 91/84/91
f 91/84/91 115/85/115 116/108/116 92/106/92
f 92/106/92 116/108/116 117/126/117 93/120/93
f 93/120/93 117/126/117 118/139/118 94/129/94
f 94/129/94 118/139/118 119/147/119 95/137/95
f 95/137/95 119/147/119 120/149/120 96/141/96
f 96/141/96 120/149/120 97/151/97 73/143/73
f 97/152/97 121/158/123 122/156/124 98/150/98
f 98/150/98 122/156/125 123/154/126 99/148/99
f 99/148/99 123/154/127 124/146/128 100/140/100
f 100/140/100 124/146/129 125/133/130 101/125/101
f 101/125/101 125/133/131 126/113/132 102/107/102
f 102/107/102 126/113/133 127/75/134 103/73/103
f 103/73/103 127/75/135 128/45/136 104/51/104
f 104/51/104 128/45/137 129/25/138 105/33/105
f 105/33/105 129/25/139 130/14/140 106/20/106
f 106/20/106 130/14/141 131/6/142 107/12/107
f 107/12/107 131/6/143 132/4/144 108/10/108
f 108/10/108 132/4/145 133/2/146 109/8/109
f 109/7/109 133/1/147 134/3/148 110/9/110
f 110/9/110 134/3/149 135/5/150 111/11/111
f 111/11/111 135/5/151 136/13/152 112/19/112
f 112/19/112 136/13/153 137/26/154 113/34/113
f 113/34/113 137/26/155 138/46/156 114/52/114
f 114/52/114 138/46/157 139/86/158 115/85/115
f 115/85/115 139/86/159 140/114/160 116/108/116
f 116/108/116 140/114/161 141/134/162 117/126/117
f 117/126/117 141/134/163 142/145/164 118/139/118
f 118/139/118 142/145/165 143/153/166 119/147/119
f 119/147/119 143/153/167 144/155/169 120/149/120
f 120/149/120 144/155/168 121/157/122 97/151/97
