# Exported from Wings 3D 1.5.4
mtllib ./kvant2_lab_windows.mtl
o w1
#98 vertices, 96 faces
v 5.0000000e-2 -0.12500000 -0.58750000
v 4.6193977e-2 -0.14413417 -0.58750000
v 3.5355339e-2 -0.16035534 -0.58750000
v 1.9134172e-2 -0.17119398 -0.58750000
v -2.7151431e-16 -0.17500000 -0.58750000
v -1.9134172e-2 -0.17119398 -0.58750000
v -3.5355339e-2 -0.16035534 -0.58750000
v -4.6193977e-2 -0.14413417 -0.58750000
v -5.0000000e-2 -0.12500000 -0.58750000
v -4.6193977e-2 -0.10586583 -0.58750000
v -3.5355339e-2 -8.9644661e-2 -0.58750000
v -1.9134172e-2 -7.8806023e-2 -0.58750000
v -2.3756890e-16 -7.5000000e-2 -0.58750000
v 1.9134172e-2 -7.8806023e-2 -0.58750000
v 3.5355339e-2 -8.9644661e-2 -0.58750000
v 4.6193977e-2 -0.10586583 -0.58750000
v -2.5717276e-16 -0.12500000 -0.59375000
v 1.5541190e-2 -0.11856263 -0.59290664
v 1.1894712e-2 -0.11310529 -0.59290664
v 6.4373717e-3 -0.10945881 -0.59290664
v -2.5060995e-16 -0.10817834 -0.59290664
v -6.4373717e-3 -0.10945881 -0.59290664
v -1.1894712e-2 -0.11310529 -0.59290664
v -1.5541190e-2 -0.11856263 -0.59290664
v -1.6821663e-2 -0.12500000 -0.59290664
v -1.5541190e-2 -0.13143737 -0.59290664
v -1.1894712e-2 -0.13689471 -0.59290664
v -6.4373717e-3 -0.14054119 -0.59290664
v -2.5701799e-16 -0.14182166 -0.59290664
v 6.4373717e-3 -0.14054119 -0.59290664
v 1.1894712e-2 -0.13689471 -0.59290664
v 1.5541190e-2 -0.13143737 -0.59290664
v 1.6821663e-2 -0.12500000 -0.59290664
v 3.0939182e-2 -0.11218457 -0.59082330
v 2.3679825e-2 -0.10132018 -0.59082330
v 1.2815429e-2 -9.4060818e-2 -0.59082330
v -2.4406232e-16 -9.1511670e-2 -0.59082330
v -1.2815429e-2 -9.4060818e-2 -0.59082330
v -2.3679825e-2 -0.10132018 -0.59082330
v -3.0939182e-2 -0.11218457 -0.59082330
v -3.3488330e-2 -0.12500000 -0.59082330
v -3.0939182e-2 -0.13781543 -0.59082330
v -2.3679825e-2 -0.14867982 -0.59082330
v -1.2815429e-2 -0.15593918 -0.59082330
v -2.6694196e-16 -0.15848833 -0.59082330
v 1.2815429e-2 -0.15593918 -0.59082330
v 2.3679825e-2 -0.14867982 -0.59082330
v 3.0939182e-2 -0.13781543 -0.59082330
v 3.3488330e-2 -0.12500000 -0.59082330
v 0.11250000 0.25000000 -0.58750000
v 0.10393645 0.20694811 -0.58750000
v 7.9549513e-2 0.17045049 -0.58750000
v 4.3051886e-2 0.14606355 -0.58750000
v -3.3676031e-17 0.13750000 -0.58750000
v -4.3051886e-2 0.14606355 -0.58750000
v -7.9549513e-2 0.17045049 -0.58750000
v -0.10393645 0.20694811 -0.58750000
v -0.11250000 0.25000000 -0.58750000
v -0.10393645 0.29305189 -0.58750000
v -7.9549513e-2 0.32954951 -0.58750000
v -4.3051886e-2 0.35393645 -0.58750000
v 4.2701141e-17 0.36250000 -0.58750000
v 4.3051886e-2 0.35393645 -0.58750000
v 7.9549513e-2 0.32954951 -0.58750000
v 0.10393645 0.29305189 -0.58750000
v 4.3368087e-18 0.25000000 -0.59375000
v 3.4709538e-2 0.26437716 -0.59291467
v 2.6565530e-2 0.27656553 -0.59291467
v 1.4377161e-2 0.28470954 -0.59291467
v 1.3159992e-17 0.28756933 -0.59291467
v -1.4377161e-2 0.28470954 -0.59291467
v -2.6565530e-2 0.27656553 -0.59291467
v -3.4709538e-2 0.26437716 -0.59291467
v -3.7569333e-2 0.25000000 -0.59291467
v -3.4709538e-2 0.23562284 -0.59291467
v -2.6565530e-2 0.22343447 -0.59291467
v -1.4377161e-2 0.21529046 -0.59291467
v -8.3493166e-18 0.21243067 -0.59291467
v 1.4377161e-2 0.21529046 -0.59291467
v 2.6565530e-2 0.22343447 -0.59291467
v 3.4709538e-2 0.23562284 -0.59291467
v 3.7569333e-2 0.25000000 -0.59291467
v 6.9355021e-2 0.27872779 -0.59083133
v 5.3082035e-2 0.30308203 -0.59083133
v 2.8727790e-2 0.31935502 -0.59083133
v 3.0027956e-17 0.32506933 -0.59083133
v -2.8727790e-2 0.31935502 -0.59083133
v -5.3082035e-2 0.30308203 -0.59083133
v -6.9355021e-2 0.27872779 -0.59083133
v -7.5069333e-2 0.25000000 -0.59083133
v -6.9355021e-2 0.22127221 -0.59083133
v -5.3082035e-2 0.19691797 -0.59083133
v -2.8727790e-2 0.18064498 -0.59083133
v -2.1037610e-17 0.17493067 -0.59083133
v 2.8727790e-2 0.18064498 -0.59083133
v 5.3082035e-2 0.19691797 -0.59083133
v 6.9355021e-2 0.22127221 -0.59083133
v 7.5069333e-2 0.25000000 -0.59083133
vt 0.35763620 0.80661357
vt 0.35763620 0.80661357
vt 0.35903219 0.79959546
vt 0.35903219 0.81363168
vt 0.35903219 0.79959546
vt 0.35903219 0.81363168
vt 0.36300763 0.79364580
vt 0.36300763 0.81958134
vt 0.36300763 0.79364580
vt 0.36300763 0.81958134
vt 0.36369242 0.80661357
vt 0.36373797 0.80661357
vt 0.36462741 0.80191307
vt 0.36462741 0.81131406
vt 0.36466949 0.80193050
vt 0.36466949 0.81129663
vt 0.36729002 0.81529895
vt 0.36729002 0.79792819
vt 0.36732223 0.79796039
vt 0.36732223 0.81526674
vt 0.36895730 0.78967036
vt 0.36895730 0.82355678
vt 0.36895730 0.78967036
vt 0.36895730 0.82355678
vt 0.36980549 0.80661357
vt 0.36985104 0.80661357
vt 0.37027514 0.80425244
vt 0.37027514 0.80897469
vt 0.37031722 0.80426987
vt 0.37031722 0.80895726
vt 0.37127491 0.79526557
vt 0.37127491 0.81796157
vt 0.37129234 0.79530765
vt 0.37129234 0.81791949
vt 0.37161261 0.80225078
vt 0.37161261 0.81097636
vt 0.37164482 0.80228299
vt 0.37164482 0.81094415
vt 0.37361428 0.80091331
vt 0.37361428 0.81231383
vt 0.37363171 0.80095539
vt 0.37363171 0.81227175
vt 0.37597540 0.78827437
vt 0.37597540 0.79437613
vt 0.37597540 0.80048920
vt 0.37597540 0.80661357
vt 0.37597540 0.81273794
vt 0.37597540 0.81885100
vt 0.37597540 0.82495277
vt 0.37597540 0.78827437
vt 0.37597540 0.79433059
vt 0.37597540 0.80044365
vt 0.37597540 0.80661357
vt 0.37597540 0.81278349
vt 0.37597540 0.81889655
vt 0.37597540 0.82495277
vt 0.37831910 0.80095539
vt 0.37831910 0.81227175
vt 0.37833653 0.80091331
vt 0.37833653 0.81231383
vt 0.38030599 0.80228299
vt 0.38030599 0.81094415
vt 0.38033819 0.80225078
vt 0.38033819 0.81097636
vt 0.38065847 0.79530765
vt 0.38065847 0.81791949
vt 0.38067590 0.79526557
vt 0.38067590 0.81796157
vt 0.38163358 0.80426987
vt 0.38163358 0.80895726
vt 0.38167566 0.80425244
vt 0.38167566 0.80897469
vt 0.38209977 0.80661357
vt 0.38214532 0.80661357
vt 0.38299351 0.78967036
vt 0.38299351 0.82355678
vt 0.38299351 0.78967036
vt 0.38299351 0.82355678
vt 0.38462858 0.79796039
vt 0.38462858 0.81526674
vt 0.38466078 0.79792819
vt 0.38466078 0.81529895
vt 0.38728132 0.80193050
vt 0.38728132 0.81129663
vt 0.38732340 0.81131406
vt 0.38732340 0.80191307
vt 0.38821284 0.80661357
vt 0.38825839 0.80661357
vt 0.38894318 0.79364580
vt 0.38894318 0.81958134
vt 0.38894318 0.79364580
vt 0.38894318 0.81958134
vt 0.39291862 0.79959546
vt 0.39291862 0.81363168
vt 0.39291862 0.79959546
vt 0.39291862 0.81363168
vt 0.39431460 0.80661357
vt 0.39431460 0.80661357
vn -5.1371433e-16 1.6501390e-17 -1.00000000
vn 8.0478249e-2 3.3335182e-2 -0.99619878
vn 6.1595385e-2 6.1595385e-2 -0.99619878
vn 3.3335182e-2 8.0478249e-2 -0.99619878
vn 2.2570953e-17 8.7109029e-2 -0.99619878
vn -3.3335182e-2 8.0478249e-2 -0.99619878
vn -6.1595385e-2 6.1595385e-2 -0.99619878
vn -8.0478249e-2 3.3335182e-2 -0.99619878
vn -8.7109029e-2 -2.5175293e-17 -0.99619878
vn -8.0478249e-2 -3.3335182e-2 -0.99619878
vn -6.1595385e-2 -6.1595385e-2 -0.99619878
vn -3.3335182e-2 -8.0478249e-2 -0.99619878
vn -8.0669453e-15 -8.7109029e-2 -0.99619878
vn 3.3335182e-2 -8.0478249e-2 -0.99619878
vn 6.1595385e-2 -6.1595385e-2 -0.99619878
vn 8.0478249e-2 -3.3335182e-2 -0.99619878
vn 8.7109029e-2 -2.4741237e-17 -0.99619878
vn 0.14853785 6.1526392e-2 -0.98699089
vn 0.11368595 0.11368595 -0.98699089
vn 6.1526392e-2 0.14853785 -0.98699089
vn 3.8210750e-17 0.16077621 -0.98699089
vn -6.1526392e-2 0.14853785 -0.98699089
vn -0.11368595 0.11368595 -0.98699089
vn -0.14853785 6.1526392e-2 -0.98699089
vn -0.16077621 5.2105568e-18 -0.98699089
vn -0.14853785 -6.1526392e-2 -0.98699089
vn -0.11368595 -0.11368595 -0.98699089
vn -6.1526392e-2 -0.14853785 -0.98699089
vn -2.1363283e-16 -0.16077621 -0.98699089
vn 6.1526392e-2 -0.14853785 -0.98699089
vn 0.11368595 -0.11368595 -0.98699089
vn 0.14853785 -6.1526392e-2 -0.98699089
vn 0.16077621 -3.6473898e-17 -0.98699089
vn -1.9260378e-16 3.1449941e-18 -1.00000000
vn 3.5896825e-2 1.4868952e-2 -0.99924488
vn 2.7474241e-2 2.7474241e-2 -0.99924488
vn 1.4868952e-2 3.5896825e-2 -0.99924488
vn 5.9424598e-17 3.8854444e-2 -0.99924488
vn -1.4868952e-2 3.5896825e-2 -0.99924488
vn -2.7474241e-2 2.7474241e-2 -0.99924488
vn -3.5896825e-2 1.4868952e-2 -0.99924488
vn -3.8854444e-2 -1.4097076e-17 -0.99924488
vn -3.5896825e-2 -1.4868952e-2 -0.99924488
vn -2.7474241e-2 -2.7474241e-2 -0.99924488
vn -1.4868952e-2 -3.5896825e-2 -0.99924488
vn -8.6751239e-18 -3.8854444e-2 -0.99924488
vn 1.4868952e-2 -3.5896825e-2 -0.99924488
vn 2.7474241e-2 -2.7474241e-2 -0.99924488
vn 3.5896825e-2 -1.4868952e-2 -0.99924488
vn 3.8854444e-2 0.0000000e+0 -0.99924488
vn 6.6583110e-2 2.7579627e-2 -0.99739965
vn 5.0960506e-2 5.0960506e-2 -0.99739965
vn 2.7579627e-2 6.6583110e-2 -0.99739965
vn 1.1451998e-16 7.2069039e-2 -0.99739965
vn -2.7579627e-2 6.6583110e-2 -0.99739965
vn -5.0960506e-2 5.0960506e-2 -0.99739965
vn -6.6583110e-2 2.7579627e-2 -0.99739965
vn -7.2069039e-2 -1.3013634e-17 -0.99739965
vn -6.6583110e-2 -2.7579627e-2 -0.99739965
vn -5.0960506e-2 -5.0960506e-2 -0.99739965
vn -2.7579627e-2 -6.6583110e-2 -0.99739965
vn -3.7305750e-17 -7.2069039e-2 -0.99739965
vn 2.7579627e-2 -6.6583110e-2 -0.99739965
vn 5.0960506e-2 -5.0960506e-2 -0.99739965
vn 6.6583110e-2 -2.7579627e-2 -0.99739965
vn 7.2069039e-2 -6.0730290e-18 -0.99739965
vn 0.19731310 -4.1665417e-17 -0.98034052
vn 0.19731310 -4.1665417e-17 -0.98034052
vn 0.18229354 -7.5508456e-2 -0.98034052
vn 0.18229354 -7.5508456e-2 -0.98034052
vn 0.13952143 -0.13952143 -0.98034052
vn 0.13952143 -0.13952143 -0.98034052
vn 7.5508456e-2 -0.18229354 -0.98034052
vn 7.5508456e-2 -0.18229354 -0.98034052
vn -2.6735309e-16 -0.19731310 -0.98034052
vn -2.6735309e-16 -0.19731310 -0.98034052
vn -7.5508456e-2 -0.18229354 -0.98034052
vn -7.5508456e-2 -0.18229354 -0.98034052
vn -0.13952143 -0.13952143 -0.98034052
vn -0.13952143 -0.13952143 -0.98034052
vn -0.18229354 -7.5508456e-2 -0.98034052
vn -0.18229354 -7.5508456e-2 -0.98034052
vn -0.19731310 0.0000000e+0 -0.98034052
vn -0.19731310 0.0000000e+0 -0.98034052
vn -0.18229354 7.5508456e-2 -0.98034052
vn -0.18229354 7.5508456e-2 -0.98034052
vn -0.13952143 0.13952143 -0.98034052
vn -0.13952143 0.13952143 -0.98034052
vn -7.5508456e-2 0.18229354 -0.98034052
vn -7.5508456e-2 0.18229354 -0.98034052
vn 3.1249063e-17 0.19731310 -0.98034052
vn 3.1249063e-17 0.19731310 -0.98034052
vn 7.5508456e-2 0.18229354 -0.98034052
vn 7.5508456e-2 0.18229354 -0.98034052
vn 0.13952143 0.13952143 -0.98034052
vn 0.13952143 0.13952143 -0.98034052
vn 0.18229354 7.5508456e-2 -0.98034052
vn 0.18229354 7.5508456e-2 -0.98034052
vn 8.8649688e-2 -1.2144952e-17 -0.99606287
vn 8.8649688e-2 -1.2144952e-17 -0.99606287
vn 8.1901632e-2 -3.3924767e-2 -0.99606287
vn 8.1901632e-2 -3.3924767e-2 -0.99606287
vn 6.2684795e-2 -6.2684795e-2 -0.99606287
vn 6.2684795e-2 -6.2684795e-2 -0.99606287
vn 3.3924767e-2 -8.1901632e-2 -0.99606287
vn 3.3924767e-2 -8.1901632e-2 -0.99606287
vn -5.2049795e-17 -8.8649688e-2 -0.99606287
vn -5.2049795e-17 -8.8649688e-2 -0.99606287
vn -3.3924767e-2 -8.1901632e-2 -0.99606287
vn -3.3924767e-2 -8.1901632e-2 -0.99606287
vn -6.2684795e-2 -6.2684795e-2 -0.99606287
vn -6.2684795e-2 -6.2684795e-2 -0.99606287
vn -8.1901632e-2 -3.3924767e-2 -0.99606287
vn -8.1901632e-2 -3.3924767e-2 -0.99606287
vn -8.8649688e-2 -1.2144952e-17 -0.99606287
vn -8.8649688e-2 -1.2144952e-17 -0.99606287
vn -8.1901632e-2 3.3924767e-2 -0.99606287
vn -8.1901632e-2 3.3924767e-2 -0.99606287
vn -6.2684795e-2 6.2684795e-2 -0.99606287
vn -6.2684795e-2 6.2684795e-2 -0.99606287
vn -3.3924767e-2 8.1901632e-2 -0.99606287
vn -3.3924767e-2 8.1901632e-2 -0.99606287
vn 1.2318451e-16 8.8649688e-2 -0.99606287
vn 1.2318451e-16 8.8649688e-2 -0.99606287
vn 3.3924767e-2 8.1901632e-2 -0.99606287
vn 3.3924767e-2 8.1901632e-2 -0.99606287
vn 6.2684795e-2 6.2684795e-2 -0.99606287
vn 6.2684795e-2 6.2684795e-2 -0.99606287
vn 8.1901632e-2 3.3924767e-2 -0.99606287
vn 8.1901632e-2 3.3924767e-2 -0.99606287
g w1_w1_auv
usemtl w1_auv
s 2
f 1/2/68 49/11/33 34/14/18 16/6/98
f 2/5/69 48/13/32 49/11/33 1/2/67
f 3/9/71 47/18/31 48/13/32 2/5/70
f 4/23/73 46/31/30 47/18/31 3/9/72
f 5/50/75 45/51/29 46/31/30 4/23/74
f 6/77/77 44/67/28 45/51/29 5/50/76
f 7/91/79 43/81/27 44/67/28 6/77/78
f 8/95/81 42/86/26 43/81/27 7/91/80
f 9/98/83 41/88/25 42/86/26 8/95/82
f 10/96/85 40/85/24 41/88/25 9/98/84
f 11/92/87 39/82/23 40/85/24 10/96/86
f 12/78/89 38/68/22 39/82/23 11/92/88
f 13/56/91 37/55/21 38/68/22 12/78/90
f 14/24/93 36/32/20 37/55/21 13/56/92
f 15/10/95 35/17/19 36/32/20 14/24/94
f 16/6/97 34/14/18 35/17/19 15/10/96
f 17/53/1 19/36/3 18/28/2
f 17/53/1 20/40/4 19/36/3
f 17/53/1 21/54/5 20/40/4
f 17/53/1 22/60/6 21/54/5
f 17/53/1 23/64/7 22/60/6
f 17/53/1 24/72/8 23/64/7
f 17/53/1 25/74/9 24/72/8
f 17/53/1 26/71/10 25/74/9
f 17/53/1 27/63/11 26/71/10
f 17/53/1 28/59/12 27/63/11
f 17/53/1 29/52/13 28/59/12
f 17/53/1 30/39/14 29/52/13
f 17/53/1 31/35/15 30/39/14
f 17/53/1 32/27/16 31/35/15
f 17/53/1 33/25/17 32/27/16
f 18/28/2 33/25/17 17/53/1
f 18/28/2 34/14/18 49/11/33 33/25/17
f 19/36/3 35/17/19 34/14/18 18/28/2
f 20/40/4 36/32/20 35/17/19 19/36/3
f 21/54/5 37/55/21 36/32/20 20/40/4
f 22/60/6 38/68/22 37/55/21 21/54/5
f 23/64/7 39/82/23 38/68/22 22/60/6
f 24/72/8 40/85/24 39/82/23 23/64/7
f 25/74/9 41/88/25 40/85/24 24/72/8
f 26/71/10 42/86/26 41/88/25 25/74/9
f 27/63/11 43/81/27 42/86/26 26/71/10
f 28/59/12 44/67/28 43/81/27 27/63/11
f 29/52/13 45/51/29 44/67/28 28/59/12
f 30/39/14 46/31/30 45/51/29 29/52/13
f 31/35/15 47/18/31 46/31/30 30/39/14
f 32/27/16 48/13/32 47/18/31 31/35/15
f 33/25/17 49/11/33 48/13/32 32/27/16
f 50/1/100 98/12/66 83/16/51 65/4/130
f 51/3/101 97/15/65 98/12/66 50/1/99
f 52/7/103 96/19/64 97/15/65 51/3/102
f 53/21/105 95/33/63 96/19/64 52/7/104
f 54/43/107 94/44/62 95/33/63 53/21/106
f 55/75/109 93/65/61 94/44/62 54/43/108
f 56/89/111 92/79/60 93/65/61 55/75/110
f 57/93/113 91/83/59 92/79/60 56/89/112
f 58/97/115 90/87/58 91/83/59 57/93/114
f 59/94/117 89/84/57 90/87/58 58/97/116
f 60/90/119 88/80/56 89/84/57 59/94/118
f 61/76/121 87/66/55 88/80/56 60/90/120
f 62/49/123 86/48/54 87/66/55 61/76/122
f 63/22/125 85/34/53 86/48/54 62/49/124
f 64/8/127 84/20/52 85/34/53 63/22/126
f 65/4/129 83/16/51 84/20/52 64/8/128
f 66/46/34 68/38/36 67/30/35
f 66/46/34 69/42/37 68/38/36
f 66/46/34 70/47/38 69/42/37
f 66/46/34 71/58/39 70/47/38
f 66/46/34 72/62/40 71/58/39
f 66/46/34 73/70/41 72/62/40
f 66/46/34 74/73/42 73/70/41
f 66/46/34 75/69/43 74/73/42
f 66/46/34 76/61/44 75/69/43
f 66/46/34 77/57/45 76/61/44
f 66/46/34 78/45/46 77/57/45
f 66/46/34 79/41/47 78/45/46
f 66/46/34 80/37/48 79/41/47
f 66/46/34 81/29/49 80/37/48
f 66/46/34 82/26/50 81/29/49
f 67/30/35 82/26/50 66/46/34
f 67/30/35 83/16/51 98/12/66 82/26/50
f 68/38/36 84/20/52 83/16/51 67/30/35
f 69/42/37 85/34/53 84/20/52 68/38/36
f 70/47/38 86/48/54 85/34/53 69/42/37
f 71/58/39 87/66/55 86/48/54 70/47/38
f 72/62/40 88/80/56 87/66/55 71/58/39
f 73/70/41 89/84/57 88/80/56 72/62/40
f 74/73/42 90/87/58 89/84/57 73/70/41
f 75/69/43 91/83/59 90/87/58 74/73/42
f 76/61/44 92/79/60 91/83/59 75/69/43
f 77/57/45 93/65/61 92/79/60 76/61/44
f 78/45/46 94/44/62 93/65/61 77/57/45
f 79/41/47 95/33/63 94/44/62 78/45/46
f 80/37/48 96/19/64 95/33/63 79/41/47
f 81/29/49 97/15/65 96/19/64 80/37/48
f 82/26/50 98/12/66 97/15/65 81/29/49
