# Exported from Wings 3D 1.5.4
mtllib Eridani_SolarDorsal_1_Panel.mtl
o Eridani_SolarDorsal_1_Panel
#72 vertices, 68 faces
v -0.91750000 -5.5000000e-2 -0.38500000
v -0.91750000 -5.0000000e-3 0.0000000e+0
v -8.2500000e-2 -5.5000000e-2 -0.38500000
v -8.2500000e-2 -5.0000000e-3 0.0000000e+0
v -8.2500000e-2 -4.5000000e-2 -0.38500000
v -0.91750000 -4.5000000e-2 -0.38500000
v -0.91750000 5.0000000e-3 0.0000000e+0
v -8.2500000e-2 5.0000000e-3 0.0000000e+0
v -8.2500000e-2 4.5000000e-2 -0.77000000
v -0.91750000 4.5000000e-2 -0.77000000
v -0.91750000 5.5000000e-2 -0.77000000
v -8.2500000e-2 5.5000000e-2 -0.77000000
v -8.2500000e-2 -5.5000000e-2 -1.15500000
v -0.91750000 -5.5000000e-2 -1.15500000
v -0.91750000 -4.5000000e-2 -1.15500000
v -8.2500000e-2 -4.5000000e-2 -1.15500000
v -8.2500000e-2 4.5000000e-2 -1.54000000
v -0.91750000 4.5000000e-2 -1.54000000
v -0.91750000 5.5000000e-2 -1.54000000
v -8.2500000e-2 5.5000000e-2 -1.54000000
v -8.2500000e-2 -5.5000000e-2 -1.92500000
v -0.91750000 -5.5000000e-2 -1.92500000
v -0.91750000 -4.5000000e-2 -1.92500000
v -8.2500000e-2 -4.5000000e-2 -1.92500000
v -8.2500000e-2 4.5000000e-2 -2.31000000
v -0.91750000 4.5000000e-2 -2.31000000
v -0.91750000 5.5000000e-2 -2.31000000
v -8.2500000e-2 5.5000000e-2 -2.31000000
v -8.2500000e-2 -5.5000000e-2 -2.69500000
v -0.91750000 -5.5000000e-2 -2.69500000
v -0.91750000 -4.5000000e-2 -2.69500000
v -8.2500000e-2 -4.5000000e-2 -2.69500000
v -8.2500000e-2 -5.0000000e-3 -3.08000000
v -0.91750000 -5.0000000e-3 -3.08000000
v -0.91750000 5.0000000e-3 -3.08000000
v -8.2500000e-2 5.0000000e-3 -3.08000000
v 8.2500000e-2 -5.5000000e-2 -0.38500000
v 8.2500000e-2 -5.0000000e-3 0.0000000e+0
v 0.91750000 -5.5000000e-2 -0.38500000
v 0.91750000 -5.0000000e-3 0.0000000e+0
v 0.91750000 -4.5000000e-2 -0.38500000
v 8.2500000e-2 -4.5000000e-2 -0.38500000
v 8.2500000e-2 5.0000000e-3 0.0000000e+0
v 0.91750000 5.0000000e-3 0.0000000e+0
v 0.91750000 4.5000000e-2 -0.77000000
v 8.2500000e-2 4.5000000e-2 -0.77000000
v 8.2500000e-2 5.5000000e-2 -0.77000000
v 0.91750000 5.5000000e-2 -0.77000000
v 0.91750000 -5.5000000e-2 -1.15500000
v 8.2500000e-2 -5.5000000e-2 -1.15500000
v 8.2500000e-2 -4.5000000e-2 -1.15500000
v 0.91750000 -4.5000000e-2 -1.15500000
v 0.91750000 4.5000000e-2 -1.54000000
v 8.2500000e-2 4.5000000e-2 -1.54000000
v 8.2500000e-2 5.5000000e-2 -1.54000000
v 0.91750000 5.5000000e-2 -1.54000000
v 0.91750000 -5.5000000e-2 -1.92500000
v 8.2500000e-2 -5.5000000e-2 -1.92500000
v 8.2500000e-2 -4.5000000e-2 -1.92500000
v 0.91750000 -4.5000000e-2 -1.92500000
v 0.91750000 4.5000000e-2 -2.31000000
v 8.2500000e-2 4.5000000e-2 -2.31000000
v 8.2500000e-2 5.5000000e-2 -2.31000000
v 0.91750000 5.5000000e-2 -2.31000000
v 0.91750000 -5.5000000e-2 -2.69500000
v 8.2500000e-2 -5.5000000e-2 -2.69500000
v 8.2500000e-2 -4.5000000e-2 -2.69500000
v 0.91750000 -4.5000000e-2 -2.69500000
v 0.91750000 -5.0000000e-3 -3.08000000
v 8.2500000e-2 -5.0000000e-3 -3.08000000
v 8.2500000e-2 5.0000000e-3 -3.08000000
v 0.91750000 5.0000000e-3 -3.08000000
vt 4.3349403e-2 0.28444937
vt 4.3349403e-2 0.29840854
vt 4.3349403e-2 0.29840854
vt 4.4472777e-2 0.33760712
vt 4.4472777e-2 0.33760712
vt 4.4472777e-2 0.33768895
vt 4.4472777e-2 0.33760712
vt 4.4472777e-2 0.33760712
vt 4.4472777e-2 0.33760712
vt 4.4472777e-2 0.33768895
vt 4.4472777e-2 0.62648930
vt 4.4472777e-2 0.62657113
vt 4.4472777e-2 0.62657113
vt 4.4472777e-2 0.66984896
vt 4.4472777e-2 0.66984896
vt 4.4472777e-2 0.66993079
vt 4.4472777e-2 0.66993079
vt 4.4472777e-2 0.95952091
vt 4.4472777e-2 0.95952091
vt 4.4472777e-2 0.95960274
vt 4.4472777e-2 0.95960274
vt 4.4472777e-2 0.62648930
vt 4.4472777e-2 0.62648930
vt 4.4472777e-2 0.62657113
vt 4.4472777e-2 0.62657113
vt 4.4472777e-2 0.62657113
vt 4.4472777e-2 0.66984896
vt 4.4472777e-2 0.66984896
vt 4.4472777e-2 0.66993079
vt 4.4472777e-2 0.95952091
vt 4.4472777e-2 0.95960274
vt 4.4472777e-2 0.95960274
vt 0.65100813 0.66984896
vt 0.65100813 0.66984896
vt 0.65100813 0.66984896
vt 0.65100813 0.95960274
vt 0.65100813 0.95960274
vt 0.65100813 0.95960274
vt 0.65100813 0.33760712
vt 0.65100813 0.33760712
vt 0.65100813 0.33768895
vt 0.65100813 0.62648930
vt 0.65100813 0.62657113
vt 0.65100813 0.62657113
vt 0.65100813 0.62657113
vt 0.65100813 0.62657113
vt 0.65100813 0.66984896
vt 0.65100813 0.66984896
vt 0.65100813 0.66984896
vt 0.65100813 0.66993079
vt 0.65100813 0.66993079
vt 0.65100813 0.66993079
vt 0.65100813 0.95952091
vt 0.65100813 0.95952091
vt 0.65100813 0.95952091
vt 0.65100813 0.95960274
vt 0.65100813 0.95960274
vt 0.65100813 0.95960274
vt 0.65100813 0.33760712
vt 0.65100813 0.33760712
vt 0.65100813 0.33760712
vt 0.65100813 0.33760712
vt 0.65100813 0.33768895
vt 0.65100813 0.62648930
vt 0.65100813 0.62657113
vt 0.65100813 0.62657113
vt 0.65100813 0.66984896
vt 0.65100813 0.95960274
vt 0.65264903 0.28444937
vt 0.65264903 0.28444937
vt 0.65264903 0.29840854
vt 0.69218687 0.66921539
vt 0.69218687 0.66921539
vt 0.69218687 0.66921539
vt 0.69218687 0.66921539
vt 0.69218687 0.95933906
vt 0.69218687 0.95933906
vt 0.69218687 0.95933906
vt 0.71448387 0.66921539
vt 0.71448387 0.66921539
vt 0.71448387 0.66921539
vt 0.71448387 0.66921539
vt 0.71448387 0.95933906
vt 0.71448387 0.95933906
vt 0.71448387 0.95933906
vn 0.0000000e+0 -0.99167207 0.12878858
vn -1.00000000 0.0000000e+0 0.0000000e+0
vn 0.0000000e+0 -0.96788370 -0.25139836
vn -1.00000000 0.0000000e+0 0.0000000e+0
vn 0.0000000e+0 -0.99167207 0.12878858
vn -1.00000000 0.0000000e+0 0.0000000e+0
vn 0.0000000e+0 0.0000000e+0 1.00000000
vn 0.0000000e+0 -0.99167207 0.12878858
vn 1.00000000 0.0000000e+0 0.0000000e+0
vn 0.0000000e+0 -0.96788370 -0.25139836
vn 1.00000000 0.0000000e+0 0.0000000e+0
vn 0.0000000e+0 -0.99167207 0.12878858
vn 0.0000000e+0 0.0000000e+0 1.00000000
vn 1.00000000 0.0000000e+0 0.0000000e+0
vn 0.0000000e+0 0.99167207 -0.12878858
vn 1.00000000 0.0000000e+0 0.0000000e+0
vn 0.0000000e+0 0.96788370 0.25139836
vn 1.00000000 0.0000000e+0 0.0000000e+0
vn 0.0000000e+0 0.99167207 -0.12878858
vn -1.00000000 0.0000000e+0 0.0000000e+0
vn -1.00000000 0.0000000e+0 0.0000000e+0
vn 0.0000000e+0 0.96788370 0.25139836
vn 0.0000000e+0 0.99167207 -0.12878858
vn -1.00000000 0.0000000e+0 0.0000000e+0
vn 0.0000000e+0 0.0000000e+0 1.00000000
vn 0.0000000e+0 0.99167207 -0.12878858
vn 0.0000000e+0 0.0000000e+0 1.00000000
vn 1.00000000 0.0000000e+0 0.0000000e+0
vn 0.0000000e+0 -0.96788370 -0.25139836
vn 1.00000000 0.0000000e+0 0.0000000e+0
vn 0.0000000e+0 -0.96788370 0.25139836
vn 1.00000000 0.0000000e+0 0.0000000e+0
vn 0.0000000e+0 -0.96788370 -0.25139836
vn -1.00000000 0.0000000e+0 0.0000000e+0
vn 0.0000000e+0 -0.96788370 0.25139836
vn -1.00000000 0.0000000e+0 0.0000000e+0
vn -1.00000000 0.0000000e+0 0.0000000e+0
vn 0.0000000e+0 0.96788370 0.25139836
vn -1.00000000 0.0000000e+0 0.0000000e+0
vn 0.0000000e+0 0.96788370 -0.25139836
vn 0.0000000e+0 0.96788370 0.25139836
vn 1.00000000 0.0000000e+0 0.0000000e+0
vn 0.0000000e+0 0.96788370 -0.25139836
vn 1.00000000 0.0000000e+0 0.0000000e+0
vn 0.0000000e+0 -0.96788370 0.25139836
vn 1.00000000 0.0000000e+0 0.0000000e+0
vn 0.0000000e+0 -0.96788370 -0.25139836
vn 1.00000000 0.0000000e+0 0.0000000e+0
vn 0.0000000e+0 -0.96788370 0.25139836
vn -1.00000000 0.0000000e+0 0.0000000e+0
vn 0.0000000e+0 -0.96788370 -0.25139836
vn -1.00000000 0.0000000e+0 0.0000000e+0
vn -1.00000000 0.0000000e+0 0.0000000e+0
vn 0.0000000e+0 0.96788370 -0.25139836
vn -1.00000000 0.0000000e+0 0.0000000e+0
vn 0.0000000e+0 0.96788370 0.25139836
vn 0.0000000e+0 0.96788370 -0.25139836
vn 1.00000000 0.0000000e+0 0.0000000e+0
vn 0.0000000e+0 0.96788370 0.25139836
vn 1.00000000 0.0000000e+0 0.0000000e+0
vn 0.0000000e+0 -0.96788370 -0.25139836
vn 1.00000000 0.0000000e+0 0.0000000e+0
vn 0.0000000e+0 -0.96788370 0.25139836
vn 1.00000000 0.0000000e+0 0.0000000e+0
vn 0.0000000e+0 -0.96788370 -0.25139836
vn -1.00000000 0.0000000e+0 0.0000000e+0
vn 0.0000000e+0 -0.96788370 0.25139836
vn -1.00000000 0.0000000e+0 0.0000000e+0
vn -1.00000000 0.0000000e+0 0.0000000e+0
vn 0.0000000e+0 0.96788370 0.25139836
vn -1.00000000 0.0000000e+0 0.0000000e+0
vn 0.0000000e+0 0.96788370 -0.25139836
vn 0.0000000e+0 0.96788370 0.25139836
vn 1.00000000 0.0000000e+0 0.0000000e+0
vn 0.0000000e+0 0.96788370 -0.25139836
vn 1.00000000 0.0000000e+0 0.0000000e+0
vn 0.0000000e+0 -0.96788370 0.25139836
vn 1.00000000 0.0000000e+0 0.0000000e+0
vn 0.0000000e+0 -0.96788370 -0.25139836
vn 1.00000000 0.0000000e+0 0.0000000e+0
vn 0.0000000e+0 -0.96788370 0.25139836
vn -1.00000000 0.0000000e+0 0.0000000e+0
vn 0.0000000e+0 -0.96788370 -0.25139836
vn -1.00000000 0.0000000e+0 0.0000000e+0
vn -1.00000000 0.0000000e+0 0.0000000e+0
vn 0.0000000e+0 0.96788370 -0.25139836
vn -1.00000000 0.0000000e+0 0.0000000e+0
vn 0.0000000e+0 0.96788370 0.25139836
vn 0.0000000e+0 0.96788370 -0.25139836
vn 1.00000000 0.0000000e+0 0.0000000e+0
vn 0.0000000e+0 0.96788370 0.25139836
vn 1.00000000 0.0000000e+0 0.0000000e+0
vn 0.0000000e+0 -0.96788370 -0.25139836
vn 1.00000000 0.0000000e+0 0.0000000e+0
vn 0.0000000e+0 -0.96788370 0.25139836
vn 1.00000000 0.0000000e+0 0.0000000e+0
vn 0.0000000e+0 -0.96788370 -0.25139836
vn -1.00000000 0.0000000e+0 0.0000000e+0
vn 0.0000000e+0 -0.96788370 0.25139836
vn -1.00000000 0.0000000e+0 0.0000000e+0
vn -1.00000000 0.0000000e+0 0.0000000e+0
vn 0.0000000e+0 0.96788370 0.25139836
vn -1.00000000 0.0000000e+0 0.0000000e+0
vn 0.0000000e+0 0.96788370 -0.25139836
vn 0.0000000e+0 0.96788370 0.25139836
vn 1.00000000 0.0000000e+0 0.0000000e+0
vn 0.0000000e+0 0.96788370 -0.25139836
vn 1.00000000 0.0000000e+0 0.0000000e+0
vn 0.0000000e+0 -0.96788370 0.25139836
vn 1.00000000 0.0000000e+0 0.0000000e+0
vn 0.0000000e+0 -0.99167207 -0.12878858
vn 1.00000000 0.0000000e+0 0.0000000e+0
vn 0.0000000e+0 -0.96788370 0.25139836
vn -1.00000000 0.0000000e+0 0.0000000e+0
vn 0.0000000e+0 -0.99167207 -0.12878858
vn -1.00000000 0.0000000e+0 0.0000000e+0
vn -1.00000000 0.0000000e+0 0.0000000e+0
vn 0.0000000e+0 0.96788370 -0.25139836
vn -1.00000000 0.0000000e+0 0.0000000e+0
vn 0.0000000e+0 0.99167207 0.12878858
vn 0.0000000e+0 0.96788370 -0.25139836
vn 1.00000000 0.0000000e+0 0.0000000e+0
vn 0.0000000e+0 0.99167207 0.12878858
vn 1.00000000 0.0000000e+0 0.0000000e+0
vn 0.0000000e+0 0.0000000e+0 -1.00000000
vn 0.0000000e+0 -0.99167207 -0.12878858
vn 1.00000000 0.0000000e+0 0.0000000e+0
vn 0.0000000e+0 0.0000000e+0 -1.00000000
vn 0.0000000e+0 -0.99167207 -0.12878858
vn -1.00000000 0.0000000e+0 0.0000000e+0
vn 0.0000000e+0 0.0000000e+0 -1.00000000
vn -1.00000000 0.0000000e+0 0.0000000e+0
vn 0.0000000e+0 0.99167207 0.12878858
vn 0.0000000e+0 0.0000000e+0 -1.00000000
vn 0.0000000e+0 0.99167207 0.12878858
vn 1.00000000 0.0000000e+0 0.0000000e+0
vn 0.0000000e+0 -0.99167207 0.12878858
vn -1.00000000 0.0000000e+0 0.0000000e+0
vn 0.0000000e+0 -0.96788370 -0.25139836
vn -1.00000000 0.0000000e+0 0.0000000e+0
vn 0.0000000e+0 -0.99167207 0.12878858
vn -1.00000000 0.0000000e+0 0.0000000e+0
vn 0.0000000e+0 0.0000000e+0 1.00000000
vn 0.0000000e+0 -0.99167207 0.12878858
vn 1.00000000 0.0000000e+0 0.0000000e+0
vn 0.0000000e+0 -0.96788370 -0.25139836
vn 1.00000000 0.0000000e+0 0.0000000e+0
vn 0.0000000e+0 -0.99167207 0.12878858
vn 0.0000000e+0 0.0000000e+0 1.00000000
vn 1.00000000 0.0000000e+0 0.0000000e+0
vn 0.0000000e+0 0.99167207 -0.12878858
vn 1.00000000 0.0000000e+0 0.0000000e+0
vn 0.0000000e+0 0.96788370 0.25139836
vn 1.00000000 0.0000000e+0 0.0000000e+0
vn 0.0000000e+0 0.99167207 -0.12878858
vn -1.00000000 0.0000000e+0 0.0000000e+0
vn -1.00000000 0.0000000e+0 0.0000000e+0
vn 0.0000000e+0 0.96788370 0.25139836
vn 0.0000000e+0 0.99167207 -0.12878858
vn -1.00000000 0.0000000e+0 0.0000000e+0
vn 0.0000000e+0 0.0000000e+0 1.00000000
vn 0.0000000e+0 0.99167207 -0.12878858
vn 0.0000000e+0 0.0000000e+0 1.00000000
vn 1.00000000 0.0000000e+0 0.0000000e+0
vn 0.0000000e+0 -0.96788370 -0.25139836
vn 1.00000000 0.0000000e+0 0.0000000e+0
vn 0.0000000e+0 -0.96788370 0.25139836
vn 1.00000000 0.0000000e+0 0.0000000e+0
vn 0.0000000e+0 -0.96788370 -0.25139836
vn -1.00000000 0.0000000e+0 0.0000000e+0
vn 0.0000000e+0 -0.96788370 0.25139836
vn -1.00000000 0.0000000e+0 0.0000000e+0
vn -1.00000000 0.0000000e+0 0.0000000e+0
vn 0.0000000e+0 0.96788370 0.25139836
vn -1.00000000 0.0000000e+0 0.0000000e+0
vn 0.0000000e+0 0.96788370 -0.25139836
vn 0.0000000e+0 0.96788370 0.25139836
vn 1.00000000 0.0000000e+0 0.0000000e+0
vn 0.0000000e+0 0.96788370 -0.25139836
vn 1.00000000 0.0000000e+0 0.0000000e+0
vn 0.0000000e+0 -0.96788370 0.25139836
vn 1.00000000 0.0000000e+0 0.0000000e+0
vn 0.0000000e+0 -0.96788370 -0.25139836
vn 1.00000000 0.0000000e+0 0.0000000e+0
vn 0.0000000e+0 -0.96788370 0.25139836
vn -1.00000000 0.0000000e+0 0.0000000e+0
vn 0.0000000e+0 -0.96788370 -0.25139836
vn -1.00000000 0.0000000e+0 0.0000000e+0
vn -1.00000000 0.0000000e+0 0.0000000e+0
vn 0.0000000e+0 0.96788370 -0.25139836
vn -1.00000000 0.0000000e+0 0.0000000e+0
vn 0.0000000e+0 0.96788370 0.25139836
vn 0.0000000e+0 0.96788370 -0.25139836
vn 1.00000000 0.0000000e+0 0.0000000e+0
vn 0.0000000e+0 0.96788370 0.25139836
vn 1.00000000 0.0000000e+0 0.0000000e+0
vn 0.0000000e+0 -0.96788370 -0.25139836
vn 1.00000000 0.0000000e+0 0.0000000e+0
vn 0.0000000e+0 -0.96788370 0.25139836
vn 1.00000000 0.0000000e+0 0.0000000e+0
vn 0.0000000e+0 -0.96788370 -0.25139836
vn -1.00000000 0.0000000e+0 0.0000000e+0
vn 0.0000000e+0 -0.96788370 0.25139836
vn -1.00000000 0.0000000e+0 0.0000000e+0
vn -1.00000000 0.0000000e+0 0.0000000e+0
vn 0.0000000e+0 0.96788370 0.25139836
vn -1.00000000 0.0000000e+0 0.0000000e+0
vn 0.0000000e+0 0.96788370 -0.25139836
vn 0.0000000e+0 0.96788370 0.25139836
vn 1.00000000 0.0000000e+0 0.0000000e+0
vn 0.0000000e+0 0.96788370 -0.25139836
vn 1.00000000 0.0000000e+0 0.0000000e+0
vn 0.0000000e+0 -0.96788370 0.25139836
vn 1.00000000 0.0000000e+0 0.0000000e+0
vn 0.0000000e+0 -0.96788370 -0.25139836
vn 1.00000000 0.0000000e+0 0.0000000e+0
vn 0.0000000e+0 -0.96788370 0.25139836
vn -1.00000000 0.0000000e+0 0.0000000e+0
vn 0.0000000e+0 -0.96788370 -0.25139836
vn -1.00000000 0.0000000e+0 0.0000000e+0
vn -1.00000000 0.0000000e+0 0.0000000e+0
vn 0.0000000e+0 0.96788370 -0.25139836
vn -1.00000000 0.0000000e+0 0.0000000e+0
vn 0.0000000e+0 0.96788370 0.25139836
vn 0.0000000e+0 0.96788370 -0.25139836
vn 1.00000000 0.0000000e+0 0.0000000e+0
vn 0.0000000e+0 0.96788370 0.25139836
vn 1.00000000 0.0000000e+0 0.0000000e+0
vn 0.0000000e+0 -0.96788370 -0.25139836
vn 1.00000000 0.0000000e+0 0.0000000e+0
vn 0.0000000e+0 -0.96788370 0.25139836
vn 1.00000000 0.0000000e+0 0.0000000e+0
vn 0.0000000e+0 -0.96788370 -0.25139836
vn -1.00000000 0.0000000e+0 0.0000000e+0
vn 0.0000000e+0 -0.96788370 0.25139836
vn -1.00000000 0.0000000e+0 0.0000000e+0
vn -1.00000000 0.0000000e+0 0.0000000e+0
vn 0.0000000e+0 0.96788370 0.25139836
vn -1.00000000 0.0000000e+0 0.0000000e+0
vn 0.0000000e+0 0.96788370 -0.25139836
vn 0.0000000e+0 0.96788370 0.25139836
vn 1.00000000 0.0000000e+0 0.0000000e+0
vn 0.0000000e+0 0.96788370 -0.25139836
vn 1.00000000 0.0000000e+0 0.0000000e+0
vn 0.0000000e+0 -0.96788370 0.25139836
vn 1.00000000 0.0000000e+0 0.0000000e+0
vn 0.0000000e+0 -0.99167207 -0.12878858
vn 1.00000000 0.0000000e+0 0.0000000e+0
vn 0.0000000e+0 -0.96788370 0.25139836
vn -1.00000000 0.0000000e+0 0.0000000e+0
vn 0.0000000e+0 -0.99167207 -0.12878858
vn -1.00000000 0.0000000e+0 0.0000000e+0
vn -1.00000000 0.0000000e+0 0.0000000e+0
vn 0.0000000e+0 0.96788370 -0.25139836
vn -1.00000000 0.0000000e+0 0.0000000e+0
vn 0.0000000e+0 0.99167207 0.12878858
vn 0.0000000e+0 0.96788370 -0.25139836
vn 1.00000000 0.0000000e+0 0.0000000e+0
vn 0.0000000e+0 0.99167207 0.12878858
vn 1.00000000 0.0000000e+0 0.0000000e+0
vn 0.0000000e+0 0.0000000e+0 -1.00000000
vn 0.0000000e+0 -0.99167207 -0.12878858
vn 1.00000000 0.0000000e+0 0.0000000e+0
vn 0.0000000e+0 0.0000000e+0 -1.00000000
vn 0.0000000e+0 -0.99167207 -0.12878858
vn -1.00000000 0.0000000e+0 0.0000000e+0
vn 0.0000000e+0 0.0000000e+0 -1.00000000
vn -1.00000000 0.0000000e+0 0.0000000e+0
vn 0.0000000e+0 0.99167207 0.12878858
vn 0.0000000e+0 0.0000000e+0 -1.00000000
vn 0.0000000e+0 0.99167207 0.12878858
vn 1.00000000 0.0000000e+0 0.0000000e+0
g Eridani_SolarDorsal_1_Panel_Eridani_SolarDorsal_1_Panel_auv
usemtl Eridani_SolarDorsal_1_Panel_auv
s 1
f 1/62/3 10/66/33 9/13/29 3/9/10
f 2/85/6 7/78/24 6/73/20 1/80/2
f 3/81/9 5/74/16 8/77/28 4/84/14
f 12/49/43 16/57/57 15/20/54 11/15/40
f 13/81/48 17/84/62 20/77/74 16/74/60
f 19/77/71 23/74/85 22/81/82 18/84/68
f 22/40/83 26/43/97 25/12/93 21/9/79
f 24/31/91 28/28/105 27/48/102 23/56/88
f 25/85/96 29/80/110 32/73/122 28/78/108
f 27/78/103 31/73/117 30/80/114 26/85/100
f 30/63/115 34/64/129 33/11/126 29/10/111
f 32/30/123 36/29/135 35/50/133 31/53/120
f 37/60/139 46/66/169 45/13/165 39/8/146
f 38/84/142 43/77/160 42/74/156 37/81/138
f 39/81/145 41/74/152 44/77/164 40/84/150
f 48/67/179 52/68/193 51/20/190 47/15/176
f 50/62/187 54/66/201 53/12/197 49/7/183
f 55/78/207 59/73/221 58/80/218 54/85/204
f 57/80/216 61/85/230 64/78/242 60/73/228
f 63/78/239 67/73/253 66/80/250 62/85/236
f 66/63/251 70/64/265 69/11/262 65/10/247
f 68/30/259 72/29/271 71/50/269 67/53/256
s 2
f 3/41/8 4/42/12 2/22/5 1/6/1
f 3/81/11 9/84/30 12/77/42 5/74/18
f 6/19/19 7/16/23 8/51/26 5/55/15
f 6/74/21 11/77/37 10/84/34 1/81/4
f 10/26/35 14/5/49 13/39/45 9/46/31
f 16/32/59 20/27/73 19/47/70 15/58/56
f 18/24/67 22/4/81 21/61/77 17/65/63
f 21/81/80 25/84/94 28/77/106 24/74/92
f 23/72/87 27/78/101 26/85/98 22/79/84
f 26/26/99 30/4/113 29/59/109 25/65/95
f 28/33/107 32/38/121 31/21/118 27/14/104
f 29/81/112 33/84/127 36/77/136 32/74/124
f 31/74/119 35/77/132 34/84/130 30/81/116
f 40/69/149 44/71/163 43/3/161 38/1/143
f 41/31/153 48/28/177 47/48/174 42/56/158
f 46/25/171 50/5/185 49/39/181 45/44/167
f 49/81/184 53/84/198 56/77/210 52/74/196
f 51/73/191 55/78/205 54/85/202 50/80/188
f 54/24/203 58/4/217 57/61/213 53/65/199
f 56/49/211 60/57/225 59/20/222 55/15/208
f 59/73/223 63/76/237 62/83/234 58/80/220
f 62/26/235 66/4/249 65/59/245 61/65/231
f 64/35/243 68/37/257 67/20/254 63/15/240
f 65/81/248 69/84/263 72/77/272 68/74/260
f 67/74/255 71/77/268 70/84/266 66/81/252
s 3
f 4/69/13 8/71/27 7/3/25 2/1/7
f 5/31/17 12/28/41 11/34/38 6/36/22
f 9/84/32 13/81/46 16/74/58 12/77/44
f 11/77/39 15/74/53 14/81/50 10/84/36
f 14/62/51 18/45/65 17/12/61 13/7/47
f 20/47/75 24/58/89 23/21/86 19/14/72
f 34/70/128 35/71/131 36/2/134 33/1/125
f 39/41/144 40/42/148 38/23/141 37/6/137
f 39/80/147 45/85/166 48/78/178 41/73/154
f 42/18/155 43/17/159 44/52/162 41/54/151
f 42/74/157 47/77/173 46/84/170 37/81/140
f 52/32/195 56/27/209 55/47/206 51/58/192
f 53/84/200 57/81/214 60/74/226 56/77/212
f 58/40/219 62/43/233 61/12/229 57/7/215
f 60/31/227 64/28/241 63/48/238 59/56/224
f 61/85/232 65/82/246 68/75/258 64/78/244
f 70/70/264 71/71/267 72/2/270 69/1/261
s 4
f 15/72/55 19/78/69 18/85/66 14/79/52
f 17/85/64 21/80/78 24/73/90 20/78/76
f 45/85/168 49/82/182 52/75/194 48/78/180
f 47/78/175 51/73/189 50/80/186 46/85/172
