# Exported from Wings 3D 1.5.4
mtllib Eridani_SolarDorsal_1_Frame.mtl
o Eridani_SolarDorsal_1_Frame
#176 vertices, 88 faces
v -5.7500000e-2 5.5000000e-2 -1.15500000
v -8.2500000e-2 5.5000000e-2 -1.15500000
v -5.7500000e-2 -5.5000000e-2 -1.15500000
v -8.2500000e-2 -5.5000000e-2 -1.15500000
v -7.0000000e-2 -4.2500000e-2 -1.16750000
v -7.0000000e-2 -4.2500000e-2 -1.14250000
v -7.0000000e-2 4.2500000e-2 -1.16750000
v -7.0000000e-2 4.2500000e-2 -1.14250000
v -7.0000000e-2 6.7500000e-2 -2.5000000e-2
v -7.0000000e-2 4.2500000e-2 -2.5000000e-2
v 7.0000000e-2 6.7500000e-2 -2.5000000e-2
v 7.0000000e-2 4.2500000e-2 -2.5000000e-2
v -5.7500000e-2 5.5000000e-2 -3.7500000e-2
v -5.7500000e-2 5.5000000e-2 -1.2500000e-2
v 5.7500000e-2 5.5000000e-2 -1.2500000e-2
v 5.7500000e-2 5.5000000e-2 -3.7500000e-2
v -7.0000000e-2 6.7500000e-2 -3.05500000
v -7.0000000e-2 4.2500000e-2 -3.05500000
v 7.0000000e-2 6.7500000e-2 -3.05500000
v 7.0000000e-2 4.2500000e-2 -3.05500000
v -5.7500000e-2 5.5000000e-2 -3.06750000
v -5.7500000e-2 5.5000000e-2 -3.04250000
v 5.7500000e-2 5.5000000e-2 -3.04250000
v 5.7500000e-2 5.5000000e-2 -3.06750000
v -7.0000000e-2 6.7500000e-2 -2.31000000
v -7.0000000e-2 4.2500000e-2 -2.31000000
v 7.0000000e-2 6.7500000e-2 -2.31000000
v 7.0000000e-2 4.2500000e-2 -2.31000000
v -5.7500000e-2 5.5000000e-2 -2.32250000
v -5.7500000e-2 5.5000000e-2 -2.29750000
v 5.7500000e-2 5.5000000e-2 -2.29750000
v 5.7500000e-2 5.5000000e-2 -2.32250000
v -7.0000000e-2 6.7500000e-2 -1.54000000
v -7.0000000e-2 4.2500000e-2 -1.54000000
v 7.0000000e-2 6.7500000e-2 -1.54000000
v 7.0000000e-2 4.2500000e-2 -1.54000000
v -5.7500000e-2 5.5000000e-2 -1.55250000
v -5.7500000e-2 5.5000000e-2 -1.52750000
v 5.7500000e-2 5.5000000e-2 -1.52750000
v 5.7500000e-2 5.5000000e-2 -1.55250000
v -7.0000000e-2 6.7500000e-2 -0.77000000
v -7.0000000e-2 4.2500000e-2 -0.77000000
v 7.0000000e-2 6.7500000e-2 -0.77000000
v 7.0000000e-2 4.2500000e-2 -0.77000000
v -5.7500000e-2 5.5000000e-2 -0.78250000
v -5.7500000e-2 5.5000000e-2 -0.75750000
v 5.7500000e-2 5.5000000e-2 -0.75750000
v 5.7500000e-2 5.5000000e-2 -0.78250000
v -7.0000000e-2 -4.2500000e-2 -2.5000000e-2
v -7.0000000e-2 -6.7500000e-2 -2.5000000e-2
v 7.0000000e-2 -4.2500000e-2 -2.5000000e-2
v 7.0000000e-2 -6.7500000e-2 -2.5000000e-2
v -5.7500000e-2 -5.5000000e-2 -3.7500000e-2
v -5.7500000e-2 -5.5000000e-2 -1.2500000e-2
v 5.7500000e-2 -5.5000000e-2 -1.2500000e-2
v 5.7500000e-2 -5.5000000e-2 -3.7500000e-2
v -7.0000000e-2 -4.2500000e-2 -3.05500000
v -7.0000000e-2 -6.7500000e-2 -3.05500000
v 7.0000000e-2 -4.2500000e-2 -3.05500000
v 7.0000000e-2 -6.7500000e-2 -3.05500000
v -5.7500000e-2 -5.5000000e-2 -3.06750000
v -5.7500000e-2 -5.5000000e-2 -3.04250000
v 5.7500000e-2 -5.5000000e-2 -3.04250000
v 5.7500000e-2 -5.5000000e-2 -3.06750000
v -7.0000000e-2 -4.2500000e-2 -2.31000000
v -7.0000000e-2 -6.7500000e-2 -2.31000000
v 7.0000000e-2 -4.2500000e-2 -2.31000000
v 7.0000000e-2 -6.7500000e-2 -2.31000000
v -5.7500000e-2 -5.5000000e-2 -2.32250000
v -5.7500000e-2 -5.5000000e-2 -2.29750000
v 5.7500000e-2 -5.5000000e-2 -2.29750000
v 5.7500000e-2 -5.5000000e-2 -2.32250000
v -7.0000000e-2 -4.2500000e-2 -1.54000000
v -7.0000000e-2 -6.7500000e-2 -1.54000000
v 7.0000000e-2 -4.2500000e-2 -1.54000000
v 7.0000000e-2 -6.7500000e-2 -1.54000000
v -5.7500000e-2 -5.5000000e-2 -1.55250000
v -5.7500000e-2 -5.5000000e-2 -1.52750000
v 5.7500000e-2 -5.5000000e-2 -1.52750000
v 5.7500000e-2 -5.5000000e-2 -1.55250000
v -7.0000000e-2 -4.2500000e-2 -0.77000000
v -7.0000000e-2 -6.7500000e-2 -0.77000000
v 7.0000000e-2 -4.2500000e-2 -0.77000000
v 7.0000000e-2 -6.7500000e-2 -0.77000000
v -5.7500000e-2 -5.5000000e-2 -0.78250000
v -5.7500000e-2 -5.5000000e-2 -0.75750000
v 5.7500000e-2 -5.5000000e-2 -0.75750000
v 5.7500000e-2 -5.5000000e-2 -0.78250000
v 8.2500000e-2 -5.5000000e-2 0.0000000e+0
v 7.0000000e-2 -6.7500000e-2 0.0000000e+0
v 5.7500000e-2 -5.5000000e-2 0.0000000e+0
v 7.0000000e-2 -4.2500000e-2 -1.7347235e-18
v 8.2500000e-2 -5.5000000e-2 -3.08000000
v 7.0000000e-2 -6.7500000e-2 -3.08000000
v 5.7500000e-2 -5.5000000e-2 -3.08000000
v 7.0000000e-2 -4.2500000e-2 -3.08000000
v -5.7500000e-2 -5.5000000e-2 0.0000000e+0
v -7.0000000e-2 -6.7500000e-2 0.0000000e+0
v -8.2500000e-2 -5.5000000e-2 0.0000000e+0
v -7.0000000e-2 -4.2500000e-2 -1.7347235e-18
v -5.7500000e-2 -5.5000000e-2 -3.08000000
v -7.0000000e-2 -6.7500000e-2 -3.08000000
v -8.2500000e-2 -5.5000000e-2 -3.08000000
v -7.0000000e-2 -4.2500000e-2 -3.08000000
v 8.2500000e-2 5.5000000e-2 0.0000000e+0
v 7.0000000e-2 4.2500000e-2 0.0000000e+0
v 5.7500000e-2 5.5000000e-2 0.0000000e+0
v 7.0000000e-2 6.7500000e-2 -1.7347235e-18
v 8.2500000e-2 5.5000000e-2 -3.08000000
v 7.0000000e-2 4.2500000e-2 -3.08000000
v 5.7500000e-2 5.5000000e-2 -3.08000000
v 7.0000000e-2 6.7500000e-2 -3.08000000
v -5.7500000e-2 5.5000000e-2 0.0000000e+0
v -7.0000000e-2 4.2500000e-2 0.0000000e+0
v -8.2500000e-2 5.5000000e-2 0.0000000e+0
v -7.0000000e-2 6.7500000e-2 -1.7347235e-18
v -5.7500000e-2 5.5000000e-2 -3.08000000
v -7.0000000e-2 4.2500000e-2 -3.08000000
v -8.2500000e-2 5.5000000e-2 -3.08000000
v -7.0000000e-2 6.7500000e-2 -3.08000000
v 8.2500000e-2 5.5000000e-2 -0.38500000
v 5.7500000e-2 5.5000000e-2 -0.38500000
v 8.2500000e-2 -5.5000000e-2 -0.38500000
v 5.7500000e-2 -5.5000000e-2 -0.38500000
v 7.0000000e-2 -4.2500000e-2 -0.39750000
v 7.0000000e-2 -4.2500000e-2 -0.37250000
v 7.0000000e-2 4.2500000e-2 -0.39750000
v 7.0000000e-2 4.2500000e-2 -0.37250000
v -5.7500000e-2 5.5000000e-2 -0.38500000
v -8.2500000e-2 5.5000000e-2 -0.38500000
v -5.7500000e-2 -5.5000000e-2 -0.38500000
v -8.2500000e-2 -5.5000000e-2 -0.38500000
v -7.0000000e-2 -4.2500000e-2 -0.39750000
v -7.0000000e-2 -4.2500000e-2 -0.37250000
v -7.0000000e-2 4.2500000e-2 -0.39750000
v -7.0000000e-2 4.2500000e-2 -0.37250000
v 8.2500000e-2 5.5000000e-2 -2.69500000
v 5.7500000e-2 5.5000000e-2 -2.69500000
v 8.2500000e-2 -5.5000000e-2 -2.69500000
v 5.7500000e-2 -5.5000000e-2 -2.69500000
v 7.0000000e-2 -4.2500000e-2 -2.70750000
v 7.0000000e-2 -4.2500000e-2 -2.68250000
v 7.0000000e-2 4.2500000e-2 -2.70750000
v 7.0000000e-2 4.2500000e-2 -2.68250000
v -5.7500000e-2 5.5000000e-2 -2.69500000
v -8.2500000e-2 5.5000000e-2 -2.69500000
v -5.7500000e-2 -5.5000000e-2 -2.69500000
v -8.2500000e-2 -5.5000000e-2 -2.69500000
v -7.0000000e-2 -4.2500000e-2 -2.70750000
v -7.0000000e-2 -4.2500000e-2 -2.68250000
v -7.0000000e-2 4.2500000e-2 -2.70750000
v -7.0000000e-2 4.2500000e-2 -2.68250000
v 8.2500000e-2 5.5000000e-2 -1.92500000
v 5.7500000e-2 5.5000000e-2 -1.92500000
v 8.2500000e-2 -5.5000000e-2 -1.92500000
v 5.7500000e-2 -5.5000000e-2 -1.92500000
v 7.0000000e-2 -4.2500000e-2 -1.93750000
v 7.0000000e-2 -4.2500000e-2 -1.91250000
v 7.0000000e-2 4.2500000e-2 -1.93750000
v 7.0000000e-2 4.2500000e-2 -1.91250000
v -5.7500000e-2 5.5000000e-2 -1.92500000
v -8.2500000e-2 5.5000000e-2 -1.92500000
v -5.7500000e-2 -5.5000000e-2 -1.92500000
v -8.2500000e-2 -5.5000000e-2 -1.92500000
v -7.0000000e-2 -4.2500000e-2 -1.93750000
v -7.0000000e-2 -4.2500000e-2 -1.91250000
v -7.0000000e-2 4.2500000e-2 -1.93750000
v -7.0000000e-2 4.2500000e-2 -1.91250000
v 8.2500000e-2 5.5000000e-2 -1.15500000
v 5.7500000e-2 5.5000000e-2 -1.15500000
v 8.2500000e-2 -5.5000000e-2 -1.15500000
v 5.7500000e-2 -5.5000000e-2 -1.15500000
v 7.0000000e-2 -4.2500000e-2 -1.16750000
v 7.0000000e-2 -4.2500000e-2 -1.14250000
v 7.0000000e-2 4.2500000e-2 -1.16750000
v 7.0000000e-2 4.2500000e-2 -1.14250000
vt 0.78521526 0.88039039
vt 0.78521526 0.88951164
vt 0.78521526 0.89863289
vt 0.78521526 0.88039039
vt 0.78521526 0.88039039
vt 0.78521526 0.88951164
vt 0.78521526 0.88951164
vt 0.78521526 0.89863289
vt 0.78521526 0.89863289
vt 0.78521526 0.88039039
vt 0.78521526 0.88039039
vt 0.78521526 0.88039039
vt 0.78521526 0.88951164
vt 0.78521526 0.88951164
vt 0.78521526 0.88951164
vt 0.78521526 0.89863289
vt 0.78521526 0.89863289
vt 0.78521526 0.89863289
vt 0.79616076 0.93951760
vt 0.79616076 0.93951760
vt 0.79616076 0.94863885
vt 0.79616076 0.94863885
vt 0.79616076 0.95776010
vt 0.79616076 0.95776010
vt 0.79616076 0.95776010
vt 0.79616076 0.93951760
vt 0.79616076 0.94863885
vt 0.79616076 0.95776010
vt 0.86426610 0.93951760
vt 0.86426610 0.94863885
vt 0.86426610 0.95776010
vt 0.86426610 0.93951760
vt 0.86426610 0.94863885
vt 0.86426610 0.95776010
vt 0.86426610 0.93951760
vt 0.86426610 0.94863885
vt 0.86426610 0.95776010
vt 0.86426610 0.93951760
vt 0.86426610 0.94863885
vt 0.86426610 0.95776010
vt 0.86426610 0.95776010
vt 0.87521161 0.88039039
vt 0.87521161 0.88039039
vt 0.87521161 0.88039039
vt 0.87521161 0.88951164
vt 0.87521161 0.88951164
vt 0.87521161 0.88951164
vt 0.87521161 0.89863289
vt 0.87521161 0.89863289
vt 0.87521161 0.89863289
vt 0.87521161 0.88039039
vt 0.87521161 0.88039039
vt 0.87521161 0.88039039
vt 0.87521161 0.88951164
vt 0.87521161 0.88951164
vt 0.87521161 0.88951164
vt 0.87521161 0.89863289
vt 0.87521161 0.89863289
vt 0.87521161 0.89863289
vt 0.94028679 7.0764618e-2
vt 0.94028679 0.92923538
vt 0.94028679 7.0764618e-2
vt 0.94028679 0.92923538
vt 0.94028679 7.0764618e-2
vt 0.94028679 0.92923538
vt 0.94899693 7.0764618e-2
vt 0.94899693 0.92923538
vt 0.94899693 7.0764618e-2
vt 0.94899693 0.92923538
vt 0.94899693 7.0764618e-2
vt 0.94899693 0.92923538
vt 0.94899693 7.0764618e-2
vt 0.95770706 7.0764618e-2
vt 0.95770706 0.92923538
vt 0.95770706 7.0764618e-2
vt 0.95770706 0.92923538
vt 0.95770706 7.0764618e-2
vt 0.95770706 0.92923538
vt 0.95770706 7.0764618e-2
vn 1.00000000 0.0000000e+0 0.0000000e+0
vn -1.00000000 0.0000000e+0 0.0000000e+0
vn 1.00000000 0.0000000e+0 0.0000000e+0
vn -1.00000000 0.0000000e+0 0.0000000e+0
vn 0.0000000e+0 0.0000000e+0 -1.00000000
vn 0.0000000e+0 0.0000000e+0 1.00000000
vn 0.0000000e+0 0.0000000e+0 -1.00000000
vn 0.0000000e+0 0.0000000e+0 1.00000000
vn 0.0000000e+0 1.00000000 7.8504623e-17
vn -1.0629433e-16 -1.00000000 7.8504623e-17
vn 0.0000000e+0 1.00000000 7.8504623e-17
vn -1.0629433e-16 -1.00000000 7.8504623e-17
vn -5.5273052e-17 -3.1401849e-16 -1.00000000
vn -5.1021279e-17 -3.1401849e-16 1.00000000
vn -5.1021279e-17 -3.1401849e-16 1.00000000
vn -5.5273052e-17 -3.1401849e-16 -1.00000000
vn 0.0000000e+0 1.00000000 8.7925178e-15
vn -1.1054610e-16 -1.00000000 8.8710224e-15
vn 0.0000000e+0 1.00000000 8.7925178e-15
vn -1.1054610e-16 -1.00000000 8.8710224e-15
vn -5.5273052e-17 -2.3551387e-16 -1.00000000
vn -5.5273052e-17 -3.1401849e-16 1.00000000
vn -5.5273052e-17 -3.1401849e-16 1.00000000
vn -5.5273052e-17 -2.3551387e-16 -1.00000000
vn 0.0000000e+0 1.00000000 8.7925178e-15
vn -1.1054610e-16 -1.00000000 8.8710224e-15
vn 0.0000000e+0 1.00000000 8.7925178e-15
vn -1.1054610e-16 -1.00000000 8.8710224e-15
vn -5.5273052e-17 -2.3551387e-16 -1.00000000
vn -5.5273052e-17 -3.1401849e-16 1.00000000
vn -5.5273052e-17 -3.1401849e-16 1.00000000
vn -5.5273052e-17 -2.3551387e-16 -1.00000000
vn 0.0000000e+0 1.00000000 0.0000000e+0
vn -1.1054610e-16 -1.00000000 0.0000000e+0
vn 0.0000000e+0 1.00000000 0.0000000e+0
vn -1.1054610e-16 -1.00000000 0.0000000e+0
vn -5.5273052e-17 -1.5700925e-16 -1.00000000
vn -5.5273052e-17 -1.5700925e-16 1.00000000
vn -5.5273052e-17 -1.5700925e-16 1.00000000
vn -5.5273052e-17 -1.5700925e-16 -1.00000000
vn 0.0000000e+0 1.00000000 2.2766341e-15
vn -1.1054610e-16 -1.00000000 2.1981294e-15
vn 0.0000000e+0 1.00000000 2.2766341e-15
vn -1.1054610e-16 -1.00000000 2.1981294e-15
vn -5.5273052e-17 -3.1401849e-16 -1.00000000
vn -5.5273052e-17 -1.5700925e-16 1.00000000
vn -5.5273052e-17 -1.5700925e-16 1.00000000
vn -5.5273052e-17 -3.1401849e-16 -1.00000000
vn 0.0000000e+0 1.00000000 7.8504623e-17
vn 0.0000000e+0 -1.00000000 7.8504623e-17
vn 0.0000000e+0 1.00000000 7.8504623e-17
vn 0.0000000e+0 -1.00000000 7.8504623e-17
vn 0.0000000e+0 -2.3551387e-16 -1.00000000
vn 0.0000000e+0 -1.5700925e-16 1.00000000
vn 0.0000000e+0 -1.5700925e-16 1.00000000
vn 0.0000000e+0 -2.3551387e-16 -1.00000000
vn 0.0000000e+0 1.00000000 8.7925178e-15
vn 0.0000000e+0 -1.00000000 8.8710224e-15
vn 0.0000000e+0 1.00000000 8.7925178e-15
vn 0.0000000e+0 -1.00000000 8.8710224e-15
vn 0.0000000e+0 1.5700925e-16 -1.00000000
vn 0.0000000e+0 7.8504623e-17 1.00000000
vn 0.0000000e+0 7.8504623e-17 1.00000000
vn 0.0000000e+0 1.5700925e-16 -1.00000000
vn 0.0000000e+0 1.00000000 8.7925178e-15
vn 0.0000000e+0 -1.00000000 8.8710224e-15
vn 0.0000000e+0 1.00000000 8.7925178e-15
vn 0.0000000e+0 -1.00000000 8.8710224e-15
vn 0.0000000e+0 1.5700925e-16 -1.00000000
vn 0.0000000e+0 7.8504623e-17 1.00000000
vn 0.0000000e+0 7.8504623e-17 1.00000000
vn 0.0000000e+0 1.5700925e-16 -1.00000000
vn 0.0000000e+0 1.00000000 0.0000000e+0
vn 0.0000000e+0 -1.00000000 0.0000000e+0
vn 0.0000000e+0 1.00000000 0.0000000e+0
vn 0.0000000e+0 -1.00000000 0.0000000e+0
vn 0.0000000e+0 2.3551387e-16 -1.00000000
vn 0.0000000e+0 2.3551387e-16 1.00000000
vn 0.0000000e+0 2.3551387e-16 1.00000000
vn 0.0000000e+0 2.3551387e-16 -1.00000000
vn 0.0000000e+0 1.00000000 2.2766341e-15
vn 0.0000000e+0 -1.00000000 2.1981294e-15
vn 0.0000000e+0 1.00000000 2.2766341e-15
vn 0.0000000e+0 -1.00000000 2.1981294e-15
vn 0.0000000e+0 -2.3551387e-16 -1.00000000
vn 0.0000000e+0 -7.8504623e-17 1.00000000
vn 0.0000000e+0 -7.8504623e-17 1.00000000
vn 0.0000000e+0 -2.3551387e-16 -1.00000000
vn 1.00000000 1.5700925e-16 0.0000000e+0
vn 0.0000000e+0 -1.00000000 0.0000000e+0
vn -1.00000000 1.5700925e-16 0.0000000e+0
vn 0.0000000e+0 1.00000000 0.0000000e+0
vn 1.00000000 1.5700925e-16 0.0000000e+0
vn 0.0000000e+0 -1.00000000 0.0000000e+0
vn -1.00000000 1.5700925e-16 0.0000000e+0
vn 0.0000000e+0 1.00000000 0.0000000e+0
vn 1.00000000 1.5700925e-16 0.0000000e+0
vn 0.0000000e+0 -1.00000000 0.0000000e+0
vn -1.00000000 1.5700925e-16 0.0000000e+0
vn 0.0000000e+0 1.00000000 0.0000000e+0
vn 1.00000000 1.5700925e-16 0.0000000e+0
vn 0.0000000e+0 -1.00000000 0.0000000e+0
vn -1.00000000 1.5700925e-16 0.0000000e+0
vn 0.0000000e+0 1.00000000 0.0000000e+0
vn 1.00000000 -1.5700925e-16 0.0000000e+0
vn 0.0000000e+0 -1.00000000 0.0000000e+0
vn -1.00000000 -1.5700925e-16 0.0000000e+0
vn 0.0000000e+0 1.00000000 0.0000000e+0
vn 1.00000000 -1.5700925e-16 0.0000000e+0
vn 0.0000000e+0 -1.00000000 0.0000000e+0
vn -1.00000000 -1.5700925e-16 0.0000000e+0
vn 0.0000000e+0 1.00000000 0.0000000e+0
vn 1.00000000 -1.5700925e-16 0.0000000e+0
vn 0.0000000e+0 -1.00000000 0.0000000e+0
vn -1.00000000 -1.5700925e-16 0.0000000e+0
vn 0.0000000e+0 1.00000000 0.0000000e+0
vn 1.00000000 -1.5700925e-16 0.0000000e+0
vn 0.0000000e+0 -1.00000000 0.0000000e+0
vn -1.00000000 -1.5700925e-16 0.0000000e+0
vn 0.0000000e+0 1.00000000 0.0000000e+0
vn 1.00000000 0.0000000e+0 0.0000000e+0
vn -1.00000000 0.0000000e+0 0.0000000e+0
vn 1.00000000 0.0000000e+0 0.0000000e+0
vn -1.00000000 0.0000000e+0 0.0000000e+0
vn 0.0000000e+0 0.0000000e+0 -1.00000000
vn 0.0000000e+0 0.0000000e+0 1.00000000
vn 0.0000000e+0 0.0000000e+0 -1.00000000
vn 0.0000000e+0 0.0000000e+0 1.00000000
vn 1.00000000 0.0000000e+0 0.0000000e+0
vn -1.00000000 0.0000000e+0 0.0000000e+0
vn 1.00000000 0.0000000e+0 0.0000000e+0
vn -1.00000000 0.0000000e+0 0.0000000e+0
vn 0.0000000e+0 0.0000000e+0 -1.00000000
vn 0.0000000e+0 0.0000000e+0 1.00000000
vn 0.0000000e+0 0.0000000e+0 -1.00000000
vn 0.0000000e+0 0.0000000e+0 1.00000000
vn 1.00000000 0.0000000e+0 -8.9495270e-15
vn -1.00000000 0.0000000e+0 -8.9495270e-15
vn 1.00000000 0.0000000e+0 -8.9495270e-15
vn -1.00000000 0.0000000e+0 -8.9495270e-15
vn 0.0000000e+0 0.0000000e+0 -1.00000000
vn 0.0000000e+0 0.0000000e+0 1.00000000
vn 0.0000000e+0 0.0000000e+0 -1.00000000
vn 0.0000000e+0 0.0000000e+0 1.00000000
vn 1.00000000 0.0000000e+0 -8.9495270e-15
vn -1.00000000 0.0000000e+0 -8.9495270e-15
vn 1.00000000 0.0000000e+0 -8.9495270e-15
vn -1.00000000 0.0000000e+0 -8.9495270e-15
vn 0.0000000e+0 0.0000000e+0 -1.00000000
vn 0.0000000e+0 0.0000000e+0 1.00000000
vn 0.0000000e+0 0.0000000e+0 -1.00000000
vn 0.0000000e+0 0.0000000e+0 1.00000000
vn 1.00000000 0.0000000e+0 0.0000000e+0
vn -1.00000000 0.0000000e+0 0.0000000e+0
vn 1.00000000 0.0000000e+0 0.0000000e+0
vn -1.00000000 0.0000000e+0 0.0000000e+0
vn 0.0000000e+0 0.0000000e+0 -1.00000000
vn 0.0000000e+0 0.0000000e+0 1.00000000
vn 0.0000000e+0 0.0000000e+0 -1.00000000
vn 0.0000000e+0 0.0000000e+0 1.00000000
vn 1.00000000 0.0000000e+0 0.0000000e+0
vn -1.00000000 0.0000000e+0 0.0000000e+0
vn 1.00000000 0.0000000e+0 0.0000000e+0
vn -1.00000000 0.0000000e+0 0.0000000e+0
vn 0.0000000e+0 0.0000000e+0 -1.00000000
vn 0.0000000e+0 0.0000000e+0 1.00000000
vn 0.0000000e+0 0.0000000e+0 -1.00000000
vn 0.0000000e+0 0.0000000e+0 1.00000000
vn 1.00000000 0.0000000e+0 0.0000000e+0
vn -1.00000000 0.0000000e+0 0.0000000e+0
vn 1.00000000 0.0000000e+0 0.0000000e+0
vn -1.00000000 0.0000000e+0 0.0000000e+0
vn 0.0000000e+0 0.0000000e+0 -1.00000000
vn 0.0000000e+0 0.0000000e+0 1.00000000
vn 0.0000000e+0 0.0000000e+0 -1.00000000
vn 0.0000000e+0 0.0000000e+0 1.00000000
g Eridani_SolarDorsal_1_Frame_Eridani_SolarDorsal_1_Frame_auv
usemtl Eridani_SolarDorsal_1_Frame_auv
s 1
f 1/21/1 8/19/8 6/35/6 3/36/3
f 2/21/2 7/19/7 5/38/5 4/39/4
f 3/36/3 5/37/5 7/23/7 1/21/1
f 4/39/4 6/40/6 8/23/8 2/21/2
f 9/7/9 14/5/14 15/44/15 11/47/11
f 10/56/10 13/57/13 16/16/16 12/15/12
f 11/47/11 16/49/16 13/8/13 9/7/9
f 12/15/12 15/11/15 14/52/14 10/56/10
f 17/6/17 22/4/22 23/43/23 19/46/19
f 18/56/18 21/57/21 24/16/24 20/15/20
f 19/46/19 24/50/24 21/9/21 17/6/17
f 20/15/20 23/11/23 22/52/22 18/56/18
f 25/7/25 30/5/30 31/44/31 27/47/27
f 26/45/26 29/48/29 32/3/32 28/2/28
f 27/47/27 32/49/32 29/8/29 25/7/25
f 28/2/28 31/1/31 30/42/30 26/45/26
f 33/7/33 38/5/38 39/44/39 35/47/35
f 34/56/34 37/57/37 40/16/40 36/15/36
f 35/47/35 40/49/40 37/8/37 33/7/33
f 36/15/36 39/11/39 38/52/38 34/56/34
f 41/7/41 46/5/46 47/44/47 43/47/43
f 42/56/42 45/57/45 48/16/48 44/15/44
f 43/47/43 48/49/48 45/8/45 41/7/41
f 44/15/44 47/11/47 46/52/46 42/56/42
f 49/7/49 54/5/54 55/44/55 51/47/51
f 50/56/50 53/57/53 56/16/56 52/15/52
f 51/47/51 56/49/56 53/8/53 49/7/49
f 52/15/52 55/11/55 54/52/54 50/56/50
f 57/7/57 62/5/62 63/44/63 59/47/59
f 58/55/58 61/59/61 64/18/64 60/14/60
f 59/47/59 64/49/64 61/8/61 57/7/57
f 60/14/60 63/10/63 62/51/62 58/55/58
f 65/6/65 70/4/70 71/43/71 67/46/67
f 66/54/66 69/58/69 72/17/72 68/13/68
f 67/46/67 72/50/72 69/9/69 65/6/65
f 68/13/68 71/12/71 70/53/70 66/54/66
f 73/7/73 78/5/78 79/44/79 75/47/75
f 74/56/74 77/57/77 80/16/80 76/15/76
f 75/47/75 80/49/80 77/8/77 73/7/73
f 76/15/76 79/11/79 78/52/78 74/56/74
f 81/7/81 86/5/86 87/44/87 83/47/83
f 82/56/82 85/57/85 88/16/88 84/15/84
f 83/47/83 88/49/88 85/8/85 81/7/81
f 84/15/84 87/11/87 86/52/86 82/56/82
f 89/73/89 93/74/93 96/67/96 92/66/92
f 90/68/90 94/69/94 93/65/93 89/64/89
f 91/75/91 95/76/95 94/69/94 90/68/90
f 92/66/92 96/67/96 95/63/95 91/62/91
f 97/73/97 101/74/101 104/67/104 100/66/100
f 98/70/98 102/71/102 101/61/101 97/62/97
f 99/77/99 103/78/103 102/71/102 98/70/98
f 100/66/100 104/67/104 103/61/103 99/60/99
f 105/73/105 109/74/109 112/67/112 108/66/108
f 106/72/106 110/69/110 109/65/109 105/64/105
f 107/79/107 111/76/111 110/69/110 106/72/106
f 108/66/108 112/67/112 111/63/111 107/62/107
f 113/73/113 117/74/117 120/67/120 116/66/116
f 114/66/114 118/67/118 117/63/117 113/62/113
f 115/77/115 119/74/119 118/67/118 114/66/114
f 116/66/116 120/67/120 119/63/119 115/62/115
f 121/21/121 128/19/128 126/38/126 123/39/123
f 122/21/122 127/19/127 125/38/125 124/39/124
f 123/39/123 125/40/125 127/23/127 121/21/121
f 124/39/124 126/40/126 128/23/128 122/21/122
f 129/27/129 136/26/136 134/32/134 131/33/131
f 130/27/130 135/26/135 133/32/133 132/33/132
f 131/33/131 133/34/133 135/28/135 129/27/129
f 132/33/132 134/34/134 136/28/136 130/27/130
f 137/22/137 144/20/144 142/29/142 139/30/139
f 138/27/138 143/26/143 141/32/141 140/33/140
f 139/30/139 141/31/141 143/25/143 137/22/137
f 140/33/140 142/34/142 144/28/144 138/27/138
f 145/21/145 152/19/152 150/38/150 147/39/147
f 146/21/146 151/19/151 149/38/149 148/39/148
f 147/39/147 149/40/149 151/23/151 145/21/145
f 148/39/148 150/41/150 152/24/152 146/21/146
f 153/27/153 160/26/160 158/32/158 155/33/155
f 154/21/154 159/19/159 157/35/157 156/36/156
f 155/33/155 157/34/157 159/28/159 153/27/153
f 156/36/156 158/37/158 160/23/160 154/21/154
f 161/27/161 168/26/168 166/32/166 163/33/163
f 162/21/162 167/19/167 165/38/165 164/39/164
f 163/33/163 165/34/165 167/28/167 161/27/161
f 164/39/164 166/40/166 168/23/168 162/21/162
f 169/21/169 176/19/176 174/38/174 171/39/171
f 170/27/170 175/26/175 173/32/173 172/33/172
f 171/39/171 173/40/173 175/23/175 169/21/169
f 172/33/172 174/34/174 176/28/176 170/27/170
