# Exported from Wings 3D 1.5.4
mtllib Alniyat_Solar_1_Hinge.mtl
o Alniyat_Solar_1_Hinge
#48 vertices, 28 faces
v 0.80000000 -5.7322330e-3 -3.0000000e-2
v 0.80000000 -1.0000000e-2 -2.5732233e-2
v 0.80000000 -8.7500000e-3 -2.8750000e-2
v 0.80000000 -1.0000000e-2 5.7322330e-3
v 0.80000000 -5.7322330e-3 1.0000000e-2
v 0.80000000 -8.7500000e-3 8.7500000e-3
v 0.80000000 5.7322330e-3 -3.0000000e-2
v 0.80000000 8.7500000e-3 -2.8750000e-2
v 0.80000000 1.0000000e-2 -2.5732233e-2
v 0.80000000 1.0000000e-2 5.7322330e-3
v 0.80000000 8.7500000e-3 8.7500000e-3
v 0.80000000 5.7322330e-3 1.0000000e-2
v 0.81000000 -5.7322330e-3 -3.0000000e-2
v 0.81000000 -8.7500000e-3 -2.8750000e-2
v 0.81000000 -1.0000000e-2 -2.5732233e-2
v 0.81000000 -1.0000000e-2 5.7322330e-3
v 0.81000000 -8.7500000e-3 8.7500000e-3
v 0.81000000 -5.7322330e-3 1.0000000e-2
v 0.81000000 5.7322330e-3 -3.0000000e-2
v 0.81000000 1.0000000e-2 -2.5732233e-2
v 0.81000000 8.7500000e-3 -2.8750000e-2
v 0.81000000 1.0000000e-2 5.7322330e-3
v 0.81000000 5.7322330e-3 1.0000000e-2
v 0.81000000 8.7500000e-3 8.7500000e-3
v -0.81000000 -5.7322330e-3 -3.0000000e-2
v -0.81000000 -1.0000000e-2 -2.5732233e-2
v -0.81000000 -8.7500000e-3 -2.8750000e-2
v -0.81000000 -1.0000000e-2 5.7322330e-3
v -0.81000000 -5.7322330e-3 1.0000000e-2
v -0.81000000 -8.7500000e-3 8.7500000e-3
v -0.81000000 5.7322330e-3 -3.0000000e-2
v -0.81000000 8.7500000e-3 -2.8750000e-2
v -0.81000000 1.0000000e-2 -2.5732233e-2
v -0.81000000 1.0000000e-2 5.7322330e-3
v -0.81000000 8.7500000e-3 8.7500000e-3
v -0.81000000 5.7322330e-3 1.0000000e-2
v -0.80000000 -5.7322330e-3 -3.0000000e-2
v -0.80000000 -8.7500000e-3 -2.8750000e-2
v -0.80000000 -1.0000000e-2 -2.5732233e-2
v -0.80000000 -1.0000000e-2 5.7322330e-3
v -0.80000000 -8.7500000e-3 8.7500000e-3
v -0.80000000 -5.7322330e-3 1.0000000e-2
v -0.80000000 5.7322330e-3 -3.0000000e-2
v -0.80000000 1.0000000e-2 -2.5732233e-2
v -0.80000000 8.7500000e-3 -2.8750000e-2
v -0.80000000 1.0000000e-2 5.7322330e-3
v -0.80000000 5.7322330e-3 1.0000000e-2
v -0.80000000 8.7500000e-3 8.7500000e-3
vt 0.80115479 8.9371232e-2
vt 0.80115479 8.9371232e-2
vt 0.80115479 0.10603790
vt 0.80115479 0.10603790
vt 0.80618440 8.9371232e-2
vt 0.80618440 8.9371232e-2
vt 0.80618440 0.10603790
vt 0.80618440 0.10603790
vt 0.85862518 8.9371232e-2
vt 0.85862518 8.9371232e-2
vt 0.85862518 0.10603790
vt 0.86364273 8.9371232e-2
vt 0.86364273 8.9371232e-2
vt 0.86364273 0.10603790
vt 0.86364273 0.10603790
vt 0.86365479 8.9371232e-2
vt 0.86365479 8.9371232e-2
vt 0.86365479 0.10603790
vt 0.86867234 8.9371232e-2
vt 0.86867234 8.9371232e-2
vt 0.86867234 0.10603790
vt 0.86867234 0.10603790
vt 0.88777979 8.9371232e-2
vt 0.88777979 8.9371232e-2
vt 0.88777979 0.10603790
vt 0.88777979 0.10603790
vt 0.89280940 8.9371232e-2
vt 0.89280940 8.9371232e-2
vt 0.89280940 0.10603790
vt 0.89280940 0.10603790
vt 0.91155459 9.5787991e-2
vt 0.91155459 0.11489543
vt 0.91363793 9.0758379e-2
vt 0.91363793 0.11992505
vt 0.91866754 8.8675046e-2
vt 0.91866754 0.12200838
vt 0.97110832 8.8675046e-2
vt 0.97110832 0.12200838
vt 0.97613793 9.0758379e-2
vt 0.97613793 0.11992505
vt 0.97822126 9.5787991e-2
vt 0.97822126 0.11489543
vn 0.0000000e+0 -0.19509032 -0.98078528
vn -1.00000000 2.7847855e-16 0.0000000e+0
vn 0.0000000e+0 -0.19509032 -0.98078528
vn 0.0000000e+0 -0.98078528 -0.19509032
vn -1.00000000 2.7847855e-16 0.0000000e+0
vn 0.0000000e+0 -0.98078528 -0.19509032
vn -1.00000000 2.7847855e-16 0.0000000e+0
vn 0.0000000e+0 -0.70710678 -0.70710678
vn 0.0000000e+0 -0.70710678 -0.70710678
vn 0.0000000e+0 -0.98078528 0.19509032
vn -1.00000000 2.7847855e-16 0.0000000e+0
vn 0.0000000e+0 -0.98078528 0.19509032
vn 0.0000000e+0 -0.19509032 0.98078528
vn -1.00000000 2.7847855e-16 0.0000000e+0
vn 0.0000000e+0 -0.19509032 0.98078528
vn -1.00000000 2.7847855e-16 0.0000000e+0
vn 0.0000000e+0 -0.70710678 0.70710678
vn 0.0000000e+0 -0.70710678 0.70710678
vn 0.0000000e+0 0.19509032 -0.98078528
vn -1.00000000 2.7847855e-16 0.0000000e+0
vn 0.0000000e+0 0.19509032 -0.98078528
vn -1.00000000 2.7847855e-16 0.0000000e+0
vn 0.0000000e+0 0.70710678 -0.70710678
vn 0.0000000e+0 0.70710678 -0.70710678
vn 0.0000000e+0 0.98078528 -0.19509032
vn -1.00000000 2.7847855e-16 0.0000000e+0
vn 0.0000000e+0 0.98078528 -0.19509032
vn 0.0000000e+0 0.98078528 0.19509032
vn -1.00000000 2.7847855e-16 0.0000000e+0
vn 0.0000000e+0 0.98078528 0.19509032
vn -1.00000000 2.7847855e-16 0.0000000e+0
vn 0.0000000e+0 0.70710678 0.70710678
vn 0.0000000e+0 0.70710678 0.70710678
vn 0.0000000e+0 0.19509032 0.98078528
vn -1.00000000 2.7847855e-16 0.0000000e+0
vn 0.0000000e+0 0.19509032 0.98078528
vn 0.0000000e+0 -0.19509032 -0.98078528
vn 1.00000000 1.9493499e-15 0.0000000e+0
vn 0.0000000e+0 -0.19509032 -0.98078528
vn 1.00000000 1.9493499e-15 0.0000000e+0
vn 0.0000000e+0 -0.70710678 -0.70710678
vn 0.0000000e+0 -0.70710678 -0.70710678
vn 0.0000000e+0 -0.98078528 -0.19509032
vn 1.00000000 1.9493499e-15 0.0000000e+0
vn 0.0000000e+0 -0.98078528 -0.19509032
vn 0.0000000e+0 -0.98078528 0.19509032
vn 1.00000000 1.9493499e-15 0.0000000e+0
vn 0.0000000e+0 -0.98078528 0.19509032
vn 1.00000000 1.9493499e-15 0.0000000e+0
vn 0.0000000e+0 -0.70710678 0.70710678
vn 0.0000000e+0 -0.70710678 0.70710678
vn 0.0000000e+0 -0.19509032 0.98078528
vn 1.00000000 1.9493499e-15 0.0000000e+0
vn 0.0000000e+0 -0.19509032 0.98078528
vn 0.0000000e+0 0.19509032 -0.98078528
vn 1.00000000 1.9493499e-15 0.0000000e+0
vn 0.0000000e+0 0.19509032 -0.98078528
vn 0.0000000e+0 0.98078528 -0.19509032
vn 1.00000000 1.9493499e-15 0.0000000e+0
vn 0.0000000e+0 0.98078528 -0.19509032
vn 1.00000000 1.9493499e-15 0.0000000e+0
vn 0.0000000e+0 0.70710678 -0.70710678
vn 0.0000000e+0 0.70710678 -0.70710678
vn 0.0000000e+0 0.98078528 0.19509032
vn 1.00000000 1.9493499e-15 0.0000000e+0
vn 0.0000000e+0 0.98078528 0.19509032
vn 0.0000000e+0 0.19509032 0.98078528
vn 1.00000000 1.9493499e-15 0.0000000e+0
vn 0.0000000e+0 0.19509032 0.98078528
vn 1.00000000 1.9493499e-15 0.0000000e+0
vn 0.0000000e+0 0.70710678 0.70710678
vn 0.0000000e+0 0.70710678 0.70710678
vn 0.0000000e+0 -0.19509032 -0.98078528
vn -1.00000000 -2.7847855e-15 0.0000000e+0
vn 0.0000000e+0 -0.19509032 -0.98078528
vn 0.0000000e+0 -0.98078528 -0.19509032
vn -1.00000000 -2.7847855e-15 0.0000000e+0
vn 0.0000000e+0 -0.98078528 -0.19509032
vn -1.00000000 -2.7847855e-15 0.0000000e+0
vn 0.0000000e+0 -0.70710678 -0.70710678
vn 0.0000000e+0 -0.70710678 -0.70710678
vn 0.0000000e+0 -0.98078528 0.19509032
vn -1.00000000 -2.7847855e-15 0.0000000e+0
vn 0.0000000e+0 -0.98078528 0.19509032
vn 0.0000000e+0 -0.19509032 0.98078528
vn -1.00000000 -2.7847855e-15 0.0000000e+0
vn 0.0000000e+0 -0.19509032 0.98078528
vn -1.00000000 -2.7847855e-15 0.0000000e+0
vn 0.0000000e+0 -0.70710678 0.70710678
vn 0.0000000e+0 -0.70710678 0.70710678
vn 0.0000000e+0 0.19509032 -0.98078528
vn -1.00000000 -2.7847855e-15 0.0000000e+0
vn 0.0000000e+0 0.19509032 -0.98078528
vn -1.00000000 -2.7847855e-15 0.0000000e+0
vn 0.0000000e+0 0.70710678 -0.70710678
vn 0.0000000e+0 0.70710678 -0.70710678
vn 0.0000000e+0 0.98078528 -0.19509032
vn -1.00000000 -2.7847855e-15 0.0000000e+0
vn 0.0000000e+0 0.98078528 -0.19509032
vn 0.0000000e+0 0.98078528 0.19509032
vn -1.00000000 -2.7847855e-15 0.0000000e+0
vn 0.0000000e+0 0.98078528 0.19509032
vn -1.00000000 -2.7847855e-15 0.0000000e+0
vn 0.0000000e+0 0.70710678 0.70710678
vn 0.0000000e+0 0.70710678 0.70710678
vn 0.0000000e+0 0.19509032 0.98078528
vn -1.00000000 -2.7847855e-15 0.0000000e+0
vn 0.0000000e+0 0.19509032 0.98078528
vn 0.0000000e+0 -0.19509032 -0.98078528
vn 1.00000000 -1.6708713e-15 0.0000000e+0
vn 0.0000000e+0 -0.19509032 -0.98078528
vn 1.00000000 -1.6708713e-15 0.0000000e+0
vn 0.0000000e+0 -0.70710678 -0.70710678
vn 0.0000000e+0 -0.70710678 -0.70710678
vn 0.0000000e+0 -0.98078528 -0.19509032
vn 1.00000000 -1.6708713e-15 0.0000000e+0
vn 0.0000000e+0 -0.98078528 -0.19509032
vn 0.0000000e+0 -0.98078528 0.19509032
vn 1.00000000 -1.6708713e-15 0.0000000e+0
vn 0.0000000e+0 -0.98078528 0.19509032
vn 1.00000000 -1.6708713e-15 0.0000000e+0
vn 0.0000000e+0 -0.70710678 0.70710678
vn 0.0000000e+0 -0.70710678 0.70710678
vn 0.0000000e+0 -0.19509032 0.98078528
vn 1.00000000 -1.6708713e-15 0.0000000e+0
vn 0.0000000e+0 -0.19509032 0.98078528
vn 0.0000000e+0 0.19509032 -0.98078528
vn 1.00000000 -1.6708713e-15 0.0000000e+0
vn 0.0000000e+0 0.19509032 -0.98078528
vn 0.0000000e+0 0.98078528 -0.19509032
vn 1.00000000 -1.6708713e-15 0.0000000e+0
vn 0.0000000e+0 0.98078528 -0.19509032
vn 1.00000000 -1.6708713e-15 0.0000000e+0
vn 0.0000000e+0 0.70710678 -0.70710678
vn 0.0000000e+0 0.70710678 -0.70710678
vn 0.0000000e+0 0.98078528 0.19509032
vn 1.00000000 -1.6708713e-15 0.0000000e+0
vn 0.0000000e+0 0.98078528 0.19509032
vn 0.0000000e+0 0.19509032 0.98078528
vn 1.00000000 -1.6708713e-15 0.0000000e+0
vn 0.0000000e+0 0.19509032 0.98078528
vn 1.00000000 -1.6708713e-15 0.0000000e+0
vn 0.0000000e+0 0.70710678 0.70710678
vn 0.0000000e+0 0.70710678 0.70710678
g Alniyat_Solar_1_Hinge_Alniyat_Solar_1_Hinge_auv
usemtl Alniyat_Solar_1_Hinge_auv
s 1
f 1/31/2 3/33/7 2/35/5 4/37/11 6/39/16 5/41/14 12/42/35 11/40/31 10/38/29 9/36/26 8/34/22 7/32/20
f 19/42/56 21/40/61 20/38/59 22/36/65 24/34/70 23/32/68 18/31/53 17/33/49 16/35/47 15/37/44 14/39/40 13/41/38
f 25/31/74 27/33/79 26/35/77 28/37/83 30/39/88 29/41/86 36/42/107 35/40/103 34/38/101 33/36/98 32/34/94 31/32/92
f 43/42/128 45/40/133 44/38/131 46/36/137 48/34/142 47/32/140 42/31/125 41/33/121 40/35/119 39/37/116 38/39/112 37/41/110
s 2
f 2/7/4 15/5/43 16/9/46 4/11/10
f 4/11/12 16/9/48 17/16/51 6/18/18
f 5/24/13 18/26/52 23/22/67 12/20/34
f 6/28/17 17/30/50 18/26/54 5/24/15
f 7/21/19 19/19/55 13/23/37 1/25/1
f 9/6/27 20/8/60 21/4/62 8/2/23
f 10/10/28 22/11/64 20/8/58 9/6/25
f 11/17/33 24/18/72 22/11/66 10/10/30
f 12/20/36 23/22/69 24/15/71 11/13/32
f 14/27/42 3/29/9 1/25/3 13/23/39
f 15/5/45 2/7/6 3/3/8 14/1/41
f 19/19/57 7/21/21 8/14/24 21/12/63
f 26/7/76 39/5/115 40/9/118 28/11/82
f 28/11/84 40/9/120 41/16/123 30/18/90
f 29/24/85 42/26/124 47/22/139 36/20/106
f 30/28/89 41/30/122 42/26/126 29/24/87
f 31/21/91 43/19/127 37/23/109 25/25/73
f 33/6/99 44/8/132 45/4/134 32/2/95
f 34/10/100 46/11/136 44/8/130 33/6/97
f 35/17/105 48/18/144 46/11/138 34/10/102
f 36/20/108 47/22/141 48/15/143 35/13/104
f 38/27/114 27/29/81 25/25/75 37/23/111
f 39/5/117 26/7/78 27/3/80 38/1/113
f 43/19/129 31/21/93 32/14/96 45/12/135
