# Exported from Wings 3D 1.5.4
mtllib acamar_solar_srf_1_base.mtl
o mesh1
#34 vertices, 48 faces
v 7.5000000e-2 2.9265015e-17 3.7500000e-2
v 6.9290965e-2 -2.8701257e-2 3.7500000e-2
v 5.3033009e-2 -5.3033009e-2 3.7500000e-2
v 2.8701257e-2 -6.9290965e-2 3.7500000e-2
v -1.9744724e-17 -7.5000000e-2 3.7500000e-2
v -2.8701257e-2 -6.9290965e-2 3.7500000e-2
v -5.3033009e-2 -5.3033009e-2 3.7500000e-2
v -6.9290965e-2 -2.8701257e-2 3.7500000e-2
v -7.5000000e-2 2.0080164e-17 3.7500000e-2
v -6.9290965e-2 2.8701257e-2 3.7500000e-2
v -5.3033009e-2 5.3033009e-2 3.7500000e-2
v -2.8701257e-2 6.9290965e-2 3.7500000e-2
v -3.8114426e-17 7.5000000e-2 3.7500000e-2
v 2.8701257e-2 6.9290965e-2 3.7500000e-2
v 5.3033009e-2 5.3033009e-2 3.7500000e-2
v 6.9290965e-2 2.8701257e-2 3.7500000e-2
v 7.5000000e-2 2.0080164e-17 -3.7500000e-2
v 6.9290965e-2 -2.8701257e-2 -3.7500000e-2
v 5.3033009e-2 -5.3033009e-2 -3.7500000e-2
v 2.8701257e-2 -6.9290965e-2 -3.7500000e-2
v -1.7036003e-18 -7.5000000e-2 -3.7500000e-2
v -2.8701257e-2 -6.9290965e-2 -3.7500000e-2
v -5.3033009e-2 -5.3033009e-2 -3.7500000e-2
v -6.9290965e-2 -2.8701257e-2 -3.7500000e-2
v -7.5000000e-2 1.0895313e-17 -3.7500000e-2
v -6.9290965e-2 2.8701257e-2 -3.7500000e-2
v -5.3033009e-2 5.3033009e-2 -3.7500000e-2
v -2.8701257e-2 6.9290965e-2 -3.7500000e-2
v -2.0073302e-17 7.5000000e-2 -3.7500000e-2
v 2.8701257e-2 6.9290965e-2 -3.7500000e-2
v 5.3033009e-2 5.3033009e-2 -3.7500000e-2
v 6.9290965e-2 2.8701257e-2 -3.7500000e-2
v -1.8786035e-17 3.1229102e-17 3.7500000e-2
v -2.6531065e-18 2.0151624e-17 -3.7500000e-2
vt 0.16307638 0.53597623
vt 0.16529242 0.52483541
vt 0.16529242 0.54711705
vt 0.17160319 0.51539068
vt 0.17160319 0.55656178
vt 0.18104792 0.50907991
vt 0.18104792 0.56287255
vt 0.19218875 0.50686386
vt 0.19218875 0.53597623
vt 0.19218875 0.56508860
vt 0.20332957 0.50907991
vt 0.20332957 0.56287255
vt 0.21277430 0.51539068
vt 0.21277430 0.55656178
vt 0.21908507 0.52483541
vt 0.21908507 0.54711705
vt 0.22130111 0.53597623
vt 0.24200433 0.51325806
vt 0.24200433 0.51325806
vt 0.24200433 0.52461715
vt 0.24200433 0.52461715
vt 0.24200433 0.53597623
vt 0.24200433 0.53597623
vt 0.24200433 0.54733531
vt 0.24200433 0.54733531
vt 0.24200433 0.55869439
vt 0.24200433 0.55869439
vt 0.24200433 0.51325806
vt 0.24200433 0.52461715
vt 0.24200433 0.53597623
vt 0.24200433 0.54733531
vt 0.24200433 0.55869439
vt 0.27111670 0.51325806
vt 0.27111670 0.51325806
vt 0.27111670 0.52461715
vt 0.27111670 0.52461715
vt 0.27111670 0.53597623
vt 0.27111670 0.53597623
vt 0.27111670 0.54733531
vt 0.27111670 0.54733531
vt 0.27111670 0.55869439
vt 0.27111670 0.55869439
vt 0.27111670 0.51325806
vt 0.27111670 0.52461715
vt 0.27111670 0.53597623
vt 0.27111670 0.54733531
vt 0.27111670 0.55869439
vt 0.29117232 0.53597623
vt 0.29338837 0.52483541
vt 0.29338837 0.54711705
vt 0.29969913 0.51539068
vt 0.29969913 0.55656178
vt 0.30914387 0.50907991
vt 0.30914387 0.56287255
vt 0.32028469 0.50686386
vt 0.32028469 0.53597623
vt 0.32028469 0.56508860
vt 0.33142551 0.50907991
vt 0.33142551 0.56287255
vt 0.34087024 0.51539068
vt 0.34087024 0.55656178
vt 0.34718101 0.52483541
vt 0.34718101 0.54711705
vt 0.34939706 0.53597623
vn 1.2591808e-17 3.2933830e-17 1.00000000
vn -7.8698800e-18 -6.5867660e-17 -1.00000000
vn 1.00000000 -4.2449009e-17 2.3294845e-16
vn 1.00000000 -4.2449009e-17 2.3294845e-16
vn 1.6023737e-31 0.0000000e+0 1.00000000
vn 1.6023737e-31 0.0000000e+0 1.00000000
vn 0.92387953 -0.38268343 3.3053496e-16
vn 0.92387953 -0.38268343 3.3053496e-16
vn 1.5110170e-16 0.0000000e+0 1.00000000
vn 1.5110170e-16 0.0000000e+0 1.00000000
vn 0.70710678 -0.70710678 3.0849930e-16
vn 0.70710678 -0.70710678 3.0849930e-16
vn -1.0073446e-16 0.0000000e+0 1.00000000
vn -1.0073446e-16 0.0000000e+0 1.00000000
vn 0.38268343 -0.92387953 1.4795374e-16
vn 0.38268343 -0.92387953 1.4795374e-16
vn -1.2591808e-16 0.0000000e+0 1.00000000
vn -1.2591808e-16 0.0000000e+0 1.00000000
vn 2.8299339e-17 -1.00000000 -3.1479520e-18
vn 2.8299339e-17 -1.00000000 -3.1479520e-18
vn -3.0814879e-33 0.0000000e+0 1.00000000
vn -3.0814879e-33 0.0000000e+0 1.00000000
vn -0.38268343 -0.92387953 -6.2959040e-17
vn -0.38268343 -0.92387953 -6.2959040e-17
vn 2.5183616e-17 0.0000000e+0 1.00000000
vn 2.5183616e-17 0.0000000e+0 1.00000000
vn -0.70710678 -0.70710678 -1.5739760e-16
vn -0.70710678 -0.70710678 -1.5739760e-16
vn 5.0367232e-17 0.0000000e+0 1.00000000
vn 5.0367232e-17 0.0000000e+0 1.00000000
vn -0.92387953 -0.38268343 -2.4868821e-16
vn -0.92387953 -0.38268343 -2.4868821e-16
vn 1.0073446e-16 0.0000000e+0 1.00000000
vn 1.0073446e-16 0.0000000e+0 1.00000000
vn -1.00000000 -2.5469406e-16 -2.8331568e-16
vn -1.00000000 -2.5469406e-16 -2.8331568e-16
vn 1.0073446e-16 0.0000000e+0 1.00000000
vn 1.0073446e-16 0.0000000e+0 1.00000000
vn -0.92387953 0.38268343 -3.3683087e-16
vn -0.92387953 0.38268343 -3.3683087e-16
vn 5.0367232e-17 0.0000000e+0 1.00000000
vn 5.0367232e-17 0.0000000e+0 1.00000000
vn -0.70710678 0.70710678 -3.3368291e-16
vn -0.70710678 0.70710678 -3.3368291e-16
vn -5.0367232e-17 8.5476027e-17 1.00000000
vn -5.0367232e-17 8.5476027e-17 1.00000000
vn -0.38268343 0.92387953 -2.2035664e-16
vn -0.38268343 0.92387953 -2.2035664e-16
vn -1.3850989e-16 1.3173532e-16 1.00000000
vn -1.3850989e-16 1.3173532e-16 1.00000000
vn -1.1319736e-16 1.00000000 -4.4071328e-17
vn -1.1319736e-16 1.00000000 -4.4071328e-17
vn -6.1629758e-33 9.2518585e-17 1.00000000
vn -6.1629758e-33 9.2518585e-17 1.00000000
vn 0.38268343 0.92387953 3.7775424e-17
vn 0.38268343 0.92387953 3.7775424e-17
vn 8.8142656e-17 1.3173532e-16 1.00000000
vn 8.8142656e-17 1.3173532e-16 1.00000000
vn 0.70710678 0.70710678 6.2959040e-17
vn 0.70710678 0.70710678 6.2959040e-17
vn 1.0073446e-16 8.5476027e-17 1.00000000
vn 1.0073446e-16 8.5476027e-17 1.00000000
vn 0.92387953 0.38268343 1.3536194e-16
vn 0.92387953 0.38268343 1.3536194e-16
vn -5.0367232e-17 0.0000000e+0 1.00000000
vn -5.0367232e-17 0.0000000e+0 1.00000000
vn 1.00000000 -4.2449009e-17 2.3294845e-16
vn 1.00000000 -4.2449009e-17 2.3294845e-16
vn 0.0000000e+0 0.0000000e+0 -1.00000000
vn 0.0000000e+0 0.0000000e+0 -1.00000000
vn 0.92387953 -0.38268343 3.3053496e-16
vn 0.92387953 -0.38268343 3.3053496e-16
vn -1.5110170e-16 0.0000000e+0 -1.00000000
vn -1.5110170e-16 0.0000000e+0 -1.00000000
vn 0.70710678 -0.70710678 3.0849930e-16
vn 0.70710678 -0.70710678 3.0849930e-16
vn -3.0220339e-16 -1.7095205e-16 -1.00000000
vn -3.0220339e-16 -1.7095205e-16 -1.00000000
vn 0.38268343 -0.92387953 1.4795374e-16
vn 0.38268343 -0.92387953 1.4795374e-16
vn -8.8142656e-17 -2.6347064e-16 -1.00000000
vn -8.8142656e-17 -2.6347064e-16 -1.00000000
vn 2.8299339e-17 -1.00000000 -3.1479520e-18
vn 2.8299339e-17 -1.00000000 -3.1479520e-18
vn 4.9303807e-32 -1.8503717e-16 -1.00000000
vn 4.9303807e-32 -1.8503717e-16 -1.00000000
vn -0.38268343 -0.92387953 -6.2959040e-17
vn -0.38268343 -0.92387953 -6.2959040e-17
vn 8.8142656e-17 -2.6347064e-16 -1.00000000
vn 8.8142656e-17 -2.6347064e-16 -1.00000000
vn -0.70710678 -0.70710678 -1.5739760e-16
vn -0.70710678 -0.70710678 -1.5739760e-16
vn 2.5183616e-16 -1.7095205e-16 -1.00000000
vn 2.5183616e-16 -1.7095205e-16 -1.00000000
vn -0.92387953 -0.38268343 -2.4868821e-16
vn -0.92387953 -0.38268343 -2.4868821e-16
vn 1.0073446e-16 0.0000000e+0 -1.00000000
vn 1.0073446e-16 0.0000000e+0 -1.00000000
vn -1.00000000 -2.5469406e-16 -2.8331568e-16
vn -1.00000000 -2.5469406e-16 -2.8331568e-16
vn 0.0000000e+0 0.0000000e+0 -1.00000000
vn 0.0000000e+0 0.0000000e+0 -1.00000000
vn -0.92387953 0.38268343 -3.3683087e-16
vn -0.92387953 0.38268343 -3.3683087e-16
vn 0.0000000e+0 0.0000000e+0 -1.00000000
vn 0.0000000e+0 0.0000000e+0 -1.00000000
vn -0.70710678 0.70710678 -3.3368291e-16
vn -0.70710678 0.70710678 -3.3368291e-16
vn -1.0073446e-16 0.0000000e+0 -1.00000000
vn -1.0073446e-16 0.0000000e+0 -1.00000000
vn -0.38268343 0.92387953 -2.2035664e-16
vn -0.38268343 0.92387953 -2.2035664e-16
vn -8.8142656e-17 0.0000000e+0 -1.00000000
vn -8.8142656e-17 0.0000000e+0 -1.00000000
vn -1.1319736e-16 1.00000000 -4.4071328e-17
vn -1.1319736e-16 1.00000000 -4.4071328e-17
vn 3.7775424e-17 0.0000000e+0 -1.00000000
vn 3.7775424e-17 0.0000000e+0 -1.00000000
vn 0.38268343 0.92387953 3.7775424e-17
vn 0.38268343 0.92387953 3.7775424e-17
vn 1.2591808e-16 0.0000000e+0 -1.00000000
vn 1.2591808e-16 0.0000000e+0 -1.00000000
vn 0.70710678 0.70710678 6.2959040e-17
vn 0.70710678 0.70710678 6.2959040e-17
vn 5.0367232e-17 0.0000000e+0 -1.00000000
vn 5.0367232e-17 0.0000000e+0 -1.00000000
vn 0.92387953 0.38268343 1.3536194e-16
vn 0.92387953 0.38268343 1.3536194e-16
vn -5.0367232e-17 0.0000000e+0 -1.00000000
vn -5.0367232e-17 0.0000000e+0 -1.00000000
g mesh1_mesh1_auv
usemtl mesh1_auv
s 1
f 1/17/5 33/9/1 2/15/9
f 2/15/10 33/9/1 3/13/14
f 3/13/13 33/9/1 4/11/18
f 4/11/17 33/9/1 5/8/22
f 5/8/21 33/9/1 6/6/26
f 6/6/25 33/9/1 7/4/30
f 7/4/29 33/9/1 8/2/34
f 8/2/33 33/9/1 9/1/38
f 9/1/37 33/9/1 10/3/42
f 10/3/41 33/9/1 11/5/46
f 11/5/45 33/9/1 12/7/50
f 12/7/49 33/9/1 13/10/54
f 13/10/53 33/9/1 14/12/58
f 14/12/57 33/9/1 15/14/62
f 15/14/61 33/9/1 16/16/66
f 16/16/65 33/9/1 1/17/6
f 17/48/69 34/56/2 32/50/129
f 18/49/73 34/56/2 17/48/70
f 19/51/77 34/56/2 18/49/74
f 20/53/81 34/56/2 19/51/78
f 21/55/85 34/56/2 20/53/82
f 22/58/89 34/56/2 21/55/86
f 23/60/93 34/56/2 22/58/90
f 24/62/97 34/56/2 23/60/94
f 25/64/101 34/56/2 24/62/98
f 26/63/105 34/56/2 25/64/102
f 27/61/109 34/56/2 26/63/106
f 28/59/113 34/56/2 27/61/110
f 29/57/117 34/56/2 28/59/114
f 30/54/121 34/56/2 29/57/118
f 31/52/125 34/56/2 30/54/122
f 32/50/130 34/56/2 31/52/126
s 2
f 1/32/3 17/47/67 32/46/127 16/31/63
f 2/24/8 18/39/72 17/41/68 1/26/4
f 3/22/12 19/37/76 18/39/71 2/24/7
f 4/20/16 20/35/80 19/37/75 3/22/11
f 5/18/20 21/33/84 20/35/79 4/20/15
f 6/20/24 22/35/88 21/33/83 5/18/19
f 7/22/28 23/37/92 22/35/87 6/20/23
f 8/24/32 24/39/96 23/37/91 7/22/27
f 9/26/36 25/41/100 24/39/95 8/24/31
f 10/25/40 26/40/104 25/42/99 9/27/35
f 11/23/44 27/38/108 26/40/103 10/25/39
f 12/21/48 28/36/112 27/38/107 11/23/43
f 13/19/52 29/34/116 28/36/111 12/21/47
f 14/29/56 30/44/120 29/43/115 13/28/51
f 15/30/60 31/45/124 30/44/119 14/29/55
f 16/31/64 32/46/128 31/45/123 15/30/59
