# Exported from Wings 3D 1.5.4
mtllib acamar_solar_pivot.mtl
o mesh1
#51 vertices, 46 faces
v 5.0000000e-2 3.0970777e-17 0.0000000e+0
v 4.6193977e-2 -1.9134172e-2 0.0000000e+0
v 3.5355339e-2 -3.5355339e-2 0.0000000e+0
v 1.9134172e-2 -4.6193977e-2 0.0000000e+0
v -4.3082027e-17 -5.0000000e-2 0.0000000e+0
v -1.9134172e-2 -4.6193977e-2 0.0000000e+0
v -3.5355339e-2 -3.5355339e-2 0.0000000e+0
v -4.6193977e-2 -1.9134172e-2 0.0000000e+0
v -5.0000000e-2 2.4847543e-17 0.0000000e+0
v -4.6193977e-2 1.9134172e-2 0.0000000e+0
v -3.5355339e-2 3.5355339e-2 0.0000000e+0
v -1.9134172e-2 4.6193977e-2 -1.7347235e-18
v -5.5328495e-17 5.0000000e-2 -1.7347235e-18
v 1.9134172e-2 4.6193977e-2 -1.7347235e-18
v 3.5355339e-2 3.5355339e-2 0.0000000e+0
v 4.6193977e-2 1.9134172e-2 0.0000000e+0
v 5.0000000e-2 2.4847543e-17 -1.2500000e-2
v 4.6193977e-2 -1.9134172e-2 -1.2500000e-2
v 3.5355339e-2 -3.5355339e-2 -1.2500000e-2
v 1.9134172e-2 -4.6193977e-2 -1.2500000e-2
v -4.3082027e-17 -5.0000000e-2 -1.2500000e-2
v -1.9134172e-2 -4.6193977e-2 -1.2500000e-2
v -3.5355339e-2 -3.5355339e-2 -1.2500000e-2
v -4.6193977e-2 -1.9134172e-2 -1.2500000e-2
v -5.0000000e-2 1.8724309e-17 -1.2500000e-2
v -4.6193977e-2 1.9134172e-2 -1.2500000e-2
v -3.5355339e-2 3.5355339e-2 -1.2500000e-2
v -1.9134172e-2 4.6193977e-2 -1.2500000e-2
v -5.5328495e-17 5.0000000e-2 -1.2500000e-2
v 1.9134172e-2 4.6193977e-2 -1.2500000e-2
v 3.5355339e-2 3.5355339e-2 -1.2500000e-2
v 4.6193977e-2 1.9134172e-2 -1.2500000e-2
v -5.0090140e-17 2.0383001e-17 -1.2500000e-2
v -0.62500000 -1.2500000e-2 -3.7500000e-2
v -0.62500000 -1.2500000e-2 -1.2500000e-2
v -0.62500000 1.2500000e-2 -3.7500000e-2
v -0.62500000 1.2500000e-2 -1.2500000e-2
v 0.62500000 -1.2500000e-2 -3.7500000e-2
v 0.62500000 -1.2500000e-2 -1.2500000e-2
v 0.62500000 1.2500000e-2 -3.7500000e-2
v 0.62500000 1.2500000e-2 -1.2500000e-2
v 0.0000000e+0 1.2500000e-2 -1.2500000e-2
v 0.0000000e+0 1.2500000e-2 -3.7500000e-2
v 0.0000000e+0 -1.2500000e-2 -1.2500000e-2
v 0.0000000e+0 -1.2500000e-2 -3.7500000e-2
v 4.7513595e-2 1.2500000e-2 -1.2500000e-2
v 5.0000000e-2 2.4286129e-17 -1.2500000e-2
v 4.7513595e-2 -1.2500000e-2 -1.2500000e-2
v -4.7513595e-2 1.2500000e-2 -1.2500000e-2
v -5.0000000e-2 0.0000000e+0 -1.2500000e-2
v -4.7513595e-2 -1.2500000e-2 -1.2500000e-2
vt 4.0000000e-2 0.45597224
vt 4.0000000e-2 0.45597224
vt 4.0000000e-2 0.41690974
vt 4.0000000e-2 0.42667537
vt 4.0000000e-2 0.43644099
vt 4.0000000e-2 0.44620662
vt 4.0000000e-2 0.41690974
vt 4.0000000e-2 0.42667537
vt 4.0000000e-2 0.43644099
vt 4.0000000e-2 0.44620662
vt 0.26460937 0.42179256
vt 0.26460938 0.42179256
vt 0.26558063 0.41690974
vt 0.26558063 0.42667537
vt 0.26558063 0.45597224
vt 0.26558063 0.41690974
vt 0.26558063 0.45597224
vt 0.26558063 0.42667537
vt 0.28414062 0.42667537
vt 0.28414062 0.43644099
vt 0.28414062 0.44620662
vt 0.28414062 0.45597224
vt 0.28414063 0.42667537
vt 0.28414063 0.43644099
vt 0.28414063 0.44620662
vt 0.28414063 0.45597224
vt 0.32423512 0.43042855
vt 0.32423512 0.44019418
vt 0.33400075 0.43042855
vt 0.33400075 0.44019418
vt 0.39222726 0.54552570
vt 0.39371315 0.53805560
vt 0.39371315 0.55299579
vt 0.39630497 0.49582892
vt 0.39630497 0.50558907
vt 0.39630497 0.49582892
vt 0.39630497 0.50558907
vt 0.39630497 0.50558907
vt 0.39630497 0.49582892
vt 0.39630497 0.50558907
vt 0.39794462 0.53172277
vt 0.39794462 0.55932862
vt 0.40392141 0.49582892
vt 0.40392141 0.49582892
vt 0.40392141 0.50558907
vt 0.40392141 0.50558907
vt 0.40392141 0.49582892
vt 0.40392141 0.50558907
vt 0.40427745 0.52749130
vt 0.40427745 0.56356009
vt 0.41153785 0.49582892
vt 0.41153785 0.50558907
vt 0.41153785 0.49582892
vt 0.41153785 0.50558907
vt 0.41153785 0.50558907
vt 0.41153785 0.49582892
vt 0.41153785 0.50558907
vt 0.41174754 0.56504599
vt 0.41174754 0.52600541
vt 0.41174754 0.54552570
vt 0.41915428 0.49582892
vt 0.41915428 0.50558907
vt 0.41915428 0.49582892
vt 0.41915428 0.50558907
vt 0.41915428 0.50558907
vt 0.41915428 0.49582892
vt 0.41915428 0.50558907
vt 0.41921764 0.52749130
vt 0.41921764 0.56356009
vt 0.42555047 0.53172277
vt 0.42555047 0.55932862
vt 0.42677072 0.49582892
vt 0.42677072 0.50558907
vt 0.42677072 0.49582892
vt 0.42677072 0.50558907
vt 0.42677072 0.50558907
vt 0.42677072 0.49582892
vt 0.42677072 0.50558907
vt 0.42978194 0.53805560
vt 0.42978194 0.55299579
vt 0.43126783 0.54552570
vn 1.00000000 1.9809538e-16 1.4165784e-17
vn 0.92387953 -0.38268343 2.8331568e-16
vn 0.70710678 -0.70710678 7.0828920e-16
vn 0.38268343 -0.92387953 8.9244440e-16
vn 0.0000000e+0 -1.00000000 8.2161547e-16
vn -0.38268343 -0.92387953 7.5078655e-16
vn -0.70710678 -0.70710678 4.5330509e-16
vn -0.92387953 -0.38268343 1.5582362e-16
vn -1.00000000 -1.8394571e-16 0.0000000e+0
vn -0.92387953 0.38268343 -2.4081833e-16
vn -0.70710678 0.70710678 -6.5162607e-16
vn -0.38268343 0.92387953 -8.7827861e-16
vn -1.8394571e-16 1.00000000 -8.3578126e-16
vn 0.38268343 0.92387953 -7.7911812e-16
vn 0.70710678 0.70710678 -4.8163666e-16
vn 0.92387953 0.38268343 -1.5582362e-16
vn 8.8536150e-19 3.4666739e-33 -1.00000000
vn -2.5140920e-18 0.0000000e+0 1.00000000
vn 2.5140920e-18 0.0000000e+0 1.00000000
vn 1.00000000 1.9809538e-16 1.4165784e-17
vn 1.00000000 1.9809538e-16 1.4165784e-17
vn 8.4994704e-17 1.3096324e-32 -1.00000000
vn 8.4994704e-17 1.3096324e-32 -1.00000000
vn 0.92387953 -0.38268343 2.8331568e-16
vn 0.92387953 -0.38268343 2.8331568e-16
vn 5.6663136e-17 -2.6553997e-17 -1.00000000
vn 5.6663136e-17 -2.6553997e-17 -1.00000000
vn 0.70710678 -0.70710678 7.0828920e-16
vn 0.70710678 -0.70710678 7.0828920e-16
vn 2.8331568e-17 -4.9065389e-17 -1.00000000
vn 2.8331568e-17 -4.9065389e-17 -1.00000000
vn 0.38268343 -0.92387953 8.9244440e-16
vn 0.38268343 -0.92387953 8.9244440e-16
vn 9.2077596e-17 -6.4107021e-17 -1.00000000
vn 9.2077596e-17 -6.4107021e-17 -1.00000000
vn 0.0000000e+0 -1.00000000 8.2161547e-16
vn 0.0000000e+0 -1.00000000 8.2161547e-16
vn 0.0000000e+0 -6.9388939e-17 -1.00000000
vn 0.0000000e+0 -6.9388939e-17 -1.00000000
vn -0.38268343 -0.92387953 7.5078655e-16
vn -0.38268343 -0.92387953 7.5078655e-16
vn -9.2077596e-17 -6.4107021e-17 -1.00000000
vn -9.2077596e-17 -6.4107021e-17 -1.00000000
vn -0.70710678 -0.70710678 4.5330509e-16
vn -0.70710678 -0.70710678 4.5330509e-16
vn -2.8331568e-17 -4.9065389e-17 -1.00000000
vn -2.8331568e-17 -4.9065389e-17 -1.00000000
vn -0.92387953 -0.38268343 1.5582362e-16
vn -0.92387953 -0.38268343 1.5582362e-16
vn -5.6663136e-17 -2.6553997e-17 -1.00000000
vn -5.6663136e-17 -2.6553997e-17 -1.00000000
vn -1.00000000 -1.8394571e-16 0.0000000e+0
vn -1.00000000 -1.8394571e-16 0.0000000e+0
vn -8.4994704e-17 -1.2325952e-32 -1.00000000
vn -8.4994704e-17 -1.2325952e-32 -1.00000000
vn -0.92387953 0.38268343 -2.4081833e-16
vn -0.92387953 0.38268343 -2.4081833e-16
vn -2.8331568e-17 2.6553997e-17 -1.00000000
vn -2.8331568e-17 2.6553997e-17 -1.00000000
vn -0.70710678 0.70710678 -6.5162607e-16
vn -0.70710678 0.70710678 -6.5162607e-16
vn 0.0000000e+0 4.9065389e-17 -1.00000000
vn 0.0000000e+0 4.9065389e-17 -1.00000000
vn -0.38268343 0.92387953 -8.7827861e-16
vn -0.38268343 0.92387953 -8.7827861e-16
vn -2.1248676e-17 6.4107021e-17 -1.00000000
vn -2.1248676e-17 6.4107021e-17 -1.00000000
vn -1.8394571e-16 1.00000000 -8.3578126e-16
vn -1.8394571e-16 1.00000000 -8.3578126e-16
vn -2.1248676e-17 6.9388939e-17 -1.00000000
vn -2.1248676e-17 6.9388939e-17 -1.00000000
vn 0.38268343 0.92387953 -7.7911812e-16
vn 0.38268343 0.92387953 -7.7911812e-16
vn -2.8331568e-17 6.4107021e-17 -1.00000000
vn -2.8331568e-17 6.4107021e-17 -1.00000000
vn 0.70710678 0.70710678 -4.8163666e-16
vn 0.70710678 0.70710678 -4.8163666e-16
vn 2.8331568e-17 4.9065389e-17 -1.00000000
vn 2.8331568e-17 4.9065389e-17 -1.00000000
vn 0.92387953 0.38268343 -1.5582362e-16
vn 0.92387953 0.38268343 -1.5582362e-16
vn 8.4994704e-17 2.6553997e-17 -1.00000000
vn 8.4994704e-17 2.6553997e-17 -1.00000000
vn 0.0000000e+0 -1.00000000 0.0000000e+0
vn 0.0000000e+0 0.0000000e+0 -1.00000000
vn -1.00000000 0.0000000e+0 0.0000000e+0
vn 0.0000000e+0 -1.00000000 0.0000000e+0
vn -1.00000000 0.0000000e+0 0.0000000e+0
vn 3.7711380e-18 0.0000000e+0 1.00000000
vn 3.7711380e-18 0.0000000e+0 1.00000000
vn 0.0000000e+0 1.00000000 0.0000000e+0
vn 0.0000000e+0 0.0000000e+0 -1.00000000
vn -1.00000000 0.0000000e+0 0.0000000e+0
vn 0.0000000e+0 1.00000000 0.0000000e+0
vn -1.00000000 0.0000000e+0 0.0000000e+0
vn 3.7711380e-18 0.0000000e+0 1.00000000
vn 3.7711380e-18 0.0000000e+0 1.00000000
vn 1.00000000 0.0000000e+0 0.0000000e+0
vn 0.0000000e+0 -1.00000000 5.5511151e-17
vn 0.0000000e+0 0.0000000e+0 -1.00000000
vn 1.00000000 0.0000000e+0 0.0000000e+0
vn 0.0000000e+0 -1.00000000 5.5511151e-17
vn -3.7711380e-18 0.0000000e+0 1.00000000
vn -3.7711380e-18 0.0000000e+0 1.00000000
vn 1.00000000 0.0000000e+0 0.0000000e+0
vn 0.0000000e+0 1.00000000 5.5511151e-17
vn 0.0000000e+0 0.0000000e+0 -1.00000000
vn 1.00000000 0.0000000e+0 0.0000000e+0
vn 0.0000000e+0 1.00000000 5.5511151e-17
vn -3.7711380e-18 0.0000000e+0 1.00000000
vn -3.7711380e-18 0.0000000e+0 1.00000000
vn 0.0000000e+0 1.00000000 2.7755576e-17
vn 0.0000000e+0 1.00000000 2.7755576e-17
vn 0.0000000e+0 1.00000000 2.7755576e-17
vn 0.0000000e+0 0.0000000e+0 -1.00000000
vn 0.0000000e+0 1.00000000 2.7755576e-17
vn 0.0000000e+0 0.0000000e+0 -1.00000000
vn 0.0000000e+0 -1.00000000 2.7755576e-17
vn 0.0000000e+0 -1.00000000 2.7755576e-17
vn 0.0000000e+0 -1.00000000 2.7755576e-17
vn 0.0000000e+0 0.0000000e+0 -1.00000000
vn 0.0000000e+0 -1.00000000 2.7755576e-17
vn 0.0000000e+0 0.0000000e+0 -1.00000000
vn 0.0000000e+0 1.00000000 5.5511151e-17
vn 0.0000000e+0 0.0000000e+0 1.00000000
vn 0.0000000e+0 -1.00000000 5.5511151e-17
vn 0.0000000e+0 0.0000000e+0 1.00000000
vn 0.0000000e+0 1.00000000 0.0000000e+0
vn 0.0000000e+0 0.0000000e+0 1.00000000
vn 0.0000000e+0 -1.00000000 0.0000000e+0
vn 0.0000000e+0 0.0000000e+0 1.00000000
g mesh1_mesh1_auv
usemtl mesh1_auv
s 1
f 17/31/23 33/60/17 32/33/83
f 18/32/26 33/60/17 17/31/22
f 19/41/30 33/60/17 18/32/27
f 20/49/34 33/60/17 19/41/31
f 21/59/38 33/60/17 20/49/35
f 22/68/42 33/60/17 21/59/39
f 23/70/46 33/60/17 22/68/43
f 24/79/50 33/60/17 23/70/47
f 25/81/54 33/60/17 24/79/51
f 26/80/58 33/60/17 25/81/55
f 27/71/62 33/60/17 26/80/59
f 28/69/66 33/60/17 27/71/63
f 29/58/70 33/60/17 28/69/67
f 30/50/74 33/60/17 29/58/71
f 31/42/78 33/60/17 30/50/75
f 32/33/82 33/60/17 31/42/79
f 35/29/88 37/30/95 36/28/93 34/27/86
f 38/29/98 40/30/105 41/28/108 39/27/101
s 2
f 1/74/1 17/76/20 32/65/80 16/63/16
f 2/66/2 18/67/25 17/78/21 1/77/1
f 3/56/3 19/57/29 18/67/24 2/66/2
f 4/47/4 20/48/33 19/57/28 3/56/3
f 5/39/5 21/40/37 20/48/32 4/47/4
f 6/44/6 22/45/41 21/37/36 5/36/5
f 7/53/7 23/54/45 22/45/40 6/44/6
f 8/63/8 24/64/49 23/54/44 7/53/7
f 9/74/9 25/75/53 24/64/48 8/63/8
f 10/61/10 26/62/57 25/73/52 9/72/9
f 11/51/11 27/52/61 26/62/56 10/61/10
f 12/43/12 28/46/65 27/52/60 11/51/11
f 13/34/13 29/35/69 28/46/64 12/43/12
f 14/44/14 30/46/73 29/38/68 13/36/13
f 15/53/15 31/55/77 30/46/72 14/44/14
f 16/63/16 32/65/81 31/55/76 15/53/15
f 34/10/84 45/25/120 44/26/118 51/17/130 35/1/87
f 37/8/94 49/18/128 42/23/112 43/24/114 36/9/91
f 39/2/102 48/15/126 44/22/119 45/21/122 38/6/99
f 40/5/106 43/20/116 42/19/113 46/14/124 41/4/109
s 3
f 35/7/89 50/12/19 37/8/96
f 36/9/92 43/24/115 45/25/121 34/10/85
f 38/6/100 45/21/123 43/20/117 40/5/107
f 39/3/103 47/11/18 48/13/127
f 41/4/111 47/11/18 39/3/104
f 47/11/18 41/4/110 46/14/125
f 49/18/129 37/8/97 50/12/19
f 51/16/131 50/12/19 35/7/90
