# Exported from Wings 3D 1.5.4
mtllib 1p5to0naked.mtl
o 1
#120 vertices, 96 faces
v 0.93750000 -9.3750000e-2 -2.0961242e-18
v 0.90555546 -9.3750000e-2 0.24264285
v 0.81189882 -9.3750000e-2 0.46875000
v 0.66291261 -9.3750000e-2 0.66291261
v 0.46875000 -9.3750000e-2 0.81189882
v 0.24264285 -9.3750000e-2 0.90555546
v 0.0000000e+0 -9.3750000e-2 0.93750000
v -0.24264285 -9.3750000e-2 0.90555546
v -0.46875000 -9.3750000e-2 0.81189882
v -0.66291261 -9.3750000e-2 0.66291261
v -0.81189882 -9.3750000e-2 0.46875000
v -0.90555546 -9.3750000e-2 0.24264285
v -0.93750000 -9.3750000e-2 1.1271451e-16
v -0.90555546 -9.3750000e-2 -0.24264285
v -0.81189882 -9.3750000e-2 -0.46875000
v -0.66291261 -9.3750000e-2 -0.66291261
v -0.46875000 -9.3750000e-2 -0.81189882
v -0.24264285 -9.3750000e-2 -0.90555546
v 0.0000000e+0 -9.3750000e-2 -0.93750000
v 0.24264285 -9.3750000e-2 -0.90555546
v 0.46875000 -9.3750000e-2 -0.81189882
v 0.66291261 -9.3750000e-2 -0.66291261
v 0.81189882 -9.3750000e-2 -0.46875000
v 0.90555546 -9.3750000e-2 -0.24264285
v 0.90555546 -5.6250000e-2 0.24264285
v 0.93750000 -5.6250000e-2 -2.3344338e-18
v 0.90555546 -5.6250000e-2 -0.24264285
v 0.81189882 -5.6250000e-2 -0.46875000
v 0.66291261 -5.6250000e-2 -0.66291261
v 0.46875000 -5.6250000e-2 -0.81189882
v 0.24264285 -5.6250000e-2 -0.90555546
v 0.0000000e+0 -5.6250000e-2 -0.93750000
v -0.24264285 -5.6250000e-2 -0.90555546
v -0.46875000 -5.6250000e-2 -0.81189882
v -0.66291261 -5.6250000e-2 -0.66291261
v -0.81189882 -5.6250000e-2 -0.46875000
v -0.90555546 -5.6250000e-2 -0.24264285
v -0.93750000 -5.6250000e-2 1.1247620e-16
v -0.90555546 -5.6250000e-2 0.24264285
v -0.81189882 -5.6250000e-2 0.46875000
v -0.66291261 -5.6250000e-2 0.66291261
v -0.46875000 -5.6250000e-2 0.81189882
v -0.24264285 -5.6250000e-2 0.90555546
v 0.0000000e+0 -5.6250000e-2 0.93750000
v 0.24264285 -5.6250000e-2 0.90555546
v 0.46875000 -5.6250000e-2 0.81189882
v 0.66291261 -5.6250000e-2 0.66291261
v 0.81189882 -5.6250000e-2 0.46875000
v 0.30185182 9.3750000e-2 8.0880952e-2
v 0.31250000 9.3750000e-2 -6.8465277e-18
v 0.30185182 9.3750000e-2 -8.0880952e-2
v 0.27063294 9.3750000e-2 -0.15625000
v 0.22097087 9.3750000e-2 -0.22097087
v 0.15625000 9.3750000e-2 -0.27063294
v 8.0880952e-2 9.3750000e-2 -0.30185182
v 0.0000000e+0 9.3750000e-2 -0.31250000
v -8.0880952e-2 9.3750000e-2 -0.30185182
v -0.15625000 9.3750000e-2 -0.27063294
v -0.22097087 9.3750000e-2 -0.22097087
v -0.27063294 9.3750000e-2 -0.15625000
v -0.30185182 9.3750000e-2 -8.0880952e-2
v -0.31250000 9.3750000e-2 3.1423685e-17
v -0.30185182 9.3750000e-2 8.0880952e-2
v -0.27063294 9.3750000e-2 0.15625000
v -0.22097087 9.3750000e-2 0.22097087
v -0.15625000 9.3750000e-2 0.27063294
v -8.0880952e-2 9.3750000e-2 0.30185182
v 0.0000000e+0 9.3750000e-2 0.31250000
v 8.0880952e-2 9.3750000e-2 0.30185182
v 0.15625000 9.3750000e-2 0.27063294
v 0.22097087 9.3750000e-2 0.22097087
v 0.27063294 9.3750000e-2 0.15625000
v 0.70713735 5.8991084e-3 0.18947688
v 0.63400200 5.8991084e-3 0.36604123
v 0.51766047 5.8991084e-3 0.51766047
v 0.36604123 5.8991084e-3 0.63400200
v 0.18947688 5.8991084e-3 0.70713735
v 0.0000000e+0 5.8991084e-3 0.73208245
v -0.18947688 5.8991084e-3 0.70713735
v -0.36604123 5.8991084e-3 0.63400200
v -0.51766047 5.8991084e-3 0.51766047
v -0.63400200 5.8991084e-3 0.36604123
v -0.70713735 5.8991084e-3 0.18947688
v -0.73208245 5.8991084e-3 8.5155121e-17
v -0.70713735 5.8991084e-3 -0.18947688
v -0.63400200 5.8991084e-3 -0.36604123
v -0.51766047 5.8991084e-3 -0.51766047
v -0.36604123 5.8991084e-3 -0.63400200
v -0.18947688 5.8991084e-3 -0.70713735
v 0.0000000e+0 5.8991084e-3 -0.73208245
v 0.18947688 5.8991084e-3 -0.70713735
v 0.36604123 5.8991084e-3 -0.63400200
v 0.51766047 5.8991084e-3 -0.51766047
v 0.63400200 5.8991084e-3 -0.36604123
v 0.70713735 5.8991084e-3 -0.18947688
v 0.73208245 5.8991084e-3 -3.2529959e-18
v 0.52374912 5.5899108e-2 -4.7787112e-18
v 0.50590280 5.5899108e-2 -0.13555625
v 0.45358004 5.5899108e-2 -0.26187456
v 0.37034655 5.5899108e-2 -0.37034655
v 0.26187456 5.5899108e-2 -0.45358004
v 0.13555625 5.5899108e-2 -0.50590280
v 0.0000000e+0 5.5899108e-2 -0.52374912
v -0.13555625 5.5899108e-2 -0.50590280
v -0.26187456 5.5899108e-2 -0.45358004
v -0.37034655 5.5899108e-2 -0.37034655
v -0.45358004 5.5899108e-2 -0.26187456
v -0.50590280 5.5899108e-2 -0.13555625
v -0.52374912 5.5899108e-2 5.8094246e-17
v -0.50590280 5.5899108e-2 0.13555625
v -0.45358004 5.5899108e-2 0.26187456
v -0.37034655 5.5899108e-2 0.37034655
v -0.26187456 5.5899108e-2 0.45358004
v -0.13555625 5.5899108e-2 0.50590280
v 0.0000000e+0 5.5899108e-2 0.52374912
v 0.13555625 5.5899108e-2 0.50590280
v 0.26187456 5.5899108e-2 0.45358004
v 0.37034655 5.5899108e-2 0.37034655
v 0.45358004 5.5899108e-2 0.26187456
v 0.50590280 5.5899108e-2 0.13555625
vt 0.82862507 0.16549921
vt 0.82862507 0.21129391
vt 0.82862507 0.25940891
vt 0.82862507 0.30752391
vt 0.82862507 0.35324356
vt 0.82862507 0.16563379
vt 0.82862507 0.21135344
vt 0.82862507 0.25946844
vt 0.82862507 0.30758344
vt 0.82862507 0.35337815
vt 0.82862507 0.16549921
vt 0.82862507 0.16563379
vt 0.82862507 0.21129391
vt 0.82862507 0.21135344
vt 0.82862507 0.25940891
vt 0.82862507 0.30752391
vt 0.82862507 0.35324356
vt 0.82862507 0.25946844
vt 0.82862507 0.30758344
vt 0.82862507 0.35337815
vt 0.82862507 0.16549921
vt 0.82862507 0.21129391
vt 0.82862507 0.25940891
vt 0.82862507 0.30752391
vt 0.82862507 0.35324356
vt 0.82862507 0.16563379
vt 0.82862507 0.21135344
vt 0.82862507 0.25946844
vt 0.82862507 0.30758344
vt 0.82862507 0.35337815
vt 0.83553999 0.16810046
vt 0.83553999 0.21294216
vt 0.83553999 0.25940891
vt 0.83553999 0.30587567
vt 0.83553999 0.35041565
vt 0.83553999 0.16846171
vt 0.83553999 0.21300169
vt 0.83553999 0.25946844
vt 0.83553999 0.30593520
vt 0.83553999 0.35041565
vt 0.83553999 0.35077689
vt 0.83553999 0.16810046
vt 0.83553999 0.16846171
vt 0.83553999 0.21294216
vt 0.83553999 0.21300169
vt 0.83553999 0.25940891
vt 0.83553999 0.25946844
vt 0.83553999 0.30587567
vt 0.83553999 0.30593520
vt 0.83553999 0.35077689
vt 0.83553999 0.16810046
vt 0.83553999 0.21294216
vt 0.83553999 0.25940891
vt 0.83553999 0.30587567
vt 0.83553999 0.35041565
vt 0.83553999 0.16846171
vt 0.83553999 0.21300169
vt 0.83553999 0.25946844
vt 0.83553999 0.30593520
vt 0.83553999 0.35077689
vt 0.87526326 0.18785507
vt 0.87526326 0.22263441
vt 0.87526326 0.25940891
vt 0.87526326 0.29618342
vt 0.87526326 0.33117698
vt 0.87526326 0.18770038
vt 0.87526326 0.22269394
vt 0.87526326 0.25946844
vt 0.87526326 0.29624295
vt 0.87526326 0.33102229
vt 0.87526326 0.33117698
vt 0.87526326 0.18785507
vt 0.87526326 0.22263441
vt 0.87526326 0.25940891
vt 0.87526326 0.29618342
vt 0.87526326 0.18770038
vt 0.87526326 0.22269394
vt 0.87526326 0.25946844
vt 0.87526326 0.29624295
vt 0.87526326 0.33102229
vt 0.87526326 0.33117698
vt 0.87526326 0.18785507
vt 0.87526326 0.22263441
vt 0.87526326 0.25940891
vt 0.87526326 0.29618342
vt 0.87526326 0.18770038
vt 0.87526326 0.22269394
vt 0.87526326 0.25946844
vt 0.87526326 0.29624295
vt 0.87526326 0.33102229
vt 0.91472659 0.20802334
vt 0.91472659 0.23280102
vt 0.91472659 0.25940891
vt 0.91472659 0.28601681
vt 0.91472659 0.31087626
vt 0.91472659 0.20802334
vt 0.91472659 0.23280102
vt 0.91472659 0.25940891
vt 0.91472659 0.28601681
vt 0.91472659 0.31087626
vt 0.91472659 0.20800109
vt 0.91472659 0.23286055
vt 0.91472659 0.25946844
vt 0.91472659 0.28607634
vt 0.91472659 0.31085402
vt 0.91472659 0.20802334
vt 0.91472659 0.23280102
vt 0.91472659 0.25940891
vt 0.91472659 0.28601681
vt 0.91472659 0.31087626
vt 0.91472659 0.20800109
vt 0.91472659 0.23286055
vt 0.91472659 0.25946844
vt 0.91472659 0.28607634
vt 0.91472659 0.31085402
vt 0.91472659 0.20800109
vt 0.91472659 0.23286055
vt 0.91472659 0.25946844
vt 0.91472659 0.28607634
vt 0.91472659 0.31085402
vt 0.95361210 0.22833608
vt 0.95361210 0.24335519
vt 0.95361210 0.25940891
vt 0.95361210 0.27546264
vt 0.95361210 0.29130663
vt 0.95361210 0.22757072
vt 0.95361210 0.22833608
vt 0.95361210 0.24335519
vt 0.95361210 0.24341472
vt 0.95361210 0.25940891
vt 0.95361210 0.25946844
vt 0.95361210 0.27546264
vt 0.95361210 0.27552217
vt 0.95361210 0.29054128
vt 0.95361210 0.29130663
vt 0.95361210 0.22757072
vt 0.95361210 0.24341472
vt 0.95361210 0.25946844
vt 0.95361210 0.27552217
vt 0.95361210 0.29054128
vt 0.95361210 0.22757072
vt 0.95361210 0.22833608
vt 0.95361210 0.24335519
vt 0.95361210 0.24341472
vt 0.95361210 0.25940891
vt 0.95361210 0.25946844
vt 0.95361210 0.27546264
vt 0.95361210 0.27552217
vt 0.95361210 0.29054128
vt 0.95361210 0.29130663
vn 1.00000000 0.0000000e+0 2.0996308e-16
vn 0.96592583 0.0000000e+0 0.25881905
vn 0.86602540 0.0000000e+0 0.50000000
vn 0.70710678 0.0000000e+0 0.70710678
vn 0.50000000 0.0000000e+0 0.86602540
vn 0.25881905 0.0000000e+0 0.96592583
vn 2.0996308e-16 0.0000000e+0 1.00000000
vn -0.25881905 0.0000000e+0 0.96592583
vn -0.50000000 0.0000000e+0 0.86602540
vn -0.70710678 0.0000000e+0 0.70710678
vn -0.86602540 0.0000000e+0 0.50000000
vn -0.96592583 0.0000000e+0 0.25881905
vn -1.00000000 0.0000000e+0 -1.1198031e-16
vn -0.96592583 0.0000000e+0 -0.25881905
vn -0.86602540 0.0000000e+0 -0.50000000
vn -0.70710678 0.0000000e+0 -0.70710678
vn -0.50000000 0.0000000e+0 -0.86602540
vn -0.25881905 0.0000000e+0 -0.96592583
vn -4.0592862e-16 0.0000000e+0 -1.00000000
vn 0.25881905 0.0000000e+0 -0.96592583
vn 0.50000000 0.0000000e+0 -0.86602540
vn 0.70710678 0.0000000e+0 -0.70710678
vn 0.86602540 0.0000000e+0 -0.50000000
vn 0.96592583 0.0000000e+0 -0.25881905
vn 0.17035826 0.98432433 4.5647359e-2
vn 0.17636785 0.98432433 3.8174203e-17
vn 0.17035826 0.98432433 -4.5647359e-2
vn 0.15273904 0.98432433 -8.8183926e-2
vn 0.12471090 0.98432433 -0.12471090
vn 8.8183926e-2 0.98432433 -0.15273904
vn 4.5647359e-2 0.98432433 -0.17035826
vn 4.1644585e-17 0.98432433 -0.17636785
vn -4.5647359e-2 0.98432433 -0.17035826
vn -8.8183926e-2 0.98432433 -0.15273904
vn -0.12471090 0.98432433 -0.12471090
vn -0.15273904 0.98432433 -8.8183926e-2
vn -0.17035826 0.98432433 -4.5647359e-2
vn -0.17636785 0.98432433 -2.0822292e-17
vn -0.17035826 0.98432433 4.5647359e-2
vn -0.15273904 0.98432433 8.8183926e-2
vn -0.12471090 0.98432433 0.12471090
vn -8.8183926e-2 0.98432433 0.15273904
vn -4.5647359e-2 0.98432433 0.17035826
vn -8.6759552e-18 0.98432433 0.17636785
vn 4.5647359e-2 0.98432433 0.17035826
vn 8.8183926e-2 0.98432433 0.15273904
vn 0.12471090 0.98432433 0.12471090
vn 0.15273904 0.98432433 8.8183926e-2
vn 0.25267369 0.96517989 6.7703712e-2
vn 0.22654104 0.96517989 0.13079353
vn 0.18496998 0.96517989 0.18496998
vn 0.13079353 0.96517989 0.22654104
vn 6.7703712e-2 0.96517989 0.25267369
vn 5.3831479e-17 0.96517989 0.26158706
vn -6.7703712e-2 0.96517989 0.25267369
vn -0.13079353 0.96517989 0.22654104
vn -0.18496998 0.96517989 0.18496998
vn -0.22654104 0.96517989 0.13079353
vn -0.25267369 0.96517989 6.7703712e-2
vn -0.26158706 0.96517989 -2.9520488e-17
vn -0.25267369 0.96517989 -6.7703712e-2
vn -0.22654104 0.96517989 -0.13079353
vn -0.18496998 0.96517989 -0.18496998
vn -0.13079353 0.96517989 -0.22654104
vn -6.7703712e-2 0.96517989 -0.25267369
vn -4.8621981e-17 0.96517989 -0.26158706
vn 6.7703712e-2 0.96517989 -0.25267369
vn 0.13079353 0.96517989 -0.22654104
vn 0.18496998 0.96517989 -0.18496998
vn 0.22654104 0.96517989 -0.13079353
vn 0.25267369 0.96517989 -6.7703712e-2
vn 0.26158706 0.96517989 5.5567978e-17
vn 0.20495444 0.97877151 4.1666467e-17
vn 0.19797079 0.97877151 -5.3046113e-2
vn 0.17749575 0.97877151 -0.10247722
vn 0.14492467 0.97877151 -0.14492467
vn 0.10247722 0.97877151 -0.17749575
vn 5.3046113e-2 0.97877151 -0.19797079
vn 1.8229079e-17 0.97877151 -0.20495444
vn -5.3046113e-2 0.97877151 -0.19797079
vn -0.10247722 0.97877151 -0.17749575
vn -0.14492467 0.97877151 -0.14492467
vn -0.17749575 0.97877151 -0.10247722
vn -0.19797079 0.97877151 -5.3046113e-2
vn -0.20495444 0.97877151 -2.4305439e-17
vn -0.19797079 0.97877151 5.3046113e-2
vn -0.17749575 0.97877151 0.10247722
vn -0.14492467 0.97877151 0.14492467
vn -0.10247722 0.97877151 0.17749575
vn -5.3046113e-2 0.97877151 0.19797079
vn 2.0833234e-17 0.97877151 0.20495444
vn 5.3046113e-2 0.97877151 0.19797079
vn 0.10247722 0.97877151 0.17749575
vn 0.14492467 0.97877151 0.14492467
vn 0.17749575 0.97877151 0.10247722
vn 0.19797079 0.97877151 5.3046113e-2
vn 0.96592583 0.0000000e+0 0.25881905
vn 0.96592583 0.0000000e+0 0.25881905
vn 0.27971902 0.95715187 7.4950485e-2
vn 0.27971902 0.95715187 7.4950485e-2
vn 1.00000000 0.0000000e+0 2.0996308e-16
vn 1.00000000 0.0000000e+0 2.0996308e-16
vn 0.28958643 0.95715187 6.5967382e-17
vn 0.28958643 0.95715187 6.5967382e-17
vn 0.96592583 0.0000000e+0 -0.25881905
vn 0.96592583 0.0000000e+0 -0.25881905
vn 0.27971902 0.95715187 -7.4950485e-2
vn 0.27971902 0.95715187 -7.4950485e-2
vn 0.86602540 0.0000000e+0 -0.50000000
vn 0.86602540 0.0000000e+0 -0.50000000
vn 0.25078921 0.95715187 -0.14479322
vn 0.25078921 0.95715187 -0.14479322
vn 0.70710678 0.0000000e+0 -0.70710678
vn 0.70710678 0.0000000e+0 -0.70710678
vn 0.20476853 0.95715187 -0.20476853
vn 0.20476853 0.95715187 -0.20476853
vn 0.50000000 0.0000000e+0 -0.86602540
vn 0.50000000 0.0000000e+0 -0.86602540
vn 0.14479322 0.95715187 -0.25078921
vn 0.14479322 0.95715187 -0.25078921
vn 0.25881905 0.0000000e+0 -0.96592583
vn 0.25881905 0.0000000e+0 -0.96592583
vn 7.4950485e-2 0.95715187 -0.27971902
vn 7.4950485e-2 0.95715187 -0.27971902
vn -4.0592862e-16 0.0000000e+0 -1.00000000
vn -4.0592862e-16 0.0000000e+0 -1.00000000
vn -9.0271154e-17 0.95715187 -0.28958643
vn -9.0271154e-17 0.95715187 -0.28958643
vn -0.25881905 0.0000000e+0 -0.96592583
vn -0.25881905 0.0000000e+0 -0.96592583
vn -7.4950485e-2 0.95715187 -0.27971902
vn -7.4950485e-2 0.95715187 -0.27971902
vn -0.50000000 0.0000000e+0 -0.86602540
vn -0.50000000 0.0000000e+0 -0.86602540
vn -0.14479322 0.95715187 -0.25078921
vn -0.14479322 0.95715187 -0.25078921
vn -0.70710678 0.0000000e+0 -0.70710678
vn -0.70710678 0.0000000e+0 -0.70710678
vn -0.20476853 0.95715187 -0.20476853
vn -0.20476853 0.95715187 -0.20476853
vn -0.86602540 0.0000000e+0 -0.50000000
vn -0.86602540 0.0000000e+0 -0.50000000
vn -0.25078921 0.95715187 -0.14479322
vn -0.25078921 0.95715187 -0.14479322
vn -0.96592583 0.0000000e+0 -0.25881905
vn -0.96592583 0.0000000e+0 -0.25881905
vn -0.27971902 0.95715187 -7.4950485e-2
vn -0.27971902 0.95715187 -7.4950485e-2
vn -1.00000000 0.0000000e+0 -1.1198031e-16
vn -1.00000000 0.0000000e+0 -1.1198031e-16
vn -0.28958643 0.95715187 -3.1247707e-17
vn -0.28958643 0.95715187 -3.1247707e-17
vn -0.96592583 0.0000000e+0 0.25881905
vn -0.96592583 0.0000000e+0 0.25881905
vn -0.27971902 0.95715187 7.4950485e-2
vn -0.27971902 0.95715187 7.4950485e-2
vn -0.86602540 0.0000000e+0 0.50000000
vn -0.86602540 0.0000000e+0 0.50000000
vn -0.25078921 0.95715187 0.14479322
vn -0.25078921 0.95715187 0.14479322
vn -0.70710678 0.0000000e+0 0.70710678
vn -0.70710678 0.0000000e+0 0.70710678
vn -0.20476853 0.95715187 0.20476853
vn -0.20476853 0.95715187 0.20476853
vn -0.50000000 0.0000000e+0 0.86602540
vn -0.50000000 0.0000000e+0 0.86602540
vn -0.14479322 0.95715187 0.25078921
vn -0.14479322 0.95715187 0.25078921
vn -0.25881905 0.0000000e+0 0.96592583
vn -0.25881905 0.0000000e+0 0.96592583
vn -7.4950485e-2 0.95715187 0.27971902
vn -7.4950485e-2 0.95715187 0.27971902
vn 2.0996308e-16 0.0000000e+0 1.00000000
vn 2.0996308e-16 0.0000000e+0 1.00000000
vn 5.9023447e-17 0.95715187 0.28958643
vn 5.9023447e-17 0.95715187 0.28958643
vn 0.25881905 0.0000000e+0 0.96592583
vn 0.25881905 0.0000000e+0 0.96592583
vn 7.4950485e-2 0.95715187 0.27971902
vn 7.4950485e-2 0.95715187 0.27971902
vn 0.50000000 0.0000000e+0 0.86602540
vn 0.50000000 0.0000000e+0 0.86602540
vn 0.14479322 0.95715187 0.25078921
vn 0.14479322 0.95715187 0.25078921
vn 0.70710678 0.0000000e+0 0.70710678
vn 0.70710678 0.0000000e+0 0.70710678
vn 0.20476853 0.95715187 0.20476853
vn 0.20476853 0.95715187 0.20476853
vn 0.86602540 0.0000000e+0 0.50000000
vn 0.86602540 0.0000000e+0 0.50000000
vn 0.25078921 0.95715187 0.14479322
vn 0.25078921 0.95715187 0.14479322
g 1_1_auv
usemtl 1_auv
s 1
f 25/59/100 73/89/49 74/88/50 48/58/192
f 26/60/103 96/90/72 73/89/49 25/59/99
f 27/48/107 95/75/71 96/71/72 26/40/104
f 28/46/111 94/74/70 95/75/71 27/48/108
f 29/44/115 93/73/69 94/74/70 28/46/112
f 30/42/119 92/72/68 93/73/69 29/44/116
f 31/45/123 91/77/67 92/76/68 30/43/120
f 32/47/127 90/78/66 91/77/67 31/45/124
f 33/49/131 89/79/65 90/78/66 32/47/128
f 34/50/135 88/80/64 89/79/65 33/49/132
f 35/54/139 87/85/63 88/81/64 34/55/136
f 36/53/143 86/84/62 87/85/63 35/54/140
f 37/52/147 85/83/61 86/84/62 36/53/144
f 38/51/151 84/82/60 85/83/61 37/52/148
f 39/37/155 83/67/59 84/66/60 38/36/152
f 40/38/159 82/68/58 83/67/59 39/37/156
f 41/39/163 81/69/57 82/68/58 40/38/160
f 42/41/167 80/70/56 81/69/57 41/39/164
f 43/34/171 79/64/55 80/65/56 42/35/168
f 44/33/175 78/63/54 79/64/55 43/34/172
f 45/32/179 77/62/53 78/63/54 44/33/176
f 46/31/183 76/61/52 77/62/53 45/32/180
f 47/57/187 75/87/51 76/86/52 46/56/184
f 48/58/191 74/88/50 75/87/51 47/57/188
f 49/148/25 120/119/96 97/120/73 50/149/26
f 50/135/26 97/100/73 98/99/74 51/132/27
f 51/132/27 98/99/74 99/98/75 52/130/28
f 52/130/28 99/98/75 100/97/76 53/128/29
f 53/128/29 100/97/76 101/96/77 54/127/30
f 54/126/30 101/111/77 102/112/78 55/129/31
f 55/129/31 102/112/78 103/113/79 56/131/32
f 56/131/32 103/113/79 104/114/80 57/133/33
f 57/133/33 104/114/80 105/115/81 58/134/34
f 58/150/34 105/110/81 106/109/82 59/147/35
f 59/147/35 106/109/82 107/108/83 60/145/36
f 60/145/36 107/108/83 108/107/84 61/143/37
f 61/143/37 108/107/84 109/106/85 62/142/38
f 62/136/38 109/101/85 110/102/86 63/137/39
f 63/137/39 110/102/86 111/103/87 64/138/40
f 64/138/40 111/103/87 112/104/88 65/139/41
f 65/139/41 112/104/88 113/105/89 66/140/42
f 66/125/42 113/95/89 114/94/90 67/124/43
f 67/124/43 114/94/90 115/93/91 68/123/44
f 68/123/44 115/93/91 116/92/92 69/122/45
f 69/122/45 116/92/92 117/91/93 70/121/46
f 70/141/46 117/116/93 118/117/94 71/144/47
f 71/144/47 118/117/94 119/118/95 72/146/48
f 72/146/48 119/118/95 120/119/96 49/148/25
f 73/89/49 96/90/72 97/120/73 120/119/96
f 98/99/74 97/100/73 96/71/72 95/75/71
f 99/98/75 98/99/74 95/75/71 94/74/70
f 100/97/76 99/98/75 94/74/70 93/73/69
f 101/96/77 100/97/76 93/73/69 92/72/68
f 102/112/78 101/111/77 92/76/68 91/77/67
f 103/113/79 102/112/78 91/77/67 90/78/66
f 104/114/80 103/113/79 90/78/66 89/79/65
f 105/115/81 104/114/80 89/79/65 88/80/64
f 106/109/82 105/110/81 88/81/64 87/85/63
f 107/108/83 106/109/82 87/85/63 86/84/62
f 108/107/84 107/108/83 86/84/62 85/83/61
f 109/106/85 108/107/84 85/83/61 84/82/60
f 110/102/86 109/101/85 84/66/60 83/67/59
f 111/103/87 110/102/86 83/67/59 82/68/58
f 112/104/88 111/103/87 82/68/58 81/69/57
f 113/105/89 112/104/88 81/69/57 80/70/56
f 114/94/90 113/95/89 80/65/56 79/64/55
f 115/93/91 114/94/90 79/64/55 78/63/54
f 116/92/92 115/93/91 78/63/54 77/62/53
f 117/91/93 116/92/92 77/62/53 76/61/52
f 118/117/94 117/116/93 76/86/52 75/87/51
f 119/118/95 118/117/94 75/87/51 74/88/50
f 120/119/96 119/118/95 74/88/50 73/89/49
s 2
f 1/30/1 26/60/101 25/59/97 2/29/2
f 2/29/2 25/59/98 48/58/190 3/28/3
f 3/28/3 48/58/189 47/57/186 4/27/4
f 4/27/4 47/57/185 46/56/182 5/26/5
f 5/1/5 46/31/181 45/32/178 6/2/6
f 6/2/6 45/32/177 44/33/174 7/3/7
f 7/3/7 44/33/173 43/34/170 8/4/8
f 8/4/8 43/34/169 42/35/166 9/5/9
f 9/10/9 42/41/165 41/39/162 10/9/10
f 10/9/10 41/39/161 40/38/158 11/8/11
f 11/8/11 40/38/157 39/37/154 12/7/12
f 12/7/12 39/37/153 38/36/150 13/6/13
f 13/21/13 38/51/149 37/52/146 14/22/14
f 14/22/14 37/52/145 36/53/142 15/23/15
f 15/23/15 36/53/141 35/54/138 16/24/16
f 16/24/16 35/54/137 34/55/134 17/25/17
f 17/20/17 34/50/133 33/49/130 18/19/18
f 18/19/18 33/49/129 32/47/126 19/18/19
f 19/18/19 32/47/125 31/45/122 20/14/20
f 20/14/20 31/45/121 30/43/118 21/12/21
f 21/11/21 30/42/117 29/44/114 22/13/22
f 22/13/22 29/44/113 28/46/110 23/15/23
f 23/15/23 28/46/109 27/48/106 24/16/24
f 24/16/24 27/48/105 26/40/102 1/17/1
