# Exported from Wings 3D 1.5.4
mtllib big crew narrow adapter windows.mtl
o w1
#98 vertices, 96 faces
v 0.23378195 -1.2500000e-2 -0.69400630
v 0.24241058 -1.2500000e-2 -0.71150342
v 0.24368653 -1.2500000e-2 -0.73097068
v 0.23741555 -1.2500000e-2 -0.74944437
v 0.22455236 -1.2500000e-2 -0.76411204
v 0.20705524 -1.2500000e-2 -0.77274066
v 0.18758797 -1.2500000e-2 -0.77401661
v 0.16911428 -1.2500000e-2 -0.76774564
v 0.15444662 -1.2500000e-2 -0.75488244
v 0.14581799 -1.2500000e-2 -0.73738532
v 0.14454204 -1.2500000e-2 -0.71791806
v 0.15081301 -1.2500000e-2 -0.69944437
v 0.16367621 -1.2500000e-2 -0.68477670
v 0.18117333 -1.2500000e-2 -0.67614808
v 0.20064059 -1.2500000e-2 -0.67487213
v 0.21911428 -1.2500000e-2 -0.68114310
v 0.19411428 -6.2500000e-3 -0.72444437
v 0.21085845 -9.1766967e-3 -0.69544263
v 0.19848539 -9.1766967e-3 -0.69124254
v 0.18544687 -9.1766967e-3 -0.69209713
v 0.17372788 -9.1766967e-3 -0.69787629
v 0.16511254 -9.1766967e-3 -0.70770020
v 0.16091245 -9.1766967e-3 -0.72007327
v 0.16176704 -9.1766967e-3 -0.73311179
v 0.16754621 -9.1766967e-3 -0.74483077
v 0.17737012 -9.1766967e-3 -0.75344611
v 0.18974318 -9.1766967e-3 -0.75764620
v 0.20278170 -9.1766967e-3 -0.75679161
v 0.21450069 -9.1766967e-3 -0.75101245
v 0.22311603 -9.1766967e-3 -0.74118853
v 0.22731612 -9.1766967e-3 -0.72881547
v 0.22646153 -9.1766967e-3 -0.71577695
v 0.22068236 -9.1766967e-3 -0.70405797
v 0.20745981 -7.0933633e-3 -0.71420399
v 0.21036276 -7.0933633e-3 -0.72009060
v 0.21079204 -7.0933633e-3 -0.72664004
v 0.20868227 -7.0933633e-3 -0.73285520
v 0.20435466 -7.0933633e-3 -0.73778989
v 0.19846805 -7.0933633e-3 -0.74069285
v 0.19191862 -7.0933633e-3 -0.74112212
v 0.18570345 -7.0933633e-3 -0.73901236
v 0.18076876 -7.0933633e-3 -0.73468475
v 0.17786581 -7.0933633e-3 -0.72879814
v 0.17743653 -7.0933633e-3 -0.72224870
v 0.17954630 -7.0933633e-3 -0.71603354
v 0.18387390 -7.0933633e-3 -0.71109885
v 0.18976052 -7.0933633e-3 -0.70819589
v 0.19630995 -7.0933633e-3 -0.70776662
v 0.20252512 -7.0933633e-3 -0.70987638
v -0.23378195 -1.2500000e-2 -0.69400630
v -0.24241058 -1.2500000e-2 -0.71150342
v -0.24368653 -1.2500000e-2 -0.73097068
v -0.23741555 -1.2500000e-2 -0.74944437
v -0.22455236 -1.2500000e-2 -0.76411204
v -0.20705524 -1.2500000e-2 -0.77274066
v -0.18758797 -1.2500000e-2 -0.77401661
v -0.16911428 -1.2500000e-2 -0.76774564
v -0.15444662 -1.2500000e-2 -0.75488244
v -0.14581799 -1.2500000e-2 -0.73738532
v -0.14454204 -1.2500000e-2 -0.71791806
v -0.15081301 -1.2500000e-2 -0.69944437
v -0.16367621 -1.2500000e-2 -0.68477670
v -0.18117333 -1.2500000e-2 -0.67614808
v -0.20064059 -1.2500000e-2 -0.67487213
v -0.21911428 -1.2500000e-2 -0.68114310
v -0.19411428 -6.2500000e-3 -0.72444437
v -0.21085845 -9.1766967e-3 -0.69544263
v -0.19848539 -9.1766967e-3 -0.69124254
v -0.18544687 -9.1766967e-3 -0.69209713
v -0.17372788 -9.1766967e-3 -0.69787629
v -0.16511254 -9.1766967e-3 -0.70770020
v -0.16091245 -9.1766967e-3 -0.72007327
v -0.16176704 -9.1766967e-3 -0.73311179
v -0.16754621 -9.1766967e-3 -0.74483077
v -0.17737012 -9.1766967e-3 -0.75344611
v -0.18974318 -9.1766967e-3 -0.75764620
v -0.20278170 -9.1766967e-3 -0.75679161
v -0.21450069 -9.1766967e-3 -0.75101245
v -0.22311603 -9.1766967e-3 -0.74118853
v -0.22731612 -9.1766967e-3 -0.72881547
v -0.22646153 -9.1766967e-3 -0.71577695
v -0.22068236 -9.1766967e-3 -0.70405797
v -0.20745981 -7.0933633e-3 -0.71420399
v -0.21036276 -7.0933633e-3 -0.72009060
v -0.21079204 -7.0933633e-3 -0.72664004
v -0.20868227 -7.0933633e-3 -0.73285520
v -0.20435466 -7.0933633e-3 -0.73778989
v -0.19846805 -7.0933633e-3 -0.74069285
v -0.19191862 -7.0933633e-3 -0.74112212
v -0.18570345 -7.0933633e-3 -0.73901236
v -0.18076876 -7.0933633e-3 -0.73468475
v -0.17786581 -7.0933633e-3 -0.72879814
v -0.17743653 -7.0933633e-3 -0.72224870
v -0.17954630 -7.0933633e-3 -0.71603354
v -0.18387390 -7.0933633e-3 -0.71109885
v -0.18976052 -7.0933633e-3 -0.70819589
v -0.19630995 -7.0933633e-3 -0.70776662
v -0.20252512 -7.0933633e-3 -0.70987638
vt 0.31849552 9.0812294e-2
vt 0.31849552 9.0812294e-2
vt 0.31923888 9.4549436e-2
vt 0.31923888 9.4549436e-2
vt 0.31923888 9.4549436e-2
vt 0.32135580 9.7717633e-2
vt 0.32135580 9.7717633e-2
vt 0.32135580 9.7717633e-2
vt 0.32135580 9.7717633e-2
vt 0.32172045 9.0812294e-2
vt 0.32172045 9.0812294e-2
vt 0.32221834 9.3315307e-2
vt 0.32221834 9.3315307e-2
vt 0.32221834 9.3315307e-2
vt 0.32363618 9.5437259e-2
vt 0.32363618 9.5437259e-2
vt 0.32452400 9.9834555e-2
vt 0.32452400 9.9834555e-2
vt 0.32452400 9.9834555e-2
vt 0.32497566 9.0812294e-2
vt 0.32497566 9.0812294e-2
vt 0.32522576 9.2069593e-2
vt 0.32522576 9.2069593e-2
vt 0.32522576 9.2069593e-2
vt 0.32522576 9.2069593e-2
vt 0.32575813 9.6855103e-2
vt 0.32575813 9.6855103e-2
vt 0.32575813 9.6855103e-2
vt 0.32593796 9.3135480e-2
vt 0.32593796 9.3135480e-2
vt 0.32593796 9.3135480e-2
vt 0.32593796 9.3135480e-2
vt 0.32700384 9.3847682e-2
vt 0.32700384 9.3847682e-2
vt 0.32700384 9.3847682e-2
vt 0.32826114 9.0812294e-2
vt 0.32826114 9.4097775e-2
vt 0.32826114 9.4097775e-2
vt 0.32826114 9.7352983e-2
vt 0.32826114 9.7352983e-2
vt 0.32826114 0.10057792
vt 0.32826114 0.10057792
vt 0.32826114 9.0812294e-2
vt 0.32826114 9.4097775e-2
vt 0.32826114 9.4097775e-2
vt 0.32826114 9.7352983e-2
vt 0.32826114 9.7352983e-2
vt 0.32826114 0.10057792
vt 0.32826114 0.10057792
vt 0.32951844 9.3847682e-2
vt 0.32951844 9.3847682e-2
vt 0.32951844 9.3847682e-2
vt 0.32951844 9.3847682e-2
vt 0.33058433 9.3135480e-2
vt 0.33058433 9.3135480e-2
vt 0.33058433 9.3135480e-2
vt 0.33058433 9.3135480e-2
vt 0.33076416 9.6855103e-2
vt 0.33076416 9.6855103e-2
vt 0.33129653 9.2069593e-2
vt 0.33129653 9.2069593e-2
vt 0.33129653 9.2069593e-2
vt 0.33129653 9.2069593e-2
vt 0.33154663 9.0812294e-2
vt 0.33154663 9.0812294e-2
vt 0.33199829 9.9834555e-2
vt 0.33199829 9.9834555e-2
vt 0.33288611 9.5437259e-2
vt 0.33288611 9.5437259e-2
vt 0.33288611 9.5437259e-2
vt 0.33288611 9.5437259e-2
vt 0.33430395 9.3315307e-2
vt 0.33430395 9.3315307e-2
vt 0.33430395 9.3315307e-2
vt 0.33480183 9.0812294e-2
vt 0.33480183 9.0812294e-2
vt 0.33516648 9.7717633e-2
vt 0.33516648 9.7717633e-2
vt 0.33516648 9.7717633e-2
vt 0.33516648 9.7717633e-2
vt 0.33728341 9.4549436e-2
vt 0.33728341 9.4549436e-2
vt 0.33728341 9.4549436e-2
vt 0.33728341 9.4549436e-2
vt 0.33802677 9.0812294e-2
vt 0.33802677 9.0812294e-2
vn -3.6042510e-17 1.00000000 -6.8611043e-17
vn 8.0388106e-2 0.98699089 0.13923628
vn 2.0985507e-2 0.98699089 0.15940075
vn -4.1611946e-2 0.98699089 0.15529789
vn -9.7874356e-2 0.98699089 0.12755234
vn -0.13923628 0.98699089 8.0388106e-2
vn -0.15940075 0.98699089 2.0985507e-2
vn -0.15529789 0.98699089 -4.1611946e-2
vn -0.12755234 0.98699089 -9.7874356e-2
vn -8.0388106e-2 0.98699089 -0.13923628
vn -2.0985507e-2 0.98699089 -0.15940075
vn 4.1611946e-2 0.98699089 -0.15529789
vn 9.7874356e-2 0.98699089 -0.12755234
vn 0.13923628 0.98699089 -8.0388106e-2
vn 0.15940075 0.98699089 -2.0985507e-2
vn 0.15529789 0.98699089 4.1611946e-2
vn 0.12755234 0.98699089 9.7874356e-2
vn 6.9108239e-2 0.99619878 5.3028617e-2
vn 8.4140861e-2 0.99619878 2.2545476e-2
vn 8.6363799e-2 0.99619878 -1.1370010e-2
vn 7.5438632e-2 0.99619878 -4.3554515e-2
vn 5.3028617e-2 0.99619878 -6.9108239e-2
vn 2.2545476e-2 0.99619878 -8.4140861e-2
vn -1.1370010e-2 0.99619878 -8.6363799e-2
vn -4.3554515e-2 0.99619878 -7.5438632e-2
vn -6.9108239e-2 0.99619878 -5.3028617e-2
vn -8.4140861e-2 0.99619878 -2.2545476e-2
vn -8.6363799e-2 0.99619878 1.1370010e-2
vn -7.5438632e-2 0.99619878 4.3554515e-2
vn -5.3028617e-2 0.99619878 6.9108239e-2
vn -2.2545476e-2 0.99619878 8.4140861e-2
vn 1.1370010e-2 0.99619878 8.6363799e-2
vn 4.3554515e-2 0.99619878 7.5438632e-2
vn 3.6042510e-17 1.00000000 -6.8611043e-17
vn -8.0388106e-2 0.98699089 0.13923628
vn -2.0985507e-2 0.98699089 0.15940075
vn 4.1611946e-2 0.98699089 0.15529789
vn 9.7874356e-2 0.98699089 0.12755234
vn 0.13923628 0.98699089 8.0388106e-2
vn 0.15940075 0.98699089 2.0985507e-2
vn 0.15529789 0.98699089 -4.1611946e-2
vn 0.12755234 0.98699089 -9.7874356e-2
vn 8.0388106e-2 0.98699089 -0.13923628
vn 2.0985507e-2 0.98699089 -0.15940075
vn -4.1611946e-2 0.98699089 -0.15529789
vn -9.7874356e-2 0.98699089 -0.12755234
vn -0.13923628 0.98699089 -8.0388106e-2
vn -0.15940075 0.98699089 -2.0985507e-2
vn -0.15529789 0.98699089 4.1611946e-2
vn -0.12755234 0.98699089 9.7874356e-2
vn -6.9108239e-2 0.99619878 5.3028617e-2
vn -8.4140861e-2 0.99619878 2.2545476e-2
vn -8.6363799e-2 0.99619878 -1.1370010e-2
vn -7.5438632e-2 0.99619878 -4.3554515e-2
vn -5.3028617e-2 0.99619878 -6.9108239e-2
vn -2.2545476e-2 0.99619878 -8.4140861e-2
vn 1.1370010e-2 0.99619878 -8.6363799e-2
vn 4.3554515e-2 0.99619878 -7.5438632e-2
vn 6.9108239e-2 0.99619878 -5.3028617e-2
vn 8.4140861e-2 0.99619878 -2.2545476e-2
vn 8.6363799e-2 0.99619878 1.1370010e-2
vn 7.5438632e-2 0.99619878 4.3554515e-2
vn 5.3028617e-2 0.99619878 6.9108239e-2
vn 2.2545476e-2 0.99619878 8.4140861e-2
vn -1.1370010e-2 0.99619878 8.6363799e-2
vn -4.3554515e-2 0.99619878 7.5438632e-2
vn 0.15653901 0.98034052 0.12011661
vn 0.15653901 0.98034052 0.12011661
vn 0.19058982 0.98034052 5.1068389e-2
vn 0.19058982 0.98034052 5.1068389e-2
vn 0.19562506 0.98034052 -2.5754528e-2
vn 0.19562506 0.98034052 -2.5754528e-2
vn 0.17087816 0.98034052 -9.8656552e-2
vn 0.17087816 0.98034052 -9.8656552e-2
vn 0.12011661 0.98034052 -0.15653901
vn 0.12011661 0.98034052 -0.15653901
vn 5.1068389e-2 0.98034052 -0.19058982
vn 5.1068389e-2 0.98034052 -0.19058982
vn -2.5754528e-2 0.98034052 -0.19562506
vn -2.5754528e-2 0.98034052 -0.19562506
vn -9.8656552e-2 0.98034052 -0.17087816
vn -9.8656552e-2 0.98034052 -0.17087816
vn -0.15653901 0.98034052 -0.12011661
vn -0.15653901 0.98034052 -0.12011661
vn -0.19058982 0.98034052 -5.1068389e-2
vn -0.19058982 0.98034052 -5.1068389e-2
vn -0.19562506 0.98034052 2.5754528e-2
vn -0.19562506 0.98034052 2.5754528e-2
vn -0.17087816 0.98034052 9.8656552e-2
vn -0.17087816 0.98034052 9.8656552e-2
vn -0.12011661 0.98034052 0.15653901
vn -0.12011661 0.98034052 0.15653901
vn -5.1068389e-2 0.98034052 0.19058982
vn -5.1068389e-2 0.98034052 0.19058982
vn 2.5754528e-2 0.98034052 0.19562506
vn 2.5754528e-2 0.98034052 0.19562506
vn 9.8656552e-2 0.98034052 0.17087816
vn 9.8656552e-2 0.98034052 0.17087816
vn -0.15653901 0.98034052 0.12011661
vn -0.15653901 0.98034052 0.12011661
vn -0.19058982 0.98034052 5.1068389e-2
vn -0.19058982 0.98034052 5.1068389e-2
vn -0.19562506 0.98034052 -2.5754528e-2
vn -0.19562506 0.98034052 -2.5754528e-2
vn -0.17087816 0.98034052 -9.8656552e-2
vn -0.17087816 0.98034052 -9.8656552e-2
vn -0.12011661 0.98034052 -0.15653901
vn -0.12011661 0.98034052 -0.15653901
vn -5.1068389e-2 0.98034052 -0.19058982
vn -5.1068389e-2 0.98034052 -0.19058982
vn 2.5754528e-2 0.98034052 -0.19562506
vn 2.5754528e-2 0.98034052 -0.19562506
vn 9.8656552e-2 0.98034052 -0.17087816
vn 9.8656552e-2 0.98034052 -0.17087816
vn 0.15653901 0.98034052 -0.12011661
vn 0.15653901 0.98034052 -0.12011661
vn 0.19058982 0.98034052 -5.1068389e-2
vn 0.19058982 0.98034052 -5.1068389e-2
vn 0.19562506 0.98034052 2.5754528e-2
vn 0.19562506 0.98034052 2.5754528e-2
vn 0.17087816 0.98034052 9.8656552e-2
vn 0.17087816 0.98034052 9.8656552e-2
vn 0.12011661 0.98034052 0.15653901
vn 0.12011661 0.98034052 0.15653901
vn 5.1068389e-2 0.98034052 0.19058982
vn 5.1068389e-2 0.98034052 0.19058982
vn -2.5754528e-2 0.98034052 0.19562506
vn -2.5754528e-2 0.98034052 0.19562506
vn -9.8656552e-2 0.98034052 0.17087816
vn -9.8656552e-2 0.98034052 0.17087816
g w1_w1_auv
usemtl w1_auv
s 2
f 1/79/68 33/70/17 18/59/2 16/67/98
f 2/83/69 32/74/16 33/70/17 1/79/67
f 3/86/71 31/76/15 32/74/16 2/83/70
f 4/84/73 30/74/14 31/76/15 3/86/72
f 5/80/75 29/71/13 30/74/14 4/84/74
f 6/67/77 28/59/12 29/71/13 5/80/76
f 7/49/79 27/47/11 28/59/12 6/67/78
f 8/19/81 26/28/10 27/47/11 7/49/80
f 9/9/83 25/16/9 26/28/10 8/19/82
f 10/5/85 24/14/8 25/16/9 9/9/84
f 11/2/87 23/11/7 24/14/8 10/5/86
f 12/4/89 22/13/6 23/11/7 11/2/88
f 13/8/91 21/16/5 22/13/6 12/4/90
f 14/18/93 20/27/4 21/16/5 13/8/92
f 15/48/95 19/46/3 20/27/4 14/18/94
f 16/67/97 18/59/2 19/46/3 15/48/96
f 17/43/1 49/52/33 34/56/18
f 18/59/2 33/70/17 34/56/18 49/52/33
f 34/56/18 35/62/19 17/43/1
f 35/62/19 34/56/18 33/70/17 32/74/16
f 35/62/19 36/65/20 17/43/1
f 36/65/20 35/62/19 32/74/16 31/76/15
f 36/65/20 37/63/21 17/43/1
f 37/63/21 36/65/20 31/76/15 30/74/14
f 37/63/21 38/57/22 17/43/1
f 38/57/22 37/63/21 30/74/14 29/71/13
f 38/57/22 39/53/23 17/43/1
f 39/53/23 38/57/22 29/71/13 28/59/12
f 39/53/23 40/45/24 17/43/1
f 40/45/24 39/53/23 28/59/12 27/47/11
f 40/45/24 41/35/25 17/43/1
f 41/35/25 40/45/24 27/47/11 26/28/10
f 41/35/25 42/32/26 17/43/1
f 42/32/26 41/35/25 26/28/10 25/16/9
f 42/32/26 43/25/27 17/43/1
f 43/25/27 42/32/26 25/16/9 24/14/8
f 43/25/27 44/21/28 17/43/1
f 44/21/28 43/25/27 24/14/8 23/11/7
f 44/21/28 45/24/29 17/43/1
f 45/24/29 44/21/28 23/11/7 22/13/6
f 45/24/29 46/31/30 17/43/1
f 46/31/30 45/24/29 22/13/6 21/16/5
f 46/31/30 47/34/31 17/43/1
f 47/34/31 46/31/30 21/16/5 20/27/4
f 47/34/31 48/44/32 17/43/1
f 48/44/32 47/34/31 20/27/4 19/46/3
f 48/44/32 49/52/33 17/43/1
f 49/52/33 48/44/32 19/46/3 18/59/2
f 50/3/99 82/12/50 81/10/49 51/1/101
f 51/1/102 81/10/49 80/12/48 52/3/103
f 52/3/104 80/12/48 79/15/47 53/7/105
f 53/7/106 79/15/47 78/26/46 54/17/107
f 54/17/108 78/26/46 77/40/45 55/42/109
f 55/42/110 77/40/45 76/58/44 56/66/111
f 56/66/112 76/58/44 75/69/43 57/77/113
f 57/77/114 75/69/43 74/73/42 58/82/115
f 58/82/116 74/73/42 73/75/41 59/85/117
f 59/85/118 73/75/41 72/72/40 60/81/119
f 60/81/120 72/72/40 71/68/39 61/78/121
f 61/78/122 71/68/39 70/58/38 62/66/123
f 62/66/124 70/58/38 69/39/37 63/41/125
f 63/41/126 69/39/37 68/26/36 64/18/127
f 64/18/128 68/26/36 67/15/35 65/6/129
f 65/6/130 67/15/35 82/12/50 50/3/100
f 66/36/34 84/20/52 83/22/51
f 66/36/34 85/23/53 84/20/52
f 66/36/34 86/30/54 85/23/53
f 66/36/34 87/33/55 86/30/54
f 66/36/34 88/38/56 87/33/55
f 66/36/34 89/51/57 88/38/56
f 66/36/34 90/55/58 89/51/57
f 66/36/34 91/61/59 90/55/58
f 66/36/34 92/64/60 91/61/59
f 66/36/34 93/60/61 92/64/60
f 66/36/34 94/54/62 93/60/61
f 66/36/34 95/50/63 94/54/62
f 66/36/34 96/37/64 95/50/63
f 66/36/34 97/33/65 96/37/64
f 66/36/34 98/29/66 97/33/65
f 67/15/35 68/26/36 97/33/65 98/29/66
f 68/26/36 69/39/37 96/37/64 97/33/65
f 69/39/37 70/58/38 95/50/63 96/37/64
f 70/58/38 71/68/39 94/54/62 95/50/63
f 71/68/39 72/72/40 93/60/61 94/54/62
f 72/72/40 73/75/41 92/64/60 93/60/61
f 73/75/41 74/73/42 91/61/59 92/64/60
f 74/73/42 75/69/43 90/55/58 91/61/59
f 75/69/43 76/58/44 89/51/57 90/55/58
f 76/58/44 77/40/45 88/38/56 89/51/57
f 77/40/45 78/26/46 87/33/55 88/38/56
f 78/26/46 79/15/47 86/30/54 87/33/55
f 79/15/47 80/12/48 85/23/53 86/30/54
f 80/12/48 81/10/49 84/20/52 85/23/53
f 81/10/49 82/12/50 83/22/51 84/20/52
f 83/22/51 98/29/66 66/36/34
f 98/29/66 83/22/51 82/12/50 67/15/35
