# Exported from Wings 3D 1.5.4
mtllib ./fgb node cap naked.mtl
o 1
#161 vertices, 154 faces
v -8.6527458e-2 7.0618632e-2 3.0557223e-17
v -8.3579107e-2 7.0618632e-2 2.2394954e-2
v -7.4934977e-2 7.0618632e-2 4.3263729e-2
v -6.1184153e-2 7.0618632e-2 6.1184153e-2
v -4.3263729e-2 7.0618632e-2 7.4934977e-2
v -2.2394954e-2 7.0618632e-2 8.3579107e-2
v 0.0000000e+0 7.0618632e-2 8.6527458e-2
v 2.2394954e-2 7.0618632e-2 8.3579107e-2
v 4.3263729e-2 7.0618632e-2 7.4934977e-2
v 6.1184153e-2 7.0618632e-2 6.1184153e-2
v 7.4934977e-2 7.0618632e-2 4.3263729e-2
v 8.3579107e-2 7.0618632e-2 2.2394954e-2
v 8.6527458e-2 7.0618632e-2 3.6314878e-17
v 8.3579107e-2 7.0618632e-2 -2.2394954e-2
v 7.4934977e-2 7.0618632e-2 -4.3263729e-2
v 6.1184153e-2 7.0618632e-2 -6.1184153e-2
v 4.3263729e-2 7.0618632e-2 -7.4934977e-2
v 2.2394954e-2 7.0618632e-2 -8.3579107e-2
v 0.0000000e+0 7.0618632e-2 -8.6527458e-2
v -2.2394954e-2 7.0618632e-2 -8.3579107e-2
v -4.3263729e-2 7.0618632e-2 -7.4934977e-2
v -6.1184153e-2 7.0618632e-2 -6.1184153e-2
v -7.4934977e-2 7.0618632e-2 -4.3263729e-2
v -8.3579107e-2 7.0618632e-2 -2.2394954e-2
v -0.17157441 5.7549515e-2 3.3239805e-17
v -0.16572815 5.7549515e-2 4.4406724e-2
v -0.14858780 5.7549515e-2 8.5787204e-2
v -0.12132143 5.7549515e-2 0.12132143
v -8.5787204e-2 5.7549515e-2 0.14858780
v -4.4406724e-2 5.7549515e-2 0.16572815
v 0.0000000e+0 5.7549515e-2 0.17157441
v 4.4406724e-2 5.7549515e-2 0.16572815
v 8.5787204e-2 5.7549515e-2 0.14858780
v 0.12132143 5.7549515e-2 0.12132143
v 0.14858780 5.7549515e-2 8.5787204e-2
v 0.16572815 5.7549515e-2 4.4406724e-2
v 0.17157441 5.7549515e-2 4.4656600e-17
v 0.16572815 5.7549515e-2 -4.4406724e-2
v 0.14858780 5.7549515e-2 -8.5787204e-2
v 0.12132143 5.7549515e-2 -0.12132143
v 8.5787204e-2 5.7549515e-2 -0.14858780
v 4.4406724e-2 5.7549515e-2 -0.16572815
v 0.0000000e+0 5.7549515e-2 -0.17157441
v -4.4406724e-2 5.7549515e-2 -0.16572815
v -8.5787204e-2 5.7549515e-2 -0.14858780
v -0.12132143 5.7549515e-2 -0.12132143
v -0.14858780 5.7549515e-2 -8.5787204e-2
v -0.16572815 5.7549515e-2 -4.4406724e-2
v -0.25368567 3.6016269e-2 3.6037526e-17
v -0.24504154 3.6016269e-2 6.5658683e-2
v -0.21969824 3.6016269e-2 0.12684284
v -0.17938286 3.6016269e-2 0.17938286
v -0.12684284 3.6016269e-2 0.21969824
v -6.5658683e-2 3.6016269e-2 0.24504154
v -5.5511151e-17 3.6016269e-2 0.25368567
v 6.5658683e-2 3.6016269e-2 0.24504154
v 0.12684284 3.6016269e-2 0.21969824
v 0.17938286 3.6016269e-2 0.17938286
v 0.21969824 3.6016269e-2 0.12684284
v 0.24504154 3.6016269e-2 6.5658683e-2
v 0.25368567 3.6016269e-2 5.2918117e-17
v 0.24504154 3.6016269e-2 -6.5658683e-2
v 0.21969824 3.6016269e-2 -0.12684284
v 0.17938286 3.6016269e-2 -0.17938286
v 0.12684284 3.6016269e-2 -0.21969824
v 6.5658683e-2 3.6016269e-2 -0.24504154
v 0.0000000e+0 3.6016269e-2 -0.25368567
v -6.5658683e-2 3.6016269e-2 -0.24504154
v -0.12684284 3.6016269e-2 -0.21969824
v -0.17938286 3.6016269e-2 -0.17938286
v -0.21969824 3.6016269e-2 -0.12684284
v -0.24504154 3.6016269e-2 -6.5658683e-2
v -0.33145630 6.3873065e-3 3.8902517e-17
v -0.32016220 6.3873065e-3 8.5787204e-2
v -0.28704958 6.3873065e-3 0.16572815
v -0.23437500 6.3873065e-3 0.23437500
v -0.16572815 6.3873065e-3 0.28704958
v -8.5787204e-2 6.3873065e-3 0.32016220
v -5.5511151e-17 6.3873065e-3 0.33145630
v 8.5787204e-2 6.3873065e-3 0.32016220
v 0.16572815 6.3873065e-3 0.28704958
v 0.23437500 6.3873065e-3 0.23437500
v 0.28704958 6.3873065e-3 0.16572815
v 0.32016220 6.3873065e-3 8.5787204e-2
v 0.33145630 6.3873065e-3 6.0958073e-17
v 0.32016220 6.3873065e-3 -8.5787204e-2
v 0.28704958 6.3873065e-3 -0.16572815
v 0.23437500 6.3873065e-3 -0.23437500
v 0.16572815 6.3873065e-3 -0.28704958
v 8.5787204e-2 6.3873065e-3 -0.32016220
v 0.0000000e+0 6.3873065e-3 -0.33145630
v -8.5787204e-2 6.3873065e-3 -0.32016220
v -0.16572815 6.3873065e-3 -0.28704958
v -0.23437500 6.3873065e-3 -0.23437500
v -0.28704958 6.3873065e-3 -0.16572815
v -0.32016220 6.3873065e-3 -8.5787204e-2
v -0.40355563 -3.0830384e-2 4.1785758e-17
v -0.38980480 -3.0830384e-2 0.10444788
v -0.34948942 -3.0830384e-2 0.20177781
v -0.28535692 -3.0830384e-2 0.28535692
v -0.20177781 -3.0830384e-2 0.34948942
v -0.10444788 -3.0830384e-2 0.38980480
v -5.5511151e-17 -3.0830384e-2 0.40355563
v 0.10444788 -3.0830384e-2 0.38980480
v 0.20177781 -3.0830384e-2 0.34948942
v 0.28535692 -3.0830384e-2 0.28535692
v 0.34948942 -3.0830384e-2 0.20177781
v 0.38980480 -3.0830384e-2 0.10444788
v 0.40355563 -3.0830384e-2 6.8638900e-17
v 0.38980480 -3.0830384e-2 -0.10444788
v 0.34948942 -3.0830384e-2 -0.20177781
v 0.28535692 -3.0830384e-2 -0.28535692
v 0.20177781 -3.0830384e-2 -0.34948942
v 0.10444788 -3.0830384e-2 -0.38980480
v 0.0000000e+0 -3.0830384e-2 -0.40355563
v -0.10444788 -3.0830384e-2 -0.38980480
v -0.20177781 -3.0830384e-2 -0.34948942
v -0.28535692 -3.0830384e-2 -0.28535692
v -0.34948942 -3.0830384e-2 -0.20177781
v -0.38980480 -3.0830384e-2 -0.10444788
v -0.46875000 -7.5000000e-2 5.1285606e-17
v -0.45277773 -7.5000000e-2 0.12132143
v -0.40594941 -7.5000000e-2 0.23437500
v -0.33145630 -7.5000000e-2 0.33145630
v -0.23437500 -7.5000000e-2 0.40594941
v -0.12132143 -7.5000000e-2 0.45277773
v 0.0000000e+0 -7.5000000e-2 0.46875000
v 0.12132143 -7.5000000e-2 0.45277773
v 0.23437500 -7.5000000e-2 0.40594941
v 0.33145630 -7.5000000e-2 0.33145630
v 0.40594941 -7.5000000e-2 0.23437500
v 0.45277773 -7.5000000e-2 0.12132143
v 0.46875000 -7.5000000e-2 6.7112340e-17
v 0.45277773 -7.5000000e-2 -0.12132143
v 0.40594941 -7.5000000e-2 -0.23437500
v 0.33145630 -7.5000000e-2 -0.33145630
v 0.23437500 -7.5000000e-2 -0.40594941
v 0.12132143 -7.5000000e-2 -0.45277773
v 0.0000000e+0 -7.5000000e-2 -0.46875000
v -0.12132143 -7.5000000e-2 -0.45277773
v -0.23437500 -7.5000000e-2 -0.40594941
v -0.33145630 -7.5000000e-2 -0.33145630
v -0.40594941 -7.5000000e-2 -0.23437500
v -0.45277773 -7.5000000e-2 -0.12132143
v 0.0000000e+0 7.5000000e-2 2.8035680e-17
v 7.4999997e-2 6.7454660e-2 0.23751075
v -7.5000003e-2 6.7454655e-2 0.23751077
v 7.5000003e-2 5.2191183e-2 0.28512405
v -7.4999997e-2 5.2191178e-2 0.28512406
v 7.4999997e-2 3.1744679e-2 0.22606314
v -7.5000003e-2 3.1744674e-2 0.22606316
v 7.5000003e-2 1.6481212e-2 0.27367645
v -7.4999997e-2 1.6481207e-2 0.27367646
v 0.16819035 6.7454659e-2 -0.18370729
v 0.24319035 6.7454657e-2 -5.3803478e-2
v 0.20942468 5.2191182e-2 -0.20751394
v 0.28442468 5.2191181e-2 -7.7610125e-2
v 0.15827644 3.1744678e-2 -0.17798348
v 0.23327643 3.1744677e-2 -4.8079674e-2
v 0.19951077 1.6481211e-2 -0.20179014
v 0.27451077 1.6481210e-2 -7.1886327e-2
vt 0.60259242 0.78560824
vt 0.60259242 0.81488392
vt 0.60987900 0.77832166
vt 0.60987900 0.78560824
vt 0.60987900 0.81488392
vt 0.60987900 0.82217050
vt 0.61976242 0.77832166
vt 0.61976242 0.78560824
vt 0.61976242 0.81488392
vt 0.61976242 0.82217050
vt 0.62704901 0.78560824
vt 0.62704901 0.81488392
vt 0.64889395 0.10498460
vt 0.65202380 8.0342868e-2
vt 0.65214232 0.12952910
vt 0.66160919 0.15247865
vt 0.66164155 5.7542170e-2
vt 0.66401271 0.10495190
vt 0.66669454 8.4292930e-2
vt 0.66675538 0.12559095
vt 0.67463408 6.5005650e-2
vt 0.67471931 0.14482812
vt 0.67674145 0.17203066
vt 0.67674528 3.7888888e-2
vt 0.67938938 0.10493765
vt 0.68156294 8.8263420e-2
vt 0.68160610 0.12160359
vt 0.68730531 4.8434140e-2
vt 0.68738821 0.16136547
vt 0.68797788 7.2698530e-2
vt 0.68803520 0.13713853
vt 0.69513146 0.10492720
vt 0.69641379 0.18704961
vt 0.69643513 2.2764435e-2
vt 0.69678033 9.2329860e-2
vt 0.69680300 0.11752328
vt 0.69821456 5.9319360e-2
vt 0.69826829 0.15048162
vt 0.70162707 8.0584760e-2
vt 0.70166543 0.12926263
vt 0.70384623 3.5707860e-2
vt 0.70392068 0.17408212
vt 0.70936535 7.0482350e-2
vt 0.70940235 0.13933991
vt 0.71118541 0.10492129
vt 0.71155527 4.9059880e-2
vt 0.71161671 0.16074013
vt 0.71229295 9.6479560e-2
vt 0.71229978 0.11336246
vt 0.71554944 8.8609480e-2
vt 0.71556332 0.12122659
vt 0.71933635 0.19657965
vt 0.71936765 1.3418957e-2
vt 0.71944678 6.2732780e-2
vt 0.71948019 0.14707783
vt 0.72073275 8.1848690e-2
vt 0.72075023 0.12797828
vt 0.72309967 2.7718280e-2
vt 0.72318822 0.18207820
vt 0.72709776 4.2608960e-2
vt 0.72717810 0.16719262
vt 0.72745078 0.10491400
vt 0.72749289 7.6661640e-2
vt 0.72751077 0.13315883
vt 0.72800913 0.10914456
vt 0.72801383 0.10068559
vt 0.72964489 0.11308584
vt 0.72965563 9.6746350e-2
vt 0.73119256 5.7859840e-2
vt 0.73123793 0.15194563
vt 0.73225015 0.11646357
vt 0.73225703 9.3364940e-2
vt 0.73536560 7.3402090e-2
vt 0.73538336 0.13641416
vt 0.73564426 0.11905069
vt 0.73565001 9.0775350e-2
vt 0.73958950 0.12067435
vt 0.73959047 8.9137430e-2
vt 0.74376566 2.4989650e-2
vt 0.74378118 4.0407350e-2
vt 0.74379949 5.6194180e-2
vt 0.74381219 7.2279970e-2
vt 0.74382141 8.8581360e-2
vt 0.74382233 0.10489878
vt 0.74382325 0.12121619
vt 0.74383248 0.13751758
vt 0.74384062 1.0128587e-2
vt 0.74384518 0.15360338
vt 0.74386349 0.16939020
vt 0.74387549 0.19979755
vt 0.74387900 0.18480790
vt 0.74805419 0.12066012
vt 0.74805517 8.9123200e-2
vt 0.75199466 0.11902220
vt 0.75200041 9.0746860e-2
vt 0.75226131 7.3383400e-2
vt 0.75227907 0.13639546
vt 0.75538764 0.11643262
vt 0.75539451 9.3333980e-2
vt 0.75640674 5.7851920e-2
vt 0.75645210 0.15193771
vt 0.75798904 0.11305121
vt 0.75799978 9.6711710e-2
vt 0.75963084 0.10911196
vt 0.75963554 0.10065299
vt 0.76013390 7.6638720e-2
vt 0.76015178 0.13313591
vt 0.76019389 0.10488355
vt 0.76046656 4.2604940e-2
vt 0.76054691 0.16718859
vt 0.76445645 2.7719360e-2
vt 0.76454500 0.18207928
vt 0.76689444 8.1819280e-2
vt 0.76691192 0.12794886
vt 0.76816448 6.2719730e-2
vt 0.76819788 0.14706477
vt 0.76828146 1.3638754e-2
vt 0.76838941 0.19645689
vt 0.77208135 8.8570960e-2
vt 0.77209522 0.12118808
vt 0.77534488 9.6435100e-2
vt 0.77535172 0.11331799
vt 0.77602796 4.9057430e-2
vt 0.77608940 0.16073767
vt 0.77645926 0.10487627
vt 0.77824232 7.0457640e-2
vt 0.77827931 0.13931520
vt 0.78372399 3.5715440e-2
vt 0.78379844 0.17408969
vt 0.78597924 8.0534920e-2
vt 0.78601760 0.12921279
vt 0.78937638 5.9315930e-2
vt 0.78943011 0.15047819
vt 0.79084166 9.2274270e-2
vt 0.79086433 0.11746769
vt 0.79100703 2.3025527e-2
vt 0.79126478 0.18692738
vt 0.79251321 0.10487036
vt 0.79960947 7.2659020e-2
vt 0.79966679 0.13709903
vt 0.80025646 4.8432080e-2
vt 0.80033936 0.16136342
vt 0.80603857 8.8193960e-2
vt 0.80608172 0.12153413
vt 0.80825528 0.10485991
vt 0.81066145 3.7999706e-2
vt 0.81078864 0.17176382
vt 0.81292536 6.4969440e-2
vt 0.81301059 0.14479190
vt 0.82088929 8.4206600e-2
vt 0.82095013 0.12550462
vt 0.82363196 0.10484565
vt 0.82578477 5.7587521e-2
vt 0.82578822 0.15213002
vt 0.83507256 8.0420671e-2
vt 0.83507547 0.12924467
vt 0.83841942 0.10482191
vn -0.10135566 0.99485026 1.3028772e-17
vn -9.7902049e-2 0.99485026 2.6232774e-2
vn -8.7776576e-2 0.99485026 5.0677825e-2
vn -7.1669272e-2 0.99485026 7.1669272e-2
vn -5.0677825e-2 0.99485026 8.7776576e-2
vn -2.6232774e-2 0.99485026 9.7902049e-2
vn -1.2160188e-17 0.99485026 0.10135566
vn 2.6232774e-2 0.99485026 9.7902049e-2
vn 5.0677825e-2 0.99485026 8.7776576e-2
vn 7.1669272e-2 0.99485026 7.1669272e-2
vn 8.7776576e-2 0.99485026 5.0677825e-2
vn 9.7902049e-2 0.99485026 2.6232774e-2
vn 0.10135566 0.99485026 1.6068819e-17
vn 9.7902049e-2 0.99485026 -2.6232774e-2
vn 8.7776576e-2 0.99485026 -5.0677825e-2
vn 7.1669272e-2 0.99485026 -7.1669272e-2
vn 5.0677825e-2 0.99485026 -8.7776576e-2
vn 2.6232774e-2 0.99485026 -9.7902049e-2
vn -1.2160188e-17 0.99485026 -0.10135566
vn -2.6232774e-2 0.99485026 -9.7902049e-2
vn -5.0677825e-2 0.99485026 -8.7776576e-2
vn -7.1669272e-2 0.99485026 -7.1669272e-2
vn -8.7776576e-2 0.99485026 -5.0677825e-2
vn -9.7902049e-2 0.99485026 -2.6232774e-2
vn -0.20304215 0.97917000 1.9115018e-17
vn -0.19612366 0.97917000 5.2551171e-2
vn -0.17583966 0.97917000 0.10152107
vn -0.14357248 0.97917000 0.14357248
vn -0.10152107 0.97917000 0.17583966
vn -5.2551171e-2 0.97917000 0.19612366
vn -2.4328205e-17 0.97917000 0.20304215
vn 5.2551171e-2 0.97917000 0.19612366
vn 0.10152107 0.97917000 0.17583966
vn 0.14357248 0.97917000 0.14357248
vn 0.17583966 0.97917000 0.10152107
vn 0.19612366 0.97917000 5.2551171e-2
vn 0.20304215 0.97917000 2.6065934e-17
vn 0.19612366 0.97917000 -5.2551171e-2
vn 0.17583966 0.97917000 -0.10152107
vn 0.14357248 0.97917000 -0.14357248
vn 0.10152107 0.97917000 -0.17583966
vn 5.2551171e-2 0.97917000 -0.19612366
vn -1.7377289e-17 0.97917000 -0.20304215
vn -5.2551171e-2 0.97917000 -0.19612366
vn -0.10152107 0.97917000 -0.17583966
vn -0.14357248 0.97917000 -0.14357248
vn -0.17583966 0.97917000 -0.10152107
vn -0.19612366 0.97917000 -5.2551171e-2
vn -0.30526933 0.95226605 2.2602731e-17
vn -0.29486753 0.95226605 7.9009505e-2
vn -0.26437099 0.95226606 0.15263465
vn -0.21585801 0.95226605 0.21585801
vn -0.15263465 0.95226606 0.26437099
vn -7.9009505e-2 0.95226605 0.29486753
vn -4.8682804e-17 0.95226605 0.30526933
vn 7.9009505e-2 0.95226605 0.29486753
vn 0.15263465 0.95226606 0.26437099
vn 0.21585801 0.95226605 0.21585801
vn 0.26437099 0.95226606 0.15263465
vn 0.29486753 0.95226605 7.9009505e-2
vn 0.30526933 0.95226605 2.9557417e-17
vn 0.29486753 0.95226605 -7.9009505e-2
vn 0.26437099 0.95226606 -0.15263465
vn 0.21585801 0.95226605 -0.21585801
vn 0.15263465 0.95226606 -0.26437099
vn 7.9009505e-2 0.95226605 -0.29486753
vn -2.2602731e-17 0.95226605 -0.30526933
vn -7.9009505e-2 0.95226605 -0.29486753
vn -0.15263465 0.95226606 -0.26437099
vn -0.21585801 0.95226605 -0.21585801
vn -0.26437099 0.95226606 -0.15263465
vn -0.29486753 0.95226605 -7.9009505e-2
vn -0.40798186 0.91299003 2.4360121e-17
vn -0.39408023 0.91299003 0.10559348
vn -0.35332268 0.91299003 0.20399093
vn -0.28848675 0.91299002 0.28848675
vn -0.20399093 0.91299003 0.35332268
vn -0.10559348 0.91299003 0.39408023
vn -6.0900301e-17 0.91299003 0.40798186
vn 0.10559348 0.91299003 0.39408023
vn 0.20399093 0.91299003 0.35332268
vn 0.28848675 0.91299002 0.28848675
vn 0.35332268 0.91299003 0.20399093
vn 0.39408023 0.91299003 0.10559348
vn 0.40798186 0.91299003 3.4800172e-17
vn 0.39408023 0.91299003 -0.10559348
vn 0.35332268 0.91299003 -0.20399093
vn 0.28848675 0.91299002 -0.28848675
vn 0.20399093 0.91299003 -0.35332268
vn 0.10559348 0.91299003 -0.39408023
vn -2.6100129e-17 0.91299003 -0.40798186
vn -0.10559348 0.91299003 -0.39408023
vn -0.20399093 0.91299003 -0.35332268
vn -0.28848675 0.91299002 -0.28848675
vn -0.35332268 0.91299003 -0.20399093
vn -0.39408023 0.91299003 -0.10559348
vn -0.51067516 0.85977374 2.7867907e-17
vn -0.49327433 0.85977373 0.13217247
vn -0.44225767 0.85977373 0.25533758
vn -0.36110188 0.85977373 0.36110188
vn -0.25533758 0.85977373 0.44225767
vn -0.13217247 0.85977373 0.49327433
vn -5.2252326e-17 0.85977374 0.51067516
vn 0.13217247 0.85977373 0.49327433
vn 0.25533758 0.85977373 0.44225767
vn 0.36110188 0.85977373 0.36110188
vn 0.44225767 0.85977373 0.25533758
vn 0.49327433 0.85977373 0.13217247
vn 0.51067516 0.85977374 3.8318372e-17
vn 0.49327433 0.85977373 -0.13217247
vn 0.44225767 0.85977373 -0.25533758
vn 0.36110188 0.85977373 -0.36110188
vn 0.25533758 0.85977373 -0.44225767
vn 0.13217247 0.85977373 -0.49327433
vn -2.7867907e-17 0.85977374 -0.51067516
vn -0.13217247 0.85977373 -0.49327433
vn -0.25533758 0.85977373 -0.44225767
vn -0.36110188 0.85977373 -0.36110188
vn -0.44225767 0.85977373 -0.25533758
vn -0.49327433 0.85977373 -0.13217247
vn -2.2291300e-17 1.00000000 5.7899481e-18
vn -0.56089763 0.82788516 2.7831147e-17
vn -0.56089763 0.82788516 2.7831147e-17
vn -0.54178549 0.82788517 0.14517099
vn -0.54178549 0.82788517 0.14517099
vn -0.48575158 0.82788518 0.28044881
vn -0.48575158 0.82788518 0.28044881
vn -0.39661451 0.82788517 0.39661451
vn -0.39661451 0.82788517 0.39661451
vn -0.28044881 0.82788518 0.48575158
vn -0.28044881 0.82788518 0.48575158
vn -0.14517099 0.82788517 0.54178549
vn -0.14517099 0.82788517 0.54178549
vn -4.1746720e-17 0.82788516 0.56089763
vn -4.1746720e-17 0.82788516 0.56089763
vn 0.14517099 0.82788517 0.54178549
vn 0.14517099 0.82788517 0.54178549
vn 0.28044881 0.82788518 0.48575158
vn 0.28044881 0.82788518 0.48575158
vn 0.39661451 0.82788517 0.39661451
vn 0.39661451 0.82788517 0.39661451
vn 0.48575158 0.82788518 0.28044881
vn 0.48575158 0.82788518 0.28044881
vn 0.54178549 0.82788517 0.14517099
vn 0.54178549 0.82788517 0.14517099
vn 0.56089763 0.82788516 4.1746720e-17
vn 0.56089763 0.82788516 4.1746720e-17
vn 0.54178549 0.82788517 -0.14517099
vn 0.54178549 0.82788517 -0.14517099
vn 0.48575158 0.82788518 -0.28044881
vn 0.48575158 0.82788518 -0.28044881
vn 0.39661451 0.82788517 -0.39661451
vn 0.39661451 0.82788517 -0.39661451
vn 0.28044881 0.82788518 -0.48575158
vn 0.28044881 0.82788518 -0.48575158
vn 0.14517099 0.82788517 -0.54178549
vn 0.14517099 0.82788517 -0.54178549
vn -2.7831147e-17 0.82788516 -0.56089763
vn -2.7831147e-17 0.82788516 -0.56089763
vn -0.14517099 0.82788517 -0.54178549
vn -0.14517099 0.82788517 -0.54178549
vn -0.28044881 0.82788518 -0.48575158
vn -0.28044881 0.82788518 -0.48575158
vn -0.39661451 0.82788517 -0.39661451
vn -0.39661451 0.82788517 -0.39661451
vn -0.48575158 0.82788518 -0.28044881
vn -0.48575158 0.82788518 -0.28044881
vn -0.54178549 0.82788517 -0.14517099
vn -0.54178549 0.82788517 -0.14517099
vn 2.8174803e-14 0.95226598 0.30526956
vn -1.1484084e-7 0.30526949 -0.95226600
vn 1.00000000 3.5057384e-8 -1.0935903e-7
vn 2.8174803e-14 0.95226598 0.30526956
vn -1.1484084e-7 0.30526949 -0.95226600
vn -1.00000000 -3.5057384e-8 1.0935903e-7
vn 2.8174803e-14 0.95226598 0.30526956
vn 1.1484084e-7 -0.30526931 0.95226606
vn 1.00000000 3.5057384e-8 -1.0935903e-7
vn 2.8174803e-14 0.95226598 0.30526956
vn 1.1484084e-7 -0.30526931 0.95226606
vn -1.00000000 -3.5057384e-8 1.0935903e-7
vn -1.1484084e-7 0.30526949 -0.95226600
vn 1.00000000 3.5057384e-8 -1.0935903e-7
vn -1.1484084e-7 0.30526949 -0.95226600
vn -1.00000000 -3.5057384e-8 1.0935903e-7
vn 1.1484084e-7 -0.30526931 0.95226606
vn 1.00000000 3.5057384e-8 -1.0935903e-7
vn 1.1484084e-7 -0.30526931 0.95226606
vn -1.00000000 -3.5057384e-8 1.0935903e-7
vn 0.26437120 0.95226598 -0.15263477
vn -0.82468655 0.30526949 0.47613300
vn -0.50000000 9.2711044e-9 -0.86602541
vn 0.26437120 0.95226598 -0.15263477
vn -0.82468655 0.30526949 0.47613300
vn 0.50000000 -9.2711046e-9 0.86602541
vn 0.26437120 0.95226598 -0.15263477
vn 0.82468660 -0.30526931 -0.47613303
vn -0.50000000 9.2711044e-9 -0.86602541
vn 0.26437120 0.95226598 -0.15263477
vn 0.82468660 -0.30526931 -0.47613303
vn 0.50000000 -9.2711046e-9 0.86602541
vn -0.82468655 0.30526949 0.47613300
vn -0.50000000 9.2711044e-9 -0.86602541
vn -0.82468655 0.30526949 0.47613300
vn 0.50000000 -9.2711046e-9 0.86602541
vn 0.82468660 -0.30526931 -0.47613303
vn -0.50000000 9.2711044e-9 -0.86602541
vn 0.82468660 -0.30526931 -0.47613303
vn 0.50000000 -9.2711046e-9 0.86602541
g 1_1_auv
usemtl 1_auv
s 1
f 147/4/173 149/8/179 148/9/176 146/5/170
f 155/4/193 157/8/199 156/9/196 154/5/190
s 2
f 1/85/1 25/86/25 26/74/26 2/77/2
f 1/85/1 145/84/121 24/92/24
f 2/77/2 26/74/26 27/64/27 3/75/3
f 2/77/2 145/84/121 1/85/1
f 3/75/3 27/64/27 28/57/28 4/71/4
f 3/75/3 145/84/121 2/77/2
f 4/71/4 28/57/28 29/51/29 5/67/5
f 4/71/4 145/84/121 3/75/3
f 5/67/5 29/51/29 30/49/30 6/65/6
f 5/67/5 145/84/121 4/71/4
f 6/65/6 30/49/30 31/45/31 7/62/7
f 6/65/6 145/84/121 5/67/5
f 7/62/7 31/45/31 32/48/32 8/66/8
f 7/62/7 145/84/121 6/65/6
f 8/66/8 32/48/32 33/50/33 9/68/9
f 8/66/8 145/84/121 7/62/7
f 9/68/9 33/50/33 34/56/34 10/72/10
f 9/68/9 145/84/121 8/66/8
f 10/72/10 34/56/34 35/63/35 11/76/11
f 10/72/10 145/84/121 9/68/9
f 11/76/11 35/63/35 36/73/36 12/78/12
f 11/76/11 145/84/121 10/72/10
f 12/78/12 36/73/36 37/82/37 13/83/13
f 12/78/12 145/84/121 11/76/11
f 13/83/13 37/82/37 38/96/38 14/93/14
f 13/83/13 145/84/121 12/78/12
f 14/93/14 38/96/38 39/106/39 15/95/15
f 14/93/14 145/84/121 13/83/13
f 15/95/15 39/106/39 40/113/40 16/99/16
f 15/95/15 145/84/121 14/93/14
f 16/99/16 40/113/40 41/119/41 17/103/17
f 16/99/16 145/84/121 15/95/15
f 17/103/17 41/119/41 42/121/42 18/105/18
f 17/103/17 145/84/121 16/99/16
f 18/105/18 42/121/42 43/125/43 19/108/19
f 18/105/18 145/84/121 17/103/17
f 19/108/19 43/125/43 44/122/44 20/104/20
f 19/108/19 145/84/121 18/105/18
f 20/104/20 44/122/44 45/120/45 21/102/21
f 20/104/20 145/84/121 19/108/19
f 21/102/21 45/120/45 46/114/46 22/98/22
f 21/102/21 145/84/121 20/104/20
f 22/98/22 46/114/46 47/107/47 23/94/23
f 22/98/22 145/84/121 21/102/21
f 23/94/23 47/107/47 48/97/48 24/92/24
f 23/94/23 145/84/121 22/98/22
f 24/92/24 48/97/48 25/86/25 1/85/1
f 24/92/24 145/84/121 23/94/23
f 25/86/25 49/88/49 50/70/50 26/74/26
f 26/74/26 50/70/50 51/55/51 27/64/27
f 27/64/27 51/55/51 52/44/52 28/57/28
f 28/57/28 52/44/52 53/40/53 29/51/29
f 29/51/29 53/40/53 54/36/54 30/49/30
f 30/49/30 54/36/54 55/32/55 31/45/31
f 31/45/31 55/32/55 56/35/56 32/48/32
f 32/48/32 56/35/56 57/39/57 33/50/33
f 33/50/33 57/39/57 58/43/58 34/56/34
f 34/56/34 58/43/58 59/54/59 35/63/35
f 35/63/35 59/54/59 60/69/60 36/73/36
f 36/73/36 60/69/60 61/81/61 37/82/37
f 37/82/37 61/81/61 62/100/62 38/96/38
f 38/96/38 62/100/62 63/115/63 39/106/39
f 39/106/39 63/115/63 64/126/64 40/113/40
f 40/113/40 64/126/64 65/130/65 41/119/41
f 41/119/41 65/130/65 66/134/66 42/121/42
f 42/121/42 66/134/66 67/138/67 43/125/43
f 43/125/43 67/138/67 68/135/68 44/122/44
f 44/122/44 68/135/68 69/131/69 45/120/45
f 45/120/45 69/131/69 70/127/70 46/114/46
f 46/114/46 70/127/70 71/116/71 47/107/47
f 47/107/47 71/116/71 72/101/72 48/97/48
f 48/97/48 72/101/72 49/88/49 25/86/25
f 49/88/49 73/89/73 74/61/74 50/70/50
f 50/70/50 74/61/74 75/47/75 51/55/51
f 51/55/51 75/47/75 76/38/76 52/44/52
f 52/44/52 76/38/76 77/31/77 53/40/53
f 53/40/53 77/31/77 78/27/78 54/36/54
f 54/36/54 78/27/78 79/25/79 55/32/55
f 55/32/55 79/25/79 80/26/80 56/35/56
f 56/35/56 80/26/80 81/30/81 57/39/57
f 57/39/57 81/30/81 82/37/82 58/43/58
f 58/43/58 82/37/82 83/46/83 59/54/59
f 59/54/59 83/46/83 84/60/84 60/69/60
f 60/69/60 84/60/84 85/80/85 61/81/61
f 61/81/61 85/80/85 86/109/86 62/100/62
f 62/100/62 86/109/86 87/123/87 63/115/63
f 63/115/63 87/123/87 88/132/88 64/126/64
f 64/126/64 88/132/88 89/139/89 65/130/65
f 65/130/65 89/139/89 90/143/90 66/134/66
f 66/134/66 90/143/90 91/145/91 67/138/67
f 67/138/67 91/145/91 92/144/92 68/135/68
f 68/135/68 92/144/92 93/140/93 69/131/69
f 69/131/69 93/140/93 94/133/94 70/127/70
f 70/127/70 94/133/94 95/124/95 71/116/71
f 71/116/71 95/124/95 96/110/96 72/101/72
f 72/101/72 96/110/96 73/89/73 49/88/49
f 73/89/73 97/91/97 98/59/98 74/61/74
f 74/61/74 98/59/98 99/42/99 75/47/75
f 75/47/75 99/42/99 100/29/100 76/38/76
f 76/38/76 100/29/100 101/22/101 77/31/77
f 77/31/77 101/22/101 102/20/102 78/27/78
f 78/27/78 102/20/102 103/18/103 79/25/79
f 79/25/79 103/18/103 104/19/104 80/26/80
f 80/26/80 104/19/104 105/21/105 81/30/81
f 81/30/81 105/21/105 106/28/106 82/37/82
f 82/37/82 106/28/106 107/41/107 83/46/83
f 83/46/83 107/41/107 108/58/108 84/60/84
f 84/60/84 108/58/108 109/79/109 85/80/85
f 85/80/85 109/79/109 110/111/110 86/109/86
f 86/109/86 110/111/110 111/128/111 87/123/87
f 87/123/87 111/128/111 112/141/112 88/132/88
f 88/132/88 112/141/112 113/148/113 89/139/89
f 89/139/89 113/148/113 114/150/114 90/143/90
f 90/143/90 114/150/114 115/152/115 91/145/91
f 91/145/91 115/152/115 116/151/116 92/144/92
f 92/144/92 116/151/116 117/149/117 93/140/93
f 93/140/93 117/149/117 118/142/118 94/133/94
f 94/133/94 118/142/118 119/129/119 95/124/95
f 95/124/95 119/129/119 120/112/120 96/110/96
f 96/110/96 120/112/120 97/91/97 73/89/73
f 97/91/97 121/90/123 122/52/124 98/59/98
f 98/59/98 122/52/125 123/33/126 99/42/99
f 99/42/99 123/33/127 124/23/128 100/29/100
f 100/29/100 124/23/129 125/16/130 101/22/101
f 101/22/101 125/16/131 126/15/132 102/20/102
f 102/20/102 126/15/133 127/13/134 103/18/103
f 103/18/103 127/13/135 128/14/136 104/19/104
f 104/19/104 128/14/137 129/17/138 105/21/105
f 105/21/105 129/17/139 130/24/140 106/28/106
f 106/28/106 130/24/141 131/34/142 107/41/107
f 107/41/107 131/34/143 132/53/144 108/58/108
f 108/58/108 132/53/145 133/87/146 109/79/109
f 109/79/109 133/87/147 134/117/148 110/111/110
f 110/111/110 134/117/149 135/136/150 111/128/111
f 111/128/111 135/136/151 136/146/152 112/141/112
f 112/141/112 136/146/153 137/153/154 113/148/113
f 113/148/113 137/153/155 138/155/156 114/150/114
f 114/150/114 138/155/157 139/157/158 115/152/115
f 115/152/115 139/157/159 140/156/160 116/151/116
f 116/151/116 140/156/161 141/154/162 117/149/117
f 117/149/117 141/154/163 142/147/164 118/142/118
f 118/142/118 142/147/165 143/137/166 119/129/119
f 119/129/119 143/137/167 144/118/169 120/112/120
f 120/112/120 144/118/168 121/90/122 97/91/97
f 146/5/171 150/2/182 151/1/184 147/4/174
f 147/4/175 151/3/185 153/7/189 149/8/181
f 148/9/178 152/10/187 150/6/183 146/5/172
f 149/8/180 153/11/188 152/12/186 148/9/177
f 154/5/191 158/2/202 159/1/204 155/4/194
f 155/4/195 159/3/205 161/7/209 157/8/201
f 156/9/198 160/10/207 158/6/203 154/5/192
f 157/8/200 161/11/208 160/12/206 156/9/197
