# Exported from Wings 3D 1.5.4
mtllib ./short 1p5 crew.mtl
o 1
#128 vertices, 98 faces
v -0.91786222 6.2500000e-2 -5.1826284e-2
v -0.91786222 0.56250000 -5.1826284e-2
v -0.82080508 6.2500000e-2 -0.41404847
v -0.82080508 0.56250000 -0.41404847
v -0.84525765 0.56250000 -0.42060051
v -0.84525765 6.2500000e-2 -0.42060051
v -0.91762994 0.56250000 -0.24587833
v -0.91762994 6.2500000e-2 -0.24587833
v -0.94231479 0.56250000 -5.8378329e-2
v -0.94231479 6.2500000e-2 -5.8378329e-2
v 0.93750000 0.62500000 -2.0961242e-18
v 0.90555546 0.62500000 0.24264285
v 0.81189882 0.62500000 0.46875000
v 0.66291261 0.62500000 0.66291261
v 0.46875000 0.62500000 0.81189882
v 0.24264285 0.62500000 0.90555546
v 0.0000000e+0 0.62500000 0.93750000
v -0.24264285 0.62500000 0.90555546
v -0.46875000 0.62500000 0.81189882
v -0.66291261 0.62500000 0.66291261
v -0.81189882 0.62500000 0.46875000
v -0.90555546 0.62500000 0.24264285
v -0.93750000 0.62500000 1.1271451e-16
v -0.90555546 0.62500000 -0.24264285
v -0.81189882 0.62500000 -0.46875000
v -0.66291261 0.62500000 -0.66291261
v -0.46875000 0.62500000 -0.81189882
v -0.24264285 0.62500000 -0.90555546
v 0.0000000e+0 0.62500000 -0.93750000
v 0.24264285 0.62500000 -0.90555546
v 0.46875000 0.62500000 -0.81189882
v 0.66291261 0.62500000 -0.66291261
v 0.81189882 0.62500000 -0.46875000
v 0.90555546 0.62500000 -0.24264285
v 0.90555546 -0.62500000 -0.24264285
v 0.81189882 -0.62500000 -0.46875000
v 0.66291261 -0.62500000 -0.66291261
v 0.46875000 -0.62500000 -0.81189882
v 0.24264285 -0.62500000 -0.90555546
v 0.0000000e+0 -0.62500000 -0.93750000
v -0.24264285 -0.62500000 -0.90555546
v -0.46875000 -0.62500000 -0.81189882
v -0.66291261 -0.62500000 -0.66291261
v -0.81189882 -0.62500000 -0.46875000
v -0.90555546 -0.62500000 -0.24264285
v -0.93750000 -0.62500000 1.1271451e-16
v -0.90555546 -0.62500000 0.24264285
v -0.81189882 -0.62500000 0.46875000
v -0.66291261 -0.62500000 0.66291261
v -0.46875000 -0.62500000 0.81189882
v -0.24264285 -0.62500000 0.90555546
v 0.0000000e+0 -0.62500000 0.93750000
v 0.24264285 -0.62500000 0.90555546
v 0.46875000 -0.62500000 0.81189882
v 0.66291261 -0.62500000 0.66291261
v 0.81189882 -0.62500000 0.46875000
v 0.90555546 -0.62500000 0.24264285
v 0.93750000 -0.62500000 -2.0961242e-18
v 0.90555546 0.0000000e+0 -0.24264285
v 0.81189882 0.0000000e+0 -0.46875000
v 0.66291261 0.0000000e+0 -0.66291261
v 0.46875000 0.0000000e+0 -0.81189882
v 0.24264285 0.0000000e+0 -0.90555546
v 0.0000000e+0 0.0000000e+0 -0.93750000
v -0.24264285 0.0000000e+0 -0.90555546
v -0.46875000 0.0000000e+0 -0.81189882
v -0.66291261 0.0000000e+0 -0.66291261
v -0.81189882 0.0000000e+0 -0.46875000
v -0.90555546 0.0000000e+0 -0.24264285
v -0.93750000 0.0000000e+0 1.1271451e-16
v -0.90555546 0.0000000e+0 0.24264285
v -0.81189882 0.0000000e+0 0.46875000
v -0.66291261 0.0000000e+0 0.66291261
v -0.46875000 0.0000000e+0 0.81189882
v -0.24264285 0.0000000e+0 0.90555546
v 0.0000000e+0 0.0000000e+0 0.93750000
v 0.24264285 0.0000000e+0 0.90555546
v 0.46875000 0.0000000e+0 0.81189882
v 0.66291261 0.0000000e+0 0.66291261
v 0.81189882 0.0000000e+0 0.46875000
v 0.90555546 0.0000000e+0 0.24264285
v 0.93750000 0.0000000e+0 -2.0961242e-18
v -0.82426804 6.2500000e-2 0.40622399
v -0.86253638 6.2500000e-2 0.31383603
v -0.82426804 0.16250000 0.40622399
v -0.86253638 0.16250000 0.31383603
v -0.85891352 6.2500000e-2 0.42057462
v -0.89718186 6.2500000e-2 0.32818666
v -0.85891352 0.16250000 0.42057462
v -0.89718186 0.16250000 0.32818666
v 0.82426804 6.2500000e-2 -0.40622399
v 0.86253638 6.2500000e-2 -0.31383603
v 0.82426804 0.16250000 -0.40622399
v 0.86253638 0.16250000 -0.31383603
v 0.85891352 6.2500000e-2 -0.42057462
v 0.89718186 6.2500000e-2 -0.32818666
v 0.85891352 0.16250000 -0.42057462
v 0.89718186 0.16250000 -0.32818666
v 0.18749988 -0.56250000 0.90000046
v 0.18749988 -0.31250000 0.90000046
v -0.18750012 -0.56250000 0.90000046
v -0.18750012 -0.31250000 0.90000046
v -0.18750012 -0.31250000 0.92531562
v -0.18750012 -0.56250000 0.92531562
v -1.2199195e-7 -0.31250000 0.95000046
v -1.2199195e-7 -0.56250000 0.95000046
v 0.18749988 -0.31250000 0.92531562
v 0.18749988 -0.56250000 0.92531562
v 0.91786222 6.2500000e-2 5.1826284e-2
v 0.91786222 0.56250000 5.1826284e-2
v 0.82080508 6.2500000e-2 0.41404847
v 0.82080508 0.56250000 0.41404847
v 0.84525765 0.56250000 0.42060051
v 0.84525765 6.2500000e-2 0.42060051
v 0.91762994 0.56250000 0.24587833
v 0.91762994 6.2500000e-2 0.24587833
v 0.94231479 0.56250000 5.8378329e-2
v 0.94231479 6.2500000e-2 5.8378329e-2
v -0.18749988 -0.56250000 -0.90000046
v -0.18749988 -0.31250000 -0.90000046
v 0.18750012 -0.56250000 -0.90000046
v 0.18750012 -0.31250000 -0.90000046
v 0.18750012 -0.31250000 -0.92531562
v 0.18750012 -0.56250000 -0.92531562
v 1.2199195e-7 -0.31250000 -0.95000046
v 1.2199195e-7 -0.56250000 -0.95000046
v -0.18749988 -0.31250000 -0.92531562
v -0.18749988 -0.56250000 -0.92531562
vt 0.22089088 0.50442281
vt 0.22107796 0.43213381
vt 0.22706714 0.46796733
vt 0.22706714 0.50437985
vt 0.22706714 0.50970733
vt 0.22725422 0.42696837
vt 0.22725422 0.43213381
vt 0.26880125 0.52578373
vt 0.26880125 0.59941395
vt 0.27497751 0.52067413
vt 0.27497751 0.52591205
vt 0.27497751 0.56293057
vt 0.27497751 0.59937099
vt 0.27497751 0.60462403
vt 0.30419732 0.28954842
vt 0.30419732 0.28954842
vt 0.30419732 0.29651694
vt 0.30419732 0.29651694
vt 0.30419732 0.31591116
vt 0.30419732 0.31591116
vt 0.30419732 0.32366582
vt 0.30419732 0.32366582
vt 0.32380912 0.29651694
vt 0.32380912 0.29651694
vt 0.32380912 0.31591116
vt 0.32380912 0.31591116
vt 0.32386448 0.28954842
vt 0.32386448 0.28954842
vt 0.32386448 0.29651694
vt 0.32386448 0.29651694
vt 0.32386448 0.31591116
vt 0.32386448 0.31591116
vt 0.32386448 0.32366582
vt 0.32386448 0.32366582
vt 0.32468330 0.52052525
vt 0.32468330 0.52585273
vt 0.32468330 0.56293057
vt 0.32468330 0.59931167
vt 0.32468330 0.60462403
vt 0.32660886 0.46796733
vt 0.32660886 0.50432053
vt 0.32660886 0.50955845
vt 0.32679595 0.42681949
vt 0.32679595 0.43213381
vt 0.33085956 0.52580977
vt 0.33085956 0.59943999
vt 0.33111999 0.29651694
vt 0.33111999 0.29651694
vt 0.33111999 0.31591116
vt 0.33111999 0.31591116
vt 0.33117535 0.29651694
vt 0.33117535 0.29651694
vt 0.33117535 0.31591116
vt 0.33117535 0.31591116
vt 0.33278512 0.50444885
vt 0.33297221 0.43213381
vt 0.35305261 0.12633982
vt 0.35305261 3.0830573e-2
vt 0.35305261 7.8539703e-2
vt 0.35305261 0.17413994
vt 0.35305261 0.22194006
vt 0.35305261 0.26974018
vt 0.35305261 0.31754030
vt 0.35305261 0.41349222
vt 0.35305261 0.60404781
vt 0.35305261 3.0830573e-2
vt 0.35305261 7.8539703e-2
vt 0.35305261 0.12633982
vt 0.35305261 0.55654090
vt 0.35305261 0.36534042
vt 0.35305261 0.46094066
vt 0.35305261 0.50874078
vt 0.35305261 0.55654090
vt 0.35305261 0.17413994
vt 0.35305261 0.22194006
vt 0.35305261 0.41349222
vt 0.35305261 0.46094066
vt 0.35305261 0.50874078
vt 0.35305261 0.60404781
vt 0.35305261 0.26974018
vt 0.35305261 0.31754030
vt 0.35305261 0.36534042
vt 0.47525202 3.0830573e-2
vt 0.47525202 7.8539703e-2
vt 0.47525202 0.12633982
vt 0.47525202 0.22194006
vt 0.47525202 0.46094066
vt 0.47525202 3.0830573e-2
vt 0.47525202 7.8539703e-2
vt 0.47525202 0.12633982
vt 0.47525202 0.17413994
vt 0.47525202 0.26974018
vt 0.47525202 0.31754030
vt 0.47525202 0.36534042
vt 0.47525202 0.41349222
vt 0.47525202 0.50874078
vt 0.47525202 0.55654090
vt 0.47525202 0.60404781
vt 0.47525202 0.17413994
vt 0.47525202 0.22194006
vt 0.47525202 0.41349222
vt 0.47525202 0.46094066
vt 0.47525202 0.50874078
vt 0.47525202 0.55654090
vt 0.47525202 0.60404781
vt 0.47525202 0.26974018
vt 0.47525202 0.31754030
vt 0.47525202 0.36534042
vt 0.59715896 3.0830573e-2
vt 0.59715896 7.8539703e-2
vt 0.59715896 0.12633982
vt 0.59715896 0.46094066
vt 0.59715896 3.0830573e-2
vt 0.59715896 7.8539703e-2
vt 0.59715896 0.12633982
vt 0.59715896 0.22194006
vt 0.59715896 0.31754030
vt 0.59715896 0.36534042
vt 0.59715896 0.41349222
vt 0.59715896 0.50874078
vt 0.59715896 0.60404781
vt 0.59715896 0.46094066
vt 0.59715896 0.50874078
vt 0.59715896 0.55654090
vt 0.59715896 0.17413994
vt 0.59715896 0.26974018
vt 0.59715896 0.55654090
vt 0.59715896 0.17413994
vt 0.59715896 0.22194006
vt 0.59715896 0.26974018
vt 0.59715896 0.31754030
vt 0.59715896 0.36534042
vt 0.59715896 0.41349222
vt 0.59715896 0.60404781
vn 0.96592583 0.0000000e+0 -0.25881905
vn 0.86602540 0.0000000e+0 -0.50000000
vn 0.70710678 0.0000000e+0 -0.70710678
vn 0.50000000 0.0000000e+0 -0.86602540
vn 0.25881905 0.0000000e+0 -0.96592583
vn -4.3392370e-16 0.0000000e+0 -1.00000000
vn -0.25881905 0.0000000e+0 -0.96592583
vn -0.50000000 0.0000000e+0 -0.86602540
vn -0.70710678 0.0000000e+0 -0.70710678
vn -0.86602540 0.0000000e+0 -0.50000000
vn -0.96592583 0.0000000e+0 -0.25881905
vn -1.00000000 0.0000000e+0 -9.7982771e-17
vn -0.96592583 0.0000000e+0 0.25881905
vn -0.86602540 0.0000000e+0 0.50000000
vn -0.70710678 0.0000000e+0 0.70710678
vn -0.50000000 0.0000000e+0 0.86602540
vn -0.25881905 0.0000000e+0 0.96592583
vn 2.2396062e-16 0.0000000e+0 1.00000000
vn 0.25881905 0.0000000e+0 0.96592583
vn 0.50000000 0.0000000e+0 0.86602540
vn 0.70710678 0.0000000e+0 0.70710678
vn 0.86602540 0.0000000e+0 0.50000000
vn 0.96592583 0.0000000e+0 0.25881905
vn 1.00000000 0.0000000e+0 -6.9987693e-16
vn 0.96592583 0.0000000e+0 -0.25881905
vn 0.86602540 0.0000000e+0 -0.50000000
vn 0.70710678 0.0000000e+0 -0.70710678
vn 0.50000000 0.0000000e+0 -0.86602540
vn 0.25881905 0.0000000e+0 -0.96592583
vn -4.3392370e-16 0.0000000e+0 -1.00000000
vn -0.25881905 0.0000000e+0 -0.96592583
vn -0.50000000 0.0000000e+0 -0.86602540
vn -0.70710678 0.0000000e+0 -0.70710678
vn -0.86602540 0.0000000e+0 -0.50000000
vn -0.96592583 0.0000000e+0 -0.25881905
vn -1.00000000 0.0000000e+0 -9.7982771e-17
vn -0.96592583 0.0000000e+0 0.25881905
vn -0.86602540 0.0000000e+0 0.50000000
vn -0.70710678 0.0000000e+0 0.70710678
vn -0.50000000 0.0000000e+0 0.86602540
vn -0.25881905 0.0000000e+0 0.96592583
vn 2.2396062e-16 0.0000000e+0 1.00000000
vn 0.25881905 0.0000000e+0 0.96592583
vn 0.50000000 0.0000000e+0 0.86602540
vn 0.70710678 0.0000000e+0 0.70710678
vn 0.86602540 0.0000000e+0 0.50000000
vn 0.96592583 0.0000000e+0 0.25881905
vn 1.00000000 0.0000000e+0 -6.9987693e-16
vn -0.25881905 0.0000000e+0 0.96592583
vn 0.0000000e+0 -1.00000000 0.0000000e+0
vn 0.0000000e+0 -1.00000000 0.0000000e+0
vn -0.25881905 0.0000000e+0 0.96592583
vn 0.0000000e+0 1.00000000 0.0000000e+0
vn 0.0000000e+0 1.00000000 0.0000000e+0
vn 0.25881905 0.0000000e+0 -0.96592583
vn 0.0000000e+0 -1.00000000 0.0000000e+0
vn 0.0000000e+0 -1.00000000 0.0000000e+0
vn 0.25881905 0.0000000e+0 -0.96592583
vn 0.0000000e+0 1.00000000 0.0000000e+0
vn 0.0000000e+0 1.00000000 0.0000000e+0
vn -0.92387954 0.0000000e+0 -0.38268342
vn 0.25881905 0.0000000e+0 -0.96592583
vn 0.0000000e+0 1.00000000 0.0000000e+0
vn -0.92387954 0.0000000e+0 -0.38268342
vn 0.25881905 0.0000000e+0 -0.96592583
vn 0.0000000e+0 -1.00000000 0.0000000e+0
vn -0.96592583 0.0000000e+0 -0.25881905
vn -0.96592583 0.0000000e+0 -0.25881905
vn 0.0000000e+0 1.00000000 0.0000000e+0
vn 0.0000000e+0 1.00000000 0.0000000e+0
vn 0.0000000e+0 1.00000000 0.0000000e+0
vn -0.96592583 0.0000000e+0 -0.25881905
vn -0.96592583 0.0000000e+0 -0.25881905
vn 0.0000000e+0 -1.00000000 0.0000000e+0
vn 0.0000000e+0 -1.00000000 0.0000000e+0
vn 0.0000000e+0 -1.00000000 0.0000000e+0
vn -0.99144486 0.0000000e+0 -0.13052621
vn -0.25881905 0.0000000e+0 0.96592583
vn 0.0000000e+0 1.00000000 0.0000000e+0
vn -0.99144486 0.0000000e+0 -0.13052621
vn -0.25881905 0.0000000e+0 0.96592583
vn 0.0000000e+0 -1.00000000 0.0000000e+0
vn 1.00000000 0.0000000e+0 -6.9987693e-16
vn 1.00000000 0.0000000e+0 -6.9987693e-16
vn 0.96592583 0.0000000e+0 0.25881905
vn 0.96592583 0.0000000e+0 0.25881905
vn 0.86602540 0.0000000e+0 0.50000000
vn 0.86602540 0.0000000e+0 0.50000000
vn 0.70710678 0.0000000e+0 0.70710678
vn 0.70710678 0.0000000e+0 0.70710678
vn 0.50000000 0.0000000e+0 0.86602540
vn 0.50000000 0.0000000e+0 0.86602540
vn 0.25881905 0.0000000e+0 0.96592583
vn 0.25881905 0.0000000e+0 0.96592583
vn 2.2396062e-16 0.0000000e+0 1.00000000
vn 2.2396062e-16 0.0000000e+0 1.00000000
vn -0.25881905 0.0000000e+0 0.96592583
vn -0.25881905 0.0000000e+0 0.96592583
vn -0.50000000 0.0000000e+0 0.86602540
vn -0.50000000 0.0000000e+0 0.86602540
vn -0.70710678 0.0000000e+0 0.70710678
vn -0.70710678 0.0000000e+0 0.70710678
vn -0.86602540 0.0000000e+0 0.50000000
vn -0.86602540 0.0000000e+0 0.50000000
vn -0.96592583 0.0000000e+0 0.25881905
vn -0.96592583 0.0000000e+0 0.25881905
vn -1.00000000 0.0000000e+0 -9.7982771e-17
vn -1.00000000 0.0000000e+0 -9.7982771e-17
vn -0.96592583 0.0000000e+0 -0.25881905
vn -0.96592583 0.0000000e+0 -0.25881905
vn -0.86602540 0.0000000e+0 -0.50000000
vn -0.86602540 0.0000000e+0 -0.50000000
vn -0.70710678 0.0000000e+0 -0.70710678
vn -0.70710678 0.0000000e+0 -0.70710678
vn -0.50000000 0.0000000e+0 -0.86602540
vn -0.50000000 0.0000000e+0 -0.86602540
vn -0.25881905 0.0000000e+0 -0.96592583
vn -0.25881905 0.0000000e+0 -0.96592583
vn -4.3392370e-16 0.0000000e+0 -1.00000000
vn -4.3392370e-16 0.0000000e+0 -1.00000000
vn 0.25881905 0.0000000e+0 -0.96592583
vn 0.25881905 0.0000000e+0 -0.96592583
vn 0.50000000 0.0000000e+0 -0.86602540
vn 0.50000000 0.0000000e+0 -0.86602540
vn 0.70710678 0.0000000e+0 -0.70710678
vn 0.70710678 0.0000000e+0 -0.70710678
vn 0.86602540 0.0000000e+0 -0.50000000
vn 0.86602540 0.0000000e+0 -0.50000000
vn 0.96592583 0.0000000e+0 -0.25881905
vn 0.96592583 0.0000000e+0 -0.25881905
vn 0.0000000e+0 -1.00000000 0.0000000e+0
vn 0.38268343 0.0000000e+0 0.92387953
vn 0.0000000e+0 -1.00000000 0.0000000e+0
vn -0.38268343 0.0000000e+0 -0.92387953
vn 0.0000000e+0 1.00000000 0.0000000e+0
vn 0.38268343 0.0000000e+0 0.92387953
vn 0.0000000e+0 1.00000000 0.0000000e+0
vn -0.38268343 0.0000000e+0 -0.92387953
vn 0.0000000e+0 -1.00000000 0.0000000e+0
vn 0.38268343 0.0000000e+0 0.92387953
vn -0.92387953 0.0000000e+0 0.38268343
vn 0.0000000e+0 -1.00000000 0.0000000e+0
vn -0.38268343 0.0000000e+0 -0.92387953
vn -0.92387953 0.0000000e+0 0.38268343
vn 0.0000000e+0 1.00000000 0.0000000e+0
vn 0.38268343 0.0000000e+0 0.92387953
vn -0.92387953 0.0000000e+0 0.38268343
vn 0.0000000e+0 1.00000000 0.0000000e+0
vn -0.38268343 0.0000000e+0 -0.92387953
vn -0.92387953 0.0000000e+0 0.38268343
vn 0.0000000e+0 -1.00000000 0.0000000e+0
vn -0.38268343 0.0000000e+0 -0.92387953
vn 0.0000000e+0 -1.00000000 0.0000000e+0
vn 0.38268343 0.0000000e+0 0.92387953
vn 0.0000000e+0 1.00000000 0.0000000e+0
vn -0.38268343 0.0000000e+0 -0.92387953
vn 0.0000000e+0 1.00000000 0.0000000e+0
vn 0.38268343 0.0000000e+0 0.92387953
vn 0.0000000e+0 -1.00000000 0.0000000e+0
vn -0.38268343 0.0000000e+0 -0.92387953
vn 0.92387953 0.0000000e+0 -0.38268343
vn 0.0000000e+0 -1.00000000 0.0000000e+0
vn 0.38268343 0.0000000e+0 0.92387953
vn 0.92387953 0.0000000e+0 -0.38268343
vn 0.0000000e+0 1.00000000 0.0000000e+0
vn -0.38268343 0.0000000e+0 -0.92387953
vn 0.92387953 0.0000000e+0 -0.38268343
vn 0.0000000e+0 1.00000000 0.0000000e+0
vn 0.38268343 0.0000000e+0 0.92387953
vn 0.92387953 0.0000000e+0 -0.38268343
vn 1.00000000 0.0000000e+0 1.7542422e-14
vn 0.0000000e+0 -1.00000000 0.0000000e+0
vn 0.0000000e+0 -1.00000000 0.0000000e+0
vn 1.00000000 0.0000000e+0 1.7542422e-14
vn 0.0000000e+0 1.00000000 0.0000000e+0
vn 0.0000000e+0 1.00000000 0.0000000e+0
vn -1.00000000 0.0000000e+0 0.0000000e+0
vn 0.0000000e+0 -1.00000000 0.0000000e+0
vn 0.0000000e+0 -1.00000000 0.0000000e+0
vn -1.00000000 0.0000000e+0 0.0000000e+0
vn 0.0000000e+0 1.00000000 0.0000000e+0
vn 0.0000000e+0 1.00000000 0.0000000e+0
vn -0.13052618 0.0000000e+0 0.99144486
vn -1.00000000 0.0000000e+0 0.0000000e+0
vn 0.0000000e+0 1.00000000 0.0000000e+0
vn -0.13052618 0.0000000e+0 0.99144486
vn -1.00000000 0.0000000e+0 0.0000000e+0
vn 0.0000000e+0 -1.00000000 0.0000000e+0
vn -1.3017711e-15 0.0000000e+0 1.00000000
vn -1.3017711e-15 0.0000000e+0 1.00000000
vn 0.0000000e+0 1.00000000 0.0000000e+0
vn 0.0000000e+0 1.00000000 0.0000000e+0
vn 0.0000000e+0 1.00000000 0.0000000e+0
vn -1.3017711e-15 0.0000000e+0 1.00000000
vn -1.3017711e-15 0.0000000e+0 1.00000000
vn 0.0000000e+0 -1.00000000 0.0000000e+0
vn 0.0000000e+0 -1.00000000 0.0000000e+0
vn 0.0000000e+0 -1.00000000 0.0000000e+0
vn 0.13052618 0.0000000e+0 0.99144486
vn 1.00000000 0.0000000e+0 1.7542422e-14
vn 0.0000000e+0 1.00000000 0.0000000e+0
vn 0.13052618 0.0000000e+0 0.99144486
vn 1.00000000 0.0000000e+0 1.7542422e-14
vn 0.0000000e+0 -1.00000000 0.0000000e+0
vn 0.25881905 0.0000000e+0 -0.96592583
vn 0.0000000e+0 -1.00000000 0.0000000e+0
vn 0.0000000e+0 -1.00000000 0.0000000e+0
vn 0.25881905 0.0000000e+0 -0.96592583
vn 0.0000000e+0 1.00000000 0.0000000e+0
vn 0.0000000e+0 1.00000000 0.0000000e+0
vn -0.25881905 0.0000000e+0 0.96592583
vn 0.0000000e+0 -1.00000000 0.0000000e+0
vn 0.0000000e+0 -1.00000000 0.0000000e+0
vn -0.25881905 0.0000000e+0 0.96592583
vn 0.0000000e+0 1.00000000 0.0000000e+0
vn 0.0000000e+0 1.00000000 0.0000000e+0
vn 0.92387954 0.0000000e+0 0.38268342
vn -0.25881905 0.0000000e+0 0.96592583
vn 0.0000000e+0 1.00000000 0.0000000e+0
vn 0.92387954 0.0000000e+0 0.38268342
vn -0.25881905 0.0000000e+0 0.96592583
vn 0.0000000e+0 -1.00000000 0.0000000e+0
vn 0.96592583 0.0000000e+0 0.25881905
vn 0.96592583 0.0000000e+0 0.25881905
vn 0.0000000e+0 1.00000000 0.0000000e+0
vn 0.0000000e+0 1.00000000 0.0000000e+0
vn 0.0000000e+0 1.00000000 0.0000000e+0
vn 0.96592583 0.0000000e+0 0.25881905
vn 0.96592583 0.0000000e+0 0.25881905
vn 0.0000000e+0 -1.00000000 0.0000000e+0
vn 0.0000000e+0 -1.00000000 0.0000000e+0
vn 0.0000000e+0 -1.00000000 0.0000000e+0
vn 0.99144486 0.0000000e+0 0.13052621
vn 0.25881905 0.0000000e+0 -0.96592583
vn 0.0000000e+0 1.00000000 0.0000000e+0
vn 0.99144486 0.0000000e+0 0.13052621
vn 0.25881905 0.0000000e+0 -0.96592583
vn 0.0000000e+0 -1.00000000 0.0000000e+0
vn -1.00000000 0.0000000e+0 0.0000000e+0
vn 0.0000000e+0 -1.00000000 0.0000000e+0
vn 0.0000000e+0 -1.00000000 0.0000000e+0
vn -1.00000000 0.0000000e+0 0.0000000e+0
vn 0.0000000e+0 1.00000000 0.0000000e+0
vn 0.0000000e+0 1.00000000 0.0000000e+0
vn 1.00000000 0.0000000e+0 1.7542422e-14
vn 0.0000000e+0 -1.00000000 0.0000000e+0
vn 0.0000000e+0 -1.00000000 0.0000000e+0
vn 1.00000000 0.0000000e+0 1.7542422e-14
vn 0.0000000e+0 1.00000000 0.0000000e+0
vn 0.0000000e+0 1.00000000 0.0000000e+0
vn 0.13052618 0.0000000e+0 -0.99144486
vn 1.00000000 0.0000000e+0 1.7542422e-14
vn 0.0000000e+0 1.00000000 0.0000000e+0
vn 0.13052618 0.0000000e+0 -0.99144486
vn 1.00000000 0.0000000e+0 1.7542422e-14
vn 0.0000000e+0 -1.00000000 0.0000000e+0
vn 1.1477982e-15 0.0000000e+0 -1.00000000
vn 1.1477982e-15 0.0000000e+0 -1.00000000
vn 0.0000000e+0 1.00000000 0.0000000e+0
vn 0.0000000e+0 1.00000000 0.0000000e+0
vn 0.0000000e+0 1.00000000 0.0000000e+0
vn 1.1477982e-15 0.0000000e+0 -1.00000000
vn 1.1477982e-15 0.0000000e+0 -1.00000000
vn 0.0000000e+0 -1.00000000 0.0000000e+0
vn 0.0000000e+0 -1.00000000 0.0000000e+0
vn 0.0000000e+0 -1.00000000 0.0000000e+0
vn -0.13052618 0.0000000e+0 -0.99144486
vn -1.00000000 0.0000000e+0 0.0000000e+0
vn 0.0000000e+0 1.00000000 0.0000000e+0
vn -0.13052618 0.0000000e+0 -0.99144486
vn -1.00000000 0.0000000e+0 0.0000000e+0
vn 0.0000000e+0 -1.00000000 0.0000000e+0
g 1_1_auv
usemtl 1_auv
s 1
f 6/4/64 8/3/72 7/40/67 5/41/61
f 8/3/73 10/7/80 9/44/77 7/40/68
f 84/22/134 88/20/143 90/32/149 86/34/138
f 85/28/136 89/30/146 87/18/140 83/16/132
f 91/47/151 95/23/159 96/25/162 92/49/153
f 94/53/157 98/31/168 97/29/165 93/51/155
f 99/8/172 106/12/196 101/9/178
f 99/8/173 108/11/204 106/12/198
f 100/35/174 107/36/200 108/11/203 99/10/171
f 101/14/177 104/13/187 103/38/184 102/39/180
f 101/9/179 106/12/197 104/13/188
f 102/46/181 105/37/192 100/45/176
f 103/38/185 105/37/193 102/46/182
f 105/37/191 107/36/201 100/45/175
f 114/4/220 116/3/228 115/40/223 113/41/217
f 116/3/229 118/7/236 117/44/233 115/40/224
f 124/13/254 126/12/262 125/37/257 123/38/251
f 126/12/263 128/11/270 127/36/267 125/37/258
s 2
f 1/2/50 8/3/74 3/1/56
f 1/2/51 10/7/82 8/3/76
f 2/43/52 9/44/78 10/7/81 1/6/49
f 3/5/55 6/4/65 5/41/62 4/42/58
f 3/1/57 8/3/75 6/4/66
f 4/55/59 7/40/70 2/56/54
f 5/41/63 7/40/71 4/55/60
f 7/40/69 9/44/79 2/56/53
f 11/120/83 82/96/48 59/87/25 34/112/129
f 12/127/86 81/97/47 82/96/48 11/120/84
f 13/121/88 80/98/46 81/97/47 12/127/85
f 14/114/90 79/89/45 80/88/46 13/113/87
f 15/115/92 78/90/44 79/89/45 14/114/89
f 16/128/94 77/99/43 78/90/44 15/115/91
f 17/129/96 76/100/42 77/99/43 16/128/93
f 18/130/98 75/106/41 76/100/42 17/129/95
f 19/131/100 74/107/40 75/106/41 18/130/97
f 20/132/102 73/108/39 74/107/40 19/131/99
f 21/133/104 72/101/38 73/108/39 20/132/101
f 22/122/106 71/102/37 72/101/38 21/133/103
f 23/123/108 70/103/36 71/102/37 22/122/105
f 24/124/110 69/104/35 70/103/36 23/123/107
f 25/134/112 68/105/34 69/104/35 24/124/109
f 26/110/114 67/84/33 68/83/34 25/109/111
f 27/111/116 66/85/32 67/84/33 26/110/113
f 28/125/118 65/91/31 66/85/32 27/111/115
f 29/116/120 64/86/30 65/91/31 28/125/117
f 30/126/122 63/92/29 64/86/30 29/116/119
f 31/117/124 62/93/28 63/92/29 30/126/121
f 32/118/126 61/94/27 62/93/28 31/117/123
f 33/119/128 60/95/26 61/94/27 32/118/125
f 34/112/130 59/87/25 60/95/26 33/119/127
f 35/71/1 59/87/25 82/96/48 58/72/24
f 36/64/2 60/95/26 59/87/25 35/71/1
f 37/70/3 61/94/27 60/95/26 36/64/2
f 38/63/4 62/93/28 61/94/27 37/70/3
f 39/62/5 63/92/29 62/93/28 38/63/4
f 40/61/6 64/86/30 63/92/29 39/62/5
f 41/60/7 65/91/31 64/86/30 40/61/6
f 42/57/8 66/85/32 65/91/31 41/60/7
f 43/59/9 67/84/33 66/85/32 42/57/8
f 44/58/10 68/83/34 67/84/33 43/59/9
f 45/69/11 69/104/35 68/105/34 44/79/10
f 46/78/12 70/103/36 69/104/35 45/69/11
f 47/77/13 71/102/37 70/103/36 46/78/12
f 48/76/14 72/101/38 71/102/37 47/77/13
f 49/82/15 73/108/39 72/101/38 48/76/14
f 50/81/16 74/107/40 73/108/39 49/82/15
f 51/80/17 75/106/41 74/107/40 50/81/16
f 52/75/18 76/100/42 75/106/41 51/80/17
f 53/74/19 77/99/43 76/100/42 52/75/18
f 54/68/20 78/90/44 77/99/43 53/74/19
f 55/67/21 79/89/45 78/90/44 54/68/20
f 56/66/22 80/88/46 79/89/45 55/67/21
f 57/73/23 81/97/47 80/98/46 56/65/22
f 58/72/24 82/96/48 81/97/47 57/73/23
f 83/48/131 87/24/139 88/26/142 84/50/133
f 86/54/137 90/32/148 89/30/145 85/52/135
f 95/17/161 97/29/167 98/31/170 96/19/164
f 104/13/186 106/12/194 105/37/189 103/38/183
f 106/12/195 108/11/202 107/36/199 105/37/190
f 109/2/206 116/3/230 111/1/212
f 109/2/207 118/7/238 116/3/232
f 110/43/208 117/44/234 118/7/237 109/6/205
f 111/5/211 114/4/221 113/41/218 112/42/214
f 111/1/213 116/3/231 114/4/222
f 112/55/215 115/40/226 110/56/210
f 113/41/219 115/40/227 112/55/216
f 115/40/225 117/44/235 110/56/209
f 119/8/240 126/12/264 121/9/246
f 119/8/241 128/11/272 126/12/266
f 120/35/242 127/36/268 128/11/271 119/10/239
f 121/14/245 124/13/255 123/38/252 122/39/248
f 121/9/247 126/12/265 124/13/256
f 122/46/249 125/37/260 120/45/244
f 123/38/253 125/37/261 122/46/250
f 125/37/259 127/36/269 120/45/243
s 3
f 87/18/141 89/30/147 90/32/150 88/20/144
f 92/21/154 96/19/163 98/31/169 94/33/158
f 93/27/156 97/29/166 95/17/160 91/15/152
