# Exported from Wings 3D 1.5.4
mtllib spektr cone normal source.mtl
o Cylinder3
#192 vertices, 170 faces
v 0.93750000 -1.12500000 -2.0961242e-18
v 0.90555546 -1.12500000 0.24264285
v 0.81189882 -1.12500000 0.46875000
v 0.66291261 -1.12500000 0.66291261
v 0.46875000 -1.12500000 0.81189882
v 0.24264285 -1.12500000 0.90555546
v 0.0000000e+0 -1.12500000 0.93750000
v -0.24264285 -1.12500000 0.90555546
v -0.46875000 -1.12500000 0.81189882
v -0.66291261 -1.12500000 0.66291261
v -0.81189882 -1.12500000 0.46875000
v -0.90555546 -1.12500000 0.24264285
v -0.93750000 -1.12500000 1.1271451e-16
v -0.90555546 -1.12500000 -0.24264285
v -0.81189882 -1.12500000 -0.46875000
v -0.66291261 -1.12500000 -0.66291261
v -0.46875000 -1.12500000 -0.81189882
v -0.24264285 -1.12500000 -0.90555546
v 0.0000000e+0 -1.12500000 -0.93750000
v 0.24264285 -1.12500000 -0.90555546
v 0.46875000 -1.12500000 -0.81189882
v 0.66291261 -1.12500000 -0.66291261
v 0.81189882 -1.12500000 -0.46875000
v 0.90555546 -1.12500000 -0.24264285
v 0.90555546 -0.87500000 0.24264285
v 0.93750000 -0.87500000 -4.2767625e-17
v 0.90555546 -0.87500000 -0.24264285
v 0.81189882 -0.87500000 -0.46875000
v 0.66291261 -0.87500000 -0.66291261
v 0.46875000 -0.87500000 -0.81189882
v 0.24264285 -0.87500000 -0.90555546
v 0.0000000e+0 -0.87500000 -0.93750000
v -0.24264285 -0.87500000 -0.90555546
v -0.46875000 -0.87500000 -0.81189882
v -0.66291261 -0.87500000 -0.66291261
v -0.81189882 -0.87500000 -0.46875000
v -0.90555546 -0.87500000 -0.24264285
v -0.93750000 -0.87500000 7.2043012e-17
v -0.90555546 -0.87500000 0.24264285
v -0.81189882 -0.87500000 0.46875000
v -0.66291261 -0.87500000 0.66291261
v -0.46875000 -0.87500000 0.81189882
v -0.24264285 -0.87500000 0.90555546
v 0.0000000e+0 -0.87500000 0.93750000
v 0.24264285 -0.87500000 0.90555546
v 0.46875000 -0.87500000 0.81189882
v 0.66291261 -0.87500000 0.66291261
v 0.81189882 -0.87500000 0.46875000
v 0.18111109 1.12500000 0.10999809
v 0.18750000 1.12500000 -3.3296617e-17
v 0.18111109 1.12500000 -0.10999809
v 0.16237976 1.12500000 -0.21250000
v 0.13258252 1.12500000 -0.30052038
v 9.3750000e-2 1.12500000 -0.36806080
v 4.8528571e-2 1.12500000 -0.41051848
v -4.4408921e-16 1.12500000 -0.42500000
v -4.8528571e-2 1.12500000 -0.41051848
v -9.3750000e-2 1.12500000 -0.36806080
v -0.13258252 1.12500000 -0.30052038
v -0.16237976 1.12500000 -0.21250000
v -0.18111109 1.12500000 -0.10999809
v -0.18750000 1.12500000 1.8750872e-17
v -0.18111109 1.12500000 0.10999809
v -0.16237976 1.12500000 0.21250000
v -0.13258252 1.12500000 0.30052038
v -9.3750000e-2 1.12500000 0.36806080
v -4.8528571e-2 1.12500000 0.41051848
v -4.4408921e-16 1.12500000 0.42500000
v 4.8528571e-2 1.12500000 0.41051848
v 9.3750000e-2 1.12500000 0.36806080
v 0.13258252 1.12500000 0.30052038
v 0.16237976 1.12500000 0.21250000
v 0.63356503 -0.32587434 0.39839328
v 0.51730368 -0.32587434 0.56341317
v 0.36578894 -0.32587434 0.69003739
v 0.18934629 -0.32587434 0.76963671
v 0.0000000e+0 -0.32587434 0.79678655
v -0.18934629 -0.32587434 0.76963671
v -0.36578894 -0.32587434 0.69003739
v -0.51730368 -0.32587434 0.56341317
v -0.63356503 -0.32587434 0.39839328
v -0.70664997 -0.32587434 0.20622353
v -0.73157788 -0.32587434 5.7410971e-17
v -0.70664997 -0.32587434 -0.20622353
v -0.63356503 -0.32587434 -0.39839328
v -0.51730368 -0.32587434 -0.56341317
v -0.36578894 -0.32587434 -0.69003739
v -0.18934629 -0.32587434 -0.76963671
v 0.0000000e+0 -0.32587434 -0.79678655
v 0.18934629 -0.32587434 -0.76963671
v 0.36578894 -0.32587434 -0.69003739
v 0.51730368 -0.32587434 -0.56341317
v 0.63356503 -0.32587434 -0.39839328
v 0.70664997 -0.32587434 -0.20622353
v 0.73157788 -0.32587434 -4.0167239e-17
v 0.70664997 -0.32587434 0.20622353
v 0.54724721 0.11419466 0.17703711
v 0.56655200 0.11419466 -3.8083290e-17
v 0.54724721 0.11419466 -0.17703711
v 0.49064843 0.11419466 -0.34200943
v 0.40061276 0.11419466 -0.48367438
v 0.28327600 0.11419466 -0.59237772
v 0.14663445 0.11419466 -0.66071149
v 0.0000000e+0 0.11419466 -0.68401887
v -0.14663445 0.11419466 -0.66071149
v -0.28327600 0.11419466 -0.59237772
v -0.40061276 0.11419466 -0.48367438
v -0.49064843 0.11419466 -0.34200943
v -0.54724721 0.11419466 -0.17703711
v -0.56655200 0.11419466 4.5684862e-17
v -0.54724721 0.11419466 0.17703711
v -0.49064843 0.11419466 0.34200943
v -0.40061276 0.11419466 0.48367438
v -0.28327600 0.11419466 0.59237772
v -0.14663445 0.11419466 0.66071149
v 0.0000000e+0 0.11419466 0.68401887
v 0.14663445 0.11419466 0.66071149
v 0.28327600 0.11419466 0.59237772
v 0.40061276 0.11419466 0.48367438
v 0.49064843 0.11419466 0.34200943
v 0.37547241 0.46884483 0.29656988
v 0.30657194 0.46884483 0.41941315
v 0.21677909 0.46884483 0.51367410
v 0.11221312 0.46884483 0.57292901
v 0.0000000e+0 0.46884483 0.59313976
v -0.11221312 0.46884483 0.57292901
v -0.21677909 0.46884483 0.51367410
v -0.30657194 0.46884483 0.41941315
v -0.37547241 0.46884483 0.29656988
v -0.41878505 0.46884483 0.15351587
v -0.43355819 0.46884483 3.6234828e-17
v -0.41878505 0.46884483 -0.15351587
v -0.37547241 0.46884483 -0.29656988
v -0.30657194 0.46884483 -0.41941315
v -0.21677909 0.46884483 -0.51367410
v -0.11221312 0.46884483 -0.57292901
v 0.0000000e+0 0.46884483 -0.59313976
v 0.11221312 0.46884483 -0.57292901
v 0.21677909 0.46884483 -0.51367410
v 0.30657194 0.46884483 -0.41941315
v 0.37547241 0.46884483 -0.29656988
v 0.41878505 0.46884483 -0.15351587
v 0.43355819 0.46884483 -3.6403843e-17
v 0.41878505 0.46884483 0.15351587
v 0.31497581 0.75543478 0.13450854
v 0.32608696 0.75543478 -3.5046695e-17
v 0.31497581 0.75543478 -0.13450854
v 0.28239959 0.75543478 -0.25985054
v 0.23057830 0.75543478 -0.36748416
v 0.16304348 0.75543478 -0.45007434
v 8.4397515e-2 0.75543478 -0.50199270
v 0.0000000e+0 0.75543478 -0.51970109
v -8.4397515e-2 0.75543478 -0.50199270
v -0.16304348 0.75543478 -0.45007434
v -0.23057830 0.75543478 -0.36748416
v -0.28239959 0.75543478 -0.25985054
v -0.31497581 0.75543478 -0.13450854
v -0.32608696 0.75543478 2.8598332e-17
v -0.31497581 0.75543478 0.13450854
v -0.28239959 0.75543478 0.25985054
v -0.23057830 0.75543478 0.36748416
v -0.16304348 0.75543478 0.45007434
v -8.4397515e-2 0.75543478 0.50199270
v 0.0000000e+0 0.75543478 0.51970109
v 8.4397515e-2 0.75543478 0.50199270
v 0.16304348 0.75543478 0.45007434
v 0.23057830 0.75543478 0.36748416
v 0.28239959 0.75543478 0.25985054
v 0.20725069 0.98683339 0.23020260
v 0.16921948 0.98683339 0.32555563
v 0.11965624 0.98683339 0.39872259
v 6.1938627e-2 0.98683339 0.44471727
v -4.4408921e-16 0.98683339 0.46040519
v -6.1938627e-2 0.98683339 0.44471727
v -0.11965624 0.98683339 0.39872259
v -0.16921948 0.98683339 0.32555563
v -0.20725069 0.98683339 0.23020260
v -0.23115810 0.98683339 0.11916163
v -0.23931248 0.98683339 2.2432469e-17
v -0.23115810 0.98683339 -0.11916163
v -0.20725069 0.98683339 -0.23020260
v -0.16921948 0.98683339 -0.32555563
v -0.11965624 0.98683339 -0.39872259
v -6.1938627e-2 0.98683339 -0.44471727
v -4.4408921e-16 0.98683339 -0.46040519
v 6.1938627e-2 0.98683339 -0.44471727
v 0.11965624 0.98683339 -0.39872259
v 0.16921948 0.98683339 -0.32555563
v 0.20725069 0.98683339 -0.23020260
v 0.23115810 0.98683339 -0.11916163
v 0.23931248 0.98683339 -3.3950906e-17
v 0.23115810 0.98683339 0.11916163
vn 0.95220532 0.17438799 0.25078647
vn 0.98409878 0.17762205 -7.1060045e-16
vn 0.95220532 0.17438799 -0.25078647
vn 0.85776070 0.16539838 -0.48671343
vn 0.70490048 0.15274955 -0.69266362
vn 0.50167915 0.13966832 -0.85370416
vn 0.26092321 0.12981441 -0.95659150
vn -3.9510785e-16 0.12614842 -0.99201138
vn -0.26092321 0.12981441 -0.95659150
vn -0.50167915 0.13966832 -0.85370416
vn -0.70490048 0.15274955 -0.69266362
vn -0.85776070 0.16539838 -0.48671343
vn -0.95220532 0.17438799 -0.25078647
vn -0.98409878 0.17762205 -1.0303706e-16
vn -0.95220532 0.17438799 0.25078647
vn -0.85776070 0.16539838 0.48671343
vn -0.70490048 0.15274955 0.69266362
vn -0.50167915 0.13966832 0.85370416
vn -0.26092321 0.12981441 0.95659150
vn 2.5399790e-16 0.12614842 0.99201138
vn 0.26092321 0.12981441 0.95659150
vn 0.50167915 0.13966832 0.85370416
vn 0.70490048 0.15274955 0.69266362
vn 0.85776070 0.16539838 0.48671343
vn 0.83418958 0.32660076 0.44436436
vn 0.70059416 0.30271577 0.64616638
vn 0.50991317 0.27741535 0.81426610
vn 0.26971504 0.25793302 0.92775231
vn 3.7129972e-16 0.25058833 0.96809374
vn -0.26971504 0.25793302 0.92775231
vn -0.50991317 0.27741535 0.81426610
vn -0.70059416 0.30271577 0.64616638
vn -0.83418958 0.32660076 0.44436436
vn -0.91178126 0.34324741 0.22546872
vn -0.93705871 0.34917184 -9.7768841e-17
vn -0.91178126 0.34324741 -0.22546872
vn -0.83418958 0.32660076 -0.44436436
vn -0.70059416 0.30271577 -0.64616638
vn -0.50991317 0.27741535 -0.81426610
vn -0.26971504 0.25793302 -0.92775231
vn -2.1717531e-16 0.25058833 -0.96809374
vn 0.26971504 0.25793302 -0.92775231
vn 0.50991317 0.27741535 -0.81426610
vn 0.70059416 0.30271577 -0.64616638
vn 0.83418958 0.32660076 -0.44436436
vn 0.91178126 0.34324741 -0.22546872
vn 0.93705871 0.34917184 -5.4122037e-16
vn 0.91178126 0.34324741 0.22546872
vn 0.91657130 0.34326822 0.20509505
vn 0.93717869 0.34884968 -1.0462923e-16
vn 0.91657130 0.34326822 -0.20509505
vn 0.85112806 0.32741980 -0.41033804
vn 0.73122275 0.30421197 -0.61054759
vn 0.54618948 0.27894619 -0.78985194
vn 0.29515962 0.25894936 -0.91968801
vn 2.1062938e-17 0.25127752 -0.96791508
vn -0.29515962 0.25894936 -0.91968801
vn -0.54618948 0.27894619 -0.78985194
vn -0.73122275 0.30421197 -0.61054759
vn -0.85112806 0.32741980 -0.41033804
vn -0.91657130 0.34326822 -0.20509505
vn -0.93717869 0.34884968 -8.7191027e-17
vn -0.91657130 0.34326822 0.20509505
vn -0.85112806 0.32741980 0.41033804
vn -0.73122275 0.30421197 0.61054759
vn -0.54618948 0.27894619 0.78985194
vn -0.29515962 0.25894936 0.91968801
vn 4.8444758e-16 0.25127752 0.96791508
vn 0.29515962 0.25894936 0.91968801
vn 0.54618948 0.27894619 0.78985194
vn 0.73122275 0.30421197 0.61054759
vn 0.85112806 0.32741980 0.41033804
vn 0.86885959 0.32775459 0.37102553
vn 0.76552158 0.30506154 0.56649287
vn 0.59022376 0.28003769 0.75710951
vn 0.32825172 0.25997299 0.90811060
vn 6.6217165e-16 0.25221574 0.96767103
vn -0.32825172 0.25997299 0.90811060
vn -0.59022376 0.28003769 0.75710951
vn -0.76552158 0.30506154 0.56649287
vn -0.86885959 0.32775459 0.37102553
vn -0.92138317 0.34311456 0.18255261
vn -0.93730841 0.34850100 -7.6640723e-17
vn -0.92138317 0.34311456 -0.18255261
vn -0.86885959 0.32775459 -0.37102553
vn -0.76552158 0.30506154 -0.56649287
vn -0.59022376 0.28003769 -0.75710951
vn -0.32825172 0.25997299 -0.90811060
vn 7.7488172e-17 0.25221574 -0.96767103
vn 0.32825172 0.25997299 -0.90811060
vn 0.59022376 0.28003769 -0.75710951
vn 0.76552158 0.30506154 -0.56649287
vn 0.86885959 0.32775459 -0.37102553
vn 0.92138317 0.34311456 -0.18255261
vn 0.93730841 0.34850100 1.4283044e-16
vn 0.92138317 0.34311456 0.18255261
vn 0.92603682 0.34274123 0.15806409
vn 0.93744617 0.34813027 1.1831939e-16
vn 0.92603682 0.34274123 -0.15806409
vn 0.88673312 0.32738762 -0.32637665
vn 0.80275840 0.30477823 -0.51253213
vn 0.64298214 0.28009705 -0.71282509
vn 0.37174790 0.26077798 -0.89095362
vn -2.7620599e-16 0.25353470 -0.96732629
vn -0.37174790 0.26077798 -0.89095362
vn -0.64298214 0.28009705 -0.71282509
vn -0.80275840 0.30477823 -0.51253213
vn -0.88673312 0.32738762 -0.32637665
vn -0.92603682 0.34274123 -0.15806409
vn -0.93744617 0.34813027 -6.6119661e-17
vn -0.92603682 0.34274123 0.15806409
vn -0.88673312 0.32738762 0.32637665
vn -0.80275840 0.30477823 0.51253213
vn -0.64298214 0.28009705 0.71282509
vn -0.37174790 0.26077798 0.89095362
vn 8.0737136e-16 0.25353470 0.96732629
vn 0.37174790 0.26077798 0.89095362
vn 0.64298214 0.28009705 0.71282509
vn 0.80275840 0.30477823 0.51253213
vn 0.88673312 0.32738762 0.32637665
vn 0.90280190 0.32622263 0.28022763
vn 0.83879720 0.30296072 0.45236495
vn 0.70001801 0.27836862 0.65763645
vn 0.42458713 0.26087386 0.86698939
vn 6.2841492e-16 0.25529341 0.96686363
vn -0.42458713 0.26087386 0.86698939
vn -0.70001801 0.27836862 0.65763645
vn -0.83879720 0.30296072 0.45236495
vn -0.90280190 0.32622263 0.28022763
vn -0.93006884 0.34216252 0.13377878
vn -0.93758005 0.34776955 -5.5630509e-17
vn -0.93006884 0.34216252 -0.13377878
vn -0.90280190 0.32622263 -0.28022763
vn -0.83879720 0.30296072 -0.45236495
vn -0.70001801 0.27836862 -0.65763645
vn -0.42458713 0.26087386 -0.86698939
vn -9.5690453e-16 0.25529341 -0.96686363
vn 0.42458713 0.26087386 -0.86698939
vn 0.70001801 0.27836862 -0.65763645
vn 0.83879720 0.30296072 -0.45236495
vn 0.90280190 0.32622263 -0.28022763
vn 0.93006884 0.34216252 -0.13377878
vn 0.93758005 0.34776955 1.0256875e-16
vn 0.93006884 0.34216252 0.13377878
vn 0.0000000e+0 -1.00000000 2.0335750e-17
vn 1.00000000 3.7296935e-32 -6.8587940e-16
vn 1.00000000 3.7296935e-32 -6.8587940e-16
vn 0.0000000e+0 -1.00000000 2.0335750e-17
vn 0.96592583 5.3619655e-17 0.25881905
vn 0.96592583 5.3619655e-17 0.25881905
vn 0.0000000e+0 -1.00000000 2.0335750e-17
vn 0.86602540 7.1492873e-17 0.50000000
vn 0.86602540 7.1492873e-17 0.50000000
vn 0.0000000e+0 -1.00000000 2.0335750e-17
vn 0.70710678 2.8597149e-17 0.70710678
vn 0.70710678 2.8597149e-17 0.70710678
vn 0.0000000e+0 -1.00000000 2.0335750e-17
vn 0.50000000 0.0000000e+0 0.86602540
vn 0.50000000 0.0000000e+0 0.86602540
vn 0.0000000e+0 -1.00000000 2.0335750e-17
vn 0.25881905 0.0000000e+0 0.96592583
vn 0.25881905 0.0000000e+0 0.96592583
vn 0.0000000e+0 -1.00000000 2.0335750e-17
vn 2.0996308e-16 0.0000000e+0 1.00000000
vn 2.0996308e-16 0.0000000e+0 1.00000000
vn 0.0000000e+0 -1.00000000 2.0335750e-17
vn -0.25881905 0.0000000e+0 0.96592583
vn -0.25881905 0.0000000e+0 0.96592583
vn 0.0000000e+0 -1.00000000 2.0335750e-17
vn -0.50000000 0.0000000e+0 0.86602540
vn -0.50000000 0.0000000e+0 0.86602540
vn 0.0000000e+0 -1.00000000 2.0335750e-17
vn -0.70710678 2.8597149e-17 0.70710678
vn -0.70710678 2.8597149e-17 0.70710678
vn 0.0000000e+0 -1.00000000 2.0335750e-17
vn -0.86602540 5.7194298e-17 0.50000000
vn -0.86602540 5.7194298e-17 0.50000000
vn 0.0000000e+0 -1.00000000 2.0335750e-17
vn -0.96592583 3.5746436e-17 0.25881905
vn -0.96592583 3.5746436e-17 0.25881905
vn 0.0000000e+0 -1.00000000 2.0335750e-17
vn -1.00000000 -9.3242338e-33 -9.7982771e-17
vn -1.00000000 -9.3242338e-33 -9.7982771e-17
vn 0.0000000e+0 -1.00000000 2.0335750e-17
vn -0.96592583 -3.5746436e-17 -0.25881905
vn -0.96592583 -3.5746436e-17 -0.25881905
vn 0.0000000e+0 -1.00000000 2.0335750e-17
vn -0.86602540 -5.7194298e-17 -0.50000000
vn -0.86602540 -5.7194298e-17 -0.50000000
vn 0.0000000e+0 -1.00000000 2.0335750e-17
vn -0.70710678 -2.8597149e-17 -0.70710678
vn -0.70710678 -2.8597149e-17 -0.70710678
vn 0.0000000e+0 -1.00000000 2.0335750e-17
vn -0.50000000 0.0000000e+0 -0.86602540
vn -0.50000000 0.0000000e+0 -0.86602540
vn 0.0000000e+0 -1.00000000 2.0335750e-17
vn -0.25881905 0.0000000e+0 -0.96592583
vn -0.25881905 0.0000000e+0 -0.96592583
vn 0.0000000e+0 -1.00000000 2.0335750e-17
vn -4.3392370e-16 0.0000000e+0 -1.00000000
vn -4.3392370e-16 0.0000000e+0 -1.00000000
vn 0.0000000e+0 -1.00000000 2.0335750e-17
vn 0.25881905 0.0000000e+0 -0.96592583
vn 0.25881905 0.0000000e+0 -0.96592583
vn 0.0000000e+0 -1.00000000 2.0335750e-17
vn 0.50000000 0.0000000e+0 -0.86602540
vn 0.50000000 0.0000000e+0 -0.86602540
vn 0.0000000e+0 -1.00000000 2.0335750e-17
vn 0.70710678 -4.2895724e-17 -0.70710678
vn 0.70710678 -4.2895724e-17 -0.70710678
vn 0.0000000e+0 -1.00000000 2.0335750e-17
vn 0.86602540 -7.1492873e-17 -0.50000000
vn 0.86602540 -7.1492873e-17 -0.50000000
vn 0.0000000e+0 -1.00000000 2.0335750e-17
vn 0.96592583 -3.9321080e-17 -0.25881905
vn 0.96592583 -3.9321080e-17 -0.25881905
vn 0.0000000e+0 1.00000000 0.0000000e+0
vn 0.93179134 0.34181380 0.12218110
vn 0.93179134 0.34181380 0.12218110
vn 0.0000000e+0 1.00000000 0.0000000e+0
vn 0.93764328 0.34759901 9.3840772e-17
vn 0.93764328 0.34759901 9.3840772e-17
vn 0.0000000e+0 1.00000000 0.0000000e+0
vn 0.93179134 0.34181380 -0.12218110
vn 0.93179134 0.34181380 -0.12218110
vn 0.0000000e+0 1.00000000 0.0000000e+0
vn 0.90979914 0.32537643 -0.25767363
vn 0.90979914 0.32537643 -0.25767363
vn 0.0000000e+0 1.00000000 0.0000000e+0
vn 0.85517619 0.30148779 -0.42163822
vn 0.85517619 0.30148779 -0.42163822
vn 0.0000000e+0 1.00000000 0.0000000e+0
vn 0.72780875 0.27674557 -0.62746021
vn 0.72780875 0.27674557 -0.62746021
vn 0.0000000e+0 1.00000000 0.0000000e+0
vn 0.45250935 0.26052779 -0.85285436
vn 0.45250935 0.26052779 -0.85285436
vn 0.0000000e+0 1.00000000 0.0000000e+0
vn -1.3492016e-15 0.25628267 -0.96660188
vn -1.3492016e-15 0.25628267 -0.96660188
vn 0.0000000e+0 1.00000000 0.0000000e+0
vn -0.45250935 0.26052779 -0.85285436
vn -0.45250935 0.26052779 -0.85285436
vn 0.0000000e+0 1.00000000 0.0000000e+0
vn -0.72780875 0.27674557 -0.62746021
vn -0.72780875 0.27674557 -0.62746021
vn 0.0000000e+0 1.00000000 0.0000000e+0
vn -0.85517619 0.30148779 -0.42163822
vn -0.85517619 0.30148779 -0.42163822
vn 0.0000000e+0 1.00000000 0.0000000e+0
vn -0.90979914 0.32537643 -0.25767363
vn -0.90979914 0.32537643 -0.25767363
vn 0.0000000e+0 1.00000000 0.0000000e+0
vn -0.93179134 0.34181380 -0.12218110
vn -0.93179134 0.34181380 -0.12218110
vn 0.0000000e+0 1.00000000 0.0000000e+0
vn -0.93764328 0.34759901 -4.8658178e-17
vn -0.93764328 0.34759901 -4.8658178e-17
vn 0.0000000e+0 1.00000000 0.0000000e+0
vn -0.93179134 0.34181380 0.12218110
vn -0.93179134 0.34181380 0.12218110
vn 0.0000000e+0 1.00000000 0.0000000e+0
vn -0.90979914 0.32537643 0.25767363
vn -0.90979914 0.32537643 0.25767363
vn 0.0000000e+0 1.00000000 0.0000000e+0
vn -0.85517619 0.30148779 0.42163822
vn -0.85517619 0.30148779 0.42163822
vn 0.0000000e+0 1.00000000 0.0000000e+0
vn -0.72780875 0.27674557 0.62746021
vn -0.72780875 0.27674557 0.62746021
vn 0.0000000e+0 1.00000000 0.0000000e+0
vn -0.45250935 0.26052779 0.85285436
vn -0.45250935 0.26052779 0.85285436
vn 0.0000000e+0 1.00000000 0.0000000e+0
vn 4.5930266e-16 0.25628267 0.96660188
vn 4.5930266e-16 0.25628267 0.96660188
vn 0.0000000e+0 1.00000000 0.0000000e+0
vn 0.45250935 0.26052779 0.85285436
vn 0.45250935 0.26052779 0.85285436
vn 0.0000000e+0 1.00000000 0.0000000e+0
vn 0.72780875 0.27674557 0.62746021
vn 0.72780875 0.27674557 0.62746021
vn 0.0000000e+0 1.00000000 0.0000000e+0
vn 0.85517619 0.30148779 0.42163822
vn 0.85517619 0.30148779 0.42163822
vn 0.0000000e+0 1.00000000 0.0000000e+0
vn 0.90979914 0.32537643 0.25767363
vn 0.90979914 0.32537643 0.25767363
g Cylinder3_default
usemtl default
s 1
f 2//148 3//151 4//154 5//157 6//160 7//163 8//166 9//169 10//172 11//175 12//178 13//181 14//184 15//187 16//190 17//193 18//196 19//199 20//202 21//205 22//208 23//211 24//214 1//145
f 50//220 51//223 52//226 53//229 54//232 55//235 56//238 57//241 58//244 59//247 60//250 61//253 62//256 63//259 64//262 65//265 66//268 67//271 68//274 69//277 70//280 71//283 72//286 49//217
s 2
f 1//146 26//2 25//1 2//149
f 2//150 25//1 48//24 3//153
f 3//152 48//24 47//23 4//156
f 4//155 47//23 46//22 5//159
f 5//158 46//22 45//21 6//162
f 6//161 45//21 44//20 7//165
f 7//164 44//20 43//19 8//168
f 8//167 43//19 42//18 9//171
f 9//170 42//18 41//17 10//174
f 10//173 41//17 40//16 11//177
f 11//176 40//16 39//15 12//180
f 12//179 39//15 38//14 13//183
f 13//182 38//14 37//13 14//186
f 14//185 37//13 36//12 15//189
f 15//188 36//12 35//11 16//192
f 16//191 35//11 34//10 17//195
f 17//194 34//10 33//9 18//198
f 18//197 33//9 32//8 19//201
f 19//200 32//8 31//7 20//204
f 20//203 31//7 30//6 21//207
f 21//206 30//6 29//5 22//210
f 22//209 29//5 28//4 23//213
f 23//212 28//4 27//3 24//216
f 24//215 27//3 26//2 1//147
f 25//1 96//48 73//25 48//24
f 26//2 95//47 96//48 25//1
f 27//3 94//46 95//47 26//2
f 28//4 93//45 94//46 27//3
f 29//5 92//44 93//45 28//4
f 30//6 91//43 92//44 29//5
f 31//7 90//42 91//43 30//6
f 32//8 89//41 90//42 31//7
f 33//9 88//40 89//41 32//8
f 34//10 87//39 88//40 33//9
f 35//11 86//38 87//39 34//10
f 36//12 85//37 86//38 35//11
f 37//13 84//36 85//37 36//12
f 38//14 83//35 84//36 37//13
f 39//15 82//34 83//35 38//14
f 40//16 81//33 82//34 39//15
f 41//17 80//32 81//33 40//16
f 42//18 79//31 80//32 41//17
f 43//19 78//30 79//31 42//18
f 44//20 77//29 78//30 43//19
f 45//21 76//28 77//29 44//20
f 46//22 75//27 76//28 45//21
f 47//23 74//26 75//27 46//22
f 48//24 73//25 74//26 47//23
f 49//218 192//144 191//143 50//221
f 50//222 191//143 190//142 51//224
f 51//225 190//142 189//141 52//227
f 52//228 189//141 188//140 53//230
f 53//231 188//140 187//139 54//233
f 54//234 187//139 186//138 55//236
f 55//237 186//138 185//137 56//239
f 56//240 185//137 184//136 57//242
f 57//243 184//136 183//135 58//245
f 58//246 183//135 182//134 59//248
f 59//249 182//134 181//133 60//251
f 60//252 181//133 180//132 61//254
f 61//255 180//132 179//131 62//257
f 62//258 179//131 178//130 63//260
f 63//261 178//130 177//129 64//263
f 64//264 177//129 176//128 65//266
f 65//267 176//128 175//127 66//269
f 66//270 175//127 174//126 67//272
f 67//273 174//126 173//125 68//275
f 68//276 173//125 172//124 69//278
f 69//279 172//124 171//123 70//281
f 70//282 171//123 170//122 71//284
f 71//285 170//122 169//121 72//287
f 72//288 169//121 192//144 49//219
f 73//25 96//48 97//49 120//72
f 97//49 98//50 143//95 144//96
f 98//50 97//49 96//48 95//47
f 98//50 99//51 142//94 143//95
f 99//51 98//50 95//47 94//46
f 99//51 100//52 141//93 142//94
f 100//52 99//51 94//46 93//45
f 100//52 101//53 140//92 141//93
f 101//53 100//52 93//45 92//44
f 101//53 102//54 139//91 140//92
f 102//54 101//53 92//44 91//43
f 102//54 103//55 138//90 139//91
f 103//55 102//54 91//43 90//42
f 103//55 104//56 137//89 138//90
f 104//56 103//55 90//42 89//41
f 104//56 105//57 136//88 137//89
f 105//57 104//56 89//41 88//40
f 105//57 106//58 135//87 136//88
f 106//58 105//57 88//40 87//39
f 106//58 107//59 134//86 135//87
f 107//59 106//58 87//39 86//38
f 107//59 108//60 133//85 134//86
f 108//60 107//59 86//38 85//37
f 108//60 109//61 132//84 133//85
f 109//61 108//60 85//37 84//36
f 109//61 110//62 131//83 132//84
f 110//62 109//61 84//36 83//35
f 110//62 111//63 130//82 131//83
f 111//63 110//62 83//35 82//34
f 111//63 112//64 129//81 130//82
f 112//64 111//63 82//34 81//33
f 112//64 113//65 128//80 129//81
f 113//65 112//64 81//33 80//32
f 113//65 114//66 127//79 128//80
f 114//66 113//65 80//32 79//31
f 114//66 115//67 126//78 127//79
f 115//67 114//66 79//31 78//30
f 115//67 116//68 125//77 126//78
f 116//68 115//67 78//30 77//29
f 116//68 117//69 124//76 125//77
f 117//69 116//68 77//29 76//28
f 117//69 118//70 123//75 124//76
f 118//70 117//69 76//28 75//27
f 118//70 119//71 122//74 123//75
f 119//71 118//70 75//27 74//26
f 119//71 120//72 121//73 122//74
f 120//72 119//71 74//26 73//25
f 121//73 144//96 145//97 168//120
f 144//96 121//73 120//72 97//49
f 145//97 146//98 191//143 192//144
f 146//98 145//97 144//96 143//95
f 146//98 147//99 190//142 191//143
f 147//99 146//98 143//95 142//94
f 147//99 148//100 189//141 190//142
f 148//100 147//99 142//94 141//93
f 148//100 149//101 188//140 189//141
f 149//101 148//100 141//93 140//92
f 149//101 150//102 187//139 188//140
f 150//102 149//101 140//92 139//91
f 150//102 151//103 186//138 187//139
f 151//103 150//102 139//91 138//90
f 151//103 152//104 185//137 186//138
f 152//104 151//103 138//90 137//89
f 152//104 153//105 184//136 185//137
f 153//105 152//104 137//89 136//88
f 153//105 154//106 183//135 184//136
f 154//106 153//105 136//88 135//87
f 154//106 155//107 182//134 183//135
f 155//107 154//106 135//87 134//86
f 155//107 156//108 181//133 182//134
f 156//108 155//107 134//86 133//85
f 156//108 157//109 180//132 181//133
f 157//109 156//108 133//85 132//84
f 157//109 158//110 179//131 180//132
f 158//110 157//109 132//84 131//83
f 158//110 159//111 178//130 179//131
f 159//111 158//110 131//83 130//82
f 159//111 160//112 177//129 178//130
f 160//112 159//111 130//82 129//81
f 160//112 161//113 176//128 177//129
f 161//113 160//112 129//81 128//80
f 161//113 162//114 175//127 176//128
f 162//114 161//113 128//80 127//79
f 162//114 163//115 174//126 175//127
f 163//115 162//114 127//79 126//78
f 163//115 164//116 173//125 174//126
f 164//116 163//115 126//78 125//77
f 164//116 165//117 172//124 173//125
f 165//117 164//116 125//77 124//76
f 165//117 166//118 171//123 172//124
f 166//118 165//117 124//76 123//75
f 166//118 167//119 170//122 171//123
f 167//119 166//118 123//75 122//74
f 167//119 168//120 169//121 170//122
f 168//120 167//119 122//74 121//73
f 192//144 169//121 168//120 145//97
