# Exported from Wings 3D 1.5.4
mtllib ./zarya neck collider.mtl
o c
#32 vertices, 18 faces
v 0.43125000 0.33750000 -8.5780958e-2
v 0.43125000 0.33750000 8.5780958e-2
v 0.36559610 0.33750000 0.24428350
v 0.24428350 0.33750000 0.36559610
v 8.5780958e-2 0.33750000 0.43125000
v -8.5780958e-2 0.33750000 0.43125000
v -0.24428350 0.33750000 0.36559610
v -0.36559610 0.33750000 0.24428350
v -0.43125000 0.33750000 8.5780958e-2
v -0.43125000 0.33750000 -8.5780958e-2
v -0.36559610 0.33750000 -0.24428350
v -0.24428350 0.33750000 -0.36559610
v -8.5780958e-2 0.33750000 -0.43125000
v 8.5780958e-2 0.33750000 -0.43125000
v 0.24428350 0.33750000 -0.36559610
v 0.36559610 0.33750000 -0.24428350
v 0.90000000 -0.33750000 -0.17902113
v 0.90000000 -0.33750000 0.17902113
v 0.76298316 -0.33750000 0.50980905
v 0.50980905 -0.33750000 0.76298316
v 0.17902113 -0.33750000 0.90000000
v -0.17902113 -0.33750000 0.90000000
v -0.50980905 -0.33750000 0.76298316
v -0.76298316 -0.33750000 0.50980905
v -0.90000000 -0.33750000 0.17902113
v -0.90000000 -0.33750000 -0.17902113
v -0.76298316 -0.33750000 -0.50980905
v -0.50980905 -0.33750000 -0.76298316
v -0.17902113 -0.33750000 -0.90000000
v 0.17902113 -0.33750000 -0.90000000
v 0.50980905 -0.33750000 -0.76298316
v 0.76298316 -0.33750000 -0.50980905
vn 0.75884690 0.57039581 -0.31432468
vn 0.82136997 0.57039581 0.0000000e+0
vn 0.0000000e+0 1.00000000 3.5169931e-17
vn 0.75884690 0.57039581 0.31432468
vn 0.82136997 0.57039581 0.0000000e+0
vn 0.0000000e+0 1.00000000 3.5169931e-17
vn 0.75884690 0.57039581 0.31432468
vn 0.58079627 0.57039581 0.58079627
vn 0.0000000e+0 1.00000000 3.5169931e-17
vn 0.31432468 0.57039581 0.75884690
vn 0.58079627 0.57039581 0.58079627
vn 0.0000000e+0 1.00000000 3.5169931e-17
vn 0.31432468 0.57039581 0.75884690
vn 0.0000000e+0 0.57039581 0.82136997
vn 0.0000000e+0 1.00000000 3.5169931e-17
vn -0.31432468 0.57039581 0.75884690
vn 0.0000000e+0 0.57039581 0.82136997
vn 0.0000000e+0 1.00000000 3.5169931e-17
vn -0.31432468 0.57039581 0.75884690
vn -0.58079627 0.57039581 0.58079627
vn 0.0000000e+0 1.00000000 3.5169931e-17
vn -0.75884690 0.57039581 0.31432468
vn -0.58079627 0.57039581 0.58079627
vn 0.0000000e+0 1.00000000 3.5169931e-17
vn -0.75884690 0.57039581 0.31432468
vn -0.82136997 0.57039581 0.0000000e+0
vn 0.0000000e+0 1.00000000 3.5169931e-17
vn -0.82136997 0.57039581 0.0000000e+0
vn 0.0000000e+0 1.00000000 3.5169931e-17
vn -0.75884690 0.57039581 -0.31432468
vn -0.58079627 0.57039581 -0.58079627
vn 0.0000000e+0 1.00000000 3.5169931e-17
vn -0.75884690 0.57039581 -0.31432468
vn -0.58079627 0.57039581 -0.58079627
vn -0.31432468 0.57039581 -0.75884690
vn 0.0000000e+0 1.00000000 3.5169931e-17
vn 0.0000000e+0 0.57039581 -0.82136997
vn -0.31432468 0.57039581 -0.75884690
vn 0.0000000e+0 1.00000000 3.5169931e-17
vn 0.0000000e+0 0.57039581 -0.82136997
vn 0.31432468 0.57039581 -0.75884690
vn 0.0000000e+0 1.00000000 3.5169931e-17
vn 0.31432468 0.57039581 -0.75884690
vn 0.0000000e+0 1.00000000 3.5169931e-17
vn 0.58079627 0.57039581 -0.58079627
vn 0.75884690 0.57039581 -0.31432468
vn 0.0000000e+0 1.00000000 3.5169931e-17
vn 0.58079627 0.57039581 -0.58079627
vn 0.75884690 0.57039581 -0.31432468
vn 0.82136997 0.57039581 0.0000000e+0
vn 0.0000000e+0 -1.00000000 2.4225122e-17
vn 0.75884690 0.57039581 0.31432468
vn 0.82136997 0.57039581 0.0000000e+0
vn 0.0000000e+0 -1.00000000 2.4225122e-17
vn 0.75884690 0.57039581 0.31432468
vn 0.58079627 0.57039581 0.58079627
vn 0.0000000e+0 -1.00000000 2.4225122e-17
vn 0.31432468 0.57039581 0.75884690
vn 0.58079627 0.57039581 0.58079627
vn 0.0000000e+0 -1.00000000 2.4225122e-17
vn 0.31432468 0.57039581 0.75884690
vn 0.0000000e+0 0.57039581 0.82136997
vn 0.0000000e+0 -1.00000000 2.4225122e-17
vn -0.31432468 0.57039581 0.75884690
vn 0.0000000e+0 0.57039581 0.82136997
vn 0.0000000e+0 -1.00000000 2.4225122e-17
vn -0.31432468 0.57039581 0.75884690
vn -0.58079627 0.57039581 0.58079627
vn 0.0000000e+0 -1.00000000 2.4225122e-17
vn -0.75884690 0.57039581 0.31432468
vn -0.58079627 0.57039581 0.58079627
vn 0.0000000e+0 -1.00000000 2.4225122e-17
vn -0.75884690 0.57039581 0.31432468
vn -0.82136997 0.57039581 0.0000000e+0
vn 0.0000000e+0 -1.00000000 2.4225122e-17
vn -0.82136997 0.57039581 0.0000000e+0
vn 0.0000000e+0 -1.00000000 2.4225122e-17
vn -0.75884690 0.57039581 -0.31432468
vn -0.58079627 0.57039581 -0.58079627
vn 0.0000000e+0 -1.00000000 2.4225122e-17
vn -0.75884690 0.57039581 -0.31432468
vn -0.58079627 0.57039581 -0.58079627
vn -0.31432468 0.57039581 -0.75884690
vn 0.0000000e+0 -1.00000000 2.4225122e-17
vn 0.0000000e+0 0.57039581 -0.82136997
vn -0.31432468 0.57039581 -0.75884690
vn 0.0000000e+0 -1.00000000 2.4225122e-17
vn 0.0000000e+0 0.57039581 -0.82136997
vn 0.31432468 0.57039581 -0.75884690
vn 0.0000000e+0 -1.00000000 2.4225122e-17
vn 0.31432468 0.57039581 -0.75884690
vn 0.0000000e+0 -1.00000000 2.4225122e-17
vn 0.58079627 0.57039581 -0.58079627
vn 0.75884690 0.57039581 -0.31432468
vn 0.0000000e+0 -1.00000000 2.4225122e-17
vn 0.58079627 0.57039581 -0.58079627
g c_default2
usemtl default2
s 1
f 1//1 17//49 32//94 16//46
f 3//7 19//55 18//52 2//4
f 5//13 21//61 20//58 4//10
f 7//19 23//67 22//64 6//16
f 9//25 25//73 24//70 8//22
f 12//34 28//82 27//79 11//31
f 14//40 30//88 29//85 13//37
s 2
f 2//5 18//53 17//50 1//2
f 4//11 20//59 19//56 3//8
f 6//17 22//65 21//62 5//14
f 8//23 24//71 23//68 7//20
f 11//33 27//81 26//78 10//30
f 13//38 29//86 28//83 12//35
f 16//48 32//96 31//93 15//45
s 3
f 1//3 16//47 15//44 14//42 13//39 12//36 11//32 10//29 9//27 8//24 7//21 6//18 5//15 4//12 3//9 2//6
f 18//54 19//57 20//60 21//63 22//66 23//69 24//72 25//75 26//77 27//80 28//84 29//87 30//90 31//92 32//95 17//51
s 4
f 10//28 26//76 25//74 9//26
f 15//43 31//91 30//89 14//41
