# Exported from Wings 3D 1.5.4
mtllib ./shelf1.mtl
o shelf1ao
#8 vertices, 4 faces
v -0.13750000 1.2500000e-3 -6.2500000e-2
v -0.13750000 1.2500000e-3 6.2500000e-2
v 0.13750000 1.2500000e-3 -6.2500000e-2
v 0.13750000 1.2500000e-3 6.2500000e-2
v 0.0000000e+0 1.2500000e-3 6.2500000e-2
v 0.0000000e+0 1.2500000e-3 6.2500000e-2
v 0.0000000e+0 1.2500000e-3 -6.2500000e-2
v 0.0000000e+0 1.2500000e-3 -6.2500000e-2
vt 0.18249155 0.10937500
vt 0.18249155 0.10937500
vt 0.18249155 0.89062500
vt 0.18249155 0.89062500
vt 0.61217905 0.10937500
vt 0.61217905 0.89062500
vt 0.61217905 0.89062500
vt 0.61217905 0.10937500
vn 0.0000000e+0 1.00000000 -6.3080854e-17
vn 0.0000000e+0 1.00000000 -6.3080854e-17
vn 0.0000000e+0 1.00000000 -6.3080854e-17
vn 0.0000000e+0 1.00000000 -6.3080854e-17
vn 0.0000000e+0 1.00000000 -6.3080854e-17
vn 0.0000000e+0 1.00000000 -6.3080854e-17
vn 0.0000000e+0 1.00000000 -6.3080854e-17
vn 0.0000000e+0 1.00000000 -6.3080854e-17
vn 0.0000000e+0 1.00000000 -6.3080854e-17
vn 0.0000000e+0 1.00000000 -6.3080854e-17
vn 0.0000000e+0 1.00000000 -6.3080854e-17
vn 0.0000000e+0 1.00000000 -6.3080854e-17
g shelf1ao_2_auv
usemtl 2_auv
s 1
f 2/4/3 7/8/10 1/1/1
f 3/2/4 8/5/11 4/3/5
f 4/3/6 8/5/12 6/6/8
f 5/7/7 7/8/9 2/4/2
o shelf1
#40 vertices, 38 faces
v -0.12500000 0.20000000 -1.2500000e-2
v -0.12500000 -7.6540425e-19 -1.2500000e-2
v -0.12500000 0.20000000 1.2500000e-2
v -0.12500000 7.6540425e-19 1.2500000e-2
v 1.3877788e-17 7.6540425e-19 1.2500000e-2
v 1.3877788e-17 0.20000000 1.2500000e-2
v 1.3877788e-17 -7.6540425e-19 -1.2500000e-2
v 1.3877788e-17 0.20000000 -1.2500000e-2
v -0.10000000 5.0000000e-2 -1.2500000e-2
v -0.10000000 -7.6540425e-19 -1.2500000e-2
v -0.10000000 -3.0616170e-18 -5.0000000e-2
v -0.11250000 5.0000000e-2 -1.2500000e-2
v -0.11250000 -7.6540425e-19 -1.2500000e-2
v -0.11250000 -3.0616170e-18 -5.0000000e-2
v -0.10000000 5.0000000e-2 1.2500000e-2
v -0.10000000 7.6540425e-19 1.2500000e-2
v -0.10000000 3.0616170e-18 5.0000000e-2
v -0.11250000 5.0000000e-2 1.2500000e-2
v -0.11250000 7.6540425e-19 1.2500000e-2
v -0.11250000 3.0616170e-18 5.0000000e-2
v 0.12500000 0.20000000 -1.2500000e-2
v 0.12500000 -7.6540425e-19 -1.2500000e-2
v 0.12500000 0.20000000 1.2500000e-2
v 0.12500000 7.6540425e-19 1.2500000e-2
v -1.3877788e-17 7.6540425e-19 1.2500000e-2
v -1.3877788e-17 0.20000000 1.2500000e-2
v -1.3877788e-17 -7.6540425e-19 -1.2500000e-2
v -1.3877788e-17 0.20000000 -1.2500000e-2
v 0.10000000 5.0000000e-2 -1.2500000e-2
v 0.10000000 -7.6540425e-19 -1.2500000e-2
v 0.10000000 -3.0616170e-18 -5.0000000e-2
v 0.11250000 5.0000000e-2 -1.2500000e-2
v 0.11250000 -7.6540425e-19 -1.2500000e-2
v 0.11250000 -3.0616170e-18 -5.0000000e-2
v 0.10000000 5.0000000e-2 1.2500000e-2
v 0.10000000 7.6540425e-19 1.2500000e-2
v 0.10000000 3.0616170e-18 5.0000000e-2
v 0.11250000 5.0000000e-2 1.2500000e-2
v 0.11250000 7.6540425e-19 1.2500000e-2
v 0.11250000 3.0616170e-18 5.0000000e-2
vt 4.0974703e-2 0.91551172
vt 4.0975473e-2 0.91550785
vt 4.0975473e-2 0.60739598
vt 4.0975688e-2 0.60740059
vt 4.1107674e-2 0.46664159
vt 4.1107674e-2 0.46664159
vt 4.1107674e-2 0.50578314
vt 4.1107674e-2 0.50578314
vt 6.3839677e-2 0.40795961
vt 6.3839677e-2 0.46664159
vt 6.3839677e-2 0.50578314
vt 6.3839677e-2 0.46664159
vt 6.3839677e-2 0.40795961
vt 6.3839677e-2 0.56446512
vt 6.3839677e-2 0.50578314
vt 6.3839677e-2 0.56446512
vt 8.0095904e-2 0.91551184
vt 8.0096006e-2 0.95463311
vt 8.0096217e-2 0.60739945
vt 8.0096793e-2 0.95462917
vt 8.0096793e-2 0.91550785
vt 8.0096793e-2 0.60739598
vt 8.0096793e-2 0.91550785
vt 8.0096793e-2 0.60739598
vt 8.0096793e-2 0.60739598
vt 8.0096793e-2 0.91550785
vt 8.3840801e-2 0.40795961
vt 8.3840801e-2 0.56446512
vt 8.3840801e-2 0.40795961
vt 8.3840801e-2 0.46664159
vt 8.3840801e-2 0.50578314
vt 8.3840801e-2 0.46664159
vt 8.3840801e-2 0.50578314
vt 8.3840801e-2 0.56446512
vt 0.10107770 0.60739598
vt 0.10107933 0.68564220
vt 0.10107992 0.68563862
vt 0.10107992 0.60739598
vt 0.10107992 0.68563862
vt 0.10107992 0.60739598
vt 0.10107992 0.60739598
vt 0.10107992 0.68563862
vt 0.12063980 0.68564237
vt 0.12064000 0.60739912
vt 0.12064058 0.60739598
vt 0.12064058 0.68563862
vt 0.12064058 0.60739598
vt 0.12064058 0.68563862
vt 0.12064058 0.60739598
vt 0.12064058 0.68563862
vt 0.23856422 0.46664159
vt 0.23856422 0.50578314
vt 0.23856422 0.46664159
vt 0.23856422 0.50578314
vt 0.27712482 0.95463250
vt 0.27712538 0.91551184
vt 0.27712586 0.95462917
vt 0.27712586 0.91550785
vt 0.27712586 0.91550785
vt 0.27712586 0.60739598
vt 0.27712586 0.60739598
vt 0.27712586 0.60739998
vt 0.27712586 0.91550785
vt 0.84535276 0.89434578
vt 0.84535276 0.89434578
vt 0.84535276 0.89434578
vt 0.84535276 0.89434578
vt 0.89229835 0.85913659
vt 0.89229835 0.95693989
vt 0.89229835 0.85913659
vt 0.89229835 0.85913659
vt 0.89229835 0.95693989
vt 0.89229835 0.95693989
vt 0.89229835 0.85913659
vt 0.89229835 0.95693989
vt 0.91185901 0.95693989
vt 0.91185901 0.85913659
vt 0.91185901 0.85913659
vt 0.91185901 0.85913659
vt 0.91185901 0.85913659
vt 0.91185901 0.95693989
vt 0.91185901 0.95693989
vt 0.91185901 0.95693989
vt 0.95880459 0.89434578
vt 0.95880459 0.89434578
vt 0.95880459 0.89434578
vn -1.00000000 0.0000000e+0 0.0000000e+0
vn 0.0000000e+0 1.00000000 0.0000000e+0
vn -1.3877788e-17 -6.0137081e-17 -1.00000000
vn -1.3877788e-17 -6.0137081e-17 -1.00000000
vn -1.00000000 0.0000000e+0 0.0000000e+0
vn -2.7755576e-17 -6.2450045e-17 -1.00000000
vn 0.0000000e+0 -1.00000000 6.1232340e-17
vn -1.00000000 0.0000000e+0 0.0000000e+0
vn 0.0000000e+0 1.00000000 0.0000000e+0
vn 1.3877788e-17 6.0137081e-17 1.00000000
vn 1.3877788e-17 6.0137081e-17 1.00000000
vn -1.00000000 0.0000000e+0 0.0000000e+0
vn 2.7755576e-17 6.2450045e-17 1.00000000
vn 0.0000000e+0 -1.00000000 6.1232340e-17
vn -3.4694470e-18 6.2450045e-17 1.00000000
vn 0.0000000e+0 -1.00000000 6.1232340e-17
vn 0.0000000e+0 1.00000000 0.0000000e+0
vn -1.7347235e-18 6.0137081e-17 1.00000000
vn -1.7347235e-18 6.0137081e-17 1.00000000
vn 3.4694470e-18 -6.2450045e-17 -1.00000000
vn 0.0000000e+0 -1.00000000 6.1232340e-17
vn 0.0000000e+0 1.00000000 0.0000000e+0
vn 1.7347235e-18 -6.0137081e-17 -1.00000000
vn 1.7347235e-18 -6.0137081e-17 -1.00000000
vn 0.0000000e+0 0.60000000 -0.80000000
vn 1.00000000 3.7007434e-16 0.0000000e+0
vn 1.7347235e-18 -6.0137081e-17 -1.00000000
vn 1.7347235e-18 -6.0137081e-17 -1.00000000
vn 1.00000000 3.7007434e-16 0.0000000e+0
vn 3.4694470e-18 -6.2450045e-17 -1.00000000
vn 0.0000000e+0 -1.00000000 6.1232340e-17
vn 0.0000000e+0 -1.00000000 6.1232340e-17
vn 0.0000000e+0 -1.00000000 6.1232340e-17
vn 0.0000000e+0 0.60000000 -0.80000000
vn 1.00000000 3.7007434e-16 0.0000000e+0
vn 0.0000000e+0 -1.00000000 6.1232340e-17
vn 0.0000000e+0 0.60000000 -0.80000000
vn -1.00000000 -4.1633363e-16 0.0000000e+0
vn -1.3877788e-17 -6.0137081e-17 -1.00000000
vn -1.3877788e-17 -6.0137081e-17 -1.00000000
vn -1.00000000 -4.1633363e-16 0.0000000e+0
vn -2.7755576e-17 -6.2450045e-17 -1.00000000
vn 0.0000000e+0 -1.00000000 6.1232340e-17
vn 0.0000000e+0 -1.00000000 6.1232340e-17
vn 0.0000000e+0 -1.00000000 6.1232340e-17
vn 0.0000000e+0 0.60000000 -0.80000000
vn -1.00000000 -4.1633363e-16 0.0000000e+0
vn 0.0000000e+0 -1.00000000 6.1232340e-17
vn 0.0000000e+0 0.60000000 0.80000000
vn 1.00000000 -3.7007434e-16 0.0000000e+0
vn -1.7347235e-18 6.0137081e-17 1.00000000
vn -1.7347235e-18 6.0137081e-17 1.00000000
vn 0.0000000e+0 -1.00000000 6.1232340e-17
vn 1.00000000 -3.7007434e-16 0.0000000e+0
vn -3.4694470e-18 6.2450045e-17 1.00000000
vn 0.0000000e+0 -1.00000000 6.1232340e-17
vn 0.0000000e+0 -1.00000000 6.1232340e-17
vn 0.0000000e+0 0.60000000 0.80000000
vn 1.00000000 -3.7007434e-16 0.0000000e+0
vn 0.0000000e+0 -1.00000000 6.1232340e-17
vn 0.0000000e+0 0.60000000 0.80000000
vn -1.00000000 4.1633363e-16 0.0000000e+0
vn 1.3877788e-17 6.0137081e-17 1.00000000
vn 1.3877788e-17 6.0137081e-17 1.00000000
vn 0.0000000e+0 -1.00000000 6.1232340e-17
vn -1.00000000 4.1633363e-16 0.0000000e+0
vn 2.7755576e-17 6.2450045e-17 1.00000000
vn 0.0000000e+0 -1.00000000 6.1232340e-17
vn 0.0000000e+0 -1.00000000 6.1232340e-17
vn 0.0000000e+0 0.60000000 0.80000000
vn -1.00000000 4.1633363e-16 0.0000000e+0
vn 0.0000000e+0 -1.00000000 6.1232340e-17
vn 1.00000000 0.0000000e+0 0.0000000e+0
vn 0.0000000e+0 1.00000000 0.0000000e+0
vn 1.3877788e-17 -6.0137081e-17 -1.00000000
vn 1.3877788e-17 -6.0137081e-17 -1.00000000
vn 1.00000000 0.0000000e+0 0.0000000e+0
vn 2.7755576e-17 -6.2450045e-17 -1.00000000
vn 0.0000000e+0 -1.00000000 6.1232340e-17
vn 1.00000000 0.0000000e+0 0.0000000e+0
vn 0.0000000e+0 1.00000000 0.0000000e+0
vn -1.3877788e-17 6.0137081e-17 1.00000000
vn -1.3877788e-17 6.0137081e-17 1.00000000
vn 1.00000000 0.0000000e+0 0.0000000e+0
vn -2.7755576e-17 6.2450045e-17 1.00000000
vn 0.0000000e+0 -1.00000000 6.1232340e-17
vn 3.4694470e-18 6.2450045e-17 1.00000000
vn 0.0000000e+0 -1.00000000 6.1232340e-17
vn 0.0000000e+0 1.00000000 0.0000000e+0
vn 1.7347235e-18 6.0137081e-17 1.00000000
vn 1.7347235e-18 6.0137081e-17 1.00000000
vn -3.4694470e-18 -6.2450045e-17 -1.00000000
vn 0.0000000e+0 -1.00000000 6.1232340e-17
vn 0.0000000e+0 1.00000000 0.0000000e+0
vn -1.7347235e-18 -6.0137081e-17 -1.00000000
vn -1.7347235e-18 -6.0137081e-17 -1.00000000
vn 0.0000000e+0 0.60000000 -0.80000000
vn -1.00000000 3.7007434e-16 0.0000000e+0
vn -1.7347235e-18 -6.0137081e-17 -1.00000000
vn -1.7347235e-18 -6.0137081e-17 -1.00000000
vn -1.00000000 3.7007434e-16 0.0000000e+0
vn -3.4694470e-18 -6.2450045e-17 -1.00000000
vn 0.0000000e+0 -1.00000000 6.1232340e-17
vn 0.0000000e+0 -1.00000000 6.1232340e-17
vn 0.0000000e+0 -1.00000000 6.1232340e-17
vn 0.0000000e+0 0.60000000 -0.80000000
vn -1.00000000 3.7007434e-16 0.0000000e+0
vn 0.0000000e+0 -1.00000000 6.1232340e-17
vn 0.0000000e+0 0.60000000 -0.80000000
vn 1.00000000 -4.1633363e-16 0.0000000e+0
vn 1.3877788e-17 -6.0137081e-17 -1.00000000
vn 1.3877788e-17 -6.0137081e-17 -1.00000000
vn 1.00000000 -4.1633363e-16 0.0000000e+0
vn 2.7755576e-17 -6.2450045e-17 -1.00000000
vn 0.0000000e+0 -1.00000000 6.1232340e-17
vn 0.0000000e+0 -1.00000000 6.1232340e-17
vn 0.0000000e+0 -1.00000000 6.1232340e-17
vn 0.0000000e+0 0.60000000 -0.80000000
vn 1.00000000 -4.1633363e-16 0.0000000e+0
vn 0.0000000e+0 -1.00000000 6.1232340e-17
vn 0.0000000e+0 0.60000000 0.80000000
vn -1.00000000 -3.7007434e-16 0.0000000e+0
vn 1.7347235e-18 6.0137081e-17 1.00000000
vn 1.7347235e-18 6.0137081e-17 1.00000000
vn 0.0000000e+0 -1.00000000 6.1232340e-17
vn -1.00000000 -3.7007434e-16 0.0000000e+0
vn 3.4694470e-18 6.2450045e-17 1.00000000
vn 0.0000000e+0 -1.00000000 6.1232340e-17
vn 0.0000000e+0 -1.00000000 6.1232340e-17
vn 0.0000000e+0 0.60000000 0.80000000
vn -1.00000000 -3.7007434e-16 0.0000000e+0
vn 0.0000000e+0 -1.00000000 6.1232340e-17
vn 0.0000000e+0 0.60000000 0.80000000
vn 1.00000000 4.1633363e-16 0.0000000e+0
vn -1.3877788e-17 6.0137081e-17 1.00000000
vn -1.3877788e-17 6.0137081e-17 1.00000000
vn 0.0000000e+0 -1.00000000 6.1232340e-17
vn 1.00000000 4.1633363e-16 0.0000000e+0
vn -2.7755576e-17 6.2450045e-17 1.00000000
vn 0.0000000e+0 -1.00000000 6.1232340e-17
vn 0.0000000e+0 -1.00000000 6.1232340e-17
vn 0.0000000e+0 0.60000000 0.80000000
vn 1.00000000 4.1633363e-16 0.0000000e+0
vn 0.0000000e+0 -1.00000000 6.1232340e-17
g shelf1_1_auv
usemtl 1_auv
s 1
f 10/12/17 12/27/24 11/25/20 9/9/13
f 18/72/41 19/76/47 17/77/38
f 20/84/50 22/86/59 21/93/53
f 23/90/62 25/85/71 24/92/66
f 27/74/78 28/78/83 26/80/74
f 29/10/85 31/29/92 32/32/96 30/11/89
f 40/83/121 42/82/130 39/88/118 37/91/109
f 43/81/133 45/79/142 48/87/154 46/89/145
s 2
f 17/77/37 19/76/46 22/86/58 20/84/49
f 26/80/73 28/78/82 25/85/70 23/90/61
f 37/91/110 39/88/119 38/94/113
f 41/75/125 42/82/131 40/83/122
f 44/73/138 45/79/143 43/81/134
f 46/89/146 48/87/155 47/92/150
s 3
f 9/31/15 20/47/51 21/46/54 10/30/18
f 10/13/19 21/20/56 27/23/80 12/16/26
f 11/25/21 14/64/29 16/63/34 9/26/14
f 11/25/22 26/44/75 23/51/64 14/64/31
f 12/27/25 27/43/79 26/44/76 11/25/23
f 13/62/28 24/41/68 18/40/45 15/59/33
f 14/64/30 23/51/63 24/52/67 13/70/27
f 15/68/32 18/53/42 17/54/39 16/66/35
f 16/66/36 17/54/40 20/47/52 9/31/16
f 18/40/44 21/20/57 22/17/60 19/35/48
f 21/20/55 18/40/43 24/41/65 27/23/77
f 25/42/72 28/24/84 27/23/81 24/41/69
f 29/28/86 36/65/106 34/67/101 31/29/93
f 29/34/88 40/50/124 37/58/112 36/71/108
f 30/33/90 41/49/126 40/50/123 29/34/87
f 31/29/95 46/45/148 47/48/151 32/32/97
f 32/15/98 47/19/152 41/18/128 30/14/91
f 33/69/99 44/55/139 43/56/135 34/67/102
f 34/67/103 43/56/136 46/45/147 31/29/94
f 35/61/105 38/38/117 44/39/140 33/60/100
f 36/71/107 37/58/111 38/57/114 35/68/104
f 39/37/120 42/21/132 41/18/129 38/38/116
f 44/39/141 47/19/153 48/22/156 45/36/144
f 47/19/149 44/39/137 38/38/115 41/18/127
